<?xml version="1.0" encoding="UTF-8" standalone="no"?>
<svg
   xmlns:dc="http://purl.org/dc/elements/1.1/"
   xmlns:cc="http://creativecommons.org/ns#"
   xmlns:rdf="http://www.w3.org/1999/02/22-rdf-syntax-ns#"
   xmlns:svg="http://www.w3.org/2000/svg"
   xmlns="http://www.w3.org/2000/svg"
   viewBox="0 0 12.626667 10.466667"
   height="10.466667"
   width="12.626667"
   xml:space="preserve"
   id="svg2"
   version="1.1"><metadata
     id="metadata8"><rdf:RDF><cc:Work
         rdf:about=""><dc:format>image/svg+xml</dc:format><dc:type
           rdf:resource="http://purl.org/dc/dcmitype/StillImage" /></cc:Work></rdf:RDF></metadata><defs
     id="defs6"><clipPath
       id="clipPath20"
       clipPathUnits="userSpaceOnUse"><path
         id="path18"
         d="M 0,78 H 90 V 0 H 0 Z" /></clipPath></defs><g
     transform="matrix(1.3333333,0,0,-1.3333333,0,10.466667)"
     id="g10"><g
       transform="scale(0.1)"
       id="g12"><g
         id="g14"><g
           clip-path="url(#clipPath20)"
           id="g16"><path
             id="path22"
             style="fill:none;stroke:#FFFFFF;stroke-width:5;stroke-linecap:round;stroke-linejoin:round;stroke-miterlimit:1;stroke-dasharray:none;stroke-opacity:1"
             d="M 18.4375,2.5 C 8.83594,10.1836 2.5,23.5039 2.5,38.6523 2.5,54.5898 9.51172,68.5039 19.9609,75.957" /><path
             id="path24"
             style="fill:none;stroke:#FFFFFF;stroke-width:5;stroke-linecap:round;stroke-linejoin:round;stroke-miterlimit:1;stroke-dasharray:none;stroke-opacity:1"
             d="m 32.8828,2.5 c -9.6015,7.6836 -15.9297,21.0039 -15.9297,36.1523 0,15.9375 7.0117,29.8516 17.4532,37.3047" /><path
             id="path26"
             style="fill:none;stroke:#FFFFFF;stroke-width:5;stroke-linecap:round;stroke-linejoin:round;stroke-miterlimit:1;stroke-dasharray:none;stroke-opacity:1"
             d="m 47.3359,2.5 c -9.6015,7.6836 -15.9375,21.0039 -15.9375,36.1523 0,15.9375 7.0196,29.8516 17.4571,37.3047" /><path
             id="path28"
             style="fill:none;stroke:#FFFFFF;stroke-width:5;stroke-linecap:round;stroke-linejoin:round;stroke-miterlimit:1;stroke-dasharray:none;stroke-opacity:1"
             d="m 61.7773,2.5 c -9.5898,7.6836 -15.9296,21.0039 -15.9296,36.1523 0,15.9375 7.0117,29.8516 17.4609,37.3047" /><path
             id="path30"
             style="fill:none;stroke:#FFFFFF;stroke-width:5;stroke-linecap:round;stroke-linejoin:round;stroke-miterlimit:1;stroke-dasharray:none;stroke-opacity:1"
             d="m 76.2305,2.5 c -9.5899,7.6836 -15.9297,21.0039 -15.9297,36.1523 0,15.9375 7.0156,29.8516 17.4531,37.3047" /><path
             id="path32"
             style="fill:none;stroke:#FFFFFF;stroke-width:5;stroke-linecap:round;stroke-linejoin:round;stroke-miterlimit:1;stroke-dasharray:none;stroke-opacity:1"
             d="m 90.6797,2.5 c -9.5899,7.6836 -15.9336,21.0039 -15.9336,36.1523 0,15.9375 7.0273,29.8516 17.457,37.3047" /><path
             id="path34"
             style="fill:none;stroke:#FFFFFF;stroke-width:5;stroke-linecap:round;stroke-linejoin:round;stroke-miterlimit:1;stroke-dasharray:none;stroke-opacity:1"
             d="M 18.4375,2.5 C 8.83594,10.1836 2.5,23.5039 2.5,38.6523 2.5,54.5898 9.51172,68.5039 19.9609,75.957" /><path
             id="path36"
             style="fill:none;stroke:#FFFFFF;stroke-width:5;stroke-linecap:round;stroke-linejoin:round;stroke-miterlimit:1;stroke-dasharray:none;stroke-opacity:1"
             d="m 32.8828,2.5 c -9.6015,7.6836 -15.9297,21.0039 -15.9297,36.1523 0,15.9375 7.0117,29.8516 17.4532,37.3047" /><path
             id="path38"
             style="fill:none;stroke:#FFFFFF;stroke-width:5;stroke-linecap:round;stroke-linejoin:round;stroke-miterlimit:1;stroke-dasharray:none;stroke-opacity:1"
             d="m 47.3359,2.5 c -9.6015,7.6836 -15.9375,21.0039 -15.9375,36.1523 0,15.9375 7.0196,29.8516 17.4571,37.3047" /><path
             id="path40"
             style="fill:none;stroke:#FFFFFF;stroke-width:5;stroke-linecap:round;stroke-linejoin:round;stroke-miterlimit:1;stroke-dasharray:none;stroke-opacity:1"
             d="m 61.7773,2.5 c -9.5898,7.6836 -15.9296,21.0039 -15.9296,36.1523 0,15.9375 7.0117,29.8516 17.4609,37.3047" /><path
             id="path42"
             style="fill:none;stroke:#FFFFFF;stroke-width:5;stroke-linecap:round;stroke-linejoin:round;stroke-miterlimit:1;stroke-dasharray:none;stroke-opacity:1"
             d="m 76.2305,2.5 c -9.5899,7.6836 -15.9297,21.0039 -15.9297,36.1523 0,15.9375 7.0156,29.8516 17.4531,37.3047" /><path
             id="path44"
             style="fill:none;stroke:#FFFFFF;stroke-width:5;stroke-linecap:round;stroke-linejoin:round;stroke-miterlimit:1;stroke-dasharray:none;stroke-opacity:1"
             d="m 90.6797,2.5 c -9.5899,7.6836 -15.9336,21.0039 -15.9336,36.1523 0,15.9375 7.0273,29.8516 17.457,37.3047" /></g></g></g></g></svg>