<?xml version="1.0" encoding="utf-8"?>
<!-- Generator: Adobe Illustrator 20.1.0, SVG Export Plug-In . SVG Version: 6.00 Build 0)  -->
<svg version="1.1" id="Layer_1" xmlns="http://www.w3.org/2000/svg" xmlns:xlink="http://www.w3.org/1999/xlink" x="0px" y="0px"
	 viewBox="0 0 74.4 74.8" style="enable-background:new 0 0 74.4 74.8;" xml:space="preserve">
<style type="text/css">
	.st0{fill:#FFFFFF;stroke:#000000;stroke-width:0.8;}
	.st1{fill:#000000;}
	.st2{fill:#000000;stroke:#000000;stroke-width:0.8;}
</style>
<g>
	<g>
		<g>
			<path class="st0" d="M74,14.7C74,22.6,57.5,29,37.2,29S0.4,22.6,0.4,14.7v45.4c0,7.9,16.5,14.3,36.8,14.3S74,68,74,60.1V14.7z"/>
			<ellipse class="st0" cx="37.2" cy="14.7" rx="36.8" ry="14.3"/>
		</g>
	</g>
	<polygon class="st1" points="33.2,36.5 33.2,63.9 65.1,50.7 	"/>
	<g>
		<rect x="19.4" y="36.3" class="st2" width="10.4" height="5.7"/>
	</g>
	<g>
		<rect x="19.4" y="43.7" class="st2" width="10.4" height="5.7"/>
	</g>
	<g>
		<rect x="19.4" y="51.3" class="st2" width="10.4" height="5.7"/>
	</g>
	<g>
		<polygon class="st2" points="29.7,58.9 29.7,64.7 19.4,64.7 19.4,59 		"/>
	</g>
	<polygon class="st1" points="29.3,8.6 32.3,13.2 20.9,15.8 23.4,13.7 5.6,10.7 10.1,7.4 27.2,10.3 	"/>
	<polygon class="st1" points="45.5,19.7 43.4,15 53.8,12.9 52,14.5 69.2,17.5 65.1,20.8 47.9,17.6 	"/>
	<polygon class="st1" points="39.8,6.1 51.4,3 51.5,7.9 48.6,7.4 43,12.1 37.6,11.3 43.4,6.7 	"/>
	<polygon class="st1" points="34.8,23.9 23.8,26 23.4,20.9 26.5,21.6 32.6,16.4 38,17.3 31.5,23 	"/>
</g>
</svg>
