<?xml version="1.0" encoding="utf-8"?>
<!-- Generator: Adobe Illustrator 20.1.0, SVG Export Plug-In . SVG Version: 6.00 Build 0)  -->
<svg version="1.1" id="Layer_1" xmlns="http://www.w3.org/2000/svg" xmlns:xlink="http://www.w3.org/1999/xlink" x="0px" y="0px"
	 viewBox="0 0 48.7 73.1" style="enable-background:new 0 0 48.7 73.1;" xml:space="preserve">
<style type="text/css">
	.st0{fill:#FFFFFF;stroke:#000000;stroke-width:0.8;}
	.st1{fill:#000000;}
	.st2{fill:#FFFFFF;}
</style>
<g>
	<g>
		<g>
			<rect x="1.3" y="8.5" class="st0" width="37.1" height="63.5"/>
			<polygon class="st0" points="12.4,0.9 1.3,8.5 38.3,8.5 47.6,0.9 			"/>
			<polygon class="st0" points="47.6,60.5 47.6,0.9 38.3,8.9 38.3,71.9 			"/>
		</g>
		<g>
			<polygon class="st1" points="20.3,9.4 2.6,39.8 38.1,39.8 			"/>
			<polygon class="st1" points="20.3,70.2 2.6,39.8 38.1,39.8 			"/>
		</g>
	</g>
	<path class="st2" d="M18.1,46.2l4-3.6c-4-0.1-6,0.1-8.6,0.3c-1.3,4.7-2.3,7.6-3.6,10.7l4.2-3.8c3,2.8,6.7,3.5,9.9,2
		c0.1-0.1,0.2-0.2,0.3-0.2l5.1-4.6C26.1,50,21.5,49.7,18.1,46.2z"/>
	<path class="st2" d="M14.5,39.8c-1-4.1-0.5-8.6,1.8-11.7c0.4-0.6,0.9-1.1,1.4-1.6L12.6,31c-0.5,0.4-1,1-1.4,1.6
		c-2.2,3.1-2.8,7.6-1.8,11.6L14.5,39.8z"/>
	<path class="st2" d="M24.5,26.3c-2-0.9-4.2-1.1-6.2-0.4c-0.2,0.2-0.5,0.4-0.7,0.6L12.6,31c2.3-2.1,5.3-2.5,8.1-1.4l-2.8,2.4
		l8.6-0.2l1.5-8.6L24.5,26.3z"/>
	<path class="st2" d="M31,29.4c3.2,6.4,2,12.8-0.3,16.1c-0.4,0.6-0.9,1.1-1.4,1.6l-5.1,4.6c0.5-0.4,1-1,1.4-1.6
		c4.1-6.1,1.7-12.1,0.4-16.1L31,29.4z"/>
</g>
</svg>
