<?xml version="1.0" encoding="utf-8"?>
<!-- Generator: Adobe Illustrator 20.1.0, SVG Export Plug-In . SVG Version: 6.00 Build 0)  -->
<svg version="1.1" id="Layer_1" xmlns="http://www.w3.org/2000/svg" xmlns:xlink="http://www.w3.org/1999/xlink" x="0px" y="0px"
	 viewBox="0 0 83.1 62.7" style="enable-background:new 0 0 83.1 62.7;" xml:space="preserve">
<style type="text/css">
	.st0{fill:#FFFFFF;stroke:#000000;stroke-width:0.8;}
	.st1{stroke:#000000;stroke-width:0.8;}
	.st2{fill:#000000;}
</style>
<g>
	<g>
		<g>
			<g>
				<g>
					<g>
						<rect x="22.3" y="8.2" class="st0" width="53.6" height="53.7"/>
						<polygon class="st0" points="28.6,1.3 82.2,1.3 75.5,8.1 21.9,8.1 						"/>
					</g>
				</g>
				<g>
					<polygon class="st0" points="82.4,51.6 75.7,61.4 75.7,7.7 82.4,1 					"/>
					<rect x="0.6" y="8.2" class="st0" width="21.7" height="53.7"/>
					<polygon class="st0" points="7.7,1.3 29.4,1.3 22.7,8.1 1,8.1 					"/>
					<line class="st0" x1="22.3" y1="8.2" x2="22.3" y2="61.9"/>
					<line class="st1" x1="22.7" y1="27.6" x2="1" y2="27.6"/>
				</g>
			</g>
			<g>
				<polygon class="st2" points="41.3,33.9 29.7,33.9 29.7,31.9 25.3,34.8 29.7,37.8 29.7,35.8 41.3,35.8 				"/>
				<polygon class="st2" points="43,39.8 34.8,48 33.4,46.6 32.3,51.8 37.5,50.7 36.1,49.4 44.3,41.2 				"/>
				<polygon class="st2" points="48.3,42.8 48.3,54.4 46.4,54.4 49.3,58.8 52.2,54.4 50.2,54.4 50.2,42.8 				"/>
				<polygon class="st2" points="54.3,41.2 62.5,49.4 61.1,50.7 66.2,51.8 65.2,46.6 63.8,48 55.6,39.8 				"/>
				<polygon class="st2" points="57.3,35.8 68.9,35.8 68.9,37.8 73.2,34.8 68.9,31.9 68.9,33.9 57.3,33.9 				"/>
				<polygon class="st2" points="55.6,29.9 63.8,21.7 65.2,23.1 66.2,17.9 61.1,19 62.5,20.3 54.3,28.5 				"/>
				<polygon class="st2" points="50.2,26.9 50.2,15.3 52.2,15.3 49.3,10.9 46.4,15.3 48.3,15.3 48.3,26.9 				"/>
				<polygon class="st2" points="44.3,28.5 36.1,20.3 37.5,19 32.3,17.9 33.4,23.1 34.8,21.7 43,29.9 				"/>
			</g>
		</g>
		<g>
			<ellipse transform="matrix(0.8191 -0.5736 0.5736 0.8191 -10.9774 34.4689)" class="st2" cx="49.2" cy="34.6" rx="12" ry="12"/>
		</g>
	</g>
	<g>
		<g>
			<polygon class="st2" points="9.4,17.9 5.9,17.9 5.9,17.3 4.6,18.1 5.9,19 5.9,18.4 9.4,18.4 			"/>
			<polygon class="st2" points="9.9,19.6 7.4,22.1 7,21.7 6.7,23.2 8.3,22.9 7.8,22.5 10.3,20 			"/>
			<polygon class="st2" points="11.5,20.5 11.5,24 10.9,24 11.8,25.3 12.7,24 12.1,24 12.1,20.5 			"/>
			<polygon class="st2" points="13.3,20 15.8,22.5 15.3,22.9 16.9,23.2 16.6,21.7 16.2,22.1 13.7,19.6 			"/>
			<polygon class="st2" points="14.2,18.4 17.7,18.4 17.7,19 19,18.1 17.7,17.3 17.7,17.9 14.2,17.9 			"/>
			<polygon class="st2" points="13.7,16.6 16.2,14.2 16.6,14.6 16.9,13.1 15.3,13.4 15.8,13.8 13.3,16.2 			"/>
			<polygon class="st2" points="12.1,15.7 12.1,12.3 12.7,12.3 11.8,10.9 10.9,12.3 11.5,12.3 11.5,15.7 			"/>
			<polygon class="st2" points="10.3,16.2 7.8,13.8 8.3,13.4 6.7,13.1 7,14.6 7.4,14.2 9.9,16.6 			"/>
		</g>
		<g>
			<ellipse transform="matrix(0.8191 -0.5736 0.5736 0.8191 -8.239 10.0172)" class="st2" cx="11.8" cy="18.1" rx="3.6" ry="3.6"/>
		</g>
	</g>
	<g>
		<polygon class="st2" points="10.6,45.1 10.6,54.8 9,54.8 11.4,58.4 13.8,54.8 12.1,54.8 12.1,45.1 		"/>
		<polygon class="st2" points="13.3,44.9 16.6,54 15,54.5 18.5,57.1 19.6,52.9 18,53.4 14.7,44.4 		"/>
		<polygon class="st2" points="9.5,44.9 6.2,54 7.8,54.5 4.3,57.1 3.2,52.9 4.8,53.4 8.1,44.4 		"/>
		<polygon class="st2" points="10.6,30.2 10.6,39.5 9,39.5 11.4,43.1 13.8,39.5 12.1,39.5 12.1,30.2 		"/>
	</g>
</g>
</svg>
