<?xml version="1.0" encoding="UTF-8" standalone="no"?>
<svg
   xmlns:dc="http://purl.org/dc/elements/1.1/"
   xmlns:cc="http://creativecommons.org/ns#"
   xmlns:rdf="http://www.w3.org/1999/02/22-rdf-syntax-ns#"
   xmlns:svg="http://www.w3.org/2000/svg"
   xmlns="http://www.w3.org/2000/svg"
   viewBox="0 0 48.986668 28.533333"
   height="28.533333"
   width="48.986668"
   xml:space="preserve"
   id="svg2"
   version="1.1"><metadata
     id="metadata8"><rdf:RDF><cc:Work
         rdf:about=""><dc:format>image/svg+xml</dc:format><dc:type
           rdf:resource="http://purl.org/dc/dcmitype/StillImage" /></cc:Work></rdf:RDF></metadata><defs
     id="defs6"><clipPath
       id="clipPath20"
       clipPathUnits="userSpaceOnUse"><path
         id="path18"
         d="M 0,3 V 214 H 367 V 3 Z" /></clipPath></defs><g
     transform="matrix(1.3333333,0,0,-1.3333333,0,28.533333)"
     id="g10"><g
       transform="scale(0.1)"
       id="g12"><g
         id="g14"><g
           clip-path="url(#clipPath20)"
           id="g16"><path
             id="path22"
             style="fill:#FFFFFF;fill-opacity:1;fill-rule:nonzero;stroke:none"
             d="m 4.82813,4 h 330.742 V 182.133 H 4.82813 Z" /><path
             id="path24"
             style="fill:none;stroke:#000000;stroke-width:4;stroke-linecap:butt;stroke-linejoin:miter;stroke-miterlimit:4;stroke-dasharray:none;stroke-opacity:1"
             d="M 335.57,4 V 182.133 H 4.82813 L 4.82813,4 Z" /><path
             id="path26"
             style="fill:#FFFFFF;fill-opacity:1;fill-rule:nonzero;stroke:none"
             d="m 4.82813,4 h 330.742 V 182.133 H 4.82813 Z" /><path
             id="path28"
             style="fill:none;stroke:#000000;stroke-width:4;stroke-linecap:butt;stroke-linejoin:miter;stroke-miterlimit:4;stroke-dasharray:none;stroke-opacity:1"
             d="M 335.57,4 V 182.133 H 4.82813 L 4.82813,4 H 335.57" /><path
             id="path30"
             style="fill:#FFFFFF;fill-opacity:1;fill-rule:nonzero;stroke:none"
             d="M 4.82813,182.133 31.8203,209.137 H 362.563 L 335.57,182.133 H 4.82813" /><path
             id="path32"
             style="fill:none;stroke:#000000;stroke-width:4;stroke-linecap:butt;stroke-linejoin:miter;stroke-miterlimit:4;stroke-dasharray:none;stroke-opacity:1"
             d="M 4.82813,182.133 31.8203,209.137 H 362.563 L 335.57,182.133 Z" /><path
             id="path34"
             style="fill:#FFFFFF;fill-opacity:1;fill-rule:nonzero;stroke:none"
             d="M 4.82813,182.133 31.8203,209.137 H 362.563 L 335.57,182.133 H 4.82813" /><path
             id="path36"
             style="fill:none;stroke:#000000;stroke-width:4;stroke-linecap:butt;stroke-linejoin:miter;stroke-miterlimit:4;stroke-dasharray:none;stroke-opacity:1"
             d="M 4.82813,182.133 31.8203,209.137 H 362.563 L 335.57,182.133 H 4.82813" /><path
             id="path38"
             style="fill:#FFFFFF;fill-opacity:1;fill-rule:nonzero;stroke:none"
             d="m 335.57,4 26.993,20.2422 V 209.137 L 335.57,182.133 V 4" /><path
             id="path40"
             style="fill:none;stroke:#000000;stroke-width:4;stroke-linecap:butt;stroke-linejoin:miter;stroke-miterlimit:4;stroke-dasharray:none;stroke-opacity:1"
             d="m 335.57,4 26.993,20.2422 V 209.137 L 335.57,182.133 Z" /><path
             id="path42"
             style="fill:#FFFFFF;fill-opacity:1;fill-rule:nonzero;stroke:none"
             d="m 335.57,4 26.993,20.2422 V 209.137 L 335.57,182.133 V 4" /><path
             id="path44"
             style="fill:none;stroke:#000000;stroke-width:4;stroke-linecap:butt;stroke-linejoin:miter;stroke-miterlimit:4;stroke-dasharray:none;stroke-opacity:1"
             d="m 335.57,4 26.993,20.2422 V 209.137 L 335.57,182.133 V 4" /><path
             id="path46"
             style="fill:#FFFFFF;fill-opacity:1;fill-rule:evenodd;stroke:none"
             d="M 31.8203,121.391 V 60.6289 l 6.7383,-6.7383 h 60.7617 l 6.7387,6.7383 v 60.7621 l -6.7387,6.738 H 38.5586 l -6.7383,-6.738" /><path
             id="path48"
             style="fill:none;stroke:#000000;stroke-width:4;stroke-linecap:butt;stroke-linejoin:miter;stroke-miterlimit:4;stroke-dasharray:none;stroke-opacity:1"
             d="M 31.8203,121.391 V 60.6289 l 6.7383,-6.7383 h 60.7617 l 6.7387,6.7383 v 60.7621 l -6.7387,6.738 H 38.5586 Z" /><path
             id="path50"
             style="fill:#FFFFFF;fill-opacity:1;fill-rule:nonzero;stroke:none"
             d="M 31.8203,121.391 V 60.6289 l 6.7383,-6.7383 h 60.7617 l 6.7387,6.7383 v 60.7621 l -6.7387,6.738 H 38.5586 l -6.7383,-6.738" /><path
             id="path52"
             style="fill:none;stroke:#000000;stroke-width:4;stroke-linecap:butt;stroke-linejoin:miter;stroke-miterlimit:4;stroke-dasharray:none;stroke-opacity:1"
             d="M 31.8203,121.391 V 60.6289 l 6.7383,-6.7383 h 60.7617 l 6.7387,6.7383 v 60.7621 l -6.7387,6.738 H 38.5586 l -6.7383,-6.738" /><path
             id="path54"
             style="fill:#FFFFFF;fill-opacity:1;fill-rule:nonzero;stroke:none"
             d="m 31.8203,121.391 6.7383,-6.758 33.75,-6.746 27.0117,6.746 6.7387,6.758" /><path
             id="path56"
             style="fill:none;stroke:#000000;stroke-width:4;stroke-linecap:butt;stroke-linejoin:miter;stroke-miterlimit:4;stroke-dasharray:none;stroke-opacity:1"
             d="m 31.8203,121.391 6.7383,-6.758 33.75,-6.746 27.0117,6.746 6.7387,6.758" /><path
             id="path58"
             style="fill:#FFFFFF;fill-opacity:1;fill-rule:evenodd;stroke:none"
             d="M 133.066,121.391 V 60.6289 l 6.739,-6.7383 h 60.765 l 6.739,6.7383 v 60.7621 l -6.739,6.738 h -60.765 l -6.739,-6.738" /><path
             id="path60"
             style="fill:none;stroke:#000000;stroke-width:4;stroke-linecap:butt;stroke-linejoin:miter;stroke-miterlimit:4;stroke-dasharray:none;stroke-opacity:1"
             d="M 133.066,121.391 V 60.6289 l 6.739,-6.7383 h 60.765 l 6.739,6.7383 v 60.7621 l -6.739,6.738 h -60.765 z" /><path
             id="path62"
             style="fill:#FFFFFF;fill-opacity:1;fill-rule:nonzero;stroke:none"
             d="M 133.066,121.391 V 60.6289 l 6.739,-6.7383 h 60.765 l 6.739,6.7383 v 60.7621 l -6.739,6.738 h -60.765 l -6.739,-6.738" /><path
             id="path64"
             style="fill:none;stroke:#000000;stroke-width:4;stroke-linecap:butt;stroke-linejoin:miter;stroke-miterlimit:4;stroke-dasharray:none;stroke-opacity:1"
             d="M 133.066,121.391 V 60.6289 l 6.739,-6.7383 h 60.765 l 6.739,6.7383 v 60.7621 l -6.739,6.738 h -60.765 l -6.739,-6.738" /><path
             id="path66"
             style="fill:#FFFFFF;fill-opacity:1;fill-rule:nonzero;stroke:none"
             d="m 133.066,121.391 6.739,-6.758 33.758,-6.746 27.007,6.746 6.739,6.758" /><path
             id="path68"
             style="fill:none;stroke:#000000;stroke-width:4;stroke-linecap:butt;stroke-linejoin:miter;stroke-miterlimit:4;stroke-dasharray:none;stroke-opacity:1"
             d="m 133.066,121.391 6.739,-6.758 33.758,-6.746 27.007,6.746 6.739,6.758" /><path
             id="path70"
             style="fill:#FFFFFF;fill-opacity:1;fill-rule:evenodd;stroke:none"
             d="M 234.32,114.633 V 60.6289 l 6.739,-6.7383 33.75,-6.7578 27.011,6.7578 6.739,6.7383 v 54.0041 l -6.739,6.758 -27.011,6.738 -33.75,-6.738 -6.739,-6.758" /><path
             id="path72"
             style="fill:none;stroke:#000000;stroke-width:4;stroke-linecap:butt;stroke-linejoin:miter;stroke-miterlimit:4;stroke-dasharray:none;stroke-opacity:1"
             d="M 234.32,114.633 V 60.6289 l 6.739,-6.7383 33.75,-6.7578 27.011,6.7578 6.739,6.7383 v 54.0041 l -6.739,6.758 -27.011,6.738 -33.75,-6.738 z" /><path
             id="path74"
             style="fill:#FFFFFF;fill-opacity:1;fill-rule:nonzero;stroke:none"
             d="M 234.32,114.633 V 60.6289 l 6.739,-6.7383 33.75,-6.7578 27.011,6.7578 6.739,6.7383 v 54.0041 l -6.739,6.758 -27.011,6.738 -33.75,-6.738 -6.739,-6.758" /><path
             id="path76"
             style="fill:none;stroke:#000000;stroke-width:4;stroke-linecap:butt;stroke-linejoin:miter;stroke-miterlimit:4;stroke-dasharray:none;stroke-opacity:1"
             d="M 234.32,114.633 V 60.6289 l 6.739,-6.7383 33.75,-6.7578 27.011,6.7578 6.739,6.7383 v 54.0041 l -6.739,6.758 -27.011,6.738 -33.75,-6.738 -6.739,-6.758" /><path
             id="path78"
             style="fill:#FFFFFF;fill-opacity:1;fill-rule:nonzero;stroke:none"
             d="m 234.32,114.633 6.739,-6.746 h 60.761 l 6.739,6.746" /><path
             id="path80"
             style="fill:none;stroke:#000000;stroke-width:4;stroke-linecap:butt;stroke-linejoin:miter;stroke-miterlimit:4;stroke-dasharray:none;stroke-opacity:1"
             d="m 234.32,114.633 6.739,-6.746 h 60.761 l 6.739,6.746" /></g></g></g></g></svg>