<?xml version="1.0" encoding="utf-8"?>
<!-- Generator: Adobe Illustrator 20.1.0, SVG Export Plug-In . SVG Version: 6.00 Build 0)  -->
<svg version="1.1" id="Layer_1" xmlns="http://www.w3.org/2000/svg" xmlns:xlink="http://www.w3.org/1999/xlink" x="0px" y="0px"
	 viewBox="0 0 30.2 66.2" style="enable-background:new 0 0 30.2 66.2;" xml:space="preserve">
<style type="text/css">
	.st0{fill:#FFFFFF;stroke:#000000;stroke-width:0.8;}
</style>
<g>
	<rect x="1.2" y="12.1" class="st0" width="15.9" height="53"/>
	<polygon class="st0" points="17,12.1 1.2,12.1 15.3,0.9 29.2,0.9 	"/>
	<polygon class="st0" points="29.2,0.9 29.2,51.5 17,65.2 17,12.1 	"/>
	<line class="st0" x1="25.4" y1="12.8" x2="25.4" y2="4.3"/>
	<line class="st0" x1="25.4" y1="30" x2="25.4" y2="21.5"/>
	<line class="st0" x1="25.4" y1="47.2" x2="25.4" y2="38.7"/>
	<g>
		<line class="st0" x1="29.2" y1="43" x2="17" y2="56.3"/>
		<line class="st0" x1="29.2" y1="34.6" x2="17" y2="47.5"/>
		<line class="st0" x1="29.2" y1="26.2" x2="17" y2="38.7"/>
		<line class="st0" x1="29.2" y1="17.8" x2="17" y2="29.8"/>
		<line class="st0" x1="29.2" y1="9.3" x2="17" y2="21"/>
	</g>
	<line class="st0" x1="17" y1="12.1" x2="29.2" y2="0.9"/>
	<g>
		<line class="st0" x1="17" y1="56.3" x2="1.2" y2="56.3"/>
		<line class="st0" x1="17" y1="47.5" x2="1.2" y2="47.5"/>
		<line class="st0" x1="17" y1="38.6" x2="1.2" y2="38.6"/>
		<line class="st0" x1="17" y1="29.8" x2="1.2" y2="29.8"/>
		<line class="st0" x1="17" y1="21" x2="1.2" y2="21"/>
	</g>
	<line class="st0" x1="21.3" y1="60.3" x2="21.3" y2="51.8"/>
	<line class="st0" x1="21.3" y1="42.9" x2="21.3" y2="34.3"/>
	<line class="st0" x1="21.3" y1="25.6" x2="21.3" y2="17"/>
</g>
</svg>
