<?xml version="1.0" encoding="UTF-8" standalone="no"?>
<svg
   xmlns:dc="http://purl.org/dc/elements/1.1/"
   xmlns:cc="http://creativecommons.org/ns#"
   xmlns:rdf="http://www.w3.org/1999/02/22-rdf-syntax-ns#"
   xmlns:svg="http://www.w3.org/2000/svg"
   xmlns="http://www.w3.org/2000/svg"
   viewBox="0 0 27.453333 33.266666"
   height="33.266666"
   width="27.453333"
   xml:space="preserve"
   id="svg2"
   version="1.1"><metadata
     id="metadata8"><rdf:RDF><cc:Work
         rdf:about=""><dc:format>image/svg+xml</dc:format><dc:type
           rdf:resource="http://purl.org/dc/dcmitype/StillImage" /></cc:Work></rdf:RDF></metadata><defs
     id="defs6" /><g
     transform="matrix(1.3333333,0,0,-1.3333333,0,33.266667)"
     id="g10"><g
       transform="scale(0.1)"
       id="g12"><path
         id="path14"
         style="fill:#FFFFFF;fill-opacity:1;fill-rule:nonzero;stroke:none"
         d="m 4.82813,4.82813 h 53.6328 v 204.738 H 4.82813 Z" /><path
         id="path16"
         style="fill:none;stroke:#000000;stroke-width:4;stroke-linecap:butt;stroke-linejoin:miter;stroke-miterlimit:4;stroke-dasharray:none;stroke-opacity:1"
         d="M 58.4609,209.566 H 4.82813 V 4.82813 H 58.4609" /><path
         id="path18"
         style="fill:#FFFFFF;fill-opacity:1;fill-rule:nonzero;stroke:none"
         d="M 58.4609,4.82813 96.4102,42.7773 V 247.504 H 42.7695 L 4.82813,209.566 H 58.4609 V 4.82813" /><path
         id="path20"
         style="fill:none;stroke:#000000;stroke-width:4;stroke-linecap:butt;stroke-linejoin:miter;stroke-miterlimit:4;stroke-dasharray:none;stroke-opacity:1"
         d="M 58.4609,4.82813 96.4102,42.7773 V 247.504 H 42.7695 L 4.82813,209.566 H 58.4609 Z" /><path
         id="path22"
         style="fill:#FFFFFF;fill-opacity:1;fill-rule:nonzero;stroke:none"
         d="m 58.4609,209.566 37.9493,37.938" /><path
         id="path24"
         style="fill:none;stroke:#000000;stroke-width:4;stroke-linecap:butt;stroke-linejoin:miter;stroke-miterlimit:4;stroke-dasharray:none;stroke-opacity:1"
         d="m 58.4609,209.566 37.9493,37.938" /><path
         id="path26"
         style="fill:#FFFFFF;fill-opacity:1;fill-rule:nonzero;stroke:none"
         d="m 58.5781,4.82813 h 53.6328 v 204.738 H 58.5781 Z" /><path
         id="path28"
         style="fill:none;stroke:#000000;stroke-width:4;stroke-linecap:butt;stroke-linejoin:miter;stroke-miterlimit:4;stroke-dasharray:none;stroke-opacity:1"
         d="M 112.211,209.566 H 58.5781 V 4.82813 h 53.6329" /><path
         id="path30"
         style="fill:#FFFFFF;fill-opacity:1;fill-rule:nonzero;stroke:none"
         d="M 112.211,4.82813 150.156,42.7773 V 247.504 H 96.5195 L 58.5781,209.566 H 112.211 V 4.82813" /><path
         id="path32"
         style="fill:none;stroke:#000000;stroke-width:4;stroke-linecap:butt;stroke-linejoin:miter;stroke-miterlimit:4;stroke-dasharray:none;stroke-opacity:1"
         d="M 112.211,4.82813 150.156,42.7773 V 247.504 H 96.5195 L 58.5781,209.566 h 53.6329 z" /><path
         id="path34"
         style="fill:#FFFFFF;fill-opacity:1;fill-rule:nonzero;stroke:none"
         d="m 112.211,209.566 37.945,37.938" /><path
         id="path36"
         style="fill:none;stroke:#000000;stroke-width:4;stroke-linecap:butt;stroke-linejoin:miter;stroke-miterlimit:4;stroke-dasharray:none;stroke-opacity:1"
         d="m 112.211,209.566 37.945,37.938" /><path
         id="path38"
         style="fill:#FFFFFF;fill-opacity:1;fill-rule:nonzero;stroke:none"
         d="m 112.328,4.82813 h 53.6289 v 204.738 H 112.328 Z" /><path
         id="path40"
         style="fill:none;stroke:#000000;stroke-width:4;stroke-linecap:butt;stroke-linejoin:miter;stroke-miterlimit:4;stroke-dasharray:none;stroke-opacity:1"
         d="M 165.957,209.566 H 112.328 V 4.82813 h 53.629" /><path
         id="path42"
         style="fill:#FFFFFF;fill-opacity:1;fill-rule:nonzero;stroke:none"
         d="M 165.957,4.82813 203.906,42.7773 V 247.504 h -53.633 l -37.945,-37.938 h 53.629 V 4.82813" /><path
         id="path44"
         style="fill:none;stroke:#000000;stroke-width:4;stroke-linecap:butt;stroke-linejoin:miter;stroke-miterlimit:4;stroke-dasharray:none;stroke-opacity:1"
         d="M 165.957,4.82813 203.906,42.7773 V 247.504 h -53.633 l -37.945,-37.938 h 53.629 z" /><path
         id="path46"
         style="fill:#FFFFFF;fill-opacity:1;fill-rule:nonzero;stroke:none"
         d="m 165.957,209.566 37.949,37.938" /><path
         id="path48"
         style="fill:none;stroke:#000000;stroke-width:4;stroke-linecap:butt;stroke-linejoin:miter;stroke-miterlimit:4;stroke-dasharray:none;stroke-opacity:1"
         d="m 165.957,209.566 37.949,37.938" /><path
         id="path50"
         style="fill:#FFFFFF;fill-opacity:1;fill-rule:nonzero;stroke:none"
         d="m 119.371,173.668 h 38.7539 v 28.75 H 119.371 Z" /><path
         id="path52"
         style="fill:none;stroke:#000000;stroke-width:4;stroke-linecap:butt;stroke-linejoin:miter;stroke-miterlimit:4;stroke-dasharray:none;stroke-opacity:1"
         d="m 158.125,173.668 v 28.75 h -38.754 v -28.75 z" /><path
         id="path54"
         style="fill:#FFFFFF;fill-opacity:1;fill-rule:nonzero;stroke:none"
         d="m 119.371,140.543 h 38.7539 v 28.75 H 119.371 Z" /><path
         id="path56"
         style="fill:none;stroke:#000000;stroke-width:4;stroke-linecap:butt;stroke-linejoin:miter;stroke-miterlimit:4;stroke-dasharray:none;stroke-opacity:1"
         d="m 158.125,140.543 v 28.75 h -38.754 v -28.75 z" /><path
         id="path58"
         style="fill:#FFFFFF;fill-opacity:1;fill-rule:nonzero;stroke:none"
         d="m 119.371,26.168 h 38.7539 v 28.75 H 119.371 Z" /><path
         id="path60"
         style="fill:none;stroke:#000000;stroke-width:4;stroke-linecap:butt;stroke-linejoin:miter;stroke-miterlimit:4;stroke-dasharray:none;stroke-opacity:1"
         d="m 158.125,26.168 v 28.75 h -38.754 v -28.75 z" /></g></g></svg>