<?xml version="1.0" encoding="utf-8"?>
<!-- Generator: Adobe Illustrator 20.1.0, SVG Export Plug-In . SVG Version: 6.00 Build 0)  -->
<svg version="1.1" id="Layer_1" xmlns="http://www.w3.org/2000/svg" xmlns:xlink="http://www.w3.org/1999/xlink" x="0px" y="0px"
	 viewBox="0 0 84.1 53.1" style="enable-background:new 0 0 84.1 53.1;" xml:space="preserve">
<style type="text/css">
	.st0{fill:#FFFFFF;stroke:#000000;stroke-width:0.8;}
	.st1{fill:none;stroke:#000000;stroke-width:1.6;stroke-dasharray:4,4;}
	.st2{fill:#000000;}
	.st3{fill:none;stroke:#000000;stroke-width:1.6;stroke-linejoin:round;stroke-dasharray:4,4;}
	.st4{fill:#000000;}
	.st5{fill:none;stroke:#000000;}
	.st6{fill:none;stroke:#FFFFFF;stroke-width:1.6;stroke-dasharray:4,4;}
	.st7{fill:none;stroke:#000000;stroke-width:1.6;stroke-dasharray:4,4;}
	.st8{fill:none;stroke:#FFFFFF;stroke-width:1.6;stroke-dasharray:4,4;}
</style>
<g>
	<rect x="11.3" y="10.3" class="st0" width="60.3" height="41.9"/>
	<polygon class="st0" points="71.5,10.3 83,0.8 26.8,0.8 11.3,10.3 	"/>
	<polygon class="st0" points="83,42.8 83,0.8 71.5,10.3 71.5,52.2 	"/>
	<line class="st1" x1="69" y1="23.3" x2="12" y2="23.3"/>
	<path class="st2" d="M70.5,23.3l-8.7,3.5l2.1-3.5l-2.1-3.5L70.5,23.3z"/>
	<polyline class="st3" points="50.9,43.9 58.9,37.8 11.9,37.5 	"/>
	<path class="st4" d="M45.6,48.3l4.4-8.3l0.7,4l3.9,1.4L45.6,48.3z"/>
	<polygon class="st5" points="63.3,41.5 63.3,14.7 55.9,20.8 55.9,47.6 	"/>
	<polygon class="st5" points="24.6,41.5 24.6,14.7 17.3,20.8 17.3,47.6 	"/>
	<polygon class="st5" points="44,41.5 44,14.7 36.6,20.8 36.6,47.6 	"/>
	<line class="st6" x1="11.3" y1="23.4" x2="0" y2="23.4"/>
	<line class="st7" x1="11.3" y1="37.7" x2="0" y2="37.7"/>
	<line class="st8" x1="11.3" y1="37.8" x2="0" y2="37.8"/>
</g>
</svg>
