<?xml version="1.0" encoding="UTF-8" standalone="no"?>
<svg
   xmlns:dc="http://purl.org/dc/elements/1.1/"
   xmlns:cc="http://creativecommons.org/ns#"
   xmlns:rdf="http://www.w3.org/1999/02/22-rdf-syntax-ns#"
   xmlns:svg="http://www.w3.org/2000/svg"
   xmlns="http://www.w3.org/2000/svg"
   viewBox="0 0 65.066666 36.666668"
   height="36.666668"
   width="65.066666"
   xml:space="preserve"
   id="svg2"
   version="1.1"><metadata
     id="metadata8"><rdf:RDF><cc:Work
         rdf:about=""><dc:format>image/svg+xml</dc:format><dc:type
           rdf:resource="http://purl.org/dc/dcmitype/StillImage" /></cc:Work></rdf:RDF></metadata><defs
     id="defs6" /><g
     transform="matrix(1.3333333,0,0,-1.3333333,0,36.666667)"
     id="g10"><g
       transform="scale(0.1)"
       id="g12"><path
         id="path14"
         style="fill:#FFFFFF;fill-opacity:1;fill-rule:nonzero;stroke:none"
         d="M 5.65234,153.793 149.938,270.473 H 483.047 L 363.633,153.793 H 5.65234" /><path
         id="path16"
         style="fill:none;stroke:#000000;stroke-width:4;stroke-linecap:butt;stroke-linejoin:miter;stroke-miterlimit:4;stroke-dasharray:none;stroke-opacity:1"
         d="M 5.65234,153.793 149.938,270.473 H 483.047 L 363.633,153.793 Z" /><path
         id="path18"
         style="fill:#FFFFFF;fill-opacity:1;fill-rule:nonzero;stroke:none"
         d="M 363.633,4.89453 483.047,126.574 V 270.258 L 363.633,153.793 V 4.89453" /><path
         id="path20"
         style="fill:none;stroke:#000000;stroke-width:4;stroke-linecap:butt;stroke-linejoin:miter;stroke-miterlimit:4;stroke-dasharray:none;stroke-opacity:1"
         d="M 363.633,4.89453 483.047,126.574 V 270.258 L 363.633,153.793 Z" /><path
         id="path22"
         style="fill:#FFFFFF;fill-opacity:1;fill-rule:nonzero;stroke:none"
         d="M 363.633,4.77734 V 153.793 H 6.14063 V 4.77734 H 363.633" /><path
         id="path24"
         style="fill:none;stroke:#000000;stroke-width:4;stroke-linecap:butt;stroke-linejoin:miter;stroke-miterlimit:4;stroke-dasharray:none;stroke-opacity:1"
         d="M 363.633,4.77734 V 153.793 H 6.14063 V 4.77734 Z" /><path
         id="path26"
         style="fill:none;stroke:#000000;stroke-width:4.5;stroke-linecap:round;stroke-linejoin:miter;stroke-miterlimit:1;stroke-dasharray:none;stroke-opacity:1"
         d="m 343.477,75.1094 c 0,0 -23.789,-61.1719 -52.383,0.1758 -28.574,61.2888 -52.414,0.1171 -52.414,0.1171 0,0 -23.762,-61.1914 -52.336,0.1368 -28.563,61.3089 -52.262,-0.3907 -52.262,-0.3907 0,0 -23.723,-61.2109 -52.3203,0.1368 -28.5625,61.2888 -52.2734,0.1757 -52.2734,0.1757" /><path
         id="path28"
         style="fill:none;stroke:#000000;stroke-width:9;stroke-linecap:round;stroke-linejoin:miter;stroke-miterlimit:1;stroke-dasharray:none;stroke-opacity:1"
         d="m 29.4883,75.1094 c 0,0 23.793,-61.1719 52.3828,0.1758 28.5669,61.2888 52.4059,0.1171 52.4059,0.1171 0,0 23.758,-61.1914 52.332,0.1368 28.571,61.3089 52.262,-0.3907 52.262,-0.3907 0,0 23.727,-61.2109 52.32,0.1368 28.575,61.2888 52.286,0.1757 52.286,0.1757" /><path
         id="path30"
         style="fill:none;stroke:#FFFFFF;stroke-width:4.5;stroke-linecap:round;stroke-linejoin:miter;stroke-miterlimit:1;stroke-dasharray:none;stroke-opacity:1"
         d="m 348.984,75.0898 c 0,0 -23.789,-61.1523 -52.382,0.1954 -28.575,61.2888 -52.414,0.1171 -52.414,0.1171 0,0 -23.758,-61.1914 -52.333,0.1172 -28.57,61.3285 -52.265,-0.3906 -52.265,-0.3906 0,0 -23.723,-61.1914 -52.3205,0.1563 -28.5625,61.2888 -52.2734,0.1367 -52.2734,0.1367" /><path
         id="path32"
         style="fill:none;stroke:#FFFFFF;stroke-width:9;stroke-linecap:round;stroke-linejoin:miter;stroke-miterlimit:1;stroke-dasharray:none;stroke-opacity:1"
         d="m 34.9961,75.0898 c 0,0 23.7891,-61.1523 52.3828,0.1954 28.5741,61.2888 52.4021,0.1171 52.4021,0.1171 0,0 23.77,-61.1914 52.336,0.1172 28.571,61.3285 52.258,-0.3906 52.258,-0.3906 0,0 23.73,-61.1914 52.324,0.1563 28.574,61.2888 52.285,0.1367 52.285,0.1367" /><path
         id="path34"
         style="fill:none;stroke:#000000;stroke-width:4.5;stroke-linecap:round;stroke-linejoin:miter;stroke-miterlimit:1;stroke-dasharray:none;stroke-opacity:1"
         d="m 343.477,75.1094 c 0,0 -23.789,-61.1719 -52.383,0.1758 -28.574,61.2888 -52.414,0.1171 -52.414,0.1171 0,0 -23.762,-61.1914 -52.336,0.1368 -28.563,61.3089 -52.262,-0.3907 -52.262,-0.3907 0,0 -23.723,-61.2109 -52.3203,0.1368 -28.5625,61.2888 -52.2734,0.1757 -52.2734,0.1757" /><path
         id="path36"
         style="fill:none;stroke:#000000;stroke-width:9;stroke-linecap:round;stroke-linejoin:miter;stroke-miterlimit:1;stroke-dasharray:none;stroke-opacity:1"
         d="m 29.4883,75.1094 c 0,0 23.793,-61.1719 52.3828,0.1758 28.5669,61.2888 52.4059,0.1171 52.4059,0.1171 0,0 23.758,-61.1914 52.332,0.1368 28.571,61.3089 52.262,-0.3907 52.262,-0.3907 0,0 23.727,-61.2109 52.32,0.1368 28.575,61.2888 52.286,0.1757 52.286,0.1757" /><path
         id="path38"
         style="fill:none;stroke:#FFFFFF;stroke-width:4.5;stroke-linecap:round;stroke-linejoin:miter;stroke-miterlimit:1;stroke-dasharray:none;stroke-opacity:1"
         d="m 348.984,75.0898 c 0,0 -23.789,-61.1523 -52.382,0.1954 -28.575,61.2888 -52.414,0.1171 -52.414,0.1171 0,0 -23.758,-61.1914 -52.333,0.1172 -28.57,61.3285 -52.265,-0.3906 -52.265,-0.3906 0,0 -23.723,-61.1914 -52.3205,0.1563 -28.5625,61.2888 -52.2734,0.1367 -52.2734,0.1367" /><path
         id="path40"
         style="fill:none;stroke:#FFFFFF;stroke-width:9;stroke-linecap:round;stroke-linejoin:miter;stroke-miterlimit:1;stroke-dasharray:none;stroke-opacity:1"
         d="m 34.9961,75.0898 c 0,0 23.7891,-61.1523 52.3828,0.1954 28.5741,61.2888 52.4021,0.1171 52.4021,0.1171 0,0 23.77,-61.1914 52.336,0.1172 28.571,61.3285 52.258,-0.3906 52.258,-0.3906 0,0 23.73,-61.1914 52.324,0.1563 28.574,61.2888 52.285,0.1367 52.285,0.1367" /><path
         id="path42"
         style="fill:none;stroke:#000000;stroke-width:4.5;stroke-linecap:round;stroke-linejoin:miter;stroke-miterlimit:1;stroke-dasharray:none;stroke-opacity:1"
         d="m 343.477,75.1094 c 0,0 -23.789,-61.1719 -52.383,0.1758 -28.574,61.2888 -52.414,0.1171 -52.414,0.1171 0,0 -23.762,-61.1914 -52.336,0.1368 -28.563,61.3089 -52.262,-0.3907 -52.262,-0.3907 0,0 -23.723,-61.2109 -52.3203,0.1368 -28.5625,61.2888 -52.2734,0.1757 -52.2734,0.1757" /><path
         id="path44"
         style="fill:none;stroke:#000000;stroke-width:9;stroke-linecap:round;stroke-linejoin:miter;stroke-miterlimit:1;stroke-dasharray:none;stroke-opacity:1"
         d="m 29.4883,75.1094 c 0,0 23.793,-61.1719 52.3828,0.1758 28.5669,61.2888 52.4059,0.1171 52.4059,0.1171 0,0 23.758,-61.1914 52.332,0.1368 28.571,61.3089 52.262,-0.3907 52.262,-0.3907 0,0 23.727,-61.2109 52.32,0.1368 28.575,61.2888 52.286,0.1757 52.286,0.1757" /><g
         transform="scale(10)"
         id="g46"><text
           id="text50"
           style="font-variant:normal;font-weight:bold;font-size:11.6249752px;font-family:Helvetica;-inkscape-font-specification:Helvetica-Bold;writing-mode:lr-tb;fill:#000000;fill-opacity:1;fill-rule:nonzero;stroke:none"
           transform="matrix(0.74519735,0,-0.66684399,-0.57352852,6.43555,18.777)"><tspan
             id="tspan48"
             y="0"
             x="0 6.1728616 16.449589 24.842819 32.59668">LWAPP</tspan></text>
</g></g></g></svg>