<?xml version="1.0" encoding="utf-8"?>
<!-- Generator: Adobe Illustrator 20.1.0, SVG Export Plug-In . SVG Version: 6.00 Build 0)  -->
<svg version="1.1" id="Layer_1" xmlns="http://www.w3.org/2000/svg" xmlns:xlink="http://www.w3.org/1999/xlink" x="0px" y="0px"
	 viewBox="0 0 53.2 63.5" style="enable-background:new 0 0 53.2 63.5;" xml:space="preserve">
<style type="text/css">
	.st0{fill:#000000;stroke:#FFFFFF;stroke-width:0.8;}
	.st1{fill:#FFFFFF;stroke:#000000;stroke-width:0.8;}
	.st2{fill:#000000;}
</style>
<g>
	<polyline class="st0" points="8.6,15.5 7.6,15.5 0.4,15.5 0.4,22.3 7.6,22.3 8.5,22.3 	"/>
	<path class="st0" d="M43.5,22.3h1c7.2,0,8.4,6.5,8.4,6.5V22c0,0-1.1-6.5-8.4-6.5h-1.6"/>
	<g>
		<g>
			<g>
				<rect x="7.3" y="6" class="st1" width="32.3" height="56.4"/>
				<polygon class="st1" points="7.3,6 13.5,1 44.6,1 39.6,6 				"/>
				<polygon class="st1" points="39.6,62.4 44.6,56.2 44.6,1 39.6,6 				"/>
			</g>
		</g>
	</g>
	<path class="st0" d="M52.8,21.7v8c-0.8,9.5-17.6,9-17.6,9v0.5v6.5l-11-11l11-11v7C35.2,30.7,52.3,31.2,52.8,21.7"/>
	<polygon class="st2" points="12.9,16.9 11.1,18.7 11.1,10.2 19.6,10.2 17.7,12.1 17.4,12.5 30,25.1 25.9,29.3 13.2,16.6 	"/>
	<polygon class="st2" points="12.9,52.4 11.1,50.6 11.1,59.1 19.6,59.1 17.7,57.2 17.4,56.8 30,44.2 25.9,40.1 13.2,52.7 	"/>
</g>
</svg>
