<?xml version="1.0" encoding="utf-8"?>
<!-- Generator: Adobe Illustrator 20.1.0, SVG Export Plug-In . SVG Version: 6.00 Build 0)  -->
<svg version="1.1" id="Layer_1" xmlns="http://www.w3.org/2000/svg" xmlns:xlink="http://www.w3.org/1999/xlink" x="0px" y="0px"
	 viewBox="0 0 97.6 55" style="enable-background:new 0 0 97.6 55;" xml:space="preserve">
<style type="text/css">
	.st0{fill:#FFFFFF;stroke:#000000;stroke-width:0.8;}
	.st1{fill:none;stroke:#000000;stroke-width:0.9;stroke-linecap:round;stroke-miterlimit:1;}
	.st2{fill:none;stroke:#000000;stroke-width:1.8;stroke-linecap:round;stroke-miterlimit:1;}
	.st3{fill:none;stroke:#FFFFFF;stroke-width:0.9;stroke-linecap:round;stroke-miterlimit:1;}
	.st4{fill:none;stroke:#FFFFFF;stroke-width:1.8;stroke-linecap:round;stroke-miterlimit:1;}
	.st5{fill:none;stroke:#FFFFFF;stroke-width:0.502;stroke-linecap:round;stroke-miterlimit:1;}
	.st6{fill:none;stroke:#FFFFFF;stroke-width:1.004;stroke-linecap:round;stroke-miterlimit:1;}
	.st7{fill:none;stroke:#000000;stroke-width:0.502;stroke-linecap:round;stroke-miterlimit:1;}
	.st8{fill:none;stroke:#000000;stroke-width:1.004;stroke-linecap:round;stroke-miterlimit:1;}
	.st9{fill:#000000;}
</style>
<polygon class="st0" points="1.1,24.2 30,0.9 96.6,0.9 72.7,24.2 "/>
<polygon class="st0" points="72.7,54 96.6,29.7 96.6,0.9 72.7,24.2 "/>
<rect x="1.2" y="24.2" class="st0" width="71.5" height="29.8"/>
<path class="st1" d="M68.7,40c0,0-4.8,12.2-10.5,0c-5.7-12.3-10.5,0-10.5,0s-4.8,12.2-10.5,0C31.6,27.6,26.8,40,26.8,40
	s-4.7,12.2-10.5,0c-5.7-12.3-10.5,0-10.5,0"/>
<path class="st2" d="M5.9,40c0,0,4.8,12.2,10.5,0c5.7-12.3,10.5,0,10.5,0s4.8,12.2,10.5,0C43,27.6,47.8,40,47.8,40s4.7,12.2,10.5,0
	c5.7-12.3,10.5,0,10.5,0"/>
<path class="st3" d="M69.8,40c0,0-4.8,12.2-10.5,0c-5.7-12.3-10.5,0-10.5,0s-4.8,12.2-10.5,0C32.7,27.6,27.9,40,27.9,40
	s-4.7,12.2-10.5,0c-5.7-12.3-10.5,0-10.5,0"/>
<path class="st4" d="M7,40c0,0,4.8,12.2,10.5,0c5.7-12.3,10.5,0,10.5,0s4.8,12.2,10.5,0C44.1,27.6,48.9,40,48.9,40s4.7,12.2,10.5,0
	c5.7-12.3,10.5,0,10.5,0"/>
<path class="st1" d="M68.7,40c0,0-4.8,12.2-10.5,0c-5.7-12.3-10.5,0-10.5,0s-4.8,12.2-10.5,0C31.6,27.6,26.8,40,26.8,40
	s-4.7,12.2-10.5,0c-5.7-12.3-10.5,0-10.5,0"/>
<path class="st2" d="M5.9,40c0,0,4.8,12.2,10.5,0c5.7-12.3,10.5,0,10.5,0s4.8,12.2,10.5,0C43,27.6,47.8,40,47.8,40s4.7,12.2,10.5,0
	c5.7-12.3,10.5,0,10.5,0"/>
<path class="st3" d="M69.8,40c0,0-4.8,12.2-10.5,0c-5.7-12.3-10.5,0-10.5,0s-4.8,12.2-10.5,0C32.7,27.6,27.9,40,27.9,40
	s-4.7,12.2-10.5,0c-5.7-12.3-10.5,0-10.5,0"/>
<path class="st4" d="M7,40c0,0,4.8,12.2,10.5,0c5.7-12.3,10.5,0,10.5,0s4.8,12.2,10.5,0C44.1,27.6,48.9,40,48.9,40s4.7,12.2,10.5,0
	c5.7-12.3,10.5,0,10.5,0"/>
<path class="st1" d="M68.7,40c0,0-4.8,12.2-10.5,0c-5.7-12.3-10.5,0-10.5,0s-4.8,12.2-10.5,0C31.6,27.6,26.8,40,26.8,40
	s-4.7,12.2-10.5,0c-5.7-12.3-10.5,0-10.5,0"/>
<path class="st2" d="M5.9,40c0,0,4.8,12.2,10.5,0c5.7-12.3,10.5,0,10.5,0s4.8,12.2,10.5,0C43,27.6,47.8,40,47.8,40s4.7,12.2,10.5,0
	c5.7-12.3,10.5,0,10.5,0"/>
<path class="st5" d="M95.1,17.2c0,0-2.1,14.2-3.3,3.5c-1.2-10.7-3.3,3.5-3.3,3.5s-2.1,14.2-3.3,3.5c-1.2-10.8-3.3,3.6-3.3,3.6
	s-2.1,14.2-3.3,3.5c-1.2-10.7-3.3,3.5-3.3,3.5"/>
<path class="st6" d="M75.2,38.2c0,0,0.9,11,3.3-3.5c2.4-14.6,3.3-3.5,3.3-3.5s0.9,11.1,3.3-3.5c2.4-14.6,3.3-3.4,3.3-3.4
	s0.9,11.1,3.3-3.5c2.4-14.6,3.3-3.5,3.3-3.5"/>
<path class="st7" d="M94.7,17.6c0,0-2.1,14.2-3.3,3.5c-1.2-10.7-3.3,3.5-3.3,3.5s-2.1,14.2-3.3,3.5c-1.2-10.8-3.3,3.6-3.3,3.6
	s-2.1,14.2-3.3,3.5c-1.2-10.7-3.3,3.5-3.3,3.5"/>
<path class="st8" d="M74.9,38.6c0,0,0.9,11,3.3-3.5c2.4-14.6,3.3-3.5,3.3-3.5s0.9,11,3.3-3.5c2.4-14.6,3.3-3.4,3.3-3.4
	s0.9,11.1,3.3-3.5c2.4-14.6,3.3-3.5,3.3-3.5"/>
<polygon class="st9" points="53.2,5.7 50.5,5.5 59.3,3.2 63.2,6.2 60.3,6.1 59.8,6.1 55,9.4 48.5,9.5 53.6,5.7 "/>
<polygon class="st9" points="46.3,19.1 49,19.3 40.2,21.5 36.3,18.5 39.2,18.7 39.8,18.7 44.5,15.3 51,15.3 45.9,19.1 "/>
<polygon class="st9" points="33.2,12.6 22.7,12.6 25.8,9.9 36.2,9.9 37.7,8.3 42.6,11.8 30.4,15.2 "/>
<polygon class="st9" points="66.1,11.3 76.5,11.3 73.4,14 63,14 61.5,15.6 56.7,12.1 68.8,8.7 "/>
</svg>
