<?xml version="1.0" encoding="utf-8"?>
<!-- Generator: Adobe Illustrator 20.1.0, SVG Export Plug-In . SVG Version: 6.00 Build 0)  -->
<svg version="1.1" id="Layer_1" xmlns="http://www.w3.org/2000/svg" xmlns:xlink="http://www.w3.org/1999/xlink" x="0px" y="0px"
	 viewBox="0 0 70.4 61.1" style="enable-background:new 0 0 70.4 61.1;" xml:space="preserve">
<style type="text/css">
	.st0{fill:#FFFFFF;stroke:#000000;stroke-width:0.8;}
	.st1{fill:none;stroke:#000000;stroke-width:0.77;}
	.st2{fill:none;stroke:#000000;stroke-width:1.155;stroke-miterlimit:1;}
	.st3{fill:#000000;}
	.st4{fill:none;stroke:#000000;stroke-width:2;}
</style>
<g>
	<g>
		<polyline class="st0" points="69.8,13.6 69.8,47.3 53,60.7 18.1,60.7 0.7,47.3 0.7,13.6 		"/>
		<polygon class="st0" points="52.7,0.4 18.4,0.4 0.7,13.6 18.1,27 53,27 69.8,13.6 		"/>
		<line class="st1" x1="17.8" y1="60.5" x2="17.8" y2="27"/>
		<line class="st1" x1="52.9" y1="60.5" x2="52.9" y2="27"/>
	</g>
	<line class="st2" x1="35.7" y1="3.8" x2="35.7" y2="23.2"/>
	<line class="st2" x1="54" y1="13.5" x2="18.3" y2="13.5"/>
	<polyline class="st2" points="18.3,4.7 27,4.7 45.3,23.2 53.1,23.2 	"/>
	<polyline class="st2" points="53.1,4.7 45.3,4.7 27,23.2 18.3,23.2 	"/>
	<line class="st2" x1="54" y1="13.5" x2="18.3" y2="13.5"/>
	<polyline class="st2" points="18.3,4.7 27,4.7 45.3,23.2 53.1,23.2 	"/>
	<polyline class="st2" points="53.1,4.7 45.3,4.7 27,23.2 18.3,23.2 	"/>
	<line class="st2" x1="35.7" y1="3.8" x2="35.7" y2="24.2"/>
	<line class="st2" x1="35.7" y1="3.8" x2="35.7" y2="23.2"/>
	<line class="st2" x1="54" y1="13.5" x2="18.3" y2="13.5"/>
	<polyline class="st2" points="18.3,4.7 27,4.7 45.3,23.2 53.1,23.2 	"/>
	<polyline class="st2" points="53.1,4.7 45.3,4.7 27,23.2 18.3,23.2 	"/>
	<polyline class="st2" points="18.3,4.7 27,4.7 45.3,23.2 53.1,23.2 	"/>
	<polyline class="st2" points="53.1,4.7 45.3,4.7 27,23.2 18.3,23.2 	"/>
	<line class="st2" x1="54" y1="13.5" x2="18.3" y2="13.5"/>
	<polyline class="st2" points="18.3,4.7 27,4.7 45.3,23.2 53.1,23.2 	"/>
	<polyline class="st2" points="53.1,4.7 45.3,4.7 27,23.2 18.3,23.2 	"/>
	<polyline class="st2" points="18.3,4.7 27,4.7 45.3,23.2 53.1,23.2 	"/>
	<polyline class="st2" points="53.1,4.7 45.3,4.7 27,23.2 18.3,23.2 	"/>
	<line class="st2" x1="35.7" y1="3.8" x2="35.7" y2="24.2"/>
	<rect x="31.3" y="40.4" class="st3" width="6.9" height="6"/>
	<line class="st4" x1="45.8" y1="42.9" x2="36.5" y2="42.9"/>
	<polygon class="st3" points="50.6,43 42.1,46.5 44.1,43 42.1,39.5 	"/>
	<line class="st4" x1="24.4" y1="42.9" x2="32" y2="42.9"/>
	<polygon class="st3" points="27.9,39.3 25.9,42.8 27.9,46.3 19.5,42.8 	"/>
	<line class="st4" x1="34.8" y1="33.6" x2="34.8" y2="42.2"/>
	<polygon class="st3" points="34.9,28.8 38.3,37.3 34.9,35.3 31.4,37.3 	"/>
	<line class="st4" x1="34.8" y1="54" x2="34.8" y2="45.5"/>
	<polygon class="st3" points="31.3,50.4 34.8,52.4 38.3,50.4 34.8,58.9 	"/>
</g>
</svg>
