<?xml version="1.0" encoding="UTF-8" standalone="no"?>
<svg
   xmlns:dc="http://purl.org/dc/elements/1.1/"
   xmlns:cc="http://creativecommons.org/ns#"
   xmlns:rdf="http://www.w3.org/1999/02/22-rdf-syntax-ns#"
   xmlns:svg="http://www.w3.org/2000/svg"
   xmlns="http://www.w3.org/2000/svg"
   viewBox="0 0 58.386665 55.360001"
   height="55.360001"
   width="58.386665"
   xml:space="preserve"
   id="svg2"
   version="1.1"><metadata
     id="metadata8"><rdf:RDF><cc:Work
         rdf:about=""><dc:format>image/svg+xml</dc:format><dc:type
           rdf:resource="http://purl.org/dc/dcmitype/StillImage" /></cc:Work></rdf:RDF></metadata><defs
     id="defs6" /><g
     transform="matrix(1.3333333,0,0,-1.3333333,0,55.36)"
     id="g10"><g
       transform="scale(0.1)"
       id="g12"><path
         id="path14"
         style="fill:#FFFFFF;fill-opacity:1;fill-rule:nonzero;stroke:none"
         d="m 65.2422,52.9609 h 314.746 v 59.0508 H 65.2422 Z" /><path
         id="path16"
         style="fill:none;stroke:#000000;stroke-width:3.99993992;stroke-linecap:butt;stroke-linejoin:miter;stroke-miterlimit:4;stroke-dasharray:none;stroke-opacity:1"
         d="M 379.988,52.9609 V 112.012 H 65.2422 V 52.9609 Z" /><path
         id="path18"
         style="fill:#FFFFFF;fill-opacity:1;fill-rule:nonzero;stroke:none"
         d="m 283.586,78.5742 h 79.375" /><path
         id="path20"
         style="fill:none;stroke:#000000;stroke-width:3.99993992;stroke-linecap:butt;stroke-linejoin:miter;stroke-miterlimit:4;stroke-dasharray:none;stroke-opacity:1"
         d="m 283.586,78.5742 h 79.375" /><path
         id="path22"
         style="fill:#FFFFFF;fill-opacity:1;fill-rule:nonzero;stroke:none"
         d="m 283.586,81.4063 h 79.375" /><path
         id="path24"
         style="fill:none;stroke:#000000;stroke-width:3.99993992;stroke-linecap:butt;stroke-linejoin:miter;stroke-miterlimit:4;stroke-dasharray:none;stroke-opacity:1"
         d="m 283.586,81.4063 h 79.375" /><path
         id="path26"
         style="fill:#FFFFFF;fill-opacity:1;fill-rule:nonzero;stroke:none"
         d="m 432.82,108.945 v 52.918 L 379.949,111.777 V 52.9609 l 52.871,55.9841" /><path
         id="path28"
         style="fill:none;stroke:#000000;stroke-width:3.99993992;stroke-linecap:butt;stroke-linejoin:miter;stroke-miterlimit:4;stroke-dasharray:none;stroke-opacity:1"
         d="m 432.82,108.945 v 52.918 L 379.949,111.777 V 52.9609 Z" /><path
         id="path30"
         style="fill:#FFFFFF;fill-opacity:1;fill-rule:nonzero;stroke:none"
         d="M 324.07,4.82422 V 18.0742 l 28.618,39.5703 V 33.4258 L 324.07,4.82422" /><path
         id="path32"
         style="fill:none;stroke:#000000;stroke-width:3.99993992;stroke-linecap:butt;stroke-linejoin:miter;stroke-miterlimit:4;stroke-dasharray:none;stroke-opacity:1"
         d="M 324.07,4.82422 V 18.0742 l 28.618,39.5703 V 33.4258 Z" /><path
         id="path34"
         style="fill:#FFFFFF;fill-opacity:1;fill-rule:nonzero;stroke:none"
         d="m 71.9453,4.82422 h 252.125 v 13.0586 H 71.9453 Z" /><path
         id="path36"
         style="fill:none;stroke:#000000;stroke-width:3.99993992;stroke-linecap:butt;stroke-linejoin:miter;stroke-miterlimit:4;stroke-dasharray:none;stroke-opacity:1"
         d="M 324.07,17.8828 V 4.82422 H 71.9453 V 17.8828 Z" /><path
         id="path38"
         style="fill:#FFFFFF;fill-opacity:1;fill-rule:nonzero;stroke:none"
         d="M 324.07,17.8828 H 72.7422 L 101.34,57.6445 H 352.688 L 324.07,17.8828" /><path
         id="path40"
         style="fill:none;stroke:#000000;stroke-width:3.99993992;stroke-linecap:butt;stroke-linejoin:miter;stroke-miterlimit:4;stroke-dasharray:none;stroke-opacity:1"
         d="M 324.07,17.8828 H 72.7422 L 101.34,57.6445 h 251.348 z" /><path
         id="path42"
         style="fill:#FFFFFF;fill-opacity:1;fill-rule:nonzero;stroke:none"
         d="M 432.82,161.758 H 117.98 L 65.2422,112.012 H 379.988 l 52.832,49.746" /><path
         id="path44"
         style="fill:none;stroke:#000000;stroke-width:3.99993992;stroke-linecap:butt;stroke-linejoin:miter;stroke-miterlimit:4;stroke-dasharray:none;stroke-opacity:1"
         d="M 432.82,161.758 H 117.98 L 65.2422,112.012 H 379.988 Z" /><path
         id="path46"
         style="fill:#FFFFFF;fill-opacity:1;fill-rule:nonzero;stroke:none"
         d="M 373.523,161.551 H 162.82 l -35.308,-33.297 h 210.703 l 35.308,33.297" /><path
         id="path48"
         style="fill:none;stroke:#000000;stroke-width:3.99993992;stroke-linecap:butt;stroke-linejoin:miter;stroke-miterlimit:4;stroke-dasharray:none;stroke-opacity:1"
         d="M 373.523,161.551 H 162.82 l -35.308,-33.297 h 210.703 z" /><path
         id="path50"
         style="fill:#FFFFFF;fill-opacity:1;fill-rule:nonzero;stroke:none"
         d="M 121.531,141.277 H 338.547 V 300.343 H 121.531 Z" /><path
         id="path52"
         style="fill:none;stroke:#000000;stroke-width:3.99993992;stroke-linecap:butt;stroke-linejoin:miter;stroke-miterlimit:4;stroke-dasharray:none;stroke-opacity:1"
         d="M 338.547,141.277 V 300.344 H 121.531 V 141.277 Z" /><path
         id="path54"
         style="fill:#FFFFFF;fill-opacity:1;fill-rule:nonzero;stroke:none"
         d="m 139.855,265.449 c 0,15.965 16.559,18.328 16.559,18.328 0,0 127.734,0 143.106,0 20.097,0 19.511,-18.914 19.511,-18.914 0,0 0,-78.058 0,-89.289 0,-11.23 -15.371,-15.965 -15.371,-15.965 0,0 -24.5,0 -53.445,0 -37.891,0 -83.391,0 -91.438,0 -14.175,0 -18.922,14.786 -18.922,14.786 v 91.054" /><path
         id="path56"
         style="fill:none;stroke:#000000;stroke-width:3.99993992;stroke-linecap:butt;stroke-linejoin:miter;stroke-miterlimit:4;stroke-dasharray:none;stroke-opacity:1"
         d="m 139.855,265.449 c 0,15.965 16.559,18.328 16.559,18.328 0,0 127.734,0 143.106,0 20.097,0 19.511,-18.914 19.511,-18.914 0,0 0,-78.058 0,-89.289 0,-11.23 -15.371,-15.965 -15.371,-15.965 0,0 -24.5,0 -53.445,0 -37.891,0 -83.391,0 -91.438,0 -14.175,0 -18.922,14.786 -18.922,14.786 z" /><path
         id="path58"
         style="fill:#FFFFFF;fill-opacity:1;fill-rule:nonzero;stroke:none"
         d="M 374.91,334.637 H 157.898 l -36.367,-34.293 h 217.016 l 36.363,34.293" /><path
         id="path60"
         style="fill:none;stroke:#000000;stroke-width:3.99993992;stroke-linecap:butt;stroke-linejoin:miter;stroke-miterlimit:4;stroke-dasharray:none;stroke-opacity:1"
         d="M 374.91,334.637 H 157.898 l -36.367,-34.293 h 217.016 z" /><path
         id="path62"
         style="fill:#FFFFFF;fill-opacity:1;fill-rule:nonzero;stroke:none"
         d="m 374.91,175.078 v 159.629 l -36.015,-34.07 V 141.008 l 36.015,34.07" /><path
         id="path64"
         style="fill:none;stroke:#000000;stroke-width:3.99993992;stroke-linecap:butt;stroke-linejoin:miter;stroke-miterlimit:4;stroke-dasharray:none;stroke-opacity:1"
         d="m 374.91,175.078 v 159.629 l -36.015,-34.07 V 141.008 Z" /><path
         id="path66"
         style="fill:#000000;fill-opacity:1;fill-rule:nonzero;stroke:none"
         d="m 201.648,411.133 -5.015,-2.961 H 2 l 4.96094,3.078 194.68706,-0.117" /><path
         id="path68"
         style="fill:#FFFFFF;fill-opacity:1;fill-rule:nonzero;stroke:none"
         d="m 201.688,218.164 -0.04,192.969 -5.015,-3.801 V 213.523 l 5.055,4.641" /><path
         id="path70"
         style="fill:none;stroke:#000000;stroke-width:3.99993992;stroke-linecap:butt;stroke-linejoin:miter;stroke-miterlimit:4;stroke-dasharray:none;stroke-opacity:1"
         d="m 201.688,218.164 -0.04,192.969 -5.015,-3.801 V 213.523 Z" /><path
         id="path72"
         style="fill:#FFFFFF;fill-opacity:1;fill-rule:nonzero;stroke:none"
         d="M 10.8477,213.523 H 196.633 V 408.172 H 2 V 222.371 l 8.8477,-8.848" /><path
         id="path74"
         style="fill:none;stroke:#000000;stroke-width:3.99993992;stroke-linecap:butt;stroke-linejoin:miter;stroke-miterlimit:4;stroke-dasharray:none;stroke-opacity:1"
         d="M 10.8477,213.523 H 196.633 V 408.172 H 2 V 222.371 Z" /><path
         id="path76"
         style="fill:#FFFFFF;fill-opacity:1;fill-rule:nonzero;stroke:none"
         d="M 181.887,408.172 V 295.887 c 0,-8.153 -6.621,-6.629 -6.621,-6.629 H 22.6289 c 0,0 -5.8828,-0.742 -5.8828,5.898 v 113.016" /><path
         id="path78"
         style="fill:none;stroke:#000000;stroke-width:3.99993992;stroke-linecap:butt;stroke-linejoin:miter;stroke-miterlimit:4;stroke-dasharray:none;stroke-opacity:1"
         d="M 181.887,408.172 V 295.887 c 0,-8.153 -6.621,-6.629 -6.621,-6.629 H 22.6289 c 0,0 -5.8828,-0.742 -5.8828,5.898 v 113.016" /><path
         id="path80"
         style="fill:none;stroke:#000000;stroke-width:3.99993992;stroke-linecap:butt;stroke-linejoin:miter;stroke-miterlimit:4;stroke-dasharray:none;stroke-opacity:1"
         d="m 13.8398,388.262 v 8.847 H 4.98828 v -8.847 z" /><path
         id="path82"
         style="fill:none;stroke:#000000;stroke-width:3.99993992;stroke-linecap:butt;stroke-linejoin:miter;stroke-miterlimit:4;stroke-dasharray:none;stroke-opacity:1"
         d="m 193.738,388.262 v 8.847 h -8.843 v -8.847 z" /><path
         id="path84"
         style="fill:#000000;fill-opacity:1;fill-rule:nonzero;stroke:none"
         d="M 150.398,270.293 V 215.637 H 34.6406 v 55.398 c 0,5.899 6.6407,5.156 6.6407,5.156 H 144.504 c 6.641,0 5.894,-5.898 5.894,-5.898" /><path
         id="path86"
         style="fill:none;stroke:#000000;stroke-width:3.99993992;stroke-linecap:butt;stroke-linejoin:miter;stroke-miterlimit:4;stroke-dasharray:none;stroke-opacity:1"
         d="M 150.398,270.293 V 215.637 H 34.6406 v 55.398 c 0,5.899 6.6407,5.156 6.6407,5.156 H 144.504 c 6.641,0 5.894,-5.898 5.894,-5.898 z" /><path
         id="path88"
         style="fill:none;stroke:#000000;stroke-width:3.99993992;stroke-linecap:butt;stroke-linejoin:miter;stroke-miterlimit:4;stroke-dasharray:none;stroke-opacity:1"
         d="m 181.887,213.523 v 56.77 c 0,0 0.742,5.898 -5.903,5.898 H 41.4336 c 0,0 -6.6406,0.743 -6.6406,-5.156 v -53.926" /><path
         id="path90"
         style="fill:#000000;fill-opacity:1;fill-rule:nonzero;stroke:none"
         d="m 56.9219,219.426 h 22.8555 v 53.0859 H 56.9219 Z" /><path
         id="path92"
         style="fill:none;stroke:#000000;stroke-width:3.99993992;stroke-linecap:butt;stroke-linejoin:miter;stroke-miterlimit:4;stroke-dasharray:none;stroke-opacity:1"
         d="m 196.633,407.43 5.176,3.691" /></g></g></svg>