<?xml version="1.0" encoding="utf-8"?>
<!-- Generator: Adobe Illustrator 20.1.0, SVG Export Plug-In . SVG Version: 6.00 Build 0)  -->
<svg version="1.1" id="Layer_1" xmlns="http://www.w3.org/2000/svg" xmlns:xlink="http://www.w3.org/1999/xlink" x="0px" y="0px"
	 viewBox="0 0 35.8 96.3" style="enable-background:new 0 0 35.8 96.3;" xml:space="preserve">
<style type="text/css">
	.st0{fill:#000000;stroke:#FFFFFF;stroke-width:1.6;stroke-miterlimit:1;}
	.st1{fill:none;stroke:#FFFFFF;stroke-width:1.6;stroke-miterlimit:1;}
	.st2{fill:url(#SVGID_1_);stroke:#FFFFFF;stroke-width:1.6;stroke-miterlimit:1;}
	.st3{fill:#000000;stroke:#FFFFFF;stroke-width:1.6;stroke-miterlimit:1;}
	.st4{fill:url(#SVGID_2_);stroke:#FFFFFF;stroke-width:1.6;stroke-miterlimit:1;}
	.st5{fill:#000000;stroke:#FFFFFF;stroke-width:1.6;stroke-miterlimit:1;}
	.st6{fill:url(#SVGID_3_);stroke:#FFFFFF;stroke-width:1.6;stroke-miterlimit:1;}
	.st7{fill:url(#SVGID_4_);stroke:#FFFFFF;stroke-width:1.6;stroke-miterlimit:1;}
</style>
<g>
	<rect x="9.1" y="6.4" class="st0" width="12.6" height="44.8"/>
	<polyline class="st0" points="0.8,95.6 9.1,50.8 21.7,50.8 29.1,95.6 	"/>
	<g>
		<polyline class="st1" points="0.4,95.6 26.3,82.7 5.3,70.8 22.8,59.9 9.8,51.2 21.4,35.8 9.5,26 21.7,15.1 9.1,6.7 		"/>
		<polyline class="st1" points="29.4,95.6 4.4,82.7 25.4,70.8 7.9,59.9 20.8,51.2 9.3,35.8 21.2,26 8.9,15.1 21.5,6.7 		"/>
		<polygon class="st1" points="21,6.4 9.4,6.4 12.3,0.8 17.9,0.8 		"/>

			<linearGradient id="SVGID_1_" gradientUnits="userSpaceOnUse" x1="-7334.1001" y1="-9565.2344" x2="-7280.0801" y2="-9565.2344" gradientTransform="matrix(0.1593 0 0 0.1593 1195.0081 1537.6151)">
			<stop  offset="0" style="stop-color:#333333"/>
			<stop  offset="9.541428e-02" style="stop-color:#626262"/>
			<stop  offset="0.1955" style="stop-color:#8B8B8B"/>
			<stop  offset="0.3016" style="stop-color:#AFAFAF"/>
			<stop  offset="0.4127" style="stop-color:#CCCCCC"/>
			<stop  offset="0.5305" style="stop-color:#E3E3E3"/>
			<stop  offset="0.6581" style="stop-color:#F3F3F3"/>
			<stop  offset="0.8025" style="stop-color:#FCFCFC"/>
			<stop  offset="1" style="stop-color:#000000"/>
		</linearGradient>
		<path class="st2" d="M26.4,7.5l1-1.3h0.7v6.7h4.3l0.4,0.4h0.4l0.7-0.7c0.7-0.3,1.1,1,1.1,1v0.5c0,0-0.4,1.3-1.1,1l-0.7-0.7h-0.4
			l-0.4,0.4h-4.3v6.7h-0.7l-1-1.3V7.5z"/>
		<path class="st3" d="M26.4,20.2h-2.2c-1.2-1.4-1-4.1-1-4.1h-2.3v-1.9v-0.6v-1.9h2.3c0,0-0.2-2.8,1-4.1h2.2V20.2z"/>

			<linearGradient id="SVGID_2_" gradientUnits="userSpaceOnUse" x1="-7334.1001" y1="-9565.2344" x2="-7280.0801" y2="-9565.2344" gradientTransform="matrix(0.1593 0 0 0.1593 1195.0081 1537.6151)">
			<stop  offset="0" style="stop-color:#333333"/>
			<stop  offset="9.541428e-02" style="stop-color:#626262"/>
			<stop  offset="0.1955" style="stop-color:#8B8B8B"/>
			<stop  offset="0.3016" style="stop-color:#AFAFAF"/>
			<stop  offset="0.4127" style="stop-color:#CCCCCC"/>
			<stop  offset="0.5305" style="stop-color:#E3E3E3"/>
			<stop  offset="0.6581" style="stop-color:#F3F3F3"/>
			<stop  offset="0.8025" style="stop-color:#FCFCFC"/>
			<stop  offset="1" style="stop-color:#000000"/>
		</linearGradient>
		<path class="st4" d="M26.4,7.5l1-1.3h0.7v6.7h4.3l0.4,0.4h0.4l0.7-0.7c0.7-0.3,1.1,1,1.1,1v0.5c0,0-0.4,1.3-1.1,1l-0.7-0.7h-0.4
			l-0.4,0.4h-4.3v6.7h-0.7l-1-1.3V7.5z"/>
		<path class="st5" d="M26.4,20.2h-2.2c-1.2-1.4-1-4.1-1-4.1h-2.3v-1.9v-0.6v-1.9h2.3c0,0-0.2-2.8,1-4.1h2.2V20.2z"/>

			<linearGradient id="SVGID_3_" gradientUnits="userSpaceOnUse" x1="-7334.1001" y1="-9500.4307" x2="-7280.0801" y2="-9500.4307" gradientTransform="matrix(0.1593 0 0 0.1593 1195.0081 1547.9403)">
			<stop  offset="0" style="stop-color:#333333"/>
			<stop  offset="9.541428e-02" style="stop-color:#626262"/>
			<stop  offset="0.1955" style="stop-color:#8B8B8B"/>
			<stop  offset="0.3016" style="stop-color:#AFAFAF"/>
			<stop  offset="0.4127" style="stop-color:#CCCCCC"/>
			<stop  offset="0.5305" style="stop-color:#E3E3E3"/>
			<stop  offset="0.6581" style="stop-color:#F3F3F3"/>
			<stop  offset="0.8025" style="stop-color:#FCFCFC"/>
			<stop  offset="1" style="stop-color:#000000"/>
		</linearGradient>
		<path class="st6" d="M26.4,28.1l1-1.3h0.7v6.7h4.3l0.4,0.4h0.4l0.7-0.7c0.7-0.3,1.1,1,1.1,1v0.5c0,0-0.4,1.3-1.1,1l-0.7-0.7h-0.4
			l-0.4,0.4h-4.3v6.7h-0.7l-1-1.3V28.1z"/>
		<path class="st3" d="M26.4,40.9h-2.2c-1.2-1.4-1-4.1-1-4.1h-2.3v-1.9v-0.6v-1.9h2.3c0,0-0.2-2.8,1-4.1h2.2V40.9z"/>

			<linearGradient id="SVGID_4_" gradientUnits="userSpaceOnUse" x1="-7334.1001" y1="-9500.4307" x2="-7280.0801" y2="-9500.4307" gradientTransform="matrix(0.1593 0 0 0.1593 1195.0081 1547.9403)">
			<stop  offset="0" style="stop-color:#333333"/>
			<stop  offset="9.541428e-02" style="stop-color:#626262"/>
			<stop  offset="0.1955" style="stop-color:#8B8B8B"/>
			<stop  offset="0.3016" style="stop-color:#AFAFAF"/>
			<stop  offset="0.4127" style="stop-color:#CCCCCC"/>
			<stop  offset="0.5305" style="stop-color:#E3E3E3"/>
			<stop  offset="0.6581" style="stop-color:#F3F3F3"/>
			<stop  offset="0.8025" style="stop-color:#FCFCFC"/>
			<stop  offset="1" style="stop-color:#000000"/>
		</linearGradient>
		<path class="st7" d="M26.4,28.1l1-1.3h0.7v6.7h4.3l0.4,0.4h0.4l0.7-0.7c0.7-0.3,1.1,1,1.1,1v0.5c0,0-0.4,1.3-1.1,1l-0.7-0.7h-0.4
			l-0.4,0.4h-4.3v6.7h-0.7l-1-1.3V28.1z"/>
		<path class="st5" d="M26.4,40.9h-2.2c-1.2-1.4-1-4.1-1-4.1h-2.3v-1.9v-0.6v-1.9h2.3c0,0-0.2-2.8,1-4.1h2.2V40.9z"/>
	</g>
</g>
</svg>
