<?xml version="1.0" encoding="UTF-8" standalone="no"?>
<svg
   xmlns:dc="http://purl.org/dc/elements/1.1/"
   xmlns:cc="http://creativecommons.org/ns#"
   xmlns:rdf="http://www.w3.org/1999/02/22-rdf-syntax-ns#"
   xmlns:svg="http://www.w3.org/2000/svg"
   xmlns="http://www.w3.org/2000/svg"
   viewBox="0 0 59.666668 41.733334"
   height="41.733334"
   width="59.666668"
   xml:space="preserve"
   id="svg2"
   version="1.1"><metadata
     id="metadata8"><rdf:RDF><cc:Work
         rdf:about=""><dc:format>image/svg+xml</dc:format><dc:type
           rdf:resource="http://purl.org/dc/dcmitype/StillImage" /></cc:Work></rdf:RDF></metadata><defs
     id="defs6" /><g
     transform="matrix(1.3333333,0,0,-1.3333333,0,41.733333)"
     id="g10"><g
       transform="scale(0.1)"
       id="g12"><path
         id="path14"
         style="fill:#FFFFFF;fill-opacity:1;fill-rule:nonzero;stroke:none"
         d="M 5.65234,4.49219 H 387.141 V 255.121 H 5.65234 V 4.49219" /><path
         id="path16"
         style="fill:none;stroke:#000000;stroke-width:4;stroke-linecap:butt;stroke-linejoin:miter;stroke-miterlimit:4;stroke-dasharray:none;stroke-opacity:1"
         d="M 5.65234,4.49219 H 387.141 V 255.121 H 5.65234 Z" /><path
         id="path18"
         style="fill:#FFFFFF;fill-opacity:1;fill-rule:nonzero;stroke:none"
         d="M 442.512,54.3281 387.141,4.49219 V 255.121 l 55.371,53.219 V 54.3281" /><path
         id="path20"
         style="fill:none;stroke:#000000;stroke-width:4;stroke-linecap:butt;stroke-linejoin:miter;stroke-miterlimit:4;stroke-dasharray:none;stroke-opacity:1"
         d="M 442.512,54.3281 387.141,4.49219 V 255.121 l 55.371,53.219 z" /><path
         id="path22"
         style="fill:#FFFFFF;fill-opacity:1;fill-rule:nonzero;stroke:none"
         d="M 71.4883,308.34 H 442.512 L 387.141,255.121 H 5.65234 L 71.4883,308.34" /><path
         id="path24"
         style="fill:none;stroke:#000000;stroke-width:4;stroke-linecap:butt;stroke-linejoin:miter;stroke-miterlimit:4;stroke-dasharray:none;stroke-opacity:1"
         d="M 71.4883,308.34 H 442.512 L 387.141,255.121 H 5.65234 Z" /><path
         id="path26"
         style="fill:#000000;fill-opacity:1;fill-rule:nonzero;stroke:none"
         d="m 83.0664,118.215 -55.5547,-0.039 v 10.156 l 55.5547,0.039 0.0195,15.84 36.9921,-20.938 -36.9921,-20.937 -0.0195,15.879" /><path
         id="path28"
         style="fill:#000000;fill-opacity:1;fill-rule:nonzero;stroke:none"
         d="m 308.086,189.25 -38.887,-0.051 v 10.156 l 38.887,0.04 0.019,15.855 37,-20.941 -37,-20.938 -0.019,15.879" /><path
         id="path30"
         style="fill:#000000;fill-opacity:1;fill-rule:nonzero;stroke:none"
         d="m 338.086,125.91 -68.887,-0.039 v 10.156 l 68.887,0.039 0.019,15.848 37,-20.945 -37,-20.938 -0.019,15.879" /><path
         id="path32"
         style="fill:#000000;fill-opacity:1;fill-rule:nonzero;stroke:none"
         d="m 308.086,62.5781 -38.887,-0.0468 v 10.1562 l 38.887,0.0391 0.019,15.8593 37,-20.9492 -37,-20.9453 -0.019,15.8867" /><path
         id="path34"
         style="fill:#000000;fill-opacity:1;fill-rule:nonzero;stroke:none"
         d="M 239.148,34.2891 H 142.48 V 222.621 h 96.668 V 34.2891" /><path
         id="path36"
         style="fill:none;stroke:#000000;stroke-width:8;stroke-linecap:butt;stroke-linejoin:miter;stroke-miterlimit:4;stroke-dasharray:none;stroke-opacity:1"
         d="M 239.148,34.2891 H 142.48 V 222.621 h 96.668 z" /><path
         id="path38"
         style="fill:#000000;fill-opacity:1;fill-rule:nonzero;stroke:none"
         d="M 239.695,235.801 V 22.7656 l -98.289,0.0469 V 235.859 l 98.289,-0.058" /><path
         id="path40"
         style="fill:none;stroke:#000000;stroke-width:2.94499993;stroke-linecap:butt;stroke-linejoin:miter;stroke-miterlimit:4;stroke-dasharray:none;stroke-opacity:1"
         d="M 239.695,235.801 V 22.7656 l -98.289,0.0469 V 235.859 Z" /><path
         id="path42"
         style="fill:#000000;fill-opacity:1;fill-rule:nonzero;stroke:none"
         d="M 210.227,73.2734 V 44.9609 l -42.649,0.0313 v 28.3086 l 42.649,-0.0274" /><path
         id="path44"
         style="fill:none;stroke:#000000;stroke-width:1.11099994;stroke-linecap:butt;stroke-linejoin:miter;stroke-miterlimit:4;stroke-dasharray:none;stroke-opacity:1"
         d="M 210.227,73.2734 V 44.9609 l -42.649,0.0313 v 28.3086 z" /><path
         id="path46"
         style="fill:#000000;fill-opacity:1;fill-rule:nonzero;stroke:none"
         d="m 232.129,44.1914 v -8.4766 l -7.168,-0.0117 v 8.4883 h 7.168" /><path
         id="path48"
         style="fill:none;stroke:#000000;stroke-width:0.333;stroke-linecap:butt;stroke-linejoin:miter;stroke-miterlimit:4;stroke-dasharray:none;stroke-opacity:1"
         d="m 232.129,44.1914 v -8.4766 l -7.168,-0.0117 v 8.4883 z" /><path
         id="path50"
         style="fill:#000000;fill-opacity:1;fill-rule:nonzero;stroke:none"
         d="m 232.129,61.5352 v -8.4883 l -7.168,-0.0078 v 8.4961 h 7.168" /><path
         id="path52"
         style="fill:none;stroke:#000000;stroke-width:0.333;stroke-linecap:butt;stroke-linejoin:miter;stroke-miterlimit:4;stroke-dasharray:none;stroke-opacity:1"
         d="m 232.129,61.5352 v -8.4883 l -7.168,-0.0078 v 8.4961 z" /><path
         id="path54"
         style="fill:#000000;fill-opacity:1;fill-rule:nonzero;stroke:none"
         d="m 232.129,78.8789 v -8.4961 l -7.168,-0.0117 v 8.5078 h 7.168" /><path
         id="path56"
         style="fill:none;stroke:#000000;stroke-width:0.333;stroke-linecap:butt;stroke-linejoin:miter;stroke-miterlimit:4;stroke-dasharray:none;stroke-opacity:1"
         d="m 232.129,78.8789 v -8.4961 l -7.168,-0.0117 v 8.5078 z" /><path
         id="path58"
         style="fill:#000000;fill-opacity:1;fill-rule:nonzero;stroke:none"
         d="m 232.129,96.2109 v -8.4843 l -7.168,-0.0196 v 8.5039 h 7.168" /><path
         id="path60"
         style="fill:none;stroke:#000000;stroke-width:0.333;stroke-linecap:butt;stroke-linejoin:miter;stroke-miterlimit:4;stroke-dasharray:none;stroke-opacity:1"
         d="m 232.129,96.2109 v -8.4843 l -7.168,-0.0196 v 8.5039 z" /><path
         id="path62"
         style="fill:#000000;fill-opacity:1;fill-rule:nonzero;stroke:none"
         d="m 232.129,113.535 v -8.484 h -7.168 v 8.484 h 7.168" /><path
         id="path64"
         style="fill:none;stroke:#000000;stroke-width:0.333;stroke-linecap:butt;stroke-linejoin:miter;stroke-miterlimit:4;stroke-dasharray:none;stroke-opacity:1"
         d="m 232.129,113.535 v -8.484 h -7.168 v 8.484 z" /><path
         id="path66"
         style="fill:#000000;fill-opacity:1;fill-rule:nonzero;stroke:none"
         d="m 232.129,130.879 v -8.484 l -7.168,-0.02 v 8.496 l 7.168,0.008" /><path
         id="path68"
         style="fill:none;stroke:#000000;stroke-width:0.333;stroke-linecap:butt;stroke-linejoin:miter;stroke-miterlimit:4;stroke-dasharray:none;stroke-opacity:1"
         d="m 232.129,130.879 v -8.484 l -7.168,-0.02 v 8.496 z" /><path
         id="path70"
         style="fill:#000000;fill-opacity:1;fill-rule:nonzero;stroke:none"
         d="m 232.129,148.215 v -8.496 l -7.168,-0.012 v 8.508 h 7.168" /><path
         id="path72"
         style="fill:none;stroke:#000000;stroke-width:0.333;stroke-linecap:butt;stroke-linejoin:miter;stroke-miterlimit:4;stroke-dasharray:none;stroke-opacity:1"
         d="m 232.129,148.215 v -8.496 l -7.168,-0.012 v 8.508 z" /><path
         id="path74"
         style="fill:#000000;fill-opacity:1;fill-rule:nonzero;stroke:none"
         d="m 232.129,165.547 v -8.481 l -7.168,-0.019 v 8.5 h 7.168" /><path
         id="path76"
         style="fill:none;stroke:#000000;stroke-width:0.333;stroke-linecap:butt;stroke-linejoin:miter;stroke-miterlimit:4;stroke-dasharray:none;stroke-opacity:1"
         d="m 232.129,165.547 v -8.481 l -7.168,-0.019 v 8.5 z" /><path
         id="path78"
         style="fill:#000000;fill-opacity:1;fill-rule:nonzero;stroke:none"
         d="m 232.129,182.891 v -8.481 l -7.168,-0.031 v 8.508 l 7.168,0.004" /><path
         id="path80"
         style="fill:none;stroke:#000000;stroke-width:0.333;stroke-linecap:butt;stroke-linejoin:miter;stroke-miterlimit:4;stroke-dasharray:none;stroke-opacity:1"
         d="m 232.129,182.891 v -8.481 l -7.168,-0.031 v 8.508 z" /><path
         id="path82"
         style="fill:#000000;fill-opacity:1;fill-rule:nonzero;stroke:none"
         d="m 232.129,200.227 v -8.493 l -7.168,-0.015 v 8.492 l 7.168,0.016" /><path
         id="path84"
         style="fill:none;stroke:#000000;stroke-width:0.333;stroke-linecap:butt;stroke-linejoin:miter;stroke-miterlimit:4;stroke-dasharray:none;stroke-opacity:1"
         d="m 232.129,200.227 v -8.493 l -7.168,-0.015 v 8.492 z" /><path
         id="path86"
         style="fill:#000000;fill-opacity:1;fill-rule:nonzero;stroke:none"
         d="m 232.129,217.559 v -8.485 l -7.168,-0.011 v 8.492 l 7.168,0.004" /><path
         id="path88"
         style="fill:none;stroke:#000000;stroke-width:0.333;stroke-linecap:butt;stroke-linejoin:miter;stroke-miterlimit:4;stroke-dasharray:none;stroke-opacity:1"
         d="m 232.129,217.559 v -8.485 l -7.168,-0.011 v 8.492 z" /><path
         id="path90"
         style="fill:#000000;fill-opacity:1;fill-rule:nonzero;stroke:none"
         d="m 155.625,44.6602 v -8.4961 l -7.187,-0.0196 v 8.5157 h 7.187" /><path
         id="path92"
         style="fill:none;stroke:#000000;stroke-width:0.333;stroke-linecap:butt;stroke-linejoin:miter;stroke-miterlimit:4;stroke-dasharray:none;stroke-opacity:1"
         d="m 155.625,44.6602 v -8.4961 l -7.187,-0.0196 v 8.5157 z" /><path
         id="path94"
         style="fill:#000000;fill-opacity:1;fill-rule:nonzero;stroke:none"
         d="m 155.625,61.9922 v -8.4844 l -7.187,-0.0195 v 8.4961 l 7.187,0.0078" /><path
         id="path96"
         style="fill:none;stroke:#000000;stroke-width:0.333;stroke-linecap:butt;stroke-linejoin:miter;stroke-miterlimit:4;stroke-dasharray:none;stroke-opacity:1"
         d="m 155.625,61.9922 v -8.4844 l -7.187,-0.0195 v 8.4961 z" /><path
         id="path98"
         style="fill:#000000;fill-opacity:1;fill-rule:nonzero;stroke:none"
         d="m 155.625,79.3281 v -8.4765 l -7.187,-0.0313 v 8.5078 h 7.187" /><path
         id="path100"
         style="fill:none;stroke:#000000;stroke-width:0.333;stroke-linecap:butt;stroke-linejoin:miter;stroke-miterlimit:4;stroke-dasharray:none;stroke-opacity:1"
         d="m 155.625,79.3281 v -8.4765 l -7.187,-0.0313 v 8.5078 z" /><path
         id="path102"
         style="fill:#000000;fill-opacity:1;fill-rule:nonzero;stroke:none"
         d="m 155.625,96.6523 v -8.4765 l -7.187,-0.0195 v 8.5039 l 7.187,-0.0079" /><path
         id="path104"
         style="fill:none;stroke:#000000;stroke-width:0.333;stroke-linecap:butt;stroke-linejoin:miter;stroke-miterlimit:4;stroke-dasharray:none;stroke-opacity:1"
         d="m 155.625,96.6523 v -8.4765 l -7.187,-0.0195 v 8.5039 z" /><path
         id="path106"
         style="fill:#000000;fill-opacity:1;fill-rule:nonzero;stroke:none"
         d="m 155.625,113.996 v -8.476 l -7.187,-0.02 v 8.496 h 7.187" /><path
         id="path108"
         style="fill:none;stroke:#000000;stroke-width:0.333;stroke-linecap:butt;stroke-linejoin:miter;stroke-miterlimit:4;stroke-dasharray:none;stroke-opacity:1"
         d="m 155.625,113.996 v -8.476 l -7.187,-0.02 v 8.496 z" /><path
         id="path110"
         style="fill:#000000;fill-opacity:1;fill-rule:nonzero;stroke:none"
         d="m 155.625,131.34 v -8.496 l -7.187,-0.012 v 8.508 h 7.187" /><path
         id="path112"
         style="fill:none;stroke:#000000;stroke-width:0.333;stroke-linecap:butt;stroke-linejoin:miter;stroke-miterlimit:4;stroke-dasharray:none;stroke-opacity:1"
         d="m 155.625,131.34 v -8.496 l -7.187,-0.012 v 8.508 z" /><path
         id="path114"
         style="fill:#000000;fill-opacity:1;fill-rule:nonzero;stroke:none"
         d="m 155.625,148.664 v -8.488 h -7.187 v 8.496 l 7.187,-0.008" /><path
         id="path116"
         style="fill:none;stroke:#000000;stroke-width:0.333;stroke-linecap:butt;stroke-linejoin:miter;stroke-miterlimit:4;stroke-dasharray:none;stroke-opacity:1"
         d="m 155.625,148.664 v -8.488 h -7.187 v 8.496 z" /><path
         id="path118"
         style="fill:#000000;fill-opacity:1;fill-rule:nonzero;stroke:none"
         d="m 155.625,166.008 v -8.488 l -7.187,-0.016 v 8.512 l 7.187,-0.008" /><path
         id="path120"
         style="fill:none;stroke:#000000;stroke-width:0.333;stroke-linecap:butt;stroke-linejoin:miter;stroke-miterlimit:4;stroke-dasharray:none;stroke-opacity:1"
         d="m 155.625,166.008 v -8.488 l -7.187,-0.016 v 8.512 z" /><path
         id="path122"
         style="fill:#000000;fill-opacity:1;fill-rule:nonzero;stroke:none"
         d="m 155.625,183.336 v -8.481 l -7.187,-0.011 v 8.496 l 7.187,-0.004" /><path
         id="path124"
         style="fill:none;stroke:#000000;stroke-width:0.333;stroke-linecap:butt;stroke-linejoin:miter;stroke-miterlimit:4;stroke-dasharray:none;stroke-opacity:1"
         d="m 155.625,183.336 v -8.481 l -7.187,-0.011 v 8.496 z" /><path
         id="path126"
         style="fill:#000000;fill-opacity:1;fill-rule:nonzero;stroke:none"
         d="m 155.625,200.68 v -8.489 l -7.187,-0.003 v 8.492 h 7.187" /><path
         id="path128"
         style="fill:none;stroke:#000000;stroke-width:0.333;stroke-linecap:butt;stroke-linejoin:miter;stroke-miterlimit:4;stroke-dasharray:none;stroke-opacity:1"
         d="m 155.625,200.68 v -8.489 l -7.187,-0.003 v 8.492 z" /><path
         id="path130"
         style="fill:#000000;fill-opacity:1;fill-rule:nonzero;stroke:none"
         d="m 155.625,218.02 v -8.497 h -7.187 v 8.5 l 7.187,-0.003" /><path
         id="path132"
         style="fill:none;stroke:#000000;stroke-width:0.333;stroke-linecap:butt;stroke-linejoin:miter;stroke-miterlimit:4;stroke-dasharray:none;stroke-opacity:1"
         d="m 155.625,218.02 v -8.497 h -7.187 v 8.5 z" /><path
         id="path134"
         style="fill:#000000;fill-opacity:1;fill-rule:nonzero;stroke:none"
         d="M 210.227,119.504 V 91.1836 l -42.649,0.0273 v 28.3201 l 42.649,-0.027" /><path
         id="path136"
         style="fill:none;stroke:#000000;stroke-width:1.11099994;stroke-linecap:butt;stroke-linejoin:miter;stroke-miterlimit:4;stroke-dasharray:none;stroke-opacity:1"
         d="M 210.227,119.504 V 91.1836 l -42.649,0.0273 v 28.3201 z" /><path
         id="path138"
         style="fill:#000000;fill-opacity:1;fill-rule:nonzero;stroke:none"
         d="m 210.227,165.723 v -28.301 l -42.649,0.019 v 28.317 l 42.649,-0.035" /><path
         id="path140"
         style="fill:none;stroke:#000000;stroke-width:1.11099994;stroke-linecap:butt;stroke-linejoin:miter;stroke-miterlimit:4;stroke-dasharray:none;stroke-opacity:1"
         d="m 210.227,165.723 v -28.301 l -42.649,0.019 v 28.317 z" /><path
         id="path142"
         style="fill:#000000;fill-opacity:1;fill-rule:nonzero;stroke:none"
         d="m 210.227,211.953 v -28.305 l -42.649,0.028 v 28.32 l 42.649,-0.043" /><path
         id="path144"
         style="fill:none;stroke:#000000;stroke-width:1.11099994;stroke-linecap:butt;stroke-linejoin:miter;stroke-miterlimit:4;stroke-dasharray:none;stroke-opacity:1"
         d="m 210.227,211.953 v -28.305 l -42.649,0.028 v 28.32 z" /></g></g></svg>