<?xml version="1.0" encoding="utf-8"?>
<!-- Generator: Adobe Illustrator 20.1.0, SVG Export Plug-In . SVG Version: 6.00 Build 0)  -->
<svg version="1.1" id="Layer_1" xmlns="http://www.w3.org/2000/svg" xmlns:xlink="http://www.w3.org/1999/xlink" x="0px" y="0px"
	 viewBox="0 0 79.3 94.4" style="enable-background:new 0 0 79.3 94.4;" xml:space="preserve">
<style type="text/css">
	.st0{fill:#FFFFFF;stroke:#000000;stroke-width:0.8;}
	.st1{fill:none;stroke:#000000;stroke-width:0.8;}
	.st2{stroke:#000000;stroke-width:0.8;}
	.st3{stroke:#000000;stroke-width:0.8;stroke-linejoin:bevel;}
</style>
<g>
	<g>
		<g>
			<ellipse class="st0" cx="39.8" cy="56.5" rx="39.1" ry="11.2"/>
		</g>
		<g>
			<ellipse class="st0" cx="39.2" cy="8.2" rx="27.2" ry="7.8"/>
		</g>
		<path class="st0" d="M39.3,50.3L39.2,59c-15,0-27.2-3.5-27.2-7.8V8.2c0,4.3,12.2,7.8,27.2,7.8c15,0,27.2-3.5,27.2-7.8v43.1
			c0,2.8-5.6,5.3-13.1,6.7"/>
		<polyline class="st1" points="72.8,82.3 72.8,62.6 62.4,55.4 62.4,12.3 		"/>
		<polyline class="st1" points="18.4,85.9 18.4,66.3 24.6,57.8 24.6,14.7 		"/>
		<polyline class="st1" points="6.2,82.2 6.2,62.5 16.1,55.2 16.1,12.1 		"/>
		<line class="st1" x1="39.2" y1="16" x2="39.2" y2="59"/>
		<line class="st2" x1="53.1" y1="57.9" x2="53.1" y2="14.8"/>
		<path class="st0" d="M78.9,76.4c-0.5,3.9-7.7,7.6-18.5,9.6l0-19.9c10.7-2,18-5.5,18.5-9.4V76.4z"/>
		<path class="st0" d="M0.4,76.1c-0.3,6.7,18.3,11.6,39.9,11.6v-20c-22,0.1-40.2-4.8-39.9-11.4V76.1z"/>
		<path class="st0" d="M39.3,15.8l-0.1-5.1c1.7,0,3.4-0.1,4.7-0.3l9.2,4.4v43.1l7.4,8v20.1l-16.8-7.6c-0.6,0-3.2,0.4-3.4,0.4V67.7
			L39.3,59V15.8z"/>
		<line class="st1" x1="43.6" y1="10.4" x2="43.6" y2="78.4"/>
		<line class="st2" x1="0.8" y1="55.9" x2="11.8" y2="51.9"/>
		<g>
			<line class="st3" x1="78.5" y1="55.4" x2="66.5" y2="51.9"/>
		</g>
		<g>
			<g>
				<path class="st0" d="M45.9,17.4l4.5-0.6l9.4,4.1c-3.5,0.9-11.8,2-13.4,1.7L45.9,17.4z"/>
			</g>
			<g>
				<polygon class="st0" points="45.8,17.4 46.4,22.6 46.4,65.6 47.4,74.3 47.4,94.2 45.8,85.8 				"/>
			</g>
			<g>
				<path class="st0" d="M46.4,22.6c2.5,0.1,11.4-1,13.4-1.8V64c-3.6,0.7-10.4,1.7-13.4,1.5V22.6z"/>
			</g>
			<g>
				<path class="st0" d="M59.8,64l7.5,7.6c-4,1.1-17.4,2.5-19.9,2.5l-1-8.7C47.9,65.6,59.2,64.3,59.8,64z"/>
			</g>
			<path class="st0" d="M67.2,71.5v20c-2.6,0.8-16.5,2.6-19.7,2.5V74.3C49.9,74.3,62.2,72.8,67.2,71.5z"/>
		</g>
	</g>
</g>
</svg>
