<?xml version="1.0" encoding="UTF-8" standalone="no"?>
<svg
   xmlns:dc="http://purl.org/dc/elements/1.1/"
   xmlns:cc="http://creativecommons.org/ns#"
   xmlns:rdf="http://www.w3.org/1999/02/22-rdf-syntax-ns#"
   xmlns:svg="http://www.w3.org/2000/svg"
   xmlns="http://www.w3.org/2000/svg"
   viewBox="0 0 41.506668 55.413334"
   height="55.413334"
   width="41.506668"
   xml:space="preserve"
   id="svg2"
   version="1.1"><metadata
     id="metadata8"><rdf:RDF><cc:Work
         rdf:about=""><dc:format>image/svg+xml</dc:format><dc:type
           rdf:resource="http://purl.org/dc/dcmitype/StillImage" /></cc:Work></rdf:RDF></metadata><defs
     id="defs6"><clipPath
       id="clipPath20"
       clipPathUnits="userSpaceOnUse"><path
         id="path18"
         d="M 0,416 H 310 V 0 H 0 Z" /></clipPath></defs><g
     transform="matrix(1.3333333,0,0,-1.3333333,0,55.413333)"
     id="g10"><g
       transform="scale(0.1)"
       id="g12"><g
         id="g14"><g
           clip-path="url(#clipPath20)"
           id="g16"><path
             id="path22"
             style="fill:#FF5A00;fill-opacity:1;fill-rule:nonzero;stroke:none"
             d="M 306.293,53.4063 V 410.906 l -51.348,-48.75 V 4.65625 l 51.348,48.75005" /><path
             id="path24"
             style="fill:none;stroke:#ffffff;stroke-width:3.99993992;stroke-linecap:butt;stroke-linejoin:miter;stroke-miterlimit:4;stroke-dasharray:none;stroke-opacity:1"
             d="M 306.293,53.4063 V 410.906 l -51.348,-48.75 V 4.65625 Z" /><path
             id="path26"
             style="fill:#FF5A00;fill-opacity:1;fill-rule:nonzero;stroke:none"
             d="m 306.293,410.906 -51.348,-48.75 H 5.96094 l 64.49216,48.75 H 306.293" /><path
             id="path28"
             style="fill:none;stroke:#ffffff;stroke-width:3.99993992;stroke-linecap:butt;stroke-linejoin:miter;stroke-miterlimit:4;stroke-dasharray:none;stroke-opacity:1"
             d="m 306.293,410.906 -51.348,-48.75 H 5.96094 l 64.49216,48.75 z" /><path
             id="path30"
             style="fill:#FF5A00;fill-opacity:1;fill-rule:nonzero;stroke:none"
             d="m 5.96094,115.906 h 248.984 v 246.25 H 5.96094 Z" /><path
             id="path32"
             style="fill:none;stroke:#ffffff;stroke-width:3.99993992;stroke-linecap:butt;stroke-linejoin:miter;stroke-miterlimit:4;stroke-dasharray:none;stroke-opacity:1"
             d="m 254.945,115.906 v 246.25 H 5.96094 v -246.25 z" /><path
             id="path34"
             style="fill:#FF5A00;fill-opacity:1;fill-rule:nonzero;stroke:none"
             d="m 5.96094,4.65625 h 248.984 v 108.75 H 5.96094 Z" /><path
             id="path36"
             style="fill:none;stroke:#ffffff;stroke-width:3.99993992;stroke-linecap:butt;stroke-linejoin:miter;stroke-miterlimit:4;stroke-dasharray:none;stroke-opacity:1"
             d="M 254.945,4.65625 V 113.406 H 5.96094 V 4.65625 Z" /><path
             id="path38"
             style="fill:#ffffff;fill-opacity:1;fill-rule:nonzero;stroke:none"
             d="m 108.246,268.223 -37.871,37.89 6.4258,6.426 -23.7891,4.813 4.8164,-23.778 6.4258,6.426 37.8791,-37.891 6.113,6.114" /><path
             id="path40"
             style="fill:#ffffff;fill-opacity:1;fill-rule:nonzero;stroke:none"
             d="M 94.3984,243.426 H 40.8242 v 9.094 L 20.6016,239.102 40.8242,225.691 v 9.094 h 53.5742 v 8.641" /><path
             id="path42"
             style="fill:#ffffff;fill-opacity:1;fill-rule:nonzero;stroke:none"
             d="m 102.133,216.094 -37.8791,-37.891 -6.4258,6.426 -4.8164,-23.781 23.7891,4.816 -6.4258,6.426 37.871,37.89 -6.113,6.114" /><path
             id="path44"
             style="fill:#ffffff;fill-opacity:1;fill-rule:nonzero;stroke:none"
             d="M 126.938,202.246 V 148.66 h -9.083 l 13.399,-20.222 13.418,20.222 h -9.082 v 53.586 h -8.652" /><path
             id="path46"
             style="fill:#ffffff;fill-opacity:1;fill-rule:nonzero;stroke:none"
             d="m 126.938,274.422 v 53.586 h -9.083 l 13.399,20.215 13.418,-20.215 h -9.082 v -53.586 h -8.652" /><path
             id="path48"
             style="fill:#ffffff;fill-opacity:1;fill-rule:nonzero;stroke:none"
             d="m 154.273,209.98 37.879,-37.89 -6.425,-6.426 23.789,-4.816 -4.825,23.781 -6.425,-6.426 -37.879,37.891 -6.114,-6.114" /><path
             id="path50"
             style="fill:#ffffff;fill-opacity:1;fill-rule:nonzero;stroke:none"
             d="m 168.129,234.785 h 53.574 v -9.094 l 20.227,13.411 -20.227,13.418 v -9.094 h -53.574 v -8.641" /><path
             id="path52"
             style="fill:#ffffff;fill-opacity:1;fill-rule:nonzero;stroke:none"
             d="m 160.387,262.109 37.879,37.891 6.425,-6.426 4.825,23.778 -23.789,-4.813 6.425,-6.426 -37.879,-37.89 6.114,-6.114" /><path
             id="path54"
             style="fill:#ffffff;fill-opacity:1;fill-rule:nonzero;stroke:none"
             d="m 164.145,193.75 c 25.273,17.695 31.425,52.539 13.722,77.82 -17.707,25.285 -52.551,31.426 -77.824,13.723 C 74.7695,267.598 68.6172,232.754 86.3242,207.469 104.027,182.188 138.871,176.055 164.145,193.75" /><path
             id="path56"
             style="fill:none;stroke:#231f20;stroke-width:3.99993992;stroke-linecap:butt;stroke-linejoin:miter;stroke-miterlimit:4;stroke-dasharray:none;stroke-opacity:1"
             d="m 164.145,193.75 c 25.273,17.695 31.425,52.539 13.722,77.82 -17.707,25.285 -52.551,31.426 -77.824,13.723 C 74.7695,267.598 68.6172,232.754 86.3242,207.469 104.027,182.188 138.871,176.055 164.145,193.75 Z" /><path
             id="path58"
             style="fill:#ffffff;fill-opacity:1;fill-rule:nonzero;stroke:none"
             d="m 133.637,54.9609 h 53.574 v -9.082 l 20.227,13.3984 -20.227,13.418 v -9.082 h -53.574 v -8.6524" /><path
             id="path60"
             style="fill:#ffffff;fill-opacity:1;fill-rule:nonzero;stroke:none"
             d="m 132.398,69.8438 50.34,18.3203 3.117,-8.5352 14.415,19.5117 -23.594,5.6834 3.113,-8.5349 -50.351,-18.3203 2.96,-8.125" /><path
             id="path62"
             style="fill:#ffffff;fill-opacity:1;fill-rule:nonzero;stroke:none"
             d="m 132.398,49.0625 50.34,-18.3203 3.117,8.5351 14.415,-19.5117 -23.594,-5.6836 3.113,8.5352 -50.351,18.3203 2.96,8.125" /><path
             id="path64"
             style="fill:#ffffff;fill-opacity:1;fill-rule:nonzero;stroke:none"
             d="m 50.5625,54.9609 h 51.6485 v -9.082 l 20.227,13.3984 -20.227,13.418 v -9.082 H 50.5625 v -8.6524" /></g></g></g></g></svg>