<?xml version="1.0" encoding="UTF-8" standalone="no"?>
<svg
   xmlns:dc="http://purl.org/dc/elements/1.1/"
   xmlns:cc="http://creativecommons.org/ns#"
   xmlns:rdf="http://www.w3.org/1999/02/22-rdf-syntax-ns#"
   xmlns:svg="http://www.w3.org/2000/svg"
   xmlns="http://www.w3.org/2000/svg"
   viewBox="0 0 30.32 33.599998"
   height="33.599998"
   width="30.32"
   xml:space="preserve"
   id="svg2"
   version="1.1"><metadata
     id="metadata8"><rdf:RDF><cc:Work
         rdf:about=""><dc:format>image/svg+xml</dc:format><dc:type
           rdf:resource="http://purl.org/dc/dcmitype/StillImage" /></cc:Work></rdf:RDF></metadata><defs
     id="defs6"><clipPath
       id="clipPath20"
       clipPathUnits="userSpaceOnUse"><path
         id="path18"
         d="M 0,2 V 252 H 227 V 2 Z" /></clipPath></defs><g
     transform="matrix(1.3333333,0,0,-1.3333333,0,33.6)"
     id="g10"><g
       transform="scale(0.1)"
       id="g12"><g
         id="g14"><g
           clip-path="url(#clipPath20)"
           id="g16"><path
             id="path22"
             style="fill:#FF5A00;fill-opacity:1;fill-rule:nonzero;stroke:none"
             d="M 223.895,192.637 V 90.6836 L 205.754,59.5703 V 161.531 l 18.141,31.106" /><path
             id="path24"
             style="fill:none;stroke:#ffffff;stroke-width:4;stroke-linecap:butt;stroke-linejoin:miter;stroke-miterlimit:4;stroke-dasharray:none;stroke-opacity:1"
             d="M 223.895,192.637 V 90.6836 L 205.754,59.5703 V 161.531 Z" /><path
             id="path26"
             style="fill:#FF5A00;fill-opacity:1;fill-rule:nonzero;stroke:none"
             d="M 48.5078,220.605 H 3.58203 L 21.7266,250.02 H 66.6523 L 178.977,192.637 h 44.918 l -18.141,-31.106 h -44.926" /><path
             id="path28"
             style="fill:none;stroke:#ffffff;stroke-width:4;stroke-linecap:butt;stroke-linejoin:miter;stroke-miterlimit:4;stroke-dasharray:none;stroke-opacity:1"
             d="M 48.5078,220.605 H 3.58203 L 21.7266,250.02 H 66.6523 L 178.977,192.637 h 44.918 l -18.141,-31.106 h -44.926" /><path
             id="path30"
             style="fill:#FF5A00;fill-opacity:1;fill-rule:nonzero;stroke:none"
             d="M 48.6328,220.477 160.945,161.531 h -0.117 44.926 V 59.5703 h -44.926 0.117 L 48.6328,2.55859 48.5078,2.73438 H 3.58203 V 220.711 H 48.5078 l 0.125,-0.234" /><path
             id="path32"
             style="fill:none;stroke:#ffffff;stroke-width:4;stroke-linecap:butt;stroke-linejoin:miter;stroke-miterlimit:4;stroke-dasharray:none;stroke-opacity:1"
             d="M 48.6328,220.477 160.945,161.531 h -0.117 44.926 V 59.5703 h -44.926 0.117 L 48.6328,2.55859 48.5078,2.73438 H 3.58203 V 220.711 H 48.5078 Z" /><path
             id="path34"
             style="fill:#ffffff;fill-opacity:1;fill-rule:nonzero;stroke:none"
             d="m 150.344,113.984 v 13.172 L 189.91,111.055 150.344,94.7539 V 107.93 H 62.3047 v 6.054 h 88.0393" /><path
             id="path36"
             style="fill:#ffffff;fill-opacity:1;fill-rule:nonzero;stroke:none"
             d="m 59.5977,162.305 v 5.195 h 61.6013 l 38.828,-21.309 6.34,11.563 26.946,-33.156 -42.532,4.738 6.336,11.562 -35.703,20.868 -61.8163,0.539" /><path
             id="path38"
             style="fill:#ffffff;fill-opacity:1;fill-rule:nonzero;stroke:none"
             d="m 121.414,59.0703 35.703,20.8711 -6.336,11.5625 42.532,4.7461 -26.946,-33.1641 -6.34,11.5625 -38.828,-21.3007 H 59.5977 v 5.1875 l 61.8163,0.5351" /></g></g></g></g></svg>