<?xml version="1.0" encoding="UTF-8" standalone="no"?>
<svg
   xmlns:dc="http://purl.org/dc/elements/1.1/"
   xmlns:cc="http://creativecommons.org/ns#"
   xmlns:rdf="http://www.w3.org/1999/02/22-rdf-syntax-ns#"
   xmlns:svg="http://www.w3.org/2000/svg"
   xmlns="http://www.w3.org/2000/svg"
   viewBox="0 0 28.933332 44.933334"
   height="44.933334"
   width="28.933332"
   xml:space="preserve"
   id="svg2"
   version="1.1"><metadata
     id="metadata8"><rdf:RDF><cc:Work
         rdf:about=""><dc:format>image/svg+xml</dc:format><dc:type
           rdf:resource="http://purl.org/dc/dcmitype/StillImage" /></cc:Work></rdf:RDF></metadata><defs
     id="defs6" /><g
     transform="matrix(1.3333333,0,0,-1.3333333,0,44.933333)"
     id="g10"><g
       transform="scale(0.1)"
       id="g12"><path
         id="path14"
         style="fill:#FF5A00;fill-opacity:1;fill-rule:nonzero;stroke:none"
         d="m 4.82813,4.82422 h 161.055 v 281.023 H 4.82813 Z" /><path
         id="path16"
         style="fill:none;stroke:#ffffff;stroke-width:4;stroke-linecap:butt;stroke-linejoin:miter;stroke-miterlimit:4;stroke-dasharray:none;stroke-opacity:1"
         d="M 165.883,285.848 H 4.82813 V 4.82422 H 165.883" /><path
         id="path18"
         style="fill:#FF5A00;fill-opacity:1;fill-rule:nonzero;stroke:none"
         d="M 165.883,4.82422 215.035,53.9648 V 334.988 H 53.9688 L 4.82813,285.848 H 165.883 V 4.82422" /><path
         id="path20"
         style="fill:none;stroke:#ffffff;stroke-width:4;stroke-linecap:butt;stroke-linejoin:miter;stroke-miterlimit:4;stroke-dasharray:none;stroke-opacity:1"
         d="M 165.883,4.82422 215.035,53.9648 V 334.988 H 53.9688 L 4.82813,285.848 H 165.883 Z" /><path
         id="path22"
         style="fill:#FF5A00;fill-opacity:1;fill-rule:nonzero;stroke:none"
         d="m 165.883,285.848 49.152,49.14" /><path
         id="path24"
         style="fill:none;stroke:#ffffff;stroke-width:4;stroke-linecap:butt;stroke-linejoin:miter;stroke-miterlimit:4;stroke-dasharray:none;stroke-opacity:1"
         d="m 165.883,285.848 49.152,49.14" /><path
         id="path26"
         style="fill:#FF5A00;fill-opacity:1;fill-rule:nonzero;stroke:none"
         d="M 7.32031,190.586 H 164.496" /><path
         id="path28"
         style="fill:none;stroke:#ffffff;stroke-width:4;stroke-linecap:butt;stroke-linejoin:miter;stroke-miterlimit:4;stroke-dasharray:none;stroke-opacity:1"
         d="M 7.32031,190.586 H 164.496" /><path
         id="path30"
         style="fill:#FF5A00;fill-opacity:1;fill-rule:nonzero;stroke:none"
         d="M 7.32031,41.9531 H 164.496" /><path
         id="path32"
         style="fill:none;stroke:#ffffff;stroke-width:4;stroke-linecap:butt;stroke-linejoin:miter;stroke-miterlimit:4;stroke-dasharray:none;stroke-opacity:1"
         d="M 7.32031,41.9531 H 164.496" /><path
         id="path34"
         style="fill:#FF5A00;fill-opacity:1;fill-rule:nonzero;stroke:none"
         d="m 49.4961,247.852 h 43.75" /><path
         id="path36"
         style="fill:none;stroke:#ffffff;stroke-width:4;stroke-linecap:butt;stroke-linejoin:miter;stroke-miterlimit:4;stroke-dasharray:none;stroke-opacity:1"
         d="m 49.4961,247.852 h 43.75" /><path
         id="path38"
         style="fill:#FF5A00;fill-opacity:1;fill-rule:nonzero;stroke:none"
         d="m 31.9961,232.852 h 77.5 v 31.2578 h -77.5 z" /><path
         id="path40"
         style="fill:none;stroke:#ffffff;stroke-width:4;stroke-linecap:butt;stroke-linejoin:miter;stroke-miterlimit:4;stroke-dasharray:none;stroke-opacity:1"
         d="m 109.496,232.852 v 31.257 H 31.9961 v -31.257 z" /><g
         transform="scale(10)"
         id="g42"><text
           id="text46"
           style="font-variant:normal;font-weight:bold;font-size:8px;font-family:Helvetica;-inkscape-font-specification:Helvetica-Bold;writing-mode:lr-tb;fill:#ffffff;fill-opacity:1;fill-rule:nonzero;stroke:none"
           transform="matrix(1,0,0,-1,8.825,6.39648)"><tspan
             id="tspan44"
             y="0"
             x="0 2.224">IP</tspan></text>
</g><path
         id="path48"
         style="fill:#FF5A00;fill-opacity:1;fill-rule:nonzero;stroke:none"
         d="M 147.699,159.785 H 40.0352 c -12.2657,0 -22.2071,-9.941 -22.2071,-22.207 0,-12.265 10.918,-21.348 23.1719,-21.348 h 18.0391 c 12.2539,0 21.2187,-11.152 21.2187,-23.4175 0,-12.2656 -9.9297,-22.1875 -22.1875,-22.1875 H 25.1328" /><path
         id="path50"
         style="fill:none;stroke:#ffffff;stroke-width:11.55000019;stroke-linecap:butt;stroke-linejoin:miter;stroke-miterlimit:4;stroke-dasharray:none;stroke-opacity:1"
         d="M 147.699,159.785 H 40.0352 c -12.2657,0 -22.2071,-9.941 -22.2071,-22.207 0,-12.265 10.918,-21.348 23.1719,-21.348 h 18.0391 c 12.2539,0 21.2187,-11.152 21.2187,-23.4175 0,-12.2656 -9.9297,-22.1875 -22.1875,-22.1875 H 25.1328" /><path
         id="path52"
         style="fill:#ffffff;fill-opacity:1;fill-rule:nonzero;stroke:none"
         d="m 143.57,173.711 v -27.91 l 16.805,13.398 -16.805,14.512" /><path
         id="path54"
         style="fill:none;stroke:#ffffff;stroke-width:1.10599995;stroke-linecap:butt;stroke-linejoin:miter;stroke-miterlimit:4;stroke-dasharray:none;stroke-opacity:1"
         d="m 143.57,173.711 v -27.91 l 16.805,13.398 z" /><path
         id="path56"
         style="fill:#ffffff;fill-opacity:1;fill-rule:nonzero;stroke:none"
         d="M 25.7578,56.8359 V 84.7266 L 8.94922,71.3477 25.7578,56.8359" /><path
         id="path58"
         style="fill:none;stroke:#ffffff;stroke-width:1.10599995;stroke-linecap:butt;stroke-linejoin:miter;stroke-miterlimit:4;stroke-dasharray:none;stroke-opacity:1"
         d="M 25.7578,56.8359 V 84.7266 L 8.94922,71.3477 Z" /></g></g></svg>