<?xml version="1.0" encoding="UTF-8" standalone="no"?>
<svg
   xmlns:dc="http://purl.org/dc/elements/1.1/"
   xmlns:cc="http://creativecommons.org/ns#"
   xmlns:rdf="http://www.w3.org/1999/02/22-rdf-syntax-ns#"
   xmlns:svg="http://www.w3.org/2000/svg"
   xmlns="http://www.w3.org/2000/svg"
   viewBox="0 0 58.040001 42.119999"
   height="42.119999"
   width="58.040001"
   xml:space="preserve"
   id="svg2"
   version="1.1"><metadata
     id="metadata8"><rdf:RDF><cc:Work
         rdf:about=""><dc:format>image/svg+xml</dc:format><dc:type
           rdf:resource="http://purl.org/dc/dcmitype/StillImage" /></cc:Work></rdf:RDF></metadata><defs
     id="defs6" /><g
     transform="matrix(1.3333333,0,0,-1.3333333,0,42.12)"
     id="g10"><g
       transform="scale(0.1)"
       id="g12"><path
         id="path14"
         style="fill:#FF5A00;fill-opacity:1;fill-rule:nonzero;stroke:none"
         d="m 5.65625,6.46484 h 381.484 v 250.637 H 5.65625 Z" /><path
         id="path16"
         style="fill:none;stroke:#ffffff;stroke-width:3.99993992;stroke-linecap:butt;stroke-linejoin:miter;stroke-miterlimit:4;stroke-dasharray:none;stroke-opacity:1"
         d="M 5.65625,6.46484 H 387.141 V 257.102 H 5.65625 Z" /><path
         id="path18"
         style="fill:#FF5A00;fill-opacity:1;fill-rule:nonzero;stroke:none"
         d="M 431.023,70.6523 387.141,6.46484 V 257.102 l 43.882,53.211 V 70.6523" /><path
         id="path20"
         style="fill:none;stroke:#ffffff;stroke-width:3.99993992;stroke-linecap:butt;stroke-linejoin:miter;stroke-miterlimit:4;stroke-dasharray:none;stroke-opacity:1"
         d="M 431.023,70.6523 387.141,6.46484 V 257.102 l 43.882,53.211 z" /><path
         id="path22"
         style="fill:#FF5A00;fill-opacity:1;fill-rule:nonzero;stroke:none"
         d="M 71.4844,310.313 H 431.023 L 387.141,257.102 H 5.65625 l 65.82815,53.211" /><path
         id="path24"
         style="fill:none;stroke:#ffffff;stroke-width:3.99993992;stroke-linecap:butt;stroke-linejoin:miter;stroke-miterlimit:4;stroke-dasharray:none;stroke-opacity:1"
         d="M 71.4844,310.313 H 431.023 L 387.141,257.102 H 5.65625 Z" /><path
         id="path26"
         style="fill:#ffffff;fill-opacity:1;fill-rule:nonzero;stroke:none"
         d="m 91.3984,191.223 -63.8867,-0.051 v 10.156 l 63.8867,0.039 0.0157,15.852 37.0039,-20.942 -37.0039,-20.933 -0.0157,15.879" /><path
         id="path28"
         style="fill:#ffffff;fill-opacity:1;fill-rule:nonzero;stroke:none"
         d="m 91.3984,127.883 -63.8867,-0.039 v 10.152 l 63.8867,0.039 0.0157,15.852 37.0039,-20.946 -37.0039,-20.937 -0.0157,15.879" /><path
         id="path30"
         style="fill:#ffffff;fill-opacity:1;fill-rule:nonzero;stroke:none"
         d="M 91.3984,64.5508 27.5117,64.5039 v 10.1524 l 63.8867,0.039 0.0157,15.8633 L 128.418,69.6094 91.4141,48.6602 91.3984,64.5508" /><path
         id="path32"
         style="fill:#ffffff;fill-opacity:1;fill-rule:nonzero;stroke:none"
         d="m 304.504,136.211 63.875,0.051 v -10.157 l -63.875,-0.039 -0.031,-15.863 -36.993,20.949 36.993,20.95 0.031,-15.891" /><path
         id="path34"
         style="fill:#ffffff;fill-opacity:1;fill-rule:nonzero;stroke:none"
         d="m 253.184,167.793 c 0,-8.594 -22.989,-15.559 -51.36,-15.559 -28.355,0 -51.344,6.965 -51.344,15.559 v -64.355 c 0,-8.5942 22.989,-15.5552 51.344,-15.5552 28.371,0 51.36,6.961 51.36,15.5552 v 64.355" /><path
         id="path36"
         style="fill:#FF5A00;fill-opacity:1;fill-rule:nonzero;stroke:none"
         d="m 201.758,152.234 c 28.359,0 51.355,6.965 51.355,15.559 0,8.594 -22.996,15.559 -51.355,15.559 -28.36,0 -51.348,-6.965 -51.348,-15.559 0,-8.594 22.988,-15.559 51.348,-15.559" /><path
         id="path38"
         style="fill:none;stroke:#ffffff;stroke-width:8.00002956;stroke-linecap:butt;stroke-linejoin:miter;stroke-miterlimit:4;stroke-dasharray:none;stroke-opacity:1"
         d="m 201.758,152.234 c 28.359,0 51.355,6.965 51.355,15.559 0,8.594 -22.996,15.559 -51.355,15.559 -28.36,0 -51.348,-6.965 -51.348,-15.559 0,-8.594 22.988,-15.559 51.348,-15.559 z" /><path
         id="path40"
         style="fill:#ffffff;fill-opacity:1;fill-rule:nonzero;stroke:none"
         d="m 201.824,80.2344 c 28.371,0 51.36,6.9609 51.36,15.5547 0,8.5979 -22.989,15.5699 -51.36,15.5699 -28.355,0 -51.344,-6.972 -51.344,-15.5699 0,-8.5938 22.989,-15.5547 51.344,-15.5547" /><path
         id="path42"
         style="fill:none;stroke:#ffffff;stroke-width:8.00002956;stroke-linecap:butt;stroke-linejoin:miter;stroke-miterlimit:4;stroke-dasharray:none;stroke-opacity:1"
         d="m 201.824,80.2344 c 28.371,0 51.36,6.9609 51.36,15.5547 0,8.5979 -22.989,15.5699 -51.36,15.5699 -28.355,0 -51.344,-6.972 -51.344,-15.5699 0,-8.5938 22.989,-15.5547 51.344,-15.5547 z" /></g></g></svg>