<?xml version="1.0" encoding="UTF-8" standalone="no"?>
<svg
   xmlns:dc="http://purl.org/dc/elements/1.1/"
   xmlns:cc="http://creativecommons.org/ns#"
   xmlns:rdf="http://www.w3.org/1999/02/22-rdf-syntax-ns#"
   xmlns:svg="http://www.w3.org/2000/svg"
   xmlns="http://www.w3.org/2000/svg"
   viewBox="0 0 41.546665 47.080002"
   height="47.080002"
   width="41.546665"
   xml:space="preserve"
   id="svg2"
   version="1.1"><metadata
     id="metadata8"><rdf:RDF><cc:Work
         rdf:about=""><dc:format>image/svg+xml</dc:format><dc:type
           rdf:resource="http://purl.org/dc/dcmitype/StillImage" /></cc:Work></rdf:RDF></metadata><defs
     id="defs6"><clipPath
       id="clipPath20"
       clipPathUnits="userSpaceOnUse"><path
         id="path18"
         d="M 0,3 V 353 H 310 V 3 Z" /></clipPath></defs><g
     transform="matrix(1.3333333,0,0,-1.3333333,0,47.08)"
     id="g10"><g
       transform="scale(0.1)"
       id="g12"><g
         id="g14"><g
           clip-path="url(#clipPath20)"
           id="g16"><path
             id="path22"
             style="fill:#FF5A00;fill-opacity:1;fill-rule:nonzero;stroke:none"
             d="M 255.449,4.66797 306.582,53.418 v 295 l -51.133,-48.75 V 4.66797" /><path
             id="path24"
             style="fill:none;stroke:#ffffff;stroke-width:4;stroke-linecap:butt;stroke-linejoin:miter;stroke-miterlimit:4;stroke-dasharray:none;stroke-opacity:1"
             d="M 255.449,4.66797 306.582,53.418 v 295 l -51.133,-48.75 z" /><path
             id="path26"
             style="fill:#FF5A00;fill-opacity:1;fill-rule:nonzero;stroke:none"
             d="m 306.582,348.418 -51.133,-48.75 H 6 l 65,48.75 h 235.582" /><path
             id="path28"
             style="fill:none;stroke:#ffffff;stroke-width:4;stroke-linecap:butt;stroke-linejoin:miter;stroke-miterlimit:4;stroke-dasharray:none;stroke-opacity:1"
             d="m 306.582,348.418 -51.133,-48.75 H 6 l 65,48.75 z" /><path
             id="path30"
             style="fill:#FF5A00;fill-opacity:1;fill-rule:nonzero;stroke:none"
             d="m 6.625,4.66797 h 248.824 v 295 H 6.625 Z" /><path
             id="path32"
             style="fill:none;stroke:#ffffff;stroke-width:4;stroke-linecap:butt;stroke-linejoin:miter;stroke-miterlimit:4;stroke-dasharray:none;stroke-opacity:1"
             d="M 255.449,4.66797 V 299.668 H 6.625 V 4.66797 Z" /><path
             id="path34"
             style="fill:#ffffff;fill-opacity:1;fill-rule:nonzero;stroke:none"
             d="m 136.078,256.809 h 9.133 l -13.41,20.222 -13.418,-20.222 h 9.043 V 42.1172 h -9.141 l 13.418,-20.2227 13.41,20.2227 h -9.035 V 256.809" /><path
             id="path36"
             style="fill:#ffffff;fill-opacity:1;fill-rule:nonzero;stroke:none"
             d="m 66.8125,256.809 h 9.1289 L 62.5352,277.031 49.125,256.809 h 9.043 V 42.1172 H 49.0273 L 62.4375,21.8945 75.8438,42.1172 H 66.8125 V 256.809" /><path
             id="path38"
             style="fill:#ffffff;fill-opacity:1;fill-rule:nonzero;stroke:none"
             d="m 202.285,256.809 h 9.121 l -13.398,20.222 -13.418,-20.222 h 9.043 V 42.1172 h -9.141 l 13.418,-20.2227 13.399,20.2227 h -9.024 V 256.809" /></g></g></g></g></svg>