<?xml version="1.0" encoding="UTF-8" standalone="no"?>
<svg
   xmlns:dc="http://purl.org/dc/elements/1.1/"
   xmlns:cc="http://creativecommons.org/ns#"
   xmlns:rdf="http://www.w3.org/1999/02/22-rdf-syntax-ns#"
   xmlns:svg="http://www.w3.org/2000/svg"
   xmlns="http://www.w3.org/2000/svg"
   viewBox="0 0 32.453335 48.693333"
   height="48.693333"
   width="32.453335"
   xml:space="preserve"
   id="svg2"
   version="1.1"><metadata
     id="metadata8"><rdf:RDF><cc:Work
         rdf:about=""><dc:format>image/svg+xml</dc:format><dc:type
           rdf:resource="http://purl.org/dc/dcmitype/StillImage" /></cc:Work></rdf:RDF></metadata><defs
     id="defs6" /><g
     transform="matrix(1.3333333,0,0,-1.3333333,0,48.693333)"
     id="g10"><g
       transform="scale(0.1)"
       id="g12"><path
         id="path14"
         style="fill:#FF5A00;fill-opacity:1;fill-rule:nonzero;stroke:none"
         d="m 51.6406,5.65234 h 185.258 v 317.297 H 51.6406 Z" /><path
         id="path16"
         style="fill:none;stroke:#ffffff;stroke-width:4;stroke-linecap:butt;stroke-linejoin:miter;stroke-miterlimit:4;stroke-dasharray:none;stroke-opacity:1"
         d="M 236.898,5.65234 V 322.949 H 51.6406 V 5.65234 Z" /><path
         id="path18"
         style="fill:#FF5A00;fill-opacity:1;fill-rule:nonzero;stroke:none"
         d="m 181.316,360.945 55.582,-37.996 H 51.6406 L 5.56641,360.945 H 181.316" /><path
         id="path20"
         style="fill:none;stroke:#ffffff;stroke-width:4;stroke-linecap:butt;stroke-linejoin:miter;stroke-miterlimit:4;stroke-dasharray:none;stroke-opacity:1"
         d="m 181.316,360.945 55.582,-37.996 H 51.6406 L 5.56641,360.945 Z" /><path
         id="path22"
         style="fill:#FF5A00;fill-opacity:1;fill-rule:nonzero;stroke:none"
         d="M 5.56641,62.6563 V 360.945 L 51.6406,322.949 V 5.65234 L 5.56641,62.6563" /><path
         id="path24"
         style="fill:none;stroke:#ffffff;stroke-width:4;stroke-linecap:butt;stroke-linejoin:miter;stroke-miterlimit:4;stroke-dasharray:none;stroke-opacity:1"
         d="M 5.56641,62.6563 V 360.945 L 51.6406,322.949 V 5.65234 Z" /><path
         id="path26"
         style="fill:#ffffff;fill-opacity:1;fill-rule:nonzero;stroke:none"
         d="M 96.7695,248.809 96.7266,140.234 h 8.1364 l 0.032,108.575 12.695,0.019 -16.77,22.774 -16.777,-22.774 12.7265,-0.019" /><path
         id="path28"
         style="fill:#ffffff;fill-opacity:1;fill-rule:nonzero;stroke:none"
         d="m 188.02,162.656 -0.04,108.574 h 8.133 l 0.032,-108.574 12.695,-0.027 -16.77,-22.766 -16.777,22.766 12.727,0.027" /><path
         id="path30"
         style="fill:#ffffff;fill-opacity:1;fill-rule:nonzero;stroke:none"
         d="M 108.328,72.0898 120.691,72.0195 102.93,94.7852 86.1523,72.0195 98.1836,72.0703 c 5.0394,-19.707 27.3514,-33.5664 47.5464,-33.5664 24.172,0 48.762,19.9805 48.762,45.8516 h -8.75 c 0,-20.7032 -20.676,-37.4805 -40.012,-37.4805 -15.347,0 -32.605,10.4688 -37.402,25.2148" /></g></g></svg>