<?xml version="1.0" encoding="utf-8"?>
<!-- Generator: Adobe Illustrator 20.1.0, SVG Export Plug-In . SVG Version: 6.00 Build 0)  -->
<svg version="1.1" id="Layer_1" xmlns="http://www.w3.org/2000/svg" xmlns:xlink="http://www.w3.org/1999/xlink" x="0px" y="0px"
	 viewBox="0 0 101.6 56.6" style="enable-background:new 0 0 101.6 56.6;" xml:space="preserve">
<style type="text/css">
	.st0{fill:none;stroke:#00B38A;stroke-width:1.6;stroke-linecap:round;stroke-linejoin:round;}
	.st1{stroke:#FFFFFF;stroke-width:0.84;}
	.st2{fill:#00B38A;stroke:#FFFFFF;stroke-width:0.8;}
	.st3{fill:#FFFFFF;}
</style>
<g>
	<polygon class="st0" points="84.9,55.8 29.5,55.8 45,46.5 100.8,46.4 	"/>
	<g>
		<polygon class="st0" points="45,46.5 29.5,55.8 29.5,9.9 45,0.9 		"/>
	</g>
	<g>
		<g>
			<g>
				<g>
					<path class="st1" d="M91.3,23.1c0,5.7-11.9,10.4-26.7,10.4C49.9,33.4,38,28.8,38,23.1v15.2c0,5.7,11.9,10.4,26.7,10.4
						c14.7,0,26.7-4.6,26.7-10.4V23.1z"/>
					<path class="st2" d="M91.3,23.1c0,5.7-11.9,10.4-26.7,10.4C49.9,33.4,38,28.8,38,23.1v15.2c0,5.7,11.9,10.4,26.7,10.4
						c14.7,0,26.7-4.6,26.7-10.4V23.1z"/>
				</g>
				<ellipse class="st2" cx="64.7" cy="23.1" rx="26.7" ry="10.4"/>
			</g>
		</g>
		<g>
			<polygon class="st3" points="58.8,18.9 61.1,22.3 52.6,24.2 54.5,22.7 41.4,20.4 44.7,18 57.3,20.1 			"/>
		</g>
		<g>
			<polygon class="st3" points="70.7,27 69.2,23.6 76.8,22 75.5,23.2 88.2,25.4 85.1,27.8 72.5,25.5 			"/>
		</g>
		<g>
			<polygon class="st3" points="66.5,17.1 75.1,14.7 75.2,18.4 73,18 68.9,21.4 64.9,20.9 69.2,17.5 			"/>
		</g>
		<g>
			<polygon class="st3" points="62.9,30.2 54.8,31.7 54.5,27.9 56.8,28.4 61.3,24.6 65.2,25.3 60.5,29.5 			"/>
		</g>
	</g>
	<g>
		<rect x="29.5" y="9.9" class="st0" width="55.4" height="45.9"/>
		<g>
			<polygon class="st0" points="100.8,46.4 84.9,55.8 84.8,9.9 100.8,0.8 			"/>
			<polygon class="st0" points="84.8,9.9 29.5,9.9 45,0.9 100.8,0.8 			"/>
		</g>
	</g>
	<line class="st0" x1="0.8" y1="30" x2="26.8" y2="30"/>
	<line class="st0" x1="9.1" y1="37.6" x2="26.5" y2="37.6"/>
	<line class="st0" x1="26.8" y1="19.4" x2="12.5" y2="19.4"/>
	<line class="st0" x1="5.8" y1="26.2" x2="26.5" y2="26.2"/>
</g>
</svg>
