<?xml version="1.0" encoding="utf-8"?>
<!-- Generator: Adobe Illustrator 20.1.0, SVG Export Plug-In . SVG Version: 6.00 Build 0)  -->
<svg version="1.1" id="Layer_1" xmlns="http://www.w3.org/2000/svg" xmlns:xlink="http://www.w3.org/1999/xlink" x="0px" y="0px"
	 viewBox="0 0 74.2 63.6" style="enable-background:new 0 0 74.2 63.6;" xml:space="preserve">
<style type="text/css">
	.st0{fill:#00B38A;stroke:#FFFFFF;stroke-width:0.8;}
	.st1{stroke:#FFFFFF;stroke-width:0.8;}
	.st2{fill:none;stroke:#FFFFFF;stroke-width:0.8;}
	.st3{fill:none;stroke:#00B38A;stroke-width:0.8;}
</style>
<g>
	<polyline class="st0" points="64,10.2 14.2,10.2 14.2,59.3 64,59.3 	"/>
	<polygon class="st0" points="64,59.3 73.8,49.4 73.8,0.4 10.8,0.4 1,10.2 64,10.2 	"/>
	<line class="st1" x1="64" y1="10.2" x2="73.8" y2="0.4"/>
	<line class="st2" x1="43.2" y1="17.8" x2="52" y2="17.8"/>
	<rect x="15.7" y="12.1" class="st2" width="40.5" height="9.8"/>
	<g>
		<rect x="50" y="26.3" class="st2" width="6" height="8"/>
	</g>
	<rect x="1.8" y="11" class="st3" width="12.5" height="47.5"/>
	<line class="st3" x1="4" y1="13.3" x2="12" y2="13.3"/>
	<line class="st3" x1="4" y1="15.8" x2="12" y2="15.8"/>
	<line class="st3" x1="4" y1="18.3" x2="12" y2="18.3"/>
	<line class="st3" x1="4" y1="20.8" x2="12" y2="20.8"/>
	<line class="st3" x1="4" y1="23.3" x2="12" y2="23.3"/>
	<line class="st3" x1="4" y1="25.8" x2="12" y2="25.8"/>
	<line class="st3" x1="4" y1="28.3" x2="12" y2="28.3"/>
	<line class="st3" x1="4" y1="30.8" x2="12" y2="30.8"/>
	<line class="st3" x1="4" y1="33.3" x2="12" y2="33.3"/>
	<line class="st3" x1="4" y1="35.8" x2="12" y2="35.8"/>
	<line class="st3" x1="4" y1="38.3" x2="12" y2="38.3"/>
	<line class="st3" x1="4" y1="40.8" x2="12" y2="40.8"/>
	<line class="st3" x1="4" y1="43.3" x2="12" y2="43.3"/>
	<line class="st3" x1="4" y1="45.8" x2="12" y2="45.8"/>
	<line class="st3" x1="4" y1="48.3" x2="12" y2="48.3"/>
	<line class="st3" x1="4" y1="50.8" x2="12" y2="50.8"/>
	<line class="st3" x1="4" y1="53.3" x2="12" y2="53.3"/>
	<line class="st3" x1="4" y1="55.8" x2="12" y2="55.8"/>
	<polygon class="st0" points="10,59.3 7.5,62.8 60,62.8 58.5,59.3 	"/>
	<polygon class="st0" points="60,62.8 63.3,59.3 58.5,59.3 	"/>
</g>
</svg>
