<?xml version="1.0" encoding="utf-8"?>
<!-- Generator: Adobe Illustrator 20.1.0, SVG Export Plug-In . SVG Version: 6.00 Build 0)  -->
<svg version="1.1" id="Layer_1" xmlns="http://www.w3.org/2000/svg" xmlns:xlink="http://www.w3.org/1999/xlink" x="0px" y="0px"
	 viewBox="0 0 87.1 63.2" style="enable-background:new 0 0 87.1 63.2;" xml:space="preserve">
<style type="text/css">
	.st0{fill:#00B38A;stroke:#FFFFFF;stroke-width:0.8;}
	.st1{fill:#FFFFFF;}
</style>
<g>
	<rect x="1.1" y="11.8" class="st0" width="76.3" height="50.1"/>
	<polygon class="st0" points="86.2,49 77.4,61.9 77.4,11.8 86.2,1.1 	"/>
	<polygon class="st0" points="14.3,1.1 86.2,1.1 77.4,11.8 1.1,11.8 	"/>
	<polygon class="st1" points="12.3,24.9 5.5,24.9 5.5,22.9 12.3,22.9 12.3,19.7 19.7,23.9 12.3,28.1 	"/>
	<polygon class="st1" points="12.3,37.6 5.5,37.6 5.5,35.6 12.3,35.6 12.3,32.4 19.7,36.6 12.3,40.8 	"/>
	<polygon class="st1" points="12.3,50.3 5.5,50.3 5.5,48.2 12.3,48.2 12.3,45.1 19.7,49.3 12.3,53.4 	"/>
	<polygon class="st1" points="64.1,35.9 72.9,35.9 72.9,38 64.1,38 64.1,41.1 56.7,36.9 64.1,32.8 	"/>
	<polygon class="st1" points="69.4,37.7 60.5,37.7 60.5,35.7 69.4,35.7 69.4,32.5 76.8,36.7 69.4,40.9 	"/>
	<path class="st0" d="M26.8,41.4h28V25.5c-0.1-1.2-2.2-1.1-2.2-1.1H38.6v-2.9h-9.4v2.2h-2.4L26.8,41.4z"/>
	<path class="st0" d="M24.6,43.9h28V28c-0.1-1.2-2.2-1.1-2.2-1.1H36.3v-2.9h-9.4v2.2h-2.4L24.6,43.9z"/>
	<path class="st0" d="M21.9,46.6h28V30.7c-0.1-1.2-2.2-1.1-2.2-1.1H33.6v-2.9h-9.4v2.2h-2.4L21.9,46.6z"/>
</g>
</svg>
