<?xml version="1.0" encoding="utf-8"?>
<!-- Generator: Adobe Illustrator 20.1.0, SVG Export Plug-In . SVG Version: 6.00 Build 0)  -->
<svg version="1.1" id="Layer_1" xmlns="http://www.w3.org/2000/svg" xmlns:xlink="http://www.w3.org/1999/xlink" x="0px" y="0px"
	 viewBox="0 0 50.9 81" style="enable-background:new 0 0 50.9 81;" xml:space="preserve">
<style type="text/css">
	.st0{fill:#00B38A;stroke:#FFFFFF;stroke-width:0.8;}
	.st1{fill:none;stroke:#FFFFFF;stroke-width:0.8;stroke-linecap:round;stroke-linejoin:round;}
	.st2{stroke:#FFFFFF;stroke-width:0.8;stroke-linecap:round;stroke-linejoin:round;}
	.st3{fill:#FFFFFF;}
</style>
<g>
	<g>
		<g>
			<polygon class="st0" points="50,0.8 44.5,7.1 1.1,7.1 8.2,0.8 			"/>
		</g>
	</g>
	<g>
		<g>
			<rect x="1.1" y="6.8" class="st0" width="43.5" height="17.7"/>
			<polygon class="st0" points="50,18.7 50,1 44.5,6.8 44.5,24.5 			"/>
		</g>
	</g>
	<polygon class="st0" points="44.5,24.3 44.5,59 50,53.2 50,18.5 	"/>
	<g>
		<line class="st1" x1="44.3" y1="12.3" x2="1.3" y2="12.3"/>
		<line class="st1" x1="47.6" y1="3.4" x2="4.6" y2="3.4"/>
		<line class="st1" x1="44.3" y1="18.3" x2="1.3" y2="18.3"/>
		<line class="st1" x1="50.1" y1="6.1" x2="44.7" y2="12.1"/>
		<line class="st1" x1="50.1" y1="12.1" x2="44.7" y2="18.1"/>
		<line class="st2" x1="14" y1="6.9" x2="14" y2="12.3"/>
		<line class="st1" x1="30.7" y1="6.9" x2="30.7" y2="12.3"/>
		<line class="st1" x1="14" y1="18.6" x2="14" y2="24"/>
		<line class="st1" x1="30.7" y1="18.6" x2="30.7" y2="24"/>
		<line class="st1" x1="22.7" y1="12.6" x2="22.7" y2="18"/>
		<line class="st1" x1="6" y1="12.6" x2="6" y2="18"/>
		<line class="st1" x1="39.3" y1="12.6" x2="39.3" y2="18"/>
		<line class="st1" x1="20.2" y1="0.6" x2="14" y2="6.8"/>
		<line class="st1" x1="36.8" y1="0.6" x2="30.7" y2="6.8"/>
		<g>
			<g>
				<g>
					<g>
						<g>
							<polyline class="st0" points="44.5,24.3 44.5,58.7 1.1,58.7 1.1,24.3 							"/>
						</g>
					</g>
					<g>
						<g>
							<rect x="1.1" y="58.6" class="st0" width="43.5" height="21.3"/>
							<polygon class="st0" points="50,74.2 50,53 44.5,58.8 44.5,80 							"/>
						</g>
					</g>
				</g>
				<g>
					<polygon class="st3" points="23.5,37.5 23.5,29.9 24.8,29.9 22.9,27.1 21,29.9 22.3,29.9 22.3,37.5 					"/>
					<polygon class="st3" points="19.7,38.5 14.4,33.2 15.3,32.3 11.9,31.7 12.6,35 13.5,34.1 18.8,39.4 					"/>
					<polygon class="st3" points="17.7,42 10.2,42 10.2,40.7 7.4,42.6 10.2,44.5 10.2,43.2 17.7,43.2 					"/>
					<polygon class="st3" points="18.8,45.9 13.5,51.2 12.6,50.3 11.9,53.6 15.3,52.9 14.4,52 19.7,46.7 					"/>
					<polygon class="st3" points="22.3,45.2 22.3,59.7 21,59.7 22.9,62.5 24.8,59.7 23.5,59.7 23.5,45.2 					"/>
					<polygon class="st3" points="26.1,46.7 31.4,52 30.5,52.9 33.9,53.6 33.2,50.3 32.3,51.2 27,45.9 					"/>
					<polygon class="st3" points="28.1,43.2 35.6,43.2 35.6,44.5 38.4,42.6 35.6,40.7 35.6,42 28.1,42 					"/>
					<polygon class="st3" points="27,39.4 32.3,34.1 33.2,35 33.9,31.7 30.5,32.3 31.4,33.2 26.1,38.5 					"/>
				</g>
			</g>
			<g>
				<ellipse transform="matrix(0.8191 -0.5736 0.5736 0.8191 -20.2426 20.9144)" class="st3" cx="23" cy="42.6" rx="7.8" ry="7.8"/>
			</g>
		</g>
		<line class="st1" x1="47.6" y1="3.5" x2="47.6" y2="20.8"/>
		<g>
			<g>
				<polygon class="st3" points="22.4,67 33.9,67 33.9,65.9 37.6,68.2 33.9,70.5 33.9,69.4 22.4,69.4 				"/>
				<polygon class="st3" points="22.4,74.1 33.9,74.1 33.9,73 37.6,75.3 33.9,77.6 33.9,76.5 22.4,76.5 				"/>
				<polygon class="st3" points="22.7,63.6 11.3,63.6 11.3,62.5 7.5,64.8 11.3,67.1 11.3,66 22.7,66 				"/>
				<polygon class="st3" points="22.7,70.7 11.3,70.7 11.3,69.6 7.5,71.9 11.3,74.2 11.3,73.1 22.7,73.1 				"/>
			</g>
		</g>
	</g>
	<line class="st1" x1="44.3" y1="24.3" x2="1.3" y2="24.3"/>
	<line class="st1" x1="50.1" y1="18.1" x2="44.7" y2="24.1"/>
	<line class="st1" x1="44.3" y1="58.6" x2="1.3" y2="58.6"/>
	<line class="st1" x1="49.9" y1="53.3" x2="44.8" y2="58.5"/>
</g>
</svg>
