<?xml version="1.0" encoding="utf-8"?>
<!-- Generator: Adobe Illustrator 20.1.0, SVG Export Plug-In . SVG Version: 6.00 Build 0)  -->
<svg version="1.1" id="Layer_1" xmlns="http://www.w3.org/2000/svg" xmlns:xlink="http://www.w3.org/1999/xlink" x="0px" y="0px"
	 viewBox="0 0 61.6 46.1" style="enable-background:new 0 0 61.6 46.1;" xml:space="preserve">
<style type="text/css">
	.st0{fill:#00B38A;stroke:#FFFFFF;stroke-width:0.8;}
</style>
<g>
	<g>
		<rect x="0.8" y="35.1" class="st0" width="42" height="9.9"/>
		<polygon class="st0" points="42.8,35.1 0.8,35.1 20.7,6.1 60.9,6.1 		"/>
		<polygon class="st0" points="60.9,6.5 60.9,24.6 42.8,45 42.8,35.5 		"/>
	</g>
	<path class="st0" d="M28.7,11.4c-2.6,3-5.8,6.4-7.8,9.8l0.2,3L14.8,34L14,26.8c1.2-4.8,16.2-23.9,19.7-26.1l1.2,6.4l-6,7.2
		L28.7,11.4z"/>
	<polygon class="st0" points="6.5,26.8 5.8,34 14.8,34 14,26.8 	"/>
	<path class="st0" d="M33.7,0.7C30.2,2.9,15.2,21.9,14,26.8H6.5C7.7,21.9,22.7,2.9,26.2,0.7H33.7z"/>
	<polygon class="st0" points="22.4,32.2 19.7,32.2 21,30.7 23.7,30.7 	"/>
	<polygon class="st0" points="28.4,32.2 25.7,32.2 27,30.7 29.7,30.7 	"/>
	<polygon class="st0" points="34.4,32.2 31.7,32.2 33,30.7 35.7,30.7 	"/>
	<polygon class="st0" points="40.4,32.2 37.7,32.2 39,30.7 41.7,30.7 	"/>
</g>
</svg>
