<?xml version="1.0" encoding="utf-8"?>
<!-- Generator: Adobe Illustrator 20.1.0, SVG Export Plug-In . SVG Version: 6.00 Build 0)  -->
<svg version="1.1" id="Layer_1" xmlns="http://www.w3.org/2000/svg" xmlns:xlink="http://www.w3.org/1999/xlink" x="0px" y="0px"
	 viewBox="0 0 74.4 65.4" style="enable-background:new 0 0 74.4 65.4;" xml:space="preserve">
<style type="text/css">
	.st0{fill:#00B38A;stroke:#FFFFFF;stroke-width:0.8;}
	.st1{fill:#FFFFFF;}
	.st2{fill:#FFFFFF;stroke:#FFFFFF;stroke-width:0.152;}
	.st3{fill:none;stroke:#FFFFFF;stroke-width:1.52;}
	.st4{fill:#FFFFFF;stroke:#00B38A;stroke-width:0.7;}
	.st5{fill:none;stroke:#00B38A;stroke-width:0.7;}
</style>
<g>
	<g>
		<path class="st0" d="M74,14.7C74,22.6,57.5,29,37.2,29C16.9,29,0.4,22.6,0.4,14.7v36C0.4,58.6,16.9,65,37.2,65
			C57.5,65,74,58.6,74,50.7V14.7z"/>
		<ellipse class="st0" cx="37.2" cy="14.7" rx="36.8" ry="14.3"/>
		<polygon class="st1" points="28.8,9.1 31.8,13.7 20.3,16.3 22.8,14.2 5.1,11.2 9.5,7.9 26.7,10.8 		"/>
		<polygon class="st1" points="44.9,20.2 42.9,15.5 53.2,13.4 51.4,15 68.7,18 64.6,21.3 47.4,18 		"/>
		<polygon class="st1" points="39.3,6.6 50.9,3.4 51,8.4 48.1,7.9 42.5,12.6 37.1,11.8 42.9,7.2 		"/>
		<polygon class="st1" points="34.3,24.4 23.3,26.5 22.8,21.4 26,22.1 32.1,16.9 37.5,17.8 31,23.5 		"/>
	</g>
	<g>
		<g>
			<g>
				<g>
					<g>
						<g>
							<g>
								<polygon class="st2" points="55.7,54.4 55.7,45.2 50.2,49.6 								"/>
							</g>
						</g>
					</g>
				</g>
			</g>
			<g>
				<g>
					<g>
						<g>
							<g>
								<polygon class="st2" points="16.6,54.4 16.6,45.2 22.1,49.6 								"/>
							</g>
							<g>
								<polygon class="st2" points="20.3,36.1 20.3,45.3 14.8,40.9 								"/>
							</g>
						</g>
					</g>
				</g>
			</g>
		</g>
		<g>
			<polygon class="st2" points="51.6,36.1 51.6,45.3 57.1,40.9 			"/>
		</g>
		<line class="st3" x1="52.8" y1="40.6" x2="49.5" y2="40.6"/>
		<line class="st3" x1="54" y1="49.5" x2="58.2" y2="49.5"/>
		<line class="st3" x1="18.1" y1="49.5" x2="13.6" y2="49.5"/>
		<line class="st3" x1="18.3" y1="40.9" x2="22.5" y2="40.9"/>
		<polygon class="st4" points="45.8,41.1 45.8,57.8 26.4,57.8 26.4,41.1 		"/>
		<rect x="28.5" y="42.8" class="st5" width="15.2" height="3"/>
		<rect x="28.5" y="48.6" class="st5" width="15.2" height="7.6"/>
		<path class="st1" d="M40.1,35.1c0,0,1-0.1,1.2,0.9l0.2,3.1l6.4,1.1l0.6-1.4l-1.6-3.8c-8.2-2-11.1-1.4-11.1-1.4h0.3
			c0,0-2.9-0.6-11.1,1.4l-1.6,3.8l0.6,1.4l6.4-1.1l0.2-3.1c0.2-1,1.2-0.9,1.2-0.9H40.1z"/>
		<line class="st5" x1="43.7" y1="47.2" x2="28.5" y2="47.2"/>
	</g>
</g>
</svg>
