<?xml version="1.0" encoding="UTF-8" standalone="no"?>
<svg
   xmlns:dc="http://purl.org/dc/elements/1.1/"
   xmlns:cc="http://creativecommons.org/ns#"
   xmlns:rdf="http://www.w3.org/1999/02/22-rdf-syntax-ns#"
   xmlns:svg="http://www.w3.org/2000/svg"
   xmlns="http://www.w3.org/2000/svg"
   xmlns:sodipodi="http://sodipodi.sourceforge.net/DTD/sodipodi-0.dtd"
   xmlns:inkscape="http://www.inkscape.org/namespaces/inkscape"
   viewBox="0 0 46.986668 63.946667"
   height="63.946667"
   width="46.986668"
   xml:space="preserve"
   id="svg2"
   version="1.1"
   sodipodi:docname="keys.svg"
   inkscape:version="0.92.3 (2405546, 2018-03-11)"><sodipodi:namedview
     pagecolor="#ffffff"
     bordercolor="#666666"
     borderopacity="1"
     objecttolerance="10"
     gridtolerance="10"
     guidetolerance="10"
     inkscape:pageopacity="0"
     inkscape:pageshadow="2"
     inkscape:window-width="1551"
     inkscape:window-height="836"
     id="namedview17"
     showgrid="false"
     inkscape:zoom="10.438524"
     inkscape:cx="24.035255"
     inkscape:cy="31.973333"
     inkscape:window-x="49"
     inkscape:window-y="27"
     inkscape:window-maximized="1"
     inkscape:current-layer="svg2" /><metadata
     id="metadata8"><rdf:RDF><cc:Work
         rdf:about=""><dc:format>image/svg+xml</dc:format><dc:type
           rdf:resource="http://purl.org/dc/dcmitype/StillImage" /></cc:Work></rdf:RDF></metadata><defs
     id="defs6" /><g
     id="g865"><path
       inkscape:connector-curvature="0"
       d="m 46.989599,12.163868 -0.07293,-1.209333 -0.140666,-1.21 L 46.42187,8.5352017 46.067736,7.4685351 45.505203,6.4024018 44.93747,5.4060018 44.234403,4.4086685 43.458403,3.5560018 42.614536,2.7732019 41.62507,2.0622685 40.63547,1.4936019 39.578136,0.92426858 l -1.057333,-0.3552 -1.197867,-0.35679999 -1.2032,-0.14213333 -1.197866,-0.0703999947 -1.2708,0.0703999947 -1.198,0.14213333 -1.130133,0.35679999 -1.125067,0.3552 -1.0624,0.56933332 -0.9844,0.5686666 -0.921867,0.7109334 -0.843733,0.7827999 -0.776133,0.8526667 -0.703067,0.9973333 -0.567733,0.9964 -0.562534,1.0661333 -0.354133,1.0666666 -0.354133,1.2093333 -0.140667,1.21 -0.06773,1.209333 0.06773,1.136934 0.07293,1.067733 0.2084,0.995867 0.354134,0.996266 -0.776134,-0.356666 -0.5624,-0.283867 -0.421866,-0.1432 -0.145867,-0.0704 -0.2812,-0.142133 H 21.0208 l -0.2812,0.142133 -0.2084,0.2136 -5.505199,5.9052 -0.140534,0.212 -0.07293,0.212 -0.06773,0.285333 0.06773,0.286533 0.145867,0.4244 0.421866,1.0688 0.421867,1.208267 0.354133,0.9964 -0.2812,0.3568 -0.281333,0.2812 -0.2864,0.286533 -0.06773,0.07027 -0.140667,0.1432 -0.07293,0.2136 -0.0676,0.140533 v 0.2136 0.2864 l 0.0676,0.7084 v 0.783867 0.640533 l -0.2812,0.283867 -0.4948,0.5704 -0.776,0.854133 -0.989627,0.9948 -1.125,1.208267 -1.270827,1.3516 -1.2708396,1.424533 -1.4114533,1.492133 -1.3385466,1.421867 -1.2708266,1.421867 -1.27084,1.354133 -1.0572933,1.135466 -0.9166666,1 -0.70832935,0.7812 -0.48958399,0.4948 -0.14583333,0.145867 -0.14062493,0.2136 L 0,46.873734 v 0.286533 l 0.0677084,0.213467 1.5520782,4.26564 0.1406267,0.286453 0.2135467,0.213547 0.2812533,0.06771 0.2864533,0.07292 5.6406265,-0.140627 0.2135467,-0.07292 0.2083333,-0.06771 0.1458267,-0.07292 0.1354133,-0.140613 1.3437599,-1.494813 0.140613,-0.145867 0.06772,-0.140533 0.07291,-0.2136 v -0.213467 -0.140667 -0.5 -0.567733 l -0.07291,-0.640667 h 0.635414 l 0.635413,-0.07293 h 0.42708 0.208333 0.140627 l 0.213547,-0.0676 0.140626,-0.07293 0.140627,-0.140667 1.411493,-1.4948 0.213467,-0.2864 0.06773,-0.427067 -0.140666,-0.354266 -0.208267,-0.2812 -0.2136,-0.2864 -0.140533,-0.354267 v -0.427066 l 0.2812,-0.427067 0.2812,-0.2136 0.354266,-0.145733 h 0.421867 l 0.421867,0.2864 0.354133,0.2136 0.354133,0.07293 0.354267,-0.07293 0.354133,-0.2136 1.338534,-1.4948 0.140666,-0.140534 0.0728,-0.2136 0.06773,-0.140666 v -0.213467 -0.145867 -0.4948 l -0.06773,-0.567733 v -0.6432 l 0.630267,-0.07027 h 0.635467 0.421866 0.145733 0.2084 l 0.140667,-0.0704 0.213467,-0.1432 0.140666,-0.07027 0.140667,-0.1432 0.2812,-0.354267 0.354133,-0.356667 0.281334,-0.3568 h 0.213466 0.2812 0.354267 l 0.348933,-0.0704 0.354134,0.3568 0.427066,0.497467 0.421867,0.427067 0.281333,0.354133 -0.140666,3.768267 -0.2136,7.468666 -0.2812,7.328173 -0.140667,3.27604 0.07293,0.281253 0.06773,0.213547 0.140666,0.213533 0.213467,0.213547 3.9532,2.135415 0.2812,0.140625 h 0.281333 l 0.354134,-0.140625 0.208266,-0.140626 4.166667,-3.916669 0.135466,-0.140627 0.07293,-0.140626 0.07293,-0.213534 v -0.14584 l 0.0676,-2.062493 V 56.905 56.691453 l -0.140533,-0.213533 -0.07293,-0.140627 -0.135466,-0.14584 -0.2864,-0.28124 -0.421867,-0.427093 -0.421866,-0.5 0.4948,-0.42708 0.421866,-0.42708 0.2812,-0.281254 0.140667,-0.145826 0.140533,-0.140627 0.07293,-0.140627 0.06773,-0.213546 0.07293,-0.213534 0.06773,-1.9948 -0.06773,-0.427146 -0.2136,-0.2812 -0.2812,-0.213467 -0.421867,-0.07293 -0.354133,-0.06773 -0.281333,-0.2188 -0.2812,-0.2812 -0.07293,-0.5 0.07293,-0.354133 0.2084,-0.354267 0.2812,-0.213466 0.4948,-0.07293 0.421866,-0.06773 0.2864,-0.2188 0.2084,-0.2812 0.140667,-0.427067 0.0728,-1.9896 v -0.2188 l -0.0728,-0.140533 -0.140667,-0.2136 -0.06773,-0.140533 -0.140667,-0.140667 -0.2864,-0.359333 -0.421866,-0.4272 -0.421867,-0.421867 0.4948,-0.427066 0.421867,-0.427067 0.2812,-0.2864 0.140666,-0.140667 0.140667,-0.145866 0.145733,-0.213467 0.06773,-0.140667 v -0.2136 -0.140533 -0.5 -0.497467 -0.497333 l 0.4948,-0.427067 0.635466,-0.497466 0.4948,-0.497334 0.208267,-0.2136 0.07293,-0.140666 0.140667,-0.216134 0.07293,-0.140533 v -0.216133 l 0.0676,-1.8464 0.7032,-0.7136 0.567734,-0.7812 0.5624,-0.783867 0.4948,-0.854133 0.354266,-0.921867 0.2812,-0.9948 0.208267,-1 0.07293,-1.065066 v -1.2084 l -0.208266,-1.138 -0.286534,-1.1396 -0.348933,-1.066134 1.619867,-0.7812 1.411466,-1.069333 1.2708,-1.208267 1.124934,-1.422933 0.848933,-1.493733 0.635467,-1.634933 0.421866,-1.7792 z m -44.1666791,37.058799 0.6354133,-0.640533 0.77084,-0.854267 0.9218667,-0.9948 1.0572933,-1.140533 1.1249999,-1.2084 1.27084,-1.348933 1.20312,-1.354133 1.2656269,-1.348934 1.270826,-1.281333 1.130254,-1.2812 1.130133,-1.2084 0.9896,-1.065067 0.843733,-0.854133 0.635467,-0.7136 0.4948,-0.497333 0.208267,-0.283867 0.140666,0.1432 0.145867,0.07027 0.06773,0.143333 0.140534,0.140533 -0.208267,0.2136 -0.4948,0.497334 -0.635467,0.7136 -0.776,0.8516 -0.9896,1.0676 -1.057333,1.138133 -1.19788,1.208267 -1.20312,1.3516 -1.270827,1.354133 -1.1979196,1.348933 -1.2708399,1.348933 -1.1979067,1.281334 -1.0572933,1.208266 -1.0572933,1.067734 -0.84896,0.927066 -0.7031199,0.781334 -0.07292,-0.140667 -0.067707,-0.2136 -0.07292,-0.213467 z M 20.104133,36.845068 h -0.2812 l -0.354133,0.0704 h -1.833334 l -0.2084,0.0728 -0.145866,0.07293 -0.208267,0.0704 -0.140667,0.140533 -0.07293,0.143334 -0.0676,0.1432 -0.07293,0.210933 v 0.216133 0.283867 l 0.07293,0.710933 v 0.7812 0.638 l -0.140667,0.145867 -0.140666,0.140667 -0.07293,0.07293 -0.213466,0.213467 -0.4948,-0.213467 -0.4896,-0.07293 -0.4948,0.07293 -0.421867,0.06773 -0.427067,0.145734 -0.421866,0.2136 -0.354214,0.208266 -0.28124,0.286534 -0.635426,0.927066 -0.213534,0.921867 0.07292,0.854133 0.35416,0.781333 -0.213546,0.218667 -0.140614,0.06773 -0.07292,0.140667 -0.135413,0.145733 h -0.286467 -0.34896 -0.35416 -0.42708 l -0.34896,0.06773 H 9.7343731 9.5208398 9.4531198 9.2395864 l -0.2083333,0.07293 -0.14584,0.140667 -0.1354133,0.07293 -0.1458267,0.140533 -0.06772,0.2136 -0.072907,0.145867 v 0.208267 0.286533 l 0.072907,0.713467 v 0.854133 0.635467 l -0.2135333,0.2188 -0.1406267,0.208266 -0.2135466,0.2188 -0.2083334,0.208267 h -0.2135333 -0.34896 -0.42708 l -0.4948,0.07293 h -0.5624933 -0.4948 l -0.5624933,0.07293 h -0.4948 l 14.8177468,-16.0052 1.833333,1.778667 -0.2136,0.213466 -0.140534,0.2136 -0.2084,0.2136 z m 5.0104,-2.4192 -0.208267,0.216133 -0.2136,0.210933 -0.213467,0.216134 -0.2084,0.210933 h -0.213466 -0.281334 l -0.2864,0.07293 h -0.348933 -0.4948 -0.354133 -0.281334 -0.140666 -0.0676 -0.07293 l -0.07293,0.07027 h -0.06773 l -1.906267,-1.848933 -0.421866,-0.3568 -1.552,-1.492134 -15.3125601,16.502533 -0.06772,-0.2864 -0.072907,-0.2136 -0.067707,-0.213466 -0.07292,-0.2136 0.2812533,-0.2812 0.5677067,-0.640667 0.77604,-0.854133 0.9843733,-1.067734 1.1302133,-1.208266 1.1979066,-1.354267 1.34376,-1.348933 1.3385333,-1.4948 1.2708396,-1.421867 1.270827,-1.3516 1.19796,-1.278533 1.0572,-1.140667 0.916666,-0.9948 0.7084,-0.710933 0.421867,-0.497467 0.140667,-0.145733 0.140533,-0.140667 0.07293,-0.2136 L 17,31.014401 v -0.2136 -0.2864 -0.710933 l -0.06773,-0.783867 v -0.638 l 0.348934,-0.3568 0.354266,-0.424533 0.2812,-0.2864 0.145867,-0.140667 0.140533,-0.216133 0.06773,-0.2812 v -0.216133 l -0.06773,-0.283867 -0.140533,-0.427067 -0.427067,-1.137066 -0.421866,-1.209334 -0.354267,-0.926 0.354267,-0.354266 0.5624,-0.570267 0.635466,-0.7104 0.708267,-0.7828 0.7032,-0.781333 0.708266,-0.713467 0.562534,-0.567733 0.354133,-0.427067 0.281333,0.1432 0.354134,0.141733 0.421866,0.2124 0.421867,0.214667 0.4948,0.212533 0.4948,0.215067 0.4948,0.282267 0.4948,0.214533 h 0.06773 0.06773 l 0.2864,0.426133 0.348933,0.427067 0.354133,0.3552 0.354267,0.4276 0.421867,0.356267 0.354133,0.354133 0.421867,0.355733 0.427066,0.2864 0.06773,0.2824 0.140666,0.285334 0.140534,0.283866 0.2136,0.214667 0.354133,0.2124 0.348933,0.214667 0.354267,0.0708 h 0.421867 0.354133 l 0.354133,-0.142134 0.354134,-0.2136 0.281333,-0.283866 0.421867,-0.642134 0.140666,-0.781333 -0.2084,-0.712 -0.427066,-0.639467 -0.354134,-0.284933 -0.349066,-0.2136 -0.421867,-0.07027 h -0.427067 l -0.2812,-0.1432 -0.2136,-0.2136 -0.2812,-0.212533 -0.2812,-0.214533 0.354134,-0.140667 0.348933,-0.1416 0.354133,-0.07347 h 0.427067 l 0.421867,0.07347 0.422,0.212 0.421866,0.2848 0.4948,0.354267 0.0728,0.07187 0.06773,0.07293 0.4948,0.5676 0.354133,0.995866 v 1.2084 l -0.848933,1.423334 -0.140534,0.214666 -0.07293,0.354134 v 0.285466 l 0.07293,0.283867 0.0728,0.1432 0.281334,0.497333 0.354133,0.640667 0.421867,0.854133 0.494799,0.8516 0.421867,0.783867 0.354133,0.710933 0.281334,0.5 -0.354267,0.4244 -0.5624,0.5704 -0.7084,0.710933 -0.703066,0.783867 -0.7084,0.7812 -0.635334,0.710933 -0.562533,0.640667 -0.354133,0.3568 -0.421867,-0.145867 -0.4948,-0.140666 -0.635467,-0.213467 -0.562533,-0.2136 -0.635333,-0.140667 -0.4948,-0.1432 -0.281334,-0.07293 -0.140533,-0.07027 -0.281333,-0.07027 -0.2812,0.07027 -0.2136,0.07027 -0.213467,0.216133 -0.06773,0.0704 -0.140667,0.07027 z m 2.260533,-16.928667 -0.635467,-1.208399 -0.567733,-1.351467 -0.2812,-1.351067 -0.140667,-1.4224 0.2136,-1.85 0.4948,-1.7073329 0.843734,-1.5650667 1.130133,-1.3515999 1.338533,-1.138 1.552134,-0.8525333 1.7656,-0.4990667 1.833333,-0.2134666 1.833333,0.2134666 1.692667,0.4990667 1.552133,0.8525333 1.343733,1.138 1.125067,1.3515999 0.848933,1.5650667 0.4948,1.7073329 0.208267,1.85 -0.140533,1.493734 -0.281334,1.350533 -0.562533,1.352533 -0.708267,1.2084 -0.916666,1.066133 -1.057334,0.924534 -1.197866,0.783866 -1.343734,0.5692 -0.4896,-0.498933 -0.4948,-0.497467 -0.567733,-0.427066 -0.635333,-0.427067 -0.562534,-0.3536 -0.7032,-0.357333 -0.635333,-0.284934 -0.7084,-0.2124 -0.776,-0.5688 -0.776,-0.356799 -0.776133,-0.2124 h -0.703067 l -0.776,0.07187 -0.635466,0.140534 -0.635467,0.2136 z m 1.2708,44.100506 -0.145867,-0.140627 -0.140666,-0.07292 -0.208267,-0.140613 -0.140667,-0.07292 0.2084,-4.979173 0.213467,-7.182253 0.281333,-6.614667 0.0676,-3.2708 0.2136,0.07027 h 0.140667 0.140533 0.2136 l -0.140666,3.1276 -0.213467,6.546933 -0.281333,7.255213 z m 4.302,-21.197973 -0.427067,0.4272 -0.635333,0.5676 -0.4896,0.5 -0.2136,0.2136 -0.140533,0.140667 -0.07293,0.145733 -0.06773,0.2136 v 0.140667 0.213467 0.2136 l 0.140667,0.140533 0.0728,0.145867 0.2084,0.2136 0.4948,0.494799 0.562533,0.640534 0.427067,0.5 v 0.140666 0.140667 l -0.07293,0.213467 v 0.286533 l -0.4948,0.140533 -0.421866,0.286534 -0.354134,0.354133 -0.281333,0.354133 -0.213467,0.359467 -0.2084,0.427067 -0.07293,0.427066 -0.06773,0.427067 0.140666,1.067733 0.421867,0.848947 0.635467,0.572907 0.703066,0.427093 v 0.213533 0.208334 0.14584 0.213533 l -0.421866,0.427093 -0.635334,0.494787 -0.4948,0.5 -0.2084,0.213547 -0.140666,0.140613 -0.140534,0.213547 -0.07293,0.140626 v 0.218747 0.140627 l 0.07293,0.213546 0.06773,0.213534 0.140533,0.140626 0.2136,0.213547 0.4948,0.5 0.562533,0.640627 0.421867,0.427079 -0.06773,0.281254 v 0.286453 0.354173 0.286454 l -0.140667,0.140626 -0.2864,0.213534 -0.281333,0.286466 -0.348934,0.35416 -0.427066,0.354174 -0.348934,0.359373 -0.427066,0.35416 -0.349067,0.354173 0.776133,-21.835999 2.5364,0.140667 v 0.286533 0.283733 l -0.06773,0.281334 z m 5.5,-12.515599 -0.140534,1.0652 -0.2084,0.997333 -0.354133,0.9948 -0.4948,0.924533 -0.421867,0.6432 -0.4948,0.567733 -0.562533,0.497334 -0.567733,0.497333 -0.0676,0.781333 v 0.713467 0.567733 0.3568 h -0.07293 l -0.4948,0.424534 -0.562533,0.5728 -0.4948,0.424533 -0.208266,0.2136 -0.07293,0.07027 v 0.07293 l -0.07293,0.07027 -2.677067,-0.1432 h -0.4948 L 27.864533,38.126401 27.020799,60.675827 26.807333,60.53 l -0.2084,-0.140626 -0.213467,-0.06771 -0.2136,-0.14584 0.140667,-3.838533 0.2864,-7.401027 0.2084,-7.114666 0.140533,-3.197867 v -0.213466 l -0.0676,-0.2136 -0.07293,-0.140667 -0.140667,-0.1432 -0.06773,-0.1432 -0.2864,-0.281333 -0.348934,-0.356667 -0.354266,-0.427067 0.2136,-0.143333 0.208266,-0.213467 0.140667,-0.2136 0.2136,-0.213466 0.421867,0.1432 0.4948,0.1432 0.635333,0.210933 0.635467,0.1432 0.562533,0.2136 0.4948,0.140667 0.354133,0.0728 0.140667,0.07293 h 0.2812 0.213467 l 0.281333,-0.145733 0.213467,-0.140667 5.432399,-5.9036 0.208267,-0.2136 0.07293,-0.3568 v -0.2812 l -0.07293,-0.286533 -0.06773,-0.213467 -0.2812,-0.427066 -0.354134,-0.710934 -0.4948,-0.854266 -0.4948,-0.851467 -0.421866,-0.854267 -0.354267,-0.710933 -0.2812,-0.427067 0.562533,-0.996266 0.354134,-0.995867 0.06773,-0.924533 -0.135467,-0.854134 0.770934,0.639067 0.7812,0.642133 0.562533,0.781334 0.5624,0.854133 0.4272,0.9948 0.2812,0.924533 0.140667,1.0676 z m 0.567733,-5.335867 -0.140533,-0.2136 -0.145867,-0.212533 -0.135467,-0.214534 -0.145866,-0.212533 1.411466,-0.6416 1.270934,-0.8516 1.130133,-1.066667 0.916667,-1.139066 0.776,-1.353067 0.562533,-1.4204 0.354133,-1.4948 0.140667,-1.564 -0.208267,-2.0636 -0.567733,-1.9207996 -0.916667,-1.7068 -1.2708,-1.4937333 -1.4792,-1.2795999 -1.692666,-0.9261333 -1.906267,-0.5677334 -2.046933,-0.2134666 -2.0468,0.2134666 -1.906267,0.5677334 -1.6928,0.9261333 -1.552,1.2795999 -1.198,1.4937333 -0.984266,1.7068 -0.567734,1.9207996 -0.2136,2.0636 0.07293,1.493734 0.354133,1.421866 0.4896,1.3516 0.7084,1.208267 0.354133,0.497466 0.354134,0.4984 0.421866,0.5 0.421867,0.424534 0.140667,0.1448 0.2136,0.140533 0.208266,0.2136 0.2136,0.1432 0.213467,0.141733 0.2084,0.142134 0.213467,0.2136 0.2136,0.142133 0.140533,0.07133 0.06773,0.07027 0.140667,0.0704 0.140667,0.07293 0.07293,0.07133 v 0.142133 l 0.0728,0.0704 v 0.1416 0.07347 0.06973 l -0.0728,0.07187 -0.140667,0.140666 -0.140666,0.07133 -0.140667,0.0704 -0.140533,-0.141734 -0.2136,-0.07027 -0.213467,-0.142267 -0.140667,-0.06973 -0.2136,-0.1448 -0.208266,-0.140667 -0.2136,-0.142133 -0.208267,-0.144267 -0.286533,-0.2828 -0.2812,-0.214667 -0.2812,-0.2124 -0.281334,-0.284933 -0.354133,-0.354133 -0.2812,-0.3568 -0.281333,-0.3568 -0.2812,-0.427067 -0.2812,-0.354133 -0.2136,-0.427067 -0.2136,-0.355733 -0.208267,-0.4272 -0.4948,-1.138 -0.354133,-1.209333 -0.2136,-1.2084 -0.06773,-1.280134 0.2136,-2.205733 0.630134,-2.1338666 1.057333,-1.8489333 1.343733,-1.7073333 1.6928,-1.3525333 1.906134,-1.0666666 2.046933,-0.6406667 2.2552,-0.21199996 2.187466,0.21199996 2.114667,0.6406667 1.838533,1.0666666 1.692667,1.3525333 1.338533,1.7073333 1.057334,1.8489333 0.635333,2.1338666 0.2136,2.205733 -0.140667,1.707334 -0.354133,1.563466 -0.635467,1.565067 -0.776,1.423466 -1.057333,1.281334 -1.203067,1.136933 -1.338533,0.925467 -1.4792,0.781333"
       style="fill:#231f20;fill-opacity:1;fill-rule:evenodd;stroke:none;stroke-width:0.13333333"
       id="path14" /><path
       inkscape:connector-curvature="0"
       d="m 26.385466,33.858134 0.140533,0.07027 0.281334,0.07293 0.4948,0.1432 0.635333,0.140667 0.562533,0.2136 0.635467,0.213467 0.4948,0.140666 0.421867,0.145867 0.354133,-0.3568 0.562533,-0.640667 0.635334,-0.710933 0.7084,-0.7812 0.703066,-0.783867 0.7084,-0.710933 0.5624,-0.5704 0.354267,-0.4244 -0.281334,-0.5 -0.354133,-0.710933 -0.421867,-0.783867 -0.494799,-0.8516 -0.421867,-0.854133 -0.354133,-0.640667 -0.281334,-0.497333 -0.0728,-0.1432 -0.07293,-0.283867 v -0.285466 l 0.07293,-0.354134 0.140534,-0.214666 0.848933,-1.423334 v -1.2084 l -0.354133,-0.995866 -0.4948,-0.5676 -0.06773,-0.07293 -0.0728,-0.07187 -0.4948,-0.354267 -0.421866,-0.2848 -0.422,-0.212 -0.421867,-0.07347 h -0.427067 l -0.354133,0.07347 -0.348933,0.1416 -0.354134,0.140667 0.2812,0.214533 0.2812,0.212533 0.2136,0.2136 0.2812,0.1432 h 0.427067 l 0.421867,0.07027 0.349066,0.2136 0.354134,0.284933 0.427066,0.639467 0.2084,0.712 -0.140666,0.781333 -0.421867,0.642134 -0.281333,0.283866 -0.354134,0.2136 -0.354133,0.142134 H 30.052137 29.63027 l -0.354267,-0.0708 -0.348933,-0.214667 -0.354133,-0.2124 -0.2136,-0.214667 -0.140534,-0.283866 -0.140666,-0.285334 -0.06773,-0.2824 -0.427066,-0.2864 -0.421867,-0.355733 -0.354133,-0.354133 -0.421867,-0.356267 -0.354267,-0.4276 -0.354133,-0.3552 -0.348933,-0.427067 -0.2864,-0.426133 h -0.06773 -0.06773 l -0.4948,-0.214533 -0.4948,-0.282267 -0.4948,-0.215067 -0.4948,-0.212533 -0.421867,-0.214667 -0.421866,-0.2124 -0.354134,-0.141733 -0.281333,-0.1432 -0.354133,0.427067 -0.562534,0.567733 -0.708266,0.713467 -0.7032,0.781333 -0.708267,0.7828 -0.635466,0.7104 -0.5624,0.570267 -0.354267,0.354266 0.354267,0.926 0.421866,1.209334 0.427067,1.137066 0.140533,0.427067 0.06773,0.283867 v 0.216133 l -0.06773,0.2812 -0.140533,0.216133 -0.145867,0.140667 -0.2812,0.2864 -0.354266,0.424533 -0.348934,0.3568 v 0.638 L 17,29.803468 v 0.710933 0.2864 0.2136 l -0.06773,0.140533 -0.07293,0.2136 -0.140533,0.140667 -0.140667,0.145733 -0.421867,0.497467 -0.7084,0.710933 -0.916666,0.9948 -1.0572,1.140667 -1.19796,1.278533 -1.270827,1.3516 -1.2708399,1.421867 -1.3385333,1.4948 -1.34376,1.348933 -1.1979066,1.354267 -1.1302133,1.208266 -0.9843733,1.067734 -0.77604,0.854133 -0.5677067,0.640667 -0.2812533,0.2812 0.07292,0.2136 0.067707,0.213466 0.072907,0.2136 0.06772,0.2864 15.3125604,-16.502533 1.552,1.492134 0.421866,0.3568 1.906267,1.848933 h 0.06773 l 0.07293,-0.07027 h 0.07293 0.0676 0.140666 0.281334 0.354133 0.4948 0.348933 l 0.2864,-0.07293 h 0.281334 0.213466 l 0.2084,-0.210933 0.213467,-0.216134 0.2136,-0.210933 0.208267,-0.216133 0.07293,-0.140667 0.140667,-0.07027 0.06773,-0.0704 0.213467,-0.216133 0.2136,-0.07027 0.2812,-0.07027 0.281333,0.07027"
       style="fill:#00B38A;fill-opacity:1;fill-rule:evenodd;stroke:none;stroke-width:0.13333333"
       id="path16" /><path
       inkscape:connector-curvature="0"
       d="m 4.1614532,50.290401 h 0.4948 l 0.5624933,-0.07293 h 1.0572933 l 0.4948,-0.07293 h 0.42708 0.34896 0.2135333 l 0.2083334,-0.208267 0.2135466,-0.2188 0.1406267,-0.208266 0.2135333,-0.2188 v -0.635467 -0.854133 l -0.072907,-0.713467 v -0.286533 -0.208267 l 0.072907,-0.145867 0.06772,-0.2136 0.1458267,-0.140533 0.1354133,-0.07293 0.14584,-0.140667 0.2083333,-0.07293 h 0.2135334 0.06772 0.2135333 0.3541729 l 0.34896,-0.06773 h 0.42708 0.35416 0.34896 0.286467 l 0.135413,-0.145733 0.07292,-0.140667 0.140614,-0.06773 0.213546,-0.218667 -0.35416,-0.781333 -0.07292,-0.854133 0.213534,-0.921867 0.635426,-0.927066 0.28124,-0.286534 0.354214,-0.208266 0.421866,-0.2136 0.427067,-0.145734 0.421867,-0.06773 0.4948,-0.07293 0.4896,0.07293 0.4948,0.213467 0.213466,-0.213467 0.07293,-0.07293 0.140666,-0.140667 0.140667,-0.145867 v -0.638 -0.7812 L 16.7188,38.269601 v -0.283867 -0.216133 l 0.07293,-0.210933 0.0676,-0.1432 0.07293,-0.143334 0.140667,-0.140533 0.208267,-0.0704 0.145866,-0.07293 0.2084,-0.0728 h 0.07293 0.208266 0.354134 0.354266 0.421867 0.421867 l 0.354133,-0.0704 h 0.2812 l 0.145866,-0.140534 0.2084,-0.2136 0.140534,-0.2136 0.2136,-0.213466 -1.833333,-1.778667 -14.8177468,16.0052"
       style="fill:#00B38A;fill-opacity:1;fill-rule:evenodd;stroke:none;stroke-width:0.13333333"
       id="path18" /><path
       inkscape:connector-curvature="0"
       d="m 17.776,33.147201 -0.208267,0.283867 -0.4948,0.497333 -0.635467,0.7136 -0.843733,0.854133 -0.9896,1.065067 -1.130133,1.2084 -1.130254,1.2812 -1.270826,1.281333 -1.2656269,1.348934 -1.20312,1.354133 -1.27084,1.348933 -1.1249999,1.2084 -1.0572933,1.140533 -0.9218667,0.9948 -0.77084,0.854267 -0.6354133,0.640533 0.067707,0.2136 0.07292,0.213467 0.067707,0.2136 0.07292,0.140667 0.7031199,-0.781334 0.84896,-0.927066 1.0572933,-1.067734 1.0572933,-1.208266 1.1979067,-1.281334 1.2708399,-1.348933 1.19792,-1.348933 1.270827,-1.354133 1.20312,-1.3516 1.19788,-1.208267 1.057333,-1.138133 0.9896,-1.0676 0.776,-0.8516 0.635467,-0.7136 0.4948,-0.497334 0.208267,-0.2136 -0.140534,-0.140533 -0.06773,-0.143333 -0.145867,-0.07027 -0.140666,-0.1432"
       style="fill:#00B38A;fill-opacity:1;fill-rule:evenodd;stroke:none;stroke-width:0.13333333"
       id="path20" /><path
       inkscape:connector-curvature="0"
       d="m 29.703066,61.03 0.349067,-0.354173 0.427066,-0.35416 0.348934,-0.359373 0.427066,-0.354174 0.348934,-0.35416 0.281333,-0.286466 0.2864,-0.213534 0.140667,-0.140626 V 58.32688 57.972707 57.686254 l 0.06773,-0.281254 -0.421867,-0.427079 -0.562533,-0.640627 -0.4948,-0.5 -0.2136,-0.213547 -0.140533,-0.140626 -0.06773,-0.213534 -0.07293,-0.213546 v -0.140627 -0.218747 l 0.07293,-0.140626 0.140534,-0.213547 0.140666,-0.140613 0.2084,-0.213547 0.4948,-0.5 0.635334,-0.494787 0.421866,-0.427093 v -0.213533 -0.14584 -0.208334 -0.213533 l -0.703066,-0.427093 -0.635467,-0.572907 -0.421867,-0.848947 -0.140666,-1.067733 0.06773,-0.427067 0.07293,-0.427066 0.2084,-0.427067 0.213467,-0.359467 0.281333,-0.354133 0.354134,-0.354133 0.421866,-0.286534 0.4948,-0.140533 v -0.286533 l 0.07293,-0.213467 v -0.140667 -0.140666 l -0.427067,-0.5 -0.562533,-0.640534 -0.4948,-0.494799 -0.2084,-0.2136 -0.0728,-0.145867 -0.140667,-0.140533 v -0.2136 -0.213467 -0.140667 l 0.06773,-0.2136 0.07293,-0.145733 0.140533,-0.140667 0.2136,-0.2136 0.4896,-0.5 0.635333,-0.5676 0.427067,-0.4272 v -0.213466 l 0.06773,-0.281334 V 39.621201 39.334668 L 30.479199,39.194001 29.703066,61.03"
       style="fill:#00B38A;fill-opacity:1;fill-rule:evenodd;stroke:none;stroke-width:0.13333333"
       id="path22" /><path
       inkscape:connector-curvature="0"
       d="m 34.921866,0.99613524 -2.2552,0.21199996 -2.046933,0.6406667 -1.906134,1.0666666 -1.6928,1.3525333 -1.343733,1.7073333 -1.057333,1.8489333 -0.630134,2.1338666 -0.2136,2.205733 0.06773,1.280134 0.2136,1.2084 0.354133,1.209333 0.4948,1.138 0.208267,0.4272 0.2136,0.355733 0.2136,0.427067 0.2812,0.354133 0.2812,0.427067 0.281333,0.3568 0.2812,0.3568 0.354133,0.354133 0.281334,0.284933 0.2812,0.2124 0.2812,0.214667 0.286533,0.2828 0.208267,0.144267 0.2136,0.142133 0.208266,0.140667 0.2136,0.1448 0.140667,0.06973 0.213467,0.142267 0.2136,0.07027 0.140533,0.141734 0.140667,-0.0704 0.140666,-0.07133 0.140667,-0.140666 0.0728,-0.07187 v -0.06973 -0.07347 -0.1416 l -0.0728,-0.0704 v -0.142133 l -0.07293,-0.07133 -0.140667,-0.07293 -0.140667,-0.0704 -0.06773,-0.07027 -0.140533,-0.07133 -0.2136,-0.142133 -0.213467,-0.2136 -0.2084,-0.142134 -0.213467,-0.141733 -0.2136,-0.1432 -0.208266,-0.2136 -0.2136,-0.140533 -0.140667,-0.1448 -0.421867,-0.424534 -0.421866,-0.5 -0.354134,-0.4984 -0.354133,-0.497466 -0.7084,-1.208267 -0.4896,-1.3516 -0.354133,-1.421866 -0.07293,-1.493734 0.2136,-2.0636 0.567734,-1.9207996 0.984266,-1.7068 1.198,-1.4937333 1.552,-1.2795999 1.6928,-0.9261333 1.906267,-0.5677334 2.0468,-0.2134666 2.046933,0.2134666 1.906267,0.5677334 1.692666,0.9261333 1.4792,1.2795999 1.2708,1.4937333 0.916667,1.7068 0.567733,1.9207996 0.208267,2.0636 -0.140667,1.564 -0.354133,1.4948 -0.562533,1.4204 -0.776,1.353067 -0.916667,1.139066 -1.130133,1.066667 -1.270934,0.8516 -1.411466,0.6416 0.145866,0.212533 0.135467,0.214534 0.145867,0.212533 0.140533,0.2136 1.4792,-0.781333 1.338533,-0.925467 1.203067,-1.136933 1.057333,-1.281334 0.776,-1.423466 0.635467,-1.565067 0.354133,-1.563466 0.140667,-1.707334 -0.2136,-2.205733 L 45.151066,7.8242684 44.093732,5.9753351 42.755199,4.2680018 41.062532,2.9154685 39.223999,1.8488019 37.109332,1.2081352 34.921866,0.99613524"
       style="fill:#00B38A;fill-opacity:1;fill-rule:evenodd;stroke:none;stroke-width:0.13333333"
       id="path24" /><path
       inkscape:connector-curvature="0"
       d="m 28.010399,61.170627 0.140667,0.07292 0.208267,0.140613 0.140666,0.07292 0.145867,0.140627 0.208267,-5.47396 0.281333,-7.255213 0.213467,-6.546933 0.140666,-3.1276 h -0.2136 -0.140533 -0.140667 l -0.2136,-0.07027 -0.0676,3.2708 -0.281333,6.614667 -0.213467,7.182253 -0.2084,4.979173"
       style="fill:#00B38A;fill-opacity:1;fill-rule:evenodd;stroke:none;stroke-width:0.13333333"
       id="path26" /><path
       inkscape:connector-curvature="0"
       d="m 34.854132,20.912801 0.135467,0.854134 -0.06773,0.924533 -0.354134,0.995867 -0.562533,0.996266 0.2812,0.427067 0.354267,0.710933 0.421866,0.854267 0.4948,0.851467 0.4948,0.854266 0.354134,0.710934 0.2812,0.427066 0.06773,0.213467 0.07293,0.286533 v 0.2812 l -0.07293,0.3568 -0.208267,0.2136 -5.432399,5.9036 -0.213467,0.140667 -0.281333,0.145733 h -0.213467 -0.2812 l -0.140667,-0.07293 -0.354133,-0.0728 -0.4948,-0.140667 -0.562533,-0.2136 -0.635467,-0.1432 -0.635333,-0.210933 -0.4948,-0.1432 -0.421867,-0.1432 -0.2136,0.213466 -0.140667,0.2136 -0.208266,0.213467 -0.2136,0.143333 0.354266,0.427067 0.348934,0.356667 0.2864,0.281333 0.06773,0.1432 0.140667,0.1432 0.07293,0.140667 0.0676,0.2136 v 0.213466 l -0.140533,3.197867 -0.2084,7.114666 -0.2864,7.401027 -0.140667,3.838533 0.2136,0.14584 0.213467,0.06771 0.2084,0.140626 0.213466,0.145827 0.843734,-22.549426 2.119866,0.07027 h 0.4948 l 2.677067,0.1432 0.07293,-0.07027 v -0.07293 l 0.07293,-0.07027 0.208266,-0.2136 0.4948,-0.424533 0.562533,-0.5728 0.4948,-0.424534 h 0.07293 v -0.3568 -0.567733 -0.713467 l 0.0676,-0.781333 0.567733,-0.497333 0.562533,-0.497334 0.4948,-0.567733 0.421867,-0.6432 0.4948,-0.924533 0.354133,-0.9948 0.2084,-0.997333 0.140534,-1.0652 -0.0676,-1.067734 -0.140667,-1.0676 -0.2812,-0.924533 -0.4272,-0.9948 -0.5624,-0.854133 -0.562533,-0.781334 -0.7812,-0.642133 -0.770934,-0.639067"
       style="fill:#00B38A;fill-opacity:1;fill-rule:evenodd;stroke:none;stroke-width:0.13333333"
       id="path28" /><path
       inkscape:connector-curvature="0"
       d="m 19.541733,26.602935 -1.338667,-3.8412 4.369867,-4.695334 -0.348934,-0.1416 -0.286533,-0.142133 -0.2812,-0.0704 -0.2084,-0.1432 -0.354133,0.427067 -0.562534,0.567733 -0.708266,0.713467 -0.7032,0.781333 -0.708267,0.7828 -0.635466,0.7104 -0.5624,0.570267 -0.354267,0.354266 0.354267,0.926 0.421866,1.209334 0.427067,1.137066 0.140533,0.427067 0.06773,0.283867 v 0.216133 l -0.06773,0.2812 -0.140533,0.216133 -0.145867,0.140667 -0.2812,0.2864 -0.354266,0.424533 -0.348934,0.3568 v 0.638 L 17,29.803468 v 0.710933 0.2864 0.2136 l -0.06773,0.140533 -0.07293,0.2136 -0.140533,0.140667 -0.140667,0.145733 -0.421867,0.497467 -0.7084,0.710933 -0.916666,0.9948 -1.0572,1.140667 -1.19796,1.278533 -1.270827,1.3516 -1.2708399,1.421867 -1.3385333,1.4948 -1.34376,1.348933 -1.1979066,1.354267 -1.1302133,1.208266 -0.9843733,1.067734 -0.77604,0.854133 -0.5677067,0.640667 -0.2812533,0.2812 0.07292,0.2136 0.067707,0.213466 0.072907,0.2136 0.06772,0.2864 L 17.7084,31.795601 v -2.986933 l 1.833333,-2.205733"
       style="fill:#ffffff;fill-opacity:1;fill-rule:evenodd;stroke:none;stroke-width:0.13333333"
       id="path30" /><path
       inkscape:connector-curvature="0"
       d="m 25.609333,36.704534 0.354266,0.427067 0.348934,0.356667 0.2864,0.281333 0.06773,0.1432 0.140667,0.1432 0.07293,0.140667 0.0676,0.2136 v 0.213466 l -0.140533,3.197867 -0.2084,7.114666 -0.2864,7.401027 -0.140667,3.838533 0.2136,0.14584 0.213467,0.06771 0.2084,0.140626 0.213466,0.145827 0.843734,-22.549426 -1.692667,-1.919333 -0.140667,0.140666 -0.140533,0.1432 -0.140667,0.07027 -0.140666,0.143333"
       style="fill:#ffffff;fill-opacity:1;fill-rule:evenodd;stroke:none;stroke-width:0.13333333"
       id="path32" /></g></svg>