<?xml version="1.0" encoding="UTF-8" standalone="no"?>
<svg
   xmlns:dc="http://purl.org/dc/elements/1.1/"
   xmlns:cc="http://creativecommons.org/ns#"
   xmlns:rdf="http://www.w3.org/1999/02/22-rdf-syntax-ns#"
   xmlns:svg="http://www.w3.org/2000/svg"
   xmlns="http://www.w3.org/2000/svg"
   viewBox="0 0 58.373333 31.386667"
   height="31.386667"
   width="58.373333"
   xml:space="preserve"
   id="svg2"
   version="1.1"><metadata
     id="metadata8"><rdf:RDF><cc:Work
         rdf:about=""><dc:format>image/svg+xml</dc:format><dc:type
           rdf:resource="http://purl.org/dc/dcmitype/StillImage" /></cc:Work></rdf:RDF></metadata><defs
     id="defs6" /><g
     transform="matrix(1.3333333,0,0,-1.3333333,0,31.386667)"
     id="g10"><g
       transform="scale(0.1)"
       id="g12"><path
         id="path14"
         style="fill:#00B38A;fill-opacity:1;fill-rule:nonzero;stroke:none"
         d="M 5.65625,149.094 106.66,230.754 h 326.262 l -83.586,-81.66 H 5.65625" /><path
         id="path16"
         style="fill:none;stroke:#FFFFFF;stroke-width:4;stroke-linecap:butt;stroke-linejoin:miter;stroke-miterlimit:4;stroke-dasharray:none;stroke-opacity:1"
         d="M 5.65625,149.094 106.66,230.754 h 326.262 l -83.586,-81.66 z" /><path
         id="path18"
         style="fill:#00B38A;fill-opacity:1;fill-rule:nonzero;stroke:none"
         d="M 349.336,4.89453 432.922,90.0703 V 230.605 L 349.336,149.094 V 4.89453" /><path
         id="path20"
         style="fill:none;stroke:#FFFFFF;stroke-width:4;stroke-linecap:butt;stroke-linejoin:miter;stroke-miterlimit:4;stroke-dasharray:none;stroke-opacity:1"
         d="M 349.336,4.89453 432.922,90.0703 V 230.605 l -83.586,-81.511 z" /><path
         id="path22"
         style="fill:#00B38A;fill-opacity:1;fill-rule:nonzero;stroke:none"
         d="m 5.99609,4.81641 h 343.34 v 144.277 h -343.34 z" /><path
         id="path24"
         style="fill:none;stroke:#FFFFFF;stroke-width:4;stroke-linecap:butt;stroke-linejoin:miter;stroke-miterlimit:4;stroke-dasharray:none;stroke-opacity:1"
         d="M 349.336,4.81641 V 149.094 H 5.99609 V 4.81641 Z" /><path
         id="path26"
         style="fill:#00B38A;fill-opacity:1;fill-rule:nonzero;stroke:none"
         d="m 249.219,96.4375 c 0,-13.8281 -28.821,-25.0391 -64.364,-25.0391 -35.558,0 -64.375,11.211 -64.375,25.0391 V 59.7656 c 0,-13.8164 28.817,-25.0273 64.375,-25.0273 35.543,0 64.364,11.2109 64.364,25.0273 v 36.6719" /><path
         id="path28"
         style="fill:none;stroke:#FFFFFF;stroke-width:4;stroke-linecap:butt;stroke-linejoin:miter;stroke-miterlimit:4;stroke-dasharray:none;stroke-opacity:1"
         d="m 249.219,96.4375 c 0,-13.8281 -28.821,-25.0391 -64.364,-25.0391 -35.558,0 -64.375,11.211 -64.375,25.0391 V 59.7656 c 0,-13.8164 28.817,-25.0273 64.375,-25.0273 35.543,0 64.364,11.2109 64.364,25.0273 z" /><path
         id="path30"
         style="fill:#00B38A;fill-opacity:1;fill-rule:nonzero;stroke:none"
         d="m 184.855,71.3984 c 35.543,0 64.364,11.211 64.364,25.0391 0,13.8285 -28.821,25.0395 -64.364,25.0395 -35.558,0 -64.375,-11.211 -64.375,-25.0395 0,-13.8281 28.817,-25.0391 64.375,-25.0391" /><path
         id="path32"
         style="fill:none;stroke:#FFFFFF;stroke-width:4;stroke-linecap:butt;stroke-linejoin:miter;stroke-miterlimit:4;stroke-dasharray:none;stroke-opacity:1"
         d="m 184.855,71.3984 c 35.543,0 64.364,11.211 64.364,25.0391 0,13.8285 -28.821,25.0395 -64.364,25.0395 -35.558,0 -64.375,-11.211 -64.375,-25.0395 0,-13.8281 28.817,-25.0391 64.375,-25.0391 z" /><path
         id="path34"
         style="fill:none;stroke:#FFFFFF;stroke-width:8;stroke-linecap:butt;stroke-linejoin:miter;stroke-miterlimit:4;stroke-dasharray:none;stroke-opacity:1"
         d="M 85.6719,120.313 H 7.5" /><path
         id="path36"
         style="fill:#FFFFFF;fill-opacity:1;fill-rule:nonzero;stroke:none"
         d="M 113.672,120.313 66.2109,100.93 77.4805,120.313 66.2109,139.699 113.672,120.313" /><path
         id="path38"
         style="fill:none;stroke:#FFFFFF;stroke-width:8;stroke-linecap:butt;stroke-linejoin:miter;stroke-miterlimit:4;stroke-dasharray:none;stroke-opacity:1"
         d="M 85.6719,78.3125 H 7.5" /><path
         id="path40"
         style="fill:#FFFFFF;fill-opacity:1;fill-rule:nonzero;stroke:none"
         d="M 113.672,78.3125 66.2109,58.9375 77.4805,78.3125 66.2109,97.707 113.672,78.3125" /><path
         id="path42"
         style="fill:none;stroke:#FFFFFF;stroke-width:8;stroke-linecap:butt;stroke-linejoin:miter;stroke-miterlimit:4;stroke-dasharray:none;stroke-opacity:1"
         d="m 321.105,78.3125 h -36.41" /><path
         id="path44"
         style="fill:#FFFFFF;fill-opacity:1;fill-rule:nonzero;stroke:none"
         d="m 343.508,78.3125 -37.973,-15.5078 9.016,15.5078 -9.016,15.5078 37.973,-15.5078" /><path
         id="path46"
         style="fill:none;stroke:#FFFFFF;stroke-width:8;stroke-linecap:butt;stroke-linejoin:miter;stroke-miterlimit:4;stroke-dasharray:none;stroke-opacity:1"
         d="M 85.6719,36.3203 H 7.5" /><path
         id="path48"
         style="fill:#FFFFFF;fill-opacity:1;fill-rule:nonzero;stroke:none"
         d="M 113.672,36.3203 66.2109,16.9336 77.4805,36.3203 66.2109,55.6953 113.672,36.3203" /><path
         id="path50"
         style="fill:#FFFFFF;fill-opacity:1;fill-rule:nonzero;stroke:none"
         d="M 292.488,93.457 283.477,77.9492 292.488,62.4531 254.52,77.9492 292.488,93.457" /></g></g></svg>