<?xml version="1.0" encoding="utf-8"?>
<!-- Generator: Adobe Illustrator 20.1.0, SVG Export Plug-In . SVG Version: 6.00 Build 0)  -->
<svg version="1.1" id="Layer_1" xmlns="http://www.w3.org/2000/svg" xmlns:xlink="http://www.w3.org/1999/xlink" x="0px" y="0px"
	 viewBox="0 0 54.1 72.7" style="enable-background:new 0 0 54.1 72.7;" xml:space="preserve">
<style type="text/css">
	.st0{fill:#00B38A;stroke:#FFFFFF;stroke-width:0.8;}
	.st1{fill:#FFFFFF;}
</style>
<g>
	<g>
		<g>
			<rect x="1.1" y="28.4" class="st0" width="43.1" height="44"/>
			<line class="st0" x1="44.2" y1="28.4" x2="53.2" y2="19.6"/>
			<line class="st0" x1="27.2" y1="28.4" x2="27.2" y2="72.3"/>
			<rect x="1.1" y="9.7" class="st0" width="43.1" height="44"/>
			<polygon class="st0" points="53.2,1 53.2,1 53.2,62.6 44.2,71.6 44.2,9.7 44.2,9.7 			"/>
			<polygon class="st0" points="44.2,9.7 1.1,9.7 12,1 53.2,1 			"/>
			<line class="st0" x1="44.2" y1="9.7" x2="53.2" y2="1"/>
			<path class="st0" d="M44.2,54.4"/>
			<path class="st0" d="M1.1,54.4"/>
			<line class="st0" x1="7.1" y1="21.1" x2="41.9" y2="21.1"/>
			<line class="st0" x1="5.4" y1="31.7" x2="40.5" y2="31.7"/>
			<line class="st0" x1="3.9" y1="41.8" x2="38.7" y2="41.8"/>
			<line class="st0" x1="8.7" y1="47.8" x2="15.8" y2="14.7"/>
			<line class="st0" x1="31" y1="47.8" x2="38.2" y2="14.7"/>
			<line class="st0" x1="19.8" y1="47.5" x2="27" y2="14.4"/>
			<ellipse class="st1" cx="14.4" cy="21" rx="2.7" ry="1.8"/>
			<ellipse class="st1" cx="25.7" cy="20.5" rx="2.7" ry="1.8"/>
			<ellipse class="st1" cx="37" cy="21.3" rx="2.7" ry="1.8"/>
			<ellipse class="st1" cx="11.9" cy="31.8" rx="2.7" ry="1.8"/>
			<ellipse class="st1" cx="23.2" cy="32.1" rx="2.7" ry="1.8"/>
			<ellipse class="st1" cx="34.5" cy="31.6" rx="2.7" ry="1.8"/>
			<ellipse class="st1" cx="9.6" cy="42" rx="2.7" ry="1.8"/>
			<ellipse class="st1" cx="20.9" cy="42.1" rx="2.7" ry="1.8"/>
			<ellipse class="st1" cx="32.2" cy="42.1" rx="2.7" ry="1.8"/>
			<path class="st0" d="M41.4,58.6c0,1.1-2.4,1.9-5.3,1.9c-2.9,0-5.3-0.9-5.3-1.9v9.6c0,1.1,2.4,2,5.3,2c2.9,0,5.3-0.9,5.3-2V58.6z"
				/>
			<ellipse class="st0" cx="36.1" cy="58.6" rx="5.3" ry="1.9"/>
		</g>
	</g>
	<g>
		<polyline class="st1" points="6.8,68.1 17.3,68.1 17.2,70.3 22,67.2 17.2,64 17.3,66.3 6.8,66.3 		"/>
	</g>
	<g>
		<polyline class="st1" points="21.3,59.1 10.9,59.1 10.9,56.9 6.2,59.9 10.9,63.2 10.9,60.9 21.3,60.9 		"/>
	</g>
</g>
</svg>
