<?xml version="1.0" encoding="utf-8"?>
<!-- Generator: Adobe Illustrator 20.1.0, SVG Export Plug-In . SVG Version: 6.00 Build 0)  -->
<svg version="1.1" id="Layer_1" xmlns="http://www.w3.org/2000/svg" xmlns:xlink="http://www.w3.org/1999/xlink" x="0px" y="0px"
	 viewBox="0 0 87.1 63.2" style="enable-background:new 0 0 87.1 63.2;" xml:space="preserve">
<style type="text/css">
	.st0{fill:#00B38A;stroke:#FFFFFF;stroke-width:0.8;}
	.st1{fill:#FFFFFF;}
	.st2{fill:#00B38A;}
</style>
<g>
	<g>
		<g>
			<rect x="1.1" y="11.8" class="st0" width="76.3" height="50.1"/>
			<polygon class="st0" points="86.2,49 77.4,61.9 77.4,11.8 86.2,1.1 			"/>
			<polygon class="st0" points="14.3,1.1 86.2,1.1 77.4,11.8 1.1,11.8 			"/>
		</g>
	</g>
	<polygon class="st1" points="14.5,26.2 14.5,29.4 7,25.1 14.5,20.9 14.5,24.1 14.4,24 27.3,24 27.3,20.8 34.8,25 27.3,29.2 
		27.3,26 14.4,26 	"/>
	<polygon class="st1" points="14.5,49.4 14.5,52.6 7,48.4 14.5,44.1 14.5,47.4 14.4,47.2 27.3,47.2 27.3,44 34.8,48.2 27.3,52.5 
		27.3,49.2 14.4,49.3 	"/>
	<polygon class="st1" points="14.5,38 14.5,41.2 7,37 14.5,32.8 14.5,36 14.4,35.8 23.4,35.8 23.4,32.6 30.9,36.9 23.4,41.1 
		23.4,37.9 14.4,37.9 	"/>
	<g>
		<path class="st1" d="M72.4,46.1c-1.3,0-2.3-3.6-2.2-8.1c0-4.5,1.1-8.1,2.4-8.1L63,29.8c-1.3,0-2.3,3.6-2.4,8.1
			c0,4.5,1,8.1,2.2,8.1L72.4,46.1z"/>
		<path class="st0" d="M70.1,38c0,4.2,1,7.6,2.2,7.6c1.3,0,2.3-3.4,2.4-7.5c0-4.2-1-7.6-2.2-7.6C71.2,30.4,70.2,33.8,70.1,38z"/>
		<path class="st1" d="M65.1,37.4c-0.1,8.9-7.3,16-16.2,15.9C40,53.3,32.9,46,33,37.1c0.1-8.9,7.3-16,16.2-15.9
			C58,21.3,65.2,28.6,65.1,37.4z"/>
		<ellipse transform="matrix(8.240775e-03 -1 1 8.240775e-03 11.177 86.4247)" class="st2" cx="49.2" cy="37.6" rx="7.7" ry="7.7"/>
	</g>
</g>
</svg>
