<?xml version="1.0" encoding="utf-8"?>
<!-- Generator: Adobe Illustrator 20.1.0, SVG Export Plug-In . SVG Version: 6.00 Build 0)  -->
<svg version="1.1" id="Layer_1" xmlns="http://www.w3.org/2000/svg" xmlns:xlink="http://www.w3.org/1999/xlink" x="0px" y="0px"
	 viewBox="0 0 72.8 48.5" style="enable-background:new 0 0 72.8 48.5;" xml:space="preserve">
<style type="text/css">
	.st0{fill:#00B38A;stroke:#FFFFFF;stroke-width:0.8;}
	.st1{fill:#00B38A;stroke:#FFFFFF;stroke-width:0.7;}
	.st2{fill:#FFFFFF;}
	.st3{clip-path:url(#SVGID_2_);}
	.st4{clip-path:url(#SVGID_4_);}
	.st5{clip-path:url(#SVGID_4_);fill:none;}
	.st6{fill:#00B38A;}
	.st7{fill:none;stroke:#FFFFFF;stroke-width:0.8;}
	.st8{font-family:'Helvetica';}
	.st9{font-size:20px;}
</style>
	<g>
	<ellipse class="st0" cx="36.4" cy="14.4" rx="36" ry="14"/>
	<path class="st1" d="M71.6,11.5c-10.8-3.1-14,3.1-20.3,3.1c-8.3,0-5.3-3.7-14.8-3.7c-11.3,0-6.7,3.6-14.9,3.7c-6,0-8.3-4.9-20.3-3
		c-0.6,1.3-0.8,2-0.7,3.9c11.2-2.5,14.3,3.2,21.1,2.9c9.3-0.4,4.4-4,14.9-3.7c9.8,0.3,4.9,3.7,14.8,3.7c8.6,0,9.6-6,21-3.3
		C72.3,15.1,72.8,13.4,71.6,11.5z"/>
	<path class="st1" d="M62.6,4.8c-5.9-1.1-4.4,2.7-11.3,2.7c-8.3,0-5-3.7-14.5-3.7c-11.3,0-7.5,4.1-15.8,4.1C15.6,7.9,14,5.3,9,5.4
		C7.5,5.9,5.1,7.4,3.5,8.7c8.6-2.1,11.9,2.5,17.7,2.6c9.3,0.1,5-4,15.5-3.7c9.8,0.3,4.6,3.7,14.5,3.7c7,0,7.1-5.8,17-3.5
		C68.2,7.9,65.7,6,62.6,4.8z"/>
	<path class="st1" d="M70.9,18.5c-11-2.6-11,3.2-18.8,3.2c-8.3,0-5-3.9-14.5-3.9c-11.3,0-7.3,3.6-15.5,3.7c-5.4,0-12.4-5.5-20-2.8
		C3.2,20.4,7,22.5,7,22.5c4.5-1.4,7.8,2.8,15.1,2.8c9.3,0,5-4,15.5-3.7c9.8,0.3,4.6,3.5,14.5,3.7c7.2,0.2,9.1-5.2,15.3-3.8
		C67.5,21.5,69.6,20.3,70.9,18.5z"/>
	<g>
		<g>
			<g>
				<g>
					<polygon class="st2" points="28.8,25.2 15.8,25.8 17.6,19.4 20.2,20.9 32.5,14.8 37.9,17.9 25.6,23.7 					"/>
				</g>
			</g>
		</g>
		<g>
			<g>
				<defs>
					<polygon id="SVGID_1_" points="46,4.7 58.9,4.8 57.2,10.5 54.6,9.1 42.2,15.2 36.9,12.1 49.1,6.2 					"/>
				</defs>
				<clipPath id="SVGID_2_">
					<use xlink:href="#SVGID_1_"  style="overflow:visible;"/>
				</clipPath>
				<g class="st3">
					<polygon class="st2" points="46.1,4.2 59,4.3 57.2,10 54.6,8.6 42.3,14.7 36.9,11.4 49.2,5.5 					"/>
				</g>
			</g>
		</g>
		<g>
			<g>
				<g>
					<polygon class="st2" points="31.4,8.5 35,13.1 18.7,14 21.9,12.5 10.1,7.5 16.2,4.2 28.5,9.8 					"/>
				</g>
			</g>
		</g>
		<g>
			<g>
				<defs>
					<polygon id="SVGID_3_" points="41.1,22 39.3,16.4 52.6,16.5 49.5,17.9 62.1,23 56.6,25.8 44,20.7 					"/>
				</defs>
				<clipPath id="SVGID_4_">
					<use xlink:href="#SVGID_3_"  style="overflow:visible;"/>
				</clipPath>
				<g class="st4">
					<polygon class="st2" points="41.2,21.9 39.5,16.3 52.8,16.4 49.6,17.8 62.3,23 56.7,25.8 44.2,20.6 					"/>
				</g>
				<polygon class="st5" points="41.1,22 39.3,16.4 52.6,16.5 49.5,17.9 62.1,23 56.6,25.8 44,20.7 				"/>
				<g class="st4">
					<polygon class="st2" points="30.1,25.2 17.1,25.8 18.9,19.4 21.5,20.9 33.9,14.8 39.3,17.9 27,23.7 					"/>
				</g>
			</g>
		</g>
	</g>
	<g>
		<g>
			<g>
				<path class="st6" d="M72.4,13.5c0,7.7-16.1,14-36,14s-36-6.3-36-14v20.5c0,7.7,16.1,14,36,14s36-6.3,36-14V13.5z"/>
				<path class="st7" d="M72.4,13.5c0,7.7-16.1,14-36,14s-36-6.3-36-14v20.5c0,7.7,16.1,14,36,14s36-6.3,36-14V13.5z"/>
				<text transform="matrix(1 0 0 1 0.7579 31.5468)" class="st8 st9"> </text>
			</g>
		</g>
	</g>
</g>
</svg>
