<?xml version="1.0" encoding="utf-8"?>
<!-- Generator: Adobe Illustrator 20.1.0, SVG Export Plug-In . SVG Version: 6.00 Build 0)  -->
<svg version="1.1" id="Layer_1" xmlns="http://www.w3.org/2000/svg" xmlns:xlink="http://www.w3.org/1999/xlink" x="0px" y="0px"
	 viewBox="0 0 97.6 49.1" style="enable-background:new 0 0 97.6 49.1;" xml:space="preserve">
<style type="text/css">
	.st0{fill:#00B38A;stroke:#FFFFFF;stroke-width:0.8;}
	.st1{fill:none;stroke:#FFFFFF;stroke-width:0.8;}
	.st2{fill:#FFFFFF;}
	.st3{fill:#FFFFFF;}
	.st4{fill:none;stroke:#FFFFFF;stroke-width:0.24;stroke-linecap:round;stroke-linejoin:round;stroke-miterlimit:10;}
</style>
<g>
	<rect x="1.3" y="24.1" class="st0" width="71.4" height="23.2"/>
	<polygon class="st0" points="1.1,24.2 30,0.8 96.6,0.8 72.7,24.2 	"/>
	<polygon class="st0" points="72.7,48 96.6,22.2 96.6,0.9 72.7,24.2 	"/>
	<line class="st1" x1="21.9" y1="21.3" x2="44.2" y2="3.3"/>
	<line class="st1" x1="39.6" y1="21.3" x2="61.9" y2="3.3"/>
	<line class="st1" x1="57.4" y1="21.3" x2="79.7" y2="3.3"/>
	<line class="st1" x1="31" y1="6.5" x2="83.8" y2="6.5"/>
	<g>
		<polygon class="st2" points="28.6,35.1 15.2,35.1 15.2,33.9 10.2,35.7 15.2,37.5 15.2,36.2 28.6,36.2 		"/>
		<polygon class="st2" points="36.2,38.9 36.2,43.7 32.7,43.7 37.8,45.4 42.9,43.7 39.4,43.7 39.4,38.9 		"/>
		<polygon class="st2" points="36.2,32.5 36.2,27.8 32.7,27.8 37.8,26 42.9,27.8 39.4,27.8 39.4,32.5 		"/>
		<polygon class="st2" points="47,36.2 60.3,36.2 60.3,37.5 65.4,35.7 60.3,33.9 60.3,35.1 47,35.1 		"/>
		<path class="st1" d="M59.3,43.3c-2.5,0.9-14-1.6-25.7-5.8c-11.7-4.1-19.2-8.2-16.6-9.2c2.5-0.9,14,1.6,25.7,5.8
			C54.3,38.2,61.8,42.3,59.3,43.3z"/>
		<path class="st1" d="M58.6,28.3c2.6,0.9-4.6,5-16.3,9.1c-11.6,4.1-23.2,6.8-25.9,5.9c-2.6-0.9,4.6-5,16.3-9.1
			C44.4,30,56,27.4,58.6,28.3z"/>
	</g>
	<path class="st3" d="M43.3,38.4c4.4-1.1,5.5-3.3,2.4-4.8c-3.1-1.6-9.2-1.9-13.6-0.9c-4.4,1.1-5.5,3.3-2.4,4.8
		C32.8,39.1,38.9,39.5,43.3,38.4z"/>
	<path class="st4" d="M78.9,6.2"/>
	<path class="st4" d="M75.4,2.1"/>
	<path class="st4" d="M57.4,22.9"/>
	<path class="st2" d="M44.2,6.5c-0.5,1.5-7.7,1.7-7.7,0C36.4,5,44,4.8,44.2,6.5"/>
	<path class="st2" d="M61.9,6.5c-0.5,1.5-7.7,1.7-7.7,0C54.2,5,61.8,4.8,61.9,6.5"/>
	<path class="st2" d="M79.7,6.5C79.2,8,72,8.2,72,6.5C71.9,5,79.5,4.8,79.7,6.5"/>
	<line class="st1" x1="24.2" y1="12.3" x2="77.1" y2="12.3"/>
	<path class="st2" d="M37.4,12.3c-0.5,1.5-7.7,1.7-7.7,0C29.6,10.8,37.3,10.6,37.4,12.3"/>
	<path class="st2" d="M55.2,12.3c-0.5,1.5-7.7,1.7-7.7,0C47.4,10.8,55,10.6,55.2,12.3"/>
	<path class="st2" d="M72.9,12.3c-0.5,1.5-7.7,1.7-7.7,0C65.1,10.8,72.7,10.6,72.9,12.3"/>
	<line class="st1" x1="17.3" y1="18.2" x2="70.2" y2="18.2"/>
	<path class="st2" d="M29.8,18.2c-0.5,1.5-7.7,1.7-7.7,0C22,16.7,29.6,16.5,29.8,18.2"/>
	<path class="st2" d="M47.5,18.2c-0.5,1.5-7.7,1.7-7.7,0C39.7,16.7,47.3,16.5,47.5,18.2"/>
	<path class="st2" d="M65.2,18.2c-0.5,1.5-7.7,1.7-7.7,0C57.5,16.7,65.1,16.5,65.2,18.2"/>
</g>
</svg>
