<?xml version="1.0" encoding="utf-8"?>
<!-- Generator: Adobe Illustrator 20.1.0, SVG Export Plug-In . SVG Version: 6.00 Build 0)  -->
<svg version="1.1" id="Layer_1" xmlns="http://www.w3.org/2000/svg" xmlns:xlink="http://www.w3.org/1999/xlink" x="0px" y="0px"
	 viewBox="0 0 94.1 69.5" style="enable-background:new 0 0 94.1 69.5;" xml:space="preserve">
<style type="text/css">
	.st0{fill:#FFFFFF;stroke:#000000;stroke-width:0.3;}
	.st1{fill:#00B38A;}
	.st2{fill:#FFFFFF;stroke:#00B38A;stroke-width:0.8;}
	.st3{fill:none;stroke:#00B38A;stroke-width:0.75;}
	.st4{fill:none;stroke:#00B38A;stroke-width:0.8;}
</style>
<g>
	<ellipse class="st0" cx="47.1" cy="26" rx="46.7" ry="8.8"/>
	<path class="st1" d="M47.3,50.3c25.8,0,46.4-19.5,46.4-24.3c0-4.9-20.9-8.8-46.7-8.8c-25.8,0-46.7,4-46.7,8.8
		C0.4,30.9,21.5,50.3,47.3,50.3z"/>
	<ellipse class="st2" cx="47.1" cy="26" rx="46.7" ry="8.8"/>
	<g>
		<path class="st3" d="M34.9,19.4c-7.4,0.4-13.9,1.3-19,2.4"/>
	</g>
	<g>
		<path class="st3" d="M35.4,21.2C28.3,21.8,22,22.7,17.3,24"/>
	</g>
	<g>
		<path class="st3" d="M35.9,23.2c-7,0.6-13,1.7-17.4,3"/>
	</g>
	<g>
		<path class="st3" d="M36.9,25.5c-6.8,0.7-12.6,1.8-16.7,3.3"/>
	</g>
	<g>
		<path class="st3" d="M37.4,27.7c-6.5,0.7-11.9,2-15.5,3.6"/>
	</g>
	<g>
		<path class="st3" d="M38.3,30.2c-5.1,0.7-9.5,1.8-12.6,3.1"/>
	</g>
	<g>
		<path class="st3" d="M38.6,32.6c-2.1,0.4-4,0.8-5.7,1.3"/>
	</g>
	<polyline class="st4" points="0.3,26.8 47.3,3.3 93.7,26 	"/>
	<g>
		<ellipse class="st1" cx="47.6" cy="7.6" rx="3.2" ry="1.6"/>
	</g>
	<polygon class="st1" points="47.6,0 46.6,32.8 48.8,32.8 	"/>
	<g>
		<rect x="37.3" y="50.8" class="st1" width="22.5" height="5.3"/>
	</g>
	<g>
		<path class="st1" d="M41.6,55.5h14.2V65c0,0-14.5,4.5-14.2,4.5S41.6,55.5,41.6,55.5z"/>
	</g>
</g>
</svg>
