<?xml version="1.0" encoding="utf-8"?>
<!-- Generator: Adobe Illustrator 20.1.0, SVG Export Plug-In . SVG Version: 6.00 Build 0)  -->
<svg version="1.1" id="Layer_1" xmlns="http://www.w3.org/2000/svg" xmlns:xlink="http://www.w3.org/1999/xlink" x="0px" y="0px"
	 viewBox="0 0 43.4 67.4" style="enable-background:new 0 0 43.4 67.4;" xml:space="preserve">
<style type="text/css">
	.st0{fill:#00B38A;stroke:#FFFFFF;stroke-width:0.8;}
	.st1{fill:#FFFFFF;}
	.st2{font-family:'Helvetica-Bold';}
	.st3{font-size:16px;}
	.st4{fill:#00B38A;stroke:#FFFFFF;stroke-width:2.31;}
	.st5{fill:#FFFFFF;stroke:#FFFFFF;stroke-width:0.2212;}
</style>
	<g>
	<g>
		<g>
			<polyline class="st0" points="33.2,10.2 1,10.2 1,66.4 33.2,66.4 			"/>
			<polygon class="st0" points="33.2,66.4 43,56.6 43,0.4 10.8,0.4 1,10.2 33.2,10.2 			"/>
			<line class="st0" x1="33.2" y1="10.2" x2="43" y2="0.4"/>
			<line class="st0" x1="1.5" y1="29.3" x2="32.9" y2="29.3"/>
			<line class="st0" x1="1.5" y1="59" x2="32.9" y2="59"/>
			<line class="st0" x1="9.9" y1="17.8" x2="18.6" y2="17.8"/>
			<g>
				<rect x="6.4" y="14.6" class="st0" width="15.5" height="6.3"/>
			</g>
		</g>
	</g>
	<g>
		<text transform="matrix(1 0 0 1 17.6498 54.6046)" class="st1 st2 st3">IP</text>
	</g>
	<path class="st4" d="M29.5,35.4H8c-2.5,0-4.4,2-4.4,4.4c0,2.5,2.2,4.3,4.6,4.3h3.6c2.5,0,4.2,2.2,4.2,4.7c0,2.5-2,4.4-4.4,4.4H5"/>
	<g>
		<polygon class="st5" points="28.7,32.7 28.7,38.2 32.1,35.6 		"/>
	</g>
	<g>
		<polygon class="st5" points="5.2,56 5.2,50.5 1.8,53.1 		"/>
	</g>
</g>
</svg>
