<?xml version="1.0" encoding="utf-8"?>
<!-- Generator: Adobe Illustrator 20.1.0, SVG Export Plug-In . SVG Version: 6.00 Build 0)  -->
<svg version="1.1" id="Layer_1" xmlns="http://www.w3.org/2000/svg" xmlns:xlink="http://www.w3.org/1999/xlink" x="0px" y="0px"
	 viewBox="0 0 62.1 56.9" style="enable-background:new 0 0 62.1 56.9;" xml:space="preserve">
<style type="text/css">
	.st0{fill:#00B38A;stroke:#FFFFFF;stroke-width:0.8;}
	.st1{fill:#FFFFFF;stroke:#FFFFFF;stroke-width:0.8;}
	.st2{fill:#00B38A;stroke:#FFFFFF;stroke-width:2;}
</style>
<g>
	<g>
		<g>
			<polygon class="st0" points="0.4,56.3 15.7,49.3 61.7,49.3 46.4,56.3 0.4,56.3 			"/>
			<polygon class="st0" points="0.4,7.6 15.7,0.6 15.7,49.3 0.4,56.3 0.4,7.6 			"/>
			<rect x="15.7" y="0.6" class="st0" width="46" height="48.7"/>
			<polygon class="st0" points="0.4,7.6 15.7,0.6 61.7,0.6 46.4,7.6 0.4,7.6 			"/>
			<line class="st0" x1="22" y1="14.9" x2="47.8" y2="14.9"/>
			<line class="st0" x1="22" y1="45.8" x2="47.8" y2="45.8"/>
			<polygon class="st1" points="34.5,28.1 44.6,25 34.5,22 			"/>
			<polygon class="st0" points="46.4,7.6 61.7,0.6 61.7,49.3 46.4,56.3 46.4,7.6 			"/>
			<path class="st0" d="M54,15.3c1.6,0,5,6.1,5,14.7c0,8.2-3.4,14.7-5,14.7c-1.7,0-4.5-6.5-4.5-14.7C49.5,21.4,52.2,15.3,54,15.3"/>
			<path class="st0" d="M22.1,15c1.6,0,5.2,6.4,5.2,15.5c0,8.6-3.6,15.5-5.2,15.5c-1.8,0-5.2-6.9-5.2-15.5
				C16.9,21.4,20.3,15,22.1,15"/>
		</g>
		<line class="st2" x1="45" y1="35.6" x2="34.5" y2="35.6"/>
		<line class="st2" x1="24.1" y1="24.9" x2="34.5" y2="24.9"/>
	</g>
	<polygon class="st1" points="35.2,32.6 25.1,35.8 35.2,38.7 	"/>
</g>
</svg>
