<?xml version="1.0" encoding="utf-8"?>
<!-- Generator: Adobe Illustrator 20.1.0, SVG Export Plug-In . SVG Version: 6.00 Build 0)  -->
<svg version="1.1" id="Layer_1" xmlns="http://www.w3.org/2000/svg" xmlns:xlink="http://www.w3.org/1999/xlink" x="0px" y="0px"
	 viewBox="0 0 82.8 36.1" style="enable-background:new 0 0 82.8 36.1;" xml:space="preserve">
<style type="text/css">
	.st0{fill:#00B38A;stroke:#FFFFFF;stroke-width:0.8;}
</style>
<g>
	<path class="st0" d="M70.4,34.7l12-16.8V6.2c0-3.2-2.6-5.8-5.8-5.8H16.2c-3.2,0-4.4,2.3-6.4,4.3l-8.7,9.3"/>
	<path class="st0" d="M72.4,30c0,3.2-2.6,5.8-5.8,5.8H6.2c-3.2,0-5.8-2.6-5.8-5.8V18.2c0-3.2,2.6-5.8,5.8-5.8h60.5
		c3.2,0,5.8,2.6,5.8,5.8V30z"/>
	<rect x="22.1" y="14.4" class="st0" width="30.3" height="9.6"/>
	<circle class="st0" cx="57.6" cy="18.1" r="1.9"/>
	<circle class="st0" cx="57.6" cy="23.4" r="1.9"/>
	<ellipse class="st0" cx="57.6" cy="28.7" rx="1.9" ry="1.9"/>
	<ellipse class="st0" cx="38.1" cy="30.4" rx="8.7" ry="2.7"/>
</g>
</svg>
