<?xml version="1.0" encoding="utf-8"?>
<!-- Generator: Adobe Illustrator 20.1.0, SVG Export Plug-In . SVG Version: 6.00 Build 0)  -->
<svg version="1.1" id="Layer_1" xmlns="http://www.w3.org/2000/svg" xmlns:xlink="http://www.w3.org/1999/xlink" x="0px" y="0px"
	 viewBox="0 0 54.1 54.5" style="enable-background:new 0 0 54.1 54.5;" xml:space="preserve">
<style type="text/css">
	.st0{fill:#00B38A;stroke:#FFFFFF;stroke-width:0.8;}
	.st1{fill:none;stroke:#FFFFFF;stroke-width:0.8;}
	.st2{fill:none;stroke:#FFFFFF;stroke-width:2;}
	.st3{fill:#FFFFFF;stroke:#FFFFFF;stroke-width:0.8;}
	.st4{fill:#00B38A;stroke:#FFFFFF;stroke-width:0.8;}
</style>
<g>
	<g>
		<g>
			<rect x="1" y="9.7" class="st0" width="43.2" height="43.9"/>
			<line class="st1" x1="23.6" y1="24.4" x2="36.9" y2="24.4"/>
			<line class="st1" x1="23.6" y1="39.7" x2="36.9" y2="39.7"/>
			<line class="st1" x1="19.6" y1="32.1" x2="19.6" y2="18.8"/>
			<line class="st2" x1="31.3" y1="32" x2="31.3" y2="45.3"/>
			<line class="st1" x1="16.1" y1="32" x2="16.1" y2="45.3"/>
			<line class="st1" x1="23.8" y1="24.5" x2="10.5" y2="24.5"/>
			<polygon class="st0" points="53.1,1 53.1,1 53.1,44.6 44.2,53.6 44.2,9.9 			"/>
			<polygon class="st0" points="44.2,9.9 44.1,9.7 1.1,9.7 12,1 53.1,1 			"/>
		</g>
		<line class="st2" x1="23" y1="24" x2="37.1" y2="24"/>
		<g>
			<polygon class="st3" points="36.8,20 36.8,27.7 41.4,24 			"/>
		</g>
		<line class="st2" x1="23" y1="39.3" x2="37.8" y2="39.3"/>
		<g>
			<polygon class="st3" points="36.8,35.2 36.8,42.9 41.4,39.2 			"/>
		</g>
		<line class="st2" x1="18.9" y1="31.7" x2="18.9" y2="19.1"/>
		<line class="st2" x1="26.9" y1="32.1" x2="26.9" y2="18.8"/>
		<line class="st1" x1="26.3" y1="31.7" x2="26.3" y2="19.1"/>
		<line class="st1" x1="30.7" y1="31.6" x2="30.7" y2="45.9"/>
		<g>
			<polygon class="st3" points="34.5,45.3 26.9,45.3 30.6,49.9 			"/>
		</g>
		<line class="st2" x1="15.5" y1="31.6" x2="15.5" y2="45.9"/>
		<g>
			<polygon class="st3" points="19.5,45.3 11.8,45.3 15.5,49.9 			"/>
		</g>
		<line class="st2" x1="23.2" y1="39.3" x2="8.9" y2="39.3"/>
		<g>
			<polygon class="st3" points="9.4,43.3 9.4,35.6 4.8,39.3 			"/>
		</g>
		<line class="st2" x1="23.2" y1="24" x2="8.9" y2="24"/>
		<g>
			<polygon class="st3" points="9.4,28.1 9.4,20.4 4.8,24.1 			"/>
		</g>
		<circle class="st0" cx="23" cy="31.7" r="9.2"/>
	</g>
	<path class="st3" d="M35.5,18.9c0.3,0,0.5-0.2,0.5-0.5v-4.6c0-0.3-0.2-0.5-0.5-0.5H11.1c-0.3,0-0.5,0.2-0.5,0.5v4.6
		c0,0.3,0.2,0.5,0.5,0.5h4.6v-1.6h14.6v1.6H35.5z"/>
	<g>
		<rect x="18.8" y="27.4" class="st4" width="1.1" height="1.1"/>
		<rect x="18.8" y="29.9" class="st4" width="1.1" height="1.1"/>
		<rect x="18.8" y="32.4" class="st4" width="1.1" height="1.1"/>
		<rect x="18.8" y="34.9" class="st4" width="1.1" height="1.1"/>
		<rect x="21.3" y="27.4" class="st4" width="1.1" height="1.1"/>
		<rect x="21.3" y="29.9" class="st4" width="1.1" height="1.1"/>
		<rect x="21.3" y="32.4" class="st4" width="1.1" height="1.1"/>
		<rect x="21.3" y="34.9" class="st4" width="1.1" height="1.1"/>
		<rect x="23.8" y="27.4" class="st4" width="1.1" height="1.1"/>
		<rect x="23.8" y="29.9" class="st4" width="1.1" height="1.1"/>
		<rect x="23.8" y="32.4" class="st4" width="1.1" height="1.1"/>
		<rect x="23.8" y="34.9" class="st4" width="1.1" height="1.1"/>
		<rect x="26.3" y="27.4" class="st4" width="1.1" height="1.1"/>
		<rect x="26.3" y="29.9" class="st4" width="1.1" height="1.1"/>
		<rect x="26.3" y="32.4" class="st4" width="1.1" height="1.1"/>
		<rect x="26.3" y="34.9" class="st4" width="1.1" height="1.1"/>
	</g>
</g>
</svg>
