<?xml version="1.0" encoding="utf-8"?>
<!-- Generator: Adobe Illustrator 20.1.0, SVG Export Plug-In . SVG Version: 6.00 Build 0)  -->
<svg version="1.1" id="Layer_1" xmlns="http://www.w3.org/2000/svg" xmlns:xlink="http://www.w3.org/1999/xlink" x="0px" y="0px"
	 viewBox="0 0 42 60.2" style="enable-background:new 0 0 42 60.2;" xml:space="preserve">
<style type="text/css">
	.st0{fill:#00B38A;}
	.st1{fill:#00B38A;stroke:#FFFFFF;stroke-width:0.8;}
	.st2{fill:#FFFFFF;}
	.st3{fill:none;stroke:#FFFFFF;stroke-width:0.8;}
	.st4{fill:none;stroke:#FFFFFF;stroke-width:0.8;stroke-linecap:round;stroke-linejoin:round;}
	.st5{fill:#FFFFFF;stroke:#FFFFFF;stroke-width:0.8;stroke-linecap:round;stroke-linejoin:round;}
</style>
<g>
	<g>
		<g>
			<g>
				<polyline class="st0" points="31.7,10.2 1,10.2 1,59.3 31.7,59.3 				"/>
				<polygon class="st0" points="31.7,59.3 41.6,49.4 41.6,0.4 10.8,0.4 1,10.2 31.7,10.2 				"/>
				<line class="st0" x1="31.7" y1="10.2" x2="41.6" y2="0.4"/>
			</g>
			<g>
				<polyline class="st1" points="31.7,10.2 1,10.2 1,59.3 31.7,59.3 				"/>
				<polygon class="st1" points="31.7,59.3 41.6,49.4 41.6,0.4 10.8,0.4 1,10.2 31.7,10.2 				"/>
				<line class="st2" x1="31.7" y1="10.2" x2="41.6" y2="0.4"/>
			</g>
			<g>
				<polyline class="st3" points="31.7,10.2 1,10.2 1,59.3 31.7,59.3 				"/>
				<polygon class="st3" points="31.7,59.3 41.6,49.4 41.6,0.4 10.8,0.4 1,10.2 31.7,10.2 				"/>
				<line class="st3" x1="31.7" y1="10.2" x2="41.6" y2="0.4"/>
			</g>
		</g>
		<rect x="6.2" y="16" class="st4" width="21.3" height="8.6"/>
		<circle class="st5" cx="11.8" cy="20.2" r="2.2"/>
		<circle class="st5" cx="21.4" cy="20.2" r="2.2"/>
		<rect x="6.2" y="31" class="st4" width="21.3" height="8.6"/>
		<circle class="st5" cx="11.8" cy="35.2" r="2.2"/>
		<circle class="st5" cx="21.4" cy="35.2" r="2.2"/>
		<rect x="6.2" y="46" class="st4" width="21.3" height="8.6"/>
		<circle class="st5" cx="11.8" cy="50.2" r="2.2"/>
		<circle class="st5" cx="21.4" cy="50.2" r="2.2"/>
	</g>
	<line class="st4" x1="11.8" y1="18" x2="21.4" y2="18"/>
	<line class="st4" x1="11.8" y1="33" x2="21.4" y2="33"/>
	<line class="st4" x1="11.8" y1="48" x2="21.4" y2="48"/>
</g>
</svg>
