<?xml version="1.0" encoding="utf-8"?>
<!-- Generator: Adobe Illustrator 20.1.0, SVG Export Plug-In . SVG Version: 6.00 Build 0)  -->
<svg version="1.1" id="Layer_1" xmlns="http://www.w3.org/2000/svg" xmlns:xlink="http://www.w3.org/1999/xlink" x="0px" y="0px"
	 viewBox="0 0 99 84.7" style="enable-background:new 0 0 99 84.7;" xml:space="preserve">
<style type="text/css">
	.st0{fill:#00B38A;stroke:#FFFFFF;stroke-width:0.8;}
	.st1{fill:#FFFFFF;}
</style>
<g>
	<g>
		<polygon class="st0" points="41.4,6.7 50.4,0.4 55.4,0.4 54.9,5.2 48.4,11.2 		"/>
		<g>
			<rect x="7.9" y="49.2" class="st0" width="63.5" height="34.5"/>
		</g>
		<polygon class="st0" points="71.4,49.2 93.9,27.7 93.9,60.7 71.4,83.7 		"/>
		<polygon class="st0" points="83.1,76.8 78.4,76.8 78.1,45.7 81.9,44.2 84.1,46.2 84.6,72.5 		"/>
		<polygon class="st0" points="81.9,44.2 83.1,76.7 91.6,67 87.9,37 		"/>
		<polygon class="st0" points="76.4,51.7 43.9,9.2 55.1,0.5 98.4,27.7 		"/>
		<polygon class="st0" points="81.4,33.7 86.4,28.7 83.9,8.7 79.4,10.7 79.4,28.7 		"/>
		<polygon class="st0" points="73.9,26.7 81.4,33.5 80.9,9.7 76.9,9.2 		"/>
		<polygon class="st0" points="76.9,9.2 80.6,11.5 83.9,8.7 80.1,7.4 		"/>
		<polygon class="st0" points="46.9,6.7 76.9,51.7 0.9,51.7 41.4,6.7 		"/>
	</g>
	<path class="st0" d="M61.1,52.4c0,4.3-9.1,7.9-20.2,7.9c-11.2,0-20.2-3.5-20.2-7.9v11.5c0,4.3,9.1,7.9,20.2,7.9
		c11.2,0,20.2-3.5,20.2-7.9V52.4z"/>
	<ellipse class="st0" cx="40.8" cy="52.4" rx="20.2" ry="7.9"/>
	<polygon class="st1" points="36.2,49.3 37.9,51.8 31.6,53.3 32.9,52.1 23.2,50.5 25.6,48.6 35,50.2 	"/>
	<polygon class="st1" points="45.1,55.4 44,52.8 49.6,51.7 48.7,52.5 58.2,54.2 55.9,56 46.4,54.2 	"/>
	<polygon class="st1" points="42,47.9 48.4,46.2 48.4,48.9 46.8,48.6 43.7,51.2 40.8,50.8 44,48.2 	"/>
	<polygon class="st1" points="39.2,57.7 33.2,58.9 32.9,56.1 34.7,56.4 38,53.6 41,54.1 37.4,57.2 	"/>
</g>
</svg>
