<?xml version="1.0" encoding="utf-8"?>
<!-- Generator: Adobe Illustrator 20.1.0, SVG Export Plug-In . SVG Version: 6.00 Build 0)  -->
<svg version="1.1" id="Layer_1" xmlns="http://www.w3.org/2000/svg" xmlns:xlink="http://www.w3.org/1999/xlink" x="0px" y="0px"
	 viewBox="0 0 53.6 54.1" style="enable-background:new 0 0 53.6 54.1;" xml:space="preserve">
<style type="text/css">
	.st0{fill:#00B38A;stroke:#FFFFFF;stroke-width:0.8;}
	.st1{fill:none;stroke:#FFFFFF;stroke-width:1.2;}
	.st2{fill:#FFFFFF;stroke:#FFFFFF;stroke-width:0.4;}
	.st3{fill:#FFFFFF;}
</style>
<g>
	<g>
		<polygon class="st0" points="44.3,53.1 44.2,9.2 1.1,9.1 1.1,53.1 		"/>
		<circle class="st1" cx="22.7" cy="31" r="9.5"/>
		<line class="st1" x1="22.7" y1="21.5" x2="37.1" y2="21.5"/>
		<g>
			<polygon class="st2" points="37.3,16.1 37.3,26.5 43.5,21.5 			"/>
		</g>
		<line class="st1" x1="13.2" y1="31.1" x2="13.2" y2="16.7"/>
		<g>
			<polygon class="st2" points="7.9,16.6 18.3,16.6 13.3,10.3 			"/>
		</g>
		<line class="st1" x1="32.3" y1="31" x2="32.3" y2="45.4"/>
		<g>
			<polygon class="st2" points="37.5,45.4 27.1,45.4 32.2,51.7 			"/>
		</g>
		<line class="st1" x1="22.9" y1="40.5" x2="8.5" y2="40.5"/>
		<g>
			<polygon class="st2" points="8.3,46 8.3,35.5 2,40.6 			"/>
		</g>
		<polygon class="st0" points="44.2,9.2 1.1,9.1 12.1,0.4 53.2,0.4 53.2,0.5 53.2,44.1 44.3,53.1 44.2,9.2 		"/>
		<line class="st0" x1="44.2" y1="9.2" x2="53.2" y2="0.3"/>
	</g>
	<path class="st3" d="M27.8,26.5v6.2c0,2.6-1.7,4.9-5.2,4.9c-3.5,0-5-2.2-5-4.6v-6.4h1.7v5.9c0,2.8,1.7,3.6,3.3,3.6
		c1.6,0,3.4-0.7,3.4-3.5v-5.9H27.8z"/>
</g>
</svg>
