<?xml version="1.0" encoding="UTF-8" standalone="no"?>
<svg
   xmlns:dc="http://purl.org/dc/elements/1.1/"
   xmlns:cc="http://creativecommons.org/ns#"
   xmlns:rdf="http://www.w3.org/1999/02/22-rdf-syntax-ns#"
   xmlns:svg="http://www.w3.org/2000/svg"
   xmlns="http://www.w3.org/2000/svg"
   viewBox="0 0 58.48 55.639999"
   height="55.639999"
   width="58.48"
   xml:space="preserve"
   id="svg2"
   version="1.1"><metadata
     id="metadata8"><rdf:RDF><cc:Work
         rdf:about=""><dc:format>image/svg+xml</dc:format><dc:type
           rdf:resource="http://purl.org/dc/dcmitype/StillImage" /></cc:Work></rdf:RDF></metadata><defs
     id="defs6" /><g
     transform="matrix(1.3333333,0,0,-1.3333333,0,55.64)"
     id="g10"><g
       transform="scale(0.1)"
       id="g12"><path
         id="path14"
         style="fill:#00B38A;fill-opacity:1;fill-rule:nonzero;stroke:none"
         d="m 391.113,133.828 34.942,190.106 H 159.633 L 120.395,133.828 h 270.718" /><path
         id="path16"
         style="fill:none;stroke:#FFFFFF;stroke-width:4;stroke-linecap:butt;stroke-linejoin:miter;stroke-miterlimit:4;stroke-dasharray:none;stroke-opacity:1"
         d="m 391.113,133.828 34.942,190.106 H 159.633 L 120.395,133.828 Z" /><path
         id="path18"
         style="fill:#00B38A;fill-opacity:1;fill-rule:nonzero;stroke:none"
         d="m 426.055,323.934 10.41,-13.473 -32.481,-184.59 -12.871,7.957 34.942,190.106" /><path
         id="path20"
         style="fill:none;stroke:#FFFFFF;stroke-width:4;stroke-linecap:butt;stroke-linejoin:miter;stroke-miterlimit:4;stroke-dasharray:none;stroke-opacity:1"
         d="m 426.055,323.934 10.41,-13.473 -32.481,-184.59 -12.871,7.957 z" /><path
         id="path22"
         style="fill:#00B38A;fill-opacity:1;fill-rule:nonzero;stroke:none"
         d="m 120.395,133.828 11.64,-7.957 h 271.949 l -12.871,7.957 H 120.395" /><path
         id="path24"
         style="fill:none;stroke:#FFFFFF;stroke-width:4;stroke-linecap:butt;stroke-linejoin:miter;stroke-miterlimit:4;stroke-dasharray:none;stroke-opacity:1"
         d="m 120.395,133.828 11.64,-7.957 h 271.949 l -12.871,7.957 z" /><path
         id="path26"
         style="fill:#00B38A;fill-opacity:1;fill-rule:nonzero;stroke:none"
         d="M 393.574,121.27 V 94.0234 l -7.051,-6.1328 c 0,0 -16.543,-4.8906 -12.871,-14.6875 L 299.863,4.58984 V 34.6094 l 93.711,86.6606" /><path
         id="path28"
         style="fill:none;stroke:#FFFFFF;stroke-width:4;stroke-linecap:butt;stroke-linejoin:miter;stroke-miterlimit:4;stroke-dasharray:none;stroke-opacity:1"
         d="M 393.574,121.27 V 94.0234 l -7.051,-6.1328 c 0,0 -16.543,-4.8906 -12.871,-14.6875 L 299.863,4.58984 V 34.6094 Z" /><path
         id="path30"
         style="fill:#00B38A;fill-opacity:1;fill-rule:nonzero;stroke:none"
         d="m 6.17578,4.58984 h 293.688 v 30.0195 H 6.17578 Z" /><path
         id="path32"
         style="fill:none;stroke:#FFFFFF;stroke-width:4;stroke-linecap:butt;stroke-linejoin:miter;stroke-miterlimit:4;stroke-dasharray:none;stroke-opacity:1"
         d="M 6.17578,34.6094 V 4.58984 H 299.863 V 34.6094 H 6.17578" /><path
         id="path34"
         style="fill:#00B38A;fill-opacity:1;fill-rule:nonzero;stroke:none"
         d="M 123.461,119.434 393.574,121.27 299.863,34.6094 H 6.17578 L 123.461,119.434" /><path
         id="path36"
         style="fill:none;stroke:#FFFFFF;stroke-width:4;stroke-linecap:butt;stroke-linejoin:miter;stroke-miterlimit:4;stroke-dasharray:none;stroke-opacity:1"
         d="M 123.461,119.434 393.574,121.27 299.863,34.6094 H 6.17578 Z" /><path
         id="path38"
         style="fill:#00B38A;fill-opacity:1;fill-rule:nonzero;stroke:none"
         d="m 368.516,151.719 27.89,150.293 H 179.77 L 151.879,151.719 h 216.637" /><path
         id="path40"
         style="fill:none;stroke:#FFFFFF;stroke-width:4;stroke-linecap:butt;stroke-linejoin:miter;stroke-miterlimit:4;stroke-dasharray:none;stroke-opacity:1"
         d="m 368.516,151.719 27.89,150.293 H 179.77 L 151.879,151.719 Z" /><path
         id="path42"
         style="fill:none;stroke:#FFFFFF;stroke-width:1;stroke-linecap:butt;stroke-linejoin:round;stroke-miterlimit:4;stroke-dasharray:none;stroke-opacity:1"
         d="M 129.809,117.52 61.6836,62.5078" /><path
         id="path44"
         style="fill:none;stroke:#FFFFFF;stroke-width:1;stroke-linecap:butt;stroke-linejoin:round;stroke-miterlimit:4;stroke-dasharray:none;stroke-opacity:1"
         d="M 151.684,117.52 83.5586,62.5078" /><path
         id="path46"
         style="fill:none;stroke:#FFFFFF;stroke-width:1;stroke-linecap:butt;stroke-linejoin:round;stroke-miterlimit:4;stroke-dasharray:none;stroke-opacity:1"
         d="M 173.559,117.52 105.434,62.5078" /><path
         id="path48"
         style="fill:none;stroke:#FFFFFF;stroke-width:1;stroke-linecap:butt;stroke-linejoin:round;stroke-miterlimit:4;stroke-dasharray:none;stroke-opacity:1"
         d="M 195.434,117.52 127.309,62.5078" /><path
         id="path50"
         style="fill:none;stroke:#FFFFFF;stroke-width:1;stroke-linecap:butt;stroke-linejoin:round;stroke-miterlimit:4;stroke-dasharray:none;stroke-opacity:1"
         d="M 217.305,117.52 149.184,62.5078" /><path
         id="path52"
         style="fill:none;stroke:#FFFFFF;stroke-width:1;stroke-linecap:butt;stroke-linejoin:round;stroke-miterlimit:4;stroke-dasharray:none;stroke-opacity:1"
         d="M 239.18,117.52 171.059,62.5078" /><path
         id="path54"
         style="fill:none;stroke:#FFFFFF;stroke-width:1;stroke-linecap:butt;stroke-linejoin:round;stroke-miterlimit:4;stroke-dasharray:none;stroke-opacity:1"
         d="M 261.055,117.52 192.934,62.5078" /><path
         id="path56"
         style="fill:none;stroke:#FFFFFF;stroke-width:1;stroke-linecap:butt;stroke-linejoin:round;stroke-miterlimit:4;stroke-dasharray:none;stroke-opacity:1"
         d="M 282.93,117.52 214.805,62.5078" /><path
         id="path58"
         style="fill:none;stroke:#FFFFFF;stroke-width:1;stroke-linecap:butt;stroke-linejoin:round;stroke-miterlimit:4;stroke-dasharray:none;stroke-opacity:1"
         d="M 304.805,117.52 236.68,62.5078" /><path
         id="path60"
         style="fill:none;stroke:#FFFFFF;stroke-width:1;stroke-linecap:butt;stroke-linejoin:round;stroke-miterlimit:4;stroke-dasharray:none;stroke-opacity:1"
         d="M 326.68,117.52 258.555,62.5078" /><path
         id="path62"
         style="fill:none;stroke:#FFFFFF;stroke-width:1;stroke-linecap:butt;stroke-linejoin:round;stroke-miterlimit:4;stroke-dasharray:none;stroke-opacity:1"
         d="M 348.555,117.52 280.43,62.5078" /><path
         id="path64"
         style="fill:none;stroke:#FFFFFF;stroke-width:1;stroke-linecap:butt;stroke-linejoin:round;stroke-miterlimit:4;stroke-dasharray:none;stroke-opacity:1"
         d="M 370.43,117.52 302.305,62.5078" /><path
         id="path66"
         style="fill:none;stroke:#FFFFFF;stroke-width:1;stroke-linecap:butt;stroke-linejoin:round;stroke-miterlimit:4;stroke-dasharray:none;stroke-opacity:1"
         d="M 69.3008,68.3086 H 311.816" /><path
         id="path68"
         style="fill:none;stroke:#FFFFFF;stroke-width:1;stroke-linecap:butt;stroke-linejoin:round;stroke-miterlimit:4;stroke-dasharray:none;stroke-opacity:1"
         d="M 85.6094,80.918 H 324.375" /><path
         id="path70"
         style="fill:none;stroke:#FFFFFF;stroke-width:1;stroke-linecap:butt;stroke-linejoin:round;stroke-miterlimit:4;stroke-dasharray:none;stroke-opacity:1"
         d="M 102.523,93.5156 H 340.664" /><path
         id="path72"
         style="fill:none;stroke:#FFFFFF;stroke-width:1;stroke-linecap:butt;stroke-linejoin:round;stroke-miterlimit:4;stroke-dasharray:none;stroke-opacity:1"
         d="M 117.582,106.133 H 357.598" /><path
         id="path74"
         style="fill:#00B38A;fill-opacity:1;fill-rule:nonzero;stroke:none"
         d="m 300.527,348.398 c 18.594,0 33.661,15.067 33.661,33.661 0,18.586 -15.067,33.644 -33.661,33.644 -18.586,0 -33.652,-15.058 -33.652,-33.644 0,-18.594 15.066,-33.661 33.652,-33.661" /><path
         id="path76"
         style="fill:none;stroke:#FFFFFF;stroke-width:3.200B38A5;stroke-linecap:butt;stroke-linejoin:miter;stroke-miterlimit:4;stroke-dasharray:none;stroke-opacity:1"
         d="m 300.527,348.398 c 18.594,0 33.661,15.067 33.661,33.661 0,18.586 -15.067,33.644 -33.661,33.644 -18.586,0 -33.652,-15.058 -33.652,-33.644 0,-18.594 15.066,-33.661 33.652,-33.661 z" /><path
         id="path78"
         style="fill:#00B38A;fill-opacity:1;fill-rule:nonzero;stroke:none"
         d="m 251.777,330.977 8.711,52.089 c 0,-22.304 18.075,-40.382 40.379,-40.382 22.317,0 40.395,18.078 40.395,40.382 l 8.211,-52.148 -97.696,0.059" /><path
         id="path80"
         style="fill:#FFFFFF;fill-opacity:1;fill-rule:nonzero;stroke:none"
         d="m 323.367,373.281 v 15.305 h -45.894 v -15.305 h 45.894" /><path
         id="path82"
         style="fill:#FFFFFF;fill-opacity:1;fill-rule:nonzero;stroke:none"
         d="m 271.172,281.172 h 37.324 c -18.66,-4.793 -26.133,-25.594 -26.133,-25.594 l 15.469,-8.535 -33.066,-21.867 -16.536,47.996 13.313,-6.551 c 2.129,8 9.629,14.551 9.629,14.551" /><path
         id="path84"
         style="fill:#FFFFFF;fill-opacity:1;fill-rule:nonzero;stroke:none"
         d="m 302.102,163.836 c 5.652,18.43 -8.899,33.957 -8.899,33.957 l -15.351,-8.742 -1.407,39.621 49.59,-10.938 -12.539,-7.929 c 13.137,-17.696 9.563,-38.867 9.563,-38.867 -7.09,-9.227 -20.957,-7.102 -20.957,-7.102" /><path
         id="path86"
         style="fill:#FFFFFF;fill-opacity:1;fill-rule:nonzero;stroke:none"
         d="m 211.73,219.336 c 11.969,-6.348 25.438,-3.457 25.438,-3.457 l 0.43,17.656 34.668,-19.219 -34.942,-36.847 -0.32,14.836 c -10.227,-0.996 -19.234,1.504 -25.93,4.461 l 0.656,22.57" /></g></g></svg>