<?xml version="1.0" encoding="utf-8"?>
<!-- Generator: Adobe Illustrator 20.1.0, SVG Export Plug-In . SVG Version: 6.00 Build 0)  -->
<svg version="1.1" id="Layer_1" xmlns="http://www.w3.org/2000/svg" xmlns:xlink="http://www.w3.org/1999/xlink" x="0px" y="0px"
	 viewBox="0 0 36.5 65.6" style="enable-background:new 0 0 36.5 65.6;" xml:space="preserve">
<style type="text/css">
	.st0{fill:#00B38A;stroke:#FFFFFF;stroke-width:0.8;}
</style>
<g>
	<polygon class="st0" points="3.7,1.1 35.6,1.1 32.8,4.3 0.9,4.3 	"/>
	<g>
		<rect x="0.9" y="4.3" class="st0" width="31.8" height="60.2"/>
	</g>
	<path class="st0" d="M25.8,60.9c3.2,0,3.7-3.3,3.7-3.3s0-34.6,0-37.7c0-4-3.8-3.9-3.8-3.9S10,16,7.8,16c-2.2,0-3.2,3.1-3.2,3.1
		s0,35.2,0,38.1c0,2.8,3,3.8,3,3.8H25.8z"/>
	<polygon class="st0" points="35.6,1.1 35.6,61.3 32.8,64.6 32.8,4.3 	"/>
	<ellipse class="st0" cx="26.2" cy="10.3" rx="0.9" ry="1.7"/>
	<ellipse class="st0" cx="19.5" cy="10.3" rx="0.9" ry="1.7"/>
	<ellipse class="st0" cx="12.9" cy="10.3" rx="0.9" ry="1.7"/>
	<ellipse class="st0" cx="6.2" cy="10.3" rx="0.9" ry="1.7"/>
</g>
</svg>
