<?xml version="1.0" encoding="utf-8"?>
<!-- Generator: Adobe Illustrator 20.1.0, SVG Export Plug-In . SVG Version: 6.00 Build 0)  -->
<svg version="1.1" id="Layer_1" xmlns="http://www.w3.org/2000/svg" xmlns:xlink="http://www.w3.org/1999/xlink" x="0px" y="0px"
	 viewBox="0 0 74.4 74.4" style="enable-background:new 0 0 74.4 74.4;" xml:space="preserve">
<style type="text/css">
	.st0{fill:none;stroke:#00B38A;stroke-width:0.8;}
	.st1{fill:none;stroke:#00B38A;stroke-width:4;}
	.st2{stroke:#00B38A;stroke-width:2;}
	.st3{fill:#00B38A;stroke:#FFFFFF;stroke-width:0.8;}
	.st4{fill:#FFFFFF;}
</style>
<g>
	<line class="st0" x1="60.4" y1="34.6" x2="60.4" y2="1.9"/>
	<line class="st1" x1="60.4" y1="34" x2="60.4" y2="11.6"/>
	<rect x="59.4" y="1" class="st2" width="2" height="4"/>
	<line class="st0" x1="11.9" y1="34.6" x2="11.9" y2="1.9"/>
	<line class="st1" x1="11.9" y1="34" x2="11.9" y2="11.6"/>
	<rect x="10.9" y="1" class="st2" width="2" height="4"/>
	<g>
		<path class="st3" d="M74,38.7C74,46.6,57.5,53,37.2,53C16.9,53,0.4,46.6,0.4,38.7v21C0.4,67.6,16.9,74,37.2,74
			C57.5,74,74,67.6,74,59.7V38.7z"/>
		<ellipse class="st3" cx="37.2" cy="38.7" rx="36.8" ry="14.3"/>
		<polygon class="st4" points="28.8,33.1 31.8,37.7 20.3,40.3 22.8,38.3 5.1,35.2 9.6,31.9 26.7,34.8 		"/>
		<polygon class="st4" points="44.9,44.2 42.9,39.5 53.2,37.4 51.4,39 68.7,42 64.6,45.3 47.4,42.1 		"/>
		<polygon class="st4" points="39.3,30.6 50.9,27.5 51,32.4 48.1,31.9 42.5,36.6 37.1,35.8 42.9,31.2 		"/>
		<polygon class="st4" points="34.3,48.5 23.3,50.5 22.8,45.4 26,46.1 32.1,40.9 37.5,41.8 31,47.5 		"/>
	</g>
</g>
</svg>
