<?xml version="1.0" encoding="UTF-8" standalone="no"?>
<svg
   xmlns:dc="http://purl.org/dc/elements/1.1/"
   xmlns:cc="http://creativecommons.org/ns#"
   xmlns:rdf="http://www.w3.org/1999/02/22-rdf-syntax-ns#"
   xmlns:svg="http://www.w3.org/2000/svg"
   xmlns="http://www.w3.org/2000/svg"
   viewBox="0 0 65.080002 32.746666"
   height="32.746666"
   width="65.080002"
   xml:space="preserve"
   id="svg2"
   version="1.1"><metadata
     id="metadata8"><rdf:RDF><cc:Work
         rdf:about=""><dc:format>image/svg+xml</dc:format><dc:type
           rdf:resource="http://purl.org/dc/dcmitype/StillImage" /></cc:Work></rdf:RDF></metadata><defs
     id="defs6" /><g
     transform="matrix(1.3333333,0,0,-1.3333333,0,32.746667)"
     id="g10"><g
       transform="scale(0.1)"
       id="g12"><path
         id="path14"
         style="fill:#00B38A;fill-opacity:1;fill-rule:nonzero;stroke:none"
         d="m 6.58203,8.75781 h 357.184 v 115.957 H 6.58203 Z" /><path
         id="path16"
         style="fill:none;stroke:#FFFFFF;stroke-width:3.99993992;stroke-linecap:butt;stroke-linejoin:miter;stroke-miterlimit:4;stroke-dasharray:none;stroke-opacity:1"
         d="M 363.766,8.75781 V 124.715 H 6.58203 V 8.75781 Z" /><path
         id="path18"
         style="fill:#00B38A;fill-opacity:1;fill-rule:nonzero;stroke:none"
         d="M 5.64453,124.133 149.922,241.063 H 483.219 L 363.434,124.133 H 5.64453" /><path
         id="path20"
         style="fill:none;stroke:#FFFFFF;stroke-width:3.99993992;stroke-linecap:butt;stroke-linejoin:miter;stroke-miterlimit:4;stroke-dasharray:none;stroke-opacity:1"
         d="M 5.64453,124.133 149.922,241.063 H 483.219 L 363.434,124.133 Z" /><path
         id="path22"
         style="fill:#00B38A;fill-opacity:1;fill-rule:nonzero;stroke:none"
         d="M 363.57,5.10547 482.887,134.023 482.965,240.859 363.57,124.297 V 5.10547" /><path
         id="path24"
         style="fill:none;stroke:#FFFFFF;stroke-width:3.99993992;stroke-linecap:butt;stroke-linejoin:miter;stroke-miterlimit:4;stroke-dasharray:none;stroke-opacity:1"
         d="M 363.57,5.10547 482.887,134.023 482.965,240.859 363.57,124.297 Z" /><path
         id="path26"
         style="fill:#FFFFFF;fill-opacity:1;fill-rule:nonzero;stroke:none"
         d="m 215.016,154.551 -6.934,-5.684 h -89.078 l -8.887,-8.879 -24.1404,10.52 48.5544,13.887 -8.593,-9.844 h 89.078" /><path
         id="path28"
         style="fill:#FFFFFF;fill-opacity:1;fill-rule:nonzero;stroke:none"
         d="m 285.016,198.301 -6.934,-5.684 h -89.078 l -8.887,-8.879 -24.14,10.52 48.554,13.887 -8.593,-9.844 h 89.078" /><path
         id="path30"
         style="fill:#FFFFFF;fill-opacity:1;fill-rule:nonzero;stroke:none"
         d="m 230.738,170.008 6.914,5.683 h 89.102 l 8.887,8.879 24.14,-10.519 -48.554,-13.887 8.593,9.844 h -89.082" /><path
         id="path32"
         style="fill:#FFFFFF;fill-opacity:1;fill-rule:nonzero;stroke:none"
         d="m 276.988,213.758 6.914,5.683 h 89.102 l 8.887,8.879 24.14,-10.519 -48.554,-13.887 8.593,9.844 h -89.082" /></g></g></svg>