<?xml version="1.0" encoding="UTF-8" standalone="no"?>
<svg
   xmlns:dc="http://purl.org/dc/elements/1.1/"
   xmlns:cc="http://creativecommons.org/ns#"
   xmlns:rdf="http://www.w3.org/1999/02/22-rdf-syntax-ns#"
   xmlns:svg="http://www.w3.org/2000/svg"
   xmlns="http://www.w3.org/2000/svg"
   xmlns:sodipodi="http://sodipodi.sourceforge.net/DTD/sodipodi-0.dtd"
   xmlns:inkscape="http://www.inkscape.org/namespaces/inkscape"
   viewBox="0 0 52.533333 42.693333"
   height="42.693333"
   width="52.533333"
   xml:space="preserve"
   id="svg2"
   version="1.1"
   sodipodi:docname="VSD.svg"
   inkscape:version="0.92.3 (2405546, 2018-03-11)"><sodipodi:namedview
     pagecolor="#000000"
     bordercolor="#666666"
     borderopacity="1"
     objecttolerance="10"
     gridtolerance="10"
     guidetolerance="10"
     inkscape:pageopacity="0"
     inkscape:pageshadow="2"
     inkscape:window-width="1551"
     inkscape:window-height="836"
     id="namedview42"
     showgrid="false"
     inkscape:zoom="5.5277952"
     inkscape:cx="26.990282"
     inkscape:cy="20.532599"
     inkscape:window-x="49"
     inkscape:window-y="27"
     inkscape:window-maximized="1"
     inkscape:current-layer="svg2" /><metadata
     id="metadata8"><rdf:RDF><cc:Work
         rdf:about=""><dc:format>image/svg+xml</dc:format><dc:type
           rdf:resource="http://purl.org/dc/dcmitype/StillImage" /></cc:Work></rdf:RDF></metadata><defs
     id="defs6" /><g
     id="g955"><path
       inkscape:connector-curvature="0"
       d="M 0.75416665,41.831354 H 46.110399 V 7.8349339 H 0.75416665 V 41.831354"
       style="fill:#ffaa00;fill-opacity:1;fill-rule:nonzero;stroke:none;stroke-width:0.13333333"
       id="path14" /><path
       inkscape:connector-curvature="0"
       d="M 0.75416665,41.831354 H 46.110399 V 7.8349339 H 0.75416665 Z"
       style="fill:none;stroke:#000000;stroke-width:0.5333333;stroke-linecap:butt;stroke-linejoin:miter;stroke-miterlimit:4;stroke-dasharray:none;stroke-opacity:1"
       id="path16" /><path
       inkscape:connector-curvature="0"
       d="m 51.962532,33.273027 -5.852133,8.558327 V 7.8349339 L 51.962532,0.74026738 V 33.273027"
       style="fill:#ffaa00;fill-opacity:1;fill-rule:nonzero;stroke:none;stroke-width:0.13333333"
       id="path18" /><path
       inkscape:connector-curvature="0"
       d="m 51.962532,33.273027 -5.852133,8.558327 V 7.8349339 l 5.852133,-7.09466652 z"
       style="fill:none;stroke:#000000;stroke-width:0.5333333;stroke-linecap:butt;stroke-linejoin:miter;stroke-miterlimit:4;stroke-dasharray:none;stroke-opacity:1"
       id="path20" /><path
       inkscape:connector-curvature="0"
       d="M 9.5312531,0.74026738 H 51.962532 L 46.110399,7.8349339 H 0.75416665 L 9.5312531,0.74026738"
       style="fill:#ffaa00;fill-opacity:1;fill-rule:nonzero;stroke:none;stroke-width:0.13333333"
       id="path22" /><path
       inkscape:connector-curvature="0"
       d="M 9.5312531,0.74026738 H 51.962532 L 46.110399,7.8349339 H 0.75416665 Z"
       style="fill:none;stroke:#000000;stroke-width:0.5333333;stroke-linecap:butt;stroke-linejoin:miter;stroke-miterlimit:4;stroke-dasharray:none;stroke-opacity:1"
       id="path24" /><path
       inkscape:connector-curvature="0"
       d="M 43.528666,25.9788 H 5.1343732 v 0 0.842133 L 2.4442666,25.374 5.1343732,23.8636 v 0.848 H 43.502666 l 0.026,1.2672"
       style="fill:#000000;fill-opacity:1;fill-rule:evenodd;stroke:none;stroke-width:0.13333333"
       id="path26" /><path
       inkscape:connector-curvature="0"
       d="M 9.6291731,13.293334 H 37.329732 c 1.093734,0 1.973334,0.8828 1.973334,1.974 V 36.13708 c 0,1.088546 -0.8796,1.97032 -1.973334,1.97032 H 9.6291731 c -1.0901066,0 -1.97292,-0.881774 -1.97292,-1.97032 V 15.267334 c 0,-1.0912 0.8828134,-1.974 1.97292,-1.974"
       style="fill:#000000;fill-opacity:1;fill-rule:nonzero;stroke:none;stroke-width:0.13333333"
       id="path28" /><path
       inkscape:connector-curvature="0"
       d="M 9.6291731,13.293334 H 37.329732 c 1.093734,0 1.973334,0.8828 1.973334,1.974 V 36.13708 c 0,1.088546 -0.8796,1.97032 -1.973334,1.97032 H 9.6291731 c -1.0901066,0 -1.97292,-0.881774 -1.97292,-1.97032 V 15.267334 c 0,-1.0912 0.8828134,-1.974 1.97292,-1.974 z"
       style="fill:none;stroke:#000000;stroke-width:0.42666668;stroke-linecap:butt;stroke-linejoin:miter;stroke-miterlimit:4;stroke-dasharray:none;stroke-opacity:1"
       id="path30" /><path
       inkscape:connector-curvature="0"
       d="M 23.131199,15.5136 H 9.2098931 V 29.43552 H 23.131199 V 15.5136"
       style="fill:#999999;fill-opacity:1;fill-rule:nonzero;stroke:none;stroke-width:0.13333333"
       id="path32" /><path
       inkscape:connector-curvature="0"
       d="m 11.607813,18.171467 h 9.12912"
       style="fill:none;stroke:#000000;stroke-width:0.58666664;stroke-linecap:round;stroke-linejoin:round;stroke-miterlimit:4;stroke-dasharray:none;stroke-opacity:1"
       id="path34" /><path
       inkscape:connector-curvature="0"
       d="m 11.607813,19.9772 h 9.12912"
       style="fill:none;stroke:#000000;stroke-width:0.58666664;stroke-linecap:round;stroke-linejoin:round;stroke-miterlimit:4;stroke-dasharray:none;stroke-opacity:1"
       id="path36" /><path
       inkscape:connector-curvature="0"
       d="m 11.607813,21.783467 h 9.12912"
       style="fill:none;stroke:#000000;stroke-width:0.58666664;stroke-linecap:round;stroke-linejoin:round;stroke-miterlimit:4;stroke-dasharray:none;stroke-opacity:1"
       id="path38" /><path
       inkscape:connector-curvature="0"
       d="m 11.607813,23.588133 h 9.12912"
       style="fill:none;stroke:#000000;stroke-width:0.58666664;stroke-linecap:round;stroke-linejoin:round;stroke-miterlimit:4;stroke-dasharray:none;stroke-opacity:1"
       id="path40" /><path
       inkscape:connector-curvature="0"
       d="m 11.607813,25.393867 h 9.12912"
       style="fill:none;stroke:#000000;stroke-width:0.58666664;stroke-linecap:round;stroke-linejoin:round;stroke-miterlimit:4;stroke-dasharray:none;stroke-opacity:1"
       id="path42" /><path
       inkscape:connector-curvature="0"
       d="m 11.607813,27.200133 h 9.12912"
       style="fill:none;stroke:#000000;stroke-width:0.58666664;stroke-linecap:round;stroke-linejoin:round;stroke-miterlimit:4;stroke-dasharray:none;stroke-opacity:1"
       id="path44" /><path
       inkscape:connector-curvature="0"
       d="M 37.769332,21.852134 H 22.457333 V 37.166253 H 37.769332 V 21.852134"
       style="fill:#999999;fill-opacity:1;fill-rule:nonzero;stroke:none;stroke-width:0.13333333"
       id="path46" /><path
       inkscape:connector-curvature="0"
       d="M 37.769332,21.852134 H 22.457333 v 15.314119 h 15.311999 z"
       style="fill:none;stroke:#000000;stroke-width:0.43999997;stroke-linecap:round;stroke-linejoin:round;stroke-miterlimit:4;stroke-dasharray:none;stroke-opacity:1"
       id="path48" /><path
       inkscape:connector-curvature="0"
       d="m 30.938533,30.453747 c 0.978133,-0.319267 1.689066,-1.224014 1.689066,-2.30828 0,-1.340134 -1.092133,-2.433867 -2.434933,-2.433867 -1.347333,0 -2.437467,1.093733 -2.437467,2.433867 0,1.049466 0.668267,1.93328 1.5912,2.27808 -1.041733,0.07968 -2.162533,0.372386 -3.291733,1.05364 v 6.309893 h 8.1156 v -6.309893 c 0,0 -1.331733,-0.80104 -3.231733,-1.02344"
       style="fill:#000000;fill-opacity:1;fill-rule:nonzero;stroke:none;stroke-width:0.13333333"
       id="path50" /><path
       inkscape:connector-curvature="0"
       d="m 43.221332,30.789693 h -0.950533 v -0.84792 l -2.690133,1.510414 2.690133,1.44688 V 32.05636 h 0.950533 v 7.22812 h 1.266667 v -7.22812 -1.266667 h -1.266667"
       style="fill:#000000;fill-opacity:1;fill-rule:evenodd;stroke:none;stroke-width:0.13333333"
       id="path52" /><path
       inkscape:connector-curvature="0"
       d="m 28.391733,31.500627 c -0.1224,0.15208 -0.09747,0.37344 0.0552,0.495826 0.1504,0.12136 0.3724,0.09792 0.4932,-0.05312 0.123866,-0.15104 0.09733,-0.3724 -0.05373,-0.494786 -0.1504,-0.1224 -0.3724,-0.09896 -0.494666,0.05208"
       style="fill:#100f0d;fill-opacity:1;fill-rule:nonzero;stroke:none;stroke-width:0.13333333"
       id="path54" /><path
       inkscape:connector-curvature="0"
       d="m 25.730666,29.800107 c 0.3344,0.534893 1.155733,1.261973 1.9448,1.70572 0.521467,0.29272 0.909467,0.39584 1.083333,0.31772"
       style="fill:none;stroke:#231f20;stroke-width:0.26666665;stroke-linecap:butt;stroke-linejoin:round;stroke-miterlimit:4;stroke-dasharray:none;stroke-opacity:1"
       id="path56" /><path
       inkscape:connector-curvature="0"
       d="m 26.503599,28.9512 c 0,0.43068 -0.348933,0.7812 -0.780666,0.7812 -0.432267,0 -0.7812,-0.35052 -0.7812,-0.7812 0,-0.4324 0.348933,-0.781333 0.7812,-0.781333 0.431733,0 0.780666,0.348933 0.780666,0.781333"
       style="fill:#100f0d;fill-opacity:1;fill-rule:nonzero;stroke:none;stroke-width:0.13333333"
       id="path58" /><path
       inkscape:connector-curvature="0"
       d="m 33.649466,28.9512 c 0,0.43068 0.352133,0.7812 0.7828,0.7812 0.431333,0 0.781333,-0.35052 0.781333,-0.7812 0,-0.4324 -0.35,-0.781333 -0.781333,-0.781333 -0.430667,0 -0.7828,0.348933 -0.7828,0.781333"
       style="fill:#100f0d;fill-opacity:1;fill-rule:nonzero;stroke:none;stroke-width:0.13333333"
       id="path60" /><path
       inkscape:connector-curvature="0"
       d="m 30.059866,23.038667 c 0,0 4.798533,0.1364 4.798533,4.785866 v 0.824534 l -0.523467,-0.07453 0.216134,-0.675466 c -0.04427,-4.562534 -4.4912,-4.445334 -4.4912,-4.445334 h 0.03547 c 0,0 -4.191734,-0.2344 -4.472934,4.2656 l 0.198934,0.8552 -0.525467,0.07453 v -0.824534 c 0,-4.649466 4.799467,-4.785866 4.799467,-4.785866"
       style="fill:#231f20;fill-opacity:1;fill-rule:nonzero;stroke:none;stroke-width:0.13333333"
       id="path62" /><path
       inkscape:connector-curvature="0"
       d="m 30.059866,23.038667 c 0,0 4.798533,0.1364 4.798533,4.785866 v 0.824534 l -0.523467,-0.07453 0.216134,-0.675466 c -0.04427,-4.562534 -4.4912,-4.445334 -4.4912,-4.445334 h 0.03547 c 0,0 -4.191734,-0.2344 -4.472934,4.2656 l 0.198934,0.8552 -0.525467,0.07453 v -0.824534 c 0,-4.649466 4.799467,-4.785866 4.799467,-4.785866"
       style="fill:none;stroke:#231f20;stroke-width:0.08;stroke-linecap:butt;stroke-linejoin:miter;stroke-miterlimit:4;stroke-dasharray:none;stroke-opacity:1"
       id="path64" /><path
       inkscape:connector-curvature="0"
       d="m 21.615599,26.911067 c -0.2416,0.02547 -0.4568,-0.1448 -0.485333,-0.386 -0.0276,-0.240534 0.1448,-0.4568 0.385333,-0.4844 0.2412,-0.02853 0.4584,0.1448 0.486,0.385466 0.02707,0.238534 -0.147466,0.457334 -0.386,0.484934"
       style="fill:#000000;fill-opacity:1;fill-rule:nonzero;stroke:none;stroke-width:0.13333333"
       id="path66" /><path
       inkscape:connector-curvature="0"
       d="m 21.615599,26.911067 c -0.2416,0.02547 -0.4568,-0.1448 -0.485333,-0.386 -0.0276,-0.240534 0.1448,-0.4568 0.385333,-0.4844 0.2412,-0.02853 0.4584,0.1448 0.486,0.385466 0.02707,0.238534 -0.147466,0.457334 -0.386,0.484934 z"
       style="fill:none;stroke:#231f20;stroke-width:0.33333331;stroke-linecap:butt;stroke-linejoin:miter;stroke-miterlimit:4;stroke-dasharray:none;stroke-opacity:1"
       id="path68" /><path
       inkscape:connector-curvature="0"
       d="m 21.885466,25.967867 -0.7552,0.9296 -2.6824,-2.183334 0.752667,-0.9296 2.684933,2.183334"
       style="fill:#000000;fill-opacity:1;fill-rule:nonzero;stroke:none;stroke-width:0.13333333"
       id="path70" /><path
       inkscape:connector-curvature="0"
       d="m 21.885466,25.967867 -0.7552,0.9296 -2.6824,-2.183334 0.752667,-0.9296 z"
       style="fill:none;stroke:#231f20;stroke-width:0.33333331;stroke-linecap:butt;stroke-linejoin:miter;stroke-miterlimit:4;stroke-dasharray:none;stroke-opacity:1"
       id="path72" /><path
       inkscape:connector-curvature="0"
       d="m 11.7776,21.790667 c 0.21876,-1.909867 1.948933,-3.283733 3.8568,-3.065067 1.906266,0.219334 3.282266,1.949467 3.064533,3.857334 C 18.481733,24.4912 16.75,25.8652 14.8412,25.647467 12.933853,25.4288 11.555733,23.698533 11.7776,21.790667 Z M 11.214586,21.7256 c -0.254693,2.2204 1.341147,4.2308 3.561414,4.484933 2.2204,0.254667 4.2328,-1.345333 4.486,-3.564133 0.252,-2.218666 -1.343734,-4.229066 -3.564134,-4.484266 -2.218666,-0.252667 -4.23016,1.3448 -4.48328,3.563466"
       style="fill:#000000;fill-opacity:1;fill-rule:nonzero;stroke:none;stroke-width:0.13333333"
       id="path74" /><path
       inkscape:connector-curvature="0"
       d="m 11.7776,21.790667 c 0.21876,-1.909867 1.948933,-3.283733 3.8568,-3.065067 1.906266,0.219334 3.282266,1.949467 3.064533,3.857334 C 18.481733,24.4912 16.75,25.8652 14.8412,25.647467 12.933853,25.4288 11.555733,23.698533 11.7776,21.790667 Z M 11.214586,21.7256 c -0.254693,2.2204 1.341147,4.2308 3.561414,4.484933 2.2204,0.254667 4.2328,-1.345333 4.486,-3.564133 0.252,-2.218666 -1.343734,-4.229066 -3.564134,-4.484266 -2.218666,-0.252667 -4.23016,1.3448 -4.48328,3.563466 z"
       style="fill:none;stroke:#231f20;stroke-width:0.33333331;stroke-linecap:butt;stroke-linejoin:miter;stroke-miterlimit:4;stroke-dasharray:none;stroke-opacity:1"
       id="path76" /><path
       inkscape:connector-curvature="0"
       d="m 12.236973,21.432934 c 0.2198,-1.908934 1.949027,-3.285467 3.85836,-3.064134 1.908267,0.217734 3.283867,1.949467 3.064533,3.8568 -0.219733,1.906267 -1.948933,3.2828 -3.857733,3.064133 -1.906267,-0.2172 -3.282347,-1.948 -3.06516,-3.856799 z m -0.560933,-0.06507 c -0.25416,2.220266 1.343746,4.2328 3.560893,4.485333 2.2188,0.2552 4.231867,-1.3448 4.486,-3.564533 0.2536,-2.216133 -1.343733,-4.229733 -3.564133,-4.484933 -2.217067,-0.252534 -4.23172,1.346933 -4.48276,3.564133"
       style="fill:#000000;fill-opacity:1;fill-rule:nonzero;stroke:none;stroke-width:0.13333333"
       id="path78" /><path
       inkscape:connector-curvature="0"
       d="m 12.236973,21.432934 c 0.2198,-1.908934 1.949027,-3.285467 3.85836,-3.064134 1.908267,0.217734 3.283867,1.949467 3.064533,3.8568 -0.219733,1.906267 -1.948933,3.2828 -3.857733,3.064133 -1.906267,-0.2172 -3.282347,-1.948 -3.06516,-3.856799 z m -0.560933,-0.06507 c -0.25416,2.220266 1.343746,4.2328 3.560893,4.485333 2.2188,0.2552 4.231867,-1.3448 4.486,-3.564533 0.2536,-2.216133 -1.343733,-4.229733 -3.564133,-4.484933 -2.217067,-0.252534 -4.23172,1.346933 -4.48276,3.564133 z"
       style="fill:none;stroke:#231f20;stroke-width:0.33333331;stroke-linecap:butt;stroke-linejoin:miter;stroke-miterlimit:4;stroke-dasharray:none;stroke-opacity:1"
       id="path80" /><path
       inkscape:connector-curvature="0"
       d="M 15.230666,15.490267 V 11.734934 H 14.388 l 1.446933,-2.6900002 1.5104,2.6900002 h -0.848 v 3.7292 l -1.266667,0.02613"
       style="fill:#999999;fill-opacity:1;fill-rule:evenodd;stroke:none;stroke-width:0.13333333"
       id="path82" /></g></svg>