<?xml version="1.0" encoding="UTF-8" standalone="no"?>
<svg
   xmlns:dc="http://purl.org/dc/elements/1.1/"
   xmlns:cc="http://creativecommons.org/ns#"
   xmlns:rdf="http://www.w3.org/1999/02/22-rdf-syntax-ns#"
   xmlns:svg="http://www.w3.org/2000/svg"
   xmlns="http://www.w3.org/2000/svg"
   xmlns:sodipodi="http://sodipodi.sourceforge.net/DTD/sodipodi-0.dtd"
   xmlns:inkscape="http://www.inkscape.org/namespaces/inkscape"
   version="1.1"
   width="511.0000"
   height="512.0000"
   id="svg948"
   sodipodi:docname="Anti-Botnet02.svg"
   inkscape:version="0.92.3 (2405546, 2018-03-11)">
  <metadata
     id="metadata954">
    <rdf:RDF>
      <cc:Work
         rdf:about="">
        <dc:format>image/svg+xml</dc:format>
        <dc:type
           rdf:resource="http://purl.org/dc/dcmitype/StillImage" />
      </cc:Work>
    </rdf:RDF>
  </metadata>
  <defs
     id="defs952" />
  <sodipodi:namedview
     pagecolor="#707070"
     bordercolor="#666666"
     borderopacity="1"
     objecttolerance="10"
     gridtolerance="10"
     guidetolerance="10"
     inkscape:pageopacity="0"
     inkscape:pageshadow="2"
     inkscape:window-width="1551"
     inkscape:window-height="836"
     id="namedview950"
     showgrid="false"
     inkscape:zoom="1.265625"
     inkscape:cx="255.5"
     inkscape:cy="256"
     inkscape:window-x="49"
     inkscape:window-y="27"
     inkscape:window-maximized="1"
     inkscape:current-layer="svg948" />
  <g
     transform="translate(-32.0000, -32.0000)"
     id="g946"
     style="fill:#707070">
    <path
       d="M 288.0000,73.0000 C 169.0000,73.0000 72.0000,169.0000 72.0000,288.0000 C 72.0000,407.0000 169.0000,504.0000 288.0000,504.0000 C 407.0000,504.0000 503.0000,407.0000 503.0000,288.0000 C 503.0000,169.0000 407.0000,73.0000 288.0000,73.0000 M 288.0000,33.0000 C 428.0000,33.0000 542.0000,147.0000 542.0000,288.0000 C 542.0000,429.0000 428.0000,543.0000 288.0000,543.0000 C 147.0000,543.0000 33.0000,429.0000 33.0000,288.0000 C 33.0000,147.0000 147.0000,33.0000 288.0000,33.0000 "
       fill="#425152"
       stroke="none"
       id="path926"
       style="fill:#707070" />
    <path
       d="M 288.0000,73.0000 C 288.0000,71.0000 288.0000,71.0000 288.0000,71.0000 C 168.0000,71.0000 71.0000,168.0000 71.0000,288.0000 C 71.0000,408.0000 168.0000,505.0000 288.0000,505.0000 C 407.0000,505.0000 504.0000,408.0000 504.0000,288.0000 C 504.0000,168.0000 407.0000,71.0000 288.0000,71.0000 C 288.0000,73.0000 288.0000,73.0000 288.0000,73.0000 C 288.0000,74.0000 288.0000,74.0000 288.0000,74.0000 C 347.0000,74.0000 400.0000,98.0000 439.0000,136.0000 C 478.0000,175.0000 502.0000,229.0000 502.0000,288.0000 C 502.0000,347.0000 478.0000,401.0000 439.0000,440.0000 C 400.0000,478.0000 347.0000,502.0000 288.0000,502.0000 C 228.0000,502.0000 175.0000,478.0000 136.0000,440.0000 C 97.0000,401.0000 73.0000,347.0000 73.0000,288.0000 C 73.0000,229.0000 97.0000,175.0000 136.0000,136.0000 C 175.0000,98.0000 228.0000,74.0000 288.0000,74.0000 C 288.0000,73.0000 288.0000,73.0000 288.0000,73.0000 M 288.0000,33.0000 C 288.0000,35.0000 288.0000,35.0000 288.0000,35.0000 C 358.0000,35.0000 421.0000,63.0000 467.0000,109.0000 C 513.0000,155.0000 541.0000,218.0000 541.0000,288.0000 C 541.0000,358.0000 513.0000,421.0000 467.0000,467.0000 C 421.0000,513.0000 358.0000,541.0000 288.0000,541.0000 C 218.0000,541.0000 154.0000,513.0000 108.0000,467.0000 C 63.0000,421.0000 34.0000,358.0000 34.0000,288.0000 C 34.0000,218.0000 63.0000,155.0000 108.0000,109.0000 C 154.0000,63.0000 218.0000,35.0000 288.0000,35.0000 C 288.0000,33.0000 288.0000,33.0000 288.0000,33.0000 C 288.0000,32.0000 288.0000,32.0000 288.0000,32.0000 C 146.0000,32.0000 32.0000,147.0000 32.0000,288.0000 C 32.0000,429.0000 146.0000,544.0000 288.0000,544.0000 C 429.0000,544.0000 543.0000,429.0000 543.0000,288.0000 C 543.0000,147.0000 429.0000,32.0000 288.0000,32.0000 C 288.0000,33.0000 288.0000,33.0000 288.0000,33.0000 "
       fill="#333E48"
       stroke="none"
       id="path928"
       style="fill:#707070" />
    <path
       d="M 119.0000,155.0000 C 111.0000,166.0000 104.0000,177.0000 98.0000,189.0000 C 454.0000,423.0000 454.0000,423.0000 454.0000,423.0000 C 462.0000,413.0000 470.0000,402.0000 476.0000,390.0000 C 119.0000,155.0000 119.0000,155.0000 119.0000,155.0000 "
       fill="#8E9394"
       stroke="none"
       id="path930"
       style="fill:#707070" />
    <path
       d="M 478.0000,391.0000 C 472.0000,403.0000 464.0000,414.0000 456.0000,424.0000 C 470.0000,434.0000 470.0000,434.0000 470.0000,434.0000 C 492.0000,400.0000 492.0000,400.0000 492.0000,400.0000 C 478.0000,391.0000 478.0000,391.0000 478.0000,391.0000 M 114.0000,152.0000 C 92.0000,185.0000 92.0000,185.0000 92.0000,185.0000 C 96.0000,188.0000 96.0000,188.0000 96.0000,188.0000 C 102.0000,176.0000 109.0000,164.0000 117.0000,154.0000 C 114.0000,152.0000 114.0000,152.0000 114.0000,152.0000 "
       fill="#425252"
       stroke="none"
       id="path932"
       style="fill:#707070" />
    <path
       d="M 476.0000,390.0000 C 470.0000,402.0000 462.0000,413.0000 454.0000,423.0000 C 456.0000,424.0000 456.0000,424.0000 456.0000,424.0000 C 464.0000,414.0000 472.0000,403.0000 478.0000,391.0000 C 476.0000,390.0000 476.0000,390.0000 476.0000,390.0000 M 117.0000,154.0000 C 109.0000,164.0000 102.0000,176.0000 96.0000,188.0000 C 98.0000,189.0000 98.0000,189.0000 98.0000,189.0000 C 104.0000,177.0000 111.0000,166.0000 119.0000,155.0000 C 117.0000,154.0000 117.0000,154.0000 117.0000,154.0000 "
       fill="#3B484D"
       stroke="none"
       id="path934"
       style="fill:#707070" />
    <path
       d="M 374.0000,383.0000 C 200.0000,383.0000 200.0000,383.0000 200.0000,383.0000 C 194.0000,383.0000 189.0000,378.0000 189.0000,372.0000 C 189.0000,366.0000 194.0000,361.0000 200.0000,361.0000 C 374.0000,361.0000 374.0000,361.0000 374.0000,361.0000 C 380.0000,361.0000 385.0000,366.0000 385.0000,372.0000 C 385.0000,378.0000 380.0000,383.0000 374.0000,383.0000 Z "
       fill="#425152"
       stroke="none"
       id="path936"
       style="fill:#707070" />
    <path
       d="M 356.0000,414.0000 C 219.0000,414.0000 219.0000,414.0000 219.0000,414.0000 C 213.0000,414.0000 208.0000,409.0000 208.0000,403.0000 C 208.0000,397.0000 213.0000,393.0000 219.0000,393.0000 C 356.0000,393.0000 356.0000,393.0000 356.0000,393.0000 C 362.0000,393.0000 367.0000,397.0000 367.0000,403.0000 C 367.0000,409.0000 362.0000,414.0000 356.0000,414.0000 Z "
       fill="#425152"
       stroke="none"
       id="path938"
       style="fill:#707070" />
    <path
       d="M 302.0000,155.0000 C 302.0000,163.0000 295.0000,169.0000 288.0000,169.0000 C 280.0000,169.0000 274.0000,163.0000 274.0000,155.0000 C 274.0000,148.0000 280.0000,141.0000 288.0000,141.0000 C 295.0000,141.0000 302.0000,148.0000 302.0000,155.0000 Z "
       fill="#425152"
       stroke="none"
       id="path940"
       style="fill:#707070" />
    <path
       d="M 426.0000,245.0000 C 421.0000,245.0000 416.0000,249.0000 415.0000,254.0000 C 415.0000,226.0000 415.0000,226.0000 415.0000,226.0000 C 415.0000,211.0000 403.0000,200.0000 389.0000,200.0000 C 294.0000,200.0000 294.0000,200.0000 294.0000,200.0000 C 294.0000,169.0000 294.0000,169.0000 294.0000,169.0000 C 294.0000,165.0000 291.0000,161.0000 287.0000,161.0000 C 283.0000,161.0000 280.0000,165.0000 280.0000,169.0000 C 280.0000,200.0000 280.0000,200.0000 280.0000,200.0000 C 185.0000,200.0000 185.0000,200.0000 185.0000,200.0000 C 170.0000,200.0000 159.0000,211.0000 159.0000,226.0000 C 159.0000,254.0000 159.0000,254.0000 159.0000,254.0000 C 158.0000,249.0000 153.0000,245.0000 148.0000,245.0000 C 141.0000,245.0000 136.0000,250.0000 136.0000,256.0000 C 136.0000,298.0000 136.0000,298.0000 136.0000,298.0000 C 136.0000,304.0000 141.0000,309.0000 148.0000,309.0000 C 153.0000,309.0000 158.0000,305.0000 159.0000,300.0000 C 159.0000,324.0000 159.0000,324.0000 159.0000,324.0000 C 159.0000,339.0000 170.0000,350.0000 185.0000,350.0000 C 389.0000,350.0000 389.0000,350.0000 389.0000,350.0000 C 403.0000,350.0000 415.0000,339.0000 415.0000,324.0000 C 415.0000,299.0000 415.0000,299.0000 415.0000,299.0000 C 416.0000,305.0000 421.0000,309.0000 426.0000,309.0000 C 432.0000,309.0000 437.0000,303.0000 437.0000,297.0000 C 437.0000,256.0000 437.0000,256.0000 437.0000,256.0000 C 437.0000,250.0000 432.0000,245.0000 426.0000,245.0000 Z M 219.0000,275.0000 C 205.0000,275.0000 193.0000,265.0000 193.0000,251.0000 C 193.0000,238.0000 205.0000,228.0000 219.0000,228.0000 C 245.0000,228.0000 245.0000,228.0000 245.0000,228.0000 C 260.0000,228.0000 271.0000,238.0000 271.0000,251.0000 C 271.0000,265.0000 260.0000,275.0000 245.0000,275.0000 Z M 315.0000,324.0000 C 259.0000,324.0000 259.0000,324.0000 259.0000,324.0000 C 254.0000,324.0000 250.0000,320.0000 250.0000,315.0000 C 250.0000,310.0000 254.0000,306.0000 259.0000,306.0000 C 315.0000,306.0000 315.0000,306.0000 315.0000,306.0000 C 320.0000,306.0000 324.0000,310.0000 324.0000,315.0000 C 324.0000,320.0000 320.0000,324.0000 315.0000,324.0000 Z M 355.0000,275.0000 C 329.0000,275.0000 329.0000,275.0000 329.0000,275.0000 C 314.0000,275.0000 302.0000,265.0000 302.0000,251.0000 C 302.0000,238.0000 314.0000,228.0000 329.0000,228.0000 C 355.0000,228.0000 355.0000,228.0000 355.0000,228.0000 C 369.0000,228.0000 381.0000,238.0000 381.0000,251.0000 C 381.0000,265.0000 369.0000,275.0000 355.0000,275.0000 Z "
       fill="#425152"
       stroke="none"
       id="path942"
       style="fill:#707070" />
    <path
       d="M 426.0000,245.0000 C 421.0000,245.0000 416.0000,249.0000 415.0000,254.0000 C 415.0000,226.0000 415.0000,226.0000 415.0000,226.0000 C 415.0000,211.0000 403.0000,200.0000 389.0000,200.0000 C 294.0000,200.0000 294.0000,200.0000 294.0000,200.0000 C 294.0000,169.0000 294.0000,169.0000 294.0000,169.0000 C 294.0000,165.0000 291.0000,161.0000 287.0000,161.0000 C 283.0000,161.0000 280.0000,165.0000 280.0000,169.0000 C 280.0000,200.0000 280.0000,200.0000 280.0000,200.0000 C 185.0000,200.0000 185.0000,200.0000 185.0000,200.0000 C 170.0000,200.0000 159.0000,211.0000 159.0000,226.0000 C 159.0000,254.0000 159.0000,254.0000 159.0000,254.0000 C 158.0000,249.0000 153.0000,245.0000 148.0000,245.0000 C 141.0000,245.0000 136.0000,250.0000 136.0000,256.0000 C 136.0000,298.0000 136.0000,298.0000 136.0000,298.0000 C 136.0000,304.0000 141.0000,309.0000 148.0000,309.0000 C 153.0000,309.0000 158.0000,305.0000 159.0000,300.0000 C 159.0000,324.0000 159.0000,324.0000 159.0000,324.0000 C 159.0000,339.0000 170.0000,350.0000 185.0000,350.0000 C 389.0000,350.0000 389.0000,350.0000 389.0000,350.0000 C 403.0000,350.0000 415.0000,339.0000 415.0000,324.0000 C 415.0000,299.0000 415.0000,299.0000 415.0000,299.0000 C 416.0000,305.0000 421.0000,309.0000 426.0000,309.0000 C 432.0000,309.0000 437.0000,303.0000 437.0000,297.0000 C 437.0000,256.0000 437.0000,256.0000 437.0000,256.0000 C 437.0000,250.0000 432.0000,245.0000 426.0000,245.0000 Z M 219.0000,275.0000 C 205.0000,275.0000 193.0000,265.0000 193.0000,251.0000 C 193.0000,238.0000 205.0000,228.0000 219.0000,228.0000 C 245.0000,228.0000 245.0000,228.0000 245.0000,228.0000 C 260.0000,228.0000 271.0000,238.0000 271.0000,251.0000 C 271.0000,265.0000 260.0000,275.0000 245.0000,275.0000 Z M 315.0000,324.0000 C 259.0000,324.0000 259.0000,324.0000 259.0000,324.0000 C 254.0000,324.0000 250.0000,320.0000 250.0000,315.0000 C 250.0000,310.0000 254.0000,306.0000 259.0000,306.0000 C 315.0000,306.0000 315.0000,306.0000 315.0000,306.0000 C 320.0000,306.0000 324.0000,310.0000 324.0000,315.0000 C 324.0000,320.0000 320.0000,324.0000 315.0000,324.0000 Z M 355.0000,275.0000 C 329.0000,275.0000 329.0000,275.0000 329.0000,275.0000 C 314.0000,275.0000 302.0000,265.0000 302.0000,251.0000 C 302.0000,238.0000 314.0000,228.0000 329.0000,228.0000 C 355.0000,228.0000 355.0000,228.0000 355.0000,228.0000 C 369.0000,228.0000 381.0000,238.0000 381.0000,251.0000 C 381.0000,265.0000 369.0000,275.0000 355.0000,275.0000 Z "
       fill="#425152"
       stroke="none"
       id="path944"
       style="fill:#707070" />
  </g>
</svg>
