<?xml version="1.0" encoding="UTF-8" standalone="no"?>
<svg
   xmlns:dc="http://purl.org/dc/elements/1.1/"
   xmlns:cc="http://creativecommons.org/ns#"
   xmlns:rdf="http://www.w3.org/1999/02/22-rdf-syntax-ns#"
   xmlns:svg="http://www.w3.org/2000/svg"
   xmlns="http://www.w3.org/2000/svg"
   xmlns:sodipodi="http://sodipodi.sourceforge.net/DTD/sodipodi-0.dtd"
   xmlns:inkscape="http://www.inkscape.org/namespaces/inkscape"
   version="1.1"
   width="511.0000"
   height="511.0000"
   id="svg16"
   sodipodi:docname="Anti-Vuln02.svg"
   inkscape:version="0.92.3 (2405546, 2018-03-11)">
  <metadata
     id="metadata22">
    <rdf:RDF>
      <cc:Work
         rdf:about="">
        <dc:format>image/svg+xml</dc:format>
        <dc:type
           rdf:resource="http://purl.org/dc/dcmitype/StillImage" />
      </cc:Work>
    </rdf:RDF>
  </metadata>
  <defs
     id="defs20" />
  <sodipodi:namedview
     pagecolor="#707070"
     bordercolor="#666666"
     borderopacity="1"
     objecttolerance="10"
     gridtolerance="10"
     guidetolerance="10"
     inkscape:pageopacity="0"
     inkscape:pageshadow="2"
     inkscape:window-width="838"
     inkscape:window-height="480"
     id="namedview18"
     showgrid="false"
     inkscape:zoom="0.46183953"
     inkscape:cx="255.5"
     inkscape:cy="255.5"
     inkscape:window-x="49"
     inkscape:window-y="27"
     inkscape:window-maximized="0"
     inkscape:current-layer="svg16" />
  <g
     transform="translate(-32.0000, 543.0000)"
     id="g14"
     style="fill:#707070">
    <path
       d="M 288.0000,-503.0000 C 169.0000,-503.0000 72.0000,-407.0000 72.0000,-287.0000 C 72.0000,-168.0000 169.0000,-72.0000 288.0000,-72.0000 C 407.0000,-72.0000 503.0000,-168.0000 503.0000,-287.0000 C 503.0000,-407.0000 407.0000,-503.0000 288.0000,-503.0000 M 288.0000,-542.0000 C 428.0000,-542.0000 542.0000,-428.0000 542.0000,-287.0000 C 542.0000,-147.0000 428.0000,-33.0000 288.0000,-33.0000 C 147.0000,-33.0000 33.0000,-147.0000 33.0000,-287.0000 C 33.0000,-428.0000 147.0000,-542.0000 288.0000,-542.0000 "
       fill="#425152"
       stroke="none"
       id="path2"
       style="fill:#707070" />
    <path
       d="M 288.0000,-503.0000 C 288.0000,-504.0000 288.0000,-504.0000 288.0000,-504.0000 C 168.0000,-504.0000 71.0000,-407.0000 71.0000,-287.0000 C 71.0000,-168.0000 168.0000,-71.0000 288.0000,-71.0000 C 407.0000,-71.0000 504.0000,-168.0000 504.0000,-287.0000 C 504.0000,-407.0000 407.0000,-504.0000 288.0000,-504.0000 C 288.0000,-503.0000 288.0000,-503.0000 288.0000,-503.0000 C 288.0000,-502.0000 288.0000,-502.0000 288.0000,-502.0000 C 347.0000,-502.0000 400.0000,-478.0000 439.0000,-439.0000 C 478.0000,-400.0000 502.0000,-347.0000 502.0000,-287.0000 C 502.0000,-228.0000 478.0000,-175.0000 439.0000,-136.0000 C 400.0000,-97.0000 347.0000,-73.0000 288.0000,-73.0000 C 228.0000,-73.0000 175.0000,-97.0000 136.0000,-136.0000 C 97.0000,-175.0000 73.0000,-228.0000 73.0000,-287.0000 C 73.0000,-347.0000 97.0000,-400.0000 136.0000,-439.0000 C 175.0000,-478.0000 228.0000,-502.0000 288.0000,-502.0000 C 288.0000,-503.0000 288.0000,-503.0000 288.0000,-503.0000 M 288.0000,-542.0000 C 288.0000,-541.0000 288.0000,-541.0000 288.0000,-541.0000 C 358.0000,-541.0000 421.0000,-513.0000 467.0000,-467.0000 C 513.0000,-421.0000 541.0000,-357.0000 541.0000,-287.0000 C 541.0000,-218.0000 513.0000,-154.0000 467.0000,-108.0000 C 421.0000,-62.0000 358.0000,-34.0000 288.0000,-34.0000 C 218.0000,-34.0000 154.0000,-62.0000 108.0000,-108.0000 C 63.0000,-154.0000 34.0000,-218.0000 34.0000,-287.0000 C 34.0000,-357.0000 63.0000,-421.0000 108.0000,-467.0000 C 154.0000,-513.0000 218.0000,-541.0000 288.0000,-541.0000 C 288.0000,-542.0000 288.0000,-542.0000 288.0000,-542.0000 C 288.0000,-543.0000 288.0000,-543.0000 288.0000,-543.0000 C 146.0000,-543.0000 32.0000,-429.0000 32.0000,-287.0000 C 32.0000,-146.0000 146.0000,-32.0000 288.0000,-32.0000 C 429.0000,-32.0000 543.0000,-146.0000 543.0000,-287.0000 C 543.0000,-429.0000 429.0000,-543.0000 288.0000,-543.0000 C 288.0000,-542.0000 288.0000,-542.0000 288.0000,-542.0000 "
       fill="#333E48"
       stroke="none"
       id="path4"
       style="fill:#707070" />
    <path
       d="M 119.0000,-420.0000 C 111.0000,-410.0000 104.0000,-399.0000 98.0000,-387.0000 C 454.0000,-152.0000 454.0000,-152.0000 454.0000,-152.0000 C 462.0000,-163.0000 470.0000,-174.0000 476.0000,-186.0000 C 119.0000,-420.0000 119.0000,-420.0000 119.0000,-420.0000 "
       fill="#8E9394"
       stroke="none"
       id="path6"
       style="fill:#707070" />
    <path
       d="M 478.0000,-184.0000 C 472.0000,-172.0000 464.0000,-161.0000 456.0000,-151.0000 C 470.0000,-142.0000 470.0000,-142.0000 470.0000,-142.0000 C 492.0000,-175.0000 492.0000,-175.0000 492.0000,-175.0000 C 478.0000,-184.0000 478.0000,-184.0000 478.0000,-184.0000 M 114.0000,-424.0000 C 92.0000,-391.0000 92.0000,-391.0000 92.0000,-391.0000 C 96.0000,-388.0000 96.0000,-388.0000 96.0000,-388.0000 C 102.0000,-400.0000 109.0000,-411.0000 117.0000,-422.0000 C 114.0000,-424.0000 114.0000,-424.0000 114.0000,-424.0000 "
       fill="#425252"
       stroke="none"
       id="path8"
       style="fill:#707070" />
    <path
       d="M 476.0000,-186.0000 C 470.0000,-174.0000 462.0000,-163.0000 454.0000,-152.0000 C 456.0000,-151.0000 456.0000,-151.0000 456.0000,-151.0000 C 464.0000,-161.0000 472.0000,-172.0000 478.0000,-184.0000 C 476.0000,-186.0000 476.0000,-186.0000 476.0000,-186.0000 M 117.0000,-422.0000 C 109.0000,-411.0000 102.0000,-400.0000 96.0000,-388.0000 C 98.0000,-387.0000 98.0000,-387.0000 98.0000,-387.0000 C 104.0000,-399.0000 111.0000,-410.0000 119.0000,-420.0000 C 117.0000,-422.0000 117.0000,-422.0000 117.0000,-422.0000 "
       fill="#3B484D"
       stroke="none"
       id="path10"
       style="fill:#707070" />
    <path
       d="M 404.0000,-344.0000 C 419.0000,-359.0000 419.0000,-359.0000 419.0000,-359.0000 C 421.0000,-361.0000 421.0000,-365.0000 419.0000,-368.0000 C 417.0000,-370.0000 417.0000,-370.0000 417.0000,-370.0000 C 414.0000,-372.0000 410.0000,-372.0000 407.0000,-370.0000 C 398.0000,-361.0000 398.0000,-361.0000 398.0000,-361.0000 C 396.0000,-365.0000 393.0000,-370.0000 389.0000,-373.0000 C 385.0000,-377.0000 381.0000,-380.0000 376.0000,-383.0000 C 385.0000,-392.0000 385.0000,-392.0000 385.0000,-392.0000 C 388.0000,-395.0000 388.0000,-399.0000 385.0000,-401.0000 C 383.0000,-403.0000 383.0000,-403.0000 383.0000,-403.0000 C 381.0000,-406.0000 377.0000,-406.0000 374.0000,-403.0000 C 360.0000,-389.0000 360.0000,-389.0000 360.0000,-389.0000 C 347.0000,-391.0000 332.0000,-390.0000 316.0000,-386.0000 C 310.0000,-358.0000 315.0000,-332.0000 331.0000,-316.0000 C 347.0000,-300.0000 373.0000,-295.0000 402.0000,-301.0000 C 406.0000,-316.0000 407.0000,-331.0000 404.0000,-344.0000 Z M 332.0000,-161.0000 C 310.0000,-183.0000 310.0000,-183.0000 310.0000,-183.0000 C 316.0000,-187.0000 323.0000,-192.0000 329.0000,-197.0000 C 349.0000,-177.0000 349.0000,-177.0000 349.0000,-177.0000 C 351.0000,-175.0000 355.0000,-175.0000 358.0000,-177.0000 C 360.0000,-179.0000 360.0000,-179.0000 360.0000,-179.0000 C 362.0000,-182.0000 362.0000,-186.0000 360.0000,-188.0000 C 341.0000,-207.0000 341.0000,-207.0000 341.0000,-207.0000 C 344.0000,-210.0000 347.0000,-212.0000 350.0000,-215.0000 C 352.0000,-218.0000 355.0000,-221.0000 358.0000,-224.0000 C 376.0000,-205.0000 376.0000,-205.0000 376.0000,-205.0000 C 379.0000,-202.0000 383.0000,-202.0000 386.0000,-205.0000 C 387.0000,-207.0000 387.0000,-207.0000 387.0000,-207.0000 C 390.0000,-209.0000 390.0000,-214.0000 387.0000,-216.0000 C 368.0000,-236.0000 368.0000,-236.0000 368.0000,-236.0000 C 379.0000,-250.0000 389.0000,-266.0000 395.0000,-281.0000 C 365.0000,-277.0000 338.0000,-284.0000 318.0000,-303.0000 C 299.0000,-322.0000 292.0000,-350.0000 297.0000,-379.0000 C 281.0000,-373.0000 266.0000,-364.0000 251.0000,-352.0000 C 231.0000,-372.0000 231.0000,-372.0000 231.0000,-372.0000 C 229.0000,-375.0000 225.0000,-375.0000 222.0000,-372.0000 C 220.0000,-370.0000 220.0000,-370.0000 220.0000,-370.0000 C 218.0000,-368.0000 218.0000,-363.0000 220.0000,-361.0000 C 239.0000,-342.0000 239.0000,-342.0000 239.0000,-342.0000 C 236.0000,-340.0000 233.0000,-337.0000 231.0000,-334.0000 C 228.0000,-331.0000 225.0000,-329.0000 223.0000,-326.0000 C 204.0000,-344.0000 204.0000,-344.0000 204.0000,-344.0000 C 201.0000,-347.0000 197.0000,-347.0000 195.0000,-344.0000 C 193.0000,-342.0000 193.0000,-342.0000 193.0000,-342.0000 C 190.0000,-340.0000 190.0000,-336.0000 193.0000,-333.0000 C 212.0000,-314.0000 212.0000,-314.0000 212.0000,-314.0000 C 207.0000,-307.0000 203.0000,-301.0000 199.0000,-294.0000 C 176.0000,-317.0000 176.0000,-317.0000 176.0000,-317.0000 C 174.0000,-319.0000 169.0000,-319.0000 167.0000,-317.0000 C 165.0000,-315.0000 165.0000,-315.0000 165.0000,-315.0000 C 162.0000,-312.0000 162.0000,-308.0000 165.0000,-306.0000 C 191.0000,-280.0000 191.0000,-280.0000 191.0000,-280.0000 C 170.0000,-239.0000 169.0000,-199.0000 192.0000,-176.0000 C 214.0000,-154.0000 254.0000,-155.0000 295.0000,-175.0000 C 321.0000,-150.0000 321.0000,-150.0000 321.0000,-150.0000 C 324.0000,-147.0000 328.0000,-147.0000 330.0000,-150.0000 C 332.0000,-152.0000 332.0000,-152.0000 332.0000,-152.0000 C 335.0000,-154.0000 335.0000,-158.0000 332.0000,-161.0000 Z "
       fill="#425152"
       stroke="none"
       id="path12"
       style="fill:#707070" />
  </g>
</svg>
