<?xml version="1.0"  encoding="UTF-8" standalone="no"?>
<svg version="1.1" xmlns="http://www.w3.org/2000/svg" xmlns:xlink="http://www.w3.org/1999/xlink" width="685.0000" height="823.0000">
<g transform="translate(56.0000, 134.0000)">
<path d="M 529.0000,-34.0000 C 464.0000,-98.0000 378.0000,-134.0000 287.0000,-134.0000 C 195.0000,-134.0000 109.0000,-98.0000 45.0000,-34.0000 C -20.0000,31.0000 -56.0000,117.0000 -56.0000,209.0000 C -56.0000,300.0000 -20.0000,386.0000 45.0000,451.0000 C 109.0000,516.0000 195.0000,551.0000 287.0000,551.0000 C 378.0000,551.0000 464.0000,516.0000 529.0000,451.0000 C 594.0000,386.0000 629.0000,300.0000 629.0000,209.0000 C 629.0000,117.0000 594.0000,31.0000 529.0000,-34.0000 Z M 509.0000,431.0000 C 450.0000,490.0000 371.0000,523.0000 287.0000,523.0000 C 203.0000,523.0000 124.0000,490.0000 65.0000,431.0000 C 5.0000,371.0000 -27.0000,293.0000 -27.0000,209.0000 C -27.0000,125.0000 5.0000,46.0000 65.0000,-13.0000 C 124.0000,-73.0000 203.0000,-105.0000 287.0000,-105.0000 C 371.0000,-105.0000 450.0000,-73.0000 509.0000,-13.0000 C 568.0000,46.0000 601.0000,125.0000 601.0000,209.0000 C 601.0000,293.0000 568.0000,371.0000 509.0000,431.0000 Z "  fill="#707070" stroke="none" />
<path d="M 165.0000,586.0000 C 130.0000,586.0000 130.0000,586.0000 130.0000,586.0000 C 130.0000,689.0000 130.0000,689.0000 130.0000,689.0000 C 163.0000,689.0000 163.0000,689.0000 163.0000,689.0000 C 191.0000,689.0000 199.0000,673.0000 199.0000,636.0000 C 199.0000,606.0000 193.0000,586.0000 165.0000,586.0000 Z M 160.0000,674.0000 C 151.0000,674.0000 151.0000,674.0000 151.0000,674.0000 C 151.0000,601.0000 151.0000,601.0000 151.0000,601.0000 C 160.0000,601.0000 160.0000,601.0000 160.0000,601.0000 C 176.0000,601.0000 178.0000,613.0000 178.0000,637.0000 C 178.0000,665.0000 175.0000,674.0000 160.0000,674.0000 Z "  fill="#707070" stroke="none" />
<path d="M 233.0000,645.0000 L 268.0000,645.0000 L 268.0000,628.0000 L 233.0000,628.0000 L 233.0000,603.0000 L 270.0000,603.0000 L 270.0000,586.0000 L 212.0000,586.0000 L 212.0000,689.0000 L 272.0000,689.0000 L 272.0000,672.0000 L 233.0000,672.0000 L 233.0000,645.0000 Z "  fill="#707070" stroke-width="1px" stroke="#FFFFFF" />
<path d="M 282.0000,689.0000 L 303.0000,689.0000 L 303.0000,645.0000 L 337.0000,645.0000 L 337.0000,628.0000 L 303.0000,628.0000 L 303.0000,603.0000 L 340.0000,603.0000 L 340.0000,586.0000 L 282.0000,586.0000 L 282.0000,689.0000 Z "  fill="#707070" stroke-width="1px" stroke="#FFFFFF" />
<path d="M 419.0000,663.0000 L 419.0000,663.0000 L 407.0000,586.0000 L 387.0000,586.0000 L 374.0000,663.0000 L 374.0000,663.0000 L 363.0000,586.0000 L 343.0000,586.0000 L 362.0000,689.0000 L 385.0000,689.0000 L 396.0000,614.0000 L 397.0000,614.0000 L 408.0000,689.0000 L 432.0000,689.0000 L 450.0000,586.0000 L 430.0000,586.0000 L 419.0000,663.0000 Z "  fill="#707070" stroke-width="1px" stroke="#FFFFFF" />
<path d="M 245.0000,132.0000 C 251.0000,132.0000 257.0000,133.0000 263.0000,135.0000 C 273.0000,135.0000 273.0000,135.0000 273.0000,135.0000 C 273.0000,28.0000 273.0000,28.0000 273.0000,28.0000 C 77.0000,28.0000 77.0000,28.0000 77.0000,28.0000 C 77.0000,135.0000 77.0000,135.0000 77.0000,135.0000 C 228.0000,135.0000 228.0000,135.0000 228.0000,135.0000 C 233.0000,133.0000 239.0000,132.0000 245.0000,132.0000 Z "  fill="#707070" stroke="none" />
<path d="M 150.0000,157.0000 L 77.0000,157.0000 L 77.0000,264.0000 L 150.0000,264.0000 L 150.0000,157.0000 Z "  fill="#707070" stroke-width="1px" stroke="#FFFFFF" />
<path d="M 239.0000,339.0000 C 239.0000,316.0000 253.0000,295.0000 274.0000,286.0000 C 274.0000,285.0000 274.0000,285.0000 274.0000,285.0000 C 77.0000,285.0000 77.0000,285.0000 77.0000,285.0000 C 77.0000,393.0000 77.0000,393.0000 77.0000,393.0000 C 273.0000,393.0000 273.0000,393.0000 273.0000,393.0000 C 253.0000,384.0000 239.0000,363.0000 239.0000,339.0000 Z "  fill="#707070" stroke="none" />
<path d="M 393.0000,339.0000 C 393.0000,330.0000 395.0000,321.0000 399.0000,313.0000 C 393.0000,306.0000 393.0000,306.0000 393.0000,306.0000 C 380.0000,310.0000 367.0000,310.0000 354.0000,306.0000 C 350.0000,311.0000 350.0000,311.0000 350.0000,311.0000 C 354.0000,320.0000 357.0000,330.0000 357.0000,339.0000 C 357.0000,363.0000 343.0000,384.0000 323.0000,393.0000 C 427.0000,393.0000 427.0000,393.0000 427.0000,393.0000 C 407.0000,384.0000 393.0000,363.0000 393.0000,339.0000 Z "  fill="#707070" stroke="none" />
<path d="M 497.0000,302.0000 C 497.0000,285.0000 497.0000,285.0000 497.0000,285.0000 C 475.0000,285.0000 475.0000,285.0000 475.0000,285.0000 C 484.0000,289.0000 491.0000,295.0000 497.0000,302.0000 Z "  fill="#707070" stroke="none" />
<path d="M 477.0000,393.0000 C 497.0000,393.0000 497.0000,393.0000 497.0000,393.0000 C 497.0000,377.0000 497.0000,377.0000 497.0000,377.0000 C 492.0000,384.0000 485.0000,389.0000 477.0000,393.0000 Z "  fill="#707070" stroke="none" />
<path d="M 398.0000,163.0000 C 412.0000,169.0000 424.0000,178.0000 433.0000,190.0000 C 440.0000,187.0000 440.0000,187.0000 440.0000,187.0000 C 441.0000,176.0000 445.0000,165.0000 452.0000,157.0000 C 398.0000,157.0000 398.0000,157.0000 398.0000,157.0000 Z "  fill="#707070" stroke="none" />
<path d="M 312.0000,189.0000 C 321.0000,177.0000 333.0000,168.0000 347.0000,163.0000 C 347.0000,157.0000 347.0000,157.0000 347.0000,157.0000 C 346.0000,157.0000 346.0000,157.0000 346.0000,157.0000 C 293.0000,157.0000 293.0000,157.0000 293.0000,157.0000 C 299.0000,165.0000 303.0000,175.0000 304.0000,186.0000 Z "  fill="#707070" stroke="none" />
<path d="M 175.0000,157.0000 C 175.0000,264.0000 175.0000,264.0000 175.0000,264.0000 C 304.0000,264.0000 304.0000,264.0000 304.0000,264.0000 C 300.0000,256.0000 298.0000,248.0000 297.0000,239.0000 C 285.0000,234.0000 285.0000,234.0000 285.0000,234.0000 C 274.0000,245.0000 260.0000,250.0000 245.0000,250.0000 C 213.0000,250.0000 186.0000,224.0000 186.0000,191.0000 C 186.0000,179.0000 190.0000,167.0000 197.0000,157.0000 Z "  fill="#707070" stroke="none" />
<path d="M 459.0000,235.0000 C 447.0000,240.0000 447.0000,240.0000 447.0000,240.0000 C 446.0000,248.0000 444.0000,257.0000 441.0000,264.0000 C 496.0000,264.0000 496.0000,264.0000 496.0000,264.0000 C 496.0000,250.0000 496.0000,250.0000 496.0000,250.0000 C 483.0000,250.0000 470.0000,244.0000 459.0000,235.0000 Z "  fill="#707070" stroke="none" />
<path d="M 313.0000,104.0000 C 313.0000,72.0000 339.0000,45.0000 372.0000,45.0000 C 404.0000,45.0000 431.0000,72.0000 431.0000,104.0000 C 431.0000,115.0000 427.0000,126.0000 422.0000,135.0000 C 482.0000,135.0000 482.0000,135.0000 482.0000,135.0000 C 486.0000,134.0000 491.0000,133.0000 496.0000,133.0000 C 496.0000,28.0000 496.0000,28.0000 496.0000,28.0000 C 300.0000,28.0000 300.0000,28.0000 300.0000,28.0000 C 300.0000,135.0000 300.0000,135.0000 300.0000,135.0000 C 321.0000,135.0000 321.0000,135.0000 321.0000,135.0000 C 316.0000,126.0000 313.0000,115.0000 313.0000,104.0000 Z "  fill="#707070" stroke="none" />
<path d="M 499.0000,149.0000 C 476.0000,149.0000 457.0000,168.0000 457.0000,191.0000 C 457.0000,193.0000 457.0000,195.0000 457.0000,198.0000 C 426.0000,210.0000 426.0000,210.0000 426.0000,210.0000 C 418.0000,192.0000 401.0000,179.0000 382.0000,176.0000 C 382.0000,146.0000 382.0000,146.0000 382.0000,146.0000 C 401.0000,141.0000 414.0000,124.0000 414.0000,104.0000 C 414.0000,81.0000 395.0000,62.0000 372.0000,62.0000 C 348.0000,62.0000 329.0000,81.0000 329.0000,104.0000 C 329.0000,125.0000 343.0000,142.0000 363.0000,146.0000 C 363.0000,176.0000 363.0000,176.0000 363.0000,176.0000 C 344.0000,179.0000 327.0000,191.0000 319.0000,209.0000 C 287.0000,197.0000 287.0000,197.0000 287.0000,197.0000 C 288.0000,195.0000 288.0000,193.0000 288.0000,191.0000 C 288.0000,168.0000 269.0000,149.0000 245.0000,149.0000 C 222.0000,149.0000 203.0000,168.0000 203.0000,191.0000 C 203.0000,215.0000 222.0000,234.0000 245.0000,234.0000 C 259.0000,234.0000 272.0000,227.0000 280.0000,215.0000 C 314.0000,228.0000 314.0000,228.0000 314.0000,228.0000 C 314.0000,230.0000 314.0000,232.0000 314.0000,234.0000 C 314.0000,250.0000 320.0000,266.0000 332.0000,277.0000 C 313.0000,300.0000 313.0000,300.0000 313.0000,300.0000 C 308.0000,298.0000 303.0000,297.0000 298.0000,297.0000 C 275.0000,297.0000 255.0000,316.0000 255.0000,339.0000 C 255.0000,363.0000 275.0000,382.0000 298.0000,382.0000 C 322.0000,382.0000 341.0000,363.0000 341.0000,339.0000 C 341.0000,329.0000 337.0000,319.0000 329.0000,311.0000 C 348.0000,287.0000 348.0000,287.0000 348.0000,287.0000 C 364.0000,294.0000 383.0000,294.0000 398.0000,286.0000 C 419.0000,312.0000 419.0000,312.0000 419.0000,312.0000 C 413.0000,320.0000 409.0000,330.0000 409.0000,339.0000 C 409.0000,363.0000 428.0000,382.0000 452.0000,382.0000 C 475.0000,382.0000 494.0000,363.0000 494.0000,339.0000 C 494.0000,316.0000 475.0000,297.0000 452.0000,297.0000 C 446.0000,297.0000 440.0000,298.0000 435.0000,301.0000 C 414.0000,275.0000 414.0000,275.0000 414.0000,275.0000 C 425.0000,264.0000 431.0000,249.0000 431.0000,234.0000 C 431.0000,232.0000 431.0000,230.0000 431.0000,229.0000 C 464.0000,215.0000 464.0000,215.0000 464.0000,215.0000 C 472.0000,227.0000 485.0000,234.0000 499.0000,234.0000 C 523.0000,234.0000 542.0000,215.0000 542.0000,191.0000 C 542.0000,168.0000 523.0000,149.0000 499.0000,149.0000 Z "  fill="#707070" stroke="none" />
</g>
</svg>
