<?xml version="1.0"  encoding="UTF-8" standalone="no"?>
<svg version="1.1" xmlns="http://www.w3.org/2000/svg" xmlns:xlink="http://www.w3.org/1999/xlink" width="836.0000" height="663.0000">
<g transform="translate(139.0000, 58.0000)">
<path d="M -139.0000,138.0000 L 217.0000,138.0000 L 217.0000,-58.0000 L -139.0000,-58.0000 L -139.0000,138.0000 Z "  fill="#707070" stroke-width="1px" stroke="#FFFFFF" />
<path d="M -139.0000,372.0000 L -7.0000,372.0000 L -7.0000,177.0000 L -139.0000,177.0000 L -139.0000,372.0000 Z "  fill="#707070" stroke-width="1px" stroke="#FFFFFF" />
<path d="M 180.0000,410.0000 L -139.0000,410.0000 L -139.0000,605.0000 L 218.0000,605.0000 L 218.0000,506.0000 L 180.0000,485.0000 L 180.0000,410.0000 Z "  fill="#707070" stroke-width="1px" stroke="#FFFFFF" />
<path d="M 267.0000,605.0000 L 393.0000,605.0000 L 267.0000,534.0000 L 267.0000,605.0000 Z "  fill="#707070" stroke-width="1px" stroke="#FFFFFF" />
<path d="M 623.0000,605.0000 L 623.0000,535.0000 L 497.0000,605.0000 L 623.0000,605.0000 Z "  fill="#707070" stroke-width="1px" stroke="#FFFFFF" />
<path d="M 180.0000,177.0000 L 38.0000,177.0000 L 38.0000,372.0000 L 180.0000,372.0000 L 180.0000,177.0000 Z "  fill="#707070" stroke-width="1px" stroke="#FFFFFF" />
<path d="M 621.0000,117.0000 L 621.0000,-58.0000 L 266.0000,-58.0000 L 266.0000,128.0000 L 453.0000,25.0000 L 621.0000,117.0000 Z "  fill="#707070" stroke-width="1px" stroke="#FFFFFF" />
<path d="M 594.0000,233.0000 L 602.0000,248.0000 L 644.0000,224.0000 L 635.0000,209.0000 L 594.0000,233.0000 Z "  fill="#707070" stroke-width="1px" stroke="#FFFFFF" />
<path d="M 653.0000,188.0000 L 663.0000,193.0000 L 657.0000,197.0000 L 665.0000,212.0000 L 697.0000,193.0000 L 661.0000,173.0000 L 653.0000,188.0000 Z "  fill="#707070" stroke-width="1px" stroke="#FFFFFF" />
<path d="M 349.0000,260.0000 L 341.0000,275.0000 L 383.0000,298.0000 L 391.0000,284.0000 L 349.0000,260.0000 Z "  fill="#707070" stroke-width="1px" stroke="#FFFFFF" />
<path d="M 509.0000,282.0000 L 468.0000,306.0000 L 476.0000,321.0000 L 518.0000,297.0000 L 509.0000,282.0000 Z "  fill="#707070" stroke-width="1px" stroke="#FFFFFF" />
<path d="M 328.0000,248.0000 L 286.0000,224.0000 L 278.0000,239.0000 L 320.0000,263.0000 L 328.0000,248.0000 Z "  fill="#707070" stroke-width="1px" stroke="#FFFFFF" />
<path d="M 581.0000,260.0000 L 572.0000,246.0000 L 531.0000,270.0000 L 539.0000,284.0000 L 581.0000,260.0000 Z "  fill="#707070" stroke-width="1px" stroke="#FFFFFF" />
<path d="M 315.0000,130.0000 L 274.0000,154.0000 L 282.0000,169.0000 L 324.0000,145.0000 L 315.0000,130.0000 Z "  fill="#707070" stroke-width="1px" stroke="#FFFFFF" />
<path d="M 264.0000,212.0000 L 235.0000,196.0000 L 261.0000,181.0000 L 252.0000,167.0000 L 204.0000,194.0000 L 204.0000,194.0000 L 204.0000,195.0000 L 202.0000,196.0000 L 204.0000,197.0000 L 204.0000,242.0000 L 220.0000,242.0000 L 220.0000,206.0000 L 256.0000,227.0000 L 264.0000,212.0000 Z "  fill="#707070" stroke-width="1px" stroke="#FFFFFF" />
<path d="M 535.0000,101.0000 L 526.0000,116.0000 L 568.0000,140.0000 L 576.0000,125.0000 L 535.0000,101.0000 Z "  fill="#707070" stroke-width="1px" stroke="#FFFFFF" />
<path d="M 408.0000,96.0000 L 450.0000,72.0000 L 441.0000,57.0000 L 400.0000,81.0000 L 408.0000,96.0000 Z "  fill="#707070" stroke-width="1px" stroke="#FFFFFF" />
<path d="M 505.0000,104.0000 L 513.0000,89.0000 L 471.0000,66.0000 L 463.0000,80.0000 L 505.0000,104.0000 Z "  fill="#707070" stroke-width="1px" stroke="#FFFFFF" />
<path d="M 387.0000,108.0000 L 378.0000,94.0000 L 337.0000,118.0000 L 345.0000,132.0000 L 387.0000,108.0000 Z "  fill="#707070" stroke-width="1px" stroke="#FFFFFF" />
<path d="M 590.0000,152.0000 L 632.0000,176.0000 L 640.0000,161.0000 L 598.0000,137.0000 L 590.0000,152.0000 Z "  fill="#707070" stroke-width="1px" stroke="#FFFFFF" />
<path d="M 676.0000,456.0000 L 666.0000,462.0000 L 674.0000,476.0000 L 693.0000,466.0000 L 693.0000,429.0000 L 676.0000,429.0000 L 676.0000,456.0000 Z "  fill="#707070" stroke-width="1px" stroke="#FFFFFF" />
<path d="M 678.0000,261.0000 L 695.0000,261.0000 L 695.0000,213.0000 L 678.0000,213.0000 L 678.0000,261.0000 Z "  fill="#707070" stroke-width="1px" stroke="#FFFFFF" />
<path d="M 204.0000,386.0000 L 220.0000,386.0000 L 220.0000,338.0000 L 204.0000,338.0000 L 204.0000,386.0000 Z "  fill="#707070" stroke-width="1px" stroke="#FFFFFF" />
<path d="M 677.0000,333.0000 L 694.0000,333.0000 L 694.0000,285.0000 L 678.0000,285.0000 L 677.0000,333.0000 Z "  fill="#707070" stroke-width="1px" stroke="#FFFFFF" />
<path d="M 676.0000,405.0000 L 693.0000,405.0000 L 694.0000,357.0000 L 677.0000,357.0000 L 676.0000,405.0000 Z "  fill="#707070" stroke-width="1px" stroke="#FFFFFF" />
<path d="M 603.0000,497.0000 L 612.0000,512.0000 L 653.0000,488.0000 L 645.0000,474.0000 L 603.0000,497.0000 Z "  fill="#707070" stroke-width="1px" stroke="#FFFFFF" />
<path d="M 204.0000,458.0000 L 220.0000,458.0000 L 220.0000,410.0000 L 204.0000,410.0000 L 204.0000,458.0000 Z "  fill="#707070" stroke-width="1px" stroke="#FFFFFF" />
<path d="M 290.0000,514.0000 L 332.0000,537.0000 L 340.0000,523.0000 L 298.0000,499.0000 L 290.0000,514.0000 Z "  fill="#707070" stroke-width="1px" stroke="#FFFFFF" />
<path d="M 520.0000,544.0000 L 478.0000,568.0000 L 486.0000,582.0000 L 528.0000,559.0000 L 520.0000,544.0000 Z "  fill="#707070" stroke-width="1px" stroke="#FFFFFF" />
<path d="M 591.0000,523.0000 L 583.0000,509.0000 L 541.0000,532.0000 L 549.0000,547.0000 L 591.0000,523.0000 Z "  fill="#707070" stroke-width="1px" stroke="#FFFFFF" />
<path d="M 353.0000,549.0000 L 394.0000,573.0000 L 403.0000,558.0000 L 361.0000,535.0000 L 353.0000,549.0000 Z "  fill="#707070" stroke-width="1px" stroke="#FFFFFF" />
<path d="M 278.0000,487.0000 L 236.0000,464.0000 L 228.0000,478.0000 L 269.0000,502.0000 L 278.0000,487.0000 Z "  fill="#707070" stroke-width="1px" stroke="#FFFFFF" />
<path d="M 204.0000,314.0000 L 220.0000,314.0000 L 220.0000,266.0000 L 204.0000,266.0000 L 204.0000,314.0000 Z "  fill="#707070" stroke-width="1px" stroke="#FFFFFF" />
<path d="M 457.0000,401.0000 L 440.0000,401.0000 L 440.0000,449.0000 L 457.0000,449.0000 L 457.0000,401.0000 Z "  fill="#707070" stroke-width="1px" stroke="#FFFFFF" />
<path d="M 457.0000,580.0000 L 457.0000,545.0000 L 440.0000,545.0000 L 440.0000,580.0000 L 424.0000,570.0000 L 415.0000,585.0000 L 448.0000,604.0000 L 465.0000,594.0000 L 457.0000,580.0000 L 457.0000,580.0000 Z "  fill="#707070" stroke-width="1px" stroke="#FFFFFF" />
<path d="M 440.0000,521.0000 L 457.0000,521.0000 L 457.0000,473.0000 L 440.0000,473.0000 L 440.0000,521.0000 Z "  fill="#707070" stroke-width="1px" stroke="#FFFFFF" />
<path d="M 440.0000,377.0000 L 457.0000,377.0000 L 457.0000,329.0000 L 452.0000,329.0000 L 450.0000,325.0000 L 453.0000,319.0000 L 413.0000,296.0000 L 404.0000,311.0000 L 440.0000,331.0000 L 440.0000,377.0000 Z "  fill="#707070" stroke-width="1px" stroke="#FFFFFF" />
<path d="M 298.0000,412.0000 L 318.0000,349.0000 L 304.0000,341.0000 L 291.0000,386.0000 L 291.0000,385.0000 L 278.0000,326.0000 L 264.0000,318.0000 L 284.0000,403.0000 L 298.0000,412.0000 Z "  fill="#707070" stroke-width="1px" stroke="#FFFFFF" />
<path d="M 386.0000,464.0000 L 386.0000,390.0000 L 368.0000,379.0000 L 355.0000,422.0000 L 355.0000,422.0000 L 341.0000,363.0000 L 323.0000,352.0000 L 323.0000,426.0000 L 335.0000,433.0000 L 335.0000,382.0000 L 335.0000,382.0000 L 350.0000,442.0000 L 360.0000,448.0000 L 374.0000,404.0000 L 374.0000,404.0000 L 374.0000,456.0000 L 386.0000,464.0000 Z "  fill="#707070" stroke-width="1px" stroke="#FFFFFF" />
</g>
</svg>
