<?xml version="1.0"  encoding="UTF-8" standalone="no"?>
<svg version="1.1" xmlns="http://www.w3.org/2000/svg" xmlns:xlink="http://www.w3.org/1999/xlink" width="949.0000" height="496.0000">
<g transform="translate(187.0000, -38.0000)">
<path d="M 762.0000,350.0000 L 632.0000,251.0000 L 632.0000,302.0000 L 512.0000,302.0000 L 512.0000,399.0000 L 632.0000,399.0000 L 632.0000,450.0000 L 762.0000,350.0000 Z "  fill="#707070" stroke-width="1px" stroke="#FFFFFF" />
<path d="M -57.0000,251.0000 L -187.0000,350.0000 L -57.0000,450.0000 L -57.0000,399.0000 L 63.0000,399.0000 L 63.0000,302.0000 L -57.0000,302.0000 L -57.0000,251.0000 Z "  fill="#707070" stroke-width="1px" stroke="#FFFFFF" />
<path d="M 441.0000,209.0000 C 441.0000,170.0000 441.0000,170.0000 441.0000,170.0000 C 441.0000,97.0000 382.0000,38.0000 310.0000,38.0000 C 265.0000,38.0000 265.0000,38.0000 265.0000,38.0000 C 193.0000,38.0000 134.0000,97.0000 134.0000,170.0000 C 134.0000,209.0000 134.0000,209.0000 134.0000,209.0000 C 110.0000,216.0000 93.0000,234.0000 93.0000,256.0000 C 93.0000,486.0000 93.0000,486.0000 93.0000,486.0000 C 93.0000,513.0000 119.0000,534.0000 151.0000,534.0000 C 424.0000,534.0000 424.0000,534.0000 424.0000,534.0000 C 456.0000,534.0000 482.0000,513.0000 482.0000,486.0000 C 482.0000,256.0000 482.0000,256.0000 482.0000,256.0000 C 482.0000,234.0000 465.0000,216.0000 441.0000,209.0000 Z M 205.0000,170.0000 C 205.0000,137.0000 232.0000,110.0000 265.0000,110.0000 C 310.0000,110.0000 310.0000,110.0000 310.0000,110.0000 C 343.0000,110.0000 370.0000,137.0000 370.0000,170.0000 C 370.0000,207.0000 370.0000,207.0000 370.0000,207.0000 C 205.0000,207.0000 205.0000,207.0000 205.0000,207.0000 Z M 208.0000,420.0000 C 188.0000,420.0000 169.0000,411.0000 170.0000,388.0000 C 189.0000,388.0000 189.0000,388.0000 189.0000,388.0000 C 189.0000,400.0000 198.0000,405.0000 208.0000,405.0000 C 215.0000,405.0000 226.0000,403.0000 226.0000,394.0000 C 226.0000,384.0000 212.0000,383.0000 199.0000,379.0000 C 186.0000,376.0000 173.0000,370.0000 173.0000,354.0000 C 173.0000,335.0000 190.0000,327.0000 206.0000,327.0000 C 225.0000,327.0000 242.0000,335.0000 242.0000,355.0000 C 223.0000,355.0000 223.0000,355.0000 223.0000,355.0000 C 222.0000,345.0000 215.0000,342.0000 205.0000,342.0000 C 199.0000,342.0000 192.0000,344.0000 192.0000,352.0000 C 192.0000,359.0000 196.0000,360.0000 218.0000,366.0000 C 225.0000,367.0000 245.0000,371.0000 245.0000,392.0000 C 245.0000,408.0000 232.0000,420.0000 208.0000,420.0000 Z M 289.0000,420.0000 C 269.0000,420.0000 251.0000,411.0000 251.0000,388.0000 C 270.0000,388.0000 270.0000,388.0000 270.0000,388.0000 C 270.0000,400.0000 279.0000,405.0000 290.0000,405.0000 C 297.0000,405.0000 307.0000,403.0000 307.0000,394.0000 C 307.0000,384.0000 294.0000,383.0000 281.0000,379.0000 C 267.0000,376.0000 254.0000,370.0000 254.0000,354.0000 C 254.0000,335.0000 271.0000,327.0000 288.0000,327.0000 C 306.0000,327.0000 323.0000,335.0000 323.0000,355.0000 C 304.0000,355.0000 304.0000,355.0000 304.0000,355.0000 C 304.0000,345.0000 296.0000,342.0000 287.0000,342.0000 C 280.0000,342.0000 273.0000,344.0000 273.0000,352.0000 C 273.0000,359.0000 277.0000,360.0000 300.0000,366.0000 C 306.0000,367.0000 326.0000,371.0000 326.0000,392.0000 C 326.0000,408.0000 314.0000,420.0000 289.0000,420.0000 Z M 401.0000,418.0000 C 338.0000,418.0000 338.0000,418.0000 338.0000,418.0000 C 338.0000,329.0000 338.0000,329.0000 338.0000,329.0000 C 358.0000,329.0000 358.0000,329.0000 358.0000,329.0000 C 358.0000,402.0000 358.0000,402.0000 358.0000,402.0000 C 401.0000,402.0000 401.0000,402.0000 401.0000,402.0000 Z "  fill="#707070" stroke="none" />
</g>
</svg>
