<?xml version="1.0" encoding="utf-8"?>
<!-- Generator: Adobe Illustrator 20.1.0, SVG Export Plug-In . SVG Version: 6.00 Build 0)  -->
<svg version="1.1" id="Layer_1" xmlns="http://www.w3.org/2000/svg" xmlns:xlink="http://www.w3.org/1999/xlink" x="0px" y="0px"
	 viewBox="0 0 76.6 51" style="enable-background:new 0 0 76.6 51;" xml:space="preserve">
<style type="text/css">
	.st0{fill:#707070;stroke:#FFFFFF;stroke-width:0.8;}
	.st1{fill:#FFFFFF;}
	.st2{font-family:'Helvetica-Bold';}
	.st3{font-size:14px;}
</style>
	<g>
	<g>
		<rect x="1.1" y="10.8" class="st0" width="66.6" height="38.9"/>
		<polygon class="st0" points="75.7,38 67.8,49.7 67.8,10.8 75.7,1.1 		"/>
		<polygon class="st0" points="13.1,1.1 75.7,1.1 67.8,10.8 1.1,10.8 		"/>
	</g>
	<g>
		<polyline class="st1" points="33,34.1 33,39.3 29.2,39.2 34.6,47.7 40.5,39.2 36.4,39.3 36.4,34.1 		"/>
	</g>
	<g>
		<polyline class="st1" points="43.7,31 14.8,31 14.7,27.2 6.2,32.7 14.7,38.5 14.8,34.3 32.7,34.3 		"/>
	</g>
	<g>
		<polyline class="st1" points="36.9,34.3 55.8,34.3 56,38.1 64.5,32.6 56,26.9 55.8,31 26.4,31 		"/>
	</g>
	<g>
		<text transform="matrix(1 0 0 1 18.6257 26.0373)" class="st1 st2 st3">ADM</text>
	</g>
</g>
</svg>
