<?xml version="1.0" encoding="utf-8"?>
<!-- Generator: Adobe Illustrator 20.1.0, SVG Export Plug-In . SVG Version: 6.00 Build 0)  -->
<svg version="1.1" id="Layer_1" xmlns="http://www.w3.org/2000/svg" xmlns:xlink="http://www.w3.org/1999/xlink" x="0px" y="0px"
	 viewBox="0 0 62.7 79.2" style="enable-background:new 0 0 62.7 79.2;" xml:space="preserve">
<style type="text/css">
	.st0{fill:#707070;stroke:#FFFFFF;stroke-width:0.8;}
	.st1{stroke:#FFFFFF;stroke-width:0.8;}
	.st2{fill:none;stroke:#707070;stroke-width:0.8;}
	.st3{fill:#FFFFFF;}
	.st4{fill:none;stroke:#FFFFFF;stroke-width:0.8;}
	.st5{fill:none;stroke:#707070;stroke-width:2.85;}
	.st6{fill:none;stroke:#FFFFFF;stroke-width:2.85;}
</style>
<g>
	<g>
		<g>
			<g>
				<g>
					<g>
						<rect x="1.3" y="29.4" class="st0" width="53.7" height="48.9"/>
						<polygon class="st0" points="61.7,71.5 61.7,22.7 54.9,29.4 54.9,78.3 						"/>
					</g>
				</g>
				<g>
					<polygon class="st0" points="11.1,1 1.3,7.7 54.9,7.7 61.7,1 					"/>
					<rect x="1.3" y="7.7" class="st0" width="53.7" height="21.7"/>
					<polygon class="st0" points="61.7,22.7 61.7,1 54.9,7.7 54.9,29.4 					"/>
					<line class="st1" x1="54.9" y1="29.4" x2="1.3" y2="29.4"/>
					<line class="st1" x1="54.9" y1="29.4" x2="61.7" y2="22.7"/>
					<rect x="10" y="10.6" class="st3" width="8.7" height="4.5"/>
					<rect x="38.5" y="10.6" class="st3" width="8.7" height="4.5"/>
					<rect x="10" y="21.8" class="st3" width="8.7" height="4.5"/>
					<rect x="38.5" y="21.8" class="st3" width="8.7" height="4.5"/>
					<line class="st4" x1="15.9" y1="12.8" x2="42.5" y2="12.8"/>
					<line class="st4" x1="15.9" y1="24.1" x2="42.5" y2="24.1"/>
					<line class="st4" x1="14.4" y1="24.1" x2="42.5" y2="12.8"/>
					<line class="st4" x1="14.4" y1="12.8" x2="42.5" y2="24.1"/>
				</g>
			</g>
		</g>
	</g>
	<g>
		<polygon class="st3" points="14.2,71.9 14.2,62.4 8.5,67 		"/>
	</g>
	<g>
		<polygon class="st3" points="42.1,35 42.1,44.6 47.9,40 		"/>
	</g>
	<g>
		<polygon class="st3" points="14.2,44.9 14.2,35.4 8.5,40 		"/>
	</g>
	<polyline class="st6" points="45.8,67 35.9,67 22.4,39.9 12.2,39.9 	"/>
	<polyline class="st6" points="12.2,67 21.8,67 35.1,40 45.5,40 	"/>
	<g>
		<polygon class="st3" points="42.1,62.1 42.1,71.7 47.9,67.1 		"/>
	</g>
</g>
</svg>
