<?xml version="1.0" encoding="utf-8"?>
<!-- Generator: Adobe Illustrator 20.1.0, SVG Export Plug-In . SVG Version: 6.00 Build 0)  -->
<svg version="1.1" id="Layer_1" xmlns="http://www.w3.org/2000/svg" xmlns:xlink="http://www.w3.org/1999/xlink" x="0px" y="0px"
	 viewBox="0 0 60.1 63.5" style="enable-background:new 0 0 60.1 63.5;" xml:space="preserve">
<style type="text/css">
	.st0{fill:#707070;stroke:#FFFFFF;stroke-width:0.8;}
	.st1{fill:none;stroke:#FFFFFF;stroke-width:0.8;}
	.st2{fill:#FFFFFF;}
	.st3{font-family:'Helvetica-Bold';}
	.st4{font-size:10px;}
	.st5{font-size:8px;}
	.st6{fill:none;stroke:#FFFFFF;}
</style>
	<g>
	<rect x="0.9" y="6.8" class="st0" width="52.8" height="55.7"/>
	<polygon class="st0" points="6.3,1 0.9,6.8 53.7,6.8 59.2,1 	"/>
	<polygon class="st0" points="59.2,56.7 59.2,1 53.7,6.8 53.7,62.5 	"/>
	<rect x="5.3" y="9.7" class="st1" width="44.6" height="49.9"/>
	<circle class="st0" cx="27.7" cy="50.9" r="6.1"/>
	<g>
		<text transform="matrix(1 0 0 1 24.3659 54.6224)" class="st2 st3 st4">V</text>
	</g>
	<g>
		<text transform="matrix(1 0 0 1 16.4553 19.474)" class="st2 st3 st5">WWW</text>
	</g>
	<line class="st6" x1="12.4" y1="41.9" x2="46.7" y2="41.9"/>
	<path class="st2" d="M15.5,39.1L13.9,42l1.7,2.8l-7-2.8L15.5,39.1z"/>
	<line class="st6" x1="43.6" y1="23.1" x2="9.3" y2="23.1"/>
	<path class="st2" d="M40.5,25.9l1.7-2.8l-1.7-2.8l7,2.8L40.5,25.9z"/>
	<rect x="17.8" y="26.8" class="st1" width="20.7" height="10.7"/>
	<polyline class="st1" points="17.8,26.8 28.1,32.1 38.5,26.8 	"/>
</g>
</svg>
