<?xml version="1.0" encoding="utf-8"?>
<!-- Generator: Adobe Illustrator 20.1.0, SVG Export Plug-In . SVG Version: 6.00 Build 0)  -->
<svg version="1.1" id="Layer_1" xmlns="http://www.w3.org/2000/svg" xmlns:xlink="http://www.w3.org/1999/xlink" x="0px" y="0px"
	 viewBox="0 0 94.2 62.7" style="enable-background:new 0 0 94.2 62.7;" xml:space="preserve">
<style type="text/css">
	.st0{fill:#707070;stroke:#FFFFFF;stroke-width:0.8;}
	.st1{fill:#FFFFFF;stroke:#707070;stroke-width:0.3838;}
	.st2{fill:#FFFFFF;}
</style>
<g>
	<g>
		<g>
			<g>
				<g>
					<g>
						<g>
							<rect x="1" y="8.2" class="st0" width="85.6" height="53.7"/>
							<polygon class="st0" points="7.7,1.3 93.3,1.3 86.6,8.1 1,8.1 							"/>
						</g>
					</g>
					<g>
						<polygon class="st0" points="93.1,51.6 86.4,61.4 86.4,7.7 93.1,1 						"/>
					</g>
				</g>
			</g>
		</g>
	</g>
	<path class="st1" d="M40.5,44.3l6.1-4.5c-6-0.1-9.1,0.1-13,0.4c-1.9,5.8-1.9,7.4-3.8,11.2l4.7-2.8c4.6,3.4,10.2,4.3,14.9,2.5
		c0.1-0.1,0.3-0.2,0.4-0.3l7.7-5.6C52.6,48.9,45.7,48.5,40.5,44.3z"/>
	<path class="st1" d="M35.1,36.3c-1.6-5-0.7-10.5,2.6-14.4c0.6-0.7,1.3-1.4,2.1-1.9l-7.7,5.6c-0.8,0.5-1.4,1.2-2.1,1.9
		c-3.4,3.9-4.2,9.3-2.7,14.2L35.1,36.3z"/>
	<path class="st1" d="M50.3,19.9c-3.1-1.2-6.3-1.3-9.3-0.5c-0.4,0.2-0.7,0.4-1.1,0.7l-7.7,5.6c3.5-2.6,8.1-3.1,12.3-1.7l-4.2,3
		l13-0.3l0.9-9.6L50.3,19.9z"/>
	<path class="st1" d="M60,23.6c4.8,7.8,3,15.6-0.4,19.7c-0.6,0.7-1.3,1.4-2.1,1.9l-7.7,5.6c0.8-0.5,1.4-1.2,2.1-1.9
		c6.2-7.4,2.6-14.9,0.6-19.7L60,23.6z"/>
	<g>
		<polygon class="st2" points="17.4,37.6 4.6,37.4 4.6,35 17.4,35 17.4,31.2 24.8,36.2 17.4,41.2 		"/>
	</g>
	<g>
		<polygon class="st2" points="72,37.6 84.8,37.4 84.8,35 72,35 72,31.2 64.6,36.2 72,41.2 		"/>
	</g>
</g>
</svg>
