<?xml version="1.0" encoding="UTF-8" standalone="no"?>
<svg
   xmlns:dc="http://purl.org/dc/elements/1.1/"
   xmlns:cc="http://creativecommons.org/ns#"
   xmlns:rdf="http://www.w3.org/1999/02/22-rdf-syntax-ns#"
   xmlns:svg="http://www.w3.org/2000/svg"
   xmlns="http://www.w3.org/2000/svg"
   viewBox="0 0 45.853333 37.666668"
   height="37.666668"
   width="45.853333"
   xml:space="preserve"
   id="svg2"
   version="1.1"><metadata
     id="metadata8"><rdf:RDF><cc:Work
         rdf:about=""><dc:format>image/svg+xml</dc:format><dc:type
           rdf:resource="http://purl.org/dc/dcmitype/StillImage" /></cc:Work></rdf:RDF></metadata><defs
     id="defs6"><clipPath
       id="clipPath20"
       clipPathUnits="userSpaceOnUse"><path
         id="path18"
         d="m 0,2.53906 h 340 v 280 H 0 Z" /></clipPath></defs><g
     transform="matrix(1.3333333,0,0,-1.3333333,0,37.666667)"
     id="g10"><g
       transform="scale(0.1)"
       id="g12"><g
         id="g14"><g
           clip-path="url(#clipPath20)"
           id="g16"><path
             id="path22"
             style="fill:#707070;fill-opacity:1;fill-rule:nonzero;stroke:none"
             d="M 303.598,1.60938 341.234,29.1875 183.852,279.813 146.801,257.605" /><path
             id="path24"
             style="fill:none;stroke:#FFFFFF;stroke-width:4;stroke-linecap:butt;stroke-linejoin:miter;stroke-miterlimit:4;stroke-dasharray:none;stroke-opacity:1"
             d="M 303.598,1.60938 341.234,29.1875 183.852,279.813 146.801,257.605" /><path
             id="path26"
             style="fill:#707070;fill-opacity:1;fill-rule:nonzero;stroke:none"
             d="M 3.42188,3.05859 303.461,2.85938 146.078,255.672 3.42188,3.05859" /><path
             id="path28"
             style="fill:none;stroke:#FFFFFF;stroke-width:4;stroke-linecap:butt;stroke-linejoin:miter;stroke-miterlimit:4;stroke-dasharray:none;stroke-opacity:1"
             d="M 3.42188,3.05859 303.461,2.85938 146.078,255.672 Z" /><path
             id="path30"
             style="fill:#FFFFFF;fill-opacity:1;fill-rule:nonzero;stroke:none"
             d="m 146.254,80.6367 c 11.992,0 21.719,9.7227 21.719,21.7153 0,11.996 -9.727,21.718 -21.719,21.718 -11.992,0 -21.719,-9.722 -21.719,-21.718 0,-11.9926 9.727,-21.7153 21.719,-21.7153" /><path
             id="path32"
             style="fill:#FFFFFF;fill-opacity:1;fill-rule:nonzero;stroke:none"
             d="m 146.254,159.988 c 11.992,0 21.719,9.731 21.719,21.723 0,12 -9.727,21.727 -21.719,21.727 -11.992,0 -21.719,-9.727 -21.719,-21.727 0,-11.992 9.727,-21.723 21.719,-21.723" /><path
             id="path34"
             style="fill:#FFFFFF;fill-opacity:1;fill-rule:nonzero;stroke:none"
             d="m 204.809,22.0703 c 12.004,0 21.73,9.7266 21.73,21.7305 0,11.9883 -9.726,21.7187 -21.73,21.7187 -11.993,0 -21.719,-9.7304 -21.719,-21.7187 0,-12.0039 9.726,-21.7305 21.719,-21.7305" /><path
             id="path36"
             style="fill:#FFFFFF;fill-opacity:1;fill-rule:nonzero;stroke:none"
             d="m 88.3242,22.7031 c 12.0038,0 21.7308,9.7305 21.7308,21.7305 0,12 -9.727,21.7266 -21.7308,21.7266 -11.9922,0 -21.7187,-9.7266 -21.7187,-21.7266 0,-12 9.7265,-21.7305 21.7187,-21.7305" /><path
             id="path38"
             style="fill:none;stroke:#FFFFFF;stroke-width:10;stroke-linecap:butt;stroke-linejoin:miter;stroke-miterlimit:4;stroke-dasharray:none;stroke-opacity:1"
             d="M 146.117,177.234 V 103.633 L 86.918,44.4336" /><path
             id="path40"
             style="fill:none;stroke:#FFFFFF;stroke-width:10;stroke-linecap:butt;stroke-linejoin:miter;stroke-miterlimit:4;stroke-dasharray:none;stroke-opacity:1"
             d="M 146.117,100.438 200.512,46.0352" /></g></g></g></g></svg>