<?xml version="1.0" encoding="UTF-8" standalone="no"?>
<svg
   xmlns:dc="http://purl.org/dc/elements/1.1/"
   xmlns:cc="http://creativecommons.org/ns#"
   xmlns:rdf="http://www.w3.org/1999/02/22-rdf-syntax-ns#"
   xmlns:svg="http://www.w3.org/2000/svg"
   xmlns="http://www.w3.org/2000/svg"
   viewBox="0 0 33.853333 31.906668"
   height="31.906668"
   width="33.853333"
   xml:space="preserve"
   id="svg2"
   version="1.1"><metadata
     id="metadata8"><rdf:RDF><cc:Work
         rdf:about=""><dc:format>image/svg+xml</dc:format><dc:type
           rdf:resource="http://purl.org/dc/dcmitype/StillImage" /></cc:Work></rdf:RDF></metadata><defs
     id="defs6"><clipPath
       id="clipPath20"
       clipPathUnits="userSpaceOnUse"><path
         id="path18"
         d="M 0,239 H 250 V 0 H 0 Z" /></clipPath></defs><g
     transform="matrix(1.3333333,0,0,-1.3333333,0,31.906667)"
     id="g10"><g
       transform="scale(0.1)"
       id="g12"><g
         id="g14"><g
           clip-path="url(#clipPath20)"
           id="g16"><path
             id="path22"
             style="fill:#707070;fill-opacity:1;fill-rule:nonzero;stroke:none"
             d="m 246.617,237.129 -6.027,-3.551 H 7.02734 l 5.95706,3.692 233.6326,-0.141" /><path
             id="path24"
             style="fill:none;stroke:#FFFFFF;stroke-width:3.99993992;stroke-linecap:butt;stroke-linejoin:miter;stroke-miterlimit:4;stroke-dasharray:none;stroke-opacity:1"
             d="m 246.617,237.129 -6.027,-3.551 H 7.02734 l 5.95706,3.692 z" /><path
             id="path26"
             style="fill:#707070;fill-opacity:1;fill-rule:nonzero;stroke:none"
             d="m 246.664,5.54688 -0.047,231.58212 -6.027,-4.57 V 0 l 6.074,5.54688" /><path
             id="path28"
             style="fill:#707070;fill-opacity:1;fill-rule:nonzero;stroke:none"
             d="M 17.6406,0 H 240.59 V 233.578 H 7.02734 V 10.625 L 17.6406,0" /><path
             id="path30"
             style="fill:none;stroke:#FFFFFF;stroke-width:3.99993992;stroke-linecap:butt;stroke-linejoin:miter;stroke-miterlimit:4;stroke-dasharray:none;stroke-opacity:1"
             d="M 222.895,233.578 V 98.8359 c 0,-9.7968 -7.957,-7.957 -7.957,-7.957 H 31.793 c 0,0 -7.0703,-0.8906 -7.0703,7.0664 V 233.578" /><path
             id="path32"
             style="fill:none;stroke:#FFFFFF;stroke-width:3.99993992;stroke-linecap:butt;stroke-linejoin:miter;stroke-miterlimit:4;stroke-dasharray:none;stroke-opacity:1"
             d="m 21.2461,209.684 v 10.617 h -10.625 v -10.617 z" /><path
             id="path34"
             style="fill:none;stroke:#FFFFFF;stroke-width:3.99993992;stroke-linecap:butt;stroke-linejoin:miter;stroke-miterlimit:4;stroke-dasharray:none;stroke-opacity:1"
             d="m 237.125,209.684 v 10.617 h -10.617 v -10.617 z" /><path
             id="path36"
             style="fill:#FFFFFF;fill-opacity:1;fill-rule:nonzero;stroke:none"
             d="M 185.113,68.1211 V 2.51953 H 46.207 V 69 c 0,7.0898 7.9688,6.1992 7.9688,6.1992 H 178.031 c 7.961,0 7.082,-7.0781 7.082,-7.0781" /><path
             id="path38"
             style="fill:none;stroke:#707070;stroke-width:3.99993992;stroke-linecap:butt;stroke-linejoin:miter;stroke-miterlimit:4;stroke-dasharray:none;stroke-opacity:1"
             d="M 185.113,68.1211 V 2.51953 H 46.207 V 69 c 0,7.0898 7.9688,6.1992 7.9688,6.1992 H 178.031 c 7.961,0 7.082,-7.0781 7.082,-7.0781 z" /><path
             id="path40"
             style="fill:none;stroke:#FFFFFF;stroke-width:3.99993992;stroke-linecap:butt;stroke-linejoin:miter;stroke-miterlimit:4;stroke-dasharray:none;stroke-opacity:1"
             d="m 222.895,0 v 68.1211 c 0,0 0.89,7.0781 -7.079,7.0781 H 54.3516 c 0,0 -7.9688,0.8906 -7.9688,-6.1992 V 4.29688" /><path
             id="path42"
             style="fill:#707070;fill-opacity:1;fill-rule:nonzero;stroke:none"
             d="m 72.9336,7.07031 h 27.4336 v 63.7109 H 72.9336 Z" /><path
             id="path44"
             style="fill:none;stroke:#FFFFFF;stroke-width:3.99993992;stroke-linecap:butt;stroke-linejoin:miter;stroke-miterlimit:4;stroke-dasharray:none;stroke-opacity:1"
             d="M 100.367,7.07031 V 70.7813 H 72.9336 V 7.07031 Z" /><path
             id="path46"
             style="fill:none;stroke:#FFFFFF;stroke-width:3.99993992;stroke-linecap:butt;stroke-linejoin:miter;stroke-miterlimit:4;stroke-dasharray:none;stroke-opacity:1"
             d="m 240.59,232.684 6.203,4.421" /></g></g></g></g></svg>