<?xml version="1.0" encoding="UTF-8" standalone="no"?>
<svg
   xmlns:dc="http://purl.org/dc/elements/1.1/"
   xmlns:cc="http://creativecommons.org/ns#"
   xmlns:rdf="http://www.w3.org/1999/02/22-rdf-syntax-ns#"
   xmlns:svg="http://www.w3.org/2000/svg"
   xmlns="http://www.w3.org/2000/svg"
   viewBox="0 0 50.826668 36.48"
   height="36.48"
   width="50.826668"
   xml:space="preserve"
   id="svg2"
   version="1.1"><metadata
     id="metadata8"><rdf:RDF><cc:Work
         rdf:about=""><dc:format>image/svg+xml</dc:format><dc:type
           rdf:resource="http://purl.org/dc/dcmitype/StillImage" /></cc:Work></rdf:RDF></metadata><defs
     id="defs6" /><g
     transform="matrix(1.3333333,0,0,-1.3333333,0,36.48)"
     id="g10"><g
       transform="scale(0.1)"
       id="g12"><path
         id="path14"
         style="fill:#ffffff;fill-opacity:1;fill-rule:nonzero;stroke:none"
         d="M 132.641,246.391 C 66.293,259.641 31.293,225.656 36.8203,196.277 l 0.4492,-1.597 C -14.4453,185.875 -0.894531,124.855 23.9102,124.855 l 2.4414,0.079 C 20.1133,96.2617 80.5117,67.0703 114.203,81.6563 l 2.168,2.375 c 12.012,-25.793 54.699,-30.1016 96.906,-31.1797 36.582,-0.9375 57.93,1.9648 73.621,17.9922 l 2.415,-0.7071 c 58.554,-4.7109 85.222,35.7383 72.421,64.7773 l 3.145,0.883 c 19.961,5.277 22.266,51.363 -11.973,58.18 l 0.645,1.777 c 14.871,29.984 -20.188,58.25 -68.84,52.945 l -3.379,1.758 C 246.5,281.992 146.246,276.852 134.645,245.66 l -2.004,0.731" /><path
         id="path16"
         style="fill:none;stroke:#707070;stroke-width:4;stroke-linecap:butt;stroke-linejoin:miter;stroke-miterlimit:4;stroke-dasharray:none;stroke-opacity:1"
         d="M 132.641,246.391 C 66.293,259.641 31.293,225.656 36.8203,196.277 l 0.4492,-1.597 C -14.4453,185.875 -0.894531,124.855 23.9102,124.855 l 2.4414,0.079 C 20.1133,96.2617 80.5117,67.0703 114.203,81.6563 l 2.168,2.375 c 12.012,-25.793 54.699,-30.1016 96.906,-31.1797 36.582,-0.9375 57.93,1.9648 73.621,17.9922 l 2.415,-0.7071 c 58.554,-4.7109 85.222,35.7383 72.421,64.7773 l 3.145,0.883 c 19.961,5.277 22.266,51.363 -11.973,58.18 l 0.645,1.777 c 14.871,29.984 -20.188,58.25 -68.84,52.945 l -3.379,1.758 C 246.5,281.992 146.246,276.852 134.645,245.66 Z" /><path
         id="path18"
         style="fill:none;stroke:#707070;stroke-width:20;stroke-linecap:butt;stroke-linejoin:miter;stroke-miterlimit:4;stroke-dasharray:none;stroke-opacity:1"
         d="M 160.953,198.168 V 29.0195 H 322.008 V 199.875 Z" /><path
         id="path20"
         style="fill:none;stroke:#707070;stroke-width:20;stroke-linecap:butt;stroke-linejoin:miter;stroke-miterlimit:4;stroke-dasharray:none;stroke-opacity:1"
         d="M 160.953,198.168 322.008,29.0195" /><path
         id="path22"
         style="fill:none;stroke:#707070;stroke-width:20;stroke-linecap:butt;stroke-linejoin:miter;stroke-miterlimit:4;stroke-dasharray:none;stroke-opacity:1"
         d="M 160.953,29.0195 322.008,199.875" /><path
         id="path24"
         style="fill:#ffffff;fill-opacity:1;fill-rule:nonzero;stroke:none"
         d="m 187.738,174 v 52.75 H 135.961 V 174 h 51.777" /><path
         id="path26"
         style="fill:none;stroke:#707070;stroke-width:4;stroke-linecap:butt;stroke-linejoin:miter;stroke-miterlimit:4;stroke-dasharray:none;stroke-opacity:1"
         d="m 187.738,174 v 52.75 H 135.961 V 174 Z" /><path
         id="path28"
         style="fill:#ffffff;fill-opacity:1;fill-rule:nonzero;stroke:none"
         d="m 347.738,174 v 52.75 H 295.961 V 174 h 51.777" /><path
         id="path30"
         style="fill:none;stroke:#707070;stroke-width:4;stroke-linecap:butt;stroke-linejoin:miter;stroke-miterlimit:4;stroke-dasharray:none;stroke-opacity:1"
         d="m 347.738,174 v 52.75 H 295.961 V 174 Z" /><path
         id="path32"
         style="fill:#ffffff;fill-opacity:1;fill-rule:nonzero;stroke:none"
         d="M 187.738,2.00391 V 54.7461 H 135.961 V 2.00391 h 51.777" /><path
         id="path34"
         style="fill:none;stroke:#707070;stroke-width:4;stroke-linecap:butt;stroke-linejoin:miter;stroke-miterlimit:4;stroke-dasharray:none;stroke-opacity:1"
         d="M 187.738,2.00391 V 54.7461 H 135.961 V 2.00391 Z" /><path
         id="path36"
         style="fill:#ffffff;fill-opacity:1;fill-rule:nonzero;stroke:none"
         d="M 347.738,2.00391 V 54.7461 H 295.961 V 2.00391 h 51.777" /><path
         id="path38"
         style="fill:none;stroke:#707070;stroke-width:4;stroke-linecap:butt;stroke-linejoin:miter;stroke-miterlimit:4;stroke-dasharray:none;stroke-opacity:1"
         d="M 347.738,2.00391 V 54.7461 H 295.961 V 2.00391 Z" /><path
         id="path40"
         style="fill:#ffffff;fill-opacity:1;fill-rule:nonzero;stroke:none"
         d="M 266.363,88.0039 V 140.75 H 214.586 V 88.0039 h 51.777" /><path
         id="path42"
         style="fill:none;stroke:#707070;stroke-width:4;stroke-linecap:butt;stroke-linejoin:miter;stroke-miterlimit:4;stroke-dasharray:none;stroke-opacity:1"
         d="M 266.363,88.0039 V 140.75 H 214.586 V 88.0039 Z" /></g></g></svg>