<?xml version="1.0" encoding="utf-8"?>
<!-- Generator: Adobe Illustrator 20.1.0, SVG Export Plug-In . SVG Version: 6.00 Build 0)  -->
<svg version="1.1" id="Layer_1" xmlns="http://www.w3.org/2000/svg" xmlns:xlink="http://www.w3.org/1999/xlink" x="0px" y="0px"
	 viewBox="0 0 85.8 128.8" style="enable-background:new 0 0 85.8 128.8;" xml:space="preserve">
<style type="text/css">
	.st0{fill:#707070;stroke:#FFFFFF;stroke-width:0.8;}
</style>
<g>
	<polyline class="st0" points="17.9,77.2 1,77.2 1,127.9 17.9,127.9 	"/>
	<polygon class="st0" points="17.9,127.9 27.3,118.5 27.3,67.8 10.4,67.8 1,77.2 17.9,77.2 	"/>
	<line class="st0" x1="17.9" y1="77.2" x2="27.3" y2="67.8"/>
	<polyline class="st0" points="52.6,14.5 17.9,14.5 17.9,127.9 52.6,127.9 	"/>
	<polygon class="st0" points="52.6,127.9 66.6,113.8 66.6,0.4 32,0.4 17.9,14.5 52.6,14.5 	"/>
	<line class="st0" x1="52.6" y1="14.5" x2="66.6" y2="0.4"/>
	<polyline class="st0" points="71.6,32.3 52.9,32.3 52.9,127.9 71.6,127.9 	"/>
	<polygon class="st0" points="71.6,127.9 85.4,114.1 85.4,18.6 66.6,18.6 52.9,32.3 71.6,32.3 	"/>
	<line class="st0" x1="71.6" y1="32.3" x2="85.4" y2="18.6"/>
	<polyline class="st0" points="36,61 36,66.3 41.3,66.3 	"/>
	<polyline class="st0" points="43.4,61 43.4,66.3 48.6,66.3 	"/>
	<polyline class="st0" points="21.1,61.2 21.1,66.4 26.4,66.4 	"/>
	<polyline class="st0" points="28.5,61.2 28.5,66.4 33.8,66.4 	"/>
	<polyline class="st0" points="35.9,72 35.9,77.3 41.2,77.3 	"/>
	<polyline class="st0" points="43.3,72 43.3,77.3 48.6,77.3 	"/>
	<polyline class="st0" points="21.1,72.2 21.1,77.5 26.4,77.5 	"/>
	<polyline class="st0" points="28.5,72.2 28.5,77.5 33.7,77.5 	"/>
	<polyline class="st0" points="35.9,82.6 35.9,87.9 41.2,87.9 	"/>
	<polyline class="st0" points="43.3,82.6 43.3,87.9 48.6,87.9 	"/>
	<polyline class="st0" points="21.1,82.7 21.1,88 26.4,88 	"/>
	<polyline class="st0" points="28.5,82.7 28.5,88 33.7,88 	"/>
	<polyline class="st0" points="35.9,92.3 35.9,97.6 41.2,97.6 	"/>
	<polyline class="st0" points="43.3,92.3 43.3,97.6 48.6,97.6 	"/>
	<polyline class="st0" points="21.1,92.5 21.1,97.8 26.4,97.8 	"/>
	<polyline class="st0" points="28.5,92.5 28.5,97.8 33.7,97.8 	"/>
	<polyline class="st0" points="56.4,36.8 56.4,42.1 61.6,42.1 	"/>
	<polyline class="st0" points="63.7,36.8 63.7,42.1 69,42.1 	"/>
	<polyline class="st0" points="56.3,46.7 56.3,52 61.6,52 	"/>
	<polyline class="st0" points="63.6,46.7 63.6,52 68.9,52 	"/>
	<polyline class="st0" points="56.3,55.7 56.3,61 61.6,61 	"/>
	<polyline class="st0" points="63.6,55.7 63.6,61 68.9,61 	"/>
	<polyline class="st0" points="3.4,81.5 3.4,86.8 8.7,86.8 	"/>
	<polyline class="st0" points="10.8,81.5 10.8,86.8 16.1,86.8 	"/>
	<polyline class="st0" points="3.8,91.5 3.8,96.7 9.1,96.7 	"/>
	<polyline class="st0" points="11.2,91.5 11.2,96.7 16.5,96.7 	"/>
	<polyline class="st0" points="3.8,100.4 3.8,105.7 9.1,105.7 	"/>
	<polyline class="st0" points="11.2,100.4 11.2,105.7 16.5,105.7 	"/>
	<polyline class="st0" points="36.1,20.1 36.1,25.4 41.4,25.4 	"/>
	<polyline class="st0" points="43.5,20.1 43.5,25.4 48.8,25.4 	"/>
	<polyline class="st0" points="21.3,20.3 21.3,25.5 26.6,25.5 	"/>
	<polyline class="st0" points="28.7,20.3 28.7,25.5 34,25.5 	"/>
	<polyline class="st0" points="36.1,31.1 36.1,36.4 41.4,36.4 	"/>
	<polyline class="st0" points="43.4,31.1 43.4,36.4 48.7,36.4 	"/>
	<polyline class="st0" points="21.2,31.3 21.2,36.6 26.5,36.6 	"/>
	<polyline class="st0" points="28.6,31.3 28.6,36.6 33.9,36.6 	"/>
	<polyline class="st0" points="36.1,41.7 36.1,47 41.4,47 	"/>
	<polyline class="st0" points="43.4,41.7 43.4,47 48.7,47 	"/>
	<polyline class="st0" points="21.2,41.8 21.2,47.1 26.5,47.1 	"/>
	<polyline class="st0" points="28.6,41.8 28.6,47.1 33.9,47.1 	"/>
	<polyline class="st0" points="36.1,51.4 36.1,56.7 41.4,56.7 	"/>
	<polyline class="st0" points="43.4,51.4 43.4,56.7 48.7,56.7 	"/>
	<polyline class="st0" points="21.2,51.6 21.2,56.9 26.5,56.9 	"/>
	<polyline class="st0" points="28.6,51.6 28.6,56.9 33.9,56.9 	"/>
	<line class="st0" x1="56.2" y1="65.1" x2="56.2" y2="70.4"/>
	<line class="st0" x1="56.2" y1="70.4" x2="61.5" y2="70.4"/>
	<polyline class="st0" points="63.6,65.1 63.6,70.4 68.9,70.4 	"/>
	<line class="st0" x1="56.2" y1="74.2" x2="56.2" y2="79.5"/>
	<line class="st0" x1="56.2" y1="79.5" x2="61.5" y2="79.5"/>
	<polyline class="st0" points="63.6,74.2 63.6,79.5 68.9,79.5 	"/>
</g>
</svg>
