<?xml version="1.0" encoding="UTF-8" standalone="no"?>
<svg
   xmlns:dc="http://purl.org/dc/elements/1.1/"
   xmlns:cc="http://creativecommons.org/ns#"
   xmlns:rdf="http://www.w3.org/1999/02/22-rdf-syntax-ns#"
   xmlns:svg="http://www.w3.org/2000/svg"
   xmlns="http://www.w3.org/2000/svg"
   viewBox="0 0 32.200001 45.106667"
   height="45.106667"
   width="32.200001"
   xml:space="preserve"
   id="svg2"
   version="1.1"><metadata
     id="metadata8"><rdf:RDF><cc:Work
         rdf:about=""><dc:format>image/svg+xml</dc:format><dc:type
           rdf:resource="http://purl.org/dc/dcmitype/StillImage" /></cc:Work></rdf:RDF></metadata><defs
     id="defs6"><clipPath
       id="clipPath20"
       clipPathUnits="userSpaceOnUse"><path
         id="path18"
         d="M 0,338 H 240 V 0 H 0 Z" /></clipPath></defs><g
     transform="matrix(1.3333333,0,0,-1.3333333,0,45.106667)"
     id="g10"><g
       transform="scale(0.1)"
       id="g12"><g
         id="g14"><g
           clip-path="url(#clipPath20)"
           id="g16"><path
             id="path22"
             style="fill:#707070;fill-opacity:1;fill-rule:nonzero;stroke:none"
             d="M 184.324,279.523 H 95.0977 L 95.5781,12.5273 H 184.324 V 279.523" /><path
             id="path24"
             style="fill:none;stroke:#FFFFFF;stroke-width:3.99993992;stroke-linecap:butt;stroke-linejoin:miter;stroke-miterlimit:4;stroke-dasharray:none;stroke-opacity:1"
             d="M 184.324,279.523 H 95.0977 L 95.5781,12.5273 h 88.7459 z" /><path
             id="path26"
             style="fill:#707070;fill-opacity:1;fill-rule:nonzero;stroke:none"
             d="m 107.781,182.219 h 62.9492 v 60.418 H 107.781 Z" /><path
             id="path28"
             style="fill:none;stroke:#FFFFFF;stroke-width:3.99993992;stroke-linecap:butt;stroke-linejoin:miter;stroke-miterlimit:4;stroke-dasharray:none;stroke-opacity:1"
             d="M 107.781,242.637 H 170.73 V 182.219 H 107.781 Z" /><path
             id="path30"
             style="fill:#707070;fill-opacity:1;fill-rule:nonzero;stroke:none"
             d="M 237.258,333.293 184.441,278.43 V 12.4727 l 52.786,62.5546 0.031,258.2657" /><path
             id="path32"
             style="fill:none;stroke:#FFFFFF;stroke-width:3.99993992;stroke-linecap:butt;stroke-linejoin:miter;stroke-miterlimit:4;stroke-dasharray:none;stroke-opacity:1"
             d="M 237.258,333.293 184.441,278.43 V 12.4727 l 52.786,62.5546 z" /><path
             id="path34"
             style="fill:#707070;fill-opacity:1;fill-rule:nonzero;stroke:none"
             d="M 17.6289,281.074 H 90.6953" /><path
             id="path36"
             style="fill:none;stroke:#FFFFFF;stroke-width:3.99993992;stroke-linecap:butt;stroke-linejoin:miter;stroke-miterlimit:4;stroke-dasharray:none;stroke-opacity:1"
             d="M 17.6289,281.074 H 90.6953" /><path
             id="path38"
             style="fill:#707070;fill-opacity:1;fill-rule:nonzero;stroke:none"
             d="m 105.574,289.922 33.559,36.738" /><path
             id="path40"
             style="fill:none;stroke:#FFFFFF;stroke-width:3.99993992;stroke-linecap:butt;stroke-linejoin:miter;stroke-miterlimit:4;stroke-dasharray:none;stroke-opacity:1"
             d="m 105.574,289.922 33.559,36.738" /><path
             id="path42"
             style="fill:#707070;fill-opacity:1;fill-rule:nonzero;stroke:none"
             d="m 92.2344,275.539 c 0,0 -0.418,-17.676 -32.5938,-17.316 l -56.93357,8.711 v 3.418 L 82.7656,334.199 236.824,334.055 184.91,279.543 H 95.6719" /><path
             id="path44"
             style="fill:none;stroke:#FFFFFF;stroke-width:3.99993992;stroke-linecap:butt;stroke-linejoin:miter;stroke-miterlimit:4;stroke-dasharray:none;stroke-opacity:1"
             d="m 92.2344,275.539 c 0,0 -0.418,-17.676 -32.5938,-17.316 l -56.93357,8.711 v 3.418 L 82.7656,334.199 236.824,334.055 184.91,279.543 H 95.6719" /><path
             id="path46"
             style="fill:#707070;fill-opacity:1;fill-rule:nonzero;stroke:none"
             d="m 94.9531,278.605 c 0,0 -25.8515,-15.195 -55.5468,-11.769 L 2,270 V 3.58594 L 39.4063,1.99219 C 77.3516,-1.30859 95.1055,12.3359 95.1055,12.3359 L 94.9531,278.605" /><path
             id="path48"
             style="fill:none;stroke:#FFFFFF;stroke-width:3.99993992;stroke-linecap:butt;stroke-linejoin:miter;stroke-miterlimit:4;stroke-dasharray:none;stroke-opacity:1"
             d="m 94.9531,278.605 c 0,0 -25.8515,-15.195 -55.5468,-11.769 L 2,270 V 3.58594 L 39.4063,1.99219 C 77.3516,-1.30859 95.1055,12.3359 95.1055,12.3359 Z" /><path
             id="path50"
             style="fill:#707070;fill-opacity:1;fill-rule:nonzero;stroke:none"
             d="M 18.3398,282.297 H 91.4141" /><path
             id="path52"
             style="fill:none;stroke:#FFFFFF;stroke-width:3.99993992;stroke-linecap:butt;stroke-linejoin:miter;stroke-miterlimit:4;stroke-dasharray:none;stroke-opacity:1"
             d="M 18.3398,282.297 H 91.4141" /><path
             id="path54"
             style="fill:#707070;fill-opacity:1;fill-rule:nonzero;stroke:none"
             d="m 112.898,291.133 40.082,36.961" /><path
             id="path56"
             style="fill:none;stroke:#FFFFFF;stroke-width:3.99993992;stroke-linecap:butt;stroke-linejoin:miter;stroke-miterlimit:4;stroke-dasharray:none;stroke-opacity:1"
             d="m 112.898,291.133 40.082,36.961" /></g></g></g></g></svg>