<?xml version="1.0" encoding="UTF-8" standalone="no"?>
<svg
   xmlns:dc="http://purl.org/dc/elements/1.1/"
   xmlns:cc="http://creativecommons.org/ns#"
   xmlns:rdf="http://www.w3.org/1999/02/22-rdf-syntax-ns#"
   xmlns:svg="http://www.w3.org/2000/svg"
   xmlns="http://www.w3.org/2000/svg"
   version="1.1"
   id="svg2"
   xml:space="preserve"
   width="85.440002"
   height="47.133331"
   viewBox="0 0 85.440002 47.133331"><metadata
     id="metadata8"><rdf:RDF><cc:Work
         rdf:about=""><dc:format>image/svg+xml</dc:format><dc:type
           rdf:resource="http://purl.org/dc/dcmitype/StillImage" /></cc:Work></rdf:RDF></metadata><defs
     id="defs6" /><g
     id="g967"><path
       id="path14"
       style="fill:#707070;fill-opacity:1;fill-rule:nonzero;stroke:none;stroke-width:0.13333333"
       d="M 52.148399,25.110934 56.807332,0.6306675 H 21.284399 L 16.052666,25.110934 h 36.095733" /><path
       id="path16"
       style="fill:none;stroke:#FFFFFF;stroke-width:0.5333333;stroke-linecap:butt;stroke-linejoin:miter;stroke-miterlimit:4;stroke-dasharray:none;stroke-opacity:1"
       d="M 52.148399,25.110934 56.807332,0.6306675 H 21.284399 L 16.052666,25.110934 Z" /><path
       id="path18"
       style="fill:#707070;fill-opacity:1;fill-rule:nonzero;stroke:none;stroke-width:0.13333333"
       d="m 56.807332,0.6306675 1.388,1.7969333 -4.3308,23.7447992 -1.716133,-1.061466 4.658933,-24.4802665" /><path
       id="path20"
       style="fill:none;stroke:#FFFFFF;stroke-width:0.5333333;stroke-linecap:butt;stroke-linejoin:miter;stroke-miterlimit:4;stroke-dasharray:none;stroke-opacity:1"
       d="m 56.807332,0.6306675 1.388,1.7969333 -4.3308,23.7447992 -1.716133,-1.061466 z" /><path
       id="path22"
       style="fill:#707070;fill-opacity:1;fill-rule:nonzero;stroke:none;stroke-width:0.13333333"
       d="m 16.052666,25.110934 1.552,1.061466 H 53.864532 L 52.148399,25.110934 H 16.052666" /><path
       id="path24"
       style="fill:none;stroke:#FFFFFF;stroke-width:0.5333333;stroke-linecap:butt;stroke-linejoin:miter;stroke-miterlimit:4;stroke-dasharray:none;stroke-opacity:1"
       d="m 16.052666,25.110934 1.552,1.061466 h 36.259866 l -1.716133,-1.061466 z" /><path
       id="path26"
       style="fill:#707070;fill-opacity:1;fill-rule:nonzero;stroke:none;stroke-width:0.13333333"
       d="m 52.476532,26.786 v 3.6328 l -0.940133,0.8176 c 0,0 -2.205734,0.652133 -1.716134,1.957867 l -9.838533,9.148959 V 38.340107 L 52.476532,26.786" /><path
       id="path28"
       style="fill:none;stroke:#FFFFFF;stroke-width:0.5333333;stroke-linecap:butt;stroke-linejoin:miter;stroke-miterlimit:4;stroke-dasharray:none;stroke-opacity:1"
       d="m 52.476532,26.786 v 3.6328 l -0.940133,0.8176 c 0,0 -2.205734,0.652133 -1.716134,1.957867 l -9.838533,9.148959 v -4.003119 z" /><path
       id="path30"
       style="fill:#707070;fill-opacity:1;fill-rule:nonzero;stroke:none;stroke-width:0.13333333"
       d="M 0.82343731,42.343226 H 39.981836 V 38.340107 H 0.82343731 Z" /><path
       id="path32"
       style="fill:none;stroke:#FFFFFF;stroke-width:0.5333333;stroke-linecap:butt;stroke-linejoin:miter;stroke-miterlimit:4;stroke-dasharray:none;stroke-opacity:1"
       d="m 0.82343731,38.340107 v 4.003119 H 39.981732 V 38.340107 H 0.82343731" /><path
       id="path34"
       style="fill:#707070;fill-opacity:1;fill-rule:nonzero;stroke:none;stroke-width:0.13333333"
       d="M 16.461466,27.030667 52.476532,26.786 39.981732,38.340107 H 0.82343731 L 16.461466,27.030667" /><path
       id="path36"
       style="fill:none;stroke:#FFFFFF;stroke-width:0.5333333;stroke-linecap:butt;stroke-linejoin:miter;stroke-miterlimit:4;stroke-dasharray:none;stroke-opacity:1"
       d="M 16.461466,27.030667 52.476532,26.786 39.981732,38.340107 H 0.82343731 Z" /><path
       id="path38"
       style="fill:#707070;fill-opacity:1;fill-rule:nonzero;stroke:none;stroke-width:0.13333333"
       d="M 49.135465,22.726 52.854132,3.5541341 H 23.969333 L 20.250533,22.726 h 28.884932" /><path
       id="path40"
       style="fill:none;stroke:#FFFFFF;stroke-width:0.5333333;stroke-linecap:butt;stroke-linejoin:miter;stroke-miterlimit:4;stroke-dasharray:none;stroke-opacity:1"
       d="M 49.135465,22.726 52.854132,3.5541341 H 23.969333 L 20.250533,22.726 Z" /><path
       id="path42"
       style="fill:none;stroke:#FFFFFF;stroke-width:0.13333333;stroke-linecap:butt;stroke-linejoin:round;stroke-miterlimit:4;stroke-dasharray:none;stroke-opacity:1"
       d="M 17.307866,27.286 8.2244798,34.620307" /><path
       id="path44"
       style="fill:none;stroke:#FFFFFF;stroke-width:0.13333333;stroke-linecap:butt;stroke-linejoin:round;stroke-miterlimit:4;stroke-dasharray:none;stroke-opacity:1"
       d="m 20.224533,27.286 -9.083387,7.334307" /><path
       id="path46"
       style="fill:none;stroke:#FFFFFF;stroke-width:0.13333333;stroke-linecap:butt;stroke-linejoin:round;stroke-miterlimit:4;stroke-dasharray:none;stroke-opacity:1"
       d="m 23.141199,27.286 -9.083333,7.334307" /><path
       id="path48"
       style="fill:none;stroke:#FFFFFF;stroke-width:0.13333333;stroke-linecap:butt;stroke-linejoin:round;stroke-miterlimit:4;stroke-dasharray:none;stroke-opacity:1"
       d="m 26.057866,27.286 -9.083333,7.334307" /><path
       id="path50"
       style="fill:none;stroke:#FFFFFF;stroke-width:0.13333333;stroke-linecap:butt;stroke-linejoin:round;stroke-miterlimit:4;stroke-dasharray:none;stroke-opacity:1"
       d="M 28.973999,27.286 19.8912,34.620307" /><path
       id="path52"
       style="fill:none;stroke:#FFFFFF;stroke-width:0.13333333;stroke-linecap:butt;stroke-linejoin:round;stroke-miterlimit:4;stroke-dasharray:none;stroke-opacity:1"
       d="m 31.890666,27.286 -9.0828,7.334307" /><path
       id="path54"
       style="fill:none;stroke:#FFFFFF;stroke-width:0.13333333;stroke-linecap:butt;stroke-linejoin:round;stroke-miterlimit:4;stroke-dasharray:none;stroke-opacity:1"
       d="m 34.807332,27.286 -9.082799,7.334307" /><path
       id="path56"
       style="fill:none;stroke:#FFFFFF;stroke-width:0.13333333;stroke-linecap:butt;stroke-linejoin:round;stroke-miterlimit:4;stroke-dasharray:none;stroke-opacity:1"
       d="m 37.723999,27.286 -9.083333,7.334307" /><path
       id="path58"
       style="fill:none;stroke:#FFFFFF;stroke-width:0.13333333;stroke-linecap:butt;stroke-linejoin:round;stroke-miterlimit:4;stroke-dasharray:none;stroke-opacity:1"
       d="m 40.640666,27.286 -9.083333,7.334307" /><path
       id="path60"
       style="fill:none;stroke:#FFFFFF;stroke-width:0.13333333;stroke-linecap:butt;stroke-linejoin:round;stroke-miterlimit:4;stroke-dasharray:none;stroke-opacity:1"
       d="m 43.557332,27.286 -9.083333,7.334307" /><path
       id="path62"
       style="fill:none;stroke:#FFFFFF;stroke-width:0.13333333;stroke-linecap:butt;stroke-linejoin:round;stroke-miterlimit:4;stroke-dasharray:none;stroke-opacity:1"
       d="m 46.473999,27.286 -9.083333,7.334307" /><path
       id="path64"
       style="fill:none;stroke:#FFFFFF;stroke-width:0.13333333;stroke-linecap:butt;stroke-linejoin:round;stroke-miterlimit:4;stroke-dasharray:none;stroke-opacity:1"
       d="m 49.390665,27.286 -9.083333,7.334307" /><path
       id="path66"
       style="fill:none;stroke:#FFFFFF;stroke-width:0.13333333;stroke-linecap:butt;stroke-linejoin:round;stroke-miterlimit:4;stroke-dasharray:none;stroke-opacity:1"
       d="M 9.2401064,33.84688 H 41.575466" /><path
       id="path68"
       style="fill:none;stroke:#FFFFFF;stroke-width:0.13333333;stroke-linecap:butt;stroke-linejoin:round;stroke-miterlimit:4;stroke-dasharray:none;stroke-opacity:1"
       d="M 11.414586,32.166133 H 43.249999" /><path
       id="path70"
       style="fill:none;stroke:#FFFFFF;stroke-width:0.13333333;stroke-linecap:butt;stroke-linejoin:round;stroke-miterlimit:4;stroke-dasharray:none;stroke-opacity:1"
       d="M 13.669733,30.4864 H 45.421866" /><path
       id="path72"
       style="fill:none;stroke:#FFFFFF;stroke-width:0.13333333;stroke-linecap:butt;stroke-linejoin:round;stroke-miterlimit:4;stroke-dasharray:none;stroke-opacity:1"
       d="M 15.6776,28.804133 H 47.679732" /><path
       id="path74"
       style="fill:#FFFFFF;fill-opacity:1;fill-rule:nonzero;stroke:none;stroke-width:0.13333333"
       d="m 35.371866,9.7702673 h 5.218266 c 1.266134,0.3849337 1.138534,1.3985337 1.138534,1.3985337 0,1.011466 -0.885467,1.271866 -0.885467,1.271866 h -9.508266 c -1.7724,-0.1344 -1.131867,-1.652133 -1.131867,-1.652133 l 4.031333,-4.6354666 c 0.642667,-0.6432 2.109867,0 2.109867,0 0.925466,0.9239999 0.514133,1.7485332 0.514133,1.7485332 l -1.486533,1.8686667" /><path
       id="path76"
       style="fill:#FFFFFF;fill-opacity:1;fill-rule:nonzero;stroke:none;stroke-width:0.13333333"
       d="m 39.116666,17.0932 h -5.218267 c -1.266133,-0.386933 -1.138,-1.398933 -1.138,-1.398933 0,-1.012533 0.886,-1.272933 0.886,-1.272933 h 9.5072 c 1.773467,0.133866 1.1328,1.652133 1.1328,1.652133 L 40.254666,20.7104 c -0.644267,0.6432 -2.109867,0 -2.109867,0 -0.926533,-0.9276 -0.514533,-1.75 -0.514533,-1.75 l 1.4864,-1.8672" /><path
       id="path78"
       style="fill:#707070;fill-opacity:1;fill-rule:nonzero;stroke:none;stroke-width:0.13333333"
       d="m 50.020799,41.559373 c 0,0.82032 -0.6624,1.482813 -1.4844,1.482813 -0.8176,0 -1.4828,-0.662493 -1.4828,-1.482813 0,-0.817707 0.6652,-1.482293 1.4828,-1.482293 0.822,0 1.4844,0.664586 1.4844,1.482293" /><path
       id="path80"
       style="fill:none;stroke:#707070;stroke-width:0.5333333;stroke-linecap:butt;stroke-linejoin:round;stroke-miterlimit:4;stroke-dasharray:none;stroke-opacity:1"
       d="M 76.063998,44.030733 C 71.541732,45.591666 63.230665,45.979688 56.455732,44.845306 51.989599,44.10052 49.197865,42.860933 48.539065,41.559373" /><path
       id="path82"
       style="fill:none;stroke:#707070;stroke-width:1.33333325;stroke-linecap:butt;stroke-linejoin:round;stroke-miterlimit:4;stroke-dasharray:none;stroke-opacity:1"
       d="m 58.579732,36.481253 c 1.0036,-2.391146 2.826533,-4.81512 5.373333,-6.91152 6.317733,-5.205733 14.695333,-6.428533 18.712,-2.730666 4.017199,3.696933 2.1552,10.913013 -4.1624,16.118746 -0.599067,0.494787 -1.216267,0.95052 -1.8464,1.370827" /><path
       id="path84"
       style="fill:#707070;fill-opacity:1;fill-rule:nonzero;stroke:none;stroke-width:0.13333333"
       d="m 79.216131,44.32864 c 0,1.415106 -1.145866,2.55886 -2.559866,2.55886 -1.413067,0 -2.559867,-1.143754 -2.559867,-2.55886 0,-1.414054 1.1468,-2.559894 2.559867,-2.559894 1.414,0 2.559866,1.14584 2.559866,2.559894" /><path
       id="path86"
       style="fill:none;stroke:#FFFFFF;stroke-width:0.5333333;stroke-linecap:butt;stroke-linejoin:miter;stroke-miterlimit:4;stroke-dasharray:none;stroke-opacity:1"
       d="m 79.216131,44.32864 c 0,1.415106 -1.145866,2.55886 -2.559866,2.55886 -1.413067,0 -2.559867,-1.143754 -2.559867,-2.55886 0,-1.414054 1.1468,-2.559894 2.559867,-2.559894 1.414,0 2.559866,1.14584 2.559866,2.559894 z" /><path
       id="path88"
       style="fill:#707070;fill-opacity:1;fill-rule:nonzero;stroke:none;stroke-width:0.13333333"
       d="m 60.035465,36.465627 c 0,0.818746 -0.665733,1.482813 -1.483333,1.482813 -0.819333,0 -1.481867,-0.664067 -1.481867,-1.482813 0,-0.817707 0.662534,-1.482294 1.481867,-1.482294 0.8176,0 1.483333,0.664587 1.483333,1.482294" /></g></svg>