<?xml version="1.0" encoding="utf-8"?>
<!-- Generator: Adobe Illustrator 20.1.0, SVG Export Plug-In . SVG Version: 6.00 Build 0)  -->
<svg version="1.1" id="Layer_1" xmlns="http://www.w3.org/2000/svg" xmlns:xlink="http://www.w3.org/1999/xlink" x="0px" y="0px"
	 viewBox="0 0 97.6 48.5" style="enable-background:new 0 0 97.6 48.5;" xml:space="preserve">
<style type="text/css">
	.st0{fill:#707070;stroke:#FFFFFF;stroke-width:0.8;}
	.st1{fill:#FFFFFF;}
	.st2{fill:none;stroke:#FFFFFF;stroke-width:0.56;stroke-linecap:round;}
	.st3{fill:none;stroke:#FFFFFF;stroke-width:0.336;stroke-linecap:round;}
	.st4{fill:none;stroke:#FFFFFF;stroke-width:2;}
</style>
<g>
	<g>
		<g>
			<polygon class="st0" points="1.1,24.2 30,0.9 96.6,0.9 72.7,24.2 			"/>
			<path class="st1" d="M66.6,13.2l1.8-1.8l5.6,2.5l-9.7,2.8l2.2-2.9H48.7l0.6-0.6H66.6z"/>
			<path class="st1" d="M55.9,7.3l-0.6,0.6H37.2L34.5,10l-4.7-2.3l10.7-3.1l-2.6,2.6H55.9z"/>
			<path class="st1" d="M46,17.3L45.3,18H27.2l-2.7,2l-4.8-2.3l10.9-3l-2.5,2.6H46z"/>
			<path class="st1" d="M76.8,4.8l1.8-1.8l5.6,2.4l-9.7,2.8l2.1-2.8H58.7l0.6-0.6H76.8z"/>
			<path class="st1" d="M66.7,13.8l1.8-1.8l4.8,2.1L63.6,17l2.5-2.5H48.2l0.6-0.6H66.7z"/>
			<path class="st1" d="M55.3,7.9l-0.6,0.6H36.9l-1.8,1.8l-4.8-2.1L40,5.4l-2.5,2.5H55.3z"/>
			<polygon class="st0" points="72.7,47.4 96.6,21.7 96.6,0.9 72.7,24.2 			"/>
			<path class="st1" d="M45.3,18l-0.6,0.6H26.8L25,20.4l-4.8-2.1l9.7-2.8L27.4,18H45.3z"/>
			<path class="st1" d="M76.8,5.4l1.8-1.8l4.8,2.1l-9.7,2.8l2.5-2.5H58.4L59,5.4H76.8z"/>
			<line class="st2" x1="75.7" y1="6.2" x2="73.5" y2="8.4"/>
			<line class="st3" x1="65" y1="15.1" x2="63.7" y2="16.4"/>
			<line class="st3" x1="48.9" y1="13.7" x2="48.3" y2="14.2"/>
			<line class="st2" x1="59.4" y1="5.1" x2="58.4" y2="5.9"/>
			<rect x="1.2" y="24.2" class="st0" width="71.5" height="23.2"/>
		</g>
		<g>
			<g>
				<g>
					<g>
						<polygon class="st1" points="20.2,33.1 20.2,28.4 21,28.4 19.9,26.7 18.7,28.4 19.5,28.4 19.5,33.1 						"/>
						<polygon class="st1" points="17.9,33.7 14.6,30.4 15.1,29.9 13.1,29.5 13.5,31.5 14.1,31 17.3,34.3 						"/>
						<polygon class="st1" points="16.7,35.9 12,35.9 12,35.1 10.3,36.2 12,37.4 12,36.6 16.7,36.6 						"/>
						<polygon class="st1" points="17.3,38.2 14.1,41.5 13.5,41 13.1,43 15.1,42.6 14.6,42 17.9,38.8 						"/>
						<polygon class="st1" points="19.5,39.4 19.5,44.1 18.7,44.1 19.9,45.8 21,44.1 20.2,44.1 20.2,39.4 						"/>
						<polygon class="st1" points="22.4,34.3 25.7,31 26.2,31.5 26.6,29.5 24.6,29.9 25.1,30.4 21.9,33.7 						"/>
					</g>
				</g>
				<g>

						<ellipse transform="matrix(0.8191 -0.5737 0.5737 0.8191 -17.1562 17.9905)" class="st1" cx="19.9" cy="36.2" rx="4.8" ry="4.8"/>
				</g>
				<g>
					<polygon class="st1" points="22.3,38.8 25.6,42 25,42.6 27.1,43 26.6,41 26.1,41.5 22.8,38.2 					"/>
				</g>
			</g>
		</g>
		<line class="st4" x1="22.6" y1="36.3" x2="53.1" y2="36.3"/>
	</g>
	<g>
		<g>
			<g>
				<g>
					<polygon class="st1" points="55.2,38.3 55.2,41.6 54.6,41.6 55.4,42.8 56.2,41.6 55.7,41.6 55.7,38.3 					"/>
					<polygon class="st1" points="56.8,37.9 59.1,40.2 58.7,40.6 60.2,40.9 59.9,39.4 59.5,39.8 57.2,37.5 					"/>
					<polygon class="st1" points="57.7,36.4 60.9,36.4 60.9,36.9 62.1,36.1 60.9,35.3 60.9,35.8 57.7,35.8 					"/>
					<polygon class="st1" points="57.2,34.7 59.5,32.4 59.9,32.8 60.2,31.4 58.7,31.7 59.1,32 56.8,34.3 					"/>
					<polygon class="st1" points="55.7,33.9 55.7,30.6 56.2,30.6 55.4,29.4 54.6,30.6 55.2,30.6 55.2,33.9 					"/>
					<polygon class="st1" points="53.7,37.5 51.4,39.8 51,39.4 50.7,40.9 52.1,40.6 51.7,40.2 54,37.9 					"/>
				</g>
			</g>
			<g>

					<ellipse transform="matrix(0.8191 -0.5737 0.5737 0.8191 -10.7198 38.3008)" class="st1" cx="55.4" cy="36.1" rx="3.4" ry="3.4"/>
			</g>
			<g>
				<polygon class="st1" points="53.7,34.3 51.4,32 51.8,31.7 50.4,31.4 50.7,32.8 51.1,32.4 53.4,34.7 				"/>
			</g>
		</g>
	</g>
</g>
</svg>
