<?xml version="1.0" encoding="UTF-8" standalone="no"?>
<svg
   xmlns:dc="http://purl.org/dc/elements/1.1/"
   xmlns:cc="http://creativecommons.org/ns#"
   xmlns:rdf="http://www.w3.org/1999/02/22-rdf-syntax-ns#"
   xmlns:svg="http://www.w3.org/2000/svg"
   xmlns="http://www.w3.org/2000/svg"
   viewBox="0 0 34.626667 39.333332"
   height="39.333332"
   width="34.626667"
   xml:space="preserve"
   id="svg2"
   version="1.1"><metadata
     id="metadata8"><rdf:RDF><cc:Work
         rdf:about=""><dc:format>image/svg+xml</dc:format><dc:type
           rdf:resource="http://purl.org/dc/dcmitype/StillImage" /></cc:Work></rdf:RDF></metadata><defs
     id="defs6"><clipPath
       id="clipPath20"
       clipPathUnits="userSpaceOnUse"><path
         id="path18"
         d="m 0,4.96484 h 260 v 290 H 0 Z" /></clipPath></defs><g
     transform="matrix(1.3333333,0,0,-1.3333333,0,39.333333)"
     id="g10"><g
       transform="scale(0.1)"
       id="g12"><g
         id="g14"><g
           clip-path="url(#clipPath20)"
           id="g16"><path
             id="path22"
             style="fill:#707070;fill-opacity:1;fill-rule:nonzero;stroke:none"
             d="m 204.836,4.55078 c 5.516,0 10,4.48047 10,10.00002 V 137.051 c 0,5.519 -4.484,10 -10,10 H 14.8281 c -5.52341,0 -9.99997,-4.481 -9.99997,-10 V 14.5508 c 0,-5.51955 4.47656,-10.00002 9.99997,-10.00002 H 204.836" /><path
             id="path24"
             style="fill:none;stroke:#ffffff;stroke-width:3.99993992;stroke-linecap:butt;stroke-linejoin:miter;stroke-miterlimit:4;stroke-dasharray:none;stroke-opacity:1"
             d="m 204.836,4.55078 c 5.516,0 10,4.48047 10,10.00002 V 137.051 c 0,5.519 -4.484,10 -10,10 H 14.8281 c -5.52341,0 -9.99997,-4.481 -9.99997,-10 V 14.5508 c 0,-5.51955 4.47656,-10.00002 9.99997,-10.00002 z" /><path
             id="path26"
             style="fill:#707070;fill-opacity:1;fill-rule:nonzero;stroke:none"
             d="m 214.836,147.324 40,40 H 44.8281 l -39.99997,-40 H 214.836" /><path
             id="path28"
             style="fill:none;stroke:#ffffff;stroke-width:3.99993992;stroke-linecap:butt;stroke-linejoin:miter;stroke-miterlimit:4;stroke-dasharray:none;stroke-opacity:1"
             d="m 214.836,147.324 40,40 H 44.8281 l -39.99997,-40 z" /><path
             id="path30"
             style="fill:#707070;fill-opacity:1;fill-rule:nonzero;stroke:none"
             d="M 254.836,44.8242 V 187.324 l -40,-40 V 4.82422 l 40,39.99998" /><path
             id="path32"
             style="fill:none;stroke:#ffffff;stroke-width:3.99993992;stroke-linecap:butt;stroke-linejoin:miter;stroke-miterlimit:4;stroke-dasharray:none;stroke-opacity:1"
             d="M 254.836,44.8242 V 187.324 l -40,-40 V 4.82422 Z" /><path
             id="path34"
             style="fill:#707070;fill-opacity:1;fill-rule:nonzero;stroke:none"
             d="m 131.16,275.363 c -30.226,0 -54.7303,-24.511 -54.7303,-54.738 l 0.0742,-48.621 c 0.4063,-3.867 -3.4766,-7.902 -9.2773,-8.508 -5.7969,-0.605 -12.086,2.277 -12.4844,6.152 l -0.0117,48.282 c 0,41.465 33.6133,75.078 75.0825,75.078 41.464,0 75.082,-33.613 75.082,-75.078 v -52.664 c -0.415,-3.868 -4.575,-6.465 -10.43,-6.274 -5.332,0.18 -10.18,7.121 -9.777,10.988 l 0.214,50.645 c 0,30.227 -23.507,54.738 -53.742,54.738" /><path
             id="path36"
             style="fill:none;stroke:#ffffff;stroke-width:3.99993992;stroke-linecap:butt;stroke-linejoin:miter;stroke-miterlimit:4;stroke-dasharray:none;stroke-opacity:1"
             d="m 131.16,275.363 c -30.226,0 -54.7303,-24.511 -54.7303,-54.738 l 0.0742,-48.621 c 0.4063,-3.867 -3.4766,-7.902 -9.2773,-8.508 -5.7969,-0.605 -12.086,2.277 -12.4844,6.152 l -0.0117,48.282 c 0,41.465 33.6133,75.078 75.0825,75.078 41.464,0 75.082,-33.613 75.082,-75.078 v -52.664 c -0.415,-3.868 -4.575,-6.465 -10.43,-6.274 -5.332,0.18 -10.18,7.121 -9.777,10.988 l 0.214,50.645 c 0,30.227 -23.507,54.738 -53.742,54.738 z" /><path
             id="path38"
             style="fill:#ffffff;fill-opacity:1;fill-rule:nonzero;stroke:none"
             d="m 109.578,63.3125 c 9.488,0 17.184,9.9414 17.184,22.1953 0,12.2578 -7.696,22.1952 -17.184,22.1952 -9.488,0 -17.1796,-9.9374 -17.1796,-22.1952 0,-12.2539 7.6916,-22.1953 17.1796,-22.1953" /><path
             id="path40"
             style="fill:#ffffff;fill-opacity:1;fill-rule:nonzero;stroke:none"
             d="m 114.703,40.5352 v 43.6171 l -10.754,-7.875 V 32.668 l 10.754,7.8672" /></g></g></g></g></svg>