<?xml version="1.0" encoding="utf-8"?>
<!-- Generator: Adobe Illustrator 20.1.0, SVG Export Plug-In . SVG Version: 6.00 Build 0)  -->
<svg version="1.1" id="Layer_1" xmlns="http://www.w3.org/2000/svg" xmlns:xlink="http://www.w3.org/1999/xlink" x="0px" y="0px"
	 viewBox="0 0 73.3 49.7" style="enable-background:new 0 0 73.3 49.7;" xml:space="preserve">
<style type="text/css">
	.st0{fill:#707070;stroke:#FFFFFF;stroke-width:0.8;}
	.st1{fill:#707070;}
	.st2{fill:#FFFFFF;}
</style>
<g>
	<g>
		<g>
			<g>
				<path class="st0" d="M72.9,14.5c0,7.8-16.2,14.1-36.3,14.1c-20,0-36.3-6.3-36.3-14.1v20.7c0,7.8,16.2,14.1,36.3,14.1
					c20,0,36.3-6.3,36.3-14.1V14.5z"/>
				<path class="st0" d="M72.9,14.5c0,7.8-16.2,14.1-36.3,14.1c-20,0-36.3-6.3-36.3-14.1v20.7c0,7.8,16.2,14.1,36.3,14.1
					c20,0,36.3-6.3,36.3-14.1V14.5z"/>
			</g>
			<ellipse class="st0" cx="36.7" cy="14.5" rx="36.3" ry="14.1"/>
			<polygon class="st1" points="53.2,18.7 61.1,21.6 53.2,25.4 53.2,23.1 13.8,23.1 13.7,20.1 53.2,20 			"/>
		</g>
	</g>
	<path class="st2" d="M21.6,10.6h1.8c1,4.4,1.1,5,1.3,5.9h0c0.1-0.8,0.3-1.7,1.1-5.9h1.8c0.9,4.4,1,4.9,1.2,5.9h0
		c0.1-0.8,0.3-1.5,1.3-5.9h1.7l-2.3,8.1H28c-0.8-4-1-4.8-1.3-6.3h0c-0.2,1.6-0.4,2.1-1.3,6.3h-1.6L21.6,10.6z"/>
	<path class="st2" d="M32.2,10.6H34c1,4.4,1.1,5,1.3,5.9h0c0.1-0.8,0.3-1.7,1.1-5.9h1.8c0.9,4.4,1,4.9,1.2,5.9h0
		c0.1-0.8,0.3-1.5,1.3-5.9h1.7l-2.3,8.1h-1.6c-0.8-4-1-4.8-1.3-6.3h0c-0.2,1.6-0.4,2.1-1.3,6.3h-1.6L32.2,10.6z"/>
	<path class="st2" d="M42.9,10.6h1.8c1,4.4,1.1,5,1.3,5.9h0c0.1-0.8,0.3-1.7,1.1-5.9h1.8c0.9,4.4,1,4.9,1.2,5.9h0
		c0.1-0.8,0.3-1.5,1.3-5.9h1.7l-2.3,8.1h-1.6c-0.8-4-1-4.8-1.3-6.3h0c-0.2,1.6-0.4,2.1-1.3,6.3h-1.6L42.9,10.6z"/>
</g>
</svg>
