<?xml version="1.0" encoding="utf-8"?>
<!-- Generator: Adobe Illustrator 20.1.0, SVG Export Plug-In . SVG Version: 6.00 Build 0)  -->
<svg version="1.1" id="Layer_1" xmlns="http://www.w3.org/2000/svg" xmlns:xlink="http://www.w3.org/1999/xlink" x="0px" y="0px"
	 viewBox="0 0 83.1 64.5" style="enable-background:new 0 0 83.1 64.5;" xml:space="preserve">
<style type="text/css">
	.st0{fill:#707070;stroke:#FFFFFF;stroke-width:0.8;}
	.st1{stroke:#FFFFFF;stroke-width:0.8;}
	.st2{fill:#707070;stroke:#FFFFFF;stroke-width:0.8;}
	.st3{fill:#FFFFFF;}
	.st4{fill:none;stroke:#FFFFFF;stroke-width:0.8;stroke-linecap:round;stroke-linejoin:round;}
	.st5{fill:#FFFFFF;stroke:#707070;stroke-width:0.8;}
</style>
<g>
	<rect x="22.3" y="8.2" class="st0" width="53.6" height="53.7"/>
	<polygon class="st0" points="28.6,1.3 82.2,1.3 75.5,8.1 21.9,8.1 	"/>
	<polygon class="st0" points="82.4,53.4 75.7,63.2 75.7,7.7 82.4,1 	"/>
	<rect x="0.6" y="8.2" class="st0" width="21.7" height="53.7"/>
	<polygon class="st0" points="7.7,1.3 29.4,1.3 22.7,8.1 1,8.1 	"/>
	<line class="st1" x1="22.3" y1="8.2" x2="22.3" y2="61.9"/>
	<line class="st2" x1="22.6" y1="8.1" x2="29.3" y2="1.3"/>
	<path class="st3" d="M10.8,23.1l-0.2,0.3c-1.3,2-2.5,3.1-3.3,3.1c-1,0-2-0.8-2.9-2.4c0.1,0,0.2,0,0.3,0c1.1,0,2.4-0.9,3.8-2.6
		L8.7,21l-0.5-0.5C7,19.1,6.4,18,6.4,17.1c0-0.8,0.7-1.7,2.1-2.7c0.2,1.3,0.8,2.6,1.8,3.9l0.4,0.5l0.3-0.4c1.4-1.9,2.7-2.8,3.9-2.8
		c0.9,0,1.6,0.7,2.1,2.1c-0.1,0-0.2,0-0.3,0c-0.4,0-1,0.3-1.7,0.8c-0.8,0.6-1.4,1.2-1.9,1.9l-0.4,0.5l0.4,0.4c1.4,1.3,2.8,2,4.3,2
		c-0.8,1.6-1.6,2.4-2.5,2.4c-0.8,0-1.9-0.7-3.4-2.1L10.8,23.1z"/>
	<path class="st3" d="M16.9,43.2c-1.3,1.4-2.8,3.2-4.3,5.5C11,51,9.9,52.9,9.1,54.5l-1,0.7c-0.8,0.5-1.3,1-1.6,1.2
		c-0.1-0.4-0.4-1.1-0.7-2l-0.4-0.8c-0.5-1.2-1-2.1-1.4-2.7c-0.4-0.6-0.9-1-1.5-1.1c0.9-1,1.8-1.5,2.6-1.5c0.7,0,1.4,0.9,2.2,2.7
		l0.4,0.9c1.5-2.6,3.9-5.4,7.1-8.6l0.9-0.8l2.4-1.9c0.6-0.4,1.2-0.8,1.7-1.1l0.5,0.7c-0.5,0.3-1,0.8-1.5,1.2L16.9,43.2z"/>
	<line class="st0" x1="22.1" y1="34.1" x2="0.4" y2="34.1"/>
</g>
<line class="st4" x1="75.5" y1="46.8" x2="22.2" y2="46.8"/>
<line class="st4" x1="75.5" y1="54.2" x2="22.2" y2="54.2"/>
<line class="st4" x1="81.9" y1="45.3" x2="76" y2="54.3"/>
<line class="st4" x1="38" y1="54.6" x2="38" y2="61.3"/>
<line class="st4" x1="58.6" y1="54.6" x2="58.6" y2="61.3"/>
<line class="st4" x1="48.7" y1="47.1" x2="48.7" y2="53.8"/>
<line class="st4" x1="28.1" y1="47.1" x2="28.1" y2="53.8"/>
<line class="st4" x1="69.3" y1="47.1" x2="69.3" y2="53.8"/>
<line class="st1" x1="75.6" y1="47" x2="82.2" y2="37.2"/>
<line class="st4" x1="78.8" y1="51" x2="78.8" y2="58.9"/>
<line class="st4" x1="80.2" y1="41.1" x2="80.2" y2="49"/>
<path class="st1" d="M40.7,55.8"/>
<circle class="st5" cx="37.3" cy="42.7" r="1.7"/>
<rect x="35.5" y="35.3" transform="matrix(0.6987 -0.7154 0.7154 0.6987 -14.2257 41.5787)" class="st5" width="13.6" height="4.7"/>
<path class="st5" d="M44,24c0,7.1,5.8,12.9,12.9,12.9c7.1,0,12.9-5.8,12.9-12.9c0-7.1-5.8-12.9-12.9-12.9C49.8,11.1,44,16.9,44,24z
	 M45.8,24c0-6.1,5-11.1,11.1-11.1C63,12.9,68,17.9,68,24c0,6.1-5,11.1-11.1,11.1C50.8,35.1,45.8,30.1,45.8,24z"/>
<path class="st5" d="M42.5,24.8c0,7.1,5.8,12.9,12.9,12.9c7.1,0,12.9-5.8,12.9-12.9c0-7.1-5.8-12.9-12.9-12.9
	C48.3,11.9,42.5,17.6,42.5,24.8z M44.3,24.8c0-6.1,5-11.1,11.1-11.1c6.1,0,11.1,5,11.1,11.1c0,6.1-5,11.1-11.1,11.1
	C49.2,35.8,44.3,30.9,44.3,24.8z"/>
<path d="M37.3,42.7"/>
</svg>
