<?xml version="1.0" encoding="utf-8"?>
<!-- Generator: Adobe Illustrator 20.1.0, SVG Export Plug-In . SVG Version: 6.00 Build 0)  -->
<svg version="1.1" id="Layer_1" xmlns="http://www.w3.org/2000/svg" xmlns:xlink="http://www.w3.org/1999/xlink" x="0px" y="0px"
	 viewBox="0 0 74.4 50.4" style="enable-background:new 0 0 74.4 50.4;" xml:space="preserve">
<style type="text/css">
	.st0{fill:#707070;stroke:#FFFFFF;stroke-width:0.8;}
	.st1{fill:#FFFFFF;}
	.st2{fill:#707070;}
</style>
<g>
	<g>
		<path class="st0" d="M74,14.7C74,22.6,57.5,29,37.2,29C16.9,29,0.4,22.6,0.4,14.7v21C0.4,43.6,16.9,50,37.2,50
			C57.5,50,74,43.6,74,35.7V14.7z"/>
		<ellipse class="st0" cx="37.2" cy="14.7" rx="36.8" ry="14.3"/>
		<polygon class="st1" points="28.8,9.1 31.8,13.7 20.3,16.3 22.8,14.2 5.1,11.2 9.6,7.9 26.7,10.8 		"/>
		<polygon class="st1" points="44.9,20.2 42.9,15.5 53.2,13.4 51.4,15 68.7,18 64.6,21.3 47.4,18 		"/>
		<polygon class="st1" points="39.3,6.6 50.9,3.4 51,8.4 48.1,7.9 42.5,12.6 37.1,11.8 42.9,7.2 		"/>
		<polygon class="st1" points="34.3,24.4 23.3,26.5 22.8,21.4 26,22.1 32.1,16.9 37.5,17.8 31,23.5 		"/>
	</g>
	<polygon class="st1" points="23.2,32.8 23.2,34.6 19,32.3 23.2,29.9 23.2,31.7 23.1,31.6 30.3,31.6 30.3,29.8 34.4,32.2 30.3,34.5 
		30.3,32.8 23.1,32.8 	"/>
	<polygon class="st1" points="23.2,45.8 23.2,47.5 19,45.2 23.2,42.8 23.2,44.6 23.1,44.5 30.3,44.5 30.3,42.8 34.4,45.1 30.3,47.4 
		30.3,45.7 23.1,45.7 	"/>
	<polygon class="st1" points="23.2,39.4 23.2,41.2 19,38.9 23.2,36.5 23.2,38.3 23.1,38.2 28.1,38.2 28.1,36.4 32.3,38.8 28.1,41.1 
		28.1,39.4 23.1,39.4 	"/>
	<g>
		<path class="st1" d="M55.3,43.9c-0.7,0-1.3-2-1.2-4.5c0-2.5,0.6-4.5,1.3-4.5l-5.3,0c-0.7,0-1.3,2-1.3,4.5c0,2.5,0.5,4.5,1.2,4.5
			L55.3,43.9z"/>
		
			<ellipse transform="matrix(8.395153e-03 -1 1 8.395153e-03 15.4596 94.4563)" class="st0" cx="55.4" cy="39.4" rx="4.2" ry="1.3"/>
		<ellipse transform="matrix(8.220897e-03 -1 1 8.220897e-03 2.9848 81.0505)" class="st1" cx="42.4" cy="39" rx="8.9" ry="8.9"/>
		<ellipse transform="matrix(8.200084e-03 -1 1 8.200084e-03 2.8923 81.2864)" class="st2" cx="42.4" cy="39.2" rx="4.3" ry="4.3"/>
	</g>
</g>
</svg>
