<?xml version="1.0" encoding="utf-8"?>
<!-- Generator: Adobe Illustrator 20.1.0, SVG Export Plug-In . SVG Version: 6.00 Build 0)  -->
<svg version="1.1" id="Layer_1" xmlns="http://www.w3.org/2000/svg" xmlns:xlink="http://www.w3.org/1999/xlink" x="0px" y="0px"
	 viewBox="0 0 97.6 48" style="enable-background:new 0 0 97.6 48;" xml:space="preserve">
<style type="text/css">
	.st0{fill:#707070;stroke:#FFFFFF;stroke-width:0.8;}
	.st1{fill:#FFFFFF;}
	.st2{fill:none;stroke:#FFFFFF;stroke-width:0.56;stroke-linecap:round;stroke-linejoin:round;}
	.st3{fill:none;stroke:#FFFFFF;stroke-width:0.8;}
	.st4{fill:#FFFFFF;}
</style>
<g>
	<g>
		<polygon class="st0" points="1.1,24.2 30,0.9 96.6,0.9 72.7,24.2 		"/>
		<polygon class="st1" points="66.7,13.8 68.4,12.1 73.3,14.2 63.6,17 66,14.5 48.2,14.5 48.8,13.8 		"/>
		<polygon class="st1" points="55.3,7.9 54.7,8.5 36.9,8.5 35.1,10.3 30.3,8.2 40,5.4 37.5,7.9 		"/>
		<polygon class="st0" points="72.7,47 96.6,22.9 96.6,0.9 72.7,24.2 		"/>
		<polygon class="st1" points="45.3,18 44.6,18.6 26.8,18.6 25,20.4 20.2,18.3 29.9,15.5 27.4,18 		"/>
		<polygon class="st1" points="76.8,5.4 78.6,3.7 83.4,5.8 73.7,8.6 76.2,6.1 58.4,6.1 59,5.4 		"/>
		<line class="st2" x1="75.7" y1="6.2" x2="73.5" y2="8.4"/>
		<line class="st2" x1="65.4" y1="14.7" x2="63.2" y2="16.9"/>
		<line class="st2" x1="49.2" y1="13.5" x2="48.1" y2="14.4"/>
		<line class="st2" x1="59.4" y1="5.1" x2="58.4" y2="5.9"/>
		<polygon class="st0" points="72.7,47.3 72.7,24.2 1.2,24.2 1.2,47.5 		"/>
	</g>
	<g>
		<polygon class="st1" points="27.7,36 14.3,36 14.3,34.8 9.3,36.6 14.3,38.4 14.3,37.2 27.7,37.2 		"/>
		<polygon class="st1" points="35.2,39.9 35.2,44.6 31.8,44.6 36.9,46.4 41.9,44.6 38.5,44.6 38.5,39.9 		"/>
		<polygon class="st1" points="35.2,33.5 35.2,28.7 31.8,28.7 36.9,26.9 41.9,28.7 38.5,28.7 38.5,33.5 		"/>
		<polygon class="st1" points="46.1,37.2 59.4,37.2 59.4,38.4 64.5,36.6 59.4,34.8 59.4,36 46.1,36 		"/>
		<path class="st3" d="M58.4,44.2c-2.5,0.9-14-1.6-25.7-5.8c-11.7-4.1-19.2-8.2-16.6-9.2c2.5-0.9,14,1.6,25.7,5.8
			C53.4,39.2,60.9,43.3,58.4,44.2z"/>
		<path class="st3" d="M57.7,29.2c2.6,0.9-4.6,5-16.3,9.1c-11.6,4.2-23.2,6.8-25.9,5.9c-2.6-0.9,4.6-5,16.3-9.1
			C43.5,31,55,28.3,57.7,29.2z"/>
	</g>
	<path class="st4" d="M42.3,39.3c4.4-1.1,5.5-3.3,2.4-4.8c-3.1-1.6-9.2-1.9-13.6-0.8c-4.4,1.1-5.5,3.3-2.4,4.8
		C31.8,40.1,37.9,40.4,42.3,39.3z"/>
</g>
</svg>
