<?xml version="1.0" encoding="UTF-8" standalone="no"?>
<svg
   xmlns:dc="http://purl.org/dc/elements/1.1/"
   xmlns:cc="http://creativecommons.org/ns#"
   xmlns:rdf="http://www.w3.org/1999/02/22-rdf-syntax-ns#"
   xmlns:svg="http://www.w3.org/2000/svg"
   xmlns="http://www.w3.org/2000/svg"
   viewBox="0 0 67.893333 30.76"
   height="30.76"
   width="67.893333"
   xml:space="preserve"
   id="svg2"
   version="1.1"><metadata
     id="metadata8"><rdf:RDF><cc:Work
         rdf:about=""><dc:format>image/svg+xml</dc:format><dc:type
           rdf:resource="http://purl.org/dc/dcmitype/StillImage" /></cc:Work></rdf:RDF></metadata><defs
     id="defs6" /><g
     transform="matrix(1.3333333,0,0,-1.3333333,0,30.76)"
     id="g10"><g
       transform="scale(0.1)"
       id="g12"><path
         id="path14"
         style="fill:#707070;fill-opacity:1;fill-rule:nonzero;stroke:none"
         d="m 4.03125,5.82031 h 410.98 v 49.2578 h -410.98 z" /><path
         id="path16"
         style="fill:none;stroke:#ffffff;stroke-width:3.99993992;stroke-linecap:butt;stroke-linejoin:miter;stroke-miterlimit:4;stroke-dasharray:none;stroke-opacity:1"
         d="M 4.03125,5.82031 V 55.0781 H 415.012 V 5.82031 Z" /><path
         id="path18"
         style="fill:#707070;fill-opacity:1;fill-rule:nonzero;stroke:none"
         d="M 415.012,55.0781 H 3.80859 L 103.645,199.988 H 505.547 L 415.012,55.0781" /><path
         id="path20"
         style="fill:none;stroke:#ffffff;stroke-width:3.99993992;stroke-linecap:butt;stroke-linejoin:miter;stroke-miterlimit:4;stroke-dasharray:none;stroke-opacity:1"
         d="M 415.012,55.0781 H 3.80859 L 103.645,199.988 h 401.902 z" /><path
         id="path22"
         style="fill:#707070;fill-opacity:1;fill-rule:nonzero;stroke:none"
         d="M 505.547,199.988 V 107.344 L 415.012,5.27344 V 55.0781 l 90.535,144.9099" /><path
         id="path24"
         style="fill:none;stroke:#ffffff;stroke-width:3.99993992;stroke-linecap:butt;stroke-linejoin:miter;stroke-miterlimit:4;stroke-dasharray:none;stroke-opacity:1"
         d="M 505.547,199.988 V 107.344 L 415.012,5.27344 V 55.0781 Z" /><path
         id="path26"
         style="fill:#707070;fill-opacity:1;fill-rule:nonzero;stroke:none"
         d="M 31.9063,71.8047 60.7148,113.973 H 274.402 L 245.598,71.8047 H 31.9063" /><path
         id="path28"
         style="fill:none;stroke:#ffffff;stroke-width:3.99993992;stroke-linecap:butt;stroke-linejoin:miter;stroke-miterlimit:4;stroke-dasharray:none;stroke-opacity:1"
         d="M 31.9063,71.8047 60.7148,113.973 H 274.402 L 245.598,71.8047 Z" /><path
         id="path30"
         style="fill:#707070;fill-opacity:1;fill-rule:nonzero;stroke:none"
         d="m 60.7148,113.973 28.7969,42.179" /><path
         id="path32"
         style="fill:none;stroke:#ffffff;stroke-width:3.99993992;stroke-linecap:butt;stroke-linejoin:miter;stroke-miterlimit:4;stroke-dasharray:none;stroke-opacity:1"
         d="m 60.7148,113.973 28.7969,42.179" /><path
         id="path34"
         style="fill:#707070;fill-opacity:1;fill-rule:nonzero;stroke:none"
         d="m 274.402,113.973 28.801,42.179" /><path
         id="path36"
         style="fill:none;stroke:#ffffff;stroke-width:3.99993992;stroke-linecap:butt;stroke-linejoin:miter;stroke-miterlimit:4;stroke-dasharray:none;stroke-opacity:1"
         d="m 274.402,113.973 28.801,42.179" /><path
         id="path38"
         style="fill:#707070;fill-opacity:1;fill-rule:nonzero;stroke:none"
         d="M 415.012,55.0781 505.547,199.988" /><path
         id="path40"
         style="fill:none;stroke:#ffffff;stroke-width:3.99993992;stroke-linecap:butt;stroke-linejoin:miter;stroke-miterlimit:4;stroke-dasharray:none;stroke-opacity:1"
         d="M 415.012,55.0781 505.547,199.988" /><path
         id="path42"
         style="fill:#707070;fill-opacity:1;fill-rule:nonzero;stroke:none"
         d="M 371.133,173.633 C 358.23,158.809 342.336,141.531 332.129,124.758 l 0.867,-10.879 -31.805,-49.1329 -3.679,31.9727 c 6.043,24.1992 81.109,119.2582 98.394,130.4962 l 3.696,-31.973 -27.661,-31.824 -0.808,10.215" /><path
         id="path44"
         style="fill:none;stroke:#ffffff;stroke-width:3.99993992;stroke-linecap:butt;stroke-linejoin:miter;stroke-miterlimit:4;stroke-dasharray:none;stroke-opacity:1"
         d="M 371.133,173.633 C 358.23,158.809 342.336,141.531 332.129,124.758 l 0.867,-10.879 -31.805,-49.1329 -3.679,31.9727 c 6.043,24.1992 81.109,119.2582 98.394,130.4962 l 3.696,-31.973 -27.661,-31.824 z" /><path
         id="path46"
         style="fill:#707070;fill-opacity:1;fill-rule:nonzero;stroke:none"
         d="m 259.941,96.7188 -3.679,-31.9727 h 44.929 l -3.679,31.9727 h -37.571" /><path
         id="path48"
         style="fill:none;stroke:#ffffff;stroke-width:3.99993992;stroke-linecap:butt;stroke-linejoin:miter;stroke-miterlimit:4;stroke-dasharray:none;stroke-opacity:1"
         d="m 259.941,96.7188 -3.679,-31.9727 h 44.929 l -3.679,31.9727 z" /><path
         id="path50"
         style="fill:#707070;fill-opacity:1;fill-rule:nonzero;stroke:none"
         d="M 395.906,227.215 C 378.621,215.977 303.555,120.918 297.512,96.7188 h -37.571 c 6.043,24.1992 81.114,119.2582 98.399,130.4962 h 37.566" /><path
         id="path52"
         style="fill:none;stroke:#ffffff;stroke-width:3.99993992;stroke-linecap:butt;stroke-linejoin:miter;stroke-miterlimit:4;stroke-dasharray:none;stroke-opacity:1"
         d="M 395.906,227.215 C 378.621,215.977 303.555,120.918 297.512,96.7188 h -37.571 c 6.043,24.1992 81.114,119.2582 98.399,130.4962 z" /><path
         id="path54"
         style="fill:#707070;fill-opacity:1;fill-rule:nonzero;stroke:none"
         d="m 331.023,71.7266 44.368,63.3124 h 66.757 L 402.52,71.7266 h -71.497" /><path
         id="path56"
         style="fill:none;stroke:#ffffff;stroke-width:3.99993992;stroke-linecap:butt;stroke-linejoin:miter;stroke-miterlimit:4;stroke-dasharray:none;stroke-opacity:1"
         d="m 331.023,71.7266 44.368,63.3124 h 66.757 L 402.52,71.7266 Z" /><path
         id="path58"
         style="fill:#707070;fill-opacity:1;fill-rule:nonzero;stroke:none"
         d="m 378.691,71.7266 41.204,63.3124" /><path
         id="path60"
         style="fill:none;stroke:#ffffff;stroke-width:3.99993992;stroke-linecap:butt;stroke-linejoin:miter;stroke-miterlimit:4;stroke-dasharray:none;stroke-opacity:1"
         d="m 378.691,71.7266 41.204,63.3124" /><path
         id="path62"
         style="fill:#707070;fill-opacity:1;fill-rule:nonzero;stroke:none"
         d="m 354.863,71.7266 42.782,63.3124" /><path
         id="path64"
         style="fill:none;stroke:#ffffff;stroke-width:3.99993992;stroke-linecap:butt;stroke-linejoin:miter;stroke-miterlimit:4;stroke-dasharray:none;stroke-opacity:1"
         d="m 354.863,71.7266 42.782,63.3124" /><path
         id="path66"
         style="fill:#707070;fill-opacity:1;fill-rule:nonzero;stroke:none"
         d="M 412.434,87.5586 H 342.117" /><path
         id="path68"
         style="fill:none;stroke:#ffffff;stroke-width:3.99993992;stroke-linecap:butt;stroke-linejoin:miter;stroke-miterlimit:4;stroke-dasharray:none;stroke-opacity:1"
         d="M 412.434,87.5586 H 342.117" /><path
         id="path70"
         style="fill:#707070;fill-opacity:1;fill-rule:nonzero;stroke:none"
         d="M 422.336,103.379 H 353.215" /><path
         id="path72"
         style="fill:none;stroke:#ffffff;stroke-width:3.99993992;stroke-linecap:butt;stroke-linejoin:miter;stroke-miterlimit:4;stroke-dasharray:none;stroke-opacity:1"
         d="M 422.336,103.379 H 353.215" /><path
         id="path74"
         style="fill:#707070;fill-opacity:1;fill-rule:nonzero;stroke:none"
         d="M 432.246,119.211 H 364.297" /><path
         id="path76"
         style="fill:none;stroke:#ffffff;stroke-width:3.99993992;stroke-linecap:butt;stroke-linejoin:miter;stroke-miterlimit:4;stroke-dasharray:none;stroke-opacity:1"
         d="M 432.246,119.211 H 364.297" /></g></g></svg>