<?xml version="1.0" encoding="UTF-8" standalone="no"?>
<svg
   xmlns:dc="http://purl.org/dc/elements/1.1/"
   xmlns:cc="http://creativecommons.org/ns#"
   xmlns:rdf="http://www.w3.org/1999/02/22-rdf-syntax-ns#"
   xmlns:svg="http://www.w3.org/2000/svg"
   xmlns="http://www.w3.org/2000/svg"
   viewBox="0 0 41.066666 30.76"
   height="30.76"
   width="41.066666"
   xml:space="preserve"
   id="svg2"
   version="1.1"><metadata
     id="metadata8"><rdf:RDF><cc:Work
         rdf:about=""><dc:format>image/svg+xml</dc:format><dc:type
           rdf:resource="http://purl.org/dc/dcmitype/StillImage" /></cc:Work></rdf:RDF></metadata><defs
     id="defs6" /><g
     transform="matrix(1.3333333,0,0,-1.3333333,0,30.76)"
     id="g10"><g
       transform="scale(0.1)"
       id="g12"><path
         id="path14"
         style="fill:#707070;fill-opacity:1;fill-rule:nonzero;stroke:none"
         d="m 4.03125,5.82031 h 209.863 v 49.2578 H 4.03125 Z" /><path
         id="path16"
         style="fill:none;stroke:#FFFFFF;stroke-width:3.99993992;stroke-linecap:butt;stroke-linejoin:miter;stroke-miterlimit:4;stroke-dasharray:none;stroke-opacity:1"
         d="M 4.03125,5.82031 V 55.0781 H 213.895 V 5.82031 Z" /><path
         id="path18"
         style="fill:#707070;fill-opacity:1;fill-rule:nonzero;stroke:none"
         d="M 213.895,55.0781 H 3.80859 L 103.645,199.988 H 304.434 L 213.895,55.0781" /><path
         id="path20"
         style="fill:none;stroke:#FFFFFF;stroke-width:3.99993992;stroke-linecap:butt;stroke-linejoin:miter;stroke-miterlimit:4;stroke-dasharray:none;stroke-opacity:1"
         d="M 213.895,55.0781 H 3.80859 L 103.645,199.988 h 200.789 z" /><path
         id="path22"
         style="fill:#707070;fill-opacity:1;fill-rule:nonzero;stroke:none"
         d="M 304.434,199.988 V 107.344 L 213.895,5.27344 V 55.0781 l 90.539,144.9099" /><path
         id="path24"
         style="fill:none;stroke:#FFFFFF;stroke-width:3.99993992;stroke-linecap:butt;stroke-linejoin:miter;stroke-miterlimit:4;stroke-dasharray:none;stroke-opacity:1"
         d="M 304.434,199.988 V 107.344 L 213.895,5.27344 V 55.0781 Z" /><path
         id="path26"
         style="fill:#707070;fill-opacity:1;fill-rule:nonzero;stroke:none"
         d="M 213.895,55.0781 304.434,199.988" /><path
         id="path28"
         style="fill:none;stroke:#FFFFFF;stroke-width:3.99993992;stroke-linecap:butt;stroke-linejoin:miter;stroke-miterlimit:4;stroke-dasharray:none;stroke-opacity:1"
         d="M 213.895,55.0781 304.434,199.988" /><path
         id="path30"
         style="fill:#707070;fill-opacity:1;fill-rule:nonzero;stroke:none"
         d="m 170.02,173.633 c -12.903,-14.824 -28.797,-32.11 -39.004,-48.867 l 0.871,-10.887 -31.809,-49.1329 -3.6796,31.9727 C 102.441,120.918 177.52,215.977 194.805,227.215 l 3.679,-31.981 -27.656,-31.816 -0.808,10.215" /><path
         id="path32"
         style="fill:none;stroke:#FFFFFF;stroke-width:3.99993992;stroke-linecap:butt;stroke-linejoin:miter;stroke-miterlimit:4;stroke-dasharray:none;stroke-opacity:1"
         d="m 170.02,173.633 c -12.903,-14.824 -28.797,-32.11 -39.004,-48.867 l 0.871,-10.887 -31.809,-49.1329 -3.6796,31.9727 C 102.441,120.918 177.52,215.977 194.805,227.215 l 3.679,-31.981 -27.656,-31.816 z" /><path
         id="path34"
         style="fill:#707070;fill-opacity:1;fill-rule:nonzero;stroke:none"
         d="M 58.8281,96.7188 55.1484,64.7461 H 100.078 L 96.3984,96.7188 H 58.8281" /><path
         id="path36"
         style="fill:none;stroke:#FFFFFF;stroke-width:3.99993992;stroke-linecap:butt;stroke-linejoin:miter;stroke-miterlimit:4;stroke-dasharray:none;stroke-opacity:1"
         d="M 58.8281,96.7188 55.1484,64.7461 h 44.9296 l -3.6796,31.9727 z" /><path
         id="path38"
         style="fill:#707070;fill-opacity:1;fill-rule:nonzero;stroke:none"
         d="M 194.805,227.215 C 177.52,215.977 102.441,120.918 96.3984,96.7188 H 58.8281 C 64.8828,120.918 139.941,215.977 157.227,227.215 h 37.578" /><path
         id="path40"
         style="fill:none;stroke:#FFFFFF;stroke-width:3.99993992;stroke-linecap:butt;stroke-linejoin:miter;stroke-miterlimit:4;stroke-dasharray:none;stroke-opacity:1"
         d="M 194.805,227.215 C 177.52,215.977 102.441,120.918 96.3984,96.7188 H 58.8281 C 64.8828,120.918 139.941,215.977 157.227,227.215 Z" /><path
         id="path42"
         style="fill:#707070;fill-opacity:1;fill-rule:nonzero;stroke:none"
         d="m 129.922,71.7383 44.355,63.3007 h 66.758 L 201.406,71.7383 h -71.484" /><path
         id="path44"
         style="fill:none;stroke:#FFFFFF;stroke-width:3.99993992;stroke-linecap:butt;stroke-linejoin:miter;stroke-miterlimit:4;stroke-dasharray:none;stroke-opacity:1"
         d="m 129.922,71.7383 44.355,63.3007 h 66.758 L 201.406,71.7383 Z" /><path
         id="path46"
         style="fill:#707070;fill-opacity:1;fill-rule:nonzero;stroke:none"
         d="m 177.578,71.7383 41.211,63.3007" /><path
         id="path48"
         style="fill:none;stroke:#FFFFFF;stroke-width:3.99993992;stroke-linecap:butt;stroke-linejoin:miter;stroke-miterlimit:4;stroke-dasharray:none;stroke-opacity:1"
         d="m 177.578,71.7383 41.211,63.3007" /><path
         id="path50"
         style="fill:#707070;fill-opacity:1;fill-rule:nonzero;stroke:none"
         d="m 153.75,71.7383 42.781,63.3007" /><path
         id="path52"
         style="fill:none;stroke:#FFFFFF;stroke-width:3.99993992;stroke-linecap:butt;stroke-linejoin:miter;stroke-miterlimit:4;stroke-dasharray:none;stroke-opacity:1"
         d="m 153.75,71.7383 42.781,63.3007" /><path
         id="path54"
         style="fill:#707070;fill-opacity:1;fill-rule:nonzero;stroke:none"
         d="M 211.316,87.5586 H 141.008" /><path
         id="path56"
         style="fill:none;stroke:#FFFFFF;stroke-width:3.99993992;stroke-linecap:butt;stroke-linejoin:miter;stroke-miterlimit:4;stroke-dasharray:none;stroke-opacity:1"
         d="M 211.316,87.5586 H 141.008" /><path
         id="path58"
         style="fill:#707070;fill-opacity:1;fill-rule:nonzero;stroke:none"
         d="M 221.223,103.379 H 152.102" /><path
         id="path60"
         style="fill:none;stroke:#FFFFFF;stroke-width:3.99993992;stroke-linecap:butt;stroke-linejoin:miter;stroke-miterlimit:4;stroke-dasharray:none;stroke-opacity:1"
         d="M 221.223,103.379 H 152.102" /><path
         id="path62"
         style="fill:#707070;fill-opacity:1;fill-rule:nonzero;stroke:none"
         d="M 231.133,119.211 H 163.184" /><path
         id="path64"
         style="fill:none;stroke:#FFFFFF;stroke-width:3.99993992;stroke-linecap:butt;stroke-linejoin:miter;stroke-miterlimit:4;stroke-dasharray:none;stroke-opacity:1"
         d="M 231.133,119.211 H 163.184" /></g></g></svg>