<?xml version="1.0" encoding="UTF-8" standalone="no"?>
<svg
   xmlns:dc="http://purl.org/dc/elements/1.1/"
   xmlns:cc="http://creativecommons.org/ns#"
   xmlns:rdf="http://www.w3.org/1999/02/22-rdf-syntax-ns#"
   xmlns:svg="http://www.w3.org/2000/svg"
   xmlns="http://www.w3.org/2000/svg"
   viewBox="0 0 23.68 63.946667"
   height="63.946667"
   width="23.68"
   xml:space="preserve"
   id="svg2"
   version="1.1"><metadata
     id="metadata8"><rdf:RDF><cc:Work
         rdf:about=""><dc:format>image/svg+xml</dc:format><dc:type
           rdf:resource="http://purl.org/dc/dcmitype/StillImage" /></cc:Work></rdf:RDF></metadata><defs
     id="defs6"><clipPath
       id="clipPath34"
       clipPathUnits="userSpaceOnUse"><path
         id="path32"
         d="m 131.871,444.238 5.195,6.367 h 3.575 v -33.457 h 21.504 l 1.992,-1.992 h 1.992 l 3.379,3.387 c 3.398,1.398 5.39,-4.98 5.39,-4.98 v -2.383 c 0,0 -1.992,-6.375 -5.39,-4.989 l -3.379,3.387 h -1.992 l -1.992,-1.98 h -21.504 v -33.465 h -3.575 l -5.195,6.375 v 63.73" /></clipPath><linearGradient
       id="linearGradient42"
       spreadMethod="pad"
       gradientTransform="matrix(43.0274,0,0,-116.475,133.433,470.605)"
       gradientUnits="userSpaceOnUse"
       y2="0"
       x2="1"
       y1="0"
       x1="0"><stop
         id="stop38"
         offset="0"
         style="stop-opacity:1;stop-color:#333333" /><stop
         id="stop40"
         offset="1"
         style="stop-opacity:1;stop-color:#ffffff" /></linearGradient><clipPath
       id="clipPath58"
       clipPathUnits="userSpaceOnUse"><path
         id="path56"
         d="m 131.871,444.238 5.195,6.367 h 3.575 v -33.457 h 21.504 l 1.992,-1.992 h 1.992 l 3.379,3.387 c 3.398,1.398 5.39,-4.98 5.39,-4.98 v -2.383 c 0,0 -1.992,-6.375 -5.39,-4.989 l -3.379,3.387 h -1.992 l -1.992,-1.98 h -21.504 v -33.465 h -3.575 l -5.195,6.375 v 63.73" /></clipPath><linearGradient
       id="linearGradient66"
       spreadMethod="pad"
       gradientTransform="matrix(43.0274,0,0,-116.475,133.433,470.605)"
       gradientUnits="userSpaceOnUse"
       y2="0"
       x2="1"
       y1="0"
       x1="0"><stop
         id="stop62"
         offset="0"
         style="stop-opacity:1;stop-color:#333333" /><stop
         id="stop64"
         offset="1"
         style="stop-opacity:1;stop-color:#ffffff" /></linearGradient><clipPath
       id="clipPath82"
       clipPathUnits="userSpaceOnUse"><path
         id="path80"
         d="m 131.871,340.984 5.195,6.379 h 3.575 v -33.468 h 21.504 l 1.992,-1.993 h 1.992 l 3.379,3.399 c 3.398,1.387 5.39,-4.988 5.39,-4.988 v -2.383 c 0,0 -1.992,-6.379 -5.39,-4.981 l -3.379,3.391 h -1.992 l -1.992,-1.996 h -21.504 v -33.457 h -3.575 l -5.195,6.371 v 63.726" /></clipPath><linearGradient
       id="linearGradient90"
       spreadMethod="pad"
       gradientTransform="matrix(43.0274,0,0,-116.475,133.433,367.363)"
       gradientUnits="userSpaceOnUse"
       y2="0"
       x2="1"
       y1="0"
       x1="0"><stop
         id="stop86"
         offset="0"
         style="stop-opacity:1;stop-color:#333333" /><stop
         id="stop88"
         offset="1"
         style="stop-opacity:1;stop-color:#ffffff" /></linearGradient><clipPath
       id="clipPath106"
       clipPathUnits="userSpaceOnUse"><path
         id="path104"
         d="m 131.871,340.984 5.195,6.379 h 3.575 v -33.468 h 21.504 l 1.992,-1.993 h 1.992 l 3.379,3.399 c 3.398,1.387 5.39,-4.988 5.39,-4.988 v -2.383 c 0,0 -1.992,-6.379 -5.39,-4.981 l -3.379,3.391 h -1.992 l -1.992,-1.996 h -21.504 v -33.457 h -3.575 l -5.195,6.371 v 63.726" /></clipPath><linearGradient
       id="linearGradient114"
       spreadMethod="pad"
       gradientTransform="matrix(43.0274,0,0,-116.475,133.433,367.363)"
       gradientUnits="userSpaceOnUse"
       y2="0"
       x2="1"
       y1="0"
       x1="0"><stop
         id="stop110"
         offset="0"
         style="stop-opacity:1;stop-color:#333333" /><stop
         id="stop112"
         offset="1"
         style="stop-opacity:1;stop-color:#ffffff" /></linearGradient></defs><g
     transform="matrix(1.3333333,0,0,-1.3333333,0,63.946667)"
     id="g10"><g
       transform="scale(0.1)"
       id="g12"><path
         id="path14"
         style="fill:#ffffff;fill-opacity:1;fill-rule:nonzero;stroke:none"
         d="m 45.5352,225.82 h 62.9961 V 449.824 H 45.5352 Z" /><path
         id="path16"
         style="fill:none;stroke:#707070;stroke-width:8.00002956;stroke-linecap:butt;stroke-linejoin:miter;stroke-miterlimit:1;stroke-dasharray:none;stroke-opacity:1"
         d="M 108.531,225.82 H 45.5352 v 224.004 h 62.9958 z" /><path
         id="path18"
         style="fill:#ffffff;fill-opacity:1;fill-rule:nonzero;stroke:none"
         d="M 3.97656,3.57422 45.5352,227.566 H 108.531 L 145.719,3.57422" /><path
         id="path20"
         style="fill:none;stroke:#707070;stroke-width:8.00002956;stroke-linecap:butt;stroke-linejoin:miter;stroke-miterlimit:1;stroke-dasharray:none;stroke-opacity:1"
         d="M 3.97656,3.57422 45.5352,227.566 H 108.531 L 145.719,3.57422" /><path
         id="path22"
         style="fill:none;stroke:#707070;stroke-width:8.00002956;stroke-linecap:butt;stroke-linejoin:miter;stroke-miterlimit:1;stroke-dasharray:none;stroke-opacity:1"
         d="M 1.78906,3.57422 131.285,68.3203 26.2891,127.82 l 87.4959,54.25 -64.7537,43.75 57.7617,77 -59.5078,49.004 61.2458,54.25 -62.9958,42" /><path
         id="path24"
         style="fill:none;stroke:#707070;stroke-width:8.00002956;stroke-linecap:butt;stroke-linejoin:miter;stroke-miterlimit:1;stroke-dasharray:none;stroke-opacity:1"
         d="M 146.773,3.57422 21.7969,68.3203 126.793,127.82 l -87.4961,54.25 64.7461,43.75 -57.7461,77 59.5001,49.004 -61.2462,54.25 63.0042,42" /><path
         id="path26"
         style="fill:none;stroke:#707070;stroke-width:8.00002956;stroke-linecap:butt;stroke-linejoin:miter;stroke-miterlimit:1;stroke-dasharray:none;stroke-opacity:1"
         d="M 104.797,449.824 H 47.0391 l 14.4062,27.91 h 28.3008 z" /><g
         id="g28"><g
           clip-path="url(#clipPath34)"
           id="g30"><path
             id="path36"
             style="fill:#333333;fill-opacity:1;fill-rule:nonzero;stroke:none"
             d="m 131.871,444.238 5.195,6.367 h 3.575 v -33.457 h 21.504 l 1.992,-1.992 h 1.992 l 3.379,3.387 c 3.398,1.398 5.39,-4.98 5.39,-4.98 v -2.383 c 0,0 -1.992,-6.375 -5.39,-4.989 l -3.379,3.387 h -1.992 l -1.992,-1.98 h -21.504 v -33.465 h -3.575 l -5.195,6.375 v 63.73" /><path
             id="path44"
             style="fill:url(#linearGradient42);fill-opacity:1;fill-rule:nonzero;stroke:none"
             d="m 131.871,444.238 5.195,6.367 h 3.575 v -33.457 h 21.504 l 1.992,-1.992 h 1.992 l 3.379,3.387 c 3.398,1.398 5.39,-4.98 5.39,-4.98 v -2.383 c 0,0 -1.992,-6.375 -5.39,-4.989 l -3.379,3.387 h -1.992 l -1.992,-1.98 h -21.504 v -33.465 h -3.575 l -5.195,6.375 v 63.73" /></g></g><path
         id="path46"
         style="fill:none;stroke:#000000;stroke-width:8.00002956;stroke-linecap:butt;stroke-linejoin:miter;stroke-miterlimit:1;stroke-dasharray:none;stroke-opacity:1"
         d="m 131.871,444.238 5.195,6.367 h 3.575 v -33.457 h 21.504 l 1.992,-1.992 h 1.992 l 3.379,3.387 c 3.398,1.398 5.39,-4.98 5.39,-4.98 v -2.383 c 0,0 -1.992,-6.375 -5.39,-4.989 l -3.379,3.387 h -1.992 l -1.992,-1.98 h -21.504 v -33.465 h -3.575 l -5.195,6.375 z" /><path
         id="path48"
         style="fill:#b2b2b2;fill-opacity:1;fill-rule:nonzero;stroke:none"
         d="m 131.871,380.508 h -11.152 c -5.977,6.777 -5.176,20.711 -5.176,20.711 h -11.551 v 9.551 3.195 9.558 h 11.551 c 0,0 -0.801,13.938 5.176,20.715 h 11.152 v -63.73" /><path
         id="path50"
         style="fill:none;stroke:#000000;stroke-width:8.00002956;stroke-linecap:butt;stroke-linejoin:miter;stroke-miterlimit:1;stroke-dasharray:none;stroke-opacity:1"
         d="m 131.871,380.508 h -11.152 c -5.977,6.777 -5.176,20.711 -5.176,20.711 h -11.551 v 9.551 3.195 9.558 h 11.551 c 0,0 -0.801,13.938 5.176,20.715 h 11.152 z" /><g
         id="g52"><g
           clip-path="url(#clipPath58)"
           id="g54"><path
             id="path60"
             style="fill:#333333;fill-opacity:1;fill-rule:nonzero;stroke:none"
             d="m 131.871,444.238 5.195,6.367 h 3.575 v -33.457 h 21.504 l 1.992,-1.992 h 1.992 l 3.379,3.387 c 3.398,1.398 5.39,-4.98 5.39,-4.98 v -2.383 c 0,0 -1.992,-6.375 -5.39,-4.989 l -3.379,3.387 h -1.992 l -1.992,-1.98 h -21.504 v -33.465 h -3.575 l -5.195,6.375 v 63.73" /><path
             id="path68"
             style="fill:url(#linearGradient66);fill-opacity:1;fill-rule:nonzero;stroke:none"
             d="m 131.871,444.238 5.195,6.367 h 3.575 v -33.457 h 21.504 l 1.992,-1.992 h 1.992 l 3.379,3.387 c 3.398,1.398 5.39,-4.98 5.39,-4.98 v -2.383 c 0,0 -1.992,-6.375 -5.39,-4.989 l -3.379,3.387 h -1.992 l -1.992,-1.98 h -21.504 v -33.465 h -3.575 l -5.195,6.375 v 63.73" /></g></g><path
         id="path70"
         style="fill:none;stroke:#707070;stroke-width:8.00002956;stroke-linecap:butt;stroke-linejoin:miter;stroke-miterlimit:1;stroke-dasharray:none;stroke-opacity:1"
         d="m 131.871,444.238 5.195,6.367 h 3.575 v -33.457 h 21.504 l 1.992,-1.992 h 1.992 l 3.379,3.387 c 3.398,1.398 5.39,-4.98 5.39,-4.98 v -2.383 c 0,0 -1.992,-6.375 -5.39,-4.989 l -3.379,3.387 h -1.992 l -1.992,-1.98 h -21.504 v -33.465 h -3.575 l -5.195,6.375 z" /><path
         id="path72"
         style="fill:#b2b2b2;fill-opacity:1;fill-rule:nonzero;stroke:none"
         d="m 131.871,380.508 h -11.152 c -5.977,6.777 -5.176,20.711 -5.176,20.711 h -11.551 v 9.551 3.195 9.558 h 11.551 c 0,0 -0.801,13.938 5.176,20.715 h 11.152 v -63.73" /><path
         id="path74"
         style="fill:none;stroke:#707070;stroke-width:8.00002956;stroke-linecap:butt;stroke-linejoin:miter;stroke-miterlimit:1;stroke-dasharray:none;stroke-opacity:1"
         d="m 131.871,380.508 h -11.152 c -5.977,6.777 -5.176,20.711 -5.176,20.711 h -11.551 v 9.551 3.195 9.558 h 11.551 c 0,0 -0.801,13.938 5.176,20.715 h 11.152 z" /><g
         id="g76"><g
           clip-path="url(#clipPath82)"
           id="g78"><path
             id="path84"
             style="fill:#333333;fill-opacity:1;fill-rule:nonzero;stroke:none"
             d="m 131.871,340.984 5.195,6.379 h 3.575 v -33.468 h 21.504 l 1.992,-1.993 h 1.992 l 3.379,3.399 c 3.398,1.387 5.39,-4.988 5.39,-4.988 v -2.383 c 0,0 -1.992,-6.379 -5.39,-4.981 l -3.379,3.391 h -1.992 l -1.992,-1.996 h -21.504 v -33.457 h -3.575 l -5.195,6.371 v 63.726" /><path
             id="path92"
             style="fill:url(#linearGradient90);fill-opacity:1;fill-rule:nonzero;stroke:none"
             d="m 131.871,340.984 5.195,6.379 h 3.575 v -33.468 h 21.504 l 1.992,-1.993 h 1.992 l 3.379,3.399 c 3.398,1.387 5.39,-4.988 5.39,-4.988 v -2.383 c 0,0 -1.992,-6.379 -5.39,-4.981 l -3.379,3.391 h -1.992 l -1.992,-1.996 h -21.504 v -33.457 h -3.575 l -5.195,6.371 v 63.726" /></g></g><path
         id="path94"
         style="fill:none;stroke:#000000;stroke-width:8.00002956;stroke-linecap:butt;stroke-linejoin:miter;stroke-miterlimit:1;stroke-dasharray:none;stroke-opacity:1"
         d="m 131.871,340.984 5.195,6.379 h 3.575 v -33.468 h 21.504 l 1.992,-1.993 h 1.992 l 3.379,3.399 c 3.398,1.387 5.39,-4.988 5.39,-4.988 v -2.383 c 0,0 -1.992,-6.379 -5.39,-4.981 l -3.379,3.391 h -1.992 l -1.992,-1.996 h -21.504 v -33.457 h -3.575 l -5.195,6.371 z" /><path
         id="path96"
         style="fill:#b2b2b2;fill-opacity:1;fill-rule:nonzero;stroke:none"
         d="m 131.871,277.258 h -11.152 c -5.977,6.773 -5.176,20.711 -5.176,20.711 h -11.551 v 9.558 3.188 9.558 h 11.551 c 0,0 -0.801,13.938 5.176,20.711 h 11.152 v -63.726" /><path
         id="path98"
         style="fill:none;stroke:#000000;stroke-width:8.00002956;stroke-linecap:butt;stroke-linejoin:miter;stroke-miterlimit:1;stroke-dasharray:none;stroke-opacity:1"
         d="m 131.871,277.258 h -11.152 c -5.977,6.773 -5.176,20.711 -5.176,20.711 h -11.551 v 9.558 3.188 9.558 h 11.551 c 0,0 -0.801,13.938 5.176,20.711 h 11.152 z" /><g
         id="g100"><g
           clip-path="url(#clipPath106)"
           id="g102"><path
             id="path108"
             style="fill:#333333;fill-opacity:1;fill-rule:nonzero;stroke:none"
             d="m 131.871,340.984 5.195,6.379 h 3.575 v -33.468 h 21.504 l 1.992,-1.993 h 1.992 l 3.379,3.399 c 3.398,1.387 5.39,-4.988 5.39,-4.988 v -2.383 c 0,0 -1.992,-6.379 -5.39,-4.981 l -3.379,3.391 h -1.992 l -1.992,-1.996 h -21.504 v -33.457 h -3.575 l -5.195,6.371 v 63.726" /><path
             id="path116"
             style="fill:url(#linearGradient114);fill-opacity:1;fill-rule:nonzero;stroke:none"
             d="m 131.871,340.984 5.195,6.379 h 3.575 v -33.468 h 21.504 l 1.992,-1.993 h 1.992 l 3.379,3.399 c 3.398,1.387 5.39,-4.988 5.39,-4.988 v -2.383 c 0,0 -1.992,-6.379 -5.39,-4.981 l -3.379,3.391 h -1.992 l -1.992,-1.996 h -21.504 v -33.457 h -3.575 l -5.195,6.371 v 63.726" /></g></g><path
         id="path118"
         style="fill:none;stroke:#707070;stroke-width:8.00002956;stroke-linecap:butt;stroke-linejoin:miter;stroke-miterlimit:1;stroke-dasharray:none;stroke-opacity:1"
         d="m 131.871,340.984 5.195,6.379 h 3.575 v -33.468 h 21.504 l 1.992,-1.993 h 1.992 l 3.379,3.399 c 3.398,1.387 5.39,-4.988 5.39,-4.988 v -2.383 c 0,0 -1.992,-6.379 -5.39,-4.981 l -3.379,3.391 h -1.992 l -1.992,-1.996 h -21.504 v -33.457 h -3.575 l -5.195,6.371 z" /><path
         id="path120"
         style="fill:#b2b2b2;fill-opacity:1;fill-rule:nonzero;stroke:none"
         d="m 131.871,277.258 h -11.152 c -5.977,6.773 -5.176,20.711 -5.176,20.711 h -11.551 v 9.558 3.188 9.558 h 11.551 c 0,0 -0.801,13.938 5.176,20.711 h 11.152 v -63.726" /><path
         id="path122"
         style="fill:none;stroke:#707070;stroke-width:8.00002956;stroke-linecap:butt;stroke-linejoin:miter;stroke-miterlimit:1;stroke-dasharray:none;stroke-opacity:1"
         d="m 131.871,277.258 h -11.152 c -5.977,6.773 -5.176,20.711 -5.176,20.711 h -11.551 v 9.558 3.188 9.558 h 11.551 c 0,0 -0.801,13.938 5.176,20.711 h 11.152 z" /></g></g></svg>