<?xml version="1.0" encoding="utf-8"?>
<!-- Generator: Adobe Illustrator 20.1.0, SVG Export Plug-In . SVG Version: 6.00 Build 0)  -->
<svg version="1.1" id="Layer_1" xmlns="http://www.w3.org/2000/svg" xmlns:xlink="http://www.w3.org/1999/xlink" x="0px" y="0px"
	 viewBox="0 0 127.6 43.4" style="enable-background:new 0 0 127.6 43.4;" xml:space="preserve">
<style type="text/css">
	.st0{fill:#707070;stroke:#FFFFFF;stroke-width:0.8;}
</style>
<g>
	<polyline class="st0" points="127.2,4.1 127.2,6.7 100.3,16.6 88.1,14.5 80.8,13 75.7,12 75.6,8.6 	"/>
	<g>
		<ellipse class="st0" cx="64.5" cy="40.3" rx="6.2" ry="2.7"/>
	</g>
	<polyline class="st0" points="88.9,11.2 100.4,13.1 127.2,4.1 103.8,0.4 75.6,8.6 83.7,10 	"/>
	<g>
		<path class="st0" d="M86.9,11.7C95.2,9.6,97,7.6,97,7.6c-2.8-1.4-12.9,2.3-12.9,2.3l-1.8,0.6L86.9,11.7z"/>
		<path class="st0" d="M83.7,10l-8.1-1.4l28.2-8.2l23.4,3.7l-26.8,9l-11.7-1.8C95.4,9.7,97,7.6,97,7.6c-2.8-1.4-11.6,1.9-11.6,1.9
			l0,0.1L77.2,12l0,4.5l10.6-3.6l0.1,0c0,0,0.5-1.1,0.5-1.5"/>
		<g>
			<ellipse transform="matrix(0.1729 -0.9849 0.9849 0.1729 61.8269 95.6745)" class="st0" cx="87.9" cy="11" rx="0.2" ry="0.2"/>
		</g>
	</g>
	<path class="st0" d="M51.7,1v33.3c0,3.1,5.7,5.6,12.8,5.6c7,0,12.8-2.5,12.8-5.6V0.7"/>
	<polyline class="st0" points="53.2,27.3 53.2,30.4 25.1,40.3 0.4,34.6 0.4,31 	"/>
	<g>
		<polyline class="st0" points="44.1,26.1 53.2,27.3 25.1,36.6 0.4,30.9 29.8,22.7 36.6,23.8 		"/>
		<g>
			<path class="st0" d="M36.4,23.8c-6.2,1.5-8.5,4.7-8.5,4.7C37.3,28.7,44,26,44,26"/>
		</g>
		<path class="st0" d="M36,23.9l20.6-6c3,0.1,2.6,2.5,2.6,2.5c0.1,1.5-2.2,2.2-2.2,2.2l-13.5,3.5"/>
		<g>
			<ellipse class="st0" cx="43.2" cy="26.1" rx="0.3" ry="0.2"/>
		</g>
	</g>
</g>
</svg>
