<?xml version="1.0" encoding="UTF-8" standalone="no"?>
<svg
   xmlns:dc="http://purl.org/dc/elements/1.1/"
   xmlns:cc="http://creativecommons.org/ns#"
   xmlns:rdf="http://www.w3.org/1999/02/22-rdf-syntax-ns#"
   xmlns:svg="http://www.w3.org/2000/svg"
   xmlns="http://www.w3.org/2000/svg"
   viewBox="0 0 49.68 33.68"
   height="33.68"
   width="49.68"
   xml:space="preserve"
   id="svg2"
   version="1.1"><metadata
     id="metadata8"><rdf:RDF><cc:Work
         rdf:about=""><dc:format>image/svg+xml</dc:format><dc:type
           rdf:resource="http://purl.org/dc/dcmitype/StillImage" /></cc:Work></rdf:RDF></metadata><defs
     id="defs6" /><g
     transform="matrix(1.3333333,0,0,-1.3333333,0,33.68)"
     id="g10"><g
       transform="scale(0.1)"
       id="g12"><path
         id="path14"
         style="fill:#707070;fill-opacity:1;fill-rule:evenodd;stroke:none"
         d="m 370.238,178.691 c 0,-39.511 -82.351,-71.543 -183.925,-71.543 -101.5825,0 -183.92628,32.032 -183.92628,71.543 V 73.9063 c 0,-39.4922 82.34378,-71.52349 183.92628,-71.52349 101.574,0 183.925,32.03129 183.925,71.52349 V 178.691" /><path
         id="path16"
         style="fill:#707070;fill-opacity:1;fill-rule:evenodd;stroke:none"
         d="m 186.313,107.148 c 101.574,0 183.925,32.032 183.925,71.543 0,39.512 -82.351,71.524 -183.925,71.524 -101.5825,0 -183.92628,-32.012 -183.92628,-71.524 0,-39.511 82.34378,-71.543 183.92628,-71.543" /><path
         id="path18"
         style="fill:none;stroke:#FFFFFF;stroke-width:4.77099991;stroke-linecap:square;stroke-linejoin:bevel;stroke-miterlimit:10;stroke-dasharray:none;stroke-opacity:1"
         d="m 370.238,178.691 c 0,-39.511 -82.351,-71.543 -183.925,-71.543 -101.5825,0 -183.92628,32.032 -183.92628,71.543 V 73.9063 c 0,-39.4922 82.34378,-71.52349 183.92628,-71.52349 101.574,0 183.925,32.03129 183.925,71.52349 z" /><path
         id="path20"
         style="fill:none;stroke:#FFFFFF;stroke-width:4.77099991;stroke-linecap:square;stroke-linejoin:bevel;stroke-miterlimit:10;stroke-dasharray:none;stroke-opacity:1"
         d="m 186.313,107.148 c 101.574,0 183.925,32.032 183.925,71.543 0,39.512 -82.351,71.524 -183.925,71.524 -101.5825,0 -183.92628,-32.012 -183.92628,-71.524 0,-39.511 82.34378,-71.543 183.92628,-71.543 z" /><path
         id="path22"
         style="fill:#FFFFFF;fill-opacity:1;fill-rule:nonzero;stroke:none"
         d="m 144.313,206.66 15.183,-22.773 -57.43,-13.282 12.559,10.45 -88.75,15.175 22.2656,16.68 85.6254,-14.512 10.547,8.262" /><path
         id="path24"
         style="fill:#FFFFFF;fill-opacity:1;fill-rule:nonzero;stroke:none"
         d="m 225.113,151.406 -10.371,23.496 51.797,10.352 -8.976,-8.047 86.328,-14.746 -20.723,-16.582 -85.801,16.113 -12.254,-10.586" /><path
         id="path26"
         style="fill:#FFFFFF;fill-opacity:1;fill-rule:nonzero;stroke:none"
         d="m 196.793,219.102 58.008,15.878 0.691,-24.863 -14.5,2.774 -28.32,-23.496 -27.012,3.945 29.219,22.969 -18.086,2.793" /><path
         id="path28"
         style="fill:#FFFFFF;fill-opacity:1;fill-rule:nonzero;stroke:none"
         d="m 171.93,130 -55.254,-10.352 -2.071,25.547 15.887,-3.457 30.41,25.957 26.907,-4.55 L 155.355,134.824 171.93,130" /><path
         id="path30"
         style="fill:#707070;fill-opacity:1;fill-rule:evenodd;stroke:none"
         d="M 104.496,92.8711 H 269.664 V 20.293 H 104.496 v 72.5781 0 0" /><path
         id="path32"
         style="fill:none;stroke:#FFFFFF;stroke-width:7.15700006;stroke-linecap:square;stroke-linejoin:miter;stroke-miterlimit:10;stroke-dasharray:none;stroke-opacity:1"
         d="M 104.496,92.8711 H 269.664 V 20.293 H 104.496 v 72.5781 0 z" /><path
         id="path34"
         style="fill:#FFFFFF;fill-opacity:1;fill-rule:evenodd;stroke:none"
         d="m 231.566,73.2891 h 22.461 V 41.8867 h -22.461 v 31.4024 0 0" /><path
         id="path36"
         style="fill:none;stroke:#FFFFFF;stroke-width:2.38599992;stroke-linecap:square;stroke-linejoin:miter;stroke-miterlimit:10;stroke-dasharray:none;stroke-opacity:1"
         d="m 231.566,73.2891 h 22.461 V 41.8867 h -22.461 v 31.4024 0 z" /><path
         id="path38"
         style="fill:#FFFFFF;fill-opacity:1;fill-rule:evenodd;stroke:none"
         d="m 254.027,87.9688 h 6.848 v -5.8399 h -6.848 v 5.8399 0 0" /><path
         id="path40"
         style="fill:none;stroke:#FFFFFF;stroke-width:2.38599992;stroke-linecap:square;stroke-linejoin:miter;stroke-miterlimit:10;stroke-dasharray:none;stroke-opacity:1"
         d="m 254.027,87.9688 h 6.848 v -5.8399 h -6.848 v 5.8399 0 z" /><path
         id="path42"
         style="fill:#FFFFFF;fill-opacity:1;fill-rule:evenodd;stroke:none"
         d="m 240.355,87.9688 h 6.836 v -5.8399 h -6.836 v 5.8399 0 0" /><path
         id="path44"
         style="fill:none;stroke:#FFFFFF;stroke-width:2.38599992;stroke-linecap:square;stroke-linejoin:miter;stroke-miterlimit:10;stroke-dasharray:none;stroke-opacity:1"
         d="m 240.355,87.9688 h 6.836 v -5.8399 h -6.836 v 5.8399 0 z" /><path
         id="path46"
         style="fill:#FFFFFF;fill-opacity:1;fill-rule:evenodd;stroke:none"
         d="m 226.676,87.9688 h 6.844 v -5.8399 h -6.844 v 5.8399 0 0" /><path
         id="path48"
         style="fill:none;stroke:#FFFFFF;stroke-width:2.38599992;stroke-linecap:square;stroke-linejoin:miter;stroke-miterlimit:10;stroke-dasharray:none;stroke-opacity:1"
         d="m 226.676,87.9688 h 6.844 v -5.8399 h -6.844 v 5.8399 0 z" /><path
         id="path50"
         style="fill:#FFFFFF;fill-opacity:1;fill-rule:evenodd;stroke:none"
         d="m 213.969,87.9688 h 5.871 v -5.8399 h -5.871 v 5.8399 0 0" /><path
         id="path52"
         style="fill:none;stroke:#FFFFFF;stroke-width:2.38599992;stroke-linecap:square;stroke-linejoin:miter;stroke-miterlimit:10;stroke-dasharray:none;stroke-opacity:1"
         d="m 213.969,87.9688 h 5.871 v -5.8399 h -5.871 v 5.8399 0 z" /><path
         id="path54"
         style="fill:#FFFFFF;fill-opacity:1;fill-rule:evenodd;stroke:none"
         d="m 200.289,87.9688 h 5.867 v -5.8399 h -5.867 v 5.8399 0 0" /><path
         id="path56"
         style="fill:none;stroke:#FFFFFF;stroke-width:2.38599992;stroke-linecap:square;stroke-linejoin:miter;stroke-miterlimit:10;stroke-dasharray:none;stroke-opacity:1"
         d="m 200.289,87.9688 h 5.867 v -5.8399 h -5.867 v 5.8399 0 z" /><path
         id="path58"
         style="fill:#FFFFFF;fill-opacity:1;fill-rule:evenodd;stroke:none"
         d="m 186.586,87.9688 h 6.855 v -5.8399 h -6.855 v 5.8399 0 0" /><path
         id="path60"
         style="fill:none;stroke:#FFFFFF;stroke-width:2.38599992;stroke-linecap:square;stroke-linejoin:miter;stroke-miterlimit:10;stroke-dasharray:none;stroke-opacity:1"
         d="m 186.586,87.9688 h 6.855 v -5.8399 h -6.855 v 5.8399 0 z" /><path
         id="path62"
         style="fill:#FFFFFF;fill-opacity:1;fill-rule:evenodd;stroke:none"
         d="m 172.895,87.9688 h 6.835 v -5.8399 h -6.835 v 5.8399 0 0" /><path
         id="path64"
         style="fill:none;stroke:#FFFFFF;stroke-width:2.38599992;stroke-linecap:square;stroke-linejoin:miter;stroke-miterlimit:10;stroke-dasharray:none;stroke-opacity:1"
         d="m 172.895,87.9688 h 6.835 v -5.8399 h -6.835 v 5.8399 0 z" /><path
         id="path66"
         style="fill:#FFFFFF;fill-opacity:1;fill-rule:evenodd;stroke:none"
         d="m 159.223,87.9688 h 6.836 v -5.8399 h -6.836 v 5.8399 0 0" /><path
         id="path68"
         style="fill:none;stroke:#FFFFFF;stroke-width:2.38599992;stroke-linecap:square;stroke-linejoin:miter;stroke-miterlimit:10;stroke-dasharray:none;stroke-opacity:1"
         d="m 159.223,87.9688 h 6.836 v -5.8399 h -6.836 v 5.8399 0 z" /><path
         id="path70"
         style="fill:#FFFFFF;fill-opacity:1;fill-rule:evenodd;stroke:none"
         d="m 145.531,87.9688 h 6.848 v -5.8399 h -6.848 v 5.8399 0 0" /><path
         id="path72"
         style="fill:none;stroke:#FFFFFF;stroke-width:2.38599992;stroke-linecap:square;stroke-linejoin:miter;stroke-miterlimit:10;stroke-dasharray:none;stroke-opacity:1"
         d="m 145.531,87.9688 h 6.848 v -5.8399 h -6.848 v 5.8399 0 z" /><path
         id="path74"
         style="fill:#FFFFFF;fill-opacity:1;fill-rule:evenodd;stroke:none"
         d="m 132.836,87.9688 h 5.859 v -5.8399 h -5.859 v 5.8399 0 0" /><path
         id="path76"
         style="fill:none;stroke:#FFFFFF;stroke-width:2.38599992;stroke-linecap:square;stroke-linejoin:miter;stroke-miterlimit:10;stroke-dasharray:none;stroke-opacity:1"
         d="m 132.836,87.9688 h 5.859 v -5.8399 h -5.859 v 5.8399 0 z" /><path
         id="path78"
         style="fill:#FFFFFF;fill-opacity:1;fill-rule:evenodd;stroke:none"
         d="m 119.164,87.9688 h 5.859 L 126,82.1289 h -6.836 v 5.8399 0 0" /><path
         id="path80"
         style="fill:none;stroke:#FFFFFF;stroke-width:2.38599992;stroke-linecap:square;stroke-linejoin:miter;stroke-miterlimit:10;stroke-dasharray:none;stroke-opacity:1"
         d="m 119.164,87.9688 h 5.859 L 126,82.1289 h -6.836 v 5.8399 0 z" /><path
         id="path82"
         style="fill:#FFFFFF;fill-opacity:1;fill-rule:evenodd;stroke:none"
         d="m 254.027,33.0469 h 6.848 V 27.168 h -6.848 v 5.8789 0 0" /><path
         id="path84"
         style="fill:none;stroke:#FFFFFF;stroke-width:2.38599992;stroke-linecap:square;stroke-linejoin:miter;stroke-miterlimit:10;stroke-dasharray:none;stroke-opacity:1"
         d="m 254.027,33.0469 h 6.848 V 27.168 h -6.848 v 5.8789 0 z" /><path
         id="path86"
         style="fill:#FFFFFF;fill-opacity:1;fill-rule:evenodd;stroke:none"
         d="m 240.355,33.0469 h 6.836 V 27.168 h -6.836 v 5.8789 0 0" /><path
         id="path88"
         style="fill:none;stroke:#FFFFFF;stroke-width:2.38599992;stroke-linecap:square;stroke-linejoin:miter;stroke-miterlimit:10;stroke-dasharray:none;stroke-opacity:1"
         d="m 240.355,33.0469 h 6.836 V 27.168 h -6.836 v 5.8789 0 z" /><path
         id="path90"
         style="fill:#FFFFFF;fill-opacity:1;fill-rule:evenodd;stroke:none"
         d="m 226.676,33.0469 h 6.844 V 27.168 h -6.844 v 5.8789 0 0" /><path
         id="path92"
         style="fill:none;stroke:#FFFFFF;stroke-width:2.38599992;stroke-linecap:square;stroke-linejoin:miter;stroke-miterlimit:10;stroke-dasharray:none;stroke-opacity:1"
         d="m 226.676,33.0469 h 6.844 V 27.168 h -6.844 v 5.8789 0 z" /><path
         id="path94"
         style="fill:#FFFFFF;fill-opacity:1;fill-rule:evenodd;stroke:none"
         d="m 213.969,33.0469 h 5.871 V 27.168 h -5.871 v 5.8789 0 0" /><path
         id="path96"
         style="fill:none;stroke:#FFFFFF;stroke-width:2.38599992;stroke-linecap:square;stroke-linejoin:miter;stroke-miterlimit:10;stroke-dasharray:none;stroke-opacity:1"
         d="m 213.969,33.0469 h 5.871 V 27.168 h -5.871 v 5.8789 0 z" /><path
         id="path98"
         style="fill:#FFFFFF;fill-opacity:1;fill-rule:evenodd;stroke:none"
         d="m 200.289,33.0469 h 5.867 V 27.168 h -5.867 v 5.8789 0 0" /><path
         id="path100"
         style="fill:none;stroke:#FFFFFF;stroke-width:2.38599992;stroke-linecap:square;stroke-linejoin:miter;stroke-miterlimit:10;stroke-dasharray:none;stroke-opacity:1"
         d="m 200.289,33.0469 h 5.867 V 27.168 h -5.867 v 5.8789 0 z" /><path
         id="path102"
         style="fill:#FFFFFF;fill-opacity:1;fill-rule:evenodd;stroke:none"
         d="m 186.586,33.0469 h 6.855 V 27.168 h -6.855 v 5.8789 0 0" /><path
         id="path104"
         style="fill:none;stroke:#FFFFFF;stroke-width:2.38599992;stroke-linecap:square;stroke-linejoin:miter;stroke-miterlimit:10;stroke-dasharray:none;stroke-opacity:1"
         d="m 186.586,33.0469 h 6.855 V 27.168 h -6.855 v 5.8789 0 z" /><path
         id="path106"
         style="fill:#FFFFFF;fill-opacity:1;fill-rule:evenodd;stroke:none"
         d="m 172.895,33.0469 h 6.835 V 27.168 h -6.835 v 5.8789 0 0" /><path
         id="path108"
         style="fill:none;stroke:#FFFFFF;stroke-width:2.38599992;stroke-linecap:square;stroke-linejoin:miter;stroke-miterlimit:10;stroke-dasharray:none;stroke-opacity:1"
         d="m 172.895,33.0469 h 6.835 V 27.168 h -6.835 v 5.8789 0 z" /><path
         id="path110"
         style="fill:#FFFFFF;fill-opacity:1;fill-rule:evenodd;stroke:none"
         d="m 159.223,33.0469 h 6.836 V 27.168 h -6.836 v 5.8789 0 0" /><path
         id="path112"
         style="fill:none;stroke:#FFFFFF;stroke-width:2.38599992;stroke-linecap:square;stroke-linejoin:miter;stroke-miterlimit:10;stroke-dasharray:none;stroke-opacity:1"
         d="m 159.223,33.0469 h 6.836 V 27.168 h -6.836 v 5.8789 0 z" /><path
         id="path114"
         style="fill:#FFFFFF;fill-opacity:1;fill-rule:evenodd;stroke:none"
         d="m 145.531,33.0469 h 6.848 V 27.168 h -6.848 v 5.8789 0 0" /><path
         id="path116"
         style="fill:none;stroke:#FFFFFF;stroke-width:2.38599992;stroke-linecap:square;stroke-linejoin:miter;stroke-miterlimit:10;stroke-dasharray:none;stroke-opacity:1"
         d="m 145.531,33.0469 h 6.848 V 27.168 h -6.848 v 5.8789 0 z" /><path
         id="path118"
         style="fill:#FFFFFF;fill-opacity:1;fill-rule:evenodd;stroke:none"
         d="m 132.836,33.0469 h 5.859 V 27.168 h -5.859 v 5.8789 0 0" /><path
         id="path120"
         style="fill:none;stroke:#FFFFFF;stroke-width:2.38599992;stroke-linecap:square;stroke-linejoin:miter;stroke-miterlimit:10;stroke-dasharray:none;stroke-opacity:1"
         d="m 132.836,33.0469 h 5.859 V 27.168 h -5.859 v 5.8789 0 z" /><path
         id="path122"
         style="fill:#FFFFFF;fill-opacity:1;fill-rule:evenodd;stroke:none"
         d="M 119.164,33.0469 H 126 V 27.168 h -6.836 v 5.8789 0 0" /><path
         id="path124"
         style="fill:none;stroke:#FFFFFF;stroke-width:2.38599992;stroke-linecap:square;stroke-linejoin:miter;stroke-miterlimit:10;stroke-dasharray:none;stroke-opacity:1"
         d="M 119.164,33.0469 H 126 V 27.168 h -6.836 v 5.8789 0 z" /><path
         id="path126"
         style="fill:#FFFFFF;fill-opacity:1;fill-rule:evenodd;stroke:none"
         d="m 195.414,73.2891 h 22.461 V 41.8867 h -22.461 v 31.4024 0 0" /><path
         id="path128"
         style="fill:none;stroke:#FFFFFF;stroke-width:2.38599992;stroke-linecap:square;stroke-linejoin:miter;stroke-miterlimit:10;stroke-dasharray:none;stroke-opacity:1"
         d="m 195.414,73.2891 h 22.461 V 41.8867 h -22.461 v 31.4024 0 z" /><path
         id="path130"
         style="fill:#FFFFFF;fill-opacity:1;fill-rule:evenodd;stroke:none"
         d="m 159.223,73.2891 h 22.472 V 41.8867 h -22.472 v 31.4024 0 0" /><path
         id="path132"
         style="fill:none;stroke:#FFFFFF;stroke-width:2.38599992;stroke-linecap:square;stroke-linejoin:miter;stroke-miterlimit:10;stroke-dasharray:none;stroke-opacity:1"
         d="m 159.223,73.2891 h 22.472 V 41.8867 h -22.472 v 31.4024 0 z" /><path
         id="path134"
         style="fill:#FFFFFF;fill-opacity:1;fill-rule:evenodd;stroke:none"
         d="m 124.047,73.2891 h 21.484 V 41.8867 h -21.484 v 31.4024 0 0" /><path
         id="path136"
         style="fill:none;stroke:#FFFFFF;stroke-width:2.38599992;stroke-linecap:square;stroke-linejoin:miter;stroke-miterlimit:10;stroke-dasharray:none;stroke-opacity:1"
         d="m 124.047,73.2891 h 21.484 V 41.8867 h -21.484 v 31.4024 0 z" /></g></g></svg>