<?xml version="1.0" encoding="utf-8"?>
<!-- Generator: Adobe Illustrator 20.1.0, SVG Export Plug-In . SVG Version: 6.00 Build 0)  -->
<svg version="1.1" id="Layer_1" xmlns="http://www.w3.org/2000/svg" xmlns:xlink="http://www.w3.org/1999/xlink" x="0px" y="0px"
	 viewBox="0 0 109.6 41.3" style="enable-background:new 0 0 109.6 41.3;" xml:space="preserve">
<style type="text/css">
	.st0{fill:#707070;}
	.st1{fill:#707070;stroke:#FFFFFF;stroke-width:0.8;}
	.st2{fill:#FFFFFF;}
	.st3{fill:#707070;stroke:#FFFFFF;stroke-width:0.7462;}
	.st4{fill:#FFFFFF;stroke:#FFFFFF;stroke-width:0.5596;}
</style>
<g>
	<g>
		<rect x="1.3" y="24.2" class="st0" width="83.4" height="15.4"/>
		<rect x="3" y="26.3" class="st1" width="79.8" height="12.6"/>
		<polygon class="st1" points="1.1,24.3 30,0.9 108.6,0.9 84.7,24.3 		"/>
		<polygon class="st1" points="84.7,40.3 108.6,16.6 108.6,1 84.7,24.3 		"/>
	</g>
	<rect x="6.4" y="30.6" class="st2" width="4.9" height="3.8"/>
	<rect x="38.4" y="30.6" class="st2" width="4.9" height="3.8"/>
	<rect x="75.7" y="30.6" class="st2" width="4.9" height="3.8"/>
	<path class="st3" d="M63.8,26.1c3,1.3,4.9,3.5,4.9,6c0,4-4.9,7.2-10.8,7.2c-6,0-10.8-3.2-10.8-7.2S52,25,57.9,25
		C60.1,25,62.1,25.4,63.8,26.1"/>
	<ellipse class="st4" cx="58" cy="32.1" rx="8.1" ry="5.4"/>
</g>
</svg>
