<?xml version="1.0" encoding="UTF-8" standalone="no"?>
<svg
   xmlns:dc="http://purl.org/dc/elements/1.1/"
   xmlns:cc="http://creativecommons.org/ns#"
   xmlns:rdf="http://www.w3.org/1999/02/22-rdf-syntax-ns#"
   xmlns:svg="http://www.w3.org/2000/svg"
   xmlns="http://www.w3.org/2000/svg"
   viewBox="0 0 57.16 28.76"
   height="28.76"
   width="57.16"
   xml:space="preserve"
   id="svg2"
   version="1.1"><metadata
     id="metadata8"><rdf:RDF><cc:Work
         rdf:about=""><dc:format>image/svg+xml</dc:format><dc:type
           rdf:resource="http://purl.org/dc/dcmitype/StillImage" /></cc:Work></rdf:RDF></metadata><defs
     id="defs6" /><g
     transform="matrix(1.3333333,0,0,-1.3333333,0,28.76)"
     id="g10"><g
       transform="scale(0.1)"
       id="g12"><path
         id="path14"
         style="fill:#707070;fill-opacity:1;fill-rule:nonzero;stroke:none"
         d="M 375.805,111.863 425.504,213.73 H 81.3906 L 4.02734,111.863 H 375.805" /><path
         id="path16"
         style="fill:none;stroke:#FFFFFF;stroke-width:4;stroke-linecap:butt;stroke-linejoin:miter;stroke-miterlimit:4;stroke-dasharray:none;stroke-opacity:1"
         d="M 375.805,111.863 425.504,213.73 H 81.3906 L 4.02734,111.863 Z" /><path
         id="path18"
         style="fill:#707070;fill-opacity:1;fill-rule:nonzero;stroke:none"
         d="M 425.523,121.277 425.504,213.73 375.805,111.863 V 2.00391 L 425.523,121.277" /><path
         id="path20"
         style="fill:none;stroke:#FFFFFF;stroke-width:4;stroke-linecap:butt;stroke-linejoin:miter;stroke-miterlimit:4;stroke-dasharray:none;stroke-opacity:1"
         d="M 425.523,121.277 425.504,213.73 375.805,111.863 V 2.00391 Z" /><path
         id="path22"
         style="fill:#707070;fill-opacity:1;fill-rule:nonzero;stroke:none"
         d="M 375.805,2.00391 V 111.863 H 3.98047 L 4.11719,2.00391 H 375.805" /><path
         id="path24"
         style="fill:none;stroke:#FFFFFF;stroke-width:4;stroke-linecap:butt;stroke-linejoin:miter;stroke-miterlimit:4;stroke-dasharray:none;stroke-opacity:1"
         d="M 375.805,2.00391 V 111.863 H 3.98047 L 4.11719,2.00391 Z" /><path
         id="path26"
         style="fill:#707070;fill-opacity:1;fill-rule:nonzero;stroke:none"
         d="m 43.1875,18.9648 h 22.5 v 22.5 h -22.5 z" /><path
         id="path28"
         style="fill:none;stroke:#FFFFFF;stroke-width:4;stroke-linecap:butt;stroke-linejoin:miter;stroke-miterlimit:4;stroke-dasharray:none;stroke-opacity:1"
         d="m 65.6875,18.9648 v 22.5 h -22.5 v -22.5 z" /><path
         id="path30"
         style="fill:#707070;fill-opacity:1;fill-rule:nonzero;stroke:none"
         d="m 75.6875,18.9648 h 22.5 v 22.5 h -22.5 z" /><path
         id="path32"
         style="fill:none;stroke:#FFFFFF;stroke-width:4;stroke-linecap:butt;stroke-linejoin:miter;stroke-miterlimit:4;stroke-dasharray:none;stroke-opacity:1"
         d="m 98.1875,18.9648 v 22.5 h -22.5 v -22.5 z" /><path
         id="path34"
         style="fill:#707070;fill-opacity:1;fill-rule:nonzero;stroke:none"
         d="m 108.188,18.9648 h 22.5 v 22.5 h -22.5 z" /><path
         id="path36"
         style="fill:none;stroke:#FFFFFF;stroke-width:4;stroke-linecap:butt;stroke-linejoin:miter;stroke-miterlimit:4;stroke-dasharray:none;stroke-opacity:1"
         d="m 130.688,18.9648 v 22.5 h -22.5 v -22.5 z" /><path
         id="path38"
         style="fill:#707070;fill-opacity:1;fill-rule:nonzero;stroke:none"
         d="m 140.688,18.9648 h 22.5 v 22.5 h -22.5 z" /><path
         id="path40"
         style="fill:none;stroke:#FFFFFF;stroke-width:4;stroke-linecap:butt;stroke-linejoin:miter;stroke-miterlimit:4;stroke-dasharray:none;stroke-opacity:1"
         d="m 163.188,18.9648 v 22.5 h -22.5 v -22.5 z" /><path
         id="path42"
         style="fill:#707070;fill-opacity:1;fill-rule:nonzero;stroke:none"
         d="m 173.188,18.9648 h 22.5 v 22.5 h -22.5 z" /><path
         id="path44"
         style="fill:none;stroke:#FFFFFF;stroke-width:4;stroke-linecap:butt;stroke-linejoin:miter;stroke-miterlimit:4;stroke-dasharray:none;stroke-opacity:1"
         d="m 195.688,18.9648 v 22.5 h -22.5 v -22.5 z" /><path
         id="path46"
         style="fill:#707070;fill-opacity:1;fill-rule:nonzero;stroke:none"
         d="m 205.688,18.9648 h 22.5 v 22.5 h -22.5 z" /><path
         id="path48"
         style="fill:none;stroke:#FFFFFF;stroke-width:4;stroke-linecap:butt;stroke-linejoin:miter;stroke-miterlimit:4;stroke-dasharray:none;stroke-opacity:1"
         d="m 228.188,18.9648 v 22.5 h -22.5 v -22.5 z" /><path
         id="path50"
         style="fill:#707070;fill-opacity:1;fill-rule:nonzero;stroke:none"
         d="m 238.188,18.9648 h 22.5 v 22.5 h -22.5 z" /><path
         id="path52"
         style="fill:none;stroke:#FFFFFF;stroke-width:4;stroke-linecap:butt;stroke-linejoin:miter;stroke-miterlimit:4;stroke-dasharray:none;stroke-opacity:1"
         d="m 260.688,18.9648 v 22.5 h -22.5 v -22.5 z" /><path
         id="path54"
         style="fill:#707070;fill-opacity:1;fill-rule:nonzero;stroke:none"
         d="m 270.688,18.9648 h 22.5 v 22.5 h -22.5 z" /><path
         id="path56"
         style="fill:none;stroke:#FFFFFF;stroke-width:4;stroke-linecap:butt;stroke-linejoin:miter;stroke-miterlimit:4;stroke-dasharray:none;stroke-opacity:1"
         d="m 293.188,18.9648 v 22.5 h -22.5 v -22.5 z" /><path
         id="path58"
         style="fill:#707070;fill-opacity:1;fill-rule:nonzero;stroke:none"
         d="m 303.188,18.9648 h 22.5 v 22.5 h -22.5 z" /><path
         id="path60"
         style="fill:none;stroke:#FFFFFF;stroke-width:4;stroke-linecap:butt;stroke-linejoin:miter;stroke-miterlimit:4;stroke-dasharray:none;stroke-opacity:1"
         d="m 325.688,18.9648 v 22.5 h -22.5 v -22.5 z" /><path
         id="path62"
         style="fill:#FFFFFF;fill-opacity:1;fill-rule:nonzero;stroke:none"
         d="m 316.332,167.352 11.641,13.867 24.797,-15.731 -49.465,-13.8 10.254,11.191 h -98.731 l 3.496,4.473 h 98.008" /><path
         id="path64"
         style="fill:#FFFFFF;fill-opacity:1;fill-rule:nonzero;stroke:none"
         d="m 224.234,167.43 -2.871,-4.571 h -98 L 112.965,152.84 86.3906,165.574 139.809,182.371 126.234,167.43 h 98" /></g></g></svg>