<?xml version="1.0" encoding="UTF-8" standalone="no"?>
<svg
   xmlns:dc="http://purl.org/dc/elements/1.1/"
   xmlns:cc="http://creativecommons.org/ns#"
   xmlns:rdf="http://www.w3.org/1999/02/22-rdf-syntax-ns#"
   xmlns:svg="http://www.w3.org/2000/svg"
   xmlns="http://www.w3.org/2000/svg"
   viewBox="0 0 49.546665 33.573334"
   height="33.573334"
   width="49.546665"
   xml:space="preserve"
   id="svg2"
   version="1.1"><metadata
     id="metadata8"><rdf:RDF><cc:Work
         rdf:about=""><dc:format>image/svg+xml</dc:format><dc:type
           rdf:resource="http://purl.org/dc/dcmitype/StillImage" /></cc:Work></rdf:RDF></metadata><defs
     id="defs6"><clipPath
       id="clipPath20"
       clipPathUnits="userSpaceOnUse"><path
         id="path18"
         d="m 0,1.79688 h 370 v 250 H 0 Z" /></clipPath></defs><g
     transform="matrix(1.3333333,0,0,-1.3333333,0,33.573333)"
     id="g10"><g
       transform="scale(0.1)"
       id="g12"><g
         id="g14"><g
           clip-path="url(#clipPath20)"
           id="g16"><path
             id="path22"
             style="fill:#707070;fill-opacity:1;fill-rule:nonzero;stroke:none"
             d="m 369.855,178.281 c 0,-39.504 -82.343,-71.523 -183.925,-71.523 C 84.3477,106.758 2,138.777 2,178.281 V 73.5156 c 0,-39.5 82.3477,-71.52341 183.93,-71.52341 101.582,0 183.925,32.02341 183.925,71.52341 V 178.281" /><path
             id="path24"
             style="fill:none;stroke:#FFFFFF;stroke-width:4;stroke-linecap:butt;stroke-linejoin:miter;stroke-miterlimit:4;stroke-dasharray:none;stroke-opacity:1"
             d="m 369.855,178.281 c 0,-39.504 -82.343,-71.523 -183.925,-71.523 C 84.3477,106.758 2,138.777 2,178.281 V 73.5156 c 0,-39.5 82.3477,-71.52341 183.93,-71.52341 101.582,0 183.925,32.02341 183.925,71.52341 z" /><path
             id="path26"
             style="fill:#707070;fill-opacity:1;fill-rule:nonzero;stroke:none"
             d="m 185.93,106.758 c 101.582,0 183.925,32.019 183.925,71.523 0,39.512 -82.343,71.524 -183.925,71.524 C 84.3477,249.805 2,217.793 2,178.281 2,138.777 84.3477,106.758 185.93,106.758" /><path
             id="path28"
             style="fill:none;stroke:#FFFFFF;stroke-width:4;stroke-linecap:butt;stroke-linejoin:miter;stroke-miterlimit:4;stroke-dasharray:none;stroke-opacity:1"
             d="m 185.93,106.758 c 101.582,0 183.925,32.019 183.925,71.523 0,39.512 -82.343,71.524 -183.925,71.524 C 84.3477,249.805 2,217.793 2,178.281 2,138.777 84.3477,106.758 185.93,106.758 Z" /><path
             id="path30"
             style="fill:#FFFFFF;fill-opacity:1;fill-rule:nonzero;stroke:none"
             d="m 143.926,206.25 15.183,-22.781 -57.421,-13.274 12.55,10.45 -88.7497,15.168 22.2656,16.687 85.6371,-14.5 10.535,8.25" /><path
             id="path32"
             style="fill:#FFFFFF;fill-opacity:1;fill-rule:nonzero;stroke:none"
             d="m 224.727,151.008 -10.364,23.484 51.797,10.352 -8.98,-8.055 86.328,-14.738 -20.715,-16.571 -85.813,16.114 -12.253,-10.586" /><path
             id="path34"
             style="fill:#FFFFFF;fill-opacity:1;fill-rule:nonzero;stroke:none"
             d="m 196.406,218.691 58.02,15.879 0.679,-24.863 -14.5,2.766 -28.308,-23.489 -27.024,3.938 29.231,22.976 -18.098,2.793" /><path
             id="path36"
             style="fill:#FFFFFF;fill-opacity:1;fill-rule:nonzero;stroke:none"
             d="m 171.543,129.59 -55.242,-10.352 -2.071,25.547 15.875,-3.445 30.415,25.965 26.914,-4.559 -32.461,-28.312 16.57,-4.844" /><path
             id="path38"
             style="fill:#FFFFFF;fill-opacity:1;fill-rule:nonzero;stroke:none"
             d="M 178.496,48.1133 V 35.293 l -17.351,0.2929 24.48,-30.41012 25.996,30.41012 -18.125,-0.2929 v 12.8203" /><path
             id="path40"
             style="fill:#FFFFFF;fill-opacity:1;fill-rule:nonzero;stroke:none"
             d="m 217.395,63.7109 h -71.704 l -0.476,16.6993 -30.41,-24.2579 30.41,-26.2304 0.476,18.789 h 71.704" /><path
             id="path42"
             style="fill:#FFFFFF;fill-opacity:1;fill-rule:nonzero;stroke:none"
             d="m 155.867,48.7695 h 71.699 l 0.469,-16.6797 30.41,24.2383 -30.41,25.5078 -0.469,-18.0664 h -71.699" /><path
             id="path44"
             style="fill:#FFFFFF;fill-opacity:1;fill-rule:nonzero;stroke:none"
             d="m 179.441,47.0508 h 12.5 v 11.25 h -12.5 z" /><g
             transform="scale(10)"
             id="g46"><text
               id="text50"
               style="font-variant:normal;font-weight:bold;font-size:4px;font-family:Helvetica;-inkscape-font-specification:Helvetica-Bold;writing-mode:lr-tb;fill:#FFFFFF;fill-opacity:1;fill-rule:nonzero;stroke:none"
               transform="matrix(1,0,0,-1,14.0691,7.20508)"><tspan
                 id="tspan48"
                 y="0"
                 x="0 2.444 5.3319998">TDM</tspan></text>
</g></g></g></g></g></svg>