<?xml version="1.0" encoding="utf-8"?>
<!-- Generator: Adobe Illustrator 20.1.0, SVG Export Plug-In . SVG Version: 6.00 Build 0)  -->
<svg version="1.1" id="Layer_1" xmlns="http://www.w3.org/2000/svg" xmlns:xlink="http://www.w3.org/1999/xlink" x="0px" y="0px"
	 viewBox="0 0 88.6 47.3" style="enable-background:new 0 0 88.6 47.3;" xml:space="preserve">
<style type="text/css">
	.st0{fill:#707070;stroke:#FFFFFF;stroke-width:0.8;}
	.st1{fill:#FFFFFF;stroke:#707070;stroke-width:0.7;}
	.st2{fill:none;stroke:#707070;stroke-width:0.7;stroke-linejoin:round;}
	.st3{fill:#FFFFFF;stroke:#707070;stroke-width:0.7;stroke-linejoin:round;}
</style>
<g>
	<rect x="1.2" y="14.4" class="st0" width="71.5" height="31.9"/>
	<polygon class="st0" points="72.7,14.4 1.2,14.4 18.9,1 87.6,0.9 	"/>
	<polygon class="st0" points="87.6,0.9 87.4,31.9 72.7,46.4 72.7,14.4 	"/>
	<g>
		<path class="st1" d="M38.9,26.8l2.4,0l0.6,0.6h1.9l2.1-1.5l2.3,0l1.9,2.1l2.1,0l2.3-2.1l2,0l1.7,1.8h1.9l0.7-1.4l5.7,3.4l-4,3.3
			l-23.6,0v0.8l-3.7,0c-0.9,0-1.7,0.5-2.1,1.3c-1.7,2.8-4.8,4.6-8.3,4.6c-5.4,0-9.8-4.4-9.8-9.9c0-5.5,4.4-9.9,9.8-9.9
			c3.4,0,6.5,1.8,8.2,4.5c0.3,0.9,1.2,1.5,2.1,1.5l3.7,0V26.8"/>
		<g>
			<g>
				<g>
					<g>
						<path class="st2" d="M64.3,31.4l-25.3,0c-1,0-2.4,0.3-3.7,0.8c1.3,0.5,2.7,0.8,3.7,0.8"/>
						<path class="st2" d="M65.4,29.1l-25.4,0c-1.1,0-3.5-0.2-4-0.4"/>
						<path class="st3" d="M24.9,38.7c4.9,0,8.8-4,8.8-8.9c0-4.9-3.9-8.8-8.8-8.8c-4.9,0-8.8,4-8.8,8.9C16.1,34.7,20,38.7,24.9,38.7
							z"/>
					</g>
					<g>
						<g>
							<path class="st3" d="M19.8,32.2c1.3,0,2.3-1,2.3-2.3c0-1.3-1-2.3-2.3-2.3c-1.3,0-2.3,1-2.3,2.3
								C17.5,31.1,18.6,32.2,19.8,32.2z"/>
						</g>
					</g>
				</g>
			</g>
		</g>
	</g>
</g>
</svg>
