<?xml version="1.0" encoding="utf-8"?>
<!-- Generator: Adobe Illustrator 20.1.0, SVG Export Plug-In . SVG Version: 6.00 Build 0)  -->
<svg version="1.1" id="Layer_1" xmlns="http://www.w3.org/2000/svg" xmlns:xlink="http://www.w3.org/1999/xlink" x="0px" y="0px"
	 viewBox="0 0 73.1 47.4" style="enable-background:new 0 0 73.1 47.4;" xml:space="preserve">
<style type="text/css">
	.st0{fill:#707070;stroke:#FFFFFF;stroke-width:0.8;}
	.st1{fill:#FFFFFF;}
	.st2{fill:none;stroke:#FFFFFF;stroke-width:0.8;}
</style>
<g>
	<polyline class="st0" points="72.5,14.1 72.5,33.1 55,47 18.8,47 0.7,33.1 0.7,14.1 	"/>
	<polygon class="st0" points="54.7,0.4 19.1,0.4 0.7,14.1 18.8,28 55,28 72.5,14.1 	"/>
	<g>
		<polygon class="st1" points="29.5,8.8 32.3,13 21.8,15.4 24.1,13.5 10.7,10.7 14.8,7.6 27.6,10.3 		"/>
		<polygon class="st1" points="44.2,18.9 42.4,14.6 51.8,12.7 50.2,14.2 64.1,16.6 60.4,19.6 46.5,17 		"/>
		<polygon class="st1" points="39.8,5.6 50.4,2.7 50.5,7.2 47.9,6.7 42.7,11 37.8,10.3 43.1,6.1 		"/>
		<polygon class="st1" points="33.4,23.7 23.3,25.6 22.9,21 25.8,21.6 31.4,16.9 36.3,17.7 30.4,22.9 		"/>
	</g>
	<line class="st2" x1="18.5" y1="46.8" x2="18.5" y2="28"/>
	<line class="st2" x1="55" y1="46.8" x2="55" y2="28"/>
</g>
</svg>
