<?xml version="1.0" encoding="UTF-8" standalone="no"?>
<svg
   xmlns:dc="http://purl.org/dc/elements/1.1/"
   xmlns:cc="http://creativecommons.org/ns#"
   xmlns:rdf="http://www.w3.org/1999/02/22-rdf-syntax-ns#"
   xmlns:svg="http://www.w3.org/2000/svg"
   xmlns="http://www.w3.org/2000/svg"
   viewBox="0 0 49.546665 35.639999"
   height="35.639999"
   width="49.546665"
   xml:space="preserve"
   id="svg2"
   version="1.1"><metadata
     id="metadata8"><rdf:RDF><cc:Work
         rdf:about=""><dc:format>image/svg+xml</dc:format><dc:type
           rdf:resource="http://purl.org/dc/dcmitype/StillImage" /></cc:Work></rdf:RDF></metadata><defs
     id="defs6"><clipPath
       id="clipPath20"
       clipPathUnits="userSpaceOnUse"><path
         id="path18"
         d="M 0,267 H 370 V 0 H 0 Z" /></clipPath></defs><g
     transform="matrix(1.3333333,0,0,-1.3333333,0,35.64)"
     id="g10"><g
       transform="scale(0.1)"
       id="g12"><g
         id="g14"><g
           clip-path="url(#clipPath20)"
           id="g16"><path
             id="path22"
             style="fill:#707070;fill-opacity:1;fill-rule:nonzero;stroke:none"
             d="m 4.82813,4.82422 h 336.504 v 232.242 H 4.82813 Z" /><path
             id="path24"
             style="fill:none;stroke:#FFFFFF;stroke-width:3.99993992;stroke-linecap:butt;stroke-linejoin:miter;stroke-miterlimit:4;stroke-dasharray:none;stroke-opacity:1"
             d="M 341.332,4.82422 V 237.066 H 4.82813 V 4.82422 Z" /><path
             id="path26"
             style="fill:#707070;fill-opacity:1;fill-rule:nonzero;stroke:none"
             d="M 4.82813,237.066 30.2383,262.465 H 366.742 l -25.41,-25.399 H 4.82813" /><path
             id="path28"
             style="fill:none;stroke:#FFFFFF;stroke-width:3.99993992;stroke-linecap:butt;stroke-linejoin:miter;stroke-miterlimit:4;stroke-dasharray:none;stroke-opacity:1"
             d="M 4.82813,237.066 30.2383,262.465 H 366.742 l -25.41,-25.399 z" /><path
             id="path30"
             style="fill:#707070;fill-opacity:1;fill-rule:nonzero;stroke:none"
             d="m 341.332,4.82422 25.41,25.39058 V 262.465 l -25.41,-25.399 V 4.82422" /><path
             id="path32"
             style="fill:none;stroke:#FFFFFF;stroke-width:3.99993992;stroke-linecap:butt;stroke-linejoin:miter;stroke-miterlimit:4;stroke-dasharray:none;stroke-opacity:1"
             d="m 341.332,4.82422 25.41,25.39058 V 262.465 l -25.41,-25.399 z" /><path
             id="path34"
             style="fill:#FFFFFF;fill-opacity:1;fill-rule:nonzero;stroke:none"
             d="m 201.527,95.6445 c 7.383,7.5975 9.844,20.2345 9.844,32.8515 0,12.649 -2.461,25.281 -9.844,32.871 l 9.844,17.688 c 9.863,-12.641 17.246,-30.325 14.785,-50.559 0,-20.215 -4.922,-37.8905 -14.785,-50.5272 l -9.844,17.6757" /><path
             id="path36"
             style="fill:#FFFFFF;fill-opacity:1;fill-rule:nonzero;stroke:none"
             d="m 258.168,83.0273 c 7.383,10.0977 9.863,25.2537 9.863,42.9497 0,15.168 -2.48,32.851 -9.863,42.968 l 9.863,20.215 c 9.844,-17.695 14.766,-40.43 14.766,-63.183 0,-22.735 -4.922,-45.4887 -14.766,-63.184 l -9.863,20.2343" /><path
             id="path38"
             style="fill:#FFFFFF;fill-opacity:1;fill-rule:nonzero;stroke:none"
             d="m 142.426,95.6445 c -4.922,7.5975 -9.844,20.2345 -9.844,32.8515 0,12.649 4.922,25.281 9.844,32.871 l -9.844,17.688 c -9.863,-12.641 -14.785,-30.325 -14.785,-50.559 0,-20.215 4.922,-37.8905 14.785,-50.5272 l 9.844,17.6757" /><path
             id="path40"
             style="fill:#FFFFFF;fill-opacity:1;fill-rule:nonzero;stroke:none"
             d="m 93.168,83.0273 c -4.9219,10.0977 -9.8438,25.2537 -9.8438,42.9497 0,15.168 4.9219,32.851 9.8438,42.968 l -9.8438,20.215 c -9.8633,-17.695 -14.7851,-40.43 -14.7851,-63.183 0,-22.735 4.9218,-45.4887 14.7851,-63.184 l 9.8438,20.2343" /><path
             id="path42"
             style="fill:none;stroke:#FFFFFF;stroke-width:5;stroke-linecap:butt;stroke-linejoin:miter;stroke-miterlimit:1;stroke-dasharray:none;stroke-opacity:1"
             d="M 170.961,120.918 V 45.1172" /><path
             id="path44"
             style="fill:#FFFFFF;fill-opacity:1;fill-rule:nonzero;stroke:none"
             d="m 176.625,128.633 c 0,-3.438 -2.773,-6.231 -6.211,-6.231 -3.437,0 -6.23,2.793 -6.23,6.231 0,3.437 2.793,6.222 6.23,6.222 3.438,0 6.211,-2.785 6.211,-6.222" /></g></g></g></g></svg>