<?xml version="1.0"  encoding="UTF-8" standalone="no"?>
<svg version="1.1" xmlns="http://www.w3.org/2000/svg" xmlns:xlink="http://www.w3.org/1999/xlink" width="497.0000" height="527.0000">
<g transform="translate(-39.0000, 551.0000)">
<path d="M 341.0000,-80.0000 C 341.0000,-80.0000 343.0000,-61.0000 323.0000,-48.0000 C 281.0000,-21.0000 250.0000,-25.0000 250.0000,-25.0000 C 231.0000,-25.0000 235.0000,-47.0000 235.0000,-47.0000 C 235.0000,-180.0000 235.0000,-180.0000 235.0000,-180.0000 C 235.0000,-180.0000 236.0000,-200.0000 218.0000,-217.0000 C 173.0000,-260.0000 54.0000,-382.0000 54.0000,-382.0000 C 54.0000,-382.0000 38.0000,-392.0000 39.0000,-413.0000 C 39.0000,-502.0000 39.0000,-502.0000 39.0000,-502.0000 C 39.0000,-529.0000 151.0000,-551.0000 288.0000,-551.0000 C 425.0000,-551.0000 536.0000,-529.0000 536.0000,-502.0000 C 536.0000,-413.0000 536.0000,-413.0000 536.0000,-413.0000 C 537.0000,-392.0000 522.0000,-382.0000 522.0000,-382.0000 C 522.0000,-382.0000 403.0000,-260.0000 358.0000,-217.0000 C 340.0000,-200.0000 341.0000,-180.0000 341.0000,-180.0000 Z M 72.0000,-495.0000 C 72.0000,-475.0000 169.0000,-458.0000 288.0000,-458.0000 C 407.0000,-458.0000 503.0000,-475.0000 503.0000,-495.0000 C 503.0000,-516.0000 407.0000,-533.0000 288.0000,-533.0000 C 169.0000,-533.0000 72.0000,-516.0000 72.0000,-495.0000 Z "  fill="#CC092F" stroke="none" />
<path d="M 177.0000,-235.0000 C 169.0000,-225.0000 161.0000,-215.0000 154.0000,-206.0000 C 146.0000,-196.0000 139.0000,-186.0000 132.0000,-177.0000 C 136.0000,-169.0000 140.0000,-161.0000 144.0000,-152.0000 C 148.0000,-143.0000 152.0000,-134.0000 156.0000,-125.0000 C 153.0000,-122.0000 153.0000,-122.0000 153.0000,-122.0000 C 153.0000,-120.0000 153.0000,-120.0000 153.0000,-120.0000 C 152.0000,-119.0000 152.0000,-118.0000 151.0000,-118.0000 C 150.0000,-117.0000 149.0000,-117.0000 148.0000,-116.0000 C 149.0000,-113.0000 149.0000,-113.0000 149.0000,-113.0000 C 149.0000,-111.0000 148.0000,-110.0000 146.0000,-109.0000 C 145.0000,-108.0000 144.0000,-108.0000 142.0000,-107.0000 C 141.0000,-107.0000 137.0000,-111.0000 132.0000,-118.0000 C 127.0000,-125.0000 120.0000,-136.0000 112.0000,-150.0000 C 104.0000,-139.0000 97.0000,-128.0000 89.0000,-116.0000 C 82.0000,-105.0000 74.0000,-93.0000 68.0000,-81.0000 C 66.0000,-80.0000 64.0000,-79.0000 62.0000,-79.0000 C 60.0000,-78.0000 58.0000,-78.0000 56.0000,-78.0000 C 55.0000,-78.0000 55.0000,-78.0000 55.0000,-78.0000 C 53.0000,-80.0000 51.0000,-82.0000 49.0000,-85.0000 C 48.0000,-87.0000 48.0000,-89.0000 48.0000,-90.0000 C 48.0000,-91.0000 48.0000,-91.0000 48.0000,-93.0000 C 48.0000,-94.0000 48.0000,-95.0000 49.0000,-96.0000 C 47.0000,-100.0000 47.0000,-100.0000 47.0000,-100.0000 C 50.0000,-107.0000 55.0000,-116.0000 64.0000,-128.0000 C 72.0000,-141.0000 84.0000,-156.0000 99.0000,-174.0000 C 96.0000,-182.0000 93.0000,-190.0000 90.0000,-199.0000 C 87.0000,-207.0000 84.0000,-217.0000 80.0000,-228.0000 C 81.0000,-230.0000 82.0000,-232.0000 83.0000,-233.0000 C 84.0000,-234.0000 85.0000,-235.0000 86.0000,-235.0000 C 87.0000,-235.0000 87.0000,-235.0000 88.0000,-234.0000 C 89.0000,-234.0000 89.0000,-233.0000 90.0000,-233.0000 C 90.0000,-233.0000 91.0000,-233.0000 91.0000,-234.0000 C 92.0000,-234.0000 93.0000,-234.0000 93.0000,-234.0000 C 94.0000,-234.0000 94.0000,-234.0000 94.0000,-234.0000 C 95.0000,-235.0000 95.0000,-235.0000 96.0000,-236.0000 C 96.0000,-237.0000 97.0000,-237.0000 98.0000,-237.0000 C 98.0000,-237.0000 98.0000,-237.0000 98.0000,-237.0000 C 100.0000,-237.0000 104.0000,-231.0000 110.0000,-218.0000 C 114.0000,-211.0000 117.0000,-204.0000 119.0000,-200.0000 C 124.0000,-205.0000 129.0000,-211.0000 136.0000,-219.0000 C 149.0000,-235.0000 157.0000,-243.0000 158.0000,-243.0000 C 159.0000,-243.0000 160.0000,-243.0000 161.0000,-242.0000 C 162.0000,-241.0000 164.0000,-240.0000 166.0000,-239.0000 C 171.0000,-243.0000 171.0000,-243.0000 171.0000,-243.0000 C 172.0000,-242.0000 173.0000,-241.0000 174.0000,-239.0000 C 175.0000,-238.0000 176.0000,-236.0000 177.0000,-235.0000 Z "  fill="#CC092F" stroke="none" />
<path d="M 524.0000,-259.0000 C 505.0000,-238.0000 487.0000,-216.0000 471.0000,-193.0000 C 454.0000,-170.0000 438.0000,-147.0000 424.0000,-123.0000 C 423.0000,-121.0000 422.0000,-119.0000 421.0000,-115.0000 C 416.0000,-106.0000 409.0000,-101.0000 400.0000,-101.0000 C 396.0000,-101.0000 393.0000,-101.0000 391.0000,-103.0000 C 388.0000,-104.0000 386.0000,-106.0000 384.0000,-108.0000 C 382.0000,-111.0000 381.0000,-114.0000 379.0000,-118.0000 C 378.0000,-121.0000 376.0000,-127.0000 374.0000,-134.0000 C 374.0000,-135.0000 374.0000,-135.0000 374.0000,-136.0000 C 371.0000,-144.0000 370.0000,-149.0000 370.0000,-151.0000 C 370.0000,-156.0000 373.0000,-160.0000 377.0000,-163.0000 C 382.0000,-167.0000 387.0000,-168.0000 392.0000,-168.0000 C 394.0000,-168.0000 395.0000,-168.0000 396.0000,-167.0000 C 397.0000,-166.0000 398.0000,-164.0000 399.0000,-161.0000 C 400.0000,-159.0000 401.0000,-157.0000 402.0000,-153.0000 C 404.0000,-146.0000 407.0000,-143.0000 408.0000,-143.0000 C 410.0000,-143.0000 416.0000,-151.0000 426.0000,-167.0000 C 436.0000,-183.0000 444.0000,-196.0000 451.0000,-206.0000 C 461.0000,-221.0000 468.0000,-231.0000 473.0000,-238.0000 C 479.0000,-244.0000 483.0000,-249.0000 487.0000,-253.0000 C 491.0000,-256.0000 496.0000,-258.0000 501.0000,-260.0000 C 507.0000,-262.0000 514.0000,-263.0000 523.0000,-263.0000 Z "  fill="#CC092F" stroke="none" />
</g>
</svg>
