<?xml version="1.0"  encoding="UTF-8" standalone="no"?>
<svg version="1.1" xmlns="http://www.w3.org/2000/svg" xmlns:xlink="http://www.w3.org/1999/xlink" width="530.0000" height="551.0000">
<g transform="translate(-23.0000, 563.0000)">
<path d="M 510.0000,-59.0000 C 66.0000,-59.0000 66.0000,-59.0000 66.0000,-59.0000 C 66.0000,-346.0000 66.0000,-346.0000 66.0000,-346.0000 C 67.0000,-346.0000 67.0000,-346.0000 67.0000,-346.0000 C 282.0000,-201.0000 282.0000,-201.0000 282.0000,-201.0000 C 282.0000,-201.0000 282.0000,-201.0000 283.0000,-201.0000 C 283.0000,-201.0000 284.0000,-201.0000 284.0000,-200.0000 C 285.0000,-200.0000 285.0000,-200.0000 285.0000,-200.0000 C 286.0000,-200.0000 287.0000,-200.0000 288.0000,-200.0000 C 288.0000,-200.0000 288.0000,-200.0000 288.0000,-200.0000 C 288.0000,-200.0000 288.0000,-200.0000 288.0000,-200.0000 C 288.0000,-200.0000 288.0000,-200.0000 288.0000,-200.0000 C 288.0000,-200.0000 288.0000,-200.0000 288.0000,-200.0000 C 289.0000,-200.0000 290.0000,-200.0000 291.0000,-200.0000 C 291.0000,-200.0000 291.0000,-200.0000 292.0000,-200.0000 C 292.0000,-201.0000 293.0000,-201.0000 294.0000,-201.0000 C 294.0000,-201.0000 294.0000,-201.0000 294.0000,-202.0000 C 502.0000,-346.0000 502.0000,-346.0000 502.0000,-346.0000 C 510.0000,-346.0000 510.0000,-346.0000 510.0000,-346.0000 Z M 288.0000,-225.0000 C 108.0000,-346.0000 108.0000,-346.0000 108.0000,-346.0000 C 462.0000,-346.0000 462.0000,-346.0000 462.0000,-346.0000 Z M 524.0000,-393.0000 C 52.0000,-393.0000 52.0000,-393.0000 52.0000,-393.0000 C 36.0000,-393.0000 23.0000,-379.0000 23.0000,-361.0000 C 23.0000,-44.0000 23.0000,-44.0000 23.0000,-44.0000 C 23.0000,-27.0000 36.0000,-12.0000 52.0000,-12.0000 C 524.0000,-12.0000 524.0000,-12.0000 524.0000,-12.0000 C 540.0000,-12.0000 553.0000,-27.0000 553.0000,-44.0000 C 553.0000,-361.0000 553.0000,-361.0000 553.0000,-361.0000 C 553.0000,-379.0000 540.0000,-393.0000 524.0000,-393.0000 Z "  fill="#CC092F" stroke="none" />
<path d="M 168.0000,-170.0000 L 219.0000,-170.0000 L 168.0000,-256.0000 L 168.0000,-170.0000 L 168.0000,-170.0000 Z "  fill="#CC092F" stroke-width="1px" stroke="#FFFFFF" />
<path d="M 296.0000,-525.0000 C 279.0000,-525.0000 266.0000,-510.0000 266.0000,-492.0000 C 266.0000,-474.0000 279.0000,-460.0000 296.0000,-460.0000 C 312.0000,-460.0000 326.0000,-474.0000 326.0000,-492.0000 C 326.0000,-510.0000 312.0000,-525.0000 296.0000,-525.0000 Z M 296.0000,-563.0000 C 332.0000,-563.0000 361.0000,-531.0000 361.0000,-492.0000 C 361.0000,-453.0000 332.0000,-422.0000 296.0000,-422.0000 C 259.0000,-422.0000 230.0000,-453.0000 230.0000,-492.0000 C 230.0000,-531.0000 259.0000,-563.0000 296.0000,-563.0000 Z "  fill="#CC092F" stroke="none" />
<path d="M 313.0000,-426.0000 C 313.0000,-162.0000 313.0000,-162.0000 313.0000,-162.0000 C 313.0000,-162.0000 313.0000,-156.0000 312.0000,-148.0000 C 306.0000,-105.0000 281.0000,-71.0000 236.0000,-71.0000 C 183.0000,-71.0000 164.0000,-122.0000 169.0000,-178.0000 C 202.0000,-173.0000 202.0000,-173.0000 202.0000,-173.0000 C 202.0000,-173.0000 202.0000,-169.0000 202.0000,-162.0000 C 203.0000,-139.0000 209.0000,-109.0000 236.0000,-109.0000 C 265.0000,-109.0000 277.0000,-136.0000 278.0000,-162.0000 C 278.0000,-426.0000 278.0000,-426.0000 278.0000,-426.0000 Z "  fill="#CC092F" stroke="none" />
</g>
</svg>
