<?xml version="1.0" encoding="UTF-8" standalone="no"?>
<svg
   xmlns:dc="http://purl.org/dc/elements/1.1/"
   xmlns:cc="http://creativecommons.org/ns#"
   xmlns:rdf="http://www.w3.org/1999/02/22-rdf-syntax-ns#"
   xmlns:svg="http://www.w3.org/2000/svg"
   xmlns="http://www.w3.org/2000/svg"
   xmlns:sodipodi="http://sodipodi.sourceforge.net/DTD/sodipodi-0.dtd"
   xmlns:inkscape="http://www.inkscape.org/namespaces/inkscape"
   version="1.1"
   width="633.0000"
   height="440.0000"
   id="svg28"
   sodipodi:docname="appliance01.svg"
   inkscape:version="0.92.3 (2405546, 2018-03-11)">
  <metadata
     id="metadata34">
    <rdf:RDF>
      <cc:Work
         rdf:about="">
        <dc:format>image/svg+xml</dc:format>
        <dc:type
           rdf:resource="http://purl.org/dc/dcmitype/StillImage" />
      </cc:Work>
    </rdf:RDF>
  </metadata>
  <defs
     id="defs32" />
  <sodipodi:namedview
     pagecolor="#000000"
     bordercolor="#666666"
     borderopacity="1"
     objecttolerance="10"
     gridtolerance="10"
     guidetolerance="10"
     inkscape:pageopacity="0"
     inkscape:pageshadow="2"
     inkscape:window-width="1551"
     inkscape:window-height="836"
     id="namedview30"
     showgrid="false"
     inkscape:zoom="0.52922591"
     inkscape:cx="320.2791"
     inkscape:cy="220"
     inkscape:window-x="49"
     inkscape:window-y="27"
     inkscape:window-maximized="1"
     inkscape:current-layer="svg28" />
  <g
     transform="translate(29.0000, -67.0000)"
     id="g26"
     style="fill:#000000">
    <path
       d="M 604.0000,285.0000 C 603.0000,284.0000 603.0000,284.0000 603.0000,284.0000 C 603.0000,282.0000 603.0000,282.0000 603.0000,282.0000 C 239.0000,67.0000 239.0000,67.0000 239.0000,67.0000 C -29.0000,223.0000 -29.0000,223.0000 -29.0000,223.0000 C -29.0000,293.0000 -29.0000,293.0000 -29.0000,293.0000 C 335.0000,507.0000 335.0000,507.0000 335.0000,507.0000 C 603.0000,350.0000 603.0000,350.0000 603.0000,350.0000 C 603.0000,285.0000 603.0000,285.0000 603.0000,285.0000 Z M 331.0000,491.0000 C -17.0000,286.0000 -17.0000,286.0000 -17.0000,286.0000 C -17.0000,234.0000 -17.0000,234.0000 -17.0000,234.0000 C 330.0000,439.0000 330.0000,439.0000 330.0000,439.0000 C 330.0000,439.0000 331.0000,440.0000 331.0000,441.0000 Z M -14.0000,227.0000 C 238.0000,81.0000 238.0000,81.0000 238.0000,81.0000 C 589.0000,287.0000 589.0000,287.0000 589.0000,287.0000 C 337.0000,434.0000 337.0000,434.0000 337.0000,434.0000 Z M 591.0000,344.0000 C 335.0000,493.0000 335.0000,493.0000 335.0000,493.0000 C 334.0000,493.0000 334.0000,493.0000 334.0000,493.0000 C 334.0000,441.0000 334.0000,441.0000 334.0000,441.0000 C 334.0000,440.0000 333.0000,438.0000 332.0000,437.0000 C 336.0000,439.0000 336.0000,439.0000 336.0000,439.0000 C 337.0000,440.0000 337.0000,440.0000 337.0000,440.0000 C 591.0000,292.0000 591.0000,292.0000 591.0000,292.0000 Z "
       fill="#425152"
       stroke="none"
       id="path2"
       style="fill:#000000" />
    <path
       d="M 124.0000,341.0000 L 131.0000,345.0000 L 131.0000,352.0000 L 124.0000,348.0000 L 124.0000,341.0000 Z M 133.0000,347.0000 L 140.0000,351.0000 L 140.0000,358.0000 L 133.0000,353.0000 L 133.0000,347.0000 Z M 142.0000,352.0000 L 150.0000,356.0000 L 150.0000,363.0000 L 142.0000,359.0000 L 142.0000,352.0000 Z M 152.0000,357.0000 L 159.0000,362.0000 L 159.0000,369.0000 L 152.0000,364.0000 L 152.0000,357.0000 Z "
       fill="#425152"
       stroke-width="1px"
       stroke="#425152"
       id="path4"
       style="fill:#000000" />
    <path
       d="M 124.0000,352.0000 L 131.0000,357.0000 L 131.0000,363.0000 L 124.0000,359.0000 L 124.0000,352.0000 Z M 133.0000,358.0000 L 140.0000,362.0000 L 140.0000,369.0000 L 133.0000,364.0000 L 133.0000,358.0000 Z M 142.0000,363.0000 L 150.0000,368.0000 L 150.0000,374.0000 L 142.0000,370.0000 L 142.0000,363.0000 Z M 152.0000,369.0000 L 159.0000,373.0000 L 159.0000,380.0000 L 152.0000,375.0000 L 152.0000,369.0000 Z "
       fill="#425152"
       stroke-width="1px"
       stroke="#425152"
       id="path6"
       style="fill:#000000" />
    <path
       d="M 85.0000,318.0000 L 92.0000,323.0000 L 92.0000,329.0000 L 85.0000,325.0000 L 85.0000,318.0000 Z M 94.0000,324.0000 L 102.0000,328.0000 L 102.0000,335.0000 L 94.0000,330.0000 L 94.0000,324.0000 Z M 103.0000,329.0000 L 111.0000,334.0000 L 111.0000,340.0000 L 103.0000,336.0000 L 103.0000,329.0000 Z M 113.0000,335.0000 L 120.0000,339.0000 L 120.0000,346.0000 L 113.0000,341.0000 L 113.0000,335.0000 Z "
       fill="#425152"
       stroke-width="1px"
       stroke="#425152"
       id="path8"
       style="fill:#000000" />
    <path
       d="M 85.0000,329.0000 L 92.0000,334.0000 L 92.0000,340.0000 L 85.0000,336.0000 L 85.0000,329.0000 Z M 94.0000,335.0000 L 102.0000,339.0000 L 102.0000,346.0000 L 94.0000,342.0000 L 94.0000,335.0000 Z M 103.0000,340.0000 L 111.0000,345.0000 L 111.0000,351.0000 L 103.0000,347.0000 L 103.0000,340.0000 Z M 113.0000,346.0000 L 120.0000,350.0000 L 120.0000,357.0000 L 113.0000,353.0000 L 113.0000,346.0000 Z "
       fill="#425152"
       stroke-width="1px"
       stroke="#425152"
       id="path10"
       style="fill:#000000" />
    <path
       d="M 201.0000,387.0000 L 209.0000,391.0000 L 209.0000,398.0000 L 201.0000,394.0000 L 201.0000,387.0000 Z M 211.0000,392.0000 L 218.0000,397.0000 L 218.0000,404.0000 L 211.0000,399.0000 L 211.0000,392.0000 Z M 220.0000,398.0000 L 227.0000,402.0000 L 227.0000,409.0000 L 220.0000,405.0000 L 220.0000,398.0000 Z M 229.0000,403.0000 L 237.0000,408.0000 L 237.0000,415.0000 L 229.0000,410.0000 L 229.0000,403.0000 Z "
       fill="#425152"
       stroke-width="1px"
       stroke="#425152"
       id="path12"
       style="fill:#000000" />
    <path
       d="M 201.0000,398.0000 L 209.0000,402.0000 L 209.0000,409.0000 L 201.0000,405.0000 L 201.0000,398.0000 Z M 211.0000,403.0000 L 218.0000,408.0000 L 218.0000,415.0000 L 211.0000,410.0000 L 211.0000,403.0000 Z M 220.0000,409.0000 L 227.0000,413.0000 L 227.0000,420.0000 L 220.0000,416.0000 L 220.0000,409.0000 Z M 229.0000,414.0000 L 237.0000,419.0000 L 237.0000,426.0000 L 229.0000,421.0000 L 229.0000,414.0000 Z "
       fill="#425152"
       stroke-width="1px"
       stroke="#425152"
       id="path14"
       style="fill:#000000" />
    <path
       d="M 162.0000,364.0000 L 170.0000,368.0000 L 170.0000,375.0000 L 162.0000,371.0000 L 162.0000,364.0000 Z M 172.0000,369.0000 L 179.0000,374.0000 L 179.0000,381.0000 L 172.0000,376.0000 L 172.0000,369.0000 Z M 181.0000,375.0000 L 189.0000,379.0000 L 189.0000,386.0000 L 181.0000,382.0000 L 181.0000,375.0000 Z M 190.0000,380.0000 L 198.0000,385.0000 L 198.0000,392.0000 L 190.0000,387.0000 L 190.0000,380.0000 Z "
       fill="#425152"
       stroke-width="1px"
       stroke="#425152"
       id="path16"
       style="fill:#000000" />
    <path
       d="M 162.0000,375.0000 L 170.0000,379.0000 L 170.0000,386.0000 L 162.0000,382.0000 L 162.0000,375.0000 Z M 172.0000,381.0000 L 179.0000,385.0000 L 179.0000,392.0000 L 172.0000,387.0000 L 172.0000,381.0000 Z M 181.0000,386.0000 L 189.0000,390.0000 L 189.0000,397.0000 L 181.0000,393.0000 L 181.0000,386.0000 Z M 190.0000,392.0000 L 198.0000,396.0000 L 198.0000,403.0000 L 190.0000,398.0000 L 190.0000,392.0000 Z "
       fill="#425152"
       stroke-width="1px"
       stroke="#425152"
       id="path18"
       style="fill:#000000" />
    <path
       d="M 240.0000,410.0000 L 248.0000,414.0000 L 248.0000,421.0000 L 240.0000,417.0000 L 240.0000,410.0000 Z M 250.0000,415.0000 L 257.0000,420.0000 L 257.0000,426.0000 L 250.0000,422.0000 L 250.0000,415.0000 Z M 259.0000,421.0000 L 266.0000,425.0000 L 266.0000,432.0000 L 259.0000,428.0000 L 259.0000,421.0000 Z M 268.0000,426.0000 L 276.0000,431.0000 L 276.0000,437.0000 L 268.0000,433.0000 L 268.0000,426.0000 Z "
       fill="#425152"
       stroke-width="1px"
       stroke="#425152"
       id="path20"
       style="fill:#000000" />
    <path
       d="M 240.0000,421.0000 L 248.0000,425.0000 L 248.0000,432.0000 L 240.0000,428.0000 L 240.0000,421.0000 Z M 250.0000,426.0000 L 257.0000,431.0000 L 257.0000,438.0000 L 250.0000,433.0000 L 250.0000,426.0000 Z M 259.0000,432.0000 L 266.0000,436.0000 L 266.0000,443.0000 L 259.0000,439.0000 L 259.0000,432.0000 Z M 268.0000,437.0000 L 276.0000,442.0000 L 276.0000,449.0000 L 268.0000,444.0000 L 268.0000,437.0000 Z "
       fill="#425152"
       stroke-width="1px"
       stroke="#425152"
       id="path22"
       style="fill:#000000" />
    <path
       d="M 332.0000,437.0000 L 338.0000,437.0000 L 338.0000,503.0000 L 332.0000,503.0000 L 332.0000,437.0000 Z "
       fill="#425152"
       stroke-width="1px"
       stroke="#425152"
       id="path24"
       style="fill:#000000" />
  </g>
</svg>
