<?xml version="1.0"  encoding="UTF-8" standalone="no"?>
<svg version="1.1" xmlns="http://www.w3.org/2000/svg" xmlns:xlink="http://www.w3.org/1999/xlink" width="465.0000" height="475.0000">
<g transform="translate(-55.0000, 525.0000)">
<path d="M 82.0000,-288.0000 C 82.0000,-299.0000 83.0000,-310.0000 85.0000,-321.0000 C 63.0000,-328.0000 63.0000,-328.0000 63.0000,-328.0000 C 57.0000,-330.0000 54.0000,-336.0000 55.0000,-342.0000 C 67.0000,-379.0000 67.0000,-379.0000 67.0000,-379.0000 C 69.0000,-385.0000 76.0000,-388.0000 82.0000,-386.0000 C 104.0000,-379.0000 104.0000,-379.0000 104.0000,-379.0000 C 114.0000,-400.0000 127.0000,-418.0000 143.0000,-434.0000 C 130.0000,-452.0000 130.0000,-452.0000 130.0000,-452.0000 C 126.0000,-457.0000 127.0000,-465.0000 133.0000,-468.0000 C 164.0000,-491.0000 164.0000,-491.0000 164.0000,-491.0000 C 169.0000,-495.0000 176.0000,-494.0000 180.0000,-488.0000 C 193.0000,-470.0000 193.0000,-470.0000 193.0000,-470.0000 C 213.0000,-480.0000 234.0000,-488.0000 257.0000,-491.0000 C 257.0000,-514.0000 257.0000,-514.0000 257.0000,-514.0000 C 257.0000,-520.0000 262.0000,-525.0000 268.0000,-525.0000 C 307.0000,-525.0000 307.0000,-525.0000 307.0000,-525.0000 C 313.0000,-525.0000 318.0000,-520.0000 318.0000,-514.0000 C 318.0000,-491.0000 318.0000,-491.0000 318.0000,-491.0000 C 341.0000,-488.0000 362.0000,-481.0000 382.0000,-470.0000 C 394.0000,-487.0000 394.0000,-487.0000 394.0000,-487.0000 C 398.0000,-492.0000 405.0000,-493.0000 410.0000,-490.0000 C 441.0000,-467.0000 441.0000,-467.0000 441.0000,-467.0000 C 446.0000,-463.0000 447.0000,-456.0000 444.0000,-451.0000 C 431.0000,-434.0000 431.0000,-434.0000 431.0000,-434.0000 C 448.0000,-419.0000 461.0000,-400.0000 472.0000,-379.0000 C 492.0000,-386.0000 492.0000,-386.0000 492.0000,-386.0000 C 498.0000,-388.0000 504.0000,-385.0000 506.0000,-379.0000 C 518.0000,-342.0000 518.0000,-342.0000 518.0000,-342.0000 C 520.0000,-336.0000 517.0000,-330.0000 511.0000,-328.0000 C 490.0000,-321.0000 490.0000,-321.0000 490.0000,-321.0000 C 492.0000,-310.0000 493.0000,-299.0000 493.0000,-288.0000 C 493.0000,-276.0000 492.0000,-265.0000 490.0000,-254.0000 C 511.0000,-247.0000 511.0000,-247.0000 511.0000,-247.0000 C 517.0000,-245.0000 521.0000,-238.0000 519.0000,-232.0000 C 507.0000,-196.0000 507.0000,-196.0000 507.0000,-196.0000 C 505.0000,-190.0000 498.0000,-186.0000 492.0000,-188.0000 C 471.0000,-195.0000 471.0000,-195.0000 471.0000,-195.0000 C 461.0000,-175.0000 448.0000,-157.0000 432.0000,-141.0000 C 445.0000,-123.0000 445.0000,-123.0000 445.0000,-123.0000 C 449.0000,-118.0000 448.0000,-111.0000 443.0000,-107.0000 C 411.0000,-84.0000 411.0000,-84.0000 411.0000,-84.0000 C 406.0000,-81.0000 399.0000,-82.0000 396.0000,-87.0000 C 382.0000,-105.0000 382.0000,-105.0000 382.0000,-105.0000 C 363.0000,-95.0000 341.0000,-88.0000 318.0000,-84.0000 C 318.0000,-62.0000 318.0000,-62.0000 318.0000,-62.0000 C 318.0000,-56.0000 313.0000,-50.0000 307.0000,-50.0000 C 268.0000,-50.0000 268.0000,-50.0000 268.0000,-50.0000 C 262.0000,-50.0000 257.0000,-56.0000 257.0000,-62.0000 C 257.0000,-84.0000 257.0000,-84.0000 257.0000,-84.0000 C 234.0000,-88.0000 212.0000,-95.0000 192.0000,-105.0000 C 178.0000,-86.0000 178.0000,-86.0000 178.0000,-86.0000 C 174.0000,-81.0000 167.0000,-79.0000 162.0000,-83.0000 C 131.0000,-106.0000 131.0000,-106.0000 131.0000,-106.0000 C 126.0000,-110.0000 125.0000,-117.0000 128.0000,-122.0000 C 143.0000,-142.0000 143.0000,-142.0000 143.0000,-142.0000 C 127.0000,-157.0000 114.0000,-175.0000 104.0000,-195.0000 C 81.0000,-188.0000 81.0000,-188.0000 81.0000,-188.0000 C 75.0000,-186.0000 69.0000,-189.0000 67.0000,-195.0000 C 55.0000,-232.0000 55.0000,-232.0000 55.0000,-232.0000 C 53.0000,-238.0000 56.0000,-244.0000 62.0000,-246.0000 C 85.0000,-254.0000 85.0000,-254.0000 85.0000,-254.0000 C 83.0000,-265.0000 82.0000,-276.0000 82.0000,-288.0000 Z M 117.0000,-288.0000 C 117.0000,-194.0000 194.0000,-117.0000 288.0000,-117.0000 C 382.0000,-117.0000 458.0000,-194.0000 458.0000,-288.0000 C 458.0000,-382.0000 382.0000,-458.0000 288.0000,-458.0000 C 194.0000,-458.0000 117.0000,-382.0000 117.0000,-288.0000 Z "  fill="#000000" stroke="none" />
<path d="M 431.0000,-287.0000 C 431.0000,-343.0000 400.0000,-391.0000 354.0000,-415.0000 C 354.0000,-415.0000 354.0000,-415.0000 354.0000,-415.0000 C 354.0000,-415.0000 354.0000,-415.0000 354.0000,-415.0000 C 334.0000,-426.0000 311.0000,-432.0000 287.0000,-432.0000 C 255.0000,-432.0000 226.0000,-421.0000 202.0000,-404.0000 C 202.0000,-404.0000 202.0000,-404.0000 202.0000,-404.0000 C 202.0000,-404.0000 202.0000,-404.0000 202.0000,-404.0000 C 184.0000,-391.0000 169.0000,-374.0000 159.0000,-354.0000 C 159.0000,-354.0000 159.0000,-354.0000 159.0000,-354.0000 C 159.0000,-354.0000 159.0000,-354.0000 159.0000,-354.0000 C 158.0000,-353.0000 157.0000,-351.0000 156.0000,-349.0000 C 156.0000,-349.0000 156.0000,-349.0000 156.0000,-348.0000 C 147.0000,-330.0000 142.0000,-309.0000 142.0000,-287.0000 C 142.0000,-262.0000 149.0000,-239.0000 160.0000,-219.0000 C 160.0000,-219.0000 160.0000,-219.0000 160.0000,-219.0000 C 160.0000,-219.0000 160.0000,-219.0000 160.0000,-219.0000 C 162.0000,-214.0000 165.0000,-209.0000 169.0000,-204.0000 C 169.0000,-204.0000 169.0000,-204.0000 169.0000,-204.0000 C 169.0000,-204.0000 169.0000,-204.0000 169.0000,-204.0000 C 179.0000,-189.0000 193.0000,-176.0000 208.0000,-166.0000 C 208.0000,-166.0000 208.0000,-166.0000 208.0000,-166.0000 C 208.0000,-166.0000 208.0000,-166.0000 208.0000,-166.0000 C 231.0000,-151.0000 258.0000,-142.0000 287.0000,-142.0000 C 298.0000,-142.0000 308.0000,-144.0000 318.0000,-146.0000 C 318.0000,-146.0000 318.0000,-146.0000 318.0000,-146.0000 C 318.0000,-146.0000 318.0000,-146.0000 318.0000,-146.0000 C 321.0000,-147.0000 324.0000,-147.0000 327.0000,-148.0000 C 327.0000,-148.0000 327.0000,-148.0000 328.0000,-148.0000 C 331.0000,-149.0000 333.0000,-150.0000 336.0000,-151.0000 C 336.0000,-151.0000 336.0000,-151.0000 336.0000,-151.0000 C 336.0000,-151.0000 336.0000,-151.0000 336.0000,-151.0000 C 354.0000,-158.0000 371.0000,-168.0000 385.0000,-181.0000 C 385.0000,-181.0000 385.0000,-181.0000 385.0000,-181.0000 C 385.0000,-181.0000 385.0000,-181.0000 385.0000,-181.0000 C 413.0000,-207.0000 431.0000,-245.0000 431.0000,-287.0000 Z M 407.0000,-324.0000 C 405.0000,-320.0000 403.0000,-314.0000 400.0000,-309.0000 C 381.0000,-316.0000 358.0000,-328.0000 340.0000,-346.0000 C 328.0000,-357.0000 320.0000,-369.0000 315.0000,-381.0000 C 318.0000,-384.0000 320.0000,-388.0000 320.0000,-393.0000 C 320.0000,-394.0000 319.0000,-395.0000 319.0000,-396.0000 C 326.0000,-398.0000 333.0000,-400.0000 340.0000,-401.0000 C 372.0000,-386.0000 396.0000,-358.0000 407.0000,-324.0000 Z M 276.0000,-197.0000 C 273.0000,-200.0000 269.0000,-202.0000 264.0000,-202.0000 C 261.0000,-202.0000 259.0000,-201.0000 256.0000,-200.0000 C 240.0000,-214.0000 224.0000,-232.0000 213.0000,-253.0000 C 207.0000,-266.0000 202.0000,-278.0000 199.0000,-291.0000 C 205.0000,-301.0000 211.0000,-311.0000 218.0000,-320.0000 C 221.0000,-319.0000 223.0000,-319.0000 226.0000,-319.0000 C 234.0000,-319.0000 240.0000,-322.0000 244.0000,-328.0000 C 262.0000,-321.0000 281.0000,-312.0000 296.0000,-298.0000 C 313.0000,-284.0000 326.0000,-267.0000 337.0000,-250.0000 C 333.0000,-246.0000 331.0000,-241.0000 331.0000,-234.0000 C 331.0000,-231.0000 331.0000,-228.0000 333.0000,-225.0000 C 330.0000,-224.0000 327.0000,-222.0000 325.0000,-220.0000 C 308.0000,-211.0000 292.0000,-203.0000 276.0000,-197.0000 Z M 194.0000,-340.0000 C 198.0000,-339.0000 201.0000,-339.0000 205.0000,-338.0000 C 206.0000,-334.0000 207.0000,-331.0000 209.0000,-328.0000 C 204.0000,-321.0000 200.0000,-315.0000 196.0000,-309.0000 C 195.0000,-319.0000 194.0000,-330.0000 194.0000,-340.0000 Z M 365.0000,-254.0000 C 362.0000,-256.0000 358.0000,-257.0000 354.0000,-257.0000 C 352.0000,-257.0000 350.0000,-257.0000 348.0000,-256.0000 C 336.0000,-274.0000 322.0000,-292.0000 304.0000,-307.0000 C 287.0000,-322.0000 267.0000,-332.0000 247.0000,-340.0000 C 247.0000,-340.0000 247.0000,-340.0000 247.0000,-340.0000 C 247.0000,-344.0000 246.0000,-347.0000 245.0000,-350.0000 C 260.0000,-365.0000 275.0000,-376.0000 290.0000,-384.0000 C 293.0000,-380.0000 298.0000,-377.0000 303.0000,-377.0000 C 304.0000,-377.0000 304.0000,-377.0000 304.0000,-377.0000 C 310.0000,-364.0000 319.0000,-350.0000 331.0000,-338.0000 C 351.0000,-318.0000 374.0000,-306.0000 395.0000,-298.0000 C 387.0000,-284.0000 377.0000,-268.0000 365.0000,-254.0000 Z M 312.0000,-406.0000 C 310.0000,-408.0000 308.0000,-409.0000 305.0000,-409.0000 C 305.0000,-410.0000 304.0000,-411.0000 304.0000,-411.0000 C 309.0000,-411.0000 314.0000,-410.0000 319.0000,-408.0000 C 317.0000,-408.0000 315.0000,-407.0000 312.0000,-406.0000 Z M 287.0000,-413.0000 C 288.0000,-413.0000 290.0000,-413.0000 292.0000,-413.0000 C 292.0000,-410.0000 293.0000,-408.0000 293.0000,-405.0000 C 290.0000,-403.0000 288.0000,-400.0000 288.0000,-396.0000 C 271.0000,-387.0000 253.0000,-375.0000 236.0000,-359.0000 C 233.0000,-360.0000 230.0000,-361.0000 226.0000,-361.0000 C 218.0000,-361.0000 211.0000,-357.0000 208.0000,-350.0000 C 203.0000,-351.0000 199.0000,-351.0000 194.0000,-352.0000 C 195.0000,-360.0000 195.0000,-367.0000 196.0000,-374.0000 C 219.0000,-398.0000 251.0000,-413.0000 287.0000,-413.0000 Z M 182.0000,-357.0000 C 182.0000,-356.0000 182.0000,-355.0000 182.0000,-353.0000 C 182.0000,-353.0000 181.0000,-353.0000 180.0000,-353.0000 C 181.0000,-355.0000 182.0000,-356.0000 182.0000,-357.0000 Z M 161.0000,-287.0000 C 161.0000,-307.0000 166.0000,-325.0000 174.0000,-342.0000 C 176.0000,-342.0000 179.0000,-342.0000 182.0000,-341.0000 C 182.0000,-326.0000 183.0000,-309.0000 187.0000,-293.0000 C 178.0000,-277.0000 172.0000,-262.0000 168.0000,-248.0000 C 163.0000,-260.0000 161.0000,-273.0000 161.0000,-287.0000 Z M 175.0000,-230.0000 C 179.0000,-244.0000 184.0000,-259.0000 191.0000,-275.0000 C 194.0000,-266.0000 198.0000,-257.0000 203.0000,-248.0000 C 215.0000,-225.0000 231.0000,-206.0000 249.0000,-190.0000 C 249.0000,-189.0000 248.0000,-188.0000 248.0000,-187.0000 C 238.0000,-184.0000 229.0000,-182.0000 221.0000,-180.0000 C 201.0000,-192.0000 185.0000,-210.0000 175.0000,-230.0000 Z M 287.0000,-161.0000 C 269.0000,-161.0000 252.0000,-165.0000 237.0000,-172.0000 C 242.0000,-173.0000 246.0000,-174.0000 252.0000,-176.0000 C 255.0000,-172.0000 259.0000,-170.0000 264.0000,-170.0000 C 267.0000,-170.0000 270.0000,-171.0000 272.0000,-172.0000 C 278.0000,-168.0000 283.0000,-165.0000 289.0000,-161.0000 C 288.0000,-161.0000 287.0000,-161.0000 287.0000,-161.0000 Z M 280.0000,-181.0000 C 280.0000,-183.0000 280.0000,-184.0000 280.0000,-186.0000 C 296.0000,-192.0000 313.0000,-200.0000 331.0000,-210.0000 C 334.0000,-212.0000 337.0000,-214.0000 340.0000,-216.0000 C 344.0000,-213.0000 349.0000,-211.0000 354.0000,-211.0000 C 356.0000,-211.0000 357.0000,-211.0000 359.0000,-212.0000 C 363.0000,-204.0000 366.0000,-198.0000 368.0000,-191.0000 C 352.0000,-177.0000 332.0000,-168.0000 310.0000,-164.0000 C 300.0000,-168.0000 290.0000,-174.0000 280.0000,-181.0000 Z M 370.0000,-217.0000 C 374.0000,-222.0000 377.0000,-228.0000 377.0000,-234.0000 C 377.0000,-239.0000 376.0000,-243.0000 374.0000,-246.0000 C 387.0000,-262.0000 398.0000,-278.0000 406.0000,-294.0000 C 408.0000,-294.0000 410.0000,-293.0000 412.0000,-292.0000 C 412.0000,-291.0000 412.0000,-289.0000 412.0000,-287.0000 C 412.0000,-253.0000 399.0000,-223.0000 377.0000,-200.0000 C 375.0000,-205.0000 373.0000,-211.0000 370.0000,-217.0000 Z "  fill="#000000" stroke="none" />
</g>
</svg>
