<?xml version="1.0" encoding="UTF-8" standalone="no"?>
<svg
   xmlns:dc="http://purl.org/dc/elements/1.1/"
   xmlns:cc="http://creativecommons.org/ns#"
   xmlns:rdf="http://www.w3.org/1999/02/22-rdf-syntax-ns#"
   xmlns:svg="http://www.w3.org/2000/svg"
   xmlns="http://www.w3.org/2000/svg"
   xmlns:sodipodi="http://sodipodi.sourceforge.net/DTD/sodipodi-0.dtd"
   xmlns:inkscape="http://www.inkscape.org/namespaces/inkscape"
   version="1.1"
   width="852.0000"
   height="921.0000"
   id="svg24"
   sodipodi:docname="container02.svg"
   inkscape:version="0.92.3 (2405546, 2018-03-11)">
  <metadata
     id="metadata30">
    <rdf:RDF>
      <cc:Work
         rdf:about="">
        <dc:format>image/svg+xml</dc:format>
        <dc:type
           rdf:resource="http://purl.org/dc/dcmitype/StillImage" />
      </cc:Work>
    </rdf:RDF>
  </metadata>
  <defs
     id="defs28" />
  <sodipodi:namedview
     pagecolor="#000000"
     bordercolor="#666666"
     borderopacity="1"
     objecttolerance="10"
     gridtolerance="10"
     guidetolerance="10"
     inkscape:pageopacity="0"
     inkscape:pageshadow="2"
     inkscape:window-width="838"
     inkscape:window-height="480"
     id="namedview26"
     showgrid="false"
     inkscape:zoom="0.25624321"
     inkscape:cx="426"
     inkscape:cy="460.5"
     inkscape:window-x="49"
     inkscape:window-y="27"
     inkscape:window-maximized="0"
     inkscape:current-layer="svg24" />
  <g
     transform="translate(139.0000, 170.0000)"
     id="g22"
     style="fill:#000000">
    <path
       d="M 664.0000,276.0000 C 664.0000,290.0000 664.0000,290.0000 664.0000,290.0000 C 333.0000,109.0000 333.0000,109.0000 333.0000,109.0000 C 346.0000,97.0000 353.0000,81.0000 353.0000,62.0000 C 353.0000,56.0000 349.0000,52.0000 343.0000,52.0000 C 337.0000,52.0000 332.0000,56.0000 332.0000,62.0000 C 332.0000,77.0000 324.0000,90.0000 313.0000,98.0000 C 294.0000,88.0000 294.0000,88.0000 294.0000,88.0000 C 292.0000,86.0000 290.0000,86.0000 288.0000,86.0000 C 286.0000,86.0000 283.0000,86.0000 281.0000,88.0000 C 264.0000,97.0000 264.0000,97.0000 264.0000,97.0000 C 254.0000,89.0000 247.0000,77.0000 247.0000,62.0000 C 247.0000,39.0000 266.0000,20.0000 289.0000,20.0000 C 295.0000,20.0000 300.0000,15.0000 300.0000,9.0000 C 300.0000,-44.0000 300.0000,-44.0000 300.0000,-44.0000 C 302.0000,-44.0000 302.0000,-44.0000 302.0000,-44.0000 C 337.0000,-44.0000 337.0000,-44.0000 337.0000,-44.0000 C 340.0000,-44.0000 343.0000,-45.0000 345.0000,-48.0000 C 348.0000,-50.0000 349.0000,-54.0000 348.0000,-57.0000 C 336.0000,-159.0000 336.0000,-159.0000 336.0000,-159.0000 C 336.0000,-165.0000 331.0000,-170.0000 325.0000,-170.0000 C 256.0000,-170.0000 256.0000,-170.0000 256.0000,-170.0000 C 250.0000,-170.0000 245.0000,-165.0000 244.0000,-159.0000 C 232.0000,-57.0000 232.0000,-57.0000 232.0000,-57.0000 C 232.0000,-54.0000 233.0000,-50.0000 235.0000,-48.0000 C 238.0000,-45.0000 241.0000,-44.0000 244.0000,-44.0000 C 278.0000,-44.0000 278.0000,-44.0000 278.0000,-44.0000 C 278.0000,-1.0000 278.0000,-1.0000 278.0000,-1.0000 C 248.0000,4.0000 225.0000,31.0000 225.0000,62.0000 C 225.0000,80.0000 232.0000,96.0000 244.0000,108.0000 C -89.0000,290.0000 -89.0000,290.0000 -89.0000,290.0000 C -89.0000,276.0000 -89.0000,276.0000 -89.0000,276.0000 C -139.0000,276.0000 -139.0000,276.0000 -139.0000,276.0000 C -139.0000,751.0000 -139.0000,751.0000 -139.0000,751.0000 C -89.0000,751.0000 -89.0000,751.0000 -89.0000,751.0000 C -89.0000,736.0000 -89.0000,736.0000 -89.0000,736.0000 C 664.0000,736.0000 664.0000,736.0000 664.0000,736.0000 C 664.0000,751.0000 664.0000,751.0000 664.0000,751.0000 C 713.0000,751.0000 713.0000,751.0000 713.0000,751.0000 C 713.0000,276.0000 713.0000,276.0000 713.0000,276.0000 Z M 258.0000,-68.0000 C 267.0000,-146.0000 267.0000,-146.0000 267.0000,-146.0000 C 314.0000,-146.0000 314.0000,-146.0000 314.0000,-146.0000 C 323.0000,-68.0000 323.0000,-68.0000 323.0000,-68.0000 Z M 264.0000,121.0000 C 272.0000,125.0000 280.0000,127.0000 289.0000,127.0000 C 297.0000,127.0000 305.0000,125.0000 313.0000,122.0000 C 621.0000,290.0000 621.0000,290.0000 621.0000,290.0000 C -45.0000,290.0000 -45.0000,290.0000 -45.0000,290.0000 Z M 697.0000,735.0000 C 680.0000,735.0000 680.0000,735.0000 680.0000,735.0000 C 680.0000,720.0000 680.0000,720.0000 680.0000,720.0000 C -105.0000,720.0000 -105.0000,720.0000 -105.0000,720.0000 C -105.0000,735.0000 -105.0000,735.0000 -105.0000,735.0000 C -123.0000,735.0000 -123.0000,735.0000 -123.0000,735.0000 C -123.0000,292.0000 -123.0000,292.0000 -123.0000,292.0000 C -105.0000,292.0000 -105.0000,292.0000 -105.0000,292.0000 C -105.0000,299.0000 -105.0000,299.0000 -105.0000,299.0000 C -106.0000,299.0000 -106.0000,299.0000 -106.0000,299.0000 C -105.0000,299.0000 -105.0000,299.0000 -105.0000,299.0000 C -105.0000,306.0000 -105.0000,306.0000 -105.0000,306.0000 C 680.0000,306.0000 680.0000,306.0000 680.0000,306.0000 C 680.0000,299.0000 680.0000,299.0000 680.0000,299.0000 C 681.0000,299.0000 681.0000,299.0000 681.0000,299.0000 C 680.0000,298.0000 680.0000,298.0000 680.0000,298.0000 C 680.0000,292.0000 680.0000,292.0000 680.0000,292.0000 C 697.0000,292.0000 697.0000,292.0000 697.0000,292.0000 Z "
       fill="#425152"
       stroke="none"
       id="path2"
       style="fill:#000000" />
    <path
       d="M -60.0000,326.0000 C -65.0000,326.0000 -70.0000,331.0000 -70.0000,338.0000 C -70.0000,680.0000 -70.0000,680.0000 -70.0000,680.0000 C -70.0000,687.0000 -65.0000,692.0000 -60.0000,692.0000 C -55.0000,692.0000 -50.0000,687.0000 -50.0000,680.0000 C -50.0000,338.0000 -50.0000,338.0000 -50.0000,338.0000 C -50.0000,331.0000 -55.0000,326.0000 -60.0000,326.0000 Z "
       fill="#425152"
       stroke="none"
       id="path4"
       style="fill:#000000" />
    <path
       d="M 27.0000,326.0000 C 22.0000,326.0000 17.0000,331.0000 17.0000,338.0000 C 17.0000,680.0000 17.0000,680.0000 17.0000,680.0000 C 17.0000,687.0000 22.0000,692.0000 27.0000,692.0000 C 32.0000,692.0000 37.0000,687.0000 37.0000,680.0000 C 37.0000,338.0000 37.0000,338.0000 37.0000,338.0000 C 37.0000,331.0000 32.0000,326.0000 27.0000,326.0000 Z "
       fill="#425152"
       stroke="none"
       id="path6"
       style="fill:#000000" />
    <path
       d="M 114.0000,326.0000 C 109.0000,326.0000 104.0000,331.0000 104.0000,338.0000 C 104.0000,680.0000 104.0000,680.0000 104.0000,680.0000 C 104.0000,687.0000 109.0000,692.0000 114.0000,692.0000 C 119.0000,692.0000 124.0000,687.0000 124.0000,680.0000 C 124.0000,338.0000 124.0000,338.0000 124.0000,338.0000 C 124.0000,331.0000 119.0000,326.0000 114.0000,326.0000 Z "
       fill="#425152"
       stroke="none"
       id="path8"
       style="fill:#000000" />
    <path
       d="M 201.0000,326.0000 C 196.0000,326.0000 191.0000,331.0000 191.0000,338.0000 C 191.0000,680.0000 191.0000,680.0000 191.0000,680.0000 C 191.0000,687.0000 196.0000,692.0000 201.0000,692.0000 C 206.0000,692.0000 211.0000,687.0000 211.0000,680.0000 C 211.0000,338.0000 211.0000,338.0000 211.0000,338.0000 C 211.0000,331.0000 206.0000,326.0000 201.0000,326.0000 Z "
       fill="#425152"
       stroke="none"
       id="path10"
       style="fill:#000000" />
    <path
       d="M 288.0000,326.0000 C 283.0000,326.0000 278.0000,331.0000 278.0000,338.0000 C 278.0000,680.0000 278.0000,680.0000 278.0000,680.0000 C 278.0000,687.0000 283.0000,692.0000 288.0000,692.0000 C 293.0000,692.0000 298.0000,687.0000 298.0000,680.0000 C 298.0000,338.0000 298.0000,338.0000 298.0000,338.0000 C 298.0000,331.0000 293.0000,326.0000 288.0000,326.0000 Z "
       fill="#425152"
       stroke="none"
       id="path12"
       style="fill:#000000" />
    <path
       d="M 375.0000,326.0000 C 370.0000,326.0000 365.0000,331.0000 365.0000,338.0000 C 365.0000,680.0000 365.0000,680.0000 365.0000,680.0000 C 365.0000,687.0000 370.0000,692.0000 375.0000,692.0000 C 380.0000,692.0000 385.0000,687.0000 385.0000,680.0000 C 385.0000,338.0000 385.0000,338.0000 385.0000,338.0000 C 385.0000,331.0000 380.0000,326.0000 375.0000,326.0000 Z "
       fill="#425152"
       stroke="none"
       id="path14"
       style="fill:#000000" />
    <path
       d="M 462.0000,326.0000 C 457.0000,326.0000 452.0000,331.0000 452.0000,338.0000 C 452.0000,680.0000 452.0000,680.0000 452.0000,680.0000 C 452.0000,687.0000 457.0000,692.0000 462.0000,692.0000 C 467.0000,692.0000 472.0000,687.0000 472.0000,680.0000 C 472.0000,338.0000 472.0000,338.0000 472.0000,338.0000 C 472.0000,331.0000 467.0000,326.0000 462.0000,326.0000 Z "
       fill="#425152"
       stroke="none"
       id="path16"
       style="fill:#000000" />
    <path
       d="M 549.0000,326.0000 C 544.0000,326.0000 539.0000,331.0000 539.0000,338.0000 C 539.0000,680.0000 539.0000,680.0000 539.0000,680.0000 C 539.0000,687.0000 544.0000,692.0000 549.0000,692.0000 C 554.0000,692.0000 559.0000,687.0000 559.0000,680.0000 C 559.0000,338.0000 559.0000,338.0000 559.0000,338.0000 C 559.0000,331.0000 554.0000,326.0000 549.0000,326.0000 Z "
       fill="#425152"
       stroke="none"
       id="path18"
       style="fill:#000000" />
    <path
       d="M 636.0000,326.0000 C 631.0000,326.0000 626.0000,331.0000 626.0000,338.0000 C 626.0000,680.0000 626.0000,680.0000 626.0000,680.0000 C 626.0000,687.0000 631.0000,692.0000 636.0000,692.0000 C 641.0000,692.0000 646.0000,687.0000 646.0000,680.0000 C 646.0000,338.0000 646.0000,338.0000 646.0000,338.0000 C 646.0000,331.0000 641.0000,326.0000 636.0000,326.0000 Z "
       fill="#425152"
       stroke="none"
       id="path20"
       style="fill:#000000" />
  </g>
</svg>
