<?xml version="1.0"  encoding="UTF-8" standalone="no"?>
<svg version="1.1" xmlns="http://www.w3.org/2000/svg" xmlns:xlink="http://www.w3.org/1999/xlink" width="523.0000" height="380.0000">
<g transform="translate(-25.0000, 477.0000)">
<path d="M 135.0000,-194.0000 C 202.0000,-185.0000 271.0000,-186.0000 287.0000,-186.0000 C 302.0000,-186.0000 369.0000,-185.0000 434.0000,-194.0000 C 434.0000,-194.0000 439.0000,-122.0000 349.0000,-98.0000 C 311.0000,-91.0000 286.0000,-121.0000 286.0000,-121.0000 C 285.0000,-123.0000 285.0000,-123.0000 285.0000,-123.0000 C 283.0000,-121.0000 283.0000,-121.0000 283.0000,-121.0000 C 283.0000,-121.0000 258.0000,-91.0000 220.0000,-98.0000 C 131.0000,-122.0000 135.0000,-194.0000 135.0000,-194.0000 Z M 375.0000,-162.0000 C 375.0000,-162.0000 346.0000,-138.0000 323.0000,-136.0000 C 324.0000,-133.0000 336.0000,-117.0000 352.0000,-120.0000 C 375.0000,-135.0000 375.0000,-162.0000 375.0000,-162.0000 Z M 195.0000,-162.0000 C 195.0000,-162.0000 195.0000,-135.0000 218.0000,-120.0000 C 233.0000,-117.0000 245.0000,-133.0000 247.0000,-136.0000 C 224.0000,-138.0000 195.0000,-162.0000 195.0000,-162.0000 Z "  fill="#000000" stroke="none" />
<path d="M 25.0000,-255.0000 C 25.0000,-271.0000 66.0000,-287.0000 130.0000,-296.0000 C 169.0000,-433.0000 169.0000,-433.0000 169.0000,-433.0000 C 169.0000,-433.0000 189.0000,-477.0000 219.0000,-477.0000 C 246.0000,-476.0000 270.0000,-444.0000 270.0000,-444.0000 C 276.0000,-440.0000 282.0000,-439.0000 285.0000,-440.0000 C 285.0000,-440.0000 286.0000,-440.0000 287.0000,-440.0000 C 288.0000,-440.0000 288.0000,-440.0000 288.0000,-440.0000 C 292.0000,-439.0000 298.0000,-440.0000 303.0000,-444.0000 C 303.0000,-444.0000 327.0000,-476.0000 355.0000,-477.0000 C 385.0000,-477.0000 404.0000,-433.0000 404.0000,-433.0000 C 443.0000,-296.0000 443.0000,-296.0000 443.0000,-296.0000 C 507.0000,-287.0000 548.0000,-271.0000 548.0000,-255.0000 C 548.0000,-226.0000 431.0000,-203.0000 287.0000,-203.0000 C 142.0000,-203.0000 25.0000,-226.0000 25.0000,-255.0000 Z "  fill="#000000" stroke="none" />
</g>
</svg>
