<?xml version="1.0"  encoding="UTF-8" standalone="no"?>
<svg version="1.1" xmlns="http://www.w3.org/2000/svg" xmlns:xlink="http://www.w3.org/1999/xlink" width="650.0000" height="539.0000">
<g transform="translate(38.0000, -17.0000)">
<path d="M -38.0000,176.0000 L 250.0000,176.0000 L 250.0000,17.0000 L -38.0000,17.0000 L -38.0000,176.0000 Z "  fill="#000000" stroke-width="1px" stroke="#FFFFFF" />
<path d="M -38.0000,367.0000 L 69.0000,367.0000 L 69.0000,208.0000 L -38.0000,208.0000 L -38.0000,367.0000 Z "  fill="#000000" stroke-width="1px" stroke="#FFFFFF" />
<path d="M 239.0000,397.0000 C -38.0000,397.0000 -38.0000,397.0000 -38.0000,397.0000 C -38.0000,556.0000 -38.0000,556.0000 -38.0000,556.0000 C 251.0000,556.0000 251.0000,556.0000 251.0000,556.0000 C 251.0000,433.0000 251.0000,433.0000 251.0000,433.0000 C 246.0000,422.0000 242.0000,410.0000 239.0000,397.0000 Z "  fill="#000000" stroke="none" />
<path d="M 580.0000,495.0000 C 544.0000,532.0000 493.0000,554.0000 437.0000,554.0000 C 380.0000,554.0000 328.0000,530.0000 291.0000,492.0000 C 291.0000,556.0000 291.0000,556.0000 291.0000,556.0000 C 580.0000,556.0000 580.0000,556.0000 580.0000,556.0000 Z "  fill="#000000" stroke="none" />
<path d="M 234.0000,351.0000 C 234.0000,295.0000 256.0000,245.0000 293.0000,208.0000 C 106.0000,208.0000 106.0000,208.0000 106.0000,208.0000 C 106.0000,367.0000 106.0000,367.0000 106.0000,367.0000 C 234.0000,367.0000 234.0000,367.0000 234.0000,367.0000 C 234.0000,361.0000 234.0000,356.0000 234.0000,351.0000 Z "  fill="#000000" stroke="none" />
<path d="M 579.0000,17.0000 C 290.0000,17.0000 290.0000,17.0000 290.0000,17.0000 C 290.0000,176.0000 290.0000,176.0000 290.0000,176.0000 C 334.0000,176.0000 334.0000,176.0000 334.0000,176.0000 C 364.0000,158.0000 399.0000,148.0000 437.0000,148.0000 C 474.0000,148.0000 510.0000,158.0000 540.0000,176.0000 C 579.0000,176.0000 579.0000,176.0000 579.0000,176.0000 Z "  fill="#000000" stroke="none" />
<path d="M 334.0000,385.0000 C 332.0000,377.0000 332.0000,377.0000 332.0000,377.0000 C 330.0000,368.0000 329.0000,359.0000 329.0000,350.0000 C 329.0000,300.0000 365.0000,255.0000 414.0000,244.0000 C 422.0000,242.0000 422.0000,242.0000 422.0000,242.0000 C 422.0000,234.0000 422.0000,234.0000 422.0000,234.0000 C 422.0000,189.0000 422.0000,189.0000 422.0000,189.0000 C 422.0000,177.0000 422.0000,177.0000 422.0000,177.0000 C 410.0000,178.0000 410.0000,178.0000 410.0000,178.0000 C 326.0000,192.0000 263.0000,266.0000 263.0000,350.0000 C 263.0000,368.0000 266.0000,386.0000 272.0000,404.0000 C 275.0000,415.0000 275.0000,415.0000 275.0000,415.0000 C 286.0000,410.0000 286.0000,410.0000 286.0000,410.0000 C 327.0000,389.0000 327.0000,389.0000 327.0000,389.0000 Z "  fill="#000000" stroke="none" />
<path d="M 470.0000,179.0000 C 458.0000,177.0000 458.0000,177.0000 458.0000,177.0000 C 458.0000,190.0000 458.0000,190.0000 458.0000,190.0000 C 458.0000,235.0000 458.0000,235.0000 458.0000,235.0000 C 458.0000,243.0000 458.0000,243.0000 458.0000,243.0000 C 465.0000,245.0000 465.0000,245.0000 465.0000,245.0000 C 513.0000,258.0000 546.0000,301.0000 546.0000,350.0000 C 546.0000,359.0000 545.0000,367.0000 543.0000,375.0000 C 542.0000,383.0000 542.0000,383.0000 542.0000,383.0000 C 548.0000,387.0000 548.0000,387.0000 548.0000,387.0000 C 587.0000,411.0000 587.0000,411.0000 587.0000,411.0000 C 598.0000,419.0000 598.0000,419.0000 598.0000,419.0000 C 602.0000,406.0000 602.0000,406.0000 602.0000,406.0000 C 608.0000,388.0000 612.0000,369.0000 612.0000,350.0000 C 612.0000,267.0000 552.0000,195.0000 470.0000,179.0000 Z "  fill="#000000" stroke="none" />
<path d="M 533.0000,419.0000 C 526.0000,415.0000 526.0000,415.0000 526.0000,415.0000 C 520.0000,421.0000 520.0000,421.0000 520.0000,421.0000 C 499.0000,445.0000 469.0000,459.0000 437.0000,459.0000 C 406.0000,459.0000 377.0000,446.0000 356.0000,423.0000 C 351.0000,416.0000 351.0000,416.0000 351.0000,416.0000 C 343.0000,420.0000 343.0000,420.0000 343.0000,420.0000 C 303.0000,441.0000 303.0000,441.0000 303.0000,441.0000 C 292.0000,447.0000 292.0000,447.0000 292.0000,447.0000 C 300.0000,457.0000 300.0000,457.0000 300.0000,457.0000 C 333.0000,500.0000 383.0000,524.0000 437.0000,524.0000 C 491.0000,524.0000 540.0000,501.0000 574.0000,459.0000 C 581.0000,450.0000 581.0000,450.0000 581.0000,450.0000 C 571.0000,443.0000 571.0000,443.0000 571.0000,443.0000 Z "  fill="#000000" stroke="none" />
<path d="M 363.0000,350.0000 C 363.0000,391.0000 397.0000,424.0000 437.0000,424.0000 C 478.0000,424.0000 512.0000,391.0000 512.0000,350.0000 C 512.0000,309.0000 478.0000,276.0000 437.0000,276.0000 C 397.0000,276.0000 363.0000,309.0000 363.0000,350.0000 Z "  fill="#000000" stroke="none" />
</g>
</svg>
