<?xml version="1.0" encoding="UTF-8" standalone="no"?>
<svg
   xmlns:dc="http://purl.org/dc/elements/1.1/"
   xmlns:cc="http://creativecommons.org/ns#"
   xmlns:rdf="http://www.w3.org/1999/02/22-rdf-syntax-ns#"
   xmlns:svg="http://www.w3.org/2000/svg"
   xmlns="http://www.w3.org/2000/svg"
   xmlns:sodipodi="http://sodipodi.sourceforge.net/DTD/sodipodi-0.dtd"
   xmlns:inkscape="http://www.inkscape.org/namespaces/inkscape"
   version="1.1"
   width="616.0000"
   height="517.0000"
   id="svg14"
   sodipodi:docname="software01.svg"
   inkscape:version="0.92.3 (2405546, 2018-03-11)">
  <metadata
     id="metadata20">
    <rdf:RDF>
      <cc:Work
         rdf:about="">
        <dc:format>image/svg+xml</dc:format>
        <dc:type
           rdf:resource="http://purl.org/dc/dcmitype/StillImage" />
      </cc:Work>
    </rdf:RDF>
  </metadata>
  <defs
     id="defs18" />
  <sodipodi:namedview
     pagecolor="#000000"
     bordercolor="#666666"
     borderopacity="1"
     objecttolerance="10"
     gridtolerance="10"
     guidetolerance="10"
     inkscape:pageopacity="0"
     inkscape:pageshadow="2"
     inkscape:window-width="1551"
     inkscape:window-height="836"
     id="namedview16"
     showgrid="false"
     inkscape:zoom="0.45647969"
     inkscape:cx="312.38136"
     inkscape:cy="258.5"
     inkscape:window-x="49"
     inkscape:window-y="27"
     inkscape:window-maximized="1"
     inkscape:current-layer="svg14" />
  <g
     transform="translate(17.0000, -29.0000)"
     id="g12"
     style="fill:#000000">
    <path
       d="M 341.0000,248.0000 C 362.0000,248.0000 380.0000,266.0000 380.0000,288.0000 C 380.0000,309.0000 362.0000,327.0000 341.0000,327.0000 C 319.0000,327.0000 301.0000,309.0000 301.0000,288.0000 C 301.0000,266.0000 319.0000,248.0000 341.0000,248.0000 Z "
       fill="#425353"
       stroke="none"
       id="path2"
       style="fill:#000000" />
    <path
       d="M 341.0000,374.0000 C 293.0000,374.0000 254.0000,335.0000 254.0000,288.0000 C 254.0000,240.0000 293.0000,201.0000 341.0000,201.0000 C 364.0000,201.0000 385.0000,210.0000 402.0000,226.0000 C 418.0000,243.0000 427.0000,265.0000 427.0000,288.0000 C 427.0000,335.0000 388.0000,374.0000 341.0000,374.0000 Z M 341.0000,225.0000 C 306.0000,225.0000 278.0000,253.0000 278.0000,288.0000 C 278.0000,322.0000 306.0000,350.0000 341.0000,350.0000 C 375.0000,350.0000 403.0000,322.0000 403.0000,288.0000 C 403.0000,271.0000 396.0000,255.0000 385.0000,244.0000 C 373.0000,232.0000 357.0000,225.0000 341.0000,225.0000 Z "
       fill="#425353"
       stroke="none"
       id="path4"
       style="fill:#000000" />
    <path
       d="M 197.0000,537.0000 L 27.0000,537.0000 L 27.0000,521.0000 L 197.0000,521.0000 L 197.0000,537.0000 Z "
       fill="#425353"
       stroke-width="1px"
       stroke="#425353"
       id="path6"
       style="fill:#000000" />
    <path
       d="M 341.0000,29.0000 C 266.0000,29.0000 198.0000,61.0000 149.0000,114.0000 C 188.0000,114.0000 188.0000,114.0000 188.0000,114.0000 C 188.0000,115.0000 188.0000,115.0000 188.0000,115.0000 C 229.0000,78.0000 283.0000,57.0000 341.0000,57.0000 C 468.0000,57.0000 571.0000,161.0000 571.0000,288.0000 C 571.0000,415.0000 468.0000,518.0000 341.0000,518.0000 C 288.0000,518.0000 236.0000,500.0000 195.0000,466.0000 C 178.0000,488.0000 178.0000,488.0000 178.0000,488.0000 C 224.0000,526.0000 281.0000,546.0000 341.0000,546.0000 C 483.0000,546.0000 599.0000,430.0000 599.0000,288.0000 C 599.0000,145.0000 483.0000,29.0000 341.0000,29.0000 Z "
       fill="#425353"
       stroke="none"
       id="path8"
       style="fill:#000000" />
    <path
       d="M 135.0000,142.0000 L 51.0000,142.0000 L 51.0000,343.0000 L -17.0000,343.0000 L 112.0000,519.0000 L 240.0000,343.0000 L 173.0000,343.0000 L 173.0000,143.0000 L 173.0000,142.0000 L 135.0000,142.0000 Z "
       fill="#425353"
       stroke-width="1px"
       stroke="#425353"
       id="path10"
       style="fill:#000000" />
  </g>
</svg>
