<?xml version="1.0"  encoding="UTF-8" standalone="no"?>
<svg version="1.1" xmlns="http://www.w3.org/2000/svg" xmlns:xlink="http://www.w3.org/1999/xlink" width="742.0000" height="742.0000">
<g transform="translate(84.0000, 83.0000)">
<path d="M 640.0000,268.0000 C 640.0000,268.0000 640.0000,268.0000 639.0000,268.0000 C 630.0000,268.0000 622.0000,276.0000 622.0000,286.0000 C 622.0000,288.0000 622.0000,288.0000 622.0000,288.0000 C 622.0000,299.0000 621.0000,311.0000 620.0000,322.0000 C 619.0000,332.0000 626.0000,341.0000 636.0000,342.0000 C 636.0000,342.0000 636.0000,342.0000 636.0000,342.0000 C 637.0000,342.0000 638.0000,343.0000 638.0000,343.0000 C 647.0000,343.0000 655.0000,336.0000 656.0000,326.0000 C 658.0000,313.0000 658.0000,301.0000 658.0000,288.0000 C 658.0000,286.0000 658.0000,286.0000 658.0000,286.0000 C 658.0000,276.0000 650.0000,268.0000 640.0000,268.0000 Z "  fill="#000000" stroke="none" />
<path d="M 68.0000,541.0000 C 59.0000,534.0000 51.0000,526.0000 43.0000,517.0000 C 36.0000,510.0000 25.0000,510.0000 18.0000,516.0000 C 18.0000,516.0000 18.0000,516.0000 17.0000,516.0000 C 10.0000,523.0000 10.0000,535.0000 17.0000,542.0000 C 25.0000,551.0000 35.0000,560.0000 44.0000,569.0000 C 48.0000,572.0000 52.0000,573.0000 56.0000,573.0000 C 61.0000,573.0000 66.0000,571.0000 70.0000,567.0000 C 70.0000,567.0000 70.0000,567.0000 70.0000,566.0000 C 77.0000,559.0000 76.0000,548.0000 68.0000,541.0000 Z "  fill="#000000" stroke="none" />
<path d="M 148.0000,593.0000 C 138.0000,588.0000 128.0000,582.0000 118.0000,577.0000 C 109.0000,572.0000 98.0000,574.0000 93.0000,583.0000 C 93.0000,583.0000 93.0000,583.0000 93.0000,583.0000 C 88.0000,592.0000 90.0000,603.0000 99.0000,608.0000 C 110.0000,615.0000 122.0000,620.0000 133.0000,626.0000 C 136.0000,627.0000 138.0000,627.0000 141.0000,627.0000 C 148.0000,627.0000 154.0000,623.0000 157.0000,617.0000 C 157.0000,617.0000 157.0000,616.0000 158.0000,616.0000 C 161.0000,607.0000 157.0000,597.0000 148.0000,593.0000 Z "  fill="#000000" stroke="none" />
<path d="M 240.0000,619.0000 C 228.0000,618.0000 217.0000,615.0000 206.0000,613.0000 C 196.0000,610.0000 186.0000,616.0000 184.0000,625.0000 C 184.0000,626.0000 184.0000,626.0000 184.0000,626.0000 C 181.0000,636.0000 187.0000,646.0000 197.0000,648.0000 C 209.0000,651.0000 222.0000,654.0000 235.0000,655.0000 C 236.0000,655.0000 236.0000,656.0000 237.0000,656.0000 C 246.0000,656.0000 254.0000,649.0000 255.0000,640.0000 C 255.0000,640.0000 255.0000,640.0000 255.0000,639.0000 C 256.0000,630.0000 250.0000,621.0000 240.0000,619.0000 Z "  fill="#000000" stroke="none" />
<path d="M 6.0000,469.0000 C -1.0000,460.0000 -6.0000,450.0000 -12.0000,439.0000 C -16.0000,430.0000 -27.0000,427.0000 -36.0000,431.0000 C -36.0000,431.0000 -36.0000,431.0000 -36.0000,431.0000 C -45.0000,436.0000 -49.0000,447.0000 -44.0000,456.0000 C -38.0000,467.0000 -32.0000,478.0000 -25.0000,489.0000 C -21.0000,494.0000 -16.0000,497.0000 -10.0000,497.0000 C -6.0000,497.0000 -3.0000,496.0000 0.0000,494.0000 C 0.0000,494.0000 1.0000,494.0000 1.0000,494.0000 C 9.0000,489.0000 11.0000,478.0000 6.0000,469.0000 Z "  fill="#000000" stroke="none" />
<path d="M -48.0000,288.0000 C -48.0000,276.0000 -47.0000,265.0000 -46.0000,254.0000 C -45.0000,244.0000 -52.0000,235.0000 -62.0000,234.0000 C -62.0000,234.0000 -62.0000,234.0000 -62.0000,234.0000 C -72.0000,233.0000 -81.0000,240.0000 -82.0000,250.0000 C -84.0000,263.0000 -84.0000,275.0000 -84.0000,288.0000 C -84.0000,289.0000 -84.0000,289.0000 -84.0000,289.0000 C -84.0000,299.0000 -76.0000,306.0000 -66.0000,306.0000 C -66.0000,306.0000 -66.0000,306.0000 -65.0000,306.0000 C -56.0000,306.0000 -48.0000,298.0000 -48.0000,288.0000 Z "  fill="#000000" stroke="none" />
<path d="M 335.0000,619.0000 C 324.0000,621.0000 312.0000,622.0000 301.0000,622.0000 C 291.0000,623.0000 283.0000,631.0000 283.0000,641.0000 C 283.0000,641.0000 283.0000,641.0000 283.0000,641.0000 C 283.0000,651.0000 291.0000,659.0000 301.0000,659.0000 C 301.0000,659.0000 302.0000,659.0000 302.0000,659.0000 C 315.0000,658.0000 328.0000,657.0000 340.0000,655.0000 C 350.0000,654.0000 357.0000,645.0000 356.0000,635.0000 C 356.0000,634.0000 356.0000,634.0000 356.0000,634.0000 C 354.0000,624.0000 345.0000,618.0000 335.0000,619.0000 Z "  fill="#000000" stroke="none" />
<path d="M 569.0000,469.0000 C 563.0000,478.0000 556.0000,488.0000 549.0000,497.0000 C 542.0000,505.0000 544.0000,516.0000 551.0000,522.0000 C 551.0000,522.0000 551.0000,522.0000 551.0000,522.0000 C 555.0000,525.0000 559.0000,526.0000 563.0000,526.0000 C 568.0000,526.0000 573.0000,524.0000 577.0000,520.0000 C 585.0000,510.0000 593.0000,499.0000 599.0000,488.0000 C 605.0000,480.0000 602.0000,469.0000 594.0000,463.0000 C 594.0000,463.0000 594.0000,463.0000 594.0000,463.0000 C 585.0000,458.0000 574.0000,460.0000 569.0000,469.0000 Z "  fill="#000000" stroke="none" />
<path d="M -34.0000,194.0000 C -31.0000,183.0000 -27.0000,172.0000 -23.0000,161.0000 C -19.0000,152.0000 -24.0000,142.0000 -33.0000,138.0000 C -33.0000,138.0000 -33.0000,138.0000 -33.0000,138.0000 C -42.0000,134.0000 -53.0000,138.0000 -57.0000,148.0000 C -62.0000,160.0000 -66.0000,172.0000 -69.0000,184.0000 C -72.0000,194.0000 -67.0000,204.0000 -57.0000,207.0000 C -57.0000,207.0000 -57.0000,207.0000 -57.0000,207.0000 C -55.0000,207.0000 -53.0000,207.0000 -52.0000,207.0000 C -44.0000,207.0000 -37.0000,202.0000 -34.0000,194.0000 Z "  fill="#000000" stroke="none" />
<path d="M 608.0000,382.0000 C 605.0000,393.0000 601.0000,404.0000 597.0000,415.0000 C 593.0000,424.0000 597.0000,434.0000 606.0000,438.0000 C 607.0000,438.0000 607.0000,439.0000 607.0000,439.0000 C 609.0000,439.0000 611.0000,440.0000 614.0000,440.0000 C 621.0000,440.0000 628.0000,436.0000 631.0000,429.0000 C 635.0000,417.0000 640.0000,405.0000 643.0000,392.0000 C 646.0000,383.0000 641.0000,373.0000 631.0000,370.0000 C 631.0000,370.0000 631.0000,370.0000 630.0000,370.0000 C 621.0000,367.0000 611.0000,373.0000 608.0000,382.0000 Z "  fill="#000000" stroke="none" />
<path d="M 506.0000,541.0000 C 498.0000,548.0000 488.0000,555.0000 479.0000,562.0000 C 471.0000,568.0000 469.0000,579.0000 474.0000,587.0000 C 474.0000,587.0000 475.0000,587.0000 475.0000,587.0000 C 478.0000,593.0000 484.0000,595.0000 490.0000,595.0000 C 493.0000,595.0000 497.0000,594.0000 500.0000,592.0000 C 510.0000,585.0000 521.0000,577.0000 530.0000,568.0000 C 538.0000,562.0000 539.0000,550.0000 532.0000,543.0000 C 532.0000,542.0000 532.0000,542.0000 532.0000,542.0000 C 525.0000,535.0000 514.0000,534.0000 506.0000,541.0000 Z "  fill="#000000" stroke="none" />
<path d="M 426.0000,592.0000 C 416.0000,597.0000 405.0000,601.0000 394.0000,605.0000 C 385.0000,608.0000 380.0000,618.0000 383.0000,628.0000 C 383.0000,628.0000 383.0000,628.0000 383.0000,628.0000 C 385.0000,636.0000 392.0000,641.0000 400.0000,641.0000 C 402.0000,641.0000 404.0000,640.0000 406.0000,640.0000 C 418.0000,636.0000 430.0000,631.0000 442.0000,625.0000 C 451.0000,621.0000 455.0000,610.0000 451.0000,601.0000 C 450.0000,601.0000 450.0000,601.0000 450.0000,601.0000 C 446.0000,592.0000 435.0000,588.0000 426.0000,592.0000 Z "  fill="#000000" stroke="none" />
<path d="M -34.0000,383.0000 C -37.0000,372.0000 -40.0000,360.0000 -42.0000,349.0000 C -44.0000,339.0000 -53.0000,333.0000 -63.0000,334.0000 C -63.0000,334.0000 -63.0000,334.0000 -63.0000,334.0000 C -73.0000,336.0000 -80.0000,346.0000 -78.0000,356.0000 C -76.0000,368.0000 -73.0000,381.0000 -69.0000,393.0000 C -67.0000,401.0000 -59.0000,406.0000 -52.0000,406.0000 C -50.0000,406.0000 -48.0000,406.0000 -46.0000,405.0000 C -46.0000,405.0000 -46.0000,405.0000 -46.0000,405.0000 C -37.0000,402.0000 -31.0000,392.0000 -34.0000,383.0000 Z "  fill="#000000" stroke="none" />
<path d="M 425.0000,-17.0000 C 436.0000,-13.0000 446.0000,-7.0000 456.0000,-1.0000 C 459.0000,0.0000 462.0000,1.0000 465.0000,1.0000 C 471.0000,1.0000 477.0000,-2.0000 481.0000,-7.0000 C 481.0000,-8.0000 481.0000,-8.0000 481.0000,-8.0000 C 486.0000,-17.0000 483.0000,-28.0000 474.0000,-33.0000 C 463.0000,-39.0000 452.0000,-45.0000 440.0000,-50.0000 C 431.0000,-55.0000 420.0000,-51.0000 416.0000,-41.0000 C 416.0000,-41.0000 416.0000,-41.0000 416.0000,-41.0000 C 412.0000,-32.0000 416.0000,-21.0000 425.0000,-17.0000 Z "  fill="#000000" stroke="none" />
<path d="M 505.0000,34.0000 C 514.0000,42.0000 523.0000,50.0000 530.0000,58.0000 C 534.0000,62.0000 539.0000,64.0000 544.0000,64.0000 C 548.0000,64.0000 552.0000,62.0000 556.0000,59.0000 C 556.0000,59.0000 556.0000,59.0000 556.0000,59.0000 C 564.0000,52.0000 564.0000,40.0000 557.0000,33.0000 C 548.0000,24.0000 539.0000,15.0000 529.0000,6.0000 C 522.0000,0.0000 510.0000,1.0000 503.0000,8.0000 C 503.0000,8.0000 503.0000,9.0000 503.0000,9.0000 C 497.0000,16.0000 498.0000,28.0000 505.0000,34.0000 Z "  fill="#000000" stroke="none" />
<path d="M 568.0000,106.0000 C 574.0000,115.0000 580.0000,126.0000 585.0000,136.0000 C 589.0000,142.0000 595.0000,146.0000 602.0000,146.0000 C 604.0000,146.0000 607.0000,145.0000 609.0000,144.0000 C 610.0000,144.0000 610.0000,144.0000 610.0000,144.0000 C 619.0000,139.0000 622.0000,128.0000 618.0000,119.0000 C 612.0000,108.0000 606.0000,97.0000 599.0000,86.0000 C 593.0000,77.0000 582.0000,75.0000 573.0000,81.0000 C 573.0000,81.0000 573.0000,81.0000 573.0000,81.0000 C 565.0000,86.0000 563.0000,97.0000 568.0000,106.0000 Z "  fill="#000000" stroke="none" />
<path d="M 608.0000,192.0000 C 611.0000,203.0000 614.0000,215.0000 616.0000,226.0000 C 618.0000,235.0000 625.0000,241.0000 634.0000,241.0000 C 635.0000,241.0000 636.0000,241.0000 637.0000,241.0000 C 637.0000,240.0000 637.0000,240.0000 637.0000,240.0000 C 647.0000,239.0000 654.0000,229.0000 652.0000,219.0000 C 650.0000,207.0000 647.0000,194.0000 643.0000,182.0000 C 640.0000,172.0000 630.0000,167.0000 620.0000,170.0000 C 620.0000,170.0000 620.0000,170.0000 620.0000,170.0000 C 610.0000,173.0000 605.0000,183.0000 608.0000,192.0000 Z "  fill="#000000" stroke="none" />
<path d="M 5.0000,107.0000 C 11.0000,98.0000 18.0000,88.0000 25.0000,79.0000 C 31.0000,72.0000 30.0000,60.0000 23.0000,54.0000 C 22.0000,54.0000 22.0000,54.0000 22.0000,54.0000 C 14.0000,47.0000 3.0000,49.0000 -3.0000,57.0000 C -11.0000,67.0000 -19.0000,77.0000 -26.0000,88.0000 C -31.0000,96.0000 -29.0000,108.0000 -20.0000,113.0000 C -20.0000,113.0000 -20.0000,113.0000 -20.0000,113.0000 C -17.0000,115.0000 -14.0000,116.0000 -10.0000,116.0000 C -4.0000,116.0000 1.0000,113.0000 5.0000,107.0000 Z "  fill="#000000" stroke="none" />
<path d="M 67.0000,35.0000 C 76.0000,28.0000 85.0000,21.0000 94.0000,14.0000 C 103.0000,8.0000 105.0000,-3.0000 99.0000,-11.0000 C 99.0000,-11.0000 99.0000,-11.0000 99.0000,-11.0000 C 93.0000,-20.0000 82.0000,-22.0000 73.0000,-16.0000 C 63.0000,-8.0000 53.0000,0.0000 43.0000,8.0000 C 36.0000,15.0000 35.0000,26.0000 41.0000,34.0000 C 42.0000,34.0000 42.0000,34.0000 42.0000,34.0000 C 45.0000,38.0000 50.0000,40.0000 55.0000,40.0000 C 59.0000,40.0000 64.0000,38.0000 67.0000,35.0000 Z "  fill="#000000" stroke="none" />
<path d="M 334.0000,-44.0000 C 345.0000,-42.0000 357.0000,-40.0000 368.0000,-37.0000 C 369.0000,-37.0000 371.0000,-37.0000 372.0000,-37.0000 C 380.0000,-37.0000 387.0000,-42.0000 390.0000,-50.0000 C 390.0000,-50.0000 390.0000,-50.0000 390.0000,-51.0000 C 392.0000,-60.0000 386.0000,-70.0000 376.0000,-73.0000 C 364.0000,-76.0000 351.0000,-78.0000 339.0000,-80.0000 C 329.0000,-81.0000 320.0000,-74.0000 318.0000,-64.0000 C 318.0000,-64.0000 318.0000,-64.0000 318.0000,-64.0000 C 317.0000,-54.0000 324.0000,-45.0000 334.0000,-44.0000 Z "  fill="#000000" stroke="none" />
<path d="M 139.0000,-15.0000 C 142.0000,-15.0000 145.0000,-15.0000 147.0000,-16.0000 C 158.0000,-21.0000 168.0000,-26.0000 179.0000,-29.0000 C 189.0000,-32.0000 194.0000,-42.0000 191.0000,-52.0000 C 191.0000,-52.0000 191.0000,-52.0000 191.0000,-52.0000 C 187.0000,-62.0000 177.0000,-67.0000 168.0000,-64.0000 C 155.0000,-60.0000 143.0000,-55.0000 132.0000,-50.0000 C 123.0000,-45.0000 119.0000,-34.0000 123.0000,-25.0000 C 123.0000,-25.0000 123.0000,-25.0000 123.0000,-25.0000 C 126.0000,-18.0000 133.0000,-15.0000 139.0000,-15.0000 Z "  fill="#000000" stroke="none" />
<path d="M 236.0000,-43.0000 C 237.0000,-43.0000 237.0000,-43.0000 238.0000,-43.0000 C 250.0000,-45.0000 261.0000,-46.0000 273.0000,-47.0000 C 283.0000,-47.0000 290.0000,-55.0000 290.0000,-65.0000 C 290.0000,-65.0000 290.0000,-65.0000 290.0000,-66.0000 C 290.0000,-76.0000 281.0000,-83.0000 271.0000,-83.0000 C 259.0000,-83.0000 246.0000,-81.0000 233.0000,-80.0000 C 223.0000,-78.0000 216.0000,-69.0000 218.0000,-59.0000 C 218.0000,-59.0000 218.0000,-59.0000 218.0000,-58.0000 C 219.0000,-50.0000 227.0000,-43.0000 236.0000,-43.0000 Z "  fill="#000000" stroke="none" />
<path d="M 225.0000,102.0000 C 340.0000,102.0000 340.0000,102.0000 340.0000,102.0000 C 347.0000,102.0000 353.0000,96.0000 353.0000,89.0000 C 353.0000,10.0000 353.0000,10.0000 353.0000,10.0000 C 353.0000,4.0000 347.0000,-2.0000 340.0000,-2.0000 C 225.0000,-2.0000 225.0000,-2.0000 225.0000,-2.0000 C 218.0000,-2.0000 213.0000,4.0000 213.0000,10.0000 C 213.0000,89.0000 213.0000,89.0000 213.0000,89.0000 C 213.0000,96.0000 218.0000,102.0000 225.0000,102.0000 Z "  fill="#000000" stroke="none" />
<path d="M 212.0000,449.0000 C 81.0000,449.0000 81.0000,449.0000 81.0000,449.0000 C 79.0000,449.0000 77.0000,451.0000 77.0000,453.0000 C 56.0000,489.0000 56.0000,489.0000 56.0000,489.0000 C 56.0000,491.0000 58.0000,493.0000 61.0000,493.0000 C 232.0000,493.0000 232.0000,493.0000 232.0000,493.0000 C 234.0000,493.0000 236.0000,491.0000 236.0000,489.0000 C 216.0000,453.0000 216.0000,453.0000 216.0000,453.0000 C 216.0000,451.0000 214.0000,449.0000 212.0000,449.0000 Z "  fill="#000000" stroke="none" />
<path d="M 495.0000,449.0000 C 365.0000,449.0000 365.0000,449.0000 365.0000,449.0000 C 362.0000,449.0000 360.0000,451.0000 360.0000,453.0000 C 340.0000,489.0000 340.0000,489.0000 340.0000,489.0000 C 340.0000,491.0000 342.0000,493.0000 344.0000,493.0000 C 516.0000,493.0000 516.0000,493.0000 516.0000,493.0000 C 518.0000,493.0000 520.0000,491.0000 520.0000,489.0000 C 500.0000,453.0000 500.0000,453.0000 500.0000,453.0000 C 500.0000,451.0000 498.0000,449.0000 495.0000,449.0000 Z "  fill="#000000" stroke="none" />
<path d="M 293.0000,154.0000 C 369.0000,154.0000 369.0000,154.0000 369.0000,154.0000 C 372.0000,154.0000 374.0000,152.0000 374.0000,150.0000 C 353.0000,114.0000 353.0000,114.0000 353.0000,114.0000 C 353.0000,112.0000 351.0000,110.0000 349.0000,110.0000 C 218.0000,110.0000 218.0000,110.0000 218.0000,110.0000 C 216.0000,110.0000 214.0000,112.0000 214.0000,114.0000 C 194.0000,150.0000 194.0000,150.0000 194.0000,150.0000 C 194.0000,152.0000 196.0000,154.0000 198.0000,154.0000 C 269.0000,154.0000 269.0000,154.0000 269.0000,154.0000 C 269.0000,237.0000 269.0000,237.0000 269.0000,237.0000 C -2.0000,237.0000 -2.0000,237.0000 -2.0000,237.0000 C -2.0000,261.0000 -2.0000,261.0000 -2.0000,261.0000 C 133.0000,261.0000 133.0000,261.0000 133.0000,261.0000 C 133.0000,337.0000 133.0000,337.0000 133.0000,337.0000 C 88.0000,337.0000 88.0000,337.0000 88.0000,337.0000 C 81.0000,337.0000 75.0000,343.0000 75.0000,350.0000 C 75.0000,428.0000 75.0000,428.0000 75.0000,428.0000 C 75.0000,435.0000 81.0000,441.0000 88.0000,441.0000 C 203.0000,441.0000 203.0000,441.0000 203.0000,441.0000 C 210.0000,441.0000 215.0000,435.0000 215.0000,428.0000 C 215.0000,350.0000 215.0000,350.0000 215.0000,350.0000 C 215.0000,343.0000 210.0000,337.0000 203.0000,337.0000 C 157.0000,337.0000 157.0000,337.0000 157.0000,337.0000 C 157.0000,261.0000 157.0000,261.0000 157.0000,261.0000 C 417.0000,261.0000 417.0000,261.0000 417.0000,261.0000 C 417.0000,337.0000 417.0000,337.0000 417.0000,337.0000 C 372.0000,337.0000 372.0000,337.0000 372.0000,337.0000 C 365.0000,337.0000 359.0000,343.0000 359.0000,350.0000 C 359.0000,428.0000 359.0000,428.0000 359.0000,428.0000 C 359.0000,435.0000 365.0000,441.0000 372.0000,441.0000 C 487.0000,441.0000 487.0000,441.0000 487.0000,441.0000 C 494.0000,441.0000 499.0000,435.0000 499.0000,428.0000 C 499.0000,350.0000 499.0000,350.0000 499.0000,350.0000 C 499.0000,343.0000 494.0000,337.0000 487.0000,337.0000 C 441.0000,337.0000 441.0000,337.0000 441.0000,337.0000 C 441.0000,261.0000 441.0000,261.0000 441.0000,261.0000 C 575.0000,261.0000 575.0000,261.0000 575.0000,261.0000 C 575.0000,237.0000 575.0000,237.0000 575.0000,237.0000 C 293.0000,237.0000 293.0000,237.0000 293.0000,237.0000 Z "  fill="#000000" stroke="none" />
</g>
</svg>
