<?xml version="1.0" encoding="utf-8"?>
<!-- Generator: Adobe Illustrator 20.1.0, SVG Export Plug-In . SVG Version: 6.00 Build 0)  -->
<svg version="1.1" id="Layer_1" xmlns="http://www.w3.org/2000/svg" xmlns:xlink="http://www.w3.org/1999/xlink" x="0px" y="0px"
	 viewBox="0 0 92 55.3" style="enable-background:new 0 0 92 55.3;" xml:space="preserve">
<style type="text/css">
	.st0{fill:#CC092F;stroke:#FFFFFF;stroke-width:0.8;}
	.st1{fill:#FFFFFF;}
	.st2{fill:none;stroke:#FFFFFF;stroke-width:2.4;stroke-linecap:round;stroke-miterlimit:1;}
</style>
<g>
	<polygon class="st0" points="7.3,10.6 72.9,10.6 80.4,17.5 80.4,48.5 72.9,54.9 6.9,54.9 0.4,48.5 0.4,17.5 	"/>
	<polygon class="st0" points="7.3,10.5 72.9,10.5 84.3,0.4 18.6,0.4 	"/>
	<polygon class="st0" points="72.6,10.6 80.1,17.5 91.4,7.4 83.9,0.5 	"/>
	<rect x="3.2" y="28.8" class="st1" width="74.8" height="7.7"/>
	<path class="st2" d="M47.9,32.6c-10.7,0-19-7.9-19-18.1"/>
	<path class="st2" d="M47.9,31.4c-10.7,0-19-6.7-19-16.9"/>
	<path class="st2" d="M5.2,31.4c10.7,0,19-6.7,19-16.9"/>
	<path class="st2" d="M76.5,31.4c-10.7,0-19-6.7-19-16.9"/>
	<path class="st2" d="M33.7,31.4c10.7,0,19-6.7,19-16.9"/>
	<path class="st2" d="M47.9,33.9c-10.7,0-19,6.6-19,16.8"/>
	<path class="st2" d="M5.2,33.9c10.7,0,19,6.6,19,16.8"/>
	<path class="st2" d="M76.5,33.9c-10.7,0-19,6.6-19,16.8"/>
	<path class="st2" d="M33.7,33.9c10.7,0,19,6.6,19,16.8"/>
	<polygon class="st0" points="80.1,17.5 80.1,48.5 91.4,38.4 91.4,7.4 	"/>
</g>
</svg>
