<?xml version="1.0" encoding="utf-8"?>
<!-- Generator: Adobe Illustrator 20.1.0, SVG Export Plug-In . SVG Version: 6.00 Build 0)  -->
<svg version="1.1" id="Layer_1" xmlns="http://www.w3.org/2000/svg" xmlns:xlink="http://www.w3.org/1999/xlink" x="0px" y="0px"
	 viewBox="0 0 66.6 76.9" style="enable-background:new 0 0 66.6 76.9;" xml:space="preserve">
<style type="text/css">
	.st0{fill:#CC092F;stroke:#FFFFFF;stroke-width:0.8;}
</style>
<g>
	<circle class="st0" cx="15.7" cy="9.2" r="8.8"/>
	<rect x="29.4" y="37.4" class="st0" width="36.8" height="39.1"/>
	<rect x="42.3" y="32.5" class="st0" width="21.4" height="4.9"/>
	<path class="st0" d="M59.4,20v12.4H42.7V15.8l14.7,1.9C57.4,17.7,59.4,17.9,59.4,20z"/>
	<path class="st0" d="M27.2,71.5H17.1v-12H12v12H2c-0.9,0-1.6,0.7-1.6,1.6v1.9c0,0.9,0.7,1.6,1.6,1.6h25.2c0.9,0,1.6-0.7,1.6-1.6
		v-1.9C28.8,72.2,28.1,71.5,27.2,71.5z"/>
	<path class="st0" d="M27.7,53.9H6.7V24.1c0-1-0.8-1.8-1.8-1.8h-2c-1,0-1.8,0.8-1.8,1.8v33.5c0,1,0.8,1.8,1.8,1.8h2h22.7
		c1,0,1.8-0.8,1.8-1.8v-2.1C29.4,54.6,28.6,53.9,27.7,53.9z"/>
	<path class="st0" d="M22.8,20l16.1,11.7c0.7,0.6,1.1,1.5,1.1,2.4c0,1.8-1.4,3.2-3.2,3.2c-0.5,0-1.3-0.2-1.8-0.5l-13.4-8.3v15.1
		l7.6,0v9.7l-21.5,0v-32c0,0,0.1-2.5,4.3-2.5h7.7C19.6,18.7,21.1,18.8,22.8,20z"/>
</g>
</svg>
