<?xml version="1.0" encoding="utf-8"?>
<!-- Generator: Adobe Illustrator 20.1.0, SVG Export Plug-In . SVG Version: 6.00 Build 0)  -->
<svg version="1.1" id="Layer_1" xmlns="http://www.w3.org/2000/svg" xmlns:xlink="http://www.w3.org/1999/xlink" x="0px" y="0px"
	 viewBox="0 0 84.3 81.8" style="enable-background:new 0 0 84.3 81.8;" xml:space="preserve">
<style type="text/css">
	.st0{fill:#CC092F;stroke:#FFFFFF;stroke-width:0.8;}
	.st1{fill:#FFFFFF;}
	.st2{fill:none;stroke:#FFFFFF;stroke-width:0.6;}
	.st3{font-family:'Helvetica-Bold';}
	.st4{font-size:18px;}
</style>
	<g>
	<polyline class="st0" points="83.6,26.9 83.6,65.3 63.5,81.4 21.6,81.4 0.7,65.3 0.7,26.9 	"/>
	<line class="st0" x1="21.2" y1="81.2" x2="21.2" y2="43"/>
	<line class="st0" x1="63.4" y1="81.2" x2="63.4" y2="43"/>
	<g>
		<g>
			<polyline class="st0" points="83.6,16.2 83.6,27.3 63.5,43.5 21.6,43.5 0.7,27.3 0.7,16.2 			"/>
			<polygon class="st0" points="63.1,0.4 22,0.4 0.7,16.2 21.6,32.3 63.5,32.3 83.6,16.2 			"/>
			<line class="st0" x1="21.2" y1="43.2" x2="21.2" y2="32.3"/>
			<line class="st0" x1="63.4" y1="43.2" x2="63.4" y2="32.3"/>
		</g>
	</g>
	<g>
		<polygon class="st1" points="34.4,10.2 37.1,15 25.5,16.8 28.1,14.9 10.7,10.5 15.3,7.5 32.2,11.7 		"/>
		<polygon class="st1" points="49.7,22.4 48,17.6 58.5,16.3 56.6,17.8 73.6,22 69.2,25 52.3,20.5 		"/>
		<polygon class="st1" points="45.1,8.5 56.9,6.2 56.7,11.2 53.8,10.4 47.8,14.7 42.5,13.5 48.7,9.3 		"/>
		<polygon class="st1" points="38.8,25.9 27.6,27.2 27.6,22 30.7,23 37.2,18.2 42.5,19.5 35.6,24.7 		"/>
		<g>
			<g>
				<line class="st2" x1="34" y1="17.1" x2="43.8" y2="18.5"/>
				<line class="st2" x1="13.2" y1="14.3" x2="23.3" y2="15.7"/>
				<line class="st2" x1="9.3" y1="9.4" x2="17.4" y2="10.7"/>
				<g>
					<line class="st2" x1="18.4" y1="10.4" x2="6.2" y2="19"/>
					<line class="st2" x1="28.3" y1="12.4" x2="11.8" y2="24.2"/>
					<line class="st2" x1="39.3" y1="13.7" x2="18.9" y2="29.2"/>
				</g>
				<line class="st2" x1="17.8" y1="19.9" x2="28" y2="21.3"/>
			</g>
			<g>
				<line class="st2" x1="61.9" y1="24.3" x2="72" y2="25.7"/>
				<line class="st2" x1="41.5" y1="21.4" x2="51.6" y2="22.8"/>
				<g>
					<line class="st2" x1="46.2" y1="17.3" x2="26.6" y2="32"/>
					<line class="st2" x1="57" y1="19.1" x2="39.9" y2="31.7"/>
					<line class="st2" x1="67.1" y1="20.5" x2="52.5" y2="31.4"/>
					<line class="st2" x1="78.5" y1="20" x2="68.3" y2="28.6"/>
				</g>
				<line class="st2" x1="25.2" y1="24.2" x2="35.3" y2="25.6"/>
				<line class="st2" x1="45.9" y1="27.1" x2="56.1" y2="28.5"/>
			</g>
		</g>
		<g>
			<line class="st2" x1="30.8" y1="0.8" x2="17.7" y2="10.8"/>
			<line class="st2" x1="44.4" y1="0.3" x2="28.2" y2="12.8"/>
		</g>
		<line class="st2" x1="67.6" y1="11.3" x2="76.4" y2="13"/>
		<g>
			<line class="st2" x1="55.8" y1="1.2" x2="34.8" y2="17"/>
			<line class="st2" x1="65.6" y1="3.5" x2="44.8" y2="18.4"/>
			<line class="st2" x1="71.6" y1="8" x2="55.8" y2="19.9"/>
			<line class="st2" x1="78.3" y1="12.2" x2="66.4" y2="21.4"/>
		</g>
		<line class="st2" x1="30.8" y1="11.2" x2="41" y2="12.6"/>
		<line class="st2" x1="51.6" y1="14.1" x2="61.7" y2="15.5"/>
		<line class="st2" x1="72.1" y1="17" x2="80.1" y2="18.2"/>
	</g>
</g>
<text transform="matrix(1 0 0 1 24.5746 68.4274)" class="st1 st3 st4">QFP</text>
</svg>
