<?xml version="1.0" encoding="UTF-8" standalone="no"?>
<svg
   xmlns:dc="http://purl.org/dc/elements/1.1/"
   xmlns:cc="http://creativecommons.org/ns#"
   xmlns:rdf="http://www.w3.org/1999/02/22-rdf-syntax-ns#"
   xmlns:svg="http://www.w3.org/2000/svg"
   xmlns="http://www.w3.org/2000/svg"
   viewBox="0 0 65.053329 32.653332"
   height="32.653332"
   width="65.053329"
   xml:space="preserve"
   id="svg2"
   version="1.1"><metadata
     id="metadata8"><rdf:RDF><cc:Work
         rdf:about=""><dc:format>image/svg+xml</dc:format><dc:type
           rdf:resource="http://purl.org/dc/dcmitype/StillImage" /></cc:Work></rdf:RDF></metadata><defs
     id="defs6"><clipPath
       id="clipPath20"
       clipPathUnits="userSpaceOnUse"><path
         id="path18"
         d="M 0,4 V 245 H 488 V 4 Z" /></clipPath></defs><g
     transform="matrix(1.3333333,0,0,-1.3333333,0,32.653333)"
     id="g10"><g
       transform="scale(0.1)"
       id="g12"><g
         id="g14"><g
           clip-path="url(#clipPath20)"
           id="g16"><path
             id="path22"
             style="fill:#CC092F;fill-opacity:1;fill-rule:nonzero;stroke:none"
             d="M 5.65625,120.738 149.949,237.418 H 483.031 L 363.637,120.738 H 5.65625" /><path
             id="path24"
             style="fill:none;stroke:#FFFFFF;stroke-width:3.99993992;stroke-linecap:butt;stroke-linejoin:miter;stroke-miterlimit:4;stroke-dasharray:none;stroke-opacity:1"
             d="M 5.65625,120.738 149.949,237.418 H 483.031 L 363.637,120.738 Z" /><path
             id="path26"
             style="fill:#CC092F;fill-opacity:1;fill-rule:nonzero;stroke:none"
             d="M 363.637,4.77344 483.031,122.184 V 240.082 L 363.637,120.738 V 4.77344" /><path
             id="path28"
             style="fill:none;stroke:#FFFFFF;stroke-width:3.99993992;stroke-linecap:butt;stroke-linejoin:miter;stroke-miterlimit:4;stroke-dasharray:none;stroke-opacity:1"
             d="M 363.637,4.77344 483.031,122.184 V 240.082 L 363.637,120.738 Z" /><path
             id="path30"
             style="fill:#CC092F;fill-opacity:1;fill-rule:nonzero;stroke:none"
             d="m 6.14453,4.67969 h 357.492 v 116.059 H 6.14453 Z" /><path
             id="path32"
             style="fill:none;stroke:#FFFFFF;stroke-width:3.99993992;stroke-linecap:butt;stroke-linejoin:miter;stroke-miterlimit:4;stroke-dasharray:none;stroke-opacity:1"
             d="M 363.637,4.67969 V 120.738 H 6.14453 V 4.67969 Z" /><path
             id="path34"
             style="fill:#FFFFFF;fill-opacity:1;fill-rule:nonzero;stroke:none"
             d="m 217.98,102.711 c 0,0 4.786,0.535 5.86,-4.2579 l 1.055,-18.3125 31.925,-5.3203 3.184,6.9141 -7.988,22.0386 c -40.953,10.11 -68.278,6.915 -68.278,6.915 h 1.582 c 0,0 -21.558,3.195 -62.539,-6.915 l -7.968,-22.0386 3.183,-6.9141 31.938,5.3203 1.05,18.3125 c 1.055,4.7929 5.864,4.2579 5.864,4.2579 h 61.132" /><path
             id="path36"
             style="fill:#CC092F;fill-opacity:1;fill-rule:nonzero;stroke:none"
             d="m 153.895,15.9141 h 66.9727 V 84.3399 H 153.895 Z" /><path
             id="path38"
             style="fill:none;stroke:#FFFFFF;stroke-width:3.99993992;stroke-linecap:butt;stroke-linejoin:miter;stroke-miterlimit:1;stroke-dasharray:none;stroke-opacity:1"
             d="M 220.867,15.9141 V 84.3398 H 153.895 V 15.9141 Z" /><g
             transform="scale(10)"
             id="g40"><text
               id="text44"
               style="font-variant:normal;font-weight:bold;font-size:8.14509964px;font-family:Helvetica;-inkscape-font-specification:Helvetica-Bold;writing-mode:lr-tb;fill:#FFFFFF;fill-opacity:1;fill-rule:nonzero;stroke:none"
               transform="matrix(1,0,0,-1,16.391,2.06016)"><tspan
                 id="tspan42"
                 y="0"
                 x="0">V</tspan></text>
</g><path
             id="path46"
             style="fill:#a7a5a6;fill-opacity:1;fill-rule:nonzero;stroke:none"
             d="m 139.719,148.297 c 0,-6.906 -14.555,-12.5 -32.5,-12.5 -17.9495,0 -32.5002,5.594 -32.5002,12.5 0,6.902 14.5507,12.5 32.5002,12.5 17.945,0 32.5,-5.598 32.5,-12.5" /><path
             id="path48"
             style="fill:#FFFFFF;fill-opacity:1;fill-rule:nonzero;stroke:none"
             d="m 139.719,156.246 c 0,-6.906 -14.555,-12.5 -32.5,-12.5 -17.9495,0 -32.5002,5.594 -32.5002,12.5 0,6.902 14.5507,12.5 32.5002,12.5 17.945,0 32.5,-5.598 32.5,-12.5" /></g></g></g></g></svg>