<?xml version="1.0" encoding="utf-8"?>
<!-- Generator: Adobe Illustrator 20.1.0, SVG Export Plug-In . SVG Version: 6.00 Build 0)  -->
<svg version="1.1" id="Layer_1" xmlns="http://www.w3.org/2000/svg" xmlns:xlink="http://www.w3.org/1999/xlink" x="0px" y="0px"
	 viewBox="0 0 51.1 73.7" style="enable-background:new 0 0 51.1 73.7;" xml:space="preserve">
<style type="text/css">
	.st0{fill:#CC092F;stroke:#FFFFFF;stroke-width:0.8;}
	.st1{fill:none;stroke:#FFFFFF;stroke-width:0.72;}
</style>
<g>
	<polygon class="st0" points="50.1,56.8 50.1,1 36.7,14.4 36.7,72.6 	"/>
	<rect x="1.2" y="14.4" class="st0" width="35.5" height="58.2"/>
	<polygon class="st0" points="36.7,14.4 50.1,1 50.1,1 18.5,1 1.2,14.4 36.7,14.4 	"/>
	<g>
		<polyline class="st1" points="11.7,54.6 11.7,59.7 16.8,59.7 		"/>
		<line class="st1" x1="11.2" y1="59.7" x2="16.8" y2="59.7"/>
	</g>
	<g>
		<polyline class="st1" points="4.6,54.6 4.6,59.7 9.7,59.7 		"/>
		<line class="st1" x1="4.1" y1="59.7" x2="9.7" y2="59.7"/>
	</g>
	<g>
		<polyline class="st1" points="11.7,45.9 11.7,51 16.8,51 		"/>
		<line class="st1" x1="11.2" y1="51" x2="16.8" y2="51"/>
	</g>
	<g>
		<polyline class="st1" points="4.6,45.9 4.6,51 9.7,51 		"/>
		<line class="st1" x1="4.1" y1="51" x2="9.7" y2="51"/>
	</g>
	<g>
		<polyline class="st1" points="11.7,36.2 11.7,41.3 16.8,41.3 		"/>
		<line class="st1" x1="11.2" y1="41.3" x2="16.8" y2="41.3"/>
	</g>
	<g>
		<polyline class="st1" points="4.6,36.2 4.6,41.3 9.7,41.3 		"/>
		<line class="st1" x1="4.1" y1="41.3" x2="9.7" y2="41.3"/>
	</g>
	<g>
		<polyline class="st1" points="11.7,26.4 11.7,31.5 16.8,31.5 		"/>
		<line class="st1" x1="11.2" y1="31.5" x2="16.8" y2="31.5"/>
	</g>
	<g>
		<polyline class="st1" points="4.6,26.4 4.6,31.5 9.7,31.5 		"/>
		<line class="st1" x1="4.1" y1="31.5" x2="9.7" y2="31.5"/>
	</g>
	<g>
		<polyline class="st1" points="11.7,16.7 11.7,21.8 16.8,21.8 		"/>
		<line class="st1" x1="11.2" y1="21.8" x2="16.8" y2="21.8"/>
	</g>
	<g>
		<polyline class="st1" points="4.6,16.7 4.6,21.8 9.7,21.8 		"/>
		<line class="st1" x1="4.1" y1="21.8" x2="9.7" y2="21.8"/>
	</g>
	<g>
		<polyline class="st1" points="27.4,54.6 27.4,59.7 32.5,59.7 		"/>
		<line class="st1" x1="26.9" y1="59.7" x2="32.5" y2="59.7"/>
	</g>
	<g>
		<polyline class="st1" points="20.3,54.6 20.3,59.7 25.4,59.7 		"/>
		<line class="st1" x1="19.8" y1="59.7" x2="25.4" y2="59.7"/>
	</g>
	<g>
		<polyline class="st1" points="27.4,45.9 27.4,51 32.5,51 		"/>
		<line class="st1" x1="26.9" y1="51" x2="32.5" y2="51"/>
	</g>
	<g>
		<polyline class="st1" points="20.3,45.9 20.3,51 25.4,51 		"/>
		<line class="st1" x1="19.8" y1="51" x2="25.4" y2="51"/>
	</g>
	<g>
		<polyline class="st1" points="27.4,36.2 27.4,41.3 32.5,41.3 		"/>
		<line class="st1" x1="26.9" y1="41.3" x2="32.5" y2="41.3"/>
	</g>
	<g>
		<polyline class="st1" points="20.3,36.2 20.3,41.3 25.4,41.3 		"/>
		<line class="st1" x1="19.8" y1="41.3" x2="25.4" y2="41.3"/>
	</g>
	<g>
		<polyline class="st1" points="27.4,26.4 27.4,31.5 32.5,31.5 		"/>
		<line class="st1" x1="26.9" y1="31.5" x2="32.5" y2="31.5"/>
	</g>
	<g>
		<polyline class="st1" points="20.3,26.4 20.3,31.5 25.4,31.5 		"/>
		<line class="st1" x1="19.8" y1="31.5" x2="25.4" y2="31.5"/>
	</g>
	<g>
		<polyline class="st1" points="27.4,16.7 27.4,21.8 32.5,21.8 		"/>
		<line class="st1" x1="26.9" y1="21.8" x2="32.5" y2="21.8"/>
	</g>
	<g>
		<polyline class="st1" points="20.3,16.7 20.3,21.8 25.4,21.8 		"/>
		<line class="st1" x1="19.8" y1="21.8" x2="25.4" y2="21.8"/>
	</g>
</g>
</svg>
