<?xml version="1.0" encoding="UTF-8" standalone="no"?>
<svg
   xmlns:dc="http://purl.org/dc/elements/1.1/"
   xmlns:cc="http://creativecommons.org/ns#"
   xmlns:rdf="http://www.w3.org/1999/02/22-rdf-syntax-ns#"
   xmlns:svg="http://www.w3.org/2000/svg"
   xmlns="http://www.w3.org/2000/svg"
   viewBox="0 0 59.293331 38.599998"
   height="38.599998"
   width="59.293331"
   xml:space="preserve"
   id="svg2"
   version="1.1"><metadata
     id="metadata8"><rdf:RDF><cc:Work
         rdf:about=""><dc:format>image/svg+xml</dc:format><dc:type
           rdf:resource="http://purl.org/dc/dcmitype/StillImage" /></cc:Work></rdf:RDF></metadata><defs
     id="defs6"><clipPath
       id="clipPath20"
       clipPathUnits="userSpaceOnUse"><path
         id="path18"
         d="M 0,289 H 440 V 0 H 0 Z" /></clipPath></defs><g
     transform="matrix(1.3333333,0,0,-1.3333333,0,38.6)"
     id="g10"><g
       transform="scale(0.1)"
       id="g12"><g
         id="g14"><g
           clip-path="url(#clipPath20)"
           id="g16"><path
             id="path22"
             style="fill:#CC092F;fill-opacity:1;fill-rule:nonzero;stroke:none"
             d="m 6.0625,7.36328 h 332.199 v 180.82 H 6.0625 Z" /><path
             id="path24"
             style="fill:none;stroke:#FFFFFF;stroke-width:3.99993992;stroke-linecap:butt;stroke-linejoin:miter;stroke-miterlimit:4;stroke-dasharray:none;stroke-opacity:1"
             d="M 6.0625,188.184 V 7.36328 H 338.262 V 188.184" /><path
             id="path26"
             style="fill:#FFFFFF;fill-opacity:1;fill-rule:nonzero;stroke:none"
             d="m 213.816,108.75 c 0,-6.203 -16.597,-11.2422 -37.086,-11.2422 -20.5,0 -37.101,5.0392 -37.101,11.2422 V 62.2656 c 0,-6.2109 16.601,-11.25 37.101,-11.25 20.489,0 37.086,5.0391 37.086,11.25 V 108.75" /><path
             id="path28"
             style="fill:#CC092F;fill-opacity:1;fill-rule:nonzero;stroke:none"
             d="m 176.68,97.5078 c 20.488,0 37.09,5.0392 37.09,11.2422 0,6.219 -16.602,11.25 -37.09,11.25 -20.496,0 -37.102,-5.031 -37.102,-11.25 0,-6.203 16.606,-11.2422 37.102,-11.2422" /><path
             id="path30"
             style="fill:none;stroke:#FFFFFF;stroke-width:8.00002956;stroke-linecap:butt;stroke-linejoin:miter;stroke-miterlimit:4;stroke-dasharray:none;stroke-opacity:1"
             d="m 176.68,97.5078 c 20.488,0 37.09,5.0392 37.09,11.2422 0,6.219 -16.602,11.25 -37.09,11.25 -20.496,0 -37.102,-5.031 -37.102,-11.25 0,-6.203 16.606,-11.2422 37.102,-11.2422 z" /><path
             id="path32"
             style="fill:#FFFFFF;fill-opacity:1;fill-rule:nonzero;stroke:none"
             d="m 176.73,45.4961 c 20.489,0 37.086,5.0312 37.086,11.2422 0,6.2109 -16.597,11.2383 -37.086,11.2383 -20.5,0 -37.101,-5.0274 -37.101,-11.2383 0,-6.211 16.601,-11.2422 37.101,-11.2422" /><path
             id="path34"
             style="fill:none;stroke:#FFFFFF;stroke-width:8.00002956;stroke-linecap:butt;stroke-linejoin:miter;stroke-miterlimit:4;stroke-dasharray:none;stroke-opacity:1"
             d="m 176.73,45.4961 c 20.489,0 37.086,5.0312 37.086,11.2422 0,6.2109 -16.597,11.2383 -37.086,11.2383 -20.5,0 -37.101,-5.0274 -37.101,-11.2383 0,-6.211 16.601,-11.2422 37.101,-11.2422 z" /><path
             id="path36"
             style="fill:#CC092F;fill-opacity:1;fill-rule:nonzero;stroke:none"
             d="M 5.65625,188.184 128.289,287.363 H 439.758 L 338.262,188.184 H 5.65625" /><path
             id="path38"
             style="fill:none;stroke:#FFFFFF;stroke-width:3.99993992;stroke-linecap:butt;stroke-linejoin:miter;stroke-miterlimit:4;stroke-dasharray:none;stroke-opacity:1"
             d="M 5.65625,188.184 128.289,287.363 H 439.758 L 338.262,188.184 Z" /><path
             id="path40"
             style="fill:#CC092F;fill-opacity:1;fill-rule:nonzero;stroke:none"
             d="M 338.262,185.742 V 5 L 439.758,111.543 V 284.734 L 338.262,185.742" /><path
             id="path42"
             style="fill:none;stroke:#FFFFFF;stroke-width:3.99993992;stroke-linecap:butt;stroke-linejoin:miter;stroke-miterlimit:4;stroke-dasharray:none;stroke-opacity:1"
             d="M 338.262,185.742 V 5 l 101.496,106.543 v 173.191 z" /><path
             id="path44"
             style="fill:#FFFFFF;fill-opacity:1;fill-rule:nonzero;stroke:none"
             d="M 294.504,89.9609 233.73,89.9297 v 9.6601 l 60.774,0.0274 0.016,15.0898 35.199,-19.9218 -35.199,-19.9336 -0.016,15.1093" /><path
             id="path46"
             style="fill:#FFFFFF;fill-opacity:1;fill-rule:nonzero;stroke:none"
             d="m 284.016,138.652 -50.95,-33.136 -5.261,8.097 50.945,33.145 -8.203,12.656 40.383,2.461 -18.664,-35.879 -8.25,12.656" /><path
             id="path48"
             style="fill:#FFFFFF;fill-opacity:1;fill-rule:nonzero;stroke:none"
             d="M 284.016,51.5117 233.066,84.6484 227.805,76.543 278.75,43.4063 270.547,30.7539 310.93,28.2813 292.266,64.168 284.016,51.5117" /><path
             id="path50"
             style="fill:#FFFFFF;fill-opacity:1;fill-rule:nonzero;stroke:none"
             d="m 51.9531,89.9609 60.7619,-0.0312 v 9.6601 L 51.9531,99.6172 51.9219,114.707 16.7266,94.7852 51.9219,74.8516 51.9531,89.9609" /><path
             id="path52"
             style="fill:#FFFFFF;fill-opacity:1;fill-rule:nonzero;stroke:none"
             d="m 180.488,166.238 0.032,21.817 h -9.661 l -0.039,-21.817 -15.09,-0.019 19.922,-35.196 19.946,35.196 -15.11,0.019" /><path
             id="path54"
             style="fill:#FFFFFF;fill-opacity:1;fill-rule:nonzero;stroke:none"
             d="m 62.4297,138.652 50.9493,-33.136 5.242,8.097 -50.9257,33.145 8.2031,12.656 -40.3789,2.461 18.6797,-35.879 8.2305,12.656" /><path
             id="path56"
             style="fill:#FFFFFF;fill-opacity:1;fill-rule:nonzero;stroke:none"
             d="M 62.4297,51.5117 113.379,84.6484 118.621,76.543 67.6953,43.4063 75.8984,30.7539 35.5195,28.2813 54.1992,64.168 62.4297,51.5117" /></g></g></g></g></svg>