<?xml version="1.0" encoding="utf-8"?>
<!-- Generator: Adobe Illustrator 20.1.0, SVG Export Plug-In . SVG Version: 6.00 Build 0)  -->
<svg version="1.1" id="Layer_1" xmlns="http://www.w3.org/2000/svg" xmlns:xlink="http://www.w3.org/1999/xlink" x="0px" y="0px"
	 viewBox="0 0 164.7 95.9" style="enable-background:new 0 0 164.7 95.9;" xml:space="preserve">
<style type="text/css">
	.st0{fill:#FFFFFF;stroke:#CC092F;stroke-width:0.8;}
</style>
<g>
	<path class="st0" d="M57.2,11.4c-28.8-5.7-44,9-41.6,21.8l0.2,0.7C-6.7,37.7-0.8,64.1,10,64.1l1.1,0C8.3,76.6,34.5,89.2,49.2,82.9
		l0.9-1c5.2,11.2,23.7,13.1,42.1,13.5c15.9,0.4,25.1-0.8,32-7.8l1,0.3c25.4,2,37-15.5,31.4-28.1l1.4-0.4c8.7-2.3,9.7-22.3-5.2-25.3
		l0.3-0.8c6.5-13-8.8-25.3-29.9-23l-1.5-0.8C106.6-4.1,63.1-1.8,58,11.7L57.2,11.4z"/>
</g>
</svg>
