<?xml version="1.0" encoding="utf-8"?>
<!-- Generator: Adobe Illustrator 20.1.0, SVG Export Plug-In . SVG Version: 6.00 Build 0)  -->
<svg version="1.1" id="Layer_1" xmlns="http://www.w3.org/2000/svg" xmlns:xlink="http://www.w3.org/1999/xlink" x="0px" y="0px"
	 viewBox="0 0 90.7 62.5" style="enable-background:new 0 0 90.7 62.5;" xml:space="preserve">
<style type="text/css">
	.st0{fill:#CC092F;stroke:#FFFFFF;stroke-width:0.8;}
	.st1{fill:#FFFFFF;}
	.st2{fill:#CC092F;}
</style>
<g>
	<g>
		<g>
			<g>
				<rect x="1.4" y="17.5" class="st0" width="71.4" height="43.2"/>
				<polygon class="st0" points="1.2,17.6 23,0.9 89.7,0.9 72.7,17.6 				"/>
				<polygon class="st0" points="72.8,61.4 89.6,42.3 89.6,1 72.8,17.6 				"/>
			</g>
			<g>
				<path class="st1" d="M29,33.1c1.7-6.6-2.6-10.1-6.3-9.6l-0.2,0c-1.1-5.2-8.7-3.8-8.7-1.3l0,0.2c-3.6-0.6-7.2,5.4-5.4,8.8
					l0.3,0.2C5.5,32.7,5,37,4.8,41.2c-0.1,3.7,0.2,5.8,2.2,7.4L7,48.8c-0.6,5.9,4.5,8.5,8.1,7.2l0.1,0.3c0.7,2,6.4,2.2,7.3-1.2
					l0.2,0.1c3.7,1.5,7.3-2,6.6-6.9l0.2-0.3c3.9-3.5,3.3-13.5-0.6-14.7L29,33.1z"/>
			</g>
			<g>
				<path class="st1" d="M65.3,33.1c1.7-6.6-2.6-10.1-6.3-9.6l-0.2,0c-1.1-5.2-8.7-3.8-8.7-1.3l0,0.2c-3.6-0.6-7.2,5.4-5.4,8.8
					l0.3,0.2c-3.2,1.2-3.8,5.5-3.9,9.7c-0.1,3.7,0.2,5.8,2.2,7.4l-0.1,0.2c-0.6,5.9,4.5,8.5,8.1,7.2l0.1,0.3c0.7,2,6.4,2.2,7.3-1.2
					l0.2,0.1c3.7,1.5,7.3-2,6.6-6.9l0.2-0.3c3.9-3.5,3.3-13.5-0.6-14.7L65.3,33.1z"/>
			</g>
			<polygon class="st2" points="20.4,33.7 16.3,29.6 14.3,31.6 13.9,25.4 20.2,25.7 18,27.9 22.1,32 			"/>
			<polygon class="st2" points="20.4,45.8 16.3,49.9 14.3,47.9 13.9,54.1 20.2,53.8 18,51.6 22.1,47.5 			"/>
			<polygon class="st2" points="16.4,41 10.6,41 10.6,43.9 5.9,39.8 10.6,35.6 10.6,38.7 16.4,38.7 			"/>
			<polygon class="st2" points="53.6,33.7 57.7,29.6 59.7,31.6 60.1,25.4 53.8,25.7 56,27.9 51.9,32 			"/>
			<polygon class="st2" points="53.6,45.8 57.7,49.9 59.7,47.9 60.1,54.1 53.8,53.8 56,51.6 51.9,47.5 			"/>
			<polygon class="st2" points="56.9,41 62.7,41 62.7,43.9 67.4,39.8 62.7,35.6 62.7,38.7 56.9,38.7 			"/>
			<rect x="30.9" y="38.8" class="st1" width="11.5" height="2.4"/>
		</g>
	</g>
	<polygon class="st2" points="40.9,41 46.7,41 46.7,43.9 51.4,39.8 46.7,35.6 46.7,38.7 40.9,38.7 	"/>
	<polygon class="st2" points="32,41 26.2,41 26.2,43.9 21.5,39.8 26.2,35.6 26.2,38.7 32,38.7 	"/>
</g>
</svg>
