<?xml version="1.0" encoding="utf-8"?>
<!-- Generator: Adobe Illustrator 20.1.0, SVG Export Plug-In . SVG Version: 6.00 Build 0)  -->
<svg version="1.1" id="Layer_1" xmlns="http://www.w3.org/2000/svg" xmlns:xlink="http://www.w3.org/1999/xlink" x="0px" y="0px"
	 viewBox="0 0 54.1 54.6" style="enable-background:new 0 0 54.1 54.6;" xml:space="preserve">
<style type="text/css">
	.st0{fill:#CC092F;stroke:#FFFFFF;stroke-width:0.8;}
	.st1{fill:#CC092F;stroke:#FFFFFF;stroke-width:0.8;}
	.st2{fill:none;stroke:#FFFFFF;stroke-width:2;}
	.st3{fill:#FFFFFF;stroke:#FFFFFF;stroke-width:0.8;}
</style>
<g>
	<g>
		<g>
			<rect x="1.1" y="9.7" class="st0" width="43.2" height="43.9"/>
			<line class="st1" x1="23.7" y1="24.4" x2="37" y2="24.4"/>
			<line class="st1" x1="23.7" y1="39.7" x2="37" y2="39.7"/>
			<line class="st1" x1="19.6" y1="32.1" x2="19.6" y2="18.8"/>
			<line class="st2" x1="31.4" y1="32" x2="31.4" y2="45.3"/>
			<line class="st1" x1="16.2" y1="32" x2="16.2" y2="45.3"/>
			<line class="st1" x1="23.9" y1="24.5" x2="10.6" y2="24.5"/>
			<polygon class="st0" points="53.1,1 53.1,1 53.1,44.6 44.2,53.6 44.2,9.9 			"/>
			<polygon class="st0" points="44.2,9.9 44.1,9.7 1.1,9.7 12,1 53.1,1 			"/>
		</g>
		<line class="st2" x1="23.1" y1="24" x2="37.1" y2="24"/>
		<g>
			<polygon class="st3" points="36.9,20 36.9,27.7 41.5,24 			"/>
		</g>
		<line class="st2" x1="23.1" y1="39.3" x2="37.9" y2="39.3"/>
		<g>
			<polygon class="st3" points="36.9,35.2 36.9,42.9 41.5,39.2 			"/>
		</g>
		<line class="st2" x1="19" y1="31.7" x2="19" y2="19.1"/>
		<line class="st2" x1="27" y1="32.1" x2="27" y2="18.8"/>
		<line class="st1" x1="26.4" y1="31.7" x2="26.4" y2="19.1"/>
		<line class="st1" x1="30.8" y1="31.6" x2="30.8" y2="45.9"/>
		<g>
			<polygon class="st3" points="34.6,45.3 26.9,45.3 30.7,49.9 			"/>
		</g>
		<line class="st2" x1="15.6" y1="31.6" x2="15.6" y2="45.9"/>
		<g>
			<polygon class="st3" points="19.5,45.3 11.9,45.3 15.6,49.9 			"/>
		</g>
		<line class="st2" x1="23.3" y1="39.3" x2="9" y2="39.3"/>
		<g>
			<polygon class="st3" points="9.5,43.3 9.5,35.6 4.8,39.3 			"/>
		</g>
		<line class="st2" x1="23.3" y1="24" x2="9" y2="24"/>
		<g>
			<polygon class="st3" points="9.5,28.1 9.5,20.4 4.8,24.1 			"/>
		</g>
		<circle class="st0" cx="23.1" cy="31.7" r="9.2"/>
	</g>
	<path class="st3" d="M35.6,18.9c0.3,0,0.5-0.2,0.5-0.5v-4.6c0-0.3-0.2-0.5-0.5-0.5H11.1c-0.3,0-0.5,0.2-0.5,0.5v4.6
		c0,0.3,0.2,0.5,0.5,0.5h4.6v-1.6h14.6v1.6H35.6z"/>
	<g>
		<rect x="18.9" y="27.4" class="st1" width="1.1" height="1.1"/>
		<rect x="18.9" y="29.9" class="st1" width="1.1" height="1.1"/>
		<rect x="18.9" y="32.4" class="st1" width="1.1" height="1.1"/>
		<rect x="18.9" y="34.9" class="st1" width="1.1" height="1.1"/>
		<rect x="21.4" y="27.4" class="st1" width="1.1" height="1.1"/>
		<rect x="21.4" y="29.9" class="st1" width="1.1" height="1.1"/>
		<rect x="21.4" y="32.4" class="st1" width="1.1" height="1.1"/>
		<rect x="21.4" y="34.9" class="st1" width="1.1" height="1.1"/>
		<rect x="23.9" y="27.4" class="st1" width="1.1" height="1.1"/>
		<rect x="23.9" y="29.9" class="st1" width="1.1" height="1.1"/>
		<rect x="23.9" y="32.4" class="st1" width="1.1" height="1.1"/>
		<rect x="23.9" y="34.9" class="st1" width="1.1" height="1.1"/>
		<rect x="26.4" y="27.4" class="st1" width="1.1" height="1.1"/>
		<rect x="26.4" y="29.9" class="st1" width="1.1" height="1.1"/>
		<rect x="26.4" y="32.4" class="st1" width="1.1" height="1.1"/>
		<rect x="26.4" y="34.9" class="st1" width="1.1" height="1.1"/>
	</g>
</g>
</svg>
