<?xml version="1.0" encoding="utf-8"?>
<!-- Generator: Adobe Illustrator 20.1.0, SVG Export Plug-In . SVG Version: 6.00 Build 0)  -->
<svg version="1.1" id="Layer_1" xmlns="http://www.w3.org/2000/svg" xmlns:xlink="http://www.w3.org/1999/xlink" x="0px" y="0px"
	 viewBox="0 0 76.3 54.7" style="enable-background:new 0 0 76.3 54.7;" xml:space="preserve">
<style type="text/css">
	.st0{fill:#FFFFFF;stroke:#CC092F;stroke-width:0.8;}
	.st1{fill:none;stroke:#CC092F;stroke-width:4;}
</style>
<g>
	<g>
		<path class="st0" d="M26.5,5.5C13.3,2.8,6.3,9.6,7.4,15.5l0.1,0.3c-10.3,1.8-7.6,14-2.7,14l0.5,0C4,35.5,16.1,41.3,22.9,38.4
			l0.4-0.5c2.4,5.2,10.9,6,19.4,6.2c7.3,0.2,11.6-0.4,14.7-3.6l0.5,0.1c11.7,0.9,17-7.1,14.5-13l0.6-0.2c4-1.1,4.5-10.3-2.4-11.6
			l0.1-0.4c3-6-4-11.7-13.8-10.6l-0.7-0.4c-7-6.3-27-5.3-29.3,1L26.5,5.5z"/>
	</g>
	<g>
		<polygon class="st1" points="32.2,15.1 32.2,48.9 64.4,48.9 64.4,14.8 		"/>
		<line class="st1" x1="32.2" y1="15.1" x2="64.4" y2="48.9"/>
		<line class="st1" x1="32.2" y1="48.9" x2="64.4" y2="14.8"/>
		<rect x="27.2" y="9.4" class="st0" width="10.4" height="10.5"/>
		<rect x="59.2" y="9.4" class="st0" width="10.4" height="10.5"/>
		<rect x="27.2" y="43.8" class="st0" width="10.4" height="10.5"/>
		<rect x="59.2" y="43.8" class="st0" width="10.4" height="10.5"/>
		<rect x="42.9" y="26.6" class="st0" width="10.4" height="10.5"/>
	</g>
</g>
</svg>
