<?xml version="1.0" encoding="utf-8"?>
<!-- Generator: Adobe Illustrator 20.1.0, SVG Export Plug-In . SVG Version: 6.00 Build 0)  -->
<svg version="1.1" id="Layer_1" xmlns="http://www.w3.org/2000/svg" xmlns:xlink="http://www.w3.org/1999/xlink" x="0px" y="0px"
	 viewBox="0 0 56.7 80.3" style="enable-background:new 0 0 56.7 80.3;" xml:space="preserve">
<style type="text/css">
	.st0{fill:#CC092F;stroke:#FFFFFF;stroke-width:0.8;}
	.st1{fill:#FFFFFF;}
	.st2{fill:#FFFFFF;stroke:#FFFFFF;stroke-width:0.8;stroke-miterlimit:1;}
	.st3{stroke:#FFFFFF;stroke-width:0.8;stroke-miterlimit:1;}
</style>
<g>
	<polygon class="st0" points="7.8,24.8 1,31.6 1,79.3 48.9,79.3 55.7,72.5 55.7,24.8 	"/>
	<polygon class="st0" points="1,31.6 48.9,31.6 55.7,24.8 7.8,24.8 	"/>
	<polygon class="st0" points="48.9,31.6 55.7,24.8 55.7,72.5 48.9,79.3 	"/>
	<polygon class="st0" points="7.8,24.8 1,31.6 1,79.3 48.9,79.3 55.7,72.5 55.7,24.8 	"/>
	<polyline class="st0" points="1,31.6 48.9,31.6 55.7,24.8 	"/>
	<line class="st0" x1="48.9" y1="31.6" x2="48.9" y2="79.3"/>
	<polygon class="st0" points="7.8,1 1,7.8 1,31.6 48.9,31.6 55.7,24.8 55.7,1 	"/>
	<polygon class="st0" points="48.9,7.8 55.7,1 55.7,24.8 48.9,31.6 	"/>
	<polygon class="st0" points="7.8,1 1,7.8 1,31.6 48.9,31.6 55.7,24.8 55.7,1 	"/>
	<polyline class="st0" points="48.9,31.6 48.9,7.8 1,7.8 	"/>
	<rect x="4.4" y="11.2" class="st1" width="13.7" height="6.8"/>
	<rect x="7.8" y="38.4" class="st2" width="34.2" height="34.1"/>
	<rect x="31.8" y="11.2" class="st1" width="13.7" height="6.8"/>
	<rect x="4.4" y="21.4" class="st1" width="13.7" height="6.8"/>
	<rect x="31.8" y="21.4" class="st1" width="13.7" height="6.8"/>
	<line class="st3" x1="18.1" y1="14.6" x2="31.8" y2="14.6"/>
	<line class="st3" x1="18.1" y1="24.8" x2="31.8" y2="24.8"/>
	<line class="st3" x1="18.1" y1="21.4" x2="31.8" y2="18"/>
	<line class="st3" x1="18.1" y1="18" x2="31.8" y2="21.4"/>
	<path class="st0" d="M24.9,45.3c5.6,0,10.3,4.3,10.3,10.2c0,5.5-4.7,10.2-10.3,10.2c-6,0-10.3-4.7-10.3-10.2
		C14.7,49.5,18.9,45.3,24.9,45.3"/>
	<path class="st2" d="M24.9,52.1c1.7,0,3.4,1.3,3.4,3.4c0,1.7-1.7,3.4-3.4,3.4c-2.1,0-3.4-1.7-3.4-3.4
		C21.5,53.4,22.8,52.1,24.9,52.1"/>
</g>
</svg>
