<?xml version="1.0" encoding="UTF-8" standalone="no"?>
<svg
   xmlns:dc="http://purl.org/dc/elements/1.1/"
   xmlns:cc="http://creativecommons.org/ns#"
   xmlns:rdf="http://www.w3.org/1999/02/22-rdf-syntax-ns#"
   xmlns:svg="http://www.w3.org/2000/svg"
   xmlns="http://www.w3.org/2000/svg"
   viewBox="0 0 37.786667 53.533333"
   height="53.533333"
   width="37.786667"
   xml:space="preserve"
   id="svg2"
   version="1.1"><metadata
     id="metadata8"><rdf:RDF><cc:Work
         rdf:about=""><dc:format>image/svg+xml</dc:format><dc:type
           rdf:resource="http://purl.org/dc/dcmitype/StillImage" /></cc:Work></rdf:RDF></metadata><defs
     id="defs6"><clipPath
       id="clipPath20"
       clipPathUnits="userSpaceOnUse"><path
         id="path18"
         d="m 0,1.54297 h 280 v 400 H 0 Z" /></clipPath></defs><g
     transform="matrix(1.3333333,0,0,-1.3333333,0,53.533333)"
     id="g10"><g
       transform="scale(0.1)"
       id="g12"><g
         id="g14"><g
           clip-path="url(#clipPath20)"
           id="g16"><path
             id="path22"
             style="fill:#CC092F;fill-opacity:1;fill-rule:nonzero;stroke:none"
             d="M 39.0625,277.461 4.84375,243.379 V 4.8125 H 244.375 l 34.219,34.0859 V 277.461 H 39.0625" /><path
             id="path24"
             style="fill:none;stroke:#FFFFFF;stroke-width:4;stroke-linecap:butt;stroke-linejoin:miter;stroke-miterlimit:4;stroke-dasharray:none;stroke-opacity:1"
             d="M 39.0625,277.461 4.84375,243.379 V 4.8125 H 244.375 l 34.219,34.0859 V 277.461 Z" /><path
             id="path26"
             style="fill:#CC092F;fill-opacity:1;fill-rule:nonzero;stroke:none"
             d="M 4.84375,243.379 H 244.375 l 34.219,34.082 H 39.0625 L 4.84375,243.379" /><path
             id="path28"
             style="fill:none;stroke:#FFFFFF;stroke-width:4;stroke-linecap:butt;stroke-linejoin:miter;stroke-miterlimit:4;stroke-dasharray:none;stroke-opacity:1"
             d="M 4.84375,243.379 H 244.375 l 34.219,34.082 H 39.0625 Z" /><path
             id="path30"
             style="fill:#CC092F;fill-opacity:1;fill-rule:nonzero;stroke:none"
             d="m 244.375,243.379 34.219,34.082 V 38.8984 L 244.375,4.8125 V 243.379" /><path
             id="path32"
             style="fill:none;stroke:#FFFFFF;stroke-width:4;stroke-linecap:butt;stroke-linejoin:miter;stroke-miterlimit:4;stroke-dasharray:none;stroke-opacity:1"
             d="m 244.375,243.379 34.219,34.082 V 38.8984 L 244.375,4.8125 Z" /><path
             id="path34"
             style="fill:#CC092F;fill-opacity:1;fill-rule:nonzero;stroke:none"
             d="M 39.0625,277.461 4.84375,243.379 V 4.8125 H 244.375 l 34.219,34.0859 V 277.461 H 39.0625" /><path
             id="path36"
             style="fill:none;stroke:#FFFFFF;stroke-width:4;stroke-linecap:butt;stroke-linejoin:miter;stroke-miterlimit:4;stroke-dasharray:none;stroke-opacity:1"
             d="M 39.0625,277.461 4.84375,243.379 V 4.8125 H 244.375 l 34.219,34.0859 V 277.461 Z" /><path
             id="path38"
             style="fill:#CC092F;fill-opacity:1;fill-rule:nonzero;stroke:none"
             d="M 4.84375,243.379 H 244.375 l 34.219,34.082" /><path
             id="path40"
             style="fill:none;stroke:#FFFFFF;stroke-width:4;stroke-linecap:butt;stroke-linejoin:miter;stroke-miterlimit:4;stroke-dasharray:none;stroke-opacity:1"
             d="M 4.84375,243.379 H 244.375 l 34.219,34.082" /><path
             id="path42"
             style="fill:#CC092F;fill-opacity:1;fill-rule:nonzero;stroke:none"
             d="M 244.375,243.379 V 4.8125" /><path
             id="path44"
             style="fill:none;stroke:#FFFFFF;stroke-width:4;stroke-linecap:butt;stroke-linejoin:miter;stroke-miterlimit:4;stroke-dasharray:none;stroke-opacity:1"
             d="M 244.375,243.379 V 4.8125" /><path
             id="path46"
             style="fill:#CC092F;fill-opacity:1;fill-rule:nonzero;stroke:none"
             d="M 39.0625,396.73 4.84375,362.648 V 243.379 H 244.375 l 34.219,34.082 V 396.73 H 39.0625" /><path
             id="path48"
             style="fill:none;stroke:#FFFFFF;stroke-width:4;stroke-linecap:butt;stroke-linejoin:miter;stroke-miterlimit:4;stroke-dasharray:none;stroke-opacity:1"
             d="M 39.0625,396.73 4.84375,362.648 V 243.379 H 244.375 l 34.219,34.082 V 396.73 Z" /><path
             id="path50"
             style="fill:#CC092F;fill-opacity:1;fill-rule:nonzero;stroke:none"
             d="m 244.375,362.648 34.219,34.082 V 277.461 l -34.219,-34.082 v 119.269" /><path
             id="path52"
             style="fill:none;stroke:#FFFFFF;stroke-width:4;stroke-linecap:butt;stroke-linejoin:miter;stroke-miterlimit:4;stroke-dasharray:none;stroke-opacity:1"
             d="m 244.375,362.648 34.219,34.082 V 277.461 l -34.219,-34.082 z" /><path
             id="path54"
             style="fill:#CC092F;fill-opacity:1;fill-rule:nonzero;stroke:none"
             d="M 39.0625,396.73 4.84375,362.648 V 243.379 H 244.375 l 34.219,34.082 V 396.73 H 39.0625" /><path
             id="path56"
             style="fill:none;stroke:#FFFFFF;stroke-width:4;stroke-linecap:butt;stroke-linejoin:miter;stroke-miterlimit:4;stroke-dasharray:none;stroke-opacity:1"
             d="M 39.0625,396.73 4.84375,362.648 V 243.379 H 244.375 l 34.219,34.082 V 396.73 Z" /><path
             id="path58"
             style="fill:#CC092F;fill-opacity:1;fill-rule:nonzero;stroke:none"
             d="M 244.375,243.379 V 362.648 H 4.84375" /><path
             id="path60"
             style="fill:none;stroke:#FFFFFF;stroke-width:4;stroke-linecap:butt;stroke-linejoin:miter;stroke-miterlimit:4;stroke-dasharray:none;stroke-opacity:1"
             d="M 244.375,243.379 V 362.648 H 4.84375" /><path
             id="path62"
             style="fill:#FFFFFF;fill-opacity:1;fill-rule:nonzero;stroke:none"
             d="m 21.9531,311.535 h 68.4375 v 34.082 H 21.9531 Z" /><path
             id="path64"
             style="fill:#FFFFFF;fill-opacity:1;fill-rule:nonzero;stroke:none"
             d="m 39.0625,38.8984 h 171.094 v 170.398 H 39.0625 Z" /><path
             id="path66"
             style="fill:none;stroke:#FFFFFF;stroke-width:4;stroke-linecap:butt;stroke-linejoin:miter;stroke-miterlimit:1;stroke-dasharray:none;stroke-opacity:1"
             d="M 39.0625,209.297 H 210.156 V 38.8984 H 39.0625 Z" /><path
             id="path68"
             style="fill:#FFFFFF;fill-opacity:1;fill-rule:nonzero;stroke:none"
             d="m 158.828,311.535 h 68.4375 v 34.082 H 158.828 Z" /><path
             id="path70"
             style="fill:#FFFFFF;fill-opacity:1;fill-rule:nonzero;stroke:none"
             d="m 21.9531,260.422 h 68.4375 v 34.0703 H 21.9531 Z" /><path
             id="path72"
             style="fill:#FFFFFF;fill-opacity:1;fill-rule:nonzero;stroke:none"
             d="m 158.828,260.422 h 68.4375 v 34.0703 H 158.828 Z" /><path
             id="path74"
             style="fill:#CC092F;fill-opacity:1;fill-rule:nonzero;stroke:none"
             d="M 90.3906,328.574 H 158.828" /><path
             id="path76"
             style="fill:none;stroke:#FFFFFF;stroke-width:4;stroke-linecap:butt;stroke-linejoin:miter;stroke-miterlimit:1;stroke-dasharray:none;stroke-opacity:1"
             d="M 90.3906,328.574 H 158.828" /><path
             id="path78"
             style="fill:#CC092F;fill-opacity:1;fill-rule:nonzero;stroke:none"
             d="M 90.3906,277.461 H 158.828" /><path
             id="path80"
             style="fill:none;stroke:#FFFFFF;stroke-width:4;stroke-linecap:butt;stroke-linejoin:miter;stroke-miterlimit:1;stroke-dasharray:none;stroke-opacity:1"
             d="M 90.3906,277.461 H 158.828" /><path
             id="path82"
             style="fill:#CC092F;fill-opacity:1;fill-rule:nonzero;stroke:none"
             d="m 90.3906,294.492 68.4374,17.043" /><path
             id="path84"
             style="fill:none;stroke:#FFFFFF;stroke-width:4;stroke-linecap:butt;stroke-linejoin:miter;stroke-miterlimit:1;stroke-dasharray:none;stroke-opacity:1"
             d="m 90.3906,294.492 68.4374,17.043" /><path
             id="path86"
             style="fill:#CC092F;fill-opacity:1;fill-rule:nonzero;stroke:none"
             d="M 90.3906,311.535 158.828,294.492" /><path
             id="path88"
             style="fill:none;stroke:#FFFFFF;stroke-width:4;stroke-linecap:butt;stroke-linejoin:miter;stroke-miterlimit:1;stroke-dasharray:none;stroke-opacity:1"
             d="M 90.3906,311.535 158.828,294.492" /><path
             id="path90"
             style="fill:#CC092F;fill-opacity:1;fill-rule:nonzero;stroke:none"
             d="m 124.609,175.215 c 27.801,0 51.329,-21.297 51.329,-51.113 0,-27.6957 -23.528,-51.1215 -51.329,-51.1215 -29.941,0 -51.3277,23.4258 -51.3277,51.1215 0,29.816 21.3867,51.113 51.3277,51.113" /><path
             id="path92"
             style="fill:none;stroke:#FFFFFF;stroke-width:4;stroke-linecap:butt;stroke-linejoin:miter;stroke-miterlimit:4;stroke-dasharray:none;stroke-opacity:1"
             d="m 124.609,175.215 c 27.801,0 51.329,-21.297 51.329,-51.113 0,-27.6957 -23.528,-51.1215 -51.329,-51.1215 -29.941,0 -51.3277,23.4258 -51.3277,51.1215 0,29.816 21.3867,51.113 51.3277,51.113" /><path
             id="path94"
             style="fill:#FFFFFF;fill-opacity:1;fill-rule:nonzero;stroke:none"
             d="m 124.609,141.133 c 8.555,0 17.11,-6.387 17.11,-17.031 0,-8.528 -8.555,-17.039 -17.11,-17.039 -10.695,0 -17.109,8.511 -17.109,17.039 0,10.644 6.414,17.031 17.109,17.031" /><path
             id="path96"
             style="fill:none;stroke:#FFFFFF;stroke-width:4;stroke-linecap:butt;stroke-linejoin:miter;stroke-miterlimit:1;stroke-dasharray:none;stroke-opacity:1"
             d="m 124.609,141.133 c 8.555,0 17.11,-6.387 17.11,-17.031 0,-8.528 -8.555,-17.039 -17.11,-17.039 -10.695,0 -17.109,8.511 -17.109,17.039 0,10.644 6.414,17.031 17.109,17.031" /></g></g></g></g></svg>