<?xml version="1.0" encoding="utf-8"?>
<!-- Generator: Adobe Illustrator 20.1.0, SVG Export Plug-In . SVG Version: 6.00 Build 0)  -->
<svg version="1.1" id="Layer_1" xmlns="http://www.w3.org/2000/svg" xmlns:xlink="http://www.w3.org/1999/xlink" x="0px" y="0px"
	 viewBox="0 0 62.3 56.6" style="enable-background:new 0 0 62.3 56.6;" xml:space="preserve">
<style type="text/css">
	.st0{fill:#CC092F;stroke:#FFFFFF;stroke-width:0.8;}
	.st1{fill:#FFFFFF;}
	.st2{fill:none;stroke:#FFFFFF;stroke-width:2;}
</style>
<g>
	<polygon class="st0" points="51.1,55.7 61.3,45.9 61.3,0.9 51.1,10.7 	"/>
	<polygon class="st0" points="61.3,0.9 51.1,10.7 1.2,10.7 14.2,0.9 	"/>
	<g>
		<rect x="1.3" y="10.7" class="st0" width="49.8" height="45"/>
	</g>
	<g>
		<polyline class="st1" points="25.5,15.9 25.5,48.2 23.7,48.2 26.3,52.2 29,48.2 27.2,48.2 27.2,15.9 		"/>
		<polyline class="st1" points="11.6,15.9 11.6,48.2 9.8,48.2 12.5,52.2 15.2,48.2 13.4,48.2 13.4,15.9 		"/>
		<polyline class="st1" points="38.7,15.9 38.7,48.2 36.9,48.2 39.6,52.2 42.3,48.2 40.5,48.2 40.5,15.9 		"/>
	</g>
	<rect x="6.6" y="15.1" class="st2" width="39.7" height="12.7"/>
</g>
</svg>
