<?xml version="1.0" encoding="utf-8"?>
<!-- Generator: Adobe Illustrator 20.1.0, SVG Export Plug-In . SVG Version: 6.00 Build 0)  -->
<svg version="1.1" id="Layer_1" xmlns="http://www.w3.org/2000/svg" xmlns:xlink="http://www.w3.org/1999/xlink" x="0px" y="0px"
	 viewBox="0 0 39.4 63.1" style="enable-background:new 0 0 39.4 63.1;" xml:space="preserve">
<style type="text/css">
	.st0{fill:#CC092F;stroke:#FFFFFF;stroke-width:0.8;}
	.st1{fill:#FFFFFF;}
	.st2{fill:none;stroke:#FFFFFF;stroke-width:0.8;}
</style>
<g>
	<g>
		<rect x="1.1" y="27.1" class="st0" width="32.3" height="34.9"/>
		<rect x="1.1" y="5.9" class="st0" width="32.3" height="21.1"/>
		<polygon class="st0" points="1.1,5.7 7.3,0.6 38.5,0.6 33.5,5.7 		"/>
		<polygon class="st0" points="33.5,62 38.5,55.8 38.5,21.6 33.5,26.8 		"/>
		<polygon class="st0" points="33.5,27 38.5,21.5 38.5,1 33.5,6 		"/>
		<g>
			<line class="st0" x1="1.1" y1="57.6" x2="33.3" y2="57.6"/>
			<line class="st0" x1="1.1" y1="26.9" x2="33.3" y2="26.9"/>
		</g>
		<polygon class="st1" points="14.8,45.7 14.8,50.4 13,50.4 16.7,55 20.4,50.4 18.6,50.4 18.6,45.7 		"/>
		<polygon class="st1" points="14.8,42.1 14.8,37.4 13,37.4 16.7,32.8 20.4,37.4 18.6,37.4 18.6,42.1 		"/>
		<polygon class="st1" points="5.4,42.3 10,42.3 10,40.5 14.7,44.1 10,47.8 10,46 5.4,46 		"/>
		<polygon class="st1" points="27.9,42.3 23.2,42.3 23.2,40.5 18.6,44.1 23.2,47.8 23.2,46 27.9,46 		"/>
		<line class="st0" x1="33.5" y1="12.7" x2="1.1" y2="12.7"/>
		<line class="st0" x1="36.5" y1="3.1" x2="4.1" y2="3.1"/>
		<line class="st0" x1="33.5" y1="20" x2="1.1" y2="20"/>
		<line class="st0" x1="38.3" y1="8.6" x2="34" y2="12.8"/>
		<line class="st0" x1="38.3" y1="15.8" x2="34" y2="20.1"/>
		<line class="st0" x1="36.2" y1="3.3" x2="36.2" y2="23.5"/>
		<line class="st0" x1="10.7" y1="6.1" x2="10.7" y2="12.7"/>
		<line class="st0" x1="23.2" y1="6.1" x2="23.2" y2="12.7"/>
		<line class="st0" x1="10.7" y1="20.4" x2="10.7" y2="27"/>
		<line class="st0" x1="23.2" y1="20.4" x2="23.2" y2="27"/>
		<line class="st0" x1="17.2" y1="13.1" x2="17.2" y2="19.7"/>
		<line class="st0" x1="4.7" y1="13.1" x2="4.7" y2="19.7"/>
		<line class="st0" x1="29.7" y1="13.1" x2="29.7" y2="19.7"/>
		<line class="st0" x1="16.9" y1="0.6" x2="10.7" y2="5.9"/>
		<line class="st0" x1="29.4" y1="0.6" x2="23.2" y2="5.9"/>
	</g>
	<g>
		<polyline class="st2" points="38.5,21.5 33.3,27.2 1.1,27.2 		"/>
		<line class="st0" x1="38.5" y1="52.2" x2="33.3" y2="57.9"/>
	</g>
</g>
</svg>
