<?xml version="1.0" encoding="utf-8"?>
<!-- Generator: Adobe Illustrator 20.1.0, SVG Export Plug-In . SVG Version: 6.00 Build 0)  -->
<svg version="1.1" id="Layer_1" xmlns="http://www.w3.org/2000/svg" xmlns:xlink="http://www.w3.org/1999/xlink" x="0px" y="0px"
	 viewBox="0 0 70.5 95.9" style="enable-background:new 0 0 70.5 95.9;" xml:space="preserve">
<style type="text/css">
	.st0{fill-rule:evenodd;clip-rule:evenodd;fill:#CC092F;}
	.st1{fill-rule:evenodd;clip-rule:evenodd;fill:#FFFFFF;}
	.st2{fill-rule:evenodd;clip-rule:evenodd;fill:#FFFFFF;}
	.st3{fill-rule:evenodd;clip-rule:evenodd;fill:#FFFFFF;}
</style>
<g>
	<path class="st0" d="M70.5,18.2l-0.1-1.8l-0.2-1.8l-0.5-1.8l-0.5-1.6l-0.8-1.6l-0.9-1.5l-1.1-1.5l-1.2-1.3l-1.3-1.2l-1.5-1.1
		L61,2.2l-1.6-0.9l-1.6-0.5L56,0.3l-1.8-0.2L52.4,0l-1.9,0.1l-1.8,0.2L47,0.9l-1.7,0.5l-1.6,0.9l-1.5,0.9l-1.4,1.1l-1.3,1.2
		l-1.2,1.3l-1.1,1.5l-0.9,1.5l-0.8,1.6l-0.5,1.6l-0.5,1.8l-0.2,1.8l-0.1,1.8l0.1,1.7l0.1,1.6l0.3,1.5l0.5,1.5L34.2,24l-0.8-0.4
		l-0.6-0.2l-0.2-0.1L32.1,23h-0.5l-0.4,0.2l-0.3,0.3l-8.3,8.9l-0.2,0.3l-0.1,0.3l-0.1,0.4l0.1,0.4l0.2,0.6l0.6,1.6l0.6,1.8l0.5,1.5
		L23.8,40l-0.4,0.4L23,40.9L22.9,41l-0.2,0.2l-0.1,0.3l-0.1,0.2V42v0.4l0.1,1.1v1.2v1l-0.4,0.4l-0.7,0.9l-1.2,1.3l-1.5,1.5L17,51.5
		l-1.9,2l-1.9,2.1l-2.1,2.2l-2,2.1l-1.9,2.1l-1.9,2l-1.6,1.7l-1.4,1.5l-1.1,1.2l-0.7,0.7l-0.2,0.2l-0.2,0.3L0,70.3v0.4l0.1,0.3
		l2.3,6.4l0.2,0.4L3,78.2l0.4,0.1l0.4,0.1l8.5-0.2l0.3-0.1l0.3-0.1l0.2-0.1l0.2-0.2l2-2.2l0.2-0.2l0.1-0.2l0.1-0.3v-0.3v-0.2v-0.8
		v-0.9l-0.1-1h1l1-0.1h0.6h0.3h0.2l0.3-0.1l0.2-0.1l0.2-0.2l2.1-2.2l0.3-0.4l0.1-0.6l-0.2-0.5l-0.3-0.4l-0.3-0.4L21,65.8v-0.6
		l0.4-0.6l0.4-0.3l0.5-0.2H23l0.6,0.4l0.5,0.3l0.5,0.1l0.5-0.1l0.5-0.3l2-2.2l0.2-0.2l0.1-0.3l0.1-0.2v-0.3v-0.2v-0.7L28,59.3v-1
		l0.9-0.1h1h0.6h0.2h0.3l0.2-0.1l0.3-0.2l0.2-0.1l0.2-0.2l0.4-0.5l0.5-0.5l0.4-0.5h0.3h0.4h0.5l0.5-0.1l0.5,0.5l0.6,0.7l0.6,0.6
		l0.4,0.5L37.3,64l-0.3,11.2l-0.4,11l-0.2,4.9l0.1,0.4l0.1,0.3l0.2,0.3l0.3,0.3l5.9,3.2l0.4,0.2h0.4l0.5-0.2l0.3-0.2l6.3-5.9
		l0.2-0.2l0.1-0.2l0.1-0.3v-0.2l0.1-3.1v-0.2V85l-0.2-0.3l-0.1-0.2l-0.2-0.2l-0.4-0.4l-0.6-0.6l-0.6-0.8l0.7-0.6l0.6-0.6l0.4-0.4
		l0.2-0.2l0.2-0.2l0.1-0.2l0.1-0.3l0.1-0.3l0.1-3l-0.1-0.6l-0.3-0.4L51,75.1L50.4,75l-0.5-0.1l-0.4-0.3L49,74.2l-0.1-0.8l0.1-0.5
		l0.3-0.5l0.4-0.3l0.7-0.1l0.6-0.1l0.4-0.3l0.3-0.4l0.2-0.6l0.1-3v-0.3l-0.1-0.2l-0.2-0.3l-0.1-0.2l-0.2-0.2l-0.4-0.5L50.5,65
		l-0.6-0.6l0.7-0.6l0.6-0.6l0.4-0.4l0.2-0.2l0.2-0.2l0.2-0.3l0.1-0.2v-0.3v-0.2v-0.8v-0.7v-0.7l0.7-0.6l1-0.7l0.7-0.7l0.3-0.3
		l0.1-0.2l0.2-0.3l0.1-0.2v-0.3l0.1-2.8l1.1-1.1l0.9-1.2l0.8-1.2l0.7-1.3l0.5-1.4l0.4-1.5l0.3-1.5l0.1-1.6v-1.8l-0.3-1.7l-0.4-1.7
		l-0.5-1.6l2.4-1.2l2.1-1.6l1.9-1.8l1.7-2.1l1.3-2.2l1-2.5l0.6-2.7L70.5,18.2L70.5,18.2z M4.2,73.8l1-1l1.2-1.3l1.4-1.5l1.6-1.7
		l1.7-1.8l1.9-2l1.8-2l1.9-2l1.9-1.9l1.7-1.9l1.7-1.8l1.5-1.6l1.3-1.3l1-1.1l0.7-0.7l0.3-0.4l0.2,0.2l0.2,0.1l0.1,0.2l0.2,0.2
		l-0.3,0.3l-0.7,0.7l-1,1.1l-1.2,1.3l-1.5,1.6l-1.6,1.7L19.4,59l-1.8,2l-1.9,2l-1.8,2l-1.9,2L10.2,69l-1.6,1.8L7,72.4l-1.3,1.4
		L4.7,75l-0.1-0.2l-0.1-0.3l-0.1-0.3L4.2,73.8L4.2,73.8z M30.2,55.3h-0.4l-0.5,0.1h-0.6h-0.6h-0.5h-0.5h-0.3h-0.1l-0.3,0.1l-0.2,0.1
		l-0.3,0.1l-0.2,0.2l-0.1,0.2l-0.1,0.2l-0.1,0.3V57v0.4l0.1,1.1v1.2v1L25,60.8L24.8,61l-0.1,0.1l-0.3,0.3l-0.7-0.3L22.9,61l-0.7,0.1
		l-0.6,0.1l-0.6,0.2l-0.6,0.3l-0.5,0.3l-0.4,0.4l-1,1.4L18,65.3l0.1,1.3l0.5,1.2l-0.3,0.3l-0.2,0.1L18,68.4l-0.2,0.2h-0.4h-0.5h-0.5
		h-0.6l-0.5,0.1h-0.5h-0.3h-0.1h-0.3l-0.3,0.1L13.3,69l-0.2,0.1l-0.2,0.2l-0.1,0.3l-0.1,0.2v0.3v0.4l0.1,1.1V73v1l-0.3,0.3l-0.2,0.3
		L12,74.9l-0.3,0.3h-0.3h-0.5h-0.6l-0.7,0.1H8.6H7.8L7,75.4H6.2l22.2-24l2.8,2.7l-0.3,0.3l-0.2,0.3l-0.3,0.3L30.2,55.3L30.2,55.3z
		 M37.7,51.6L37.4,52L37,52.3l-0.3,0.3l-0.3,0.3h-0.3h-0.4L35.2,53h-0.5H34h-0.5H33h-0.2h-0.1h-0.1l-0.1,0.1h-0.1l-2.9-2.8l-0.6-0.5
		l-2.3-2.2l-23,24.8l-0.1-0.4l-0.1-0.3l-0.1-0.3L3.2,71l0.4-0.4l0.9-1l1.2-1.3l1.5-1.6l1.7-1.8l1.8-2l2-2l2-2.2l1.9-2.1l1.9-2
		l1.8-1.9l1.6-1.7l1.4-1.5l1.1-1.1l0.6-0.7l0.2-0.2l0.2-0.2l0.1-0.3l0.1-0.2v-0.3v-0.4v-1.1l-0.1-1.2v-1l0.5-0.5l0.5-0.6l0.4-0.4
		l0.2-0.2l0.2-0.3l0.1-0.4v-0.3l-0.1-0.4l-0.2-0.6l-0.6-1.7l-0.6-1.8l-0.5-1.4l0.5-0.5l0.8-0.9l1-1.1l1.1-1.2l1.1-1.2l1.1-1.1
		l0.8-0.9l0.5-0.6l0.4,0.2l0.5,0.2l0.6,0.3l0.6,0.3l0.7,0.3l0.7,0.3l0.7,0.4l0.7,0.3h0.1l0,0l0,0h0.1l0.4,0.6l0.5,0.6l0.5,0.5
		l0.5,0.6l0.6,0.5l0.5,0.5l0.6,0.5l0.6,0.4l0.1,0.4l0.2,0.4l0.2,0.4l0.3,0.3l0.5,0.3l0.5,0.3l0.5,0.1h0.6h0.5l0.5-0.2l0.5-0.3
		l0.4-0.4l0.6-1l0.2-1.2l-0.3-1.1l-0.6-1l-0.5-0.4l-0.5-0.3l-0.6-0.1h-0.6l-0.4-0.2l-0.3-0.3l-0.4-0.3l-0.4-0.3l0.5-0.2l0.5-0.2
		l0.5-0.1h0.6l0.6,0.1l0.6,0.3l0.6,0.4l0.7,0.5l0.1,0.1l0,0l0,0l0.1,0.1l0.7,0.9l0.5,1.5v1.8l-1.3,2.1l-0.2,0.3l-0.1,0.5v0.4
		l0.1,0.4l0.1,0.2l0.4,0.7l0.5,1l0.6,1.3l0.7,1.3l0.6,1.2l0.5,1.1L52,45l-0.5,0.6l-0.8,0.9l-1.1,1.1l-1.1,1.2l-1.1,1.2l-1,1.1
		l-0.8,1l-0.5,0.5l-0.6-0.2l-0.7-0.2l-1-0.3l-0.8-0.3l-1-0.2L40.2,51l-0.4-0.1l-0.2-0.1l-0.4-0.1l-0.4,0.1l-0.3,0.1l-0.3,0.3l0,0
		L38,51.3l-0.2,0.1L37.7,51.6L37.7,51.6z M41.1,26.2l-1-1.8l-0.9-2l-0.4-2l-0.2-2.1l0.3-2.8l0.7-2.6l1.3-2.3l1.7-2l2-1.7L47,5.5
		l2.6-0.7l2.8-0.3l2.8,0.3l2.5,0.7L60,6.8l2,1.7l1.7,2l1.3,2.3l0.7,2.6l0.3,2.8l-0.2,2.2l-0.4,2l-0.8,2l-1.1,1.8L62.1,28l-1.6,1.4
		l-1.8,1.2l-2,0.9L56,30.6l-0.7-0.7l-0.9-0.6l-1-0.6l-0.8-0.5l-1.1-0.5l-1-0.4l-1.1-0.3l-1.2-0.9l-1.2-0.5L46,25.1H45l-1.2,0.1
		l-1,0.2l-1,0.3L41.1,26.2L41.1,26.2z M43,92.4l-0.2-0.2l-0.2-0.1l-0.3-0.2L42,91.8l0.3-7.5l0.3-10.8l0.4-9.9l0.1-4.9l0.3,0.1h0.2
		h0.2h0.3L44,63.5l-0.3,9.8l-0.4,10.9L43,92.4L43,92.4z M49.4,60.6l-0.6,0.6l-1,0.9l-0.7,0.8l-0.3,0.3l-0.2,0.2l-0.1,0.2l-0.1,0.3
		v0.2v0.3v0.3l0.2,0.2l0.1,0.2l0.3,0.3l0.7,0.7l0.8,1l0.6,0.8v0.2v0.2l-0.1,0.3v0.4l-0.7,0.2l-0.6,0.4l-0.5,0.5l-0.4,0.5l-0.3,0.5
		L46.1,72L46,72.7l-0.1,0.6l0.2,1.6l0.6,1.3l1,0.9l1.1,0.6V78v0.3v0.2v0.3l-0.6,0.6l-1,0.7L46.5,81l-0.3,0.3l-0.2,0.2l-0.2,0.3
		L45.6,82v0.3v0.2l0.1,0.3l0.1,0.3l0.2,0.2l0.3,0.3l0.7,0.8l0.8,1l0.6,0.6l-0.1,0.4V87v0.5v0.4l-0.2,0.2l-0.4,0.3l-0.4,0.4l-0.5,0.5
		l-0.6,0.5l-0.5,0.5L45.1,91l-0.5,0.5l1.2-32.8l3.8,0.2v0.4v0.4l-0.1,0.4V60.6L49.4,60.6z M57.7,41.8l-0.2,1.6l-0.3,1.5l-0.5,1.5
		l-0.7,1.4l-0.6,1l-0.7,0.9l-0.8,0.7l-0.9,0.7l-0.1,1.2v1.1v0.9v0.5h-0.1l0,0l0,0l0,0l-0.7,0.6L51,56.2l-0.7,0.6L50,57.2l-0.1,0.1
		l0,0v0.1l-0.1,0.1l-4-0.2l0,0H45l-3.2-0.1L40.5,91l-0.3-0.2l-0.3-0.2l-0.3-0.1l-0.3-0.2l0.2-5.8l0.4-11.1l0.3-10.7l0.2-4.8v-0.3
		l-0.1-0.3l-0.1-0.2L40,56.9l-0.1-0.2l-0.4-0.4l-0.5-0.5l-0.5-0.6l0.3-0.2l0.3-0.3l0.2-0.3l0.3-0.3l0.6,0.2l0.7,0.2l1,0.3l1,0.2
		l0.8,0.3l0.7,0.2l0.5,0.1l0.2,0.1h0.4h0.3l0.4-0.2l0.3-0.2l8.1-8.9l0.3-0.3l0.1-0.5V45l-0.1-0.4L55,44.3l-0.4-0.6l-0.5-1.1
		l-0.7-1.3L52.6,40L52,38.7l-0.5-1.1L51,37l0.8-1.5l0.5-1.5l0.1-1.4l-0.2-1.3l1.2,1l1.2,1l0.8,1.2l0.8,1.3l0.6,1.5l0.4,1.4l0.2,1.6
		L57.7,41.8L57.7,41.8z M58.5,33.8l-0.2-0.3l-0.2-0.3l-0.2-0.3l-0.2-0.3l2.1-1l1.9-1.3l1.7-1.6l1.4-1.7l1.2-2l0.8-2.1l0.5-2.2
		l0.2-2.3l-0.3-3.1l-0.9-2.9L65,9.7l-1.9-2.2l-2.2-1.9l-2.5-1.4l-2.9-0.9L52.4,3l-3.1,0.3l-2.9,0.9l-2.5,1.4l-2.3,1.9l-1.8,2.2
		l-1.5,2.6l-0.9,2.9l-0.3,3.1l0.1,2.2l0.5,2.1l0.7,2l1.1,1.8l0.5,0.7l0.5,0.7l0.6,0.8l0.6,0.6l0.2,0.2l0.3,0.2l0.3,0.3l0.3,0.2
		l0.3,0.2l0.3,0.2L44,31l0.3,0.2l0.2,0.1l0.1,0.1l0.2,0.1l0.2,0.1l0.1,0.1V32l0.1,0.1v0.2l0,0v0.1l0,0v0.1l-0.1,0.1L45,32.9L44.8,33
		l-0.2,0.1l-0.2-0.2L44,32.8l-0.3-0.2l-0.2-0.1l-0.3-0.2L42.9,32l-0.3-0.2l-0.3-0.2l-0.4-0.4l-0.4-0.3L41,30.5l-0.4-0.4L40,29.6
		L39.6,29l-0.4-0.5l-0.4-0.6l-0.4-0.5L38,26.7l-0.3-0.5l-0.3-0.6l-0.7-1.7L36.1,22l-0.3-1.8l-0.1-1.9l0.3-3.3l0.9-3.2L38.5,9l2-2.6
		l2.5-2l2.9-1.6l3.1-1l3.4-0.3l3.3,0.3l3.2,1l2.8,1.6l2.5,2l2,2.6l1.6,2.8l1,3.2l0.3,3.3l-0.2,2.6l-0.5,2.3l-1,2.3l-1.2,2.1
		l-1.6,1.9l-1.8,1.7l-2,1.4L58.5,33.8L58.5,33.8z"/>
	<polygon class="st1" points="39.6,50.8 39.8,50.9 40.2,51 41,51.2 41.9,51.4 42.8,51.7 43.7,52.1 44.4,52.3 45.1,52.5 45.6,52
		46.5,51 47.4,49.9 48.5,48.8 49.5,47.6 50.6,46.5 51.4,45.7 52,45 51.5,44.3 51,43.2 50.4,42 49.6,40.8 49,39.5 48.5,38.5 48,37.8
		47.9,37.6 47.8,37.1 47.8,36.7 47.9,36.2 48.1,35.8 49.4,33.7 49.4,31.9 48.9,30.4 48.1,29.6 48,29.4 48,29.4 48,29.4 47.9,29.3
		47.2,28.8 46.6,28.4 45.9,28.1 45.3,28 44.7,28 44.1,28.1 43.6,28.3 43.1,28.5 43.5,28.8 43.9,29.1 44.2,29.4 44.7,29.7 45.3,29.7
		45.9,29.8 46.5,30.1 47,30.5 47.6,31.5 47.9,32.5 47.7,33.7 47.1,34.7 46.7,35.1 46.1,35.4 45.6,35.6 45.1,35.6 44.4,35.6
		43.9,35.5 43.4,35.2 42.9,34.9 42.5,34.6 42.3,34.1 42.1,33.7 42,33.3 41.4,32.9 40.7,32.3 40.2,31.8 39.6,31.3 39,30.6 38.5,30.1
		38,29.4 37.6,28.8 37.5,28.8 37.5,28.8 37.5,28.8 37.4,28.8 36.6,28.5 35.9,28.1 35.1,27.7 34.4,27.4 33.8,27.1 33.1,26.8
		32.6,26.6 32.2,26.4 31.6,27 30.8,27.8 29.7,28.9 28.7,30.1 27.6,31.3 26.7,32.3 25.8,33.2 25.3,33.7 25.8,35.1 26.5,36.9
		27.1,38.6 27.3,39.3 27.4,39.7 27.4,40 27.3,40.4 27.1,40.8 26.9,41 26.5,41.4 25.9,42 25.4,42.6 25.4,43.5 25.5,44.7 25.5,45.8
		25.5,46.2 25.5,46.5 25.4,46.7 25.3,47.1 25.1,47.3 24.9,47.5 24.2,48.2 23.2,49.3 21.8,50.8 20.2,52.5 18.4,54.4 16.5,56.4
		14.6,58.6 12.6,60.8 10.6,62.8 8.8,64.9 7.1,66.7 5.6,68.3 4.4,69.6 3.6,70.5 3.2,71 3.3,71.3 3.4,71.6 3.5,71.9 3.6,72.3
		26.6,47.6 28.9,49.8 29.5,50.4 32.4,53.1 32.5,53.1 32.6,53 32.7,53 32.8,53 33,53 33.4,53 34,53 34.7,53 35.2,53 35.7,52.9
		36.1,52.9 36.4,52.9 36.7,52.6 37,52.3 37.4,52 37.7,51.6 37.8,51.4 38,51.3 38.1,51.2 38.1,51.2 38.4,50.9 38.7,50.8 39.2,50.7
		39.6,50.8 	"/>
	<polygon class="st1" points="6.2,75.4 7,75.4 7.8,75.3 8.6,75.3 9.4,75.3 10.2,75.2 10.8,75.2 11.3,75.2 11.6,75.2 12,74.9
		12.3,74.6 12.5,74.3 12.8,73.9 12.8,73 12.8,71.7 12.7,70.6 12.7,70.2 12.7,69.9 12.8,69.7 12.9,69.3 13.1,69.1 13.3,69 13.5,68.8
		13.9,68.7 14.2,68.7 14.3,68.7 14.6,68.7 15.1,68.7 15.7,68.6 16.3,68.6 16.8,68.6 17.4,68.6 17.8,68.6 18,68.4 18.1,68.2
		18.3,68.1 18.6,67.7 18.1,66.6 18,65.3 18.3,63.9 19.3,62.5 19.7,62.1 20.2,61.8 20.8,61.5 21.5,61.2 22.1,61.1 22.9,61 23.6,61.1
		24.3,61.5 24.7,61.1 24.8,61 25,60.8 25.2,60.6 25.2,59.6 25.2,58.5 25.1,57.4 25.1,57 25.1,56.7 25.2,56.3 25.3,56.1 25.4,55.9
		25.6,55.7 25.9,55.6 26.1,55.5 26.5,55.4 26.6,55.4 26.9,55.4 27.4,55.4 27.9,55.4 28.6,55.4 29.2,55.4 29.7,55.3 30.2,55.3
		30.4,55.1 30.7,54.7 30.9,54.4 31.2,54.1 28.5,51.4 6.2,75.4 	"/>
	<polygon class="st2" points="26.7,49.7 26.4,50.1 25.6,50.9 24.7,52 23.4,53.2 21.9,54.8 20.2,56.7 18.5,58.6 16.6,60.5 14.7,62.5
		12.9,64.6 11,66.6 9.3,68.4 7.7,70.1 6.3,71.6 5.2,72.9 4.2,73.8 4.3,74.2 4.4,74.5 4.5,74.8 4.7,75 5.7,73.8 7,72.4 8.6,70.8
		10.2,69 12,67.1 13.9,65.1 15.7,63.1 17.6,61 19.4,59 21.2,57.2 22.8,55.5 24.2,53.9 25.4,52.6 26.4,51.5 27.1,50.8 27.4,50.5
		27.2,50.3 27.1,50 26.9,49.9 26.7,49.7 	"/>
	<polygon class="st1" points="44.6,91.5 45.1,91 45.7,90.5 46.2,89.9 46.9,89.4 47.4,88.9 47.8,88.5 48.3,88.1 48.5,87.9 48.5,87.5
		48.5,87 48.5,86.5 48.6,86.1 47.9,85.5 47.1,84.5 46.4,83.8 46,83.4 45.8,83.2 45.7,82.9 45.6,82.6 45.6,82.4 45.6,82 45.7,81.8
		45.9,81.5 46.1,81.3 46.5,81 47.2,80.2 48.1,79.5 48.8,78.8 48.8,78.5 48.8,78.3 48.8,78 48.8,77.7 47.7,77 46.8,76.2 46.1,74.9
		45.9,73.3 46,72.7 46.1,72 46.5,71.4 46.8,70.8 47.2,70.3 47.7,69.8 48.4,69.3 49.1,69.1 49.1,68.7 49.2,68.4 49.2,68.2 49.2,68
		48.6,67.2 47.7,66.3 47,65.5 46.7,65.2 46.6,65 46.4,64.8 46.4,64.4 46.4,64.1 46.4,63.9 46.5,63.6 46.6,63.4 46.8,63.2 47.1,62.8
		47.8,62.1 48.8,61.2 49.4,60.6 49.4,60.3 49.5,59.9 49.5,59.4 49.5,59 45.7,58.8 44.6,91.5 	"/>
	<polygon class="st2" points="52.4,1.5 49,1.8 45.9,2.8 43.1,4.4 40.5,6.4 38.5,9 36.9,11.7 36,14.9 35.7,18.2 35.8,20.2 36.1,22
		36.6,23.8 37.4,25.5 37.7,26.1 38,26.7 38.3,27.3 38.7,27.8 39.2,28.5 39.6,29 40,29.6 40.5,30.1 41,30.5 41.4,30.8 41.8,31.2
		42.2,31.6 42.5,31.8 42.9,32 43.2,32.2 43.5,32.4 43.7,32.5 44,32.8 44.3,32.9 44.6,33.1 44.8,33 45,32.9 45.2,32.7 45.3,32.5
		45.3,32.4 45.3,32.4 45.3,32.3 45.3,32.3 45.3,32.1 45.2,32 45.2,31.8 45.1,31.7 44.9,31.6 44.7,31.5 44.6,31.4 44.3,31.3 44,31
		43.7,30.7 43.4,30.5 43.1,30.3 42.8,30.1 42.4,29.8 42.1,29.6 41.9,29.3 41.3,28.7 40.6,28 40.1,27.2 39.6,26.5 38.5,24.6
		37.8,22.6 37.3,20.5 37.1,18.2 37.5,15.2 38.3,12.3 39.8,9.7 41.6,7.5 43.9,5.5 46.5,4.2 49.3,3.3 52.4,3 55.5,3.3 58.3,4.2
		60.9,5.5 63.1,7.5 65,9.7 66.4,12.3 67.2,15.2 67.5,18.2 67.3,20.6 66.8,22.8 65.9,25 64.8,27 63.4,28.7 61.7,30.3 59.8,31.6
		57.7,32.5 57.9,32.9 58.1,33.2 58.3,33.5 58.5,33.8 60.7,32.7 62.8,31.3 64.6,29.6 66.1,27.6 67.3,25.5 68.3,23.2 68.8,20.8
		69,18.2 68.7,14.9 67.7,11.7 66.1,9 64.1,6.4 61.6,4.4 58.8,2.8 55.7,1.8 52.4,1.5 	"/>
	<polygon class="st2" points="42,91.8 42.2,91.9 42.5,92.1 42.8,92.2 43,92.4 43.3,84.2 43.7,73.3 44,63.5 44.2,58.8 43.9,58.8
		43.7,58.8 43.5,58.8 43.2,58.7 43.1,63.6 42.6,73.5 42.3,84.3 42,91.8 	"/>
	<polygon class="st1" points="52.3,31.4 52.5,32.7 52.4,34 51.9,35.5 51,37 51.4,37.7 52,38.7 52.6,40 53.3,41.3 54.1,42.6
		54.6,43.6 55,44.3 55.1,44.6 55.2,45 55.2,45.5 55.1,46 54.8,46.3 46.7,55.2 46.4,55.4 45.9,55.6 45.6,55.6 45.2,55.6 45,55.5
		44.4,55.4 43.7,55.2 42.9,54.8 41.9,54.6 41,54.3 40.2,54.1 39.6,53.9 39.3,54.2 39,54.5 38.7,54.8 38.4,55.1 38.9,55.7 39.5,56.2
		39.9,56.7 40,56.9 40.2,57.1 40.3,57.3 40.4,57.6 40.4,57.9 40.2,62.7 39.9,73.4 39.5,84.5 39.3,90.3 39.6,90.5 39.9,90.6
		40.2,90.8 40.5,91 41.8,57.2 45,57.3 45.7,57.3 45.7,57.3 49.7,57.5 49.8,57.4 49.8,57.3 49.8,57.3 50,57.2 50.3,56.9 51,56.2
		51.9,55.4 52.6,54.7 52.6,54.7 52.6,54.7 52.6,54.7 52.7,54.7 52.7,54.2 52.7,53.3 52.7,52.3 52.8,51.1 53.7,50.4 54.5,49.6
		55.2,48.8 55.9,47.8 56.6,46.4 57.1,44.9 57.5,43.4 57.7,41.8 57.6,40.2 57.4,38.6 56.9,37.2 56.3,35.7 55.5,34.5 54.6,33.3
		53.4,32.3 52.3,31.4 	"/>
	<polygon class="st3" points="29.3,39.9 27.3,34.1 33.9,27.1 33.3,26.9 32.9,26.7 32.5,26.6 32.2,26.4 31.6,27 30.8,27.8 29.7,28.9
		28.7,30.1 27.6,31.3 26.7,32.3 25.8,33.2 25.3,33.7 25.8,35.1 26.5,36.9 27.1,38.6 27.3,39.3 27.4,39.7 27.4,40 27.3,40.4
		27.1,40.8 26.9,41 26.5,41.4 25.9,42 25.4,42.6 25.4,43.5 25.5,44.7 25.5,45.8 25.5,46.2 25.5,46.5 25.4,46.7 25.3,47.1 25.1,47.3
		24.9,47.5 24.2,48.2 23.2,49.3 21.8,50.8 20.2,52.5 18.4,54.4 16.5,56.4 14.6,58.6 12.6,60.8 10.6,62.8 8.8,64.9 7.1,66.7
		5.6,68.3 4.4,69.6 3.6,70.5 3.2,71 3.3,71.3 3.4,71.6 3.5,71.9 3.6,72.3 26.6,47.7 26.6,43.2 29.3,39.9 	"/>
	<polygon class="st3" points="38.4,55.1 38.9,55.7 39.5,56.2 39.9,56.7 40,56.9 40.2,57.1 40.3,57.3 40.4,57.6 40.4,57.9 40.2,62.7
		39.9,73.4 39.5,84.5 39.3,90.3 39.6,90.5 39.9,90.6 40.2,90.8 40.5,91 41.8,57.2 39.3,54.3 39,54.5 38.8,54.7 38.6,54.8 38.4,55.1
			"/>
</g>
</svg>
