<?xml version="1.0" encoding="UTF-8" standalone="no"?>
<svg
   xmlns:dc="http://purl.org/dc/elements/1.1/"
   xmlns:cc="http://creativecommons.org/ns#"
   xmlns:rdf="http://www.w3.org/1999/02/22-rdf-syntax-ns#"
   xmlns:svg="http://www.w3.org/2000/svg"
   xmlns="http://www.w3.org/2000/svg"
   viewBox="0 0 41.586666 41.306667"
   height="41.306667"
   width="41.586666"
   xml:space="preserve"
   id="svg2"
   version="1.1"><metadata
     id="metadata8"><rdf:RDF><cc:Work
         rdf:about=""><dc:format>image/svg+xml</dc:format><dc:type
           rdf:resource="http://purl.org/dc/dcmitype/StillImage" /></cc:Work></rdf:RDF></metadata><defs
     id="defs6"><clipPath
       id="clipPath20"
       clipPathUnits="userSpaceOnUse"><path
         id="path18"
         d="M 0,0 V 310 H 310 V 0 Z" /></clipPath></defs><g
     transform="matrix(1.3333333,0,0,-1.3333333,0,41.306667)"
     id="g10"><g
       transform="scale(0.1)"
       id="g12"><g
         id="g14"><g
           clip-path="url(#clipPath20)"
           id="g16"><path
             id="path22"
             style="fill:#CC092F;fill-opacity:1;fill-rule:nonzero;stroke:none"
             d="m 6.19922,4.79688 h 267.07 v 266.824 h -267.07 z" /><path
             id="path24"
             style="fill:none;stroke:#FFFFFF;stroke-width:4;stroke-linecap:butt;stroke-linejoin:miter;stroke-miterlimit:4;stroke-dasharray:none;stroke-opacity:1"
             d="M 6.19922,4.79688 V 271.621 H 273.27 V 4.79688 Z" /><path
             id="path26"
             style="fill:#CC092F;fill-opacity:1;fill-rule:nonzero;stroke:none"
             d="M 307.004,38.2031 V 305.027 L 273.27,271.621 V 4.79688 l 33.734,33.40622" /><path
             id="path28"
             style="fill:none;stroke:#FFFFFF;stroke-width:4;stroke-linecap:butt;stroke-linejoin:miter;stroke-miterlimit:4;stroke-dasharray:none;stroke-opacity:1"
             d="M 307.004,38.2031 V 305.027 L 273.27,271.621 V 4.79688 Z" /><path
             id="path30"
             style="fill:#CC092F;fill-opacity:1;fill-rule:nonzero;stroke:none"
             d="M 52.5977,306.941 6.19922,273.543 H 273.27 l 33.734,33.398 H 52.5977" /><path
             id="path32"
             style="fill:none;stroke:#FFFFFF;stroke-width:4;stroke-linecap:butt;stroke-linejoin:miter;stroke-miterlimit:4;stroke-dasharray:none;stroke-opacity:1"
             d="M 52.5977,306.941 6.19922,273.543 H 273.27 l 33.734,33.398 z" /><path
             id="path34"
             style="fill:#CC092F;fill-opacity:1;fill-rule:nonzero;stroke:none"
             d="M 273.27,271.621 H 6.19922" /><path
             id="path36"
             style="fill:none;stroke:#FFFFFF;stroke-width:4;stroke-linecap:butt;stroke-linejoin:miter;stroke-miterlimit:4;stroke-dasharray:none;stroke-opacity:1"
             d="M 273.27,271.621 H 6.19922" /><path
             id="path38"
             style="fill:#CC092F;fill-opacity:1;fill-rule:nonzero;stroke:none"
             d="m 273.27,271.621 33.734,33.406" /><path
             id="path40"
             style="fill:none;stroke:#FFFFFF;stroke-width:4;stroke-linecap:butt;stroke-linejoin:miter;stroke-miterlimit:4;stroke-dasharray:none;stroke-opacity:1"
             d="m 273.27,271.621 33.734,33.406" /><path
             id="path42"
             style="fill:#CC092F;fill-opacity:1;fill-rule:nonzero;stroke:none"
             d="M 273.27,271.621 V 4.79688" /><path
             id="path44"
             style="fill:none;stroke:#FFFFFF;stroke-width:4;stroke-linecap:butt;stroke-linejoin:miter;stroke-miterlimit:4;stroke-dasharray:none;stroke-opacity:1"
             d="M 273.27,271.621 V 4.79688" /><path
             id="path46"
             style="fill:#CC092F;fill-opacity:1;fill-rule:nonzero;stroke:none"
             d="M 273.27,271.621 H 6.19922" /><path
             id="path48"
             style="fill:none;stroke:#FFFFFF;stroke-width:4;stroke-linecap:butt;stroke-linejoin:miter;stroke-miterlimit:4;stroke-dasharray:none;stroke-opacity:1"
             d="M 273.27,271.621 H 6.19922" /><path
             id="path50"
             style="fill:#CC092F;fill-opacity:1;fill-rule:nonzero;stroke:none"
             d="m 273.27,271.621 33.734,33.406" /><path
             id="path52"
             style="fill:none;stroke:#FFFFFF;stroke-width:4;stroke-linecap:butt;stroke-linejoin:miter;stroke-miterlimit:4;stroke-dasharray:none;stroke-opacity:1"
             d="m 273.27,271.621 33.734,33.406" /><path
             id="path54"
             style="fill:#FFFFFF;fill-opacity:1;fill-rule:nonzero;stroke:none"
             d="m 145.52,177.012 v 57.722 h 9.793 l -14.454,21.797 -14.453,-21.797 h 9.793 v -57.722 h 9.321" /><path
             id="path56"
             style="fill:#FFFFFF;fill-opacity:1;fill-rule:nonzero;stroke:none"
             d="m 116.063,168.672 -40.8208,40.82 6.9258,6.922 -25.625,5.195 5.1836,-25.632 6.9257,6.921 40.8207,-40.82 6.59,6.594" /><path
             id="path58"
             style="fill:#FFFFFF;fill-opacity:1;fill-rule:nonzero;stroke:none"
             d="M 101.133,141.941 H 43.3984 v 9.797 l -21.789,-14.453 21.789,-14.441 v 9.785 h 57.7346 v 9.312" /><path
             id="path60"
             style="fill:#FFFFFF;fill-opacity:1;fill-rule:nonzero;stroke:none"
             d="m 109.473,112.488 -40.8207,-40.8161 -6.9257,6.9219 -5.1836,-25.625 25.625,5.1835 -6.9258,6.9375 40.8208,40.8162 -6.59,6.582" /><path
             id="path62"
             style="fill:#FFFFFF;fill-opacity:1;fill-rule:nonzero;stroke:none"
             d="M 136.199,97.5664 V 39.8359 h -9.793 l 14.453,-21.8007 14.454,21.8007 h -9.793 v 57.7305 h -9.321" /><path
             id="path64"
             style="fill:#FFFFFF;fill-opacity:1;fill-rule:nonzero;stroke:none"
             d="m 165.652,105.906 40.825,-40.8162 -6.926,-6.9375 25.625,-5.1835 -5.188,25.625 -6.922,-6.9219 -40.82,40.8161 -6.594,-6.582" /><path
             id="path66"
             style="fill:#FFFFFF;fill-opacity:1;fill-rule:nonzero;stroke:none"
             d="m 180.586,132.629 h 57.734 v -9.785 l 21.785,14.441 -21.785,14.453 v -9.797 h -57.734 v -9.312" /><path
             id="path68"
             style="fill:#FFFFFF;fill-opacity:1;fill-rule:nonzero;stroke:none"
             d="m 172.246,162.078 40.82,40.82 6.922,-6.921 5.188,25.632 -25.625,-5.195 6.926,-6.922 -40.825,-40.82 6.594,-6.594" /><path
             id="path70"
             style="fill:#FFFFFF;fill-opacity:1;fill-rule:nonzero;stroke:none"
             d="m 176.289,88.418 c 27.246,19.07 33.867,56.621 14.785,83.855 -19.062,27.247 -56.621,33.868 -83.855,14.786 C 79.9805,167.988 73.3594,130.438 92.4297,103.203 111.504,75.9688 149.055,69.3438 176.289,88.418" /><path
             id="path72"
             style="fill:none;stroke:#CC092F;stroke-width:4;stroke-linecap:butt;stroke-linejoin:miter;stroke-miterlimit:4;stroke-dasharray:none;stroke-opacity:1"
             d="m 176.289,88.418 c 27.246,19.07 33.867,56.621 14.785,83.855 -19.062,27.247 -56.621,33.868 -83.855,14.786 C 79.9805,167.988 73.3594,130.438 92.4297,103.203 111.504,75.9688 149.055,69.3438 176.289,88.418 Z" /></g></g></g></g></svg>