<?xml version="1.0" encoding="utf-8"?>
<!-- Generator: Adobe Illustrator 20.1.0, SVG Export Plug-In . SVG Version: 6.00 Build 0)  -->
<svg version="1.1" id="Layer_1" xmlns="http://www.w3.org/2000/svg" xmlns:xlink="http://www.w3.org/1999/xlink" x="0px" y="0px"
	 viewBox="0 0 74.1 89.3" style="enable-background:new 0 0 74.1 89.3;" xml:space="preserve">
<style type="text/css">
	.st0{fill:#CC092F;stroke:#FFFFFF;stroke-width:0.8;}
	.st1{stroke:#FFFFFF;stroke-width:0.8;}
	.st2{fill:none;stroke:#FFFFFF;stroke-width:0.8;}
	.st3{fill:none;stroke:#FFFFFF;stroke-width:0.6;}
	.st4{fill:none;stroke:#CC092F;stroke-width:0.8;}
</style>
<g>
	<g>
		<path class="st0" d="M19.6,12.2L36,41.4c2.3,4.1,0.8,9.3-3.3,11.6l0,0c-4.1,2.3-9.3,0.8-11.6-3.3L5.1,21"/>
		<path class="st0" d="M19.6,12.2L36,41.4c2.3,4.1,0.8,9.3-3.3,11.6l0,0c-4.1,2.3-9.3,0.8-11.6-3.3L5.1,21"/>
		<g>
			<ellipse class="st0" cx="24.8" cy="81.9" rx="22.6" ry="7.1"/>
		</g>
		<g>
			<ellipse class="st0" cx="24.8" cy="76.6" rx="11.3" ry="3.5"/>
		</g>
		<path class="st1" d="M19.9,12.4c2.3,4.1-0.2,7.3-4.3,9.6l0,0c-4.1,2.3-8.3,2.8-10.6-1.3l-2.9-5.3l-0.4-1.2
			C-0.6,10.2,0.2,3.5,4.3,1.2l0,0c4.1-2.3,9.5,0.4,11.8,4.5l0.5,0.9L19.9,12.4z"/>
		<g>
			<path class="st0" d="M19.9,12.4c2.3,4.1-0.2,7.3-4.3,9.6l0,0c-4.1,2.3-8.3,2.8-10.6-1.3l-2.9-5.3l-0.4-1.2
				C-0.6,10.2,0.2,3.5,4.3,1.2l0,0c4.1-2.3,9.5,0.4,11.8,4.5l0.5,0.9L19.9,12.4z"/>
		</g>
		<path class="st0" d="M24.8,78.1c-1.4,0-2.5-1.1-2.5-2.5V35.4c0-1.4,1.1-2.5,2.5-2.5l0,0c1.4,0,2.5,1.1,2.5,2.5v40.2
			C27.3,77,26.1,78.1,24.8,78.1L24.8,78.1z"/>
		<g>
			<g>
				<circle class="st0" cx="25.4" cy="37.2" r="2.7"/>
			</g>
		</g>
		<path class="st2" d="M20.1,12.7c2.3,4.1-0.2,7.3-4.3,9.6l0,0c-4.1,2.3-8.3,2.8-10.6-1.3"/>
		<path class="st3" d="M18.9,10.4c2.3,4.1-0.2,7.3-4.3,9.6l0,0c-4.1,2.3-8.3,2.8-10.6-1.3"/>
		<path class="st3" d="M17.6,9.1c2.2,3.9-0.2,7-4.1,9.2l0,0C9.6,20.5,5.5,21,3.3,17"/>
		<path class="st3" d="M16.5,7.2c2.2,3.9-0.2,7-4.1,9.2l0,0c-3.9,2.2-7.9,2.7-10.1-1.2"/>
		<path class="st3" d="M15.5,5.2c2.2,3.9-0.2,7-4.1,9.2l0,0c-3.9,2.2-7.9,2.7-10.1-1.2"/>
		<path class="st3" d="M14.3,3.6c2.1,3.8-0.2,6.7-3.9,8.8l0,0c-3.8,2.1-7.6,2.6-9.7-1.2"/>
		<path class="st3" d="M12.5,2.6c1.8,3.2-0.1,5.8-3.4,7.6l0,0c-3.2,1.8-6.5,2.2-8.3-1"/>
		<path class="st3" d="M10.6,1.5c1.5,2.8-0.1,4.9-2.9,6.4l0,0C5,9.5,2.2,9.8,0.7,7.1"/>
		<path class="st4" d="M33,51.4c1.5,6.9,1.5,17.6,9.1,20.6c2.2,0.9,4.7,0.5,6.9,1.3c5.2,1.9,7.4,7.3,11.7,10.7
			c3.8,3.1,9,2.7,13.4,1.1"/>
	</g>
</g>
</svg>
