<?xml version="1.0" encoding="utf-8"?>
<!-- Generator: Adobe Illustrator 20.1.0, SVG Export Plug-In . SVG Version: 6.00 Build 0)  -->
<svg version="1.1" id="Layer_1" xmlns="http://www.w3.org/2000/svg" xmlns:xlink="http://www.w3.org/1999/xlink" x="0px" y="0px"
	 viewBox="0 0 86.2 77.1" style="enable-background:new 0 0 86.2 77.1;" xml:space="preserve">
<style type="text/css">
	.st0{fill:none;stroke:#CC092F;stroke-width:1.6;stroke-linecap:round;stroke-linejoin:round;}
	.st1{fill:none;stroke:#CC092F;stroke-width:1.76;stroke-linecap:round;stroke-linejoin:round;}
	.st2{fill:none;stroke:#FFFFFF;stroke-width:0.46;stroke-linejoin:round;}
	.st3{fill:#CC092F;}
	.st4{fill:#CC092F;stroke:#FFFFFF;stroke-width:0.7;}
	.st5{fill:#FFFFFF;stroke:#FFFFFF;stroke-width:0.46;stroke-linejoin:round;}
	.st6{fill:#FFFFFF;}
</style>
<line class="st0" x1="0.8" y1="43.7" x2="26.8" y2="43.7"/>
<line class="st0" x1="9.1" y1="51.2" x2="26.5" y2="51.2"/>
<line class="st0" x1="26.8" y1="33.1" x2="12.5" y2="33.1"/>
<line class="st0" x1="5.8" y1="39.9" x2="26.5" y2="39.9"/>
<g>
	<polygon class="st0" points="67.8,76 28.9,76 45.9,65.7 85.4,65.6 	"/>
	<g>
		<polygon class="st0" points="45.9,65.7 28.9,76 28.9,10.9 45.9,1 		"/>
	</g>
	<polygon class="st0" points="67.8,10.9 28.9,10.9 45.9,1 85.3,0.9 	"/>
	<g>
		<rect x="28.9" y="10.9" class="st0" width="38.9" height="65.4"/>
		<g>
			<g>
				<polygon class="st1" points="85.4,65.6 67.8,76 67.8,10.9 85.3,0.9 				"/>
			</g>
			<g>
				<polygon class="st0" points="85.4,65.6 67.8,76 67.8,10.9 85.3,0.9 				"/>
			</g>
		</g>
	</g>
	<polygon class="st0" points="85.4,65.6 67.8,76 67.8,10.9 85.3,0.9 	"/>
</g>
<path class="st2" d="M64,14.3c0,0-0.8-0.2-1.5-0.4c-0.6-0.2-1.4-0.4-1.4-0.4"/>
<g>
	<path class="st3" d="M63.8,39.1c0.5-1.9,2.8-11.7,2.9-13c0.1-1.4-0.4-3.1-1.1-3.4c0-0.5,0.1-0.8,0.1-0.8c-0.2-0.1-0.4-0.1-0.5-0.2
		l0.1,0c0,0,0.5-2.2,0.8-3.7c0.6-2.9,0.7-3.8,0.7-3.8c0-0.4-0.1-0.7-0.5-0.8L64.5,13c-0.4-0.1-0.6,0.1-0.8,0.5c0,0-0.7,1.3-1.6,4.1
		C61.5,19,61,20.2,61,20.2l0,0c-1-0.3-2-0.6-3.1-0.9c-2.6-0.7-5.3-1.3-7.9-1.7c0,0-0.1,0.2-0.3,0.7l0,0c-0.8-0.1-2.1,1.1-2.7,2.3
		c-0.6,1.2-3.7,10.7-4.2,12.7c-0.5,2-1.6,6.9-2,9.4c-0.5,2.5-0.9,6.8-2.5,12.5c-0.9,3.4-2.4,8.4-3.2,10.5c-0.2,0.5-1.9,3.4,0.5,4.3
		c2.4,0.9,5.9,1.9,7.7,2.4c1.8,0.5,5.3,1.4,7.8,1.8c2.6,0.4,2.6-2.8,2.7-3.4c0.4-2.2,1.7-7.3,2.6-10.7c1.6-5.7,3.4-9.7,4.3-12
		C61.6,45.9,63.2,41.1,63.8,39.1z"/>
	<path class="st4" d="M61.1,39.4c0.5-1.9,2.8-11.7,2.9-13c0.1-1.4-0.4-3.1-1.1-3.4c0-0.5,0-0.8,0-0.8c-0.2-0.1-0.4-0.1-0.5-0.2
		l0.1,0c0,0,0.5-2.2,0.8-3.7c0.6-2.9,0.7-3.8,0.7-3.8c0-0.4-0.1-0.7-0.5-0.8l-1.7-0.5c-0.4-0.1-0.6,0.1-0.8,0.5c0,0-0.7,1.3-1.6,4.1
		c-0.5,1.5-1.1,2.7-1.1,2.7l0,0c-1-0.3-2-0.6-3.1-0.9c-2.6-0.7-5.3-1.3-7.9-1.7c0,0-0.1,0.2-0.3,0.7l0,0c-0.8-0.1-2.1,1.1-2.7,2.3
		c-0.6,1.2-3.7,10.7-4.2,12.7c-0.5,2-1.6,6.9-2,9.4c-0.5,2.5-0.9,6.8-2.5,12.5c-0.9,3.4-2.4,8.4-3.2,10.5c-0.2,0.6-1.9,3.4,0.5,4.3
		c2.4,0.9,5.9,1.9,7.7,2.4c1.8,0.5,5.3,1.4,7.8,1.8c2.6,0.4,2.6-2.8,2.7-3.4c0.4-2.2,1.7-7.3,2.6-10.7c1.6-5.7,3.4-9.7,4.3-12
		C58.9,46.1,60.6,41.3,61.1,39.4z"/>
	<path class="st2" d="M48.8,74.6c2.6,0.4,2.6-2.8,2.7-3.4c0.4-2.2,1.7-7.3,2.6-10.7c1.6-5.7,3.4-9.7,4.3-12c0.9-2.4,2.5-7.1,3.1-9.1
		c0.5-1.9,2.8-11.7,2.9-13c0.1-1.4-0.4-3.1-1.1-3.4c0-0.5,0-0.8,0-0.8c-0.2-0.1-0.4-0.1-0.5-0.2l0.1,0c0,0,0.5-2.2,0.8-3.7
		c0.6-2.9,0.7-3.8,0.7-3.8c0-0.4-0.1-0.7-0.5-0.8l-1.7-0.5"/>
	<path class="st5" d="M41.7,70.2c0,0.1-0.2,0.1-0.4,0.1c-0.2,0-0.3-0.2-0.3-0.3c0-0.1,0.2-0.1,0.4-0.1C41.6,70,41.7,70.1,41.7,70.2z
		 M41.1,70l-0.6,2.1 M41.2,70.2l-0.6,2 M41.7,70.2l-0.6,2.1 M41.5,70.3l-0.6,2 M45.3,39.1l-0.4,1.5 M45.5,39.2l-0.4,1.5 M53.9,41.5
		L53.5,43 M53.7,41.5L53.3,43"/>
	<path class="st3" d="M62.5,22c0,0,0.5-2.2,0.8-3.7c0.6-2.9,0.7-3.8,0.7-3.8c0-0.4-0.1-0.7-0.5-0.8l-1.7-0.5
		c-0.4-0.1-0.6,0.1-0.8,0.5c0,0-0.7,1.3-1.6,4.1c-0.5,1.5-1.1,2.7-1.1,2.7 M62.7,21.2c-1.3-0.5-2.7-1-4.1-1.4 M47.8,18
		c0,0-3.5,7-5.4,14.2C40,40.7,39.7,43.5,40,47.5c0.1,0.8,0.9,1.8,1.8,2.1c0.4,0.1,0.8,0.2,0.9,0.3c0.2,0,0.8,0.2,1.4,0.6
		c0.6,0.4,0.7,0.5,1,0.7c0.3,0.2,0.4,0.3,1.3,0.6c0.9,0.3,1,0.2,1.4,0.2c0.4,0,0.5,0,1.2-0.1c0.7-0.1,1.3,0.1,1.5,0.2
		c0.2,0,0.6,0.2,0.9,0.3c0.9,0.2,2.1-0.2,2.6-0.9c2.3-3.2,3.5-5.8,5.8-14.3c2-7.1,2.6-15,2.6-15 M45.7,21.5c2.8,0.4,5.8,1,8.6,1.8
		c2.8,0.8,5.7,1.8,8.3,2.8"/>
	<path class="st4" d="M52.2,46.4c-0.6,2.2-2.9,3.5-5.1,2.9c-2.2-0.6-3.5-2.9-2.9-5.1c0.6-2.2,2.9-3.5,5.1-2.9
		C51.5,41.8,52.9,44.1,52.2,46.4z"/>
	<line class="st5" x1="53.6" y1="24.5" x2="55" y2="19.5"/>
	<line class="st5" x1="54.1" y1="24.6" x2="55.5" y2="19.6"/>
	<path class="st5" d="M58.3,40.1c-0.1,0.4-0.5,0.6-0.8,0.5l-14.5-4c-0.4-0.1-0.6-0.5-0.5-0.8l2.5-9.2c0.1-0.4,0.5-0.6,0.8-0.5
		l14.5,4c0.4,0.1,0.6,0.5,0.5,0.8L58.3,40.1z"/>
	<path class="st6" d="M42,53c-0.2,0.8-1.1,1.3-2,1.1c-0.8-0.2-1.3-1.1-1.1-2c0.2-0.9,1.1-1.3,2-1.1C41.7,51.2,42.2,52.1,42,53z"/>
	<ellipse transform="matrix(0.2658 -0.964 0.964 0.2658 -32.4922 81.9622)" class="st6" cx="37.6" cy="62.3" rx="1.6" ry="1.6"/>
	<path class="st6" d="M52.6,56c-0.2,0.8-1.1,1.3-2,1.1c-0.8-0.2-1.3-1.1-1.1-2c0.2-0.8,1.1-1.3,2-1.1C52.3,54.3,52.8,55.1,52.6,56z"
		/>
	<path class="st6" d="M49.7,65.8c-0.2,0.9-1.1,1.3-2,1.1c-0.8-0.2-1.3-1.1-1.1-2c0.2-0.9,1.1-1.3,2-1.1
		C49.4,64.1,49.9,64.9,49.7,65.8z"/>
	<path class="st6" d="M47,55.6c-0.2,0.8-1.1,1.3-2,1.1c-0.8-0.2-1.3-1.1-1.1-2c0.2-0.8,1.1-1.3,2-1.1C46.7,53.9,47.2,54.8,47,55.6z"
		/>
	<path class="st6" d="M40.6,57.9c-0.2,0.8-1.1,1.3-2,1.1c-0.8-0.2-1.3-1.1-1.1-2c0.2-0.9,1.1-1.3,2-1.1C40.3,56.1,40.8,57,40.6,57.9
		z"/>
	<path class="st6" d="M51.1,60.9c-0.2,0.8-1.1,1.3-2,1.1c-0.8-0.2-1.3-1.1-1.1-2c0.2-0.8,1.1-1.3,2-1.1
		C50.9,59.2,51.4,60.1,51.1,60.9z"/>
	<path class="st6" d="M45.6,60.5c-0.2,0.8-1.1,1.3-2,1.1c-0.8-0.2-1.3-1.1-1.1-2c0.2-0.8,1.1-1.3,2-1.1
		C45.3,58.8,45.8,59.7,45.6,60.5z"/>
	<path class="st6" d="M44.1,65.4c-0.2,0.8-1.1,1.3-2,1.1c-0.8-0.2-1.3-1.1-1.1-2c0.2-0.9,1.1-1.3,2-1.1
		C43.8,63.7,44.3,64.6,44.1,65.4z"/>
</g>
</svg>
