<?xml version="1.0" encoding="UTF-8" standalone="no"?>
<svg
   xmlns:dc="http://purl.org/dc/elements/1.1/"
   xmlns:cc="http://creativecommons.org/ns#"
   xmlns:rdf="http://www.w3.org/1999/02/22-rdf-syntax-ns#"
   xmlns:svg="http://www.w3.org/2000/svg"
   xmlns="http://www.w3.org/2000/svg"
   version="1.1"
   id="svg2"
   xml:space="preserve"
   width="58.026669"
   height="52.306667"
   viewBox="0 0 58.026669 52.306667"><metadata
     id="metadata8"><rdf:RDF><cc:Work
         rdf:about=""><dc:format>image/svg+xml</dc:format><dc:type
           rdf:resource="http://purl.org/dc/dcmitype/StillImage" /><dc:title /></cc:Work></rdf:RDF></metadata><defs
     id="defs6" /><g
     id="g959"><path
       id="path14"
       style="fill:none;stroke:#CC092F;stroke-width:1.0666666;stroke-linecap:round;stroke-linejoin:round;stroke-miterlimit:4;stroke-dasharray:none;stroke-opacity:1"
       d="M 0.53385465,29.657201 H 17.8672" /><path
       id="path16"
       style="fill:none;stroke:#CC092F;stroke-width:1.0666666;stroke-linecap:round;stroke-linejoin:round;stroke-miterlimit:4;stroke-dasharray:none;stroke-opacity:1"
       d="M 6.0895865,34.638401 H 17.645866" /><path
       id="path18"
       style="fill:none;stroke:#CC092F;stroke-width:1.0666666;stroke-linecap:round;stroke-linejoin:round;stroke-miterlimit:4;stroke-dasharray:none;stroke-opacity:1"
       d="M 17.8672,22.583734 H 8.3114531" /><path
       id="path20"
       style="fill:none;stroke:#CC092F;stroke-width:1.0666666;stroke-linecap:round;stroke-linejoin:round;stroke-miterlimit:4;stroke-dasharray:none;stroke-opacity:1"
       d="M 3.8671866,27.120268 H 17.645866" /><path
       id="path22"
       style="fill:none;stroke:#CC092F;stroke-width:1.0666666;stroke-linecap:round;stroke-linejoin:round;stroke-miterlimit:4;stroke-dasharray:none;stroke-opacity:1"
       d="M 45.193732,51.185312 H 19.269333 l 11.346266,-6.854685 26.289066,-0.05521 z" /><path
       id="path24"
       style="fill:none;stroke:#CC092F;stroke-width:1.0666666;stroke-linecap:round;stroke-linejoin:round;stroke-miterlimit:4;stroke-dasharray:none;stroke-opacity:1"
       d="M 30.615599,44.330627 19.269333,51.185312 19.263066,7.7853348 30.617199,1.2025349 Z" /><path
       id="path26"
       style="fill:none;stroke:#CC092F;stroke-width:1.0666666;stroke-linecap:round;stroke-linejoin:round;stroke-miterlimit:4;stroke-dasharray:none;stroke-opacity:1"
       d="m 45.189066,7.7853348 h -25.926 L 30.617199,1.2025349 56.890665,1.1134683 Z" /><path
       id="path28"
       style="fill:none;stroke:#CC092F;stroke-width:1.0666666;stroke-linecap:round;stroke-linejoin:round;stroke-miterlimit:4;stroke-dasharray:none;stroke-opacity:1"
       d="M 45.193732,51.376979 H 19.269333 l -0.0063,-43.5916442 h 25.926 z" /><path
       id="path30"
       style="fill:none;stroke:#CC092F;stroke-width:1.17333329;stroke-linecap:round;stroke-linejoin:round;stroke-miterlimit:4;stroke-dasharray:none;stroke-opacity:1"
       d="M 56.904665,44.275414 45.193732,51.185312 45.189066,7.7853348 56.890665,1.1134683 Z" /><path
       id="path32"
       style="fill:none;stroke:#CC092F;stroke-width:1.0666666;stroke-linecap:round;stroke-linejoin:round;stroke-miterlimit:4;stroke-dasharray:none;stroke-opacity:1"
       d="M 56.904665,44.275414 45.193732,51.185312 45.189066,7.7853348 56.890665,1.1134683 Z" /><path
       id="path34"
       style="fill:none;stroke:#CC092F;stroke-width:1.0666666;stroke-linecap:round;stroke-linejoin:round;stroke-miterlimit:4;stroke-dasharray:none;stroke-opacity:1"
       d="M 56.904665,44.275414 45.193732,51.185312 45.189066,7.7853348 56.890665,1.1134683 Z" /><path
       id="path36"
       style="fill:none;stroke:#FFFFFF;stroke-width:0.30666664;stroke-linecap:butt;stroke-linejoin:round;stroke-miterlimit:4;stroke-dasharray:none;stroke-opacity:1"
       d="m 42.671866,10.084801 c 0,0 -0.5208,-0.1526663 -0.9688,-0.2754663 -0.4,-0.1110666 -0.947867,-0.2516 -0.947867,-0.2516" /><path
       id="path38"
       style="fill:#CC092F;fill-opacity:1;fill-rule:nonzero;stroke:none;stroke-width:0.13333333"
       d="m 42.502666,26.614934 c 0.357733,-1.299466 1.857733,-7.793199 1.921866,-8.696266 0.06507,-0.9016 -0.268266,-2.036533 -0.751066,-2.267733 0.02547,-0.322934 0.03387,-0.502667 0.03387,-0.502667 -0.1188,-0.04787 -0.238533,-0.09627 -0.3568,-0.142667 l 0.03747,0.01413 c 0,0 0.3448,-1.45 0.544267,-2.455734 0.3792,-1.9292 0.4932,-2.5152 0.4932,-2.5152 -0.0072,-0.2634663 -0.07653,-0.4973329 -0.319734,-0.5655996 l -1.122933,-0.3088 c -0.2448,-0.0688 -0.409867,0.083867 -0.564533,0.3202667 0,0 -0.435467,0.8983999 -1.054667,2.7286669 -0.329733,0.969733 -0.7188,1.8 -0.7188,1.8 l 0.01507,0.0079 c -0.670267,-0.2188 -1.347334,-0.425066 -2.035867,-0.614133 -1.75,-0.483333 -3.5016,-0.854667 -5.25,-1.120267 0,0 -0.0876,0.157734 -0.233333,0.449467 -0.530267,-0.05107 -1.399467,0.7516 -1.807333,1.5604 -0.404667,0.807333 -2.450534,7.1516 -2.809867,8.451066 -0.3584,1.3 -1.049467,4.606267 -1.3568,6.25 -0.307333,1.647334 -0.581733,4.516133 -1.6396,8.3468 -0.6244,2.258387 -1.632267,5.624013 -2.161467,7.024533 -0.137466,0.366147 -1.2416,2.234893 0.360934,2.867707 1.578133,0.625 3.927066,1.29792 5.112,1.625 1.186533,0.32812 3.546933,0.95312 5.221333,1.22656 1.702133,0.27708 1.712,-1.890627 1.781333,-2.27604 0.2672,-1.47396 1.126533,-4.879693 1.748933,-7.137507 1.0572,-3.83172 2.291067,-6.435986 2.8724,-8.006253 0.580134,-1.569733 1.682267,-4.764 2.040134,-6.0636" /><path
       id="path40"
       style="fill:#CC092F;fill-opacity:1;fill-rule:nonzero;stroke:none;stroke-width:0.13333333"
       d="m 40.760399,26.788934 c 0.3568,-1.297866 1.8568,-7.792133 1.920267,-8.697333 0.06667,-0.901066 -0.2692,-2.036533 -0.75,-2.2636 0.02507,-0.326533 0.03187,-0.506266 0.03187,-0.506266 -0.1188,-0.04787 -0.237466,-0.09267 -0.355733,-0.140534 l 0.0364,0.01187 c 0,0 0.3464,-1.446267 0.545333,-2.453067 0.3792,-1.9312 0.492134,-2.516133 0.492134,-2.516133 C 42.67457,9.9588044 42.6068,9.7264044 42.360403,9.6593377 l -1.1192,-0.31 c -0.2464,-0.067733 -0.410533,0.085467 -0.566667,0.3204 0,0 -0.433333,0.8984003 -1.0548,2.7265333 -0.329066,0.9708 -0.720266,1.802 -0.720266,1.802 l 0.0172,0.0068 c -0.669334,-0.218667 -1.347334,-0.423867 -2.0364,-0.614 -1.749067,-0.482267 -3.501067,-0.853733 -5.25,-1.1204 0,0 -0.0876,0.158933 -0.231867,0.449067 -0.5296,-0.05053 -1.4,0.752 -1.8072,1.560933 -0.407333,0.808267 -2.4532,7.151466 -2.810933,8.450933 -0.3584,1.3016 -1.0496,4.606267 -1.3568,6.2532 -0.306267,1.643733 -0.582267,4.513066 -1.6412,8.3464 -0.623467,2.25776 -1.6328,5.621293 -2.158267,7.022866 -0.1396,0.367187 -1.243733,2.234373 0.3604,2.869787 1.5796,0.6224 3.925467,1.29688 5.112,1.6224 1.185867,0.32812 3.544267,0.95312 5.221334,1.2276 1.700533,0.27864 1.710933,-1.891667 1.779599,-2.27708 0.2672,-1.47136 1.126667,-4.880213 1.749067,-7.136987 1.0572,-3.831786 2.2916,-6.43752 2.8724,-8.006186 0.580667,-1.569867 1.682267,-4.763067 2.0416,-6.064667" /><path
       id="path42"
       style="fill:none;stroke:#FFFFFF;stroke-width:0.46666667;stroke-linecap:butt;stroke-linejoin:miter;stroke-miterlimit:4;stroke-dasharray:none;stroke-opacity:1"
       d="m 40.760399,26.788934 c 0.3568,-1.297866 1.8568,-7.792133 1.920267,-8.697333 0.06667,-0.901066 -0.2692,-2.036533 -0.75,-2.2636 0.02507,-0.326533 0.03187,-0.506266 0.03187,-0.506266 -0.1188,-0.04787 -0.237466,-0.09267 -0.355733,-0.140534 l 0.0364,0.01187 c 0,0 0.3464,-1.446267 0.545333,-2.453067 0.3792,-1.9312 0.492134,-2.516133 0.492134,-2.516133 C 42.67457,9.9588044 42.6068,9.7264044 42.360403,9.6593377 l -1.1192,-0.31 c -0.2464,-0.067733 -0.410533,0.085467 -0.566667,0.3204 0,0 -0.433333,0.8984003 -1.0548,2.7265333 -0.329066,0.9708 -0.720266,1.802 -0.720266,1.802 l 0.0172,0.0068 c -0.669334,-0.218667 -1.347334,-0.423867 -2.0364,-0.614 -1.749067,-0.482267 -3.501067,-0.853733 -5.25,-1.1204 0,0 -0.0876,0.158933 -0.231867,0.449067 -0.5296,-0.05053 -1.4,0.752 -1.8072,1.560933 -0.407333,0.808267 -2.4532,7.151466 -2.810933,8.450933 -0.3584,1.3016 -1.0496,4.606267 -1.3568,6.2532 -0.306267,1.643733 -0.582267,4.513066 -1.6412,8.3464 -0.623467,2.25776 -1.6328,5.621293 -2.158267,7.022866 -0.1396,0.367187 -1.243733,2.234373 0.3604,2.869787 1.5796,0.6224 3.925467,1.29688 5.112,1.6224 1.185867,0.32812 3.544267,0.95312 5.221334,1.2276 1.700533,0.27864 1.710933,-1.891667 1.779599,-2.27708 0.2672,-1.47136 1.126667,-4.880213 1.749067,-7.136987 1.0572,-3.831786 2.2916,-6.43752 2.8724,-8.006186 0.580667,-1.569867 1.682267,-4.763067 2.0416,-6.064667 z" /><path
       id="path44"
       style="fill:none;stroke:#FFFFFF;stroke-width:0.30666664;stroke-linecap:butt;stroke-linejoin:round;stroke-miterlimit:4;stroke-dasharray:none;stroke-opacity:1"
       d="m 32.540666,50.273854 c 1.700533,0.27864 1.710933,-1.891667 1.7796,-2.27708 0.266666,-1.47136 1.126666,-4.880213 1.749066,-7.136987 1.056667,-3.831786 2.291067,-6.43752 2.8724,-8.006186 0.580134,-1.569867 1.682267,-4.763067 2.041067,-6.064667 0.357333,-1.297866 1.857333,-7.792133 1.9208,-8.697333 0.06613,-0.901066 -0.2692,-2.036533 -0.75,-2.2636 0.02507,-0.326533 0.03133,-0.506266 0.03133,-0.506266 -0.1188,-0.04787 -0.237066,-0.09267 -0.3552,-0.140534 l 0.03587,0.01187 c 0,0 0.346933,-1.446267 0.545867,-2.453067 0.3792,-1.9312 0.492133,-2.516133 0.492133,-2.516133 -0.0063,-0.2650666 -0.07387,-0.4974666 -0.320267,-0.5645333 l -1.119733,-0.31" /><path
       id="path46"
       style="fill:#CC092F;fill-opacity:1;fill-rule:nonzero;stroke:none;stroke-width:0.13333333"
       d="m 27.792666,47.33792 c -0.01667,0.06093 -0.1244,0.08593 -0.2416,0.05468 -0.115067,-0.03281 -0.194267,-0.109373 -0.180267,-0.169266 0.0188,-0.06407 0.1276,-0.08855 0.243734,-0.05469 0.116133,0.02969 0.193866,0.106774 0.178133,0.16928 z m -0.421867,-0.114586 -0.392666,1.429693 m 0.462,-1.312507 -0.369867,1.338547 m 0.7224,-1.341147 -0.395333,1.432294 m 0.2772,-1.364587 -0.368267,1.338533 m 2.897867,-22.129226 -0.271867,0.993334 m 0.3828,-0.962 -0.278667,1.0068 m 5.894267,0.543733 -0.2744,0.990533 m 0.164,-1.0208 -0.278534,1.005734" /><path
       id="path48"
       style="fill:none;stroke:#FFFFFF;stroke-width:0.30666664;stroke-linecap:butt;stroke-linejoin:round;stroke-miterlimit:4;stroke-dasharray:none;stroke-opacity:1"
       d="m 27.792666,47.33792 c -0.01667,0.06093 -0.1244,0.08593 -0.2416,0.05468 -0.115067,-0.03281 -0.194267,-0.109373 -0.180267,-0.169266 0.0188,-0.06407 0.1276,-0.08855 0.243734,-0.05469 0.116133,0.02969 0.193866,0.106774 0.178133,0.16928 z m -0.421867,-0.114586 -0.392666,1.429693 m 0.462,-1.312507 -0.369867,1.338547 m 0.7224,-1.341147 -0.395333,1.432294 m 0.2772,-1.364587 -0.368267,1.338533 m 2.897867,-22.129226 -0.271867,0.993334 m 0.3828,-0.962 -0.278667,1.0068 m 5.894267,0.543733 -0.2744,0.990533 m 0.164,-1.0208 -0.278534,1.005734" /><path
       id="path50"
       style="fill:#CC092F;fill-opacity:1;fill-rule:nonzero;stroke:none;stroke-width:0.13333333"
       d="m 41.643199,15.193068 c 0,0 0.348,-1.446267 0.545333,-2.453067 0.3792,-1.9312 0.492134,-2.516133 0.492134,-2.516133 -0.0061,-0.2650666 -0.07387,-0.4974666 -0.320267,-0.5645333 l -1.1192,-0.31 c -0.2464,-0.067733 -0.410533,0.085467 -0.566667,0.3204 0,0 -0.433333,0.8984003 -1.0548,2.7265333 -0.329066,0.9708 -0.720266,1.802 -0.720266,1.802 m 2.8756,0.470933 c -0.897467,-0.347466 -1.811467,-0.671333 -2.7412,-0.964666 m -7.183333,-1.199467 c 0,0 -2.301067,4.697467 -3.616134,9.462533 -1.566133,5.673467 -1.794266,7.562 -1.557333,10.196933 0.048,0.5452 0.586933,1.208267 1.190133,1.3744 0.238,0.0656 0.5156,0.140667 0.630134,0.174 0.1172,0.03333 0.56,0.140667 0.929733,0.428133 0.369867,0.287467 0.459333,0.362 0.678133,0.480667 0.219334,0.119867 0.248934,0.195867 0.8688,0.3672 0.619734,0.171867 0.687467,0.1224 0.9348,0.131333 0.249067,0.0093 0.366267,-0.0089 0.8308,-0.06573 0.464534,-0.0572 0.9,0.0776 1.0172,0.109467 0.1156,0.0312 0.3916,0.109333 0.6296,0.174933 0.6048,0.166133 1.406267,-0.128667 1.728133,-0.570267 1.553734,-2.1396 2.3256,-3.880266 3.892267,-9.552133 1.314533,-4.764533 1.7484,-9.978133 1.7484,-9.978133 m -11.2588,-0.3776 c 1.852534,0.266134 3.85,0.6932 5.701467,1.203734 1.8516,0.5124 3.784933,1.171333 5.511466,1.891066" /><path
       id="path52"
       style="fill:#CC092F;fill-opacity:1;fill-rule:nonzero;stroke:none;stroke-width:0.13333333"
       d="m 34.831732,31.429068 c -0.411466,1.484399 -1.946266,2.355733 -3.432266,1.946399 -1.4844,-0.41 -2.3568,-1.946399 -1.9464,-3.431333 0.410533,-1.485866 1.9464,-2.355733 3.4324,-1.9468 1.481733,0.4104 2.352533,1.9468 1.946266,3.431734" /><path
       id="path54"
       style="fill:none;stroke:#FFFFFF;stroke-width:0.46666667;stroke-linecap:butt;stroke-linejoin:miter;stroke-miterlimit:4;stroke-dasharray:none;stroke-opacity:1"
       d="m 34.831732,31.429068 c -0.411466,1.484399 -1.946266,2.355733 -3.432266,1.946399 -1.4844,-0.41 -2.3568,-1.946399 -1.9464,-3.431333 0.410533,-1.485866 1.9464,-2.355733 3.4324,-1.9468 1.481733,0.4104 2.352533,1.9468 1.946266,3.431734 z" /><path
       id="path56"
       style="fill:#CC092F;fill-opacity:1;fill-rule:nonzero;stroke:none;stroke-width:0.13333333"
       d="m 35.751599,16.864001 0.918667,-3.330266" /><path
       id="path58"
       style="fill:none;stroke:#FFFFFF;stroke-width:0.30666664;stroke-linecap:butt;stroke-linejoin:round;stroke-miterlimit:4;stroke-dasharray:none;stroke-opacity:1"
       d="m 35.751599,16.864001 0.918667,-3.330266" /><path
       id="path60"
       style="fill:#CC092F;fill-opacity:1;fill-rule:nonzero;stroke:none;stroke-width:0.13333333"
       d="m 36.056266,16.947868 0.920266,-3.330267" /><path
       id="path62"
       style="fill:none;stroke:#FFFFFF;stroke-width:0.30666664;stroke-linecap:butt;stroke-linejoin:round;stroke-miterlimit:4;stroke-dasharray:none;stroke-opacity:1"
       d="m 36.056266,16.947868 0.920266,-3.330267" /><path
       id="path64"
       style="fill:#FFFFFF;fill-opacity:1;fill-rule:nonzero;stroke:none;stroke-width:0.13333333"
       d="m 38.843732,27.265468 c -0.06867,0.245333 -0.320266,0.388133 -0.565066,0.3204 l -9.656267,-2.6636 c -0.2448,-0.06773 -0.3896,-0.320267 -0.320266,-0.564 l 1.683866,-6.1068 c 0.06867,-0.244267 0.320267,-0.386533 0.566134,-0.319333 l 9.655199,2.664133 c 0.2448,0.0692 0.389067,0.320266 0.319734,0.5656 l -1.683334,6.1036" /><path
       id="path66"
       style="fill:none;stroke:#FFFFFF;stroke-width:0.30666664;stroke-linecap:butt;stroke-linejoin:round;stroke-miterlimit:4;stroke-dasharray:none;stroke-opacity:1"
       d="m 38.843732,27.265468 c -0.06867,0.245333 -0.320266,0.388133 -0.565066,0.3204 l -9.656267,-2.6636 c -0.2448,-0.06773 -0.3896,-0.320267 -0.320266,-0.564 l 1.683866,-6.1068 c 0.06867,-0.244267 0.320267,-0.386533 0.566134,-0.319333 l 9.655199,2.664133 c 0.2448,0.0692 0.389067,0.320266 0.319734,0.5656 z" /><path
       id="path68"
       style="fill:#FFFFFF;fill-opacity:1;fill-rule:nonzero;stroke:none;stroke-width:0.13333333"
       d="m 28.005199,35.830667 c -0.156266,0.566667 -0.7448,0.897334 -1.309866,0.7416 -0.565067,-0.156266 -0.8984,-0.7416 -0.742267,-1.307733 0.156267,-0.567733 0.742267,-0.898533 1.307333,-0.743867 0.567734,0.156267 0.899467,0.743867 0.7448,1.31" /><path
       id="path70"
       style="fill:#FFFFFF;fill-opacity:1;fill-rule:nonzero;stroke:none;stroke-width:0.13333333"
       d="m 26.070266,42.351454 c -0.1588,0.566667 -0.743733,0.9 -1.309867,0.74376 -0.567733,-0.157293 -0.8984,-0.742187 -0.742133,-1.309387 0.1572,-0.565613 0.742133,-0.9 1.308267,-0.742186 0.566666,0.155733 0.898533,0.741666 0.743733,1.307813" /><path
       id="path72"
       style="fill:#FFFFFF;fill-opacity:1;fill-rule:nonzero;stroke:none;stroke-width:0.13333333"
       d="m 35.040666,37.859334 c -0.1552,0.565067 -0.7412,0.897333 -1.308934,0.74 -0.565066,-0.156267 -0.898399,-0.74 -0.740533,-1.307733 0.156134,-0.566134 0.740533,-0.898934 1.308267,-0.742267 0.566133,0.156267 0.899466,0.742267 0.7412,1.31" /><path
       id="path74"
       style="fill:#FFFFFF;fill-opacity:1;fill-rule:nonzero;stroke:none;stroke-width:0.13333333"
       d="m 33.105199,44.379587 c -0.154666,0.567187 -0.740666,0.89896 -1.307333,0.742187 -0.566133,-0.156253 -0.899467,-0.742187 -0.7416,-1.307813 0.156267,-0.567187 0.7416,-0.89792 1.308267,-0.742187 0.566133,0.156253 0.897466,0.740107 0.740666,1.307813" /><path
       id="path76"
       style="fill:#FFFFFF;fill-opacity:1;fill-rule:nonzero;stroke:none;stroke-width:0.13333333"
       d="m 31.334933,37.619201 c -0.1552,0.5656 -0.7396,0.8968 -1.307867,0.742133 -0.564533,-0.155733 -0.897867,-0.742133 -0.740667,-1.309333 0.155334,-0.564667 0.740667,-0.8984 1.307334,-0.741734 0.566133,0.156267 0.899466,0.741734 0.7412,1.308934" /><path
       id="path78"
       style="fill:#FFFFFF;fill-opacity:1;fill-rule:nonzero;stroke:none;stroke-width:0.13333333"
       d="m 27.059866,39.101974 c -0.156267,0.566667 -0.7448,0.89792 -1.309867,0.742187 -0.565066,-0.15676 -0.8984,-0.742187 -0.742133,-1.308294 0.156133,-0.567733 0.742133,-0.898533 1.3072,-0.743733 0.569333,0.156133 0.901067,0.743733 0.7448,1.30984" /><path
       id="path80"
       style="fill:#FFFFFF;fill-opacity:1;fill-rule:nonzero;stroke:none;stroke-width:0.13333333"
       d="m 34.095332,41.130627 c -0.1552,0.565627 -0.7412,0.8974 -1.308933,0.740627 -0.565066,-0.155733 -0.8984,-0.740627 -0.740533,-1.308333 0.156267,-0.566147 0.740533,-0.89896 1.308266,-0.742187 0.566134,0.157293 0.899467,0.742187 0.7412,1.309893" /><path
       id="path82"
       style="fill:#FFFFFF;fill-opacity:1;fill-rule:nonzero;stroke:none;stroke-width:0.13333333"
       d="m 30.389599,40.890521 c -0.1552,0.566666 -0.740133,0.8974 -1.307866,0.742186 -0.564534,-0.155733 -0.897867,-0.742186 -0.740534,-1.308333 0.1552,-0.565107 0.740534,-0.89948 1.3072,-0.742187 0.566134,0.156254 0.899467,0.742187 0.7412,1.308334" /><path
       id="path84"
       style="fill:#FFFFFF;fill-opacity:1;fill-rule:nonzero;stroke:none;stroke-width:0.13333333"
       d="m 29.399466,44.140521 c -0.154667,0.566666 -0.740667,0.89844 -1.307333,0.743746 -0.565067,-0.158333 -0.8984,-0.743746 -0.7416,-1.308853 0.156266,-0.567707 0.7416,-0.89844 1.308266,-0.742707 0.566267,0.156254 0.898534,0.742707 0.740667,1.307814" /></g></svg>