<?xml version="1.0" encoding="UTF-8" standalone="no"?>
<svg
   xmlns:dc="http://purl.org/dc/elements/1.1/"
   xmlns:cc="http://creativecommons.org/ns#"
   xmlns:rdf="http://www.w3.org/1999/02/22-rdf-syntax-ns#"
   xmlns:svg="http://www.w3.org/2000/svg"
   xmlns="http://www.w3.org/2000/svg"
   viewBox="0 0 37.426666 38.119999"
   height="38.119999"
   width="37.426666"
   xml:space="preserve"
   id="svg2"
   version="1.1"><metadata
     id="metadata8"><rdf:RDF><cc:Work
         rdf:about=""><dc:format>image/svg+xml</dc:format><dc:type
           rdf:resource="http://purl.org/dc/dcmitype/StillImage" /></cc:Work></rdf:RDF></metadata><defs
     id="defs6"><clipPath
       id="clipPath20"
       clipPathUnits="userSpaceOnUse"><path
         id="path18"
         d="M 0,286 H 280 V 0 H 0 Z" /></clipPath></defs><g
     transform="matrix(1.3333333,0,0,-1.3333333,0,38.12)"
     id="g10"><g
       transform="scale(0.1)"
       id="g12"><g
         id="g14"><g
           clip-path="url(#clipPath20)"
           id="g16"><path
             id="path22"
             style="fill:#CC092F;fill-opacity:1;fill-rule:nonzero;stroke:none"
             d="m 5.44922,4.6875 h 226.797 v 230.742 H 5.44922 Z" /><path
             id="path24"
             style="fill:none;stroke:#FFFFFF;stroke-width:3.99993992;stroke-linecap:butt;stroke-linejoin:miter;stroke-miterlimit:4;stroke-dasharray:none;stroke-opacity:1"
             d="M 232.246,4.6875 V 235.43 H 5.44922 V 4.6875 Z" /><path
             id="path26"
             style="fill:#CC092F;fill-opacity:1;fill-rule:nonzero;stroke:none"
             d="m 194.539,153.516 v -50.481 l 30.41,24.25 -30.41,26.231" /><path
             id="path28"
             style="fill:#CC092F;fill-opacity:1;fill-rule:nonzero;stroke:none"
             d="m 100.859,195.723 h 50.481 l -24.25,30.41 -26.231,-30.41" /><path
             id="path30"
             style="fill:#CC092F;fill-opacity:1;fill-rule:nonzero;stroke:none"
             d="M 152.246,49.8359 H 101.77 l 24.48,-30.4023 25.996,30.4023" /><path
             id="path32"
             style="fill:#CC092F;fill-opacity:1;fill-rule:nonzero;stroke:none"
             d="M 52.8516,97.0781 V 147.559 L 22.4414,123.313 52.8516,97.0781" /><path
             id="path34"
             style="fill:#FFFFFF;fill-opacity:1;fill-rule:nonzero;stroke:none"
             d="M 189.285,148.262 V 97.793 l 30.41,24.238 -30.41,26.231" /><path
             id="path36"
             style="fill:none;stroke:#FFFFFF;stroke-width:1.99996996;stroke-linecap:butt;stroke-linejoin:miter;stroke-miterlimit:4;stroke-dasharray:none;stroke-opacity:1"
             d="M 189.285,148.262 V 97.793 l 30.41,24.238 z" /><path
             id="path38"
             style="fill:#FFFFFF;fill-opacity:1;fill-rule:nonzero;stroke:none"
             d="m 95.6133,190.469 h 50.4727 l -24.25,30.41 -26.2227,-30.41" /><path
             id="path40"
             style="fill:none;stroke:#FFFFFF;stroke-width:1.99996996;stroke-linecap:butt;stroke-linejoin:miter;stroke-miterlimit:4;stroke-dasharray:none;stroke-opacity:1"
             d="m 95.6133,190.469 h 50.4727 l -24.25,30.41 z" /><path
             id="path42"
             style="fill:#FFFFFF;fill-opacity:1;fill-rule:nonzero;stroke:none"
             d="M 146.992,44.5898 H 96.5234 l 24.4846,-30.4101 25.984,30.4101" /><path
             id="path44"
             style="fill:none;stroke:#FFFFFF;stroke-width:1.99996996;stroke-linecap:butt;stroke-linejoin:miter;stroke-miterlimit:4;stroke-dasharray:none;stroke-opacity:1"
             d="M 146.992,44.5898 H 96.5234 L 121.008,14.1797 Z" /><path
             id="path46"
             style="fill:#FFFFFF;fill-opacity:1;fill-rule:nonzero;stroke:none"
             d="M 46.9453,91.8359 V 142.305 L 16.5313,118.066 46.9453,91.8359" /><path
             id="path48"
             style="fill:none;stroke:#FFFFFF;stroke-width:1.99996996;stroke-linecap:butt;stroke-linejoin:miter;stroke-miterlimit:4;stroke-dasharray:none;stroke-opacity:1"
             d="M 46.9453,91.8359 V 142.305 L 16.5313,118.066 Z" /><path
             id="path50"
             style="fill:#CC092F;fill-opacity:1;fill-rule:nonzero;stroke:none"
             d="M 231.465,235.695 H 5.71094 L 62.9414,281.367 H 278.711 v -0.262 h -0.652 L 231.992,235.82 v -1.445 l -0.527,1.32" /><path
             id="path52"
             style="fill:none;stroke:#FFFFFF;stroke-width:3.99993992;stroke-linecap:butt;stroke-linejoin:miter;stroke-miterlimit:4;stroke-dasharray:none;stroke-opacity:1"
             d="M 231.465,235.695 H 5.71094 L 62.9414,281.367 H 278.711 v -0.262 h -0.652 L 231.992,235.82 v -1.445 z" /><path
             id="path54"
             style="fill:#CC092F;fill-opacity:1;fill-rule:nonzero;stroke:none"
             d="M 278.191,50.7617 V 281.105 L 232.246,235.176 V 4.82422 l 45.945,45.93748" /><path
             id="path56"
             style="fill:none;stroke:#FFFFFF;stroke-width:3.99993992;stroke-linecap:butt;stroke-linejoin:miter;stroke-miterlimit:4;stroke-dasharray:none;stroke-opacity:1"
             d="M 278.191,50.7617 V 281.105 L 232.246,235.176 V 4.82422 Z" /><path
             id="path58"
             style="fill:#CC092F;fill-opacity:1;fill-rule:nonzero;stroke:none"
             d="m 157.383,151.875 v -19.199 h 24.621 v 13.195 c 0,21.563 -27.277,33.035 -60.918,33.035 h 0.965 c -33.6408,0 -60.9182,-11.472 -60.9182,-33.035 v -13.195 h 24.6211 v 19.199 c 32.5081,42.539 71.6291,0 71.6291,0" /><path
             id="path60"
             style="fill:#CC092F;fill-opacity:1;fill-rule:nonzero;stroke:none"
             d="m 125.82,158.469 h 21.297 V 134.473 L 170.84,114.668 V 67.2773 H 126.484 116.453 72.0977 v 47.3907 l 23.7226,19.805 v 23.996 h 21.2887 8.711" /><path
             id="path62"
             style="fill:#FFFFFF;fill-opacity:1;fill-rule:nonzero;stroke:none"
             d="m 157.258,146.477 v -19.2 h 24.617 v 13.192 c 0,21.562 -27.273,33.039 -60.918,33.039 h 0.969 c -33.6447,0 -60.9182,-11.477 -60.9182,-33.039 V 127.277 H 85.625 v 19.2 c 32.512,42.539 71.633,0 71.633,0" /><path
             id="path64"
             style="fill:#FFFFFF;fill-opacity:1;fill-rule:nonzero;stroke:none"
             d="m 125.703,153.078 h 21.289 V 129.074 L 170.715,109.27 V 61.875 h -44.36 -10.027 -44.3553 v 47.395 l 23.7226,19.804 v 24.004 h 21.2847 8.723" /></g></g></g></g></svg>