<?xml version="1.0" encoding="utf-8"?>
<!-- Generator: Adobe Illustrator 20.1.0, SVG Export Plug-In . SVG Version: 6.00 Build 0)  -->
<svg version="1.1" id="Layer_1" xmlns="http://www.w3.org/2000/svg" xmlns:xlink="http://www.w3.org/1999/xlink" x="0px" y="0px"
	 viewBox="0 0 62.7 84" style="enable-background:new 0 0 62.7 84;" xml:space="preserve">
<style type="text/css">
	.st0{fill:#CC092F;stroke:#FFFFFF;stroke-width:0.8;}
	.st1{fill:#FFFFFF;}
	.st2{stroke:#FFFFFF;stroke-width:0.8;}
</style>
<g>
	<g>
		<g>
			<g>
				<g>
					<rect x="1.3" y="29.4" class="st0" width="53.7" height="53.6"/>
					<polygon class="st0" points="61.7,76.3 61.7,22.7 54.9,29.4 54.9,83 					"/>
				</g>
			</g>
			<g>
				<polygon class="st0" points="11.1,1 1.3,7.7 54.9,7.7 61.7,1 				"/>
				<rect x="1.3" y="7.7" class="st0" width="53.7" height="21.7"/>
				<polygon class="st0" points="61.7,22.7 61.7,1 54.9,7.7 54.9,29.4 				"/>
				<line class="st0" x1="54.9" y1="29.4" x2="1.3" y2="29.4"/>
				<line class="st0" x1="54.9" y1="29.4" x2="61.7" y2="22.7"/>
				<rect x="10" y="10.6" class="st1" width="8.7" height="4.5"/>
				<rect x="38.5" y="10.6" class="st1" width="8.7" height="4.5"/>
				<rect x="10" y="21.8" class="st1" width="8.7" height="4.5"/>
				<rect x="38.5" y="21.8" class="st1" width="8.7" height="4.5"/>
				<line class="st2" x1="15.9" y1="12.8" x2="42.5" y2="12.8"/>
				<line class="st2" x1="15.9" y1="24.1" x2="42.5" y2="24.1"/>
				<line class="st2" x1="14.4" y1="24.1" x2="42.5" y2="12.8"/>
				<line class="st2" x1="14.4" y1="12.8" x2="42.5" y2="24.1"/>
			</g>
		</g>
		<g>
			<polygon class="st1" points="29.3,48.4 29.3,36.8 31.3,36.8 28.3,32.4 25.4,36.8 27.4,36.8 27.4,48.4 			"/>
			<polygon class="st1" points="23.4,50.1 15.2,41.9 16.6,40.5 11.4,39.4 12.4,44.6 13.8,43.2 22,51.4 			"/>
			<polygon class="st1" points="20.4,55.5 8.8,55.5 8.8,53.5 4.4,56.4 8.8,59.3 8.8,57.3 20.4,57.3 			"/>
			<polygon class="st1" points="22,61.4 13.8,69.6 12.4,68.2 11.4,73.3 16.6,72.3 15.2,70.9 23.4,62.7 			"/>
			<polygon class="st1" points="27.4,64.4 27.4,76 25.4,76 28.3,80.3 31.3,76 29.3,76 29.3,64.4 			"/>
			<polygon class="st1" points="33.3,62.7 41.5,70.9 40.1,72.3 45.3,73.3 44.2,68.2 42.9,69.6 34.6,61.4 			"/>
			<polygon class="st1" points="36.3,57.3 47.9,57.3 47.9,59.3 52.3,56.4 47.9,53.5 47.9,55.5 36.3,55.5 			"/>
			<polygon class="st1" points="34.6,51.4 42.9,43.2 44.2,44.6 45.3,39.4 40.1,40.5 41.5,41.9 33.3,50.1 			"/>
		</g>
	</g>
	<g>
		<ellipse transform="matrix(0.8191 -0.5736 0.5736 0.8191 -27.1133 26.5571)" class="st1" cx="28.6" cy="56.3" rx="12" ry="12"/>
	</g>
</g>
</svg>
