<?xml version="1.0" encoding="UTF-8" standalone="no"?>
<svg
   xmlns:dc="http://purl.org/dc/elements/1.1/"
   xmlns:cc="http://creativecommons.org/ns#"
   xmlns:rdf="http://www.w3.org/1999/02/22-rdf-syntax-ns#"
   xmlns:svg="http://www.w3.org/2000/svg"
   xmlns="http://www.w3.org/2000/svg"
   viewBox="0 0 41.799999 55.973331"
   height="55.973331"
   width="41.799999"
   xml:space="preserve"
   id="svg2"
   version="1.1"><metadata
     id="metadata8"><rdf:RDF><cc:Work
         rdf:about=""><dc:format>image/svg+xml</dc:format><dc:type
           rdf:resource="http://purl.org/dc/dcmitype/StillImage" /></cc:Work></rdf:RDF></metadata><defs
     id="defs6"><clipPath
       id="clipPath20"
       clipPathUnits="userSpaceOnUse"><path
         id="path18"
         d="M 0,420 H 310 V 0 H 0 Z" /></clipPath></defs><g
     transform="matrix(1.3333333,0,0,-1.3333333,0,55.973333)"
     id="g10"><g
       transform="scale(0.1)"
       id="g12"><g
         id="g14"><g
           clip-path="url(#clipPath20)"
           id="g16"><path
             id="path22"
             style="fill:#CC092F;fill-opacity:1;fill-rule:nonzero;stroke:none"
             d="m 6.46484,4.79688 h 268.262 v 268.008 H 6.46484 Z" /><path
             id="path24"
             style="fill:none;stroke:#FFFFFF;stroke-width:4;stroke-linecap:butt;stroke-linejoin:miter;stroke-miterlimit:4;stroke-dasharray:none;stroke-opacity:1"
             d="M 6.46484,4.79688 V 272.805 H 274.727 V 4.79688 Z" /><path
             id="path26"
             style="fill:#CC092F;fill-opacity:1;fill-rule:nonzero;stroke:none"
             d="M 308.613,38.3398 V 306.359 L 274.727,272.805 V 4.79688 l 33.886,33.54292" /><path
             id="path28"
             style="fill:none;stroke:#FFFFFF;stroke-width:4;stroke-linecap:butt;stroke-linejoin:miter;stroke-miterlimit:4;stroke-dasharray:none;stroke-opacity:1"
             d="M 308.613,38.3398 V 306.359 L 274.727,272.805 V 4.79688 Z" /><path
             id="path30"
             style="fill:#CC092F;fill-opacity:1;fill-rule:nonzero;stroke:none"
             d="M 55.5195,415.012 6.46484,381.457 H 274.727 l 33.886,33.555 H 55.5195" /><path
             id="path32"
             style="fill:none;stroke:#FFFFFF;stroke-width:4;stroke-linecap:butt;stroke-linejoin:miter;stroke-miterlimit:4;stroke-dasharray:none;stroke-opacity:1"
             d="M 55.5195,415.012 6.46484,381.457 H 274.727 l 33.886,33.555 z" /><path
             id="path34"
             style="fill:#CC092F;fill-opacity:1;fill-rule:nonzero;stroke:none"
             d="m 6.46484,272.805 h 268.262 V 381.457 H 6.46484 Z" /><path
             id="path36"
             style="fill:none;stroke:#FFFFFF;stroke-width:4;stroke-linecap:butt;stroke-linejoin:miter;stroke-miterlimit:4;stroke-dasharray:none;stroke-opacity:1"
             d="M 6.46484,272.805 V 381.457 H 274.727 V 272.805 Z" /><path
             id="path38"
             style="fill:#CC092F;fill-opacity:1;fill-rule:nonzero;stroke:none"
             d="M 308.613,306.359 V 415.012 L 274.727,381.457 V 272.805 l 33.886,33.554" /><path
             id="path40"
             style="fill:none;stroke:#FFFFFF;stroke-width:4;stroke-linecap:butt;stroke-linejoin:miter;stroke-miterlimit:4;stroke-dasharray:none;stroke-opacity:1"
             d="M 308.613,306.359 V 415.012 L 274.727,381.457 V 272.805 Z" /><path
             id="path42"
             style="fill:#CC092F;fill-opacity:1;fill-rule:nonzero;stroke:none"
             d="M 274.727,272.805 H 6.46484" /><path
             id="path44"
             style="fill:none;stroke:#FFFFFF;stroke-width:4;stroke-linecap:butt;stroke-linejoin:miter;stroke-miterlimit:4;stroke-dasharray:none;stroke-opacity:1"
             d="M 274.727,272.805 H 6.46484" /><path
             id="path46"
             style="fill:#CC092F;fill-opacity:1;fill-rule:nonzero;stroke:none"
             d="m 274.727,272.805 33.886,33.554" /><path
             id="path48"
             style="fill:none;stroke:#FFFFFF;stroke-width:4;stroke-linecap:butt;stroke-linejoin:miter;stroke-miterlimit:4;stroke-dasharray:none;stroke-opacity:1"
             d="m 274.727,272.805 33.886,33.554" /><path
             id="path50"
             style="fill:#FFFFFF;fill-opacity:1;fill-rule:nonzero;stroke:none"
             d="m 50.2344,344.348 h 43.2734 v 22.5195 H 50.2344 Z" /><path
             id="path52"
             style="fill:#FFFFFF;fill-opacity:1;fill-rule:nonzero;stroke:none"
             d="m 192.402,344.348 h 43.2617 v 22.5195 H 192.402 Z" /><path
             id="path54"
             style="fill:#FFFFFF;fill-opacity:1;fill-rule:nonzero;stroke:none"
             d="m 50.2344,288.047 h 43.2734 v 22.5195 H 50.2344 Z" /><path
             id="path56"
             style="fill:#FFFFFF;fill-opacity:1;fill-rule:nonzero;stroke:none"
             d="m 192.402,288.047 h 43.2617 v 22.5195 H 192.402 Z" /><path
             id="path58"
             style="fill:#CC092F;fill-opacity:1;fill-rule:nonzero;stroke:none"
             d="M 79.5977,355.605 H 212.48" /><path
             id="path60"
             style="fill:none;stroke:#FFFFFF;stroke-width:4;stroke-linecap:butt;stroke-linejoin:miter;stroke-miterlimit:4;stroke-dasharray:none;stroke-opacity:1"
             d="M 79.5977,355.605 H 212.48" /><path
             id="path62"
             style="fill:#CC092F;fill-opacity:1;fill-rule:nonzero;stroke:none"
             d="M 79.5977,299.309 H 212.48" /><path
             id="path64"
             style="fill:none;stroke:#FFFFFF;stroke-width:4;stroke-linecap:butt;stroke-linejoin:miter;stroke-miterlimit:4;stroke-dasharray:none;stroke-opacity:1"
             d="M 79.5977,299.309 H 212.48" /><path
             id="path66"
             style="fill:#CC092F;fill-opacity:1;fill-rule:nonzero;stroke:none"
             d="M 71.875,299.309 212.48,355.605" /><path
             id="path68"
             style="fill:none;stroke:#FFFFFF;stroke-width:4;stroke-linecap:butt;stroke-linejoin:miter;stroke-miterlimit:4;stroke-dasharray:none;stroke-opacity:1"
             d="M 71.875,299.309 212.48,355.605" /><path
             id="path70"
             style="fill:#CC092F;fill-opacity:1;fill-rule:nonzero;stroke:none"
             d="M 71.875,355.605 212.48,299.309" /><path
             id="path72"
             style="fill:none;stroke:#FFFFFF;stroke-width:4;stroke-linecap:butt;stroke-linejoin:miter;stroke-miterlimit:4;stroke-dasharray:none;stroke-opacity:1"
             d="M 71.875,355.605 212.48,299.309" /><path
             id="path74"
             style="fill:#FFFFFF;fill-opacity:1;fill-rule:nonzero;stroke:none"
             d="m 146.406,177.773 v 57.989 h 9.844 l -14.52,21.886 -14.523,-21.886 h 9.844 v -57.989 h 9.355" /><path
             id="path76"
             style="fill:#FFFFFF;fill-opacity:1;fill-rule:nonzero;stroke:none"
             d="m 116.816,169.395 -40.9957,41.007 6.9531,6.953 -25.7421,5.215 5.2148,-25.746 6.9531,6.957 40.9958,-41.008 6.621,6.622" /><path
             id="path78"
             style="fill:#FFFFFF;fill-opacity:1;fill-rule:nonzero;stroke:none"
             d="M 101.824,142.551 H 43.8281 v 9.832 l -21.875,-14.512 21.875,-14.519 v 9.843 h 57.9959 v 9.356" /><path
             id="path80"
             style="fill:#FFFFFF;fill-opacity:1;fill-rule:nonzero;stroke:none"
             d="m 110.195,112.969 -40.9958,-41.0042 -6.9531,6.9493 -5.2148,-25.7383 25.7421,5.2148 -6.9531,6.9532 40.9957,41.0042 -6.621,6.621" /><path
             id="path82"
             style="fill:#FFFFFF;fill-opacity:1;fill-rule:nonzero;stroke:none"
             d="M 137.051,97.9688 V 39.9805 h -9.844 l 14.523,-21.8946 14.52,21.8946 h -9.844 v 57.9883 h -9.355" /><path
             id="path84"
             style="fill:#FFFFFF;fill-opacity:1;fill-rule:nonzero;stroke:none"
             d="m 166.633,106.348 41.004,-41.0042 -6.953,-6.9532 25.742,-5.2148 -5.215,25.7383 -6.953,-6.9493 -41.016,41.0042 -6.609,-6.621" /><path
             id="path86"
             style="fill:#FFFFFF;fill-opacity:1;fill-rule:nonzero;stroke:none"
             d="m 181.633,133.195 h 57.984 v -9.843 l 21.887,14.519 -21.887,14.512 v -9.832 h -57.984 v -9.356" /><path
             id="path88"
             style="fill:#FFFFFF;fill-opacity:1;fill-rule:nonzero;stroke:none"
             d="m 173.242,162.773 41.016,41.008 6.953,-6.957 5.215,25.746 -25.742,-5.215 6.953,-6.953 -41.004,-41.007 6.609,-6.622" /><path
             id="path90"
             style="fill:#FFFFFF;fill-opacity:1;fill-rule:nonzero;stroke:none"
             d="m 177.207,89.2695 c 27.168,19.0195 33.77,56.4645 14.746,83.6215 C 172.93,200.059 135.488,206.66 108.32,187.637 81.1602,168.613 74.5703,131.172 93.5859,104.016 112.598,76.8477 150.039,70.2539 177.207,89.2695" /></g></g></g></g></svg>