<?xml version="1.0" encoding="UTF-8" standalone="no"?>
<svg
   xmlns:dc="http://purl.org/dc/elements/1.1/"
   xmlns:cc="http://creativecommons.org/ns#"
   xmlns:rdf="http://www.w3.org/1999/02/22-rdf-syntax-ns#"
   xmlns:svg="http://www.w3.org/2000/svg"
   xmlns="http://www.w3.org/2000/svg"
   viewBox="0 0 54.106667 43.360001"
   height="43.360001"
   width="54.106667"
   xml:space="preserve"
   id="svg2"
   version="1.1"><metadata
     id="metadata8"><rdf:RDF><cc:Work
         rdf:about=""><dc:format>image/svg+xml</dc:format><dc:type
           rdf:resource="http://purl.org/dc/dcmitype/StillImage" /></cc:Work></rdf:RDF></metadata><defs
     id="defs6" /><g
     transform="matrix(1.3333333,0,0,-1.3333333,0,43.36)"
     id="g10"><g
       transform="scale(0.1)"
       id="g12"><path
         id="path14"
         style="fill:#CC092F;fill-opacity:1;fill-rule:nonzero;stroke:none"
         d="m 50.4648,68.1875 h 228.707 v 42.7852 H 50.4648 Z" /><path
         id="path16"
         style="fill:none;stroke:#FFFFFF;stroke-width:3.99993992;stroke-linecap:butt;stroke-linejoin:miter;stroke-miterlimit:4;stroke-dasharray:none;stroke-opacity:1"
         d="M 50.4648,68.1875 V 110.973 H 279.172 V 68.1875 Z" /><path
         id="path18"
         style="fill:#CC092F;fill-opacity:1;fill-rule:nonzero;stroke:none"
         d="M 317.883,149.977 V 106.762 L 279.172,67.7578 V 110.973 H 50.2969" /><path
         id="path20"
         style="fill:none;stroke:#FFFFFF;stroke-width:3.99993992;stroke-linecap:butt;stroke-linejoin:miter;stroke-miterlimit:4;stroke-dasharray:none;stroke-opacity:1"
         d="M 317.883,149.977 V 106.762 L 279.172,67.7578 V 110.973 H 50.2969" /><path
         id="path22"
         style="fill:#CC092F;fill-opacity:1;fill-rule:nonzero;stroke:none"
         d="M 52.1055,149.977 H 317.883" /><path
         id="path24"
         style="fill:none;stroke:#FFFFFF;stroke-width:3.99993992;stroke-linecap:butt;stroke-linejoin:miter;stroke-miterlimit:4;stroke-dasharray:none;stroke-opacity:1"
         d="M 52.1055,149.977 H 317.883" /><path
         id="path26"
         style="fill:#CC092F;fill-opacity:1;fill-rule:nonzero;stroke:none"
         d="m 279.172,110.973 38.711,39.004" /><path
         id="path28"
         style="fill:none;stroke:#FFFFFF;stroke-width:3.99993992;stroke-linecap:butt;stroke-linejoin:miter;stroke-miterlimit:4;stroke-dasharray:none;stroke-opacity:1"
         d="m 279.172,110.973 38.711,39.004" /><path
         id="path30"
         style="fill:#CC092F;fill-opacity:1;fill-rule:nonzero;stroke:none"
         d="M 267.859,36.918 V 62.2695 H 4.82813 L 34.7617,92.2031 H 297.805 V 66.8516 L 267.859,36.918" /><path
         id="path32"
         style="fill:none;stroke:#FFFFFF;stroke-width:3.99993992;stroke-linecap:butt;stroke-linejoin:miter;stroke-miterlimit:4;stroke-dasharray:none;stroke-opacity:1"
         d="M 267.859,36.918 V 62.2695 H 4.82813 L 34.7617,92.2031 H 297.805 V 66.8516 Z" /><path
         id="path34"
         style="fill:#CC092F;fill-opacity:1;fill-rule:nonzero;stroke:none"
         d="m 4.82813,36.918 h 263.031 V 62.2696 H 4.82813 Z" /><path
         id="path36"
         style="fill:none;stroke:#FFFFFF;stroke-width:3.99993992;stroke-linecap:butt;stroke-linejoin:miter;stroke-miterlimit:4;stroke-dasharray:none;stroke-opacity:1"
         d="M 267.859,62.2695 V 36.918 H 4.82813 v 25.3515 z" /><path
         id="path38"
         style="fill:#CC092F;fill-opacity:1;fill-rule:nonzero;stroke:none"
         d="m 267.859,62.2695 29.946,29.9336" /><path
         id="path40"
         style="fill:none;stroke:#FFFFFF;stroke-width:3.99993992;stroke-linecap:butt;stroke-linejoin:miter;stroke-miterlimit:4;stroke-dasharray:none;stroke-opacity:1"
         d="m 267.859,62.2695 29.946,29.9336" /><path
         id="path42"
         style="fill:#CC092F;fill-opacity:1;fill-rule:nonzero;stroke:none"
         d="m 50.2969,111.844 h 228.582 v 172.34 H 50.2969 Z" /><path
         id="path44"
         style="fill:none;stroke:#FFFFFF;stroke-width:3.99993992;stroke-linecap:butt;stroke-linejoin:miter;stroke-miterlimit:4;stroke-dasharray:none;stroke-opacity:1"
         d="m 278.879,111.844 v 172.34 H 50.2969 v -172.34 z" /><path
         id="path46"
         style="fill:#CC092F;fill-opacity:1;fill-rule:nonzero;stroke:none"
         d="m 278.879,111.844 39.004,39.004 v 172.34 H 89.293 L 50.2969,284.184 H 278.879 v -172.34" /><path
         id="path48"
         style="fill:none;stroke:#FFFFFF;stroke-width:3.99993992;stroke-linecap:butt;stroke-linejoin:miter;stroke-miterlimit:4;stroke-dasharray:none;stroke-opacity:1"
         d="m 278.879,111.844 39.004,39.004 v 172.34 H 89.293 L 50.2969,284.184 H 278.879 Z" /><path
         id="path50"
         style="fill:#CC092F;fill-opacity:1;fill-rule:nonzero;stroke:none"
         d="M 70.25,131.801 H 258.914 V 264.227 H 70.25 Z" /><path
         id="path52"
         style="fill:none;stroke:#FFFFFF;stroke-width:3.99993992;stroke-linecap:butt;stroke-linejoin:miter;stroke-miterlimit:4;stroke-dasharray:none;stroke-opacity:1"
         d="M 258.914,131.801 V 264.227 H 70.25 V 131.801 Z" /><path
         id="path54"
         style="fill:#CC092F;fill-opacity:1;fill-rule:nonzero;stroke:none"
         d="m 278.879,284.184 39.004,39.004" /><path
         id="path56"
         style="fill:none;stroke:#FFFFFF;stroke-width:3.99993992;stroke-linecap:butt;stroke-linejoin:miter;stroke-miterlimit:4;stroke-dasharray:none;stroke-opacity:1"
         d="m 278.879,284.184 39.004,39.004" /><path
         id="path58"
         style="fill:#CC092F;fill-opacity:1;fill-rule:nonzero;stroke:none"
         d="M 402.98,29.7695 363.508,84.5156 326.086,57.5352 365.574,2.79297 402.98,29.7695" /><path
         id="path60"
         style="fill:none;stroke:#FFFFFF;stroke-width:3.99993992;stroke-linecap:butt;stroke-linejoin:miter;stroke-miterlimit:4;stroke-dasharray:none;stroke-opacity:1"
         d="M 402.98,29.7695 363.508,84.5156 326.086,57.5352 365.574,2.79297 Z" /><path
         id="path62"
         style="fill:none;stroke:#CC092F;stroke-width:3.99993992;stroke-linecap:butt;stroke-linejoin:miter;stroke-miterlimit:4;stroke-dasharray:none;stroke-opacity:1"
         d="m 345.52,71.7148 c -6.743,11.25 -18.872,4.336 -16.309,23.0586 2.637,19.2536 -10.297,31.9886 -33.75,21.3786" /></g></g></svg>