<?xml version="1.0" encoding="utf-8"?>
<!-- Generator: Adobe Illustrator 20.1.0, SVG Export Plug-In . SVG Version: 6.00 Build 0)  -->
<svg version="1.1" id="Layer_1" xmlns="http://www.w3.org/2000/svg" xmlns:xlink="http://www.w3.org/1999/xlink" x="0px" y="0px"
	 viewBox="0 0 76.6 51" style="enable-background:new 0 0 76.6 51;" xml:space="preserve">
<style type="text/css">
	.st0{fill:#CC092F;stroke:#FFFFFF;stroke-width:0.8;}
	.st1{fill:#FFFFFF;}
	.st2{font-family:'Helvetica-Bold';}
	.st3{font-size:14px;}
</style>
	<g>
	<g>
		<rect x="1.1" y="10.8" class="st0" width="66.6" height="38.9"/>
		<polygon class="st0" points="75.7,38 67.8,49.7 67.8,10.8 75.7,1.1 		"/>
		<polygon class="st0" points="13.1,1.1 75.7,1.1 67.8,10.8 1.1,10.8 		"/>
	</g>
	<g>
		<text transform="matrix(1 0 0 1 20.1744 26.0395)" class="st1 st2 st3">UPS</text>
	</g>
	<path class="st1" d="M34,38c0,0,8.6-0.5,8.6-0.5s-10.6-4-12.6-4.8c0.1-0.1,9.7-0.2,9.7-0.2l-28.9-8l19,7c-0.1,0-7,0.5-7,0.5
		s7,3.4,9,4.1c-0.3,0.1-6.4,1.9-6.4,1.9l34.4,9.6L34,38z"/>
</g>
</svg>
