<?xml version="1.0" encoding="UTF-8" standalone="no"?>
<svg
   xmlns:dc="http://purl.org/dc/elements/1.1/"
   xmlns:cc="http://creativecommons.org/ns#"
   xmlns:rdf="http://www.w3.org/1999/02/22-rdf-syntax-ns#"
   xmlns:svg="http://www.w3.org/2000/svg"
   xmlns="http://www.w3.org/2000/svg"
   viewBox="0 0 42.186668 47.253334"
   height="47.253334"
   width="42.186668"
   xml:space="preserve"
   id="svg2"
   version="1.1"><metadata
     id="metadata8"><rdf:RDF><cc:Work
         rdf:about=""><dc:format>image/svg+xml</dc:format><dc:type
           rdf:resource="http://purl.org/dc/dcmitype/StillImage" /></cc:Work></rdf:RDF></metadata><defs
     id="defs6"><clipPath
       id="clipPath20"
       clipPathUnits="userSpaceOnUse"><path
         id="path18"
         d="M 0,4 V 354 H 316 V 4 Z" /></clipPath></defs><g
     transform="matrix(1.3333333,0,0,-1.3333333,0,47.253333)"
     id="g10"><g
       transform="scale(0.1)"
       id="g12"><g
         id="g14"><g
           clip-path="url(#clipPath20)"
           id="g16"><path
             id="path22"
             style="fill:#00B38A;fill-opacity:1;fill-rule:nonzero;stroke:none"
             d="m 314.664,291.566 c 0,-33.57 -69.98,-60.796 -156.328,-60.796 C 71.9922,230.77 2,257.996 2,291.566 V 62.7891 C 2,29.1953 71.9922,1.99219 158.336,1.99219 c 86.348,0 156.328,27.20311 156.328,60.79691 V 291.566" /><path
             id="path24"
             style="fill:none;stroke:#ffffff;stroke-width:4;stroke-linecap:butt;stroke-linejoin:miter;stroke-miterlimit:4;stroke-dasharray:none;stroke-opacity:1"
             d="m 314.664,291.566 c 0,-33.57 -69.98,-60.796 -156.328,-60.796 C 71.9922,230.77 2,257.996 2,291.566 V 62.7891 C 2,29.1953 71.9922,1.99219 158.336,1.99219 c 86.348,0 156.328,27.20311 156.328,60.79691 z" /><path
             id="path26"
             style="fill:#00B38A;fill-opacity:1;fill-rule:nonzero;stroke:none"
             d="m 158.336,230.77 c 86.348,0 156.328,27.226 156.328,60.796 0,33.586 -69.98,60.797 -156.328,60.797 C 71.9922,352.363 2,325.152 2,291.566 2,257.996 71.9922,230.77 158.336,230.77" /><path
             id="path28"
             style="fill:none;stroke:#ffffff;stroke-width:4;stroke-linecap:butt;stroke-linejoin:miter;stroke-miterlimit:4;stroke-dasharray:none;stroke-opacity:1"
             d="m 158.336,230.77 c 86.348,0 156.328,27.226 156.328,60.796 0,33.586 -69.98,60.797 -156.328,60.797 C 71.9922,352.363 2,325.152 2,291.566 2,257.996 71.9922,230.77 158.336,230.77 Z" /><path
             id="path30"
             style="fill:#ffffff;fill-opacity:1;fill-rule:nonzero;stroke:none"
             d="m 122.633,315.34 12.91,-19.36 -48.8047,-11.289 10.664,8.883 -75.4296,12.899 18.9179,14.179 72.7974,-12.316 8.945,7.004" /><path
             id="path32"
             style="fill:#ffffff;fill-opacity:1;fill-rule:nonzero;stroke:none"
             d="m 191.324,268.395 -8.828,19.949 44.043,8.801 -7.637,-6.836 73.379,-12.536 -17.597,-14.082 -72.95,13.696 -10.41,-8.992" /><path
             id="path34"
             style="fill:#ffffff;fill-opacity:1;fill-rule:nonzero;stroke:none"
             d="m 167.262,325.918 49.297,13.496 0.586,-21.133 -12.325,2.352 -24.082,-19.949 -22.949,3.336 24.824,19.519 -15.351,2.379" /><path
             id="path36"
             style="fill:#ffffff;fill-opacity:1;fill-rule:nonzero;stroke:none"
             d="m 146.129,250.18 -46.9767,-8.797 -1.7578,21.726 13.4965,-2.933 25.843,22.058 22.891,-3.867 -27.598,-24.07 14.102,-4.117" /><path
             id="path38"
             style="fill:#ffffff;fill-opacity:1;fill-rule:nonzero;stroke:none"
             d="m 160.738,150.594 v 49.289 h 8.379 l -12.344,18.594 -12.343,-18.594 h 8.359 v -49.289 h 7.949" /><path
             id="path40"
             style="fill:#ffffff;fill-opacity:1;fill-rule:nonzero;stroke:none"
             d="m 135.602,143.473 -34.848,34.847 5.906,5.907 -21.8827,4.433 4.4336,-21.879 5.9063,5.91 34.8598,-34.843 5.625,5.625" /><path
             id="path42"
             style="fill:#ffffff;fill-opacity:1;fill-rule:nonzero;stroke:none"
             d="M 122.867,120.645 H 73.5664 v 8.367 L 54.9609,116.68 73.5664,104.324 v 8.371 h 49.3006 v 7.95" /><path
             id="path44"
             style="fill:#ffffff;fill-opacity:1;fill-rule:nonzero;stroke:none"
             d="m 129.977,95.5117 -34.8598,-34.8633 -5.9063,5.9102 -4.4336,-21.8828 21.8827,4.4336 -5.906,5.9101 34.848,34.8633 -5.625,5.6289" /><path
             id="path46"
             style="fill:#ffffff;fill-opacity:1;fill-rule:nonzero;stroke:none"
             d="M 152.789,82.7578 V 33.4727 h -8.359 l 12.343,-18.6094 12.344,18.6094 h -8.379 v 49.2851 h -7.949" /><path
             id="path48"
             style="fill:#ffffff;fill-opacity:1;fill-rule:nonzero;stroke:none"
             d="m 177.945,89.8828 34.844,-34.8633 -5.918,-5.9101 21.895,-4.4336 -4.434,21.8828 -5.918,-5.9102 -34.844,34.8633 -5.625,-5.6289" /><path
             id="path50"
             style="fill:#ffffff;fill-opacity:1;fill-rule:nonzero;stroke:none"
             d="m 190.68,112.695 h 49.297 v -8.371 l 18.593,12.356 -18.593,12.332 v -8.367 H 190.68 v -7.95" /><path
             id="path52"
             style="fill:#ffffff;fill-opacity:1;fill-rule:nonzero;stroke:none"
             d="m 183.57,137.848 34.844,34.843 5.918,-5.91 4.434,21.879 -21.895,-4.433 5.918,-5.907 -34.844,-34.847 5.625,-5.625" /><path
             id="path54"
             style="fill:#ffffff;fill-opacity:1;fill-rule:nonzero;stroke:none"
             d="m 186.93,75.3555 c 23.086,16.1718 28.691,47.9925 12.519,71.0895 -16.172,23.09 -47.988,28.7 -71.074,12.535 -23.082,-16.171 -28.6875,-48 -12.52,-71.0894 16.172,-23.0898 47.989,-28.6875 71.075,-12.5351" /></g></g></g></g></svg>