<?xml version="1.0" encoding="UTF-8" standalone="no"?>
<svg
   xmlns:dc="http://purl.org/dc/elements/1.1/"
   xmlns:cc="http://creativecommons.org/ns#"
   xmlns:rdf="http://www.w3.org/1999/02/22-rdf-syntax-ns#"
   xmlns:svg="http://www.w3.org/2000/svg"
   xmlns="http://www.w3.org/2000/svg"
   viewBox="0 0 41.400002 37.946667"
   height="37.946667"
   width="41.400002"
   xml:space="preserve"
   id="svg2"
   version="1.1"><metadata
     id="metadata8"><rdf:RDF><cc:Work
         rdf:about=""><dc:format>image/svg+xml</dc:format><dc:type
           rdf:resource="http://purl.org/dc/dcmitype/StillImage" /></cc:Work></rdf:RDF></metadata><defs
     id="defs6"><clipPath
       id="clipPath20"
       clipPathUnits="userSpaceOnUse"><path
         id="path18"
         d="m 0,4.58984 h 310 v 280 H 0 Z" /></clipPath></defs><g
     transform="matrix(1.3333333,0,0,-1.3333333,0,37.946667)"
     id="g10"><g
       transform="scale(0.1)"
       id="g12"><g
         id="g14"><g
           clip-path="url(#clipPath20)"
           id="g16"><path
             id="path22"
             style="fill:#00B38A;fill-opacity:1;fill-rule:nonzero;stroke:none"
             d="M 2,3.10547 78.6133,37.9102 H 308.484 L 231.848,3.10547 H 2" /><path
             id="path24"
             style="fill:none;stroke:#ffffff;stroke-width:3.99993992;stroke-linecap:butt;stroke-linejoin:miter;stroke-miterlimit:4;stroke-dasharray:none;stroke-opacity:1"
             d="M 2,3.10547 78.6133,37.9102 H 308.484 L 231.848,3.10547 Z" /><path
             id="path26"
             style="fill:#00B38A;fill-opacity:1;fill-rule:nonzero;stroke:none"
             d="m 2,246.699 76.6133,34.785 V 37.9102 L 2,3.10547 V 246.699" /><path
             id="path28"
             style="fill:none;stroke:#ffffff;stroke-width:3.99993992;stroke-linecap:butt;stroke-linejoin:miter;stroke-miterlimit:4;stroke-dasharray:none;stroke-opacity:1"
             d="m 2,246.699 76.6133,34.785 V 37.9102 L 2,3.10547 Z" /><path
             id="path30"
             style="fill:#00B38A;fill-opacity:1;fill-rule:nonzero;stroke:none"
             d="m 78.6133,37.9102 h 229.871 v 243.574 H 78.6133 Z" /><path
             id="path32"
             style="fill:none;stroke:#ffffff;stroke-width:3.99993992;stroke-linecap:butt;stroke-linejoin:miter;stroke-miterlimit:4;stroke-dasharray:none;stroke-opacity:1"
             d="M 78.6133,281.484 H 308.484 V 37.9102 H 78.6133 Z" /><path
             id="path34"
             style="fill:#00B38A;fill-opacity:1;fill-rule:nonzero;stroke:none"
             d="m 2,246.699 76.6133,34.785 H 308.484 L 231.848,246.699 H 2" /><path
             id="path36"
             style="fill:none;stroke:#ffffff;stroke-width:3.99993992;stroke-linecap:butt;stroke-linejoin:miter;stroke-miterlimit:4;stroke-dasharray:none;stroke-opacity:1"
             d="m 2,246.699 76.6133,34.785 H 308.484 l -76.636,-34.785 z" /><path
             id="path38"
             style="fill:#00B38A;fill-opacity:1;fill-rule:nonzero;stroke:none"
             d="M 110.051,210.031 H 238.84" /><path
             id="path40"
             style="fill:none;stroke:#ffffff;stroke-width:3.99993992;stroke-linecap:butt;stroke-linejoin:miter;stroke-miterlimit:4;stroke-dasharray:none;stroke-opacity:1"
             d="M 110.051,210.031 H 238.84" /><path
             id="path42"
             style="fill:#00B38A;fill-opacity:1;fill-rule:nonzero;stroke:none"
             d="M 110.051,55.3672 H 238.84" /><path
             id="path44"
             style="fill:none;stroke:#ffffff;stroke-width:3.99993992;stroke-linecap:butt;stroke-linejoin:miter;stroke-miterlimit:4;stroke-dasharray:none;stroke-opacity:1"
             d="M 110.051,55.3672 H 238.84" /><path
             id="path46"
             style="fill:#ffffff;fill-opacity:1;fill-rule:nonzero;stroke:none"
             d="m 172.41,143.926 50.528,15.664 -50.528,14.769 v -30.433" /><path
             id="path48"
             style="fill:none;stroke:#ffffff;stroke-width:3.99993992;stroke-linecap:butt;stroke-linejoin:miter;stroke-miterlimit:4;stroke-dasharray:none;stroke-opacity:1"
             d="m 172.41,143.926 50.528,15.664 -50.528,14.769 z" /><path
             id="path50"
             style="fill:#00B38A;fill-opacity:1;fill-rule:nonzero;stroke:none"
             d="m 231.848,246.699 76.636,34.785 V 37.9102 L 231.848,3.10547 V 246.699" /><path
             id="path52"
             style="fill:none;stroke:#ffffff;stroke-width:3.99993992;stroke-linecap:butt;stroke-linejoin:miter;stroke-miterlimit:4;stroke-dasharray:none;stroke-opacity:1"
             d="m 231.848,246.699 76.636,34.785 V 37.9102 L 231.848,3.10547 Z" /><path
             id="path54"
             style="fill:#00B38A;fill-opacity:1;fill-rule:nonzero;stroke:none"
             d="m 269.895,208.266 c 7.832,0 24.918,-30.664 24.918,-73.598 0,-40.8672 -17.086,-73.5742 -24.918,-73.5742 -8.711,0 -22.622,32.707 -22.622,73.5742 0,42.934 13.911,73.598 22.622,73.598" /><path
             id="path56"
             style="fill:none;stroke:#ffffff;stroke-width:3.99993992;stroke-linecap:butt;stroke-linejoin:miter;stroke-miterlimit:4;stroke-dasharray:none;stroke-opacity:1"
             d="m 269.895,208.266 c 7.832,0 24.918,-30.664 24.918,-73.598 0,-40.8672 -17.086,-73.5742 -24.918,-73.5742 -8.711,0 -22.622,32.707 -22.622,73.5742 0,42.934 13.911,73.598 22.622,73.598" /><path
             id="path58"
             style="fill:#00B38A;fill-opacity:1;fill-rule:nonzero;stroke:none"
             d="m 110.723,209.766 c 8.23,0 26.179,-32.227 26.179,-77.356 0,-42.9452 -17.949,-77.3202 -26.179,-77.3202 -9.16,0 -26.0824,34.375 -26.0824,77.3202 0,45.129 16.9224,77.356 26.0824,77.356" /><path
             id="path60"
             style="fill:none;stroke:#ffffff;stroke-width:3.99993992;stroke-linecap:butt;stroke-linejoin:miter;stroke-miterlimit:4;stroke-dasharray:none;stroke-opacity:1"
             d="m 110.723,209.766 c 8.23,0 26.179,-32.227 26.179,-77.356 0,-42.9452 -17.949,-77.3202 -26.179,-77.3202 -9.16,0 -26.0824,34.375 -26.0824,77.3202 0,45.129 16.9224,77.356 26.0824,77.356" /><path
             id="path62"
             style="fill:#00B38A;fill-opacity:1;fill-rule:nonzero;stroke:none"
             d="M 224.844,106.621 H 172.676" /><path
             id="path64"
             style="fill:none;stroke:#ffffff;stroke-width:10;stroke-linecap:butt;stroke-linejoin:miter;stroke-miterlimit:4;stroke-dasharray:none;stroke-opacity:1"
             d="M 224.844,106.621 H 172.676" /><path
             id="path66"
             style="fill:#00B38A;fill-opacity:1;fill-rule:nonzero;stroke:none"
             d="m 120.48,160.102 h 52.184" /><path
             id="path68"
             style="fill:none;stroke:#ffffff;stroke-width:10;stroke-linecap:butt;stroke-linejoin:miter;stroke-miterlimit:4;stroke-dasharray:none;stroke-opacity:1"
             d="m 120.48,160.102 h 52.184" /><path
             id="path70"
             style="fill:#ffffff;fill-opacity:1;fill-rule:nonzero;stroke:none"
             d="m 175.93,121.414 -50.5,-15.66 50.5,-14.797 v 30.457" /><path
             id="path72"
             style="fill:none;stroke:#ffffff;stroke-width:3.99993992;stroke-linecap:butt;stroke-linejoin:miter;stroke-miterlimit:4;stroke-dasharray:none;stroke-opacity:1"
             d="m 175.93,121.414 -50.5,-15.66 50.5,-14.797 z" /></g></g></g></g></svg>