<?xml version="1.0" encoding="UTF-8" standalone="no"?>
<svg
   xmlns:dc="http://purl.org/dc/elements/1.1/"
   xmlns:cc="http://creativecommons.org/ns#"
   xmlns:rdf="http://www.w3.org/1999/02/22-rdf-syntax-ns#"
   xmlns:svg="http://www.w3.org/2000/svg"
   xmlns="http://www.w3.org/2000/svg"
   viewBox="0 0 50.799999 43.786667"
   height="43.786667"
   width="50.799999"
   xml:space="preserve"
   id="svg2"
   version="1.1"><metadata
     id="metadata8"><rdf:RDF><cc:Work
         rdf:about=""><dc:format>image/svg+xml</dc:format><dc:type
           rdf:resource="http://purl.org/dc/dcmitype/StillImage" /></cc:Work></rdf:RDF></metadata><defs
     id="defs6"><clipPath
       id="clipPath20"
       clipPathUnits="userSpaceOnUse"><path
         id="path18"
         d="M 0,328 H 380 V 0 H 0 Z" /></clipPath></defs><g
     transform="matrix(1.3333333,0,0,-1.3333333,0,43.786667)"
     id="g10"><g
       transform="scale(0.1)"
       id="g12"><g
         id="g14"><g
           clip-path="url(#clipPath20)"
           id="g16"><path
             id="path22"
             style="fill:#231f20;fill-opacity:1;fill-rule:nonzero;stroke:none"
             d="M 312.309,141.855 283.512,103.457 H 44.8789 l 39.0899,39.082 228.3402,-0.684" /><path
             id="path24"
             style="fill:none;stroke:#ffffff;stroke-width:3.99993992;stroke-linecap:butt;stroke-linejoin:miter;stroke-miterlimit:4;stroke-dasharray:none;stroke-opacity:1"
             d="M 312.309,141.855 283.512,103.457 H 44.8789 l 39.0899,39.082 z" /><path
             id="path26"
             style="fill:#0065A2;fill-opacity:1;fill-rule:nonzero;stroke:none"
             d="m 44.3008,60.2539 h 229.004 v 42.7148 H 44.3008 Z" /><path
             id="path28"
             style="fill:none;stroke:#ffffff;stroke-width:3.99993992;stroke-linecap:butt;stroke-linejoin:miter;stroke-miterlimit:4;stroke-dasharray:none;stroke-opacity:1"
             d="M 44.3008,60.2539 V 102.969 H 273.305 V 60.2539 Z" /><path
             id="path30"
             style="fill:#0065A2;fill-opacity:1;fill-rule:nonzero;stroke:none"
             d="m 43.5586,112.578 h 228.203 V 284.637 H 43.5586 Z" /><path
             id="path32"
             style="fill:none;stroke:#ffffff;stroke-width:3.99993992;stroke-linecap:butt;stroke-linejoin:miter;stroke-miterlimit:4;stroke-dasharray:none;stroke-opacity:1"
             d="M 43.5586,284.637 H 271.762 V 112.578 H 43.5586 Z" /><path
             id="path34"
             style="fill:#0065A2;fill-opacity:1;fill-rule:nonzero;stroke:none"
             d="m 271.762,112.578 38.937,38.945 V 323.574 L 271.762,284.637 V 112.578" /><path
             id="path36"
             style="fill:none;stroke:#ffffff;stroke-width:3.99993992;stroke-linecap:butt;stroke-linejoin:miter;stroke-miterlimit:4;stroke-dasharray:none;stroke-opacity:1"
             d="m 271.762,112.578 38.937,38.945 v 172.051 l -38.937,-38.937 z" /><path
             id="path38"
             style="fill:#0065A2;fill-opacity:1;fill-rule:nonzero;stroke:none"
             d="m 357.984,22.7148 17.461,34.9415 H 335.512 L 318.043,22.7148 h 39.941" /><path
             id="path40"
             style="fill:none;stroke:#ffffff;stroke-width:3.99993992;stroke-linecap:butt;stroke-linejoin:miter;stroke-miterlimit:4;stroke-dasharray:none;stroke-opacity:1"
             d="m 357.984,22.7148 17.461,34.9415 H 335.512 L 318.043,22.7148 Z" /><path
             id="path42"
             style="fill:#0065A2;fill-opacity:1;fill-rule:nonzero;stroke:none"
             d="m 318.043,11.4844 h 39.9414 V 22.7149 H 318.043 Z" /><path
             id="path44"
             style="fill:none;stroke:#ffffff;stroke-width:3.99993992;stroke-linecap:butt;stroke-linejoin:miter;stroke-miterlimit:4;stroke-dasharray:none;stroke-opacity:1"
             d="m 318.043,22.7148 h 39.941 V 11.4844 h -39.941 z" /><path
             id="path46"
             style="fill:#231f20;fill-opacity:1;fill-rule:nonzero;stroke:none"
             d="m 357.66,11.1719 0.11,11.5429 17.468,34.9415 -0.097,-24.0235 -17.481,-22.4609" /><path
             id="path48"
             style="fill:none;stroke:#ffffff;stroke-width:3.99993992;stroke-linecap:butt;stroke-linejoin:miter;stroke-miterlimit:4;stroke-dasharray:none;stroke-opacity:1"
             d="m 357.66,11.1719 0.11,11.5429 17.468,34.9415 -0.097,-24.0235 z" /><path
             id="path50"
             style="fill:#0065A2;fill-opacity:1;fill-rule:nonzero;stroke:none"
             d="m 273.121,60.1563 v 42.7347 l 38.68,38.691 V 98.8477 l -38.68,-38.6914" /><path
             id="path52"
             style="fill:none;stroke:#ffffff;stroke-width:3.99993992;stroke-linecap:butt;stroke-linejoin:miter;stroke-miterlimit:4;stroke-dasharray:none;stroke-opacity:1"
             d="m 273.121,60.1563 v 42.7347 l 38.68,38.691 V 98.8477 Z" /><path
             id="path54"
             style="fill:#0065A2;fill-opacity:1;fill-rule:nonzero;stroke:none"
             d="M 81.4414,264.813 H 233.93 c 9.933,0 17.968,-8.047 17.968,-17.969 v -96.336 c 0,-9.922 -8.035,-17.969 -17.968,-17.969 H 81.4414 c -9.9336,0 -17.9805,8.047 -17.9805,17.969 v 96.336 c 0,9.922 8.0469,17.969 17.9805,17.969" /><path
             id="path56"
             style="fill:none;stroke:#ffffff;stroke-width:3.99993992;stroke-linecap:butt;stroke-linejoin:miter;stroke-miterlimit:4;stroke-dasharray:none;stroke-opacity:1"
             d="M 81.4414,264.813 H 233.93 c 9.933,0 17.968,-8.047 17.968,-17.969 v -96.336 c 0,-9.922 -8.035,-17.969 -17.968,-17.969 H 81.4414 c -9.9336,0 -17.9805,8.047 -17.9805,17.969 v 96.336 c 0,9.922 8.0469,17.969 17.9805,17.969 z" /><path
             id="path58"
             style="fill:#0065A2;fill-opacity:1;fill-rule:nonzero;stroke:none"
             d="M 310.699,323.574 H 88.7344 L 43.5586,284.637 H 271.762 l 38.937,38.937" /><path
             id="path60"
             style="fill:none;stroke:#ffffff;stroke-width:3.99993992;stroke-linecap:butt;stroke-linejoin:miter;stroke-miterlimit:4;stroke-dasharray:none;stroke-opacity:1"
             d="M 310.699,323.574 H 88.7344 L 43.5586,284.637 H 271.762 Z" /><path
             id="path62"
             style="fill:#0065A2;fill-opacity:1;fill-rule:nonzero;stroke:none"
             d="M 266.508,4.82422 V 18.6719 l 29.883,41.3476 V 34.707 L 266.508,4.82422" /><path
             id="path64"
             style="fill:none;stroke:#ffffff;stroke-width:3.99993992;stroke-linecap:butt;stroke-linejoin:miter;stroke-miterlimit:4;stroke-dasharray:none;stroke-opacity:1"
             d="M 266.508,4.82422 V 18.6719 l 29.883,41.3476 V 34.707 Z" /><path
             id="path66"
             style="fill:#0065A2;fill-opacity:1;fill-rule:nonzero;stroke:none"
             d="M 266.508,18.4648 H 3.90234 L 33.7852,60.0195 H 296.391 L 266.508,18.4648" /><path
             id="path68"
             style="fill:none;stroke:#ffffff;stroke-width:3.99993992;stroke-linecap:butt;stroke-linejoin:miter;stroke-miterlimit:4;stroke-dasharray:none;stroke-opacity:1"
             d="M 266.508,18.4648 H 3.90234 L 33.7852,60.0195 H 296.391 Z" /><path
             id="path70"
             style="fill:#0065A2;fill-opacity:1;fill-rule:nonzero;stroke:none"
             d="m 3.74609,4.82422 h 262.762 v 13.6406 H 3.74609 Z" /><path
             id="path72"
             style="fill:none;stroke:#ffffff;stroke-width:3.99993992;stroke-linecap:butt;stroke-linejoin:miter;stroke-miterlimit:4;stroke-dasharray:none;stroke-opacity:1"
             d="M 266.508,18.4648 V 4.82422 H 3.74609 V 18.4648 Z" /><path
             id="path74"
             style="fill:none;stroke:#0065A2;stroke-width:5;stroke-linecap:butt;stroke-linejoin:miter;stroke-miterlimit:4;stroke-dasharray:none;stroke-opacity:1"
             d="m 365.465,56.4063 c 31.199,14.9804 6.238,78.6207 -55.93,46.7387" /><path
             id="path76"
             style="fill:#ffffff;fill-opacity:1;fill-rule:nonzero;stroke:none"
             d="m 153.063,207.305 8.289,0.008 1.925,-1.922 h 6.407 l 7.129,5.214 7.714,0.02 6.582,-7.305 7.293,0.02 7.95,7.324 6.679,0.012 5.762,-6.262 h 6.613 l 2.469,4.766 19.297,-11.739 -13.516,-11.406 -80.574,-0.137 v -2.617 l -12.57,-0.019 c -3.153,-0.008 -5.867,-1.875 -7.129,-4.571 -5.965,-9.414 -16.406,-15.664 -28.309,-15.683 -18.5662,-0.039 -33.6131,15.097 -33.6131,33.777 0,18.684 15.0469,33.86 33.6131,33.887 11.758,0.031 22.098,-6.043 28.094,-15.242 1.164,-2.922 4.004,-4.981 7.324,-4.981 l 12.571,0.02 v -3.164" /><path
             id="path78"
             style="fill:none;stroke:#231f20;stroke-width:3.50006008;stroke-linecap:butt;stroke-linejoin:round;stroke-miterlimit:4;stroke-dasharray:none;stroke-opacity:1"
             d="m 239.645,191.523 -86.563,-0.136 c -3.391,-0.02 -8.144,-0.918 -12.531,-2.774 4.387,-1.828 9.14,-2.715 12.531,-2.715" /><path
             id="path80"
             style="fill:none;stroke:#231f20;stroke-width:3.50006008;stroke-linecap:butt;stroke-linejoin:round;stroke-miterlimit:4;stroke-dasharray:none;stroke-opacity:1"
             d="m 243.395,199.414 -86.575,-0.137 c -3.836,-0.011 -11.882,0.762 -13.711,1.493" /><path
             id="path82"
             style="fill:#ffffff;fill-opacity:1;fill-rule:nonzero;stroke:none"
             d="m 105.074,166.641 c 16.571,0.031 30.008,13.574 30.008,30.254 0,16.679 -13.437,30.175 -30.008,30.148 -16.574,-0.031 -30.0115,-13.566 -30.0115,-30.246 0,-16.68 13.4375,-30.188 30.0115,-30.156" /><path
             id="path84"
             style="fill:none;stroke:#231f20;stroke-width:2.5;stroke-linecap:butt;stroke-linejoin:round;stroke-miterlimit:4;stroke-dasharray:none;stroke-opacity:1"
             d="m 105.074,166.641 c 16.571,0.031 30.008,13.574 30.008,30.254 0,16.679 -13.437,30.175 -30.008,30.148 -16.574,-0.031 -30.0115,-13.566 -30.0115,-30.246 0,-16.68 13.4375,-30.188 30.0115,-30.156 z" /><path
             id="path86"
             style="fill:#ffffff;fill-opacity:1;fill-rule:nonzero;stroke:none"
             d="m 87.8867,188.887 c 4.3438,0 7.8711,3.554 7.8711,7.937 0,4.375 -3.5273,7.922 -7.8711,7.922 -4.3476,-0.019 -7.8711,-3.574 -7.8711,-7.949 0,-4.375 3.5235,-7.91 7.8711,-7.91" /><path
             id="path88"
             style="fill:none;stroke:#231f20;stroke-width:3.50006008;stroke-linecap:butt;stroke-linejoin:round;stroke-miterlimit:4;stroke-dasharray:none;stroke-opacity:1"
             d="m 87.8867,188.887 c 4.3438,0 7.8711,3.554 7.8711,7.937 0,4.375 -3.5273,7.922 -7.8711,7.922 -4.3476,-0.019 -7.8711,-3.574 -7.8711,-7.949 0,-4.375 3.5235,-7.91 7.8711,-7.91 z" /></g></g></g></g></svg>