<?xml version="1.0" encoding="UTF-8" standalone="no"?>
<svg
   xmlns:dc="http://purl.org/dc/elements/1.1/"
   xmlns:cc="http://creativecommons.org/ns#"
   xmlns:rdf="http://www.w3.org/1999/02/22-rdf-syntax-ns#"
   xmlns:svg="http://www.w3.org/2000/svg"
   xmlns="http://www.w3.org/2000/svg"
   viewBox="0 0 14.693333 39.84"
   height="39.84"
   width="14.693333"
   xml:space="preserve"
   id="svg2"
   version="1.1"><metadata
     id="metadata8"><rdf:RDF><cc:Work
         rdf:about=""><dc:format>image/svg+xml</dc:format><dc:type
           rdf:resource="http://purl.org/dc/dcmitype/StillImage" /></cc:Work></rdf:RDF></metadata><defs
     id="defs6" /><g
     transform="matrix(1.3333333,0,0,-1.3333333,0,39.84)"
     id="g10"><g
       transform="scale(0.1)"
       id="g12"><path
         id="path14"
         style="fill:#0065A2;fill-opacity:1;fill-rule:nonzero;stroke:none"
         d="M 1.41797,129.355 H 25.5859 L 0,0 h 34.8242 l 21.0821,94.5313 c 0,0 10.8906,-73.9258 15.871,-93.816456 5.5469,0 25.4844,0 36.9687,0 C 106.598,9.23828 87.418,118.691 86.6953,130.066 c 2.8516,0 18.4957,-1.421 23.4567,-0.711 0,5.684 -4.257,34.825 -4.257,41.934 0,7.109 -6.3872,39.09 -8.5356,46.199 -1.836,6.164 -14.1992,15.637 -20.6016,17.766 -6.4062,2.137 -19.1992,1.426 -26.2969,1.426 -7.1132,0 -15,-1.797 -22.0429,-3.555 C 22.7344,231.699 16.3398,222.469 14.2109,216.777 12.0703,211.094 9.23828,193.32 7.10938,184.797 4.96094,176.27 4.25781,144.277 2.83203,139.309 1.41797,134.336 1.41797,129.355 1.41797,129.355" /><path
         id="path16"
         style="fill:#ffffff;fill-opacity:1;fill-rule:nonzero;stroke:none"
         d="m 69.4141,236.445 c -2.6172,0.235 -6.875,0 -10.8985,0.235 -4.0234,0.234 -9.9609,0 -12.7929,-0.235 -2.8516,-0.234 -9.7149,-1.894 -10.4297,-1.894 -0.7032,0 -1.1836,0.469 -1.1836,0.469 l 17.0625,-60.645 24.6289,60.645 c -0.1367,1.738 -2.0313,0.644 -3.1953,1.296" /><path
         id="path18"
         style="fill:none;stroke:#ffffff;stroke-width:1.89498997;stroke-linecap:butt;stroke-linejoin:miter;stroke-miterlimit:4;stroke-dasharray:none;stroke-opacity:1"
         d="m 69.4141,236.445 c -2.6172,0.235 -6.875,0 -10.8985,0.235 -4.0234,0.234 -9.9609,0 -12.7929,-0.235 -2.8516,-0.234 -9.7149,-1.894 -10.4297,-1.894 -0.7032,0 -1.1836,0.469 -1.1836,0.469 l 17.0625,-60.645 24.6289,60.645 c -0.1367,1.738 -2.0313,0.644 -3.1953,1.296" /><path
         id="path20"
         style="fill:#ffffff;fill-opacity:1;fill-rule:nonzero;stroke:none"
         d="m 54.8438,238.133 c 16.2304,0 29.3906,13.164 29.3906,29.406 0,16.238 -13.1602,29.402 -29.3906,29.402 -16.2422,0 -29.4024,-13.164 -29.4024,-29.402 0,-16.242 13.1602,-29.406 29.4024,-29.406" /><path
         id="path22"
         style="fill:none;stroke:#0065A2;stroke-width:3.99993992;stroke-linecap:butt;stroke-linejoin:miter;stroke-miterlimit:4;stroke-dasharray:none;stroke-opacity:1"
         d="m 54.8438,238.133 c 16.2304,0 29.3906,13.164 29.3906,29.406 0,16.238 -13.1602,29.402 -29.3906,29.402 -16.2422,0 -29.4024,-13.164 -29.4024,-29.402 0,-16.242 13.1602,-29.406 29.4024,-29.406 z" /></g></g></svg>