<?xml version="1.0" encoding="UTF-8" standalone="no"?>
<svg
   xmlns:dc="http://purl.org/dc/elements/1.1/"
   xmlns:cc="http://creativecommons.org/ns#"
   xmlns:rdf="http://www.w3.org/1999/02/22-rdf-syntax-ns#"
   xmlns:svg="http://www.w3.org/2000/svg"
   xmlns="http://www.w3.org/2000/svg"
   viewBox="0 0 41.799999 55.946667"
   height="55.946667"
   width="41.799999"
   xml:space="preserve"
   id="svg2"
   version="1.1"><metadata
     id="metadata8"><rdf:RDF><cc:Work
         rdf:about=""><dc:format>image/svg+xml</dc:format><dc:type
           rdf:resource="http://purl.org/dc/dcmitype/StillImage" /></cc:Work></rdf:RDF></metadata><defs
     id="defs6" /><g
     transform="matrix(1.3333333,0,0,-1.3333333,0,55.946667)"
     id="g10"><g
       transform="scale(0.1)"
       id="g12"><path
         id="path14"
         style="fill:#0065A2;fill-opacity:1;fill-rule:nonzero;stroke:none"
         d="M 6.46484,4.79688 V 272.816 H 274.727 V 4.79688 H 6.46484" /><path
         id="path16"
         style="fill:none;stroke:#ffffff;stroke-width:4;stroke-linecap:butt;stroke-linejoin:miter;stroke-miterlimit:4;stroke-dasharray:none;stroke-opacity:1"
         d="M 6.46484,4.79688 V 272.816 H 274.727 V 4.79688 Z" /><path
         id="path18"
         style="fill:#0065A2;fill-opacity:1;fill-rule:nonzero;stroke:none"
         d="M 308.613,38.3516 V 306.371 L 274.727,272.816 V 4.79688 l 33.886,33.55472" /><path
         id="path20"
         style="fill:none;stroke:#ffffff;stroke-width:4;stroke-linecap:butt;stroke-linejoin:miter;stroke-miterlimit:4;stroke-dasharray:none;stroke-opacity:1"
         d="M 308.613,38.3516 V 306.371 L 274.727,272.816 V 4.79688 Z" /><path
         id="path22"
         style="fill:#0065A2;fill-opacity:1;fill-rule:nonzero;stroke:none"
         d="M 55.5078,414.785 6.46484,381.23 H 274.727 l 33.886,33.555 H 55.5078" /><path
         id="path24"
         style="fill:none;stroke:#ffffff;stroke-width:4;stroke-linecap:butt;stroke-linejoin:miter;stroke-miterlimit:4;stroke-dasharray:none;stroke-opacity:1"
         d="M 55.5078,414.785 6.46484,381.23 H 274.727 l 33.886,33.555 z" /><path
         id="path26"
         style="fill:#0065A2;fill-opacity:1;fill-rule:nonzero;stroke:none"
         d="M 6.46484,272.816 V 381.23 H 274.727 V 272.816 H 6.46484" /><path
         id="path28"
         style="fill:none;stroke:#ffffff;stroke-width:4;stroke-linecap:butt;stroke-linejoin:miter;stroke-miterlimit:4;stroke-dasharray:none;stroke-opacity:1"
         d="M 6.46484,272.816 V 381.23 H 274.727 V 272.816 Z" /><path
         id="path30"
         style="fill:#0065A2;fill-opacity:1;fill-rule:nonzero;stroke:none"
         d="M 308.613,306.371 V 414.785 L 274.727,381.23 V 272.816 l 33.886,33.555" /><path
         id="path32"
         style="fill:none;stroke:#ffffff;stroke-width:4;stroke-linecap:butt;stroke-linejoin:miter;stroke-miterlimit:4;stroke-dasharray:none;stroke-opacity:1"
         d="M 308.613,306.371 V 414.785 L 274.727,381.23 V 272.816 Z" /><path
         id="path34"
         style="fill:#0065A2;fill-opacity:1;fill-rule:nonzero;stroke:none"
         d="m 274.727,272.816 33.886,33.555" /><path
         id="path36"
         style="fill:none;stroke:#ffffff;stroke-width:4;stroke-linecap:butt;stroke-linejoin:miter;stroke-miterlimit:4;stroke-dasharray:none;stroke-opacity:1"
         d="m 274.727,272.816 33.886,33.555" /><path
         id="path38"
         style="fill:#ffffff;fill-opacity:1;fill-rule:nonzero;stroke:none"
         d="m 93.4961,344.32 v 22.368 H 50.2344 V 344.32 h 43.2617" /><path
         id="path40"
         style="fill:#ffffff;fill-opacity:1;fill-rule:nonzero;stroke:none"
         d="m 192.402,344.32 v 22.368 h 43.262 V 344.32 h -43.262" /><path
         id="path42"
         style="fill:#ffffff;fill-opacity:1;fill-rule:nonzero;stroke:none"
         d="M 93.4961,288.051 V 310.57 H 50.2344 v -22.519 h 43.2617" /><path
         id="path44"
         style="fill:#ffffff;fill-opacity:1;fill-rule:nonzero;stroke:none"
         d="m 192.402,288.051 v 22.519 h 43.262 v -22.519 h -43.262" /><path
         id="path46"
         style="fill:#231f20;fill-opacity:1;fill-rule:nonzero;stroke:none"
         d="M 79.5898,355.508 H 212.48" /><path
         id="path48"
         style="fill:none;stroke:#ffffff;stroke-width:4;stroke-linecap:butt;stroke-linejoin:miter;stroke-miterlimit:4;stroke-dasharray:none;stroke-opacity:1"
         d="M 79.5898,355.508 H 212.48" /><path
         id="path50"
         style="fill:#231f20;fill-opacity:1;fill-rule:nonzero;stroke:none"
         d="M 79.5898,299.313 H 212.48" /><path
         id="path52"
         style="fill:none;stroke:#ffffff;stroke-width:4;stroke-linecap:butt;stroke-linejoin:miter;stroke-miterlimit:4;stroke-dasharray:none;stroke-opacity:1"
         d="M 79.5898,299.313 H 212.48" /><path
         id="path54"
         style="fill:#231f20;fill-opacity:1;fill-rule:nonzero;stroke:none"
         d="M 71.875,299.313 212.48,355.508" /><path
         id="path56"
         style="fill:none;stroke:#ffffff;stroke-width:4;stroke-linecap:butt;stroke-linejoin:miter;stroke-miterlimit:4;stroke-dasharray:none;stroke-opacity:1"
         d="M 71.875,299.313 212.48,355.508" /><path
         id="path58"
         style="fill:#231f20;fill-opacity:1;fill-rule:nonzero;stroke:none"
         d="M 71.875,355.508 212.48,299.313" /><path
         id="path60"
         style="fill:none;stroke:#ffffff;stroke-width:4;stroke-linecap:butt;stroke-linejoin:miter;stroke-miterlimit:4;stroke-dasharray:none;stroke-opacity:1"
         d="M 71.875,355.508 212.48,299.313" /><path
         id="path62"
         style="fill:#ffffff;fill-opacity:1;fill-rule:nonzero;stroke:none"
         d="m 90.5117,152.18 v 22.578 h 3.836 l -5.6407,8.512 -5.6562,-8.512 H 86.875 V 152.18 h 3.6367" /><path
         id="path64"
         style="fill:#ffffff;fill-opacity:1;fill-rule:nonzero;stroke:none"
         d="m 79.0078,148.918 -15.9648,15.953 2.7031,2.734 -10.0273,2.012 2.0312,-10.015 2.7148,2.711 15.9649,-15.973 2.5781,2.578" /><path
         id="path66"
         style="fill:#ffffff;fill-opacity:1;fill-rule:nonzero;stroke:none"
         d="M 73.1641,138.469 H 50.5859 v 3.828 l -8.5195,-5.649 8.5195,-5.664 v 3.829 h 22.5782 v 3.656" /><path
         id="path68"
         style="fill:#ffffff;fill-opacity:1;fill-rule:nonzero;stroke:none"
         d="m 76.4297,126.941 -15.9649,-15.972 -2.7148,2.715 -2.0312,-10.043 10.0273,2.05 -2.7031,2.715 15.9648,15.957 -2.5781,2.578" /><path
         id="path70"
         style="fill:#ffffff;fill-opacity:1;fill-rule:nonzero;stroke:none"
         d="M 86.875,121.102 V 98.5234 h -3.8242 l 5.6562,-8.5117 5.6407,8.5117 h -3.836 V 121.102 H 86.875" /><path
         id="path72"
         style="fill:#ffffff;fill-opacity:1;fill-rule:nonzero;stroke:none"
         d="m 100.973,146.34 15.961,15.973 2.707,-2.711 2.039,10.015 -10.032,-2.012 2.711,-2.734 -15.9606,-15.953 2.5746,-2.578" /><path
         id="path74"
         style="fill:#ffffff;fill-opacity:1;fill-rule:nonzero;stroke:none"
         d="m 102.516,117.727 c 10.589,7.402 13.152,21.968 5.738,32.554 -7.402,10.586 -21.9727,13.149 -32.5548,5.742 -10.5859,-7.402 -13.1523,-21.992 -5.7422,-32.554 7.4024,-10.586 21.9961,-13.164 32.559,-5.742" /><path
         id="path76"
         style="fill:#ffffff;fill-opacity:1;fill-rule:nonzero;stroke:none"
         d="m 100.484,124.363 15.957,-15.957 -2.703,-2.715 10.024,-2.05 -2.039,10.043 -2.696,-2.715 -15.964,15.972 -2.579,-2.578" /><path
         id="path78"
         style="fill:#ffffff;fill-opacity:1;fill-rule:nonzero;stroke:none"
         d="m 190.137,152.18 v 22.578 h -3.836 l 5.64,8.512 5.657,-8.512 H 193.77 V 152.18 h -3.633" /><path
         id="path80"
         style="fill:#ffffff;fill-opacity:1;fill-rule:nonzero;stroke:none"
         d="m 201.641,148.918 15.964,15.953 -2.703,2.734 10.02,2.012 -2.031,-10.015 -2.703,2.711 -15.969,-15.973 -2.578,2.578" /><path
         id="path82"
         style="fill:#ffffff;fill-opacity:1;fill-rule:nonzero;stroke:none"
         d="m 207.48,138.469 h 22.579 v 3.828 l 8.515,-5.649 -8.515,-5.664 v 3.829 H 207.48 v 3.656" /><path
         id="path84"
         style="fill:#ffffff;fill-opacity:1;fill-rule:nonzero;stroke:none"
         d="m 204.219,126.941 15.969,-15.972 2.703,2.715 2.031,-10.043 -10.02,2.05 2.703,2.715 -15.964,15.957 2.578,2.578" /><path
         id="path86"
         style="fill:#ffffff;fill-opacity:1;fill-rule:nonzero;stroke:none"
         d="M 193.77,121.102 V 98.5234 h 3.828 l -5.657,-8.5117 -5.64,8.5117 h 3.836 v 22.5786 h 3.633" /><path
         id="path88"
         style="fill:#ffffff;fill-opacity:1;fill-rule:nonzero;stroke:none"
         d="m 179.68,146.34 -15.969,15.973 -2.699,-2.711 -2.047,10.015 10.039,-2.012 -2.715,-2.734 15.957,-15.953 -2.566,-2.578" /><path
         id="path90"
         style="fill:#ffffff;fill-opacity:1;fill-rule:nonzero;stroke:none"
         d="m 178.137,117.727 c -10.598,7.402 -13.16,21.968 -5.742,32.554 7.402,10.586 21.968,13.149 32.554,5.742 10.586,-7.402 13.149,-21.992 5.742,-32.554 -7.41,-10.586 -22,-13.164 -32.554,-5.742" /><path
         id="path92"
         style="fill:#ffffff;fill-opacity:1;fill-rule:nonzero;stroke:none"
         d="m 180.164,124.363 -15.953,-15.957 2.691,-2.715 -10.015,-2.05 2.035,10.043 2.699,-2.715 15.957,15.972 2.586,-2.578" /><path
         id="path94"
         style="fill:none;stroke:#ffffff;stroke-width:9.73400021;stroke-linecap:butt;stroke-linejoin:miter;stroke-miterlimit:4;stroke-dasharray:none;stroke-opacity:1"
         d="m 102.074,136.355 h 76.5" /><path
         id="path96"
         style="fill:none;stroke:#ffffff;stroke-width:4;stroke-linecap:butt;stroke-linejoin:miter;stroke-miterlimit:4;stroke-dasharray:none;stroke-opacity:1"
         d="m 145.855,136.57 c 0,-16.402 -2.82,-29.707 -6.292,-29.707 -3.485,0 -6.305,13.305 -6.305,29.707 0,16.407 2.82,29.692 6.305,29.692 3.472,0 6.292,-13.285 6.292,-29.692 z" /><path
         id="path98"
         style="fill:none;stroke:#ffffff;stroke-width:4;stroke-linecap:butt;stroke-linejoin:miter;stroke-miterlimit:4;stroke-dasharray:18, 18;stroke-dashoffset:0;stroke-opacity:1"
         d="M 247.195,54.3867 H 32.3242 V 223.141 H 247.195 Z" /></g></g></svg>