<?xml version="1.0"  encoding="UTF-8" standalone="no"?>
<svg version="1.1" xmlns="http://www.w3.org/2000/svg" xmlns:xlink="http://www.w3.org/1999/xlink" width="594.0000" height="712.0000">
<g transform="translate(10.0000, 74.0000)">
<path d="M 497.0000,13.0000 C 441.0000,-43.0000 366.0000,-74.0000 287.0000,-74.0000 C 207.0000,-74.0000 133.0000,-43.0000 77.0000,13.0000 C 21.0000,69.0000 -10.0000,143.0000 -10.0000,223.0000 C -10.0000,302.0000 21.0000,377.0000 77.0000,433.0000 C 133.0000,489.0000 207.0000,520.0000 287.0000,520.0000 C 366.0000,520.0000 441.0000,489.0000 497.0000,433.0000 C 553.0000,377.0000 584.0000,302.0000 584.0000,223.0000 C 584.0000,143.0000 553.0000,69.0000 497.0000,13.0000 Z M 14.0000,223.0000 C 14.0000,73.0000 136.0000,-50.0000 287.0000,-50.0000 C 437.0000,-50.0000 559.0000,73.0000 559.0000,223.0000 C 559.0000,373.0000 437.0000,495.0000 287.0000,495.0000 C 136.0000,495.0000 14.0000,373.0000 14.0000,223.0000 Z "  fill="#FF5A00" stroke="none" />
<path d="M 188.0000,608.0000 L 188.0000,608.0000 L 166.0000,547.0000 L 145.0000,547.0000 L 145.0000,636.0000 L 162.0000,636.0000 L 162.0000,573.0000 L 162.0000,573.0000 L 184.0000,636.0000 L 205.0000,636.0000 L 205.0000,547.0000 L 188.0000,547.0000 L 188.0000,608.0000 Z "  fill="#FF5A00" stroke-width="1px" stroke="#FFFFFF" />
<path d="M 246.0000,601.0000 C 258.0000,601.0000 258.0000,601.0000 258.0000,601.0000 C 258.0000,610.0000 258.0000,610.0000 258.0000,610.0000 C 258.0000,620.0000 251.0000,625.0000 247.0000,625.0000 C 237.0000,625.0000 235.0000,611.0000 235.0000,590.0000 C 235.0000,567.0000 238.0000,558.0000 247.0000,558.0000 C 254.0000,558.0000 257.0000,567.0000 257.0000,573.0000 C 274.0000,573.0000 274.0000,573.0000 274.0000,573.0000 C 274.0000,555.0000 266.0000,545.0000 247.0000,545.0000 C 224.0000,545.0000 217.0000,560.0000 217.0000,590.0000 C 217.0000,621.0000 221.0000,638.0000 243.0000,638.0000 C 252.0000,638.0000 258.0000,635.0000 262.0000,628.0000 C 262.0000,628.0000 262.0000,628.0000 262.0000,628.0000 C 262.0000,636.0000 262.0000,636.0000 262.0000,636.0000 C 275.0000,636.0000 275.0000,636.0000 275.0000,636.0000 C 275.0000,588.0000 275.0000,588.0000 275.0000,588.0000 C 246.0000,588.0000 246.0000,588.0000 246.0000,588.0000 Z "  fill="#FF5A00" stroke="none" />
<path d="M 287.0000,636.0000 L 305.0000,636.0000 L 305.0000,597.0000 L 335.0000,597.0000 L 335.0000,583.0000 L 305.0000,583.0000 L 305.0000,561.0000 L 337.0000,561.0000 L 337.0000,547.0000 L 287.0000,547.0000 L 287.0000,636.0000 Z "  fill="#FF5A00" stroke-width="1px" stroke="#FFFFFF" />
<path d="M 406.0000,613.0000 L 406.0000,613.0000 L 395.0000,547.0000 L 378.0000,547.0000 L 367.0000,613.0000 L 367.0000,613.0000 L 357.0000,547.0000 L 340.0000,547.0000 L 356.0000,636.0000 L 376.0000,636.0000 L 386.0000,571.0000 L 387.0000,571.0000 L 397.0000,636.0000 L 417.0000,636.0000 L 433.0000,547.0000 L 416.0000,547.0000 L 406.0000,613.0000 Z "  fill="#FF5A00" stroke-width="1px" stroke="#FFFFFF" />
<path d="M 274.0000,65.0000 L 104.0000,65.0000 L 104.0000,158.0000 L 234.0000,158.0000 L 234.0000,123.0000 L 271.0000,158.0000 L 274.0000,158.0000 L 274.0000,65.0000 Z "  fill="#FF5A00" stroke-width="1px" stroke="#FFFFFF" />
<path d="M 167.0000,270.0000 L 167.0000,177.0000 L 104.0000,177.0000 L 104.0000,270.0000 L 167.0000,270.0000 Z "  fill="#FF5A00" stroke-width="1px" stroke="#FFFFFF" />
<path d="M 252.0000,382.0000 L 274.0000,382.0000 L 274.0000,360.0000 L 252.0000,382.0000 Z "  fill="#FF5A00" stroke-width="1px" stroke="#FFFFFF" />
<path d="M 104.0000,382.0000 L 234.0000,382.0000 L 234.0000,288.0000 L 104.0000,288.0000 L 104.0000,382.0000 Z "  fill="#FF5A00" stroke-width="1px" stroke="#FFFFFF" />
<path d="M 370.0000,288.0000 L 350.0000,288.0000 L 298.0000,338.0000 L 298.0000,382.0000 L 370.0000,382.0000 L 370.0000,288.0000 Z "  fill="#FF5A00" stroke-width="1px" stroke="#FFFFFF" />
<path d="M 387.0000,382.0000 L 468.0000,382.0000 L 468.0000,305.0000 L 387.0000,382.0000 Z "  fill="#FF5A00" stroke-width="1px" stroke="#FFFFFF" />
<path d="M 468.0000,216.0000 L 468.0000,177.0000 L 426.0000,177.0000 L 468.0000,216.0000 Z "  fill="#FF5A00" stroke-width="1px" stroke="#FFFFFF" />
<path d="M 369.0000,270.0000 L 370.0000,270.0000 L 370.0000,269.0000 L 369.0000,270.0000 Z "  fill="#FF5A00" stroke-width="1px" stroke="#FFFFFF" />
<path d="M 189.0000,270.0000 L 234.0000,270.0000 L 234.0000,177.0000 L 189.0000,177.0000 L 189.0000,270.0000 Z "  fill="#FF5A00" stroke-width="1px" stroke="#FFFFFF" />
<path d="M 370.0000,253.0000 L 370.0000,177.0000 L 291.0000,177.0000 L 370.0000,253.0000 Z "  fill="#FF5A00" stroke-width="1px" stroke="#FFFFFF" />
<path d="M 297.0000,158.0000 L 370.0000,158.0000 L 370.0000,123.0000 L 407.0000,158.0000 L 467.0000,158.0000 L 467.0000,65.0000 L 297.0000,65.0000 L 297.0000,158.0000 Z "  fill="#FF5A00" stroke-width="1px" stroke="#FFFFFF" />
<path d="M 384.0000,155.0000 L 384.0000,367.0000 L 495.0000,261.0000 L 384.0000,155.0000 Z "  fill="#FF5A00" stroke-width="1px" stroke="#FFFFFF" />
<path d="M 359.0000,261.0000 L 248.0000,155.0000 L 248.0000,367.0000 L 359.0000,261.0000 Z "  fill="#FF5A00" stroke-width="1px" stroke="#FFFFFF" />
</g>
</svg>
