<?xml version="1.0"  encoding="UTF-8" standalone="no"?>
<svg version="1.1" xmlns="http://www.w3.org/2000/svg" xmlns:xlink="http://www.w3.org/1999/xlink" width="594.0000" height="715.0000">
<g transform="translate(10.0000, 76.0000)">
<path d="M 497.0000,11.0000 C 441.0000,-45.0000 366.0000,-76.0000 287.0000,-76.0000 C 207.0000,-76.0000 133.0000,-45.0000 77.0000,11.0000 C 21.0000,67.0000 -10.0000,142.0000 -10.0000,221.0000 C -10.0000,301.0000 21.0000,375.0000 77.0000,431.0000 C 133.0000,487.0000 207.0000,518.0000 287.0000,518.0000 C 366.0000,518.0000 441.0000,487.0000 497.0000,431.0000 C 553.0000,375.0000 584.0000,301.0000 584.0000,221.0000 C 584.0000,142.0000 553.0000,67.0000 497.0000,11.0000 Z M 287.0000,494.0000 C 136.0000,494.0000 14.0000,371.0000 14.0000,221.0000 C 14.0000,71.0000 136.0000,-51.0000 287.0000,-51.0000 C 437.0000,-51.0000 559.0000,71.0000 559.0000,221.0000 C 559.0000,371.0000 437.0000,494.0000 287.0000,494.0000 Z "  fill="#FF5A00" stroke="none" />
<path d="M 216.0000,639.0000 L 234.0000,639.0000 L 234.0000,601.0000 L 264.0000,601.0000 L 264.0000,586.0000 L 234.0000,586.0000 L 234.0000,565.0000 L 266.0000,565.0000 L 266.0000,550.0000 L 216.0000,550.0000 L 216.0000,639.0000 Z "  fill="#FF5A00" stroke-width="1px" stroke="#FFFFFF" />
<path d="M 335.0000,616.0000 L 335.0000,616.0000 L 324.0000,550.0000 L 307.0000,550.0000 L 297.0000,616.0000 L 296.0000,616.0000 L 286.0000,550.0000 L 269.0000,550.0000 L 285.0000,639.0000 L 306.0000,639.0000 L 316.0000,574.0000 L 316.0000,574.0000 L 326.0000,639.0000 L 346.0000,639.0000 L 362.0000,550.0000 L 345.0000,550.0000 L 335.0000,616.0000 Z "  fill="#FF5A00" stroke-width="1px" stroke="#FFFFFF" />
<path d="M 276.0000,64.0000 L 106.0000,64.0000 L 106.0000,157.0000 L 276.0000,157.0000 L 276.0000,64.0000 Z "  fill="#FF5A00" stroke-width="1px" stroke="#FFFFFF" />
<path d="M 390.0000,127.0000 C 390.0000,122.0000 390.0000,122.0000 390.0000,122.0000 C 393.0000,125.0000 393.0000,125.0000 393.0000,125.0000 C 407.0000,135.0000 420.0000,146.0000 432.0000,157.0000 C 470.0000,157.0000 470.0000,157.0000 470.0000,157.0000 C 470.0000,64.0000 470.0000,64.0000 470.0000,64.0000 C 300.0000,64.0000 300.0000,64.0000 300.0000,64.0000 C 300.0000,157.0000 300.0000,157.0000 300.0000,157.0000 C 388.0000,157.0000 388.0000,157.0000 388.0000,157.0000 C 389.0000,148.0000 390.0000,137.0000 390.0000,127.0000 Z "  fill="#FF5A00" stroke="none" />
<path d="M 353.0000,228.0000 C 363.0000,213.0000 375.0000,198.0000 382.0000,176.0000 C 191.0000,176.0000 191.0000,176.0000 191.0000,176.0000 C 191.0000,269.0000 191.0000,269.0000 191.0000,269.0000 C 328.0000,269.0000 328.0000,269.0000 328.0000,269.0000 C 334.0000,253.0000 344.0000,240.0000 353.0000,228.0000 Z "  fill="#FF5A00" stroke="none" />
<path d="M 470.0000,176.0000 C 459.0000,176.0000 459.0000,176.0000 459.0000,176.0000 C 463.0000,180.0000 467.0000,185.0000 470.0000,189.0000 Z "  fill="#FF5A00" stroke="none" />
<path d="M 169.0000,176.0000 L 106.0000,176.0000 L 106.0000,269.0000 L 169.0000,269.0000 L 169.0000,176.0000 Z "  fill="#FF5A00" stroke-width="1px" stroke="#FFFFFF" />
<path d="M 106.0000,381.0000 L 276.0000,381.0000 L 276.0000,288.0000 L 106.0000,288.0000 L 106.0000,381.0000 Z "  fill="#FF5A00" stroke-width="1px" stroke="#FFFFFF" />
<path d="M 320.0000,288.0000 C 300.0000,288.0000 300.0000,288.0000 300.0000,288.0000 C 300.0000,381.0000 300.0000,381.0000 300.0000,381.0000 C 364.0000,381.0000 364.0000,381.0000 364.0000,381.0000 C 330.0000,361.0000 314.0000,328.0000 320.0000,288.0000 Z "  fill="#FF5A00" stroke="none" />
<path d="M 508.0000,283.0000 C 485.0000,203.0000 402.0000,145.0000 402.0000,145.0000 C 403.0000,212.0000 342.0000,242.0000 332.0000,295.0000 C 321.0000,363.0000 391.0000,380.0000 391.0000,380.0000 C 391.0000,380.0000 366.0000,363.0000 367.0000,333.0000 C 368.0000,310.0000 388.0000,298.0000 390.0000,274.0000 C 411.0000,287.0000 411.0000,310.0000 411.0000,310.0000 C 448.0000,268.0000 430.0000,228.0000 430.0000,228.0000 C 533.0000,316.0000 446.0000,381.0000 446.0000,381.0000 C 446.0000,381.0000 526.0000,364.0000 508.0000,283.0000 Z "  fill="#FF5A00" stroke="none" />
</g>
</svg>
