<?xml version="1.0"  encoding="UTF-8" standalone="no"?>
<svg version="1.1" xmlns="http://www.w3.org/2000/svg" xmlns:xlink="http://www.w3.org/1999/xlink" width="349.0000" height="349.0000">
<g transform="translate(-112.0000, -112.0000)">
<path d="M 163.0000,453.0000 C 163.0000,453.0000 163.0000,453.0000 163.0000,453.0000 C 373.0000,243.0000 373.0000,243.0000 373.0000,243.0000 C 382.0000,246.0000 392.0000,247.0000 401.0000,246.0000 C 416.0000,244.0000 430.0000,238.0000 441.0000,227.0000 C 455.0000,214.0000 461.0000,196.0000 461.0000,179.0000 C 461.0000,175.0000 461.0000,170.0000 460.0000,166.0000 C 423.0000,203.0000 423.0000,203.0000 423.0000,203.0000 C 381.0000,192.0000 381.0000,192.0000 381.0000,192.0000 C 370.0000,150.0000 370.0000,150.0000 370.0000,150.0000 C 407.0000,113.0000 407.0000,113.0000 407.0000,113.0000 C 386.0000,109.0000 362.0000,115.0000 346.0000,131.0000 C 335.0000,143.0000 328.0000,157.0000 327.0000,172.0000 C 326.0000,174.0000 326.0000,177.0000 326.0000,179.0000 C 326.0000,186.0000 327.0000,193.0000 329.0000,199.0000 C 121.0000,411.0000 121.0000,411.0000 121.0000,411.0000 C 121.0000,411.0000 121.0000,411.0000 121.0000,411.0000 C 115.0000,416.0000 112.0000,424.0000 112.0000,432.0000 C 112.0000,448.0000 125.0000,461.0000 142.0000,461.0000 C 150.0000,461.0000 157.0000,458.0000 163.0000,453.0000 Z "  fill="#FF5A00" stroke="none" />
<path d="M 383.0000,189.0000 L 383.0000,189.0000 Z "  fill="#FF5A00" stroke-width="1px" stroke="#FFFFFF" />
<path d="M 383.0000,189.0000 L 383.0000,189.0000 " stroke="none" stroke-width="0.0" fill="none" />
<path d="M 115.0000,125.0000 C 117.0000,127.0000 119.0000,129.0000 122.0000,131.0000 C 134.0000,144.0000 134.0000,144.0000 134.0000,144.0000 C 147.0000,157.0000 147.0000,157.0000 147.0000,157.0000 C 151.0000,161.0000 151.0000,161.0000 151.0000,161.0000 C 149.0000,164.0000 149.0000,164.0000 149.0000,164.0000 C 239.0000,254.0000 239.0000,254.0000 239.0000,254.0000 C 232.0000,275.0000 232.0000,275.0000 232.0000,275.0000 C 410.0000,452.0000 410.0000,452.0000 410.0000,452.0000 C 410.0000,452.0000 410.0000,452.0000 410.0000,452.0000 C 416.0000,458.0000 423.0000,461.0000 431.0000,461.0000 C 448.0000,461.0000 461.0000,448.0000 461.0000,432.0000 C 461.0000,423.0000 458.0000,416.0000 452.0000,411.0000 C 452.0000,411.0000 452.0000,411.0000 452.0000,411.0000 C 276.0000,233.0000 276.0000,233.0000 276.0000,233.0000 C 256.0000,240.0000 256.0000,240.0000 256.0000,240.0000 C 164.0000,148.0000 164.0000,148.0000 164.0000,148.0000 C 161.0000,151.0000 161.0000,151.0000 161.0000,151.0000 C 157.0000,147.0000 157.0000,147.0000 157.0000,147.0000 C 145.0000,134.0000 145.0000,134.0000 145.0000,134.0000 C 132.0000,121.0000 132.0000,121.0000 132.0000,121.0000 C 130.0000,119.0000 128.0000,117.0000 125.0000,115.0000 C 122.0000,114.0000 118.0000,113.0000 114.0000,113.0000 C 114.0000,118.0000 115.0000,121.0000 115.0000,125.0000 Z "  fill="#FF5A00" stroke="none" />
</g>
</svg>
