<?xml version="1.0" encoding="UTF-8" standalone="no"?>
<svg
   xmlns:dc="http://purl.org/dc/elements/1.1/"
   xmlns:cc="http://creativecommons.org/ns#"
   xmlns:rdf="http://www.w3.org/1999/02/22-rdf-syntax-ns#"
   xmlns:svg="http://www.w3.org/2000/svg"
   xmlns="http://www.w3.org/2000/svg"
   viewBox="0 0 41.799999 55.973331"
   height="55.973331"
   width="41.799999"
   xml:space="preserve"
   id="svg2"
   version="1.1"><metadata
     id="metadata8"><rdf:RDF><cc:Work
         rdf:about=""><dc:format>image/svg+xml</dc:format><dc:type
           rdf:resource="http://purl.org/dc/dcmitype/StillImage" /></cc:Work></rdf:RDF></metadata><defs
     id="defs6" /><g
     transform="matrix(1.3333333,0,0,-1.3333333,0,55.973333)"
     id="g10"><g
       transform="scale(0.1)"
       id="g12"><path
         id="path14"
         style="fill:#CC092F;fill-opacity:1;fill-rule:nonzero;stroke:none"
         d="M 6.46484,4.79688 V 272.82 H 274.73 V 4.79688 H 6.46484" /><path
         id="path16"
         style="fill:none;stroke:#ffffff;stroke-width:4;stroke-linecap:butt;stroke-linejoin:miter;stroke-miterlimit:4;stroke-dasharray:none;stroke-opacity:1"
         d="M 6.46484,4.79688 V 272.82 H 274.73 V 4.79688 Z" /><path
         id="path18"
         style="fill:#CC092F;fill-opacity:1;fill-rule:nonzero;stroke:none"
         d="M 308.617,38.3477 V 306.379 L 274.73,272.82 V 4.79688 l 33.887,33.55082" /><path
         id="path20"
         style="fill:none;stroke:#ffffff;stroke-width:4;stroke-linecap:butt;stroke-linejoin:miter;stroke-miterlimit:4;stroke-dasharray:none;stroke-opacity:1"
         d="M 308.617,38.3477 V 306.379 L 274.73,272.82 V 4.79688 Z" /><path
         id="path22"
         style="fill:#CC092F;fill-opacity:1;fill-rule:nonzero;stroke:none"
         d="M 55.5156,415.023 6.46484,381.473 H 274.73 l 33.887,33.55 H 55.5156" /><path
         id="path24"
         style="fill:none;stroke:#ffffff;stroke-width:4;stroke-linecap:butt;stroke-linejoin:miter;stroke-miterlimit:4;stroke-dasharray:none;stroke-opacity:1"
         d="M 55.5156,415.023 6.46484,381.473 H 274.73 l 33.887,33.55 z" /><path
         id="path26"
         style="fill:#CC092F;fill-opacity:1;fill-rule:nonzero;stroke:none"
         d="M 6.46484,272.82 V 381.473 H 274.73 V 272.82 H 6.46484" /><path
         id="path28"
         style="fill:none;stroke:#ffffff;stroke-width:4;stroke-linecap:butt;stroke-linejoin:miter;stroke-miterlimit:4;stroke-dasharray:none;stroke-opacity:1"
         d="M 6.46484,272.82 V 381.473 H 274.73 V 272.82 Z" /><path
         id="path30"
         style="fill:#CC092F;fill-opacity:1;fill-rule:nonzero;stroke:none"
         d="M 308.617,306.379 V 415.023 L 274.73,381.473 V 272.82 l 33.887,33.559" /><path
         id="path32"
         style="fill:none;stroke:#ffffff;stroke-width:4;stroke-linecap:butt;stroke-linejoin:miter;stroke-miterlimit:4;stroke-dasharray:none;stroke-opacity:1"
         d="M 308.617,306.379 V 415.023 L 274.73,381.473 V 272.82 Z" /><path
         id="path34"
         style="fill:#CC092F;fill-opacity:1;fill-rule:nonzero;stroke:none"
         d="M 274.73,272.82 H 6.46484" /><path
         id="path36"
         style="fill:none;stroke:#ffffff;stroke-width:4;stroke-linecap:butt;stroke-linejoin:miter;stroke-miterlimit:4;stroke-dasharray:none;stroke-opacity:1"
         d="M 274.73,272.82 H 6.46484" /><path
         id="path38"
         style="fill:#CC092F;fill-opacity:1;fill-rule:nonzero;stroke:none"
         d="m 274.73,272.82 33.887,33.559" /><path
         id="path40"
         style="fill:none;stroke:#ffffff;stroke-width:4;stroke-linecap:butt;stroke-linejoin:miter;stroke-miterlimit:4;stroke-dasharray:none;stroke-opacity:1"
         d="m 274.73,272.82 33.887,33.559" /><path
         id="path42"
         style="fill:#ffffff;fill-opacity:1;fill-rule:nonzero;stroke:none"
         d="m 93.5078,344.355 v 22.52 H 50.2383 v -22.52 h 43.2695" /><path
         id="path44"
         style="fill:#ffffff;fill-opacity:1;fill-rule:nonzero;stroke:none"
         d="m 192.406,344.355 v 22.52 h 43.262 v -22.52 h -43.262" /><path
         id="path46"
         style="fill:#ffffff;fill-opacity:1;fill-rule:nonzero;stroke:none"
         d="m 93.5078,288.055 v 22.523 H 50.2383 v -22.523 h 43.2695" /><path
         id="path48"
         style="fill:#ffffff;fill-opacity:1;fill-rule:nonzero;stroke:none"
         d="m 192.406,288.055 v 22.523 h 43.262 v -22.523 h -43.262" /><path
         id="path50"
         style="fill:#000000;fill-opacity:1;fill-rule:nonzero;stroke:none"
         d="M 79.5977,355.613 H 212.484" /><path
         id="path52"
         style="fill:none;stroke:#ffffff;stroke-width:4;stroke-linecap:butt;stroke-linejoin:miter;stroke-miterlimit:4;stroke-dasharray:none;stroke-opacity:1"
         d="M 79.5977,355.613 H 212.484" /><path
         id="path54"
         style="fill:#000000;fill-opacity:1;fill-rule:nonzero;stroke:none"
         d="M 79.5977,299.316 H 212.484" /><path
         id="path56"
         style="fill:none;stroke:#ffffff;stroke-width:4;stroke-linecap:butt;stroke-linejoin:miter;stroke-miterlimit:4;stroke-dasharray:none;stroke-opacity:1"
         d="M 79.5977,299.316 H 212.484" /><path
         id="path58"
         style="fill:#000000;fill-opacity:1;fill-rule:nonzero;stroke:none"
         d="m 71.875,299.316 140.609,56.297" /><path
         id="path60"
         style="fill:none;stroke:#ffffff;stroke-width:4;stroke-linecap:butt;stroke-linejoin:miter;stroke-miterlimit:4;stroke-dasharray:none;stroke-opacity:1"
         d="m 71.875,299.316 140.609,56.297" /><path
         id="path62"
         style="fill:#000000;fill-opacity:1;fill-rule:nonzero;stroke:none"
         d="M 71.875,355.613 212.484,299.316" /><path
         id="path64"
         style="fill:none;stroke:#ffffff;stroke-width:4;stroke-linecap:butt;stroke-linejoin:miter;stroke-miterlimit:4;stroke-dasharray:none;stroke-opacity:1"
         d="M 71.875,355.613 212.484,299.316" /><path
         id="path66"
         style="fill:#ffffff;fill-opacity:1;fill-rule:nonzero;stroke:none"
         d="m 79.7578,212.004 v 23.18 h 3.9375 l -5.8086,8.761 -5.8047,-8.761 h 3.9297 v -23.18 h 3.7461" /><path
         id="path68"
         style="fill:#ffffff;fill-opacity:1;fill-rule:nonzero;stroke:none"
         d="m 67.9258,208.641 -16.4063,16.406 2.7813,2.785 -10.293,2.082 2.082,-10.293 2.7813,2.781 16.4023,-16.406 2.6524,2.645" /><path
         id="path70"
         style="fill:#ffffff;fill-opacity:1;fill-rule:nonzero;stroke:none"
         d="M 61.9219,197.91 H 38.7266 v 3.934 l -8.75,-5.809 8.75,-5.812 v 3.937 h 23.1953 v 3.75" /><path
         id="path72"
         style="fill:#ffffff;fill-opacity:1;fill-rule:nonzero;stroke:none"
         d="m 65.2734,186.074 -16.4023,-16.406 -2.7813,2.785 -2.082,-10.293 10.293,2.078 -2.7813,2.782 16.4063,16.406 -2.6524,2.648" /><path
         id="path74"
         style="fill:#ffffff;fill-opacity:1;fill-rule:nonzero;stroke:none"
         d="M 76.0117,180.078 V 156.883 H 72.082 l 5.8047,-8.758 5.8086,8.758 h -3.9375 v 23.195 h -3.7461" /><path
         id="path76"
         style="fill:#ffffff;fill-opacity:1;fill-rule:nonzero;stroke:none"
         d="m 93.8477,194.16 h 23.1953 v -3.937 l 8.754,5.812 -8.754,5.809 V 197.91 H 93.8477 v -3.75" /><path
         id="path78"
         style="fill:#ffffff;fill-opacity:1;fill-rule:nonzero;stroke:none"
         d="m 90.4922,205.996 16.4058,16.406 2.778,-2.781 2.086,10.293 -10.293,-2.082 2.781,-2.785 -16.4023,-16.406 2.6445,-2.645" /><path
         id="path80"
         style="fill:#ffffff;fill-opacity:1;fill-rule:nonzero;stroke:none"
         d="m 92.0742,176.59 c 10.8708,7.621 13.5118,22.59 5.8985,33.457 -7.6055,10.863 -22.5821,13.5 -33.4454,5.898 -10.871,-7.613 -13.5078,-22.586 -5.8984,-33.457 7.6055,-10.855 22.582,-13.492 33.4453,-5.898" /><path
         id="path82"
         style="fill:#ffffff;fill-opacity:1;fill-rule:nonzero;stroke:none"
         d="m 79.7578,85.332 v 23.191 h 3.9375 l -5.8086,8.75 -5.8047,-8.75 h 3.9297 V 85.332 h 3.7461" /><path
         id="path84"
         style="fill:#ffffff;fill-opacity:1;fill-rule:nonzero;stroke:none"
         d="m 67.9258,81.9805 -16.4063,16.4062 2.7813,2.7773 -10.293,2.09 2.082,-10.3048 2.7813,2.7813 16.4023,-16.4024 2.6524,2.6524" /><path
         id="path86"
         style="fill:#ffffff;fill-opacity:1;fill-rule:nonzero;stroke:none"
         d="M 61.9219,71.2383 H 38.7266 v 3.9375 l -8.75,-5.8125 8.75,-5.8008 v 3.9258 h 23.1953 v 3.75" /><path
         id="path88"
         style="fill:#ffffff;fill-opacity:1;fill-rule:nonzero;stroke:none"
         d="M 65.2734,59.4023 48.8711,43 l -2.7813,2.793 -2.082,-10.3047 10.293,2.0781 -2.7813,2.793 16.4063,16.4062 -2.6524,2.6367" /><path
         id="path90"
         style="fill:#ffffff;fill-opacity:1;fill-rule:nonzero;stroke:none"
         d="M 76.0117,53.4102 V 30.2148 H 72.082 l 5.8047,-8.7578 5.8086,8.7578 h -3.9375 v 23.1954 h -3.7461" /><path
         id="path92"
         style="fill:#ffffff;fill-opacity:1;fill-rule:nonzero;stroke:none"
         d="M 87.8477,56.7656 104.25,40.3594 101.469,37.5664 111.762,35.4883 109.676,45.793 106.898,43 90.4922,59.4023 87.8477,56.7656" /><path
         id="path94"
         style="fill:#ffffff;fill-opacity:1;fill-rule:nonzero;stroke:none"
         d="m 93.8477,67.4883 h 23.1953 v -3.9258 l 8.754,5.8008 -8.754,5.8125 V 71.2383 H 93.8477 v -3.75" /><path
         id="path96"
         style="fill:#ffffff;fill-opacity:1;fill-rule:nonzero;stroke:none"
         d="M 92.0742,49.9297 C 102.945,57.5391 105.586,72.5078 97.9727,83.3789 90.3672,94.25 75.3906,96.8828 64.5273,89.2773 53.6563,81.6719 51.0195,66.6875 58.6289,55.832 66.2344,44.9609 81.2109,42.3242 92.0742,49.9297" /><path
         id="path98"
         style="fill:#ffffff;fill-opacity:1;fill-rule:nonzero;stroke:none"
         d="m 206.43,212.004 v 23.18 h 3.937 l -5.812,8.761 -5.801,-8.761 h 3.926 v -23.18 h 3.75" /><path
         id="path100"
         style="fill:#ffffff;fill-opacity:1;fill-rule:nonzero;stroke:none"
         d="m 194.594,208.641 -16.406,16.406 2.785,2.785 -10.293,2.082 2.078,-10.293 2.785,2.781 16.395,-16.406 2.656,2.645" /><path
         id="path102"
         style="fill:#ffffff;fill-opacity:1;fill-rule:nonzero;stroke:none"
         d="m 188.598,197.91 h -23.203 v 3.934 l -8.75,-5.809 8.75,-5.812 v 3.937 h 23.203 v 3.75" /><path
         id="path104"
         style="fill:#ffffff;fill-opacity:1;fill-rule:nonzero;stroke:none"
         d="m 202.68,180.078 v -23.195 h -3.926 l 5.801,-8.758 5.812,8.758 h -3.937 v 23.195 h -3.75" /><path
         id="path106"
         style="fill:#ffffff;fill-opacity:1;fill-rule:nonzero;stroke:none"
         d="m 214.516,183.426 16.406,-16.406 -2.781,-2.782 10.293,-2.078 -2.082,10.293 -2.782,-2.785 -16.406,16.406 -2.648,-2.648" /><path
         id="path108"
         style="fill:#ffffff;fill-opacity:1;fill-rule:nonzero;stroke:none"
         d="m 220.512,194.16 h 23.203 v -3.937 l 8.75,5.812 -8.75,5.809 v -3.934 h -23.203 v -3.75" /><path
         id="path110"
         style="fill:#ffffff;fill-opacity:1;fill-rule:nonzero;stroke:none"
         d="m 217.164,205.996 16.406,16.406 2.782,-2.781 2.082,10.293 -10.293,-2.082 2.781,-2.785 -16.406,-16.406 2.648,-2.645" /><path
         id="path112"
         style="fill:#ffffff;fill-opacity:1;fill-rule:nonzero;stroke:none"
         d="m 218.746,176.59 c 10.867,7.621 13.504,22.59 5.899,33.457 -7.61,10.863 -22.59,13.5 -33.45,5.898 -10.867,-7.613 -13.504,-22.586 -5.898,-33.457 7.609,-10.855 22.578,-13.492 33.449,-5.898" /><path
         id="path114"
         style="fill:#ffffff;fill-opacity:1;fill-rule:nonzero;stroke:none"
         d="m 206.43,85.332 v 23.191 h 3.937 l -5.812,8.75 -5.801,-8.75 h 3.926 V 85.332 h 3.75" /><path
         id="path116"
         style="fill:#ffffff;fill-opacity:1;fill-rule:nonzero;stroke:none"
         d="m 188.598,71.2383 h -23.203 v 3.9375 l -8.75,-5.8125 8.75,-5.8008 v 3.9258 h 23.203 v 3.75" /><path
         id="path118"
         style="fill:#ffffff;fill-opacity:1;fill-rule:nonzero;stroke:none"
         d="M 191.938,59.4023 175.543,43 l -2.785,2.793 -2.078,-10.3047 10.293,2.0781 -2.785,2.793 16.406,16.4062 -2.656,2.6367" /><path
         id="path120"
         style="fill:#ffffff;fill-opacity:1;fill-rule:nonzero;stroke:none"
         d="M 202.68,53.4102 V 30.2148 h -3.926 l 5.801,-8.7578 5.812,8.7578 h -3.937 v 23.1954 h -3.75" /><path
         id="path122"
         style="fill:#ffffff;fill-opacity:1;fill-rule:nonzero;stroke:none"
         d="m 214.516,56.7656 16.406,-16.4062 -2.781,-2.793 10.293,-2.0781 L 236.352,45.793 233.57,43 217.164,59.4023 214.516,56.7656" /><path
         id="path124"
         style="fill:#ffffff;fill-opacity:1;fill-rule:nonzero;stroke:none"
         d="m 220.512,67.4883 h 23.203 v -3.9258 l 8.75,5.8008 -8.75,5.8125 v -3.9375 h -23.203 v -3.75" /><path
         id="path126"
         style="fill:#ffffff;fill-opacity:1;fill-rule:nonzero;stroke:none"
         d="m 217.164,79.3281 16.406,16.4024 2.782,-2.7813 2.082,10.3048 -10.293,-2.09 2.781,-2.7773 -16.406,-16.4062 2.648,-2.6524" /><path
         id="path128"
         style="fill:#ffffff;fill-opacity:1;fill-rule:nonzero;stroke:none"
         d="m 218.746,49.9297 c 10.867,7.6094 13.504,22.5781 5.899,33.4492 -7.61,10.8711 -22.59,13.5039 -33.45,5.8984 -10.867,-7.6054 -13.504,-22.5898 -5.898,-33.4453 7.609,-10.8711 22.578,-13.5078 33.449,-5.9023" /><path
         id="path130"
         style="fill:none;stroke:#ffffff;stroke-width:10;stroke-linecap:butt;stroke-linejoin:miter;stroke-miterlimit:4;stroke-dasharray:none;stroke-opacity:1"
         d="M 90.2773,183.348 193.617,80.0195" /><path
         id="path132"
         style="fill:none;stroke:#ffffff;stroke-width:10;stroke-linecap:butt;stroke-linejoin:miter;stroke-miterlimit:4;stroke-dasharray:none;stroke-opacity:1"
         d="M 88.3828,80.0195 195.043,186.688" /></g></g></svg>