<?xml version="1.0"  encoding="UTF-8" standalone="no"?>
<svg version="1.1" xmlns="http://www.w3.org/2000/svg" xmlns:xlink="http://www.w3.org/1999/xlink" width="1244.0000" height="1501.0000">
<g transform="translate(335.0000, 474.0000)">
<path d="M 860.0000,-94.0000 C 829.0000,-168.0000 784.0000,-235.0000 727.0000,-292.0000 C 670.0000,-349.0000 603.0000,-394.0000 529.0000,-425.0000 C 452.0000,-457.0000 371.0000,-474.0000 287.0000,-474.0000 C 203.0000,-474.0000 122.0000,-457.0000 45.0000,-425.0000 C -29.0000,-394.0000 -95.0000,-349.0000 -152.0000,-292.0000 C -210.0000,-235.0000 -254.0000,-168.0000 -286.0000,-94.0000 C -318.0000,-17.0000 -335.0000,64.0000 -335.0000,148.0000 C -335.0000,232.0000 -318.0000,313.0000 -286.0000,390.0000 C -254.0000,464.0000 -210.0000,530.0000 -152.0000,587.0000 C -95.0000,645.0000 -29.0000,689.0000 45.0000,721.0000 C 122.0000,753.0000 203.0000,769.0000 287.0000,769.0000 C 371.0000,769.0000 452.0000,753.0000 529.0000,721.0000 C 603.0000,689.0000 670.0000,645.0000 727.0000,587.0000 C 784.0000,530.0000 829.0000,464.0000 860.0000,390.0000 C 892.0000,313.0000 909.0000,232.0000 909.0000,148.0000 C 909.0000,64.0000 892.0000,-17.0000 860.0000,-94.0000 Z M 812.0000,370.0000 C 784.0000,438.0000 743.0000,499.0000 690.0000,551.0000 C 638.0000,603.0000 577.0000,644.0000 509.0000,673.0000 C 439.0000,703.0000 364.0000,718.0000 287.0000,718.0000 C 210.0000,718.0000 135.0000,703.0000 65.0000,673.0000 C -3.0000,644.0000 -64.0000,603.0000 -116.0000,551.0000 C -168.0000,499.0000 -210.0000,438.0000 -238.0000,370.0000 C -268.0000,300.0000 -283.0000,225.0000 -283.0000,148.0000 C -283.0000,71.0000 -268.0000,-4.0000 -238.0000,-74.0000 C -210.0000,-142.0000 -168.0000,-203.0000 -116.0000,-255.0000 C -64.0000,-308.0000 -3.0000,-349.0000 65.0000,-377.0000 C 135.0000,-407.0000 210.0000,-422.0000 287.0000,-422.0000 C 364.0000,-422.0000 439.0000,-407.0000 509.0000,-377.0000 C 577.0000,-349.0000 638.0000,-308.0000 690.0000,-255.0000 C 743.0000,-203.0000 784.0000,-142.0000 812.0000,-74.0000 C 842.0000,-4.0000 857.0000,71.0000 857.0000,148.0000 C 857.0000,225.0000 842.0000,300.0000 812.0000,370.0000 Z "  fill="#7B2927" stroke="none" />
<path d="M 58.0000,836.0000 C -4.0000,836.0000 -4.0000,836.0000 -4.0000,836.0000 C -4.0000,1023.0000 -4.0000,1023.0000 -4.0000,1023.0000 C 55.0000,1023.0000 55.0000,1023.0000 55.0000,1023.0000 C 105.0000,1023.0000 120.0000,993.0000 120.0000,927.0000 C 120.0000,871.0000 110.0000,836.0000 58.0000,836.0000 Z M 50.0000,995.0000 C 34.0000,995.0000 34.0000,995.0000 34.0000,995.0000 C 34.0000,863.0000 34.0000,863.0000 34.0000,863.0000 C 50.0000,863.0000 50.0000,863.0000 50.0000,863.0000 C 78.0000,863.0000 82.0000,885.0000 82.0000,928.0000 C 82.0000,979.0000 77.0000,995.0000 50.0000,995.0000 Z "  fill="#7B2927" stroke="none" />
<path d="M 203.0000,999.0000 C 186.0000,999.0000 178.0000,989.0000 178.0000,932.0000 C 178.0000,879.0000 183.0000,860.0000 202.0000,860.0000 C 219.0000,860.0000 225.0000,872.0000 225.0000,899.0000 C 262.0000,899.0000 262.0000,899.0000 262.0000,899.0000 C 262.0000,872.0000 258.0000,832.0000 204.0000,832.0000 C 148.0000,832.0000 141.0000,872.0000 141.0000,929.0000 C 141.0000,986.0000 148.0000,1027.0000 204.0000,1027.0000 C 254.0000,1027.0000 264.0000,992.0000 264.0000,951.0000 C 226.0000,951.0000 226.0000,951.0000 226.0000,951.0000 C 226.0000,992.0000 216.0000,999.0000 203.0000,999.0000 Z "  fill="#7B2927" stroke="none" />
<path d="M 285.0000,1023.0000 L 323.0000,1023.0000 L 323.0000,942.0000 L 386.0000,942.0000 L 386.0000,911.0000 L 323.0000,911.0000 L 323.0000,867.0000 L 390.0000,867.0000 L 390.0000,836.0000 L 285.0000,836.0000 L 285.0000,1023.0000 Z "  fill="#7B2927" stroke-width="1px" stroke="#FFFFFF" />
<path d="M 534.0000,974.0000 L 534.0000,974.0000 L 512.0000,836.0000 L 475.0000,836.0000 L 453.0000,974.0000 L 453.0000,974.0000 L 432.0000,836.0000 L 396.0000,836.0000 L 430.0000,1023.0000 L 472.0000,1023.0000 L 493.0000,887.0000 L 494.0000,887.0000 L 515.0000,1023.0000 L 557.0000,1023.0000 L 591.0000,836.0000 L 555.0000,836.0000 L 534.0000,974.0000 Z "  fill="#7B2927" stroke-width="1px" stroke="#FFFFFF" />
<path d="M 256.0000,-185.0000 L -99.0000,-185.0000 L -99.0000,10.0000 L 256.0000,10.0000 L 256.0000,-185.0000 Z "  fill="#7B2927" stroke-width="1px" stroke="#FFFFFF" />
<path d="M 33.0000,50.0000 L -99.0000,50.0000 L -99.0000,245.0000 L 33.0000,245.0000 L 33.0000,50.0000 Z "  fill="#7B2927" stroke-width="1px" stroke="#FFFFFF" />
<path d="M -99.0000,478.0000 L 258.0000,478.0000 L 258.0000,283.0000 L -99.0000,283.0000 L -99.0000,478.0000 Z "  fill="#7B2927" stroke-width="1px" stroke="#FFFFFF" />
<path d="M 420.0000,435.0000 C 349.0000,435.0000 349.0000,435.0000 349.0000,435.0000 C 331.0000,435.0000 316.0000,420.0000 316.0000,402.0000 C 316.0000,382.0000 316.0000,382.0000 316.0000,382.0000 C 316.0000,382.0000 312.0000,382.0000 307.0000,382.0000 C 307.0000,478.0000 307.0000,478.0000 307.0000,478.0000 C 421.0000,478.0000 421.0000,478.0000 421.0000,478.0000 C 420.0000,476.0000 420.0000,474.0000 420.0000,472.0000 Z "  fill="#7B2927" stroke="none" />
<path d="M 78.0000,245.0000 L 264.0000,245.0000 L 264.0000,50.0000 L 78.0000,50.0000 L 78.0000,245.0000 Z "  fill="#7B2927" stroke-width="1px" stroke="#FFFFFF" />
<path d="M 316.0000,-5.0000 C 316.0000,-23.0000 331.0000,-38.0000 349.0000,-38.0000 C 420.0000,-38.0000 420.0000,-38.0000 420.0000,-38.0000 C 420.0000,-77.0000 420.0000,-77.0000 420.0000,-77.0000 C 420.0000,-95.0000 435.0000,-110.0000 453.0000,-110.0000 C 661.0000,-110.0000 661.0000,-110.0000 661.0000,-110.0000 C 661.0000,-185.0000 661.0000,-185.0000 661.0000,-185.0000 C 306.0000,-185.0000 306.0000,-185.0000 306.0000,-185.0000 C 306.0000,10.0000 306.0000,10.0000 306.0000,10.0000 C 316.0000,10.0000 316.0000,10.0000 316.0000,10.0000 Z "  fill="#7B2927" stroke="none" />
<path d="M 687.0000,-81.0000 C 453.0000,-81.0000 453.0000,-81.0000 453.0000,-81.0000 C 449.0000,-81.0000 447.0000,-78.0000 447.0000,-75.0000 C 447.0000,475.0000 447.0000,475.0000 447.0000,475.0000 C 447.0000,478.0000 449.0000,481.0000 453.0000,481.0000 C 687.0000,481.0000 687.0000,481.0000 687.0000,481.0000 C 691.0000,481.0000 693.0000,478.0000 693.0000,475.0000 C 693.0000,-75.0000 693.0000,-75.0000 693.0000,-75.0000 C 693.0000,-78.0000 691.0000,-81.0000 687.0000,-81.0000 Z M 479.0000,-32.0000 C 480.0000,-33.0000 482.0000,-34.0000 484.0000,-34.0000 C 505.0000,-34.0000 525.0000,-34.0000 543.0000,-34.0000 C 546.0000,-34.0000 548.0000,-33.0000 549.0000,-32.0000 C 551.0000,-30.0000 551.0000,-28.0000 551.0000,-25.0000 C 551.0000,-25.0000 551.0000,-25.0000 551.0000,-25.0000 C 551.0000,-23.0000 551.0000,-20.0000 549.0000,-18.0000 C 548.0000,-17.0000 546.0000,-17.0000 544.0000,-17.0000 C 544.0000,-17.0000 544.0000,-17.0000 544.0000,-17.0000 C 537.0000,-17.0000 530.0000,-17.0000 523.0000,-17.0000 C 514.0000,-17.0000 514.0000,-17.0000 514.0000,-17.0000 C 505.0000,-17.0000 505.0000,-17.0000 505.0000,-17.0000 C 498.0000,-17.0000 492.0000,-17.0000 485.0000,-17.0000 C 482.0000,-17.0000 480.0000,-17.0000 479.0000,-18.0000 C 477.0000,-20.0000 477.0000,-23.0000 477.0000,-25.0000 C 477.0000,-26.0000 477.0000,-26.0000 477.0000,-26.0000 C 477.0000,-28.0000 477.0000,-30.0000 479.0000,-32.0000 Z M 551.0000,224.0000 C 551.0000,225.0000 551.0000,225.0000 551.0000,225.0000 C 551.0000,227.0000 551.0000,230.0000 549.0000,231.0000 C 548.0000,232.0000 546.0000,233.0000 544.0000,233.0000 C 523.0000,233.0000 504.0000,233.0000 485.0000,233.0000 C 485.0000,233.0000 485.0000,233.0000 485.0000,233.0000 C 477.0000,233.0000 477.0000,228.0000 477.0000,224.0000 C 477.0000,222.0000 477.0000,220.0000 479.0000,218.0000 C 480.0000,216.0000 482.0000,216.0000 485.0000,216.0000 C 492.0000,216.0000 499.0000,216.0000 506.0000,216.0000 C 514.0000,216.0000 514.0000,216.0000 514.0000,216.0000 C 523.0000,216.0000 523.0000,216.0000 523.0000,216.0000 C 530.0000,216.0000 537.0000,216.0000 544.0000,216.0000 C 546.0000,216.0000 548.0000,216.0000 549.0000,218.0000 C 551.0000,219.0000 551.0000,222.0000 551.0000,224.0000 Z M 549.0000,196.0000 C 548.0000,197.0000 546.0000,197.0000 544.0000,197.0000 C 543.0000,197.0000 543.0000,197.0000 543.0000,197.0000 C 536.0000,197.0000 530.0000,197.0000 523.0000,197.0000 C 505.0000,197.0000 505.0000,197.0000 505.0000,197.0000 C 498.0000,197.0000 492.0000,197.0000 485.0000,197.0000 C 478.0000,197.0000 477.0000,195.0000 477.0000,189.0000 C 477.0000,186.0000 477.0000,184.0000 479.0000,182.0000 C 480.0000,181.0000 482.0000,180.0000 485.0000,180.0000 C 506.0000,180.0000 525.0000,180.0000 543.0000,180.0000 C 543.0000,180.0000 544.0000,180.0000 544.0000,180.0000 C 551.0000,180.0000 551.0000,185.0000 551.0000,188.0000 C 551.0000,189.0000 551.0000,189.0000 551.0000,189.0000 C 551.0000,191.0000 551.0000,194.0000 549.0000,196.0000 Z M 477.0000,153.0000 C 477.0000,151.0000 477.0000,148.0000 479.0000,146.0000 C 480.0000,145.0000 482.0000,145.0000 484.0000,145.0000 C 491.0000,145.0000 499.0000,145.0000 506.0000,145.0000 C 514.0000,145.0000 514.0000,145.0000 514.0000,145.0000 C 517.0000,145.0000 520.0000,145.0000 523.0000,145.0000 C 530.0000,145.0000 537.0000,145.0000 543.0000,145.0000 C 546.0000,145.0000 548.0000,145.0000 549.0000,146.0000 C 551.0000,148.0000 551.0000,151.0000 551.0000,153.0000 C 551.0000,154.0000 551.0000,154.0000 551.0000,154.0000 C 551.0000,156.0000 551.0000,158.0000 549.0000,160.0000 C 548.0000,161.0000 546.0000,162.0000 544.0000,162.0000 C 544.0000,162.0000 544.0000,162.0000 544.0000,162.0000 C 525.0000,162.0000 505.0000,162.0000 485.0000,162.0000 C 477.0000,162.0000 477.0000,157.0000 477.0000,153.0000 C 479.0000,153.0000 479.0000,153.0000 479.0000,153.0000 C 479.0000,153.0000 479.0000,153.0000 479.0000,153.0000 Z M 551.0000,46.0000 C 551.0000,49.0000 551.0000,51.0000 549.0000,53.0000 C 548.0000,54.0000 546.0000,54.0000 544.0000,54.0000 C 544.0000,54.0000 544.0000,54.0000 544.0000,54.0000 C 531.0000,54.0000 518.0000,54.0000 506.0000,54.0000 C 499.0000,54.0000 492.0000,54.0000 485.0000,54.0000 C 478.0000,54.0000 477.0000,52.0000 477.0000,46.0000 C 477.0000,43.0000 477.0000,41.0000 479.0000,39.0000 C 480.0000,38.0000 482.0000,37.0000 485.0000,37.0000 C 492.0000,37.0000 499.0000,37.0000 506.0000,37.0000 C 514.0000,37.0000 514.0000,37.0000 514.0000,37.0000 C 517.0000,37.0000 520.0000,37.0000 523.0000,37.0000 C 530.0000,37.0000 537.0000,37.0000 543.0000,37.0000 C 546.0000,37.0000 548.0000,38.0000 549.0000,39.0000 C 551.0000,41.0000 551.0000,43.0000 551.0000,46.0000 Z M 549.0000,88.0000 C 548.0000,89.0000 546.0000,90.0000 544.0000,90.0000 C 544.0000,90.0000 544.0000,90.0000 543.0000,90.0000 C 537.0000,90.0000 529.0000,90.0000 523.0000,90.0000 C 514.0000,90.0000 514.0000,90.0000 514.0000,90.0000 C 505.0000,90.0000 505.0000,90.0000 505.0000,90.0000 C 498.0000,90.0000 491.0000,90.0000 484.0000,90.0000 C 482.0000,90.0000 480.0000,90.0000 479.0000,88.0000 C 477.0000,87.0000 477.0000,84.0000 477.0000,82.0000 C 477.0000,81.0000 477.0000,81.0000 477.0000,81.0000 C 477.0000,78.0000 477.0000,73.0000 484.0000,73.0000 C 484.0000,73.0000 485.0000,73.0000 485.0000,73.0000 C 505.0000,73.0000 525.0000,73.0000 544.0000,73.0000 C 544.0000,73.0000 544.0000,73.0000 544.0000,73.0000 C 546.0000,73.0000 548.0000,73.0000 549.0000,75.0000 C 551.0000,76.0000 551.0000,79.0000 551.0000,81.0000 C 551.0000,81.0000 551.0000,81.0000 551.0000,81.0000 C 551.0000,84.0000 551.0000,87.0000 549.0000,88.0000 Z M 549.0000,124.0000 C 548.0000,126.0000 546.0000,126.0000 544.0000,126.0000 C 543.0000,126.0000 543.0000,126.0000 543.0000,126.0000 C 536.0000,126.0000 530.0000,126.0000 523.0000,126.0000 C 520.0000,126.0000 517.0000,126.0000 514.0000,126.0000 C 505.0000,126.0000 505.0000,126.0000 505.0000,126.0000 C 498.0000,126.0000 492.0000,126.0000 485.0000,126.0000 C 482.0000,126.0000 480.0000,126.0000 479.0000,125.0000 C 477.0000,123.0000 477.0000,120.0000 477.0000,118.0000 C 477.0000,115.0000 477.0000,113.0000 479.0000,111.0000 C 480.0000,110.0000 482.0000,109.0000 484.0000,109.0000 C 507.0000,109.0000 526.0000,109.0000 543.0000,109.0000 C 544.0000,109.0000 544.0000,109.0000 544.0000,109.0000 C 551.0000,109.0000 551.0000,114.0000 551.0000,117.0000 C 551.0000,118.0000 551.0000,118.0000 551.0000,118.0000 C 551.0000,120.0000 551.0000,123.0000 549.0000,124.0000 Z M 551.0000,10.0000 C 551.0000,11.0000 551.0000,11.0000 551.0000,11.0000 C 551.0000,14.0000 551.0000,19.0000 544.0000,19.0000 C 544.0000,19.0000 543.0000,19.0000 543.0000,19.0000 C 525.0000,19.0000 506.0000,19.0000 485.0000,19.0000 C 485.0000,19.0000 485.0000,19.0000 485.0000,19.0000 C 477.0000,19.0000 477.0000,14.0000 477.0000,10.0000 C 477.0000,8.0000 477.0000,5.0000 479.0000,4.0000 C 480.0000,2.0000 482.0000,2.0000 485.0000,2.0000 C 492.0000,2.0000 499.0000,2.0000 506.0000,2.0000 C 514.0000,2.0000 514.0000,2.0000 514.0000,2.0000 C 523.0000,2.0000 523.0000,2.0000 523.0000,2.0000 C 529.0000,2.0000 536.0000,2.0000 543.0000,2.0000 C 546.0000,2.0000 548.0000,2.0000 549.0000,4.0000 C 551.0000,5.0000 551.0000,8.0000 551.0000,10.0000 Z "  fill="#7B2927" stroke="none" />
<path d="M 427.0000,-2.0000 C 427.0000,-6.0000 424.0000,-8.0000 421.0000,-8.0000 C 349.0000,-8.0000 349.0000,-8.0000 349.0000,-8.0000 C 346.0000,-8.0000 343.0000,-6.0000 343.0000,-2.0000 C 343.0000,405.0000 343.0000,405.0000 343.0000,405.0000 C 343.0000,408.0000 346.0000,411.0000 349.0000,411.0000 C 421.0000,411.0000 421.0000,411.0000 421.0000,411.0000 C 424.0000,411.0000 427.0000,408.0000 427.0000,405.0000 Z M 365.0000,19.0000 C 379.0000,19.0000 393.0000,19.0000 407.0000,19.0000 C 409.0000,19.0000 410.0000,20.0000 412.0000,21.0000 C 413.0000,22.0000 413.0000,23.0000 413.0000,26.0000 C 413.0000,27.0000 413.0000,29.0000 412.0000,31.0000 C 410.0000,32.0000 409.0000,33.0000 407.0000,33.0000 C 402.0000,32.0000 397.0000,32.0000 392.0000,33.0000 C 386.0000,33.0000 386.0000,33.0000 386.0000,33.0000 C 379.0000,33.0000 379.0000,33.0000 379.0000,33.0000 C 375.0000,32.0000 370.0000,32.0000 365.0000,33.0000 C 365.0000,33.0000 365.0000,33.0000 365.0000,33.0000 C 362.0000,33.0000 361.0000,32.0000 360.0000,31.0000 C 358.0000,29.0000 358.0000,27.0000 358.0000,26.0000 C 358.0000,19.0000 363.0000,19.0000 365.0000,19.0000 Z M 412.0000,218.0000 C 410.0000,219.0000 408.0000,219.0000 407.0000,219.0000 C 406.0000,219.0000 406.0000,219.0000 406.0000,219.0000 C 401.0000,219.0000 397.0000,219.0000 392.0000,219.0000 C 386.0000,219.0000 386.0000,219.0000 386.0000,219.0000 C 380.0000,219.0000 380.0000,219.0000 380.0000,219.0000 C 375.0000,219.0000 370.0000,219.0000 365.0000,219.0000 C 363.0000,219.0000 361.0000,219.0000 360.0000,218.0000 C 358.0000,217.0000 358.0000,215.0000 358.0000,212.0000 C 358.0000,208.0000 360.0000,206.0000 365.0000,206.0000 C 379.0000,206.0000 393.0000,206.0000 407.0000,206.0000 C 407.0000,206.0000 407.0000,206.0000 407.0000,206.0000 C 411.0000,206.0000 413.0000,208.0000 413.0000,212.0000 C 413.0000,215.0000 413.0000,217.0000 412.0000,218.0000 Z M 358.0000,186.0000 C 358.0000,186.0000 358.0000,186.0000 358.0000,186.0000 C 358.0000,182.0000 360.0000,179.0000 364.0000,179.0000 C 364.0000,179.0000 364.0000,179.0000 364.0000,179.0000 C 379.0000,179.0000 393.0000,179.0000 407.0000,179.0000 C 407.0000,179.0000 407.0000,179.0000 407.0000,179.0000 C 409.0000,179.0000 411.0000,180.0000 412.0000,181.0000 C 413.0000,183.0000 413.0000,185.0000 413.0000,186.0000 C 413.0000,188.0000 413.0000,190.0000 412.0000,191.0000 C 410.0000,193.0000 408.0000,193.0000 406.0000,193.0000 C 401.0000,193.0000 396.0000,193.0000 391.0000,193.0000 C 385.0000,193.0000 385.0000,193.0000 385.0000,193.0000 C 379.0000,193.0000 379.0000,193.0000 379.0000,193.0000 C 375.0000,193.0000 370.0000,193.0000 365.0000,193.0000 C 365.0000,193.0000 364.0000,193.0000 364.0000,193.0000 C 363.0000,193.0000 361.0000,193.0000 359.0000,191.0000 C 358.0000,190.0000 358.0000,188.0000 358.0000,186.0000 Z M 412.0000,165.0000 C 410.0000,166.0000 409.0000,166.0000 407.0000,166.0000 C 407.0000,166.0000 407.0000,166.0000 406.0000,166.0000 C 393.0000,166.0000 379.0000,166.0000 365.0000,166.0000 C 362.0000,166.0000 361.0000,166.0000 360.0000,165.0000 C 358.0000,163.0000 358.0000,161.0000 358.0000,159.0000 C 358.0000,158.0000 358.0000,155.0000 360.0000,154.0000 C 361.0000,153.0000 362.0000,152.0000 365.0000,152.0000 C 370.0000,152.0000 375.0000,152.0000 379.0000,152.0000 C 386.0000,152.0000 386.0000,152.0000 386.0000,152.0000 C 392.0000,152.0000 392.0000,152.0000 392.0000,152.0000 C 397.0000,152.0000 402.0000,152.0000 406.0000,152.0000 C 409.0000,152.0000 410.0000,153.0000 412.0000,154.0000 C 413.0000,155.0000 413.0000,158.0000 413.0000,159.0000 C 413.0000,161.0000 413.0000,163.0000 412.0000,165.0000 Z M 412.0000,85.0000 C 410.0000,86.0000 409.0000,86.0000 406.0000,86.0000 C 401.0000,86.0000 396.0000,86.0000 391.0000,86.0000 C 385.0000,86.0000 385.0000,86.0000 385.0000,86.0000 C 379.0000,86.0000 379.0000,86.0000 379.0000,86.0000 C 374.0000,86.0000 369.0000,86.0000 365.0000,86.0000 C 365.0000,86.0000 364.0000,86.0000 364.0000,86.0000 C 362.0000,86.0000 361.0000,86.0000 360.0000,85.0000 C 358.0000,83.0000 358.0000,81.0000 358.0000,79.0000 C 358.0000,77.0000 358.0000,75.0000 360.0000,74.0000 C 361.0000,72.0000 362.0000,72.0000 365.0000,72.0000 C 379.0000,72.0000 393.0000,72.0000 407.0000,72.0000 C 409.0000,72.0000 410.0000,72.0000 412.0000,74.0000 C 413.0000,75.0000 413.0000,77.0000 413.0000,79.0000 C 413.0000,81.0000 413.0000,83.0000 412.0000,85.0000 Z M 413.0000,106.0000 C 413.0000,108.0000 413.0000,110.0000 412.0000,111.0000 C 410.0000,113.0000 408.0000,113.0000 406.0000,113.0000 C 406.0000,113.0000 406.0000,113.0000 406.0000,113.0000 C 401.0000,113.0000 396.0000,113.0000 392.0000,113.0000 C 386.0000,113.0000 386.0000,113.0000 386.0000,113.0000 C 380.0000,113.0000 380.0000,113.0000 380.0000,113.0000 C 375.0000,113.0000 370.0000,113.0000 365.0000,113.0000 C 363.0000,113.0000 361.0000,113.0000 360.0000,111.0000 C 358.0000,110.0000 358.0000,108.0000 358.0000,106.0000 C 358.0000,105.0000 358.0000,102.0000 359.0000,101.0000 C 361.0000,99.0000 363.0000,99.0000 365.0000,99.0000 C 379.0000,99.0000 392.0000,99.0000 406.0000,99.0000 C 408.0000,99.0000 410.0000,99.0000 412.0000,101.0000 C 413.0000,102.0000 413.0000,104.0000 413.0000,106.0000 Z M 412.0000,138.0000 C 410.0000,140.0000 408.0000,140.0000 407.0000,140.0000 C 406.0000,140.0000 406.0000,140.0000 406.0000,140.0000 C 401.0000,140.0000 396.0000,140.0000 391.0000,140.0000 C 385.0000,140.0000 385.0000,140.0000 385.0000,140.0000 C 379.0000,140.0000 379.0000,140.0000 379.0000,140.0000 C 374.0000,140.0000 369.0000,140.0000 365.0000,140.0000 C 362.0000,140.0000 361.0000,139.0000 360.0000,138.0000 C 358.0000,137.0000 358.0000,135.0000 358.0000,133.0000 C 358.0000,131.0000 358.0000,129.0000 360.0000,127.0000 C 361.0000,126.0000 362.0000,126.0000 365.0000,126.0000 C 380.0000,126.0000 393.0000,126.0000 406.0000,126.0000 C 409.0000,126.0000 410.0000,126.0000 412.0000,127.0000 C 413.0000,129.0000 413.0000,131.0000 413.0000,133.0000 C 413.0000,135.0000 413.0000,137.0000 412.0000,138.0000 Z M 412.0000,58.0000 C 410.0000,60.0000 408.0000,60.0000 406.0000,60.0000 C 406.0000,60.0000 406.0000,60.0000 406.0000,60.0000 C 401.0000,60.0000 397.0000,60.0000 392.0000,60.0000 C 386.0000,60.0000 386.0000,60.0000 386.0000,60.0000 C 379.0000,60.0000 379.0000,60.0000 379.0000,60.0000 C 375.0000,60.0000 370.0000,60.0000 365.0000,60.0000 C 362.0000,60.0000 361.0000,59.0000 360.0000,58.0000 C 358.0000,57.0000 358.0000,54.0000 358.0000,53.0000 C 358.0000,51.0000 358.0000,49.0000 360.0000,47.0000 C 361.0000,46.0000 364.0000,45.0000 365.0000,45.0000 C 378.0000,46.0000 392.0000,46.0000 406.0000,45.0000 C 408.0000,45.0000 410.0000,46.0000 412.0000,47.0000 C 413.0000,49.0000 413.0000,51.0000 413.0000,53.0000 C 413.0000,55.0000 413.0000,57.0000 412.0000,58.0000 Z "  fill="#7B2927" stroke="none" />
<path d="M 316.0000,358.0000 C 319.0000,358.0000 322.0000,355.0000 322.0000,352.0000 C 322.0000,52.0000 322.0000,52.0000 322.0000,52.0000 C 322.0000,48.0000 319.0000,46.0000 316.0000,46.0000 C 296.0000,46.0000 296.0000,46.0000 296.0000,46.0000 C 293.0000,46.0000 290.0000,48.0000 290.0000,52.0000 C 290.0000,352.0000 290.0000,352.0000 290.0000,352.0000 C 290.0000,355.0000 293.0000,358.0000 296.0000,358.0000 Z "  fill="#7B2927" stroke="none" />
</g>
</svg>
