<?xml version="1.0"  encoding="UTF-8" standalone="no"?>
<svg version="1.1" xmlns="http://www.w3.org/2000/svg" xmlns:xlink="http://www.w3.org/1999/xlink" width="594.0000" height="713.0000">
<g transform="translate(10.0000, 75.0000)">
<path d="M 497.0000,12.0000 C 441.0000,-44.0000 366.0000,-75.0000 287.0000,-75.0000 C 207.0000,-75.0000 133.0000,-44.0000 77.0000,12.0000 C 21.0000,68.0000 -10.0000,143.0000 -10.0000,222.0000 C -10.0000,301.0000 21.0000,376.0000 77.0000,432.0000 C 133.0000,488.0000 207.0000,519.0000 287.0000,519.0000 C 366.0000,519.0000 441.0000,488.0000 497.0000,432.0000 C 553.0000,376.0000 584.0000,301.0000 584.0000,222.0000 C 584.0000,143.0000 553.0000,68.0000 497.0000,12.0000 Z M 287.0000,494.0000 C 136.0000,494.0000 14.0000,372.0000 14.0000,222.0000 C 14.0000,72.0000 136.0000,-50.0000 287.0000,-50.0000 C 437.0000,-50.0000 559.0000,72.0000 559.0000,222.0000 C 559.0000,372.0000 437.0000,494.0000 287.0000,494.0000 Z "  fill="#7B2927" stroke="none" />
<path d="M 168.0000,636.0000 L 186.0000,636.0000 L 186.0000,547.0000 L 168.0000,547.0000 L 168.0000,636.0000 Z "  fill="#7B2927" stroke-width="1px" stroke="#FFFFFF" />
<path d="M 239.0000,587.0000 C 225.0000,581.0000 225.0000,581.0000 225.0000,581.0000 C 217.0000,578.0000 216.0000,574.0000 216.0000,569.0000 C 216.0000,563.0000 218.0000,558.0000 226.0000,558.0000 C 233.0000,558.0000 236.0000,563.0000 236.0000,572.0000 C 253.0000,572.0000 253.0000,572.0000 253.0000,572.0000 C 253.0000,569.0000 253.0000,569.0000 253.0000,569.0000 C 253.0000,552.0000 241.0000,545.0000 225.0000,545.0000 C 208.0000,545.0000 198.0000,554.0000 198.0000,572.0000 C 198.0000,586.0000 205.0000,593.0000 221.0000,599.0000 C 233.0000,603.0000 237.0000,606.0000 237.0000,614.0000 C 237.0000,621.0000 232.0000,625.0000 226.0000,625.0000 C 217.0000,625.0000 214.0000,620.0000 214.0000,611.0000 C 214.0000,609.0000 214.0000,609.0000 214.0000,609.0000 C 196.0000,609.0000 196.0000,609.0000 196.0000,609.0000 C 196.0000,612.0000 196.0000,612.0000 196.0000,612.0000 C 196.0000,629.0000 204.0000,638.0000 225.0000,638.0000 C 244.0000,638.0000 256.0000,630.0000 256.0000,611.0000 C 256.0000,600.0000 252.0000,593.0000 239.0000,587.0000 Z "  fill="#7B2927" stroke="none" />
<path d="M 265.0000,636.0000 L 283.0000,636.0000 L 283.0000,598.0000 L 313.0000,598.0000 L 313.0000,583.0000 L 283.0000,583.0000 L 283.0000,562.0000 L 315.0000,562.0000 L 315.0000,547.0000 L 265.0000,547.0000 L 265.0000,636.0000 Z "  fill="#7B2927" stroke-width="1px" stroke="#FFFFFF" />
<path d="M 384.0000,613.0000 L 384.0000,613.0000 L 373.0000,547.0000 L 356.0000,547.0000 L 345.0000,613.0000 L 345.0000,613.0000 L 335.0000,547.0000 L 318.0000,547.0000 L 334.0000,636.0000 L 354.0000,636.0000 L 364.0000,572.0000 L 365.0000,572.0000 L 375.0000,636.0000 L 395.0000,636.0000 L 411.0000,547.0000 L 394.0000,547.0000 L 384.0000,613.0000 Z "  fill="#7B2927" stroke-width="1px" stroke="#FFFFFF" />
<path d="M 275.0000,62.0000 L 105.0000,62.0000 L 105.0000,155.0000 L 275.0000,155.0000 L 275.0000,62.0000 Z "  fill="#7B2927" stroke-width="1px" stroke="#FFFFFF" />
<path d="M 168.0000,174.0000 L 105.0000,174.0000 L 105.0000,267.0000 L 168.0000,267.0000 L 168.0000,174.0000 Z "  fill="#7B2927" stroke-width="1px" stroke="#FFFFFF" />
<path d="M 249.0000,301.0000 L 249.0000,301.0000 L 258.0000,285.0000 L 105.0000,285.0000 L 105.0000,378.0000 L 276.0000,378.0000 L 276.0000,348.0000 L 249.0000,302.0000 L 249.0000,301.0000 Z "  fill="#7B2927" stroke-width="1px" stroke="#FFFFFF" />
<path d="M 299.0000,351.0000 L 299.0000,378.0000 L 342.0000,378.0000 L 326.0000,351.0000 L 299.0000,351.0000 Z "  fill="#7B2927" stroke-width="1px" stroke="#FFFFFF" />
<path d="M 416.0000,378.0000 L 469.0000,378.0000 L 469.0000,351.0000 L 432.0000,351.0000 L 416.0000,378.0000 Z "  fill="#7B2927" stroke-width="1px" stroke="#FFFFFF" />
<path d="M 190.0000,174.0000 L 190.0000,267.0000 L 268.0000,267.0000 L 273.0000,259.0000 L 249.0000,217.0000 L 249.0000,216.0000 L 249.0000,216.0000 L 274.0000,174.0000 L 190.0000,174.0000 Z "  fill="#7B2927" stroke-width="1px" stroke="#FFFFFF" />
<path d="M 350.0000,125.0000 L 407.0000,125.0000 L 407.0000,125.0000 L 407.0000,125.0000 L 424.0000,155.0000 L 468.0000,155.0000 L 468.0000,62.0000 L 299.0000,62.0000 L 299.0000,155.0000 L 333.0000,155.0000 L 350.0000,125.0000 Z "  fill="#7B2927" stroke-width="1px" stroke="#FFFFFF" />
<path d="M 431.0000,265.0000 L 411.0000,301.0000 L 431.0000,336.0000 L 472.0000,336.0000 L 493.0000,301.0000 L 472.0000,265.0000 L 431.0000,265.0000 Z "  fill="#7B2927" stroke-width="1px" stroke="#FFFFFF" />
<path d="M 411.0000,216.0000 L 431.0000,252.0000 L 472.0000,252.0000 L 493.0000,216.0000 L 472.0000,180.0000 L 431.0000,180.0000 L 411.0000,216.0000 Z "  fill="#7B2927" stroke-width="1px" stroke="#FFFFFF" />
<path d="M 346.0000,301.0000 L 326.0000,265.0000 L 285.0000,265.0000 L 264.0000,301.0000 L 285.0000,336.0000 L 326.0000,336.0000 L 346.0000,301.0000 Z "  fill="#7B2927" stroke-width="1px" stroke="#FFFFFF" />
<path d="M 285.0000,252.0000 L 326.0000,252.0000 L 346.0000,216.0000 L 326.0000,180.0000 L 285.0000,180.0000 L 264.0000,216.0000 L 285.0000,252.0000 Z "  fill="#7B2927" stroke-width="1px" stroke="#FFFFFF" />
<path d="M 399.0000,307.0000 L 358.0000,307.0000 L 337.0000,343.0000 L 358.0000,379.0000 L 399.0000,379.0000 L 420.0000,343.0000 L 399.0000,307.0000 Z "  fill="#7B2927" stroke-width="1px" stroke="#FFFFFF" />
<path d="M 358.0000,294.0000 L 399.0000,294.0000 L 420.0000,258.0000 L 399.0000,223.0000 L 358.0000,223.0000 L 337.0000,258.0000 L 358.0000,294.0000 Z "  fill="#7B2927" stroke-width="1px" stroke="#FFFFFF" />
<path d="M 420.0000,174.0000 L 399.0000,138.0000 L 358.0000,138.0000 L 337.0000,174.0000 L 358.0000,209.0000 L 399.0000,209.0000 L 420.0000,174.0000 Z "  fill="#7B2927" stroke-width="1px" stroke="#FFFFFF" />
</g>
</svg>
