<?xml version="1.0"  encoding="UTF-8" standalone="no"?>
<svg version="1.1" xmlns="http://www.w3.org/2000/svg" xmlns:xlink="http://www.w3.org/1999/xlink" width="419.0000" height="447.0000">
<g transform="translate(-77.0000, 511.0000)">
<path d="M 387.0000,-282.0000 C 354.0000,-282.0000 322.0000,-266.0000 301.0000,-239.0000 C 138.0000,-239.0000 138.0000,-239.0000 138.0000,-239.0000 C 127.0000,-239.0000 127.0000,-239.0000 127.0000,-239.0000 C 120.0000,-231.0000 120.0000,-231.0000 120.0000,-231.0000 C 94.0000,-202.0000 94.0000,-202.0000 94.0000,-202.0000 C 87.0000,-195.0000 87.0000,-195.0000 87.0000,-195.0000 C 87.0000,-185.0000 87.0000,-185.0000 87.0000,-185.0000 C 87.0000,-169.0000 87.0000,-169.0000 87.0000,-169.0000 C 87.0000,-158.0000 87.0000,-158.0000 87.0000,-158.0000 C 96.0000,-151.0000 96.0000,-151.0000 96.0000,-151.0000 C 123.0000,-126.0000 123.0000,-126.0000 123.0000,-126.0000 C 134.0000,-116.0000 134.0000,-116.0000 134.0000,-116.0000 C 148.0000,-121.0000 148.0000,-121.0000 148.0000,-121.0000 C 156.0000,-124.0000 156.0000,-124.0000 156.0000,-124.0000 C 172.0000,-124.0000 172.0000,-124.0000 172.0000,-124.0000 C 244.0000,-124.0000 244.0000,-124.0000 244.0000,-124.0000 C 263.0000,-107.0000 263.0000,-107.0000 263.0000,-107.0000 C 270.0000,-102.0000 270.0000,-102.0000 270.0000,-102.0000 C 279.0000,-102.0000 279.0000,-102.0000 279.0000,-102.0000 C 305.0000,-102.0000 305.0000,-102.0000 305.0000,-102.0000 C 326.0000,-78.0000 356.0000,-64.0000 387.0000,-64.0000 C 447.0000,-64.0000 496.0000,-113.0000 496.0000,-173.0000 C 496.0000,-233.0000 447.0000,-282.0000 387.0000,-282.0000 Z M 304.0000,-178.0000 C 158.0000,-178.0000 158.0000,-178.0000 158.0000,-178.0000 C 158.0000,-192.0000 158.0000,-192.0000 158.0000,-192.0000 C 304.0000,-192.0000 304.0000,-192.0000 304.0000,-192.0000 Z M 418.0000,-153.0000 C 405.0000,-153.0000 395.0000,-164.0000 395.0000,-176.0000 C 395.0000,-189.0000 405.0000,-199.0000 418.0000,-199.0000 C 431.0000,-199.0000 441.0000,-189.0000 441.0000,-176.0000 C 441.0000,-164.0000 431.0000,-153.0000 418.0000,-153.0000 Z "  fill="#7B2927" stroke="none" />
<path d="M 155.0000,-429.0000 C 142.0000,-429.0000 132.0000,-418.0000 132.0000,-406.0000 C 132.0000,-393.0000 142.0000,-383.0000 155.0000,-383.0000 C 167.0000,-383.0000 178.0000,-393.0000 178.0000,-406.0000 C 178.0000,-418.0000 167.0000,-429.0000 155.0000,-429.0000 Z "  fill="#7B2927" stroke="none" />
<path d="M 269.0000,-407.0000 L 415.0000,-407.0000 L 415.0000,-422.0000 L 269.0000,-422.0000 L 269.0000,-407.0000 L 269.0000,-407.0000 Z "  fill="#7B2927" stroke-width="1px" stroke="#FFFFFF" />
<path d="M 479.0000,-432.0000 C 453.0000,-461.0000 453.0000,-461.0000 453.0000,-461.0000 C 446.0000,-469.0000 446.0000,-469.0000 446.0000,-469.0000 C 435.0000,-469.0000 435.0000,-469.0000 435.0000,-469.0000 C 272.0000,-469.0000 272.0000,-469.0000 272.0000,-469.0000 C 251.0000,-495.0000 219.0000,-511.0000 186.0000,-511.0000 C 126.0000,-511.0000 77.0000,-462.0000 77.0000,-403.0000 C 77.0000,-343.0000 126.0000,-294.0000 186.0000,-294.0000 C 217.0000,-294.0000 247.0000,-308.0000 268.0000,-331.0000 C 294.0000,-331.0000 294.0000,-331.0000 294.0000,-331.0000 C 303.0000,-331.0000 303.0000,-331.0000 303.0000,-331.0000 C 310.0000,-337.0000 310.0000,-337.0000 310.0000,-337.0000 C 329.0000,-354.0000 329.0000,-354.0000 329.0000,-354.0000 C 400.0000,-354.0000 400.0000,-354.0000 400.0000,-354.0000 C 417.0000,-354.0000 417.0000,-354.0000 417.0000,-354.0000 C 425.0000,-351.0000 425.0000,-351.0000 425.0000,-351.0000 C 439.0000,-346.0000 439.0000,-346.0000 439.0000,-346.0000 C 450.0000,-356.0000 450.0000,-356.0000 450.0000,-356.0000 C 477.0000,-380.0000 477.0000,-380.0000 477.0000,-380.0000 C 485.0000,-388.0000 485.0000,-388.0000 485.0000,-388.0000 C 485.0000,-399.0000 485.0000,-399.0000 485.0000,-399.0000 C 485.0000,-415.0000 485.0000,-415.0000 485.0000,-415.0000 C 485.0000,-425.0000 485.0000,-425.0000 485.0000,-425.0000 Z M 461.0000,-399.0000 C 433.0000,-374.0000 433.0000,-374.0000 433.0000,-374.0000 C 421.0000,-378.0000 421.0000,-378.0000 421.0000,-378.0000 C 400.0000,-378.0000 400.0000,-378.0000 400.0000,-378.0000 C 320.0000,-378.0000 320.0000,-378.0000 320.0000,-378.0000 C 294.0000,-356.0000 294.0000,-356.0000 294.0000,-356.0000 C 256.0000,-356.0000 256.0000,-356.0000 256.0000,-356.0000 C 256.0000,-356.0000 256.0000,-356.0000 256.0000,-356.0000 C 241.0000,-334.0000 215.0000,-319.0000 186.0000,-319.0000 C 139.0000,-319.0000 102.0000,-356.0000 102.0000,-403.0000 C 102.0000,-449.0000 139.0000,-486.0000 186.0000,-486.0000 C 217.0000,-486.0000 244.0000,-469.0000 258.0000,-444.0000 C 435.0000,-444.0000 435.0000,-444.0000 435.0000,-444.0000 C 461.0000,-415.0000 461.0000,-415.0000 461.0000,-415.0000 Z "  fill="#7B2927" stroke="none" />
</g>
</svg>
