<?xml version="1.0"  encoding="UTF-8" standalone="no"?>
<svg version="1.1" xmlns="http://www.w3.org/2000/svg" xmlns:xlink="http://www.w3.org/1999/xlink" width="443.0000" height="405.0000">
<g transform="translate(-66.0000, -85.0000)">
<path d="M 182.0000,197.0000 L 75.0000,197.0000 L 75.0000,93.0000 L 182.0000,93.0000 L 182.0000,197.0000 Z " fill="none" stroke="#7B2927" stroke-width="16.0000"  stroke-linecap="butt"  stroke-linejoin="miter"  stroke-miterlimit="10.0000" />
<path d="M 342.0000,197.0000 L 235.0000,197.0000 L 235.0000,93.0000 L 342.0000,93.0000 L 342.0000,197.0000 Z " fill="none" stroke="#7B2927" stroke-width="16.0000"  stroke-linecap="butt"  stroke-linejoin="miter"  stroke-miterlimit="10.0000" />
<path d="M 158.0000,482.0000 L 405.0000,482.0000 L 405.0000,421.0000 L 158.0000,421.0000 L 158.0000,482.0000 Z " fill="none" stroke="#7B2927" stroke-width="16.0000"  stroke-linecap="butt"  stroke-linejoin="miter"  stroke-miterlimit="10.0000" />
<path d="M 501.0000,197.0000 L 395.0000,197.0000 L 395.0000,93.0000 L 501.0000,93.0000 L 501.0000,197.0000 Z " fill="none" stroke="#7B2927" stroke-width="16.0000"  stroke-linecap="butt"  stroke-linejoin="miter"  stroke-miterlimit="10.0000" />
<path d="M 509.0000,305.0000 L 66.0000,305.0000 L 66.0000,229.0000 L 509.0000,229.0000 L 509.0000,305.0000 Z "  fill="#7B2927" stroke-width="1px" stroke="#FFFFFF" />
<path d="M 413.0000,338.0000 C 397.0000,344.0000 397.0000,344.0000 397.0000,344.0000 C 285.0000,382.0000 285.0000,382.0000 285.0000,382.0000 C 181.0000,346.0000 181.0000,346.0000 181.0000,346.0000 C 160.0000,338.0000 160.0000,338.0000 160.0000,338.0000 C 413.0000,338.0000 413.0000,338.0000 413.0000,338.0000 M 509.0000,322.0000 C 362.0000,322.0000 214.0000,322.0000 66.0000,322.0000 C 139.0000,348.0000 212.0000,373.0000 284.0000,399.0000 C 359.0000,373.0000 434.0000,348.0000 509.0000,322.0000 Z "  fill="#7B2927" stroke="none" />
</g>
</svg>
