<?xml version="1.0" encoding="utf-8"?>
<!-- Generator: Adobe Illustrator 20.1.0, SVG Export Plug-In . SVG Version: 6.00 Build 0)  -->
<svg version="1.1" id="Layer_1" xmlns="http://www.w3.org/2000/svg" xmlns:xlink="http://www.w3.org/1999/xlink" x="0px" y="0px"
	 viewBox="0 0 74.4 50.4" style="enable-background:new 0 0 74.4 50.4;" xml:space="preserve">
<style type="text/css">
	.st0{fill:#0065A2;stroke:#FFFFFF;stroke-width:0.8;}
	.st1{fill:#FFFFFF;}
</style>
<g>
	<g>
		<path class="st0" d="M74,14.7C74,22.6,57.5,29,37.2,29C16.9,29,0.4,22.6,0.4,14.7v21C0.4,43.6,16.9,50,37.2,50
			C57.5,50,74,43.6,74,35.7V14.7z"/>
		<ellipse class="st0" cx="37.2" cy="14.7" rx="36.8" ry="14.3"/>
		<polygon class="st1" points="28.8,9.1 31.8,13.7 20.3,16.3 22.8,14.2 5.1,11.2 9.6,7.9 26.7,10.8 		"/>
		<polygon class="st1" points="44.9,20.2 42.9,15.5 53.2,13.4 51.4,15 68.7,18 64.6,21.3 47.4,18 		"/>
		<polygon class="st1" points="39.3,6.6 50.9,3.4 51,8.4 48.1,7.9 42.5,12.6 37.1,11.8 42.9,7.2 		"/>
		<polygon class="st1" points="34.3,24.4 23.3,26.5 22.8,21.4 26,22.1 32.1,16.9 37.5,17.8 31,23.5 		"/>
	</g>
	<g>
		<ellipse class="st1" cx="37.8" cy="39.6" rx="16" ry="8.2"/>
		<polygon class="st0" points="28,40.9 33,36 30.6,33.5 38,33 37.6,40.6 35,38 30,42.9 		"/>
		<polygon class="st0" points="36.9,44.9 41.8,39.9 39.4,37.5 46.9,37 46.5,44.6 43.8,41.9 38.9,46.9 		"/>
	</g>
</g>
</svg>
