<?xml version="1.0" encoding="utf-8"?>
<!-- Generator: Adobe Illustrator 20.1.0, SVG Export Plug-In . SVG Version: 6.00 Build 0)  -->
<svg version="1.1" id="Layer_1" xmlns="http://www.w3.org/2000/svg" xmlns:xlink="http://www.w3.org/1999/xlink" x="0px" y="0px"
	 viewBox="0 0 73.8 32.9" style="enable-background:new 0 0 73.8 32.9;" xml:space="preserve">
<style type="text/css">
	.st0{fill:#0065A2;stroke:#FFFFFF;stroke-width:0.8;}
	.st1{fill:none;stroke:#FFFFFF;stroke-width:0.9;stroke-linecap:round;stroke-miterlimit:1;}
	.st2{fill:none;stroke:#FFFFFF;stroke-width:1.8;stroke-linecap:round;stroke-miterlimit:1;}
	.st3{fill:none;stroke:#0065A2;stroke-width:0.9;stroke-linecap:round;stroke-miterlimit:1;}
	.st4{fill:none;stroke:#0065A2;stroke-width:1.8;stroke-linecap:round;stroke-miterlimit:1;}
</style>
<g>
	<g>
		<polygon class="st0" points="1.2,12.3 16.6,0.9 72.8,0.9 61.6,12.3 		"/>
		<polygon class="st0" points="61.6,31.9 72.8,20.5 72.8,1 61.6,12.3 		"/>
		<rect x="1.3" y="12.3" class="st0" width="60.3" height="19.6"/>
	</g>
	<g>
		<path class="st1" d="M56.8,22.3c0,0-3.9,10.1-8.6,0c-4.7-10.1-8.6,0-8.6,0s-3.9,10.1-8.6,0c-4.7-10.1-8.6,0.1-8.6,0.1
			s-3.9,10.1-8.6,0c-4.7-10.1-8.6,0-8.6,0"/>
		<path class="st2" d="M5.2,22.3c0,0,3.9,10.1,8.6,0c4.7-10.1,8.6,0,8.6,0s3.9,10.1,8.6,0c4.7-10.1,8.6,0.1,8.6,0.1s3.9,10.1,8.6,0
			c4.7-10.1,8.6,0,8.6,0"/>
	</g>
	<g>
		<g>
			<path class="st3" d="M57.7,22.3c0,0-3.9,10.1-8.6,0c-4.7-10.1-8.6,0-8.6,0s-3.9,10.1-8.6,0c-4.7-10.1-8.6,0.1-8.6,0.1
				s-3.9,10.1-8.6,0c-4.7-10.1-8.6,0-8.6,0"/>
			<path class="st4" d="M6.1,22.3c0,0,3.9,10.1,8.6,0c4.7-10.1,8.6,0,8.6,0s3.9,10.1,8.6,0c4.7-10.1,8.6,0.1,8.6,0.1s3.9,10.1,8.6,0
				c4.7-10.1,8.6,0,8.6,0"/>
		</g>
		<g>
			<path class="st1" d="M56.8,22.3c0,0-3.9,10.1-8.6,0c-4.7-10.1-8.6,0-8.6,0s-3.9,10.1-8.6,0c-4.7-10.1-8.6,0.1-8.6,0.1
				s-3.9,10.1-8.6,0c-4.7-10.1-8.6,0-8.6,0"/>
			<path class="st2" d="M5.2,22.3c0,0,3.9,10.1,8.6,0c4.7-10.1,8.6,0,8.6,0s3.9,10.1,8.6,0c4.7-10.1,8.6,0.1,8.6,0.1s3.9,10.1,8.6,0
				c4.7-10.1,8.6,0,8.6,0"/>
		</g>
	</g>
	<g>
		<g>
			<path class="st3" d="M57.7,22.3c0,0-3.9,10.1-8.6,0c-4.7-10.1-8.6,0-8.6,0s-3.9,10.1-8.6,0c-4.7-10.1-8.6,0.1-8.6,0.1
				s-3.9,10.1-8.6,0c-4.7-10.1-8.6,0-8.6,0"/>
			<path class="st4" d="M6.1,22.3c0,0,3.9,10.1,8.6,0c4.7-10.1,8.6,0,8.6,0s3.9,10.1,8.6,0c4.7-10.1,8.6,0.1,8.6,0.1s3.9,10.1,8.6,0
				c4.7-10.1,8.6,0,8.6,0"/>
		</g>
		<g>
			<path class="st1" d="M56.8,22.3c0,0-3.9,10.1-8.6,0c-4.7-10.1-8.6,0-8.6,0s-3.9,10.1-8.6,0c-4.7-10.1-8.6,0.1-8.6,0.1
				s-3.9,10.1-8.6,0c-4.7-10.1-8.6,0-8.6,0"/>
			<path class="st2" d="M5.2,22.3c0,0,3.9,10.1,8.6,0c4.7-10.1,8.6,0,8.6,0s3.9,10.1,8.6,0c4.7-10.1,8.6,0.1,8.6,0.1s3.9,10.1,8.6,0
				c4.7-10.1,8.6,0,8.6,0"/>
		</g>
	</g>
</g>
</svg>
