<?xml version="1.0" encoding="utf-8"?>
<!-- Generator: Adobe Illustrator 20.1.0, SVG Export Plug-In . SVG Version: 6.00 Build 0)  -->
<svg version="1.1" id="Layer_1" xmlns="http://www.w3.org/2000/svg" xmlns:xlink="http://www.w3.org/1999/xlink" x="0px" y="0px"
	 viewBox="0 0 87.1 63.2" style="enable-background:new 0 0 87.1 63.2;" xml:space="preserve">
<style type="text/css">
	.st0{fill:#0065A2;stroke:#FFFFFF;stroke-width:0.8;}
	.st1{fill:#FFFFFF;}
	.st2{fill:#0065A2;stroke:#FFFFFF;stroke-width:1.6;}
</style>
<g>
	<g>
		<g>
			<rect x="1.1" y="11.8" class="st0" width="76.3" height="50.1"/>
			<polygon class="st0" points="86.2,49 77.4,61.9 77.4,11.8 86.2,1.1 			"/>
			<polygon class="st0" points="14.3,1.1 86.2,1.1 77.4,11.8 1.1,11.8 			"/>
			<g>
				<polygon class="st1" points="66.9,37.6 54.2,37.6 54.2,35.6 66.9,35.6 66.9,32.4 74.3,36.6 66.9,40.8 				"/>
			</g>
			<g>
				<polygon class="st1" points="15.8,37.6 3,37.6 3,35.6 15.8,35.6 15.8,32.4 23.2,36.6 15.8,40.8 				"/>
			</g>
			<g>
				<polygon class="st1" points="64.7,24.2 54,31.1 52.9,29.4 63.6,22.4 61.9,19.8 70.4,19.3 66.5,26.8 				"/>
			</g>
			<g>
				<polygon class="st1" points="64.7,49.2 54,42.2 52.9,43.9 63.6,50.9 61.9,53.6 70.4,54.1 66.5,46.6 				"/>
			</g>
		</g>
	</g>
	<ellipse class="st2" cx="38.8" cy="36.4" rx="12.6" ry="12.6"/>
</g>
</svg>
