<?xml version="1.0" encoding="utf-8"?>
<!-- Generator: Adobe Illustrator 20.1.0, SVG Export Plug-In . SVG Version: 6.00 Build 0)  -->
<svg version="1.1" id="Layer_1" xmlns="http://www.w3.org/2000/svg" xmlns:xlink="http://www.w3.org/1999/xlink" x="0px" y="0px"
	 viewBox="0 0 56.7 80.3" style="enable-background:new 0 0 56.7 80.3;" xml:space="preserve">
<style type="text/css">
	.st0{stroke:#FFFFFF;stroke-width:0.8;}
	.st1{fill:#0065A2;stroke:#FFFFFF;stroke-width:0.8;}
	.st2{fill:none;stroke:#FFFFFF;stroke-width:0.8;stroke-miterlimit:1;}
	.st3{fill:none;stroke:#FFFFFF;stroke-width:0.8;stroke-miterlimit:1;}
	.st4{fill:#FFFFFF;}
</style>
<g>
	<polygon class="st0" points="7.8,24.8 1,31.6 1,79.3 48.9,79.3 55.7,72.5 55.7,24.8 	"/>
	<polygon class="st0" points="1,31.6 48.9,31.6 55.7,24.8 7.8,24.8 	"/>
	<polygon class="st0" points="48.9,31.6 55.7,24.8 55.7,72.5 48.9,79.3 	"/>
	<polygon class="st1" points="7.8,24.8 1,31.6 1,79.3 48.9,79.3 55.7,72.5 55.7,24.8 	"/>
	<polyline class="st2" points="1,31.6 48.9,31.6 55.7,24.8 	"/>
	<line class="st2" x1="48.9" y1="31.6" x2="48.9" y2="79.3"/>
	<polygon class="st0" points="7.8,1 1,7.8 1,31.6 48.9,31.6 55.7,24.8 55.7,1 	"/>
	<polygon class="st0" points="1,7.8 48.9,7.8 55.7,1 7.8,1 	"/>
	<polygon class="st0" points="48.9,7.8 55.7,1 55.7,24.8 48.9,31.6 	"/>
	<polygon class="st1" points="7.8,1 1,7.8 1,31.6 48.9,31.6 55.7,24.8 55.7,1 	"/>
	<polyline class="st3" points="1,7.8 48.9,7.8 55.7,1 	"/>
	<line class="st2" x1="48.9" y1="7.8" x2="48.9" y2="31.6"/>
	<rect x="4.4" y="11.2" class="st4" width="13.7" height="6.8"/>
	<rect x="31.8" y="11.2" class="st4" width="13.7" height="6.8"/>
	<rect x="4.4" y="21.4" class="st4" width="13.7" height="6.8"/>
	<rect x="31.8" y="21.4" class="st4" width="13.7" height="6.8"/>
	<line class="st2" x1="18.1" y1="14.6" x2="31.8" y2="14.6"/>
	<line class="st2" x1="18.1" y1="24.8" x2="31.8" y2="24.8"/>
	<line class="st2" x1="18.1" y1="21.4" x2="31.8" y2="18"/>
	<line class="st2" x1="18.1" y1="18" x2="31.8" y2="21.4"/>
	<rect x="7.8" y="38.4" class="st2" width="34.2" height="34.1"/>
	<rect x="14.7" y="45.3" class="st4" width="20.5" height="20.4"/>
</g>
</svg>
