<?xml version="1.0" encoding="utf-8"?>
<!-- Generator: Adobe Illustrator 20.1.0, SVG Export Plug-In . SVG Version: 6.00 Build 0)  -->
<svg version="1.1" id="Layer_1" xmlns="http://www.w3.org/2000/svg" xmlns:xlink="http://www.w3.org/1999/xlink" x="0px" y="0px"
	 viewBox="0 0 87.1 63.2" style="enable-background:new 0 0 87.1 63.2;" xml:space="preserve">
<style type="text/css">
	.st0{fill:#0065A2;stroke:#FFFFFF;stroke-width:0.8;}
	.st1{fill:#FFFFFF;}
</style>
<g>
	<g>
		<g>
			<rect x="1.1" y="11.8" class="st0" width="76.3" height="50.1"/>
			<polygon class="st0" points="86.2,49 77.4,61.9 77.4,11.8 86.2,1.1 			"/>
			<polygon class="st0" points="14.3,1.1 86.2,1.1 77.4,11.8 1.1,11.8 			"/>
			<g>
				<polygon class="st1" points="12.3,24.9 5.5,24.9 5.5,22.9 12.3,22.9 12.3,19.7 19.7,23.9 12.3,28.1 				"/>
			</g>
			<g>
				<polygon class="st1" points="12.3,37.6 5.5,37.6 5.5,35.6 12.3,35.6 12.3,32.4 19.7,36.6 12.3,40.8 				"/>
			</g>
			<g>
				<polygon class="st1" points="12.3,50.3 5.5,50.3 5.5,48.2 12.3,48.2 12.3,45.1 19.7,49.3 12.3,53.4 				"/>
			</g>
			<g>
				<polygon class="st1" points="69.4,37.7 60.5,37.7 60.5,35.7 69.4,35.7 69.4,32.5 76.8,36.7 69.4,40.9 				"/>
			</g>
		</g>
	</g>
</g>
<path class="st1" d="M25.8,37.5c0,8.1,6.6,14.7,14.7,14.7V37.5H25.8z"/>
<path class="st1" d="M40.5,22.8c8.1,0,14.7,6.6,14.7,14.7H40.5V22.8z"/>
</svg>
