<?xml version="1.0" encoding="UTF-8" standalone="no"?>
<svg
   xmlns:dc="http://purl.org/dc/elements/1.1/"
   xmlns:cc="http://creativecommons.org/ns#"
   xmlns:rdf="http://www.w3.org/1999/02/22-rdf-syntax-ns#"
   xmlns:svg="http://www.w3.org/2000/svg"
   xmlns="http://www.w3.org/2000/svg"
   viewBox="0 0 65.080002 27.52"
   height="27.52"
   width="65.080002"
   xml:space="preserve"
   id="svg2"
   version="1.1"><metadata
     id="metadata8"><rdf:RDF><cc:Work
         rdf:about=""><dc:format>image/svg+xml</dc:format><dc:type
           rdf:resource="http://purl.org/dc/dcmitype/StillImage" /></cc:Work></rdf:RDF></metadata><defs
     id="defs6" /><g
     transform="matrix(1.3333333,0,0,-1.3333333,0,27.52)"
     id="g10"><g
       transform="scale(0.1)"
       id="g12"><path
         id="path14"
         style="fill:#0065A2;fill-opacity:1;fill-rule:nonzero;stroke:none"
         d="m 6.58203,8.46875 h 357.195 v 77.0586 H 6.58203 Z" /><path
         id="path16"
         style="fill:none;stroke:#ffffff;stroke-width:3.99993992;stroke-linecap:butt;stroke-linejoin:miter;stroke-miterlimit:4;stroke-dasharray:none;stroke-opacity:1"
         d="M 363.777,8.46875 V 85.5273 H 6.58203 V 8.46875 Z" /><path
         id="path18"
         style="fill:#0065A2;fill-opacity:1;fill-rule:nonzero;stroke:none"
         d="M 5.64453,84.9414 149.934,201.875 H 483.23 L 363.445,84.9414 H 5.64453" /><path
         id="path20"
         style="fill:none;stroke:#ffffff;stroke-width:3.99993992;stroke-linecap:butt;stroke-linejoin:miter;stroke-miterlimit:4;stroke-dasharray:none;stroke-opacity:1"
         d="M 5.64453,84.9414 149.934,201.875 H 483.23 L 363.445,84.9414 Z" /><path
         id="path22"
         style="fill:#0065A2;fill-opacity:1;fill-rule:nonzero;stroke:none"
         d="M 363.586,4.81641 482.898,123.645 482.98,201.672 363.586,85.1094 V 4.81641" /><path
         id="path24"
         style="fill:none;stroke:#ffffff;stroke-width:3.99993992;stroke-linecap:butt;stroke-linejoin:miter;stroke-miterlimit:4;stroke-dasharray:none;stroke-opacity:1"
         d="M 363.586,4.81641 482.898,123.645 482.98,201.672 363.586,85.1094 Z" /><path
         id="path26"
         style="fill:#ffffff;fill-opacity:1;fill-rule:nonzero;stroke:none"
         d="m 237.063,171.535 8.066,-26.574 -54.797,6.836 15.344,5.617 -55.969,30.41 21.582,8.223 53.25,-28.742 12.524,4.23" /><path
         id="path28"
         style="fill:#ffffff;fill-opacity:1;fill-rule:nonzero;stroke:none"
         d="m 264.063,115.801 -9.227,25.578 54.297,-7.031 -9.824,-4.7 60.808,-28.527 -22.512,-8.953 -60.171,29.66 -13.371,-6.027" /><path
         id="path30"
         style="fill:#ffffff;fill-opacity:1;fill-rule:nonzero;stroke:none"
         d="m 378.352,192.883 59.976,-4.582 -7.723,-23.641 -12.722,7.488 -123.32,-28.828 -24.125,12.793 124.003,28.059 -16.089,8.711" /><path
         id="path32"
         style="fill:#ffffff;fill-opacity:1;fill-rule:nonzero;stroke:none"
         d="m 117.441,92.5508 -55.5074,8.8472 6.6523,24.754 13.7969,-8.593 124.8832,25.461 23.797,-13.352 -127.594,-26.98 13.972,-10.1372" /><path
         id="path34"
         style="fill:#ffffff;fill-opacity:1;fill-rule:nonzero;stroke:none"
         d="m 31.3555,32.168 h 76.25 v 31.25 h -76.25 z" /><path
         id="path36"
         style="fill:#ffffff;fill-opacity:1;fill-rule:nonzero;stroke:none"
         d="m 256.086,32.168 h 76.25 v 31.25 h -76.25 z" /></g></g></svg>