<?xml version="1.0" encoding="utf-8"?>
<!-- Generator: Adobe Illustrator 20.1.0, SVG Export Plug-In . SVG Version: 6.00 Build 0)  -->
<svg version="1.1" id="Layer_1" xmlns="http://www.w3.org/2000/svg" xmlns:xlink="http://www.w3.org/1999/xlink" x="0px" y="0px"
	 viewBox="0 0 30.8 54.7" style="enable-background:new 0 0 30.8 54.7;" xml:space="preserve">
<style type="text/css">
	.st0{fill:#0065A2;}
	.st1{fill:#0065A2;stroke:#FFFFFF;stroke-width:0.8;}
	.st2{fill:none;stroke:#FFFFFF;stroke-width:0.8;}
</style>
<g>
	<g>
		<g>
			<path class="st0" d="M28.3,23.4c0.5-1.7,2.4-10.2,2.5-11.3c0.1-1.2-0.3-2.7-1-3c0-0.4,0-0.7,0-0.7c-0.2-0.1-0.3-0.1-0.5-0.2l0,0
				c0,0,0.5-1.9,0.7-3.2c0.5-2.5,0.5-3.8,0.5-3.8c0-0.3-0.1-0.7-0.4-0.7l-1.5-0.4c-0.3-0.1-0.5,0.1-0.7,0.4c0,0-0.6,1.2-1.4,3.6
				C26.3,5.4,25.9,7,25.9,7l0,0c-0.9-0.3-1.8-0.6-2.7-0.8c-2.3-0.6-4.6-1.1-6.8-1.5c0,0-0.1,0.2-0.3,0.6l0,0c-0.7-0.1-1.8,1-2.4,2
				c-0.5,1.1-3.2,9.3-3.7,11c-0.5,1.7-1.4,6-1.8,8.2c-0.4,2.1-0.8,5.9-2.1,10.9c-0.8,2.9-2.1,7.3-2.8,9.2c-0.2,0.5-1.6,2.9,0.5,3.7
				c2.1,0.8,5.1,1.7,6.7,2.1c1.5,0.4,4.6,1.2,6.8,1.6c2.2,0.4,2.2-2.5,2.3-3c0.3-1.9,1.5-6.4,2.3-9.3c1.4-5,3-8.4,3.7-10.4
				C26.4,29.3,27.8,25.1,28.3,23.4z"/>
		</g>
		<path class="st0" d="M28.4,1.4c0,0-0.7-0.2-1.3-0.4c-0.5-0.1-1.2-0.3-1.2-0.3"/>
		<g>
			<path class="st0" d="M26,23.7c0.5-1.7,2.4-10.2,2.5-11.3c0.1-1.2-0.4-2.7-1-3c0-0.4,0-0.7,0-0.7c-0.2-0.1-0.3-0.1-0.5-0.2l0,0
				c0,0,0.5-1.9,0.7-3.2c0.5-2.5,0.5-3.8,0.5-3.8c0-0.3-0.1-0.6-0.4-0.7l-1.5-0.4c-0.3-0.1-0.5,0.1-0.7,0.4c0,0-0.6,1.2-1.4,3.6
				c-0.4,1.3-0.8,2.9-0.8,2.9l0,0C22.7,7,21.9,6.7,21,6.5c-2.3-0.6-4.6-1.1-6.8-1.5c0,0-0.1,0.2-0.3,0.6l0,0c-0.7-0.1-1.8,1-2.4,2
				c-0.5,1.1-3.2,9.3-3.7,11c-0.5,1.7-1.4,6-1.8,8.2c-0.4,2.1-0.8,5.9-2.1,10.9c-0.8,2.9-2.1,7.3-2.8,9.2c-0.2,0.5-1.6,2.9,0.5,3.7
				c2.1,0.8,5.1,1.7,6.7,2.1c1.5,0.4,4.6,1.2,6.8,1.6c2.2,0.4,2.2-2.5,2.3-3c0.3-1.9,1.5-6.4,2.3-9.3c1.4-5,3-8.4,3.7-10.4
				C24.1,29.5,25.5,25.4,26,23.7z"/>
		</g>
		<path class="st0" d="M10,35.5c-0.2,0.9-1.1,1.4-2,1.1c-0.9-0.2-1.4-1.1-1.1-2c0.2-0.9,1.1-1.4,2-1.1C9.8,33.8,10.3,34.7,10,35.5z"
			/>
		<path class="st0" d="M14.1,37.3c-0.2,0.9-1.1,1.4-2,1.1c-0.9-0.2-1.4-1.1-1.1-2c0.2-0.9,1.1-1.4,2-1.1
			C13.9,35.5,14.4,36.4,14.1,37.3z"/>
		<path class="st0" d="M18.6,37.9c-0.2,0.9-1.1,1.4-2,1.1c-0.9-0.2-1.4-1.1-1.1-2c0.2-0.9,1.1-1.4,2-1.1
			C18.3,36.1,18.8,37,18.6,37.9z"/>
		<path class="st0" d="M9,39.1c-0.2,0.9-1.1,1.4-2,1.1c-0.9-0.2-1.4-1.1-1.1-2c0.2-0.9,1.1-1.4,2-1.1C8.8,37.4,9.3,38.3,9,39.1z"/>
		<path class="st0" d="M13.1,40.9c-0.2,0.9-1.1,1.4-2,1.1c-0.9-0.2-1.4-1.1-1.1-2c0.2-0.9,1.1-1.4,2-1.1
			C12.9,39.1,13.4,40,13.1,40.9z"/>
		<path class="st0" d="M17.6,41.5c-0.2,0.9-1.1,1.4-2,1.1c-0.9-0.2-1.4-1.1-1.1-2c0.2-0.9,1.1-1.4,2-1.1
			C17.3,39.7,17.8,40.6,17.6,41.5z"/>
		<path class="st0" d="M8,42.7c-0.2,0.9-1.1,1.4-2,1.1c-0.9-0.2-1.4-1.1-1.1-2c0.2-0.9,1.1-1.4,2-1.1C7.8,41,8.3,41.9,8,42.7z"/>
		<path class="st0" d="M12.2,44.5c-0.2,0.9-1.1,1.4-2,1.1c-0.9-0.2-1.4-1.1-1.1-2c0.2-0.9,1.1-1.4,2-1.1
			C11.9,42.7,12.4,43.6,12.2,44.5z"/>
		<path class="st0" d="M16.6,45.1c-0.2,0.9-1.1,1.4-2,1.1c-0.9-0.2-1.4-1.1-1.1-2c0.2-0.9,1.1-1.4,2-1.1
			C16.3,43.3,16.8,44.2,16.6,45.1z"/>
		<path class="st0" d="M7.1,46.3c-0.2,0.9-1.1,1.4-2,1.1c-0.9-0.2-1.4-1.1-1.1-2c0.2-0.9,1.1-1.4,2-1.1C6.8,44.5,7.3,45.4,7.1,46.3z
			 M11.2,48.1c-0.2,0.9-1.1,1.4-2,1.1c-0.9-0.2-1.4-1.1-1.1-2c0.2-0.9,1.1-1.4,2-1.1C10.9,46.3,11.4,47.2,11.2,48.1z"/>
		<path class="st0" d="M15.6,48.7c-0.2,0.9-1.1,1.4-2,1.1c-0.9-0.2-1.4-1.1-1.1-2s1.1-1.4,2-1.1C15.3,46.9,15.8,47.8,15.6,48.7z"/>
		<path class="st0" d="M9.1,50.5c0,0.1-0.2,0.1-0.3,0.1c-0.2,0-0.3-0.1-0.2-0.2c0-0.1,0.2-0.1,0.3-0.1C9,50.3,9.1,50.4,9.1,50.5z
			 M8.5,50.3L8,52.2 M8.6,50.5l-0.5,1.7 M9.1,50.5l-0.5,1.9 M8.9,50.6l-0.5,1.7 M12.2,23.4l-0.4,1.3 M12.4,23.5L12,24.8 M19.7,25.5
			l-0.4,1.3 M19.6,25.5l-0.4,1.3"/>
		<path class="st0" d="M27.2,8.5c0,0,0.5-1.9,0.7-3.2c0.5-2.5,0.5-3.8,0.5-3.8c0-0.3-0.1-0.6-0.4-0.7l-1.5-0.4
			c-0.3-0.1-0.5,0.1-0.7,0.4c0,0-0.6,1.2-1.4,3.6c-0.4,1.3-0.8,2.9-0.8,2.9 M23,25.8c-0.1,0.3-0.4,0.5-0.7,0.4L9.7,22.7
			c-0.3-0.1-0.5-0.4-0.4-0.7l2.2-8c0.1-0.3,0.4-0.5,0.7-0.4l12.6,3.5c0.3,0.1,0.5,0.4,0.4,0.7L23,25.8z M27.3,7.9
			C26.2,7.4,25,7,23.8,6.6 M14.4,5c0,0-3,6.1-4.7,12.3c-2,7.4-2.3,9.9-2,13.3c0.1,0.7,0.8,1.6,1.6,1.8c0.3,0.1,0.7,0.2,0.8,0.2
			c0.2,0,0.7,0.2,1.2,0.6c0.5,0.4,0.6,0.5,0.9,0.6c0.3,0.2,0.3,0.3,1.1,0.5c0.8,0.2,0.9,0.2,1.2,0.2c0.3,0,0.5,0,1.1-0.1
			c0.6-0.1,1.2,0.1,1.3,0.1c0.2,0,0.5,0.1,0.8,0.2c0.8,0.2,1.8-0.2,2.3-0.7c2-2.8,3-5.1,5.1-12.5c1.7-6.2,2.3-13,2.3-13 M12.6,8.1
			c2.4,0.3,5,0.9,7.4,1.6c2.4,0.7,4.9,1.5,7.2,2.5"/>
		<path class="st0" d="M18,30.7c-0.5,1.9-2.5,3.1-4.5,2.5c-1.9-0.5-3.1-2.5-2.5-4.5c0.5-1.9,2.5-3.1,4.5-2.5
			C17.4,26.8,18.6,28.8,18,30.7z M11.3,24.8c0.5,0.1,0.9,0.3,1,0.5c0.2,0.1,0.2,0.3,0.1,0.4c-0.2,0.1-0.5,0.3-0.6,0.5
			c-0.2,0.2-0.3,0.2-0.6,0c-0.5-0.3-1.5-1-1.8-1.4c-0.1-0.2,0-0.2,0.3-0.3C10.1,24.5,10.8,24.6,11.3,24.8z M8.7,28.6
			C9,28.7,9.7,29,9.9,29.2c0.2,0.1,0.5,0.4,0.5,0.8c0,0.4,0,1.3,0.2,1.6c0.2,0.4,0.2,0.6-0.1,0.5c-0.3-0.1-1-0.3-1.2-0.4
			c-0.2-0.1-0.5-0.3-0.6-0.5c-0.2-0.6-0.2-1.7-0.1-2.3C8.5,28.5,8.6,28.5,8.7,28.6z"/>
		<path class="st0" d="M19.8,27.1C19.3,27,18.9,27,18.7,27c-0.2,0-0.3,0.1-0.3,0.3c0.1,0.2,0.2,0.5,0.3,0.7c0.1,0.2,0.2,0.3,0.5,0.4
			c0.6,0,1.8-0.1,2.2-0.3c0.2-0.1,0.1-0.2-0.1-0.4C21.1,27.5,20.4,27.3,19.8,27.1z M20.1,31.7c-0.3-0.1-1-0.1-1.2-0.1
			c-0.2,0-0.6,0.1-0.8,0.4c-0.2,0.4-0.7,1.1-1,1.3c-0.4,0.2-0.5,0.4-0.1,0.5c0.3,0.1,1,0.2,1.2,0.3c0.2,0,0.6,0,0.8-0.2
			c0.5-0.4,1.1-1.4,1.3-1.9C20.3,31.8,20.2,31.8,20.1,31.7z"/>
		<line class="st0" x1="19.5" y1="10.7" x2="20.7" y2="6.4"/>
		<line class="st0" x1="19.9" y1="10.8" x2="21.1" y2="6.5"/>
	</g>
	<g>
		<g>
			<path class="st0" d="M28.3,23.4c0.5-1.7,2.4-10.2,2.5-11.3c0.1-1.2-0.3-2.7-1-3c0-0.4,0-0.7,0-0.7c-0.2-0.1-0.3-0.1-0.5-0.2l0,0
				c0,0,0.5-1.9,0.7-3.2c0.5-2.5,0.5-3.8,0.5-3.8c0-0.3-0.1-0.7-0.4-0.7l-1.5-0.4c-0.3-0.1-0.5,0.1-0.7,0.4c0,0-0.6,1.2-1.4,3.6
				C26.3,5.4,25.9,7,25.9,7l0,0c-0.9-0.3-1.8-0.6-2.7-0.8c-2.3-0.6-4.6-1.1-6.8-1.5c0,0-0.1,0.2-0.3,0.6l0,0c-0.7-0.1-1.8,1-2.4,2
				c-0.5,1.1-3.2,9.3-3.7,11c-0.5,1.7-1.4,6-1.8,8.2c-0.4,2.1-0.8,5.9-2.1,10.9c-0.8,2.9-2.1,7.3-2.8,9.2c-0.2,0.5-1.6,2.9,0.5,3.7
				c2.1,0.8,5.1,1.7,6.7,2.1c1.5,0.4,4.6,1.2,6.8,1.6c2.2,0.4,2.2-2.5,2.3-3c0.3-1.9,1.5-6.4,2.3-9.3c1.4-5,3-8.4,3.7-10.4
				C26.4,29.3,27.8,25.1,28.3,23.4z"/>
		</g>
		<path class="st1" d="M28.4,1.4c0,0-0.7-0.2-1.3-0.4c-0.5-0.1-1.2-0.3-1.2-0.3"/>
		<g>
			<path class="st1" d="M26,23.7c0.5-1.7,2.4-10.2,2.5-11.3c0.1-1.2-0.4-2.7-1-3c0-0.4,0-0.7,0-0.7c-0.2-0.1-0.3-0.1-0.5-0.2l0,0
				c0,0,0.5-1.9,0.7-3.2c0.5-2.5,0.5-3.8,0.5-3.8c0-0.3-0.1-0.6-0.4-0.7l-1.5-0.4c-0.3-0.1-0.5,0.1-0.7,0.4c0,0-0.6,1.2-1.4,3.6
				c-0.4,1.3-0.8,2.9-0.8,2.9l0,0C22.7,7,21.9,6.7,21,6.5c-2.3-0.6-4.6-1.1-6.8-1.5c0,0-0.1,0.2-0.3,0.6l0,0c-0.7-0.1-1.8,1-2.4,2
				c-0.5,1.1-3.2,9.3-3.7,11c-0.5,1.7-1.4,6-1.8,8.2c-0.4,2.1-0.8,5.9-2.1,10.9c-0.8,2.9-2.1,7.3-2.8,9.2c-0.2,0.5-1.6,2.9,0.5,3.7
				c2.1,0.8,5.1,1.7,6.7,2.1c1.5,0.4,4.6,1.2,6.8,1.6c2.2,0.4,2.2-2.5,2.3-3c0.3-1.9,1.5-6.4,2.3-9.3c1.4-5,3-8.4,3.7-10.4
				C24.1,29.5,25.5,25.4,26,23.7z"/>
		</g>
		<path class="st1" d="M10,35.5c-0.2,0.9-1.1,1.4-2,1.1c-0.9-0.2-1.4-1.1-1.1-2c0.2-0.9,1.1-1.4,2-1.1C9.8,33.8,10.3,34.7,10,35.5z"
			/>
		<path class="st1" d="M14.1,37.3c-0.2,0.9-1.1,1.4-2,1.1c-0.9-0.2-1.4-1.1-1.1-2c0.2-0.9,1.1-1.4,2-1.1
			C13.9,35.5,14.4,36.4,14.1,37.3z"/>
		<path class="st1" d="M18.6,37.9c-0.2,0.9-1.1,1.4-2,1.1c-0.9-0.2-1.4-1.1-1.1-2c0.2-0.9,1.1-1.4,2-1.1
			C18.3,36.1,18.8,37,18.6,37.9z"/>
		<path class="st1" d="M9,39.1c-0.2,0.9-1.1,1.4-2,1.1c-0.9-0.2-1.4-1.1-1.1-2c0.2-0.9,1.1-1.4,2-1.1C8.8,37.4,9.3,38.3,9,39.1z"/>
		<path class="st1" d="M13.1,40.9c-0.2,0.9-1.1,1.4-2,1.1c-0.9-0.2-1.4-1.1-1.1-2c0.2-0.9,1.1-1.4,2-1.1
			C12.9,39.1,13.4,40,13.1,40.9z"/>
		<path class="st1" d="M17.6,41.5c-0.2,0.9-1.1,1.4-2,1.1c-0.9-0.2-1.4-1.1-1.1-2c0.2-0.9,1.1-1.4,2-1.1
			C17.3,39.7,17.8,40.6,17.6,41.5z"/>
		<path class="st1" d="M8,42.7c-0.2,0.9-1.1,1.4-2,1.1c-0.9-0.2-1.4-1.1-1.1-2c0.2-0.9,1.1-1.4,2-1.1C7.8,41,8.3,41.9,8,42.7z"/>
		<path class="st1" d="M12.2,44.5c-0.2,0.9-1.1,1.4-2,1.1c-0.9-0.2-1.4-1.1-1.1-2c0.2-0.9,1.1-1.4,2-1.1
			C11.9,42.7,12.4,43.6,12.2,44.5z"/>
		<path class="st1" d="M16.6,45.1c-0.2,0.9-1.1,1.4-2,1.1c-0.9-0.2-1.4-1.1-1.1-2c0.2-0.9,1.1-1.4,2-1.1
			C16.3,43.3,16.8,44.2,16.6,45.1z"/>
		<path class="st1" d="M7.1,46.3c-0.2,0.9-1.1,1.4-2,1.1c-0.9-0.2-1.4-1.1-1.1-2c0.2-0.9,1.1-1.4,2-1.1C6.8,44.5,7.3,45.4,7.1,46.3z
			 M11.2,48.1c-0.2,0.9-1.1,1.4-2,1.1c-0.9-0.2-1.4-1.1-1.1-2c0.2-0.9,1.1-1.4,2-1.1C10.9,46.3,11.4,47.2,11.2,48.1z"/>
		<path class="st1" d="M15.6,48.7c-0.2,0.9-1.1,1.4-2,1.1c-0.9-0.2-1.4-1.1-1.1-2s1.1-1.4,2-1.1C15.3,46.9,15.8,47.8,15.6,48.7z"/>
		<path class="st1" d="M9.1,50.5c0,0.1-0.2,0.1-0.3,0.1c-0.2,0-0.3-0.1-0.2-0.2c0-0.1,0.2-0.1,0.3-0.1C9,50.3,9.1,50.4,9.1,50.5z
			 M8.5,50.3L8,52.2 M8.6,50.5l-0.5,1.7 M9.1,50.5l-0.5,1.9 M8.9,50.6l-0.5,1.7 M12.2,23.4l-0.4,1.3 M12.4,23.5L12,24.8 M19.7,25.5
			l-0.4,1.3 M19.6,25.5l-0.4,1.3"/>
		<path class="st0" d="M27.2,8.5c0,0,0.5-1.9,0.7-3.2c0.5-2.5,0.5-3.8,0.5-3.8c0-0.3-0.1-0.6-0.4-0.7l-1.5-0.4
			c-0.3-0.1-0.5,0.1-0.7,0.4c0,0-0.6,1.2-1.4,3.6c-0.4,1.3-0.8,2.9-0.8,2.9 M23,25.8c-0.1,0.3-0.4,0.5-0.7,0.4L9.7,22.7
			c-0.3-0.1-0.5-0.4-0.4-0.7l2.2-8c0.1-0.3,0.4-0.5,0.7-0.4l12.6,3.5c0.3,0.1,0.5,0.4,0.4,0.7L23,25.8z M27.3,7.9
			C26.2,7.4,25,7,23.8,6.6 M14.4,5c0,0-3,6.1-4.7,12.3c-2,7.4-2.3,9.9-2,13.3c0.1,0.7,0.8,1.6,1.6,1.8c0.3,0.1,0.7,0.2,0.8,0.2
			c0.2,0,0.7,0.2,1.2,0.6c0.5,0.4,0.6,0.5,0.9,0.6c0.3,0.2,0.3,0.3,1.1,0.5c0.8,0.2,0.9,0.2,1.2,0.2c0.3,0,0.5,0,1.1-0.1
			c0.6-0.1,1.2,0.1,1.3,0.1c0.2,0,0.5,0.1,0.8,0.2c0.8,0.2,1.8-0.2,2.3-0.7c2-2.8,3-5.1,5.1-12.5c1.7-6.2,2.3-13,2.3-13 M12.6,8.1
			c2.4,0.3,5,0.9,7.4,1.6c2.4,0.7,4.9,1.5,7.2,2.5"/>
		<path class="st1" d="M18,30.7c-0.5,1.9-2.5,3.1-4.5,2.5c-1.9-0.5-3.1-2.5-2.5-4.5c0.5-1.9,2.5-3.1,4.5-2.5
			C17.4,26.8,18.6,28.8,18,30.7z M11.3,24.8c0.5,0.1,0.9,0.3,1,0.5c0.2,0.1,0.2,0.3,0.1,0.4c-0.2,0.1-0.5,0.3-0.6,0.5
			c-0.2,0.2-0.3,0.2-0.6,0c-0.5-0.3-1.5-1-1.8-1.4c-0.1-0.2,0-0.2,0.3-0.3C10.1,24.5,10.8,24.6,11.3,24.8z M8.7,28.6
			C9,28.7,9.7,29,9.9,29.2c0.2,0.1,0.5,0.4,0.5,0.8c0,0.4,0,1.3,0.2,1.6c0.2,0.4,0.2,0.6-0.1,0.5c-0.3-0.1-1-0.3-1.2-0.4
			c-0.2-0.1-0.5-0.3-0.6-0.5c-0.2-0.6-0.2-1.7-0.1-2.3C8.5,28.5,8.6,28.5,8.7,28.6z"/>
		<path class="st1" d="M19.8,27.1C19.3,27,18.9,27,18.7,27c-0.2,0-0.3,0.1-0.3,0.3c0.1,0.2,0.2,0.5,0.3,0.7c0.1,0.2,0.2,0.3,0.5,0.4
			c0.6,0,1.8-0.1,2.2-0.3c0.2-0.1,0.1-0.2-0.1-0.4C21.1,27.5,20.4,27.3,19.8,27.1z M20.1,31.7c-0.3-0.1-1-0.1-1.2-0.1
			c-0.2,0-0.6,0.1-0.8,0.4c-0.2,0.4-0.7,1.1-1,1.3c-0.4,0.2-0.5,0.4-0.1,0.5c0.3,0.1,1,0.2,1.2,0.3c0.2,0,0.6,0,0.8-0.2
			c0.5-0.4,1.1-1.4,1.3-1.9C20.3,31.8,20.2,31.8,20.1,31.7z"/>
		<line class="st1" x1="19.5" y1="10.7" x2="20.7" y2="6.4"/>
		<line class="st1" x1="19.9" y1="10.8" x2="21.1" y2="6.5"/>
	</g>
	<g>
		<g>
			<path class="st2" d="M28.3,23.4c0.5-1.7,2.4-10.2,2.5-11.3c0.1-1.2-0.3-2.7-1-3c0-0.4,0-0.7,0-0.7c-0.2-0.1-0.3-0.1-0.5-0.2l0,0
				c0,0,0.5-1.9,0.7-3.2c0.5-2.5,0.5-3.8,0.5-3.8c0-0.3-0.1-0.7-0.4-0.7l-1.5-0.4c-0.3-0.1-0.5,0.1-0.7,0.4c0,0-0.6,1.2-1.4,3.6
				C26.3,5.4,25.9,7,25.9,7l0,0c-0.9-0.3-1.8-0.6-2.7-0.8c-2.3-0.6-4.6-1.1-6.8-1.5c0,0-0.1,0.2-0.3,0.6l0,0c-0.7-0.1-1.8,1-2.4,2
				c-0.5,1.1-3.2,9.3-3.7,11c-0.5,1.7-1.4,6-1.8,8.2c-0.4,2.1-0.8,5.9-2.1,10.9c-0.8,2.9-2.1,7.3-2.8,9.2c-0.2,0.5-1.6,2.9,0.5,3.7
				c2.1,0.8,5.1,1.7,6.7,2.1c1.5,0.4,4.6,1.2,6.8,1.6c2.2,0.4,2.2-2.5,2.3-3c0.3-1.9,1.5-6.4,2.3-9.3c1.4-5,3-8.4,3.7-10.4
				C26.4,29.3,27.8,25.1,28.3,23.4z"/>
		</g>
		<path class="st2" d="M28.4,1.4c0,0-0.7-0.2-1.3-0.4c-0.5-0.1-1.2-0.3-1.2-0.3"/>
		<g>
			<path class="st2" d="M26,23.7c0.5-1.7,2.4-10.2,2.5-11.3c0.1-1.2-0.4-2.7-1-3c0-0.4,0-0.7,0-0.7c-0.2-0.1-0.3-0.1-0.5-0.2l0,0
				c0,0,0.5-1.9,0.7-3.2c0.5-2.5,0.5-3.8,0.5-3.8c0-0.3-0.1-0.6-0.4-0.7l-1.5-0.4c-0.3-0.1-0.5,0.1-0.7,0.4c0,0-0.6,1.2-1.4,3.6
				c-0.4,1.3-0.8,2.9-0.8,2.9l0,0C22.7,7,21.9,6.7,21,6.5c-2.3-0.6-4.6-1.1-6.8-1.5c0,0-0.1,0.2-0.3,0.6l0,0c-0.7-0.1-1.8,1-2.4,2
				c-0.5,1.1-3.2,9.3-3.7,11c-0.5,1.7-1.4,6-1.8,8.2c-0.4,2.1-0.8,5.9-2.1,10.9c-0.8,2.9-2.1,7.3-2.8,9.2c-0.2,0.5-1.6,2.9,0.5,3.7
				c2.1,0.8,5.1,1.7,6.7,2.1c1.5,0.4,4.6,1.2,6.8,1.6c2.2,0.4,2.2-2.5,2.3-3c0.3-1.9,1.5-6.4,2.3-9.3c1.4-5,3-8.4,3.7-10.4
				C24.1,29.5,25.5,25.4,26,23.7z"/>
		</g>
		<path class="st2" d="M10,35.5c-0.2,0.9-1.1,1.4-2,1.1c-0.9-0.2-1.4-1.1-1.1-2c0.2-0.9,1.1-1.4,2-1.1C9.8,33.8,10.3,34.7,10,35.5z"
			/>
		<path class="st2" d="M14.1,37.3c-0.2,0.9-1.1,1.4-2,1.1c-0.9-0.2-1.4-1.1-1.1-2c0.2-0.9,1.1-1.4,2-1.1
			C13.9,35.5,14.4,36.4,14.1,37.3z"/>
		<path class="st2" d="M18.6,37.9c-0.2,0.9-1.1,1.4-2,1.1c-0.9-0.2-1.4-1.1-1.1-2c0.2-0.9,1.1-1.4,2-1.1
			C18.3,36.1,18.8,37,18.6,37.9z"/>
		<path class="st2" d="M9,39.1c-0.2,0.9-1.1,1.4-2,1.1c-0.9-0.2-1.4-1.1-1.1-2c0.2-0.9,1.1-1.4,2-1.1C8.8,37.4,9.3,38.3,9,39.1z"/>
		<path class="st2" d="M13.1,40.9c-0.2,0.9-1.1,1.4-2,1.1c-0.9-0.2-1.4-1.1-1.1-2c0.2-0.9,1.1-1.4,2-1.1
			C12.9,39.1,13.4,40,13.1,40.9z"/>
		<path class="st2" d="M17.6,41.5c-0.2,0.9-1.1,1.4-2,1.1c-0.9-0.2-1.4-1.1-1.1-2c0.2-0.9,1.1-1.4,2-1.1
			C17.3,39.7,17.8,40.6,17.6,41.5z"/>
		<path class="st2" d="M8,42.7c-0.2,0.9-1.1,1.4-2,1.1c-0.9-0.2-1.4-1.1-1.1-2c0.2-0.9,1.1-1.4,2-1.1C7.8,41,8.3,41.9,8,42.7z"/>
		<path class="st2" d="M12.2,44.5c-0.2,0.9-1.1,1.4-2,1.1c-0.9-0.2-1.4-1.1-1.1-2c0.2-0.9,1.1-1.4,2-1.1
			C11.9,42.7,12.4,43.6,12.2,44.5z"/>
		<path class="st2" d="M16.6,45.1c-0.2,0.9-1.1,1.4-2,1.1c-0.9-0.2-1.4-1.1-1.1-2c0.2-0.9,1.1-1.4,2-1.1
			C16.3,43.3,16.8,44.2,16.6,45.1z"/>
		<path class="st2" d="M7.1,46.3c-0.2,0.9-1.1,1.4-2,1.1c-0.9-0.2-1.4-1.1-1.1-2c0.2-0.9,1.1-1.4,2-1.1C6.8,44.5,7.3,45.4,7.1,46.3z
			 M11.2,48.1c-0.2,0.9-1.1,1.4-2,1.1c-0.9-0.2-1.4-1.1-1.1-2c0.2-0.9,1.1-1.4,2-1.1C10.9,46.3,11.4,47.2,11.2,48.1z"/>
		<path class="st2" d="M15.6,48.7c-0.2,0.9-1.1,1.4-2,1.1c-0.9-0.2-1.4-1.1-1.1-2s1.1-1.4,2-1.1C15.3,46.9,15.8,47.8,15.6,48.7z"/>
		<path class="st2" d="M9.1,50.5c0,0.1-0.2,0.1-0.3,0.1c-0.2,0-0.3-0.1-0.2-0.2c0-0.1,0.2-0.1,0.3-0.1C9,50.3,9.1,50.4,9.1,50.5z
			 M8.5,50.3L8,52.2 M8.6,50.5l-0.5,1.7 M9.1,50.5l-0.5,1.9 M8.9,50.6l-0.5,1.7 M12.2,23.4l-0.4,1.3 M12.4,23.5L12,24.8 M19.7,25.5
			l-0.4,1.3 M19.6,25.5l-0.4,1.3"/>
		<path class="st2" d="M27.2,8.5c0,0,0.5-1.9,0.7-3.2c0.5-2.5,0.5-3.8,0.5-3.8c0-0.3-0.1-0.6-0.4-0.7l-1.5-0.4
			c-0.3-0.1-0.5,0.1-0.7,0.4c0,0-0.6,1.2-1.4,3.6c-0.4,1.3-0.8,2.9-0.8,2.9 M23,25.8c-0.1,0.3-0.4,0.5-0.7,0.4L9.7,22.7
			c-0.3-0.1-0.5-0.4-0.4-0.7l2.2-8c0.1-0.3,0.4-0.5,0.7-0.4l12.6,3.5c0.3,0.1,0.5,0.4,0.4,0.7L23,25.8z M27.3,7.9
			C26.2,7.4,25,7,23.8,6.6 M14.4,5c0,0-3,6.1-4.7,12.3c-2,7.4-2.3,9.9-2,13.3c0.1,0.7,0.8,1.6,1.6,1.8c0.3,0.1,0.7,0.2,0.8,0.2
			c0.2,0,0.7,0.2,1.2,0.6c0.5,0.4,0.6,0.5,0.9,0.6c0.3,0.2,0.3,0.3,1.1,0.5c0.8,0.2,0.9,0.2,1.2,0.2c0.3,0,0.5,0,1.1-0.1
			c0.6-0.1,1.2,0.1,1.3,0.1c0.2,0,0.5,0.1,0.8,0.2c0.8,0.2,1.8-0.2,2.3-0.7c2-2.8,3-5.1,5.1-12.5c1.7-6.2,2.3-13,2.3-13 M12.6,8.1
			c2.4,0.3,5,0.9,7.4,1.6c2.4,0.7,4.9,1.5,7.2,2.5"/>
		<path class="st2" d="M18,30.7c-0.5,1.9-2.5,3.1-4.5,2.5c-1.9-0.5-3.1-2.5-2.5-4.5c0.5-1.9,2.5-3.1,4.5-2.5
			C17.4,26.8,18.6,28.8,18,30.7z M11.3,24.8c0.5,0.1,0.9,0.3,1,0.5c0.2,0.1,0.2,0.3,0.1,0.4c-0.2,0.1-0.5,0.3-0.6,0.5
			c-0.2,0.2-0.3,0.2-0.6,0c-0.5-0.3-1.5-1-1.8-1.4c-0.1-0.2,0-0.2,0.3-0.3C10.1,24.5,10.8,24.6,11.3,24.8z M8.7,28.6
			C9,28.7,9.7,29,9.9,29.2c0.2,0.1,0.5,0.4,0.5,0.8c0,0.4,0,1.3,0.2,1.6c0.2,0.4,0.2,0.6-0.1,0.5c-0.3-0.1-1-0.3-1.2-0.4
			c-0.2-0.1-0.5-0.3-0.6-0.5c-0.2-0.6-0.2-1.7-0.1-2.3C8.5,28.5,8.6,28.5,8.7,28.6z"/>
		<path class="st2" d="M19.8,27.1C19.3,27,18.9,27,18.7,27c-0.2,0-0.3,0.1-0.3,0.3c0.1,0.2,0.2,0.5,0.3,0.7c0.1,0.2,0.2,0.3,0.5,0.4
			c0.6,0,1.8-0.1,2.2-0.3c0.2-0.1,0.1-0.2-0.1-0.4C21.1,27.5,20.4,27.3,19.8,27.1z M20.1,31.7c-0.3-0.1-1-0.1-1.2-0.1
			c-0.2,0-0.6,0.1-0.8,0.4c-0.2,0.4-0.7,1.1-1,1.3c-0.4,0.2-0.5,0.4-0.1,0.5c0.3,0.1,1,0.2,1.2,0.3c0.2,0,0.6,0,0.8-0.2
			c0.5-0.4,1.1-1.4,1.3-1.9C20.3,31.8,20.2,31.8,20.1,31.7z"/>
		<line class="st2" x1="19.5" y1="10.7" x2="20.7" y2="6.4"/>
		<line class="st2" x1="19.9" y1="10.8" x2="21.1" y2="6.5"/>
	</g>
</g>
</svg>
