<?xml version="1.0" encoding="utf-8"?>
<!-- Generator: Adobe Illustrator 20.1.0, SVG Export Plug-In . SVG Version: 6.00 Build 0)  -->
<svg version="1.1" id="Layer_1" xmlns="http://www.w3.org/2000/svg" xmlns:xlink="http://www.w3.org/1999/xlink" x="0px" y="0px"
	 viewBox="0 0 58.2 64.8" style="enable-background:new 0 0 58.2 64.8;" xml:space="preserve">
<style type="text/css">
	.st0{fill:#0065A2;stroke:#FFFFFF;stroke-width:0.8;}
	.st1{fill:#0065A2;stroke:#FFFFFF;stroke-width:0.8;}
	.st2{fill:#0065A2;stroke:#FFFFFF;stroke-width:0.8;stroke-linecap:round;stroke-linejoin:round;}
	.st3{fill:none;stroke:#FFFFFF;stroke-width:0.8;stroke-linecap:round;stroke-linejoin:round;}
	.st4{fill:#FFFFFF;}
	.st5{fill:#FFFFFF;stroke:#0065A2;stroke-width:0.4;}
	.st6{fill:none;stroke:#FFFFFF;}
</style>
<polyline class="st0" points="1.2,45 1.2,64.1 48.5,64.1 48.5,45 "/>
<polygon class="st1" points="1.2,7.1 9.4,0.6 57,0.6 48.5,7.1 "/>
<polygon class="st2" points="48.5,64.4 57,57.6 57,38.3 48.5,44.7 "/>
<line class="st3" x1="48.5" y1="51.2" x2="1.2" y2="51.2"/>
<line class="st3" x1="48.5" y1="57.8" x2="1.2" y2="57.8"/>
<line class="st3" x1="56.3" y1="52.1" x2="48.9" y2="57.9"/>
<line class="st3" x1="15.2" y1="58.1" x2="15.2" y2="64"/>
<line class="st3" x1="33.5" y1="58.1" x2="33.5" y2="64"/>
<line class="st3" x1="24.7" y1="51.5" x2="24.7" y2="57.4"/>
<line class="st3" x1="6.4" y1="51.5" x2="6.4" y2="57.4"/>
<line class="st3" x1="43" y1="51.5" x2="43" y2="57.4"/>
<polygon class="st1" points="48.7,6.8 48.7,51.2 0.9,51.2 0.9,6.7 "/>
<polygon class="st1" points="56.7,44.4 56.7,0.8 48.6,6.9 48.6,50.9 "/>
<line class="st3" x1="54.9" y1="46.2" x2="54.9" y2="53.3"/>
<line class="st3" x1="52.1" y1="55.3" x2="52.1" y2="62.4"/>
<path class="st0" d="M17.5,59.2"/>
<polygon class="st4" points="10.1,23.7 28.6,23.7 28.6,22.4 32.7,24.9 28.6,27.5 28.6,26.2 10.1,26.2 "/>
<polygon class="st4" points="38.5,30.3 23,30.3 23,29 18.9,31.5 23,34.1 23,32.8 38.5,32.8 "/>
<ellipse transform="matrix(0.9934 -0.1149 0.1149 0.9934 -4.8266 5.3836)" class="st5" cx="44.3" cy="44.6" rx="1.5" ry="1.5"/>
<rect x="37.3" y="34.5" transform="matrix(0.6305 -0.7762 0.7762 0.6305 -16.9488 45.5664)" class="st5" width="4.2" height="12.1"/>
<path class="st5" d="M11.4,26.1c-0.9,7.8,4.7,14.8,12.5,15.7c7.8,0.9,14.8-4.7,15.7-12.5c0.9-7.8-4.7-14.8-12.5-15.7
	C19.4,12.7,12.3,18.3,11.4,26.1z M13.4,26.3c0.8-6.7,6.8-11.5,13.5-10.7c6.7,0.8,11.5,6.8,10.7,13.5c-0.8,6.7-6.8,11.5-13.5,10.7
	C17.5,39,12.6,33,13.4,26.3z"/>
<path class="st5" d="M9.7,26.7c-0.9,7.8,4.7,14.8,12.5,15.7c7.8,0.9,14.8-4.7,15.7-12.5c0.9-7.8-4.7-14.8-12.5-15.7
	C17.6,13.3,10.6,18.9,9.7,26.7z M11.7,26.9c0.8-6.7,6.8-11.5,13.5-10.7C31.8,17,36.6,23,35.9,29.7c-0.8,6.7-6.8,11.5-13.5,10.7
	C15.7,39.6,10.9,33.6,11.7,26.9z"/>
<path d="M44.3,44.6"/>
<line class="st6" x1="38.5" y1="31.8" x2="46.3" y2="31.8"/>
<line class="st6" x1="3.6" y1="24.9" x2="11.5" y2="24.9"/>
</svg>
