<?xml version="1.0" encoding="utf-8"?>
<!-- Generator: Adobe Illustrator 20.1.0, SVG Export Plug-In . SVG Version: 6.00 Build 0)  -->
<svg version="1.1" id="Layer_1" xmlns="http://www.w3.org/2000/svg" xmlns:xlink="http://www.w3.org/1999/xlink" x="0px" y="0px"
	 viewBox="0 0 76.3 65.7" style="enable-background:new 0 0 76.3 65.7;" xml:space="preserve">
<style type="text/css">
	.st0{fill:#0065A2;stroke:#FFFFFF;stroke-width:0.8;}
	.st1{fill:#0065A2;stroke:#FFFFFF;stroke-width:0.8;}
	.st2{fill:none;stroke:#0065A2;}
	.st3{fill:#FFFFFF;}
	.st4{fill:none;stroke:#0065A2;stroke-width:0.7;stroke-linejoin:round;}
	.st5{fill:#FFFFFF;stroke:#0065A2;stroke-width:0.5;stroke-linejoin:round;}
	.st6{fill:#FFFFFF;stroke:#0065A2;stroke-width:0.7;stroke-linejoin:round;}
</style>
<g>
	<polygon class="st0" points="62.5,37.3 56.7,45 9,45 16.8,37.2 	"/>
	<rect x="8.9" y="45.1" class="st1" width="45.8" height="8.5"/>
	<rect x="8.7" y="8.8" class="st1" width="45.6" height="34.4"/>
	<polygon class="st1" points="54.4,43.2 62.1,35.4 62.1,1 54.4,8.8 	"/>
	<polygon class="st1" points="71.6,61.1 75.1,54.1 67.1,54.1 63.6,61.1 	"/>
	<rect x="63.6" y="61.1" class="st1" width="8" height="2.2"/>
	<polygon class="st0" points="71.5,63.4 71.6,61.1 75,54.1 75,59 	"/>
	<polygon class="st1" points="54.6,53.6 54.6,45.1 62.4,37.4 62.4,45.9 	"/>
	<path class="st1" d="M16.3,12.7h30.5c2,0,3.6,1.6,3.6,3.6v19.3c0,2-1.6,3.6-3.6,3.6H16.3c-2,0-3.6-1.6-3.6-3.6V16.3
		C12.7,14.3,14.3,12.7,16.3,12.7z"/>
	<polygon class="st1" points="62.1,1 17.7,1 8.7,8.8 54.4,8.8 	"/>
	<polygon class="st1" points="53.3,64.7 53.3,61.9 59.3,53.7 59.3,58.7 	"/>
	<polygon class="st1" points="53.3,62 0.8,62 6.8,53.7 59.3,53.7 	"/>
	<rect x="0.7" y="62" class="st1" width="52.6" height="2.7"/>
	<path class="st2" d="M73.1,54.4c6.2-3,1.2-15.7-11.2-9.3"/>
</g>
<g>
	<path class="st3" d="M30.6,24.2l1.7,0l0.4,0.4h1.3l1.4-1l1.5,0l1.3,1.5l1.5,0l1.6-1.5l1.3,0l1.2,1.3h1.3l0.5-1l3.9,2.3l-2.7,2.3
		l-16.1,0V29l-2.5,0c-0.6,0-1.2,0.4-1.4,0.9c-1.2,1.9-3.3,3.1-5.7,3.1c-3.7,0-6.7-3-6.7-6.8c0-3.7,3-6.8,6.7-6.8
		c2.4,0,4.4,1.2,5.6,3c0.2,0.6,0.8,1,1.5,1l2.5,0V24.2"/>
	<g>
		<g>
			<g>
				<g>
					<path class="st4" d="M47.9,27.4l-17.3,0c-0.7,0-1.6,0.2-2.5,0.6c0.9,0.4,1.8,0.5,2.5,0.5"/>
					<path class="st4" d="M48.7,25.8l-17.3,0c-0.8,0-2.4-0.2-2.7-0.3"/>
					<path class="st5" d="M21,32.4c3.3,0,6-2.7,6-6.1c0-3.3-2.7-6-6-6c-3.3,0-6,2.7-6,6C15,29.7,17.7,32.4,21,32.4z"/>
				</g>
				<g>
					<g>
						<ellipse class="st6" cx="17.6" cy="26.3" rx="1.6" ry="1.6"/>
					</g>
				</g>
			</g>
		</g>
	</g>
</g>
</svg>
