<?xml version="1.0" encoding="UTF-8" standalone="no"?>
<svg
   xmlns:dc="http://purl.org/dc/elements/1.1/"
   xmlns:cc="http://creativecommons.org/ns#"
   xmlns:rdf="http://www.w3.org/1999/02/22-rdf-syntax-ns#"
   xmlns:svg="http://www.w3.org/2000/svg"
   xmlns="http://www.w3.org/2000/svg"
   viewBox="0 0 40.053333 42.32"
   height="42.32"
   width="40.053333"
   xml:space="preserve"
   id="svg2"
   version="1.1"><metadata
     id="metadata8"><rdf:RDF><cc:Work
         rdf:about=""><dc:format>image/svg+xml</dc:format><dc:type
           rdf:resource="http://purl.org/dc/dcmitype/StillImage" /></cc:Work></rdf:RDF></metadata><defs
     id="defs6" /><g
     transform="matrix(1.3333333,0,0,-1.3333333,0,42.32)"
     id="g10"><g
       transform="scale(0.1)"
       id="g12"><path
         id="path14"
         style="fill:#0065A2;fill-opacity:1;fill-rule:nonzero;stroke:none"
         d="M 4.625,5.04297 V 283.633 H 268.723 V 5.04297 H 4.625" /><path
         id="path16"
         style="fill:none;stroke:#FFFFFF;stroke-width:4;stroke-linecap:butt;stroke-linejoin:miter;stroke-miterlimit:4;stroke-dasharray:none;stroke-opacity:1"
         d="M 4.625,5.04297 V 283.633 H 268.723 V 5.04297 Z" /><path
         id="path18"
         style="fill:#0065A2;fill-opacity:1;fill-rule:nonzero;stroke:none"
         d="M 31.6719,312.395 4.625,283.633 h 264.098 l 27.058,28.762 H 31.6719" /><path
         id="path20"
         style="fill:none;stroke:#FFFFFF;stroke-width:4;stroke-linecap:butt;stroke-linejoin:miter;stroke-miterlimit:4;stroke-dasharray:none;stroke-opacity:1"
         d="M 31.6719,312.395 4.625,283.633 h 264.098 l 27.058,28.762 z" /><path
         id="path22"
         style="fill:#0065A2;fill-opacity:1;fill-rule:nonzero;stroke:none"
         d="M 295.781,33.7852 V 312.395 L 268.723,283.633 V 5.04297 l 27.058,28.74223" /><path
         id="path24"
         style="fill:none;stroke:#FFFFFF;stroke-width:4;stroke-linecap:butt;stroke-linejoin:miter;stroke-miterlimit:4;stroke-dasharray:none;stroke-opacity:1"
         d="M 295.781,33.7852 V 312.395 L 268.723,283.633 V 5.04297 Z" /><path
         id="path26"
         style="fill:none;stroke:#FFFFFF;stroke-width:4;stroke-linecap:butt;stroke-linejoin:miter;stroke-miterlimit:4;stroke-dasharray:none;stroke-opacity:1"
         d="M 249.762,269.086 H 26.6172 V 19.7969 H 249.762 Z" /><path
         id="path28"
         style="fill:#0065A2;fill-opacity:1;fill-rule:nonzero;stroke:none"
         d="m 168.984,62.7891 c 0,-16.7578 -13.578,-30.3477 -30.351,-30.3477 -16.778,0 -30.367,13.5899 -30.367,30.3477 0,16.7812 13.589,30.3711 30.367,30.3711 16.773,0 30.351,-13.5899 30.351,-30.3711" /><path
         id="path30"
         style="fill:none;stroke:#FFFFFF;stroke-width:4;stroke-linecap:butt;stroke-linejoin:miter;stroke-miterlimit:4;stroke-dasharray:none;stroke-opacity:1"
         d="m 168.984,62.7891 c 0,-16.7578 -13.578,-30.3477 -30.351,-30.3477 -16.778,0 -30.367,13.5899 -30.367,30.3477 0,16.7812 13.589,30.3711 30.367,30.3711 16.773,0 30.351,-13.5899 30.351,-30.3711 z" /><g
         transform="scale(10)"
         id="g32"><text
           id="text36"
           style="font-variant:normal;font-weight:bold;font-size:5px;font-family:'Arial-BoldMT';fill:#FFFFFF;fill-opacity:1;"
           transform="matrix(1,0,0,-1,12.1824,4.43242)"><tspan
             id="tspan34"
             y="0"
             x="0">V</tspan></text>
</g><g
         transform="scale(10)"
         id="g38"><text
           id="text42"
           style="font-variant:normal;font-weight:bold;font-size:4px;font-family:'Arial-BoldMT';fill:#FFFFFF;fill-opacity:1;"
           transform="matrix(1,0,0,-1,8.22734,22.0066)"><tspan
             id="tspan40"
             y="0"
             x="0 3.776 7.552">WWW</tspan></text>
</g><path
         id="path44"
         style="fill:none;stroke:#FFFFFF;stroke-width:5;stroke-linecap:butt;stroke-linejoin:miter;stroke-miterlimit:4;stroke-dasharray:none;stroke-opacity:1"
         d="M 62.2422,107.754 H 233.336" /><path
         id="path46"
         style="fill:#FFFFFF;fill-opacity:1;fill-rule:nonzero;stroke:none"
         d="M 77.5586,121.777 69.293,107.574 77.5586,93.3555 42.7539,107.574 77.5586,121.777" /><path
         id="path48"
         style="fill:none;stroke:#FFFFFF;stroke-width:5;stroke-linecap:butt;stroke-linejoin:miter;stroke-miterlimit:4;stroke-dasharray:none;stroke-opacity:1"
         d="M 217.754,202.09 H 46.6602" /><path
         id="path50"
         style="fill:#FFFFFF;fill-opacity:1;fill-rule:nonzero;stroke:none"
         d="m 202.438,188.066 8.265,14.204 -8.265,14.218 34.804,-14.218 -34.804,-14.204" /><path
         id="path52"
         style="fill:none;stroke:#FFFFFF;stroke-width:4;stroke-linecap:butt;stroke-linejoin:miter;stroke-miterlimit:4;stroke-dasharray:none;stroke-opacity:1"
         d="M 192.383,130.328 H 89.0547 V 183.66 H 192.383 Z" /><path
         id="path54"
         style="fill:none;stroke:#FFFFFF;stroke-width:4;stroke-linecap:butt;stroke-linejoin:miter;stroke-miterlimit:4;stroke-dasharray:none;stroke-opacity:1"
         d="m 89.0547,183.66 51.6643,-26.668 51.664,26.668" /></g></g></svg>
