<?xml version="1.0" encoding="utf-8"?>
<!-- Generator: Adobe Illustrator 20.1.0, SVG Export Plug-In . SVG Version: 6.00 Build 0)  -->
<svg version="1.1" id="Layer_1" xmlns="http://www.w3.org/2000/svg" xmlns:xlink="http://www.w3.org/1999/xlink" x="0px" y="0px"
	 viewBox="0 0 49 60.2" style="enable-background:new 0 0 49 60.2;" xml:space="preserve">
<style type="text/css">
	.st0{fill:#0065A2;stroke:#FFFFFF;stroke-width:0.8;}
</style>
<g>
	<polyline class="st0" points="38.8,10.2 8,10.2 8,59.3 38.8,59.3 	"/>
	<polygon class="st0" points="38.8,59.3 48.6,49.4 48.6,0.4 17.8,0.4 8,10.2 38.8,10.2 	"/>
	<line class="st0" x1="8.5" y1="25.3" x2="38.5" y2="25.3"/>
	<line class="st0" x1="8.5" y1="40.5" x2="38.5" y2="40.5"/>
	<g>
		<line class="st0" x1="19.5" y1="17.4" x2="28.3" y2="17.4"/>
		<g>
			<rect x="16" y="14.2" class="st0" width="15.5" height="6.3"/>
		</g>
	</g>
	<g>
		<line class="st0" x1="19.5" y1="48.7" x2="28.3" y2="48.7"/>
		<g>
			<rect x="16" y="45.5" class="st0" width="15.5" height="6.3"/>
		</g>
	</g>
	<line class="st0" x1="8.5" y1="55.8" x2="38.5" y2="55.8"/>
	<g>
		<polygon class="st0" points="31.7,47.3 38.5,40.5 38.5,29.2 7.7,29.2 1,36 31.7,36 		"/>
		<line class="st0" x1="31.7" y1="36" x2="38.5" y2="29.2"/>
		<rect x="1" y="32" class="st0" width="30.8" height="15.3"/>
		<g>
			<line class="st0" x1="12.5" y1="39.8" x2="21.2" y2="39.8"/>
			<g>
				<rect x="9" y="36.6" class="st0" width="15.5" height="6.3"/>
			</g>
		</g>
	</g>
</g>
</svg>
