<?xml version="1.0" encoding="utf-8"?>
<!-- Generator: Adobe Illustrator 20.1.0, SVG Export Plug-In . SVG Version: 6.00 Build 0)  -->
<svg version="1.1" id="Layer_1" xmlns="http://www.w3.org/2000/svg" xmlns:xlink="http://www.w3.org/1999/xlink" x="0px" y="0px"
	 viewBox="0 0 63.3 70.9" style="enable-background:new 0 0 63.3 70.9;" xml:space="preserve">
<style type="text/css">
	.st0{fill:#0065A2;stroke:#FFFFFF;stroke-width:0.8;}
	.st1{fill:#FFFFFF;}
</style>
<g>
	<g>
		<path class="st0" d="M62.9,12.6c0,6.7-14,12.2-31.3,12.2c-17.3,0-31.3-5.4-31.3-12.2v45.8c0,6.7,14,12.2,31.3,12.2
			c17.3,0,31.3-5.4,31.3-12.2V12.6z"/>
		<ellipse class="st0" cx="31.7" cy="12.6" rx="31.3" ry="12.2"/>
		<polygon class="st1" points="24.5,7.8 27.1,11.7 17.3,13.9 19.5,12.2 4.4,9.6 8.2,6.7 22.7,9.2 		"/>
		<polygon class="st1" points="38.3,17.2 36.5,13.2 45.3,11.4 43.8,12.8 58.5,15.3 54.9,18.1 40.3,15.4 		"/>
		<polygon class="st1" points="33.5,5.7 43.3,3 43.4,7.2 41,6.7 36.1,10.7 31.6,10.1 36.5,6.2 		"/>
		<polygon class="st1" points="29.2,20.8 19.8,22.6 19.5,18.3 22.2,18.8 27.3,14.4 31.9,15.2 26.4,20 		"/>
	</g>
	<g>
		<g>
			<g>
				<polygon class="st1" points="32.1,40.8 32.1,30.9 33.8,30.9 31.4,27.2 28.9,30.9 30.6,30.9 30.6,40.8 				"/>
				<polygon class="st1" points="27.1,42.2 20.1,35.2 21.3,34 17,33.1 17.8,37.5 19,36.3 26,43.3 				"/>
				<polygon class="st1" points="24.6,46.7 14.7,46.7 14.7,45.1 11,47.5 14.7,50 14.7,48.3 24.6,48.3 				"/>
				<polygon class="st1" points="26,51.8 19,58.7 17.8,57.6 17,61.9 21.3,61.1 20.1,59.9 27.1,52.9 				"/>
				<polygon class="st1" points="30.6,54.3 30.6,64.2 28.9,64.2 31.4,67.9 33.8,64.2 32.1,64.2 32.1,54.3 				"/>
				<polygon class="st1" points="35.6,52.9 42.6,59.9 41.4,61.1 45.8,61.9 44.9,57.6 43.7,58.7 36.7,51.8 				"/>
				<polygon class="st1" points="38.1,48.3 48,48.3 48,50 51.7,47.5 48,45.1 48,46.7 38.1,46.7 				"/>
				<polygon class="st1" points="36.7,43.3 43.7,36.3 44.9,37.5 45.8,33.1 41.4,34 42.6,35.2 35.6,42.2 				"/>
			</g>
		</g>
		<g>
			
				<ellipse transform="matrix(0.8191 -0.5736 0.5736 0.8191 -21.508 26.6642)" class="st1" cx="31.5" cy="47.4" rx="10.2" ry="10.2"/>
		</g>
	</g>
</g>
</svg>
