<?xml version="1.0" encoding="UTF-8" standalone="no"?>
<svg
   xmlns:dc="http://purl.org/dc/elements/1.1/"
   xmlns:cc="http://creativecommons.org/ns#"
   xmlns:rdf="http://www.w3.org/1999/02/22-rdf-syntax-ns#"
   xmlns:svg="http://www.w3.org/2000/svg"
   xmlns="http://www.w3.org/2000/svg"
   viewBox="0 0 43.759998 24.333332"
   height="24.333332"
   width="43.759998"
   xml:space="preserve"
   id="svg2"
   version="1.1"><metadata
     id="metadata8"><rdf:RDF><cc:Work
         rdf:about=""><dc:format>image/svg+xml</dc:format><dc:type
           rdf:resource="http://purl.org/dc/dcmitype/StillImage" /></cc:Work></rdf:RDF></metadata><defs
     id="defs6"><clipPath
       id="clipPath20"
       clipPathUnits="userSpaceOnUse"><path
         id="path18"
         d="M 0,2 V 183 H 328 V 2 Z" /></clipPath></defs><g
     transform="matrix(1.3333333,0,0,-1.3333333,0,24.333333)"
     id="g10"><g
       transform="scale(0.1)"
       id="g12"><g
         id="g14"><g
           clip-path="url(#clipPath20)"
           id="g16"><path
             id="path22"
             style="fill:#0065A2;fill-opacity:1;fill-rule:nonzero;stroke:none"
             d="M 322.91,18.4805 V 178.109 L 306.895,164.047 V 4.41797 L 322.91,18.4805" /><path
             id="path24"
             style="fill:none;stroke:#FFFFFF;stroke-width:3.99993992;stroke-linecap:butt;stroke-linejoin:miter;stroke-miterlimit:4;stroke-dasharray:none;stroke-opacity:1"
             d="M 322.91,18.4805 V 178.109 L 306.895,164.047 V 4.41797 Z" /><path
             id="path26"
             style="fill:#0065A2;fill-opacity:1;fill-rule:nonzero;stroke:none"
             d="m 5.32813,4.67188 h 301.215 v 159.074 H 5.32813 Z" /><path
             id="path28"
             style="fill:none;stroke:#FFFFFF;stroke-width:3.99993992;stroke-linecap:butt;stroke-linejoin:miter;stroke-miterlimit:4;stroke-dasharray:none;stroke-opacity:1"
             d="M 306.543,4.67188 V 163.746 H 5.32813 V 4.67188 Z" /><path
             id="path30"
             style="fill:#0065A2;fill-opacity:1;fill-rule:nonzero;stroke:none"
             d="m 23.6563,128.863 c 0,15.965 16.5625,18.328 16.5625,18.328 0,0 173.1602,0 188.5312,0 20.098,0 19.512,-18.925 19.512,-18.925 0,0 0,-78.0472 0,-89.2972 0,-11.2305 -15.371,-15.9571 -15.371,-15.9571 0,0 -176.1176,0 -190.309,0 -14.1992,0 -18.9257,14.7852 -18.9257,14.7852 v 91.0661" /><path
             id="path32"
             style="fill:none;stroke:#FFFFFF;stroke-width:3.99993992;stroke-linecap:butt;stroke-linejoin:miter;stroke-miterlimit:4;stroke-dasharray:none;stroke-opacity:1"
             d="m 23.6563,128.863 c 0,15.965 16.5625,18.328 16.5625,18.328 0,0 173.1602,0 188.5312,0 20.098,0 19.512,-18.925 19.512,-18.925 0,0 0,-78.0472 0,-89.2972 0,-11.2305 -15.371,-15.9571 -15.371,-15.9571 0,0 -176.1176,0 -190.309,0 -14.1992,0 -18.9257,14.7852 -18.9257,14.7852 z" /><path
             id="path34"
             style="fill:#0065A2;fill-opacity:1;fill-rule:nonzero;stroke:none"
             d="M 322.91,178.043 H 21.6836 L 5.32813,163.746 H 306.543 l 16.367,14.297" /><path
             id="path36"
             style="fill:none;stroke:#FFFFFF;stroke-width:3.99993992;stroke-linecap:butt;stroke-linejoin:miter;stroke-miterlimit:4;stroke-dasharray:none;stroke-opacity:1"
             d="M 322.91,178.043 H 21.6836 L 5.32813,163.746 H 306.543 Z" /><path
             id="path38"
             style="fill:#0065A2;fill-opacity:1;fill-rule:nonzero;stroke:none"
             d="m 285.254,130.973 c 0,-2.532 -3.731,-4.582 -8.34,-4.582 -4.59,0 -8.32,2.05 -8.32,4.582 0,2.527 3.73,4.578 8.32,4.578 4.609,0 8.34,-2.051 8.34,-4.578" /><path
             id="path40"
             style="fill:none;stroke:#FFFFFF;stroke-width:3.99993992;stroke-linecap:butt;stroke-linejoin:miter;stroke-miterlimit:4;stroke-dasharray:none;stroke-opacity:1"
             d="m 285.254,130.973 c 0,-2.532 -3.731,-4.582 -8.34,-4.582 -4.59,0 -8.32,2.05 -8.32,4.582 0,2.527 3.73,4.578 8.32,4.578 4.609,0 8.34,-2.051 8.34,-4.578 z" /><path
             id="path42"
             style="fill:#0065A2;fill-opacity:1;fill-rule:nonzero;stroke:none"
             d="m 285.254,97.6406 c 0,-2.539 -3.731,-4.5898 -8.34,-4.5898 -4.59,0 -8.32,2.0508 -8.32,4.5898 0,2.5394 3.73,4.5894 8.32,4.5894 4.609,0 8.34,-2.05 8.34,-4.5894" /><path
             id="path44"
             style="fill:none;stroke:#FFFFFF;stroke-width:3.99993992;stroke-linecap:butt;stroke-linejoin:miter;stroke-miterlimit:4;stroke-dasharray:none;stroke-opacity:1"
             d="m 285.254,97.6406 c 0,-2.539 -3.731,-4.5898 -8.34,-4.5898 -4.59,0 -8.32,2.0508 -8.32,4.5898 0,2.5394 3.73,4.5894 8.32,4.5894 4.609,0 8.34,-2.05 8.34,-4.5894 z" /><path
             id="path46"
             style="fill:#0065A2;fill-opacity:1;fill-rule:nonzero;stroke:none"
             d="m 285.254,64.3008 c 0,-2.5195 -3.731,-4.5703 -8.34,-4.5703 -4.59,0 -8.32,2.0508 -8.32,4.5703 0,2.539 3.73,4.5898 8.32,4.5898 4.609,0 8.34,-2.0508 8.34,-4.5898" /><path
             id="path48"
             style="fill:none;stroke:#FFFFFF;stroke-width:3.99993992;stroke-linecap:butt;stroke-linejoin:miter;stroke-miterlimit:4;stroke-dasharray:none;stroke-opacity:1"
             d="m 285.254,64.3008 c 0,-2.5195 -3.731,-4.5703 -8.34,-4.5703 -4.59,0 -8.32,2.0508 -8.32,4.5703 0,2.539 3.73,4.5898 8.32,4.5898 4.609,0 8.34,-2.0508 8.34,-4.5898 z" /><path
             id="path50"
             style="fill:#0065A2;fill-opacity:1;fill-rule:nonzero;stroke:none"
             d="m 285.254,30.9805 c 0,-2.5391 -3.731,-4.5899 -8.34,-4.5899 -4.59,0 -8.32,2.0508 -8.32,4.5899 0,2.539 3.73,4.5898 8.32,4.5898 4.609,0 8.34,-2.0508 8.34,-4.5898" /><path
             id="path52"
             style="fill:none;stroke:#FFFFFF;stroke-width:3.99993992;stroke-linecap:butt;stroke-linejoin:miter;stroke-miterlimit:4;stroke-dasharray:none;stroke-opacity:1"
             d="m 285.254,30.9805 c 0,-2.5391 -3.731,-4.5899 -8.34,-4.5899 -4.59,0 -8.32,2.0508 -8.32,4.5899 0,2.539 3.73,4.5898 8.32,4.5898 4.609,0 8.34,-2.0508 8.34,-4.5898 z" /></g></g></g></g></svg>