<?xml version="1.0" encoding="UTF-8" standalone="no"?>
<svg
   xmlns:dc="http://purl.org/dc/elements/1.1/"
   xmlns:cc="http://creativecommons.org/ns#"
   xmlns:rdf="http://www.w3.org/1999/02/22-rdf-syntax-ns#"
   xmlns:svg="http://www.w3.org/2000/svg"
   xmlns="http://www.w3.org/2000/svg"
   viewBox="0 0 57.626667 31.626667"
   height="31.626667"
   width="57.626667"
   xml:space="preserve"
   id="svg2"
   version="1.1"><metadata
     id="metadata8"><rdf:RDF><cc:Work
         rdf:about=""><dc:format>image/svg+xml</dc:format><dc:type
           rdf:resource="http://purl.org/dc/dcmitype/StillImage" /></cc:Work></rdf:RDF></metadata><defs
     id="defs6"><clipPath
       id="clipPath20"
       clipPathUnits="userSpaceOnUse"><path
         id="path18"
         d="M 0,237 H 430 V 0 H 0 Z" /></clipPath></defs><g
     transform="matrix(1.3333333,0,0,-1.3333333,0,31.626667)"
     id="g10"><g
       transform="scale(0.1)"
       id="g12"><g
         id="g14"><g
           clip-path="url(#clipPath20)"
           id="g16"><path
             id="path22"
             style="fill:#0065A2;fill-opacity:1;fill-rule:nonzero;stroke:none"
             d="M 206.27,215.313 H 109.883 L 3.80859,61.6406 c 92.92971,0 92.92971,0.0977 93.55471,0 116.2887,-17.0508 143.9257,-9.2187 252.6167,0 l 78.653,126.1724 h -27.52 l 18.125,27.5 h -190 l -20.625,-27.5 H 185.02 l 21.25,27.5" /><path
             id="path24"
             style="fill:none;stroke:#FFFFFF;stroke-width:4;stroke-linecap:butt;stroke-linejoin:miter;stroke-miterlimit:4;stroke-dasharray:none;stroke-opacity:1"
             d="M 206.27,215.313 H 109.883 L 3.80859,61.6406 c 92.92971,0 92.92971,0.0977 93.55471,0 116.2887,-17.0508 143.9257,-9.2187 252.6167,0 l 78.653,126.1724 h -27.52 l 18.125,27.5 h -190 l -20.625,-27.5 H 185.02 Z" /><path
             id="path26"
             style="fill:#0065A2;fill-opacity:1;fill-rule:nonzero;stroke:none"
             d="M 205.43,69.7266 H 137.676 L 175.43,119.57 h 65.41 L 205.43,69.7266" /><path
             id="path28"
             style="fill:none;stroke:#FFFFFF;stroke-width:4;stroke-linecap:butt;stroke-linejoin:miter;stroke-miterlimit:4;stroke-dasharray:none;stroke-opacity:1"
             d="M 205.43,69.7266 H 137.676 L 175.43,119.57 h 65.41 z" /><path
             id="path30"
             style="fill:#0065A2;fill-opacity:1;fill-rule:nonzero;stroke:none"
             d="M 428.633,187.813 V 95.1563 L 349.98,11.8359 v 49.8047 l 78.653,126.1724" /><path
             id="path32"
             style="fill:none;stroke:#FFFFFF;stroke-width:4;stroke-linecap:butt;stroke-linejoin:miter;stroke-miterlimit:4;stroke-dasharray:none;stroke-opacity:1"
             d="M 428.633,187.813 V 95.1563 L 349.98,11.8359 v 49.8047 z" /><path
             id="path34"
             style="fill:#0065A2;fill-opacity:1;fill-rule:nonzero;stroke:none"
             d="M 349.98,61.6406 428.633,187.813" /><path
             id="path36"
             style="fill:none;stroke:#FFFFFF;stroke-width:4;stroke-linecap:butt;stroke-linejoin:miter;stroke-miterlimit:4;stroke-dasharray:none;stroke-opacity:1"
             d="M 349.98,61.6406 428.633,187.813" /><path
             id="path38"
             style="fill:#0065A2;fill-opacity:1;fill-rule:nonzero;stroke:none"
             d="m 155.605,180.215 c -12.89,-14.824 -28.789,-32.11 -38.984,-48.887 L 117.48,120.449 85.6836,71.3086 81.9922,103.281 c 6.0547,24.199 81.1128,119.278 98.3988,130.508 l 3.691,-31.973 -27.656,-31.816 -0.821,10.215" /><path
             id="path40"
             style="fill:none;stroke:#FFFFFF;stroke-width:4;stroke-linecap:butt;stroke-linejoin:miter;stroke-miterlimit:4;stroke-dasharray:none;stroke-opacity:1"
             d="m 155.605,180.215 c -12.89,-14.824 -28.789,-32.11 -38.984,-48.887 L 117.48,120.449 85.6836,71.3086 81.9922,103.281 c 6.0547,24.199 81.1128,119.278 98.3988,130.508 L 184.082,201.816 156.426,170 Z" /><path
             id="path42"
             style="fill:#0065A2;fill-opacity:1;fill-rule:nonzero;stroke:none"
             d="M 22.8125,103.281 19.1211,71.3086 H 85.6836 L 81.9922,103.281 H 22.8125" /><path
             id="path44"
             style="fill:none;stroke:#FFFFFF;stroke-width:4;stroke-linecap:butt;stroke-linejoin:miter;stroke-miterlimit:4;stroke-dasharray:none;stroke-opacity:1"
             d="M 22.8125,103.281 19.1211,71.3086 h 66.5625 l -3.6914,31.9724 z" /><path
             id="path46"
             style="fill:#0065A2;fill-opacity:1;fill-rule:nonzero;stroke:none"
             d="M 180.391,233.789 C 163.105,222.559 88.0469,127.48 81.9922,103.281 H 22.8125 c 6.0547,24.199 81.1135,119.278 98.3985,130.508 h 59.18" /><path
             id="path48"
             style="fill:none;stroke:#FFFFFF;stroke-width:4;stroke-linecap:butt;stroke-linejoin:miter;stroke-miterlimit:4;stroke-dasharray:none;stroke-opacity:1"
             d="M 180.391,233.789 C 163.105,222.559 88.0469,127.48 81.9922,103.281 H 22.8125 c 6.0547,24.199 81.1135,119.278 98.3985,130.508 z" /><path
             id="path50"
             style="fill:#FFFFFF;fill-opacity:1;fill-rule:nonzero;stroke:none"
             d="m 200.488,152.031 38.985,51.524 h 152.226 l -34.98,-51.524 H 200.488" /><path
             id="path52"
             style="fill:none;stroke:#FFFFFF;stroke-width:3.5;stroke-linecap:butt;stroke-linejoin:miter;stroke-miterlimit:4;stroke-dasharray:none;stroke-opacity:1"
             d="m 200.488,152.031 38.985,51.524 h 152.226 l -34.98,-51.524 z" /><path
             id="path54"
             style="fill:#0065A2;fill-opacity:1;fill-rule:nonzero;stroke:none"
             d="m 217.07,161.582 26.211,34.648 H 345.645 L 322.109,161.582 H 217.07" /><path
             id="path56"
             style="fill:none;stroke:#FFFFFF;stroke-width:4;stroke-linecap:butt;stroke-linejoin:miter;stroke-miterlimit:4;stroke-dasharray:none;stroke-opacity:1"
             d="m 217.07,161.582 26.211,34.648 h 102.364 l -23.536,-34.648 z" /><path
             id="path58"
             style="fill:#0065A2;fill-opacity:1;fill-rule:nonzero;stroke:none"
             d="M 217.676,119.57 182.266,69.7266" /><path
             id="path60"
             style="fill:none;stroke:#FFFFFF;stroke-width:4;stroke-linecap:butt;stroke-linejoin:miter;stroke-miterlimit:4;stroke-dasharray:none;stroke-opacity:1"
             d="M 217.676,119.57 182.266,69.7266" /><path
             id="path62"
             style="fill:#0065A2;fill-opacity:1;fill-rule:nonzero;stroke:none"
             d="M 196.211,119.57 160.801,69.7266" /><path
             id="path64"
             style="fill:none;stroke:#FFFFFF;stroke-width:4;stroke-linecap:butt;stroke-linejoin:miter;stroke-miterlimit:4;stroke-dasharray:none;stroke-opacity:1"
             d="M 196.211,119.57 160.801,69.7266" /><path
             id="path66"
             style="fill:#0065A2;fill-opacity:1;fill-rule:nonzero;stroke:none"
             d="m 166.895,107.598 h 65.058" /><path
             id="path68"
             style="fill:none;stroke:#FFFFFF;stroke-width:4;stroke-linecap:butt;stroke-linejoin:miter;stroke-miterlimit:4;stroke-dasharray:none;stroke-opacity:1"
             d="m 166.895,107.598 h 65.058" /><path
             id="path70"
             style="fill:#0065A2;fill-opacity:1;fill-rule:nonzero;stroke:none"
             d="m 157.012,94.8828 h 66.367" /><path
             id="path72"
             style="fill:none;stroke:#FFFFFF;stroke-width:4;stroke-linecap:butt;stroke-linejoin:miter;stroke-miterlimit:4;stroke-dasharray:none;stroke-opacity:1"
             d="m 157.012,94.8828 h 66.367" /><path
             id="path74"
             style="fill:#0065A2;fill-opacity:1;fill-rule:nonzero;stroke:none"
             d="m 146.523,81.4063 h 67.286" /><path
             id="path76"
             style="fill:none;stroke:#FFFFFF;stroke-width:4;stroke-linecap:butt;stroke-linejoin:miter;stroke-miterlimit:4;stroke-dasharray:none;stroke-opacity:1"
             d="m 146.523,81.4063 h 67.286" /><path
             id="path78"
             style="fill:#0065A2;fill-opacity:1;fill-rule:nonzero;stroke:none"
             d="M 349.98,11.8359 C 241.289,2.61719 213.652,-5.21484 97.3633,11.8359 H 3.80859 v 49.8047 c 92.92971,0 92.92971,0.0977 93.55471,0 116.2887,-17.0508 143.9257,-9.2187 252.6167,0 V 11.8359" /><path
             id="path80"
             style="fill:none;stroke:#FFFFFF;stroke-width:4;stroke-linecap:butt;stroke-linejoin:miter;stroke-miterlimit:4;stroke-dasharray:none;stroke-opacity:1"
             d="M 349.98,11.8359 C 241.289,2.61719 213.652,-5.21484 97.3633,11.8359 H 3.80859 v 49.8047 c 92.92971,0 92.92971,0.0977 93.55471,0 116.2887,-17.0508 143.9257,-9.2187 252.6167,0 z" /><path
             id="path82"
             style="fill:#0065A2;fill-opacity:1;fill-rule:nonzero;stroke:none"
             d="m 206.27,215.313 v -27.5 h -21.25 l 21.25,27.5" /><path
             id="path84"
             style="fill:none;stroke:#FFFFFF;stroke-width:4;stroke-linecap:butt;stroke-linejoin:miter;stroke-miterlimit:4;stroke-dasharray:none;stroke-opacity:1"
             d="m 206.27,215.313 v -27.5 h -21.25 z" /><path
             id="path86"
             style="fill:#0065A2;fill-opacity:1;fill-rule:nonzero;stroke:none"
             d="m 419.238,215.313 v -27.5 h -18.125 l 18.125,27.5" /><path
             id="path88"
             style="fill:none;stroke:#FFFFFF;stroke-width:4;stroke-linecap:butt;stroke-linejoin:miter;stroke-miterlimit:4;stroke-dasharray:none;stroke-opacity:1"
             d="m 419.238,215.313 v -27.5 h -18.125 z" /><g
             transform="scale(10)"
             id="g90"><text
               id="text94"
               style="font-variant:normal;font-weight:bold;font-size:9px;font-family:'Arial-BoldMT';fill:#FFFFFF;fill-opacity:1;"
               transform="matrix(1,0,0,-1,26.1637,6.91016)"><tspan
                 id="tspan92"
                 y="0"
                 x="0 2.5020001">IP</tspan></text>
</g></g></g></g></g></svg>
