<?xml version="1.0" encoding="UTF-8" standalone="no"?>
<svg
   xmlns:dc="http://purl.org/dc/elements/1.1/"
   xmlns:cc="http://creativecommons.org/ns#"
   xmlns:rdf="http://www.w3.org/1999/02/22-rdf-syntax-ns#"
   xmlns:svg="http://www.w3.org/2000/svg"
   xmlns="http://www.w3.org/2000/svg"
   version="1.1"
   id="svg2"
   xml:space="preserve"
   width="49.586666"
   height="33.573334"
   viewBox="0 0 49.586666 33.573334"><metadata
     id="metadata8"><rdf:RDF><cc:Work
         rdf:about=""><dc:format>image/svg+xml</dc:format><dc:type
           rdf:resource="http://purl.org/dc/dcmitype/StillImage" /></cc:Work></rdf:RDF></metadata><defs
     id="defs6" /><g
     id="g875"><path
       id="path14"
       style="fill:#0065A2;fill-opacity:1;fill-rule:nonzero;stroke:none;stroke-width:0.13333333"
       d="M 15.540666,18.636933 C 6.5817732,17.216533 0.26718799,13.795733 0.26718799,9.8009336 V 23.769693 c 0,3.95052 6.46354521,7.340093 15.26507801,8.788015 l 0.0084,-13.920775" /><path
       id="path16"
       style="fill:none;stroke:#FFFFFF;stroke-width:1;stroke-linecap:butt;stroke-linejoin:miter;stroke-miterlimit:4;stroke-dasharray:none;stroke-opacity:1"
       d="M 15.540666,18.636933 C 6.5817732,17.216533 0.26718799,13.795733 0.26718799,9.8009336 V 23.769693 c 0,3.95052 6.46354521,7.340093 15.26507801,8.788015 z" /><path
       id="path18"
       style="fill:#0065A2;fill-opacity:1;fill-rule:nonzero;stroke:none;stroke-width:0.13333333"
       d="m 15.532266,32.557708 c 2.935467,0.482813 5.8724,0.75 9.259467,0.75 13.543199,0 24.522266,-4.269788 24.522266,-9.538015 V 9.8009336 c 0,5.2682664 -10.979067,9.5363994 -24.522266,9.5363994 -3.273467,0 -6.396933,-0.2484 -9.251067,-0.7004 l -0.0084,13.920775" /><path
       id="path20"
       style="fill:none;stroke:#FFFFFF;stroke-width:1;stroke-linecap:butt;stroke-linejoin:miter;stroke-miterlimit:4;stroke-dasharray:none;stroke-opacity:1"
       d="m 15.532266,32.557708 c 2.935467,0.482813 5.8724,0.75 9.259467,0.75 13.543199,0 24.522266,-4.269788 24.522266,-9.538015 V 9.8009336 c 0,5.2682664 -10.979067,9.5363994 -24.522266,9.5363994 -3.273467,0 -6.396933,-0.2484 -9.251067,-0.7004 z" /><path
       id="path22"
       style="fill:#0065A2;fill-opacity:1;fill-rule:nonzero;stroke:none;stroke-width:0.13333333"
       d="M 34.335999,1.0145338 C 31.402666,0.53160049 28.177066,0.26453383 24.791733,0.26453383 c -13.545373,0 -24.52454501,4.26973327 -24.52454501,9.53639977 0,3.9193334 6.07811851,7.2854664 14.76827801,8.7515994 L 34.335999,1.0145338" /><path
       id="path24"
       style="fill:none;stroke:#FFFFFF;stroke-width:1;stroke-linecap:butt;stroke-linejoin:miter;stroke-miterlimit:4;stroke-dasharray:none;stroke-opacity:1"
       d="M 34.335999,1.0145338 C 31.402666,0.53160049 28.177066,0.26453383 24.791733,0.26453383 c -13.545373,0 -24.52454501,4.26973327 -24.52454501,9.53639977 0,3.9193334 6.07811851,7.2854664 14.76827801,8.7515994 L 15.495104,18.13487 24.2517,10.17793 Z" /><path
       id="path26"
       style="fill:#0065A2;fill-opacity:1;fill-rule:nonzero;stroke:none;stroke-width:0.13333333"
       d="m 15.035466,18.552533 c 2.9896,0.5052 6.289067,0.7848 9.756267,0.7848 13.543199,0 24.522266,-4.268133 24.522266,-9.5363994 0,-3.9505332 -6.176,-7.3395998 -14.978,-8.7863998 L 15.035466,18.552533" /><path
       id="path28"
       style="fill:none;stroke:#FFFFFF;stroke-width:1;stroke-linecap:butt;stroke-linejoin:miter;stroke-miterlimit:4;stroke-dasharray:none;stroke-opacity:1"
       d="m 15.035466,18.552533 c 2.9896,0.5052 6.289067,0.7848 9.756267,0.7848 13.543199,0 24.522266,-4.268133 24.522266,-9.5363994 0,-3.9505332 -6.176,-7.3395998 -14.978,-8.7863998 z" /><path
       id="path30"
       style="fill:#FFFFFF;fill-opacity:1;fill-rule:nonzero;stroke:none;stroke-width:0.13333333"
       d="M 18.860933,6.220267 20.885466,9.2582669 13.229173,11.027467 14.902666,9.6342669 3.0692666,7.6124003 6.0375065,5.3869337 17.455733,7.320667 l 1.4052,-1.1004" /><path
       id="path32"
       style="fill:#FFFFFF;fill-opacity:1;fill-rule:nonzero;stroke:none;stroke-width:0.13333333"
       d="m 29.634399,13.5864 -1.381733,-3.131866 6.906133,-1.3796004 -1.197867,1.0724004 11.5104,1.966133 -2.762,2.209866 -11.441066,-2.148399 -1.633867,1.411466" /><path
       id="path34"
       style="fill:#FFFFFF;fill-opacity:1;fill-rule:nonzero;stroke:none;stroke-width:0.13333333"
       d="m 25.858399,4.5613337 7.735333,-2.1171999 0.0912,3.3151999 -1.933333,-0.3682667 -3.775066,3.1312 -3.602534,-0.5254667 3.8968,-3.0630666 -2.4124,-0.3724" /><path
       id="path36"
       style="fill:#FFFFFF;fill-opacity:1;fill-rule:nonzero;stroke:none;stroke-width:0.13333333"
       d="m 22.542666,16.4416 -7.3656,1.380133 -0.276,-3.406266 2.1172,0.46 4.054667,-3.462 3.588533,0.606267 -4.328133,3.775999 2.209333,0.645867" /><g
       transform="matrix(1.3333333,0,0,-1.3333333,0,33.573333)"
       id="g38"><text
   id="text42"
   style="font-variant:normal;font-weight:bold;font-size:8px;font-family:Helvetica;-inkscape-font-specification:Helvetica-Bold;writing-mode:lr-tb;fill:#FFFFFF;fill-opacity:1;fill-rule:nonzero;stroke:none"
   transform="matrix(1,0,0,-1,12.3875,2.76367)"><tspan
     id="tspan40"
     y="0"
     x="0 2.224 7.112">ITP</tspan></text>


</g></g></svg>