<?xml version="1.0" encoding="UTF-8" standalone="no"?>
<svg
   xmlns:dc="http://purl.org/dc/elements/1.1/"
   xmlns:cc="http://creativecommons.org/ns#"
   xmlns:rdf="http://www.w3.org/1999/02/22-rdf-syntax-ns#"
   xmlns:svg="http://www.w3.org/2000/svg"
   xmlns="http://www.w3.org/2000/svg"
   version="1.1"
   id="svg2"
   xml:space="preserve"
   width="31.946667"
   height="14.88"
   viewBox="0 0 31.946667 14.88"><metadata
     id="metadata8"><rdf:RDF><cc:Work
         rdf:about=""><dc:format>image/svg+xml</dc:format><dc:type
           rdf:resource="http://purl.org/dc/dcmitype/StillImage" /><dc:title /></cc:Work></rdf:RDF></metadata><defs
     id="defs6"><clipPath
       clipPathUnits="userSpaceOnUse"
       id="clipPath20"><path
         d="m 0,1.55469 h 240 v 110 H 0 Z"
         id="path18" /></clipPath></defs><g
     id="g896"><path
       id="path22"
       style="fill:none;stroke:#fffffd;stroke-width:2;stroke-linecap:butt;stroke-linejoin:miter;stroke-miterlimit:4;stroke-dasharray:none;stroke-opacity:1"
       d="m 8.4973998,8.1508268 c 1.6494802,0 2.9854132,-1.3364533 2.9854132,-2.9859332 0,-1.64896 -1.335933,-2.9848933 -2.9854132,-2.9848933 -1.64844,0 -2.9854266,1.3359333 -2.9854266,2.9848933 0,1.6494799 1.3369866,2.9859332 2.9854266,2.9859332 z" /><path
       id="path24"
       style="fill:none;stroke:#feffff;stroke-width:2;stroke-linecap:butt;stroke-linejoin:miter;stroke-miterlimit:4;stroke-dasharray:none;stroke-opacity:1"
       d="m 8.4973998,13.956041 c 1.6494802,0 2.9854132,-1.336454 2.9854132,-2.984894 0,-1.6489602 -1.335933,-2.9859335 -2.9854132,-2.9859335 -1.64844,0 -2.9854266,1.3369733 -2.9854266,2.9859335 0,1.64844 1.3369866,2.984894 2.9854266,2.984894 z" /><path
       id="path26"
       style="fill:none;stroke:#fffffe;stroke-width:2;stroke-linecap:butt;stroke-linejoin:miter;stroke-miterlimit:4;stroke-dasharray:none;stroke-opacity:1"
       d="m 4.0807332,10.420107 c 1.3187467,0 2.3895733,-1.0692802 2.3895733,-2.3885468 0,-1.3187467 -1.0708266,-2.3880133 -2.3895733,-2.3880133 -1.3187599,0 -2.3880266,1.0692666 -2.3880266,2.3880133 0,1.3192666 1.0692667,2.3885468 2.3880266,2.3885468 z" /><path
       id="path28"
       style="fill:none;stroke:#fffffd;stroke-width:2;stroke-linecap:butt;stroke-linejoin:miter;stroke-miterlimit:4;stroke-dasharray:none;stroke-opacity:1"
       d="m 11.261973,3.3315603 c 0.01251,1.1114666 0.458333,2.1114666 0.902093,3.1114666 0.333334,0.77812 1.110414,1.4447866 1.999934,1.7781199" /><path
       id="path30"
       style="fill:none;stroke:#FFFFFF;stroke-width:2;stroke-linecap:butt;stroke-linejoin:miter;stroke-miterlimit:4;stroke-dasharray:none;stroke-opacity:1"
       d="M 11.261973,12.998227 C 11.27448,11.887813 11.720306,10.887813 12.164066,9.8878135 12.4974,9.1096935 13.27448,8.4430268 14.164,8.1096935" /><path
       id="path32"
       style="fill:none;stroke:#0065A2;stroke-width:2;stroke-linecap:butt;stroke-linejoin:miter;stroke-miterlimit:4;stroke-dasharray:none;stroke-opacity:1"
       d="m 7.5119731,6.9008269 c 1.64844,0 2.9854269,-1.3364533 2.9854269,-2.9859333 0,-1.64896 -1.3369869,-2.98489325 -2.9854269,-2.98489325 -1.6489466,0 -2.9859332,1.33593325 -2.9859332,2.98489325 0,1.64948 1.3369866,2.9859333 2.9859332,2.9859333 z" /><path
       id="path34"
       style="fill:none;stroke:#0065A2;stroke-width:2;stroke-linecap:butt;stroke-linejoin:miter;stroke-miterlimit:4;stroke-dasharray:none;stroke-opacity:1"
       d="m 7.5119731,12.70604 c 1.64844,0 2.9854269,-1.336453 2.9854269,-2.9848932 0,-1.64896 -1.3369869,-2.9859333 -2.9854269,-2.9859333 -1.6489466,0 -2.9859332,1.3369733 -2.9859332,2.9859333 0,1.6484402 1.3369866,2.9848932 2.9859332,2.9848932 z" /><path
       id="path36"
       style="fill:none;stroke:#0065A2;stroke-width:2;stroke-linecap:butt;stroke-linejoin:miter;stroke-miterlimit:4;stroke-dasharray:none;stroke-opacity:1"
       d="m 3.0953066,9.1701068 c 1.31876,0 2.3875066,-1.0687466 2.3875066,-2.3885466 0,-1.3187466 -1.0687466,-2.3880133 -2.3875066,-2.3880133 -1.3192666,0 -2.38853595,1.0692667 -2.38853595,2.3880133 0,1.3198 1.06926935,2.3885466 2.38853595,2.3885466 z" /><path
       id="path38"
       style="fill:none;stroke:#0065A2;stroke-width:2;stroke-linecap:butt;stroke-linejoin:miter;stroke-miterlimit:4;stroke-dasharray:none;stroke-opacity:1"
       d="m 10.27448,2.0826003 c 0.01563,1.1104267 0.458333,2.1104266 0.90416,3.1104266 0.333333,0.77812 1.111466,1.4447866 2,1.77812" /><path
       id="path40"
       style="fill:none;stroke:#0065A2;stroke-width:2;stroke-linecap:butt;stroke-linejoin:miter;stroke-miterlimit:4;stroke-dasharray:none;stroke-opacity:1"
       d="m 10.27448,11.748227 c 0.01563,-1.110414 0.458333,-2.1104135 0.90416,-3.1104135 0.333333,-0.77812 1.111466,-1.4447866 2,-1.77812" /><path
       id="path42"
       style="fill:#FFFFFF;fill-opacity:1;fill-rule:nonzero;stroke:none;stroke-width:0.13333333"
       d="M 31.941733,9.9711468 V 6.8596935 h -13.5944 C 18.170266,6.1206269 17.842133,5.6232269 17.4688,5.6232269 c -0.373467,0 -0.700534,0.4974 -0.878667,1.2364666 H 16.3604 C 16.186,6.0893736 15.852666,5.5674936 15.4688,5.5674936 c -0.383867,0 -0.7172,0.52188 -0.892267,1.2921999 H 12.30208 v 2.5552 h 2.302053 c 0.181333,0.7093735 0.5,1.1812535 0.864667,1.1812535 0.366133,0 0.683866,-0.47188 0.866133,-1.1812535 h 0.2552 c 0.178133,0.7395865 0.5052,1.2369865 0.878667,1.2369865 0.373333,0 0.701466,-0.4974 0.878533,-1.2369865 h 10.177733 v 4.9729185 h 3.244267 V 13.165933 H 30.303066 V 12.30448 h 1.555333 V 11.0826 H 30.303066 V 9.9711468 h 1.638667" /><path
       id="path44"
       style="fill:#0065A2;fill-opacity:1;fill-rule:nonzero;stroke:none;stroke-width:0.13333333"
       d="M 30.957333,8.7211468 V 5.6096936 H 17.3604 c -0.176534,-0.7390667 -0.502,-1.2369867 -0.8776,-1.2369867 -0.3744,0 -0.700534,0.49792 -0.8776,1.2369867 h -0.230134 c -0.174533,-0.77084 -0.509466,-1.2922 -0.892266,-1.2922 -0.383867,0 -0.7188,0.52136 -0.892667,1.2922 H 11.316146 V 8.1648935 H 13.6188 c 0.179066,0.7093733 0.5,1.1812533 0.864,1.1812533 0.364533,0 0.685466,-0.47188 0.864533,-1.1812533 H 15.6052 c 0.177066,0.7395866 0.5032,1.2369866 0.8776,1.2369866 0.3756,0 0.701066,-0.4974 0.8776,-1.2369866 h 10.178666 v 4.9729195 h 3.2448 v -1.22188 H 29.316133 V 11.05448 h 1.557866 V 9.8326001 H 29.316133 V 8.7211468 h 1.6412" /></g></svg>