<?xml version="1.0" encoding="utf-8"?>
<!-- Generator: Adobe Illustrator 20.1.0, SVG Export Plug-In . SVG Version: 6.00 Build 0)  -->
<svg version="1.1" id="Layer_1" xmlns="http://www.w3.org/2000/svg" xmlns:xlink="http://www.w3.org/1999/xlink" x="0px" y="0px"
	 viewBox="0 0 58.1 58.7" style="enable-background:new 0 0 58.1 58.7;" xml:space="preserve">
<style type="text/css">
	.st0{fill:#0065A2;stroke:#FFFFFF;stroke-width:0.304;}
	.st1{fill:none;stroke:#FFFFFF;stroke-width:3.04;}
	.st2{fill:#FFFFFF;stroke:#FFFFFF;stroke-width:0.76;}
	.st3{fill:none;stroke:#FFFFFF;stroke-width:1.52;}
	.st4{stroke:#FFFFFF;stroke-width:0.304;}
</style>
<g>
	<rect x="0.4" y="6.6" class="st0" width="51" height="51.7"/>
	<line class="st1" x1="30.2" y1="14.4" x2="42.4" y2="14.4"/>
	<g>
		<polygon class="st2" points="42.5,11.9 42.5,16.8 47.7,14.4 		"/>
	</g>
	<line class="st1" x1="30.2" y1="36.5" x2="42.4" y2="36.5"/>
	<g>
		<polygon class="st2" points="42.5,33.9 42.5,38.8 47.7,36.5 		"/>
	</g>
	<line class="st1" x1="48.1" y1="48" x2="35.8" y2="48"/>
	<g>
		<polygon class="st2" points="35.7,50.6 35.7,45.6 30.6,48 		"/>
	</g>
	<line class="st1" x1="48.1" y1="26" x2="35.8" y2="26"/>
	<g>
		<polygon class="st2" points="35.7,28.5 35.7,23.6 30.6,26 		"/>
	</g>
	<line class="st3" x1="23.1" y1="26.5" x2="8.3" y2="26.5"/>
	<g>
		<polygon class="st2" points="8.9,28.2 8.9,25.1 5.4,26.6 		"/>
	</g>
	<line class="st3" x1="23.1" y1="48.2" x2="8.3" y2="48.2"/>
	<g>
		<polygon class="st2" points="8.9,49.9 8.9,46.7 5.4,48.2 		"/>
	</g>
	<line class="st3" x1="4.1" y1="36.6" x2="18.4" y2="36.6"/>
	<g>
		<polygon class="st2" points="18.3,35 18.3,38.1 21.8,36.6 		"/>
	</g>
	<line class="st3" x1="4.1" y1="15" x2="18.4" y2="15"/>
	<g>
		<polygon class="st2" points="18.3,13.3 18.3,16.5 21.8,14.9 		"/>
	</g>
	<polygon class="st0" points="51.3,6.6 0.4,6.6 8.4,0.2 57.9,0.2 57.9,0.2 57.9,51.7 51.4,58.3 51.4,6.8 	"/>
	<line class="st0" x1="51.4" y1="6.5" x2="58" y2="0.1"/>
	<line class="st4" x1="26.3" y1="58.3" x2="26.3" y2="6.8"/>
</g>
</svg>
