<?xml version="1.0" encoding="utf-8"?>
<!-- Generator: Adobe Illustrator 20.1.0, SVG Export Plug-In . SVG Version: 6.00 Build 0)  -->
<svg version="1.1" id="Layer_1" xmlns="http://www.w3.org/2000/svg" xmlns:xlink="http://www.w3.org/1999/xlink" x="0px" y="0px"
	 viewBox="0 0 86.9 59.7" style="enable-background:new 0 0 86.9 59.7;" xml:space="preserve">
<style type="text/css">
	.st0{fill:#0065A2;stroke:#FFFFFF;stroke-width:0.8;}
	.st1{fill:#0065A2;stroke:#FFFFFF;stroke-width:0.4;}
	.st2{fill:none;stroke:#FFFFFF;stroke-width:0.2;stroke-linejoin:round;}
</style>
<g>
	<polygon class="st0" points="84.3,0.9 86.4,3.6 80.8,34.5 78.2,32.9 	"/>
	<polygon class="st1" points="24.1,32.9 26.4,34.5 80.8,34.5 78.2,32.9 	"/>
	<path class="st0" d="M78.7,35.4v5.5l-1.4,1.2c0,0-3.3,1-2.6,2.9L60,58.8v-6L78.7,35.4z"/>
	<polyline class="st0" points="1.2,52.8 1.2,58.8 60,58.8 60,52.8 1.2,52.8 	"/>
	<polygon class="st0" points="24.7,35.8 78.7,35.4 60,52.8 1.2,52.8 	"/>
	<polygon class="st0" points="78.2,32.9 84.3,0.9 31.1,0.9 24.1,32.9 	"/>
	<polygon class="st0" points="73.7,29.3 78.4,5.3 35.1,5.3 30.4,29.3 	"/>
	<line class="st2" x1="26" y1="36.2" x2="12.3" y2="47.2"/>
	<line class="st2" x1="30.3" y1="36.2" x2="16.7" y2="47.2"/>
	<line class="st2" x1="34.7" y1="36.2" x2="21.1" y2="47.2"/>
	<line class="st2" x1="39.1" y1="36.2" x2="25.5" y2="47.2"/>
	<line class="st2" x1="43.5" y1="36.2" x2="29.8" y2="47.2"/>
	<line class="st2" x1="47.8" y1="36.2" x2="34.2" y2="47.2"/>
	<line class="st2" x1="52.2" y1="36.2" x2="38.6" y2="47.2"/>
	<line class="st2" x1="56.6" y1="36.2" x2="43" y2="47.2"/>
	<line class="st2" x1="61" y1="36.2" x2="47.3" y2="47.2"/>
	<line class="st2" x1="65.3" y1="36.2" x2="51.7" y2="47.2"/>
	<line class="st2" x1="69.7" y1="36.2" x2="56.1" y2="47.2"/>
	<line class="st2" x1="74.1" y1="36.2" x2="60.5" y2="47.2"/>
	<line class="st2" x1="13.9" y1="46" x2="62.4" y2="46"/>
	<line class="st2" x1="17.1" y1="43.5" x2="64.9" y2="43.5"/>
	<line class="st2" x1="20.5" y1="41" x2="68.1" y2="41"/>
	<line class="st2" x1="23.5" y1="38.5" x2="71.5" y2="38.5"/>
</g>
</svg>
