<?xml version="1.0" encoding="utf-8"?>
<!-- Generator: Adobe Illustrator 20.1.0, SVG Export Plug-In . SVG Version: 6.00 Build 0)  -->
<svg version="1.1" id="Layer_1" xmlns="http://www.w3.org/2000/svg" xmlns:xlink="http://www.w3.org/1999/xlink" x="0px" y="0px"
	 viewBox="0 0 64.9 101.4" style="enable-background:new 0 0 64.9 101.4;" xml:space="preserve">
<style type="text/css">
	.st0{fill:#0065A2;stroke:#FFFFFF;stroke-width:0.8;}
	.st1{fill:#0065A2;}
	.st2{fill:#0065A2;stroke:#FFFFFF;stroke-width:0.4;}
</style>
<g>
	<path class="st0" d="M57.5,36c2.9-1.4-0.1-7.4-9-2.5"/>
	<polyline class="st0" points="50.3,35 50.3,14.8 23.5,14.8 23.5,35 	"/>
	<polygon class="st0" points="50.3,14.8 50.3,35.1 53.5,29.6 53.5,11.8 	"/>
	<polygon class="st0" points="53.5,11.8 33.8,11.8 23.5,14.8 50.3,14.8 	"/>
	<g>
		<rect x="25.8" y="17.1" class="st0" width="22.2" height="15.6"/>
	</g>
	<polyline class="st0" points="46.1,37.5 47.2,40.1 50.3,36.7 49.9,35.4 	"/>
	<polygon class="st0" points="46.1,37.5 50.3,35.1 23.4,35.1 29.4,37.5 	"/>
	<polygon class="st0" points="47.3,40.1 46.1,37.5 29.4,37.5 27.9,40.1 	"/>
	<g>
		<path class="st0" d="M12.1,48h-0.2l0.1,30.8c-0.1,0-2.5-0.1-2.5,0c0,2.7,0,3.5,0.1,5.9c-0.1,0-2.9,0-2.9,0c0-9-0.1-27.8-0.2-37.9"
			/>
		<g>
			<g>
				<path class="st0" d="M62.4,45.8c0-3.9,1.6-4.2,1.8-4.8c0-0.6,0.1-1.5,0-2c-1.5,0-1.8,0-3.8,0l-43.1-0.4c0,0.2-6.9,1.9-7,2
					c-2.1-0.1-2.9,0.7-4.9,0.8c-0.2,0.6,0,0.3,0.1,1c0.4,0.3,1,0.5,1.4,1c0.2,1.4,0.3,2,0.2,3.2c0,0.8,0,1.5,0,2.3"/>
				<path class="st0" d="M62.3,47.2H62L62.1,78c-0.1,0-2.5-0.1-2.5,0c0,2.7,0,3.5,0.1,5.8c-0.1,0-2.9,0-2.9,0c0-9-0.1-27.8-0.2-37.9
					"/>
				<polygon class="st0" points="61.3,50.1 61.3,44.1 7.1,43.3 7.1,48.9 				"/>
				<polygon class="st0" points="63.8,47.4 63.8,41.4 61.3,44 61.3,50.1 				"/>
				<polygon class="st0" points="63.9,39 61,42.1 5.4,41.3 17.6,38.4 				"/>
			</g>
			<g>
				<g>
					<polygon class="st0" points="56.8,40.3 56.8,39.2 58.4,35.9 58.4,38.2 					"/>
					<polygon class="st0" points="56.8,39.2 58.5,35.9 54.7,35.9 53.1,39.2 					"/>
					<rect x="53.1" y="39.2" class="st0" width="3.7" height="1.1"/>
					<polygon class="st0" points="48.2,40.9 48.2,39.6 51,35.7 51,38.1 					"/>
					<polygon class="st0" points="48.2,39.6 23.6,39.6 26.4,35.7 51,35.7 					"/>
					<rect x="23.6" y="39.6" class="st0" width="24.6" height="1.3"/>
				</g>
			</g>
			<path class="st0" d="M41.2,83.7c-0.4,2.8-1,3.4,2.3,3.9v0.2c0,0,0.4-0.8,0.5,0.6c0,0,0.6,2.2-8-0.2c0,0-0.5-1.6-1.6-0.7l0.2,0.2
				c0.3-1.2,1.2-1.5,0.7-3.3l0,0.2L41.2,83.7z"/>
			<path class="st0" d="M46.2,40.5c0.5-0.6,0.1-0.4,0.7-1c0.9-0.9,1.7-1.8,2.4-2.8c0.4-0.6,0.8-1.2,1.3-1.8c0.5-0.6,1.5-0.6,2.1-0.3
				c0.5,0.3,0.8,0.4,1.4,0.6c0.3,0.1,0.6,0.8,0.2,0.9c0.3,0.1,0.6,0.3,0.7,0.6c0,0.1-0.1,0.2,0,0.3c0.2,0.6,1.3,1.1,0.7,1.5
				c-0.3,0.2-0.9-0.1-1.3,0c-0.4,0.1-0.6,0.5-0.9,0.8c-0.3,0.3-0.6,0.4-1,0.5c-0.5,0.2-1,0.3-1.5,0.5c-0.4,0.1-0.7,0.4-1,0.6
				c-1,0.5-0.7,0.5-1.6,1.1C47.6,41.7,46.7,41.1,46.2,40.5z"/>
			<path class="st0" d="M43.4,87.7c1.6,0.3,3.4-0.5,2.9,0.7c-0.2,1.8,0,2-1,3.2C45,92,45,91.6,44.5,92c-2.6,0.5-6.7-2.2-7-0.2
				c0.1-0.1-1.3,1.7-1.3,2c-0.2,0.1-0.5-0.1-0.7,0c-1.8-2.7-1.9-4.6-1.5-6.1c1.1-0.9,2,0.5,2,0.5c9.3,2.2,8,0.2,8,0.2
				C43.8,87,43.4,87.7,43.4,87.7z"/>
			<path class="st0" d="M11.7,49.4c-1.3,5.8-1.5,11.5,0.4,17c0.3,0.4,0.8,0.6,1.4,0.8c3.4-0.2,3.3-0.2,7.2-0.1l4.7,0.4
				c0.3,0.1,0.7,0,1.1,0.2c1.8,2.8,12.3-1.6,12.6,1.5c0.2-0.9-4.1,1-4.4,3.2c0.8,3.5,0,10.2-0.2,13.5c0.7,0.6-1,0.7,0.7,1.6
				c2.5,0.6,5.9-0.9,5.9-0.9c0.9-0.6,1.3,0.4,2.2-0.2c0.2-9.2-0.3-15.2,0.9-23.9c0.1-1.8-0.4-1.7-0.5-2.8c-0.1-0.7-0.9-1-1.4-1.7
				c-1.8-0.4-4.2-0.6-5.5-0.7l-4.9-1.1c0.5-1.2,0.2-7.7,0.4-9c0.7-0.6,0.8-4.9,1.3-5.5l0.4-3.6c0.1,0.8-0.2,1.9,1.3,2.7
				c0.8,0.1,0.5,0.4,1.3,0.6c0.1,0.1,0.2,0.2,0.3,0.3c0.3,0.1,0.5,0.2,0.7,0.3c0.8,0.7,2,0.5,2.8,1.2c1.3,0.2,2.3,1,3.6,0.6
				c0.4-0.1,0.9-0.2,1.4-0.1c1.2-0.9,2.4-0.3,3.2-1.5c0.3-0.3,1.4-0.3,1.7-0.5c0.4-0.6,0.3,0,0.5-0.7c0.6-0.3,0.8-0.1,1.5-0.1
				c0.1-0.1,1-2.1,1-2.3c0,0-1.3-3.1-3.9-2.7l-3.2-0.3c-2,0.1-4.1-0.1-5.8-2l-0.5-1l0.3-1.6c0.6-1.1-0.6-3.8-1-5.2
				c-1.8-1.3-0.7-0.4-2.5-1.8L13,21.7c-0.2,0.1-0.7,0.2-0.8,0.1c-1.9,0.1-3.4-0.3-5.1,0.9c-0.4,1-1.2,2.5-1.1,3.7
				c0.4,1.6-2.5,1.4-1.7,3.1c0.4,0.5,0.2,1.1,0.4,1.6c-0.4,2.3,0.1,0.2-0.4,2.2l-0.2,0c-2.6,7-3.7,14.3-3.7,14.3
				c0.2,0.2,0.4,0.4,0.5,0.6c1.5,1.9,9.9,4.3,9.9,4.3l0-0.1"/>
			<path class="st1" d="M21.4,85.3c-1,1-1.6,1.8-1.8,2.6c1.1-1.5,2.3,0.2,2.3,0.2c3.1,1.2,4.5,1.9,4.5,1.9c4.1-0.3,2.7-2.6,2.7-2.6
				c-2.1-0.9-2.6-1.5-2.5-1.8"/>
			<path class="st0" d="M19.9,74.5l-1.2,8.8L17.9,86l7.1,1.1l0.2,0c0.1-0.4,1.7,0.2,2.5,0.2c1-0.6,0.1-0.2,1.2-0.7
				c-0.1-0.2-0.3-3.3-0.2-12.1"/>
			<line class="st1" x1="23" y1="94.8" x2="24" y2="87.9"/>
			<g>
				<path class="st0" d="M21.1,68.8c0.5-0.1,0.8-0.5,0.7-1l-1.9-10.9c-0.1-0.5-0.5-0.8-1-0.7l-2.7,0.5c-0.5,0.1-0.8,0.5-0.7,1
					l1.9,10.9c0.1,0.5,0.5,0.8,1,0.7L21.1,68.8z"/>
			</g>
			<path class="st0" d="M21.3,85.1c-1.8,0.4-3.9,0.1-4.1,1.2c-0.2,1.1,0.7,1.3,1.5,1.4"/>
			<path class="st0" d="M40.7,68.8c0.5-0.5,0.6-0.7,0.6-1.2v-5.9c0-0.5-0.4-0.9-0.9-0.9l-6.5,6.3c-0.5,0-0.9,0.4-0.9,0.9v6.6
				c0,0.5,0.4,0.9,0.9,0.9L40.7,68.8z"/>
			<path class="st0" d="M8.5,44.4c-0.1-1.3,1.5-4.9,1.5-6c-0.3,1.2-0.5,6.7-0.2,7.6L8.5,44.4z"/>
			<path class="st0" d="M7.4,56.5l-0.1-0.4c0.4-3.9-1.7-9.5,2.7-12.2c18.5-0.1,4.1,0.4,22.6,0.4l1.1,0.8c2.3-0.3,1.7,11.6,1.7,11.6
				l-1.7,1.1"/>
			<path class="st0" d="M5.5,57.6c0.4-3.9-1.9-11.1,2.4-13.8c18.5-0.1,5.2,0.1,23.7,0.1l0.4,0.2c2.3-0.3,1.6,13.7,1.6,13.7L5.5,57.6
				z"/>
			<path class="st0" d="M33,11.7c0,0,0.1,0.3,0.2,0.5c0,0.8,0.5,1.6,0.5,2.4c-0.3,0.4-0.6,0.8-0.8,1.2c-0.7,0.3-1.4,0.3-2.1,0.5
				c-0.7,0.5-1,1.3-1.8,1.8c-0.9,0.2-1.7,0.1-2.5,0.5c-0.5,0.5-1.1,0.8-1.4,1.3c-0.8,0.6-1.8,0.5-2.7,0.3c-0.4-0.3-0.9-0.4-1.3-0.7
				c-1-1-1.9-2-3-2.9c-0.8,0-1.7,0.1-2.5-0.1c-0.6-0.3-0.9-0.8-1.5-1c-0.3-0.8-0.8-1.6-0.8-2.5c-0.1-0.1-0.4-0.3-0.2-0.5
				c3-1,1.4-3.2,1.9-5.2c1.4-1,0-1.7,0.6-2.8c1.1-4.3,6.2-3.5,9.7-4.2c1,0.2,2.1,0,2.4,1.1c0,0.2,1.1,0.3,0.9,0.5
				c0.7,0.9,0.9,0.3,1.7,1.3c0.7,1,0.5,1.4,0.7,1.8c1,1.2,2,1.9,2.1,3.5c0.1,0.9-0.5,1.6-0.7,1.7C32.9,11.5,33.4,10.6,33,11.7"/>
			<path class="st0" d="M34,21.4c-0.1,0.2-0.2,0.4-0.3,0.6c-0.9-0.1-0.6,2.1-1.4,1.8c-0.5,0.2-0.9-0.2-1.3-0.3
				c-0.3,0.2-0.7,0.2-1.1,0.3c-0.5,0.5-1.1,0.7-1.7,0.9c-2.3-0.6-4.4,0.8-6.6,1.2c-0.5,0-2,0.3-2.1-0.3c-1.1-0.7-1.3-2-2.3-2.8
				c-1.5-0.1-2.9-0.3-4.4-0.4c-0.2-0.1-0.4-0.4-0.7-0.4c0-0.5-0.1-0.7-0.3-1.1c-0.1-0.1-0.5-0.5-0.2-0.6c0.2-0.1,0.3-0.3-0.3-0.7
				c-0.4-1.4,0.4-5.8,1.4-6.9c-0.2,0.2,0.3-0.1,0.4,0c0,0.9,0.3,1.7,0.7,2.6c0.6,0.2,1,0.8,1.5,1c0.8,0.1,1.7,0.1,2.5,0.1
				c1,0.9,2,1.9,3,2.9c0.4,0.3,0.9,0.4,1.3,0.7c0.9,0.1,1.9,0.2,2.7-0.3c0.4-0.6,1-0.9,1.4-1.3c0.8-0.4,1.7-0.3,2.5-0.5
				c0.7-0.4,1.1-1.2,1.8-1.8c0.7-0.3,1.4-0.2,2.1-0.5c0.2-0.5,0.6-0.8,0.8-1.2c0-0.8-0.5-1.6-0.5-2.4c-0.1-0.2-0.3-0.2-0.5-0.4
				l0.3-0.1c3.4,3-0.4,6.3,1.3,9.3L34,21.4z"/>
			<path class="st1" d="M29.1,91.5c-0.5,0.2-1.9,0.4-2.5,0.5c-2.4-0.8,0.2-0.4-3.3-0.9c-0.9,0.8-0.6,2.3-1,3.5
				c-0.2,0.1-0.5-0.1-0.7,0c-1.6-3.3-2.6-5-2-6.7c1.1-1.5,2.3,0.2,2.3,0.2c3.1,1.2,4.5,1.9,4.5,1.9c4.1-0.8,2.7-2.6,2.7-2.6
				c2,0.3,1.9,0.2,1.9,0.2C32.1,88.1,29.1,91.5,29.1,91.5z"/>
			<path class="st2" d="M19.8,74.7c0.1,8.1,0.2,1.6,0.1,9.6c0.1,0.2-0.2,0.6-0.5,0.8c-1.8,0.4-4-0.4-4.1,1.2
				c-0.2,1.1,0.7,1.3,1.5,1.4c-2,1.6-3.9,3.6-5.8,5.1c-1.4,1.6-0.6,3.1-0.7,5c0.5,0.6,1.1,0.3,1.9,0.1c-0.2-1.4,0.2-2.4,0.2-3.6
				c2.4-2.2,4.9-4.3,7.3-6.5c0.2-0.1,0.3,0.1,0.4,0.2c-0.7,3.6-2.2,9-1.6,12.2c0.1,0.2,0,0.6,0.4,0.8c0.6,0.1,1.5,0.6,1.9-0.1
				c0.2-2.2-0.5-3.8,0.6-6.3c-0.1,0.1-0.1-0.1,0,0c0.3,1.1,0.2,1.7,0.2,3c0.7,0.1,1.6,0.5,2-0.4c0.3-2.3-0.5-4.8-0.7-7.8
				c0.1-0.3-0.2-0.6,0.2-0.9c2.3,1.5,4.5,4,6.8,5.7c0.9,0.9,0.6,4.1,0.6,4.1c1.4,0.3,1.7,0.2,1.7,0.2h0.2c0,0,0.6-3.4-0.8-5.6
				l-6.2-5.1c0.1-0.1,1.3,0,1.6-0.1c0.9-0.4,1.1-1.2,0.6-2c-0.9-0.2-1.5-0.2-2.7-0.3c-0.6,0-0.7-0.4-0.7-1.8
				c0.1-7.5-0.2-0.8,0.1-8.4"/>
			<path class="st0" d="M26.7,85.4c0.5,0,0.9,0.4,0.9,0.9v0.5c0,0.5-0.4,0.9-0.9,0.9h-0.2c0,0-5.1,1.2-10.2,0
				c-0.5,0-0.9-0.4-0.9-0.9v-0.5c0-0.5,0.4-0.9,0.9-0.9C20.9,86.9,26.7,85.4,26.7,85.4z"/>
			<g>
				<ellipse class="st0" cx="17.5" cy="51.5" rx="2.1" ry="2.2"/>
			</g>
			<g>
				<ellipse class="st0" cx="16.7" cy="51.7" rx="2.1" ry="2.2"/>
			</g>
			<line class="st0" x1="17.3" y1="67.3" x2="21.8" y2="67.4"/>
			<path class="st0" d="M33.5,75.4c0.5,0,0.9-0.4,0.2-1.1v-6.6c0.7-0.2,0.3-0.6-0.2-0.6H13.1L12,66.5c-0.5,0-6.1,0.5-6.1,1v7.1
				c0,0.5,0.4,0.9,0.9,0.9H33.5z"/>
			<path class="st0" d="M7.6,75c-0.4,0-0.8-0.4-0.8-0.8v-5.9c0-0.4,0.4-0.8,0.8-0.8h24.1c0.4,0,0.8,0.4,0.8,0.8v5.9
				c0,0.4-0.4,0.8-0.8,0.8H7.6z"/>
			<path class="st0" d="M40.2,68.5c0.6-0.5,0.5-1.4,0.5-0.8v-5.2c0-0.4-0.4-0.8-0.7-0.6l-5.5,5.3c-0.5,0.4-0.7,0.9-0.7,1.3v4.9
				c0,0.4,0.4,0.8,0.8,0.8L40.2,68.5z"/>
			<path class="st0" d="M6.8,57c0.4-3.5-1.7-10,2.2-12.4c16.6-0.1,4.7,0.1,21.4,0.1l0.4,0.2c2.1-0.3,1.4,12.3,1.4,12.3L6.8,57z"/>
		</g>
	</g>
	<polygon class="st0" points="12.3,65.8 14.3,67 6.7,67 11.1,64.3 	"/>
</g>
</svg>
