<?xml version="1.0" encoding="utf-8"?>
<!-- Generator: Adobe Illustrator 20.1.0, SVG Export Plug-In . SVG Version: 6.00 Build 0)  -->
<svg version="1.1" id="Layer_1" xmlns="http://www.w3.org/2000/svg" xmlns:xlink="http://www.w3.org/1999/xlink" x="0px" y="0px"
	 viewBox="0 0 86.3 61.5" style="enable-background:new 0 0 86.3 61.5;" xml:space="preserve">
<style type="text/css">
	.st0{fill:#0065A2;stroke:#FFFFFF;stroke-width:0.8;}
	.st1{fill:none;stroke:#0065A2;stroke-width:0.8;}
</style>
<g>
	<g>
		<polyline class="st0" points="18.7,3.6 1.4,3.6 1.4,52.6 17.7,52.5 		"/>
		<polygon class="st0" points="17.7,3.6 17.7,52.6 19,51.6 19,3.3 		"/>
		<polygon class="st0" points="22.5,3.5 22.5,52.1 30,45.6 30,0.6 		"/>
		<line class="st0" x1="16.1" y1="6.6" x2="2.4" y2="6.6"/>
		<line class="st0" x1="14.8" y1="11.6" x2="3.5" y2="11.6"/>
		<polyline class="st0" points="22.3,3.4 18.9,3.4 18.9,52 22.3,52 		"/>
		<line class="st0" x1="0.6" y1="9" x2="17.7" y2="9"/>
		<line class="st0" x1="0.6" y1="13.9" x2="17.7" y2="13.9"/>
		<g>
			<circle class="st0" cx="20.7" cy="46.1" r="0.6"/>
		</g>
		<g>
			<circle class="st0" cx="20.7" cy="50.1" r="0.6"/>
		</g>
		<polygon class="st0" points="22.9,3.4 30.6,0.4 12.9,0.4 0.1,3.7 17.4,3.7 18.5,3.5 		"/>
	</g>
	<line class="st0" x1="73.7" y1="40.9" x2="28" y2="40.9"/>
	<polyline class="st0" points="73.7,40.7 73.7,6.2 28,6.2 28,40.7 	"/>
	<polygon class="st0" points="73.7,40.8 79,31.4 79,1.2 45.5,1.2 28,6.2 73.7,6.2 	"/>
	<g>
		<rect x="31.9" y="10.2" class="st0" width="37.7" height="26.5"/>
	</g>
	<line class="st0" x1="73.7" y1="6.2" x2="79" y2="1.2"/>
	<polygon class="st0" points="70.7,60.4 70.7,55.3 18.1,55.3 26.8,49.4 76.7,49.4 76.7,53.7 	"/>
	<g>
		<rect x="18.1" y="55.3" class="st0" width="52.6" height="5.1"/>
	</g>
	<line class="st0" x1="70.7" y1="55.3" x2="76.7" y2="49.4"/>
	<polyline class="st0" points="74,58 73.2,60.4 82,60.4 81.6,58 	"/>
	<polygon class="st0" points="81.6,58 81.4,54.7 77.6,54.7 73.9,58 	"/>
	<polyline class="st0" points="66.4,44.8 68.3,49.2 73.5,43.5 72.9,41.3 	"/>
	<polygon class="st0" points="66.4,44.8 73.7,40.8 27.9,40.8 38,44.8 	"/>
	<polygon class="st0" points="68.4,49.3 66.4,44.8 38,44.8 35.4,49.3 	"/>
	<path class="st1" d="M79.7,55.1c0.8-1-3.6-2.3,1.4-3.1c3.2-0.5,12.9-6.2-9.8-6.5"/>
</g>
</svg>
