<?xml version="1.0" encoding="UTF-8" standalone="no"?>
<svg
   xmlns:dc="http://purl.org/dc/elements/1.1/"
   xmlns:cc="http://creativecommons.org/ns#"
   xmlns:rdf="http://www.w3.org/1999/02/22-rdf-syntax-ns#"
   xmlns:svg="http://www.w3.org/2000/svg"
   xmlns="http://www.w3.org/2000/svg"
   viewBox="0 0 103.09333 69.826668"
   height="69.826668"
   width="103.09333"
   xml:space="preserve"
   id="svg2"
   version="1.1"><metadata
     id="metadata8"><rdf:RDF><cc:Work
         rdf:about=""><dc:format>image/svg+xml</dc:format><dc:type
           rdf:resource="http://purl.org/dc/dcmitype/StillImage" /></cc:Work></rdf:RDF></metadata><defs
     id="defs6" /><g
     transform="matrix(1.3333333,0,0,-1.3333333,0,69.826667)"
     id="g10"><g
       transform="scale(0.1)"
       id="g12"><path
         id="path14"
         style="fill:#0065A2;fill-opacity:1;fill-rule:nonzero;stroke:none"
         d="M 363.77,8.75 V 124.711 H 6.57422 V 8.75 H 363.77" /><path
         id="path16"
         style="fill:none;stroke:#FFFFFF;stroke-width:4;stroke-linecap:butt;stroke-linejoin:miter;stroke-miterlimit:4;stroke-dasharray:none;stroke-opacity:1"
         d="M 363.77,8.75 V 124.711 H 6.57422 V 8.75 Z" /><path
         id="path18"
         style="fill:#0065A2;fill-opacity:1;fill-rule:nonzero;stroke:none"
         d="M 5.64453,124.125 149.91,241.059 H 483.215 L 363.438,124.125 H 5.64453" /><path
         id="path20"
         style="fill:none;stroke:#FFFFFF;stroke-width:4;stroke-linecap:butt;stroke-linejoin:miter;stroke-miterlimit:4;stroke-dasharray:none;stroke-opacity:1"
         d="M 5.64453,124.125 149.91,241.059 H 483.215 L 363.438,124.125 Z" /><path
         id="path22"
         style="fill:#0065A2;fill-opacity:1;fill-rule:nonzero;stroke:none"
         d="M 363.574,5.09766 482.891,134.027 482.969,240.863 363.574,124.301 V 5.09766" /><path
         id="path24"
         style="fill:none;stroke:#FFFFFF;stroke-width:4;stroke-linecap:butt;stroke-linejoin:miter;stroke-miterlimit:4;stroke-dasharray:none;stroke-opacity:1"
         d="M 363.574,5.09766 482.891,134.027 482.969,240.863 363.574,124.301 Z" /><path
         id="path26"
         style="fill:#0065A2;fill-opacity:1;fill-rule:nonzero;stroke:none"
         d="m 109.363,138.668 111.672,90.078" /><path
         id="path28"
         style="fill:none;stroke:#FFFFFF;stroke-width:4;stroke-linecap:butt;stroke-linejoin:miter;stroke-miterlimit:4;stroke-dasharray:none;stroke-opacity:1"
         d="m 109.363,138.668 111.672,90.078" /><path
         id="path30"
         style="fill:#0065A2;fill-opacity:1;fill-rule:nonzero;stroke:none"
         d="m 198.066,138.668 111.668,90.078" /><path
         id="path32"
         style="fill:none;stroke:#FFFFFF;stroke-width:4;stroke-linecap:butt;stroke-linejoin:miter;stroke-miterlimit:4;stroke-dasharray:none;stroke-opacity:1"
         d="m 198.066,138.668 111.668,90.078" /><path
         id="path34"
         style="fill:#0065A2;fill-opacity:1;fill-rule:nonzero;stroke:none"
         d="m 286.77,138.668 111.668,90.078" /><path
         id="path36"
         style="fill:none;stroke:#FFFFFF;stroke-width:4;stroke-linecap:butt;stroke-linejoin:miter;stroke-miterlimit:4;stroke-dasharray:none;stroke-opacity:1"
         d="m 286.77,138.668 111.668,90.078" /><path
         id="path38"
         style="fill:#0065A2;fill-opacity:1;fill-rule:nonzero;stroke:none"
         d="M 154.934,212.68 H 419.219" /><path
         id="path40"
         style="fill:none;stroke:#FFFFFF;stroke-width:4;stroke-linecap:butt;stroke-linejoin:miter;stroke-miterlimit:4;stroke-dasharray:none;stroke-opacity:1"
         d="M 154.934,212.68 H 419.219" /><path
         id="path42"
         style="fill:#FFFFFF;fill-opacity:1;fill-rule:nonzero;stroke:none"
         d="M 142.98,69.8438 H 76.1445 v 6.1132 l -25.207,-9.0234 25.207,-9.0234 v 6.1132 H 142.98 v 5.8204" /><path
         id="path44"
         style="fill:#FFFFFF;fill-opacity:1;fill-rule:nonzero;stroke:none"
         d="M 180.762,50.6445 V 26.9531 h -17.266 l 25.442,-8.9453 25.449,8.9453 h -17.246 v 23.6914 h -16.379" /><path
         id="path46"
         style="fill:#FFFFFF;fill-opacity:1;fill-rule:nonzero;stroke:none"
         d="M 180.762,82.5586 V 106.23 h -17.266 l 25.442,8.95 25.449,-8.95 H 197.141 V 82.5586 h -16.379" /><path
         id="path48"
         style="fill:#FFFFFF;fill-opacity:1;fill-rule:nonzero;stroke:none"
         d="m 234.91,64.0234 h 66.828 v -6.1132 l 25.227,9.0234 -25.227,9.0234 V 69.8438 H 234.91 v -5.8204" /><path
         id="path50"
         style="fill:none;stroke:#FFFFFF;stroke-width:4;stroke-linecap:butt;stroke-linejoin:miter;stroke-miterlimit:4;stroke-dasharray:none;stroke-opacity:1"
         d="M 296.453,28.9063 C 283.914,24.1992 226.277,37.1094 167.773,57.7344 109.246,78.3398 71.9805,98.8477 84.5391,103.555 97.082,108.242 154.719,95.332 213.23,74.7266 271.746,54.1211 308.992,33.5938 296.453,28.9063 Z" /><path
         id="path52"
         style="fill:none;stroke:#FFFFFF;stroke-width:4;stroke-linecap:butt;stroke-linejoin:miter;stroke-miterlimit:4;stroke-dasharray:none;stroke-opacity:1"
         d="M 293.125,103.906 C 306.367,99.4531 269.949,79.0234 211.816,58.2813 153.66,37.5391 95.8008,24.3359 82.5586,28.7695 69.3164,33.2227 105.715,53.6523 163.867,74.3945 222.004,95.1367 279.863,108.34 293.125,103.906 Z" /><path
         id="path54"
         style="fill:#bfbebe;fill-opacity:1;fill-rule:nonzero;stroke:none"
         d="m 216.348,53.1641 c 22.082,5.4882 27.429,16.2695 11.98,24.082 -15.457,7.832 -45.855,9.7266 -67.937,4.2578 -22.071,-5.4687 -27.43,-16.2695 -11.961,-24.082 15.437,-7.8321 45.847,-9.7266 67.918,-4.2578" /><path
         id="path56"
         style="fill:#FFFFFF;fill-opacity:1;fill-rule:evenodd;stroke:none"
         d="m 221.035,212.641 c -2.48,-7.657 -38.406,-8.387 -38.699,0 -0.273,7.734 37.793,8.488 38.699,0" /><path
         id="path58"
         style="fill:#FFFFFF;fill-opacity:1;fill-rule:evenodd;stroke:none"
         d="m 309.734,212.641 c -2.476,-7.657 -38.406,-8.387 -38.699,0 -0.273,7.734 37.793,8.488 38.699,0" /><path
         id="path60"
         style="fill:#FFFFFF;fill-opacity:1;fill-rule:evenodd;stroke:none"
         d="m 398.438,212.641 c -2.481,-7.657 -38.411,-8.387 -38.704,0 -0.269,7.734 37.793,8.488 38.704,0" /><path
         id="path62"
         style="fill:#0065A2;fill-opacity:1;fill-rule:nonzero;stroke:none"
         d="M 121.094,183.707 H 385.383" /><path
         id="path64"
         style="fill:none;stroke:#FFFFFF;stroke-width:4;stroke-linecap:butt;stroke-linejoin:miter;stroke-miterlimit:4;stroke-dasharray:none;stroke-opacity:1"
         d="M 121.094,183.707 H 385.383" /><path
         id="path66"
         style="fill:#FFFFFF;fill-opacity:1;fill-rule:evenodd;stroke:none"
         d="m 187.195,183.668 c -2.476,-7.656 -38.406,-8.391 -38.699,0 -0.273,7.734 37.793,8.484 38.699,0" /><path
         id="path68"
         style="fill:#FFFFFF;fill-opacity:1;fill-rule:evenodd;stroke:none"
         d="m 275.898,183.668 c -2.48,-7.656 -38.41,-8.391 -38.703,0 -0.269,7.734 37.793,8.484 38.703,0" /><path
         id="path70"
         style="fill:#FFFFFF;fill-opacity:1;fill-rule:evenodd;stroke:none"
         d="m 364.602,183.668 c -2.485,-7.656 -38.411,-8.391 -38.704,0 -0.273,7.734 37.793,8.484 38.704,0" /><path
         id="path72"
         style="fill:#0065A2;fill-opacity:1;fill-rule:nonzero;stroke:none"
         d="M 86.7383,154.125 H 351.023" /><path
         id="path74"
         style="fill:none;stroke:#FFFFFF;stroke-width:4;stroke-linecap:butt;stroke-linejoin:miter;stroke-miterlimit:4;stroke-dasharray:none;stroke-opacity:1"
         d="M 86.7383,154.125 H 351.023" /><path
         id="path76"
         style="fill:#FFFFFF;fill-opacity:1;fill-rule:evenodd;stroke:none"
         d="m 148.828,154.086 c -2.48,-7.656 -38.406,-8.387 -38.699,0 -0.274,7.734 37.793,8.488 38.699,0" /><path
         id="path78"
         style="fill:#FFFFFF;fill-opacity:1;fill-rule:evenodd;stroke:none"
         d="m 237.527,154.086 c -2.476,-7.656 -38.406,-8.387 -38.699,0 -0.273,7.734 37.793,8.488 38.699,0" /><path
         id="path80"
         style="fill:#FFFFFF;fill-opacity:1;fill-rule:evenodd;stroke:none"
         d="m 326.23,154.086 c -2.48,-7.656 -38.41,-8.387 -38.703,0 -0.269,7.734 37.793,8.488 38.703,0" /></g></g></svg>