<?xml version="1.0" encoding="utf-8"?>
<!-- Generator: Adobe Illustrator 20.1.0, SVG Export Plug-In . SVG Version: 6.00 Build 0)  -->
<svg version="1.1" id="Layer_1" xmlns="http://www.w3.org/2000/svg" xmlns:xlink="http://www.w3.org/1999/xlink" x="0px" y="0px"
	 viewBox="0 0 84.2 68.3" style="enable-background:new 0 0 84.2 68.3;" xml:space="preserve">
<style type="text/css">
	.st0{fill:#0065A2;stroke:#FFFFFF;stroke-width:0.8;}
	.st1{fill:#0065A2;}
	.st2{fill:#0065A2;stroke:#FFFFFF;stroke-width:0.8;}
	.st3{fill:none;stroke:#0065A2;stroke-width:1.2;stroke-linecap:round;stroke-linejoin:round;}
	.st4{fill:#FFFFFF;}
	.st5{font-family:'Helvetica-Bold';}
	.st6{font-size:16px;}
</style>
	<g>
	<g>
		<polygon class="st0" points="83.4,32.7 27.4,0.7 27.4,64.7 		"/>
		<g>
			<g>
				<polygon class="st1" points="24.7,14.9 24.7,18.4 0,18.4 0,14.9 				"/>
				<line class="st2" x1="23.3" y1="18.2" x2="27.6" y2="13.7"/>
			</g>
		</g>
		<g>
			<g>
				<polygon class="st1" points="24.7,25.9 24.7,29.4 0,29.4 0,25.9 				"/>
				<line class="st2" x1="23.3" y1="29.2" x2="27.6" y2="24.7"/>
			</g>
		</g>
		<g>
			<g>
				<polygon class="st1" points="24.7,36.9 24.7,40.4 0,40.4 0,36.9 				"/>
				<line class="st2" x1="23.3" y1="40.2" x2="27.6" y2="35.7"/>
			</g>
		</g>
		<g>
			<g>
				<polygon class="st1" points="24.7,47.9 24.7,51.4 0,51.4 0,47.9 				"/>
				<line class="st2" x1="23.3" y1="51.2" x2="27.6" y2="46.7"/>
			</g>
		</g>
		<polygon class="st1" points="27.2,6.5 21.1,3.4 27.2,1 		"/>
		<line class="st3" x1="27.4" y1="1.8" x2="27.4" y2="6.4"/>
		<polygon class="st0" points="77.3,35.6 21.3,3.6 21.3,67.6 		"/>
	</g>
	<g>
		<text transform="matrix(1 0 0 1 26.7835 39.6089)" class="st4 st5 st6">P</text>
		<text transform="matrix(1 0 0 1 33.6956 39.6089)" class="st4 st5 st6">AD</text>
	</g>
</g>
</svg>
