<?xml version="1.0" encoding="utf-8"?>
<!-- Generator: Adobe Illustrator 20.1.0, SVG Export Plug-In . SVG Version: 6.00 Build 0)  -->
<svg version="1.1" id="Layer_1" xmlns="http://www.w3.org/2000/svg" xmlns:xlink="http://www.w3.org/1999/xlink" x="0px" y="0px"
	 viewBox="0 0 73 49.5" style="enable-background:new 0 0 73 49.5;" xml:space="preserve">
<style type="text/css">
	.st0{fill:#0065A2;stroke:#FFFFFF;stroke-width:0.8;}
	.st1{fill:#FFFFFF;}
</style>
<g>
	<g>
		<g>
			<g>
				<g>
					<path class="st0" d="M72.6,14.4c0,7.8-16.2,14-36.1,14c-19.9,0-36.1-6.3-36.1-14V35c0,7.8,16.2,14,36.1,14
						c19.9,0,36.1-6.3,36.1-14V14.4z"/>
					<path class="st0" d="M72.6,14.4c0,7.8-16.2,14-36.1,14c-19.9,0-36.1-6.3-36.1-14V35c0,7.8,16.2,14,36.1,14
						c19.9,0,36.1-6.3,36.1-14V14.4z"/>
				</g>
				<ellipse class="st0" cx="36.5" cy="14.4" rx="36.1" ry="14"/>
			</g>
		</g>
	</g>
	<polygon class="st1" points="25.9,22.2 25.9,4 43.3,12.8 	"/>
	<rect x="43.5" y="4.5" class="st1" width="5.4" height="16.9"/>
</g>
</svg>
