<?xml version="1.0" encoding="utf-8"?>
<!-- Generator: Adobe Illustrator 20.1.0, SVG Export Plug-In . SVG Version: 6.00 Build 0)  -->
<svg version="1.1" id="Layer_1" xmlns="http://www.w3.org/2000/svg" xmlns:xlink="http://www.w3.org/1999/xlink" x="0px" y="0px"
	 viewBox="0 0 62.7 79.2" style="enable-background:new 0 0 62.7 79.2;" xml:space="preserve">
<style type="text/css">
	.st0{fill:#0065A2;stroke:#FFFFFF;stroke-width:0.8;}
	.st1{fill:none;stroke:#0065A2;stroke-width:0.8;}
	.st2{fill:#FFFFFF;}
	.st3{fill:none;stroke:#FFFFFF;stroke-width:0.8;}
</style>
<g>
	<g>
		<g>
			<g>
				<g>
					<g>
						<rect x="1.3" y="29.4" class="st0" width="53.7" height="48.9"/>
						<polygon class="st0" points="61.7,71.5 61.7,22.7 54.9,29.4 54.9,78.3 						"/>
					</g>
				</g>
				<g>
					<polygon class="st0" points="11.1,1 1.3,7.7 54.9,7.7 61.7,1 					"/>
					<rect x="1.3" y="7.7" class="st0" width="53.7" height="21.7"/>
					<polygon class="st0" points="61.7,22.7 61.7,1 54.9,7.7 54.9,29.4 					"/>
					<line class="st0" x1="54.9" y1="29.4" x2="1.3" y2="29.4"/>
					<line class="st0" x1="54.9" y1="29.4" x2="61.7" y2="22.7"/>
					<line class="st1" x1="17.1" y1="12.1" x2="43.7" y2="12.1"/>
					<line class="st1" x1="17.1" y1="23.4" x2="43.7" y2="23.4"/>
					<line class="st1" x1="15.5" y1="23.4" x2="43.7" y2="12.1"/>
					<line class="st1" x1="15.5" y1="12.1" x2="43.7" y2="23.4"/>
					<rect x="10" y="10.6" class="st2" width="8.7" height="4.5"/>
					<rect x="38.5" y="10.6" class="st2" width="8.7" height="4.5"/>
					<rect x="10" y="21.8" class="st2" width="8.7" height="4.5"/>
					<rect x="38.5" y="21.8" class="st2" width="8.7" height="4.5"/>
					<line class="st3" x1="15.9" y1="12.8" x2="42.5" y2="12.8"/>
					<line class="st3" x1="15.9" y1="24.1" x2="42.5" y2="24.1"/>
					<line class="st3" x1="14.4" y1="24.1" x2="42.5" y2="12.8"/>
					<line class="st3" x1="14.4" y1="12.8" x2="42.5" y2="24.1"/>
				</g>
			</g>
		</g>
	</g>
	<polygon class="st2" points="28.9,45.9 28.9,35.3 30.8,35.3 28,31.2 25.1,35.3 27.1,35.3 27.1,45.9 	"/>
	<polygon class="st2" points="20.2,52.4 9,52.4 9,50.6 4.8,53.3 9,56 9,54.2 20.2,54.2 	"/>
	<polygon class="st2" points="27.1,60.7 27.1,71.3 25.1,71.3 28,75.4 30.8,71.3 28.9,71.3 28.9,60.7 	"/>
	<polygon class="st2" points="35.7,54.2 46.9,54.2 46.9,56 51.1,53.3 46.9,50.6 46.9,52.4 35.7,52.4 	"/>
	<g>
		<rect x="17.5" y="42.5" class="st0" width="21" height="21.8"/>
		<line class="st0" x1="22.8" y1="42.3" x2="22.8" y2="64.3"/>
		<line class="st0" x1="28" y1="42.2" x2="28" y2="64.3"/>
		<line class="st0" x1="33.2" y1="42.6" x2="33.2" y2="64.1"/>
		<line class="st0" x1="17.4" y1="47.9" x2="38.4" y2="47.9"/>
		<line class="st0" x1="17.3" y1="53.3" x2="38.2" y2="53.3"/>
		<line class="st0" x1="17.3" y1="58.8" x2="38.4" y2="58.8"/>
	</g>
</g>
</svg>
