<?xml version="1.0" encoding="utf-8"?>
<!-- Generator: Adobe Illustrator 20.1.0, SVG Export Plug-In . SVG Version: 6.00 Build 0)  -->
<svg version="1.1" id="Layer_1" xmlns="http://www.w3.org/2000/svg" xmlns:xlink="http://www.w3.org/1999/xlink" x="0px" y="0px"
	 viewBox="0 0 78.3 87.8" style="enable-background:new 0 0 78.3 87.8;" xml:space="preserve">
<style type="text/css">
	.st0{fill:#0065A2;}
</style>
<g>
	<polyline class="st0" points="59.2,5.3 54.6,3.7 47.7,8.3 52.1,12.7 52.5,12.1 53.4,12.9 54.4,12.9 54.8,11.9 55.2,11.9 55.3,11.2 
		55.8,11.3 56.2,10.4 57.4,10.9 57.7,10.7 57.9,8 58.9,7.5 59.3,5.6 	"/>
	<polygon class="st0" points="59.7,42.4 62.1,39.8 62.8,40.7 66.3,41.6 67.2,44.6 66,44.5 65.2,46.3 64.6,45.6 63.2,46.9 63.1,45.4 
		61.7,45.3 60.8,43.2 	"/>
	<polygon class="st0" points="16.6,29.5 14.3,30.7 13.8,31.8 10.9,33.8 11.2,34.7 13.7,33.1 11.4,35.6 11.9,36.2 14.2,34.4 
		12.3,37.4 13,37.9 15.1,35.3 14.4,38.1 15.2,38.3 16.7,34.7 17.3,34.7 18.3,36.4 19.2,36.3 18.6,33.5 18.9,30.9 	"/>
	<polygon class="st0" points="61.7,45.9 62.5,46.3 62.2,47.3 62,48.8 60.7,48.3 61,46.9 	"/>
	<polygon class="st0" points="67.3,43.2 68.9,43.9 69.1,45.3 67.9,45.9 67.9,44.6 	"/>
	<polygon class="st0" points="73.2,44.5 55.3,50.8 59.1,63.3 61.7,65.4 78.3,59.1 76.4,46.3 	"/>
	<polygon class="st0" points="61,81.5 58.9,83.4 56.1,83.1 55.5,85.4 56.1,87.8 60.1,87.8 61,86.9 63.2,87.8 68.2,87.8 70,87.1 
		69.4,85.5 64.6,84.6 61.7,82.6 	"/>
	<polygon class="st0" points="7.8,71.3 6.3,68.8 7.2,66.2 5.2,65.1 2.7,65.1 1.8,69.1 2.4,70.1 1.1,72.1 0,76.9 0.3,78.8 1.9,78.6 
		3.9,74.2 6.5,71.8 	"/>
	<polyline class="st0" points="27.5,43.2 24.8,40.8 29.9,32.6 32,20 26.9,22.8 22.3,31.1 16.8,27.9 22.6,17 35.4,9.2 45.9,9.4 
		51.7,13.8 56.9,20.8 55.1,22.8 54.4,32.5 61.7,39.1 56.8,43.1 48.2,35.6 48.5,44.9 	"/>
	<polygon class="st0" points="48.5,44.9 56.5,58.4 63.4,78.4 55.1,81.2 48.5,62.9 38.3,48.7 33.1,64.3 12.2,72.3 8.9,65.4 
		24.5,59.4 24.8,57.5 26.5,57.7 28.2,46.4 27.5,43.2 	"/>
	<polyline class="st0" points="26.8,42.5 40.9,47 47.6,43.8 	"/>
	<polyline class="st0" points="59.3,5.6 60.9,5.7 59.8,3.2 55.3,0.1 52.6,0 50.1,1.4 47.7,8.3 50,6.7 52.6,5.6 52.9,6.2 54.2,6.9 
		55.5,4.7 59.2,5.3 	"/>
</g>
</svg>
