<?xml version="1.0" encoding="utf-8"?>
<!-- Generator: Adobe Illustrator 20.1.0, SVG Export Plug-In . SVG Version: 6.00 Build 0)  -->
<svg version="1.1" id="Layer_1" xmlns="http://www.w3.org/2000/svg" xmlns:xlink="http://www.w3.org/1999/xlink" x="0px" y="0px"
	 viewBox="0 0 56.6 57.2" style="enable-background:new 0 0 56.6 57.2;" xml:space="preserve">
<style type="text/css">
	.st0{fill:#0065A2;stroke:#FFFFFF;stroke-width:0.8;}
	.st1{fill:#FFFFFF;}
	.st2{fill:#FFFFFF;stroke:#FFFFFF;stroke-width:0.8;}
	.st3{fill:#0065A2;}
	.st4{font-family:'Helvetica';}
	.st5{font-size:14px;}
</style>
	<g>
	<g>
		<rect x="1.1" y="10.1" class="st0" width="45.4" height="46.1"/>
		<polygon class="st0" points="55.6,0.9 46.3,10.1 1,10.1 10.8,0.9 		"/>
		<polygon class="st0" points="55.7,45.2 55.7,1 46.5,10.2 46.5,56.1 		"/>
	</g>
	<g>
		<circle class="st1" cx="23.8" cy="33" r="9.2"/>
		<line class="st2" x1="23.8" y1="23.8" x2="23.8" y2="14.5"/>
		<polygon class="st2" points="24,12.2 27.3,19 20.6,19 		"/>
		<line class="st2" x1="17.3" y1="26.5" x2="10.8" y2="19.9"/>
		<polygon class="st2" points="9.2,18.2 16.4,20.6 11.7,25.3 		"/>
		<line class="st2" x1="14.7" y1="33" x2="5.3" y2="33"/>
		<polygon class="st2" points="3.1,32.9 9.8,29.5 9.8,36.2 		"/>
		<line class="st2" x1="17.3" y1="39.5" x2="10.8" y2="46.1"/>
		<polygon class="st2" points="9.1,47.6 11.5,40.5 16.2,45.2 		"/>
		<line class="st2" x1="23.8" y1="42.2" x2="23.8" y2="51.5"/>
		<polygon class="st2" points="23.7,53.8 20.4,47 27,47 		"/>
		<line class="st2" x1="30.3" y1="39.5" x2="36.9" y2="46.1"/>
		<polygon class="st2" points="38.5,47.8 31.3,45.3 36,40.6 		"/>
		<line class="st2" x1="33" y1="33" x2="42.3" y2="33"/>
		<polygon class="st2" points="44.6,33.1 37.9,36.4 37.9,29.8 		"/>
		<line class="st2" x1="30.3" y1="26.5" x2="36.9" y2="19.9"/>
		<polygon class="st2" points="38.6,18.4 36.2,25.5 31.5,20.8 		"/>
		<g>
			<text transform="matrix(1 0 0 1 17.3473 37.7302)" class="st3 st4 st5">Si</text>
		</g>
	</g>
</g>
</svg>
