<?xml version="1.0" encoding="utf-8"?>
<!-- Generator: Adobe Illustrator 20.1.0, SVG Export Plug-In . SVG Version: 6.00 Build 0)  -->
<svg version="1.1" id="Layer_1" xmlns="http://www.w3.org/2000/svg" xmlns:xlink="http://www.w3.org/1999/xlink" x="0px" y="0px"
	 viewBox="0 0 85.7 43.1" style="enable-background:new 0 0 85.7 43.1;" xml:space="preserve">
<style type="text/css">
	.st0{fill:#0065A2;stroke:#FFFFFF;stroke-width:0.8;}
	.st1{fill:#FFFFFF;}
</style>
<g>
	<g>
		<polygon class="st0" points="75.2,20.8 85.1,0.4 16.3,0.4 0.8,20.8 		"/>
		<polygon class="st0" points="85.1,18.9 85.1,0.4 75.2,20.8 75.2,42.7 		"/>
		<polygon class="st0" points="75.2,42.7 75.2,20.8 0.8,20.8 0.8,42.7 		"/>
	</g>
	<g>
		<g>
			<rect x="8.6" y="34.9" class="st0" width="4.5" height="4.5"/>
			<rect x="15.1" y="34.9" class="st0" width="4.5" height="4.5"/>
			<rect x="21.6" y="34.9" class="st0" width="4.5" height="4.5"/>
			<rect x="28.1" y="34.9" class="st0" width="4.5" height="4.5"/>
			<rect x="34.6" y="34.9" class="st0" width="4.5" height="4.5"/>
			<rect x="41.1" y="34.9" class="st0" width="4.5" height="4.5"/>
			<rect x="47.6" y="34.9" class="st0" width="4.5" height="4.5"/>
			<rect x="54.1" y="34.9" class="st0" width="4.5" height="4.5"/>
			<rect x="60.6" y="34.9" class="st0" width="4.5" height="4.5"/>
		</g>
		<polygon class="st1" points="63.3,9.7 65.6,6.9 70.6,10 60.7,12.8 62.7,10.6 43,10.6 43.7,9.7 		"/>
		<polygon class="st1" points="44.8,9.7 44.3,10.6 24.7,10.6 22.6,12.6 17.3,10 28,6.7 25.2,9.7 		"/>
	</g>
</g>
</svg>
