<?xml version="1.0" encoding="utf-8"?>
<!-- Generator: Adobe Illustrator 20.1.0, SVG Export Plug-In . SVG Version: 6.00 Build 0)  -->
<svg version="1.1" id="Layer_1" xmlns="http://www.w3.org/2000/svg" xmlns:xlink="http://www.w3.org/1999/xlink" x="0px" y="0px"
	 viewBox="0 0 99 84.7" style="enable-background:new 0 0 99 84.7;" xml:space="preserve">
<style type="text/css">
	.st0{fill:#0065A2;stroke:#FFFFFF;stroke-width:0.8;}
</style>
<g>
	<g>
		<polygon class="st0" points="41.4,6.7 50.4,0.4 55.4,0.4 54.9,5.2 48.4,11.2 		"/>
		<g>
			<rect x="7.9" y="49.2" class="st0" width="63.5" height="34.5"/>
		</g>
		<polygon class="st0" points="71.4,49.2 93.9,27.7 93.9,60.7 71.4,83.7 		"/>
		<polygon class="st0" points="83.1,76.8 78.4,76.8 78.1,45.7 81.9,44.2 84.1,46.2 84.6,72.5 		"/>
		<polygon class="st0" points="81.9,44.2 83.1,76.7 91.6,67 87.9,37 		"/>
		<polygon class="st0" points="76.4,51.7 43.9,9.2 55.1,0.5 98.4,27.7 		"/>
		<polygon class="st0" points="81.4,33.7 86.4,28.7 83.9,8.7 79.4,10.7 79.4,28.7 		"/>
		<polygon class="st0" points="73.9,26.7 81.4,33.5 80.9,9.7 76.9,9.2 		"/>
		<polygon class="st0" points="76.9,9.2 80.6,11.5 83.9,8.7 80.1,7.4 		"/>
		<polygon class="st0" points="46.9,6.7 76.9,51.7 0.9,51.7 41.4,6.7 		"/>
	</g>
	<rect x="21.2" y="61.9" class="st0" width="35.4" height="6.7"/>
	<g>
		<line class="st0" x1="45.7" y1="65.7" x2="54.7" y2="65.7"/>
	</g>
	<g>
		<line class="st0" x1="45.7" y1="65.4" x2="54.7" y2="65.4"/>
	</g>
	<polygon class="st0" points="62.7,62.1 62.7,56.2 56.6,62 56.6,68.6 	"/>
	<polygon class="st0" points="50.3,74 50.3,72.5 53.5,68.1 53.5,70.8 	"/>
	<rect x="21.9" y="72.5" class="st0" width="28.4" height="1.5"/>
	<polygon class="st0" points="50.3,72.5 22,72.5 25.2,68.1 53.5,68.1 	"/>
	<polygon class="st0" points="62.5,56.4 27.1,56.4 21.2,61.9 56.6,61.9 	"/>
	<g>
		<polygon class="st0" points="55.9,56.4 32.2,56.4 28.2,60.1 51.9,60.1 		"/>
	</g>
	<g>
		<rect x="27.5" y="40.8" class="st0" width="24.4" height="17.9"/>
	</g>
	<path class="st0" d="M29.6,44.7c0-1.8,1.9-2.1,1.9-2.1s14.4,0,16.1,0c2.3,0,2.2,2.1,2.2,2.1s0,8.8,0,10c0,1.3-1.7,1.8-1.7,1.8
		s-14.7,0-16.3,0c-1.6,0-2.1-1.7-2.1-1.7V44.7z"/>
	<polygon class="st0" points="56,36.9 31.6,36.9 27.5,40.8 51.9,40.8 	"/>
	<polygon class="st0" points="56,54.9 56,36.9 52,40.7 52,58.7 	"/>
</g>
</svg>
