<?xml version="1.0" encoding="utf-8"?>
<!-- Generator: Adobe Illustrator 20.1.0, SVG Export Plug-In . SVG Version: 6.00 Build 0)  -->
<svg version="1.1" id="Layer_1" xmlns="http://www.w3.org/2000/svg" xmlns:xlink="http://www.w3.org/1999/xlink" x="0px" y="0px"
	 viewBox="0 0 91.6 62.6" style="enable-background:new 0 0 91.6 62.6;" xml:space="preserve">
<style type="text/css">
	.st0{fill:#0065A2;stroke:#FFFFFF;stroke-width:0.8;}
	.st1{fill:#0065A2;stroke:#FFFFFF;stroke-width:1.6;}
	.st2{fill:#FFFFFF;}
</style>
<g>
	<g>
		<g>
			<g>
				<g>
					<rect x="2.3" y="11.6" class="st0" width="76.3" height="50.1"/>
					<polygon class="st0" points="89.6,51.8 78.6,61.7 78.6,11.6 89.6,0.9 					"/>
					<polygon class="st1" points="15.4,0.9 89.6,0.9 78.6,11.6 2.3,11.6 					"/>
				</g>
			</g>
		</g>
	</g>
	<g>
		<polygon class="st2" points="68.4,23.9 61.6,23.9 61.6,21.9 68.4,21.9 68.4,18.7 75.8,22.9 68.4,27.1 		"/>
	</g>
	<g>
		<polygon class="st2" points="68.4,49.2 61.6,49.2 61.6,47.2 68.4,47.2 68.4,44 75.8,48.2 68.4,52.4 		"/>
	</g>
	<g>
		<polygon class="st2" points="12.8,36.7 5.3,36.7 5.3,34.7 12.8,34.7 12.8,31.5 20.2,35.7 12.8,39.9 		"/>
	</g>
	<path class="st0" d="M57.1,28.6c0,3.6-7.8,6.5-17.4,6.5s-17.4-2.9-17.4-6.5v14.9c0,3.6,7.8,6.4,17.4,6.4s17.4-2.9,17.4-6.4V28.6z"
		/>
	<path class="st0" d="M39.7,35c9.6,0,17.4-2.9,17.4-6.5c0-3.6-7.8-6.4-17.4-6.4S22.3,25,22.3,28.6C22.3,32.1,30.1,35,39.7,35z"/>
</g>
</svg>
