<?xml version="1.0" encoding="utf-8"?>
<!-- Generator: Adobe Illustrator 20.1.0, SVG Export Plug-In . SVG Version: 6.00 Build 0)  -->
<svg version="1.1" id="Layer_1" xmlns="http://www.w3.org/2000/svg" xmlns:xlink="http://www.w3.org/1999/xlink" x="0px" y="0px"
	 viewBox="0 0 62.7 84" style="enable-background:new 0 0 62.7 84;" xml:space="preserve">
<style type="text/css">
	.st0{fill:#0065A2;stroke:#FFFFFF;stroke-width:0.8;}
	.st1{fill:#FFFFFF;}
	.st2{stroke:#FFFFFF;stroke-width:0.8;}
	.st3{fill:none;stroke:#FFFFFF;stroke-width:2;}
</style>
<g>
	<rect x="1.3" y="29.4" class="st0" width="53.7" height="53.6"/>
	<polygon class="st0" points="61.7,76.3 61.7,22.7 54.9,29.4 54.9,83 	"/>
	<polygon class="st0" points="11.1,1 1.3,7.7 54.9,7.7 61.7,1 	"/>
	<rect x="1.3" y="7.7" class="st0" width="53.7" height="21.7"/>
	<polygon class="st0" points="61.7,22.7 61.7,1 54.9,7.7 54.9,29.4 	"/>
	<line class="st0" x1="54.9" y1="29.4" x2="1.3" y2="29.4"/>
	<line class="st0" x1="54.9" y1="29.4" x2="61.7" y2="22.7"/>
	<rect x="10" y="10.6" class="st1" width="8.7" height="4.5"/>
	<path class="st2" d="M14.4,12.8"/>
	<rect x="38.5" y="10.6" class="st1" width="8.7" height="4.5"/>
	<path class="st2" d="M42.8,12.8"/>
	<rect x="10" y="21.8" class="st1" width="8.7" height="4.5"/>
	<path class="st2" d="M14.4,24.1"/>
	<rect x="38.5" y="21.8" class="st1" width="8.7" height="4.5"/>
	<path class="st2" d="M42.8,24.1"/>
	<line class="st2" x1="15.9" y1="12.8" x2="42.5" y2="12.8"/>
	<line class="st2" x1="15.9" y1="24.1" x2="42.5" y2="24.1"/>
	<line class="st2" x1="14.4" y1="24.1" x2="42.5" y2="12.8"/>
	<line class="st2" x1="14.4" y1="12.8" x2="42.5" y2="24.1"/>
	<polygon class="st1" points="16,41.6 16,36.9 16.7,36.9 15.6,35.2 14.4,36.9 15.2,36.9 15.2,41.6 	"/>
	<polygon class="st1" points="13.6,42.2 10.3,39 10.9,38.4 8.8,38 9.2,40 9.8,39.5 13.1,42.8 	"/>
	<polygon class="st1" points="12.4,44.4 7.7,44.4 7.7,43.6 6,44.8 7.7,45.9 7.7,45.1 12.4,45.1 	"/>
	<polygon class="st1" points="13.1,46.7 9.8,50 9.2,49.5 8.8,51.5 10.9,51.1 10.3,50.6 13.6,47.3 	"/>
	<polygon class="st1" points="15.2,47.9 15.2,52.6 14.4,52.6 15.6,54.3 16.7,52.6 16,52.6 16,47.9 	"/>
	<polygon class="st1" points="18.8,45.1 23.4,45.1 23.4,45.9 25.2,44.8 23.4,43.6 23.4,44.4 18.8,44.4 	"/>
	<polygon class="st1" points="18.1,42.8 21.4,39.5 21.9,40 22.4,38 20.3,38.4 20.9,39 17.6,42.2 	"/>
	<ellipse transform="matrix(0.8192 -0.5735 0.5735 0.8192 -22.8084 17.0629)" class="st1" cx="15.7" cy="44.7" rx="4.8" ry="4.8"/>
	<polygon class="st1" points="16,66.9 16,62.3 16.7,62.3 15.6,60.5 14.4,62.3 15.2,62.3 15.2,66.9 	"/>
	<polygon class="st1" points="13.6,67.6 10.3,64.3 10.9,63.7 8.8,63.3 9.2,65.4 9.8,64.8 13.1,68.1 	"/>
	<polygon class="st1" points="12.4,69.7 7.7,69.7 7.7,68.9 6,70.1 7.7,71.3 7.7,70.5 12.4,70.5 	"/>
	<polygon class="st1" points="13.1,72.1 9.8,75.4 9.2,74.8 8.8,76.9 10.9,76.5 10.3,75.9 13.6,72.6 	"/>
	<polygon class="st1" points="15.2,73.3 15.2,77.9 14.4,77.9 15.6,79.7 16.7,77.9 16,77.9 16,73.3 	"/>
	<polygon class="st1" points="17.6,72.6 20.9,75.9 20.3,76.5 22.4,76.9 21.9,74.8 21.4,75.4 18.1,72.1 	"/>
	<polygon class="st1" points="18.8,70.5 23.4,70.5 23.4,71.3 25.2,70.1 23.4,68.9 23.4,69.7 18.8,69.7 	"/>
	<ellipse transform="matrix(0.8192 -0.5736 0.5736 0.8192 -37.3417 21.6485)" class="st1" cx="15.7" cy="70" rx="4.8" ry="4.8"/>
	<polygon class="st1" points="41.3,41.6 41.3,36.9 42.1,36.9 40.9,35.2 39.8,36.9 40.5,36.9 40.5,41.6 	"/>
	<polygon class="st1" points="38.9,42.2 35.6,39 36.2,38.4 34.1,38 34.6,40 35.1,39.5 38.4,42.8 	"/>
	<polygon class="st1" points="37.7,44.4 33.1,44.4 33.1,43.6 31.3,44.8 33.1,45.9 33.1,45.1 37.7,45.1 	"/>
	<polygon class="st1" points="40.5,47.9 40.5,52.6 39.8,52.6 40.9,54.3 42.1,52.6 41.3,52.6 41.3,47.9 	"/>
	<polygon class="st1" points="42.9,47.3 46.2,50.6 45.6,51.1 47.7,51.5 47.3,49.5 46.7,50 43.4,46.7 	"/>
	<polygon class="st1" points="44.1,45.1 48.7,45.1 48.7,45.9 50.5,44.8 48.7,43.6 48.7,44.4 44.1,44.4 	"/>
	<polygon class="st1" points="43.4,42.8 46.7,39.5 47.3,40 47.7,38 45.6,38.4 46.2,39 42.9,42.2 	"/>
	<ellipse transform="matrix(0.8192 -0.5735 0.5735 0.8192 -18.2289 31.5909)" class="st1" cx="41" cy="44.7" rx="4.8" ry="4.8"/>
	<polygon class="st1" points="41.3,66.9 41.3,62.3 42.1,62.3 40.9,60.5 39.8,62.3 40.5,62.3 40.5,66.9 	"/>
	<polygon class="st1" points="37.7,69.7 33.1,69.7 33.1,68.9 31.3,70.1 33.1,71.3 33.1,70.5 37.7,70.5 	"/>
	<polygon class="st1" points="38.4,72.1 35.1,75.4 34.6,74.8 34.1,76.9 36.2,76.5 35.6,75.9 38.9,72.6 	"/>
	<polygon class="st1" points="40.5,73.3 40.5,77.9 39.8,77.9 40.9,79.7 42.1,77.9 41.3,77.9 41.3,73.3 	"/>
	<polygon class="st1" points="42.9,72.6 46.2,75.9 45.6,76.5 47.7,76.9 47.3,74.8 46.7,75.4 43.4,72.1 	"/>
	<polygon class="st1" points="44.1,70.5 48.7,70.5 48.7,71.3 50.5,70.1 48.7,68.9 48.7,69.7 44.1,69.7 	"/>
	<polygon class="st1" points="43.4,68.1 46.7,64.8 47.3,65.4 47.7,63.3 45.6,63.7 46.2,64.3 42.9,67.6 	"/>
	<ellipse transform="matrix(0.8192 -0.5736 0.5736 0.8192 -32.7604 36.1791)" class="st1" cx="41" cy="70" rx="4.8" ry="4.8"/>
	<line class="st3" x1="18.1" y1="47.3" x2="38.7" y2="68"/>
	<line class="st3" x1="17.7" y1="68" x2="39" y2="46.6"/>
</g>
</svg>
