<?xml version="1.0" encoding="UTF-8" standalone="no"?>
<svg
   xmlns:dc="http://purl.org/dc/elements/1.1/"
   xmlns:cc="http://creativecommons.org/ns#"
   xmlns:rdf="http://www.w3.org/1999/02/22-rdf-syntax-ns#"
   xmlns:svg="http://www.w3.org/2000/svg"
   xmlns="http://www.w3.org/2000/svg"
   version="1.1"
   id="svg2"
   xml:space="preserve"
   width="49.546665"
   height="34"
   viewBox="0 0 49.546665 34"><metadata
     id="metadata8"><rdf:RDF><cc:Work
         rdf:about=""><dc:format>image/svg+xml</dc:format><dc:type
           rdf:resource="http://purl.org/dc/dcmitype/StillImage" /></cc:Work></rdf:RDF></metadata><defs
     id="defs6"><clipPath
       clipPathUnits="userSpaceOnUse"
       id="clipPath20"><path
         d="m 0,4.97266 h 370 v 250 H 0 Z"
         id="path18" /></clipPath></defs><g
     id="g903"><path
       id="path22"
       style="fill:#0065A2;fill-opacity:1;fill-rule:nonzero;stroke:none;stroke-width:0.13333333"
       d="m 49.313999,9.8057339 c 0,5.2672001 -10.979067,9.5364001 -24.523333,9.5364001 -13.544306,0 -24.52399934,-4.2692 -24.52399934,-9.5364001 V 23.77448 c 0,5.267187 10.97969334,9.53802 24.52399934,9.53802 13.544266,0 24.523333,-4.270833 24.523333,-9.53802 V 9.8057339" /><path
       id="path24"
       style="fill:none;stroke:#FFFFFF;stroke-width:0.5333333;stroke-linecap:butt;stroke-linejoin:miter;stroke-miterlimit:4;stroke-dasharray:none;stroke-opacity:1"
       d="m 49.313999,9.8057339 c 0,5.2672001 -10.979067,9.5364001 -24.523333,9.5364001 -13.544306,0 -24.52399934,-4.2692 -24.52399934,-9.5364001 V 23.77448 c 0,5.267187 10.97969334,9.53802 24.52399934,9.53802 13.544266,0 24.523333,-4.270833 24.523333,-9.53802 z" /><path
       id="path26"
       style="fill:#0065A2;fill-opacity:1;fill-rule:nonzero;stroke:none;stroke-width:0.13333333"
       d="m 24.790666,19.342134 c 13.544266,0 24.523333,-4.2692 24.523333,-9.5364001 0,-5.2666665 -10.979067,-9.53639972 -24.523333,-9.53639972 -13.544306,0 -24.52399934,4.26973322 -24.52399934,9.53639972 0,5.2672001 10.97969334,9.5364001 24.52399934,9.5364001" /><path
       id="path28"
       style="fill:none;stroke:#FFFFFF;stroke-width:0.5333333;stroke-linecap:butt;stroke-linejoin:miter;stroke-miterlimit:4;stroke-dasharray:none;stroke-opacity:1"
       d="m 24.790666,19.342134 c 13.544266,0 24.523333,-4.2692 24.523333,-9.5364001 0,-5.2666665 -10.979067,-9.53639972 -24.523333,-9.53639972 -13.544306,0 -24.52399934,4.26973322 -24.52399934,9.53639972 0,5.2672001 10.97969334,9.5364001 24.52399934,9.5364001 z" /><path
       id="path30"
       style="fill:#FFFFFF;fill-opacity:1;fill-rule:nonzero;stroke:none;stroke-width:0.13333333"
       d="m 19.190133,6.076534 2.0244,3.038 L 13.5584,10.883867 15.231733,9.4906673 3.3984399,7.4688007 6.3671865,5.2432007 17.785466,7.1770673 19.190133,6.076534" /><path
       id="path32"
       style="fill:#FFFFFF;fill-opacity:1;fill-rule:nonzero;stroke:none;stroke-width:0.13333333"
       d="m 29.963599,13.442667 -1.381866,-3.130133 6.906266,-1.3818667 -1.197333,1.0745337 11.5104,1.964533 -2.762,2.21 -11.441733,-2.148533 -1.633734,1.411466" /><path
       id="path34"
       style="fill:#FFFFFF;fill-opacity:1;fill-rule:nonzero;stroke:none;stroke-width:0.13333333"
       d="m 26.187466,4.4193341 7.736,-2.1188 0.09053,3.3150666 -1.933333,-0.3682666 -3.7744,3.1313332 -3.6032,-0.5245333 3.897467,-3.0639999 -2.413067,-0.3708" /><path
       id="path36"
       style="fill:#FFFFFF;fill-opacity:1;fill-rule:nonzero;stroke:none;stroke-width:0.13333333"
       d="m 22.872399,16.297867 -7.365599,1.3808 -0.276134,-3.4068 2.116667,0.459867 4.055333,-3.4624 3.588533,0.608267 -4.328133,3.774533 2.209333,0.645733" /><g
       transform="matrix(1.3333333,0,0,-1.3333333,0,34)"
       id="g42"><text
   id="text46"
   style="font-variant:normal;font-weight:bold;font-size:10px;font-family:'Arial-BoldMT';fill:#FFFFFF;fill-opacity:1;"
   transform="matrix(1,0,0,-1,15.4641,2.28047)"><tspan
     id="tspan44"
     y="0"
     x="0">V</tspan></text>


</g></g></svg>
