<?xml version="1.0" encoding="utf-8"?>
<!-- Generator: Adobe Illustrator 20.1.0, SVG Export Plug-In . SVG Version: 6.00 Build 0)  -->
<svg version="1.1" id="Layer_1" xmlns="http://www.w3.org/2000/svg" xmlns:xlink="http://www.w3.org/1999/xlink" x="0px" y="0px"
	 viewBox="0 0 60.6 62.9" style="enable-background:new 0 0 60.6 62.9;" xml:space="preserve">
<style type="text/css">
	.st0{fill:#0065A2;stroke:#FFFFFF;stroke-width:0.8;}
	.st1{fill:#FFFFFF;}
</style>
<g>
	<g>
		<polygon class="st0" points="8.4,50.5 9.1,41.5 52.9,41.5 52.2,50.5 		"/>
		<polygon class="st0" points="51.2,62 51.2,59.4 56.9,51.4 56.9,56.3 		"/>
		<rect x="0.8" y="59.4" class="st0" width="50.4" height="2.6"/>
		<rect x="8.6" y="8.4" class="st0" width="43.5" height="32.9"/>
		<polygon class="st0" points="52.2,41.3 59.6,33.9 59.6,1 52.2,8.4 		"/>
		<polygon class="st0" points="51.2,59.4 0.8,59.4 6.6,51.4 56.9,51.4 		"/>
		<polygon class="st0" points="52.4,51.5 52.4,41.2 59.8,33.8 59.8,44.1 		"/>
		<path class="st1" d="M15.7,12.2h29.2c1.9,0,3.4,1.5,3.4,3.4v18.4c0,1.9-1.5,3.4-3.4,3.4H15.7c-1.9,0-3.4-1.5-3.4-3.4V15.6
			C12.3,13.8,13.8,12.2,15.7,12.2z"/>
		<polygon class="st0" points="59.6,1 17.1,1 8.6,8.4 52.2,8.4 		"/>
	</g>
	<g>
		<path class="st0" d="M25.2,18.1c-5.3-1.1-8.2,1.7-7.7,4l0,0.1c-4.2,0.7-3.1,5.6-1.1,5.6l0.2,0c-0.5,3.4,4.5,5.4,7.1,3.5l0.2-0.2
			c0.8,3.2,11.5,3.5,13.7,1.1l0.2,0.1c4.7,0.4,6.9-2.9,5.8-5.2l0.3-0.1c1.6-0.4,1.8-4.1-1-4.7l0.1-0.1c1.2-2.4-1.6-4.7-5.5-4.3
			l-0.3-0.1c-2.8-2.5-10.9-2.1-11.8,0.4L25.2,18.1z"/>
	</g>
</g>
</svg>
