<?xml version="1.0" encoding="utf-8"?>
<!-- Generator: Adobe Illustrator 20.1.0, SVG Export Plug-In . SVG Version: 6.00 Build 0)  -->
<svg version="1.1" id="Layer_1" xmlns="http://www.w3.org/2000/svg" xmlns:xlink="http://www.w3.org/1999/xlink" x="0px" y="0px"
	 viewBox="0 0 78.5 91.7" style="enable-background:new 0 0 78.5 91.7;" xml:space="preserve">
<style type="text/css">
	.st0{fill:#0065A2;stroke:#FFFFFF;stroke-width:0.8;}
	.st1{fill:#0065A2;}
	.st2{fill:none;stroke:#FFFFFF;stroke-width:0.8;}
	.st3{fill:none;stroke:#FFFFFF;stroke-width:0.9;stroke-linecap:round;stroke-miterlimit:1;}
	.st4{fill:none;stroke:#FFFFFF;stroke-width:1.8;stroke-linecap:round;stroke-miterlimit:1;}
	.st5{fill:none;stroke:#0065A2;stroke-width:0.9;stroke-linecap:round;stroke-miterlimit:1;}
	.st6{fill:none;stroke:#0065A2;stroke-width:1.8;stroke-linecap:round;stroke-miterlimit:1;}
	.st7{fill:#FFFFFF;}
</style>
<g>
	<polygon class="st0" points="1.2,36.5 16.6,25.1 77.5,20.5 61.6,36.5 	"/>
	<polygon class="st0" points="61.6,90.7 77.5,74.7 77.5,20.5 61.6,36.5 	"/>
	<rect x="1.3" y="36.5" class="st0" width="60.3" height="54.3"/>
	<polygon class="st0" points="1.2,17 21.3,0.9 77.5,0.9 61.6,17 	"/>
	<polygon class="st0" points="61.6,36.5 77.5,20.5 77.5,1 61.6,17 	"/>
	<rect x="1.3" y="17" class="st0" width="60.3" height="19.6"/>
	<g>
		<g>
			<g>
				<path class="st1" d="M68.5,29"/>
			</g>
		</g>
		<g>
			<g>
				<path class="st2" d="M68.5,29"/>
			</g>
		</g>
	</g>
	<path class="st3" d="M56.8,26.9c0,0-3.9,10.1-8.6,0c-4.7-10.1-8.6,0-8.6,0s-3.9,10.1-8.6,0c-4.7-10.1-8.6,0.1-8.6,0.1
		s-3.9,10.1-8.6,0c-4.7-10.1-8.6,0-8.6,0"/>
	<path class="st4" d="M5.2,26.9c0,0,3.9,10.1,8.6,0c4.7-10.1,8.6,0,8.6,0s3.9,10.1,8.6,0c4.7-10.1,8.6,0.1,8.6,0.1s3.9,10.1,8.6,0
		c4.7-10.1,8.6,0,8.6,0"/>
	<path class="st5" d="M57.7,26.9c0,0-3.9,10.1-8.6,0c-4.7-10.1-8.6,0-8.6,0s-3.9,10.1-8.6,0c-4.7-10.1-8.6,0.1-8.6,0.1
		s-3.9,10.1-8.6,0c-4.7-10.1-8.6,0-8.6,0"/>
	<path class="st6" d="M6.1,26.9c0,0,3.9,10.1,8.6,0c4.7-10.1,8.6,0,8.6,0s3.9,10.1,8.6,0c4.7-10.1,8.6,0.1,8.6,0.1s3.9,10.1,8.6,0
		c4.7-10.1,8.6,0,8.6,0"/>
	<path class="st3" d="M56.8,26.9c0,0-3.9,10.1-8.6,0c-4.7-10.1-8.6,0-8.6,0s-3.9,10.1-8.6,0c-4.7-10.1-8.6,0.1-8.6,0.1
		s-3.9,10.1-8.6,0c-4.7-10.1-8.6,0-8.6,0"/>
	<path class="st4" d="M5.2,26.9c0,0,3.9,10.1,8.6,0c4.7-10.1,8.6,0,8.6,0s3.9,10.1,8.6,0c4.7-10.1,8.6,0.1,8.6,0.1s3.9,10.1,8.6,0
		c4.7-10.1,8.6,0,8.6,0"/>
	<path class="st5" d="M57.7,26.9c0,0-3.9,10.1-8.6,0c-4.7-10.1-8.6,0-8.6,0s-3.9,10.1-8.6,0c-4.7-10.1-8.6,0.1-8.6,0.1
		s-3.9,10.1-8.6,0c-4.7-10.1-8.6,0-8.6,0"/>
	<path class="st6" d="M6.1,26.9c0,0,3.9,10.1,8.6,0c4.7-10.1,8.6,0,8.6,0s3.9,10.1,8.6,0c4.7-10.1,8.6,0.1,8.6,0.1s3.9,10.1,8.6,0
		c4.7-10.1,8.6,0,8.6,0"/>
	<path class="st3" d="M56.8,26.9c0,0-3.9,10.1-8.6,0c-4.7-10.1-8.6,0-8.6,0s-3.9,10.1-8.6,0c-4.7-10.1-8.6,0.1-8.6,0.1
		s-3.9,10.1-8.6,0c-4.7-10.1-8.6,0-8.6,0"/>
	<path class="st4" d="M5.2,26.9c0,0,3.9,10.1,8.6,0c4.7-10.1,8.6,0,8.6,0s3.9,10.1,8.6,0c4.7-10.1,8.6,0.1,8.6,0.1s3.9,10.1,8.6,0
		c4.7-10.1,8.6,0,8.6,0"/>
	<polygon class="st7" points="33.2,55.9 33.2,44.3 35.1,44.3 32.3,40 29.4,44.3 31.3,44.3 31.3,55.9 	"/>
	<polygon class="st7" points="27.3,57.5 19.1,49.4 20.5,48 15.4,46.9 16.4,52.1 17.8,50.7 26,58.8 	"/>
	<polygon class="st7" points="24.3,62.9 12.8,62.9 12.8,60.9 8.4,63.8 12.8,66.7 12.8,64.7 24.3,64.7 	"/>
	<polygon class="st7" points="26,68.8 17.8,76.9 16.4,75.5 15.4,80.7 20.5,79.6 19.1,78.2 27.3,70.1 	"/>
	<polygon class="st7" points="31.3,71.7 31.3,83.3 29.4,83.3 32.3,87.6 35.1,83.3 33.2,83.3 33.2,71.7 	"/>
	<polygon class="st7" points="37.2,70.1 45.4,78.2 44,79.6 49.1,80.7 48.1,75.5 46.7,76.9 38.5,68.8 	"/>
	<polygon class="st7" points="40.2,64.7 51.7,64.7 51.7,66.7 56.1,63.8 51.7,60.9 51.7,62.9 40.2,62.9 	"/>
	<polygon class="st7" points="38.5,58.8 46.7,50.7 48.1,52.1 49.1,46.9 44,48 45.4,49.4 37.2,57.5 	"/>
	<ellipse transform="matrix(0.8191 -0.5736 0.5736 0.8191 -30.68 30.1249)" class="st7" cx="32.4" cy="63.7" rx="12" ry="12"/>
	<polygon class="st7" points="23.5,10.4 29.9,9.8 28.7,11.6 27,11.3 20,14 18.3,13.6 25,11 23.5,10.4 	"/>
	<polygon class="st7" points="50.7,10.5 45.1,9.6 45.7,11.6 47.2,11.4 52.2,13.7 53.9,13.2 49,11.1 50.7,10.5 	"/>
	<polygon class="st7" points="41,4.7 38.3,4.5 47.3,2.5 51.2,5.3 48.3,5.1 47.7,5.1 42.9,8.1 36.2,8.1 41.4,4.7 41,4.7 	"/>
	<polygon class="st7" points="35.4,12.1 33.5,12.1 38.5,9.3 38.9,12.1 36.8,12.1 37.1,12.1 34.6,14.5 32.7,14.5 35.3,12.1
		35.4,12.1 	"/>
</g>
</svg>
