<?xml version="1.0" encoding="UTF-8" standalone="no"?>
<svg
   xmlns:dc="http://purl.org/dc/elements/1.1/"
   xmlns:cc="http://creativecommons.org/ns#"
   xmlns:rdf="http://www.w3.org/1999/02/22-rdf-syntax-ns#"
   xmlns:svg="http://www.w3.org/2000/svg"
   xmlns="http://www.w3.org/2000/svg"
   version="1.1"
   id="svg2"
   xml:space="preserve"
   width="47.880001"
   height="40.426666"
   viewBox="0 0 47.880001 40.426666"><metadata
     id="metadata8"><rdf:RDF><cc:Work
         rdf:about=""><dc:format>image/svg+xml</dc:format><dc:type
           rdf:resource="http://purl.org/dc/dcmitype/StillImage" /></cc:Work></rdf:RDF></metadata><defs
     id="defs6"><clipPath
       clipPathUnits="userSpaceOnUse"
       id="clipPath20"><path
         d="M 0,3 V 303 H 359 V 3 Z"
         id="path18" /></clipPath></defs><g
     id="g10"
     transform="matrix(1.3333333,0,0,-1.3333333,0,40.426667)"><g
       id="g12"
       transform="scale(0.1)"><g
         id="g4706"><path
           id="path22"
           style="fill:none;stroke:#0065A2;stroke-width:3.99993992;stroke-linecap:round;stroke-linejoin:round;stroke-miterlimit:4;stroke-dasharray:none;stroke-opacity:1"
           d="m 326.262,47.8906 c 4.058,4.8828 -18.164,11.5235 6.851,15.625 15.996,2.6367 64.399,31.0821 -49.121,32.5703" /><path
           id="path24"
           style="fill:#0065A2;fill-opacity:1;fill-rule:nonzero;stroke:none"
           d="m 66.5586,56.2109 h 183.508 V 83.9257 H 66.5586 Z" /><path
           id="path26"
           style="fill:none;stroke:#FFFFFF;stroke-width:3.99993992;stroke-linecap:butt;stroke-linejoin:miter;stroke-miterlimit:4;stroke-dasharray:none;stroke-opacity:1"
           d="M 66.5586,56.2109 V 83.9258 H 250.066 V 56.2109 Z" /><path
           id="path28"
           style="fill:#0065A2;fill-opacity:1;fill-rule:nonzero;stroke:none"
           d="m 249.895,56.1133 v 27.8125 l 37.007,37.6952 V 93.125 L 249.895,56.1133" /><path
           id="path30"
           style="fill:none;stroke:#FFFFFF;stroke-width:3.99993992;stroke-linecap:butt;stroke-linejoin:miter;stroke-miterlimit:4;stroke-dasharray:none;stroke-opacity:1"
           d="m 249.895,56.1133 v 27.8125 l 37.007,37.6952 V 93.125 Z" /><path
           id="path32"
           style="fill:#0065A2;fill-opacity:1;fill-rule:nonzero;stroke:none"
           d="m 66.5586,51.2109 h 183.508 V 83.9257 H 66.5586 Z" /><path
           id="path34"
           style="fill:none;stroke:#FFFFFF;stroke-width:3.99993992;stroke-linecap:butt;stroke-linejoin:miter;stroke-miterlimit:4;stroke-dasharray:none;stroke-opacity:1"
           d="M 66.5586,51.2109 V 83.9258 H 250.066 V 51.2109 Z" /><path
           id="path36"
           style="fill:#0065A2;fill-opacity:1;fill-rule:nonzero;stroke:none"
           d="m 249.895,51.1133 v 32.8125 l 37.007,37.6952 V 88.125 L 249.895,51.1133" /><path
           id="path38"
           style="fill:none;stroke:#FFFFFF;stroke-width:3.99993992;stroke-linecap:butt;stroke-linejoin:miter;stroke-miterlimit:4;stroke-dasharray:none;stroke-opacity:1"
           d="m 249.895,51.1133 v 32.8125 l 37.007,37.6952 V 88.125 Z" /><path
           id="path40"
           style="fill:#0065A2;fill-opacity:1;fill-rule:nonzero;stroke:none"
           d="M 299.758,126.621 273.816,88.9258 H 45.4453 L 82.2031,126.621 H 299.758" /><path
           id="path42"
           style="fill:none;stroke:#FFFFFF;stroke-width:3.99993992;stroke-linecap:butt;stroke-linejoin:miter;stroke-miterlimit:4;stroke-dasharray:none;stroke-opacity:1"
           d="M 299.758,126.621 273.816,88.9258 H 45.4453 l 36.7578,37.6952 z" /><path
           id="path44"
           style="fill:#0065A2;fill-opacity:1;fill-rule:nonzero;stroke:none"
           d="m 44.8984,76.2109 h 218.508 V 88.9257 H 44.8984 Z" /><path
           id="path46"
           style="fill:none;stroke:#FFFFFF;stroke-width:3.99993992;stroke-linecap:butt;stroke-linejoin:miter;stroke-miterlimit:4;stroke-dasharray:none;stroke-opacity:1"
           d="M 44.8984,76.2109 V 88.9258 H 263.406 V 76.2109 Z" /><path
           id="path48"
           style="fill:#0065A2;fill-opacity:1;fill-rule:nonzero;stroke:none"
           d="m 263.215,76.1133 v 12.8125 l 37.027,37.6952 V 113.125 L 263.215,76.1133" /><path
           id="path50"
           style="fill:none;stroke:#FFFFFF;stroke-width:3.99993992;stroke-linecap:butt;stroke-linejoin:miter;stroke-miterlimit:4;stroke-dasharray:none;stroke-opacity:1"
           d="m 263.215,76.1133 v 12.8125 l 37.027,37.6952 v -13.496 z" /><path
           id="path52"
           style="fill:#0065A2;fill-opacity:1;fill-rule:nonzero;stroke:none"
           d="M 299.758,126.621 273.816,88.9258 H 45.4453 L 82.2031,126.621 H 299.758" /><path
           id="path54"
           style="fill:none;stroke:#FFFFFF;stroke-width:3.99993992;stroke-linecap:butt;stroke-linejoin:miter;stroke-miterlimit:4;stroke-dasharray:none;stroke-opacity:1"
           d="M 299.758,126.621 273.816,88.9258 H 45.4453 l 36.7578,37.6952 z" /><path
           id="path56"
           style="fill:#0065A2;fill-opacity:1;fill-rule:nonzero;stroke:none"
           d="m 44.8984,76.2109 h 218.508 V 88.9257 H 44.8984 Z" /><path
           id="path58"
           style="fill:none;stroke:#FFFFFF;stroke-width:3.99993992;stroke-linecap:butt;stroke-linejoin:miter;stroke-miterlimit:4;stroke-dasharray:none;stroke-opacity:1"
           d="M 44.8984,76.2109 V 88.9258 H 263.406 V 76.2109 Z" /><path
           id="path60"
           style="fill:#0065A2;fill-opacity:1;fill-rule:nonzero;stroke:none"
           d="m 263.215,76.1133 v 12.8125 l 37.027,37.6952 V 113.125 L 263.215,76.1133" /><path
           id="path62"
           style="fill:none;stroke:#FFFFFF;stroke-width:3.99993992;stroke-linecap:butt;stroke-linejoin:miter;stroke-miterlimit:4;stroke-dasharray:none;stroke-opacity:1"
           d="m 263.215,76.1133 v 12.8125 l 37.027,37.6952 v -13.496 z" /><path
           id="path64"
           style="fill:#0065A2;fill-opacity:1;fill-rule:nonzero;stroke:none"
           d="M 300.945,299.922 H 103.609 L 45.8555,286.336 H 274.441 l 26.504,13.586" /><path
           id="path66"
           style="fill:none;stroke:#FFFFFF;stroke-width:3.99993992;stroke-linecap:butt;stroke-linejoin:miter;stroke-miterlimit:4;stroke-dasharray:none;stroke-opacity:1"
           d="M 300.945,299.922 H 103.609 L 45.8555,286.336 H 274.441 Z" /><path
           id="path68"
           style="fill:#0065A2;fill-opacity:1;fill-rule:nonzero;stroke:none"
           d="m 264.563,104.922 -10.098,8.34 H 69.0586 l 9.7852,-8.34 H 264.563" /><path
           id="path70"
           style="fill:none;stroke:#FFFFFF;stroke-width:3.99993992;stroke-linecap:butt;stroke-linejoin:miter;stroke-miterlimit:4;stroke-dasharray:none;stroke-opacity:1"
           d="m 264.563,104.922 -10.098,8.34 H 69.0586 l 9.7852,-8.34 z" /><path
           id="path72"
           style="fill:#0065A2;fill-opacity:1;fill-rule:nonzero;stroke:none"
           d="m 265.691,106.379 -12.769,8.543 47.266,25 -30.43,-30.098 -4.067,-3.445" /><path
           id="path74"
           style="fill:none;stroke:#FFFFFF;stroke-width:3.99993992;stroke-linecap:butt;stroke-linejoin:miter;stroke-miterlimit:4;stroke-dasharray:none;stroke-opacity:1"
           d="m 265.691,106.379 -12.769,8.543 47.266,25 -30.43,-30.098 z" /><path
           id="path76"
           style="fill:#0065A2;fill-opacity:1;fill-rule:nonzero;stroke:none"
           d="M 274.441,286.336 V 115.867 l 26.504,24.629 v 159.426 l -26.504,-13.586" /><path
           id="path78"
           style="fill:none;stroke:#FFFFFF;stroke-width:3.99993992;stroke-linecap:butt;stroke-linejoin:miter;stroke-miterlimit:4;stroke-dasharray:none;stroke-opacity:1"
           d="M 274.441,286.336 V 115.867 l 26.504,24.629 v 159.426 z" /><path
           id="path80"
           style="fill:#0065A2;fill-opacity:1;fill-rule:nonzero;stroke:none"
           d="m 45.8555,113.992 h 228.586 V 286.336 H 45.8555 Z" /><path
           id="path82"
           style="fill:none;stroke:#FFFFFF;stroke-width:3.99993992;stroke-linecap:butt;stroke-linejoin:miter;stroke-miterlimit:4;stroke-dasharray:none;stroke-opacity:1"
           d="M 274.441,113.992 V 286.336 H 45.8555 V 113.992 Z" /><path
           id="path84"
           style="fill:#0065A2;fill-opacity:1;fill-rule:nonzero;stroke:none"
           d="M 255.227,6.48438 V 19.7461 L 283.84,59.3047 V 35.0898 L 255.227,6.48438" /><path
           id="path86"
           style="fill:none;stroke:#FFFFFF;stroke-width:3.99993992;stroke-linecap:butt;stroke-linejoin:miter;stroke-miterlimit:4;stroke-dasharray:none;stroke-opacity:1"
           d="M 255.227,6.48438 V 19.7461 L 283.84,59.3047 V 35.0898 Z" /><path
           id="path88"
           style="fill:#0065A2;fill-opacity:1;fill-rule:nonzero;stroke:none"
           d="m 3.10156,6.48438 h 252.125 v 13.0664 H 3.10156 Z" /><path
           id="path90"
           style="fill:none;stroke:#FFFFFF;stroke-width:3.99993992;stroke-linecap:butt;stroke-linejoin:miter;stroke-miterlimit:4;stroke-dasharray:none;stroke-opacity:1"
           d="M 255.227,19.5508 V 6.48438 H 3.10156 V 19.5508 Z" /><path
           id="path92"
           style="fill:#0065A2;fill-opacity:1;fill-rule:nonzero;stroke:none"
           d="M 326.926,16.9414 343.66,50.3906 H 305.438 L 288.723,16.9414 h 38.203" /><path
           id="path94"
           style="fill:none;stroke:#FFFFFF;stroke-width:3.99993992;stroke-linecap:butt;stroke-linejoin:miter;stroke-miterlimit:4;stroke-dasharray:none;stroke-opacity:1"
           d="M 326.926,16.9414 343.66,50.3906 H 305.438 L 288.723,16.9414 Z" /><path
           id="path96"
           style="fill:#0065A2;fill-opacity:1;fill-rule:nonzero;stroke:none"
           d="m 288.723,6.19141 h 38.2031 v 10.75 H 288.723 Z" /><path
           id="path98"
           style="fill:none;stroke:#FFFFFF;stroke-width:3.99993992;stroke-linecap:butt;stroke-linejoin:miter;stroke-miterlimit:4;stroke-dasharray:none;stroke-opacity:1"
           d="m 288.723,16.9414 h 38.203 V 6.19141 h -38.203 z" /><path
           id="path100"
           style="fill:#0065A2;fill-opacity:1;fill-rule:nonzero;stroke:none"
           d="M 326.633,5.89844 326.73,16.9414 343.445,50.3906 343.352,27.4023 326.633,5.89844" /><path
           id="path102"
           style="fill:none;stroke:#FFFFFF;stroke-width:3.99993992;stroke-linecap:butt;stroke-linejoin:miter;stroke-miterlimit:4;stroke-dasharray:none;stroke-opacity:1"
           d="m 326.633,5.89844 0.097,11.04296 16.715,33.4492 -0.093,-22.9883 z" /><path
           id="path104"
           style="fill:#0065A2;fill-opacity:1;fill-rule:nonzero;stroke:none"
           d="M 255.227,19.5508 H 3.90234 L 32.5039,59.3047 H 283.84 L 255.227,19.5508" /><path
           id="path106"
           style="fill:none;stroke:#FFFFFF;stroke-width:3.99993992;stroke-linecap:butt;stroke-linejoin:miter;stroke-miterlimit:4;stroke-dasharray:none;stroke-opacity:1"
           d="M 255.227,19.5508 H 3.90234 L 32.5039,59.3047 H 283.84 Z" /><path
           id="path108"
           style="fill:#0065A2;fill-opacity:1;fill-rule:nonzero;stroke:none"
           d="M 79.0586,268.34 H 239.602 c 10.449,0 18.906,-8.469 18.906,-18.918 V 148.008 c 0,-10.449 -8.457,-18.926 -18.906,-18.926 H 79.0586 c -10.4492,0 -18.918,8.477 -18.918,18.926 v 101.414 c 0,10.449 8.4688,18.918 18.918,18.918" /><path
           id="path110"
           style="fill:none;stroke:#FFFFFF;stroke-width:3.99993992;stroke-linecap:butt;stroke-linejoin:miter;stroke-miterlimit:4;stroke-dasharray:none;stroke-opacity:1"
           d="M 79.0586,268.34 H 239.602 c 10.449,0 18.906,-8.469 18.906,-18.918 V 148.008 c 0,-10.449 -8.457,-18.926 -18.906,-18.926 H 79.0586 c -10.4492,0 -18.918,8.477 -18.918,18.926 v 101.414 c 0,10.449 8.4688,18.918 18.918,18.918 z" /></g></g></g></svg>