<?xml version="1.0"  encoding="UTF-8" standalone="no"?>
<svg version="1.1" xmlns="http://www.w3.org/2000/svg" xmlns:xlink="http://www.w3.org/1999/xlink" width="594.0000" height="712.0000">
<g transform="translate(9.0000, 74.0000)">
<path d="M 498.0000,13.0000 C 442.0000,-43.0000 367.0000,-74.0000 288.0000,-74.0000 C 208.0000,-74.0000 134.0000,-43.0000 78.0000,13.0000 C 22.0000,69.0000 -9.0000,143.0000 -9.0000,223.0000 C -9.0000,302.0000 22.0000,377.0000 78.0000,433.0000 C 134.0000,489.0000 208.0000,520.0000 288.0000,520.0000 C 367.0000,520.0000 442.0000,489.0000 498.0000,433.0000 C 554.0000,377.0000 585.0000,302.0000 585.0000,223.0000 C 585.0000,143.0000 554.0000,69.0000 498.0000,13.0000 Z M 288.0000,495.0000 C 138.0000,495.0000 15.0000,373.0000 15.0000,223.0000 C 15.0000,73.0000 138.0000,-50.0000 288.0000,-50.0000 C 438.0000,-50.0000 560.0000,73.0000 560.0000,223.0000 C 560.0000,373.0000 438.0000,495.0000 288.0000,495.0000 Z "  fill="#FFAA00" stroke="none" />
<path d="M 211.0000,625.0000 C 204.0000,625.0000 200.0000,620.0000 200.0000,593.0000 C 200.0000,567.0000 202.0000,558.0000 211.0000,558.0000 C 219.0000,558.0000 222.0000,564.0000 222.0000,577.0000 C 240.0000,577.0000 240.0000,577.0000 240.0000,577.0000 C 240.0000,564.0000 238.0000,545.0000 212.0000,545.0000 C 185.0000,545.0000 182.0000,564.0000 182.0000,591.0000 C 182.0000,619.0000 185.0000,638.0000 212.0000,638.0000 C 236.0000,638.0000 241.0000,621.0000 241.0000,602.0000 C 223.0000,602.0000 223.0000,602.0000 223.0000,602.0000 C 223.0000,621.0000 218.0000,625.0000 211.0000,625.0000 Z "  fill="#FFAA00" stroke="none" />
<path d="M 251.0000,636.0000 L 269.0000,636.0000 L 269.0000,597.0000 L 299.0000,597.0000 L 299.0000,583.0000 L 269.0000,583.0000 L 269.0000,561.0000 L 301.0000,561.0000 L 301.0000,547.0000 L 251.0000,547.0000 L 251.0000,636.0000 Z "  fill="#FFAA00" stroke-width="1px" stroke="#FFFFFF" />
<path d="M 370.0000,613.0000 L 370.0000,613.0000 L 359.0000,547.0000 L 342.0000,547.0000 L 331.0000,613.0000 L 331.0000,613.0000 L 321.0000,547.0000 L 304.0000,547.0000 L 320.0000,636.0000 L 340.0000,636.0000 L 350.0000,571.0000 L 351.0000,571.0000 L 361.0000,636.0000 L 381.0000,636.0000 L 397.0000,547.0000 L 380.0000,547.0000 L 370.0000,613.0000 Z "  fill="#FFAA00" stroke-width="1px" stroke="#FFFFFF" />
<path d="M 277.0000,68.0000 L 107.0000,68.0000 L 107.0000,162.0000 L 277.0000,162.0000 L 277.0000,68.0000 Z "  fill="#FFAA00" stroke-width="1px" stroke="#FFFFFF" />
<path d="M 170.0000,180.0000 L 107.0000,180.0000 L 107.0000,274.0000 L 170.0000,274.0000 L 170.0000,180.0000 Z "  fill="#FFAA00" stroke-width="1px" stroke="#FFFFFF" />
<path d="M 229.0000,330.0000 C 229.0000,316.0000 235.0000,302.0000 246.0000,292.0000 C 107.0000,292.0000 107.0000,292.0000 107.0000,292.0000 C 107.0000,385.0000 107.0000,385.0000 107.0000,385.0000 C 272.0000,385.0000 272.0000,385.0000 272.0000,385.0000 C 262.0000,381.0000 253.0000,376.0000 248.0000,371.0000 C 236.0000,360.0000 229.0000,346.0000 229.0000,330.0000 Z "  fill="#FFAA00" stroke="none" />
<path d="M 192.0000,274.0000 C 274.0000,274.0000 274.0000,274.0000 274.0000,274.0000 C 281.0000,255.0000 301.0000,241.0000 323.0000,241.0000 C 327.0000,241.0000 332.0000,241.0000 336.0000,242.0000 C 351.0000,224.0000 374.0000,213.0000 400.0000,213.0000 C 431.0000,213.0000 457.0000,229.0000 470.0000,252.0000 C 470.0000,180.0000 470.0000,180.0000 470.0000,180.0000 C 192.0000,180.0000 192.0000,180.0000 192.0000,180.0000 Z "  fill="#FFAA00" stroke="none" />
<path d="M 470.0000,68.0000 L 300.0000,68.0000 L 300.0000,162.0000 L 470.0000,162.0000 L 470.0000,68.0000 Z "  fill="#FFAA00" stroke-width="1px" stroke="#FFFFFF" />
<path d="M 470.0000,288.0000 C 465.0000,287.0000 465.0000,287.0000 465.0000,287.0000 C 465.0000,282.0000 465.0000,282.0000 465.0000,282.0000 C 465.0000,251.0000 435.0000,227.0000 400.0000,227.0000 C 377.0000,227.0000 356.0000,237.0000 344.0000,254.0000 C 341.0000,258.0000 341.0000,258.0000 341.0000,258.0000 C 336.0000,257.0000 336.0000,257.0000 336.0000,257.0000 C 332.0000,255.0000 327.0000,254.0000 323.0000,254.0000 C 304.0000,254.0000 289.0000,267.0000 286.0000,283.0000 C 285.0000,288.0000 285.0000,288.0000 285.0000,288.0000 C 281.0000,289.0000 281.0000,289.0000 281.0000,289.0000 C 258.0000,293.0000 242.0000,310.0000 242.0000,330.0000 C 242.0000,342.0000 248.0000,353.0000 257.0000,361.0000 C 257.0000,361.0000 257.0000,361.0000 257.0000,361.0000 C 273.0000,376.0000 319.0000,386.0000 372.0000,386.0000 C 411.0000,386.0000 448.0000,381.0000 470.0000,372.0000 C 471.0000,371.0000 471.0000,371.0000 471.0000,371.0000 C 489.0000,365.0000 502.0000,348.0000 502.0000,330.0000 C 502.0000,311.0000 489.0000,294.0000 470.0000,288.0000 Z "  fill="#FFAA00" stroke="none" />
</g>
</svg>
