<?xml version="1.0"  encoding="UTF-8" standalone="no"?>
<svg version="1.1" xmlns="http://www.w3.org/2000/svg" xmlns:xlink="http://www.w3.org/1999/xlink" width="464.0000" height="366.0000">
<g transform="translate(-51.0000, -103.0000)">
<path d="M 236.0000,211.0000 C 246.0000,211.0000 246.0000,211.0000 246.0000,211.0000 C 246.0000,103.0000 246.0000,103.0000 246.0000,103.0000 C 51.0000,103.0000 51.0000,103.0000 51.0000,103.0000 C 51.0000,211.0000 51.0000,211.0000 51.0000,211.0000 C 201.0000,211.0000 201.0000,211.0000 201.0000,211.0000 C 206.0000,209.0000 212.0000,208.0000 218.0000,208.0000 C 225.0000,208.0000 230.0000,209.0000 236.0000,211.0000 Z "  fill="#FFAA00" stroke="none" />
<path d="M 123.0000,233.0000 L 51.0000,233.0000 L 51.0000,340.0000 L 123.0000,340.0000 L 123.0000,233.0000 Z "  fill="#FFAA00" stroke-width="1px" stroke="#FFFFFF" />
<path d="M 212.0000,415.0000 C 212.0000,391.0000 227.0000,371.0000 247.0000,361.0000 C 247.0000,361.0000 247.0000,361.0000 247.0000,361.0000 C 51.0000,361.0000 51.0000,361.0000 51.0000,361.0000 C 51.0000,469.0000 51.0000,469.0000 51.0000,469.0000 C 247.0000,469.0000 247.0000,469.0000 247.0000,469.0000 C 226.0000,459.0000 212.0000,439.0000 212.0000,415.0000 Z "  fill="#FFAA00" stroke="none" />
<path d="M 471.0000,378.0000 C 471.0000,361.0000 471.0000,361.0000 471.0000,361.0000 C 449.0000,361.0000 449.0000,361.0000 449.0000,361.0000 C 457.0000,365.0000 465.0000,370.0000 471.0000,378.0000 Z "  fill="#FFAA00" stroke="none" />
<path d="M 366.0000,415.0000 C 366.0000,406.0000 368.0000,397.0000 372.0000,389.0000 C 366.0000,381.0000 366.0000,381.0000 366.0000,381.0000 C 354.0000,385.0000 340.0000,385.0000 327.0000,382.0000 C 323.0000,387.0000 323.0000,387.0000 323.0000,387.0000 C 328.0000,396.0000 330.0000,405.0000 330.0000,415.0000 C 330.0000,439.0000 316.0000,459.0000 296.0000,469.0000 C 400.0000,469.0000 400.0000,469.0000 400.0000,469.0000 C 380.0000,459.0000 366.0000,439.0000 366.0000,415.0000 Z "  fill="#FFAA00" stroke="none" />
<path d="M 450.0000,469.0000 C 471.0000,469.0000 471.0000,469.0000 471.0000,469.0000 C 471.0000,453.0000 471.0000,453.0000 471.0000,453.0000 C 465.0000,459.0000 458.0000,465.0000 450.0000,469.0000 Z "  fill="#FFAA00" stroke="none" />
<path d="M 285.0000,265.0000 C 294.0000,253.0000 306.0000,244.0000 320.0000,239.0000 C 320.0000,233.0000 320.0000,233.0000 320.0000,233.0000 C 320.0000,233.0000 319.0000,233.0000 319.0000,233.0000 C 266.0000,233.0000 266.0000,233.0000 266.0000,233.0000 C 272.0000,241.0000 276.0000,251.0000 277.0000,262.0000 Z "  fill="#FFAA00" stroke="none" />
<path d="M 259.0000,310.0000 C 248.0000,320.0000 234.0000,326.0000 218.0000,326.0000 C 186.0000,326.0000 160.0000,299.0000 160.0000,267.0000 C 160.0000,254.0000 164.0000,242.0000 171.0000,233.0000 C 148.0000,233.0000 148.0000,233.0000 148.0000,233.0000 C 148.0000,340.0000 148.0000,340.0000 148.0000,340.0000 C 277.0000,340.0000 277.0000,340.0000 277.0000,340.0000 C 274.0000,332.0000 271.0000,323.0000 271.0000,315.0000 Z "  fill="#FFAA00" stroke="none" />
<path d="M 372.0000,239.0000 C 385.0000,244.0000 398.0000,253.0000 406.0000,265.0000 C 414.0000,262.0000 414.0000,262.0000 414.0000,262.0000 C 415.0000,251.0000 419.0000,241.0000 425.0000,233.0000 C 372.0000,233.0000 372.0000,233.0000 372.0000,233.0000 Z "  fill="#FFAA00" stroke="none" />
<path d="M 420.0000,315.0000 C 420.0000,324.0000 417.0000,332.0000 414.0000,340.0000 C 470.0000,340.0000 470.0000,340.0000 470.0000,340.0000 C 470.0000,326.0000 470.0000,326.0000 470.0000,326.0000 C 456.0000,325.0000 443.0000,320.0000 433.0000,310.0000 Z "  fill="#FFAA00" stroke="none" />
<path d="M 345.0000,121.0000 C 377.0000,121.0000 404.0000,147.0000 404.0000,180.0000 C 404.0000,191.0000 401.0000,202.0000 395.0000,211.0000 C 455.0000,211.0000 455.0000,211.0000 455.0000,211.0000 C 460.0000,209.0000 464.0000,208.0000 469.0000,208.0000 C 469.0000,103.0000 469.0000,103.0000 469.0000,103.0000 C 274.0000,103.0000 274.0000,103.0000 274.0000,103.0000 C 274.0000,211.0000 274.0000,211.0000 274.0000,211.0000 C 295.0000,211.0000 295.0000,211.0000 295.0000,211.0000 C 289.0000,202.0000 286.0000,191.0000 286.0000,180.0000 C 286.0000,147.0000 312.0000,121.0000 345.0000,121.0000 Z "  fill="#FFAA00" stroke="none" />
<path d="M 472.0000,310.0000 C 496.0000,310.0000 515.0000,291.0000 515.0000,267.0000 C 515.0000,244.0000 496.0000,224.0000 472.0000,224.0000 C 449.0000,224.0000 430.0000,244.0000 430.0000,267.0000 C 430.0000,269.0000 430.0000,271.0000 430.0000,273.0000 C 399.0000,286.0000 399.0000,286.0000 399.0000,286.0000 C 391.0000,268.0000 375.0000,255.0000 355.0000,252.0000 C 355.0000,221.0000 355.0000,221.0000 355.0000,221.0000 C 374.0000,216.0000 388.0000,199.0000 388.0000,180.0000 C 388.0000,156.0000 368.0000,137.0000 345.0000,137.0000 C 321.0000,137.0000 302.0000,156.0000 302.0000,180.0000 C 302.0000,200.0000 316.0000,217.0000 336.0000,221.0000 C 336.0000,251.0000 336.0000,251.0000 336.0000,251.0000 C 317.0000,255.0000 300.0000,267.0000 292.0000,285.0000 C 261.0000,273.0000 261.0000,273.0000 261.0000,273.0000 C 261.0000,271.0000 261.0000,269.0000 261.0000,267.0000 C 261.0000,244.0000 242.0000,224.0000 218.0000,224.0000 C 195.0000,224.0000 176.0000,244.0000 176.0000,267.0000 C 176.0000,291.0000 195.0000,310.0000 218.0000,310.0000 C 233.0000,310.0000 246.0000,303.0000 254.0000,291.0000 C 287.0000,303.0000 287.0000,303.0000 287.0000,303.0000 C 287.0000,306.0000 287.0000,307.0000 287.0000,309.0000 C 287.0000,326.0000 294.0000,341.0000 306.0000,352.0000 C 287.0000,375.0000 287.0000,375.0000 287.0000,375.0000 C 282.0000,373.0000 277.0000,373.0000 271.0000,373.0000 C 248.0000,373.0000 229.0000,392.0000 229.0000,415.0000 C 229.0000,439.0000 248.0000,458.0000 271.0000,458.0000 C 295.0000,458.0000 314.0000,439.0000 314.0000,415.0000 C 314.0000,404.0000 310.0000,394.0000 303.0000,386.0000 C 322.0000,363.0000 322.0000,363.0000 322.0000,363.0000 C 337.0000,370.0000 356.0000,370.0000 372.0000,362.0000 C 393.0000,388.0000 393.0000,388.0000 393.0000,388.0000 C 386.0000,396.0000 383.0000,405.0000 383.0000,415.0000 C 383.0000,439.0000 402.0000,458.0000 425.0000,458.0000 C 449.0000,458.0000 468.0000,439.0000 468.0000,415.0000 C 468.0000,392.0000 449.0000,373.0000 425.0000,373.0000 C 419.0000,373.0000 413.0000,374.0000 408.0000,376.0000 C 387.0000,351.0000 387.0000,351.0000 387.0000,351.0000 C 398.0000,340.0000 404.0000,325.0000 404.0000,309.0000 C 404.0000,308.0000 404.0000,306.0000 404.0000,304.0000 C 437.0000,291.0000 437.0000,291.0000 437.0000,291.0000 C 445.0000,303.0000 458.0000,310.0000 472.0000,310.0000 Z "  fill="#FFAA00" stroke="none" />
</g>
</svg>
