<?xml version="1.0"  encoding="UTF-8" standalone="no"?>
<svg version="1.1" xmlns="http://www.w3.org/2000/svg" xmlns:xlink="http://www.w3.org/1999/xlink" width="393.0000" height="319.0000">
<g transform="translate(-96.0000, -126.0000)">
<path d="M 267.0000,220.0000 L 267.0000,126.0000 L 96.0000,126.0000 L 96.0000,220.0000 L 227.0000,220.0000 L 227.0000,185.0000 L 263.0000,220.0000 L 267.0000,220.0000 Z "  fill="#FFAA00" stroke-width="1px" stroke="#FFFFFF" />
<path d="M 96.0000,333.0000 L 159.0000,333.0000 L 159.0000,239.0000 L 96.0000,239.0000 L 96.0000,333.0000 Z "  fill="#FFAA00" stroke-width="1px" stroke="#FFFFFF" />
<path d="M 267.0000,445.0000 L 267.0000,423.0000 L 244.0000,445.0000 L 267.0000,445.0000 Z "  fill="#FFAA00" stroke-width="1px" stroke="#FFFFFF" />
<path d="M 96.0000,445.0000 L 227.0000,445.0000 L 227.0000,351.0000 L 96.0000,351.0000 L 96.0000,445.0000 Z "  fill="#FFAA00" stroke-width="1px" stroke="#FFFFFF" />
<path d="M 462.0000,445.0000 L 462.0000,368.0000 L 381.0000,445.0000 L 462.0000,445.0000 Z "  fill="#FFAA00" stroke-width="1px" stroke="#FFFFFF" />
<path d="M 291.0000,401.0000 L 291.0000,445.0000 L 363.0000,445.0000 L 363.0000,351.0000 L 343.0000,351.0000 L 291.0000,401.0000 Z "  fill="#FFAA00" stroke-width="1px" stroke="#FFFFFF" />
<path d="M 462.0000,239.0000 L 420.0000,239.0000 L 462.0000,279.0000 L 462.0000,239.0000 Z "  fill="#FFAA00" stroke-width="1px" stroke="#FFFFFF" />
<path d="M 363.0000,315.0000 L 363.0000,239.0000 L 283.0000,239.0000 L 363.0000,315.0000 Z "  fill="#FFAA00" stroke-width="1px" stroke="#FFFFFF" />
<path d="M 181.0000,333.0000 L 227.0000,333.0000 L 227.0000,239.0000 L 181.0000,239.0000 L 181.0000,333.0000 Z "  fill="#FFAA00" stroke-width="1px" stroke="#FFFFFF" />
<path d="M 461.0000,220.0000 L 461.0000,126.0000 L 290.0000,126.0000 L 290.0000,220.0000 L 363.0000,220.0000 L 363.0000,185.0000 L 400.0000,220.0000 L 461.0000,220.0000 Z "  fill="#FFAA00" stroke-width="1px" stroke="#FFFFFF" />
<path d="M 377.0000,217.0000 L 377.0000,430.0000 L 489.0000,323.0000 L 377.0000,217.0000 Z "  fill="#FFAA00" stroke-width="1px" stroke="#FFFFFF" />
<path d="M 240.0000,217.0000 L 240.0000,430.0000 L 352.0000,323.0000 L 240.0000,217.0000 Z "  fill="#FFAA00" stroke-width="1px" stroke="#FFFFFF" />
</g>
</svg>
