<?xml version="1.0" encoding="UTF-8" standalone="no"?>
<svg
   xmlns:dc="http://purl.org/dc/elements/1.1/"
   xmlns:cc="http://creativecommons.org/ns#"
   xmlns:rdf="http://www.w3.org/1999/02/22-rdf-syntax-ns#"
   xmlns:svg="http://www.w3.org/2000/svg"
   xmlns="http://www.w3.org/2000/svg"
   viewBox="0 0 50.360001 45.253334"
   height="45.253334"
   width="50.360001"
   xml:space="preserve"
   id="svg2"
   version="1.1"><metadata
     id="metadata8"><rdf:RDF><cc:Work
         rdf:about=""><dc:format>image/svg+xml</dc:format><dc:type
           rdf:resource="http://purl.org/dc/dcmitype/StillImage" /></cc:Work></rdf:RDF></metadata><defs
     id="defs6" /><g
     transform="matrix(1.3333333,0,0,-1.3333333,0,45.253333)"
     id="g10"><g
       transform="scale(0.1)"
       id="g12"><path
         id="path14"
         style="fill:#FFAA00;fill-opacity:1;fill-rule:nonzero;stroke:none"
         d="m 5.03516,52.9492 h 314.746 v 59.0625 H 5.03516 Z" /><path
         id="path16"
         style="fill:none;stroke:#ffffff;stroke-width:3.99993992;stroke-linecap:butt;stroke-linejoin:miter;stroke-miterlimit:4;stroke-dasharray:none;stroke-opacity:1"
         d="M 319.781,52.9492 V 112.012 H 5.03516 V 52.9492 Z" /><path
         id="path18"
         style="fill:#FFAA00;fill-opacity:1;fill-rule:nonzero;stroke:none"
         d="M 223.375,78.5742 H 302.75" /><path
         id="path20"
         style="fill:none;stroke:#ffffff;stroke-width:3.99993992;stroke-linecap:butt;stroke-linejoin:miter;stroke-miterlimit:4;stroke-dasharray:none;stroke-opacity:1"
         d="M 223.375,78.5742 H 302.75" /><path
         id="path22"
         style="fill:#FFAA00;fill-opacity:1;fill-rule:nonzero;stroke:none"
         d="M 223.375,81.4063 H 302.75" /><path
         id="path24"
         style="fill:none;stroke:#ffffff;stroke-width:3.99993992;stroke-linecap:butt;stroke-linejoin:miter;stroke-miterlimit:4;stroke-dasharray:none;stroke-opacity:1"
         d="M 223.375,81.4063 H 302.75" /><path
         id="path26"
         style="fill:#FFAA00;fill-opacity:1;fill-rule:nonzero;stroke:none"
         d="m 372.613,108.945 v 52.93 L 319.742,111.777 V 52.9492 l 52.871,55.9958" /><path
         id="path28"
         style="fill:none;stroke:#ffffff;stroke-width:3.99993992;stroke-linecap:butt;stroke-linejoin:miter;stroke-miterlimit:4;stroke-dasharray:none;stroke-opacity:1"
         d="m 372.613,108.945 v 52.93 L 319.742,111.777 V 52.9492 Z" /><path
         id="path30"
         style="fill:#FFAA00;fill-opacity:1;fill-rule:nonzero;stroke:none"
         d="M 263.863,4.82422 V 18.0859 l 28.614,39.5508 V 33.418 L 263.863,4.82422" /><path
         id="path32"
         style="fill:none;stroke:#ffffff;stroke-width:3.99993992;stroke-linecap:butt;stroke-linejoin:miter;stroke-miterlimit:4;stroke-dasharray:none;stroke-opacity:1"
         d="M 263.863,4.82422 V 18.0859 l 28.614,39.5508 V 33.418 Z" /><path
         id="path34"
         style="fill:#FFAA00;fill-opacity:1;fill-rule:nonzero;stroke:none"
         d="m 11.7344,4.82422 h 252.129 v 13.0664 H 11.7344 Z" /><path
         id="path36"
         style="fill:none;stroke:#ffffff;stroke-width:3.99993992;stroke-linecap:butt;stroke-linejoin:miter;stroke-miterlimit:4;stroke-dasharray:none;stroke-opacity:1"
         d="M 263.863,17.8906 V 4.82422 H 11.7344 V 17.8906 Z" /><path
         id="path38"
         style="fill:#FFAA00;fill-opacity:1;fill-rule:nonzero;stroke:none"
         d="M 263.863,17.8906 H 12.543 L 41.1367,57.6367 H 292.477 L 263.863,17.8906" /><path
         id="path40"
         style="fill:none;stroke:#ffffff;stroke-width:3.99993992;stroke-linecap:butt;stroke-linejoin:miter;stroke-miterlimit:4;stroke-dasharray:none;stroke-opacity:1"
         d="M 263.863,17.8906 H 12.543 L 41.1367,57.6367 H 292.477 Z" /><path
         id="path42"
         style="fill:#FFAA00;fill-opacity:1;fill-rule:nonzero;stroke:none"
         d="M 372.613,161.758 H 57.7695 L 5.03516,112.012 H 319.781 l 52.832,49.746" /><path
         id="path44"
         style="fill:none;stroke:#ffffff;stroke-width:3.99993992;stroke-linecap:butt;stroke-linejoin:miter;stroke-miterlimit:4;stroke-dasharray:none;stroke-opacity:1"
         d="M 372.613,161.758 H 57.7695 L 5.03516,112.012 H 319.781 Z" /><path
         id="path46"
         style="fill:#FFAA00;fill-opacity:1;fill-rule:nonzero;stroke:none"
         d="M 313.316,161.543 H 102.613 L 67.3086,128.262 H 278.004 l 35.312,33.281" /><path
         id="path48"
         style="fill:none;stroke:#ffffff;stroke-width:3.99993992;stroke-linecap:butt;stroke-linejoin:miter;stroke-miterlimit:4;stroke-dasharray:none;stroke-opacity:1"
         d="M 313.316,161.543 H 102.613 L 67.3086,128.262 H 278.004 Z" /><path
         id="path50"
         style="fill:#FFAA00;fill-opacity:1;fill-rule:nonzero;stroke:none"
         d="m 61.3242,141.27 h 217.012 V 300.333 H 61.3242 Z" /><path
         id="path52"
         style="fill:none;stroke:#ffffff;stroke-width:3.99993992;stroke-linecap:butt;stroke-linejoin:miter;stroke-miterlimit:4;stroke-dasharray:none;stroke-opacity:1"
         d="M 278.336,141.27 V 300.332 H 61.3242 V 141.27 Z" /><path
         id="path54"
         style="fill:#FFAA00;fill-opacity:1;fill-rule:nonzero;stroke:none"
         d="m 79.6523,265.449 c 0,15.977 16.5625,18.34 16.5625,18.34 0,0 127.7262,0 143.0982,0 20.097,0 19.511,-18.926 19.511,-18.926 0,0 0,-78.047 0,-89.297 0,-11.23 -15.371,-15.957 -15.371,-15.957 0,0 -130.683,0 -144.8749,0 -14.1875,0 -18.9258,14.786 -18.9258,14.786 v 91.054" /><path
         id="path56"
         style="fill:none;stroke:#ffffff;stroke-width:3.99993992;stroke-linecap:butt;stroke-linejoin:miter;stroke-miterlimit:4;stroke-dasharray:none;stroke-opacity:1"
         d="m 79.6523,265.449 c 0,15.977 16.5625,18.34 16.5625,18.34 0,0 127.7262,0 143.0982,0 20.097,0 19.511,-18.926 19.511,-18.926 0,0 0,-78.047 0,-89.297 0,-11.23 -15.371,-15.957 -15.371,-15.957 0,0 -130.683,0 -144.8749,0 -14.1875,0 -18.9258,14.786 -18.9258,14.786 z" /><path
         id="path58"
         style="fill:#FFAA00;fill-opacity:1;fill-rule:nonzero;stroke:none"
         d="M 314.703,334.629 H 97.6914 L 61.3242,300.332 H 278.336 l 36.367,34.297" /><path
         id="path60"
         style="fill:none;stroke:#ffffff;stroke-width:3.99993992;stroke-linecap:butt;stroke-linejoin:miter;stroke-miterlimit:4;stroke-dasharray:none;stroke-opacity:1"
         d="M 314.703,334.629 H 97.6914 L 61.3242,300.332 H 278.336 Z" /><path
         id="path62"
         style="fill:#FFAA00;fill-opacity:1;fill-rule:nonzero;stroke:none"
         d="M 314.703,175.078 V 334.707 L 278.688,300.645 V 141.016 l 36.015,34.062" /><path
         id="path64"
         style="fill:none;stroke:#ffffff;stroke-width:3.99993992;stroke-linecap:butt;stroke-linejoin:miter;stroke-miterlimit:4;stroke-dasharray:none;stroke-opacity:1"
         d="M 314.703,175.078 V 334.707 L 278.688,300.645 V 141.016 Z" /><path
         id="path66"
         style="fill:#FFAA00;fill-opacity:1;fill-rule:nonzero;stroke:none"
         d="M 203.551,256.719 V 184.863" /><path
         id="path68"
         style="fill:none;stroke:#ffffff;stroke-width:3.99993992;stroke-linecap:butt;stroke-linejoin:miter;stroke-miterlimit:4;stroke-dasharray:none;stroke-opacity:1"
         d="M 203.551,256.719 V 184.863" /><path
         id="path70"
         style="fill:#FFAA00;fill-opacity:1;fill-rule:nonzero;stroke:none"
         d="m 133.355,184.863 v 82.356" /><path
         id="path72"
         style="fill:none;stroke:#ffffff;stroke-width:3.99993992;stroke-linecap:butt;stroke-linejoin:miter;stroke-miterlimit:4;stroke-dasharray:none;stroke-opacity:1"
         d="m 133.355,184.863 v 82.356" /><path
         id="path74"
         style="fill:#FFAA00;fill-opacity:1;fill-rule:nonzero;stroke:none"
         d="m 133.355,184.609 c 14.844,-33.808 28.348,3.985 28.348,3.985 h 66.152 c -6.746,-17.547 -16.199,-18.895 -16.199,-18.895 h -62.109 c -12.149,1.348 -16.192,14.91 -16.192,14.91" /><path
         id="path76"
         style="fill:none;stroke:#ffffff;stroke-width:3.99993992;stroke-linecap:butt;stroke-linejoin:miter;stroke-miterlimit:4;stroke-dasharray:none;stroke-opacity:1"
         d="m 133.355,184.609 c 14.844,-33.808 28.348,3.985 28.348,3.985 h 66.152 c -6.746,-17.547 -16.199,-18.895 -16.199,-18.895 h -62.109 c -12.149,1.348 -16.192,14.91 -16.192,14.91 z" /><path
         id="path78"
         style="fill:#FFAA00;fill-opacity:1;fill-rule:nonzero;stroke:none"
         d="m 149.547,226.641 h 39.16" /><path
         id="path80"
         style="fill:none;stroke:#ffffff;stroke-width:3.99993992;stroke-linecap:butt;stroke-linejoin:miter;stroke-miterlimit:4;stroke-dasharray:none;stroke-opacity:1"
         d="m 149.547,226.641 h 39.16" /><path
         id="path82"
         style="fill:#FFAA00;fill-opacity:1;fill-rule:nonzero;stroke:none"
         d="m 149.547,218.547 h 39.16" /><path
         id="path84"
         style="fill:none;stroke:#ffffff;stroke-width:3.99993992;stroke-linecap:butt;stroke-linejoin:miter;stroke-miterlimit:4;stroke-dasharray:none;stroke-opacity:1"
         d="m 149.547,218.547 h 39.16" /><path
         id="path86"
         style="fill:#FFAA00;fill-opacity:1;fill-rule:nonzero;stroke:none"
         d="m 149.547,207.754 h 39.16" /><path
         id="path88"
         style="fill:none;stroke:#ffffff;stroke-width:3.99993992;stroke-linecap:butt;stroke-linejoin:miter;stroke-miterlimit:4;stroke-dasharray:none;stroke-opacity:1"
         d="m 149.547,207.754 h 39.16" /><path
         id="path90"
         style="fill:#FFAA00;fill-opacity:1;fill-rule:nonzero;stroke:none"
         d="m 149.547,199.648 h 39.16" /><path
         id="path92"
         style="fill:none;stroke:#ffffff;stroke-width:3.99993992;stroke-linecap:butt;stroke-linejoin:miter;stroke-miterlimit:4;stroke-dasharray:none;stroke-opacity:1"
         d="m 149.547,199.648 h 39.16" /><path
         id="path94"
         style="fill:#FFAA00;fill-opacity:1;fill-rule:nonzero;stroke:none"
         d="m 202.633,259.043 -4.043,12.148 h -65.051 c 0,0 -10.801,1.36 -13.504,-17.539 v -14.863 h 13.133 v 20.254" /><path
         id="path96"
         style="fill:none;stroke:#ffffff;stroke-width:3.99993992;stroke-linecap:butt;stroke-linejoin:miter;stroke-miterlimit:4;stroke-dasharray:none;stroke-opacity:1"
         d="m 202.633,259.043 -4.043,12.148 h -65.051 c 0,0 -10.801,1.36 -13.504,-17.539 v -14.863 h 13.133 v 20.254" /><path
         id="path98"
         style="fill:#FFAA00;fill-opacity:1;fill-rule:nonzero;stroke:none"
         d="m 132.047,271.191 c 0,0 -10.801,1.36 -13.508,-17.539 v -14.863" /><path
         id="path100"
         style="fill:none;stroke:#ffffff;stroke-width:3.99993992;stroke-linecap:butt;stroke-linejoin:miter;stroke-miterlimit:4;stroke-dasharray:none;stroke-opacity:1"
         d="m 132.047,271.191 c 0,0 -10.801,1.36 -13.508,-17.539 v -14.863" /><path
         id="path102"
         style="fill:#FFAA00;fill-opacity:1;fill-rule:nonzero;stroke:none"
         d="m 149.547,246.895 h 39.16" /><path
         id="path104"
         style="fill:none;stroke:#ffffff;stroke-width:3.99993992;stroke-linecap:butt;stroke-linejoin:miter;stroke-miterlimit:4;stroke-dasharray:none;stroke-opacity:1"
         d="m 149.547,246.895 h 39.16" /><path
         id="path106"
         style="fill:#FFAA00;fill-opacity:1;fill-rule:nonzero;stroke:none"
         d="m 149.547,255 h 39.16" /><path
         id="path108"
         style="fill:none;stroke:#ffffff;stroke-width:3.99993992;stroke-linecap:butt;stroke-linejoin:miter;stroke-miterlimit:4;stroke-dasharray:none;stroke-opacity:1"
         d="m 149.547,255 h 39.16" /><path
         id="path110"
         style="fill:#FFAA00;fill-opacity:1;fill-rule:nonzero;stroke:none"
         d="m 134.438,184.238 v 76.973" /><path
         id="path112"
         style="fill:none;stroke:#ffffff;stroke-width:3.99993992;stroke-linecap:butt;stroke-linejoin:miter;stroke-miterlimit:4;stroke-dasharray:none;stroke-opacity:1"
         d="m 134.438,184.238 v 76.973" /></g></g></svg>