<?xml version="1.0" encoding="UTF-8" standalone="no"?>
<svg
   xmlns:dc="http://purl.org/dc/elements/1.1/"
   xmlns:cc="http://creativecommons.org/ns#"
   xmlns:rdf="http://www.w3.org/1999/02/22-rdf-syntax-ns#"
   xmlns:svg="http://www.w3.org/2000/svg"
   xmlns="http://www.w3.org/2000/svg"
   viewBox="0 0 35.599998 43.32"
   height="43.32"
   width="35.599998"
   xml:space="preserve"
   id="svg2"
   version="1.1"><metadata
     id="metadata8"><rdf:RDF><cc:Work
         rdf:about=""><dc:format>image/svg+xml</dc:format><dc:type
           rdf:resource="http://purl.org/dc/dcmitype/StillImage" /></cc:Work></rdf:RDF></metadata><defs
     id="defs6" /><g
     transform="matrix(1.3333333,0,0,-1.3333333,0,43.32)"
     id="g10"><g
       transform="scale(0.1)"
       id="g12"><path
         id="path14"
         style="fill:#FFAA00;fill-opacity:1;fill-rule:nonzero;stroke:none"
         d="M 168.691,4.46484 V 286.316 H 7.0625 V 4.46484 H 168.691" /><path
         id="path16"
         style="fill:none;stroke:#ffffff;stroke-width:4;stroke-linecap:butt;stroke-linejoin:miter;stroke-miterlimit:4;stroke-dasharray:none;stroke-opacity:1"
         d="M 168.691,4.46484 V 286.316 H 7.0625 V 4.46484 Z" /><path
         id="path18"
         style="fill:none;stroke:#ffffff;stroke-width:4;stroke-linecap:butt;stroke-linejoin:miter;stroke-miterlimit:4;stroke-dasharray:none;stroke-opacity:1"
         d="M 7.00391,23.6992 H 167.91" /><path
         id="path20"
         style="fill:none;stroke:#ffffff;stroke-width:6;stroke-linecap:butt;stroke-linejoin:miter;stroke-miterlimit:4;stroke-dasharray:none;stroke-opacity:1"
         d="m 160.867,69.4922 c 0,-17.168 -13.902,-31.0742 -31.07,-31.0742 -17.156,0 -31.0665,13.9062 -31.0665,31.0742 0,17.1484 13.9105,31.0738 31.0665,31.0738 17.168,0 31.07,-13.9254 31.07,-31.0738 z" /><path
         id="path22"
         style="fill:#ffffff;fill-opacity:1;fill-rule:nonzero;stroke:none"
         d="m 138.469,69.4922 c 0,-4.7852 -3.887,-8.6719 -8.672,-8.6719 -4.785,0 -8.664,3.8867 -8.664,8.6719 0,4.7851 3.879,8.6719 8.664,8.6719 4.785,0 8.672,-3.8868 8.672,-8.6719" /><path
         id="path24"
         style="fill:none;stroke:#ffffff;stroke-width:4;stroke-linecap:butt;stroke-linejoin:miter;stroke-miterlimit:4;stroke-dasharray:none;stroke-opacity:1"
         d="m 138.469,69.4922 c 0,-4.7852 -3.887,-8.6719 -8.672,-8.6719 -4.785,0 -8.664,3.8867 -8.664,8.6719 0,4.7851 3.879,8.6719 8.664,8.6719 4.785,0 8.672,-3.8868 8.672,-8.6719 z" /><path
         id="path26"
         style="fill:none;stroke:#ffffff;stroke-width:6;stroke-linecap:butt;stroke-linejoin:miter;stroke-miterlimit:4;stroke-dasharray:none;stroke-opacity:1"
         d="M 77.9063,69.4336 C 77.9063,52.2656 64,38.3594 46.832,38.3594 c -17.1523,0 -31.0586,13.9062 -31.0586,31.0742 0,17.1484 13.9063,31.0544 31.0586,31.0544 17.168,0 31.0743,-13.906 31.0743,-31.0544 z" /><path
         id="path28"
         style="fill:none;stroke:#ffffff;stroke-width:8;stroke-linecap:round;stroke-linejoin:miter;stroke-miterlimit:4;stroke-dasharray:none;stroke-opacity:1"
         d="M 34.2891,56.875 59.3906,81.9727" /><path
         id="path30"
         style="fill:none;stroke:#ffffff;stroke-width:8;stroke-linecap:round;stroke-linejoin:miter;stroke-miterlimit:4;stroke-dasharray:none;stroke-opacity:1"
         d="M 34.2891,81.9727 59.3906,56.875" /><path
         id="path32"
         style="fill:none;stroke:#ffffff;stroke-width:6;stroke-linecap:butt;stroke-linejoin:miter;stroke-miterlimit:4;stroke-dasharray:none;stroke-opacity:1"
         d="m 118.605,137.676 c 0,-17.168 -13.921,-31.074 -31.0894,-31.074 -17.1562,0 -31.0703,13.906 -31.0703,31.074 0,17.16 13.9141,31.074 31.0703,31.074 17.1684,0 31.0894,-13.914 31.0894,-31.074 z" /><path
         id="path34"
         style="fill:none;stroke:#ffffff;stroke-width:8;stroke-linecap:round;stroke-linejoin:miter;stroke-miterlimit:4;stroke-dasharray:none;stroke-opacity:1"
         d="M 81.5273,124.004 71.3711,134.16" /><path
         id="path36"
         style="fill:none;stroke:#ffffff;stroke-width:8;stroke-linecap:round;stroke-linejoin:miter;stroke-miterlimit:4;stroke-dasharray:none;stroke-opacity:1"
         d="M 104.535,147.012 81.5273,124.004" /><path
         id="path38"
         style="fill:#FFAA00;fill-opacity:1;fill-rule:nonzero;stroke:none"
         d="m 7.0625,286.316 56.9648,35.102 H 219.875 L 168.691,286.316 H 7.0625" /><path
         id="path40"
         style="fill:none;stroke:#ffffff;stroke-width:4;stroke-linecap:butt;stroke-linejoin:miter;stroke-miterlimit:4;stroke-dasharray:none;stroke-opacity:1"
         d="m 7.0625,286.316 56.9648,35.102 H 219.875 l -51.184,-35.102 z" /><path
         id="path42"
         style="fill:#FFAA00;fill-opacity:1;fill-rule:nonzero;stroke:none"
         d="m 168.738,4.21094 50.2,40.89846 V 321.16 l -50.2,-33.648 V 4.21094" /><path
         id="path44"
         style="fill:none;stroke:#ffffff;stroke-width:4;stroke-linecap:butt;stroke-linejoin:miter;stroke-miterlimit:4;stroke-dasharray:none;stroke-opacity:1"
         d="m 168.738,4.21094 50.2,40.89846 V 321.16 l -50.2,-33.648 z" /><path
         id="path46"
         style="fill:none;stroke:#ffffff;stroke-width:3;stroke-linecap:butt;stroke-linejoin:miter;stroke-miterlimit:4;stroke-dasharray:none;stroke-opacity:1"
         d="M 7.00391,179.895 H 167.91" /><path
         id="path48"
         style="fill:#FFAA00;fill-opacity:1;fill-rule:nonzero;stroke:none"
         d="m 94.9023,235.535 v 30.824 h -75 v -30.824 h 75" /><path
         id="path50"
         style="fill:none;stroke:#ffffff;stroke-width:4;stroke-linecap:butt;stroke-linejoin:miter;stroke-miterlimit:4;stroke-dasharray:none;stroke-opacity:1"
         d="m 94.9023,235.535 v 30.824 h -75 v -30.824 z" /><path
         id="path52"
         style="fill:#000000;fill-opacity:1;fill-rule:nonzero;stroke:none"
         d="M 27.4023,249.895 H 88.2422" /><path
         id="path54"
         style="fill:none;stroke:#ffffff;stroke-width:4;stroke-linecap:butt;stroke-linejoin:miter;stroke-miterlimit:4;stroke-dasharray:none;stroke-opacity:1"
         d="M 27.4023,249.895 H 88.2422" /><path
         id="path56"
         style="fill:#ffffff;fill-opacity:1;fill-rule:nonzero;stroke:none"
         d="m 218.313,192.844 h 4.824 c 36.152,0 41.89,-32.5 41.89,-32.5 v 33.75 c 0,0 -5.738,32.5 -41.89,32.5 h -5.782" /><path
         id="path58"
         style="fill:none;stroke:#231f20;stroke-width:4;stroke-linecap:butt;stroke-linejoin:miter;stroke-miterlimit:4;stroke-dasharray:none;stroke-opacity:1"
         d="m 218.313,192.844 h 4.824 c 36.152,0 41.89,-32.5 41.89,-32.5 v 33.75 c 0,0 -5.738,32.5 -41.89,32.5 h -5.782" /><path
         id="path60"
         style="fill:#ffffff;fill-opacity:1;fill-rule:nonzero;stroke:none"
         d="m 265.027,195.969 v -40 c -3.922,-47.5 -88.14,-45 -88.14,-45 v -2.5 -32.5002 l -55,55.0002 55,55 v -35 c 0,0 85.64,-2.5 88.14,45" /><path
         id="path62"
         style="fill:none;stroke:#000000;stroke-width:4;stroke-linecap:butt;stroke-linejoin:miter;stroke-miterlimit:4;stroke-dasharray:none;stroke-opacity:1"
         d="m 265.027,195.969 v -40 c -3.922,-47.5 -88.14,-45 -88.14,-45 v -2.5 -32.5002 l -55,55.0002 55,55 v -35 c 0,0 85.64,-2.5 88.14,45" /></g></g></svg>