<?xml version="1.0" encoding="UTF-8" standalone="no"?>
<svg
   xmlns:dc="http://purl.org/dc/elements/1.1/"
   xmlns:cc="http://creativecommons.org/ns#"
   xmlns:rdf="http://www.w3.org/1999/02/22-rdf-syntax-ns#"
   xmlns:svg="http://www.w3.org/2000/svg"
   xmlns="http://www.w3.org/2000/svg"
   xmlns:sodipodi="http://sodipodi.sourceforge.net/DTD/sodipodi-0.dtd"
   xmlns:inkscape="http://www.inkscape.org/namespaces/inkscape"
   version="1.1"
   width="511.0000"
   height="512.0000"
   id="svg1122"
   sodipodi:docname="Anti-Intrusion02.svg"
   inkscape:version="0.92.3 (2405546, 2018-03-11)">
  <metadata
     id="metadata1128">
    <rdf:RDF>
      <cc:Work
         rdf:about="">
        <dc:format>image/svg+xml</dc:format>
        <dc:type
           rdf:resource="http://purl.org/dc/dcmitype/StillImage" />
      </cc:Work>
    </rdf:RDF>
  </metadata>
  <defs
     id="defs1126" />
  <sodipodi:namedview
     pagecolor="#FED100"
     bordercolor="#666666"
     borderopacity="1"
     objecttolerance="10"
     gridtolerance="10"
     guidetolerance="10"
     inkscape:pageopacity="0"
     inkscape:pageshadow="2"
     inkscape:window-width="1551"
     inkscape:window-height="836"
     id="namedview1124"
     showgrid="false"
     inkscape:zoom="1.265625"
     inkscape:cx="255.5"
     inkscape:cy="256"
     inkscape:window-x="49"
     inkscape:window-y="27"
     inkscape:window-maximized="1"
     inkscape:current-layer="svg1122" />
  <g
     transform="translate(-32.0000, 544.0000)"
     id="g1120"
     style="fill:#FED100">
    <path
       d="M 187.0000,-227.0000 C 229.0000,-221.0000 273.0000,-222.0000 283.0000,-222.0000 C 292.0000,-222.0000 335.0000,-221.0000 376.0000,-227.0000 C 376.0000,-227.0000 379.0000,-182.0000 322.0000,-166.0000 C 298.0000,-162.0000 282.0000,-181.0000 282.0000,-181.0000 C 281.0000,-182.0000 281.0000,-182.0000 281.0000,-182.0000 C 280.0000,-181.0000 280.0000,-181.0000 280.0000,-181.0000 C 280.0000,-181.0000 265.0000,-162.0000 240.0000,-166.0000 C 184.0000,-182.0000 187.0000,-227.0000 187.0000,-227.0000 M 338.0000,-207.0000 C 338.0000,-207.0000 320.0000,-191.0000 305.0000,-190.0000 C 307.0000,-188.0000 314.0000,-178.0000 324.0000,-180.0000 C 338.0000,-190.0000 338.0000,-207.0000 338.0000,-207.0000 M 225.0000,-207.0000 C 225.0000,-207.0000 225.0000,-190.0000 239.0000,-180.0000 C 249.0000,-178.0000 256.0000,-188.0000 257.0000,-190.0000 C 243.0000,-191.0000 225.0000,-207.0000 225.0000,-207.0000 "
       fill="#425152"
       stroke="none"
       id="path1102"
       style="fill:#FED100" />
    <path
       d="M 117.0000,-265.0000 C 117.0000,-276.0000 143.0000,-286.0000 184.0000,-292.0000 C 208.0000,-378.0000 208.0000,-378.0000 208.0000,-378.0000 C 208.0000,-378.0000 221.0000,-406.0000 239.0000,-406.0000 C 257.0000,-406.0000 272.0000,-385.0000 272.0000,-385.0000 C 276.0000,-383.0000 279.0000,-382.0000 282.0000,-383.0000 C 282.0000,-383.0000 282.0000,-383.0000 283.0000,-383.0000 C 283.0000,-383.0000 283.0000,-383.0000 283.0000,-383.0000 C 286.0000,-382.0000 290.0000,-383.0000 293.0000,-385.0000 C 293.0000,-385.0000 308.0000,-406.0000 326.0000,-406.0000 C 345.0000,-406.0000 357.0000,-378.0000 357.0000,-378.0000 C 381.0000,-292.0000 381.0000,-292.0000 381.0000,-292.0000 C 422.0000,-286.0000 448.0000,-276.0000 448.0000,-265.0000 C 448.0000,-247.0000 374.0000,-233.0000 283.0000,-233.0000 C 191.0000,-233.0000 117.0000,-247.0000 117.0000,-265.0000 "
       fill="#425152"
       stroke="none"
       id="path1104"
       style="fill:#FED100" />
    <path
       d="M 288.0000,-503.0000 C 169.0000,-503.0000 72.0000,-407.0000 72.0000,-288.0000 C 72.0000,-169.0000 169.0000,-72.0000 288.0000,-72.0000 C 407.0000,-72.0000 503.0000,-169.0000 503.0000,-288.0000 C 503.0000,-407.0000 407.0000,-503.0000 288.0000,-503.0000 M 288.0000,-543.0000 C 428.0000,-543.0000 542.0000,-429.0000 542.0000,-288.0000 C 542.0000,-147.0000 428.0000,-33.0000 288.0000,-33.0000 C 147.0000,-33.0000 33.0000,-147.0000 33.0000,-288.0000 C 33.0000,-429.0000 147.0000,-543.0000 288.0000,-543.0000 "
       fill="#425152"
       stroke="none"
       id="path1106"
       style="fill:#FED100" />
    <path
       d="M 288.0000,-503.0000 C 288.0000,-505.0000 288.0000,-505.0000 288.0000,-505.0000 C 168.0000,-505.0000 71.0000,-408.0000 71.0000,-288.0000 C 71.0000,-168.0000 168.0000,-71.0000 288.0000,-71.0000 C 407.0000,-71.0000 504.0000,-168.0000 504.0000,-288.0000 C 504.0000,-408.0000 407.0000,-505.0000 288.0000,-505.0000 C 288.0000,-503.0000 288.0000,-503.0000 288.0000,-503.0000 C 288.0000,-502.0000 288.0000,-502.0000 288.0000,-502.0000 C 347.0000,-502.0000 400.0000,-478.0000 439.0000,-440.0000 C 478.0000,-401.0000 502.0000,-347.0000 502.0000,-288.0000 C 502.0000,-229.0000 478.0000,-175.0000 439.0000,-136.0000 C 400.0000,-98.0000 347.0000,-74.0000 288.0000,-74.0000 C 228.0000,-74.0000 175.0000,-98.0000 136.0000,-136.0000 C 97.0000,-175.0000 73.0000,-229.0000 73.0000,-288.0000 C 73.0000,-347.0000 97.0000,-401.0000 136.0000,-440.0000 C 175.0000,-478.0000 228.0000,-502.0000 288.0000,-502.0000 C 288.0000,-503.0000 288.0000,-503.0000 288.0000,-503.0000 M 288.0000,-543.0000 C 288.0000,-541.0000 288.0000,-541.0000 288.0000,-541.0000 C 358.0000,-541.0000 421.0000,-513.0000 467.0000,-467.0000 C 513.0000,-421.0000 541.0000,-358.0000 541.0000,-288.0000 C 541.0000,-218.0000 513.0000,-155.0000 467.0000,-109.0000 C 421.0000,-63.0000 358.0000,-35.0000 288.0000,-35.0000 C 218.0000,-35.0000 154.0000,-63.0000 108.0000,-109.0000 C 63.0000,-155.0000 34.0000,-218.0000 34.0000,-288.0000 C 34.0000,-358.0000 63.0000,-421.0000 108.0000,-467.0000 C 154.0000,-513.0000 218.0000,-541.0000 288.0000,-541.0000 C 288.0000,-543.0000 288.0000,-543.0000 288.0000,-543.0000 C 288.0000,-544.0000 288.0000,-544.0000 288.0000,-544.0000 C 146.0000,-544.0000 32.0000,-429.0000 32.0000,-288.0000 C 32.0000,-147.0000 146.0000,-32.0000 288.0000,-32.0000 C 429.0000,-32.0000 543.0000,-147.0000 543.0000,-288.0000 C 543.0000,-429.0000 429.0000,-544.0000 288.0000,-544.0000 C 288.0000,-543.0000 288.0000,-543.0000 288.0000,-543.0000 "
       fill="#333E48"
       stroke="none"
       id="path1108"
       style="fill:#FED100" />
    <path
       d="M 393.0000,-241.0000 C 375.0000,-238.0000 354.0000,-236.0000 330.0000,-234.0000 C 346.0000,-224.0000 346.0000,-224.0000 346.0000,-224.0000 C 356.0000,-224.0000 366.0000,-225.0000 376.0000,-227.0000 C 376.0000,-227.0000 377.0000,-218.0000 372.0000,-207.0000 C 454.0000,-153.0000 454.0000,-153.0000 454.0000,-153.0000 C 462.0000,-163.0000 470.0000,-174.0000 476.0000,-186.0000 C 393.0000,-241.0000 393.0000,-241.0000 393.0000,-241.0000 M 119.0000,-421.0000 C 111.0000,-410.0000 104.0000,-399.0000 98.0000,-387.0000 C 193.0000,-324.0000 193.0000,-324.0000 193.0000,-324.0000 C 205.0000,-365.0000 205.0000,-365.0000 205.0000,-365.0000 C 119.0000,-421.0000 119.0000,-421.0000 119.0000,-421.0000 "
       fill="#8E9394"
       stroke="none"
       id="path1110"
       style="fill:#FED100" />
    <path
       d="M 376.0000,-227.0000 C 366.0000,-225.0000 356.0000,-224.0000 346.0000,-224.0000 C 372.0000,-207.0000 372.0000,-207.0000 372.0000,-207.0000 C 377.0000,-218.0000 376.0000,-227.0000 376.0000,-227.0000 "
       fill="#425252"
       stroke="none"
       id="path1112"
       style="fill:#FED100" />
    <path
       d="M 205.0000,-365.0000 C 193.0000,-324.0000 193.0000,-324.0000 193.0000,-324.0000 C 330.0000,-234.0000 330.0000,-234.0000 330.0000,-234.0000 C 354.0000,-236.0000 375.0000,-238.0000 393.0000,-241.0000 C 205.0000,-365.0000 205.0000,-365.0000 205.0000,-365.0000 "
       fill="#425252"
       stroke="none"
       id="path1114"
       style="fill:#FED100" />
    <path
       d="M 478.0000,-185.0000 C 472.0000,-173.0000 464.0000,-162.0000 456.0000,-152.0000 C 470.0000,-142.0000 470.0000,-142.0000 470.0000,-142.0000 C 492.0000,-176.0000 492.0000,-176.0000 492.0000,-176.0000 C 478.0000,-185.0000 478.0000,-185.0000 478.0000,-185.0000 M 114.0000,-424.0000 C 92.0000,-391.0000 92.0000,-391.0000 92.0000,-391.0000 C 96.0000,-388.0000 96.0000,-388.0000 96.0000,-388.0000 C 102.0000,-400.0000 109.0000,-412.0000 117.0000,-422.0000 C 114.0000,-424.0000 114.0000,-424.0000 114.0000,-424.0000 "
       fill="#425252"
       stroke="none"
       id="path1116"
       style="fill:#FED100" />
    <path
       d="M 476.0000,-186.0000 C 470.0000,-174.0000 462.0000,-163.0000 454.0000,-153.0000 C 456.0000,-152.0000 456.0000,-152.0000 456.0000,-152.0000 C 464.0000,-162.0000 472.0000,-173.0000 478.0000,-185.0000 C 476.0000,-186.0000 476.0000,-186.0000 476.0000,-186.0000 M 117.0000,-422.0000 C 109.0000,-412.0000 102.0000,-400.0000 96.0000,-388.0000 C 98.0000,-387.0000 98.0000,-387.0000 98.0000,-387.0000 C 104.0000,-399.0000 111.0000,-410.0000 119.0000,-421.0000 C 117.0000,-422.0000 117.0000,-422.0000 117.0000,-422.0000 "
       fill="#3B484D"
       stroke="none"
       id="path1118"
       style="fill:#FED100" />
  </g>
</svg>
