<?xml version="1.0" encoding="UTF-8" standalone="no"?>
<svg
   xmlns:dc="http://purl.org/dc/elements/1.1/"
   xmlns:cc="http://creativecommons.org/ns#"
   xmlns:rdf="http://www.w3.org/1999/02/22-rdf-syntax-ns#"
   xmlns:svg="http://www.w3.org/2000/svg"
   xmlns="http://www.w3.org/2000/svg"
   xmlns:sodipodi="http://sodipodi.sourceforge.net/DTD/sodipodi-0.dtd"
   xmlns:inkscape="http://www.inkscape.org/namespaces/inkscape"
   version="1.1"
   width="568.0000"
   height="352.0000"
   id="svg1189"
   sodipodi:docname="cloud01.svg"
   inkscape:version="0.92.3 (2405546, 2018-03-11)">
  <metadata
     id="metadata1195">
    <rdf:RDF>
      <cc:Work
         rdf:about="">
        <dc:format>image/svg+xml</dc:format>
        <dc:type
           rdf:resource="http://purl.org/dc/dcmitype/StillImage" />
      </cc:Work>
    </rdf:RDF>
  </metadata>
  <defs
     id="defs1193" />
  <sodipodi:namedview
     pagecolor="#FED100"
     bordercolor="#666666"
     borderopacity="1"
     objecttolerance="10"
     gridtolerance="10"
     guidetolerance="10"
     inkscape:pageopacity="0"
     inkscape:pageshadow="2"
     inkscape:window-width="1551"
     inkscape:window-height="836"
     id="namedview1191"
     showgrid="false"
     inkscape:zoom="1.6778169"
     inkscape:cx="284"
     inkscape:cy="176"
     inkscape:window-x="49"
     inkscape:window-y="27"
     inkscape:window-maximized="1"
     inkscape:current-layer="svg1189" />
  <g
     transform="translate(-3.0000, -110.0000)"
     id="g1187"
     style="fill:#FED100">
    <path
       d="M 288.0000,462.0000 C 171.0000,462.0000 70.0000,440.0000 35.0000,406.0000 C 15.0000,388.0000 3.0000,364.0000 3.0000,338.0000 C 3.0000,290.0000 44.0000,249.0000 97.0000,244.0000 C 99.0000,203.0000 135.0000,170.0000 180.0000,170.0000 C 194.0000,170.0000 207.0000,173.0000 219.0000,179.0000 C 243.0000,137.0000 294.0000,110.0000 348.0000,110.0000 C 427.0000,110.0000 492.0000,165.0000 492.0000,234.0000 C 492.0000,237.0000 492.0000,239.0000 492.0000,241.0000 C 539.0000,253.0000 571.0000,292.0000 571.0000,337.0000 C 571.0000,378.0000 543.0000,415.0000 502.0000,429.0000 C 453.0000,450.0000 373.0000,462.0000 288.0000,462.0000 Z M 180.0000,185.0000 C 143.0000,185.0000 111.0000,212.0000 111.0000,245.0000 C 111.0000,247.0000 111.0000,248.0000 111.0000,249.0000 C 112.0000,257.0000 112.0000,257.0000 112.0000,257.0000 C 105.0000,257.0000 105.0000,257.0000 105.0000,257.0000 C 56.0000,259.0000 18.0000,294.0000 18.0000,337.0000 C 18.0000,358.0000 27.0000,378.0000 45.0000,393.0000 C 45.0000,393.0000 45.0000,393.0000 45.0000,393.0000 C 71.0000,418.0000 157.0000,445.0000 287.0000,445.0000 C 371.0000,445.0000 449.0000,433.0000 496.0000,413.0000 C 497.0000,413.0000 497.0000,413.0000 497.0000,413.0000 C 533.0000,401.0000 557.0000,369.0000 557.0000,335.0000 C 557.0000,295.0000 526.0000,260.0000 483.0000,253.0000 C 476.0000,251.0000 476.0000,251.0000 476.0000,251.0000 C 477.0000,244.0000 477.0000,244.0000 477.0000,244.0000 C 478.0000,240.0000 478.0000,236.0000 478.0000,232.0000 C 478.0000,172.0000 419.0000,123.0000 348.0000,123.0000 C 295.0000,123.0000 249.0000,149.0000 229.0000,190.0000 C 226.0000,197.0000 226.0000,197.0000 226.0000,197.0000 C 219.0000,193.0000 219.0000,193.0000 219.0000,193.0000 C 207.0000,189.0000 194.0000,185.0000 180.0000,185.0000 Z "
       fill="#425353"
       stroke="none"
       id="path1185"
       style="fill:#FED100" />
  </g>
</svg>
