<?xml version="1.0" encoding="UTF-8" standalone="no"?>
<svg
   xmlns:dc="http://purl.org/dc/elements/1.1/"
   xmlns:cc="http://creativecommons.org/ns#"
   xmlns:rdf="http://www.w3.org/1999/02/22-rdf-syntax-ns#"
   xmlns:svg="http://www.w3.org/2000/svg"
   xmlns="http://www.w3.org/2000/svg"
   viewBox="0 0 58.040001 42.119999"
   height="42.119999"
   width="58.040001"
   xml:space="preserve"
   id="svg2"
   version="1.1"><metadata
     id="metadata8"><rdf:RDF><cc:Work
         rdf:about=""><dc:format>image/svg+xml</dc:format><dc:type
           rdf:resource="http://purl.org/dc/dcmitype/StillImage" /></cc:Work></rdf:RDF></metadata><defs
     id="defs6" /><g
     transform="matrix(1.3333333,0,0,-1.3333333,0,42.12)"
     id="g10"><g
       transform="scale(0.1)"
       id="g12"><path
         id="path14"
         style="fill:#FFAA00;fill-opacity:1;fill-rule:nonzero;stroke:none"
         d="M 5.65625,6.46484 H 387.141 V 257.102 H 5.65625 V 6.46484" /><path
         id="path16"
         style="fill:none;stroke:#ffffff;stroke-width:4;stroke-linecap:butt;stroke-linejoin:miter;stroke-miterlimit:4;stroke-dasharray:none;stroke-opacity:1"
         d="M 5.65625,6.46484 H 387.141 V 257.102 H 5.65625 Z" /><path
         id="path18"
         style="fill:#FFAA00;fill-opacity:1;fill-rule:nonzero;stroke:none"
         d="M 431.027,70.6641 387.141,6.46484 V 257.102 l 43.886,53.211 V 70.6641" /><path
         id="path20"
         style="fill:none;stroke:#ffffff;stroke-width:4;stroke-linecap:butt;stroke-linejoin:miter;stroke-miterlimit:4;stroke-dasharray:none;stroke-opacity:1"
         d="M 431.027,70.6641 387.141,6.46484 V 257.102 l 43.886,53.211 z" /><path
         id="path22"
         style="fill:#FFAA00;fill-opacity:1;fill-rule:nonzero;stroke:none"
         d="M 71.4883,310.313 H 431.027 L 387.141,257.102 H 5.65625 l 65.83205,53.211" /><path
         id="path24"
         style="fill:none;stroke:#ffffff;stroke-width:4;stroke-linecap:butt;stroke-linejoin:miter;stroke-miterlimit:4;stroke-dasharray:none;stroke-opacity:1"
         d="M 71.4883,310.313 H 431.027 L 387.141,257.102 H 5.65625 Z" /><path
         id="path26"
         style="fill:#ffffff;fill-opacity:1;fill-rule:nonzero;stroke:none"
         d="m 61.3984,191.223 -33.8867,-0.051 v 10.156 l 33.8867,0.039 0.0235,15.86 36.9961,-20.938 -36.9961,-20.945 -0.0235,15.879" /><path
         id="path28"
         style="fill:#ffffff;fill-opacity:1;fill-rule:nonzero;stroke:none"
         d="m 61.3984,127.891 -33.8867,-0.039 v 10.156 l 33.8867,0.039 0.0235,15.84 36.9961,-20.938 -36.9961,-20.937 -0.0235,15.879" /><path
         id="path30"
         style="fill:#ffffff;fill-opacity:1;fill-rule:nonzero;stroke:none"
         d="M 61.3984,64.5508 27.5117,64.5117 V 74.668 L 61.3984,74.707 61.4219,90.5664 98.418,69.6094 61.4219,48.6719 61.3984,64.5508" /><path
         id="path32"
         style="fill:#ffffff;fill-opacity:1;fill-rule:nonzero;stroke:none"
         d="m 346.875,127.246 -44.422,-0.058 v 10.156 l 44.422,0.039 0.02,15.859 37.003,-20.937 -37.003,-20.938 -0.02,15.879" /><path
         id="path34"
         style="fill:#ffffff;fill-opacity:1;fill-rule:nonzero;stroke:none"
         d="m 129.164,128.398 c 0,-40.5074 32.832,-73.3394 73.34,-73.3394 v 73.3394 h -73.34" /><path
         id="path36"
         style="fill:#ffffff;fill-opacity:1;fill-rule:nonzero;stroke:none"
         d="m 202.504,201.738 c 40.504,0 73.336,-32.832 73.336,-73.34 h -73.336 v 73.34" /></g></g></svg>