<?xml version="1.0" encoding="UTF-8" standalone="no"?>
<svg
   xmlns:dc="http://purl.org/dc/elements/1.1/"
   xmlns:cc="http://creativecommons.org/ns#"
   xmlns:rdf="http://www.w3.org/1999/02/22-rdf-syntax-ns#"
   xmlns:svg="http://www.w3.org/2000/svg"
   xmlns="http://www.w3.org/2000/svg"
   xmlns:sodipodi="http://sodipodi.sourceforge.net/DTD/sodipodi-0.dtd"
   xmlns:inkscape="http://www.inkscape.org/namespaces/inkscape"
   viewBox="0 0 63.293331 38.146667"
   height="38.146667"
   width="63.293331"
   xml:space="preserve"
   id="svg2"
   version="1.1"
   sodipodi:docname="mobile_access_router.svg"
   inkscape:version="0.92.3 (2405546, 2018-03-11)"><sodipodi:namedview
     pagecolor="#ffffff"
     bordercolor="#666666"
     borderopacity="1"
     objecttolerance="10"
     gridtolerance="10"
     guidetolerance="10"
     inkscape:pageopacity="0"
     inkscape:pageshadow="2"
     inkscape:window-width="1551"
     inkscape:window-height="836"
     id="namedview37"
     showgrid="false"
     inkscape:pagecheckerboard="true"
     inkscape:zoom="10.585633"
     inkscape:cx="32.024536"
     inkscape:cy="19.073334"
     inkscape:window-x="49"
     inkscape:window-y="27"
     inkscape:window-maximized="1"
     inkscape:current-layer="svg2" /><metadata
     id="metadata8"><rdf:RDF><cc:Work
         rdf:about=""><dc:format>image/svg+xml</dc:format><dc:type
           rdf:resource="http://purl.org/dc/dcmitype/StillImage" /><dc:title></dc:title></cc:Work></rdf:RDF></metadata><defs
     id="defs6" /><g
     id="g935"><path
       inkscape:connector-curvature="0"
       d="M 52.114532,37.146667 H 15.212533 l 10.316133,-6.22292 37.231732,-0.05052 -10.645866,6.27344"
       style="fill:none;fill-opacity:1;fill-rule:nonzero;stroke:none;stroke-width:0.13333333"
       id="path14" /><path
       inkscape:connector-curvature="0"
       d="M 52.114532,37.146667 H 15.212533 l 10.316133,-6.22292 37.231732,-0.05052 z"
       style="fill:none;stroke:#FFAA00;stroke-width:1.0666666;stroke-linecap:round;stroke-linejoin:round;stroke-miterlimit:4;stroke-dasharray:none;stroke-opacity:1"
       id="path16" /><path
       inkscape:connector-curvature="0"
       d="M 25.528666,30.923747 15.212533,37.146667 15.207333,6.5737345 25.530266,0.58933461 Z"
       style="fill:none;stroke:#FFAA00;stroke-width:1.0666666;stroke-linecap:round;stroke-linejoin:round;stroke-miterlimit:4;stroke-dasharray:none;stroke-opacity:1"
       id="path18" /><path
       inkscape:connector-curvature="0"
       d="M 0.53333332,22.779467 H 17.988533"
       style="fill:#ffffff;fill-opacity:1;fill-rule:nonzero;stroke:none;stroke-width:0.13333333"
       id="path20" /><path
       inkscape:connector-curvature="0"
       d="M 0.53333332,22.779467 H 17.988533"
       style="fill:none;stroke:#FFAA00;stroke-width:1.0666666;stroke-linecap:round;stroke-linejoin:miter;stroke-miterlimit:4;stroke-dasharray:none;stroke-opacity:1"
       id="path22" /><path
       inkscape:connector-curvature="0"
       d="M 17.9792,19.675334 H 2.1083333"
       style="fill:#ffffff;fill-opacity:1;fill-rule:nonzero;stroke:none;stroke-width:0.13333333"
       id="path24" /><path
       inkscape:connector-curvature="0"
       d="M 17.9792,19.675334 H 2.1083333"
       style="fill:none;stroke:#FFAA00;stroke-width:1.0666666;stroke-linecap:round;stroke-linejoin:miter;stroke-miterlimit:4;stroke-dasharray:none;stroke-opacity:1"
       id="path26" /><path
       inkscape:connector-curvature="0"
       d="M 20.532799,26.365414 H 5.3203065"
       style="fill:#ffffff;fill-opacity:1;fill-rule:nonzero;stroke:none;stroke-width:0.13333333"
       id="path28" /><path
       inkscape:connector-curvature="0"
       d="M 20.532799,26.365414 H 5.3203065"
       style="fill:none;stroke:#FFAA00;stroke-width:1.0666666;stroke-linecap:round;stroke-linejoin:miter;stroke-miterlimit:4;stroke-dasharray:none;stroke-opacity:1"
       id="path30" /><path
       inkscape:connector-curvature="0"
       d="M 18.9688,17.008668 H 7.6536398"
       style="fill:#ffffff;fill-opacity:1;fill-rule:nonzero;stroke:none;stroke-width:0.13333333"
       id="path32" /><path
       inkscape:connector-curvature="0"
       d="M 18.9688,17.008668 H 7.6536398"
       style="fill:none;stroke:#FFAA00;stroke-width:1.0666666;stroke-linecap:round;stroke-linejoin:miter;stroke-miterlimit:4;stroke-dasharray:none;stroke-opacity:1"
       id="path34" /><path
       inkscape:connector-curvature="0"
       d="m 57.113599,14.698801 c 0,4.056133 -8.4548,7.343733 -18.882933,7.343733 -10.4296,0 -18.883733,-3.2876 -18.883733,-7.343733 v 10.75672 c 0,4.055733 8.454133,7.342186 18.883733,7.342186 10.428133,0 18.882933,-3.286453 18.882933,-7.342186 v -10.75672"
       style="fill:#FFAA00;fill-opacity:1;fill-rule:nonzero;stroke:none;stroke-width:0.13333333"
       id="path36" /><path
       inkscape:connector-curvature="0"
       d="m 57.113599,14.698801 c 0,4.056133 -8.4548,7.343733 -18.882933,7.343733 -10.4296,0 -18.883733,-3.2876 -18.883733,-7.343733 v 10.75672 c 0,4.055733 8.454133,7.342186 18.883733,7.342186 10.428133,0 18.882933,-3.286453 18.882933,-7.342186 z"
       style="fill:none;stroke:#ffffff;stroke-width:0.41066664;stroke-linecap:butt;stroke-linejoin:miter;stroke-miterlimit:4;stroke-dasharray:none;stroke-opacity:1"
       id="path38" /><path
       inkscape:connector-curvature="0"
       d="m 38.230666,22.042534 c 10.428133,0 18.882933,-3.2876 18.882933,-7.343733 0,-4.055733 -8.4548,-7.3427999 -18.882933,-7.3427999 -10.4296,0 -18.883733,3.2870669 -18.883733,7.3427999 0,4.056133 8.454133,7.343733 18.883733,7.343733"
       style="fill:#FFAA00;fill-opacity:1;fill-rule:nonzero;stroke:none;stroke-width:0.13333333"
       id="path40" /><path
       inkscape:connector-curvature="0"
       d="m 38.230666,22.042534 c 10.428133,0 18.882933,-3.2876 18.882933,-7.343733 0,-4.055733 -8.4548,-7.3427999 -18.882933,-7.3427999 -10.4296,0 -18.883733,3.2870669 -18.883733,7.3427999 0,4.056133 8.454133,7.343733 18.883733,7.343733 z"
       style="fill:none;stroke:#ffffff;stroke-width:0.41066664;stroke-linecap:butt;stroke-linejoin:miter;stroke-miterlimit:4;stroke-dasharray:none;stroke-opacity:1"
       id="path42" /><path
       inkscape:connector-curvature="0"
       d="m 33.918266,11.827868 1.558266,2.3396 -5.894799,1.362 1.288,-1.072934 -9.111334,-1.5572 2.285867,-1.713066 8.791733,1.488533 1.082267,-0.846933"
       style="fill:#ffffff;fill-opacity:1;fill-rule:nonzero;stroke:none;stroke-width:0.13333333"
       id="path44" /><path
       inkscape:connector-curvature="0"
       d="m 42.213599,17.499734 -1.0636,-2.411466 5.317733,-1.062934 -0.921866,0.827067 8.861999,1.513067 -2.126666,1.701466 -8.809867,-1.654666 -1.257733,1.087466"
       style="fill:#ffffff;fill-opacity:1;fill-rule:nonzero;stroke:none;stroke-width:0.13333333"
       id="path46" /><path
       inkscape:connector-curvature="0"
       d="m 39.306266,10.550268 5.955733,-1.6301336 0.06973,2.5525336 -1.488,-0.283867 -2.906266,2.411467 -2.7744,-0.404667 3.000933,-2.358267 -1.857733,-0.287066"
       style="fill:#ffffff;fill-opacity:1;fill-rule:nonzero;stroke:none;stroke-width:0.13333333"
       id="path48" /><path
       inkscape:connector-curvature="0"
       d="m 36.752666,19.698801 -5.670933,1.0624 -0.212934,-2.6224 1.6296,0.352666 3.1224,-2.665066 2.7636,0.466133 -3.332267,2.9088 1.700534,0.497467"
       style="fill:#ffffff;fill-opacity:1;fill-rule:nonzero;stroke:none;stroke-width:0.13333333"
       id="path50" /><path
       inkscape:connector-curvature="0"
       d="m 62.760398,30.873227 -10.645866,6.27344 -0.0052,-30.5729325 10.638,-6.04426656 z"
       style="fill:none;stroke:#FFAA00;stroke-width:1.0666666;stroke-linecap:round;stroke-linejoin:round;stroke-miterlimit:4;stroke-dasharray:none;stroke-opacity:1"
       id="path52" /><path
       inkscape:connector-curvature="0"
       d="M 52.109332,6.5737345 H 15.207333 L 25.530266,0.58933461 62.747332,0.52946794 Z"
       style="fill:none;stroke:#FFAA00;stroke-width:1.0666666;stroke-linecap:round;stroke-linejoin:round;stroke-miterlimit:4;stroke-dasharray:none;stroke-opacity:1"
       id="path54" /><g
       id="g56"
       transform="matrix(1.3333333,0,0,-1.3333333,0,38.146667)"><text
   transform="matrix(1,0,0,-1,16.8,7.67383)"
   style="font-variant:normal;font-weight:bold;font-size:6px;font-family:Helvetica;-inkscape-font-specification:Helvetica-Bold;writing-mode:lr-tb;fill:#ffffff;fill-opacity:1;fill-rule:nonzero;stroke:none"
   id="text68"><tspan
     x="0"
     y="0"
     id="tspan58">8</tspan><tspan
     x="3.67734"
     y="1.28125"
     id="tspan60">0</tspan><tspan
     x="7.5 10.836"
     y="2.038281"
     id="tspan62">2.</tspan><tspan
     x="13"
     y="2.0722654"
     id="tspan64">1</tspan><tspan
     x="16.533199"
     y="1.5011714"
     id="tspan66">1</tspan></text>

</g><path
       inkscape:connector-curvature="0"
       d="M 52.114532,37.146667 H 15.212533 l -0.0052,-30.5729325 h 36.901999 z"
       style="fill:none;stroke:#ffffff;stroke-width:2;stroke-linecap:round;stroke-linejoin:round;stroke-miterlimit:4;stroke-dasharray:none;stroke-opacity:1"
       id="path70" /><path
       inkscape:connector-curvature="0"
       d="M 52.114532,37.146667 H 15.212533 l -0.0052,-30.5729325 h 36.901999 z"
       style="fill:none;stroke:#FFAA00;stroke-width:1.0666666;stroke-linecap:round;stroke-linejoin:round;stroke-miterlimit:4;stroke-dasharray:none;stroke-opacity:1"
       id="path72" /></g></svg>