<?xml version="1.0"  encoding="UTF-8" standalone="no"?>
<svg version="1.1" xmlns="http://www.w3.org/2000/svg" xmlns:xlink="http://www.w3.org/1999/xlink" width="793.0000" height="666.0000">
<g transform="translate(105.0000, 55.0000)">
<path d="M -105.0000,140.0000 L 251.0000,140.0000 L 251.0000,-55.0000 L -105.0000,-55.0000 L -105.0000,140.0000 Z "  fill="#707070" stroke-width="1px" stroke="#FFFFFF" />
<path d="M -105.0000,375.0000 L 28.0000,375.0000 L 28.0000,180.0000 L -105.0000,180.0000 L -105.0000,375.0000 Z "  fill="#707070" stroke-width="1px" stroke="#FFFFFF" />
<path d="M -105.0000,608.0000 L 252.0000,608.0000 L 252.0000,413.0000 L -105.0000,413.0000 L -105.0000,608.0000 Z "  fill="#707070" stroke-width="1px" stroke="#FFFFFF" />
<path d="M 415.0000,608.0000 C 415.0000,606.0000 414.0000,604.0000 414.0000,602.0000 C 414.0000,565.0000 414.0000,565.0000 414.0000,565.0000 C 343.0000,565.0000 343.0000,565.0000 343.0000,565.0000 C 325.0000,565.0000 311.0000,550.0000 311.0000,532.0000 C 311.0000,512.0000 311.0000,512.0000 311.0000,512.0000 C 311.0000,512.0000 306.0000,512.0000 301.0000,512.0000 C 301.0000,608.0000 301.0000,608.0000 301.0000,608.0000 Z "  fill="#707070" stroke="none" />
<path d="M 73.0000,375.0000 L 258.0000,375.0000 L 258.0000,180.0000 L 73.0000,180.0000 L 73.0000,375.0000 Z "  fill="#707070" stroke-width="1px" stroke="#FFFFFF" />
<path d="M 300.0000,-55.0000 C 300.0000,140.0000 300.0000,140.0000 300.0000,140.0000 C 311.0000,140.0000 311.0000,140.0000 311.0000,140.0000 C 311.0000,125.0000 311.0000,125.0000 311.0000,125.0000 C 311.0000,107.0000 325.0000,92.0000 343.0000,92.0000 C 414.0000,92.0000 414.0000,92.0000 414.0000,92.0000 C 414.0000,53.0000 414.0000,53.0000 414.0000,53.0000 C 414.0000,35.0000 429.0000,20.0000 447.0000,20.0000 C 656.0000,20.0000 656.0000,20.0000 656.0000,20.0000 C 656.0000,-55.0000 656.0000,-55.0000 656.0000,-55.0000 Z "  fill="#707070" stroke="none" />
<path d="M 682.0000,49.0000 C 447.0000,49.0000 447.0000,49.0000 447.0000,49.0000 C 444.0000,49.0000 441.0000,52.0000 441.0000,55.0000 C 441.0000,605.0000 441.0000,605.0000 441.0000,605.0000 C 441.0000,608.0000 444.0000,611.0000 447.0000,611.0000 C 682.0000,611.0000 682.0000,611.0000 682.0000,611.0000 C 685.0000,611.0000 688.0000,608.0000 688.0000,605.0000 C 688.0000,55.0000 688.0000,55.0000 688.0000,55.0000 C 688.0000,52.0000 685.0000,49.0000 682.0000,49.0000 Z M 543.0000,326.0000 C 542.0000,327.0000 540.0000,328.0000 538.0000,328.0000 C 538.0000,328.0000 538.0000,328.0000 538.0000,328.0000 C 531.0000,327.0000 524.0000,327.0000 517.0000,327.0000 C 499.0000,327.0000 499.0000,327.0000 499.0000,327.0000 C 493.0000,327.0000 486.0000,327.0000 479.0000,327.0000 C 472.0000,327.0000 472.0000,325.0000 472.0000,319.0000 C 472.0000,316.0000 472.0000,314.0000 473.0000,312.0000 C 475.0000,311.0000 476.0000,310.0000 479.0000,310.0000 C 500.0000,311.0000 520.0000,311.0000 538.0000,310.0000 C 538.0000,310.0000 538.0000,310.0000 538.0000,310.0000 C 545.0000,310.0000 545.0000,315.0000 545.0000,318.0000 C 545.0000,319.0000 545.0000,319.0000 545.0000,319.0000 C 545.0000,321.0000 545.0000,324.0000 543.0000,326.0000 Z M 545.0000,354.0000 C 545.0000,355.0000 545.0000,355.0000 545.0000,355.0000 C 545.0000,357.0000 545.0000,360.0000 543.0000,361.0000 C 542.0000,363.0000 541.0000,363.0000 538.0000,363.0000 C 517.0000,363.0000 498.0000,363.0000 479.0000,363.0000 C 479.0000,363.0000 479.0000,363.0000 479.0000,363.0000 C 472.0000,363.0000 472.0000,358.0000 472.0000,355.0000 C 472.0000,352.0000 472.0000,350.0000 473.0000,348.0000 C 475.0000,346.0000 477.0000,346.0000 479.0000,346.0000 C 486.0000,346.0000 493.0000,346.0000 500.0000,346.0000 C 509.0000,346.0000 509.0000,346.0000 509.0000,346.0000 C 517.0000,346.0000 517.0000,346.0000 517.0000,346.0000 C 524.0000,346.0000 531.0000,346.0000 538.0000,346.0000 C 541.0000,346.0000 542.0000,346.0000 543.0000,348.0000 C 545.0000,349.0000 545.0000,352.0000 545.0000,354.0000 Z M 472.0000,283.0000 C 472.0000,281.0000 472.0000,278.0000 473.0000,277.0000 C 475.0000,275.0000 476.0000,275.0000 479.0000,275.0000 C 486.0000,275.0000 493.0000,275.0000 500.0000,275.0000 C 509.0000,275.0000 509.0000,275.0000 509.0000,275.0000 C 512.0000,275.0000 515.0000,275.0000 517.0000,275.0000 C 524.0000,275.0000 531.0000,275.0000 538.0000,275.0000 C 540.0000,275.0000 542.0000,275.0000 543.0000,276.0000 C 545.0000,278.0000 545.0000,281.0000 545.0000,283.0000 C 545.0000,284.0000 545.0000,284.0000 545.0000,284.0000 C 545.0000,286.0000 545.0000,289.0000 543.0000,290.0000 C 542.0000,291.0000 541.0000,292.0000 538.0000,292.0000 C 538.0000,292.0000 538.0000,292.0000 538.0000,292.0000 C 519.0000,292.0000 499.0000,292.0000 479.0000,292.0000 C 472.0000,292.0000 472.0000,287.0000 472.0000,283.0000 C 474.0000,283.0000 474.0000,283.0000 474.0000,283.0000 C 474.0000,283.0000 474.0000,283.0000 474.0000,283.0000 Z M 543.0000,255.0000 C 542.0000,256.0000 540.0000,256.0000 538.0000,256.0000 C 538.0000,256.0000 538.0000,256.0000 538.0000,256.0000 C 531.0000,256.0000 524.0000,256.0000 517.0000,256.0000 C 514.0000,256.0000 511.0000,256.0000 509.0000,256.0000 C 500.0000,256.0000 500.0000,256.0000 500.0000,256.0000 C 493.0000,256.0000 486.0000,256.0000 479.0000,256.0000 C 477.0000,256.0000 475.0000,256.0000 474.0000,255.0000 C 472.0000,253.0000 472.0000,250.0000 472.0000,248.0000 C 472.0000,245.0000 472.0000,243.0000 473.0000,241.0000 C 475.0000,240.0000 476.0000,239.0000 479.0000,239.0000 C 501.0000,239.0000 520.0000,239.0000 538.0000,239.0000 C 538.0000,239.0000 538.0000,239.0000 538.0000,239.0000 C 545.0000,239.0000 545.0000,244.0000 545.0000,247.0000 C 545.0000,248.0000 545.0000,248.0000 545.0000,248.0000 C 545.0000,250.0000 545.0000,253.0000 543.0000,255.0000 Z M 472.0000,212.0000 C 472.0000,211.0000 472.0000,211.0000 472.0000,211.0000 C 472.0000,208.0000 472.0000,203.0000 479.0000,203.0000 C 479.0000,203.0000 479.0000,203.0000 479.0000,203.0000 C 499.0000,203.0000 519.0000,203.0000 538.0000,203.0000 C 538.0000,203.0000 538.0000,203.0000 538.0000,203.0000 C 541.0000,203.0000 542.0000,203.0000 543.0000,205.0000 C 545.0000,206.0000 545.0000,209.0000 545.0000,211.0000 C 545.0000,212.0000 545.0000,212.0000 545.0000,212.0000 C 545.0000,214.0000 545.0000,217.0000 543.0000,218.0000 C 542.0000,220.0000 541.0000,220.0000 538.0000,220.0000 C 538.0000,220.0000 538.0000,220.0000 538.0000,220.0000 C 531.0000,220.0000 524.0000,220.0000 517.0000,220.0000 C 508.0000,220.0000 508.0000,220.0000 508.0000,220.0000 C 500.0000,220.0000 500.0000,220.0000 500.0000,220.0000 C 493.0000,220.0000 486.0000,220.0000 479.0000,220.0000 C 476.0000,220.0000 475.0000,220.0000 473.0000,218.0000 C 472.0000,217.0000 472.0000,214.0000 472.0000,212.0000 Z M 473.0000,98.0000 C 475.0000,97.0000 477.0000,96.0000 479.0000,96.0000 C 500.0000,96.0000 519.0000,96.0000 538.0000,96.0000 C 540.0000,96.0000 542.0000,97.0000 543.0000,98.0000 C 545.0000,100.0000 545.0000,102.0000 545.0000,105.0000 C 545.0000,105.0000 545.0000,105.0000 545.0000,105.0000 C 545.0000,108.0000 545.0000,110.0000 543.0000,112.0000 C 542.0000,113.0000 541.0000,113.0000 538.0000,113.0000 C 538.0000,113.0000 538.0000,113.0000 538.0000,113.0000 C 531.0000,113.0000 524.0000,113.0000 517.0000,113.0000 C 509.0000,113.0000 509.0000,113.0000 509.0000,113.0000 C 500.0000,113.0000 500.0000,113.0000 500.0000,113.0000 C 493.0000,113.0000 486.0000,113.0000 479.0000,113.0000 C 477.0000,113.0000 475.0000,113.0000 474.0000,112.0000 C 472.0000,110.0000 472.0000,107.0000 472.0000,105.0000 C 472.0000,104.0000 472.0000,104.0000 472.0000,104.0000 C 472.0000,102.0000 472.0000,100.0000 473.0000,98.0000 Z M 472.0000,140.0000 C 472.0000,138.0000 472.0000,135.0000 473.0000,134.0000 C 475.0000,132.0000 477.0000,132.0000 479.0000,132.0000 C 486.0000,132.0000 493.0000,132.0000 500.0000,132.0000 C 508.0000,132.0000 508.0000,132.0000 508.0000,132.0000 C 517.0000,132.0000 517.0000,132.0000 517.0000,132.0000 C 524.0000,132.0000 531.0000,132.0000 538.0000,132.0000 C 540.0000,132.0000 542.0000,132.0000 543.0000,134.0000 C 545.0000,135.0000 545.0000,138.0000 545.0000,140.0000 C 545.0000,141.0000 545.0000,141.0000 545.0000,141.0000 C 545.0000,144.0000 545.0000,149.0000 538.0000,149.0000 C 538.0000,149.0000 538.0000,149.0000 538.0000,149.0000 C 520.0000,149.0000 501.0000,149.0000 479.0000,149.0000 C 479.0000,149.0000 479.0000,149.0000 479.0000,149.0000 C 472.0000,149.0000 472.0000,144.0000 472.0000,140.0000 Z M 472.0000,176.0000 C 472.0000,173.0000 472.0000,171.0000 473.0000,169.0000 C 475.0000,168.0000 477.0000,167.0000 479.0000,167.0000 C 486.0000,168.0000 493.0000,167.0000 500.0000,167.0000 C 509.0000,167.0000 509.0000,167.0000 509.0000,167.0000 C 512.0000,167.0000 514.0000,167.0000 517.0000,167.0000 C 524.0000,168.0000 531.0000,168.0000 538.0000,167.0000 C 540.0000,167.0000 542.0000,168.0000 543.0000,169.0000 C 545.0000,171.0000 545.0000,173.0000 545.0000,176.0000 C 545.0000,179.0000 545.0000,181.0000 543.0000,183.0000 C 542.0000,184.0000 541.0000,185.0000 538.0000,185.0000 C 538.0000,185.0000 538.0000,185.0000 538.0000,185.0000 C 525.0000,184.0000 513.0000,184.0000 500.0000,184.0000 C 493.0000,184.0000 486.0000,184.0000 479.0000,184.0000 C 472.0000,184.0000 472.0000,182.0000 472.0000,176.0000 Z "  fill="#707070" stroke="none" />
<path d="M 421.0000,535.0000 C 421.0000,128.0000 421.0000,128.0000 421.0000,128.0000 C 421.0000,124.0000 418.0000,122.0000 415.0000,122.0000 C 343.0000,122.0000 343.0000,122.0000 343.0000,122.0000 C 340.0000,122.0000 337.0000,124.0000 337.0000,128.0000 C 337.0000,535.0000 337.0000,535.0000 337.0000,535.0000 C 337.0000,538.0000 340.0000,541.0000 343.0000,541.0000 C 415.0000,541.0000 415.0000,541.0000 415.0000,541.0000 C 418.0000,541.0000 421.0000,538.0000 421.0000,535.0000 Z M 359.0000,149.0000 C 373.0000,149.0000 387.0000,149.0000 401.0000,149.0000 C 403.0000,149.0000 405.0000,150.0000 406.0000,151.0000 C 407.0000,152.0000 408.0000,154.0000 408.0000,156.0000 C 408.0000,157.0000 408.0000,160.0000 406.0000,161.0000 C 405.0000,162.0000 403.0000,163.0000 401.0000,163.0000 C 396.0000,163.0000 391.0000,163.0000 386.0000,163.0000 C 380.0000,163.0000 380.0000,163.0000 380.0000,163.0000 C 374.0000,163.0000 374.0000,163.0000 374.0000,163.0000 C 369.0000,163.0000 364.0000,163.0000 359.0000,163.0000 C 359.0000,163.0000 359.0000,163.0000 359.0000,163.0000 C 357.0000,163.0000 355.0000,162.0000 354.0000,161.0000 C 352.0000,159.0000 352.0000,157.0000 352.0000,156.0000 C 352.0000,149.0000 358.0000,149.0000 359.0000,149.0000 Z M 354.0000,257.0000 C 355.0000,256.0000 357.0000,256.0000 359.0000,256.0000 C 374.0000,256.0000 388.0000,256.0000 401.0000,256.0000 C 403.0000,256.0000 405.0000,256.0000 406.0000,257.0000 C 408.0000,259.0000 408.0000,261.0000 408.0000,263.0000 C 408.0000,265.0000 407.0000,267.0000 406.0000,268.0000 C 405.0000,270.0000 403.0000,270.0000 401.0000,270.0000 C 401.0000,270.0000 401.0000,270.0000 401.0000,270.0000 C 396.0000,270.0000 391.0000,270.0000 386.0000,270.0000 C 380.0000,270.0000 380.0000,270.0000 380.0000,270.0000 C 374.0000,270.0000 374.0000,270.0000 374.0000,270.0000 C 369.0000,270.0000 364.0000,270.0000 359.0000,270.0000 C 357.0000,270.0000 355.0000,270.0000 354.0000,268.0000 C 352.0000,267.0000 352.0000,265.0000 352.0000,263.0000 C 352.0000,261.0000 352.0000,259.0000 354.0000,257.0000 Z M 352.0000,236.0000 C 352.0000,235.0000 352.0000,233.0000 354.0000,231.0000 C 355.0000,229.0000 358.0000,229.0000 359.0000,229.0000 C 373.0000,229.0000 387.0000,229.0000 401.0000,229.0000 C 402.0000,229.0000 404.0000,229.0000 406.0000,231.0000 C 407.0000,232.0000 408.0000,234.0000 408.0000,236.0000 C 408.0000,238.0000 407.0000,240.0000 406.0000,241.0000 C 405.0000,243.0000 403.0000,243.0000 401.0000,243.0000 C 401.0000,243.0000 401.0000,243.0000 400.0000,243.0000 C 396.0000,243.0000 391.0000,243.0000 386.0000,243.0000 C 380.0000,243.0000 380.0000,243.0000 380.0000,243.0000 C 374.0000,243.0000 374.0000,243.0000 374.0000,243.0000 C 369.0000,243.0000 364.0000,243.0000 359.0000,243.0000 C 358.0000,243.0000 355.0000,243.0000 354.0000,241.0000 C 353.0000,240.0000 352.0000,238.0000 352.0000,236.0000 Z M 406.0000,215.0000 C 405.0000,216.0000 403.0000,216.0000 401.0000,216.0000 C 396.0000,216.0000 391.0000,216.0000 386.0000,216.0000 C 380.0000,216.0000 380.0000,216.0000 380.0000,216.0000 C 373.0000,216.0000 373.0000,216.0000 373.0000,216.0000 C 369.0000,216.0000 364.0000,216.0000 359.0000,216.0000 C 359.0000,216.0000 359.0000,216.0000 359.0000,216.0000 C 357.0000,216.0000 355.0000,216.0000 354.0000,215.0000 C 352.0000,213.0000 352.0000,211.0000 352.0000,209.0000 C 352.0000,207.0000 352.0000,205.0000 354.0000,204.0000 C 355.0000,203.0000 357.0000,202.0000 359.0000,202.0000 C 373.0000,202.0000 387.0000,202.0000 401.0000,202.0000 C 403.0000,202.0000 405.0000,203.0000 406.0000,204.0000 C 408.0000,205.0000 408.0000,207.0000 408.0000,209.0000 C 408.0000,211.0000 408.0000,213.0000 406.0000,215.0000 Z M 354.0000,284.0000 C 355.0000,283.0000 357.0000,282.0000 359.0000,282.0000 C 364.0000,282.0000 369.0000,282.0000 374.0000,282.0000 C 380.0000,282.0000 380.0000,282.0000 380.0000,282.0000 C 386.0000,282.0000 386.0000,282.0000 386.0000,282.0000 C 391.0000,282.0000 396.0000,282.0000 401.0000,282.0000 C 403.0000,282.0000 405.0000,283.0000 406.0000,284.0000 C 408.0000,285.0000 408.0000,288.0000 408.0000,289.0000 C 408.0000,291.0000 408.0000,293.0000 406.0000,295.0000 C 405.0000,296.0000 403.0000,296.0000 401.0000,296.0000 C 401.0000,296.0000 401.0000,296.0000 401.0000,296.0000 C 387.0000,296.0000 373.0000,296.0000 359.0000,296.0000 C 357.0000,296.0000 355.0000,296.0000 354.0000,295.0000 C 352.0000,293.0000 352.0000,291.0000 352.0000,289.0000 C 352.0000,288.0000 352.0000,285.0000 354.0000,284.0000 Z M 359.0000,336.0000 C 373.0000,336.0000 387.0000,336.0000 401.0000,336.0000 C 401.0000,336.0000 401.0000,336.0000 401.0000,336.0000 C 405.0000,336.0000 408.0000,338.0000 408.0000,343.0000 C 408.0000,345.0000 407.0000,347.0000 406.0000,348.0000 C 405.0000,349.0000 403.0000,349.0000 401.0000,349.0000 C 401.0000,349.0000 401.0000,349.0000 401.0000,349.0000 C 396.0000,349.0000 391.0000,349.0000 386.0000,349.0000 C 380.0000,349.0000 380.0000,349.0000 380.0000,349.0000 C 374.0000,349.0000 374.0000,349.0000 374.0000,349.0000 C 369.0000,349.0000 364.0000,349.0000 359.0000,349.0000 C 358.0000,349.0000 356.0000,349.0000 354.0000,348.0000 C 353.0000,347.0000 352.0000,345.0000 352.0000,343.0000 C 352.0000,338.0000 355.0000,336.0000 359.0000,336.0000 Z M 352.0000,316.0000 C 352.0000,316.0000 352.0000,316.0000 352.0000,316.0000 C 352.0000,312.0000 354.0000,309.0000 359.0000,309.0000 C 359.0000,309.0000 359.0000,309.0000 359.0000,309.0000 C 373.0000,309.0000 387.0000,309.0000 401.0000,309.0000 C 401.0000,309.0000 401.0000,309.0000 401.0000,309.0000 C 404.0000,309.0000 405.0000,310.0000 406.0000,311.0000 C 408.0000,313.0000 408.0000,315.0000 408.0000,316.0000 C 408.0000,319.0000 407.0000,320.0000 406.0000,321.0000 C 405.0000,323.0000 402.0000,323.0000 401.0000,323.0000 C 396.0000,323.0000 391.0000,323.0000 386.0000,323.0000 C 380.0000,323.0000 380.0000,323.0000 380.0000,323.0000 C 374.0000,323.0000 374.0000,323.0000 374.0000,323.0000 C 369.0000,323.0000 364.0000,323.0000 359.0000,323.0000 C 359.0000,323.0000 359.0000,323.0000 359.0000,323.0000 C 357.0000,323.0000 355.0000,323.0000 354.0000,321.0000 C 353.0000,320.0000 352.0000,319.0000 352.0000,316.0000 Z M 354.0000,177.0000 C 356.0000,176.0000 358.0000,176.0000 359.0000,176.0000 C 373.0000,176.0000 387.0000,176.0000 401.0000,176.0000 C 402.0000,175.0000 404.0000,176.0000 406.0000,177.0000 C 408.0000,179.0000 408.0000,181.0000 408.0000,183.0000 C 408.0000,185.0000 407.0000,187.0000 406.0000,188.0000 C 405.0000,190.0000 402.0000,190.0000 401.0000,190.0000 C 401.0000,190.0000 401.0000,190.0000 400.0000,190.0000 C 396.0000,190.0000 391.0000,190.0000 386.0000,190.0000 C 380.0000,190.0000 380.0000,190.0000 380.0000,190.0000 C 374.0000,190.0000 374.0000,190.0000 374.0000,190.0000 C 369.0000,190.0000 364.0000,190.0000 359.0000,190.0000 C 357.0000,190.0000 355.0000,189.0000 354.0000,188.0000 C 352.0000,187.0000 352.0000,184.0000 352.0000,183.0000 C 352.0000,181.0000 352.0000,179.0000 354.0000,177.0000 Z "  fill="#707070" stroke="none" />
<path d="M 317.0000,182.0000 C 317.0000,178.0000 314.0000,176.0000 311.0000,176.0000 C 291.0000,176.0000 291.0000,176.0000 291.0000,176.0000 C 287.0000,176.0000 284.0000,178.0000 284.0000,182.0000 C 284.0000,482.0000 284.0000,482.0000 284.0000,482.0000 C 284.0000,485.0000 287.0000,488.0000 291.0000,488.0000 C 311.0000,488.0000 311.0000,488.0000 311.0000,488.0000 C 314.0000,488.0000 317.0000,485.0000 317.0000,482.0000 Z "  fill="#707070" stroke="none" />
</g>
</svg>
