<?xml version="1.0" encoding="UTF-8" standalone="no"?>
<svg
   xmlns:dc="http://purl.org/dc/elements/1.1/"
   xmlns:cc="http://creativecommons.org/ns#"
   xmlns:rdf="http://www.w3.org/1999/02/22-rdf-syntax-ns#"
   xmlns:svg="http://www.w3.org/2000/svg"
   xmlns="http://www.w3.org/2000/svg"
   viewBox="0 0 45.106667 24.333332"
   height="24.333332"
   width="45.106667"
   xml:space="preserve"
   id="svg2"
   version="1.1"><metadata
     id="metadata8"><rdf:RDF><cc:Work
         rdf:about=""><dc:format>image/svg+xml</dc:format><dc:type
           rdf:resource="http://purl.org/dc/dcmitype/StillImage" /></cc:Work></rdf:RDF></metadata><defs
     id="defs6" /><g
     transform="matrix(1.3333333,0,0,-1.3333333,0,24.333333)"
     id="g10"><g
       transform="scale(0.1)"
       id="g12"><path
         id="path14"
         style="fill:#CC092F;fill-opacity:1;fill-rule:nonzero;stroke:none"
         d="M 332.988,18.4805 V 178.109 L 316.973,164.047 V 4.41797 l 16.015,14.06253" /><path
         id="path16"
         style="fill:none;stroke:#ffffff;stroke-width:4;stroke-linecap:butt;stroke-linejoin:miter;stroke-miterlimit:4;stroke-dasharray:none;stroke-opacity:1"
         d="M 332.988,18.4805 V 178.109 L 316.973,164.047 V 4.41797 Z" /><path
         id="path18"
         style="fill:#CC092F;fill-opacity:1;fill-rule:nonzero;stroke:none"
         d="m 5.33203,4.69141 h 311.289 v 159.063 H 5.33203 Z" /><path
         id="path20"
         style="fill:none;stroke:#ffffff;stroke-width:4;stroke-linecap:butt;stroke-linejoin:miter;stroke-miterlimit:4;stroke-dasharray:none;stroke-opacity:1"
         d="M 316.621,4.69141 V 163.754 H 5.33203 V 4.69141 Z" /><path
         id="path22"
         style="fill:#CC092F;fill-opacity:1;fill-rule:nonzero;stroke:none"
         d="M 332.988,178.051 H 21.6992 L 5.33203,163.754 H 316.621 l 16.367,14.297" /><path
         id="path24"
         style="fill:none;stroke:#ffffff;stroke-width:4;stroke-linecap:butt;stroke-linejoin:miter;stroke-miterlimit:4;stroke-dasharray:none;stroke-opacity:1"
         d="M 332.988,178.051 H 21.6992 L 5.33203,163.754 H 316.621 Z" /><path
         id="path26"
         style="fill:#CC092F;fill-opacity:1;fill-rule:nonzero;stroke:none"
         d="M 332.988,178.051 316.621,163.754" /><path
         id="path28"
         style="fill:none;stroke:#ffffff;stroke-width:4;stroke-linecap:butt;stroke-linejoin:miter;stroke-miterlimit:4;stroke-dasharray:none;stroke-opacity:1"
         d="M 332.988,178.051 316.621,163.754" /><path
         id="path30"
         style="fill:none;stroke:#ffffff;stroke-width:4;stroke-linecap:butt;stroke-linejoin:miter;stroke-miterlimit:4;stroke-dasharray:none;stroke-opacity:1"
         d="m 187.676,135.355 16.367,14.297 c 57.793,-67.5465 13.32,-120.0973 13.32,-120.0973 h 76.66" /><path
         id="path32"
         style="fill:none;stroke:#ffffff;stroke-width:4;stroke-linecap:butt;stroke-linejoin:miter;stroke-miterlimit:4;stroke-dasharray:none;stroke-opacity:1"
         d="M 63.9844,137.113 47.6172,151.41 50.7031,29.5547 H 15.4102" /><path
         id="path34"
         style="fill:#CC092F;fill-opacity:1;fill-rule:nonzero;stroke:none"
         d="m 63.9844,118.793 c 0,15.957 16.5625,18.32 16.5625,18.32 0,0 82.4611,0 97.8321,0 20.078,0 19.492,-18.925 19.492,-18.925 0,0 0,-67.9692 0,-79.1997 0,-11.2305 -15.371,-15.957 -15.371,-15.957 0,0 -85.4102,0 -99.5898,0 -14.1993,0 -18.9258,14.7656 -18.9258,14.7656 v 80.9961" /><path
         id="path36"
         style="fill:none;stroke:#ffffff;stroke-width:4;stroke-linecap:butt;stroke-linejoin:miter;stroke-miterlimit:4;stroke-dasharray:none;stroke-opacity:1"
         d="m 63.9844,118.793 c 0,15.957 16.5625,18.32 16.5625,18.32 0,0 82.4611,0 97.8321,0 20.078,0 19.492,-18.925 19.492,-18.925 0,0 0,-67.9692 0,-79.1997 0,-11.2305 -15.371,-15.957 -15.371,-15.957 0,0 -85.4102,0 -99.5898,0 -14.1993,0 -18.9258,14.7656 -18.9258,14.7656 z" /><path
         id="path38"
         style="fill:#CC092F;fill-opacity:1;fill-rule:nonzero;stroke:none"
         d="m 294.023,129.555 h -76.66" /><path
         id="path40"
         style="fill:none;stroke:#ffffff;stroke-width:4;stroke-linecap:butt;stroke-linejoin:miter;stroke-miterlimit:4;stroke-dasharray:none;stroke-opacity:1"
         d="m 294.023,129.555 h -76.66" /><path
         id="path42"
         style="fill:#CC092F;fill-opacity:1;fill-rule:nonzero;stroke:none"
         d="M 50.7031,129.555 H 15.4102" /><path
         id="path44"
         style="fill:none;stroke:#ffffff;stroke-width:4;stroke-linecap:butt;stroke-linejoin:miter;stroke-miterlimit:4;stroke-dasharray:none;stroke-opacity:1"
         d="M 50.7031,129.555 H 15.4102" /><path
         id="path46"
         style="fill:none;stroke:#ffffff;stroke-width:4;stroke-linecap:butt;stroke-linejoin:miter;stroke-miterlimit:4;stroke-dasharray:none;stroke-opacity:1"
         d="M 47.6172,151.41 H 196.836" /></g></g></svg>