<?xml version="1.0" encoding="UTF-8" standalone="no"?>
<svg
   xmlns:dc="http://purl.org/dc/elements/1.1/"
   xmlns:cc="http://creativecommons.org/ns#"
   xmlns:rdf="http://www.w3.org/1999/02/22-rdf-syntax-ns#"
   xmlns:svg="http://www.w3.org/2000/svg"
   xmlns="http://www.w3.org/2000/svg"
   viewBox="0 0 58.720001 29.573334"
   height="29.573334"
   width="58.720001"
   xml:space="preserve"
   id="svg2"
   version="1.1"><metadata
     id="metadata8"><rdf:RDF><cc:Work
         rdf:about=""><dc:format>image/svg+xml</dc:format><dc:type
           rdf:resource="http://purl.org/dc/dcmitype/StillImage" /></cc:Work></rdf:RDF></metadata><defs
     id="defs6" /><g
     transform="matrix(1.3333333,0,0,-1.3333333,0,29.573333)"
     id="g10"><g
       transform="scale(0.1)"
       id="g12"><path
         id="path14"
         style="fill:#CC092F;fill-opacity:1;fill-rule:nonzero;stroke:none"
         d="M 327.961,8.13672 V 112.488 H 6.48047 V 8.13672 H 327.961" /><path
         id="path16"
         style="fill:none;stroke:#ffffff;stroke-width:4;stroke-linecap:butt;stroke-linejoin:miter;stroke-miterlimit:4;stroke-dasharray:none;stroke-opacity:1"
         d="M 327.961,8.13672 V 112.488 H 6.48047 V 8.13672 Z" /><path
         id="path18"
         style="fill:#CC092F;fill-opacity:1;fill-rule:nonzero;stroke:none"
         d="M 5.64453,111.965 135.504,217.207 H 435.469 L 327.656,111.965 H 5.64453" /><path
         id="path20"
         style="fill:none;stroke:#ffffff;stroke-width:4;stroke-linecap:butt;stroke-linejoin:miter;stroke-miterlimit:4;stroke-dasharray:none;stroke-opacity:1"
         d="M 5.64453,111.965 135.504,217.207 H 435.469 L 327.656,111.965 Z" /><path
         id="path22"
         style="fill:#CC092F;fill-opacity:1;fill-rule:nonzero;stroke:none"
         d="M 327.781,4.83594 435.168,112.473 435.234,217.023 327.781,112.109 V 4.83594" /><path
         id="path24"
         style="fill:none;stroke:#ffffff;stroke-width:4;stroke-linecap:butt;stroke-linejoin:miter;stroke-miterlimit:4;stroke-dasharray:none;stroke-opacity:1"
         d="M 327.781,4.83594 435.168,112.473 435.234,217.023 327.781,112.109 Z" /><path
         id="path26"
         style="fill:#ffffff;fill-opacity:1;fill-rule:nonzero;stroke:none"
         d="m 194.082,139.348 -6.234,-5.118 h -80.18 l -7.9883,-8 -21.7461,9.473 43.7034,12.5 -7.735,-8.855 h 80.18" /><path
         id="path28"
         style="fill:#ffffff;fill-opacity:1;fill-rule:nonzero;stroke:none"
         d="m 257.078,178.723 -6.23,-5.118 h -80.184 l -7.988,-8 -21.738,9.473 43.695,12.5 -7.735,-8.855 h 80.18" /><path
         id="path30"
         style="fill:#ffffff;fill-opacity:1;fill-rule:nonzero;stroke:none"
         d="m 208.23,153.262 6.235,5.109 h 80.183 l 7.989,7.996 21.75,-9.48 -43.711,-12.481 7.73,8.856 H 208.23" /><path
         id="path32"
         style="fill:#ffffff;fill-opacity:1;fill-rule:nonzero;stroke:none"
         d="m 249.852,192.637 6.234,5.109 h 80.184 l 7.996,7.996 21.742,-9.48 -43.711,-12.481 7.73,8.856 h -80.175" /><path
         id="path34"
         style="fill:#ffffff;fill-opacity:1;fill-rule:nonzero;stroke:none"
         d="m 167.109,54.5508 h 57.864 v -9.1485 l 21.832,13.4961 -21.832,13.5157 v -9.1407 h -57.864 v -8.7226" /><path
         id="path36"
         style="fill:#ffffff;fill-opacity:1;fill-rule:nonzero;stroke:none"
         d="M 165.77,69.543 220.145,88 l 3.363,-8.6055 15.562,19.6602 -25.48,5.7113 3.363,-8.5941 -54.379,-18.4453 3.196,-8.1836" /><path
         id="path38"
         style="fill:#ffffff;fill-opacity:1;fill-rule:nonzero;stroke:none"
         d="m 165.77,48.6055 54.375,-18.4571 3.363,8.6016 15.562,-19.6562 -25.48,-5.7227 3.363,8.6016 -54.379,18.4492 3.196,8.1836" /><path
         id="path40"
         style="fill:#ffffff;fill-opacity:1;fill-rule:nonzero;stroke:none"
         d="m 77.3867,54.5508 h 55.7813 v -9.1485 l 21.848,13.4961 -21.848,13.5157 V 63.2734 H 77.3867 v -8.7226" /></g></g></svg>