<?xml version="1.0" encoding="UTF-8" standalone="no"?>
<svg
   xmlns:dc="http://purl.org/dc/elements/1.1/"
   xmlns:cc="http://creativecommons.org/ns#"
   xmlns:rdf="http://www.w3.org/1999/02/22-rdf-syntax-ns#"
   xmlns:svg="http://www.w3.org/2000/svg"
   xmlns="http://www.w3.org/2000/svg"
   viewBox="0 0 46.68 36.919998"
   height="36.919998"
   width="46.68"
   xml:space="preserve"
   id="svg2"
   version="1.1"><metadata
     id="metadata8"><rdf:RDF><cc:Work
         rdf:about=""><dc:format>image/svg+xml</dc:format><dc:type
           rdf:resource="http://purl.org/dc/dcmitype/StillImage" /></cc:Work></rdf:RDF></metadata><defs
     id="defs6" /><g
     transform="matrix(1.3333333,0,0,-1.3333333,0,36.92)"
     id="g10"><g
       transform="scale(0.1)"
       id="g12"><path
         id="path14"
         style="fill:#CC092F;fill-opacity:1;fill-rule:nonzero;stroke:none"
         d="m 299.922,224.238 46.953,46.66 v 0.262 H 54.9883 L 5.05078,224.238 H 299.922" /><path
         id="path16"
         style="fill:none;stroke:#ffffff;stroke-width:4;stroke-linecap:butt;stroke-linejoin:miter;stroke-miterlimit:4;stroke-dasharray:none;stroke-opacity:1"
         d="m 299.922,224.238 46.953,46.66 v 0.262 H 54.9883 L 5.05078,224.238 Z" /><path
         id="path18"
         style="fill:#CC092F;fill-opacity:1;fill-rule:nonzero;stroke:none"
         d="M 301.492,4.82422 301.277,225.477 6.14453,225.906 V 4.82422 H 301.492" /><path
         id="path20"
         style="fill:none;stroke:#ffffff;stroke-width:4;stroke-linecap:butt;stroke-linejoin:miter;stroke-miterlimit:4;stroke-dasharray:none;stroke-opacity:1"
         d="M 301.492,4.82422 301.277,225.477 6.14453,225.906 V 4.82422 Z" /><path
         id="path22"
         style="fill:#CC092F;fill-opacity:1;fill-rule:nonzero;stroke:none"
         d="M 348.074,51.4141 348.047,272.129 301.277,225.477 301.492,4.82422 348.074,51.4141" /><path
         id="path24"
         style="fill:none;stroke:#ffffff;stroke-width:4;stroke-linecap:butt;stroke-linejoin:miter;stroke-miterlimit:4;stroke-dasharray:none;stroke-opacity:1"
         d="M 348.074,51.4141 348.047,272.129 301.277,225.477 301.492,4.82422 Z" /><path
         id="path26"
         style="fill:none;stroke:#ffffff;stroke-width:1.60000002;stroke-linecap:butt;stroke-linejoin:miter;stroke-miterlimit:4;stroke-dasharray:none;stroke-opacity:1"
         d="M 111.328,6.95313 V 225.906" /><path
         id="path28"
         style="fill:none;stroke:#ffffff;stroke-width:1.60000002;stroke-linecap:butt;stroke-linejoin:miter;stroke-miterlimit:4;stroke-dasharray:none;stroke-opacity:1"
         d="M 197.07,6.67188 V 225.906" /><path
         id="path30"
         style="fill:#000000;fill-opacity:1;fill-rule:nonzero;stroke:none"
         d="m 166.426,201.316 h -49.16" /><path
         id="path32"
         style="fill:none;stroke:#ffffff;stroke-width:10;stroke-linecap:butt;stroke-linejoin:miter;stroke-miterlimit:4;stroke-dasharray:none;stroke-opacity:1"
         d="m 166.426,201.316 h -49.16" /><path
         id="path34"
         style="fill:#ffffff;fill-opacity:1;fill-rule:nonzero;stroke:none"
         d="m 187.266,201.316 -28.477,-11.628 6.758,11.628 -6.758,11.633 28.477,-11.633" /><path
         id="path36"
         style="fill:#000000;fill-opacity:1;fill-rule:nonzero;stroke:none"
         d="m 166.426,159.59 h -49.16" /><path
         id="path38"
         style="fill:none;stroke:#ffffff;stroke-width:10;stroke-linecap:butt;stroke-linejoin:miter;stroke-miterlimit:4;stroke-dasharray:none;stroke-opacity:1"
         d="m 166.426,159.59 h -49.16" /><path
         id="path40"
         style="fill:#ffffff;fill-opacity:1;fill-rule:nonzero;stroke:none"
         d="m 187.266,159.59 -28.477,-11.641 6.758,11.641 -6.758,11.621 28.477,-11.621" /><path
         id="path42"
         style="fill:#000000;fill-opacity:1;fill-rule:nonzero;stroke:none"
         d="m 166.426,117.859 h -49.16" /><path
         id="path44"
         style="fill:none;stroke:#ffffff;stroke-width:10;stroke-linecap:butt;stroke-linejoin:miter;stroke-miterlimit:4;stroke-dasharray:none;stroke-opacity:1"
         d="m 166.426,117.859 h -49.16" /><path
         id="path46"
         style="fill:#ffffff;fill-opacity:1;fill-rule:nonzero;stroke:none"
         d="m 187.266,117.859 -28.477,-11.629 6.758,11.629 -6.758,11.633 28.477,-11.633" /><path
         id="path48"
         style="fill:#000000;fill-opacity:1;fill-rule:nonzero;stroke:none"
         d="m 166.426,76.1328 h -49.16" /><path
         id="path50"
         style="fill:none;stroke:#ffffff;stroke-width:10;stroke-linecap:butt;stroke-linejoin:miter;stroke-miterlimit:4;stroke-dasharray:none;stroke-opacity:1"
         d="m 166.426,76.1328 h -49.16" /><path
         id="path52"
         style="fill:#ffffff;fill-opacity:1;fill-rule:nonzero;stroke:none"
         d="m 187.266,76.1328 -28.477,-11.6289 6.758,11.6289 -6.758,11.6289 28.477,-11.6289" /><path
         id="path54"
         style="fill:none;stroke:#ffffff;stroke-width:10;stroke-linecap:butt;stroke-linejoin:miter;stroke-miterlimit:4;stroke-dasharray:none;stroke-opacity:1"
         d="M 169.883,29.4727 H 117.266" /><path
         id="path56"
         style="fill:#ffffff;fill-opacity:1;fill-rule:nonzero;stroke:none"
         d="m 187.266,29.4727 -28.477,-11.6407 6.758,11.6407 -6.758,11.6211 28.477,-11.6211" /><path
         id="path58"
         style="fill:#ffffff;fill-opacity:1;fill-rule:nonzero;stroke:none"
         d="M 8.66406,164.426 H 72.9688 l -0.254,-7.406 29.7852,20.636 -29.7852,20.633 0.254,-7.402 H 8.66406 v -26.461" /><path
         id="path60"
         style="fill:#ffffff;fill-opacity:1;fill-rule:nonzero;stroke:none"
         d="M 8.66406,103.75 H 72.9688 l -0.254,-7.4023 29.7852,20.6443 -29.7852,20.625 0.254,-7.402 H 8.66406 V 103.75" /><path
         id="path62"
         style="fill:#ffffff;fill-opacity:1;fill-rule:nonzero;stroke:none"
         d="m 202.324,127.605 h 64.309 l -0.246,-9.617 29.785,26.817 -29.785,26.836 0.246,-9.629 h -64.309 v -34.407" /><path
         id="path64"
         style="fill:#ffffff;fill-opacity:1;fill-rule:nonzero;stroke:none"
         d="m 202.324,48.75 h 64.309 l -0.246,-9.6289 29.785,26.8164 -29.785,26.8359 0.246,-9.6289 H 202.324 V 48.75" /><path
         id="path66"
         style="fill:#ffffff;fill-opacity:1;fill-rule:nonzero;stroke:none"
         d="M 8.66406,43.0859 H 72.9688 l -0.254,-7.4023 29.7852,20.6445 -29.7852,20.625 0.254,-7.4023 H 8.66406 V 43.0859" /></g></g></svg>