<?xml version="1.0" encoding="UTF-8" standalone="no"?>
<svg
   xmlns:dc="http://purl.org/dc/elements/1.1/"
   xmlns:cc="http://creativecommons.org/ns#"
   xmlns:rdf="http://www.w3.org/1999/02/22-rdf-syntax-ns#"
   xmlns:svg="http://www.w3.org/2000/svg"
   xmlns="http://www.w3.org/2000/svg"
   xmlns:sodipodi="http://sodipodi.sourceforge.net/DTD/sodipodi-0.dtd"
   xmlns:inkscape="http://www.inkscape.org/namespaces/inkscape"
   viewBox="0 0 50.799999 43.786667"
   height="43.786667"
   width="50.799999"
   xml:space="preserve"
   id="svg2"
   version="1.1"
   sodipodi:docname="workgroup_director.svg"
   inkscape:version="0.92.3 (2405546, 2018-03-11)"><sodipodi:namedview
     pagecolor="#ffffff"
     bordercolor="#666666"
     borderopacity="1"
     objecttolerance="10"
     gridtolerance="10"
     guidetolerance="10"
     inkscape:pageopacity="0"
     inkscape:pageshadow="2"
     inkscape:window-width="1551"
     inkscape:window-height="836"
     id="namedview40"
     showgrid="false"
     inkscape:zoom="15.244568"
     inkscape:cx="26.142147"
     inkscape:cy="17.447078"
     inkscape:window-x="49"
     inkscape:window-y="27"
     inkscape:window-maximized="1"
     inkscape:current-layer="svg2" /><metadata
     id="metadata8"><rdf:RDF><cc:Work
         rdf:about=""><dc:format>image/svg+xml</dc:format><dc:type
           rdf:resource="http://purl.org/dc/dcmitype/StillImage" /></cc:Work></rdf:RDF></metadata><defs
     id="defs6"><clipPath
       id="clipPath20"
       clipPathUnits="userSpaceOnUse"><path
         id="path18"
         d="M 0,328 H 380 V 0 H 0 Z" /></clipPath></defs><g
     id="g1007"><path
       inkscape:connector-curvature="0"
       d="m 41.641199,24.873067 -3.8396,5.119867 H 5.9838532 l 5.2119868,-5.211467 30.445359,0.0916"
       style="fill:#CC092F;fill-opacity:1;fill-rule:nonzero;stroke:none;stroke-width:0.13333333"
       id="path22" /><path
       inkscape:connector-curvature="0"
       d="m 41.641199,24.873067 -3.8396,5.119867 H 5.9838532 L 11.19584,24.781467 Z"
       style="fill:none;stroke:#ffffff;stroke-width:0.53332531;stroke-linecap:butt;stroke-linejoin:miter;stroke-miterlimit:4;stroke-dasharray:none;stroke-opacity:1"
       id="path24" /><path
       inkscape:connector-curvature="0"
       d="M 5.9067732,35.752294 H 36.440639 V 30.056987 H 5.9067732 Z"
       style="fill:#CC092F;fill-opacity:1;fill-rule:nonzero;stroke:none;stroke-width:0.13333333"
       id="path26" /><path
       inkscape:connector-curvature="0"
       d="m 5.9067732,35.752294 v -5.69536 H 36.440666 v 5.69536 z"
       style="fill:none;stroke:#ffffff;stroke-width:0.53332531;stroke-linecap:butt;stroke-linejoin:miter;stroke-miterlimit:4;stroke-dasharray:none;stroke-opacity:1"
       id="path28" /><path
       inkscape:connector-curvature="0"
       d="M 5.8078132,28.775734 H 36.234879 V 5.8350679 H 5.8078132 Z"
       style="fill:#CC092F;fill-opacity:1;fill-rule:nonzero;stroke:none;stroke-width:0.13333333"
       id="path30" /><path
       inkscape:connector-curvature="0"
       d="M 5.8078132,5.8350679 H 36.234932 V 28.775734 H 5.8078132 Z"
       style="fill:none;stroke:#ffffff;stroke-width:0.53332531;stroke-linecap:butt;stroke-linejoin:miter;stroke-miterlimit:4;stroke-dasharray:none;stroke-opacity:1"
       id="path32" /><path
       inkscape:connector-curvature="0"
       d="m 36.234932,28.775734 5.1916,-5.191733 V 0.64346808 l -5.1916,5.19159982 V 28.775734"
       style="fill:#CC092F;fill-opacity:1;fill-rule:nonzero;stroke:none;stroke-width:0.13333333"
       id="path34" /><path
       inkscape:connector-curvature="0"
       d="m 36.234932,28.775734 5.1916,-5.191733 V 0.64346808 l -5.1916,5.19159982 z"
       style="fill:none;stroke:#ffffff;stroke-width:0.53332531;stroke-linecap:butt;stroke-linejoin:miter;stroke-miterlimit:4;stroke-dasharray:none;stroke-opacity:1"
       id="path36" /><path
       inkscape:connector-curvature="0"
       d="m 47.731199,40.758027 2.328133,-4.659386 h -5.3244 l -2.3292,4.659386 h 5.325467"
       style="fill:#CC092F;fill-opacity:1;fill-rule:nonzero;stroke:none;stroke-width:0.13333333"
       id="path38" /><path
       inkscape:connector-curvature="0"
       d="m 47.731199,40.758027 2.328133,-4.659386 h -5.3244 l -2.3292,4.659386 z"
       style="fill:none;stroke:#ffffff;stroke-width:0.53332531;stroke-linecap:butt;stroke-linejoin:miter;stroke-miterlimit:4;stroke-dasharray:none;stroke-opacity:1"
       id="path40" /><path
       inkscape:connector-curvature="0"
       d="m 42.405732,42.255414 h 5.32552 v -1.4974 h -5.32552 z"
       style="fill:#CC092F;fill-opacity:1;fill-rule:nonzero;stroke:none;stroke-width:0.13333333"
       id="path42" /><path
       inkscape:connector-curvature="0"
       d="m 42.405732,40.758027 h 5.325467 v 1.497387 h -5.325467 z"
       style="fill:none;stroke:#ffffff;stroke-width:0.53332531;stroke-linecap:butt;stroke-linejoin:miter;stroke-miterlimit:4;stroke-dasharray:none;stroke-opacity:1"
       id="path44" /><path
       inkscape:connector-curvature="0"
       d="m 47.687999,42.29708 0.01467,-1.539053 2.329067,-4.659386 -0.01293,3.203133 -2.3308,2.995306"
       style="fill:#CC092F;fill-opacity:1;fill-rule:nonzero;stroke:none;stroke-width:0.13333333"
       id="path46" /><path
       inkscape:connector-curvature="0"
       d="m 47.687999,42.29708 0.01467,-1.539053 2.329067,-4.659386 -0.01293,3.203133 z"
       style="fill:none;stroke:#ffffff;stroke-width:0.53332531;stroke-linecap:butt;stroke-linejoin:miter;stroke-miterlimit:4;stroke-dasharray:none;stroke-opacity:1"
       id="path48" /><path
       inkscape:connector-curvature="0"
       d="m 36.416132,35.765827 v -5.698493 l 5.157334,-5.158267 v 5.698427 l -5.157334,5.158333"
       style="fill:#CC092F;fill-opacity:1;fill-rule:nonzero;stroke:none;stroke-width:0.13333333"
       id="path50" /><path
       inkscape:connector-curvature="0"
       d="m 36.416132,35.765827 v -5.698493 l 5.157334,-5.158267 v 5.698427 z"
       style="fill:none;stroke:#ffffff;stroke-width:0.53332531;stroke-linecap:butt;stroke-linejoin:miter;stroke-miterlimit:4;stroke-dasharray:none;stroke-opacity:1"
       id="path52" /><path
       inkscape:connector-curvature="0"
       d="m 10.858853,8.4782679 h 20.331813 c 1.3244,0 2.395733,1.0729333 2.395733,2.3958661 v 12.845334 c 0,1.322933 -1.071333,2.395866 -2.395733,2.395866 H 10.858853 c -1.3244799,0 -2.3973999,-1.072933 -2.3973999,-2.395866 V 10.874134 c 0,-1.3229328 1.07292,-2.3958661 2.3973999,-2.3958661"
       style="fill:#CC092F;fill-opacity:1;fill-rule:nonzero;stroke:none;stroke-width:0.13333333"
       id="path54" /><path
       inkscape:connector-curvature="0"
       d="m 10.858853,8.4782679 h 20.331813 c 1.3244,0 2.395733,1.0729333 2.395733,2.3958661 v 12.845334 c 0,1.322933 -1.071333,2.395866 -2.395733,2.395866 H 10.858853 c -1.3244799,0 -2.3973999,-1.072933 -2.3973999,-2.395866 V 10.874134 c 0,-1.3229328 1.07292,-2.3958661 2.3973999,-2.3958661 z"
       style="fill:none;stroke:#ffffff;stroke-width:0.53332531;stroke-linecap:butt;stroke-linejoin:miter;stroke-miterlimit:4;stroke-dasharray:none;stroke-opacity:1"
       id="path56" /><path
       inkscape:connector-curvature="0"
       d="M 41.426532,0.64346808 H 11.831253 L 5.8078132,5.8350679 H 36.234932 l 5.1916,-5.19159982"
       style="fill:#CC092F;fill-opacity:1;fill-rule:nonzero;stroke:none;stroke-width:0.13333333"
       id="path58" /><path
       inkscape:connector-curvature="0"
       d="M 41.426532,0.64346808 H 11.831253 L 5.8078132,5.8350679 H 36.234932 Z"
       style="fill:none;stroke:#ffffff;stroke-width:0.53332531;stroke-linecap:butt;stroke-linejoin:miter;stroke-miterlimit:4;stroke-dasharray:none;stroke-opacity:1"
       id="path60" /><path
       inkscape:connector-curvature="0"
       d="M 35.534399,43.143438 V 41.29708 l 3.9844,-5.512493 v 3.37448 l -3.9844,3.984371"
       style="fill:#CC092F;fill-opacity:1;fill-rule:nonzero;stroke:none;stroke-width:0.13333333"
       id="path62" /><path
       inkscape:connector-curvature="0"
       d="M 35.534399,43.143438 V 41.29708 l 3.9844,-5.512493 v 3.37448 z"
       style="fill:none;stroke:#ffffff;stroke-width:0.53332531;stroke-linecap:butt;stroke-linejoin:miter;stroke-miterlimit:4;stroke-dasharray:none;stroke-opacity:1"
       id="path64" /><path
       inkscape:connector-curvature="0"
       d="M 35.534399,41.324694 H 0.52031199 L 4.5046932,35.784587 H 39.518799 l -3.9844,5.540107"
       style="fill:#CC092F;fill-opacity:1;fill-rule:nonzero;stroke:none;stroke-width:0.13333333"
       id="path66" /><path
       inkscape:connector-curvature="0"
       d="M 35.534399,41.324694 H 0.52031199 L 4.5046932,35.784587 H 39.518799 Z"
       style="fill:none;stroke:#ffffff;stroke-width:0.53332531;stroke-linecap:butt;stroke-linejoin:miter;stroke-miterlimit:4;stroke-dasharray:none;stroke-opacity:1"
       id="path68" /><path
       inkscape:connector-curvature="0"
       d="M 0.49947865,43.143438 H 35.534411 V 41.324691 H 0.49947865 Z"
       style="fill:#CC092F;fill-opacity:1;fill-rule:nonzero;stroke:none;stroke-width:0.13333333"
       id="path70" /><path
       inkscape:connector-curvature="0"
       d="m 35.534399,41.324694 v 1.818744 H 0.49947865 v -1.818744 z"
       style="fill:none;stroke:#ffffff;stroke-width:0.53332531;stroke-linecap:butt;stroke-linejoin:miter;stroke-miterlimit:4;stroke-dasharray:none;stroke-opacity:1"
       id="path72" /><path
       inkscape:connector-curvature="0"
       d="m 48.728665,36.265307 c 4.159867,-1.996866 0.831734,-10.48224 -7.457333,-6.231706"
       style="fill:none;stroke:#CC092F;stroke-width:0.66666663;stroke-linecap:butt;stroke-linejoin:miter;stroke-miterlimit:4;stroke-dasharray:none;stroke-opacity:1"
       id="path74" /><path
       inkscape:connector-curvature="0"
       d="m 20.948399,20.781468 c 4.308934,0 7.802134,-1.588 7.802134,-3.546934 0,-1.9588 -3.4932,-3.5468 -7.802134,-3.5468 -4.309866,0 -7.803093,1.588 -7.803093,3.5468 0,1.958934 3.493227,3.546934 7.803093,3.546934 z"
       style="fill:none;stroke:#ffffff;stroke-width:0.66666663;stroke-linecap:butt;stroke-linejoin:miter;stroke-miterlimit:4;stroke-dasharray:none;stroke-opacity:1"
       id="path76" /><path
       inkscape:connector-curvature="0"
       d="m 21.007333,22.050268 c 5.532266,0 10.016666,-2.1808 10.016666,-4.870934 0,-2.69 -4.4844,-4.871333 -10.016666,-4.871333 -5.531333,0 -10.015667,2.181333 -10.015667,4.871333 0,2.690134 4.484334,4.870934 10.015667,4.870934 z"
       style="fill:none;stroke:#ffffff;stroke-width:0.66666663;stroke-linecap:butt;stroke-linejoin:miter;stroke-miterlimit:4;stroke-dasharray:none;stroke-opacity:1"
       id="path78" /></g></svg>