<?xml version="1.0"  encoding="UTF-8" standalone="no"?>
<svg version="1.1" xmlns="http://www.w3.org/2000/svg" xmlns:xlink="http://www.w3.org/1999/xlink" width="1427.0000" height="1723.0000">
<g transform="translate(427.0000, 574.0000)">
<path d="M 104.0000,1145.0000 L 147.0000,1145.0000 L 147.0000,930.0000 L 104.0000,930.0000 L 104.0000,1145.0000 Z "  fill="#008998" stroke-width="1px" stroke="#FFFFFF" />
<path d="M 255.0000,930.0000 C 179.0000,930.0000 179.0000,930.0000 179.0000,930.0000 C 179.0000,1145.0000 179.0000,1145.0000 179.0000,1145.0000 C 222.0000,1145.0000 222.0000,1145.0000 222.0000,1145.0000 C 222.0000,1059.0000 222.0000,1059.0000 222.0000,1059.0000 C 245.0000,1059.0000 245.0000,1059.0000 245.0000,1059.0000 C 286.0000,1059.0000 314.0000,1039.0000 314.0000,994.0000 C 314.0000,962.0000 299.0000,930.0000 255.0000,930.0000 Z M 242.0000,1027.0000 C 222.0000,1027.0000 222.0000,1027.0000 222.0000,1027.0000 C 222.0000,962.0000 222.0000,962.0000 222.0000,962.0000 C 240.0000,962.0000 240.0000,962.0000 240.0000,962.0000 C 262.0000,962.0000 270.0000,974.0000 270.0000,995.0000 C 270.0000,1017.0000 259.0000,1027.0000 242.0000,1027.0000 Z "  fill="#008998" stroke="none" />
<path d="M 429.0000,1026.0000 C 395.0000,1012.0000 395.0000,1012.0000 395.0000,1012.0000 C 377.0000,1004.0000 373.0000,996.0000 373.0000,983.0000 C 373.0000,970.0000 378.0000,958.0000 398.0000,958.0000 C 414.0000,958.0000 421.0000,969.0000 421.0000,989.0000 C 463.0000,989.0000 463.0000,989.0000 463.0000,989.0000 C 463.0000,983.0000 463.0000,983.0000 463.0000,983.0000 C 463.0000,942.0000 435.0000,926.0000 396.0000,926.0000 C 355.0000,926.0000 330.0000,947.0000 330.0000,989.0000 C 330.0000,1024.0000 347.0000,1041.0000 386.0000,1054.0000 C 415.0000,1063.0000 424.0000,1071.0000 424.0000,1090.0000 C 424.0000,1109.0000 412.0000,1117.0000 398.0000,1117.0000 C 376.0000,1117.0000 370.0000,1104.0000 370.0000,1084.0000 C 370.0000,1078.0000 370.0000,1078.0000 370.0000,1078.0000 C 327.0000,1078.0000 327.0000,1078.0000 327.0000,1078.0000 C 327.0000,1086.0000 327.0000,1086.0000 327.0000,1086.0000 C 327.0000,1126.0000 346.0000,1149.0000 395.0000,1149.0000 C 442.0000,1149.0000 469.0000,1128.0000 469.0000,1083.0000 C 469.0000,1057.0000 461.0000,1041.0000 429.0000,1026.0000 Z "  fill="#008998" stroke="none" />
<path d="M 791.0000,-365.0000 C 656.0000,-499.0000 477.0000,-574.0000 287.0000,-574.0000 C 96.0000,-574.0000 -83.0000,-499.0000 -218.0000,-365.0000 C -353.0000,-230.0000 -427.0000,-51.0000 -427.0000,140.0000 C -427.0000,331.0000 -353.0000,510.0000 -218.0000,645.0000 C -83.0000,780.0000 96.0000,854.0000 287.0000,854.0000 C 477.0000,854.0000 656.0000,780.0000 791.0000,645.0000 C 926.0000,510.0000 1000.0000,331.0000 1000.0000,140.0000 C 1000.0000,-51.0000 926.0000,-230.0000 791.0000,-365.0000 Z M -176.0000,603.0000 C -300.0000,479.0000 -368.0000,315.0000 -368.0000,140.0000 C -368.0000,-35.0000 -300.0000,-199.0000 -176.0000,-323.0000 C -53.0000,-446.0000 112.0000,-515.0000 287.0000,-515.0000 C 461.0000,-515.0000 626.0000,-446.0000 749.0000,-323.0000 C 873.0000,-199.0000 941.0000,-35.0000 941.0000,140.0000 C 941.0000,315.0000 873.0000,479.0000 749.0000,603.0000 C 626.0000,727.0000 461.0000,795.0000 287.0000,795.0000 C 112.0000,795.0000 -53.0000,727.0000 -176.0000,603.0000 Z "  fill="#008998" stroke="none" />
<path d="M 257.0000,-234.0000 L -152.0000,-234.0000 L -152.0000,-9.0000 L 257.0000,-9.0000 L 257.0000,-234.0000 Z "  fill="#008998" stroke-width="1px" stroke="#FFFFFF" />
<path d="M 0.0000,36.0000 L -152.0000,36.0000 L -152.0000,261.0000 L 0.0000,261.0000 L 0.0000,36.0000 Z "  fill="#008998" stroke-width="1px" stroke="#FFFFFF" />
<path d="M -152.0000,305.0000 C -152.0000,529.0000 -152.0000,529.0000 -152.0000,529.0000 C 258.0000,529.0000 258.0000,529.0000 258.0000,529.0000 C 258.0000,361.0000 258.0000,361.0000 258.0000,361.0000 C 250.0000,343.0000 244.0000,324.0000 239.0000,305.0000 Z "  fill="#008998" stroke="none" />
<path d="M 314.0000,529.0000 C 480.0000,529.0000 480.0000,529.0000 480.0000,529.0000 C 416.0000,521.0000 358.0000,491.0000 314.0000,445.0000 Z "  fill="#008998" stroke="none" />
<path d="M 550.0000,529.0000 C 725.0000,529.0000 725.0000,529.0000 725.0000,529.0000 C 725.0000,435.0000 725.0000,435.0000 725.0000,435.0000 C 681.0000,486.0000 619.0000,521.0000 550.0000,529.0000 Z "  fill="#008998" stroke="none" />
<path d="M 52.0000,261.0000 C 233.0000,261.0000 233.0000,261.0000 233.0000,261.0000 C 232.0000,253.0000 232.0000,246.0000 232.0000,238.0000 C 232.0000,160.0000 262.0000,89.0000 310.0000,36.0000 C 52.0000,36.0000 52.0000,36.0000 52.0000,36.0000 Z "  fill="#008998" stroke="none" />
<path d="M 515.0000,-55.0000 C 571.0000,-55.0000 622.0000,-38.0000 666.0000,-9.0000 C 723.0000,-9.0000 723.0000,-9.0000 723.0000,-9.0000 C 723.0000,-234.0000 723.0000,-234.0000 723.0000,-234.0000 C 314.0000,-234.0000 314.0000,-234.0000 314.0000,-234.0000 C 314.0000,-9.0000 314.0000,-9.0000 314.0000,-9.0000 C 364.0000,-9.0000 364.0000,-9.0000 364.0000,-9.0000 C 408.0000,-38.0000 459.0000,-55.0000 515.0000,-55.0000 Z "  fill="#008998" stroke="none" />
<path d="M 510.0000,303.0000 C 501.0000,303.0000 458.0000,303.0000 417.0000,298.0000 C 417.0000,298.0000 415.0000,341.0000 469.0000,356.0000 C 493.0000,361.0000 508.0000,342.0000 508.0000,342.0000 C 509.0000,341.0000 509.0000,341.0000 509.0000,341.0000 C 510.0000,342.0000 510.0000,342.0000 510.0000,342.0000 C 510.0000,342.0000 525.0000,361.0000 549.0000,356.0000 C 579.0000,348.0000 592.0000,331.0000 597.0000,317.0000 C 572.0000,301.0000 572.0000,301.0000 572.0000,301.0000 C 542.0000,303.0000 517.0000,303.0000 510.0000,303.0000 M 468.0000,343.0000 C 454.0000,334.0000 454.0000,317.0000 454.0000,317.0000 C 454.0000,317.0000 472.0000,332.0000 486.0000,333.0000 C 485.0000,335.0000 477.0000,345.0000 468.0000,343.0000 M 564.0000,317.0000 C 564.0000,317.0000 564.0000,334.0000 550.0000,343.0000 C 541.0000,345.0000 533.0000,335.0000 532.0000,333.0000 C 546.0000,332.0000 564.0000,317.0000 564.0000,317.0000 "  fill="#008998" stroke="none" />
<path d="M 670.0000,260.0000 C 670.0000,250.0000 645.0000,241.0000 606.0000,235.0000 C 582.0000,151.0000 582.0000,151.0000 582.0000,151.0000 C 582.0000,151.0000 570.0000,124.0000 552.0000,124.0000 C 535.0000,125.0000 520.0000,144.0000 520.0000,144.0000 C 517.0000,147.0000 513.0000,147.0000 511.0000,147.0000 C 511.0000,147.0000 511.0000,147.0000 510.0000,147.0000 C 510.0000,147.0000 509.0000,147.0000 509.0000,147.0000 C 507.0000,147.0000 503.0000,147.0000 500.0000,144.0000 C 500.0000,144.0000 485.0000,125.0000 468.0000,124.0000 C 450.0000,124.0000 438.0000,151.0000 438.0000,151.0000 C 435.0000,164.0000 435.0000,164.0000 435.0000,164.0000 C 617.0000,284.0000 617.0000,284.0000 617.0000,284.0000 C 650.0000,278.0000 670.0000,270.0000 670.0000,260.0000 "  fill="#008998" stroke="none" />
<path d="M 414.0000,235.0000 C 375.0000,241.0000 350.0000,250.0000 350.0000,260.0000 C 350.0000,278.0000 422.0000,292.0000 510.0000,292.0000 C 526.0000,292.0000 542.0000,291.0000 556.0000,290.0000 C 424.0000,203.0000 424.0000,203.0000 424.0000,203.0000 C 414.0000,235.0000 414.0000,235.0000 414.0000,235.0000 "  fill="#008998" stroke="none" />
<path d="M 761.0000,238.0000 C 761.0000,102.0000 651.0000,-8.0000 515.0000,-8.0000 C 379.0000,-8.0000 269.0000,102.0000 269.0000,238.0000 C 269.0000,375.0000 379.0000,485.0000 515.0000,485.0000 C 651.0000,485.0000 761.0000,375.0000 761.0000,238.0000 M 515.0000,447.0000 C 400.0000,447.0000 306.0000,354.0000 306.0000,238.0000 C 306.0000,204.0000 315.0000,171.0000 330.0000,142.0000 C 325.0000,139.0000 325.0000,139.0000 325.0000,139.0000 C 347.0000,106.0000 347.0000,106.0000 347.0000,106.0000 C 351.0000,109.0000 351.0000,109.0000 351.0000,109.0000 C 389.0000,61.0000 449.0000,30.0000 515.0000,30.0000 C 630.0000,30.0000 724.0000,123.0000 724.0000,238.0000 C 724.0000,274.0000 715.0000,308.0000 699.0000,338.0000 C 713.0000,347.0000 713.0000,347.0000 713.0000,347.0000 C 692.0000,379.0000 692.0000,379.0000 692.0000,379.0000 C 677.0000,370.0000 677.0000,370.0000 677.0000,370.0000 C 639.0000,417.0000 580.0000,447.0000 515.0000,447.0000 "  fill="#008998" stroke="none" />
<path d="M 617.0000,284.0000 C 599.0000,287.0000 579.0000,289.0000 556.0000,290.0000 C 572.0000,301.0000 572.0000,301.0000 572.0000,301.0000 C 581.0000,300.0000 591.0000,299.0000 601.0000,298.0000 C 601.0000,298.0000 601.0000,306.0000 597.0000,317.0000 C 677.0000,370.0000 677.0000,370.0000 677.0000,370.0000 C 685.0000,360.0000 692.0000,349.0000 699.0000,338.0000 C 617.0000,284.0000 617.0000,284.0000 617.0000,284.0000 "  fill="#008998" stroke="none" />
<path d="M 617.0000,284.0000 C 617.0000,284.0000 617.0000,284.0000 617.0000,284.0000 C 599.0000,287.0000 579.0000,289.0000 556.0000,290.0000 C 572.0000,301.0000 572.0000,301.0000 572.0000,301.0000 C 572.0000,301.0000 572.0000,301.0000 572.0000,301.0000 C 572.0000,301.0000 572.0000,301.0000 572.0000,301.0000 C 581.0000,300.0000 591.0000,299.0000 601.0000,298.0000 C 601.0000,298.0000 601.0000,298.0000 601.0000,299.0000 C 601.0000,299.0000 601.0000,299.0000 601.0000,299.0000 C 601.0000,299.0000 601.0000,299.0000 601.0000,299.0000 C 601.0000,301.0000 600.0000,308.0000 597.0000,317.0000 C 677.0000,370.0000 677.0000,370.0000 677.0000,370.0000 C 677.0000,370.0000 677.0000,370.0000 677.0000,370.0000 C 677.0000,370.0000 677.0000,370.0000 677.0000,370.0000 C 685.0000,360.0000 692.0000,349.0000 699.0000,338.0000 C 617.0000,284.0000 617.0000,284.0000 617.0000,284.0000 "  fill="#008998" stroke="none" />
<path d="M 435.0000,164.0000 C 351.0000,109.0000 351.0000,109.0000 351.0000,109.0000 C 343.0000,119.0000 336.0000,130.0000 330.0000,142.0000 C 424.0000,203.0000 424.0000,203.0000 424.0000,203.0000 C 435.0000,164.0000 435.0000,164.0000 435.0000,164.0000 "  fill="#008998" stroke="none" />
<path d="M 351.0000,109.0000 C 351.0000,109.0000 351.0000,109.0000 351.0000,109.0000 C 343.0000,119.0000 336.0000,130.0000 330.0000,142.0000 C 424.0000,203.0000 424.0000,203.0000 424.0000,203.0000 C 435.0000,164.0000 435.0000,164.0000 435.0000,164.0000 C 351.0000,109.0000 351.0000,109.0000 351.0000,109.0000 "  fill="#008998" stroke="none" />
<path d="M 601.0000,298.0000 C 591.0000,299.0000 581.0000,300.0000 572.0000,301.0000 C 597.0000,317.0000 597.0000,317.0000 597.0000,317.0000 C 601.0000,306.0000 601.0000,298.0000 601.0000,298.0000 "  fill="#008998" stroke="none" />
<path d="M 601.0000,298.0000 C 591.0000,299.0000 581.0000,300.0000 572.0000,301.0000 C 597.0000,317.0000 597.0000,317.0000 597.0000,317.0000 C 600.0000,308.0000 601.0000,301.0000 601.0000,299.0000 C 601.0000,298.0000 601.0000,298.0000 601.0000,298.0000 "  fill="#008998" stroke="none" />
<path d="M 424.0000,203.0000 C 556.0000,290.0000 556.0000,290.0000 556.0000,290.0000 C 579.0000,289.0000 599.0000,287.0000 617.0000,284.0000 C 435.0000,164.0000 435.0000,164.0000 435.0000,164.0000 C 424.0000,203.0000 424.0000,203.0000 424.0000,203.0000 "  fill="#008998" stroke="none" />
<path d="M 435.0000,164.0000 C 435.0000,164.0000 435.0000,164.0000 435.0000,164.0000 C 424.0000,203.0000 424.0000,203.0000 424.0000,203.0000 C 556.0000,290.0000 556.0000,290.0000 556.0000,290.0000 C 579.0000,289.0000 599.0000,287.0000 617.0000,284.0000 C 435.0000,164.0000 435.0000,164.0000 435.0000,164.0000 "  fill="#008998" stroke="none" />
<path d="M 713.0000,347.0000 C 699.0000,338.0000 699.0000,338.0000 699.0000,338.0000 C 692.0000,349.0000 685.0000,360.0000 677.0000,370.0000 C 692.0000,379.0000 692.0000,379.0000 692.0000,379.0000 C 713.0000,347.0000 713.0000,347.0000 713.0000,347.0000 "  fill="#008998" stroke="none" />
<path d="M 699.0000,338.0000 C 699.0000,338.0000 699.0000,338.0000 699.0000,338.0000 C 692.0000,349.0000 685.0000,360.0000 677.0000,370.0000 C 692.0000,379.0000 692.0000,379.0000 692.0000,379.0000 C 713.0000,347.0000 713.0000,347.0000 713.0000,347.0000 C 699.0000,338.0000 699.0000,338.0000 699.0000,338.0000 "  fill="#008998" stroke="none" />
<path d="M 347.0000,106.0000 C 325.0000,139.0000 325.0000,139.0000 325.0000,139.0000 C 330.0000,142.0000 330.0000,142.0000 330.0000,142.0000 C 336.0000,130.0000 343.0000,119.0000 351.0000,109.0000 C 347.0000,106.0000 347.0000,106.0000 347.0000,106.0000 "  fill="#008998" stroke="none" />
<path d="M 347.0000,106.0000 C 325.0000,139.0000 325.0000,139.0000 325.0000,139.0000 C 330.0000,142.0000 330.0000,142.0000 330.0000,142.0000 C 336.0000,130.0000 343.0000,119.0000 351.0000,109.0000 C 347.0000,106.0000 347.0000,106.0000 347.0000,106.0000 "  fill="#008998" stroke="none" />
</g>
</svg>
