<?xml version="1.0"  encoding="UTF-8" standalone="no"?>
<svg version="1.1" xmlns="http://www.w3.org/2000/svg" xmlns:xlink="http://www.w3.org/1999/xlink" width="815.0000" height="981.0000">
<g transform="translate(120.0000, 204.0000)">
<path d="M 575.0000,-85.0000 C 498.0000,-161.0000 396.0000,-204.0000 287.0000,-204.0000 C 178.0000,-204.0000 76.0000,-161.0000 -1.0000,-85.0000 C -78.0000,-8.0000 -120.0000,95.0000 -120.0000,204.0000 C -120.0000,312.0000 -78.0000,415.0000 -1.0000,492.0000 C 76.0000,568.0000 178.0000,611.0000 287.0000,611.0000 C 396.0000,611.0000 498.0000,568.0000 575.0000,492.0000 C 652.0000,415.0000 695.0000,312.0000 695.0000,204.0000 C 695.0000,95.0000 652.0000,-8.0000 575.0000,-85.0000 Z M 23.0000,468.0000 C -47.0000,397.0000 -86.0000,303.0000 -86.0000,204.0000 C -86.0000,104.0000 -47.0000,10.0000 23.0000,-61.0000 C 94.0000,-131.0000 188.0000,-170.0000 287.0000,-170.0000 C 387.0000,-170.0000 481.0000,-131.0000 551.0000,-61.0000 C 622.0000,10.0000 661.0000,104.0000 661.0000,204.0000 C 661.0000,303.0000 622.0000,397.0000 551.0000,468.0000 C 481.0000,538.0000 387.0000,577.0000 287.0000,577.0000 C 188.0000,577.0000 94.0000,538.0000 23.0000,468.0000 Z "  fill="#008998" stroke="none" />
<path d="M 181.0000,655.0000 L 198.0000,745.0000 L 198.0000,745.0000 L 216.0000,655.0000 L 242.0000,655.0000 L 214.0000,777.0000 L 182.0000,777.0000 L 154.0000,655.0000 L 181.0000,655.0000 Z "  fill="#008998" stroke-width="1px" stroke="#FFFFFF" />
<path d="M 251.0000,655.0000 C 294.0000,655.0000 294.0000,655.0000 294.0000,655.0000 C 319.0000,655.0000 327.0000,673.0000 327.0000,691.0000 C 327.0000,717.0000 312.0000,728.0000 289.0000,728.0000 C 275.0000,728.0000 275.0000,728.0000 275.0000,728.0000 C 275.0000,777.0000 275.0000,777.0000 275.0000,777.0000 C 251.0000,777.0000 251.0000,777.0000 251.0000,777.0000 Z M 275.0000,710.0000 C 286.0000,710.0000 286.0000,710.0000 286.0000,710.0000 C 296.0000,710.0000 303.0000,704.0000 303.0000,692.0000 C 303.0000,680.0000 298.0000,673.0000 286.0000,673.0000 C 275.0000,673.0000 275.0000,673.0000 275.0000,673.0000 Z "  fill="#008998" stroke="none" />
<path d="M 368.0000,655.0000 L 397.0000,738.0000 L 398.0000,738.0000 L 398.0000,655.0000 L 420.0000,655.0000 L 420.0000,777.0000 L 392.0000,777.0000 L 362.0000,691.0000 L 362.0000,691.0000 L 362.0000,777.0000 L 339.0000,777.0000 L 339.0000,655.0000 L 368.0000,655.0000 Z "  fill="#008998" stroke-width="1px" stroke="#FFFFFF" />
<path d="M 268.0000,-9.0000 L 40.0000,-9.0000 L 40.0000,116.0000 L 268.0000,116.0000 L 268.0000,-9.0000 Z "  fill="#008998" stroke-width="1px" stroke="#FFFFFF" />
<path d="M 125.0000,141.0000 L 40.0000,141.0000 L 40.0000,266.0000 L 125.0000,266.0000 L 125.0000,141.0000 Z "  fill="#008998" stroke-width="1px" stroke="#FFFFFF" />
<path d="M 213.0000,290.0000 C 40.0000,290.0000 40.0000,290.0000 40.0000,290.0000 C 40.0000,415.0000 40.0000,415.0000 40.0000,415.0000 C 231.0000,415.0000 231.0000,415.0000 231.0000,415.0000 C 213.0000,385.0000 212.0000,328.0000 212.0000,313.0000 C 212.0000,309.0000 212.0000,300.0000 213.0000,290.0000 Z "  fill="#008998" stroke="none" />
<path d="M 258.0000,193.0000 C 308.0000,193.0000 308.0000,193.0000 308.0000,193.0000 C 308.0000,193.0000 309.0000,193.0000 309.0000,193.0000 C 311.0000,193.0000 312.0000,193.0000 314.0000,193.0000 C 317.0000,193.0000 317.0000,193.0000 317.0000,193.0000 C 335.0000,193.0000 335.0000,193.0000 335.0000,193.0000 C 527.0000,193.0000 527.0000,193.0000 527.0000,193.0000 C 527.0000,141.0000 527.0000,141.0000 527.0000,141.0000 C 154.0000,141.0000 154.0000,141.0000 154.0000,141.0000 C 154.0000,266.0000 154.0000,266.0000 154.0000,266.0000 C 215.0000,266.0000 215.0000,266.0000 215.0000,266.0000 C 220.0000,232.0000 231.0000,193.0000 258.0000,193.0000 Z "  fill="#008998" stroke="none" />
<path d="M 527.0000,-9.0000 L 299.0000,-9.0000 L 299.0000,116.0000 L 527.0000,116.0000 L 527.0000,-9.0000 Z "  fill="#008998" stroke-width="1px" stroke="#FFFFFF" />
<path d="M 415.0000,268.0000 C 404.0000,268.0000 404.0000,268.0000 404.0000,268.0000 C 395.0000,268.0000 389.0000,274.0000 389.0000,282.0000 C 389.0000,295.0000 389.0000,295.0000 389.0000,295.0000 C 430.0000,295.0000 430.0000,295.0000 430.0000,295.0000 C 430.0000,282.0000 430.0000,282.0000 430.0000,282.0000 C 430.0000,274.0000 423.0000,268.0000 415.0000,268.0000 Z "  fill="#008998" stroke="none" />
<path d="M 415.0000,268.0000 C 404.0000,268.0000 404.0000,268.0000 404.0000,268.0000 C 395.0000,268.0000 389.0000,274.0000 389.0000,282.0000 C 389.0000,295.0000 389.0000,295.0000 389.0000,295.0000 C 430.0000,295.0000 430.0000,295.0000 430.0000,295.0000 C 430.0000,282.0000 430.0000,282.0000 430.0000,282.0000 C 430.0000,274.0000 423.0000,268.0000 415.0000,268.0000 Z "  fill="#008998" stroke="none" />
<path d="M 527.0000,211.0000 C 335.0000,211.0000 335.0000,211.0000 335.0000,211.0000 C 335.0000,212.0000 335.0000,212.0000 335.0000,212.0000 C 313.0000,212.0000 313.0000,212.0000 313.0000,212.0000 C 312.0000,211.0000 310.0000,211.0000 308.0000,211.0000 C 258.0000,211.0000 258.0000,211.0000 258.0000,211.0000 C 243.0000,211.0000 230.0000,257.0000 230.0000,313.0000 C 230.0000,369.0000 243.0000,415.0000 258.0000,415.0000 C 308.0000,415.0000 308.0000,415.0000 308.0000,415.0000 C 309.0000,415.0000 310.0000,415.0000 311.0000,415.0000 C 527.0000,415.0000 527.0000,415.0000 527.0000,415.0000 C 543.0000,415.0000 555.0000,369.0000 555.0000,313.0000 C 555.0000,257.0000 543.0000,211.0000 527.0000,211.0000 Z M 262.0000,401.0000 C 250.0000,401.0000 241.0000,362.0000 241.0000,313.0000 C 241.0000,264.0000 250.0000,225.0000 262.0000,225.0000 C 273.0000,225.0000 283.0000,264.0000 283.0000,313.0000 C 283.0000,362.0000 273.0000,401.0000 262.0000,401.0000 Z M 457.0000,361.0000 C 457.0000,368.0000 451.0000,371.0000 443.0000,371.0000 C 375.0000,371.0000 375.0000,371.0000 375.0000,371.0000 C 367.0000,371.0000 362.0000,368.0000 362.0000,361.0000 C 362.0000,305.0000 362.0000,305.0000 362.0000,305.0000 C 362.0000,299.0000 365.0000,296.0000 371.0000,295.0000 C 371.0000,282.0000 371.0000,282.0000 371.0000,282.0000 C 371.0000,264.0000 386.0000,249.0000 404.0000,249.0000 C 415.0000,249.0000 415.0000,249.0000 415.0000,249.0000 C 433.0000,249.0000 448.0000,264.0000 448.0000,282.0000 C 448.0000,295.0000 448.0000,295.0000 448.0000,295.0000 C 453.0000,296.0000 457.0000,299.0000 457.0000,305.0000 Z "  fill="#008998" stroke="none" />
</g>
</svg>
