<?xml version="1.0" encoding="UTF-8" standalone="no"?>
<svg
   xmlns:dc="http://purl.org/dc/elements/1.1/"
   xmlns:cc="http://creativecommons.org/ns#"
   xmlns:rdf="http://www.w3.org/1999/02/22-rdf-syntax-ns#"
   xmlns:svg="http://www.w3.org/2000/svg"
   xmlns="http://www.w3.org/2000/svg"
   viewBox="0 0 41.426666 40.919998"
   height="40.919998"
   width="41.426666"
   xml:space="preserve"
   id="svg2"
   version="1.1"><metadata
     id="metadata8"><rdf:RDF><cc:Work
         rdf:about=""><dc:format>image/svg+xml</dc:format><dc:type
           rdf:resource="http://purl.org/dc/dcmitype/StillImage" /></cc:Work></rdf:RDF></metadata><defs
     id="defs6"><clipPath
       id="clipPath20"
       clipPathUnits="userSpaceOnUse"><path
         id="path18"
         d="M 0,307 H 310 V 0 H 0 Z" /></clipPath></defs><g
     transform="matrix(1.3333333,0,0,-1.3333333,0,40.92)"
     id="g10"><g
       transform="scale(0.1)"
       id="g12"><g
         id="g14"><g
           clip-path="url(#clipPath20)"
           id="g16"><path
             id="path22"
             style="fill:#008998;fill-opacity:1;fill-rule:nonzero;stroke:none"
             d="m 5.81641,4.60938 h 226.746 v 230.734 H 5.81641 Z" /><path
             id="path24"
             style="fill:none;stroke:#FFFFFF;stroke-width:3.99993992;stroke-linecap:butt;stroke-linejoin:miter;stroke-miterlimit:4;stroke-dasharray:none;stroke-opacity:1"
             d="M 232.563,4.60938 V 235.344 H 5.81641 V 4.60938 Z" /><path
             id="path26"
             style="fill:none;stroke:#008998;stroke-width:14.25;stroke-linecap:butt;stroke-linejoin:miter;stroke-miterlimit:4;stroke-dasharray:none;stroke-opacity:1"
             d="M 46.5977,55.7617 H 94.5078 L 160.59,190.906 h 45.683" /><path
             id="path28"
             style="fill:#008998;fill-opacity:1;fill-rule:nonzero;stroke:none"
             d="M 192.875,215.129 V 167.18 l 28.887,23.035 -28.887,24.914" /><path
             id="path30"
             style="fill:#008998;fill-opacity:1;fill-rule:nonzero;stroke:none"
             d="M 54.8594,31.0742 V 79.0234 L 25.9727,55.9883 54.8594,31.0742" /><path
             id="path32"
             style="fill:#FFFFFF;fill-opacity:1;fill-rule:nonzero;stroke:none"
             d="M 48.2656,26.543 V 74.4922 L 19.3789,51.4531 48.2656,26.543" /><path
             id="path34"
             style="fill:#FFFFFF;fill-opacity:1;fill-rule:nonzero;stroke:none"
             d="m 187.535,211.223 v -47.95 l 28.887,23.036 -28.887,24.914" /><path
             id="path36"
             style="fill:#008998;fill-opacity:1;fill-rule:nonzero;stroke:none"
             d="m 54.8594,166.074 v 47.949 L 25.9727,190.988 54.8594,166.074" /><path
             id="path38"
             style="fill:#FFFFFF;fill-opacity:1;fill-rule:nonzero;stroke:none"
             d="m 48.2656,161.543 v 47.949 l -28.8867,-23.039 28.8867,-24.91" /><path
             id="path40"
             style="fill:none;stroke:#008998;stroke-width:14.25;stroke-linecap:butt;stroke-linejoin:miter;stroke-miterlimit:4;stroke-dasharray:none;stroke-opacity:1"
             d="M 207.23,55.2539 H 160.133 L 92.7969,191.066 H 52.6992" /><path
             id="path42"
             style="fill:none;stroke:#FFFFFF;stroke-width:14.25;stroke-linecap:butt;stroke-linejoin:miter;stroke-miterlimit:4;stroke-dasharray:none;stroke-opacity:1"
             d="M 206.09,51.0156 H 156.488 L 89.1641,186.836 H 37.8086" /><path
             id="path44"
             style="fill:#008998;fill-opacity:1;fill-rule:nonzero;stroke:none"
             d="M 305.57,302.539 232.563,235.422 H 5.55078 L 86.6641,302.539 H 305.57" /><path
             id="path46"
             style="fill:none;stroke:#FFFFFF;stroke-width:3.99993992;stroke-linecap:butt;stroke-linejoin:miter;stroke-miterlimit:4;stroke-dasharray:none;stroke-opacity:1"
             d="M 305.57,302.539 232.563,235.422 H 5.55078 l 81.11332,67.117 z" /><path
             id="path48"
             style="fill:#008998;fill-opacity:1;fill-rule:nonzero;stroke:none"
             d="M 305.844,93.1172 V 302.383 L 232.563,235.195 V 5.50781 l 73.281,87.60939" /><path
             id="path50"
             style="fill:none;stroke:#FFFFFF;stroke-width:3.99993992;stroke-linecap:butt;stroke-linejoin:miter;stroke-miterlimit:4;stroke-dasharray:none;stroke-opacity:1"
             d="M 305.844,93.1172 V 302.383 L 232.563,235.195 V 5.50781 Z" /><path
             id="path52"
             style="fill:none;stroke:#FFFFFF;stroke-width:14.25;stroke-linecap:butt;stroke-linejoin:miter;stroke-miterlimit:4;stroke-dasharray:none;stroke-opacity:1"
             d="m 38.1211,51.2305 h 47.918 L 152.75,186.379 h 51.922" /><path
             id="path54"
             style="fill:#008998;fill-opacity:1;fill-rule:nonzero;stroke:none"
             d="M 192.875,79.5039 V 31.5547 l 28.887,23.0351 -28.887,24.9141" /><path
             id="path56"
             style="fill:#FFFFFF;fill-opacity:1;fill-rule:nonzero;stroke:none"
             d="M 187.535,75.5977 V 27.6484 l 28.887,23.0352 -28.887,24.9141" /><path
             id="path58"
             style="fill:#008998;fill-opacity:1;fill-rule:nonzero;stroke:none"
             d="m 232.73,290.91 9.571,7.195 29.922,-9.863 -52.453,-11.328 11.418,11.418 h -52.024 l 3.43,2.578 h 50.136" /><path
             id="path60"
             style="fill:#FFFFFF;fill-opacity:1;fill-rule:nonzero;stroke:none"
             d="m 191.488,261.496 9.582,7.195 26.141,-8.437 -52.449,-11.328 8.808,8.644 h -52.023 l 7.922,3.926 h 52.019" /><path
             id="path62"
             style="fill:#FFFFFF;fill-opacity:1;fill-rule:nonzero;stroke:none"
             d="m 165.863,280.957 -4.324,-4.609 h -43.047 l -8.672,-5.157 -26.0466,8.516 52.3556,11.25 -13.313,-10 h 43.047" /><path
             id="path64"
             style="fill:#FFFFFF;fill-opacity:1;fill-rule:nonzero;stroke:none"
             d="m 128.688,251.348 -6.114,-4.61 H 79.5273 l -6.8867,-5.164 -26.0351,8.524 52.3554,11.242 -13.3125,-9.992 h 43.0396" /><path
             id="path66"
             style="fill:#FFFFFF;fill-opacity:1;fill-rule:nonzero;stroke:none"
             d="m 232.73,288.43 9.571,7.195 26.14,-8.445 -52.449,-11.321 9.715,7.969 h -52.031 l 7.023,4.602 h 52.031" /></g></g></g></g></svg>