<?xml version="1.0" encoding="utf-8"?>
<!-- Generator: Adobe Illustrator 20.1.0, SVG Export Plug-In . SVG Version: 6.00 Build 0)  -->
<svg version="1.1" id="Layer_1" xmlns="http://www.w3.org/2000/svg" xmlns:xlink="http://www.w3.org/1999/xlink" x="0px" y="0px"
	 viewBox="0 0 67.7 36.5" style="enable-background:new 0 0 67.7 36.5;" xml:space="preserve">
<style type="text/css">
	.st0{fill:#008998;stroke:#FFFFFF;stroke-width:0.8;}
	.st1{fill:none;stroke:#FFFFFF;stroke-width:0.8;}
</style>
<g>
	<polygon class="st0" points="66.6,32.8 66.6,0.9 63.4,3.7 63.4,35.6 	"/>
	<g>
		<rect x="1.1" y="3.8" class="st0" width="62.3" height="31.8"/>
	</g>
	<polygon class="st0" points="66.6,0.9 4.3,0.9 1.1,3.8 63.3,3.8 	"/>
	<line class="st0" x1="66.6" y1="0.9" x2="63.3" y2="3.8"/>
	<path class="st1" d="M37.5,9.4l3.3-2.9c11.6,13.5,2.7,24,2.7,24h15.3"/>
	<polyline class="st1" points="12.8,9.1 9.5,6.2 10.1,30.6 3.1,30.6 	"/>
	<path class="st0" d="M12.8,12.7c0-3.2,3.3-3.7,3.3-3.7s16.5,0,19.6,0c4,0,3.9,3.8,3.9,3.8s0,13.6,0,15.8c0,2.2-3.1,3.2-3.1,3.2
		s-17.1,0-19.9,0c-2.8,0-3.8-3-3.8-3V12.7z"/>
	<line class="st0" x1="58.8" y1="10.6" x2="43.5" y2="10.6"/>
	<line class="st0" x1="10.1" y1="10.6" x2="3.1" y2="10.6"/>
</g>
<line class="st1" x1="9.5" y1="6.2" x2="39.4" y2="6.2"/>
</svg>
