<?xml version="1.0" encoding="utf-8"?>
<!-- Generator: Adobe Illustrator 20.1.0, SVG Export Plug-In . SVG Version: 6.00 Build 0)  -->
<svg version="1.1" id="Layer_1" xmlns="http://www.w3.org/2000/svg" xmlns:xlink="http://www.w3.org/1999/xlink" x="0px" y="0px"
	 viewBox="0 0 97.6 48.5" style="enable-background:new 0 0 97.6 48.5;" xml:space="preserve">
<style type="text/css">
	.st0{fill:#008998;stroke:#FFFFFF;stroke-width:0.8;}
</style>
<g>
	<polygon class="st0" points="1.1,24.3 30,0.9 96.6,0.9 72.7,24.3 	"/>
	<polygon class="st0" points="72.7,47.5 96.6,21.7 96.6,0.9 72.7,24.3 	"/>
	<rect x="1.2" y="24.3" class="st0" width="71.5" height="23.2"/>
	<path class="st0" d="M62.2,4.5C45.5,3.8,26.4,7.2,19.6,12c-6.8,4.8,1.2,9.3,17.9,10c16.7,0.7,35.8-2.7,42.6-7.5
		C86.9,9.6,78.9,5.2,62.2,4.5z"/>
	<path class="st0" d="M59.2,8.2c-13.7-0.4-29,1.5-34.3,4.4c-5.2,2.9,1.6,5.5,15.3,6C54,19,69.3,17,74.5,14.1
		C79.7,11.3,72.9,8.6,59.2,8.2z"/>
</g>
</svg>
