<?xml version="1.0" encoding="utf-8"?>
<!-- Generator: Adobe Illustrator 20.1.0, SVG Export Plug-In . SVG Version: 6.00 Build 0)  -->
<svg version="1.1" id="Layer_1" xmlns="http://www.w3.org/2000/svg" xmlns:xlink="http://www.w3.org/1999/xlink" x="0px" y="0px"
	 viewBox="0 0 81.2 65" style="enable-background:new 0 0 81.2 65;" xml:space="preserve">
<style type="text/css">
	.st0{fill:#008998;stroke:#FFFFFF;stroke-width:0.8;}
	.st1{stroke:#FFFFFF;stroke-width:0.8;stroke-linejoin:bevel;}
	.st2{fill:none;stroke:#008998;stroke-width:0.8;}
	.st3{fill:none;stroke:#FFFFFF;stroke-width:0.8;}
</style>
<g>
	<rect x="10.1" y="42.8" class="st0" width="45.7" height="8.7"/>
	<polyline class="st0" points="63.6,35 63.6,43.7 55.8,51.4 55.8,42.8 10.1,42.8 	"/>
	<line class="st1" x1="10.1" y1="35" x2="63.6" y2="35"/>
	<line class="st1" x1="55.8" y1="42.8" x2="63.6" y2="35"/>
	<polygon class="st0" points="53.6,57.7 53.6,52.6 1,52.6 7,46.6 59.6,46.6 59.6,51.7 	"/>
	<g>
		<rect x="1" y="52.6" class="st0" width="52.6" height="5.1"/>
	</g>
	<line class="st1" x1="53.6" y1="52.6" x2="59.6" y2="46.6"/>
	<g>
		<rect x="10.1" y="8.2" class="st0" width="45.7" height="34.6"/>
	</g>
	<polygon class="st0" points="55.8,42.8 63.6,35 63.6,0.4 17.9,0.4 10.1,8.2 55.8,8.2 	"/>
	<g>
		<rect x="14" y="12.2" class="st0" width="37.7" height="26.5"/>
	</g>
	<line class="st1" x1="55.8" y1="8.2" x2="63.6" y2="0.4"/>
	<g>
		<g>
			
				<rect x="68.3" y="49.6" transform="matrix(0.8111 -0.5848 0.5848 0.8111 -19.1619 53.2734)" class="st0" width="9.2" height="13.5"/>
		</g>
		<path class="st2" d="M69.1,50.7c-1.3-2.3-3.8-0.9-3.3-4.6c0.5-3.9-2.1-6.4-6.7-4.3"/>
	</g>
	<g>
		<circle class="st3" cx="25.1" cy="19.2" r="4.3"/>
	</g>
	<g>
		<circle class="st3" cx="40.5" cy="19.2" r="4.3"/>
	</g>
	<g>
		<circle class="st3" cx="32.8" cy="32.6" r="4.3"/>
	</g>
	<polyline class="st3" points="25.1,23.5 27.5,27.6 28.5,25.1 30.9,28.7 	"/>
	<polyline class="st3" points="35.2,29 36.9,25.2 38.4,27.4 40.5,23.5 	"/>
	<polyline class="st3" points="36.3,19.2 32.5,20.4 33.3,18.2 29.4,19.2 	"/>
</g>
</svg>
