<?xml version="1.0" encoding="utf-8"?>
<!-- Generator: Adobe Illustrator 20.1.0, SVG Export Plug-In . SVG Version: 6.00 Build 0)  -->
<svg version="1.1" id="Layer_1" xmlns="http://www.w3.org/2000/svg" xmlns:xlink="http://www.w3.org/1999/xlink" x="0px" y="0px"
	 viewBox="0 0 48.5 68.8" style="enable-background:new 0 0 48.5 68.8;" xml:space="preserve">
<style type="text/css">
	.st0{fill:#008998;stroke:#FFFFFF;stroke-width:0.8;}
	.st1{stroke:#FFFFFF;stroke-width:0.68;stroke-linecap:round;stroke-linejoin:round;stroke-miterlimit:1;}
	.st2{fill:none;stroke:#FFFFFF;stroke-width:0.68;stroke-linecap:round;stroke-linejoin:round;}
	.st3{fill:none;stroke:#008998;stroke-linecap:round;stroke-linejoin:round;}
	.st4{fill:none;stroke:#008998;stroke-width:3.4;stroke-linejoin:round;}
</style>
<g>
	<g>
		<g>
			<polygon class="st0" points="20.9,19.4 10.5,3.4 13.3,0.6 24,16.6 			"/>
			<polygon class="st0" points="10.5,67.5 20.9,51.5 20.9,19.4 10.5,3.4 10.5,67.5 			"/>
			<line class="st0" x1="20.9" y1="51.5" x2="20.9" y2="19.4"/>
			<line class="st0" x1="20.9" y1="51.5" x2="20.9" y2="19.4"/>
			<polygon class="st0" points="36.8,51.4 36.8,19.4 39.6,16.6 39.6,48.6 			"/>
			<polygon class="st0" points="36.8,19.4 20.9,19.4 24,16.6 39.6,16.6 			"/>
			<polygon class="st0" points="20.9,19.4 20.9,51.4 36.8,51.4 36.8,19.4 20.9,19.4 			"/>
			<line class="st1" x1="20.9" y1="51.4" x2="36.8" y2="51.4"/>
			<line class="st0" x1="36.8" y1="51.4" x2="36.8" y2="19.4"/>
			<line class="st0" x1="36.8" y1="19.4" x2="20.9" y2="19.4"/>
			<line class="st1" x1="20.9" y1="51.4" x2="36.8" y2="51.4"/>
			<line class="st0" x1="36.8" y1="51.4" x2="36.8" y2="19.4"/>
			<line class="st0" x1="36.8" y1="19.4" x2="20.9" y2="19.4"/>
		</g>
		<line class="st2" x1="20.8" y1="33.5" x2="10.8" y2="16.6"/>
		<line class="st2" x1="20.8" y1="33.5" x2="10.8" y2="27.1"/>
		<line class="st2" x1="20.8" y1="34.1" x2="10.8" y2="50.9"/>
		<line class="st2" x1="20.8" y1="34.1" x2="10.8" y2="40.4"/>
		<line class="st2" x1="20.8" y1="33.5" x2="10.8" y2="33.5"/>
		<line class="st3" x1="10.5" y1="16.8" x2="0.5" y2="16.8"/>
		<line class="st3" x1="10.5" y1="27.2" x2="0.5" y2="27.2"/>
		<line class="st3" x1="10.5" y1="33.8" x2="0.5" y2="33.8"/>
		<line class="st3" x1="10.5" y1="40.2" x2="0.5" y2="40.2"/>
		<line class="st3" x1="10.5" y1="50.9" x2="0.5" y2="50.9"/>
	</g>
	<line class="st4" x1="48.5" y1="34.2" x2="38.1" y2="34.2"/>
</g>
</svg>
