<?xml version="1.0" encoding="utf-8"?>
<!-- Generator: Adobe Illustrator 20.1.0, SVG Export Plug-In . SVG Version: 6.00 Build 0)  -->
<svg version="1.1" id="Layer_1" xmlns="http://www.w3.org/2000/svg" xmlns:xlink="http://www.w3.org/1999/xlink" x="0px" y="0px"
	 viewBox="0 0 73.5 42.8" style="enable-background:new 0 0 73.5 42.8;" xml:space="preserve">
<style type="text/css">
	.st0{fill:#008998;stroke:#FFFFFF;stroke-width:0.8;}
	.st1{fill-rule:evenodd;clip-rule:evenodd;fill:#008998;stroke:#FFFFFF;stroke-width:0.8;}
</style>
<g>
	<rect x="1" y="6.4" class="st0" width="66.1" height="35.6"/>
	<polyline class="st0" points="67.1,42 67.1,6.4 1,6.4 1,42 67.1,42 	"/>
	<polygon class="st0" points="1,6.4 6.4,1 72.5,1 67.1,6.4 	"/>
	<polyline class="st0" points="1,6.4 6.4,1 72.5,1 67.1,6.4 1,6.4 	"/>
	<polygon class="st0" points="67.1,42 72.5,37.9 72.5,1 67.1,6.4 	"/>
	<polyline class="st0" points="67.1,42 72.5,37.9 72.5,1 67.1,6.4 67.1,42 	"/>
	<polygon class="st1" points="6.4,18.5 6.4,30.7 7.7,32 19.9,32 21.2,30.7 21.2,18.5 19.9,17.2 7.7,17.2 	"/>
	<polyline class="st0" points="6.4,18.5 6.4,30.7 7.7,32 19.9,32 21.2,30.7 21.2,18.5 19.9,17.2 7.7,17.2 6.4,18.5 	"/>
	<polyline class="st0" points="6.4,18.5 7.7,19.9 14.5,21.2 19.9,19.9 21.2,18.5 	"/>
	<polygon class="st1" points="26.6,18.5 26.6,30.7 28,32 40.1,32 41.5,30.7 41.5,18.5 40.1,17.2 28,17.2 	"/>
	<polyline class="st0" points="26.6,18.5 26.6,30.7 28,32 40.1,32 41.5,30.7 41.5,18.5 40.1,17.2 28,17.2 26.6,18.5 	"/>
	<polyline class="st0" points="26.6,18.5 28,19.9 34.7,21.2 40.1,19.9 41.5,18.5 	"/>
	<polygon class="st1" points="46.9,19.9 46.9,30.7 48.2,32 55,33.4 60.4,32 61.7,30.7 61.7,19.9 60.4,18.5 55,17.2 48.2,18.5 	"/>
	<polyline class="st0" points="46.9,19.9 46.9,30.7 48.2,32 55,33.4 60.4,32 61.7,30.7 61.7,19.9 60.4,18.5 55,17.2 48.2,18.5 
		46.9,19.9 	"/>
	<polyline class="st0" points="46.9,19.9 48.2,21.2 55,21.2 60.4,21.2 61.7,19.9 	"/>
</g>
</svg>
