<?xml version="1.0" encoding="UTF-8" standalone="no"?>
<svg
   xmlns:dc="http://purl.org/dc/elements/1.1/"
   xmlns:cc="http://creativecommons.org/ns#"
   xmlns:rdf="http://www.w3.org/1999/02/22-rdf-syntax-ns#"
   xmlns:svg="http://www.w3.org/2000/svg"
   xmlns="http://www.w3.org/2000/svg"
   xmlns:sodipodi="http://sodipodi.sourceforge.net/DTD/sodipodi-0.dtd"
   xmlns:inkscape="http://www.inkscape.org/namespaces/inkscape"
   viewBox="0 0 42.826668 45.253334"
   height="45.253334"
   width="42.826668"
   xml:space="preserve"
   id="svg2"
   version="1.1"
   sodipodi:docname="intelliswitch_stack.svg"
   inkscape:version="0.92.3 (2405546, 2018-03-11)"><sodipodi:namedview
     pagecolor="#ffffff"
     bordercolor="#666666"
     borderopacity="1"
     objecttolerance="10"
     gridtolerance="10"
     guidetolerance="10"
     inkscape:pageopacity="0"
     inkscape:pageshadow="2"
     inkscape:window-width="1551"
     inkscape:window-height="836"
     id="namedview45"
     showgrid="false"
     inkscape:zoom="14.750489"
     inkscape:cx="21.796837"
     inkscape:cy="22.626667"
     inkscape:window-x="49"
     inkscape:window-y="27"
     inkscape:window-maximized="1"
     inkscape:current-layer="svg2" /><metadata
     id="metadata8"><rdf:RDF><cc:Work
         rdf:about=""><dc:format>image/svg+xml</dc:format><dc:type
           rdf:resource="http://purl.org/dc/dcmitype/StillImage" /></cc:Work></rdf:RDF></metadata><defs
     id="defs6" /><g
     id="g967"><path
       inkscape:connector-curvature="0"
       d="M 0.77604131,21.762134 H 32.067733"
       style="fill:none;stroke:#ffffff;stroke-width:0.55199999;stroke-linecap:butt;stroke-linejoin:miter;stroke-miterlimit:4;stroke-dasharray:none;stroke-opacity:1"
       id="path14" /><path
       inkscape:connector-curvature="0"
       d="M 32.069333,44.750729 V 34.508547 H 0.77760398 V 44.750729 H 32.069333"
       style="fill:#008998;fill-opacity:1;fill-rule:nonzero;stroke:none;stroke-width:0.13333333"
       id="path16" /><path
       inkscape:connector-curvature="0"
       d="M 32.069333,44.750729 V 34.508547 H 0.77760398 v 10.242182 z"
       style="fill:none;stroke:#ffffff;stroke-width:0.5333333;stroke-linecap:butt;stroke-linejoin:miter;stroke-miterlimit:4;stroke-dasharray:none;stroke-opacity:1"
       id="path18" /><path
       inkscape:connector-curvature="0"
       d="M 42.143199,25.234 32.069333,34.49812 H 0.74114531 L 11.934893,25.234 h 30.208306"
       style="fill:#008998;fill-opacity:1;fill-rule:nonzero;stroke:none;stroke-width:0.13333333"
       id="path20" /><path
       inkscape:connector-curvature="0"
       d="M 42.143199,25.234 32.069333,34.49812 H 0.74114531 L 11.934893,25.234 Z"
       style="fill:none;stroke:#ffffff;stroke-width:0.47999999;stroke-linecap:butt;stroke-linejoin:miter;stroke-miterlimit:4;stroke-dasharray:none;stroke-opacity:1"
       id="path22" /><path
       inkscape:connector-curvature="0"
       d="M 42.182266,34.835107 V 25.256 l -10.112933,9.272333 v 10.095833 l 10.112933,-9.789059"
       style="fill:#008998;fill-opacity:1;fill-rule:nonzero;stroke:none;stroke-width:0.13333333"
       id="path24" /><path
       inkscape:connector-curvature="0"
       d="M 42.182266,34.835107 V 25.256 l -10.112933,9.272333 v 10.095833 z"
       style="fill:none;stroke:#ffffff;stroke-width:0.5333333;stroke-linecap:butt;stroke-linejoin:miter;stroke-miterlimit:4;stroke-dasharray:none;stroke-opacity:1"
       id="path26" /><path
       inkscape:connector-curvature="0"
       d="M 32.069333,32.4226 V 22.184 H 0.77760398 V 32.4226 H 32.069333"
       style="fill:#008998;fill-opacity:1;fill-rule:nonzero;stroke:none;stroke-width:0.13333333"
       id="path28" /><path
       inkscape:connector-curvature="0"
       d="M 32.069333,32.4226 V 22.184 H 0.77760398 v 10.2386 z"
       style="fill:none;stroke:#ffffff;stroke-width:0.5333333;stroke-linecap:butt;stroke-linejoin:miter;stroke-miterlimit:4;stroke-dasharray:none;stroke-opacity:1"
       id="path30" /><path
       inkscape:connector-curvature="0"
       d="m 42.143199,12.565867 -10.073866,9.264 H 0.74114531 l 11.19374769,-9.264 h 30.208306"
       style="fill:#008998;fill-opacity:1;fill-rule:nonzero;stroke:none;stroke-width:0.13333333"
       id="path32" /><path
       inkscape:connector-curvature="0"
       d="m 42.143199,12.565867 -10.073866,9.264 H 0.74114531 l 11.19374769,-9.264 z"
       style="fill:none;stroke:#ffffff;stroke-width:0.47999999;stroke-linecap:butt;stroke-linejoin:miter;stroke-miterlimit:4;stroke-dasharray:none;stroke-opacity:1"
       id="path34" /><path
       inkscape:connector-curvature="0"
       d="M 42.182266,23.544 V 13.362667 L 32.069333,22.634534 V 32.730933 L 42.182266,23.544"
       style="fill:#008998;fill-opacity:1;fill-rule:nonzero;stroke:none;stroke-width:0.13333333"
       id="path36" /><path
       inkscape:connector-curvature="0"
       d="M 42.182266,23.544 V 13.362667 l -10.112933,9.271867 v 10.096399 z"
       style="fill:none;stroke:#ffffff;stroke-width:0.5333333;stroke-linecap:butt;stroke-linejoin:miter;stroke-miterlimit:4;stroke-dasharray:none;stroke-opacity:1"
       id="path38" /><path
       inkscape:connector-curvature="0"
       d="M 32.069333,20.107467 V 9.8648006 H 0.77760398 V 20.107467 H 32.069333"
       style="fill:#008998;fill-opacity:1;fill-rule:nonzero;stroke:none;stroke-width:0.13333333"
       id="path40" /><path
       inkscape:connector-curvature="0"
       d="M 32.069333,20.107467 V 9.8648006 H 0.77760398 V 20.107467 Z"
       style="fill:none;stroke:#ffffff;stroke-width:0.5333333;stroke-linecap:butt;stroke-linejoin:miter;stroke-miterlimit:4;stroke-dasharray:none;stroke-opacity:1"
       id="path42" /><path
       inkscape:connector-curvature="0"
       d="M 42.143199,0.59186745 32.069333,9.8544006 H 0.74114531 L 11.934893,0.59186745 h 30.208306"
       style="fill:#008998;fill-opacity:1;fill-rule:nonzero;stroke:none;stroke-width:0.13333333"
       id="path44" /><path
       inkscape:connector-curvature="0"
       d="M 42.143199,0.59186745 32.069333,9.8544006 H 0.74114531 L 11.934893,0.59186745 Z"
       style="fill:none;stroke:#ffffff;stroke-width:0.5333333;stroke-linecap:butt;stroke-linejoin:miter;stroke-miterlimit:4;stroke-dasharray:none;stroke-opacity:1"
       id="path46" /><path
       inkscape:connector-curvature="0"
       d="M 42.182266,10.623067 V 0.61266745 L 32.069333,9.8845339 V 19.980934 l 10.112933,-9.357867"
       style="fill:#008998;fill-opacity:1;fill-rule:nonzero;stroke:none;stroke-width:0.13333333"
       id="path48" /><path
       inkscape:connector-curvature="0"
       d="M 42.182266,10.623067 V 0.61266745 L 32.069333,9.8845339 V 19.980934 Z"
       style="fill:none;stroke:#ffffff;stroke-width:0.5333333;stroke-linecap:butt;stroke-linejoin:miter;stroke-miterlimit:4;stroke-dasharray:none;stroke-opacity:1"
       id="path50" /><path
       inkscape:connector-curvature="0"
       d="m 26.399999,5.912134 1.321334,-0.9926667 3.6084,1.1641333 -7.238534,1.5629333 1.216134,-1.1931999 h -7.1808 l 1.093733,-0.5412 h 7.179733"
       style="fill:#000000;fill-opacity:1;fill-rule:nonzero;stroke:none;stroke-width:0.13333333"
       id="path52" /><path
       inkscape:connector-curvature="0"
       d="m 22.863599,3.2257341 -0.598,0.6358666 h -5.940133 l -1.196266,0.712 -3.593787,-1.1749333 7.22392,-1.5516 -1.837467,1.3786667 h 5.941733"
       style="fill:#000000;fill-opacity:1;fill-rule:nonzero;stroke:none;stroke-width:0.13333333"
       id="path54" /><path
       inkscape:connector-curvature="0"
       d="m 17.733333,7.3126673 -0.843733,0.6344 H 10.94792 L 9.9989598,8.6616006 6.4057332,7.4845339 13.630266,5.9330673 l -1.83704,1.3796 h 5.940107"
       style="fill:#000000;fill-opacity:1;fill-rule:nonzero;stroke:none;stroke-width:0.13333333"
       id="path56" /><path
       inkscape:connector-curvature="0"
       d="m 32.091199,2.1949341 1.320267,-0.9926667 3.6068,1.1650667 -7.237067,1.5630666 1.3412,-1.1005333 h -7.180666 l 0.968666,-0.6349333 h 7.1808"
       style="fill:#000000;fill-opacity:1;fill-rule:nonzero;stroke:none;stroke-width:0.13333333"
       id="path58" /><path
       inkscape:connector-curvature="0"
       d="m 26.399999,6.2564006 1.321334,-0.9926666 3.6084,1.1641333 -7.238534,1.5629333 1.216134,-1.1926666 h -7.1808 l 1.093733,-0.5417334 h 7.179733"
       style="fill:#ffffff;fill-opacity:1;fill-rule:nonzero;stroke:none;stroke-width:0.13333333"
       id="path60" /><path
       inkscape:connector-curvature="0"
       d="m 22.863599,3.570534 -0.598,0.6354667 H 16.325466 L 15.1292,4.9178673 11.535413,3.742934 18.759333,2.1913341 16.921866,3.570534 h 5.941733"
       style="fill:#ffffff;fill-opacity:1;fill-rule:nonzero;stroke:none;stroke-width:0.13333333"
       id="path62" /><path
       inkscape:connector-curvature="0"
       d="M 17.733333,7.6569339 16.8896,8.2924006 H 10.94792 L 9.9989598,9.0060006 6.4057332,7.8293339 13.630266,6.277334 11.793226,7.6569339 h 5.940107"
       style="fill:#ffffff;fill-opacity:1;fill-rule:nonzero;stroke:none;stroke-width:0.13333333"
       id="path64" /><path
       inkscape:connector-curvature="0"
       d="m 32.091199,2.5393341 1.320267,-0.9922667 3.6068,1.1645333 -7.237067,1.5630667 1.3412,-1.1 h -7.180666 l 0.968666,-0.6353333 h 7.1808"
       style="fill:#ffffff;fill-opacity:1;fill-rule:nonzero;stroke:none;stroke-width:0.13333333"
       id="path66" /><path
       inkscape:connector-curvature="0"
       d="m 17.4948,21.273067 v -6.928133 h 1.176 l -1.7344,-2.614533 -1.734267,2.614533 H 16.3776 v 6.928133 h 1.1172"
       style="fill:#ffffff;fill-opacity:1;fill-rule:nonzero;stroke:none;stroke-width:0.13333333"
       id="path68" /><path
       inkscape:connector-curvature="0"
       d="m 13.960933,23.651734 -4.8984266,-4.8984 0.83072,-0.830667 -3.0755199,-0.624 0.6224,3.077067 0.8307333,-0.831734 4.8984262,4.897867 0.791667,-0.790133"
       style="fill:#ffffff;fill-opacity:1;fill-rule:nonzero;stroke:none;stroke-width:0.13333333"
       id="path70" /><path
       inkscape:connector-curvature="0"
       d="M 12.169266,26.857467 H 5.2411465 V 25.684 l -2.6145866,1.7344 2.6145866,1.733333 v -1.176 h 6.9281195 v -1.118266"
       style="fill:#ffffff;fill-opacity:1;fill-rule:nonzero;stroke:none;stroke-width:0.13333333"
       id="path72" /><path
       inkscape:connector-curvature="0"
       d="m 13.169266,30.3924 -4.8984262,4.898427 -0.8307333,-0.82916 -0.6224,3.07396 3.0755199,-0.62344 -0.83072,-0.830734 4.8984266,-4.898386 -0.791667,-0.790667"
       style="fill:#ffffff;fill-opacity:1;fill-rule:nonzero;stroke:none;stroke-width:0.13333333"
       id="path74" /><path
       inkscape:connector-curvature="0"
       d="m 16.3776,32.184067 v 6.927599 h -1.175467 l 1.734267,2.615627 1.7344,-2.615627 h -1.176 v -6.927599 h -1.1172"
       style="fill:#ffffff;fill-opacity:1;fill-rule:nonzero;stroke:none;stroke-width:0.13333333"
       id="path76" /><path
       inkscape:connector-curvature="0"
       d="m 19.911466,31.183067 4.8984,4.898386 -0.830667,0.830734 3.075467,0.62344 -0.6224,-3.07396 -0.830667,0.82916 -4.898533,-4.898427 -0.7916,0.790667"
       style="fill:#ffffff;fill-opacity:1;fill-rule:nonzero;stroke:none;stroke-width:0.13333333"
       id="path78" /><path
       inkscape:connector-curvature="0"
       d="m 21.703066,27.975733 h 6.928667 v 1.176 L 31.246399,27.4184 28.631733,25.684 v 1.173467 h -6.928667 v 1.118266"
       style="fill:#ffffff;fill-opacity:1;fill-rule:nonzero;stroke:none;stroke-width:0.13333333"
       id="path80" /><path
       inkscape:connector-curvature="0"
       d="m 20.703066,24.441867 4.898533,-4.897867 0.830667,0.831734 0.6224,-3.077067 -3.075467,0.624 0.830667,0.830667 -4.8984,4.8984 0.7916,0.790133"
       style="fill:#ffffff;fill-opacity:1;fill-rule:nonzero;stroke:none;stroke-width:0.13333333"
       id="path82" /><path
       inkscape:connector-curvature="0"
       d="m 19.952133,31.634533 c 2.287466,-1.600933 2.843733,-4.7552 1.240533,-7.045199 -1.601466,-2.286534 -4.7552,-2.8428 -7.044266,-1.2412 -2.287467,1.602133 -2.842147,4.756799 -1.240587,7.044266 1.60152,2.289053 4.755253,2.845307 7.04432,1.242133"
       style="fill:#ffffff;fill-opacity:1;fill-rule:nonzero;stroke:none;stroke-width:0.13333333"
       id="path84" /><path
       inkscape:connector-curvature="0"
       d="m 19.952133,31.634533 c 2.287466,-1.600933 2.843733,-4.7552 1.240533,-7.045199 -1.601466,-2.286534 -4.7552,-2.8428 -7.044266,-1.2412 -2.287467,1.602133 -2.842147,4.756799 -1.240587,7.044266 1.60152,2.289053 4.755253,2.845307 7.04432,1.242133 z"
       style="fill:none;stroke:#000000;stroke-width:0.336;stroke-linecap:butt;stroke-linejoin:miter;stroke-miterlimit:4;stroke-dasharray:none;stroke-opacity:1"
       id="path86" /><path
       inkscape:connector-curvature="0"
       d="m 40.657866,23.151734 c -0.5016,6.497466 -2.426134,11.648479 -4.298534,11.504199 -1.8708,-0.146346 -2.981733,-5.5286 -2.480133,-12.027666 0.501067,-6.496267 2.425467,-11.647866 4.297867,-11.502533 1.871333,0.143733 2.981733,5.528666 2.4808,12.026 z"
       style="fill:none;stroke:#ffffff;stroke-width:1.19999993;stroke-linecap:butt;stroke-linejoin:miter;stroke-miterlimit:4;stroke-dasharray:none;stroke-opacity:1"
       id="path88" /></g></svg>