<?xml version="1.0" encoding="utf-8"?>
<!-- Generator: Adobe Illustrator 20.1.0, SVG Export Plug-In . SVG Version: 6.00 Build 0)  -->
<svg version="1.1" id="Layer_1" xmlns="http://www.w3.org/2000/svg" xmlns:xlink="http://www.w3.org/1999/xlink" x="0px" y="0px"
	 viewBox="0 0 88.1 44.4" style="enable-background:new 0 0 88.1 44.4;" xml:space="preserve">
<style type="text/css">
	.st0{fill:#008998;stroke:#FFFFFF;stroke-width:0.8;}
	.st1{fill:#FFFFFF;}
</style>
<g>
	<g>
		<rect x="1.3" y="21.9" class="st0" width="64.3" height="20.9"/>
		<polygon class="st0" points="1.1,22 27.1,0.9 87.1,0.9 65.5,22 		"/>
		<polygon class="st0" points="65.6,43.4 87,21.9 87,1 65.6,21.9 		"/>
		<path class="st1" d="M38.8,16.5l-1.2,1h-16l-1.6,1.6l-4.3-1.9l8.7-2.5l-1.5,1.8H38.8z"/>
		<path class="st1" d="M51.4,8.6l-1.2,1h-16l-1.6,1.6l-4.3-1.9l8.7-2.5l-1.5,1.8H51.4z"/>
		<path class="st1" d="M41.6,13.7l1.2-1h16l1.6-1.6l4.3,1.9l-8.7,2.5l1.5-1.8H41.6z"/>
		<path class="st1" d="M50,5.8l1.2-1h16l1.6-1.6l4.3,1.9l-8.7,2.5L66,5.8H50z"/>
	</g>
	<g>
		<polygon class="st1" points="33.4,33.4 45,33.4 45,35.3 49.4,32.6 45,29.9 45,31.7 33.4,31.7 		"/>
		<polygon class="st1" points="33.2,30.4 44,26.8 44.7,28.5 47.8,24.5 42.7,23.4 43.4,25.1 32.5,28.8 		"/>
		<polygon class="st1" points="33.2,34.6 44,38.3 44.7,36.6 47.8,40.5 42.7,41.7 43.4,40 32.5,36.3 		"/>
		<polygon class="st1" points="15.5,33.4 26.6,33.4 26.6,35.3 31,32.6 26.6,29.9 26.6,31.7 15.5,31.7 		"/>
	</g>
</g>
</svg>
