<?xml version="1.0" encoding="utf-8"?>
<!-- Generator: Adobe Illustrator 20.1.0, SVG Export Plug-In . SVG Version: 6.00 Build 0)  -->
<svg version="1.1" id="Layer_1" xmlns="http://www.w3.org/2000/svg" xmlns:xlink="http://www.w3.org/1999/xlink" x="0px" y="0px"
	 viewBox="0 0 62.3 70.6" style="enable-background:new 0 0 62.3 70.6;" xml:space="preserve">
<style type="text/css">
	.st0{fill:#008998;stroke:#FFFFFF;stroke-width:0.8;}
	.st1{fill:#FFFFFF;}
</style>
<g>
	<polygon class="st0" points="51.1,69.7 61.3,59.9 61.3,0.9 51.1,10.7 	"/>
	<polygon class="st0" points="61.3,0.9 51.1,10.7 1.2,10.7 14.2,0.9 	"/>
	<g>
		<rect x="1.3" y="10.7" class="st0" width="49.8" height="59"/>
	</g>
	<g>
		<polygon class="st1" points="27.2,19.3 29,19.3 26.4,15.2 23.7,19.3 25.5,19.3 25.5,62.2 23.7,62.2 26.3,66.2 29,62.2 27.2,62.2 
					"/>
		<polygon class="st1" points="13.4,19.3 15.2,19.3 12.5,15.2 9.8,19.3 11.6,19.3 11.6,62.2 9.8,62.2 12.5,66.2 15.2,62.2 
			13.4,62.2 		"/>
		<polygon class="st1" points="40.5,19.3 42.3,19.3 39.6,15.2 36.9,19.3 38.7,19.3 38.7,62.2 36.9,62.2 39.6,66.2 42.3,62.2 
			40.5,62.2 		"/>
	</g>
</g>
</svg>
