<?xml version="1.0" encoding="utf-8"?>
<!-- Generator: Adobe Illustrator 20.1.0, SVG Export Plug-In . SVG Version: 6.00 Build 0)  -->
<svg version="1.1" id="Layer_1" xmlns="http://www.w3.org/2000/svg" xmlns:xlink="http://www.w3.org/1999/xlink" x="0px" y="0px"
	 viewBox="0 0 86.4 47.5" style="enable-background:new 0 0 86.4 47.5;" xml:space="preserve">
<style type="text/css">
	.st0{fill:#008998;stroke:#FFFFFF;stroke-width:0.8;}
	.st1{fill:#008998;stroke:#FFFFFF;stroke-width:0.8;}
	.st2{fill:#FFFFFF;stroke:#FFFFFF;stroke-width:0.7;}
	.st3{fill:#FFFFFF;}
	.st4{font-family:'Helvetica-Bold';}
	.st5{font-size:18px;}
</style>
	<g>
	<g>
		<g>
			<path class="st0" d="M41.3,4.4H22L0.8,35.1c18.6,0,18.6,0,18.7,0c23.3,3.4,28.8,1.8,50.5,0L85.7,9.9h-5.5l3.6-5.5h-38l-4.1,5.5
				H37L41.3,4.4z"/>
			<polygon class="st0" points="41.1,33.5 27.5,33.5 35.1,23.5 48.2,23.5 			"/>
			<polygon class="st0" points="85.7,9.9 85.7,28.4 70,45.1 70,35.1 			"/>
			<line class="st1" x1="70" y1="35.1" x2="85.7" y2="9.9"/>
			<path class="st0" d="M31.1,11.4c-2.6,3-5.8,6.4-7.8,9.8l0.2,2.2l-6.4,9.8l-0.7-6.4c1.2-4.8,16.2-23.9,19.7-26.1l0.7,6.4l-5.5,6.4
				L31.1,11.4z"/>
			<polygon class="st0" points="4.6,26.8 3.8,33.2 17.1,33.2 16.4,26.8 			"/>
			<path class="st0" d="M36.1,0.7c-3.5,2.2-18.5,21.3-19.7,26.1H4.6C5.8,21.9,20.8,2.9,24.2,0.7H36.1z"/>
			<polygon class="st2" points="40.1,17 47.9,6.7 78.3,6.7 71.3,17 			"/>
			<polygon class="st0" points="43.4,15.1 48.7,8.2 69.1,8.2 64.4,15.1 			"/>
			<line class="st0" x1="43.5" y1="23.5" x2="36.5" y2="33.5"/>
			<line class="st0" x1="39.2" y1="23.5" x2="32.2" y2="33.5"/>
			<line class="st0" x1="33.4" y1="25.9" x2="46.4" y2="25.9"/>
			<line class="st0" x1="31.4" y1="28.5" x2="44.7" y2="28.5"/>
			<line class="st0" x1="29.3" y1="31.2" x2="42.8" y2="31.2"/>
		</g>
	</g>
	<path class="st0" d="M70,45.1c-21.7,1.8-27.3,3.4-50.5,0H0.8v-10c18.6,0,18.6,0,18.7,0c23.3,3.4,28.8,1.8,50.5,0V45.1z"/>
	<polygon class="st0" points="41.3,4.4 41.3,9.9 37,9.9 	"/>
	<polygon class="st1" points="83.8,4.4 83.8,9.9 80.2,9.9 	"/>
	<g>
		<text transform="matrix(1 0 0 1 52.3275 33.6247)" class="st3 st4 st5">IP</text>
	</g>
</g>
</svg>
