<?xml version="1.0" encoding="utf-8"?>
<!-- Generator: Adobe Illustrator 20.1.0, SVG Export Plug-In . SVG Version: 6.00 Build 0)  -->
<svg version="1.1" id="Layer_1" xmlns="http://www.w3.org/2000/svg" xmlns:xlink="http://www.w3.org/1999/xlink" x="0px" y="0px"
	 viewBox="0 0 97.6 55" style="enable-background:new 0 0 97.6 55;" xml:space="preserve">
<style type="text/css">
	.st0{fill:#008998;stroke:#FFFFFF;stroke-width:0.8;}
	.st1{fill:#FFFFFF;}
	.st2{fill:none;stroke:#FFFFFF;stroke-width:0.8;}
</style>
<g>
	<polygon class="st0" points="1.1,24.2 30,0.9 96.6,0.9 72.7,24.2 	"/>
	<polygon class="st0" points="72.7,54 96.6,29.7 96.6,0.9 72.7,24.2 	"/>
	<rect x="1.2" y="24.2" class="st0" width="71.5" height="29.8"/>
	<g>
		<g>
			<g>
				<g>
					<rect x="13.4" y="29.7" class="st1" width="10.8" height="5.6"/>
					<rect x="48.9" y="29.7" class="st1" width="10.8" height="5.6"/>
					<rect x="13.4" y="43.8" class="st1" width="10.8" height="5.6"/>
					<rect x="48.9" y="43.8" class="st1" width="10.8" height="5.6"/>
					<line class="st2" x1="20.7" y1="32.5" x2="54" y2="32.5"/>
					<line class="st2" x1="20.7" y1="46.5" x2="54" y2="46.5"/>
					<line class="st2" x1="18.8" y1="46.6" x2="54" y2="32.5"/>
					<line class="st2" x1="18.8" y1="32.5" x2="54" y2="46.6"/>
				</g>
			</g>
		</g>
	</g>
	<g>
		<g>
			<g>
				<polygon class="st1" points="42.1,5.5 57,4 54.1,8.8 50.3,8 28.1,16.4 24.1,15.3 45.9,7 				"/>
				<polygon class="st1" points="59.3,10.7 74.2,9.3 71.3,14 67.5,13.3 45.3,21.7 41.3,20.6 63.1,12.3 				"/>
			</g>
		</g>
	</g>
</g>
</svg>
