<?xml version="1.0" encoding="UTF-8" standalone="no"?>
<svg
   xmlns:dc="http://purl.org/dc/elements/1.1/"
   xmlns:cc="http://creativecommons.org/ns#"
   xmlns:rdf="http://www.w3.org/1999/02/22-rdf-syntax-ns#"
   xmlns:svg="http://www.w3.org/2000/svg"
   xmlns="http://www.w3.org/2000/svg"
   viewBox="0 0 50.279999 33.533333"
   height="33.533333"
   width="50.279999"
   xml:space="preserve"
   id="svg2"
   version="1.1"><metadata
     id="metadata8"><rdf:RDF><cc:Work
         rdf:about=""><dc:format>image/svg+xml</dc:format><dc:type
           rdf:resource="http://purl.org/dc/dcmitype/StillImage" /></cc:Work></rdf:RDF></metadata><defs
     id="defs6"><clipPath
       id="clipPath20"
       clipPathUnits="userSpaceOnUse"><path
         id="path18"
         d="M 0,1 V 251 H 377 V 1 Z" /></clipPath></defs><g
     transform="matrix(1.3333333,0,0,-1.3333333,0,33.533333)"
     id="g10"><g
       transform="scale(0.1)"
       id="g12"><g
         id="g14"><g
           clip-path="url(#clipPath20)"
           id="g16"><path
             id="path22"
             style="fill:#008998;fill-opacity:1;fill-rule:nonzero;stroke:none"
             d="m 5.38281,5.19141 h 303.719 v 171.836 H 5.38281 Z" /><path
             id="path24"
             style="fill:none;stroke:#FFFFFF;stroke-width:4;stroke-linecap:butt;stroke-linejoin:miter;stroke-miterlimit:4;stroke-dasharray:none;stroke-opacity:1"
             d="M 5.38281,5.19141 V 177.027 H 309.102 V 5.19141 Z" /><path
             id="path26"
             style="fill:#008998;fill-opacity:1;fill-rule:nonzero;stroke:none"
             d="M 310.188,5.19141 V 177.027 l 62.695,69.278 V 74.4688 L 310.188,5.19141" /><path
             id="path28"
             style="fill:none;stroke:#FFFFFF;stroke-width:4;stroke-linecap:butt;stroke-linejoin:miter;stroke-miterlimit:4;stroke-dasharray:none;stroke-opacity:1"
             d="M 310.188,5.19141 V 177.027 l 62.695,69.278 V 74.4688 Z" /><path
             id="path30"
             style="fill:#008998;fill-opacity:1;fill-rule:nonzero;stroke:none"
             d="M 309.082,177.016 H 5.22656 l 75.12504,67.394 292.0894,0.254 -63.359,-67.648" /><path
             id="path32"
             style="fill:none;stroke:#FFFFFF;stroke-width:4;stroke-linecap:butt;stroke-linejoin:miter;stroke-miterlimit:4;stroke-dasharray:none;stroke-opacity:1"
             d="M 309.082,177.016 H 5.22656 l 75.12504,67.394 292.0894,0.254 z" /><path
             id="path34"
             style="fill:#FFFFFF;fill-opacity:1;fill-rule:nonzero;stroke:none"
             d="m 69.2266,113.531 -54.3828,-0.039 v 10.156 l 54.3828,0.04 0.0117,15.847 31.4457,-20.937 -31.4457,-20.9457 -0.0117,15.8787" /><path
             id="path36"
             style="fill:#FFFFFF;fill-opacity:1;fill-rule:nonzero;stroke:none"
             d="m 264.727,52.3672 -54.375,-0.0469 v 10.1563 l 54.375,0.039 0.019,15.8594 31.438,-20.9492 -31.438,-20.9375 -0.019,15.8789" /><path
             id="path38"
             style="fill:#FFFFFF;fill-opacity:1;fill-rule:nonzero;stroke:none"
             d="m 107.227,83.5586 h 45.8984 v 75 H 107.227 Z" /><path
             id="path40"
             style="fill:none;stroke:#008998;stroke-width:4;stroke-linecap:butt;stroke-linejoin:miter;stroke-miterlimit:4;stroke-dasharray:none;stroke-opacity:1"
             d="m 153.125,83.5586 h -45.898 v 75.0004 h 45.898 z" /><path
             id="path42"
             style="fill:#FFFFFF;fill-opacity:1;fill-rule:nonzero;stroke:none"
             d="m 133.359,52.8164 h 45.8984 v 75 H 133.359 Z" /><path
             id="path44"
             style="fill:none;stroke:#008998;stroke-width:4;stroke-linecap:butt;stroke-linejoin:miter;stroke-miterlimit:4;stroke-dasharray:none;stroke-opacity:1"
             d="m 179.258,52.8164 h -45.899 v 74.9996 h 45.899 z" /><path
             id="path46"
             style="fill:#FFFFFF;fill-opacity:1;fill-rule:nonzero;stroke:none"
             d="m 159.492,22.0664 h 45.8984 v 75 H 159.492 Z" /><path
             id="path48"
             style="fill:none;stroke:#008998;stroke-width:4;stroke-linecap:butt;stroke-linejoin:miter;stroke-miterlimit:4;stroke-dasharray:none;stroke-opacity:1"
             d="m 205.391,22.0664 h -45.899 v 75 h 45.899 z" /></g></g></g></g></svg>