<?xml version="1.0" encoding="utf-8"?>
<!-- Generator: Adobe Illustrator 20.1.0, SVG Export Plug-In . SVG Version: 6.00 Build 0)  -->
<svg version="1.1" id="Layer_1" xmlns="http://www.w3.org/2000/svg" xmlns:xlink="http://www.w3.org/1999/xlink" x="0px" y="0px"
	 viewBox="0 0 62.4 62" style="enable-background:new 0 0 62.4 62;" xml:space="preserve">
<style type="text/css">
	.st0{fill:#008998;stroke:#FFFFFF;stroke-width:0.8;}
	.st1{fill:#FFFFFF;}
	.st2{fill:#FFFFFF;stroke:#008998;stroke-width:0.8;}
</style>
<g>
	<g>
		<g>
			<g>
				<rect x="1.2" y="7.6" class="st0" width="53.4" height="53.4"/>
				<polygon class="st0" points="61.4,54.3 61.4,1 54.7,7.6 54.7,61 				"/>
			</g>
		</g>
		<g>
			<polygon class="st0" points="10.5,0.6 1.2,7.3 54.7,7.3 61.4,0.6 			"/>
			<line class="st0" x1="54.7" y1="7.6" x2="1.2" y2="7.6"/>
			<line class="st0" x1="54.7" y1="7.6" x2="61.4" y2="1"/>
			<line class="st0" x1="54.7" y1="7.6" x2="54.7" y2="61"/>
			<line class="st0" x1="54.7" y1="7.6" x2="1.2" y2="7.6"/>
			<line class="st0" x1="54.7" y1="7.6" x2="61.4" y2="1"/>
		</g>
	</g>
	<g>
		<polygon class="st1" points="29.1,26.6 29.1,15 31.1,15 28.2,10.7 25.3,15 27.2,15 27.2,26.6 		"/>
		<polygon class="st1" points="23.2,28.2 15,20.1 16.4,18.7 11.3,17.6 12.3,22.8 13.7,21.4 21.9,29.5 		"/>
		<polygon class="st1" points="20.2,33.6 8.7,33.6 8.7,31.6 4.3,34.5 8.7,37.4 8.7,35.4 20.2,35.4 		"/>
		<polygon class="st1" points="21.9,39.5 13.7,47.6 12.3,46.2 11.3,51.4 16.4,50.3 15,48.9 23.2,40.8 		"/>
		<polygon class="st1" points="27.2,42.5 27.2,54 25.3,54 28.2,58.4 31.1,54 29.1,54 29.1,42.5 		"/>
		<polygon class="st1" points="33.1,40.8 41.3,48.9 39.9,50.3 45,51.4 44,46.2 42.6,47.6 34.4,39.5 		"/>
		<polygon class="st1" points="36.1,35.4 47.7,35.4 47.7,37.4 52,34.5 47.7,31.6 47.7,33.6 36.1,33.6 		"/>
		<polygon class="st1" points="34.4,29.5 42.6,21.4 44,22.8 45,17.6 39.9,18.7 41.3,20.1 33.1,28.2 		"/>
	</g>
	<ellipse transform="matrix(0.8191 -0.5736 0.5736 0.8191 -14.614 22.4864)" class="st2" cx="28.4" cy="34.4" rx="12" ry="12"/>
</g>
</svg>
