<?xml version="1.0" encoding="utf-8"?>
<!-- Generator: Adobe Illustrator 20.1.0, SVG Export Plug-In . SVG Version: 6.00 Build 0)  -->
<svg version="1.1" id="Layer_1" xmlns="http://www.w3.org/2000/svg" xmlns:xlink="http://www.w3.org/1999/xlink" x="0px" y="0px"
	 viewBox="0 0 76.6 51" style="enable-background:new 0 0 76.6 51;" xml:space="preserve">
<style type="text/css">
	.st0{fill:#008998;stroke:#FFFFFF;stroke-width:0.8;}
	.st1{fill:#FFFFFF;}
</style>
<g>
	<rect x="1.1" y="10.8" class="st0" width="66.6" height="38.9"/>
	<polygon class="st0" points="75.7,38 67.8,49.7 67.8,10.8 75.7,1.1 	"/>
	<polygon class="st0" points="13.1,1.1 75.7,1.1 67.8,10.8 1.1,10.8 	"/>
	<g>
		<polygon class="st1" points="24.1,31.1 9.8,31.1 9.8,28.8 24.1,28.8 24.1,25.3 32.4,30 24.1,34.7 		"/>
	</g>
	<g>
		<polygon class="st1" points="53.9,31.1 39.6,31.1 39.6,28.8 53.9,28.8 53.9,25.3 62.2,30 53.9,34.7 		"/>
	</g>
	<g>
		<polygon class="st1" points="51.4,19.6 39.4,27.4 38.2,25.5 50.2,17.7 48.2,14.8 57.7,14.2 53.3,22.6 		"/>
	</g>
	<g>
		<polygon class="st1" points="51.4,40.1 39.4,32.4 38.2,34.3 50.2,42.1 48.2,45 57.7,45.6 53.3,37.2 		"/>
	</g>
</g>
</svg>
