<?xml version="1.0" encoding="utf-8"?>
<!-- Generator: Adobe Illustrator 20.1.0, SVG Export Plug-In . SVG Version: 6.00 Build 0)  -->
<svg version="1.1" id="Layer_1" xmlns="http://www.w3.org/2000/svg" xmlns:xlink="http://www.w3.org/1999/xlink" x="0px" y="0px"
	 viewBox="0 0 63.2 77.9" style="enable-background:new 0 0 63.2 77.9;" xml:space="preserve">
<style type="text/css">
	.st0{fill:#008998;stroke:#FFFFFF;stroke-width:0.8;}
</style>
<g>
	<polygon class="st0" points="62.6,61 62.6,5.2 49.2,18.6 49.2,76.8 	"/>
	<rect x="0.6" y="18.6" class="st0" width="48.5" height="58.2"/>
	<polygon class="st0" points="49.2,18.6 62.6,5.2 55.9,0.4 9.5,0.4 0.6,18.6 49.2,18.6 	"/>
	<g>
		<polyline class="st0" points="10.9,40.4 10.9,45.4 16,45.4 		"/>
		<line class="st0" x1="10.3" y1="45.4" x2="16" y2="45.4"/>
	</g>
	<g>
		<polyline class="st0" points="3.8,40.4 3.8,45.4 8.9,45.4 		"/>
		<line class="st0" x1="3.2" y1="45.4" x2="8.9" y2="45.4"/>
	</g>
	<g>
		<polyline class="st0" points="3.8,30.6 3.8,35.7 8.9,35.7 		"/>
		<line class="st0" x1="3.2" y1="35.7" x2="8.9" y2="35.7"/>
	</g>
	<g>
		<polyline class="st0" points="10.9,20.9 10.9,26 16,26 		"/>
		<line class="st0" x1="10.3" y1="26" x2="16" y2="26"/>
	</g>
	<g>
		<polyline class="st0" points="3.8,20.9 3.8,26 8.9,26 		"/>
		<line class="st0" x1="3.2" y1="26" x2="8.9" y2="26"/>
	</g>
	<g>
		<polyline class="st0" points="19.1,40.4 19.1,45.4 24.2,45.4 		"/>
		<line class="st0" x1="18.6" y1="45.4" x2="24.2" y2="45.4"/>
	</g>
	<g>
		<polyline class="st0" points="19.1,30.6 19.1,35.7 24.2,35.7 		"/>
		<line class="st0" x1="18.6" y1="35.7" x2="24.2" y2="35.7"/>
	</g>
	<g>
		<polyline class="st0" points="19.1,20.9 19.1,26 24.2,26 		"/>
		<line class="st0" x1="18.6" y1="26" x2="24.2" y2="26"/>
	</g>
	<g>
		<polyline class="st0" points="33.9,40.4 33.9,45.4 39,45.4 		"/>
		<line class="st0" x1="33.3" y1="45.4" x2="39" y2="45.4"/>
	</g>
	<g>
		<polyline class="st0" points="26.8,40.4 26.8,45.4 31.9,45.4 		"/>
		<line class="st0" x1="26.2" y1="45.4" x2="31.9" y2="45.4"/>
	</g>
	<g>
		<polyline class="st0" points="26.8,30.6 26.8,35.7 31.9,35.7 		"/>
		<line class="st0" x1="26.2" y1="35.7" x2="31.9" y2="35.7"/>
	</g>
	<g>
		<polyline class="st0" points="33.9,20.9 33.9,26 39,26 		"/>
		<line class="st0" x1="33.3" y1="26" x2="39" y2="26"/>
	</g>
	<g>
		<polyline class="st0" points="26.8,20.9 26.8,26 31.9,26 		"/>
		<line class="st0" x1="26.2" y1="26" x2="31.9" y2="26"/>
	</g>
	<g>
		<polyline class="st0" points="42.1,40.4 42.1,45.4 47.2,45.4 		"/>
		<line class="st0" x1="41.6" y1="45.4" x2="47.2" y2="45.4"/>
	</g>
	<g>
		<polyline class="st0" points="42.1,30.6 42.1,35.7 47.2,35.7 		"/>
		<line class="st0" x1="41.6" y1="35.7" x2="47.2" y2="35.7"/>
	</g>
	<g>
		<polyline class="st0" points="42.1,20.9 42.1,26 47.2,26 		"/>
		<line class="st0" x1="41.6" y1="26" x2="47.2" y2="26"/>
	</g>
	<g>
		<polyline class="st0" points="59.9,12.5 59.9,18.3 56.7,21.3 		"/>
	</g>
	<g>
		<polyline class="st0" points="59.9,32.5 59.9,38.3 56.7,41.3 		"/>
	</g>
	<g>
		<polyline class="st0" points="54.5,37.2 54.5,42.9 51.2,45.9 		"/>
	</g>
	<g>
		<polyline class="st0" points="54.5,17.2 54.5,22.9 51.2,25.9 		"/>
	</g>
	<line class="st0" x1="56.7" y1="0.4" x2="49.1" y2="18.6"/>
</g>
</svg>
