<?xml version="1.0" encoding="UTF-8" standalone="no"?>
<svg
   xmlns:dc="http://purl.org/dc/elements/1.1/"
   xmlns:cc="http://creativecommons.org/ns#"
   xmlns:rdf="http://www.w3.org/1999/02/22-rdf-syntax-ns#"
   xmlns:svg="http://www.w3.org/2000/svg"
   xmlns="http://www.w3.org/2000/svg"
   version="1.1"
   id="svg2"
   xml:space="preserve"
   width="36.093334"
   height="48.493332"
   viewBox="0 0 36.093334 48.493332"><metadata
     id="metadata8"><rdf:RDF><cc:Work
         rdf:about=""><dc:format>image/svg+xml</dc:format><dc:type
           rdf:resource="http://purl.org/dc/dcmitype/StillImage" /></cc:Work></rdf:RDF></metadata><defs
     id="defs6" /><g
     id="g982"><path
       id="path14"
       style="fill:#008998;fill-opacity:1;fill-rule:nonzero;stroke:none;stroke-width:0.13333333"
       d="M 29.487466,48.226145 V 18.924 H 0.72343732 V 48.226145 H 29.487466" /><path
       id="path16"
       style="fill:none;stroke:#FFFFFF;stroke-width:0.5333333;stroke-linecap:butt;stroke-linejoin:miter;stroke-miterlimit:4;stroke-dasharray:none;stroke-opacity:1"
       d="M 29.487466,48.226145 V 18.924 H 0.72343732 v 29.302145 z" /><path
       id="path18"
       style="fill:#008998;fill-opacity:1;fill-rule:nonzero;stroke:none;stroke-width:0.13333333"
       d="m 29.487466,18.924 5.949466,-5.842133" /><path
       id="path20"
       style="fill:none;stroke:#FFFFFF;stroke-width:0.5333333;stroke-linecap:butt;stroke-linejoin:miter;stroke-miterlimit:4;stroke-dasharray:none;stroke-opacity:1"
       d="m 29.487466,18.924 5.949466,-5.842133" /><path
       id="path22"
       style="fill:#008998;fill-opacity:1;fill-rule:nonzero;stroke:none;stroke-width:0.13333333"
       d="M 18.112533,18.924 V 48.226145" /><path
       id="path24"
       style="fill:none;stroke:#FFFFFF;stroke-width:0.5333333;stroke-linecap:butt;stroke-linejoin:miter;stroke-miterlimit:4;stroke-dasharray:none;stroke-opacity:1"
       d="M 18.112533,18.924 V 48.226145" /><path
       id="path26"
       style="fill:#008998;fill-opacity:1;fill-rule:nonzero;stroke:none;stroke-width:0.13333333"
       d="M 29.487466,35.7824 V 6.4802674 H 0.72343732 V 35.7824 H 29.487466" /><path
       id="path28"
       style="fill:none;stroke:#FFFFFF;stroke-width:0.5333333;stroke-linecap:butt;stroke-linejoin:miter;stroke-miterlimit:4;stroke-dasharray:none;stroke-opacity:1"
       d="M 29.487466,35.7824 V 6.4802674 H 0.72343732 V 35.7824 Z" /><path
       id="path30"
       style="fill:#008998;fill-opacity:1;fill-rule:nonzero;stroke:none;stroke-width:0.13333333"
       d="m 35.436932,0.6381342 v 0 41.1286388 l -5.949466,5.999997 v -41.2865026 0 l 5.949466,-5.8421332" /><path
       id="path32"
       style="fill:none;stroke:#FFFFFF;stroke-width:0.5333333;stroke-linecap:butt;stroke-linejoin:miter;stroke-miterlimit:4;stroke-dasharray:none;stroke-opacity:1"
       d="m 35.436932,0.6381342 v 0 41.1286388 l -5.949466,5.999997 v -41.2865026 0 z" /><path
       id="path34"
       style="fill:#008998;fill-opacity:1;fill-rule:nonzero;stroke:none;stroke-width:0.13333333"
       d="M 29.487466,6.4802674 H 0.75729198 L 8.0229198,0.6381342 H 35.436932 l -5.949466,5.8421332" /><path
       id="path36"
       style="fill:none;stroke:#FFFFFF;stroke-width:0.5333333;stroke-linecap:butt;stroke-linejoin:miter;stroke-miterlimit:4;stroke-dasharray:none;stroke-opacity:1"
       d="M 29.487466,6.4802674 H 0.75729198 L 8.0229198,0.6381342 H 35.436932 Z" /><path
       id="path38"
       style="fill:#008998;fill-opacity:1;fill-rule:nonzero;stroke:none;stroke-width:0.13333333"
       d="M 29.487466,6.4802674 35.436932,0.6381342" /><path
       id="path40"
       style="fill:none;stroke:#FFFFFF;stroke-width:0.5333333;stroke-linecap:butt;stroke-linejoin:miter;stroke-miterlimit:4;stroke-dasharray:none;stroke-opacity:1"
       d="M 29.487466,6.4802674 35.436932,0.6381342" /><path
       id="path42"
       style="fill:#008998;fill-opacity:1;fill-rule:nonzero;stroke:none;stroke-width:0.13333333"
       d="M 4.7208399,14.050667 H 27.949999" /><path
       id="path44"
       style="fill:none;stroke:#FFFFFF;stroke-width:0.5333333;stroke-linecap:butt;stroke-linejoin:miter;stroke-miterlimit:4;stroke-dasharray:none;stroke-opacity:1"
       d="M 4.7208399,14.050667 H 27.949999" /><path
       id="path46"
       style="fill:#008998;fill-opacity:1;fill-rule:nonzero;stroke:none;stroke-width:0.13333333"
       d="M 3.6270799,21.148 H 27.009866" /><path
       id="path48"
       style="fill:none;stroke:#FFFFFF;stroke-width:0.5333333;stroke-linecap:butt;stroke-linejoin:miter;stroke-miterlimit:4;stroke-dasharray:none;stroke-opacity:1"
       d="M 3.6270799,21.148 H 27.009866" /><path
       id="path50"
       style="fill:#008998;fill-opacity:1;fill-rule:nonzero;stroke:none;stroke-width:0.13333333"
       d="M 2.5932266,27.891734 H 25.827599" /><path
       id="path52"
       style="fill:none;stroke:#FFFFFF;stroke-width:0.5333333;stroke-linecap:butt;stroke-linejoin:miter;stroke-miterlimit:4;stroke-dasharray:none;stroke-opacity:1"
       d="M 2.5932266,27.891734 H 25.827599" /><path
       id="path54"
       style="fill:#008998;fill-opacity:1;fill-rule:nonzero;stroke:none;stroke-width:0.13333333"
       d="M 5.7739599,31.860533 10.565626,9.784934" /><path
       id="path56"
       style="fill:none;stroke:#FFFFFF;stroke-width:0.5333333;stroke-linecap:butt;stroke-linejoin:miter;stroke-miterlimit:4;stroke-dasharray:none;stroke-opacity:1"
       d="M 5.7739599,31.860533 10.565626,9.784934" /><path
       id="path58"
       style="fill:#008998;fill-opacity:1;fill-rule:nonzero;stroke:none;stroke-width:0.13333333"
       d="M 20.681733,31.860533 25.473466,9.784934" /><path
       id="path60"
       style="fill:none;stroke:#FFFFFF;stroke-width:0.5333333;stroke-linecap:butt;stroke-linejoin:miter;stroke-miterlimit:4;stroke-dasharray:none;stroke-opacity:1"
       d="M 20.681733,31.860533 25.473466,9.784934" /><path
       id="path62"
       style="fill:#008998;fill-opacity:1;fill-rule:nonzero;stroke:none;stroke-width:0.13333333"
       d="M 13.22864,31.688667 18.0188,9.6130673" /><path
       id="path64"
       style="fill:none;stroke:#FFFFFF;stroke-width:0.5333333;stroke-linecap:butt;stroke-linejoin:miter;stroke-miterlimit:4;stroke-dasharray:none;stroke-opacity:1"
       d="M 13.22864,31.688667 18.0188,9.6130673" /><path
       id="path66"
       style="fill:#FFFFFF;fill-opacity:1;fill-rule:nonzero;stroke:none;stroke-width:0.13333333"
       d="m 11.434373,13.985467 c 0,0.669334 -0.815107,1.210933 -1.8192666,1.210933 -1.0036533,0 -1.8187466,-0.541599 -1.8187466,-1.210933 0,-0.6692 0.8150933,-1.210933 1.8187466,-1.210933 1.0041596,0 1.8192666,0.541733 1.8192666,1.210933" /><path
       id="path68"
       style="fill:#FFFFFF;fill-opacity:1;fill-rule:nonzero;stroke:none;stroke-width:0.13333333"
       d="m 18.9656,13.683467 c 0,0.670267 -0.812534,1.212 -1.817734,1.212 -1.0052,0 -1.8176,-0.541733 -1.8176,-1.212 0,-0.669333 0.8124,-1.212533 1.8176,-1.212533 1.0052,0 1.817734,0.5432 1.817734,1.212533" /><path
       id="path70"
       style="fill:#FFFFFF;fill-opacity:1;fill-rule:nonzero;stroke:none;stroke-width:0.13333333"
       d="m 26.515066,14.215734 c 0,0.6708 -0.814,1.212533 -1.817733,1.212533 -1.0052,0 -1.8176,-0.541733 -1.8176,-1.212533 0,-0.667733 0.8124,-1.212 1.8176,-1.212 1.003733,0 1.817733,0.544267 1.817733,1.212" /><path
       id="path72"
       style="fill:#FFFFFF;fill-opacity:1;fill-rule:nonzero;stroke:none;stroke-width:0.13333333"
       d="m 9.7192664,21.183467 c 0,0.6692 -0.8150933,1.213467 -1.8187466,1.213467 -1.00416,0 -1.8177066,-0.544267 -1.8177066,-1.213467 0,-0.669333 0.8135466,-1.212533 1.8177066,-1.212533 1.0036533,0 1.8187466,0.5432 1.8187466,1.212533" /><path
       id="path74"
       style="fill:#FFFFFF;fill-opacity:1;fill-rule:nonzero;stroke:none;stroke-width:0.13333333"
       d="m 17.252133,21.4152 c 0,0.669334 -0.8152,1.210934 -1.817733,1.210934 -1.004134,0 -1.819334,-0.5416 -1.819334,-1.210934 0,-0.670266 0.8152,-1.2136 1.819334,-1.2136 1.002533,0 1.817733,0.543334 1.817733,1.2136" /><path
       id="path76"
       style="fill:#FFFFFF;fill-opacity:1;fill-rule:nonzero;stroke:none;stroke-width:0.13333333"
       d="m 24.801599,21.0584 c 0,0.671867 -0.8152,1.212 -1.817733,1.212 -1.0052,0 -1.820267,-0.540133 -1.820267,-1.212 0,-0.668133 0.815067,-1.210933 1.820267,-1.210933 1.002533,0 1.817733,0.5428 1.817733,1.210933" /><path
       id="path78"
       style="fill:#FFFFFF;fill-opacity:1;fill-rule:nonzero;stroke:none;stroke-width:0.13333333"
       d="m 8.2166665,28.0204 c 0,0.6708 -0.8135467,1.212533 -1.8177067,1.212533 -1.0036533,0 -1.8187466,-0.541733 -1.8187466,-1.212533 0,-0.6692 0.8150933,-1.212 1.8187466,-1.212 1.00416,0 1.8177067,0.5428 1.8177067,1.212" /><path
       id="path80"
       style="fill:#FFFFFF;fill-opacity:1;fill-rule:nonzero;stroke:none;stroke-width:0.13333333"
       d="m 15.749466,28.074 c 0,0.669333 -0.812533,1.212 -1.817733,1.212 -1.005173,0 -1.819227,-0.542667 -1.819227,-1.212 0,-0.6692 0.814054,-1.213466 1.819227,-1.213466 1.0052,0 1.817733,0.544266 1.817733,1.213466" /><path
       id="path82"
       style="fill:#FFFFFF;fill-opacity:1;fill-rule:nonzero;stroke:none;stroke-width:0.13333333"
       d="m 23.298933,28.074 c 0,0.669333 -0.815067,1.212 -1.817734,1.212 -1.0052,0 -1.819199,-0.542667 -1.819199,-1.212 0,-0.6692 0.813999,-1.213466 1.819199,-1.213466 1.002667,0 1.817734,0.544266 1.817734,1.213466" /><path
       id="path84"
       style="fill:#008998;fill-opacity:1;fill-rule:nonzero;stroke:none;stroke-width:0.13333333"
       d="m 27.575999,39.0376 c 0,0.716147 -1.570266,1.29792 -3.506266,1.29792 -1.9364,0 -3.506667,-0.581773 -3.506667,-1.29792 v 6.409893 c 0,0.71876 1.570267,1.301053 3.506667,1.301053 1.936,0 3.506266,-0.582293 3.506266,-1.301053 V 39.0376" /><path
       id="path86"
       style="fill:none;stroke:#FFFFFF;stroke-width:0.5333333;stroke-linecap:butt;stroke-linejoin:miter;stroke-miterlimit:4;stroke-dasharray:none;stroke-opacity:1"
       d="m 27.575999,39.0376 c 0,0.716147 -1.570266,1.29792 -3.506266,1.29792 -1.9364,0 -3.506667,-0.581773 -3.506667,-1.29792 v 6.409893 c 0,0.71876 1.570267,1.301053 3.506667,1.301053 1.936,0 3.506266,-0.582293 3.506266,-1.301053 z" /><path
       id="path88"
       style="fill:#008998;fill-opacity:1;fill-rule:nonzero;stroke:none;stroke-width:0.13333333"
       d="m 24.069733,40.33552 c 1.936,0 3.506266,-0.581773 3.506266,-1.29792 0,-0.717707 -1.570266,-1.29948 -3.506266,-1.29948 -1.9364,0 -3.506667,0.581773 -3.506667,1.29948 0,0.716147 1.570267,1.29792 3.506667,1.29792" /><path
       id="path90"
       style="fill:none;stroke:#FFFFFF;stroke-width:0.5333333;stroke-linecap:butt;stroke-linejoin:miter;stroke-miterlimit:4;stroke-dasharray:none;stroke-opacity:1"
       d="m 24.069733,40.33552 c 1.936,0 3.506266,-0.581773 3.506266,-1.29792 0,-0.717707 -1.570266,-1.29948 -3.506266,-1.29948 -1.9364,0 -3.506667,0.581773 -3.506667,1.29948 0,0.716147 1.570267,1.29792 3.506667,1.29792 z" /><path
       id="path92"
       style="fill:#FFFFFF;fill-opacity:1;fill-rule:nonzero;stroke:none;stroke-width:0.13333333"
       d="M 4.5593732,45.424066 H 11.50208 l -0.03124,1.45052 3.179693,-2.04636 -3.179693,-2.17344 0.03124,1.515627 H 4.5593732" /><path
       id="path94"
       style="fill:#FFFFFF;fill-opacity:1;fill-rule:nonzero;stroke:none;stroke-width:0.13333333"
       d="M 14.2036,39.370933 H 7.2609332 l 0.031253,-1.45208 -3.1796799,2.04844 3.1796799,2.17292 -0.031253,-1.515626 H 14.2036" /></g></svg>