<?xml version="1.0" encoding="utf-8"?>
<!-- Generator: Adobe Illustrator 20.1.0, SVG Export Plug-In . SVG Version: 6.00 Build 0)  -->
<svg version="1.1" id="Layer_1" xmlns="http://www.w3.org/2000/svg" xmlns:xlink="http://www.w3.org/1999/xlink" x="0px" y="0px"
	 viewBox="0 0 75.5 67.9" style="enable-background:new 0 0 75.5 67.9;" xml:space="preserve">
<style type="text/css">
	.st0{fill:#008998;stroke:#FFFFFF;stroke-width:0.8;}
	.st1{stroke:#FFFFFF;stroke-width:0.8;}
	.st2{fill:#FFFFFF;}
</style>
<g>
	<g>
		<rect x="1" y="45.5" class="st0" width="62.9" height="11.8"/>
		<g>
			<line class="st1" x1="44.7" y1="52.2" x2="60.6" y2="52.2"/>
		</g>
		<g>
			<line class="st0" x1="44.7" y1="51.6" x2="60.6" y2="51.6"/>
		</g>
		<polygon class="st0" points="74.5,46.1 74.5,35.5 64,45.5 64,57.2 		"/>
		<polygon class="st0" points="52.8,66.9 52.8,64.2 58.5,56.3 58.5,61.2 		"/>
		<rect x="2.4" y="64.3" class="st0" width="50.4" height="2.6"/>
		<polygon class="st0" points="52.8,64.3 2.4,64.3 8.2,56.3 58.5,56.3 		"/>
		<polygon class="st0" points="74.5,35.5 11.6,35.5 1,45.5 64,45.5 		"/>
		<g>
			<rect x="12.3" y="7.8" class="st0" width="43.4" height="31.8"/>
		</g>
		<path class="st0" d="M15.9,14.8c0-3.2,3.3-3.7,3.3-3.7s25.5,0,28.6,0c4,0,3.9,3.8,3.9,3.8s0,15.6,0,17.9c0,2.2-3.1,3.2-3.1,3.2
			s-26.1,0-29,0c-2.8,0-3.8-3-3.8-3V14.8z"/>
		<polygon class="st0" points="62.9,0.9 19.5,0.9 12.3,7.8 55.7,7.8 		"/>
		<polygon class="st0" points="62.9,32.9 62.9,0.9 55.7,7.7 55.7,39.6 		"/>
	</g>

	<polygon class="st2" points="32.2,24.2 32.2,30 29.3,30 33.4,34.7 37.6,30 34.5,30 34.5,24.2 	"/>
	<polygon class="st2" points="32.2,22.7 32.2,16.9 29.3,16.9 33.4,12.2 37.6,16.9 34.5,16.9 34.5,22.7 	"/>
	<polygon class="st2" points="46.9,24.8 41.1,24.8 41.1,27.6 36.4,23.5 41.1,19.3 41.1,22.4 46.9,22.4 	"/>
	<g>
		<polygon class="st2" points="20.3,24.8 26.1,24.8 26.1,27.6 30.8,23.5 26.1,19.3 26.1,22.4 20.3,22.4 		"/>
	</g>
</g>
</svg>
