<?xml version="1.0" encoding="utf-8"?>
<!-- Generator: Adobe Illustrator 20.1.0, SVG Export Plug-In . SVG Version: 6.00 Build 0)  -->
<svg version="1.1" id="Layer_1" xmlns="http://www.w3.org/2000/svg" xmlns:xlink="http://www.w3.org/1999/xlink" x="0px" y="0px"
	 viewBox="0 0 101.8 46.1" style="enable-background:new 0 0 101.8 46.1;" xml:space="preserve">
<style type="text/css">
	.st0{fill:#008998;stroke:#FFFFFF;stroke-width:0.8;}
</style>
<g>
	<rect x="0.8" y="35.1" class="st0" width="82.2" height="9.9"/>
	<polygon class="st0" points="83,35.1 0.8,35.1 20.7,6.1 101.1,6.1 	"/>
	<polygon class="st0" points="101.1,6.1 101.1,24.7 83,45.1 83,35.1 	"/>
	<polygon class="st0" points="6.4,31.8 12.1,23.3 54.9,23.3 49.1,31.8 	"/>
	<line class="st0" x1="12.1" y1="23.3" x2="17.9" y2="14.9"/>
	<line class="st0" x1="54.9" y1="23.3" x2="60.6" y2="14.9"/>
	<line class="st0" x1="83" y1="35.1" x2="101.1" y2="6.1"/>
	<path class="st0" d="M74.2,11.4c-2.6,3-5.8,6.4-7.8,9.8l0.2,2.2l-6.4,9.8l-0.7-6.4c1.2-4.8,16.2-23.9,19.7-26.1l0.7,6.4l-5.5,6.4
		L74.2,11.4z"/>
	<polygon class="st0" points="52,26.8 51.3,33.2 60.2,33.2 59.5,26.8 	"/>
	<path class="st0" d="M79.2,0.7c-3.5,2.2-18.5,21.3-19.7,26.1H52c1.2-4.8,16.2-23.9,19.7-26.1H79.2z"/>
	<polygon class="st0" points="66.2,31.8 75.1,19.1 88.4,19.1 80.5,31.8 	"/>
	<line class="st0" x1="75.7" y1="31.8" x2="84" y2="19.1"/>
	<line class="st0" x1="71" y1="31.8" x2="79.5" y2="19.1"/>
	<line class="st0" x1="82.5" y1="28.6" x2="68.4" y2="28.6"/>
	<line class="st0" x1="84.5" y1="25.5" x2="70.6" y2="25.5"/>
	<line class="st0" x1="86.4" y1="22.3" x2="72.9" y2="22.3"/>
</g>
</svg>
