<?xml version="1.0" encoding="utf-8"?>
<!-- Generator: Adobe Illustrator 20.1.0, SVG Export Plug-In . SVG Version: 6.00 Build 0)  -->
<svg version="1.1" id="Layer_1" xmlns="http://www.w3.org/2000/svg" xmlns:xlink="http://www.w3.org/1999/xlink" x="0px" y="0px"
	 viewBox="0 0 115.7 73.2" style="enable-background:new 0 0 115.7 73.2;" xml:space="preserve">
<style type="text/css">
	.st0{fill:#008998;stroke:#FFFFFF;stroke-width:0.8;}
	.st1{fill:none;stroke:#FFFFFF;stroke-width:0.2;stroke-linejoin:round;}
	.st2{fill:#FFFFFF;}
	.st3{fill:#008998;stroke:#FFFFFF;stroke-width:0.512;}
	.st4{fill:#008998;}
	.st5{fill:#008998;stroke:#FFFFFF;stroke-width:4;}
	.st6{fill:none;stroke:#FFFFFF;stroke-width:4;stroke-linejoin:round;}
	.st7{fill:none;stroke:#008998;stroke-width:0.8;stroke-linejoin:round;}
	.st8{fill:none;stroke:#008998;stroke-width:2;stroke-linejoin:round;}
	.st9{fill:#008998;stroke:#FFFFFF;stroke-width:0.8;}
</style>
<g>
	<g>
		<g>
			<polygon class="st0" points="106.2,46.4 113.2,9.7 59.9,9.7 52.1,46.4 			"/>
		</g>
		<polygon class="st0" points="113.2,9.7 115.3,12.4 108.8,48 106.2,46.4 		"/>
		<polygon class="st0" points="52.1,46.4 54.4,48 108.8,48 106.2,46.4 		"/>
		<path class="st0" d="M106.7,49v5.4l-1.4,1.2c0,0-3.3,1-2.6,2.9L88,72.3v-6L106.7,49z"/>
		<polyline class="st0" points="29.2,66.3 29.2,72.3 88,72.3 88,66.3 29.2,66.3 		"/>
		<polygon class="st0" points="52.7,49.3 106.7,49 88,66.3 29.2,66.3 		"/>
		<polygon class="st0" points="101.7,42.9 107.3,14.1 63.9,14.1 58.4,42.9 		"/>
		<line class="st1" x1="54" y1="49.7" x2="40.3" y2="60.7"/>
		<line class="st1" x1="58.3" y1="49.7" x2="44.7" y2="60.7"/>
		<line class="st1" x1="62.7" y1="49.7" x2="49.1" y2="60.7"/>
		<line class="st1" x1="67.1" y1="49.7" x2="53.5" y2="60.7"/>
		<line class="st1" x1="71.5" y1="49.7" x2="57.8" y2="60.7"/>
		<line class="st1" x1="75.8" y1="49.7" x2="62.2" y2="60.7"/>
		<line class="st1" x1="80.2" y1="49.7" x2="66.6" y2="60.7"/>
		<line class="st1" x1="84.6" y1="49.7" x2="71" y2="60.7"/>
		<line class="st1" x1="89" y1="49.7" x2="75.3" y2="60.7"/>
		<line class="st1" x1="93.3" y1="49.7" x2="79.7" y2="60.7"/>
		<line class="st1" x1="97.7" y1="49.7" x2="84.1" y2="60.7"/>
		<line class="st1" x1="102.1" y1="49.7" x2="88.5" y2="60.7"/>
		<line class="st1" x1="41.9" y1="59.5" x2="90.4" y2="59.5"/>
		<line class="st1" x1="45.1" y1="57" x2="92.9" y2="57"/>
		<line class="st1" x1="48.5" y1="54.5" x2="96.1" y2="54.5"/>
		<line class="st1" x1="51.5" y1="52" x2="99.5" y2="52"/>
	</g>
	<g>
		<path class="st2" d="M85.9,21.3c3.5,3,7.7,7.8,7.9,10.7c0.2,2.9-1.3,3.7-2.6,4.6c-1.3,0.9-3.8,1-3.8,1l-2.8-3.4
			c0,0,5.7-0.6,4.8-3.9C88.6,27.1,82.4,18.2,85.9,21.3"/>
		<path class="st2" d="M86.8,30.1l2.9,10.8l-6.9-4L86.8,30.1z M86.8,30.1"/>
		<path class="st2" d="M79.2,37.7c-3.5-3-7.7-7.8-7.9-10.7c-0.2-2.9,1.3-3.7,2.6-4.6c1.3-0.9,3.8-1,3.8-1l2.8,3.4
			c0,0-5.7,0.6-4.8,3.9C76.6,31.8,82.8,40.7,79.2,37.7"/>
		<path class="st2" d="M78.5,29l-2.9-10.8l6.9,4L78.5,29z M78.5,29"/>
	</g>
	<g>
		<circle class="st3" cx="84.7" cy="4.6" r="4.3"/>
		<path class="st4" d="M78.5,11.1l1.1-6.7c0,2.9,2.3,5.2,5.2,5.2c2.9,0,5.2-2.3,5.2-5.2l1.1,6.7L78.5,11.1z"/>
		<rect x="81.7" y="3.7" class="st2" width="5.9" height="2"/>
	</g>
</g>
<g>
	<g>
		<ellipse transform="matrix(0.9157 -0.4019 0.4019 0.9157 -23.589 6.7215)" class="st5" cx="4.2" cy="59.6" rx="2.2" ry="2.2"/>
		<path class="st6" d="M43.5,46.4c-5.3,4.9-16.5,10.4-26.4,12.9C10.5,61,5.9,61,4.2,59.6"/>
		<path class="st6" d="M15,46.6c-0.1-3.9,1-8.3,3.2-12.7c5.5-11,16.3-17.7,24.1-15c7.7,2.7,9.5,13.7,4,24.6c-0.5,1-1.1,2-1.7,3"/>
		<ellipse transform="matrix(0.9158 -0.4016 0.4016 0.9158 -14.9049 21.7913)" class="st5" cx="44.5" cy="46.4" rx="3.8" ry="3.8"/>
		<ellipse transform="matrix(0.9157 -0.4018 0.4018 0.9157 -17.4451 9.9142)" class="st5" cx="14.9" cy="46.5" rx="2.2" ry="2.2"/>
	</g>
</g>
<g>
	<g>
		<ellipse transform="matrix(0.9157 -0.4019 0.4019 0.9157 -23.589 6.7215)" class="st9" cx="4.2" cy="59.6" rx="2.2" ry="2.2"/>
		<path class="st7" d="M43.5,46.4c-5.3,4.9-16.5,10.4-26.4,12.9C10.5,61,5.9,61,4.2,59.6"/>
		<path class="st8" d="M15,46.6c-0.1-3.9,1-8.3,3.2-12.7c5.5-11,16.3-17.7,24.1-15c7.7,2.7,9.5,13.7,4,24.6c-0.5,1-1.1,2-1.7,3"/>
		<ellipse transform="matrix(0.9158 -0.4016 0.4016 0.9158 -14.9049 21.7913)" class="st9" cx="44.5" cy="46.4" rx="3.8" ry="3.8"/>
		<ellipse transform="matrix(0.9157 -0.4018 0.4018 0.9157 -17.4451 9.9142)" class="st9" cx="14.9" cy="46.5" rx="2.2" ry="2.2"/>
	</g>
</g>
</svg>
