<?xml version="1.0" encoding="utf-8"?>
<!-- Generator: Adobe Illustrator 20.1.0, SVG Export Plug-In . SVG Version: 6.00 Build 0)  -->
<svg version="1.1" id="Layer_1" xmlns="http://www.w3.org/2000/svg" xmlns:xlink="http://www.w3.org/1999/xlink" x="0px" y="0px"
	 viewBox="0 0 48.7 73" style="enable-background:new 0 0 48.7 73;" xml:space="preserve">
<style type="text/css">
	.st0{fill:#008998;stroke:#FFFFFF;stroke-width:0.8;}
	.st1{fill:#FFFFFF;}
</style>
<g>
	<rect x="10.3" y="8.4" class="st0" width="37.1" height="63.5"/>
	<polygon class="st0" points="36.3,0.8 47.4,8.4 10.3,8.4 1.1,0.8 	"/>
	<polygon class="st0" points="1.1,60.5 1.1,0.8 10.3,8.4 10.3,71.9 	"/>
	<g>
		<polygon class="st1" points="19.4,23.3 19.3,45 21,45 21,23.3 23.5,23.3 20.2,18.7 16.8,23.3 		"/>
	</g>
	<g>
		<polygon class="st1" points="37.6,40.5 37.6,18.8 39.2,18.8 39.2,40.5 41.8,40.5 38.4,45.1 35.1,40.5 		"/>
	</g>
	<path class="st1" d="M21.7,58.6l2.5,0l-3.6-4.6l-3.4,4.6l2.4,0c1,3.9,5.5,6.7,9.5,6.7c4.8,0,9.8-4,9.8-9.2h-1.8
		c0,4.1-4.1,7.5-8,7.5C26.1,63.7,22.6,61.6,21.7,58.6z"/>
</g>
</svg>
