<?xml version="1.0" encoding="utf-8"?>
<!-- Generator: Adobe Illustrator 20.1.0, SVG Export Plug-In . SVG Version: 6.00 Build 0)  -->
<svg version="1.1" id="Layer_1" xmlns="http://www.w3.org/2000/svg" xmlns:xlink="http://www.w3.org/1999/xlink" x="0px" y="0px"
	 viewBox="0 0 77.5 40.2" style="enable-background:new 0 0 77.5 40.2;" xml:space="preserve">
<style type="text/css">
	.st0{fill:#008998;stroke:#FFFFFF;stroke-width:0.8;}
	.st1{fill:#FFFFFF;}
	.st2{fill:none;stroke:#008998;stroke-width:0.8;stroke-linecap:round;stroke-linejoin:round;stroke-miterlimit:1;}
</style>
<g>
	<g>
		<g>
			<rect x="1.2" y="11.6" class="st0" width="59.6" height="14.9"/>
			<polygon class="st0" points="60.8,26.6 60.8,11.6 1.2,11.6 15.9,0.4 69.1,0.4 72.9,0.4 72.9,12.9 			"/>
			<line class="st0" x1="61.4" y1="11.4" x2="72.1" y2="0.6"/>
		</g>
		<rect x="7.1" y="18" class="st1" width="9.5" height="2.8"/>
		<rect x="19.6" y="18" class="st1" width="9.5" height="2.8"/>
		<rect x="32.1" y="18" class="st1" width="9.5" height="2.8"/>
		<rect x="44.6" y="18" class="st1" width="9.5" height="2.8"/>
	</g>
	<g>
		<g>
			<path class="st2" d="M77,26.2c0.5,3.1-0.6,6.7-3.2,9.5c-2.7,3-6.4,4.4-9.7,4"/>
			<path class="st2" d="M75.7,25.9c0.4,2.9-0.6,6.2-3,8.8c-2.5,2.8-6,4.1-9,3.7"/>
			<path class="st2" d="M74.3,25.5c0.4,2.7-0.5,5.7-2.8,8.2c-2.4,2.6-5.5,3.8-8.3,3.4"/>
			<path class="st2" d="M72.9,25.2c0.4,2.4-0.5,5.3-2.6,7.5c-2.2,2.4-5.1,3.5-7.7,3.1"/>
			<path class="st2" d="M71.6,24.9c0.3,2.2-0.5,4.8-2.3,6.8c-2,2.1-4.6,3.2-7,2.9"/>
			<path class="st2" d="M70.2,24.6c0.3,2-0.4,4.3-2.1,6.2c-1.8,1.9-4.2,2.8-6.3,2.6"/>
			<path class="st2" d="M68.8,24.2c0.3,1.8-0.4,3.9-1.9,5.5c-1.6,1.7-3.7,2.5-5.6,2.3"/>
			<path class="st2" d="M67.4,23.9c0.2,1.6-0.3,3.4-1.7,4.9c-1.4,1.5-3.3,2.2-5,2"/>
		</g>
	</g>
</g>
</svg>
