<?xml version="1.0" encoding="utf-8"?>
<!-- Generator: Adobe Illustrator 20.1.0, SVG Export Plug-In . SVG Version: 6.00 Build 0)  -->
<svg version="1.1" id="Layer_1" xmlns="http://www.w3.org/2000/svg" xmlns:xlink="http://www.w3.org/1999/xlink" x="0px" y="0px"
	 viewBox="0 0 70.8 47.2" style="enable-background:new 0 0 70.8 47.2;" xml:space="preserve">
<style type="text/css">
	.st0{fill:#008998;stroke:#FFFFFF;stroke-width:0.92;}
	.st1{stroke:#FFFFFF;stroke-width:0.92;}
	.st2{fill:#FFFFFF;}
</style>
<g>
	<rect x="1.3" y="8.2" class="st0" width="61.3" height="37.9"/>
	<polygon class="st0" points="62.4,8.1 1.3,8.1 10.9,0.5 70.3,0.5 70.3,0.5 70.3,38.2 62.5,46.1 62.5,8.3 	"/>
	<line class="st1" x1="62.5" y1="8" x2="70.4" y2="0.4"/>
	<line class="st2" x1="16.9" y1="24.7" x2="16.9" y2="29.4"/>
	<polyline class="st2" points="10.3,42.6 17.5,42.6 25.3,34.6 32.9,34.6 40.8,42.5 54.4,42.5 54.4,36.9 44,36.9 36,28.8 25.7,28.8 
		17.8,20.9 10.2,20.9 10.2,19.9 7.2,22.9 10.1,25.9 10.1,24.8 16.3,24.8 16.3,30 10.3,30 10.3,28.9 7.3,32 10.2,35 10.2,33.8 
		16.3,33.8 16.3,38.7 10.3,38.7 10.3,37.7 7.3,40.8 10.2,43.7 10.2,42.6 	"/>
	<polyline class="st2" points="53.1,11.1 46,11.1 38.1,19.2 30.6,19.2 22.7,11.3 9.1,11.3 9.1,16.8 19.5,16.8 27.5,24.9 37.8,24.9 
		45.7,32.8 53.3,32.8 53.3,33.9 56.3,30.8 53.4,27.8 53.4,29 47.2,29 47.2,23.8 53.1,23.8 53.1,24.8 56.2,21.7 53.2,18.8 53.2,19.9 
		47.2,19.9 47.2,15 53.1,15 53.1,16 56.2,13 53.2,10 53.2,11.1 	"/>
</g>
</svg>
