<?xml version="1.0" encoding="utf-8"?>
<!-- Generator: Adobe Illustrator 20.1.0, SVG Export Plug-In . SVG Version: 6.00 Build 0)  -->
<svg version="1.1" id="Layer_1" xmlns="http://www.w3.org/2000/svg" xmlns:xlink="http://www.w3.org/1999/xlink" x="0px" y="0px"
	 viewBox="0 0 50.9 63.5" style="enable-background:new 0 0 50.9 63.5;" xml:space="preserve">
<style type="text/css">
	.st0{fill:#008998;stroke:#FFFFFF;stroke-width:0.8;}
	.st1{fill:#FFFFFF;}
	.st2{fill:none;stroke:#FFFFFF;stroke-width:0.8;stroke-linecap:round;stroke-linejoin:round;}
</style>
<g>
	<g>
		<g>
			<polygon class="st0" points="50,0.6 44.5,6.8 1.1,6.8 8.2,0.6 			"/>
		</g>
	</g>
	<polygon class="st0" points="44.5,6.8 44.5,28.4 50,22.6 50,1 	"/>
	<g>
		<g>
			<g>
				<g>
					<g>
						<g>
							<polyline class="st0" points="44.5,62.5 44.5,28 1.1,28 1.1,62.5 							"/>
						</g>
					</g>
					<g>
						<g>
							<rect x="1.1" y="6.8" class="st0" width="43.5" height="21.3"/>
							<polygon class="st0" points="50,56.7 50,22.4 44.5,28.2 44.5,62.5 							"/>
						</g>
					</g>
				</g>
				<g>
					<polygon class="st1" points="23.5,49.3 23.5,56.8 24.8,56.8 22.9,59.6 21,56.8 22.3,56.8 22.3,49.3 					"/>
					<polygon class="st1" points="19.7,48.2 14.4,53.5 15.3,54.4 11.9,55.1 12.6,51.8 13.5,52.7 18.8,47.3 					"/>
					<polygon class="st1" points="17.7,44.7 10.2,44.7 10.2,46 7.4,44.1 10.2,42.2 10.2,43.5 17.7,43.5 					"/>
					<polygon class="st1" points="18.8,40.9 13.5,35.6 12.6,36.5 11.9,33.1 15.3,33.8 14.4,34.7 19.7,40 					"/>
					<polygon class="st1" points="22.3,41.6 22.3,27.1 21,27.1 22.9,24.2 24.8,27.1 23.5,27.1 23.5,41.6 					"/>
					<polygon class="st1" points="26.1,40 31.4,34.7 30.5,33.8 33.9,33.1 33.2,36.5 32.3,35.6 27,40.9 					"/>
					<polygon class="st1" points="28.1,43.5 35.6,43.5 35.6,42.2 38.4,44.1 35.6,46 35.6,44.7 28.1,44.7 					"/>
					<polygon class="st1" points="27,47.3 32.3,52.7 33.2,51.8 33.9,55.1 30.5,54.4 31.4,53.5 26.1,48.2 					"/>
				</g>
			</g>
			<g>
				<ellipse transform="matrix(0.5737 -0.8191 0.8191 0.5737 -26.3715 37.7091)" class="st1" cx="23" cy="44.2" rx="7.8" ry="7.8"/>
			</g>
		</g>
		<g>
			<g>
				<polygon class="st1" points="22.4,13.7 33.9,13.7 33.9,12.5 37.6,14.8 33.9,17.1 33.9,16 22.4,16 				"/>
				<polygon class="st1" points="22.4,20.8 33.9,20.8 33.9,19.7 37.6,21.9 33.9,24.3 33.9,23.1 22.4,23.1 				"/>
				<polygon class="st1" points="22.7,10.3 11.3,10.3 11.3,9.1 7.5,11.4 11.3,13.7 11.3,12.6 22.7,12.6 				"/>
				<polygon class="st1" points="22.7,17.4 11.3,17.4 11.3,16.3 7.5,18.5 11.3,20.9 11.3,19.7 22.7,19.7 				"/>
			</g>
		</g>
	</g>
	<line class="st2" x1="44.3" y1="62.4" x2="1.3" y2="62.4"/>
	<line class="st2" x1="50.1" y1="0.7" x2="44.7" y2="6.7"/>
	<line class="st2" x1="44.3" y1="28.2" x2="1.3" y2="28.2"/>
	<line class="st2" x1="49.9" y1="22.7" x2="44.8" y2="27.9"/>
</g>
</svg>
