<?xml version="1.0" encoding="UTF-8" standalone="no"?>
<svg
   xmlns:dc="http://purl.org/dc/elements/1.1/"
   xmlns:cc="http://creativecommons.org/ns#"
   xmlns:rdf="http://www.w3.org/1999/02/22-rdf-syntax-ns#"
   xmlns:svg="http://www.w3.org/2000/svg"
   xmlns="http://www.w3.org/2000/svg"
   viewBox="0 0 73.080002 27.52"
   height="27.52"
   width="73.080002"
   xml:space="preserve"
   id="svg2"
   version="1.1"><metadata
     id="metadata8"><rdf:RDF><cc:Work
         rdf:about=""><dc:format>image/svg+xml</dc:format><dc:type
           rdf:resource="http://purl.org/dc/dcmitype/StillImage" /></cc:Work></rdf:RDF></metadata><defs
     id="defs6" /><g
     transform="matrix(1.3333333,0,0,-1.3333333,0,27.52)"
     id="g10"><g
       transform="scale(0.1)"
       id="g12"><path
         id="path14"
         style="fill:#008998;fill-opacity:1;fill-rule:nonzero;stroke:none"
         d="M 423.773,8.46875 V 85.5273 H 6.57813 V 8.46875 H 423.773" /><path
         id="path16"
         style="fill:#008998;fill-opacity:1;fill-rule:nonzero;stroke:none"
         d="M 413.617,11.9922 V 74.8711 H 14.8086 V 11.9922 H 413.617" /><path
         id="path18"
         style="fill:none;stroke:#FFFFFF;stroke-width:4;stroke-linecap:butt;stroke-linejoin:miter;stroke-miterlimit:4;stroke-dasharray:none;stroke-opacity:1"
         d="M 413.617,11.9922 V 74.8711 H 14.8086 V 11.9922 Z" /><path
         id="path20"
         style="fill:#008998;fill-opacity:1;fill-rule:nonzero;stroke:none"
         d="M 5.64453,84.9414 149.934,201.887 H 543.227 L 423.441,84.9414 H 5.64453" /><path
         id="path22"
         style="fill:none;stroke:#FFFFFF;stroke-width:4;stroke-linecap:butt;stroke-linejoin:miter;stroke-miterlimit:4;stroke-dasharray:none;stroke-opacity:1"
         d="M 5.64453,84.9414 149.934,201.887 H 543.227 L 423.441,84.9414 Z" /><path
         id="path24"
         style="fill:#008998;fill-opacity:1;fill-rule:nonzero;stroke:none"
         d="M 423.578,4.81641 542.895,123.645 542.973,201.672 423.578,85.1094 V 4.81641" /><path
         id="path26"
         style="fill:none;stroke:#FFFFFF;stroke-width:4;stroke-linecap:butt;stroke-linejoin:miter;stroke-miterlimit:4;stroke-dasharray:none;stroke-opacity:1"
         d="M 423.578,4.81641 542.895,123.645 542.973,201.672 423.578,85.1094 Z" /><path
         id="path28"
         style="fill:#FFFFFF;fill-opacity:1;fill-rule:nonzero;stroke:none"
         d="M 56.5469,34.4727 H 31.8516 v 18.75 h 24.6953 v -18.75" /><path
         id="path30"
         style="fill:#FFFFFF;fill-opacity:1;fill-rule:nonzero;stroke:none"
         d="m 216.547,34.4727 h -24.695 v 18.75 h 24.695 v -18.75" /><path
         id="path32"
         style="fill:#FFFFFF;fill-opacity:1;fill-rule:nonzero;stroke:none"
         d="M 403.207,34.4727 H 378.52 v 18.75 h 24.687 v -18.75" /><path
         id="path34"
         style="fill:#008998;fill-opacity:1;fill-rule:nonzero;stroke:none"
         d="m 319.242,75.7539 c 14.824,-6.4375 24.629,-17.5703 24.629,-30.2266 0,-19.914 -24.258,-36.04292 -54.168,-36.04292 -29.914,0 -54.172,16.12892 -54.172,36.04292 0,19.9141 24.258,36.043 54.172,36.043 10.899,0 21.043,-2.1367 29.539,-5.8164" /><path
         id="path36"
         style="fill:none;stroke:#FFFFFF;stroke-width:3.73099995;stroke-linecap:butt;stroke-linejoin:miter;stroke-miterlimit:4;stroke-dasharray:none;stroke-opacity:1"
         d="m 319.242,75.7539 c 14.824,-6.4375 24.629,-17.5703 24.629,-30.2266 0,-19.914 -24.258,-36.04292 -54.168,-36.04292 -29.914,0 -54.172,16.12892 -54.172,36.04292 0,19.9141 24.258,36.043 54.172,36.043 10.899,0 21.043,-2.1367 29.539,-5.8164" /><path
         id="path38"
         style="fill:#FFFFFF;fill-opacity:1;fill-rule:nonzero;stroke:none"
         d="m 330.746,45.7031 c 0,-14.9297 -18.191,-27.0429 -40.625,-27.0429 -22.441,0 -40.625,12.1132 -40.625,27.0429 0,14.9336 18.184,27.0313 40.625,27.0313 22.434,0 40.625,-12.0977 40.625,-27.0313" /><path
         id="path40"
         style="fill:none;stroke:#FFFFFF;stroke-width:2.7980001;stroke-linecap:butt;stroke-linejoin:miter;stroke-miterlimit:4;stroke-dasharray:none;stroke-opacity:1"
         d="m 330.746,45.7031 c 0,-14.9297 -18.191,-27.0429 -40.625,-27.0429 -22.441,0 -40.625,12.1132 -40.625,27.0429 0,14.9336 18.184,27.0313 40.625,27.0313 22.434,0 40.625,-12.0977 40.625,-27.0313 z" /></g></g></svg>