<?xml version="1.0" encoding="utf-8"?>
<!-- Generator: Adobe Illustrator 20.1.0, SVG Export Plug-In . SVG Version: 6.00 Build 0)  -->
<svg version="1.1" id="Layer_1" xmlns="http://www.w3.org/2000/svg" xmlns:xlink="http://www.w3.org/1999/xlink" x="0px" y="0px"
	 viewBox="0 0 88.4 64.7" style="enable-background:new 0 0 88.4 64.7;" xml:space="preserve">
<style type="text/css">
	.st0{fill:#008998;stroke:#FFFFFF;stroke-width:0.8;}
	.st1{fill:#FFFFFF;stroke:#FFFFFF;stroke-width:0.8;}
	.st2{fill:none;stroke:#FFFFFF;stroke-width:0.2;stroke-linejoin:round;}
	.st3{font-family:'Helvetica-Bold';}
	.st4{font-size:12px;}
	.st5{fill:#008998;stroke:#008998;}
</style>
	<g>
	<polygon class="st0" points="85.8,0.9 87.9,3.6 80.8,39.5 78.2,37.9 	"/>
	<path class="st0" d="M78.7,40.4v5.4l-1.4,1.2c0,0-3.3,1-2.6,2.9L60,63.8v-6L78.7,40.4z"/>
	<polyline class="st0" points="1.2,57.8 1.2,63.8 60,63.8 60,57.8 1.2,57.8 	"/>
	<polygon class="st0" points="24.7,40.8 78.7,40.4 60,57.8 1.2,57.8 	"/>
	<polygon class="st0" points="78.2,37.9 85.8,0.9 32.6,0.9 24.1,37.9 	"/>
	<polygon class="st1" points="73.7,34.3 79.9,5.3 36.6,5.3 30.4,34.3 	"/>
	<line class="st2" x1="26" y1="41.2" x2="12.3" y2="52.2"/>
	<line class="st2" x1="30.3" y1="41.2" x2="16.7" y2="52.2"/>
	<line class="st2" x1="34.7" y1="41.2" x2="21.1" y2="52.2"/>
	<line class="st2" x1="39.1" y1="41.2" x2="25.5" y2="52.2"/>
	<line class="st2" x1="43.5" y1="41.2" x2="29.8" y2="52.2"/>
	<line class="st2" x1="47.8" y1="41.2" x2="34.2" y2="52.2"/>
	<line class="st2" x1="52.2" y1="41.2" x2="38.6" y2="52.2"/>
	<line class="st2" x1="56.6" y1="41.2" x2="43" y2="52.2"/>
	<line class="st2" x1="61" y1="41.2" x2="47.3" y2="52.2"/>
	<line class="st2" x1="65.3" y1="41.2" x2="51.7" y2="52.2"/>
	<line class="st2" x1="69.7" y1="41.2" x2="56.1" y2="52.2"/>
	<line class="st2" x1="74.1" y1="41.2" x2="60.5" y2="52.2"/>
	<line class="st2" x1="13.9" y1="51" x2="62.4" y2="51"/>
	<line class="st2" x1="17.1" y1="48.5" x2="64.9" y2="48.5"/>
	<line class="st2" x1="20.5" y1="46" x2="68.1" y2="46"/>
	<line class="st2" x1="23.5" y1="43.4" x2="71.5" y2="43.4"/>
</g>
<g>
	<text transform="matrix(1 0 0 1 41.5982 25.3576)" class="st5 st3 st4">SSC</text>
</g>
</svg>
