<?xml version="1.0" encoding="utf-8"?>
<!-- Generator: Adobe Illustrator 20.1.0, SVG Export Plug-In . SVG Version: 6.00 Build 0)  -->
<svg version="1.1" id="Layer_1" xmlns="http://www.w3.org/2000/svg" xmlns:xlink="http://www.w3.org/1999/xlink" x="0px" y="0px"
	 viewBox="0 0 22 59.8" style="enable-background:new 0 0 22 59.8;" xml:space="preserve">
<style type="text/css">
	.st0{fill:#008998;}
	.st1{fill:#FFFFFF;stroke:#FFFFFF;stroke-width:0.379;}
	.st2{fill:#FFFFFF;stroke:#008998;stroke-width:0.8;}
</style>
<g>
	<path class="st0" d="M0.3,33.9h4.8L0,59.8h7l4.2-18.9c0,0,2.2,14.8,3.2,18.8c1.1,0,5.1,0,7.4,0c-0.4-1.7-4.3-23.6-4.4-25.9
		c0.6,0,3.7,0.3,4.7,0.1c0-1.1-0.9-7-0.9-8.4c0-1.4-1.3-7.8-1.7-9.2c-0.4-1.2-2.8-3.1-4.1-3.6c-1.3-0.4-3.8-0.3-5.3-0.3
		c-1.4,0-3,0.4-4.4,0.7c-1.1,0.3-2.4,2.1-2.8,3.3c-0.4,1.1-1,4.7-1.4,6.4c-0.4,1.7-0.6,8.1-0.9,9.1C0.3,32.9,0.3,33.9,0.3,33.9z"/>
	<path class="st1" d="M13.9,12.5c-0.5,0-1.4,0-2.2,0c-0.8,0-2,0-2.6,0c-0.6,0-1.9,0.4-2.1,0.4c-0.1,0-0.2-0.1-0.2-0.1l3.4,12.1
		l4.9-12.1c0-0.3-0.4-0.1-0.6-0.3"/>
	<g>
		<g>
			<circle class="st2" cx="11" cy="6.3" r="5.9"/>
		</g>
	</g>
</g>
</svg>
