<?xml version="1.0" encoding="utf-8"?>
<!-- Generator: Adobe Illustrator 20.1.0, SVG Export Plug-In . SVG Version: 6.00 Build 0)  -->
<svg version="1.1" id="Layer_1" xmlns="http://www.w3.org/2000/svg" xmlns:xlink="http://www.w3.org/1999/xlink" x="0px" y="0px"
	 viewBox="0 0 67.1 50.7" style="enable-background:new 0 0 67.1 50.7;" xml:space="preserve">
<style type="text/css">
	.st0{fill:#008998;}
	.st1{fill:#008998;stroke:#FFFFFF;stroke-width:0.8;}
	.st2{fill:none;stroke:#FFFFFF;stroke-width:0.8;}
	.st3{fill:#FFFFFF;}
	.st4{fill:#FFFFFF;stroke:#008998;stroke-width:0.6;stroke-linecap:round;stroke-linejoin:round;}
	.st5{fill:none;stroke:#FFFFFF;stroke-width:0.8;stroke-linecap:round;stroke-linejoin:round;}
	.st6{fill:#FFFFFF;stroke:#FFFFFF;stroke-width:0.8;}
</style>
<g>
	<g>
		<g>
			<g>
				<g>
					<rect x="1.3" y="16.7" class="st0" width="48.6" height="15.8"/>
					<polygon class="st0" points="1.1,16.8 20.8,0.9 66.1,0.9 49.8,16.8 					"/>
					<polygon class="st0" points="49.8,33 66,16.5 66,1 49.8,16.8 					"/>
					<rect x="1.3" y="32.2" class="st0" width="48.6" height="17"/>
					<polygon class="st0" points="49.8,49.7 66,33.1 66,16.4 49.8,32.2 					"/>
				</g>
			</g>
			<g>
				<g>
					<rect x="1.3" y="16.7" class="st1" width="48.6" height="15.8"/>
					<polygon class="st1" points="1.1,16.8 20.8,0.9 66.1,0.9 49.8,16.8 					"/>
					<polygon class="st1" points="49.8,33 66,16.5 66,1 49.8,16.8 					"/>
					<rect x="1.3" y="32.2" class="st1" width="48.6" height="17"/>
					<polygon class="st1" points="49.8,49.7 66,33.1 66,16.4 49.8,32.2 					"/>
				</g>
			</g>
			<g>
				<g>
					<rect x="1.3" y="16.7" class="st2" width="48.6" height="15.8"/>
					<polygon class="st2" points="1.1,16.8 20.8,0.9 66.1,0.9 49.8,16.8 					"/>
					<polygon class="st2" points="49.8,33 66,16.5 66,1 49.8,16.8 					"/>
					<rect x="1.3" y="32.2" class="st2" width="48.6" height="17"/>
					<polygon class="st2" points="49.8,49.7 66,33.1 66,16.4 49.8,32.2 					"/>
				</g>
			</g>
		</g>
		<polygon class="st3" points="36.1,7.7 39.1,8.4 47.3,6.2 50.3,6.9 48.8,4.7 39.1,4.7 43.6,5.4 36.1,7.7 		"/>
		<polygon class="st3" points="18.9,5.4 21.9,4.7 30.1,6.9 33.1,6.2 31.6,8.4 21.9,8.4 26.4,7.7 18.9,5.4 		"/>
		<polygon class="st3" points="49.6,13 46.6,13.7 39.1,11.4 35.3,12.2 36.8,9.9 46.6,9.9 42.8,10.7 49.6,13 		"/>
		<polygon class="st3" points="32.4,10.7 29.4,9.9 21.9,12.2 18.1,11.4 19.6,13.7 29.4,13.8 24.9,13 32.4,10.7 		"/>
		<g>
			<ellipse class="st4" cx="25.7" cy="28.5" rx="5.9" ry="1.8"/>
		</g>
		<path class="st4" d="M31.6,20.2c0,1-2.7,1.8-5.9,1.8c-3.3,0-5.9-0.8-5.9-1.8v7.4c0,1,2.7,1.8,5.9,1.8c3.3,0,5.9-0.8,5.9-1.8V20.2z
			"/>
		<ellipse class="st4" cx="25.7" cy="20.2" rx="5.9" ry="1.8"/>
	</g>
	<line class="st5" x1="1.3" y1="32.4" x2="49.8" y2="32.4"/>
	<g>
		<polygon class="st3" points="19.9,40.4 10.8,40.4 10.8,39.6 7.4,40.8 10.8,42 10.8,41.2 19.9,41.2 		"/>
		<polygon class="st3" points="25,43 25,46.2 22.7,46.2 26.1,47.4 29.6,46.2 27.2,46.2 27.2,43 		"/>
		<polygon class="st3" points="25,38.7 25,35.4 22.7,35.4 26.1,34.2 29.6,35.4 27.2,35.4 27.2,38.7 		"/>
		<polygon class="st3" points="32.4,41.2 41.5,41.2 41.5,42 44.9,40.8 41.5,39.6 41.5,40.4 32.4,40.4 		"/>
		<path class="st2" d="M40.7,46c-1.7,0.6-9.5-1.1-17.5-3.9c-8-2.8-13-5.6-11.3-6.2c1.7-0.6,9.5,1.1,17.5,3.9
			C37.4,42.5,42.5,45.3,40.7,46z"/>
		<path class="st2" d="M40.3,35.8c1.8,0.6-3.2,3.4-11.1,6.2c-7.9,2.8-15.8,4.6-17.6,4c-1.8-0.6,3.1-3.4,11.1-6.2
			C30.6,37,38.5,35.2,40.3,35.8z"/>
	</g>
	<path class="st6" d="M29.8,42.7c3-0.7,3.7-2.2,1.6-3.3c-2.1-1.1-6.2-1.3-9.2-0.6c-3,0.7-3.7,2.2-1.6,3.3
		C22.7,43.2,26.8,43.4,29.8,42.7z"/>
</g>
</svg>
