<?xml version="1.0" encoding="utf-8"?>
<!-- Generator: Adobe Illustrator 20.1.0, SVG Export Plug-In . SVG Version: 6.00 Build 0)  -->
<svg version="1.1" id="Layer_1" xmlns="http://www.w3.org/2000/svg" xmlns:xlink="http://www.w3.org/1999/xlink" x="0px" y="0px"
	 viewBox="0 0 52.5 79.5" style="enable-background:new 0 0 52.5 79.5;" xml:space="preserve">
<style type="text/css">
	.st0{fill:#008998;stroke:#FFFFFF;stroke-width:0.8;}
</style>
<g>
	<g>
		<polyline class="st0" points="42.3,10.2 11.5,10.2 11.5,78.6 42.3,78.6 		"/>
		<polygon class="st0" points="42.3,78.6 52.1,68.8 52.1,0.4 21.3,0.4 11.5,10.2 42.3,10.2 		"/>
		<line class="st0" x1="42.3" y1="10.2" x2="52.1" y2="0.4"/>
		<g>
			<rect x="14.2" y="39.2" class="st0" width="15.5" height="2.3"/>
			<rect x="14.2" y="43.9" class="st0" width="15.5" height="2.3"/>
			<rect x="14.2" y="48.6" class="st0" width="15.5" height="2.3"/>
			<rect x="14.2" y="53.2" class="st0" width="15.5" height="2.3"/>
			<rect x="14.2" y="57.9" class="st0" width="15.5" height="2.3"/>
			<rect x="14.2" y="62.6" class="st0" width="15.5" height="2.3"/>
			<rect x="14.2" y="67.2" class="st0" width="15.5" height="2.3"/>
			<rect x="14.2" y="71.9" class="st0" width="15.5" height="2.3"/>
		</g>
	</g>
	<g>
		<path class="st0" d="M31.5,18.2c0,3.2-7,5.8-15.6,5.8c-8.6,0-15.6-2.6-15.6-5.8v13.3c0,3.2,7,5.8,15.6,5.8
			c8.6,0,15.6-2.6,15.6-5.8V18.2z"/>
		<ellipse class="st0" cx="16" cy="18.2" rx="15.6" ry="5.8"/>
	</g>
	<g>
		<path class="st0" d="M48.2,30.2c0,3.2-7,5.8-15.6,5.8c-8.6,0-15.6-2.6-15.6-5.8v13.3c0,3.2,7,5.8,15.6,5.8
			c8.6,0,15.6-2.6,15.6-5.8V30.2z"/>
		<ellipse class="st0" cx="32.6" cy="30.2" rx="15.6" ry="5.8"/>
	</g>
</g>
</svg>
