<?xml version="1.0" encoding="utf-8"?>
<!-- Generator: Adobe Illustrator 20.1.0, SVG Export Plug-In . SVG Version: 6.00 Build 0)  -->
<svg version="1.1" id="Layer_1" xmlns="http://www.w3.org/2000/svg" xmlns:xlink="http://www.w3.org/1999/xlink" x="0px" y="0px"
	 viewBox="0 0 67.3 63.5" style="enable-background:new 0 0 67.3 63.5;" xml:space="preserve">
<style type="text/css">
	.st0{fill:#008998;stroke:#FFFFFF;stroke-width:0.8;}
	.st1{fill:none;stroke:#FFFFFF;stroke-width:0.8;}
	.st2{fill:#FFFFFF;}
</style>
<g>
	<g>
		<g>
			<g>
				<rect x="1.1" y="6" class="st0" width="60.2" height="56.4"/>
				<polygon class="st0" points="1.1,6 7.3,1 66.3,1 61.3,6 				"/>
				<polygon class="st0" points="61.3,62.4 66.3,56.2 66.3,1 61.3,6 				"/>
			</g>
		</g>
	</g>
	<path class="st1" d="M60.8,25.1H49.5c-3.9,0-3.9-3.9-3.9-3.9c6.1-13.5-4.8-11.4-4.8-11.4s-10.9-2.2-4.8,11.4c0,0,0,3.9-3.9,3.9H4.5
		c0,0-2.2,0.4-3.1,3.5"/>
	<path class="st1" d="M1.1,42.7h11.4c3.9,0,3.9,3.9,3.9,3.9C10.2,60.2,21.2,58,21.2,58s10.9,2.2,4.8-11.4c0,0,0-3.9,3.9-3.9h27.5
		c0,0,2.2-0.4,3.1-3.5"/>
	<polygon class="st2" points="15.2,31.7 16.7,34 10.9,35.3 12.2,34.3 3.3,32.8 5.5,31.1 14.1,32.6 	"/>
	<polygon class="st2" points="23.2,37.3 22.2,34.9 27.4,33.9 26.5,34.7 35.1,36.1 33,37.8 24.5,36.2 	"/>
	<polygon class="st2" points="20.4,30.5 26.2,28.9 26.3,31.4 24.8,31.1 22,33.5 19.3,33.1 22.2,30.8 	"/>
	<polygon class="st2" points="17.9,39.4 12.4,40.4 12.2,37.9 13.8,38.2 16.8,35.6 19.5,36.1 16.3,38.9 	"/>
	<g>
		<polygon class="st2" points="48.2,34.1 52,37.1 53.8,37.1 53.8,36.3 57.8,37.7 53.8,39.2 53.8,38.4 51.5,38.4 47.1,35 42.8,38.4 
			40.5,38.4 40.5,39.2 36.5,37.7 40.5,36.3 40.5,37.1 42.3,37.1 46.1,34.1 42.3,31.1 40.5,31.1 40.5,31.9 36.5,30.5 40.5,29.1 
			40.5,29.9 42.8,29.9 47.1,33.3 51.5,29.9 53.8,29.9 53.8,29.1 57.8,30.5 53.8,31.9 53.8,31.1 52,31.1 		"/>
	</g>
</g>
</svg>
