<?xml version="1.0" encoding="utf-8"?>
<!-- Generator: Adobe Illustrator 20.1.0, SVG Export Plug-In . SVG Version: 6.00 Build 0)  -->
<svg version="1.1" id="Layer_1" xmlns="http://www.w3.org/2000/svg" xmlns:xlink="http://www.w3.org/1999/xlink" x="0px" y="0px"
	 viewBox="0 0 131 51.4" style="enable-background:new 0 0 131 51.4;" xml:space="preserve">
<style type="text/css">
	.st0{fill:#008998;stroke:#FFFFFF;stroke-width:0.8;}
</style>
<g>
	<g>
		<g>
			<polygon class="st0" points="80.7,47.8 80.7,15.8 77.5,18.6 77.5,50.6 			"/>
			<g>
				<rect x="1.1" y="18.7" class="st0" width="76.4" height="31.8"/>
			</g>
			<polygon class="st0" points="80.7,15.8 4.3,15.8 1.1,18.7 77.4,18.7 			"/>
			<line class="st0" x1="80.7" y1="15.8" x2="77.4" y2="18.7"/>
			<line class="st0" x1="16.9" y1="50.5" x2="16.9" y2="18.7"/>
			<line class="st0" x1="31.6" y1="50.5" x2="31.6" y2="18.7"/>
			<line class="st0" x1="46.3" y1="50.5" x2="46.3" y2="18.7"/>
			<line class="st0" x1="60.9" y1="50.5" x2="60.9" y2="18.7"/>
		</g>
		<g>
			<g>
				<polygon class="st0" points="87.1,21.9 90.1,26.4 80.7,31.5 80.7,25.5 				"/>
			</g>
		</g>
		<g>
			<g>
				<polygon class="st0" points="91.5,29.6 94.2,34.3 80.7,42 80.7,36 				"/>
			</g>
		</g>
		<g>
			<g>
				<polygon class="st0" points="121.2,30 105.3,2.3 103.9,6.3 119.8,34 				"/>
				<g>
					
						<rect x="91" y="9.9" transform="matrix(0.8661 -0.4999 0.4999 0.8661 0.7925 54.5181)" class="st0" width="22.3" height="31.8"/>
				</g>
				<polygon class="st0" points="105.3,2.3 85.9,13.5 84.5,17.6 103.9,6.4 				"/>
				<line class="st0" x1="105.3" y1="2.3" x2="103.9" y2="6.4"/>
			</g>
		</g>
		<g>
			<g>
				<polygon class="st0" points="130.5,15 122.7,1 121.7,3.8 129.6,17.8 				"/>
				<g>
					<polygon class="st0" points="129.5,17.8 121.7,3.9 107.2,8.7 118.3,28 					"/>
				</g>
				<polygon class="st0" points="122.7,1 108.2,5.8 107.2,8.7 121.7,3.9 				"/>
				<line class="st0" x1="122.7" y1="1" x2="121.7" y2="3.9"/>
			</g>
		</g>
	</g>
</g>
</svg>
