<?xml version="1.0" encoding="utf-8"?>
<!-- Generator: Adobe Illustrator 20.1.0, SVG Export Plug-In . SVG Version: 6.00 Build 0)  -->
<svg version="1.1" id="Layer_1" xmlns="http://www.w3.org/2000/svg" xmlns:xlink="http://www.w3.org/1999/xlink" x="0px" y="0px"
	 viewBox="0 0 52.4 51.7" style="enable-background:new 0 0 52.4 51.7;" xml:space="preserve">
<style type="text/css">
	.st0{fill:#008998;stroke:#FFFFFF;stroke-width:0.8;}
	.st1{fill:#FFFFFF;stroke:#FFFFFF;stroke-width:0.8;}
	.st2{fill:#FFFFFF;}
	.st3{fill:#008998;}
	.st4{fill:#FFFFFF;}
	.st5{fill:#FFFFFF;}
</style>
<g>
	<g>
		<g>
			<g>
				<polygon class="st0" points="51.6,35.2 46.4,42.6 1.1,42.6 8.5,35.2 				"/>
				<rect x="1.1" y="42.6" class="st0" width="43.3" height="8.1"/>
				<rect x="1.1" y="8.3" class="st0" width="43" height="32.5"/>
				<polygon class="st0" points="44.1,40.9 51.4,33.5 51.4,1 44.1,8.3 				"/>
				<polygon class="st0" points="44.3,50.8 44.3,42.6 51.6,35.4 51.6,43.5 				"/>
				<path class="st1" d="M8.1,12.1h28.8c1.9,0,3.4,1.5,3.4,3.4v18.2c0,1.9-1.5,3.4-3.4,3.4H8.1c-1.9,0-3.4-1.5-3.4-3.4V15.5
					C4.7,13.6,6.2,12.1,8.1,12.1z"/>
				<polygon class="st0" points="51.4,1 9.5,1 1.1,8.3 44.1,8.3 				"/>
			</g>
			<ellipse class="st0" cx="6" cy="46.8" rx="2.5" ry="2.6"/>
			<circle class="st0" cx="39.8" cy="46.8" r="2.6"/>
			<circle class="st0" cx="16.9" cy="47.5" r="1.3"/>
			<circle class="st0" cx="22.2" cy="47.5" r="1.3"/>
			<circle class="st0" cx="27.4" cy="47.5" r="1.3"/>
		</g>
	</g>
	<g>
		<path class="st2" d="M14.1,16.3l3.8-3.4l2.9,1.3l-0.3,3.1l1,2.2l-1.1,3l-0.1,0.7c-0.2,0.8-1,0.4-1,0.4l-1.3,5.3l-3.6-4.7L13.9,22
			l-1.5-4.4"/>
		<path class="st3" d="M15.8,15.4c0.2,0.2,0.3,0.5,0.3,0.7c0.1,0.9-0.2,1.9-0.6,2.8c-0.1,0.2-0.1,0.8-0.3,0.7
			c-0.3-0.2-0.6-0.7-0.9-0.8c-0.4-0.1-0.9,0.3-1.3,0.5c0.8,1,1.7,2.1,1.3,3.4c-1-1.4-2-2.8-2.7-4.4c-0.4-0.8-0.2-2.1,0.3-2.8
			c0.8-1.1,2-2,3.3-2.3c1.8-0.5,3.5-0.8,5.4-0.8c-1.7,0.8-3.2,1.6-4.8,2.7C15.6,15.2,15.7,15.3,15.8,15.4z"/>
		<path class="st3" d="M22,15.6c-0.4,0.8-0.8,1.6-1.3,2.3c0-0.1,0-0.2-0.1-0.2c-0.2,0-0.5,0.1-0.7-0.1c-0.1-0.1-0.1-0.5,0-0.6
			c0.1-0.1,0.6,0.1,0.6,0c0.8-1.3-0.7-2.4-1.2-3.5c1.2,0,2.2,0.8,3.3,0.9C22.4,14.8,22.2,15.2,22,15.6z"/>
		<path class="st3" d="M17.5,17.8c-0.2,0-0.5,0-0.5,0c-0.3-1.1,1.2-0.6,1.9-0.9C18.8,17.6,18.3,17.9,17.5,17.8z"/>
		<path class="st3" d="M19.7,20.1c-0.3,0-0.5,0-0.8,0c0.3-0.3,0.7-0.5,1.1-0.7c0,0.2,0,0.5,0.1,0.7C20,20.1,19.8,20.1,19.7,20.1z"/>
		<path class="st3" d="M19.5,21.5c-0.6,0-1.1,0-1.6,0c0.2-0.2,0.5-0.3,0.7-0.3c0.5-0.1,1.2-0.4,1.6,0.3C20,21.5,19.7,21.5,19.5,21.5
			z"/>
		<path class="st3" d="M19.4,22c0.4,0.2-0.2,0.2-0.1,0.3c-0.3,0.1-0.4-0.2-0.6-0.4C18.9,22,19.2,21.9,19.4,22z"/>
		<path class="st3" d="M27.7,33.4c0-0.8,0.2-1.5,0.4-2.4c0.2-0.7,0.5-1.5,0.2-1.9c-0.3-0.6-1.1-1.1-1.9-1.4
			c-2.1-0.8-4.1-1.5-6.2-2.5l-0.3,0.1l0.4,5.2l-1.8,5.6"/>
		<path class="st3" d="M18.5,36.4l-3.8-5.3L13,25.5c-0.3,0.2-0.7,0.4-1,0.6c-2.6,1.2-4.7,1.5-7.1,3.1c0,5,2.2,3,1.9,8"/>
		<path class="st4" d="M18.1,36.9l2.2-6.4l-0.4-5.2l-0.7-0.7l-1.2,2.2l-3.8-3.1c0,0.8-1.3,1.5-1.3,1.5l1.8,5.6l3.8,5.3"/>
		<polyline class="st3" points="16.8,36.1 17.7,28.3 17.2,27.7 17.7,27 18.1,27.2 18.4,26.9 18.9,27.5 18.3,28.4 19.2,35.2 		"/>
		<path class="st3" d="M23.9,28.4c-0.4-0.4-1.1-0.4-1.1-1.1c0.4,0,0.8,0,1.2-0.2c-0.7-0.3-1-0.9-1.1-1.5c0-0.1,0.2-0.4,0.3-0.4
			c0.3,0,0.3,0.5,0.6,0.6c0.1,0.1,0.2,0,0.2-0.1c0.1-0.4,0-0.7-0.1-1.1c0.4,0.1,1.1,0.3,1.1-0.1c0-0.6-0.8-1.2-0.3-1.7
			c0.1-0.1,0.7,0.6,0.8,0.1c0-0.4-0.6-0.9-0.5-1.4c0-0.3,0.7-0.4,0.8-0.7c0.2-0.5-0.2-1.2-0.1-1.7c0.4-1.5,1.3-2.8,2-4.1
			c1.8-0.1,2.5-1.8,5.4-0.3c0.1,0-0.3,0-0.2,0.2c0,0.1,0.1,0.2,0.2,0.2c0.5,0,1,0,1.2,0.4c0.1,0.3-0.3,0.7-0.2,1
			c0.2,0.4,1,0.2,1.1,0.6c0.2,0.8-0.7,1.5-0.6,2.2c0.1,0.4,0.9,0.6,1.2,1c0.3,0.5-0.1,1.3,0.4,1.8c0.2-0.2,0.4-0.4,0.7-0.6
			c0.1,0.5,0.3,0.9,0.5,1.3c0.3-0.4,0.7-0.8,0.9-1.2c0.3,0.2,0.2,0.7,0.1,0.8c-0.5,0.5-1,1.1-1.7,1.3c-0.1,0-0.1,0.1-0.2,0.2
			l-0.8-0.5c-0.1,0.2,0.6,0.5,0.3,0.6l0.1,0.5c0.4,0.5,0.9,0.1,1.4,0c0.2,0.8-0.9,0.9-1,1.5c-0.1,0.3,0.5,0.2,0.9,0.1
			c-0.1,0.6-0.6,0.9-0.9,1.3"/>
		<path class="st3" d="M18.7,37c0.5-2.6,0.2-4.2,0.5-6.7c1.5-0.9,3.1-1.5,4.7-2l7.2-1.6l5.4,0.6c1.1,0.4,2.3,0.3,3.4,0.7
			c1,2.6-1.7,5.6-0.8,8.2L38.4,37"/>
		<path class="st5" d="M33.5,30.2c-0.1,0-0.1-0.1-0.2-0.1c0-0.2-0.1-0.4,0-0.4c0.1-0.1,0.3,0,0.4,0c0,0.1,0,0.2,0.1,0.2
			c0.3-0.8,0-1.7-0.1-2.5c0-0.3-0.7-0.3-0.9-0.5c-0.4-0.5-0.6-2.2-0.1-2.1c1.3,0.1,1.3-2.4,1.7-3.7c0.1-0.6-0.1-0.8-0.4-1.4
			c-0.2,0.1-0.1,0.3-0.1,0.3c-0.3,0.1-0.7,0.3-0.9,0.1c-0.1-0.1-0.1-0.5,0-0.6c0.2-0.2,1.1-0.3,1.1-0.3c0.2-0.6-0.1-1.2-0.6-1.7
			c-0.2,0.3-0.4,0.4-0.8,0.4c0.3-0.2,0.2-0.9-0.1-0.7c-0.5,0.3-0.4,1.2-1.2,1.2c0-0.3,0-0.7-0.2-0.9c-0.3,0.4-0.5,0.8-0.9,0.7
			c-0.3,0-0.2-0.8-0.5-0.4C29.4,18,30.2,18.5,30,19c-0.3,1.1-0.3,2.1-0.9,3.1c-0.1,0.2-0.1,0.4,0,0.6c0.1,0.3,0.4,0.4,0.7,0.4
			c0,0.5-0.5,0.2-0.7,0.5c-0.1,0.1-0.1,0.2,0,0.3c0.2,0.4,0.6,0.4,1,0.4c-0.1,0.7-0.9,0.8-1.4,0.5c-0.1,0.7,0.3,1.4,0.9,1.5
			c-0.3,0.4-0.8,0.1-1.1,0.3c-0.4,0.3,0.1,0.9,0,1.3c-0.1-0.2-0.3-0.2-0.3-0.1c-0.4,0.5,0.1,1.2,0.2,1.7c0.1-0.2,0.2-0.1,0.3-0.1
			c0.2,0.1,0.1,0.3,0.1,0.5c-0.1,0-0.2,0-0.3,0c-0.3,0.2,0.1,0.4,0,0.6c1.1,0.6,2.4,1,3.6,0.8c0.3,0,0.8-0.2,1.1-0.5
			c-0.3-0.2-0.9,0-0.7-0.6c0.1-0.2,0.4-0.2,0.6-0.1c0.2,0.1,0,0.4,0,0.5c0,0.1,0.1,0.2,0.2,0.1c0.3-0.2,0.7-0.4,0.8-0.7
			c0,0-0.1-0.2-0.2-0.2C33.7,29.9,33.8,30.3,33.5,30.2z"/>
		<path class="st3" d="M32.1,20c-0.1,0.1-0.2,0.2-0.2,0.2c-0.5-0.1-1,0-1.3-0.6c0.6-0.2,1.3-0.5,1.8-0.1
			C32.6,19.7,32.2,19.9,32.1,20z"/>
		<path class="st3" d="M33.7,21.7c-0.1,0.4-0.6,0.1-0.9,0.1c0.2-0.4,0.4-0.5,0.8-0.6C33.6,21.5,33.7,21.6,33.7,21.7z"/>
		<path class="st3" d="M33.3,22.9c-0.4,0-0.8,0.2-1.2,0c0.6-0.4,1.3-0.2,2-0.4c-0.1,0.1-0.1,0.1-0.1,0.2C33.7,22.8,33.5,22.8,33.3,22.9z"/>
		<path class="st3" d="M32.1,31c-0.2,0.2-0.7-0.1-0.6-0.4c0.1-0.2,0.2-0.3,0.4-0.2C32.3,30.4,32.4,30.8,32.1,31z"/>
		<path class="st3" d="M31.1,30.9c-0.2,0.1-0.2-0.2-0.4-0.1c0-0.2-0.1-0.4,0.1-0.4c0.1,0,0.4-0.1,0.5,0.1C31.4,30.6,31.3,30.8,31.1,30.9z"/>
		<path class="st3" d="M30.1,30.7c-0.1,0-0.3,0.1-0.3-0.1c0-0.2-0.1-0.4,0.1-0.4c0.3-0.1,0.6,0.2,0.4,0.4C30.3,30.6,30.2,30.6,30.1,30.7z"/>
		<path class="st3" d="M29.4,30.2c-0.1,0-0.3,0.1-0.3-0.1c-0.1-0.3,0.3-0.5,0.4-0.3C29.6,29.8,29.6,30.1,29.4,30.2z"/>
		<path class="st3" d="M33.2,23.4c-0.2,0-0.4-0.1-0.6-0.2c0.4,0,0.8-0.1,1.2-0.1C33.6,23.3,33.5,23.3,33.2,23.4z"/>
	</g>
	<rect x="7.3" y="35.4" class="st3" width="31.1" height="1.7"/>
</g>
</svg>
