<?xml version="1.0" encoding="utf-8"?>
<!-- Generator: Adobe Illustrator 20.1.0, SVG Export Plug-In . SVG Version: 6.00 Build 0)  -->
<svg version="1.1" id="Layer_1" xmlns="http://www.w3.org/2000/svg" xmlns:xlink="http://www.w3.org/1999/xlink" x="0px" y="0px"
	 viewBox="0 0 64.8 92.9" style="enable-background:new 0 0 64.8 92.9;" xml:space="preserve">
<style type="text/css">
	.st0{fill:none;stroke:#008998;stroke-width:2;}
	.st1{fill:#008998;stroke:#FFFFFF;stroke-width:0.8;}
</style>
<g>
	<line class="st0" x1="29.9" y1="25" x2="29.9" y2="92.9"/>
	<line class="st0" x1="29.9" y1="25" x2="59" y2="81.9"/>
	<line class="st0" x1="29.9" y1="25" x2="0.9" y2="81.9"/>
	<g>
		<rect x="21.2" y="17.2" class="st1" width="17.4" height="15.7"/>
	</g>
	<g>
		<path class="st1" d="M5,16.6c-0.9,0-1.7-2.2-1.7-4.8c0-2.7,0.7-4.8,1.7-4.8h8.7c0.9,0,1.7,2.2,1.7,4.8c0,2.7-0.7,4.8-1.7,4.8H5z"
			/>
	</g>
	<rect x="11.4" y="6.4" class="st1" width="37.1" height="16.9"/>
	<polygon class="st1" points="48.5,23.3 48.5,6.4 11.4,6.4 16.1,1.6 48.7,1.6 53.2,1.6 53.2,18.5 	"/>
	<line class="st1" x1="48.5" y1="6.4" x2="53.2" y2="1.6"/>
	<line class="st1" x1="48.5" y1="18.8" x2="11.4" y2="18.8"/>
	<line class="st1" x1="53.2" y1="14.1" x2="48.5" y2="18.8"/>
	<polygon class="st1" points="64.2,0.6 63.5,4.2 50.5,12.7 49.8,6 	"/>
</g>
</svg>
