<?xml version="1.0" encoding="UTF-8" standalone="no"?>
<svg
   xmlns:dc="http://purl.org/dc/elements/1.1/"
   xmlns:cc="http://creativecommons.org/ns#"
   xmlns:rdf="http://www.w3.org/1999/02/22-rdf-syntax-ns#"
   xmlns:svg="http://www.w3.org/2000/svg"
   xmlns="http://www.w3.org/2000/svg"
   viewBox="0 0 52.346668 61.146667"
   height="61.146667"
   width="52.346668"
   xml:space="preserve"
   id="svg2"
   version="1.1"><metadata
     id="metadata8"><rdf:RDF><cc:Work
         rdf:about=""><dc:format>image/svg+xml</dc:format><dc:type
           rdf:resource="http://purl.org/dc/dcmitype/StillImage" /></cc:Work></rdf:RDF></metadata><defs
     id="defs6" /><g
     transform="matrix(1.3333333,0,0,-1.3333333,0,61.146667)"
     id="g10"><g
       transform="scale(0.1)"
       id="g12"><path
         id="path14"
         style="fill:#008998;fill-opacity:1;fill-rule:nonzero;stroke:none"
         d="M 6.07031,276.047 83.0078,332.922 387.402,356.25 308.125,276.047 H 6.07031" /><path
         id="path16"
         style="fill:none;stroke:#FFFFFF;stroke-width:4;stroke-linecap:butt;stroke-linejoin:miter;stroke-miterlimit:4;stroke-dasharray:none;stroke-opacity:1"
         d="M 6.07031,276.047 83.0078,332.922 387.402,356.25 308.125,276.047 Z" /><path
         id="path18"
         style="fill:#008998;fill-opacity:1;fill-rule:nonzero;stroke:none"
         d="M 308.125,4.86328 387.402,84.8711 V 356.074 L 308.125,276.047 V 4.86328" /><path
         id="path20"
         style="fill:none;stroke:#FFFFFF;stroke-width:4;stroke-linecap:butt;stroke-linejoin:miter;stroke-miterlimit:4;stroke-dasharray:none;stroke-opacity:1"
         d="M 308.125,4.86328 387.402,84.8711 V 356.074 l -79.277,-80.027 z" /><path
         id="path22"
         style="fill:#008998;fill-opacity:1;fill-rule:nonzero;stroke:none"
         d="M 308.125,4.77344 V 276.047 H 6.49609 V 4.77344 H 308.125" /><path
         id="path24"
         style="fill:none;stroke:#FFFFFF;stroke-width:4;stroke-linecap:butt;stroke-linejoin:miter;stroke-miterlimit:4;stroke-dasharray:none;stroke-opacity:1"
         d="M 308.125,4.77344 V 276.047 H 6.49609 V 4.77344 Z" /><path
         id="path26"
         style="fill:#008998;fill-opacity:1;fill-rule:nonzero;stroke:none"
         d="M 6.07031,373.699 106.344,453.895 H 387.402 L 308.125,373.699 H 6.07031" /><path
         id="path28"
         style="fill:none;stroke:#FFFFFF;stroke-width:4;stroke-linecap:butt;stroke-linejoin:miter;stroke-miterlimit:4;stroke-dasharray:none;stroke-opacity:1"
         d="M 6.07031,373.699 106.344,453.895 h 281.058 l -79.277,-80.196 z" /><path
         id="path30"
         style="fill:#008998;fill-opacity:1;fill-rule:nonzero;stroke:none"
         d="m 308.125,275.852 79.277,80.015 v 97.856 l -79.277,-80.024 v -97.847" /><path
         id="path32"
         style="fill:none;stroke:#FFFFFF;stroke-width:4;stroke-linecap:butt;stroke-linejoin:miter;stroke-miterlimit:4;stroke-dasharray:none;stroke-opacity:1"
         d="m 308.125,275.852 79.277,80.015 v 97.856 l -79.277,-80.024 z" /><path
         id="path34"
         style="fill:#008998;fill-opacity:1;fill-rule:nonzero;stroke:none"
         d="m 308.125,275.762 v 97.937 H 6.49609 V 275.762 H 308.125" /><path
         id="path36"
         style="fill:none;stroke:#FFFFFF;stroke-width:4;stroke-linecap:butt;stroke-linejoin:miter;stroke-miterlimit:4;stroke-dasharray:none;stroke-opacity:1"
         d="m 308.125,275.762 v 97.937 H 6.49609 v -97.937 z" /><path
         id="path38"
         style="fill:none;stroke:#FFFFFF;stroke-width:4.5;stroke-linecap:round;stroke-linejoin:miter;stroke-miterlimit:1;stroke-dasharray:none;stroke-opacity:1"
         d="m 284.129,323.984 c 0,0 -19.57,-50.312 -43.094,0.149 -23.508,50.426 -43.113,0.105 -43.113,0.105 0,0 -19.551,-50.343 -43.059,0.098 -23.5,50.437 -42.996,-0.313 -42.996,-0.313 0,0 -19.5193,-50.351 -43.0428,0.11 -23.5078,50.426 -43.0078,0.144 -43.0078,0.144" /><path
         id="path40"
         style="fill:none;stroke:#FFFFFF;stroke-width:9;stroke-linecap:round;stroke-linejoin:miter;stroke-miterlimit:1;stroke-dasharray:none;stroke-opacity:1"
         d="m 25.8164,323.984 c 0,0 19.5742,-50.312 43.0938,0.149 23.5078,50.426 43.1098,0.105 43.1098,0.105 0,0 19.558,-50.343 43.058,0.098 23.508,50.437 43,-0.313 43,-0.313 0,0 19.52,-50.351 43.047,0.11 23.504,50.426 43.004,0.144 43.004,0.144" /><path
         id="path42"
         style="fill:none;stroke:#008998;stroke-width:4.5;stroke-linecap:round;stroke-linejoin:miter;stroke-miterlimit:1;stroke-dasharray:none;stroke-opacity:1"
         d="m 288.664,323.977 c 0,0 -19.574,-50.305 -43.098,0.156 -23.507,50.426 -43.113,0.105 -43.113,0.105 0,0 -19.555,-50.351 -43.058,0.086 -23.5,50.449 -43,-0.308 -43,-0.308 0,0 -19.5161,-50.344 -43.0395,0.117 -23.5078,50.426 -43.0078,0.133 -43.0078,0.133" /><path
         id="path44"
         style="fill:none;stroke:#008998;stroke-width:9;stroke-linecap:round;stroke-linejoin:miter;stroke-miterlimit:1;stroke-dasharray:none;stroke-opacity:1"
         d="m 30.3477,323.977 c 0,0 19.5703,-50.305 43.0937,0.156 23.5078,50.426 43.1096,0.105 43.1096,0.105 0,0 19.558,-50.351 43.058,0.086 23.508,50.449 42.996,-0.308 42.996,-0.308 0,0 19.524,-50.344 43.047,0.117 23.508,50.426 43.012,0.133 43.012,0.133" /><path
         id="path46"
         style="fill:none;stroke:#FFFFFF;stroke-width:4.5;stroke-linecap:round;stroke-linejoin:miter;stroke-miterlimit:1;stroke-dasharray:none;stroke-opacity:1"
         d="m 284.129,323.984 c 0,0 -19.57,-50.312 -43.094,0.149 -23.508,50.426 -43.113,0.105 -43.113,0.105 0,0 -19.551,-50.343 -43.059,0.098 -23.5,50.437 -42.996,-0.313 -42.996,-0.313 0,0 -19.5193,-50.351 -43.0428,0.11 -23.5078,50.426 -43.0078,0.144 -43.0078,0.144" /><path
         id="path48"
         style="fill:none;stroke:#FFFFFF;stroke-width:9;stroke-linecap:round;stroke-linejoin:miter;stroke-miterlimit:1;stroke-dasharray:none;stroke-opacity:1"
         d="m 25.8164,323.984 c 0,0 19.5742,-50.312 43.0938,0.149 23.5078,50.426 43.1098,0.105 43.1098,0.105 0,0 19.558,-50.343 43.058,0.098 23.508,50.437 43,-0.313 43,-0.313 0,0 19.52,-50.351 43.047,0.11 23.504,50.426 43.004,0.144 43.004,0.144" /><path
         id="path50"
         style="fill:none;stroke:#008998;stroke-width:4.5;stroke-linecap:round;stroke-linejoin:miter;stroke-miterlimit:1;stroke-dasharray:none;stroke-opacity:1"
         d="m 288.664,323.977 c 0,0 -19.574,-50.305 -43.098,0.156 -23.507,50.426 -43.113,0.105 -43.113,0.105 0,0 -19.555,-50.351 -43.058,0.086 -23.5,50.449 -43,-0.308 -43,-0.308 0,0 -19.5161,-50.344 -43.0395,0.117 -23.5078,50.426 -43.0078,0.133 -43.0078,0.133" /><path
         id="path52"
         style="fill:none;stroke:#008998;stroke-width:9;stroke-linecap:round;stroke-linejoin:miter;stroke-miterlimit:1;stroke-dasharray:none;stroke-opacity:1"
         d="m 30.3477,323.977 c 0,0 19.5703,-50.305 43.0937,0.156 23.5078,50.426 43.1096,0.105 43.1096,0.105 0,0 19.558,-50.351 43.058,0.086 23.508,50.449 42.996,-0.308 42.996,-0.308 0,0 19.524,-50.344 43.047,0.117 23.508,50.426 43.012,0.133 43.012,0.133" /><path
         id="path54"
         style="fill:none;stroke:#FFFFFF;stroke-width:4.5;stroke-linecap:round;stroke-linejoin:miter;stroke-miterlimit:1;stroke-dasharray:none;stroke-opacity:1"
         d="m 284.129,323.984 c 0,0 -19.57,-50.312 -43.094,0.149 -23.508,50.426 -43.113,0.105 -43.113,0.105 0,0 -19.551,-50.343 -43.059,0.098 -23.5,50.437 -42.996,-0.313 -42.996,-0.313 0,0 -19.5193,-50.351 -43.0428,0.11 -23.5078,50.426 -43.0078,0.144 -43.0078,0.144" /><path
         id="path56"
         style="fill:none;stroke:#FFFFFF;stroke-width:9;stroke-linecap:round;stroke-linejoin:miter;stroke-miterlimit:1;stroke-dasharray:none;stroke-opacity:1"
         d="m 25.8164,323.984 c 0,0 19.5742,-50.312 43.0938,0.149 23.5078,50.426 43.1098,0.105 43.1098,0.105 0,0 19.558,-50.343 43.058,0.098 23.508,50.437 43,-0.313 43,-0.313 0,0 19.52,-50.351 43.047,0.11 23.504,50.426 43.004,0.144 43.004,0.144" /><path
         id="path58"
         style="fill:#FFFFFF;fill-opacity:1;fill-rule:nonzero;stroke:none"
         d="m 165.898,179.309 v 57.722 h 9.805 l -14.453,21.785 -14.457,-21.785 h 9.789 v -57.722 h 9.316" /><path
         id="path60"
         style="fill:#FFFFFF;fill-opacity:1;fill-rule:nonzero;stroke:none"
         d="m 136.449,170.969 -40.8201,40.816 6.9261,6.914 -25.6331,5.196 5.1914,-25.625 6.9258,6.925 40.8239,-40.832 6.586,6.606" /><path
         id="path62"
         style="fill:#FFFFFF;fill-opacity:1;fill-rule:nonzero;stroke:none"
         d="M 121.523,144.238 H 63.7891 v 9.793 l -21.793,-14.461 21.793,-14.441 v 9.793 h 57.7339 v 9.316" /><path
         id="path64"
         style="fill:#FFFFFF;fill-opacity:1;fill-rule:nonzero;stroke:none"
         d="m 129.863,114.785 -40.8239,-40.8202 -6.9258,6.9141 -5.1914,-25.625 25.6331,5.1953 -6.9261,6.9219 40.8201,40.8199 -6.586,6.594" /><path
         id="path66"
         style="fill:#FFFFFF;fill-opacity:1;fill-rule:nonzero;stroke:none"
         d="M 156.582,99.8516 V 42.1289 h -9.789 L 161.25,20.332 175.703,42.1289 h -9.805 v 57.7227 h -9.316" /><path
         id="path68"
         style="fill:#FFFFFF;fill-opacity:1;fill-rule:nonzero;stroke:none"
         d="m 186.035,108.191 40.82,-40.8199 -6.914,-6.9219 25.625,-5.1953 -5.195,25.625 -6.914,-6.9141 -40.84,40.8202 -6.582,-6.594" /><path
         id="path70"
         style="fill:#FFFFFF;fill-opacity:1;fill-rule:nonzero;stroke:none"
         d="m 200.977,134.922 h 57.714 v -9.793 l 21.797,14.441 -21.797,14.461 v -9.793 h -57.714 v -9.316" /><path
         id="path72"
         style="fill:#FFFFFF;fill-opacity:1;fill-rule:nonzero;stroke:none"
         d="m 192.617,164.363 40.84,40.832 6.914,-6.925 5.195,25.625 -25.625,-5.196 6.914,-6.914 -40.82,-40.816 6.582,-6.606" /><path
         id="path74"
         style="fill:#FFFFFF;fill-opacity:1;fill-rule:nonzero;stroke:none"
         d="m 196.68,90.7031 c 27.246,19.0819 33.867,56.6209 14.785,83.8669 -19.082,27.239 -56.621,33.86 -83.863,14.778 -27.243,-19.067 -33.8559,-56.614 -14.786,-83.86 19.079,-27.2341 56.618,-33.8552 83.864,-14.7849" /><path
         id="path76"
         style="fill:#008998;fill-opacity:1;fill-rule:nonzero;stroke:none"
         d="m 118.633,405.664 31.875,2.656 -6.016,-9.035 -8.429,1.594 -34.872,-13.289 -8.4215,2.129 33.6755,12.754 -7.812,3.191 v 0" /><path
         id="path78"
         style="fill:#008998;fill-opacity:1;fill-rule:nonzero;stroke:none"
         d="m 254.559,405.137 -27.676,4.25 3.008,-10.102 7.218,1.059 25.274,-11.164 8.41,2.129 -24.66,10.632 8.426,3.196 v 0" /><path
         id="path80"
         style="fill:#008998;fill-opacity:1;fill-rule:nonzero;stroke:none"
         d="m 206.434,433.848 -13.829,1.062 45.11,10.102 19.246,-13.828 -14.434,1.062 h -3.015 l -24.051,-15.422 h -33.078 l 25.871,17.024 h -1.82 v 0" /><path
         id="path82"
         style="fill:#008998;fill-opacity:1;fill-rule:nonzero;stroke:none"
         d="m 178.172,397.156 h -9.625 l 25.262,13.828 1.796,-13.828 h -10.214 1.199 l -12.633,-12.222 h -9.027 l 12.636,12.222 h 0.606 v 0" /><path
         id="path84"
         style="fill:#FFFFFF;fill-opacity:1;fill-rule:nonzero;stroke:none"
         d="m 117.422,406.727 31.883,2.66 -6.012,-9.043 -8.43,1.597 -34.8786,-13.289 -8.418,2.118 33.6796,12.765 -7.824,3.192 v 0" /><path
         id="path86"
         style="fill:#FFFFFF;fill-opacity:1;fill-rule:nonzero;stroke:none"
         d="m 253.348,406.199 -27.664,4.25 3.007,-10.105 7.219,1.062 25.262,-11.164 8.418,2.129 -24.66,10.637 8.418,3.191 v 0" /><path
         id="path88"
         style="fill:#FFFFFF;fill-opacity:1;fill-rule:nonzero;stroke:none"
         d="m 205.234,434.91 -13.828,1.059 45.098,10.105 19.25,-13.828 -14.438,1.063 H 238.32 L 214.258,417.898 H 181.18 l 25.863,17.012 h -1.809 v 0" /><path
         id="path90"
         style="fill:#FFFFFF;fill-opacity:1;fill-rule:nonzero;stroke:none"
         d="m 176.961,398.223 h -9.609 l 25.253,13.816 1.809,-13.816 h -10.226 1.203 l -12.637,-12.227 h -9.024 l 12.637,12.227 h 0.594 v 0" /></g></g></svg>