<?xml version="1.0" encoding="UTF-8" standalone="no"?>
<svg
   xmlns:dc="http://purl.org/dc/elements/1.1/"
   xmlns:cc="http://creativecommons.org/ns#"
   xmlns:rdf="http://www.w3.org/1999/02/22-rdf-syntax-ns#"
   xmlns:svg="http://www.w3.org/2000/svg"
   xmlns="http://www.w3.org/2000/svg"
   xmlns:sodipodi="http://sodipodi.sourceforge.net/DTD/sodipodi-0.dtd"
   xmlns:inkscape="http://www.inkscape.org/namespaces/inkscape"
   version="1.1"
   width="794.0000"
   height="865.0000"
   id="svg20"
   sodipodi:docname="container01.svg"
   inkscape:version="0.92.3 (2405546, 2018-03-11)">
  <metadata
     id="metadata26">
    <rdf:RDF>
      <cc:Work
         rdf:about="">
        <dc:format>image/svg+xml</dc:format>
        <dc:type
           rdf:resource="http://purl.org/dc/dcmitype/StillImage" />
      </cc:Work>
    </rdf:RDF>
  </metadata>
  <defs
     id="defs24" />
  <sodipodi:namedview
     pagecolor="#CC092F"
     bordercolor="#666666"
     borderopacity="1"
     objecttolerance="10"
     gridtolerance="10"
     guidetolerance="10"
     inkscape:pageopacity="0"
     inkscape:pageshadow="2"
     inkscape:window-width="838"
     inkscape:window-height="480"
     id="namedview22"
     showgrid="false"
     inkscape:zoom="0.27283237"
     inkscape:cx="397"
     inkscape:cy="432.5"
     inkscape:window-x="49"
     inkscape:window-y="27"
     inkscape:window-maximized="0"
     inkscape:current-layer="svg20" />
  <g
     transform="translate(110.0000, 146.0000)"
     id="g18"
     style="fill:#CC092F">
    <path
       d="M 683.0000,288.0000 C 683.0000,288.0000 683.0000,288.0000 683.0000,288.0000 C 683.0000,288.0000 683.0000,288.0000 683.0000,288.0000 C 682.0000,286.0000 680.0000,284.0000 678.0000,283.0000 C 321.0000,105.0000 321.0000,105.0000 321.0000,105.0000 C 314.0000,101.0000 314.0000,101.0000 314.0000,101.0000 C 325.0000,91.0000 332.0000,76.0000 332.0000,60.0000 C 332.0000,55.0000 327.0000,50.0000 322.0000,50.0000 C 317.0000,50.0000 313.0000,55.0000 313.0000,60.0000 C 313.0000,73.0000 306.0000,84.0000 296.0000,91.0000 C 279.0000,82.0000 279.0000,82.0000 279.0000,82.0000 C 278.0000,81.0000 276.0000,81.0000 274.0000,81.0000 C 272.0000,81.0000 270.0000,81.0000 268.0000,82.0000 C 253.0000,90.0000 253.0000,90.0000 253.0000,90.0000 C 243.0000,84.0000 237.0000,72.0000 237.0000,60.0000 C 237.0000,39.0000 254.0000,22.0000 275.0000,22.0000 C 280.0000,22.0000 284.0000,18.0000 284.0000,12.0000 C 284.0000,-34.0000 284.0000,-34.0000 284.0000,-34.0000 C 286.0000,-34.0000 286.0000,-34.0000 286.0000,-34.0000 C 317.0000,-34.0000 317.0000,-34.0000 317.0000,-34.0000 C 320.0000,-34.0000 323.0000,-36.0000 325.0000,-38.0000 C 327.0000,-40.0000 328.0000,-43.0000 327.0000,-46.0000 C 317.0000,-137.0000 317.0000,-137.0000 317.0000,-137.0000 C 316.0000,-142.0000 312.0000,-146.0000 306.0000,-146.0000 C 246.0000,-146.0000 246.0000,-146.0000 246.0000,-146.0000 C 240.0000,-146.0000 236.0000,-142.0000 235.0000,-137.0000 C 224.0000,-46.0000 224.0000,-46.0000 224.0000,-46.0000 C 224.0000,-43.0000 225.0000,-40.0000 227.0000,-38.0000 C 229.0000,-36.0000 232.0000,-34.0000 235.0000,-34.0000 C 265.0000,-34.0000 265.0000,-34.0000 265.0000,-34.0000 C 265.0000,4.0000 265.0000,4.0000 265.0000,4.0000 C 238.0000,8.0000 218.0000,32.0000 218.0000,60.0000 C 218.0000,76.0000 224.0000,90.0000 235.0000,100.0000 C 225.0000,105.0000 225.0000,105.0000 225.0000,105.0000 C -104.0000,270.0000 -104.0000,270.0000 -104.0000,270.0000 C -109.0000,273.0000 -112.0000,279.0000 -109.0000,285.0000 C -109.0000,285.0000 -109.0000,285.0000 -109.0000,285.0000 C -109.0000,695.0000 -109.0000,695.0000 -109.0000,695.0000 C 144.0000,718.0000 144.0000,718.0000 144.0000,718.0000 C 144.0000,718.0000 144.0000,718.0000 144.0000,718.0000 C 145.0000,718.0000 145.0000,718.0000 145.0000,718.0000 C 161.0000,719.0000 161.0000,719.0000 161.0000,719.0000 C 161.0000,717.0000 161.0000,717.0000 161.0000,717.0000 C 683.0000,694.0000 683.0000,694.0000 683.0000,694.0000 C 683.0000,298.0000 683.0000,298.0000 683.0000,298.0000 C 684.0000,295.0000 684.0000,291.0000 683.0000,288.0000 Z M 247.0000,-56.0000 C 255.0000,-125.0000 255.0000,-125.0000 255.0000,-125.0000 C 297.0000,-125.0000 297.0000,-125.0000 297.0000,-125.0000 C 305.0000,-56.0000 305.0000,-56.0000 305.0000,-56.0000 Z M 271.0000,116.0000 C 272.0000,117.0000 274.0000,117.0000 275.0000,117.0000 C 281.0000,117.0000 286.0000,116.0000 291.0000,114.0000 C 634.0000,286.0000 634.0000,286.0000 634.0000,286.0000 C 170.0000,265.0000 170.0000,265.0000 170.0000,265.0000 Z M 20.0000,688.0000 C -89.0000,677.0000 -89.0000,677.0000 -89.0000,677.0000 C -89.0000,297.0000 -89.0000,297.0000 -89.0000,297.0000 C 20.0000,291.0000 20.0000,291.0000 20.0000,291.0000 Z M 141.0000,699.0000 C 33.0000,689.0000 33.0000,689.0000 33.0000,689.0000 C 33.0000,290.0000 33.0000,290.0000 33.0000,290.0000 C 141.0000,284.0000 141.0000,284.0000 141.0000,284.0000 Z M 146.0000,261.0000 C 146.0000,262.0000 145.0000,263.0000 145.0000,264.0000 C 144.0000,264.0000 144.0000,264.0000 144.0000,264.0000 C 144.0000,264.0000 144.0000,264.0000 144.0000,264.0000 C -67.0000,276.0000 -67.0000,276.0000 -67.0000,276.0000 C 241.0000,121.0000 241.0000,121.0000 241.0000,121.0000 Z M 663.0000,675.0000 C 164.0000,697.0000 164.0000,697.0000 164.0000,697.0000 C 164.0000,284.0000 164.0000,284.0000 164.0000,284.0000 C 663.0000,307.0000 663.0000,307.0000 663.0000,307.0000 Z "
       fill="#425152"
       stroke="none"
       id="path2"
       style="fill:#CC092F" />
    <path
       d="M 201.0000,675.0000 C 207.0000,675.0000 212.0000,670.0000 212.0000,664.0000 C 212.0000,315.0000 212.0000,315.0000 212.0000,315.0000 C 212.0000,309.0000 207.0000,305.0000 201.0000,305.0000 C 196.0000,305.0000 191.0000,309.0000 191.0000,315.0000 C 191.0000,664.0000 191.0000,664.0000 191.0000,664.0000 C 191.0000,670.0000 196.0000,675.0000 201.0000,675.0000 Z "
       fill="#425152"
       stroke="none"
       id="path4"
       style="fill:#CC092F" />
    <path
       d="M 275.0000,675.0000 C 280.0000,675.0000 285.0000,670.0000 285.0000,664.0000 C 285.0000,315.0000 285.0000,315.0000 285.0000,315.0000 C 285.0000,309.0000 280.0000,305.0000 275.0000,305.0000 C 269.0000,305.0000 264.0000,309.0000 264.0000,315.0000 C 264.0000,664.0000 264.0000,664.0000 264.0000,664.0000 C 264.0000,670.0000 269.0000,675.0000 275.0000,675.0000 Z "
       fill="#425152"
       stroke="none"
       id="path6"
       style="fill:#CC092F" />
    <path
       d="M 345.0000,675.0000 C 351.0000,675.0000 356.0000,670.0000 356.0000,664.0000 C 356.0000,315.0000 356.0000,315.0000 356.0000,315.0000 C 356.0000,309.0000 351.0000,305.0000 345.0000,305.0000 C 339.0000,305.0000 335.0000,309.0000 335.0000,315.0000 C 335.0000,664.0000 335.0000,664.0000 335.0000,664.0000 C 335.0000,670.0000 339.0000,675.0000 345.0000,675.0000 Z "
       fill="#425152"
       stroke="none"
       id="path8"
       style="fill:#CC092F" />
    <path
       d="M 418.0000,670.0000 C 424.0000,670.0000 429.0000,665.0000 429.0000,659.0000 C 429.0000,320.0000 429.0000,320.0000 429.0000,320.0000 C 429.0000,314.0000 424.0000,309.0000 418.0000,309.0000 C 412.0000,309.0000 408.0000,314.0000 408.0000,320.0000 C 408.0000,659.0000 408.0000,659.0000 408.0000,659.0000 C 408.0000,665.0000 412.0000,670.0000 418.0000,670.0000 Z "
       fill="#425152"
       stroke="none"
       id="path10"
       style="fill:#CC092F" />
    <path
       d="M 482.0000,670.0000 C 488.0000,670.0000 493.0000,665.0000 493.0000,659.0000 C 493.0000,325.0000 493.0000,325.0000 493.0000,325.0000 C 493.0000,319.0000 488.0000,314.0000 482.0000,314.0000 C 476.0000,314.0000 471.0000,319.0000 471.0000,325.0000 C 471.0000,659.0000 471.0000,659.0000 471.0000,659.0000 C 471.0000,665.0000 476.0000,670.0000 482.0000,670.0000 Z "
       fill="#425152"
       stroke="none"
       id="path12"
       style="fill:#CC092F" />
    <path
       d="M 555.0000,665.0000 C 561.0000,665.0000 566.0000,660.0000 566.0000,655.0000 C 566.0000,325.0000 566.0000,325.0000 566.0000,325.0000 C 566.0000,319.0000 561.0000,314.0000 555.0000,314.0000 C 549.0000,314.0000 544.0000,319.0000 544.0000,325.0000 C 544.0000,655.0000 544.0000,655.0000 544.0000,655.0000 C 544.0000,660.0000 549.0000,665.0000 555.0000,665.0000 Z "
       fill="#425152"
       stroke="none"
       id="path14"
       style="fill:#CC092F" />
    <path
       d="M 621.0000,665.0000 C 627.0000,665.0000 632.0000,660.0000 632.0000,655.0000 C 632.0000,325.0000 632.0000,325.0000 632.0000,325.0000 C 632.0000,319.0000 627.0000,314.0000 621.0000,314.0000 C 615.0000,314.0000 610.0000,319.0000 610.0000,325.0000 C 610.0000,655.0000 610.0000,655.0000 610.0000,655.0000 C 610.0000,660.0000 615.0000,665.0000 621.0000,665.0000 Z "
       fill="#425152"
       stroke="none"
       id="path16"
       style="fill:#CC092F" />
  </g>
</svg>
