<?xml version="1.0"  encoding="UTF-8" standalone="no"?>
<svg version="1.1" xmlns="http://www.w3.org/2000/svg" xmlns:xlink="http://www.w3.org/1999/xlink" width="595.0000" height="713.0000">
<g transform="translate(11.0000, 75.0000)">
<path d="M 168.0000,625.0000 C 160.0000,625.0000 156.0000,620.0000 156.0000,593.0000 C 156.0000,567.0000 158.0000,558.0000 168.0000,558.0000 C 176.0000,558.0000 178.0000,564.0000 178.0000,577.0000 C 196.0000,577.0000 196.0000,577.0000 196.0000,577.0000 C 196.0000,564.0000 194.0000,545.0000 169.0000,545.0000 C 142.0000,545.0000 138.0000,564.0000 138.0000,592.0000 C 138.0000,619.0000 142.0000,638.0000 169.0000,638.0000 C 192.0000,638.0000 197.0000,622.0000 197.0000,602.0000 C 179.0000,602.0000 179.0000,602.0000 179.0000,602.0000 C 179.0000,622.0000 174.0000,625.0000 168.0000,625.0000 Z "  fill="#CC092F" stroke="none" />
<path d="M 235.0000,625.0000 C 227.0000,625.0000 224.0000,620.0000 224.0000,593.0000 C 224.0000,567.0000 226.0000,558.0000 235.0000,558.0000 C 243.0000,558.0000 246.0000,564.0000 246.0000,577.0000 C 264.0000,577.0000 264.0000,577.0000 264.0000,577.0000 C 264.0000,564.0000 262.0000,545.0000 236.0000,545.0000 C 209.0000,545.0000 206.0000,564.0000 206.0000,592.0000 C 206.0000,619.0000 209.0000,638.0000 236.0000,638.0000 C 260.0000,638.0000 264.0000,622.0000 264.0000,602.0000 C 246.0000,602.0000 246.0000,602.0000 246.0000,602.0000 C 246.0000,622.0000 242.0000,625.0000 235.0000,625.0000 Z "  fill="#CC092F" stroke="none" />
<path d="M 275.0000,636.0000 L 293.0000,636.0000 L 293.0000,598.0000 L 323.0000,598.0000 L 323.0000,583.0000 L 293.0000,583.0000 L 293.0000,562.0000 L 325.0000,562.0000 L 325.0000,547.0000 L 275.0000,547.0000 L 275.0000,636.0000 Z "  fill="#CC092F" stroke-width="1px" stroke="#FFFFFF" />
<path d="M 394.0000,613.0000 L 393.0000,613.0000 L 383.0000,547.0000 L 366.0000,547.0000 L 355.0000,613.0000 L 355.0000,613.0000 L 345.0000,547.0000 L 328.0000,547.0000 L 344.0000,636.0000 L 364.0000,636.0000 L 374.0000,572.0000 L 374.0000,572.0000 L 384.0000,636.0000 L 405.0000,636.0000 L 421.0000,547.0000 L 404.0000,547.0000 L 394.0000,613.0000 Z "  fill="#CC092F" stroke-width="1px" stroke="#FFFFFF" />
<path d="M 497.0000,12.0000 C 441.0000,-44.0000 366.0000,-75.0000 287.0000,-75.0000 C 207.0000,-75.0000 133.0000,-44.0000 76.0000,12.0000 C 20.0000,68.0000 -11.0000,143.0000 -11.0000,222.0000 C -11.0000,301.0000 20.0000,376.0000 76.0000,432.0000 C 133.0000,488.0000 207.0000,519.0000 287.0000,519.0000 C 366.0000,519.0000 441.0000,488.0000 497.0000,432.0000 C 553.0000,376.0000 584.0000,301.0000 584.0000,222.0000 C 584.0000,143.0000 553.0000,68.0000 497.0000,12.0000 Z M 14.0000,222.0000 C 14.0000,72.0000 136.0000,-50.0000 287.0000,-50.0000 C 437.0000,-50.0000 559.0000,72.0000 559.0000,222.0000 C 559.0000,372.0000 437.0000,494.0000 287.0000,494.0000 C 136.0000,494.0000 14.0000,372.0000 14.0000,222.0000 Z "  fill="#CC092F" stroke="none" />
<path d="M 274.0000,151.0000 L 274.0000,58.0000 L 105.0000,58.0000 L 105.0000,151.0000 L 274.0000,151.0000 Z "  fill="#CC092F" stroke-width="1px" stroke="#FFFFFF" />
<path d="M 168.0000,263.0000 L 168.0000,170.0000 L 105.0000,170.0000 L 105.0000,263.0000 L 168.0000,263.0000 Z "  fill="#CC092F" stroke-width="1px" stroke="#FFFFFF" />
<path d="M 105.0000,281.0000 L 105.0000,375.0000 L 275.0000,375.0000 L 275.0000,281.0000 L 105.0000,281.0000 Z "  fill="#CC092F" stroke-width="1px" stroke="#FFFFFF" />
<path d="M 383.0000,308.0000 L 345.0000,336.0000 L 328.0000,375.0000 L 438.0000,375.0000 L 421.0000,335.0000 L 383.0000,308.0000 Z "  fill="#CC092F" stroke-width="1px" stroke="#FFFFFF" />
<path d="M 469.0000,281.0000 L 450.0000,281.0000 L 469.0000,326.0000 L 469.0000,281.0000 Z "  fill="#CC092F" stroke-width="1px" stroke="#FFFFFF" />
<path d="M 302.0000,317.0000 C 317.0000,281.0000 317.0000,281.0000 317.0000,281.0000 C 298.0000,281.0000 298.0000,281.0000 298.0000,281.0000 C 298.0000,325.0000 298.0000,325.0000 298.0000,325.0000 C 300.0000,320.0000 300.0000,320.0000 300.0000,320.0000 C 301.0000,319.0000 301.0000,318.0000 302.0000,317.0000 Z "  fill="#CC092F" stroke="none" />
<path d="M 444.0000,234.0000 C 440.0000,237.0000 436.0000,238.0000 432.0000,239.0000 C 442.0000,263.0000 442.0000,263.0000 442.0000,263.0000 C 468.0000,263.0000 468.0000,263.0000 468.0000,263.0000 C 468.0000,202.0000 468.0000,202.0000 468.0000,202.0000 C 462.0000,214.0000 454.0000,225.0000 444.0000,234.0000 Z "  fill="#CC092F" stroke="none" />
<path d="M 322.0000,234.0000 C 303.0000,217.0000 291.0000,195.0000 288.0000,170.0000 C 189.0000,170.0000 189.0000,170.0000 189.0000,170.0000 C 189.0000,263.0000 189.0000,263.0000 189.0000,263.0000 C 325.0000,263.0000 325.0000,263.0000 325.0000,263.0000 C 335.0000,239.0000 335.0000,239.0000 335.0000,239.0000 C 330.0000,239.0000 325.0000,237.0000 322.0000,234.0000 Z "  fill="#CC092F" stroke="none" />
<path d="M 322.0000,84.0000 C 326.0000,80.0000 331.0000,78.0000 336.0000,78.0000 C 346.0000,78.0000 354.0000,84.0000 357.0000,93.0000 C 358.0000,95.0000 358.0000,97.0000 359.0000,99.0000 C 367.0000,99.0000 374.0000,104.0000 377.0000,112.0000 C 379.0000,116.0000 379.0000,119.0000 378.0000,123.0000 C 381.0000,123.0000 384.0000,123.0000 387.0000,123.0000 C 386.0000,119.0000 387.0000,116.0000 388.0000,112.0000 C 391.0000,104.0000 398.0000,99.0000 407.0000,99.0000 C 407.0000,97.0000 407.0000,95.0000 408.0000,93.0000 C 411.0000,84.0000 420.0000,78.0000 429.0000,78.0000 C 434.0000,78.0000 439.0000,80.0000 444.0000,84.0000 C 454.0000,93.0000 462.0000,103.0000 468.0000,115.0000 C 468.0000,58.0000 468.0000,58.0000 468.0000,58.0000 C 298.0000,58.0000 298.0000,58.0000 298.0000,58.0000 C 298.0000,114.0000 298.0000,114.0000 298.0000,114.0000 C 304.0000,103.0000 312.0000,92.0000 322.0000,84.0000 Z "  fill="#CC092F" stroke="none" />
<path d="M 465.0000,377.0000 C 469.0000,376.0000 471.0000,371.0000 469.0000,367.0000 C 397.0000,198.0000 397.0000,198.0000 397.0000,198.0000 C 396.0000,194.0000 391.0000,186.0000 384.0000,186.0000 C 376.0000,186.0000 372.0000,191.0000 371.0000,195.0000 C 316.0000,324.0000 316.0000,324.0000 316.0000,324.0000 C 315.0000,325.0000 315.0000,325.0000 315.0000,326.0000 C 299.0000,364.0000 299.0000,364.0000 299.0000,364.0000 C 297.0000,368.0000 299.0000,373.0000 303.0000,375.0000 C 304.0000,375.0000 305.0000,375.0000 306.0000,375.0000 C 309.0000,375.0000 312.0000,374.0000 313.0000,371.0000 C 332.0000,326.0000 332.0000,326.0000 332.0000,326.0000 C 383.0000,289.0000 383.0000,289.0000 383.0000,289.0000 C 434.0000,325.0000 434.0000,325.0000 434.0000,325.0000 C 455.0000,373.0000 455.0000,373.0000 455.0000,373.0000 C 456.0000,376.0000 459.0000,378.0000 462.0000,378.0000 C 463.0000,378.0000 464.0000,378.0000 465.0000,377.0000 Z M 361.0000,259.0000 C 383.0000,206.0000 383.0000,206.0000 383.0000,206.0000 C 405.0000,257.0000 405.0000,257.0000 405.0000,257.0000 C 382.0000,274.0000 382.0000,274.0000 382.0000,274.0000 Z M 341.0000,304.0000 C 356.0000,270.0000 356.0000,270.0000 356.0000,270.0000 C 372.0000,281.0000 372.0000,281.0000 372.0000,281.0000 Z M 393.0000,281.0000 C 410.0000,268.0000 410.0000,268.0000 410.0000,268.0000 C 425.0000,304.0000 425.0000,304.0000 425.0000,304.0000 Z "  fill="#CC092F" stroke="none" />
<path d="M 363.0000,159.0000 C 363.0000,170.0000 372.0000,179.0000 384.0000,179.0000 C 395.0000,179.0000 405.0000,170.0000 405.0000,159.0000 C 405.0000,147.0000 395.0000,138.0000 384.0000,138.0000 C 372.0000,138.0000 363.0000,147.0000 363.0000,159.0000 Z "  fill="#CC092F" stroke="none" />
<path d="M 426.0000,106.0000 C 441.0000,119.0000 450.0000,138.0000 450.0000,159.0000 C 450.0000,180.0000 441.0000,199.0000 426.0000,211.0000 C 419.0000,217.0000 428.0000,228.0000 435.0000,222.0000 C 453.0000,207.0000 464.0000,184.0000 464.0000,159.0000 C 464.0000,134.0000 453.0000,111.0000 435.0000,96.0000 C 428.0000,90.0000 419.0000,100.0000 426.0000,106.0000 Z "  fill="#CC092F" stroke="none" />
<path d="M 342.0000,211.0000 C 327.0000,199.0000 318.0000,180.0000 318.0000,159.0000 C 318.0000,138.0000 327.0000,119.0000 342.0000,106.0000 C 349.0000,100.0000 340.0000,90.0000 333.0000,96.0000 C 315.0000,111.0000 304.0000,134.0000 304.0000,159.0000 C 304.0000,184.0000 315.0000,207.0000 333.0000,222.0000 C 340.0000,228.0000 349.0000,217.0000 342.0000,211.0000 Z "  fill="#CC092F" stroke="none" />
<path d="M 422.0000,159.0000 C 422.0000,173.0000 415.0000,186.0000 405.0000,195.0000 C 400.0000,199.0000 407.0000,206.0000 411.0000,202.0000 C 423.0000,192.0000 431.0000,176.0000 431.0000,159.0000 C 431.0000,142.0000 423.0000,126.0000 411.0000,116.0000 C 406.0000,112.0000 400.0000,119.0000 405.0000,123.0000 C 415.0000,131.0000 422.0000,144.0000 422.0000,159.0000 Z "  fill="#CC092F" stroke="none" />
<path d="M 337.0000,159.0000 C 337.0000,176.0000 344.0000,192.0000 357.0000,202.0000 C 361.0000,206.0000 367.0000,199.0000 363.0000,195.0000 C 352.0000,186.0000 346.0000,173.0000 346.0000,159.0000 C 346.0000,144.0000 352.0000,131.0000 363.0000,123.0000 C 367.0000,119.0000 361.0000,112.0000 357.0000,116.0000 C 344.0000,126.0000 337.0000,142.0000 337.0000,159.0000 Z "  fill="#CC092F" stroke="none" />
</g>
</svg>
