<?xml version="1.0"  encoding="UTF-8" standalone="no"?>
<svg version="1.1" xmlns="http://www.w3.org/2000/svg" xmlns:xlink="http://www.w3.org/1999/xlink" width="405.0000" height="317.0000">
<g transform="translate(-83.0000, -128.0000)">
<path d="M 83.0000,222.0000 L 254.0000,222.0000 L 254.0000,128.0000 L 83.0000,128.0000 L 83.0000,222.0000 Z "  fill="#CC092F" stroke-width="1px" stroke="#FFFFFF" />
<path d="M 409.0000,222.0000 C 447.0000,222.0000 447.0000,222.0000 447.0000,222.0000 C 447.0000,128.0000 447.0000,128.0000 447.0000,128.0000 C 277.0000,128.0000 277.0000,128.0000 277.0000,128.0000 C 277.0000,222.0000 277.0000,222.0000 277.0000,222.0000 C 365.0000,222.0000 365.0000,222.0000 365.0000,222.0000 C 367.0000,212.0000 367.0000,202.0000 367.0000,191.0000 C 367.0000,187.0000 367.0000,187.0000 367.0000,187.0000 C 370.0000,189.0000 370.0000,189.0000 370.0000,189.0000 C 384.0000,200.0000 397.0000,211.0000 409.0000,222.0000 Z "  fill="#CC092F" stroke="none" />
<path d="M 447.0000,240.0000 C 436.0000,240.0000 436.0000,240.0000 436.0000,240.0000 C 440.0000,244.0000 444.0000,249.0000 447.0000,253.0000 Z "  fill="#CC092F" stroke="none" />
<path d="M 330.0000,292.0000 C 341.0000,277.0000 352.0000,262.0000 359.0000,240.0000 C 168.0000,240.0000 168.0000,240.0000 168.0000,240.0000 C 168.0000,333.0000 168.0000,333.0000 168.0000,333.0000 C 305.0000,333.0000 305.0000,333.0000 305.0000,333.0000 C 311.0000,317.0000 321.0000,305.0000 330.0000,292.0000 Z "  fill="#CC092F" stroke="none" />
<path d="M 83.0000,333.0000 L 146.0000,333.0000 L 146.0000,240.0000 L 83.0000,240.0000 L 83.0000,333.0000 Z "  fill="#CC092F" stroke-width="1px" stroke="#FFFFFF" />
<path d="M 254.0000,352.0000 L 83.0000,352.0000 L 83.0000,445.0000 L 254.0000,445.0000 L 254.0000,352.0000 Z "  fill="#CC092F" stroke-width="1px" stroke="#FFFFFF" />
<path d="M 297.0000,352.0000 C 277.0000,352.0000 277.0000,352.0000 277.0000,352.0000 C 277.0000,445.0000 277.0000,445.0000 277.0000,445.0000 C 341.0000,445.0000 341.0000,445.0000 341.0000,445.0000 C 307.0000,426.0000 291.0000,392.0000 297.0000,352.0000 Z "  fill="#CC092F" stroke="none" />
<path d="M 485.0000,347.0000 C 463.0000,268.0000 379.0000,209.0000 379.0000,209.0000 C 380.0000,276.0000 319.0000,306.0000 309.0000,360.0000 C 298.0000,428.0000 369.0000,444.0000 369.0000,444.0000 C 369.0000,444.0000 343.0000,427.0000 344.0000,397.0000 C 345.0000,374.0000 365.0000,363.0000 367.0000,338.0000 C 388.0000,352.0000 388.0000,375.0000 388.0000,375.0000 C 425.0000,333.0000 407.0000,293.0000 407.0000,293.0000 C 510.0000,381.0000 423.0000,445.0000 423.0000,445.0000 C 423.0000,445.0000 503.0000,428.0000 485.0000,347.0000 Z "  fill="#CC092F" stroke="none" />
</g>
</svg>
