<?xml version="1.0" encoding="utf-8"?>
<!-- Generator: Adobe Illustrator 20.1.0, SVG Export Plug-In . SVG Version: 6.00 Build 0)  -->
<svg version="1.1" id="Layer_1" xmlns="http://www.w3.org/2000/svg" xmlns:xlink="http://www.w3.org/1999/xlink" x="0px" y="0px"
	 viewBox="0 0 97.6 50.6" style="enable-background:new 0 0 97.6 50.6;" xml:space="preserve">
<style type="text/css">
	.st0{fill:#7B2927;stroke:#FFFFFF;stroke-width:0.8;}
	.st1{fill:#FFFFFF;}
	.st2{font-family:'Helvetica';}
	.st3{font-size:16px;}
</style>
	<g>
	<g>
		<rect x="1.3" y="24.2" class="st0" width="71.4" height="24.7"/>
		<polygon class="st0" points="1.1,24.3 30,0.9 96.6,0.9 72.7,24.3 		"/>
		<polygon class="st0" points="72.7,49.6 96.6,23.8 96.6,1 72.7,24.3 		"/>
		<polygon class="st1" points="43,18.2 41.6,19.3 23.8,19.3 22,21.1 17.2,19 26.9,16.2 25.2,18.2 		"/>
		<polygon class="st1" points="57,9.5 55.6,10.6 37.8,10.6 36,12.4 31.2,10.3 40.9,7.5 39.2,9.5 		"/>
		<polygon class="st1" points="46.1,15.1 47.5,14 65.4,14 67.1,12.2 72,14.3 62.2,17.1 64,15.1 		"/>
		<polygon class="st1" points="55.4,6.4 56.8,5.2 74.6,5.2 76.4,3.5 81.2,5.6 71.5,8.3 73.2,6.4 		"/>
	</g>
	<rect x="52.3" y="27.8" class="st0" width="16.8" height="16.8"/>
	<g>
		<text transform="matrix(1 0 0 1 55.5062 41.9995)" class="st1 st2 st3">V</text>
	</g>
	<g>

			<ellipse transform="matrix(0.9979 -6.497232e-02 6.497232e-02 0.9979 -2.333 1.6959)" class="st0" cx="24.9" cy="36.7" rx="18.4" ry="7.2"/>
		<polygon class="st1" points="20.5,34.2 22.2,36.4 16.6,38.1 17.7,37 8.8,36 10.9,34.2 19.5,35.1 		"/>
		<polygon class="st1" points="29,39.2 27.8,36.9 32.9,35.5 32,36.4 40.7,37.3 38.8,39.1 30.1,38.1 		"/>
		<polygon class="st1" points="25.7,32.6 31.4,30.7 31.6,33.1 30.1,33 27.5,35.5 24.7,35.3 27.5,32.8 		"/>
		<polygon class="st1" points="23.8,41.7 18.3,43.1 18,40.5 19.6,40.8 22.4,38 25.2,38.3 22.1,41.3 		"/>
	</g>
</g>
</svg>
