<?xml version="1.0" encoding="UTF-8" standalone="no"?>
<svg
   xmlns:dc="http://purl.org/dc/elements/1.1/"
   xmlns:cc="http://creativecommons.org/ns#"
   xmlns:rdf="http://www.w3.org/1999/02/22-rdf-syntax-ns#"
   xmlns:svg="http://www.w3.org/2000/svg"
   xmlns="http://www.w3.org/2000/svg"
   viewBox="0 0 44.400002 51.266666"
   height="51.266666"
   width="44.400002"
   xml:space="preserve"
   id="svg2"
   version="1.1"><metadata
     id="metadata8"><rdf:RDF><cc:Work
         rdf:about=""><dc:format>image/svg+xml</dc:format><dc:type
           rdf:resource="http://purl.org/dc/dcmitype/StillImage" /></cc:Work></rdf:RDF></metadata><defs
     id="defs6"><clipPath
       id="clipPath20"
       clipPathUnits="userSpaceOnUse"><path
         id="path18"
         d="M 0,4 V 384 H 330 V 4 Z" /></clipPath></defs><g
     transform="matrix(1.3333333,0,0,-1.3333333,0,51.266667)"
     id="g10"><g
       transform="scale(0.1)"
       id="g12"><g
         id="g14"><g
           clip-path="url(#clipPath20)"
           id="g16"><path
             id="path22"
             style="fill:#7B2927;fill-opacity:1;fill-rule:nonzero;stroke:none"
             d="m 122.82,338.414 c 0,-24.414 -19.785,-44.211 -44.2067,-44.211 -24.4219,0 -44.207,19.797 -44.207,44.211 0,24.422 19.7851,44.219 44.207,44.219 24.4217,0 44.2067,-19.797 44.2067,-44.219" /><path
             id="path24"
             style="fill:none;stroke:#FFFFFF;stroke-width:3.99993992;stroke-linecap:butt;stroke-linejoin:miter;stroke-miterlimit:4;stroke-dasharray:none;stroke-opacity:1"
             d="m 122.82,338.414 c 0,-24.414 -19.785,-44.211 -44.2067,-44.211 -24.4219,0 -44.207,19.797 -44.207,44.211 0,24.422 19.7851,44.219 44.207,44.219 24.4217,0 44.2067,-19.797 44.2067,-44.219 z" /><path
             id="path26"
             style="fill:#7B2927;fill-opacity:1;fill-rule:nonzero;stroke:none"
             d="m 147.102,2.00391 h 183.855 v 195.441 H 147.102 Z" /><path
             id="path28"
             style="fill:none;stroke:#FFFFFF;stroke-width:3.99993992;stroke-linecap:butt;stroke-linejoin:miter;stroke-miterlimit:4;stroke-dasharray:none;stroke-opacity:1"
             d="M 330.957,2.00391 H 147.102 V 197.445 h 183.855 z" /><path
             id="path30"
             style="fill:#7B2927;fill-opacity:1;fill-rule:nonzero;stroke:none"
             d="m 211.453,198.004 h 106.965 v 24.3633 H 211.453 Z" /><path
             id="path32"
             style="fill:none;stroke:#FFFFFF;stroke-width:3.99993992;stroke-linecap:butt;stroke-linejoin:miter;stroke-miterlimit:4;stroke-dasharray:none;stroke-opacity:1"
             d="M 211.453,222.367 H 318.418 V 198.004 H 211.453 Z" /><path
             id="path34"
             style="fill:#7B2927;fill-opacity:1;fill-rule:nonzero;stroke:none"
             d="m 296.758,284.574 v -62.207 h -83.281 v 83.274 l 73.527,-9.571 c 0,0 9.949,-0.988 9.754,-11.496" /><path
             id="path36"
             style="fill:none;stroke:#FFFFFF;stroke-width:3.99993992;stroke-linecap:butt;stroke-linejoin:miter;stroke-miterlimit:4;stroke-dasharray:none;stroke-opacity:1"
             d="m 296.758,284.574 v -62.207 h -83.281 v 83.274 l 73.527,-9.571 c 0,0 9.949,-0.988 9.754,-11.496 z" /><path
             id="path38"
             style="fill:#7B2927;fill-opacity:1;fill-rule:nonzero;stroke:none"
             d="M 136.172,27.2578 H 85.3906 v 60.043 H 59.9219 V 27.2578 H 9.94141 C 5.55469,27.2578 2,23.7031 2,19.3086 V 10.0313 C 2,5.63672 5.55469,2.08203 9.94141,2.08203 H 136.172 c 4.387,0 7.937,3.55469 7.937,7.94927 v 9.2773 c 0,4.3945 -3.55,7.9492 -7.937,7.9492" /><path
             id="path40"
             style="fill:none;stroke:#FFFFFF;stroke-width:3.99993992;stroke-linecap:butt;stroke-linejoin:miter;stroke-miterlimit:4;stroke-dasharray:none;stroke-opacity:1"
             d="M 136.172,27.2578 H 85.3906 v 60.043 H 59.9219 V 27.2578 H 9.94141 C 5.55469,27.2578 2,23.7031 2,19.3086 V 10.0313 C 2,5.63672 5.55469,2.08203 9.94141,2.08203 H 136.172 c 4.387,0 7.937,3.55469 7.937,7.94927 v 9.2773 c 0,4.3945 -3.55,7.9492 -7.937,7.9492 z" /><path
             id="path42"
             style="fill:#7B2927;fill-opacity:1;fill-rule:nonzero;stroke:none"
             d="M 138.398,115.367 H 33.7305 v 148.692 c 0,4.843 -3.9141,8.757 -8.75,8.757 H 14.7344 c -4.83206,0 -8.74612,-3.914 -8.74612,-8.757 V 96.3633 c 0,-4.8242 3.91406,-8.75 8.74612,-8.75 H 24.9805 138.398 c 4.832,0 8.75,3.9258 8.75,8.75 v 10.2537 c 0,4.824 -3.918,8.75 -8.75,8.75" /><path
             id="path44"
             style="fill:none;stroke:#FFFFFF;stroke-width:3.99993992;stroke-linecap:butt;stroke-linejoin:miter;stroke-miterlimit:4;stroke-dasharray:none;stroke-opacity:1"
             d="M 138.398,115.367 H 33.7305 v 148.692 c 0,4.843 -3.9141,8.757 -8.75,8.757 H 14.7344 c -4.83206,0 -8.74612,-3.914 -8.74612,-8.757 V 96.3633 c 0,-4.8242 3.91406,-8.75 8.74612,-8.75 H 24.9805 138.398 c 4.832,0 8.75,3.9258 8.75,8.75 v 10.2537 c 0,4.824 -3.918,8.75 -8.75,8.75 z" /><path
             id="path46"
             style="fill:#7B2927;fill-opacity:1;fill-rule:nonzero;stroke:none"
             d="m 113.809,284.691 80.351,-58.25 c 3.406,-2.949 5.567,-7.324 5.567,-12.199 0,-8.906 -7.215,-16.121 -16.122,-16.121 -2.714,0 -6.3,0.906 -9.14,2.5 l -67.231,41.551 v -75.449 l 37.942,-0.196 V 117.965 L 37.7656,118.16 v 160.215 c 0,0 0.7032,12.695 21.5313,12.695 h 38.6797 c 0,0 7.3554,-0.371 15.8324,-6.379" /><path
             id="path48"
             style="fill:none;stroke:#FFFFFF;stroke-width:3.99993992;stroke-linecap:butt;stroke-linejoin:miter;stroke-miterlimit:4;stroke-dasharray:none;stroke-opacity:1"
             d="m 113.809,284.691 80.351,-58.25 c 3.406,-2.949 5.567,-7.324 5.567,-12.199 0,-8.906 -7.215,-16.121 -16.122,-16.121 -2.714,0 -6.3,0.906 -9.14,2.5 l -67.231,41.551 v -75.449 l 37.942,-0.196 V 117.965 L 37.7656,118.16 v 160.215 c 0,0 0.7032,12.695 21.5313,12.695 h 38.6797 c 0,0 7.3554,-0.371 15.8324,-6.379 z" /></g></g></g></g></svg>