<?xml version="1.0" encoding="utf-8"?>
<!-- Generator: Adobe Illustrator 20.1.0, SVG Export Plug-In . SVG Version: 6.00 Build 0)  -->
<svg version="1.1" id="Layer_1" xmlns="http://www.w3.org/2000/svg" xmlns:xlink="http://www.w3.org/1999/xlink" x="0px" y="0px"
	 viewBox="0 0 53.6 54.1" style="enable-background:new 0 0 53.6 54.1;" xml:space="preserve">
<style type="text/css">
	.st0{fill:#7B2927;stroke:#FFFFFF;stroke-width:0.8;}
	.st1{fill:none;stroke:#FFFFFF;stroke-width:0.8;}
	.st2{fill:none;stroke:#FFFFFF;stroke-width:2.85;}
	.st3{fill:#FFFFFF;stroke:#FFFFFF;stroke-width:0.38;}
</style>
<g>
	<g>
		<rect x="1.1" y="9.2" class="st0" width="43.1" height="44"/>
		<polygon class="st0" points="44.2,9.2 1.1,9.2 12,0.4 53.2,0.4 53.2,0.4 53.2,44.1 44.2,53.1 44.2,9.2 		"/>
		<line class="st1" x1="44.2" y1="9.2" x2="53.2" y2="0.4"/>
		<polyline class="st2" points="38.6,44.3 29.2,44.3 16.4,18.4 7.9,18.4 		"/>
		<polyline class="st2" points="7.2,44.2 16.4,44.2 29.1,18.5 39,18.5 		"/>
		<g>
			<polygon class="st3" points="35.7,13.8 35.7,22.9 41.2,18.5 			"/>
		</g>
		<g>
			<polygon class="st3" points="35.7,39.5 35.7,48.6 41.2,44.3 			"/>
		</g>
	</g>
	<g>
		<polygon class="st3" points="9.2,23.1 9.2,13.9 3.7,18.3 		"/>
	</g>
	<g>
		<polygon class="st3" points="9.2,48.9 9.2,39.8 3.7,44.2 		"/>
	</g>
</g>
</svg>
