<?xml version="1.0" encoding="utf-8"?>
<!-- Generator: Adobe Illustrator 20.1.0, SVG Export Plug-In . SVG Version: 6.00 Build 0)  -->
<svg version="1.1" id="Layer_1" xmlns="http://www.w3.org/2000/svg" xmlns:xlink="http://www.w3.org/1999/xlink" x="0px" y="0px"
	 viewBox="0 0 18.9 15.7" style="enable-background:new 0 0 18.9 15.7;" xml:space="preserve">
<style type="text/css">
	.st0{fill:none;stroke:#7B2927;stroke-linecap:round;stroke-linejoin:round;stroke-miterlimit:1;}
</style>
<g>
	<path class="st0" d="M3.7,15.2C1.8,13.7,0.5,11,0.5,8c0-3.2,1.4-6,3.5-7.5"/>
	<path class="st0" d="M6.6,15.2C4.7,13.7,3.4,11,3.4,8c0-3.2,1.4-6,3.5-7.5"/>
	<path class="st0" d="M9.5,15.2C7.5,13.7,6.3,11,6.3,8c0-3.2,1.4-6,3.5-7.5"/>
	<path class="st0" d="M12.4,15.2C10.4,13.7,9.2,11,9.2,8c0-3.2,1.4-6,3.5-7.5"/>
	<path class="st0" d="M15.2,15.2c-1.9-1.5-3.2-4.2-3.2-7.2c0-3.2,1.4-6,3.5-7.5"/>
	<path class="st0" d="M18.1,15.2c-1.9-1.5-3.2-4.2-3.2-7.2c0-3.2,1.4-6,3.5-7.5"/>
	<path class="st0" d="M3.7,15.2C1.8,13.7,0.5,11,0.5,8c0-3.2,1.4-6,3.5-7.5"/>
	<path class="st0" d="M6.6,15.2C4.7,13.7,3.4,11,3.4,8c0-3.2,1.4-6,3.5-7.5"/>
	<path class="st0" d="M9.5,15.2C7.5,13.7,6.3,11,6.3,8c0-3.2,1.4-6,3.5-7.5"/>
	<path class="st0" d="M12.4,15.2C10.4,13.7,9.2,11,9.2,8c0-3.2,1.4-6,3.5-7.5"/>
	<path class="st0" d="M15.2,15.2c-1.9-1.5-3.2-4.2-3.2-7.2c0-3.2,1.4-6,3.5-7.5"/>
	<path class="st0" d="M18.1,15.2c-1.9-1.5-3.2-4.2-3.2-7.2c0-3.2,1.4-6,3.5-7.5"/>
</g>
</svg>
