<?xml version="1.0" encoding="utf-8"?>
<!-- Generator: Adobe Illustrator 20.1.0, SVG Export Plug-In . SVG Version: 6.00 Build 0)  -->
<svg version="1.1" id="Layer_1" xmlns="http://www.w3.org/2000/svg" xmlns:xlink="http://www.w3.org/1999/xlink" x="0px" y="0px"
	 viewBox="0 0 63.6 56.8" style="enable-background:new 0 0 63.6 56.8;" xml:space="preserve">
<style type="text/css">
	.st0{fill:#7B2927;stroke:#FFFFFF;stroke-width:0.8;}
	.st1{fill:#FFFFFF;}
</style>
<g>
	<g>
		<rect x="0.9" y="7.5" class="st0" width="55.3" height="48.3"/>
		<polygon class="st0" points="7.3,1 0.9,7.5 56.3,7.5 62.6,1 		"/>
		<polygon class="st0" points="62.6,49.3 62.6,1 56.3,7.5 56.3,55.9 		"/>
	</g>
	<rect x="6.1" y="12" class="st0" width="45.7" height="40.1"/>
	<path class="st0" d="M49.1,26.6c0,4.3-9,7.8-20,7.8s-20-3.5-20-7.8V38c0,4.3,9,7.8,20,7.8s20-3.5,20-7.8V26.6z"/>
	<ellipse class="st0" cx="29.1" cy="26.6" rx="20" ry="7.8"/>
	<polygon class="st1" points="24.5,23.6 26.2,26.1 19.9,27.5 21.3,26.4 11.6,24.7 14.1,22.9 23.4,24.5 	"/>
	<polygon class="st1" points="33.3,29.6 32.2,27 37.9,25.9 36.9,26.8 46.3,28.4 44,30.2 34.7,28.4 	"/>
	<polygon class="st1" points="30.3,22.2 36.6,20.5 36.6,23.2 35.1,22.9 32,25.5 29,25 32.2,22.5 	"/>
	<polygon class="st1" points="27.5,31.9 21.5,33.1 21.3,30.3 23,30.6 26.3,27.8 29.3,28.3 25.7,31.4 	"/>
</g>
</svg>
