<?xml version="1.0" encoding="utf-8"?>
<!-- Generator: Adobe Illustrator 20.1.0, SVG Export Plug-In . SVG Version: 6.00 Build 0)  -->
<svg version="1.1" id="Layer_1" xmlns="http://www.w3.org/2000/svg" xmlns:xlink="http://www.w3.org/1999/xlink" x="0px" y="0px"
	 viewBox="0 0 87.1 63.2" style="enable-background:new 0 0 87.1 63.2;" xml:space="preserve">
<style type="text/css">
	.st0{fill:#7B2927;stroke:#FFFFFF;stroke-width:0.8;}
	.st1{fill:#FFFFFF;}
	.st2{fill:#7B2927;stroke:#FFFFFF;stroke-width:1.6;}
	.st3{fill:#FFFFFF;stroke:#FFFFFF;stroke-width:1.6;}
</style>
<g>
	<g>
		<rect x="1.1" y="11.8" class="st0" width="76.3" height="50.1"/>
		<polygon class="st0" points="86.2,49 77.4,61.9 77.4,11.8 86.2,1.1 		"/>
		<polygon class="st0" points="14.3,1.1 86.2,1.1 77.4,11.8 1.1,11.8 		"/>
		<g>
			<polygon class="st1" points="18.3,24.9 5.5,24.9 5.5,22.9 18.3,22.9 18.3,19.7 25.7,23.9 18.3,28.1 			"/>
		</g>
		<g>
			<polygon class="st1" points="18.3,37.6 5.5,37.6 5.5,35.6 18.3,35.6 18.3,32.4 25.7,36.6 18.3,40.8 			"/>
		</g>
		<g>
			<polygon class="st1" points="18.3,50.3 5.5,50.3 5.5,48.2 18.3,48.2 18.3,45.1 25.7,49.3 18.3,53.4 			"/>
		</g>
		<g>
			<polygon class="st1" points="60.9,35.9 73.7,35.9 73.7,38 60.9,38 60.9,41.1 53.5,36.9 60.9,32.8 			"/>
		</g>
	</g>
	<g>
		<path class="st1" d="M50.6,29.6c0,1.7-4.6,3.1-10.3,3.1c-5.7,0-10.3-1.4-10.3-3.1v12.9c0,1.7,4.6,3.1,10.3,3.1
			c5.7,0,10.3-1.4,10.3-3.1V29.6z"/>
		<ellipse class="st2" cx="40.4" cy="29.6" rx="10.3" ry="3.1"/>
		<ellipse class="st3" cx="40.4" cy="44" rx="10.3" ry="3.1"/>
	</g>
</g>
</svg>
