<?xml version="1.0" encoding="utf-8"?>
<!-- Generator: Adobe Illustrator 20.1.0, SVG Export Plug-In . SVG Version: 6.00 Build 0)  -->
<svg version="1.1" id="Layer_1" xmlns="http://www.w3.org/2000/svg" xmlns:xlink="http://www.w3.org/1999/xlink" x="0px" y="0px"
	 viewBox="0 0 62.3 83.1" style="enable-background:new 0 0 62.3 83.1;" xml:space="preserve">
<style type="text/css">
	.st0{fill:#7B2927;stroke:#FFFFFF;stroke-width:0.8;}
	.st1{fill:#FFFFFF;}
	.st2{fill:#FFFFFF;stroke:#7B2927;stroke-width:0.8;}
</style>
<g>
	<g>
		<polygon class="st0" points="61.3,72.4 61.3,0.9 51,10.7 51,82.2 		"/>
		<polygon class="st0" points="61.3,0.9 51,10.7 1.2,10.7 14.1,0.9 		"/>
		<g>
			<rect x="1.2" y="10.7" class="st0" width="49.8" height="49.3"/>
		</g>
		<g>
			<rect x="1.2" y="60.4" class="st0" width="49.8" height="21.8"/>
		</g>
		<g>
			<polygon class="st1" points="21.6,29.5 14.1,21.9 15.4,20.6 10.6,19.6 11.6,24.4 12.9,23.1 20.4,30.7 			"/>
			<polygon class="st1" points="18.9,34.4 8.2,34.4 8.2,32.6 4.1,35.3 8.2,38 8.2,36.2 18.9,36.2 			"/>
			<polygon class="st1" points="20.4,39.9 12.9,47.5 11.6,46.2 10.6,50.9 15.4,50 14.1,48.7 21.6,41.1 			"/>
			<polygon class="st1" points="25.4,42.7 25.4,53.4 23.6,53.4 26.3,57.4 28.9,53.4 27.1,53.4 27.1,42.7 			"/>
			<polygon class="st1" points="25.4,28.2 25.4,17.5 23.6,17.5 26.3,13.5 28.9,17.5 27.1,17.5 27.1,28.2 			"/>
			<polygon class="st1" points="30.9,41.1 38.4,48.7 37.1,50 41.9,50.9 40.9,46.2 39.7,47.5 32.1,39.9 			"/>
			<polygon class="st1" points="33.6,36.2 44.3,36.2 44.3,38 48.4,35.3 44.3,32.6 44.3,34.4 33.6,34.4 			"/>
			<polygon class="st1" points="32.1,30.7 39.7,23.1 40.9,24.4 41.9,19.6 37.1,20.6 38.4,21.9 30.9,29.5 			"/>

				<ellipse transform="matrix(0.8191 -0.5736 0.5736 0.8191 -15.4173 21.5216)" class="st2" cx="26.4" cy="35.2" rx="11.2" ry="11.2"/>
		</g>
	</g>
	<polygon class="st1" points="26.7,72.1 37.4,72.1 37.4,73.9 41.5,71.3 37.4,68.6 37.4,70.4 26.7,70.4 	"/>
	<polygon class="st1" points="26.5,69.1 36.5,65.5 37.2,67.2 40.1,63.3 35.3,62.1 36,63.9 25.9,67.5 	"/>
	<polygon class="st1" points="26.5,73.3 36.5,77 37.2,75.3 40.1,79.2 35.3,80.3 36,78.6 25.9,74.9 	"/>
	<polygon class="st1" points="10.1,72.1 20.4,72.1 20.4,73.9 24.5,71.3 20.4,68.6 20.4,70.4 10.1,70.4 	"/>
</g>
</svg>
