<?xml version="1.0" encoding="utf-8"?>
<!-- Generator: Adobe Illustrator 20.1.0, SVG Export Plug-In . SVG Version: 6.00 Build 0)  -->
<svg version="1.1" id="Layer_1" xmlns="http://www.w3.org/2000/svg" xmlns:xlink="http://www.w3.org/1999/xlink" x="0px" y="0px"
	 viewBox="0 0 62.3 83.1" style="enable-background:new 0 0 62.3 83.1;" xml:space="preserve">
<style type="text/css">
	.st0{fill:#7B2927;stroke:#FFFFFF;stroke-width:0.8;}
	.st1{fill:#FFFFFF;}
	.st2{fill:#7B2927;stroke:#FFFFFF;stroke-width:0.8;}
	.st3{stroke:#FFFFFF;}
</style>
<g>
	<g>
		<g>
			<polygon class="st0" points="61.3,72.4 61.3,0.9 51,10.7 51,82.2 			"/>
			<polygon class="st0" points="61.3,0.9 51,10.7 1.2,10.7 14.1,0.9 			"/>
			<g>
				<rect x="1.2" y="10.7" class="st0" width="49.8" height="49.3"/>
			</g>
			<g>
				<rect x="1.2" y="60.4" class="st0" width="49.8" height="21.8"/>
			</g>
			<g>
				<polygon class="st1" points="21.6,29.5 14.1,21.9 15.4,20.6 10.6,19.6 11.6,24.4 12.9,23.1 20.4,30.7 				"/>
				<polygon class="st1" points="18.9,34.4 8.2,34.4 8.2,32.6 4.1,35.3 8.2,38 8.2,36.2 18.9,36.2 				"/>
				<polygon class="st1" points="20.4,39.9 12.9,47.5 11.6,46.2 10.6,50.9 15.4,50 14.1,48.7 21.6,41.1 				"/>
				<polygon class="st1" points="25.4,42.7 25.4,53.4 23.6,53.4 26.3,57.4 28.9,53.4 27.1,53.4 27.1,42.7 				"/>
				<polygon class="st1" points="25.4,28.2 25.4,17.5 23.6,17.5 26.3,13.5 28.9,17.5 27.1,17.5 27.1,28.2 				"/>
				<polygon class="st1" points="30.9,41.1 38.4,48.7 37.1,50 41.9,50.9 40.9,46.2 39.7,47.5 32.1,39.9 				"/>
				<polygon class="st1" points="33.6,36.2 44.3,36.2 44.3,38 48.4,35.3 44.3,32.6 44.3,34.4 33.6,34.4 				"/>
				<polygon class="st1" points="32.1,30.7 39.7,23.1 40.9,24.4 41.9,19.6 37.1,20.6 38.4,21.9 30.9,29.5 				"/>

					<ellipse transform="matrix(0.8191 -0.5736 0.5736 0.8191 -15.4173 21.5215)" class="st1" cx="26.4" cy="35.2" rx="11.2" ry="11.2"/>
			</g>
		</g>
		<polygon class="st1" points="32.9,72.1 43.6,72.1 43.6,73.9 47.7,71.3 43.6,68.6 43.6,70.4 32.9,70.4 		"/>
		<polygon class="st1" points="32.7,69.1 42.7,65.5 43.4,67.2 46.3,63.3 41.5,62.1 42.2,63.9 32.1,67.5 		"/>
		<polygon class="st1" points="32.7,73.3 42.7,77 43.4,75.3 46.3,79.2 41.5,80.3 42.2,78.6 32.1,74.9 		"/>
		<polygon class="st1" points="16.3,72.1 26.6,72.1 26.6,73.9 30.7,71.3 26.6,68.6 26.6,70.4 16.3,70.4 		"/>
	</g>
	<g>
		<path class="st2" d="M11.7,63.3c-2,0-3.7,1.6-3.7,3.7l0,3.3c0,0.3-0.2,0.5-0.6,0.6c-0.4,0-0.8-0.2-0.8-0.4l0-3.2c0-2.8,2.3-5,5-5
			c2.8,0,5,2.3,5,5v3.5c0,0.3-0.3,0.4-0.7,0.4c-0.4,0-0.7-0.5-0.7-0.7l0-3.4C15.3,64.9,13.8,63.3,11.7,63.3z"/>
		<g>
			<g>
				<path class="st2" d="M17.9,79.5c0.4,0,0.7-0.3,0.7-0.7v-8.2c0-0.4-0.3-0.7-0.7-0.7H5.2c-0.4,0-0.7,0.3-0.7,0.7v8.2
					c0,0.4,0.3,0.7,0.7,0.7H17.9z"/>
			</g>
			<path class="st3" d="M12.7,68.5"/>
		</g>
	</g>
</g>
</svg>
