<?xml version="1.0" encoding="utf-8"?>
<!-- Generator: Adobe Illustrator 20.1.0, SVG Export Plug-In . SVG Version: 6.00 Build 0)  -->
<svg version="1.1" id="Layer_1" xmlns="http://www.w3.org/2000/svg" xmlns:xlink="http://www.w3.org/1999/xlink" x="0px" y="0px"
	 viewBox="0 0 35.3 4.1" style="enable-background:new 0 0 35.3 4.1;" xml:space="preserve">
<style type="text/css">
	.st0{fill:#7B2927;}
</style>
<g>
	<path class="st0" d="M2,4.1c-1.1,0-2-0.9-2-2c0-1.1,0.9-2,2-2c1.1,0,2,0.9,2,2C4.1,3.2,3.2,4.1,2,4.1z"/>
	<g>
		<path class="st0" d="M12.3,4.1c-1.1,0-2-0.9-2-2c0-1.1,0.9-2,2-2c1.1,0,2,0.9,2,2C14.3,3.2,13.4,4.1,12.3,4.1z"/>
		<path class="st0" d="M22.5,4.1c-1.1,0-2-0.9-2-2c0-1.1,0.9-2,2-2c1.1,0,2.1,0.9,2.1,2C24.5,3.2,23.6,4.1,22.5,4.1z"/>
		<path class="st0" d="M33.3,4.1c-1.1,0-2-0.9-2-2c0-1.1,0.9-2,2-2c1.1,0,2,0.9,2,2C35.3,3.2,34.4,4.1,33.3,4.1z"/>
	</g>
</g>
</svg>
