<?xml version="1.0" encoding="utf-8"?>
<!-- Generator: Adobe Illustrator 20.1.0, SVG Export Plug-In . SVG Version: 6.00 Build 0)  -->
<svg version="1.1" id="Layer_1" xmlns="http://www.w3.org/2000/svg" xmlns:xlink="http://www.w3.org/1999/xlink" x="0px" y="0px"
	 viewBox="0 0 74.4 74.8" style="enable-background:new 0 0 74.4 74.8;" xml:space="preserve">
<style type="text/css">
	.st0{fill:#7B2927;stroke:#FFFFFF;stroke-width:0.8;}
	.st1{clip-path:url(#SVGID_2_);}
	.st2{clip-path:url(#SVGID_4_);}
	.st3{clip-path:url(#SVGID_6_);}
	.st4{fill:#FFFFFF;}
	.st5{fill:none;stroke:#7B2927;stroke-width:2.85;}
	.st6{fill:none;stroke:#FFFFFF;stroke-width:2.85;}
</style>
<g>
	<g>
		<g>
			<path class="st0" d="M74,14.7C74,22.6,57.5,29,37.2,29C16.9,29,0.4,22.6,0.4,14.7v45.4c0,7.9,16.5,14.3,36.8,14.3
				C57.5,74.4,74,68,74,60.1V14.7z"/>
			<ellipse class="st0" cx="37.2" cy="14.7" rx="36.8" ry="14.3"/>
			<polygon class="st4" points="39.3,6.6 50.9,3.4 51,8.4 48.1,7.9 42.5,12.6 37.1,11.8 42.9,7.2 			"/>
			<polygon class="st4" points="44.9,20.2 42.9,15.5 53.2,13.4 51.4,15 68.7,18 64.6,21.3 47.4,18 			"/>
			<polygon class="st4" points="34.3,24.4 23.3,26.5 22.8,21.4 26,22.1 32.1,16.9 37.5,17.8 31,23.5 			"/>
			<polygon class="st4" points="28.8,9.1 31.8,13.7 20.3,16.3 22.8,14.2 5.1,11.2 9.6,7.9 26.7,10.8 			"/>
		</g>
	</g>
	<polyline class="st5" points="21.3,63.1 31.8,63.1 45,36.1 53.3,36.1 	"/>
	<g>
		<polygon class="st4" points="23,68.8 23,59.2 17.2,63.8 		"/>
	</g>
	<g>
		<polygon class="st4" points="50.9,31.9 50.9,41.5 56.6,36.9 		"/>
	</g>
	<g>
		<polygon class="st4" points="23,41.8 23,32.2 17.2,36.8 		"/>
	</g>
	<polyline class="st5" points="53.5,63.2 44.5,63.2 31,36.1 22.6,36.1 	"/>
	<polyline class="st6" points="54.6,63.9 44.6,63.9 31.2,36.8 20.9,36.8 	"/>
	<polyline class="st6" points="21,63.9 30.6,63.9 43.9,36.9 54.3,36.9 	"/>
	<g>
		<polygon class="st4" points="50.9,59 50.9,68.6 56.6,64 		"/>
	</g>
</g>
</svg>
