<?xml version="1.0" encoding="utf-8"?>
<!-- Generator: Adobe Illustrator 20.1.0, SVG Export Plug-In . SVG Version: 6.00 Build 0)  -->
<svg version="1.1" id="Layer_1" xmlns="http://www.w3.org/2000/svg" xmlns:xlink="http://www.w3.org/1999/xlink" x="0px" y="0px"
	 viewBox="0 0 68.5 73.5" style="enable-background:new 0 0 68.5 73.5;" xml:space="preserve">
<style type="text/css">
	.st0{fill:#7B2927;stroke:#FFFFFF;stroke-width:0.8;}
	.st1{fill:#FFFFFF;}
	.st2{fill:#FFFFFF;stroke:#7B2927;stroke-width:0.8;stroke-linecap:round;stroke-linejoin:round;}
	.st3{fill:#7B2927;}
	.st4{fill:#7B2927;}
	.st5{fill:#FFFFFF;stroke:#FFFFFF;stroke-width:0.152;}
	.st6{fill:#FFFFFF;stroke:#FFFFFF;stroke-width:1.52;}
	.st7{fill:#FFFFFF;stroke:#7B2927;stroke-width:0.8;}
</style>
<g>
	<polygon class="st0" points="34.2,72.8 0.9,55.3 0.9,18 34.2,35.5 	"/>
	<polygon class="st0" points="34.2,72.8 67.6,55.3 67.6,18 34.2,35.5 	"/>
	<polygon class="st0" points="34.2,35.5 67.6,18 34.2,0.5 0.9,18 	"/>
	<polygon class="st0" points="67.6,55.1 34.2,72.8 34.2,35.6 67.6,18 	"/>
	<polygon class="st1" points="34.2,20 41.2,23.8 37,23.8 37,30.8 31.4,30.8 31.4,23.8 27.2,23.8 	"/>
	<polygon class="st1" points="59.7,18 52.7,21.7 52.7,19.5 39.6,19.5 39.6,16.5 52.7,16.5 52.7,14.2 	"/>
	<polygon class="st1" points="34.2,16.2 27.2,12.4 31.4,12.4 31.4,5.4 37,5.4 37,12.4 41.2,12.4 	"/>
	<polygon class="st1" points="8.8,18 15.8,14.2 15.8,16.5 28.9,16.5 28.9,19.5 15.8,19.5 15.8,21.7 	"/>
	<polygon class="st2" points="64.5,44.4 64.5,23.2 38.8,36.8 38.8,58 	"/>
	<path class="st2" d="M42.6,37.1l18-9.5c1.2-0.6,2.1-0.1,2.1,1.2v12.5c0,1.3-0.9,2.8-2.1,3.5l-18,9.5c-1.2,0.6-2.1,0.1-2.1-1.2V40.5
		C40.4,39.2,41.4,37.7,42.6,37.1z"/>
	<polygon class="st2" points="58.8,50.1 44.5,57.6 44.5,55 58.8,47.4 	"/>
	<polygon class="st2" points="64.5,53.3 38.8,66.8 38.8,60.7 64.5,47.1 	"/>
	<polygon class="st2" points="65.3,54.1 38,68.5 38,65.9 65.3,51.5 	"/>
	<g>
		<polygon class="st3" points="52.3,42.2 49.3,47.1 49.3,36.2 56.5,40.2 		"/>
		<polygon class="st4" points="52.1,42.5 54.1,46.6 54.7,46 52.6,41.9 		"/>
	</g>
	<g>
		<g>
			<g>
				<g>
					<g>
						<g>
							<g>
								<polygon class="st5" points="31.9,61.3 31.9,53 26.9,54.4 								"/>
							</g>
						</g>
					</g>
				</g>
			</g>
			<g>
				<g>
					<g>
						<g>
							<g>
								<polygon class="st5" points="3.5,46.5 3.5,38.2 8.4,44.8 								"/>
							</g>
							<g>
								<polygon class="st5" points="6.8,31.8 6.8,40.1 1.8,33.5 								"/>
							</g>
						</g>
					</g>
				</g>
			</g>
		</g>
		<g>
			<polygon class="st5" points="28.2,42.9 28.2,51.2 33.1,49.8 			"/>
		</g>
		<line class="st1" x1="29.2" y1="47.5" x2="26.2" y2="46"/>
		<polygon class="st1" points="25.9,47.2 28.9,48.7 29.6,47.4 26,45.5 		"/>
		<line class="st6" x1="30.3" y1="56.1" x2="34.1" y2="58.1"/>
		<line class="st6" x1="4.8" y1="42.8" x2="0.8" y2="40.7"/>
		<line class="st1" x1="5" y1="35.1" x2="8.7" y2="37.1"/>
		<polygon class="st1" points="4.6,35.8 9,38 9.1,36.4 5.3,34.4 		"/>
		<polygon class="st1" points="23.6,44.5 23.5,61.2 11.7,55 11.7,38.3 		"/>
		<polygon class="st7" points="21.5,48.2 13.8,44.2 13.8,41.1 21.5,45.2 		"/>
		<polygon class="st7" points="21.5,58.5 13.8,54.5 13.8,46.9 21.5,50.9 		"/>
		<path class="st1" d="M20.3,37.9c0,0,0.4,0.1,0.7,1.2L21,41l5.1,3.2l0.6-1.1l-1.5-3.4c-4.5-3.3-5.6-3.9-5.6-3.9l-1.4-0.8
			c0,0-3.9-1.6-6-2.2l-2.4,1l-0.3,1.6l5.3,2l0.1-1.5c0.2-0.9,1.1-0.3,1.1-0.3L20.3,37.9z"/>
		<line class="st7" x1="21.5" y1="49.6" x2="13.8" y2="45.5"/>
	</g>
</g>
</svg>
