<?xml version="1.0" encoding="utf-8"?>
<!-- Generator: Adobe Illustrator 20.1.0, SVG Export Plug-In . SVG Version: 6.00 Build 0)  -->
<svg version="1.1" id="Layer_1" xmlns="http://www.w3.org/2000/svg" xmlns:xlink="http://www.w3.org/1999/xlink" x="0px" y="0px"
	 viewBox="0 0 103.7 70.9" style="enable-background:new 0 0 103.7 70.9;" xml:space="preserve">
<style type="text/css">
	.st0{fill:#7B2927;}
	.st1{fill:none;stroke:#FFFFFF;stroke-width:0.9542;stroke-linecap:square;stroke-linejoin:bevel;stroke-miterlimit:10;}
	.st2{fill:#7B2927;}
	.st3{fill:#7B2927;}
	.st4{fill:#7B2927;}
	.st5{fill:#FFFFFF;}
	.st6{fill:#7B2927;}
	.st7{fill:none;stroke:#FFFFFF;stroke-width:1.4314;stroke-linecap:square;stroke-miterlimit:10;}
	.st8{fill:none;stroke:#FFFFFF;stroke-width:0.4772;stroke-linecap:square;stroke-miterlimit:10;}
	.st9{fill:#FFFFFF;stroke:#7B2927;stroke-width:0.8;}
</style>
<g>
	<polygon class="st0" points="0.5,8.4 0.5,70.4 95.6,70.4 95.6,8.4 0.5,8.4 0.5,8.4 	"/>
	<polygon class="st1" points="0.5,8.4 0.5,70.4 95.6,70.4 95.6,8.4 0.5,8.4 0.5,8.4 	"/>
	<polygon class="st2" points="0.5,8.4 8.1,0.5 103.2,0.5 95.6,8.4 0.5,8.4 0.5,8.4 	"/>
	<polygon class="st1" points="0.5,8.4 8.1,0.5 103.2,0.5 95.6,8.4 0.5,8.4 0.5,8.4 	"/>
	<polygon class="st3" points="95.6,8.4 103.2,0.5 103.2,62.4 95.6,70.4 95.6,8.4 95.6,8.4 	"/>
	<polygon class="st1" points="95.6,8.4 103.2,0.5 103.2,62.4 95.6,70.4 95.6,8.4 95.6,8.4 	"/>
	<polygon class="st4" points="76.8,21.8 76.8,18.2 85.4,24.3 76.8,30.4 76.8,26.7 65.2,26.7 65.2,21.8 76.8,21.8 76.8,21.8 	"/>
	<polygon class="st4" points="29.1,37.4 29.1,33.7 37.7,39.8 29.1,46 29.1,42.3 6.9,42.3 6.9,37.4 29.1,37.4 29.1,37.4 	"/>
	<polygon class="st4" points="76.8,53 76.8,49.3 85.4,55.4 76.8,61.5 76.8,57.9 65.2,57.9 65.2,53 76.8,53 76.8,53 	"/>
	<polygon class="st5" points="75.6,20.6 75.6,17.2 84.2,23 75.6,29.2 75.6,25.5 64,25.5 64,20.6 75.6,20.6 75.6,20.6 	"/>
	<polygon class="st5" points="27.9,36.2 27.9,32.5 36.5,38.6 27.9,44.7 27.9,41.1 6,41.1 6,36.2 27.9,36.2 27.9,36.2 	"/>
	<polygon class="st4" points="84.5,37.4 84.5,33.7 93.4,39.8 84.5,46 84.5,42.3 64.9,42.3 64.9,37.4 84.5,37.4 84.5,37.4 	"/>
	<polygon class="st5" points="83.6,36.2 83.6,32.5 92.2,38.6 83.6,44.7 83.6,41.1 63.7,41.1 63.7,36.2 83.6,36.2 83.6,36.2 	"/>
	<polygon class="st5" points="75.6,51.8 75.6,48.1 84.2,54.2 75.6,60.3 75.6,56.6 64,56.6 64,51.8 75.6,51.8 75.6,51.8 	"/>
	<polygon class="st6" points="60.9,13.6 60.9,65.2 38.2,65.2 38.2,13.6 60.9,13.6 	"/>
	<polygon class="st7" points="60.9,13.6 60.9,65.2 38.2,65.2 38.2,13.6 60.9,13.6 	"/>
	<polygon class="st5" points="54.8,53.3 54.8,60.3 44.9,60.3 44.9,53.3 54.8,53.3 	"/>
	<polygon class="st8" points="54.8,53.3 54.8,60.3 44.9,60.3 44.9,53.3 54.8,53.3 	"/>
	<polygon class="st5" points="59.3,60.3 59.3,62.4 57.5,62.4 57.5,60.3 59.3,60.3 	"/>
	<polygon class="st8" points="59.3,60.3 59.3,62.4 57.5,62.4 57.5,60.3 59.3,60.3 	"/>
	<polygon class="st5" points="59.3,56 59.3,58.2 57.5,58.2 57.5,56 59.3,56 	"/>
	<polygon class="st8" points="59.3,56 59.3,58.2 57.5,58.2 57.5,56 59.3,56 	"/>
	<polygon class="st5" points="59.3,51.8 59.3,53.9 57.5,53.9 57.5,51.8 59.3,51.8 	"/>
	<polygon class="st8" points="59.3,51.8 59.3,53.9 57.5,53.9 57.5,51.8 59.3,51.8 	"/>
	<polygon class="st5" points="59.3,47.8 59.3,49.6 57.5,49.6 57.5,47.8 59.3,47.8 	"/>
	<polygon class="st8" points="59.3,47.8 59.3,49.6 57.5,49.6 57.5,47.8 59.3,47.8 	"/>
	<polygon class="st5" points="59.3,43.5 59.3,45.3 57.5,45.3 57.5,43.5 59.3,43.5 	"/>
	<polygon class="st8" points="59.3,43.5 59.3,45.3 57.5,45.3 57.5,43.5 59.3,43.5 	"/>
	<polygon class="st5" points="59.3,39.2 59.3,41.4 57.5,41.4 57.5,39.2 59.3,39.2 	"/>
	<polygon class="st8" points="59.3,39.2 59.3,41.4 57.5,41.4 57.5,39.2 59.3,39.2 	"/>
	<polygon class="st5" points="59.3,35 59.3,37.1 57.5,37.1 57.5,35 59.3,35 	"/>
	<polygon class="st8" points="59.3,35 59.3,37.1 57.5,37.1 57.5,35 59.3,35 	"/>
	<polygon class="st5" points="59.3,30.7 59.3,32.8 57.5,32.8 57.5,30.7 59.3,30.7 	"/>
	<polygon class="st8" points="59.3,30.7 59.3,32.8 57.5,32.8 57.5,30.7 59.3,30.7 	"/>
	<polygon class="st5" points="59.3,26.4 59.3,28.5 57.5,28.5 57.5,26.4 59.3,26.4 	"/>
	<polygon class="st8" points="59.3,26.4 59.3,28.5 57.5,28.5 57.5,26.4 59.3,26.4 	"/>
	<polygon class="st5" points="59.3,22.4 59.3,24.3 57.5,24.3 57.5,22.4 59.3,22.4 	"/>
	<polygon class="st8" points="59.3,22.4 59.3,24.3 57.5,24.3 57.5,22.4 59.3,22.4 	"/>
	<polygon class="st5" points="59.3,18.2 59.3,20 57.5,20.3 57.5,18.2 59.3,18.2 	"/>
	<polygon class="st8" points="59.3,18.2 59.3,20 57.5,20.3 57.5,18.2 59.3,18.2 	"/>
	<polygon class="st5" points="42.2,60.3 42.2,62.4 40.3,62.4 40.3,60.3 42.2,60.3 	"/>
	<polygon class="st8" points="42.2,60.3 42.2,62.4 40.3,62.4 40.3,60.3 42.2,60.3 	"/>
	<polygon class="st5" points="42.2,56 42.2,58.2 40.3,58.2 40.3,56 42.2,56 	"/>
	<polygon class="st8" points="42.2,56 42.2,58.2 40.3,58.2 40.3,56 42.2,56 	"/>
	<polygon class="st5" points="42.2,51.8 42.2,53.9 40.3,53.9 40.3,51.8 42.2,51.8 	"/>
	<polygon class="st8" points="42.2,51.8 42.2,53.9 40.3,53.9 40.3,51.8 42.2,51.8 	"/>
	<polygon class="st5" points="42.2,47.8 42.2,49.6 40.3,49.6 40.3,47.8 42.2,47.8 	"/>
	<polygon class="st8" points="42.2,47.8 42.2,49.6 40.3,49.6 40.3,47.8 42.2,47.8 	"/>
	<polygon class="st5" points="42.2,43.5 42.2,45.3 40.3,45.3 40.3,43.5 42.2,43.5 	"/>
	<polygon class="st8" points="42.2,43.5 42.2,45.3 40.3,45.3 40.3,43.5 42.2,43.5 	"/>
	<polygon class="st5" points="42.2,39.2 42.2,41.4 40.3,41.4 40.3,39.2 42.2,39.2 	"/>
	<polygon class="st8" points="42.2,39.2 42.2,41.4 40.3,41.4 40.3,39.2 42.2,39.2 	"/>
	<polygon class="st5" points="42.2,35 42.2,37.1 40.3,37.1 40.3,35 42.2,35 	"/>
	<polygon class="st8" points="42.2,35 42.2,37.1 40.3,37.1 40.3,35 42.2,35 	"/>
	<polygon class="st5" points="42.2,30.7 42.2,32.8 40.3,32.8 40.3,30.7 42.2,30.7 	"/>
	<polygon class="st8" points="42.2,30.7 42.2,32.8 40.3,32.8 40.3,30.7 42.2,30.7 	"/>
	<polygon class="st5" points="42.2,26.4 42.2,28.5 40.3,28.5 40.3,26.4 42.2,26.4 	"/>
	<polygon class="st8" points="42.2,26.4 42.2,28.5 40.3,28.5 40.3,26.4 42.2,26.4 	"/>
	<polygon class="st5" points="42.2,22.4 42.2,24.3 40.3,24.3 40.3,22.4 42.2,22.4 	"/>
	<polygon class="st8" points="42.2,22.4 42.2,24.3 40.3,24.3 40.3,22.4 42.2,22.4 	"/>
	<polygon class="st5" points="42.2,18.2 42.2,20.3 40.3,20.3 40.3,18.2 42.2,18.2 	"/>
	<polygon class="st8" points="42.2,18.2 42.2,20.3 40.3,20.3 40.3,18.2 42.2,18.2 	"/>
	<polygon class="st5" points="54.8,42 54.8,49 44.9,49 44.9,42 54.8,42 	"/>
	<polygon class="st8" points="54.8,42 54.8,49 44.9,49 44.9,42 54.8,42 	"/>
	<polygon class="st5" points="54.8,30.7 54.8,37.7 44.9,37.7 44.9,30.7 54.8,30.7 	"/>
	<polygon class="st8" points="54.8,30.7 54.8,37.7 44.9,37.7 44.9,30.7 54.8,30.7 	"/>
	<polygon class="st5" points="54.8,19.7 54.8,26.4 44.9,26.4 44.9,19.7 54.8,19.7 	"/>
	<polygon class="st8" points="54.8,19.7 54.8,26.4 44.9,26.4 44.9,19.7 54.8,19.7 	"/>
</g>
<g>
	<path class="st9" d="M14.8,13.4c-5.9-1.2-9,1.8-8.5,4.5V18c-4.6,0.8-3.4,6.2-1.2,6.2h0.2c-0.6,2.5,4.8,5.1,7.8,3.8l0.2-0.2
		c1.1,2.3,4.9,2.7,8.6,2.8c3.3,0.1,5.1-0.2,6.5-1.6l0.2,0.1c5.2,0.4,7.6-3.2,6.4-5.8l0.3-0.1c1.8-0.5,2-4.6-1.1-5.2l0.1-0.2
		c1.3-2.7-1.8-5.2-6.1-4.7l-0.3-0.2c-3.1-2.8-12-2.3-13,0.4L14.8,13.4z"/>
</g>
</svg>
