<?xml version="1.0" encoding="utf-8"?>
<!-- Generator: Adobe Illustrator 20.1.0, SVG Export Plug-In . SVG Version: 6.00 Build 0)  -->
<svg version="1.1" id="Layer_1" xmlns="http://www.w3.org/2000/svg" xmlns:xlink="http://www.w3.org/1999/xlink" x="0px" y="0px"
	 viewBox="0 0 75.4 50.3" style="enable-background:new 0 0 75.4 50.3;" xml:space="preserve">
<style type="text/css">
	.st0{fill:#7B2927;stroke:#FFFFFF;stroke-width:0.8;}
	.st1{fill:#FFFFFF;}
	.st2{fill:#FFFFFF;stroke:#7B2927;stroke-width:0.8;}
</style>
<g>
	<rect x="1.1" y="14.9" class="st0" width="60.7" height="34.4"/>
	<polygon class="st0" points="62,49.3 62,14.9 74.6,1 74.6,35.4 	"/>
	<polygon class="st0" points="61.8,14.9 1,14.9 16.1,1.4 74.5,1.4 	"/>
	<g>
		<polygon class="st1" points="13.8,27.6 3,27.6 3,25.6 13.8,25.6 13.8,22.4 20.1,26.6 13.8,30.8 		"/>
	</g>
	<g>
		<polygon class="st1" points="52.9,39.8 42.1,39.8 42.1,37.8 52.9,37.8 52.9,34.6 59.2,38.8 52.9,43 		"/>
	</g>
	<rect x="21.4" y="18.6" class="st2" width="9.2" height="15"/>
	<rect x="26.7" y="24.7" class="st2" width="9.2" height="15"/>
	<rect x="31.9" y="30.9" class="st2" width="9.2" height="15"/>
</g>
</svg>
