<?xml version="1.0" encoding="utf-8"?>
<!-- Generator: Adobe Illustrator 20.1.0, SVG Export Plug-In . SVG Version: 6.00 Build 0)  -->
<svg version="1.1" id="Layer_1" xmlns="http://www.w3.org/2000/svg" xmlns:xlink="http://www.w3.org/1999/xlink" x="0px" y="0px"
	 viewBox="0 0 94.9 57.2" style="enable-background:new 0 0 94.9 57.2;" xml:space="preserve">
<style type="text/css">
	.st0{fill:none;stroke:#7B2927;stroke-width:1.6;stroke-linecap:round;stroke-linejoin:round;}
	.st1{fill:none;stroke:#7B2927;stroke-width:1.6;stroke-linecap:round;stroke-linejoin:round;}
	.st2{fill:#FFFFFF;stroke:#7B2927;stroke-width:1.6;stroke-linecap:round;}
	.st3{fill:#7B2927;stroke:#FFFFFF;stroke-width:0.616;}
	.st4{fill:#FFFFFF;}
	.st5{font-family:'Helvetica-Bold';}
	.st6{font-size:12px;}
	.st7{fill:none;stroke:#FFFFFF;stroke-width:3;stroke-linecap:round;stroke-linejoin:round;}
</style>
	<polygon class="st0" points="78.2,55.7 22.8,55.7 38.3,46.4 94.1,46.3 "/>
<g>
	<polygon class="st1" points="38.3,46.4 22.8,55.7 22.8,9.9 38.3,0.9 	"/>
</g>
<line class="st2" x1="0.8" y1="34.2" x2="27" y2="34.2"/>
<line class="st2" x1="27" y1="29.5" x2="3.2" y2="29.5"/>
<line class="st2" x1="30.8" y1="39.6" x2="8" y2="39.6"/>
<line class="st2" x1="28.5" y1="25.5" x2="11.5" y2="25.5"/>
<g>
	<path class="st3" d="M85.7,22.1c0,6.1-12.7,11-28.3,11c-15.6,0-28.3-4.9-28.3-11v16.1c0,6.1,12.7,11,28.3,11
		c15.6,0,28.3-4.9,28.3-11V22.1z"/>
	<ellipse class="st3" cx="57.3" cy="22.1" rx="28.3" ry="11"/>
	<polygon class="st4" points="50.9,17.7 53.2,21.3 44.4,23.3 46.3,21.7 32.6,19.4 36.1,16.8 49.3,19 	"/>
	<polygon class="st4" points="63.3,26.3 61.7,22.6 69.7,21 68.3,22.3 81.6,24.6 78.4,27.1 65.2,24.6 	"/>
	<polygon class="st4" points="59,15.8 67.9,13.4 68,17.2 65.8,16.8 61.4,20.4 57.2,19.8 61.7,16.3 	"/>
	<polygon class="st4" points="55.1,29.6 46.6,31.1 46.3,27.2 48.7,27.7 53.4,23.7 57.6,24.4 52.6,28.8 	"/>
</g>
<g>
	<g>
		<polygon class="st1" points="94.1,46.3 78.2,55.7 78.2,9.9 94.1,0.8 		"/>
		<polygon class="st1" points="78.2,9.9 22.8,9.9 38.3,0.9 94.1,0.8 		"/>
	</g>
</g>
<g>
	<text transform="matrix(1 0 0 1 33.6001 41.8781)" class="st4 st5 st6">8</text>
</g>
<g>
	<text transform="matrix(1 0 0 1 40.9555 44.4406)" class="st4 st5 st6">0</text>
</g>
<g>
	<text transform="matrix(1 0 0 1 48.6005 45.9543)" class="st4 st5 st6">2.</text>
</g>
<g>
	<text transform="matrix(1 0 0 1 59.6005 46.0227)" class="st4 st5 st6">1</text>
</g>
<g>
	<text transform="matrix(1 0 0 1 66.6669 44.8801)" class="st4 st5 st6">1</text>
</g>
<rect x="22.8" y="9.9" class="st7" width="55.4" height="45.9"/>
<rect x="22.8" y="9.9" class="st1" width="55.4" height="45.9"/>
</svg>
