<?xml version="1.0" encoding="utf-8"?>
<!-- Generator: Adobe Illustrator 20.1.0, SVG Export Plug-In . SVG Version: 6.00 Build 0)  -->
<svg version="1.1" id="Layer_1" xmlns="http://www.w3.org/2000/svg" xmlns:xlink="http://www.w3.org/1999/xlink" x="0px" y="0px"
	 viewBox="0 0 62.7 84" style="enable-background:new 0 0 62.7 84;" xml:space="preserve">
<style type="text/css">
	.st0{fill:#7B2927;stroke:#FFFFFF;stroke-width:0.8;}
	.st1{fill:#FFFFFF;}
	.st2{stroke:#FFFFFF;stroke-width:0.8;}
	.st3{fill:none;stroke:#FFFFFF;stroke-width:1.6;}
</style>
<g>
	<g>
		<rect x="1.3" y="29.4" class="st0" width="53.7" height="53.6"/>
		<polygon class="st0" points="61.7,76.3 61.7,22.7 54.9,29.4 54.9,83 		"/>
		<polygon class="st0" points="11.1,1 1.3,7.7 54.9,7.7 61.7,1 		"/>
		<rect x="1.3" y="7.7" class="st0" width="53.7" height="21.7"/>
		<polygon class="st0" points="61.7,22.7 61.7,1 54.9,7.7 54.9,29.4 		"/>
		<line class="st0" x1="54.9" y1="29.4" x2="1.3" y2="29.4"/>
		<line class="st0" x1="54.9" y1="29.4" x2="61.7" y2="22.7"/>
		<rect x="10" y="10.6" class="st1" width="8.7" height="4.5"/>
		<path class="st2" d="M14.4,12.8"/>
		<rect x="38.5" y="10.6" class="st1" width="8.7" height="4.5"/>
		<path class="st2" d="M42.8,12.8"/>
		<rect x="10" y="21.8" class="st1" width="8.7" height="4.5"/>
		<path class="st2" d="M14.4,24.1"/>
		<rect x="38.5" y="21.8" class="st1" width="8.7" height="4.5"/>
		<path class="st2" d="M42.8,24.1"/>
		<line class="st2" x1="15.9" y1="12.8" x2="42.5" y2="12.8"/>
		<line class="st2" x1="15.9" y1="24.1" x2="42.5" y2="24.1"/>
		<line class="st2" x1="14.4" y1="24.1" x2="42.5" y2="12.8"/>
		<line class="st2" x1="14.4" y1="12.8" x2="42.5" y2="24.1"/>
	</g>
	<g>
		<g>
			<g>
				<g>
					<polygon class="st1" points="30.9,44.1 34.6,44.1 34.6,44.7 36,43.8 34.6,42.9 34.6,43.5 30.9,43.5 					"/>
					<polygon class="st1" points="30.3,42.2 33,39.6 33.4,40 33.7,38.4 32.1,38.7 32.5,39.1 29.9,41.8 					"/>
					<polygon class="st1" points="28.6,41.2 28.6,37.5 29.2,37.5 28.3,36.1 27.4,37.5 28,37.5 28,41.2 					"/>
					<polygon class="st1" points="26.7,41.8 24.1,39.1 24.5,38.7 22.9,38.4 23.2,40 23.7,39.6 26.3,42.2 					"/>
					<polygon class="st1" points="25.8,43.5 22,43.5 22,42.9 20.6,43.8 22,44.7 22,44.1 25.8,44.1 					"/>
					<polygon class="st1" points="29.9,45.8 32.5,48.4 32.1,48.9 33.7,49.2 33.4,47.6 33,48 30.3,45.4 					"/>
				</g>
			</g>
			<g>
				
					<ellipse transform="matrix(0.8191 -0.5736 0.5736 0.8191 -20.0295 24.1934)" class="st1" cx="28.3" cy="43.9" rx="3.8" ry="3.8"/>
			</g>
			<g>
				<polygon class="st1" points="26.3,45.7 23.7,48.3 23.2,47.9 22.9,49.6 24.5,49.2 24.1,48.8 26.7,46.2 				"/>
			</g>
		</g>
	</g>
	<line class="st3" x1="28.3" y1="46" x2="28.3" y2="70.4"/>
	<g>
		<g>
			<g>
				<g>
					<polygon class="st1" points="26.6,72 24,72 24,71.6 23,72.2 24,72.9 24,72.4 26.6,72.4 					"/>
					<polygon class="st1" points="27,73.3 25.2,75.2 24.9,74.9 24.6,76 25.8,75.8 25.5,75.5 27.3,73.6 					"/>
					<polygon class="st1" points="28.2,74 28.2,76.6 27.8,76.6 28.4,77.6 29.1,76.6 28.6,76.6 28.6,74 					"/>
					<polygon class="st1" points="29.5,73.6 31.4,75.5 31.1,75.8 32.2,76 32,74.9 31.7,75.2 29.8,73.3 					"/>
					<polygon class="st1" points="30.2,72.4 32.8,72.4 32.8,72.9 33.8,72.2 32.8,71.6 32.8,72 30.2,72 					"/>
					<polygon class="st1" points="27.3,70.8 25.5,69 25.8,68.7 24.6,68.4 24.9,69.6 25.2,69.3 27,71.1 					"/>
				</g>
			</g>
			<g>
				
					<ellipse transform="matrix(0.8192 -0.5735 0.5735 0.8192 -36.2668 29.3315)" class="st1" cx="28.4" cy="72.2" rx="2.7" ry="2.7"/>
			</g>
			<g>
				<polygon class="st1" points="29.8,70.9 31.7,69 32,69.4 32.2,68.2 31.1,68.4 31.4,68.7 29.5,70.6 				"/>
			</g>
		</g>
	</g>
</g>
</svg>
