<?xml version="1.0" encoding="utf-8"?>
<!-- Generator: Adobe Illustrator 20.1.0, SVG Export Plug-In . SVG Version: 6.00 Build 0)  -->
<svg version="1.1" id="Layer_1" xmlns="http://www.w3.org/2000/svg" xmlns:xlink="http://www.w3.org/1999/xlink" x="0px" y="0px"
	 viewBox="0 0 68.1 51.5" style="enable-background:new 0 0 68.1 51.5;" xml:space="preserve">
<style type="text/css">
	.st0{fill:#7B2927;stroke:#FFFFFF;stroke-width:0.8;}
</style>
<g>
	<g>
		<g>
			<rect x="1" y="10.2" class="st0" width="9.5" height="40.3"/>
		</g>
		<g>
			<rect x="10.4" y="10.2" class="st0" width="9.5" height="40.3"/>
		</g>
		<g>
			<rect x="19.9" y="10.2" class="st0" width="9.5" height="40.3"/>
		</g>
		<g>
			<rect x="29.4" y="10.2" class="st0" width="9.5" height="40.3"/>
		</g>
		<g>
			<rect x="38.9" y="10.2" class="st0" width="9.5" height="40.3"/>
		</g>
		<g>
			<rect x="48.4" y="10.2" class="st0" width="9.5" height="40.3"/>
		</g>
	</g>
	<polygon class="st0" points="57.9,50.5 67.7,40.7 67.7,0.4 10.8,0.4 1,10.2 57.9,10.2 	"/>
	<line class="st0" x1="57.9" y1="10.2" x2="67.7" y2="0.4"/>
	<line class="st0" x1="57.9" y1="30.4" x2="1" y2="30.4"/>
	<g>
		<line class="st0" x1="2.6" y1="33.4" x2="8.8" y2="33.4"/>
	</g>
	<g>
		<line class="st0" x1="2.6" y1="35.8" x2="8.8" y2="35.8"/>
	</g>
	<g>
		<line class="st0" x1="2.6" y1="38.2" x2="8.8" y2="38.2"/>
	</g>
	<g>
		<line class="st0" x1="2.6" y1="40.5" x2="8.8" y2="40.5"/>
	</g>
	<g>
		<line class="st0" x1="2.6" y1="42.9" x2="8.8" y2="42.9"/>
	</g>
	<g>
		<line class="st0" x1="12.1" y1="33.4" x2="18.3" y2="33.4"/>
	</g>
	<g>
		<line class="st0" x1="12.1" y1="35.8" x2="18.3" y2="35.8"/>
	</g>
	<g>
		<line class="st0" x1="12.1" y1="38.2" x2="18.3" y2="38.2"/>
	</g>
	<g>
		<line class="st0" x1="12.1" y1="40.5" x2="18.3" y2="40.5"/>
	</g>
	<g>
		<line class="st0" x1="12.1" y1="42.9" x2="18.3" y2="42.9"/>
	</g>
</g>
</svg>
