<?xml version="1.0" encoding="UTF-8" standalone="no"?>
<svg
   xmlns:dc="http://purl.org/dc/elements/1.1/"
   xmlns:cc="http://creativecommons.org/ns#"
   xmlns:rdf="http://www.w3.org/1999/02/22-rdf-syntax-ns#"
   xmlns:svg="http://www.w3.org/2000/svg"
   xmlns="http://www.w3.org/2000/svg"
   viewBox="0 0 50.533333 47.146667"
   height="47.146667"
   width="50.533333"
   xml:space="preserve"
   id="svg2"
   version="1.1"><metadata
     id="metadata8"><rdf:RDF><cc:Work
         rdf:about=""><dc:format>image/svg+xml</dc:format><dc:type
           rdf:resource="http://purl.org/dc/dcmitype/StillImage" /></cc:Work></rdf:RDF></metadata><defs
     id="defs6"><clipPath
       id="clipPath20"
       clipPathUnits="userSpaceOnUse"><path
         id="path18"
         d="M 0,3 V 354 H 379 V 3 Z" /></clipPath></defs><g
     transform="matrix(1.3333333,0,0,-1.3333333,0,47.146667)"
     id="g10"><g
       transform="scale(0.1)"
       id="g12"><g
         id="g14"><g
           clip-path="url(#clipPath20)"
           id="g16"><path
             id="path22"
             style="fill:#7B2927;fill-opacity:1;fill-rule:nonzero;stroke:none"
             d="M 373.965,348.555 312.344,290.059 H 5.78125 L 80.1758,348.555 H 373.965" /><path
             id="path24"
             style="fill:none;stroke:#ffffff;stroke-width:4;stroke-linecap:butt;stroke-linejoin:miter;stroke-miterlimit:4;stroke-dasharray:none;stroke-opacity:1"
             d="M 373.965,348.555 312.344,290.059 H 5.78125 l 74.39455,58.496 z" /><path
             id="path26"
             style="fill:#7B2927;fill-opacity:1;fill-rule:nonzero;stroke:none"
             d="m 5.78125,4.91016 h 306.563 v 285.148 H 5.78125 Z" /><path
             id="path28"
             style="fill:none;stroke:#ffffff;stroke-width:4;stroke-linecap:butt;stroke-linejoin:miter;stroke-miterlimit:4;stroke-dasharray:none;stroke-opacity:1"
             d="M 312.344,4.91016 V 290.059 H 5.78125 V 4.91016 Z" /><path
             id="path30"
             style="fill:#7B2927;fill-opacity:1;fill-rule:nonzero;stroke:none"
             d="M 366.934,63.5078 V 348.652 L 309.785,290.059 V 4.91016 l 57.149,58.59764" /><path
             id="path32"
             style="fill:none;stroke:#ffffff;stroke-width:4;stroke-linecap:butt;stroke-linejoin:miter;stroke-miterlimit:4;stroke-dasharray:none;stroke-opacity:1"
             d="M 366.934,63.5078 V 348.652 L 309.785,290.059 V 4.91016 Z" /><path
             id="path34"
             style="fill:#7B2927;fill-opacity:1;fill-rule:nonzero;stroke:none"
             d="m 21.0742,27.9375 h 273.926 v 240.332 H 21.0742 Z" /><path
             id="path36"
             style="fill:none;stroke:#ffffff;stroke-width:4;stroke-linecap:butt;stroke-linejoin:miter;stroke-miterlimit:4;stroke-dasharray:none;stroke-opacity:1"
             d="M 295,268.27 H 21.0742 V 27.9375 H 295 Z" /><path
             id="path38"
             style="fill:none;stroke:#ffffff;stroke-width:4.80000019;stroke-linecap:butt;stroke-linejoin:miter;stroke-miterlimit:4;stroke-dasharray:12, 12;stroke-dashoffset:0;stroke-opacity:1"
             d="m 131.387,161.473 -97.012,-32" /><path
             id="path40"
             style="fill:#7B2927;fill-opacity:1;fill-rule:nonzero;stroke:none"
             d="m 176.387,185.477 118.476,43.996 v -25.996 l -118.476,-18" /><path
             id="path42"
             style="fill:none;stroke:#ffffff;stroke-width:4;stroke-linecap:butt;stroke-linejoin:miter;stroke-miterlimit:4;stroke-dasharray:none;stroke-opacity:1"
             d="m 176.387,185.477 118.476,43.996 v -25.996 z" /><path
             id="path44"
             style="fill:#7B2927;fill-opacity:1;fill-rule:nonzero;stroke:none"
             d="m 176.387,185.477 118.476,15.996 v -26.004 l -118.476,10.008" /><path
             id="path46"
             style="fill:none;stroke:#ffffff;stroke-width:4;stroke-linecap:butt;stroke-linejoin:miter;stroke-miterlimit:4;stroke-dasharray:none;stroke-opacity:1"
             d="m 176.387,185.477 118.476,15.996 v -26.004 l -118.476,10.008" /><path
             id="path48"
             style="fill:#7B2927;fill-opacity:1;fill-rule:nonzero;stroke:none"
             d="M 176.387,185.477 294.863,175.242 V 149.258 L 176.387,185.477" /><path
             id="path50"
             style="fill:none;stroke:#ffffff;stroke-width:4;stroke-linecap:butt;stroke-linejoin:miter;stroke-miterlimit:4;stroke-dasharray:none;stroke-opacity:1"
             d="M 176.387,185.477 294.863,175.242 V 149.258 L 176.387,185.477" /><path
             id="path52"
             style="fill:#ffffff;fill-opacity:1;fill-rule:nonzero;stroke:none"
             d="M 255.645,49.5039 H 68.418 L 162.031,236.727 255.645,49.5039" /><path
             id="path54"
             style="fill:#7B2927;fill-opacity:1;fill-rule:nonzero;stroke:none"
             d="m 149.219,127.781 -18.379,18.379 3.125,3.117 -11.543,2.332 2.344,-11.543 3.105,3.118 18.379,-18.371 2.969,2.968" /><path
             id="path56"
             style="fill:#7B2927;fill-opacity:1;fill-rule:nonzero;stroke:none"
             d="m 142.5,115.754 h -25.977 v 4.41 l -9.824,-6.512 9.824,-6.504 v 4.415 H 142.5 v 4.191" /><path
             id="path58"
             style="fill:#7B2927;fill-opacity:1;fill-rule:nonzero;stroke:none"
             d="m 146.25,102.48 -18.379,-18.3706 -3.105,3.1172 -2.344,-11.5352 11.543,2.3438 -3.125,3.1171 18.379,18.3672 -2.969,2.9605" /><path
             id="path60"
             style="fill:#7B2927;fill-opacity:1;fill-rule:nonzero;stroke:none"
             d="M 158.301,95.7695 V 69.7852 h -4.414 l 6.484,-9.8164 6.524,9.8164 h -4.415 v 25.9843 h -4.179" /><path
             id="path62"
             style="fill:#7B2927;fill-opacity:1;fill-rule:nonzero;stroke:none"
             d="m 158.301,130.789 v 25.996 h -4.414 l 6.484,9.797 6.524,-9.797 h -4.415 v -25.996 h -4.179" /><path
             id="path64"
             style="fill:#7B2927;fill-opacity:1;fill-rule:nonzero;stroke:none"
             d="m 171.543,99.5195 18.379,-18.3672 -3.106,-3.1171 11.543,-2.3438 -2.343,11.5352 -3.125,-3.1172 -18.379,18.3706 -2.969,-2.9605" /><path
             id="path66"
             style="fill:#7B2927;fill-opacity:1;fill-rule:nonzero;stroke:none"
             d="m 178.262,111.563 h 25.996 v -4.415 l 9.805,6.504 -9.805,6.512 v -4.41 h -25.996 v -4.191" /><path
             id="path68"
             style="fill:#7B2927;fill-opacity:1;fill-rule:nonzero;stroke:none"
             d="m 174.512,124.813 18.379,18.371 3.125,-3.118 2.343,11.543 -11.543,-2.332 3.106,-3.117 -18.379,-18.379 2.969,-2.968" /><path
             id="path70"
             style="fill:#7B2927;fill-opacity:1;fill-rule:nonzero;stroke:none"
             d="m 176.348,91.6602 c 12.246,8.5738 15.234,25.4878 6.64,37.7418 -8.593,12.27 -25.468,15.246 -37.754,6.653 -12.246,-8.586 -15.234,-25.489 -6.66,-37.7347 8.594,-12.2734 25.508,-15.2539 37.774,-6.6601" /><path
             id="path72"
             style="fill:none;stroke:#ffffff;stroke-width:4;stroke-linecap:butt;stroke-linejoin:miter;stroke-miterlimit:4;stroke-dasharray:none;stroke-opacity:1"
             d="m 176.348,91.6602 c 12.246,8.5738 15.234,25.4878 6.64,37.7418 -8.593,12.27 -25.468,15.246 -37.754,6.653 -12.246,-8.586 -15.234,-25.489 -6.66,-37.7347 8.594,-12.2734 25.508,-15.2539 37.774,-6.6601 z" /></g></g></g></g></svg>