<?xml version="1.0" encoding="UTF-8" standalone="no"?>
<svg
   xmlns:dc="http://purl.org/dc/elements/1.1/"
   xmlns:cc="http://creativecommons.org/ns#"
   xmlns:rdf="http://www.w3.org/1999/02/22-rdf-syntax-ns#"
   xmlns:svg="http://www.w3.org/2000/svg"
   xmlns="http://www.w3.org/2000/svg"
   viewBox="0 0 41.506668 55.413334"
   height="55.413334"
   width="41.506668"
   xml:space="preserve"
   id="svg2"
   version="1.1"><metadata
     id="metadata8"><rdf:RDF><cc:Work
         rdf:about=""><dc:format>image/svg+xml</dc:format><dc:type
           rdf:resource="http://purl.org/dc/dcmitype/StillImage" /></cc:Work></rdf:RDF></metadata><defs
     id="defs6"><clipPath
       id="clipPath20"
       clipPathUnits="userSpaceOnUse"><path
         id="path18"
         d="M 0,416 H 310 V 0 H 0 Z" /></clipPath></defs><g
     transform="matrix(1.3333333,0,0,-1.3333333,0,55.413333)"
     id="g10"><g
       transform="scale(0.1)"
       id="g12"><g
         id="g14"><g
           clip-path="url(#clipPath20)"
           id="g16"><path
             id="path22"
             style="fill:#7B2927;fill-opacity:1;fill-rule:nonzero;stroke:none"
             d="M 150.121,28.0547 V 136.805 L 125.473,113.406 V 4.65625 l 24.648,23.39845" /><path
             id="path24"
             style="fill:none;stroke:#FFFFFF;stroke-width:4;stroke-linecap:butt;stroke-linejoin:miter;stroke-miterlimit:4;stroke-dasharray:none;stroke-opacity:1"
             d="M 150.121,28.0547 V 136.805 L 125.473,113.406 V 4.65625 Z" /><path
             id="path26"
             style="fill:#7B2927;fill-opacity:1;fill-rule:nonzero;stroke:none"
             d="m 5.96094,4.65625 h 119.512 v 108.75 H 5.96094 Z" /><path
             id="path28"
             style="fill:none;stroke:#FFFFFF;stroke-width:4;stroke-linecap:butt;stroke-linejoin:miter;stroke-miterlimit:4;stroke-dasharray:none;stroke-opacity:1"
             d="M 125.473,4.65625 V 113.406 H 5.96094 V 4.65625 Z" /><path
             id="path30"
             style="fill:#7B2927;fill-opacity:1;fill-rule:nonzero;stroke:none"
             d="m 135.336,4.65625 h 119.512 v 108.75 H 135.336 Z" /><path
             id="path32"
             style="fill:none;stroke:#FFFFFF;stroke-width:4;stroke-linecap:butt;stroke-linejoin:miter;stroke-miterlimit:4;stroke-dasharray:none;stroke-opacity:1"
             d="M 254.848,4.65625 V 113.406 H 135.336 V 4.65625 Z" /><path
             id="path34"
             style="fill:#7B2927;fill-opacity:1;fill-rule:nonzero;stroke:none"
             d="m 306.293,164.656 v 246.25 l -51.328,-48.75 v -246.25 l 51.328,48.75" /><path
             id="path36"
             style="fill:none;stroke:#FFFFFF;stroke-width:4;stroke-linecap:butt;stroke-linejoin:miter;stroke-miterlimit:4;stroke-dasharray:none;stroke-opacity:1"
             d="m 306.293,164.656 v 246.25 l -51.328,-48.75 v -246.25 z" /><path
             id="path38"
             style="fill:#7B2927;fill-opacity:1;fill-rule:nonzero;stroke:none"
             d="M 306.195,53.4063 V 162.156 l -51.347,-48.75 V 4.65625 l 51.347,48.75005" /><path
             id="path40"
             style="fill:none;stroke:#FFFFFF;stroke-width:4;stroke-linecap:butt;stroke-linejoin:miter;stroke-miterlimit:4;stroke-dasharray:none;stroke-opacity:1"
             d="M 306.195,53.4063 V 162.156 l -51.347,-48.75 V 4.65625 Z" /><path
             id="path42"
             style="fill:#7B2927;fill-opacity:1;fill-rule:nonzero;stroke:none"
             d="m 306.293,410.906 -51.328,-48.75 H 5.96094 l 64.51176,48.75 H 306.293" /><path
             id="path44"
             style="fill:none;stroke:#FFFFFF;stroke-width:4;stroke-linecap:butt;stroke-linejoin:miter;stroke-miterlimit:4;stroke-dasharray:none;stroke-opacity:1"
             d="m 306.293,410.906 -51.328,-48.75 H 5.96094 l 64.51176,48.75 z" /><path
             id="path46"
             style="fill:#7B2927;fill-opacity:1;fill-rule:nonzero;stroke:none"
             d="m 5.96094,115.906 h 249.004 v 246.25 H 5.96094 Z" /><path
             id="path48"
             style="fill:none;stroke:#FFFFFF;stroke-width:4;stroke-linecap:butt;stroke-linejoin:miter;stroke-miterlimit:4;stroke-dasharray:none;stroke-opacity:1"
             d="m 254.965,115.906 v 246.25 H 5.96094 v -246.25 z" /><path
             id="path50"
             style="fill:#FFFFFF;fill-opacity:1;fill-rule:nonzero;stroke:none"
             d="m 108.266,268.227 -37.891,37.886 6.4258,6.426 -23.7891,4.813 4.8242,-23.778 6.4258,6.422 37.8903,-37.883 6.114,6.114" /><path
             id="path52"
             style="fill:#FFFFFF;fill-opacity:1;fill-rule:nonzero;stroke:none"
             d="M 94.3984,243.426 H 40.8242 v 9.09 L 20.6094,239.102 40.8242,225.691 v 9.09 h 53.5742 v 8.645" /><path
             id="path54"
             style="fill:#FFFFFF;fill-opacity:1;fill-rule:nonzero;stroke:none"
             d="m 102.152,216.094 -37.8903,-37.887 -6.4258,6.426 -4.8242,-23.778 23.7891,4.813 -6.4258,6.426 37.891,37.886 -6.114,6.114" /><path
             id="path56"
             style="fill:#FFFFFF;fill-opacity:1;fill-rule:nonzero;stroke:none"
             d="M 126.957,202.242 V 148.66 h -9.102 l 13.418,-20.222 13.418,20.222 h -9.101 v 53.582 h -8.633" /><path
             id="path58"
             style="fill:#FFFFFF;fill-opacity:1;fill-rule:nonzero;stroke:none"
             d="m 126.957,274.422 v 53.582 h -9.102 l 13.418,20.219 13.418,-20.219 h -9.101 v -53.582 h -8.633" /><path
             id="path60"
             style="fill:#FFFFFF;fill-opacity:1;fill-rule:nonzero;stroke:none"
             d="m 154.281,209.98 37.891,-37.886 -6.426,-6.426 23.77,-4.813 -4.805,23.778 -6.426,-6.426 -37.89,37.887 -6.114,-6.114" /><path
             id="path62"
             style="fill:#FFFFFF;fill-opacity:1;fill-rule:nonzero;stroke:none"
             d="m 168.129,234.781 h 53.574 v -9.09 l 20.235,13.411 -20.235,13.414 v -9.09 h -53.574 v -8.645" /><path
             id="path64"
             style="fill:#FFFFFF;fill-opacity:1;fill-rule:nonzero;stroke:none"
             d="m 160.395,262.113 37.89,37.887 6.426,-6.426 4.805,23.778 -23.77,-4.813 6.426,-6.426 -37.891,-37.886 6.114,-6.114" /><path
             id="path66"
             style="fill:#FFFFFF;fill-opacity:1;fill-rule:nonzero;stroke:none"
             d="m 28.4609,85.5469 h 7.6758 L 24.8672,102.559 13.5781,85.5469 h 7.5977 v -55.75 H 13.5 L 24.7891,12.7813 36.0586,29.7969 h -7.5977 v 55.75" /><path
             id="path68"
             style="fill:#FFFFFF;fill-opacity:1;fill-rule:nonzero;stroke:none"
             d="m 55.8047,85.5469 h 7.6758 L 52.2109,102.559 40.9219,85.5469 h 7.5976 v -55.75 h -7.6757 l 11.2695,-17.0156 11.289,17.0156 h -7.5976 v 55.75" /><path
             id="path70"
             style="fill:#FFFFFF;fill-opacity:1;fill-rule:nonzero;stroke:none"
             d="m 83.1289,85.5469 h 7.6953 L 79.5352,102.559 68.2656,85.5469 h 7.5977 v -55.75 H 68.1875 L 79.457,12.7813 90.7461,29.7969 h -7.6172 v 55.75" /><path
             id="path72"
             style="fill:#FFFFFF;fill-opacity:1;fill-rule:nonzero;stroke:none"
             d="m 110.473,85.5469 h 7.695 L 106.879,102.559 95.6094,85.5469 h 7.5976 v -55.75 H 95.5117 L 106.801,12.7813 118.09,29.7969 h -7.617 v 55.75" /><path
             id="path74"
             style="fill:#FFFFFF;fill-opacity:1;fill-rule:nonzero;stroke:none"
             d="m 157.836,85.5469 h 7.676 l -11.27,17.0121 -11.289,-17.0121 h 7.598 v -55.75 h -7.676 l 11.289,-17.0156 11.27,17.0156 h -7.598 v 55.75" /><path
             id="path76"
             style="fill:#FFFFFF;fill-opacity:1;fill-rule:nonzero;stroke:none"
             d="m 185.18,85.5469 h 7.675 L 181.586,102.559 170.297,85.5469 h 7.598 v -55.75 h -7.676 l 11.269,-17.0156 11.289,17.0156 h -7.597 v 55.75" /><path
             id="path78"
             style="fill:#FFFFFF;fill-opacity:1;fill-rule:nonzero;stroke:none"
             d="m 212.504,85.5469 h 7.695 L 208.91,102.559 197.641,85.5469 h 7.597 v -55.75 h -7.675 l 11.269,-17.0156 11.289,17.0156 h -7.617 v 55.75" /><path
             id="path80"
             style="fill:#FFFFFF;fill-opacity:1;fill-rule:nonzero;stroke:none"
             d="m 239.848,85.5469 h 7.695 l -11.289,17.0121 -11.27,-17.0121 h 7.598 v -55.75 h -7.695 l 11.289,-17.0156 11.289,17.0156 h -7.617 v 55.75" /></g></g></g></g></svg>