<?xml version="1.0" encoding="utf-8"?>
<!-- Generator: Adobe Illustrator 20.1.0, SVG Export Plug-In . SVG Version: 6.00 Build 0)  -->
<svg version="1.1" id="Layer_1" xmlns="http://www.w3.org/2000/svg" xmlns:xlink="http://www.w3.org/1999/xlink" x="0px" y="0px"
	 viewBox="0 0 97.9 138.3" style="enable-background:new 0 0 97.9 138.3;" xml:space="preserve">
<style type="text/css">
	.st0{fill:#7B2927;stroke:#FFFFFF;stroke-width:0.8;}
	.st1{fill:#7B2927;}
</style>
<g>
	<path class="st0" d="M95.1,49.7c3.2-4.5-5.4-6.8-5.4-6.8"/>
	<polygon class="st0" points="89.9,10.3 85.5,13.9 51.9,13.9 56.2,10.3 	"/>
	<rect x="51.6" y="14" class="st0" width="33.9" height="26.9"/>
	<polygon class="st0" points="89.9,37.7 89.9,10.4 85.4,14 85.4,41.3 	"/>
	<path class="st0" d="M40.2,7.7c0.3,3-1.7,5.1,1.8,9.4c0.5,0.6-0.8,1.9-1.2,2.6c-0.4,0.7-0.6,1.8-0.3,2.7c-0.3,0-0.6,0.8-0.6,1.3
		c-0.3,1.5,0.3,2.6-0.6,2.8c-1.5,0.6-3.6,0.6-4.5,1.5c-1.2,0.9-2.4,2.4-3,4.2c-0.3,0-0.9,0-1.2,0c-2.7-2.7-6-8.4-9.9-9.6
		c-1.5-3.9,1.2-7.2,3-10.5c2.1-3.6,6-6,10.2-6.3"/>
	<path class="st0" d="M20,22.4c0.5,0.5,1.6-0.3,2.5,0c1.5,0.6,3.6,0.9,4.5,0c1.2-0.9,1.8-2.7,2.7-4.2c0-0.3,0.3-0.9,0.9-1.2
		c1.5,0,3.6,0.6,4.2-0.3c1.8-1.8-0.6-5.4,2.1-6.9C39,8.9,42.6,8.3,42,5.3c-5.7-3-12-6-18.3-4.5c-1.8,0.6-3.3,2.7-4.8,4.2
		C18.6,5.6,18,6.2,18,6.8c-0.3,3.9-0.6,7.5,0.3,11.4C18.6,19.4,19.1,21.5,20,22.4z"/>
	<path class="st0" d="M51.2,94.1c0,2.4,0,4.8,0,7.2c-1.7,1.5-1.5,3.9-1.5,6c2.4,1.3,5.3,0.8,7.8,0.9c0-0.4,0-1.1,0.1-1.1
		c2.4-0.3,4.6-0.4,7.1-0.8c0.6-1.6,0.9-3.6,0.9-5.4c-2.1-1.1-5.3-0.9-6.3-3.3c-0.9-2.4-0.9-4.9-0.8-7.3"/>
	<path class="st0" d="M42.7,90.9c5.6,0.6,10.4-2.4,15.5-4.5c1.3-0.6,3.3-0.2,4.9-0.2c0.4,5.7-0.4,11.4-0.2,17.1
		c2.9,0,5.6,0.3,8.4-0.1c1.5-0.2,3-0.9,4.3-1.7c0-8,0.5-15.9-0.4-24c-0.1-0.9-0.8-1.8-1.3-2.7c-0.3-0.4-0.9-0.9-1.5-1
		c-6.8-1.5-7.8-0.8-14.4-1.7c-0.6,0,1.5-3.3,1.1-3.9c-1.2-1.6-16.8-0.8-18.8-0.6"/>
	<path class="st0" d="M70.7,103.1c0,1-0.3,2.1,0.1,3c0.2,0.4,1.1,0.4,1.7,0.9c0.4,0.4,0.9,1,1.5,1.3c0.9,0.4,1.9,0.6,3,0.8
		c1.5,0.2,3-0.3,4.3,0.3c0.2,0.2,0.6,0.2,0.9,0.5c0.9,1,1.2,2.4,0.6,3.3c-1.2,1.8-2.8,3.2-4.9,3.6c-2.9,0.4-5.7,0-8.6,0.6
		c-0.3,0-0.1,0-0.3,0.2c-0.1,0.4,0.2,1.7,0,1.7c-2.8,0.1-6.1,0.8-8.1-2c-0.6-0.9-0.8-2.3-0.3-3.4c0.6-1.2,0.9-2.4,1.2-3.8
		c0.4-1.1,0.3-1.1,0.8-2.1c0.6-1.5,0.3-3.1,0.3-4.8"/>
	<path class="st1" d="M35.2,104.8v7.5l14.6-6c2.4-0.5,3,2.5,3,2.5v2.1h-1.2v2c-1.2,2.1-3.1,0-3.1,0v-2.4l-11.6,5.3l13.6,11.1
		c1.8,3.3,0.2,6.3,0.2,6.3c1.5,2.8-1.2,4.8-1.2,4.8c-3.6,1.8-3.4-2.6-3.4-2.6c-0.4-2.6,2.1-2.6,2.1-2.6l0.8-1.5L33,116.9l-20.7,11.9
		l-0.7,1.8c1.7,3.6-1.4,4.8-1.4,4.8c-4.2,0.8-2.6-3-2.6-3c-0.1-2.1,1.5-2.1,1.5-2.1l1.2-1.3c0,0,1.1,0.4-0.1-0.6
		c-1.2-1-0.3-3.9-0.3-3.9l19.5-9.6l-6.4-6.3l-2.1,1.3c0,3.4-2.4,2.4-2.4,2.4c-2.6,0-1.1-2.7-1.1-2.7c0.9-0.8,2.1-1.2,2.1-1.2L21,105
		l5,2.6l5.7,4.8v-6.6"/>
	<path class="st0" d="M44,97.1l16.9-7.7c1.2-1.5-0.8-3.8-0.8-3.8l-15.9,6"/>
	<rect x="54.5" y="17.6" class="st0" width="28.2" height="20.3"/>
	<rect x="51.9" y="42.2" class="st0" width="34.1" height="4.9"/>
	<rect x="44.1" y="53.9" class="st0" width="37.8" height="1.7"/>
	<rect x="89.3" y="53.6" class="st0" width="5.5" height="1.2"/>
	<polygon class="st0" points="94.8,53.3 97.2,49.4 91.7,49.4 89.3,53.3 	"/>
	<polygon class="st0" points="97.4,52.8 97.4,49.4 94.7,53.6 94.7,54.8 	"/>
	<polygon class="st0" points="87.3,50.3 87.3,47.4 81.8,53.9 81.8,55.5 	"/>
	<polygon class="st0" points="90.5,44.4 90.5,38.1 85.9,42 85.9,48.6 	"/>
	<rect x="52.7" y="41" class="st0" width="33" height="1.2"/>
	<polygon class="st0" points="90,38.7 90,38 85.4,41.4 85.4,42.2 	"/>
	<polygon class="st0" points="87,47.3 81.9,54 44.2,54 50.2,47.3 	"/>
	<line class="st0" x1="73.8" y1="44.6" x2="83.1" y2="44.6"/>
	<polyline class="st0" points="39.4,13.7 38.4,15.5 40,15.3 	"/>
	<line class="st0" x1="57.1" y1="49.5" x2="59.1" y2="49.6"/>
	<line class="st0" x1="59.9" y1="49.6" x2="61.9" y2="49.6"/>
	<line class="st0" x1="51.3" y1="49.5" x2="53.3" y2="49.5"/>
	<line class="st0" x1="54.1" y1="49.5" x2="56.1" y2="49.5"/>
	<line class="st0" x1="62.7" y1="49.6" x2="64.7" y2="49.6"/>
	<line class="st0" x1="65.5" y1="49.6" x2="67.5" y2="49.6"/>
	<line class="st0" x1="68.3" y1="49.6" x2="70.3" y2="49.6"/>
	<line class="st0" x1="71.1" y1="49.6" x2="73.1" y2="49.6"/>
	<line class="st0" x1="73.9" y1="49.6" x2="75.9" y2="49.7"/>
	<line class="st0" x1="76.7" y1="49.7" x2="78.7" y2="49.7"/>
	<line class="st0" x1="79.5" y1="49.7" x2="81.5" y2="49.7"/>
	<line class="st0" x1="56.1" y1="51.1" x2="58.1" y2="51.2"/>
	<line class="st0" x1="58.9" y1="51.2" x2="60.9" y2="51.2"/>
	<line class="st0" x1="50.3" y1="51.1" x2="52.3" y2="51.1"/>
	<line class="st0" x1="53.1" y1="51.1" x2="55.1" y2="51.1"/>
	<line class="st0" x1="61.7" y1="51.2" x2="63.7" y2="51.2"/>
	<line class="st0" x1="64.5" y1="51.2" x2="66.5" y2="51.2"/>
	<line class="st0" x1="67.3" y1="51.2" x2="69.3" y2="51.2"/>
	<line class="st0" x1="70.1" y1="51.2" x2="72.1" y2="51.2"/>
	<line class="st0" x1="72.9" y1="51.2" x2="74.9" y2="51.3"/>
	<line class="st0" x1="75.7" y1="51.3" x2="77.7" y2="51.3"/>
	<line class="st0" x1="78.5" y1="51.3" x2="80.5" y2="51.3"/>
	<line class="st0" x1="55.1" y1="52.7" x2="57.1" y2="52.8"/>
	<line class="st0" x1="57.9" y1="52.8" x2="59.9" y2="52.8"/>
	<line class="st0" x1="49.3" y1="52.7" x2="51.3" y2="52.7"/>
	<line class="st0" x1="52.1" y1="52.7" x2="54.1" y2="52.7"/>
	<line class="st0" x1="60.7" y1="52.8" x2="62.7" y2="52.8"/>
	<line class="st0" x1="63.5" y1="52.8" x2="65.5" y2="52.8"/>
	<line class="st0" x1="66.3" y1="52.8" x2="68.3" y2="52.8"/>
	<line class="st0" x1="69.1" y1="52.8" x2="71.1" y2="52.8"/>
	<line class="st0" x1="71.9" y1="52.8" x2="73.9" y2="52.9"/>
	<line class="st0" x1="74.7" y1="52.9" x2="76.7" y2="52.9"/>
	<line class="st0" x1="77.5" y1="52.9" x2="79.5" y2="52.9"/>
	<path class="st0" d="M44.9,46.1c1.5,0,3.1,0.3,4.6-0.2c0.8-0.3,1.4-1.3,2.1-1.7c1.1-0.3,2.3-0.4,3.3,0.2c0.1,0.2,0.3,0.4,0.6,0.6
		c1.4,0.2,2.7,0.3,3.8,1.2c0.8,0.8,0.2,2,0.3,2.9c-0.3,0-0.8,0.6-0.8,0.3c-0.4-0.8-0.6-1.7-1.2-2.1c-0.9-0.3-1.9-0.4-2.9,0
		c-0.1,0,0,0.8,0.5,0.8c0.9,0,1.9,0.6,1.3,1.2c-1.9,2-4.9,1.4-7.6,1.1c-0.9,0-1.8-0.8-2.9-0.8"/>
	<path class="st0" d="M67.2,61.1c0.8,0.1,1.2-0.5,1.9-0.6c0.6-0.3,1.3,0,1.9-0.1c1.2-0.5,2.1-1.4,3.3-1.8c0.3-1.9,0.3-4.1,0.8-6
		c0.1,0.2,2.5-0.6,2.6-0.6c-0.1-0.4,0.3-1.2-0.1-1.3c-1.7-0.6-5.5,0-7.3,0.4c-0.1,0-0.1-0.2-0.1-0.3c-1.1,0-2.1-0.1-3,0.5
		c-1.2,0.8-0.6,2.3-0.8,3.6c-0.3,0.8-1.1,1.2-1.7,1.5c-0.4,0.3-1.2,0.4-1.6,0.9"/>
	<path class="st0" d="M37.7,45.5c2.1,0,5.8-0.3,7.1,0.6c0.9,0.9,1.8,3.9,0.9,5.1c-0.3,0.6-2.7,0.8-3.9,0.8"/>
	<path class="st0" d="M19.2,23c1.2,0,3-0.3,3.6,0.3c3.3,2.4,6,5.4,8.4,8.7c1.5,2.7,3.9,4.2,4.5,6.9c0.6,2.4,1.2,4.8,2.1,6.9
		c2.4,4.2,4.8,7.8,7.5,12c0.6,0.6,2.1,0.3,3.3,0.9c0.3,0.3,0.6,1.2,0.9,1.2c1.8,0,3.6,0.3,5.1-0.3c2.7-1.5,5.7-1.8,8.4-2.7
		c1.2,2.7,5.1,3.6,5.1,6.6c-3.3,2.1-6.6,3.6-9.9,5.4c-2.1,0.9-4.2,2.7-6.6,2.7c-1.5,0-8.4-2.7-8.7-2.1c-1.2,3.6,5.1,10.2,4.2,14.4
		c-1.2,4.5-1.8,8.4-2.7,12.9c-0.3,1.2-0.9,2.4-1.2,3.9c-0.3,0.9-0.9,1.8-1.5,2.4c-1.2,0.9-2.4,2.4-3.6,2.7c-1.5,0.6-3.1,0.2-4.6,0.8
		c-0.9,0.3-2,0.5-2.9,0.8c-1.5,0.9-3.6,0.3-3.9-0.6c-1.5-4.2-0.3-9-1.8-13.2c-3-8.4-5.5-15.7-11.1-25.2c-1.2-2-5.4-1.2-6.9-3.6
		C2.2,57,6,44.6,8.7,34.1c0.6-2.7,3.2-6.4,5.8-7.3c0.9-0.6,1.2-1.2,2.1-1.5C17.9,24.3,18,23,19.2,23z"/>
	<path class="st0" d="M14,102l13.9,5.2l-0.2-12c-10.3-26.7-12-26.6-12-26.6c-3.4-1.9-4.3-2.1-4.3-2.1c-4.9,0.3-7.6-5.5-7.6-5.5
		c-1.7-1.4-3.3,0.6-3.3,0.6L14,102z"/>
</g>
</svg>
