<?xml version="1.0" encoding="utf-8"?>
<!-- Generator: Adobe Illustrator 20.1.0, SVG Export Plug-In . SVG Version: 6.00 Build 0)  -->
<svg version="1.1" id="Layer_1" xmlns="http://www.w3.org/2000/svg" xmlns:xlink="http://www.w3.org/1999/xlink" x="0px" y="0px"
	 viewBox="0 0 70 55.4" style="enable-background:new 0 0 70 55.4;" xml:space="preserve">
<style type="text/css">
	.st0{fill:#7B2927;stroke:#FFFFFF;stroke-width:0.8;}
	.st1{fill:none;stroke:#FFFFFF;stroke-width:0.32;}
	.st2{stroke:#FFFFFF;stroke-width:2;}
	.st3{fill:#FFFFFF;}
	.st4{fill:none;stroke:#FFFFFF;stroke-width:2;}
</style>
<g>
	<g>
		<g>
			<polygon class="st0" points="60,10.5 69.4,1.2 69.4,1.2 11,1.2 1,10.5 60,10.5 			"/>
		</g>
	</g>
	<g>
		<g>
			<g>
				<polygon class="st0" points="60.3,54.4 60.3,10.3 1.2,10.2 1.2,54.4 				"/>
			</g>
			<polygon class="st0" points="69.6,45.1 69.6,1 60.3,10.3 60.3,54.4 			"/>
			<line class="st1" x1="22.3" y1="54" x2="22.3" y2="10.2"/>
			<line class="st1" x1="39.4" y1="54.1" x2="39.4" y2="10.2"/>
		</g>
		<line class="st2" x1="33.3" y1="15.1" x2="23.5" y2="15.1"/>
		<polygon class="st3" points="37.5,15.1 31.8,17.5 33.1,15.1 31.8,12.8 		"/>
		<line class="st2" x1="33.3" y1="23.5" x2="23.5" y2="23.5"/>
		<polygon class="st3" points="37.5,23.5 31.8,25.8 33.1,23.5 31.8,21.1 		"/>
		<line class="st2" x1="33.3" y1="31.8" x2="23.5" y2="31.8"/>
		<polygon class="st3" points="37.5,31.8 31.8,34.1 33.1,31.8 31.8,29.5 		"/>
		<line class="st2" x1="33.3" y1="40.2" x2="23.5" y2="40.2"/>
		<polygon class="st3" points="37.5,40.2 31.8,42.5 33.1,40.2 31.8,37.8 		"/>
		<line class="st4" x1="34" y1="49.5" x2="23.5" y2="49.5"/>
		<polygon class="st3" points="37.5,49.5 31.8,51.8 33.1,49.5 31.8,47.2 		"/>
		<polygon class="st3" points="1.7,22.5 14.6,22.5 14.5,24 20.5,19.9 14.5,15.7 14.6,17.2 1.7,17.2 		"/>
		<polygon class="st3" points="1.7,34.6 14.6,34.6 14.5,36.1 20.5,32 14.5,27.9 14.6,29.3 1.7,29.3 		"/>
		<polygon class="st3" points="40.5,29.9 53.3,29.9 53.3,31.8 59.2,26.4 53.3,21.1 53.3,23 40.5,23 		"/>
		<polygon class="st3" points="40.5,45.6 53.3,45.6 53.3,47.6 59.2,42.2 53.3,36.8 53.3,38.8 40.5,38.8 		"/>
		<polygon class="st3" points="1.7,46.8 14.6,46.8 14.5,48.3 20.5,44.1 14.5,40 14.6,41.5 1.7,41.5 		"/>
	</g>
</g>
</svg>
