<?xml version="1.0" encoding="UTF-8" standalone="no"?>
<svg
   xmlns:dc="http://purl.org/dc/elements/1.1/"
   xmlns:cc="http://creativecommons.org/ns#"
   xmlns:rdf="http://www.w3.org/1999/02/22-rdf-syntax-ns#"
   xmlns:svg="http://www.w3.org/2000/svg"
   xmlns="http://www.w3.org/2000/svg"
   viewBox="0 0 26.293333 42.32"
   height="42.32"
   width="26.293333"
   xml:space="preserve"
   id="svg2"
   version="1.1"><metadata
     id="metadata8"><rdf:RDF><cc:Work
         rdf:about=""><dc:format>image/svg+xml</dc:format><dc:type
           rdf:resource="http://purl.org/dc/dcmitype/StillImage" /></cc:Work></rdf:RDF></metadata><defs
     id="defs6" /><g
     transform="matrix(1.3333333,0,0,-1.3333333,0,42.32)"
     id="g10"><g
       transform="scale(0.1)"
       id="g12"><path
         id="path14"
         style="fill:#7B2927;fill-opacity:1;fill-rule:nonzero;stroke:none"
         d="m 5.62891,5.63672 h 161.621 v 281.852 H 5.62891 Z" /><path
         id="path16"
         style="fill:none;stroke:#FFFFFF;stroke-width:4;stroke-linecap:butt;stroke-linejoin:miter;stroke-miterlimit:4;stroke-dasharray:none;stroke-opacity:1"
         d="M 167.25,5.63672 V 287.488 H 5.62891 V 5.63672 Z" /><path
         id="path18"
         style="fill:#7B2927;fill-opacity:1;fill-rule:nonzero;stroke:none"
         d="M 5.62891,287.488 36.5078,312.59 H 192.348 L 167.25,287.488 H 5.62891" /><path
         id="path20"
         style="fill:none;stroke:#FFFFFF;stroke-width:4;stroke-linecap:butt;stroke-linejoin:miter;stroke-miterlimit:4;stroke-dasharray:none;stroke-opacity:1"
         d="M 5.62891,287.488 36.5078,312.59 H 192.348 L 167.25,287.488 Z" /><path
         id="path22"
         style="fill:#7B2927;fill-opacity:1;fill-rule:nonzero;stroke:none"
         d="M 167.25,5.63672 192.348,36.5234 V 312.59 L 167.25,287.488 V 5.63672" /><path
         id="path24"
         style="fill:none;stroke:#FFFFFF;stroke-width:4;stroke-linecap:butt;stroke-linejoin:miter;stroke-miterlimit:4;stroke-dasharray:none;stroke-opacity:1"
         d="M 167.25,5.63672 192.348,36.5234 V 312.59 L 167.25,287.488 Z" /><path
         id="path26"
         style="fill:#7B2927;fill-opacity:1;fill-rule:nonzero;stroke:none"
         d="M 5.57031,176.746 H 166.469" /><path
         id="path28"
         style="fill:none;stroke:#FFFFFF;stroke-width:4;stroke-linecap:butt;stroke-linejoin:miter;stroke-miterlimit:4;stroke-dasharray:none;stroke-opacity:1"
         d="M 5.57031,176.746 H 166.469" /><path
         id="path30"
         style="fill:none;stroke:#FFFFFF;stroke-width:3;stroke-linecap:butt;stroke-linejoin:miter;stroke-miterlimit:4;stroke-dasharray:none;stroke-opacity:1"
         d="M 5.57031,24.8711 H 166.469" /><path
         id="path32"
         style="fill:#FFFFFF;fill-opacity:1;fill-rule:nonzero;stroke:none"
         d="m 74.1836,87.1172 v -23.125 h -9.043 L 83.2461,40.8789 101.84,63.9922 h -9.0431 v 23.125 H 74.1836" /><path
         id="path34"
         style="fill:#FFFFFF;fill-opacity:1;fill-rule:nonzero;stroke:none"
         d="m 74.1836,105.48 v 23.125 h -9.043 L 83.2461,151.73 101.84,128.605 H 92.7969 V 105.48 H 74.1836" /><path
         id="path36"
         style="fill:#FFFFFF;fill-opacity:1;fill-rule:nonzero;stroke:none"
         d="m 27.0547,104.402 h 23.1367 v 9.043 L 73.3164,95.3438 50.1914,76.7461 v 9.043 H 27.0547 v 18.6129" /><path
         id="path38"
         style="fill:#FFFFFF;fill-opacity:1;fill-rule:nonzero;stroke:none"
         d="m 139.301,104.402 h -23.125 v 9.043 L 93.0508,95.3438 116.176,76.7461 v 9.043 h 23.125 v 18.6129" /><path
         id="path40"
         style="fill:#7B2927;fill-opacity:1;fill-rule:nonzero;stroke:none"
         d="m 18.4609,236.711 h 75 v 30.8203 h -75 z" /><path
         id="path42"
         style="fill:none;stroke:#FFFFFF;stroke-width:4;stroke-linecap:butt;stroke-linejoin:miter;stroke-miterlimit:4;stroke-dasharray:none;stroke-opacity:1"
         d="m 93.4609,236.711 v 30.82 h -75 v -30.82 z" /><path
         id="path44"
         style="fill:none;stroke:#FFFFFF;stroke-width:4;stroke-linecap:butt;stroke-linejoin:miter;stroke-miterlimit:4;stroke-dasharray:none;stroke-opacity:1"
         d="M 25.9609,251.066 H 86.8008" /></g></g></svg>