<?xml version="1.0" encoding="utf-8"?>
<!-- Generator: Adobe Illustrator 20.1.0, SVG Export Plug-In . SVG Version: 6.00 Build 0)  -->
<svg version="1.1" id="Layer_1" xmlns="http://www.w3.org/2000/svg" xmlns:xlink="http://www.w3.org/1999/xlink" x="0px" y="0px"
	 viewBox="0 0 50.6 89.4" style="enable-background:new 0 0 50.6 89.4;" xml:space="preserve">
<style type="text/css">
	.st0{fill:#7B2927;stroke:#FFFFFF;stroke-width:0.8;}
</style>
<g>
	<path class="st0" d="M13.9,36.9c-4.2,0.7-13.5,4.5-13.5,9.4l0,0c0,4.8,9.9,9.1,13.8,10.1"/>
	<path class="st0" d="M35.7,1.1c-3.7,0-17.1,12.8-20.7,26.4c-1.9,6.9-1,14.3-1,20c0,5.1-0.8,11,0.9,16.6C18.8,77.1,32.8,89,36.7,89"
		/>
	<ellipse class="st0" cx="37.6" cy="44.7" rx="12.6" ry="44.3"/>
	<path class="st0" d="M48.1,38.8c0-1.8-2.3-3.3-5-3.2l0,0c-2.8,0.1-5-2-5,1.1l0.3,18.1c0,3.1,2.2,0.7,5,0.6l0,0
		c2.8-0.1,5-1.6,4.9-3.4L48.1,38.8z"/>
	<path class="st0" d="M29.8,76.4l7.9-13.8c1.6-2.6,2.5,0.6,5.1,2.2l0,0c2.6,1.6,4,4.1,3.1,5.7l-6.8,11.4c-0.9,1.6-3.8,1.6-6.4,0l0,0
		c-0.7-0.4-0.8-0.5-1.5-0.7"/>
	<path class="st0" d="M26.8,63.7c1,1.6,1.6,2.5,2.8,2.5c3.8,0,7-8.9,7-20c0-11-3.1-20-7-20c-1.6,0-2.5,1.5-3.7,4.1"/>
	<path class="st0" d="M25.9,56.1h2.8c5.4,0,5.5-4.4,5.5-9.8l0,0c0-5.4-0.1-9.8-5.5-9.8h-2.8"/>
	<path class="st0" d="M30.2,11.9l7.5,12.7c1.6,2.6,2.5-0.6,5.1-2.2l0,0c2.6-1.6,4-4.1,3.1-5.7L39.2,5.4c-0.9-1.6-3.5-1.7-6.1-0.2"/>
</g>
</svg>
