<?xml version="1.0" encoding="utf-8"?>
<!-- Generator: Adobe Illustrator 20.1.0, SVG Export Plug-In . SVG Version: 6.00 Build 0)  -->
<svg version="1.1" id="Layer_1" xmlns="http://www.w3.org/2000/svg" xmlns:xlink="http://www.w3.org/1999/xlink" x="0px" y="0px"
	 viewBox="0 0 21.9 59.8" style="enable-background:new 0 0 21.9 59.8;" xml:space="preserve">
<style type="text/css">
	.st0{fill:#7B2927;}
	.st1{fill:#FFFFFF;stroke:#FFFFFF;stroke-width:0.2;}
	.st2{fill:none;stroke:#7B2927;stroke-width:0.8;}
	.st3{fill:#7B2927;stroke:#7B2927;stroke-width:0.8;stroke-linecap:round;stroke-linejoin:round;}
</style>
<g>
	<g>
		<path class="st0" d="M0,32.4h4.8L1.2,46h4L4.8,59.8h2L9.9,46h1.8l3.6,13.7l1.8,0L16.8,46l3.6,0l-3.3-13.7c0.6,0,3.9,0.1,4.9,0
			l-0.9-6.9c0-1.4-1.5-7.6-1.9-9.1c-0.4-1.2-2.8-3.1-4.1-3.6c-1.3-0.4-3.8-0.3-5.3-0.3c-1.4,0-3,0.4-4.4,0.7
			c-1.1,0.3-2.4,2.1-2.8,3.3c-0.4,1.1-1,4.7-1.4,6.4L0,32.4z"/>
		<path class="st1" d="M13.6,12.5c-0.5,0-1.4,0-2.2,0c-0.8,0-2,0-2.6,0c-0.6,0-1.9,0.4-2.1,0.4c-0.1,0-0.2-0.1-0.2-0.1l4.1,7.3
			l4.3-7.3c0-0.3-0.4-0.1-0.6-0.3"/>
		<g>
			<g>
				<circle class="st2" cx="10.7" cy="6.3" r="5.9"/>
			</g>
		</g>
	</g>
	<path class="st3" d="M6.3,10.3"/>
	<path class="st3" d="M4.7,5.5c0,0-1.2,4.2-3.5,4.1c0,0,2.8,1.9,5.1,0.7"/>
	<path class="st3" d="M16.7,5.5c0,0,1.2,4.2,3.5,4.1c0,0-2.8,1.9-5.1,0.7"/>
</g>
<g>
	<path class="st3" d="M14.9,2.2c-0.9,1-2.6,1.7-4.4,1.7c-1.7,0-3.2-0.6-4.2-1.5"/>
	<path class="st3" d="M14.9,2.2c-1.1-1.1-2.6-1.8-4.2-1.8c-1.7,0-3.3,0.8-4.4,2c1,0.9,2.5,1.5,4.2,1.5C12.3,3.9,13.9,3.2,14.9,2.2z"
		/>
</g>
</svg>
