<?xml version="1.0" encoding="UTF-8" standalone="no"?>
<svg
   xmlns:dc="http://purl.org/dc/elements/1.1/"
   xmlns:cc="http://creativecommons.org/ns#"
   xmlns:rdf="http://www.w3.org/1999/02/22-rdf-syntax-ns#"
   xmlns:svg="http://www.w3.org/2000/svg"
   xmlns="http://www.w3.org/2000/svg"
   version="1.1"
   id="svg2"
   xml:space="preserve"
   width="36.068459"
   height="36.411499"
   viewBox="0 0 36.068459 36.411499"><metadata
     id="metadata8"><rdf:RDF><cc:Work
         rdf:about=""><dc:format>image/svg+xml</dc:format><dc:type
           rdf:resource="http://purl.org/dc/dcmitype/StillImage" /></cc:Work></rdf:RDF></metadata><defs
     id="defs6" /><g
     id="g1137"><path
       id="path24"
       style="fill:#7B2927;fill-opacity:1;fill-rule:nonzero;stroke:none;stroke-width:0.13333333"
       d="M 0.7288572,35.77918 H 29.528857 V 6.4797142 H 0.7288572 Z" /><path
       id="path26"
       style="fill:none;stroke:#FFFFFF;stroke-width:0.53332531;stroke-linecap:butt;stroke-linejoin:miter;stroke-miterlimit:4;stroke-dasharray:none;stroke-opacity:1"
       d="M 29.528857,35.77918 V 6.4797142 H 0.7288572 V 35.77918 Z" /><path
       id="path28"
       style="fill:#7B2927;fill-opacity:1;fill-rule:nonzero;stroke:none;stroke-width:0.13333333"
       d="m 15.794457,16.28078 h 8.8552" /><path
       id="path30"
       style="fill:none;stroke:#FFFFFF;stroke-width:0.53332531;stroke-linecap:butt;stroke-linejoin:miter;stroke-miterlimit:4;stroke-dasharray:none;stroke-opacity:1"
       d="m 15.794457,16.28078 h 8.8552" /><path
       id="path32"
       style="fill:#7B2927;fill-opacity:1;fill-rule:nonzero;stroke:none;stroke-width:0.13333333"
       d="m 15.794457,26.474513 h 8.8552" /><path
       id="path34"
       style="fill:none;stroke:#FFFFFF;stroke-width:0.53332531;stroke-linecap:butt;stroke-linejoin:miter;stroke-miterlimit:4;stroke-dasharray:none;stroke-opacity:1"
       d="m 15.794457,26.474513 h 8.8552" /><path
       id="path36"
       style="fill:#7B2927;fill-opacity:1;fill-rule:nonzero;stroke:none;stroke-width:0.13333333"
       d="M 13.078324,21.416247 V 12.560514" /><path
       id="path38"
       style="fill:none;stroke:#FFFFFF;stroke-width:0.53332531;stroke-linecap:butt;stroke-linejoin:miter;stroke-miterlimit:4;stroke-dasharray:none;stroke-opacity:1"
       d="M 13.078324,21.416247 V 12.560514" /><path
       id="path40"
       style="fill:none;stroke:#FFFFFF;stroke-width:1.33333325;stroke-linecap:butt;stroke-linejoin:miter;stroke-miterlimit:4;stroke-dasharray:none;stroke-opacity:1"
       d="m 20.903257,21.351047 v 8.854266" /><path
       id="path42"
       style="fill:#7B2927;fill-opacity:1;fill-rule:nonzero;stroke:none;stroke-width:0.13333333"
       d="m 10.806857,21.351047 v 8.854266" /><path
       id="path44"
       style="fill:none;stroke:#FFFFFF;stroke-width:0.53332531;stroke-linecap:butt;stroke-linejoin:miter;stroke-miterlimit:4;stroke-dasharray:none;stroke-opacity:1"
       d="m 10.806857,21.351047 v 8.854266" /><path
       id="path46"
       style="fill:#7B2927;fill-opacity:1;fill-rule:nonzero;stroke:none;stroke-width:0.13333333"
       d="M 15.920457,16.304247 H 7.0647242" /><path
       id="path48"
       style="fill:none;stroke:#FFFFFF;stroke-width:0.53332531;stroke-linecap:butt;stroke-linejoin:miter;stroke-miterlimit:4;stroke-dasharray:none;stroke-opacity:1"
       d="M 15.920457,16.304247 H 7.0647242" /><path
       id="path50"
       style="fill:#7B2927;fill-opacity:1;fill-rule:nonzero;stroke:none;stroke-width:0.13333333"
       d="M 35.427256,0.64638099 V 29.762513 l -5.932266,6 V 6.6125142 l 5.932266,-5.96613321" /><path
       id="path52"
       style="fill:none;stroke:#FFFFFF;stroke-width:0.53332531;stroke-linecap:butt;stroke-linejoin:miter;stroke-miterlimit:4;stroke-dasharray:none;stroke-opacity:1"
       d="M 35.427256,0.64638099 V 29.762513 l -5.932266,6 V 6.6125142 Z" /><path
       id="path54"
       style="fill:#7B2927;fill-opacity:1;fill-rule:nonzero;stroke:none;stroke-width:0.13333333"
       d="M 29.49499,6.6125142 29.42726,6.4458475 H 0.7616602 l 7.2672,-5.79946651 H 35.427256 L 29.49499,6.6125142" /><path
       id="path56"
       style="fill:none;stroke:#FFFFFF;stroke-width:0.53332531;stroke-linecap:butt;stroke-linejoin:miter;stroke-miterlimit:4;stroke-dasharray:none;stroke-opacity:1"
       d="M 29.49499,6.6125142 29.42726,6.4458475 H 0.7616602 l 7.2672,-5.79946651 H 35.427259 Z" /><path
       id="path58"
       style="fill:none;stroke:#FFFFFF;stroke-width:1.33333325;stroke-linecap:butt;stroke-linejoin:miter;stroke-miterlimit:4;stroke-dasharray:none;stroke-opacity:1"
       d="m 15.39019,15.991714 h 9.355733" /><path
       id="path60"
       style="fill:#FFFFFF;fill-opacity:1;fill-rule:nonzero;stroke:none;stroke-width:0.13333333"
       d="m 24.575123,13.331314 v 5.126533 l 3.090134,-2.462533 -3.090134,-2.664" /><path
       id="path62"
       style="fill:none;stroke:#FFFFFF;stroke-width:0.53332531;stroke-linecap:butt;stroke-linejoin:miter;stroke-miterlimit:4;stroke-dasharray:none;stroke-opacity:1"
       d="m 24.575123,13.331314 v 5.126533 l 3.090134,-2.462533 z" /><path
       id="path64"
       style="fill:none;stroke:#FFFFFF;stroke-width:1.33333325;stroke-linecap:butt;stroke-linejoin:miter;stroke-miterlimit:4;stroke-dasharray:none;stroke-opacity:1"
       d="m 15.39019,26.18438 h 9.855733" /><path
       id="path66"
       style="fill:#FFFFFF;fill-opacity:1;fill-rule:nonzero;stroke:none;stroke-width:0.13333333"
       d="m 24.575123,23.486514 v 5.127599 l 3.090134,-2.463599 -3.090134,-2.664" /><path
       id="path68"
       style="fill:none;stroke:#FFFFFF;stroke-width:0.53332531;stroke-linecap:butt;stroke-linejoin:miter;stroke-miterlimit:4;stroke-dasharray:none;stroke-opacity:1"
       d="m 24.575123,23.486514 v 5.127599 l 3.090134,-2.463599 z" /><path
       id="path70"
       style="fill:none;stroke:#FFFFFF;stroke-width:1.33333325;stroke-linecap:butt;stroke-linejoin:miter;stroke-miterlimit:4;stroke-dasharray:none;stroke-opacity:1"
       d="M 12.674057,21.12558 V 12.757314" /><path
       id="path72"
       style="fill:none;stroke:#FFFFFF;stroke-width:1.33333325;stroke-linecap:butt;stroke-linejoin:miter;stroke-miterlimit:4;stroke-dasharray:none;stroke-opacity:1"
       d="M 17.98659,21.416247 V 12.560514" /><path
       id="path74"
       style="fill:#7B2927;fill-opacity:1;fill-rule:nonzero;stroke:none;stroke-width:0.13333333"
       d="M 17.583524,21.12558 V 12.757314" /><path
       id="path76"
       style="fill:none;stroke:#FFFFFF;stroke-width:0.53332531;stroke-linecap:butt;stroke-linejoin:miter;stroke-miterlimit:4;stroke-dasharray:none;stroke-opacity:1"
       d="M 17.583524,21.12558 V 12.757314" /><path
       id="path78"
       style="fill:#7B2927;fill-opacity:1;fill-rule:nonzero;stroke:none;stroke-width:0.13333333"
       d="m 20.50019,21.060514 v 9.522399" /><path
       id="path80"
       style="fill:none;stroke:#FFFFFF;stroke-width:0.53332531;stroke-linecap:butt;stroke-linejoin:miter;stroke-miterlimit:4;stroke-dasharray:none;stroke-opacity:1"
       d="m 20.50019,21.060514 v 9.522399" /><path
       id="path82"
       style="fill:#FFFFFF;fill-opacity:1;fill-rule:nonzero;stroke:none;stroke-width:0.13333333"
       d="m 23.075123,30.203713 h -5.127599 l 2.487066,3.090134 2.640533,-3.090134" /><path
       id="path84"
       style="fill:none;stroke:#FFFFFF;stroke-width:0.53332531;stroke-linecap:butt;stroke-linejoin:miter;stroke-miterlimit:4;stroke-dasharray:none;stroke-opacity:1"
       d="m 23.075123,30.203713 h -5.127599 l 2.487066,3.090134 z" /><path
       id="path86"
       style="fill:none;stroke:#FFFFFF;stroke-width:1.33333325;stroke-linecap:butt;stroke-linejoin:miter;stroke-miterlimit:4;stroke-dasharray:none;stroke-opacity:1"
       d="m 10.403257,21.060514 v 9.522399" /><path
       id="path88"
       style="fill:#FFFFFF;fill-opacity:1;fill-rule:nonzero;stroke:none;stroke-width:0.13333333"
       d="M 13.030857,30.203713 H 7.9032572 l 2.4869328,3.090134 2.640667,-3.090134" /><path
       id="path90"
       style="fill:none;stroke:#FFFFFF;stroke-width:0.53332531;stroke-linecap:butt;stroke-linejoin:miter;stroke-miterlimit:4;stroke-dasharray:none;stroke-opacity:1"
       d="M 13.030857,30.203713 H 7.9032572 l 2.4869328,3.090134 z" /><path
       id="path92"
       style="fill:none;stroke:#FFFFFF;stroke-width:1.33333325;stroke-linecap:butt;stroke-linejoin:miter;stroke-miterlimit:4;stroke-dasharray:none;stroke-opacity:1"
       d="M 15.517924,26.181847 H 5.9949912" /><path
       id="path94"
       style="fill:#FFFFFF;fill-opacity:1;fill-rule:nonzero;stroke:none;stroke-width:0.13333333"
       d="m 6.3016572,28.87718 v -5.1276 l -3.088533,2.461867 3.088533,2.665733" /><path
       id="path96"
       style="fill:none;stroke:#FFFFFF;stroke-width:0.53332531;stroke-linecap:butt;stroke-linejoin:miter;stroke-miterlimit:4;stroke-dasharray:none;stroke-opacity:1"
       d="m 6.3016572,28.87718 v -5.1276 l -3.088533,2.461867 z" /><path
       id="path98"
       style="fill:none;stroke:#FFFFFF;stroke-width:1.33333325;stroke-linecap:butt;stroke-linejoin:miter;stroke-miterlimit:4;stroke-dasharray:none;stroke-opacity:1"
       d="M 15.517924,16.01518 H 5.9949912" /><path
       id="path100"
       style="fill:#FFFFFF;fill-opacity:1;fill-rule:nonzero;stroke:none;stroke-width:0.13333333"
       d="m 6.3016572,18.710514 v -5.1276 l -3.088533,2.461866 3.088533,2.665734" /><path
       id="path102"
       style="fill:none;stroke:#FFFFFF;stroke-width:0.53332531;stroke-linecap:butt;stroke-linejoin:miter;stroke-miterlimit:4;stroke-dasharray:none;stroke-opacity:1"
       d="m 6.3016572,18.710514 v -5.1276 l -3.088533,2.461866 z" /><path
       id="path104"
       style="fill:#7B2927;fill-opacity:1;fill-rule:nonzero;stroke:none;stroke-width:0.13333333"
       d="m 15.395524,27.26358 c 3.379066,0 6.118666,-2.738 6.118666,-6.1172 0,-3.378666 -2.7396,-6.118266 -6.118666,-6.118266 -3.3776,0 -6.1166668,2.7396 -6.1166668,6.118266 0,3.3792 2.7390668,6.1172 6.1166668,6.1172" /><path
       id="path106"
       style="fill:none;stroke:#FFFFFF;stroke-width:0.53332531;stroke-linecap:butt;stroke-linejoin:miter;stroke-miterlimit:4;stroke-dasharray:none;stroke-opacity:1"
       d="m 15.395524,27.26358 c 3.379066,0 6.118666,-2.738 6.118666,-6.1172 0,-3.378666 -2.7396,-6.118266 -6.118666,-6.118266 -3.3776,0 -6.1166668,2.7396 -6.1166668,6.118266 0,3.3792 2.7390668,6.1172 6.1166668,6.1172 z" /><path
       id="path108"
       style="fill:#FFFFFF;fill-opacity:1;fill-rule:nonzero;stroke:none;stroke-width:0.13333333"
       d="m 23.735523,12.593314 c 0.178134,0 0.322934,-0.145867 0.322934,-0.322933 V 9.2078475 c 0,-0.1770667 -0.1448,-0.3218667 -0.322934,-0.3218667 H 7.4204572 c -0.178666,0 -0.322933,0.1448 -0.322933,0.3218667 v 3.0625335 c 0,0.177066 0.144267,0.322933 0.322933,0.322933 h 3.0374668 v -1.067733 h 9.707333 v 1.067733 h 3.570266" /><path
       id="path110"
       style="fill:none;stroke:#FFFFFF;stroke-width:0.53332531;stroke-linecap:butt;stroke-linejoin:miter;stroke-miterlimit:4;stroke-dasharray:none;stroke-opacity:1"
       d="m 23.735523,12.593314 c 0.178134,0 0.322934,-0.145867 0.322934,-0.322933 V 9.2078475 c 0,-0.1770667 -0.1448,-0.3218667 -0.322934,-0.3218667 H 7.4204572 c -0.178666,0 -0.322933,0.1448 -0.322933,0.3218667 v 3.0625335 c 0,0.177066 0.144267,0.322933 0.322933,0.322933 h 3.0374668 v -1.067733 h 9.707333 v 1.067733 z" /><path
       id="path112"
       style="fill:#7B2927;fill-opacity:1;fill-rule:nonzero;stroke:none;stroke-width:0.13333333"
       d="m 12.574057,19.049047 h 0.75 v -0.75 h -0.75 z" /><path
       id="path114"
       style="fill:none;stroke:#FFFFFF;stroke-width:0.53332531;stroke-linecap:butt;stroke-linejoin:miter;stroke-miterlimit:4;stroke-dasharray:none;stroke-opacity:1"
       d="m 13.324057,19.049047 h -0.75 v -0.75 h 0.75 z" /><path
       id="path116"
       style="fill:#7B2927;fill-opacity:1;fill-rule:nonzero;stroke:none;stroke-width:0.13333333"
       d="m 12.574057,20.715714 h 0.75 v -0.75 h -0.75 z" /><path
       id="path118"
       style="fill:none;stroke:#FFFFFF;stroke-width:0.53332531;stroke-linecap:butt;stroke-linejoin:miter;stroke-miterlimit:4;stroke-dasharray:none;stroke-opacity:1"
       d="m 13.324057,20.715714 h -0.75 v -0.75 h 0.75 z" /><path
       id="path120"
       style="fill:#7B2927;fill-opacity:1;fill-rule:nonzero;stroke:none;stroke-width:0.13333333"
       d="m 12.574057,22.38238 h 0.75 v -0.75 h -0.75 z" /><path
       id="path122"
       style="fill:none;stroke:#FFFFFF;stroke-width:0.53332531;stroke-linecap:butt;stroke-linejoin:miter;stroke-miterlimit:4;stroke-dasharray:none;stroke-opacity:1"
       d="m 13.324057,22.38238 h -0.75 v -0.75 h 0.75 z" /><path
       id="path124"
       style="fill:#7B2927;fill-opacity:1;fill-rule:nonzero;stroke:none;stroke-width:0.13333333"
       d="m 12.574057,24.049047 h 0.75 v -0.75 h -0.75 z" /><path
       id="path126"
       style="fill:none;stroke:#FFFFFF;stroke-width:0.53332531;stroke-linecap:butt;stroke-linejoin:miter;stroke-miterlimit:4;stroke-dasharray:none;stroke-opacity:1"
       d="m 13.324057,24.049047 h -0.75 v -0.75 h 0.75 z" /><path
       id="path128"
       style="fill:#7B2927;fill-opacity:1;fill-rule:nonzero;stroke:none;stroke-width:0.13333333"
       d="m 14.240724,19.049047 h 0.75 v -0.75 h -0.75 z" /><path
       id="path130"
       style="fill:none;stroke:#FFFFFF;stroke-width:0.53332531;stroke-linecap:butt;stroke-linejoin:miter;stroke-miterlimit:4;stroke-dasharray:none;stroke-opacity:1"
       d="m 14.990724,19.049047 h -0.75 v -0.75 h 0.75 z" /><path
       id="path132"
       style="fill:#7B2927;fill-opacity:1;fill-rule:nonzero;stroke:none;stroke-width:0.13333333"
       d="m 14.240724,20.715714 h 0.75 v -0.75 h -0.75 z" /><path
       id="path134"
       style="fill:none;stroke:#FFFFFF;stroke-width:0.53332531;stroke-linecap:butt;stroke-linejoin:miter;stroke-miterlimit:4;stroke-dasharray:none;stroke-opacity:1"
       d="m 14.990724,20.715714 h -0.75 v -0.75 h 0.75 z" /><path
       id="path136"
       style="fill:#7B2927;fill-opacity:1;fill-rule:nonzero;stroke:none;stroke-width:0.13333333"
       d="m 14.240724,22.38238 h 0.75 v -0.75 h -0.75 z" /><path
       id="path138"
       style="fill:none;stroke:#FFFFFF;stroke-width:0.53332531;stroke-linecap:butt;stroke-linejoin:miter;stroke-miterlimit:4;stroke-dasharray:none;stroke-opacity:1"
       d="m 14.990724,22.38238 h -0.75 v -0.75 h 0.75 z" /><path
       id="path140"
       style="fill:#7B2927;fill-opacity:1;fill-rule:nonzero;stroke:none;stroke-width:0.13333333"
       d="m 14.240724,24.049047 h 0.75 v -0.75 h -0.75 z" /><path
       id="path142"
       style="fill:none;stroke:#FFFFFF;stroke-width:0.53332531;stroke-linecap:butt;stroke-linejoin:miter;stroke-miterlimit:4;stroke-dasharray:none;stroke-opacity:1"
       d="m 14.990724,24.049047 h -0.75 v -0.75 h 0.75 z" /><path
       id="path144"
       style="fill:#7B2927;fill-opacity:1;fill-rule:nonzero;stroke:none;stroke-width:0.13333333"
       d="m 15.90739,19.049047 h 0.75 v -0.75 h -0.75 z" /><path
       id="path146"
       style="fill:none;stroke:#FFFFFF;stroke-width:0.53332531;stroke-linecap:butt;stroke-linejoin:miter;stroke-miterlimit:4;stroke-dasharray:none;stroke-opacity:1"
       d="m 16.65739,19.049047 h -0.75 v -0.75 h 0.75 z" /><path
       id="path148"
       style="fill:#7B2927;fill-opacity:1;fill-rule:nonzero;stroke:none;stroke-width:0.13333333"
       d="m 15.90739,20.715714 h 0.75 v -0.75 h -0.75 z" /><path
       id="path150"
       style="fill:none;stroke:#FFFFFF;stroke-width:0.53332531;stroke-linecap:butt;stroke-linejoin:miter;stroke-miterlimit:4;stroke-dasharray:none;stroke-opacity:1"
       d="m 16.65739,20.715714 h -0.75 v -0.75 h 0.75 z" /><path
       id="path152"
       style="fill:#7B2927;fill-opacity:1;fill-rule:nonzero;stroke:none;stroke-width:0.13333333"
       d="m 15.90739,22.38238 h 0.75 v -0.75 h -0.75 z" /><path
       id="path154"
       style="fill:none;stroke:#FFFFFF;stroke-width:0.53332531;stroke-linecap:butt;stroke-linejoin:miter;stroke-miterlimit:4;stroke-dasharray:none;stroke-opacity:1"
       d="m 16.65739,22.38238 h -0.75 v -0.75 h 0.75 z" /><path
       id="path156"
       style="fill:#7B2927;fill-opacity:1;fill-rule:nonzero;stroke:none;stroke-width:0.13333333"
       d="m 15.90739,24.049047 h 0.75 v -0.75 h -0.75 z" /><path
       id="path158"
       style="fill:none;stroke:#FFFFFF;stroke-width:0.53332531;stroke-linecap:butt;stroke-linejoin:miter;stroke-miterlimit:4;stroke-dasharray:none;stroke-opacity:1"
       d="m 16.65739,24.049047 h -0.75 v -0.75 h 0.75 z" /><path
       id="path160"
       style="fill:#7B2927;fill-opacity:1;fill-rule:nonzero;stroke:none;stroke-width:0.13333333"
       d="m 17.574057,19.049047 h 0.75 v -0.75 h -0.75 z" /><path
       id="path162"
       style="fill:none;stroke:#FFFFFF;stroke-width:0.53332531;stroke-linecap:butt;stroke-linejoin:miter;stroke-miterlimit:4;stroke-dasharray:none;stroke-opacity:1"
       d="m 18.324057,19.049047 h -0.75 v -0.75 h 0.75 z" /><path
       id="path164"
       style="fill:#7B2927;fill-opacity:1;fill-rule:nonzero;stroke:none;stroke-width:0.13333333"
       d="m 17.574057,20.715714 h 0.75 v -0.75 h -0.75 z" /><path
       id="path166"
       style="fill:none;stroke:#FFFFFF;stroke-width:0.53332531;stroke-linecap:butt;stroke-linejoin:miter;stroke-miterlimit:4;stroke-dasharray:none;stroke-opacity:1"
       d="m 18.324057,20.715714 h -0.75 v -0.75 h 0.75 z" /><path
       id="path168"
       style="fill:#7B2927;fill-opacity:1;fill-rule:nonzero;stroke:none;stroke-width:0.13333333"
       d="m 17.574057,22.38238 h 0.75 v -0.75 h -0.75 z" /><path
       id="path170"
       style="fill:none;stroke:#FFFFFF;stroke-width:0.53332531;stroke-linecap:butt;stroke-linejoin:miter;stroke-miterlimit:4;stroke-dasharray:none;stroke-opacity:1"
       d="m 18.324057,22.38238 h -0.75 v -0.75 h 0.75 z" /><path
       id="path172"
       style="fill:#7B2927;fill-opacity:1;fill-rule:nonzero;stroke:none;stroke-width:0.13333333"
       d="m 17.574057,24.049047 h 0.75 v -0.75 h -0.75 z" /><path
       id="path174"
       style="fill:none;stroke:#FFFFFF;stroke-width:0.53332531;stroke-linecap:butt;stroke-linejoin:miter;stroke-miterlimit:4;stroke-dasharray:none;stroke-opacity:1"
       d="m 18.324057,24.049047 h -0.75 v -0.75 h 0.75 z" /></g></svg>