<?xml version="1.0" encoding="UTF-8" standalone="no"?>
<svg
   xmlns:dc="http://purl.org/dc/elements/1.1/"
   xmlns:cc="http://creativecommons.org/ns#"
   xmlns:rdf="http://www.w3.org/1999/02/22-rdf-syntax-ns#"
   xmlns:svg="http://www.w3.org/2000/svg"
   xmlns="http://www.w3.org/2000/svg"
   viewBox="0 0 31.973333 44.48"
   height="44.48"
   width="31.973333"
   xml:space="preserve"
   id="svg2"
   version="1.1"><metadata
     id="metadata8"><rdf:RDF><cc:Work
         rdf:about=""><dc:format>image/svg+xml</dc:format><dc:type
           rdf:resource="http://purl.org/dc/dcmitype/StillImage" /></cc:Work></rdf:RDF></metadata><defs
     id="defs6"><clipPath
       id="clipPath20"
       clipPathUnits="userSpaceOnUse"><path
         id="path18"
         d="m 0,3.60547 h 240 v 330 H 0 Z" /></clipPath></defs><g
     transform="matrix(1.3333333,0,0,-1.3333333,0,44.48)"
     id="g10"><g
       transform="scale(0.1)"
       id="g12"><g
         id="g14"><g
           clip-path="url(#clipPath20)"
           id="g16"><path
             id="path22"
             style="fill:#7B2927;fill-opacity:1;fill-rule:nonzero;stroke:none"
             d="m 4.82813,4.82422 h 183.879 v 277.637 H 4.82813 Z" /><path
             id="path24"
             style="fill:none;stroke:#FFFFFF;stroke-width:4;stroke-linecap:butt;stroke-linejoin:miter;stroke-miterlimit:4;stroke-dasharray:none;stroke-opacity:1"
             d="M 188.707,282.461 H 4.82813 V 4.82422 H 188.707" /><path
             id="path26"
             style="fill:#7B2927;fill-opacity:1;fill-rule:nonzero;stroke:none"
             d="M 188.707,4.82422 237.848,53.9648 V 331.602 H 53.9688 L 4.82813,282.461 H 188.707 V 4.82422" /><path
             id="path28"
             style="fill:none;stroke:#FFFFFF;stroke-width:4;stroke-linecap:butt;stroke-linejoin:miter;stroke-miterlimit:4;stroke-dasharray:none;stroke-opacity:1"
             d="M 188.707,4.82422 237.848,53.9648 V 331.602 H 53.9688 L 4.82813,282.461 H 188.707 Z" /><path
             id="path30"
             style="fill:#7B2927;fill-opacity:1;fill-rule:nonzero;stroke:none"
             d="m 188.707,282.461 49.141,49.141" /><path
             id="path32"
             style="fill:none;stroke:#FFFFFF;stroke-width:4;stroke-linecap:butt;stroke-linejoin:miter;stroke-miterlimit:4;stroke-dasharray:none;stroke-opacity:1"
             d="m 188.707,282.461 49.141,49.141" /><path
             id="path34"
             style="fill:none;stroke:#FFFFFF;stroke-width:4;stroke-linecap:butt;stroke-linejoin:miter;stroke-miterlimit:4;stroke-dasharray:none;stroke-opacity:1"
             d="M 7.30859,204.465 H 187.32" /><path
             id="path36"
             style="fill:none;stroke:#FFFFFF;stroke-width:4;stroke-linecap:butt;stroke-linejoin:miter;stroke-miterlimit:4;stroke-dasharray:none;stroke-opacity:1"
             d="M 7.30859,31.9727 H 187.32" /><path
             id="path38"
             style="fill:none;stroke:#FFFFFF;stroke-width:4;stroke-linecap:butt;stroke-linejoin:miter;stroke-miterlimit:4;stroke-dasharray:none;stroke-opacity:1"
             d="m 42.3086,244.465 h 43.75" /><path
             id="path40"
             style="fill:none;stroke:#FFFFFF;stroke-width:4;stroke-linecap:butt;stroke-linejoin:miter;stroke-miterlimit:4;stroke-dasharray:none;stroke-opacity:1"
             d="m 102.32,229.465 v 31.25 H 24.8086 v -31.25 z" /><path
             id="path42"
             style="fill:#FFFFFF;fill-opacity:1;fill-rule:nonzero;stroke:none"
             d="m 109.359,111.164 c 0,-10.578 -6.386,-15.1171 -16.5113,-15.1171 -3.7032,0 -9.1914,0.8867 -12.7735,4.8711 -2.1797,2.461 -3.0195,5.703 -3.1367,9.746 v 26.652 h 8.5742 v -26.093 c 0,-5.598 3.2422,-8.067 7.168,-8.067 5.7617,0 8.1173,2.801 8.1173,7.664 v 26.496 h 8.562 v -26.152" /><path
             id="path44"
             style="fill:none;stroke:#FFFFFF;stroke-width:7;stroke-linecap:butt;stroke-linejoin:miter;stroke-miterlimit:4;stroke-dasharray:none;stroke-opacity:1"
             d="m 93.3359,88.2617 c 16.9021,0 30.5941,13.6913 30.5941,30.5973 0,16.883 -13.692,30.586 -30.5941,30.586 -16.8867,0 -30.5859,-13.703 -30.5859,-30.586 0,-16.906 13.6992,-30.5973 30.5859,-30.5973 z" /><path
             id="path46"
             style="fill:none;stroke:#FFFFFF;stroke-width:7;stroke-linecap:butt;stroke-linejoin:miter;stroke-miterlimit:4;stroke-dasharray:none;stroke-opacity:1"
             d="M 93.3359,149.445 H 146.422" /><path
             id="path48"
             style="fill:#FFFFFF;fill-opacity:1;fill-rule:nonzero;stroke:none"
             d="m 149.332,165.527 v -30.761 l 18.535,14.777 -18.535,15.984" /><path
             id="path50"
             style="fill:none;stroke:#FFFFFF;stroke-width:1.27999997;stroke-linecap:butt;stroke-linejoin:miter;stroke-miterlimit:4;stroke-dasharray:none;stroke-opacity:1"
             d="m 149.332,165.527 v -30.761 l 18.535,14.777 z" /><path
             id="path52"
             style="fill:none;stroke:#FFFFFF;stroke-width:7;stroke-linecap:butt;stroke-linejoin:miter;stroke-miterlimit:4;stroke-dasharray:none;stroke-opacity:1"
             d="m 62.7891,118.633 v 53.125" /><path
             id="path54"
             style="fill:#FFFFFF;fill-opacity:1;fill-rule:nonzero;stroke:none"
             d="M 47.0859,174.355 H 77.8555 L 63.0703,192.891 47.0859,174.355" /><path
             id="path56"
             style="fill:none;stroke:#FFFFFF;stroke-width:1.27999997;stroke-linecap:butt;stroke-linejoin:miter;stroke-miterlimit:4;stroke-dasharray:none;stroke-opacity:1"
             d="M 47.0859,174.355 H 77.8555 L 63.0703,192.891 Z" /><path
             id="path58"
             style="fill:none;stroke:#FFFFFF;stroke-width:7;stroke-linecap:butt;stroke-linejoin:miter;stroke-miterlimit:4;stroke-dasharray:none;stroke-opacity:1"
             d="M 124,119.023 V 65.8984" /><path
             id="path60"
             style="fill:#FFFFFF;fill-opacity:1;fill-rule:nonzero;stroke:none"
             d="M 139.645,63.457 H 108.902 L 123.824,44.9219 139.645,63.457" /><path
             id="path62"
             style="fill:none;stroke:#FFFFFF;stroke-width:1.27999997;stroke-linecap:butt;stroke-linejoin:miter;stroke-miterlimit:4;stroke-dasharray:none;stroke-opacity:1"
             d="M 139.645,63.457 H 108.902 L 123.824,44.9219 Z" /><path
             id="path64"
             style="fill:none;stroke:#FFFFFF;stroke-width:7;stroke-linecap:butt;stroke-linejoin:miter;stroke-miterlimit:4;stroke-dasharray:none;stroke-opacity:1"
             d="M 94.0977,88.3008 H 40.9609" /><path
             id="path66"
             style="fill:#FFFFFF;fill-opacity:1;fill-rule:nonzero;stroke:none"
             d="M 40.7188,72.1094 V 102.871 L 22.1836,88.1055 40.7188,72.1094" /><path
             id="path68"
             style="fill:none;stroke:#FFFFFF;stroke-width:1.27999997;stroke-linecap:butt;stroke-linejoin:miter;stroke-miterlimit:4;stroke-dasharray:none;stroke-opacity:1"
             d="M 40.7188,72.1094 V 102.871 L 22.1836,88.1055 Z" /></g></g></g></g></svg>