<?xml version="1.0" encoding="UTF-8" standalone="no"?>
<svg
   xmlns:dc="http://purl.org/dc/elements/1.1/"
   xmlns:cc="http://creativecommons.org/ns#"
   xmlns:rdf="http://www.w3.org/1999/02/22-rdf-syntax-ns#"
   xmlns:svg="http://www.w3.org/2000/svg"
   xmlns="http://www.w3.org/2000/svg"
   viewBox="0 0 24.333332 43.759998"
   height="43.759998"
   width="24.333332"
   xml:space="preserve"
   id="svg2"
   version="1.1"><metadata
     id="metadata8"><rdf:RDF><cc:Work
         rdf:about=""><dc:format>image/svg+xml</dc:format><dc:type
           rdf:resource="http://purl.org/dc/dcmitype/StillImage" /></cc:Work></rdf:RDF></metadata><defs
     id="defs6"><clipPath
       id="clipPath20"
       clipPathUnits="userSpaceOnUse"><path
         id="path18"
         d="M 0,328 H 180 V 0 H 0 Z" /></clipPath></defs><g
     transform="matrix(1.3333333,0,0,-1.3333333,0,43.76)"
     id="g10"><g
       transform="scale(0.1)"
       id="g12"><g
         id="g14"><g
           clip-path="url(#clipPath20)"
           id="g16"><path
             id="path22"
             style="fill:#7B2927;fill-opacity:1;fill-rule:nonzero;stroke:none"
             d="M 18.4805,322.914 H 178.109 L 164.047,306.898 H 4.41797 l 14.06253,16.016" /><path
             id="path24"
             style="fill:none;stroke:#ffffff;stroke-width:3.99993992;stroke-linecap:butt;stroke-linejoin:miter;stroke-miterlimit:4;stroke-dasharray:none;stroke-opacity:1"
             d="M 18.4805,322.914 H 178.109 L 164.047,306.898 H 4.41797 Z" /><path
             id="path26"
             style="fill:#7B2927;fill-opacity:1;fill-rule:nonzero;stroke:none"
             d="m 4.69141,5.33203 h 159.063 v 301.215 H 4.69141 Z" /><path
             id="path28"
             style="fill:none;stroke:#ffffff;stroke-width:3.99993992;stroke-linecap:butt;stroke-linejoin:miter;stroke-miterlimit:4;stroke-dasharray:none;stroke-opacity:1"
             d="M 4.69141,306.547 H 163.754 V 5.33203 H 4.69141 Z" /><path
             id="path30"
             style="fill:#7B2927;fill-opacity:1;fill-rule:nonzero;stroke:none"
             d="m 128.871,23.6719 c 15.957,0 18.32,16.5625 18.32,16.5625 0,0 0,173.1486 0,188.5196 0,20.098 -18.925,19.512 -18.925,19.512 0,0 -78.0472,0 -89.2777,0 -11.2305,0 -15.957,-15.371 -15.957,-15.371 0,0 0,-176.1177 0,-190.2973 0,-14.1993 14.7656,-18.9258 14.7656,-18.9258 h 91.0741" /><path
             id="path32"
             style="fill:none;stroke:#ffffff;stroke-width:3.99993992;stroke-linecap:butt;stroke-linejoin:miter;stroke-miterlimit:4;stroke-dasharray:none;stroke-opacity:1"
             d="m 128.871,23.6719 c 15.957,0 18.32,16.5625 18.32,16.5625 0,0 0,173.1486 0,188.5196 0,20.098 -18.925,19.512 -18.925,19.512 0,0 -78.0472,0 -89.2777,0 -11.2305,0 -15.957,-15.371 -15.957,-15.371 0,0 0,-176.1177 0,-190.2973 0,-14.1993 14.7656,-18.9258 14.7656,-18.9258 z" /><path
             id="path34"
             style="fill:#7B2927;fill-opacity:1;fill-rule:nonzero;stroke:none"
             d="M 178.051,322.914 V 21.6992 L 163.754,5.33203 V 306.547 l 14.297,16.367" /><path
             id="path36"
             style="fill:none;stroke:#ffffff;stroke-width:3.99993992;stroke-linecap:butt;stroke-linejoin:miter;stroke-miterlimit:4;stroke-dasharray:none;stroke-opacity:1"
             d="M 178.051,322.914 V 21.6992 L 163.754,5.33203 V 306.547 Z" /><path
             id="path38"
             style="fill:#7B2927;fill-opacity:1;fill-rule:nonzero;stroke:none"
             d="m 130.98,285.258 c -2.539,0 -4.589,-3.731 -4.589,-8.34 0,-4.59 2.05,-8.32 4.589,-8.32 2.52,0 4.571,3.73 4.571,8.32 0,4.609 -2.051,8.34 -4.571,8.34" /><path
             id="path40"
             style="fill:none;stroke:#ffffff;stroke-width:3.99993992;stroke-linecap:butt;stroke-linejoin:miter;stroke-miterlimit:4;stroke-dasharray:none;stroke-opacity:1"
             d="m 130.98,285.258 c -2.539,0 -4.589,-3.731 -4.589,-8.34 0,-4.59 2.05,-8.32 4.589,-8.32 2.52,0 4.571,3.73 4.571,8.32 0,4.609 -2.051,8.34 -4.571,8.34 z" /><path
             id="path42"
             style="fill:#7B2927;fill-opacity:1;fill-rule:nonzero;stroke:none"
             d="m 97.6406,285.258 c -2.539,0 -4.5898,-3.731 -4.5898,-8.34 0,-4.59 2.0508,-8.32 4.5898,-8.32 2.5394,0 4.5894,3.73 4.5894,8.32 0,4.609 -2.05,8.34 -4.5894,8.34" /><path
             id="path44"
             style="fill:none;stroke:#ffffff;stroke-width:3.99993992;stroke-linecap:butt;stroke-linejoin:miter;stroke-miterlimit:4;stroke-dasharray:none;stroke-opacity:1"
             d="m 97.6406,285.258 c -2.539,0 -4.5898,-3.731 -4.5898,-8.34 0,-4.59 2.0508,-8.32 4.5898,-8.32 2.5394,0 4.5894,3.73 4.5894,8.32 0,4.609 -2.05,8.34 -4.5894,8.34 z" /><path
             id="path46"
             style="fill:#7B2927;fill-opacity:1;fill-rule:nonzero;stroke:none"
             d="m 64.3203,285.258 c -2.539,0 -4.5898,-3.731 -4.5898,-8.34 0,-4.59 2.0508,-8.32 4.5898,-8.32 2.5195,0 4.5703,3.73 4.5703,8.32 0,4.609 -2.0508,8.34 -4.5703,8.34" /><path
             id="path48"
             style="fill:none;stroke:#ffffff;stroke-width:3.99993992;stroke-linecap:butt;stroke-linejoin:miter;stroke-miterlimit:4;stroke-dasharray:none;stroke-opacity:1"
             d="m 64.3203,285.258 c -2.539,0 -4.5898,-3.731 -4.5898,-8.34 0,-4.59 2.0508,-8.32 4.5898,-8.32 2.5195,0 4.5703,3.73 4.5703,8.32 0,4.609 -2.0508,8.34 -4.5703,8.34 z" /><path
             id="path50"
             style="fill:#7B2927;fill-opacity:1;fill-rule:nonzero;stroke:none"
             d="m 30.9805,285.258 c -2.5391,0 -4.5899,-3.731 -4.5899,-8.34 0,-4.59 2.0508,-8.32 4.5899,-8.32 2.539,0 4.5898,3.73 4.5898,8.32 0,4.609 -2.0508,8.34 -4.5898,8.34" /><path
             id="path52"
             style="fill:none;stroke:#ffffff;stroke-width:3.99993992;stroke-linecap:butt;stroke-linejoin:miter;stroke-miterlimit:4;stroke-dasharray:none;stroke-opacity:1"
             d="m 30.9805,285.258 c -2.5391,0 -4.5899,-3.731 -4.5899,-8.34 0,-4.59 2.0508,-8.32 4.5899,-8.32 2.539,0 4.5898,3.73 4.5898,8.32 0,4.609 -2.0508,8.34 -4.5898,8.34 z" /></g></g></g></g></svg>