<?xml version="1.0" encoding="UTF-8" standalone="no"?>
<svg
   xmlns:dc="http://purl.org/dc/elements/1.1/"
   xmlns:cc="http://creativecommons.org/ns#"
   xmlns:rdf="http://www.w3.org/1999/02/22-rdf-syntax-ns#"
   xmlns:svg="http://www.w3.org/2000/svg"
   xmlns="http://www.w3.org/2000/svg"
   xmlns:sodipodi="http://sodipodi.sourceforge.net/DTD/sodipodi-0.dtd"
   xmlns:inkscape="http://www.inkscape.org/namespaces/inkscape"
   viewBox="0 0 49.546665 34"
   height="34"
   width="49.546665"
   xml:space="preserve"
   id="svg2"
   version="1.1"
   sodipodi:docname="voice_router.svg"
   inkscape:version="0.92.3 (2405546, 2018-03-11)"><sodipodi:namedview
     pagecolor="#ffffff"
     bordercolor="#666666"
     borderopacity="1"
     objecttolerance="10"
     gridtolerance="10"
     guidetolerance="10"
     inkscape:pageopacity="0"
     inkscape:pageshadow="2"
     inkscape:window-width="1551"
     inkscape:window-height="836"
     id="namedview24"
     showgrid="false"
     inkscape:zoom="19.123852"
     inkscape:cx="25.069134"
     inkscape:cy="13.534476"
     inkscape:window-x="49"
     inkscape:window-y="27"
     inkscape:window-maximized="1"
     inkscape:current-layer="svg2" /><metadata
     id="metadata8"><rdf:RDF><cc:Work
         rdf:about=""><dc:format>image/svg+xml</dc:format><dc:type
           rdf:resource="http://purl.org/dc/dcmitype/StillImage" /></cc:Work></rdf:RDF></metadata><defs
     id="defs6"><clipPath
       id="clipPath20"
       clipPathUnits="userSpaceOnUse"><path
         id="path18"
         d="m 0,4.97266 h 370 v 250 H 0 Z" /></clipPath></defs><g
     id="g903"><path
       inkscape:connector-curvature="0"
       d="m 49.313999,9.8057339 c 0,5.2672001 -10.979067,9.5364001 -24.523333,9.5364001 -13.544306,0 -24.52399934,-4.2692 -24.52399934,-9.5364001 V 23.77448 c 0,5.267187 10.97969334,9.53802 24.52399934,9.53802 13.544266,0 24.523333,-4.270833 24.523333,-9.53802 V 9.8057339"
       style="fill:#707070;fill-opacity:1;fill-rule:nonzero;stroke:none;stroke-width:0.13333333"
       id="path22" /><path
       inkscape:connector-curvature="0"
       d="m 49.313999,9.8057339 c 0,5.2672001 -10.979067,9.5364001 -24.523333,9.5364001 -13.544306,0 -24.52399934,-4.2692 -24.52399934,-9.5364001 V 23.77448 c 0,5.267187 10.97969334,9.53802 24.52399934,9.53802 13.544266,0 24.523333,-4.270833 24.523333,-9.53802 z"
       style="fill:none;stroke:#ffffff;stroke-width:0.5333333;stroke-linecap:butt;stroke-linejoin:miter;stroke-miterlimit:4;stroke-dasharray:none;stroke-opacity:1"
       id="path24" /><path
       inkscape:connector-curvature="0"
       d="m 24.790666,19.342134 c 13.544266,0 24.523333,-4.2692 24.523333,-9.5364001 0,-5.2666665 -10.979067,-9.53639972 -24.523333,-9.53639972 -13.544306,0 -24.52399934,4.26973322 -24.52399934,9.53639972 0,5.2672001 10.97969334,9.5364001 24.52399934,9.5364001"
       style="fill:#707070;fill-opacity:1;fill-rule:nonzero;stroke:none;stroke-width:0.13333333"
       id="path26" /><path
       inkscape:connector-curvature="0"
       d="m 24.790666,19.342134 c 13.544266,0 24.523333,-4.2692 24.523333,-9.5364001 0,-5.2666665 -10.979067,-9.53639972 -24.523333,-9.53639972 -13.544306,0 -24.52399934,4.26973322 -24.52399934,9.53639972 0,5.2672001 10.97969334,9.5364001 24.52399934,9.5364001 z"
       style="fill:none;stroke:#ffffff;stroke-width:0.5333333;stroke-linecap:butt;stroke-linejoin:miter;stroke-miterlimit:4;stroke-dasharray:none;stroke-opacity:1"
       id="path28" /><path
       inkscape:connector-curvature="0"
       d="m 19.190133,6.076534 2.0244,3.038 L 13.5584,10.883867 15.231733,9.4906673 3.3984399,7.4688007 6.3671865,5.2432007 17.785466,7.1770673 19.190133,6.076534"
       style="fill:#ffffff;fill-opacity:1;fill-rule:nonzero;stroke:none;stroke-width:0.13333333"
       id="path30" /><path
       inkscape:connector-curvature="0"
       d="m 29.963599,13.442667 -1.381866,-3.130133 6.906266,-1.3818667 -1.197333,1.0745337 11.5104,1.964533 -2.762,2.21 -11.441733,-2.148533 -1.633734,1.411466"
       style="fill:#ffffff;fill-opacity:1;fill-rule:nonzero;stroke:none;stroke-width:0.13333333"
       id="path32" /><path
       inkscape:connector-curvature="0"
       d="m 26.187466,4.4193341 7.736,-2.1188 0.09053,3.3150666 -1.933333,-0.3682666 -3.7744,3.1313332 -3.6032,-0.5245333 3.897467,-3.0639999 -2.413067,-0.3708"
       style="fill:#ffffff;fill-opacity:1;fill-rule:nonzero;stroke:none;stroke-width:0.13333333"
       id="path34" /><path
       inkscape:connector-curvature="0"
       d="m 22.872399,16.297867 -7.365599,1.3808 -0.276134,-3.4068 2.116667,0.459867 4.055333,-3.4624 3.588533,0.608267 -4.328133,3.774533 2.209333,0.645733"
       style="fill:#ffffff;fill-opacity:1;fill-rule:nonzero;stroke:none;stroke-width:0.13333333"
       id="path36" /><g
       id="g42"
       transform="matrix(1.3333333,0,0,-1.3333333,0,34)"><text
   transform="matrix(1,0,0,-1,15.4641,2.28047)"
   style="font-variant:normal;font-weight:bold;font-size:10px;font-family:Helvetica;-inkscape-font-specification:Helvetica-Bold;writing-mode:lr-tb;fill:#ffffff;fill-opacity:1;fill-rule:nonzero;stroke:none"
   id="text46"><tspan
     x="0"
     y="0"
     id="tspan44">V</tspan></text>

</g></g></svg>