<?xml version="1.0" encoding="UTF-8" standalone="no"?>
<svg
   xmlns:dc="http://purl.org/dc/elements/1.1/"
   xmlns:cc="http://creativecommons.org/ns#"
   xmlns:rdf="http://www.w3.org/1999/02/22-rdf-syntax-ns#"
   xmlns:svg="http://www.w3.org/2000/svg"
   xmlns="http://www.w3.org/2000/svg"
   viewBox="0 0 41.400002 37.946667"
   height="37.946667"
   width="41.400002"
   xml:space="preserve"
   id="svg2"
   version="1.1"><metadata
     id="metadata8"><rdf:RDF><cc:Work
         rdf:about=""><dc:format>image/svg+xml</dc:format><dc:type
           rdf:resource="http://purl.org/dc/dcmitype/StillImage" /></cc:Work></rdf:RDF></metadata><defs
     id="defs6"><clipPath
       id="clipPath20"
       clipPathUnits="userSpaceOnUse"><path
         id="path18"
         d="m 0,4.58984 h 310 v 280 H 0 Z" /></clipPath></defs><g
     transform="matrix(1.3333333,0,0,-1.3333333,0,37.946667)"
     id="g10"><g
       transform="scale(0.1)"
       id="g12"><g
         id="g14"><g
           clip-path="url(#clipPath20)"
           id="g16"><path
             id="path22"
             style="fill:#707070;fill-opacity:1;fill-rule:nonzero;stroke:none"
             d="M 2,3.10547 78.6211,37.9102 H 308.484 L 231.855,3.10547 H 2" /><path
             id="path24"
             style="fill:none;stroke:#ffffff;stroke-width:3.99993992;stroke-linecap:butt;stroke-linejoin:miter;stroke-miterlimit:4;stroke-dasharray:none;stroke-opacity:1"
             d="M 2,3.10547 78.6211,37.9102 H 308.484 L 231.855,3.10547 Z" /><path
             id="path26"
             style="fill:#707070;fill-opacity:1;fill-rule:nonzero;stroke:none"
             d="m 2,246.699 76.6211,34.785 V 37.9102 L 2,3.10547 V 246.699" /><path
             id="path28"
             style="fill:none;stroke:#ffffff;stroke-width:3.99993992;stroke-linecap:butt;stroke-linejoin:miter;stroke-miterlimit:4;stroke-dasharray:none;stroke-opacity:1"
             d="m 2,246.699 76.6211,34.785 V 37.9102 L 2,3.10547 Z" /><path
             id="path30"
             style="fill:#707070;fill-opacity:1;fill-rule:nonzero;stroke:none"
             d="m 78.6211,37.9102 h 229.863 v 243.574 H 78.6211 Z" /><path
             id="path32"
             style="fill:none;stroke:#ffffff;stroke-width:3.99993992;stroke-linecap:butt;stroke-linejoin:miter;stroke-miterlimit:4;stroke-dasharray:none;stroke-opacity:1"
             d="M 78.6211,281.484 H 308.484 V 37.9102 H 78.6211 Z" /><path
             id="path34"
             style="fill:#707070;fill-opacity:1;fill-rule:nonzero;stroke:none"
             d="m 2,246.699 76.6211,34.785 H 308.484 L 231.855,246.699 H 2" /><path
             id="path36"
             style="fill:none;stroke:#ffffff;stroke-width:3.99993992;stroke-linecap:butt;stroke-linejoin:miter;stroke-miterlimit:4;stroke-dasharray:none;stroke-opacity:1"
             d="m 2,246.699 76.6211,34.785 H 308.484 l -76.629,-34.785 z" /><path
             id="path38"
             style="fill:#707070;fill-opacity:1;fill-rule:nonzero;stroke:none"
             d="m 43.7969,211.887 c 7.8359,0 13.9258,-13.047 13.9258,-31.321 0,-17.39 -6.0899,-31.308 -13.9258,-31.308 -8.7071,0 -13.9453,13.918 -13.9453,31.308 0,18.274 5.2382,31.321 13.9453,31.321" /><path
             id="path40"
             style="fill:none;stroke:#ffffff;stroke-width:3.99993992;stroke-linecap:butt;stroke-linejoin:miter;stroke-miterlimit:4;stroke-dasharray:none;stroke-opacity:1"
             d="m 43.7969,211.887 c 7.8359,0 13.9258,-13.047 13.9258,-31.321 0,-17.39 -6.0899,-31.308 -13.9258,-31.308 -8.7071,0 -13.9453,13.918 -13.9453,31.308 0,18.274 5.2382,31.321 13.9453,31.321" /><path
             id="path42"
             style="fill:#707070;fill-opacity:1;fill-rule:nonzero;stroke:none"
             d="m 43.7969,149.258 h 188.059 v 62.6289 H 43.7969 Z" /><path
             id="path44"
             style="fill:none;stroke:#ffffff;stroke-width:3.99993992;stroke-linecap:butt;stroke-linejoin:miter;stroke-miterlimit:4;stroke-dasharray:none;stroke-opacity:1"
             d="M 43.7969,211.887 H 231.855 V 149.258 H 43.7969" /><path
             id="path46"
             style="fill:#707070;fill-opacity:1;fill-rule:nonzero;stroke:none"
             d="m 43.7969,121.426 c 7.8359,0 13.9258,-13.047 13.9258,-31.3283 0,-17.4024 -6.0899,-31.3086 -13.9258,-31.3086 -8.7071,0 -13.9453,13.9062 -13.9453,31.3086 0,18.2813 5.2382,31.3283 13.9453,31.3283" /><path
             id="path48"
             style="fill:none;stroke:#ffffff;stroke-width:3.99993992;stroke-linecap:butt;stroke-linejoin:miter;stroke-miterlimit:4;stroke-dasharray:none;stroke-opacity:1"
             d="m 43.7969,121.426 c 7.8359,0 13.9258,-13.047 13.9258,-31.3283 0,-17.4024 -6.0899,-31.3086 -13.9258,-31.3086 -8.7071,0 -13.9453,13.9062 -13.9453,31.3086 0,18.2813 5.2382,31.3283 13.9453,31.3283" /><path
             id="path50"
             style="fill:#707070;fill-opacity:1;fill-rule:nonzero;stroke:none"
             d="m 43.7969,58.7891 h 188.059 v 62.6367 H 43.7969 Z" /><path
             id="path52"
             style="fill:none;stroke:#ffffff;stroke-width:3.99993992;stroke-linecap:butt;stroke-linejoin:miter;stroke-miterlimit:4;stroke-dasharray:none;stroke-opacity:1"
             d="M 43.7969,121.426 H 231.855 V 58.7891 H 43.7969" /><path
             id="path54"
             style="fill:#000000;fill-opacity:1;fill-rule:nonzero;stroke:none"
             d="M 43.7969,211.887 H 238.84" /><path
             id="path56"
             style="fill:none;stroke:#ffffff;stroke-width:3.2000699;stroke-linecap:butt;stroke-linejoin:miter;stroke-miterlimit:1;stroke-dasharray:none;stroke-opacity:1"
             d="M 43.7969,211.887 H 238.84" /><path
             id="path58"
             style="fill:#000000;fill-opacity:1;fill-rule:nonzero;stroke:none"
             d="M 43.7969,149.258 H 238.84" /><path
             id="path60"
             style="fill:none;stroke:#ffffff;stroke-width:3.2000699;stroke-linecap:butt;stroke-linejoin:miter;stroke-miterlimit:1;stroke-dasharray:none;stroke-opacity:1"
             d="M 43.7969,149.258 H 238.84" /><path
             id="path62"
             style="fill:#000000;fill-opacity:1;fill-rule:nonzero;stroke:none"
             d="M 43.7969,121.426 H 238.84" /><path
             id="path64"
             style="fill:none;stroke:#ffffff;stroke-width:3.2000699;stroke-linecap:butt;stroke-linejoin:miter;stroke-miterlimit:1;stroke-dasharray:none;stroke-opacity:1"
             d="M 43.7969,121.426 H 238.84" /><path
             id="path66"
             style="fill:#000000;fill-opacity:1;fill-rule:nonzero;stroke:none"
             d="M 43.7969,58.7891 H 238.84" /><path
             id="path68"
             style="fill:none;stroke:#ffffff;stroke-width:3.2000699;stroke-linecap:butt;stroke-linejoin:miter;stroke-miterlimit:1;stroke-dasharray:none;stroke-opacity:1"
             d="M 43.7969,58.7891 H 238.84" /><path
             id="path70"
             style="fill:none;stroke:#ffffff;stroke-width:8.00002956;stroke-linecap:butt;stroke-linejoin:miter;stroke-miterlimit:1;stroke-dasharray:none;stroke-opacity:1"
             d="M 55.7539,179.355 H 174.172" /><path
             id="path72"
             style="fill:#000000;fill-opacity:1;fill-rule:nonzero;stroke:none"
             d="m 172.422,164.043 50.516,15.664 -50.516,14.777 v -30.441" /><path
             id="path74"
             style="fill:none;stroke:#ffffff;stroke-width:3.2000699;stroke-linecap:butt;stroke-linejoin:miter;stroke-miterlimit:4;stroke-dasharray:none;stroke-opacity:1"
             d="m 172.422,164.043 50.516,15.664 -50.516,14.777 z" /><path
             id="path76"
             style="fill:#000000;fill-opacity:1;fill-rule:nonzero;stroke:none"
             d="M 54.2383,180.227 H 172.664" /><path
             id="path78"
             style="fill:none;stroke:#ffffff;stroke-width:3.2000699;stroke-linecap:butt;stroke-linejoin:miter;stroke-miterlimit:1;stroke-dasharray:none;stroke-opacity:1"
             d="M 54.2383,180.227 H 172.664" /><path
             id="path80"
             style="fill:#ffffff;fill-opacity:1;fill-rule:nonzero;stroke:none"
             d="m 170.906,164.91 50.5,15.656 -50.5,14.786 V 164.91" /><path
             id="path82"
             style="fill:none;stroke:#ffffff;stroke-width:3.2000699;stroke-linecap:butt;stroke-linejoin:miter;stroke-miterlimit:4;stroke-dasharray:none;stroke-opacity:1"
             d="m 170.906,164.91 50.5,15.656 -50.5,14.786 z" /><path
             id="path84"
             style="fill:#ffffff;fill-opacity:1;fill-rule:nonzero;stroke:none"
             d="M 221.719,88.5156 H 103.301" /><path
             id="path86"
             style="fill:none;stroke:#ffffff;stroke-width:8.00002956;stroke-linecap:round;stroke-linejoin:miter;stroke-miterlimit:4;stroke-dasharray:none;stroke-opacity:1"
             d="M 221.719,88.5156 H 103.301" /><path
             id="path88"
             style="fill:#ffffff;fill-opacity:1;fill-rule:nonzero;stroke:none"
             d="M 105.383,104.285 54.8828,88.6211 105.383,73.8281 v 30.4569" /><path
             id="path90"
             style="fill:none;stroke:#ffffff;stroke-width:3.99993992;stroke-linecap:butt;stroke-linejoin:miter;stroke-miterlimit:4;stroke-dasharray:none;stroke-opacity:1"
             d="M 105.383,104.285 54.8828,88.6211 105.383,73.8281 Z" /><path
             id="path92"
             style="fill:#707070;fill-opacity:1;fill-rule:nonzero;stroke:none"
             d="m 231.855,246.699 76.629,34.785 V 37.9102 L 231.855,3.10547 V 246.699" /><path
             id="path94"
             style="fill:none;stroke:#ffffff;stroke-width:3.99993992;stroke-linecap:butt;stroke-linejoin:miter;stroke-miterlimit:4;stroke-dasharray:none;stroke-opacity:1"
             d="m 231.855,246.699 76.629,34.785 V 37.9102 L 231.855,3.10547 Z" /><path
             id="path96"
             style="fill:#707070;fill-opacity:1;fill-rule:nonzero;stroke:none"
             d="m 273.652,211.887 c 7.84,0 13.938,-13.047 13.938,-31.321 0,-17.39 -6.098,-31.308 -13.938,-31.308 -8.711,0 -13.933,13.918 -13.933,31.308 0,18.274 5.222,31.321 13.933,31.321" /><path
             id="path98"
             style="fill:none;stroke:#ffffff;stroke-width:3.99993992;stroke-linecap:butt;stroke-linejoin:miter;stroke-miterlimit:4;stroke-dasharray:none;stroke-opacity:1"
             d="m 273.652,211.887 c 7.84,0 13.938,-13.047 13.938,-31.321 0,-17.39 -6.098,-31.308 -13.938,-31.308 -8.711,0 -13.933,13.918 -13.933,31.308 0,18.274 5.222,31.321 13.933,31.321" /><path
             id="path100"
             style="fill:#707070;fill-opacity:1;fill-rule:nonzero;stroke:none"
             d="m 273.652,121.426 c 7.84,0 13.938,-13.047 13.938,-31.3283 0,-17.4024 -6.098,-31.3086 -13.938,-31.3086 -8.711,0 -13.933,13.9062 -13.933,31.3086 0,18.2813 5.222,31.3283 13.933,31.3283" /><path
             id="path102"
             style="fill:none;stroke:#ffffff;stroke-width:3.99993992;stroke-linecap:butt;stroke-linejoin:miter;stroke-miterlimit:4;stroke-dasharray:none;stroke-opacity:1"
             d="m 273.652,121.426 c 7.84,0 13.938,-13.047 13.938,-31.3283 0,-17.4024 -6.098,-31.3086 -13.938,-31.3086 -8.711,0 -13.933,13.9062 -13.933,31.3086 0,18.2813 5.222,31.3283 13.933,31.3283" /></g></g></g></g></svg>