<?xml version="1.0" encoding="UTF-8" standalone="no"?>
<svg
   xmlns:dc="http://purl.org/dc/elements/1.1/"
   xmlns:cc="http://creativecommons.org/ns#"
   xmlns:rdf="http://www.w3.org/1999/02/22-rdf-syntax-ns#"
   xmlns:svg="http://www.w3.org/2000/svg"
   xmlns="http://www.w3.org/2000/svg"
   xmlns:sodipodi="http://sodipodi.sourceforge.net/DTD/sodipodi-0.dtd"
   xmlns:inkscape="http://www.inkscape.org/namespaces/inkscape"
   viewBox="0 0 85.440002 47.133331"
   height="47.133331"
   width="85.440002"
   xml:space="preserve"
   id="svg2"
   version="1.1"
   sodipodi:docname="ip_communicator.svg"
   inkscape:version="0.92.3 (2405546, 2018-03-11)"><sodipodi:namedview
     pagecolor="#ffffff"
     bordercolor="#666666"
     borderopacity="1"
     objecttolerance="10"
     gridtolerance="10"
     guidetolerance="10"
     inkscape:pageopacity="0"
     inkscape:pageshadow="2"
     inkscape:window-width="1551"
     inkscape:window-height="836"
     id="namedview45"
     showgrid="false"
     inkscape:zoom="15.68352"
     inkscape:cx="54.110349"
     inkscape:cy="18.46577"
     inkscape:window-x="49"
     inkscape:window-y="27"
     inkscape:window-maximized="1"
     inkscape:current-layer="svg2" /><metadata
     id="metadata8"><rdf:RDF><cc:Work
         rdf:about=""><dc:format>image/svg+xml</dc:format><dc:type
           rdf:resource="http://purl.org/dc/dcmitype/StillImage" /></cc:Work></rdf:RDF></metadata><defs
     id="defs6" /><g
     id="g967"><path
       inkscape:connector-curvature="0"
       d="M 52.148399,25.110934 56.807332,0.6306675 H 21.284399 L 16.052666,25.110934 h 36.095733"
       style="fill:#FED100;fill-opacity:1;fill-rule:nonzero;stroke:none;stroke-width:0.13333333"
       id="path14" /><path
       inkscape:connector-curvature="0"
       d="M 52.148399,25.110934 56.807332,0.6306675 H 21.284399 L 16.052666,25.110934 Z"
       style="fill:none;stroke:#ffffff;stroke-width:0.5333333;stroke-linecap:butt;stroke-linejoin:miter;stroke-miterlimit:4;stroke-dasharray:none;stroke-opacity:1"
       id="path16" /><path
       inkscape:connector-curvature="0"
       d="m 56.807332,0.6306675 1.388,1.7969333 -4.3308,23.7447992 -1.716133,-1.061466 4.658933,-24.4802665"
       style="fill:#FED100;fill-opacity:1;fill-rule:nonzero;stroke:none;stroke-width:0.13333333"
       id="path18" /><path
       inkscape:connector-curvature="0"
       d="m 56.807332,0.6306675 1.388,1.7969333 -4.3308,23.7447992 -1.716133,-1.061466 z"
       style="fill:none;stroke:#ffffff;stroke-width:0.5333333;stroke-linecap:butt;stroke-linejoin:miter;stroke-miterlimit:4;stroke-dasharray:none;stroke-opacity:1"
       id="path20" /><path
       inkscape:connector-curvature="0"
       d="m 16.052666,25.110934 1.552,1.061466 H 53.864532 L 52.148399,25.110934 H 16.052666"
       style="fill:#FED100;fill-opacity:1;fill-rule:nonzero;stroke:none;stroke-width:0.13333333"
       id="path22" /><path
       inkscape:connector-curvature="0"
       d="m 16.052666,25.110934 1.552,1.061466 h 36.259866 l -1.716133,-1.061466 z"
       style="fill:none;stroke:#ffffff;stroke-width:0.5333333;stroke-linecap:butt;stroke-linejoin:miter;stroke-miterlimit:4;stroke-dasharray:none;stroke-opacity:1"
       id="path24" /><path
       inkscape:connector-curvature="0"
       d="m 52.476532,26.786 v 3.6328 l -0.940133,0.8176 c 0,0 -2.205734,0.652133 -1.716134,1.957867 l -9.838533,9.148959 V 38.340107 L 52.476532,26.786"
       style="fill:#FED100;fill-opacity:1;fill-rule:nonzero;stroke:none;stroke-width:0.13333333"
       id="path26" /><path
       inkscape:connector-curvature="0"
       d="m 52.476532,26.786 v 3.6328 l -0.940133,0.8176 c 0,0 -2.205734,0.652133 -1.716134,1.957867 l -9.838533,9.148959 v -4.003119 z"
       style="fill:none;stroke:#ffffff;stroke-width:0.5333333;stroke-linecap:butt;stroke-linejoin:miter;stroke-miterlimit:4;stroke-dasharray:none;stroke-opacity:1"
       id="path28" /><path
       inkscape:connector-curvature="0"
       d="M 0.82343731,42.343226 H 39.981836 V 38.340107 H 0.82343731 Z"
       style="fill:#FED100;fill-opacity:1;fill-rule:nonzero;stroke:none;stroke-width:0.13333333"
       id="path30" /><path
       inkscape:connector-curvature="0"
       d="m 0.82343731,38.340107 v 4.003119 H 39.981732 V 38.340107 H 0.82343731"
       style="fill:none;stroke:#ffffff;stroke-width:0.5333333;stroke-linecap:butt;stroke-linejoin:miter;stroke-miterlimit:4;stroke-dasharray:none;stroke-opacity:1"
       id="path32" /><path
       inkscape:connector-curvature="0"
       d="M 16.461466,27.030667 52.476532,26.786 39.981732,38.340107 H 0.82343731 L 16.461466,27.030667"
       style="fill:#FED100;fill-opacity:1;fill-rule:nonzero;stroke:none;stroke-width:0.13333333"
       id="path34" /><path
       inkscape:connector-curvature="0"
       d="M 16.461466,27.030667 52.476532,26.786 39.981732,38.340107 H 0.82343731 Z"
       style="fill:none;stroke:#ffffff;stroke-width:0.5333333;stroke-linecap:butt;stroke-linejoin:miter;stroke-miterlimit:4;stroke-dasharray:none;stroke-opacity:1"
       id="path36" /><path
       inkscape:connector-curvature="0"
       d="M 49.135465,22.726 52.854132,3.5541341 H 23.969333 L 20.250533,22.726 h 28.884932"
       style="fill:#FED100;fill-opacity:1;fill-rule:nonzero;stroke:none;stroke-width:0.13333333"
       id="path38" /><path
       inkscape:connector-curvature="0"
       d="M 49.135465,22.726 52.854132,3.5541341 H 23.969333 L 20.250533,22.726 Z"
       style="fill:none;stroke:#ffffff;stroke-width:0.5333333;stroke-linecap:butt;stroke-linejoin:miter;stroke-miterlimit:4;stroke-dasharray:none;stroke-opacity:1"
       id="path40" /><path
       inkscape:connector-curvature="0"
       d="M 17.307866,27.286 8.2244798,34.620307"
       style="fill:none;stroke:#ffffff;stroke-width:0.13333333;stroke-linecap:butt;stroke-linejoin:round;stroke-miterlimit:4;stroke-dasharray:none;stroke-opacity:1"
       id="path42" /><path
       inkscape:connector-curvature="0"
       d="m 20.224533,27.286 -9.083387,7.334307"
       style="fill:none;stroke:#ffffff;stroke-width:0.13333333;stroke-linecap:butt;stroke-linejoin:round;stroke-miterlimit:4;stroke-dasharray:none;stroke-opacity:1"
       id="path44" /><path
       inkscape:connector-curvature="0"
       d="m 23.141199,27.286 -9.083333,7.334307"
       style="fill:none;stroke:#ffffff;stroke-width:0.13333333;stroke-linecap:butt;stroke-linejoin:round;stroke-miterlimit:4;stroke-dasharray:none;stroke-opacity:1"
       id="path46" /><path
       inkscape:connector-curvature="0"
       d="m 26.057866,27.286 -9.083333,7.334307"
       style="fill:none;stroke:#ffffff;stroke-width:0.13333333;stroke-linecap:butt;stroke-linejoin:round;stroke-miterlimit:4;stroke-dasharray:none;stroke-opacity:1"
       id="path48" /><path
       inkscape:connector-curvature="0"
       d="M 28.973999,27.286 19.8912,34.620307"
       style="fill:none;stroke:#ffffff;stroke-width:0.13333333;stroke-linecap:butt;stroke-linejoin:round;stroke-miterlimit:4;stroke-dasharray:none;stroke-opacity:1"
       id="path50" /><path
       inkscape:connector-curvature="0"
       d="m 31.890666,27.286 -9.0828,7.334307"
       style="fill:none;stroke:#ffffff;stroke-width:0.13333333;stroke-linecap:butt;stroke-linejoin:round;stroke-miterlimit:4;stroke-dasharray:none;stroke-opacity:1"
       id="path52" /><path
       inkscape:connector-curvature="0"
       d="m 34.807332,27.286 -9.082799,7.334307"
       style="fill:none;stroke:#ffffff;stroke-width:0.13333333;stroke-linecap:butt;stroke-linejoin:round;stroke-miterlimit:4;stroke-dasharray:none;stroke-opacity:1"
       id="path54" /><path
       inkscape:connector-curvature="0"
       d="m 37.723999,27.286 -9.083333,7.334307"
       style="fill:none;stroke:#ffffff;stroke-width:0.13333333;stroke-linecap:butt;stroke-linejoin:round;stroke-miterlimit:4;stroke-dasharray:none;stroke-opacity:1"
       id="path56" /><path
       inkscape:connector-curvature="0"
       d="m 40.640666,27.286 -9.083333,7.334307"
       style="fill:none;stroke:#ffffff;stroke-width:0.13333333;stroke-linecap:butt;stroke-linejoin:round;stroke-miterlimit:4;stroke-dasharray:none;stroke-opacity:1"
       id="path58" /><path
       inkscape:connector-curvature="0"
       d="m 43.557332,27.286 -9.083333,7.334307"
       style="fill:none;stroke:#ffffff;stroke-width:0.13333333;stroke-linecap:butt;stroke-linejoin:round;stroke-miterlimit:4;stroke-dasharray:none;stroke-opacity:1"
       id="path60" /><path
       inkscape:connector-curvature="0"
       d="m 46.473999,27.286 -9.083333,7.334307"
       style="fill:none;stroke:#ffffff;stroke-width:0.13333333;stroke-linecap:butt;stroke-linejoin:round;stroke-miterlimit:4;stroke-dasharray:none;stroke-opacity:1"
       id="path62" /><path
       inkscape:connector-curvature="0"
       d="m 49.390665,27.286 -9.083333,7.334307"
       style="fill:none;stroke:#ffffff;stroke-width:0.13333333;stroke-linecap:butt;stroke-linejoin:round;stroke-miterlimit:4;stroke-dasharray:none;stroke-opacity:1"
       id="path64" /><path
       inkscape:connector-curvature="0"
       d="M 9.2401064,33.84688 H 41.575466"
       style="fill:none;stroke:#ffffff;stroke-width:0.13333333;stroke-linecap:butt;stroke-linejoin:round;stroke-miterlimit:4;stroke-dasharray:none;stroke-opacity:1"
       id="path66" /><path
       inkscape:connector-curvature="0"
       d="M 11.414586,32.166133 H 43.249999"
       style="fill:none;stroke:#ffffff;stroke-width:0.13333333;stroke-linecap:butt;stroke-linejoin:round;stroke-miterlimit:4;stroke-dasharray:none;stroke-opacity:1"
       id="path68" /><path
       inkscape:connector-curvature="0"
       d="M 13.669733,30.4864 H 45.421866"
       style="fill:none;stroke:#ffffff;stroke-width:0.13333333;stroke-linecap:butt;stroke-linejoin:round;stroke-miterlimit:4;stroke-dasharray:none;stroke-opacity:1"
       id="path70" /><path
       inkscape:connector-curvature="0"
       d="M 15.6776,28.804133 H 47.679732"
       style="fill:none;stroke:#ffffff;stroke-width:0.13333333;stroke-linecap:butt;stroke-linejoin:round;stroke-miterlimit:4;stroke-dasharray:none;stroke-opacity:1"
       id="path72" /><path
       inkscape:connector-curvature="0"
       d="m 35.371866,9.7702673 h 5.218266 c 1.266134,0.3849337 1.138534,1.3985337 1.138534,1.3985337 0,1.011466 -0.885467,1.271866 -0.885467,1.271866 h -9.508266 c -1.7724,-0.1344 -1.131867,-1.652133 -1.131867,-1.652133 l 4.031333,-4.6354666 c 0.642667,-0.6432 2.109867,0 2.109867,0 0.925466,0.9239999 0.514133,1.7485332 0.514133,1.7485332 l -1.486533,1.8686667"
       style="fill:#ffffff;fill-opacity:1;fill-rule:nonzero;stroke:none;stroke-width:0.13333333"
       id="path74" /><path
       inkscape:connector-curvature="0"
       d="m 39.116666,17.0932 h -5.218267 c -1.266133,-0.386933 -1.138,-1.398933 -1.138,-1.398933 0,-1.012533 0.886,-1.272933 0.886,-1.272933 h 9.5072 c 1.773467,0.133866 1.1328,1.652133 1.1328,1.652133 L 40.254666,20.7104 c -0.644267,0.6432 -2.109867,0 -2.109867,0 -0.926533,-0.9276 -0.514533,-1.75 -0.514533,-1.75 l 1.4864,-1.8672"
       style="fill:#ffffff;fill-opacity:1;fill-rule:nonzero;stroke:none;stroke-width:0.13333333"
       id="path76" /><path
       inkscape:connector-curvature="0"
       d="m 50.020799,41.559373 c 0,0.82032 -0.6624,1.482813 -1.4844,1.482813 -0.8176,0 -1.4828,-0.662493 -1.4828,-1.482813 0,-0.817707 0.6652,-1.482293 1.4828,-1.482293 0.822,0 1.4844,0.664586 1.4844,1.482293"
       style="fill:#FED100;fill-opacity:1;fill-rule:nonzero;stroke:none;stroke-width:0.13333333"
       id="path78" /><path
       inkscape:connector-curvature="0"
       d="M 76.063998,44.030733 C 71.541732,45.591666 63.230665,45.979688 56.455732,44.845306 51.989599,44.10052 49.197865,42.860933 48.539065,41.559373"
       style="fill:none;stroke:#FED100;stroke-width:0.5333333;stroke-linecap:butt;stroke-linejoin:round;stroke-miterlimit:4;stroke-dasharray:none;stroke-opacity:1"
       id="path80" /><path
       inkscape:connector-curvature="0"
       d="m 58.579732,36.481253 c 1.0036,-2.391146 2.826533,-4.81512 5.373333,-6.91152 6.317733,-5.205733 14.695333,-6.428533 18.712,-2.730666 4.017199,3.696933 2.1552,10.913013 -4.1624,16.118746 -0.599067,0.494787 -1.216267,0.95052 -1.8464,1.370827"
       style="fill:none;stroke:#FED100;stroke-width:1.33333325;stroke-linecap:butt;stroke-linejoin:round;stroke-miterlimit:4;stroke-dasharray:none;stroke-opacity:1"
       id="path82" /><path
       inkscape:connector-curvature="0"
       d="m 79.216131,44.32864 c 0,1.415106 -1.145866,2.55886 -2.559866,2.55886 -1.413067,0 -2.559867,-1.143754 -2.559867,-2.55886 0,-1.414054 1.1468,-2.559894 2.559867,-2.559894 1.414,0 2.559866,1.14584 2.559866,2.559894"
       style="fill:#FED100;fill-opacity:1;fill-rule:nonzero;stroke:none;stroke-width:0.13333333"
       id="path84" /><path
       inkscape:connector-curvature="0"
       d="m 79.216131,44.32864 c 0,1.415106 -1.145866,2.55886 -2.559866,2.55886 -1.413067,0 -2.559867,-1.143754 -2.559867,-2.55886 0,-1.414054 1.1468,-2.559894 2.559867,-2.559894 1.414,0 2.559866,1.14584 2.559866,2.559894 z"
       style="fill:none;stroke:#ffffff;stroke-width:0.5333333;stroke-linecap:butt;stroke-linejoin:miter;stroke-miterlimit:4;stroke-dasharray:none;stroke-opacity:1"
       id="path86" /><path
       inkscape:connector-curvature="0"
       d="m 60.035465,36.465627 c 0,0.818746 -0.665733,1.482813 -1.483333,1.482813 -0.819333,0 -1.481867,-0.664067 -1.481867,-1.482813 0,-0.817707 0.662534,-1.482294 1.481867,-1.482294 0.8176,0 1.483333,0.664587 1.483333,1.482294"
       style="fill:#FED100;fill-opacity:1;fill-rule:nonzero;stroke:none;stroke-width:0.13333333"
       id="path88" /></g></svg>