<?xml version="1.0" encoding="UTF-8" standalone="no"?>
<svg
   xmlns:dc="http://purl.org/dc/elements/1.1/"
   xmlns:cc="http://creativecommons.org/ns#"
   xmlns:rdf="http://www.w3.org/1999/02/22-rdf-syntax-ns#"
   xmlns:svg="http://www.w3.org/2000/svg"
   xmlns="http://www.w3.org/2000/svg"
   viewBox="0 0 33.946667 53.973331"
   height="53.973331"
   width="33.946667"
   xml:space="preserve"
   id="svg2"
   version="1.1"><metadata
     id="metadata8"><rdf:RDF><cc:Work
         rdf:about=""><dc:format>image/svg+xml</dc:format><dc:type
           rdf:resource="http://purl.org/dc/dcmitype/StillImage" /></cc:Work></rdf:RDF></metadata><defs
     id="defs6"><clipPath
       id="clipPath20"
       clipPathUnits="userSpaceOnUse"><path
         id="path18"
         d="m 0,4.76563 h 250 v 400 H 0 Z" /></clipPath></defs><g
     transform="matrix(1.3333333,0,0,-1.3333333,0,53.973333)"
     id="g10"><g
       transform="scale(0.1)"
       id="g12"><g
         id="g14"><g
           clip-path="url(#clipPath20)"
           id="g16"><path
             id="path22"
             style="fill:#B5BF00;fill-opacity:1;fill-rule:nonzero;stroke:none"
             d="m 250.121,400.621 -27.5,-31.113 H 5.32813 L 40.9414,400.621 H 250.121" /><path
             id="path24"
             style="fill:none;stroke:#ffffff;stroke-width:4;stroke-linecap:butt;stroke-linejoin:miter;stroke-miterlimit:4;stroke-dasharray:none;stroke-opacity:1"
             d="m 250.121,400.621 -27.5,-31.113 H 5.32813 l 35.61327,31.113 z" /><path
             id="path26"
             style="fill:#B5BF00;fill-opacity:1;fill-rule:nonzero;stroke:none"
             d="m 5.32813,282.516 h 217.293 v 88.3008 H 5.32813 Z" /><path
             id="path28"
             style="fill:none;stroke:#ffffff;stroke-width:4;stroke-linecap:butt;stroke-linejoin:miter;stroke-miterlimit:4;stroke-dasharray:none;stroke-opacity:1"
             d="m 5.32813,282.516 v 88.3 H 222.621 v -88.3 z" /><path
             id="path30"
             style="fill:#B5BF00;fill-opacity:1;fill-rule:nonzero;stroke:none"
             d="m 250.074,311.441 v 88.309 l -27.453,-28.934 v -88.3 l 27.453,28.925" /><path
             id="path32"
             style="fill:none;stroke:#ffffff;stroke-width:4;stroke-linecap:butt;stroke-linejoin:miter;stroke-miterlimit:4;stroke-dasharray:none;stroke-opacity:1"
             d="m 250.074,311.441 v 88.309 l -27.453,-28.934 v -88.3 z" /><path
             id="path34"
             style="fill:#B5BF00;fill-opacity:1;fill-rule:nonzero;stroke:none"
             d="M 222.621,283.461 V 109.863 l 27.453,28.926 v 173.609 l -27.453,-28.937" /><path
             id="path36"
             style="fill:none;stroke:#ffffff;stroke-width:4;stroke-linecap:butt;stroke-linejoin:miter;stroke-miterlimit:4;stroke-dasharray:none;stroke-opacity:1"
             d="M 222.621,283.461 V 109.863 l 27.453,28.926 v 173.609 z" /><path
             id="path38"
             style="fill:none;stroke:#ffffff;stroke-width:4;stroke-linecap:round;stroke-linejoin:round;stroke-miterlimit:4;stroke-dasharray:none;stroke-opacity:1"
             d="M 221.559,343.082 H 6.42188" /><path
             id="path40"
             style="fill:none;stroke:#ffffff;stroke-width:4;stroke-linecap:round;stroke-linejoin:round;stroke-miterlimit:4;stroke-dasharray:none;stroke-opacity:1"
             d="M 238.004,387.926 H 22.8555" /><path
             id="path42"
             style="fill:none;stroke:#ffffff;stroke-width:4;stroke-linecap:round;stroke-linejoin:round;stroke-miterlimit:4;stroke-dasharray:none;stroke-opacity:1"
             d="M 221.559,313.277 H 6.42188" /><path
             id="path44"
             style="fill:none;stroke:#ffffff;stroke-width:4;stroke-linecap:round;stroke-linejoin:round;stroke-miterlimit:4;stroke-dasharray:none;stroke-opacity:1"
             d="M 250.707,374.047 223.324,344.078" /><path
             id="path46"
             style="fill:none;stroke:#ffffff;stroke-width:4;stroke-linecap:round;stroke-linejoin:round;stroke-miterlimit:4;stroke-dasharray:none;stroke-opacity:1"
             d="M 250.707,344.234 223.324,314.273" /><path
             id="path48"
             style="fill:#231f20;fill-opacity:1;fill-rule:nonzero;stroke:none"
             d="M 70.1523,370.406 V 343.344" /><path
             id="path50"
             style="fill:none;stroke:#ffffff;stroke-width:4;stroke-linecap:round;stroke-linejoin:round;stroke-miterlimit:4;stroke-dasharray:none;stroke-opacity:1"
             d="M 70.1523,370.406 V 343.344" /><path
             id="path52"
             style="fill:none;stroke:#ffffff;stroke-width:4;stroke-linecap:round;stroke-linejoin:round;stroke-miterlimit:4;stroke-dasharray:none;stroke-opacity:1"
             d="M 153.355,370.406 V 343.344" /><path
             id="path54"
             style="fill:none;stroke:#ffffff;stroke-width:4;stroke-linecap:round;stroke-linejoin:round;stroke-miterlimit:4;stroke-dasharray:none;stroke-opacity:1"
             d="M 70.1523,311.801 V 284.762" /><path
             id="path56"
             style="fill:none;stroke:#ffffff;stroke-width:4;stroke-linecap:round;stroke-linejoin:round;stroke-miterlimit:4;stroke-dasharray:none;stroke-opacity:1"
             d="M 153.355,311.801 V 284.762" /><path
             id="path58"
             style="fill:none;stroke:#ffffff;stroke-width:4;stroke-linecap:round;stroke-linejoin:round;stroke-miterlimit:4;stroke-dasharray:none;stroke-opacity:1"
             d="M 113.414,341.773 V 314.711" /><path
             id="path60"
             style="fill:none;stroke:#ffffff;stroke-width:4;stroke-linecap:round;stroke-linejoin:round;stroke-miterlimit:4;stroke-dasharray:none;stroke-opacity:1"
             d="M 30.2188,341.773 V 314.711" /><path
             id="path62"
             style="fill:none;stroke:#ffffff;stroke-width:4;stroke-linecap:round;stroke-linejoin:round;stroke-miterlimit:4;stroke-dasharray:none;stroke-opacity:1"
             d="M 196.605,341.773 V 314.711" /><path
             id="path64"
             style="fill:none;stroke:#ffffff;stroke-width:4;stroke-linecap:round;stroke-linejoin:round;stroke-miterlimit:4;stroke-dasharray:none;stroke-opacity:1"
             d="M 101.012,401.715 70.1523,370.895" /><path
             id="path66"
             style="fill:none;stroke:#ffffff;stroke-width:4;stroke-linecap:round;stroke-linejoin:round;stroke-miterlimit:4;stroke-dasharray:none;stroke-opacity:1"
             d="m 184.195,401.715 -30.84,-30.82" /><path
             id="path68"
             style="fill:#B5BF00;fill-opacity:1;fill-rule:nonzero;stroke:none"
             d="m 5.32813,111.301 h 217.293 v 172.16 H 5.32813 Z" /><path
             id="path70"
             style="fill:none;stroke:#ffffff;stroke-width:4;stroke-linecap:butt;stroke-linejoin:miter;stroke-miterlimit:4;stroke-dasharray:none;stroke-opacity:1"
             d="M 222.621,283.461 V 111.301 H 5.32813 v 172.16" /><path
             id="path72"
             style="fill:#B5BF00;fill-opacity:1;fill-rule:nonzero;stroke:none"
             d="m 5.32813,5.01563 h 217.293 v 106.66 H 5.32813 Z" /><path
             id="path74"
             style="fill:none;stroke:#ffffff;stroke-width:4;stroke-linecap:butt;stroke-linejoin:miter;stroke-miterlimit:4;stroke-dasharray:none;stroke-opacity:1"
             d="M 5.32813,5.01563 V 111.676 H 222.621 V 5.01563 Z" /><path
             id="path76"
             style="fill:#B5BF00;fill-opacity:1;fill-rule:nonzero;stroke:none"
             d="M 250.074,33.9414 V 139.883 L 222.621,110.957 V 5.01563 l 27.453,28.92577" /><path
             id="path78"
             style="fill:none;stroke:#ffffff;stroke-width:4;stroke-linecap:butt;stroke-linejoin:miter;stroke-miterlimit:4;stroke-dasharray:none;stroke-opacity:1"
             d="M 250.074,33.9414 V 139.883 L 222.621,110.957 V 5.01563 Z" /><path
             id="path80"
             style="fill:#ffffff;fill-opacity:1;fill-rule:nonzero;stroke:none"
             d="m 117.555,217.477 v 37.578 h 6.367 l -9.395,14.179 -9.414,-14.179 h 6.375 v -37.578 h 6.067" /><path
             id="path82"
             style="fill:#ffffff;fill-opacity:1;fill-rule:nonzero;stroke:none"
             d="m 98.3828,212.047 -26.5703,26.582 4.5117,4.5 -16.6797,3.371 3.3672,-16.68 4.5117,4.512 26.5625,-26.574 4.2969,4.289" /><path
             id="path84"
             style="fill:#ffffff;fill-opacity:1;fill-rule:nonzero;stroke:none"
             d="M 88.668,194.652 H 51.0898 v 6.379 l -14.1796,-9.414 14.1796,-9.406 v 6.379 H 88.668 v 6.062" /><path
             id="path86"
             style="fill:#ffffff;fill-opacity:1;fill-rule:nonzero;stroke:none"
             d="m 94.0859,175.484 -26.5625,-26.562 -4.5117,4.492 -3.3672,-16.68 16.6797,3.379 -4.5117,4.512 26.5703,26.57 -4.2969,4.289" /><path
             id="path88"
             style="fill:#ffffff;fill-opacity:1;fill-rule:nonzero;stroke:none"
             d="m 111.488,178.93 v -72.539 h -6.375 l 9.414,-14.1879 9.395,14.1879 h -6.367 v 72.539 h -6.067" /><path
             id="path90"
             style="fill:#ffffff;fill-opacity:1;fill-rule:nonzero;stroke:none"
             d="m 130.66,171.195 26.57,-26.57 -4.5,-4.512 16.68,-3.379 -3.379,16.68 -4.504,-4.492 -26.582,26.562 -4.285,-4.289" /><path
             id="path92"
             style="fill:#ffffff;fill-opacity:1;fill-rule:nonzero;stroke:none"
             d="m 140.375,188.59 h 37.578 v -6.379 l 14.192,9.406 -14.192,9.414 v -6.379 h -37.578 v -6.062" /><path
             id="path94"
             style="fill:#ffffff;fill-opacity:1;fill-rule:nonzero;stroke:none"
             d="m 134.945,207.758 26.582,26.574 4.504,-4.512 3.379,16.68 -16.68,-3.371 4.5,-4.5 -26.57,-26.582 4.285,-4.289" /><path
             id="path96"
             style="fill:#ffffff;fill-opacity:1;fill-rule:nonzero;stroke:none"
             d="m 137.516,160.133 c 17.597,12.324 21.875,36.582 9.558,54.18 -12.332,17.605 -36.601,21.894 -54.199,9.558 C 75.2773,211.539 71,187.281 83.3242,169.684 95.6484,152.086 119.906,147.809 137.516,160.133" /><path
             id="path98"
             style="fill:none;stroke:#ffffff;stroke-width:4;stroke-linecap:round;stroke-linejoin:round;stroke-miterlimit:4;stroke-dasharray:none;stroke-opacity:1"
             d="M 238.102,387.105 V 300.629" /><path
             id="path100"
             style="fill:#ffffff;fill-opacity:1;fill-rule:nonzero;stroke:none"
             d="m 112.191,69.6641 h 57.207 v 5.6718 L 188.129,63.9805 169.398,52.3203 v 5.6719 h -57.207 v 11.6719" /><path
             id="path102"
             style="fill:#ffffff;fill-opacity:1;fill-rule:nonzero;stroke:none"
             d="m 112.191,34.0781 h 57.207 v 5.6836 L 188.129,28.4023 169.398,16.7422 v 5.6758 h -57.207 v 11.6601" /><path
             id="path104"
             style="fill:#ffffff;fill-opacity:1;fill-rule:nonzero;stroke:none"
             d="M 113.473,86.6836 H 56.2656 v 5.6758 L 37.5352,81 56.2656,69.3516 v 5.664 h 57.2074 v 11.668" /><path
             id="path106"
             style="fill:#ffffff;fill-opacity:1;fill-rule:nonzero;stroke:none"
             d="M 113.473,51.1094 H 56.2656 v 5.6719 L 37.5352,45.4258 56.2656,33.7656 v 5.6641 h 57.2074 v 11.6797" /><path
             id="path108"
             style="fill:none;stroke:#ffffff;stroke-width:4;stroke-linecap:round;stroke-linejoin:round;stroke-miterlimit:4;stroke-dasharray:none;stroke-opacity:1"
             d="M 221.559,283.082 H 6.42188" /><path
             id="path110"
             style="fill:none;stroke:#ffffff;stroke-width:4;stroke-linecap:round;stroke-linejoin:round;stroke-miterlimit:4;stroke-dasharray:none;stroke-opacity:1"
             d="M 250.707,314.047 223.324,284.078" /><path
             id="path112"
             style="fill:none;stroke:#ffffff;stroke-width:4;stroke-linecap:round;stroke-linejoin:round;stroke-miterlimit:4;stroke-dasharray:none;stroke-opacity:1"
             d="M 221.559,111.832 H 6.42188" /><path
             id="path114"
             style="fill:none;stroke:#ffffff;stroke-width:4;stroke-linecap:round;stroke-linejoin:round;stroke-miterlimit:4;stroke-dasharray:none;stroke-opacity:1"
             d="M 249.273,138.492 224.039,112.105" /></g></g></g></g></svg>