<?xml version="1.0" encoding="UTF-8" standalone="no"?>
<svg
   xmlns:dc="http://purl.org/dc/elements/1.1/"
   xmlns:cc="http://creativecommons.org/ns#"
   xmlns:rdf="http://www.w3.org/1999/02/22-rdf-syntax-ns#"
   xmlns:svg="http://www.w3.org/2000/svg"
   xmlns="http://www.w3.org/2000/svg"
   viewBox="0 0 50.346668 45.240002"
   height="45.240002"
   width="50.346668"
   xml:space="preserve"
   id="svg2"
   version="1.1"><metadata
     id="metadata8"><rdf:RDF><cc:Work
         rdf:about=""><dc:format>image/svg+xml</dc:format><dc:type
           rdf:resource="http://purl.org/dc/dcmitype/StillImage" /></cc:Work></rdf:RDF></metadata><defs
     id="defs6" /><g
     transform="matrix(1.3333333,0,0,-1.3333333,0,45.24)"
     id="g10"><g
       transform="scale(0.1)"
       id="g12"><path
         id="path14"
         style="fill:#B5BF00;fill-opacity:1;fill-rule:nonzero;stroke:none"
         d="m 5.03125,52.8438 h 314.727 v 59.125 H 5.03125 Z" /><path
         id="path16"
         style="fill:none;stroke:#ffffff;stroke-width:4;stroke-linecap:butt;stroke-linejoin:miter;stroke-miterlimit:4;stroke-dasharray:none;stroke-opacity:1"
         d="M 319.758,52.8438 V 111.969 H 5.03125 V 52.8438 Z" /><path
         id="path18"
         style="fill:#000000;fill-opacity:1;fill-rule:nonzero;stroke:none"
         d="m 223.367,78.5742 h 79.387" /><path
         id="path20"
         style="fill:none;stroke:#ffffff;stroke-width:4;stroke-linecap:butt;stroke-linejoin:miter;stroke-miterlimit:4;stroke-dasharray:none;stroke-opacity:1"
         d="m 223.367,78.5742 h 79.387" /><path
         id="path22"
         style="fill:#B5BF00;fill-opacity:1;fill-rule:nonzero;stroke:none"
         d="m 223.367,81.4102 h 79.387" /><path
         id="path24"
         style="fill:none;stroke:#ffffff;stroke-width:4;stroke-linecap:butt;stroke-linejoin:miter;stroke-miterlimit:4;stroke-dasharray:none;stroke-opacity:1"
         d="m 223.367,81.4102 h 79.387" /><path
         id="path26"
         style="fill:#B5BF00;fill-opacity:1;fill-rule:nonzero;stroke:none"
         d="m 372.605,108.945 v 52.848 L 319.758,111.969 V 53.1914 l 52.847,55.7536" /><path
         id="path28"
         style="fill:none;stroke:#ffffff;stroke-width:4;stroke-linecap:butt;stroke-linejoin:miter;stroke-miterlimit:4;stroke-dasharray:none;stroke-opacity:1"
         d="m 372.605,108.945 v 52.848 L 319.758,111.969 V 53.1914 Z" /><path
         id="path30"
         style="fill:#B5BF00;fill-opacity:1;fill-rule:nonzero;stroke:none"
         d="M 263.867,4.82422 V 18.0859 l 28.594,39.5586 V 33.4219 L 263.867,4.82422" /><path
         id="path32"
         style="fill:none;stroke:#ffffff;stroke-width:4;stroke-linecap:butt;stroke-linejoin:miter;stroke-miterlimit:4;stroke-dasharray:none;stroke-opacity:1"
         d="M 263.867,4.82422 V 18.0859 l 28.594,39.5586 V 33.4219 Z" /><path
         id="path34"
         style="fill:#B5BF00;fill-opacity:1;fill-rule:nonzero;stroke:none"
         d="m 12.0039,4.82422 h 251.863 v 13.0586 H 12.0039 Z" /><path
         id="path36"
         style="fill:none;stroke:#ffffff;stroke-width:4;stroke-linecap:butt;stroke-linejoin:miter;stroke-miterlimit:4;stroke-dasharray:none;stroke-opacity:1"
         d="M 263.867,17.8828 V 4.82422 H 12.0039 V 17.8828 Z" /><path
         id="path38"
         style="fill:#B5BF00;fill-opacity:1;fill-rule:nonzero;stroke:none"
         d="M 263.867,17.8828 H 12.0039 L 41.1445,57.6445 H 292.461 L 263.867,17.8828" /><path
         id="path40"
         style="fill:none;stroke:#ffffff;stroke-width:4;stroke-linecap:butt;stroke-linejoin:miter;stroke-miterlimit:4;stroke-dasharray:none;stroke-opacity:1"
         d="M 263.867,17.8828 H 12.0039 L 41.1445,57.6445 H 292.461 Z" /><path
         id="path42"
         style="fill:#B5BF00;fill-opacity:1;fill-rule:nonzero;stroke:none"
         d="M 372.605,161.793 H 57.7734 L 5.03125,111.969 H 319.758 l 52.847,49.824" /><path
         id="path44"
         style="fill:none;stroke:#ffffff;stroke-width:4;stroke-linecap:butt;stroke-linejoin:miter;stroke-miterlimit:4;stroke-dasharray:none;stroke-opacity:1"
         d="M 372.605,161.793 H 57.7734 L 5.03125,111.969 H 319.758 Z" /><path
         id="path46"
         style="fill:#B5BF00;fill-opacity:1;fill-rule:nonzero;stroke:none"
         d="m 61.3281,141.191 h 217.148 V 300.339 H 61.3281 Z" /><path
         id="path48"
         style="fill:none;stroke:#ffffff;stroke-width:4;stroke-linecap:butt;stroke-linejoin:miter;stroke-miterlimit:4;stroke-dasharray:none;stroke-opacity:1"
         d="M 278.477,141.191 V 300.34 H 61.3281 V 141.191 Z" /><path
         id="path50"
         style="fill:#B5BF00;fill-opacity:1;fill-rule:nonzero;stroke:none"
         d="m 79.6563,265.453 c 0,15.969 16.5546,18.332 16.5546,18.332 0,0 127.7271,0 143.0981,0 20.105,0 19.507,-18.922 19.507,-18.922 0,0 0,-78.05 0,-89.289 0,-11.234 -15.371,-15.965 -15.371,-15.965 0,0 -130.672,0 -144.8708,0 -14.1875,0 -18.9179,14.786 -18.9179,14.786 v 91.058" /><path
         id="path52"
         style="fill:none;stroke:#ffffff;stroke-width:4;stroke-linecap:butt;stroke-linejoin:miter;stroke-miterlimit:4;stroke-dasharray:none;stroke-opacity:1"
         d="m 79.6563,265.453 c 0,15.969 16.5546,18.332 16.5546,18.332 0,0 127.7271,0 143.0981,0 20.105,0 19.507,-18.922 19.507,-18.922 0,0 0,-78.05 0,-89.289 0,-11.234 -15.371,-15.965 -15.371,-15.965 0,0 -130.672,0 -144.8708,0 -14.1875,0 -18.9179,14.786 -18.9179,14.786 z" /><path
         id="path54"
         style="fill:#B5BF00;fill-opacity:1;fill-rule:nonzero;stroke:none"
         d="M 314.695,334.637 H 97.6836 L 61.3281,300.34 H 278.477 l 36.218,34.297" /><path
         id="path56"
         style="fill:none;stroke:#ffffff;stroke-width:4;stroke-linecap:butt;stroke-linejoin:miter;stroke-miterlimit:4;stroke-dasharray:none;stroke-opacity:1"
         d="M 314.695,334.637 H 97.6836 L 61.3281,300.34 H 278.477 Z" /><path
         id="path58"
         style="fill:#B5BF00;fill-opacity:1;fill-rule:nonzero;stroke:none"
         d="m 314.707,175.078 v 159.629 l -36.23,-34.066 v -159.45 l 36.23,33.887" /><path
         id="path60"
         style="fill:none;stroke:#ffffff;stroke-width:4;stroke-linecap:butt;stroke-linejoin:miter;stroke-miterlimit:4;stroke-dasharray:none;stroke-opacity:1"
         d="m 314.707,175.078 v 159.629 l -36.23,-34.066 v -159.45 z" /><path
         id="path62"
         style="fill:#000000;fill-opacity:1;fill-rule:nonzero;stroke:none"
         d="M 165.164,218.152 V 189.07 H 150.93 l 20.418,-23.507 21.035,23.507 h -15.469 v 29.082 h -11.75" /><path
         id="path64"
         style="fill:#ffffff;fill-opacity:1;fill-rule:nonzero;stroke:none"
         d="m 160.918,218.418 v -29.082 h -14.23 l 20.421,-23.512 21.036,23.512 h -15.469 v 29.082 h -11.758" /><path
         id="path66"
         style="fill:#000000;fill-opacity:1;fill-rule:nonzero;stroke:none"
         d="m 165.164,226.109 v 29.082 H 150.93 l 20.418,23.508 21.035,-23.508 h -15.469 v -29.082 h -11.75" /><path
         id="path68"
         style="fill:#ffffff;fill-opacity:1;fill-rule:nonzero;stroke:none"
         d="m 160.918,225.844 v 29.082 h -14.23 l 20.421,23.512 21.036,-23.512 h -15.469 v -29.082 h -11.758" /><path
         id="path70"
         style="fill:#000000;fill-opacity:1;fill-rule:nonzero;stroke:none"
         d="m 237.961,211.43 h -29.082 v -14.227 l -23.52,20.414 23.52,21.039 v -15.468 h 29.082 V 211.43" /><path
         id="path72"
         style="fill:#ffffff;fill-opacity:1;fill-rule:nonzero;stroke:none"
         d="m 234.688,215.496 h -29.083 v -14.23 l -23.515,20.418 23.515,21.043 v -15.469 h 29.083 v -11.762" /><path
         id="path74"
         style="fill:#000000;fill-opacity:1;fill-rule:nonzero;stroke:none"
         d="m 102.434,211.43 h 29.082 v -14.227 l 23.504,20.414 -23.504,21.039 V 223.188 H 102.434 V 211.43" /><path
         id="path76"
         style="fill:#ffffff;fill-opacity:1;fill-rule:nonzero;stroke:none"
         d="m 101.277,215.496 h 29.082 v -14.23 l 23.52,20.418 -23.52,21.043 v -15.469 h -29.082 v -11.762" /></g></g></svg>