<?xml version="1.0" encoding="utf-8"?>
<!-- Generator: Adobe Illustrator 20.1.0, SVG Export Plug-In . SVG Version: 6.00 Build 0)  -->
<svg version="1.1" id="svg1306" xmlns:svg="http://www.w3.org/2000/svg"
	 xmlns="http://www.w3.org/2000/svg" xmlns:xlink="http://www.w3.org/1999/xlink" x="0px" y="0px" viewBox="0 0 640.6 109.1"
	 style="enable-background:new 0 0 640.6 109.1;" xml:space="preserve">
<style type="text/css">
	.st0{fill:none;stroke:#000000;stroke-width:2.1539;stroke-linecap:round;stroke-linejoin:round;}
	.st1{fill:none;stroke:#000000;stroke-width:1.074;}
	.st2{fill:none;stroke:#000000;stroke-width:1.2402;}
	.st3{font-family:'ArialMT';}
	.st4{font-size:9.7096px;}
</style>
<path id="path1668" class="st0" d="M1.1,1.1h638.5v107H1.1V1.1"/>
<path id="path1734" class="st1" d="M249.1,1.1v106.3"/>
<path id="path1678" class="st2" d="M461.7,1.1v106.3"/>
<path id="path1682" class="st2" d="M639.5,71.3l-177.8,0.6"/>
<path id="path1684" class="st2" d="M638.3,37.1l-389.1-0.6"/>
<path id="path1692" class="st2" d="M604.1,71.9v35.4"/>
<path id="path1696" class="st2" d="M497.8,72.6V108"/>
<text id="Document_Author" transform="matrix(1.0607 0 0 1 251.8557 11.5928)" class="st3 st4">Document Author</text>
<text transform="matrix(1.0607 0 0 1 251.967 47.0035)" class="st3 st4">Title</text>
<text transform="matrix(1.0607 0 0 1 464.4553 11.5704)" class="st3 st4">Document status</text>
<text transform="matrix(1.0607 0 0 1 464.4553 47.026)" class="st3 st4">Identification number</text>
<text transform="matrix(1.0607 0 0 1 465.2639 82.4586)" class="st3 st4">Rev.</text>
<text transform="matrix(1.0607 0 0 1 500.3118 82.6451)" class="st3 st4">Date of issue</text>
<text transform="matrix(1.0607 0 0 1 606.2268 82.4586)" class="st3 st4">Sheet</text>
</svg>
