<?xml version="1.0" encoding="utf-8"?>
<!-- Generator: Adobe Illustrator 20.1.0, SVG Export Plug-In . SVG Version: 6.00 Build 0)  -->
<svg version="1.1" id="svg1306" xmlns:svg="http://www.w3.org/2000/svg"
	 xmlns="http://www.w3.org/2000/svg" xmlns:xlink="http://www.w3.org/1999/xlink" x="0px" y="0px" viewBox="0 0 641.3 145.3"
	 style="enable-background:new 0 0 641.3 145.3;" xml:space="preserve">
<style type="text/css">
	.st0{fill:none;stroke:#000000;stroke-width:2.4803;stroke-linecap:round;stroke-linejoin:round;}
	.st1{fill:none;stroke:#000000;stroke-width:1.2402;}
	.st2{font-family:'ArialMT';}
	.st3{font-size:9.7096px;}
</style>
<path id="path1668" class="st0" d="M1.5,1.7h638.5v141.9H1.5V1.7"/>
<path id="path1734" class="st1" d="M249.5,1.2v141.7"/>
<path id="path1678" class="st1" d="M462.1,36.6v106.3"/>
<path id="path1680" class="st1" d="M639.2,36.6H1.5"/>
<path id="path1682" class="st1" d="M639.9,106.8l-177.8,0.6"/>
<path id="path1684" class="st1" d="M638.6,72.6L249.5,72"/>
<path id="path1686" class="st1" d="M98.9,1.2v35.2"/>
<path id="path1688" class="st1" d="M408.9,1.2v35.4"/>
<path id="path1690" class="st1" d="M559.5,1.2v35.4"/>
<path id="path1692" class="st1" d="M604.4,107.5v35.4"/>
<path id="path1696" class="st1" d="M498.1,108.1v35.4"/>
<text transform="matrix(1.0607 0 0 1 4.9502 11.6729)" class="st2 st3">Responsible dep.</text>
<text transform="matrix(1.0607 0 0 1 100.4233 11.6729)" class="st2 st3">Technical reference</text>
<text transform="matrix(1.0607 0 0 1 252.2119 11.6504)" class="st2 st3">Creator</text>
<text transform="matrix(1.0607 0 0 1 411.9268 11.769)" class="st2 st3">Approval person</text>
<text transform="matrix(1.0607 0 0 1 252.2314 47.106)" class="st2 st3">Document type</text>
<text transform="matrix(1.0607 0 0 1 252.3428 82.5166)" class="st2 st3">Title</text>
<text transform="matrix(1.0607 0 0 1 464.8311 47.0835)" class="st2 st3">Document status</text>
<text transform="matrix(1.0607 0 0 1 464.8311 82.5391)" class="st2 st3">Identification number</text>
<text transform="matrix(1.0607 0 0 1 465.6396 117.9717)" class="st2 st3">Rev.</text>
<text transform="matrix(1.0607 0 0 1 500.6875 118.1582)" class="st2 st3">Date of issue</text>
<text transform="matrix(1.0607 0 0 1 606.6025 117.9717)" class="st2 st3">Sheet</text>
</svg>
