<?xml version="1.0" encoding="UTF-8" standalone="no"?>
<svg
   xmlns:dc="http://purl.org/dc/elements/1.1/"
   xmlns:cc="http://creativecommons.org/ns#"
   xmlns:rdf="http://www.w3.org/1999/02/22-rdf-syntax-ns#"
   xmlns:svg="http://www.w3.org/2000/svg"
   xmlns="http://www.w3.org/2000/svg"
   version="1.1"
   id="svg2"
   xml:space="preserve"
   width="49.586666"
   height="47.360001"
   viewBox="0 0 49.586666 47.360001"><metadata
     id="metadata8"><rdf:RDF><cc:Work
         rdf:about=""><dc:format>image/svg+xml</dc:format><dc:type
           rdf:resource="http://purl.org/dc/dcmitype/StillImage" /></cc:Work></rdf:RDF></metadata><defs
     id="defs6" /><g
     id="g904"><path
       id="path14"
       style="fill:#000000;fill-opacity:1;fill-rule:nonzero;stroke:none;stroke-width:0.13333333"
       d="m 49.313999,9.8094676 c 0,5.2682664 -10.979067,9.5365334 -24.523333,9.5365334 -13.544306,0 -24.52399934,-4.268267 -24.52399934,-9.5365334 V 20.950134 c 0,5.268133 10.97969334,9.537466 24.52399934,9.537466 13.544266,0 24.523333,-4.269333 24.523333,-9.537466 V 9.8094676" /><path
       id="path16"
       style="fill:none;stroke:#FFFFFF;stroke-width:0.5333333;stroke-linecap:butt;stroke-linejoin:miter;stroke-miterlimit:4;stroke-dasharray:none;stroke-opacity:1"
       d="m 49.313999,9.8094676 c 0,5.2682664 -10.979067,9.5365334 -24.523333,9.5365334 -13.544306,0 -24.52399934,-4.268267 -24.52399934,-9.5365334 V 20.950134 c 0,5.268133 10.97969334,9.537466 24.52399934,9.537466 13.544266,0 24.523333,-4.269333 24.523333,-9.537466 z" /><path
       id="path18"
       style="fill:#000000;fill-opacity:1;fill-rule:nonzero;stroke:none;stroke-width:0.13333333"
       d="m 49.313999,20.759467 c 0,5.2672 -10.979067,9.536933 -24.523333,9.536933 -13.544306,0 -24.52399934,-4.269733 -24.52399934,-9.536933 V 37.55688 c 0,5.266667 10.97969334,9.535932 24.52399934,9.535932 13.544266,0 24.523333,-4.269265 24.523333,-9.535932 V 20.759467" /><path
       id="path20"
       style="fill:none;stroke:#FFFFFF;stroke-width:0.5333333;stroke-linecap:butt;stroke-linejoin:miter;stroke-miterlimit:4;stroke-dasharray:none;stroke-opacity:1"
       d="m 49.313999,20.759467 c 0,5.2672 -10.979067,9.536933 -24.523333,9.536933 -13.544306,0 -24.52399934,-4.269733 -24.52399934,-9.536933 V 37.55688 c 0,5.266667 10.97969334,9.535932 24.52399934,9.535932 13.544266,0 24.523333,-4.269265 24.523333,-9.535932 z" /><path
       id="path22"
       style="fill:#000000;fill-opacity:1;fill-rule:nonzero;stroke:none;stroke-width:0.13333333"
       d="m 24.790666,19.346001 c 13.544266,0 24.523333,-4.268267 24.523333,-9.5365334 0,-5.2671999 -10.979067,-9.53639976 -24.523333,-9.53639976 -13.544306,0 -24.52399934,4.26919986 -24.52399934,9.53639976 0,5.2682664 10.97969334,9.5365334 24.52399934,9.5365334" /><path
       id="path24"
       style="fill:none;stroke:#FFFFFF;stroke-width:0.5333333;stroke-linecap:butt;stroke-linejoin:miter;stroke-miterlimit:4;stroke-dasharray:none;stroke-opacity:1"
       d="m 24.790666,19.346001 c 13.544266,0 24.523333,-4.268267 24.523333,-9.5365334 0,-5.2671999 -10.979067,-9.53639976 -24.523333,-9.53639976 -13.544306,0 -24.52399934,4.26919986 -24.52399934,9.53639976 0,5.2682664 10.97969334,9.5365334 24.52399934,9.5365334 z" /><path
       id="path26"
       style="fill:#FFFFFF;fill-opacity:1;fill-rule:nonzero;stroke:none;stroke-width:0.13333333"
       d="m 19.190133,6.0802677 2.0244,3.0390666 L 13.5584,10.887601 15.231733,9.4944009 3.3994799,7.473601 6.3671865,5.2469344 17.785466,7.1818677 l 1.404667,-1.1016" /><path
       id="path28"
       style="fill:#FFFFFF;fill-opacity:1;fill-rule:nonzero;stroke:none;stroke-width:0.13333333"
       d="m 29.963599,13.447468 -1.381866,-3.131734 6.906266,-1.3811997 -1.197333,1.0738667 11.5104,1.9652 -2.762,2.210933 -11.441733,-2.148533 -1.633734,1.411467" /><path
       id="path30"
       style="fill:#FFFFFF;fill-opacity:1;fill-rule:nonzero;stroke:none;stroke-width:0.13333333"
       d="m 26.188533,4.4225344 7.734933,-2.1182666 0.09053,3.3150666 -1.932266,-0.3672 -3.775467,3.1302666 -3.602133,-0.5250667 3.8964,-3.0634666 -2.412,-0.3713333" /><path
       id="path32"
       style="fill:#FFFFFF;fill-opacity:1;fill-rule:nonzero;stroke:none;stroke-width:0.13333333"
       d="m 22.873999,16.301601 -7.367199,1.379733 -0.276134,-3.406267 2.116667,0.461467 4.055333,-3.463466 3.588533,0.607733 -4.328133,3.775066 2.210933,0.645734" /><path
       id="path34"
       style="fill:#000000;fill-opacity:1;fill-rule:nonzero;stroke:none;stroke-width:0.13333333"
       d="m 0.82916665,23.793867 c 2.54583325,4.268267 11.52500635,7.164 23.46349935,7.164 11.621333,0 21.686533,-3.222933 24.506799,-7.304666 l -0.02347,-2.802 c 0,4.650933 -11.5676,8.773333 -24.483333,8.773333 -12.915066,0 -22.9254794,-3.9948 -23.57756202,-8.44 l 0.11406267,2.609333" /><path
       id="path36"
       style="fill:#000000;fill-opacity:1;fill-rule:nonzero;stroke:none;stroke-width:0.13333333"
       d="m 22.391733,27.8616 v 1.204134 h -4.1928 l 6.1928,8.040626 6.1916,-8.040626 H 26.386399 V 27.8616 h -3.994666" /><path
       id="path38"
       style="fill:#FFFFFF;fill-opacity:1;fill-rule:nonzero;stroke:none;stroke-width:0.13333333"
       d="m 18.507866,43.96312 14.666667,-14.66672 -1.324,-0.739466 -14.669867,14.665039 1.3272,0.741147" /><path
       id="path40"
       style="fill:#FFFFFF;fill-opacity:1;fill-rule:nonzero;stroke:none;stroke-width:0.13333333"
       d="m 30.278666,43.76104 -14.526,-14.487973 1.311334,-0.7552 14.527199,14.48796 -1.312533,0.755213" /><path
       id="path42"
       style="fill:#FFFFFF;fill-opacity:1;fill-rule:nonzero;stroke:none;stroke-width:0.13333333"
       d="m 26.438533,42.996973 -0.02027,1.330734 c 3.9568,-0.220307 9.693733,-0.82292 12.943733,-1.739587 l 0.02347,-1.284373 c -3.157334,0.892186 -9.0844,1.47708 -12.946933,1.693226" /><path
       id="path44"
       style="fill:#FFFFFF;fill-opacity:1;fill-rule:nonzero;stroke:none;stroke-width:0.13333333"
       d="m 10.294266,42.60844 c 3.124,0.87656 8.319334,1.464053 12.1052,1.69844 l 0.08333,-1.235947 C 18.4792,42.822493 13.059893,42.08292 10.364586,41.325107 l -0.07032,1.283333" /><path
       id="path46"
       style="fill:#FFFFFF;fill-opacity:1;fill-rule:nonzero;stroke:none;stroke-width:0.13333333"
       d="m 9.9088531,28.5308 c 3.1354129,0.914134 8.3646129,1.532267 12.2056799,1.789067 L 22.106799,28.9892 C 18.047866,28.718267 12.60156,28.038667 9.8958398,27.249601 l 0.013013,1.281199" /><path
       id="path48"
       style="fill:#FFFFFF;fill-opacity:1;fill-rule:nonzero;stroke:none;stroke-width:0.13333333"
       d="M 26.520799,29.028267 26.401066,30.3584 c 4.080667,-0.224933 9.9192,-0.8536 13.240666,-1.819733 l 0.01293,-1.280266 c -3.22493,0.937599 -9.153063,1.549466 -13.133863,1.769866" /><path
       id="path50"
       style="fill:#FFFFFF;fill-opacity:1;fill-rule:nonzero;stroke:none;stroke-width:0.13333333"
       d="m 13.809866,36.897494 1.9532,0.341666 -0.950533,-3.195306 -0.0208,-0.0026 z m -0.959346,2.734386 -1.685414,-0.29376 2.73076,-7.182253 1.845334,0.322933 2.698933,8.12964 -1.7396,-0.304693 -0.4896,-1.663533 -2.826533,-0.49376 -0.53388,1.485426" /><path
       id="path52"
       style="fill:#FFFFFF;fill-opacity:1;fill-rule:nonzero;stroke:none;stroke-width:0.13333333"
       d="m 34.967732,35.996974 c 1.195334,-0.168227 1.195334,-1.021347 1.195334,-1.361974 0,-0.747933 -0.416667,-0.997933 -1.409467,-0.858333 l -1.2692,0.178667 v 2.251026 z m -1.483333,4.29428 -1.598933,0.22656 V 32.8584 l 3.498933,-0.4932 c 1.4812,-0.209333 2.3776,0.6136 2.3776,2.1172 0,0.693747 -0.3844,2.497387 -2.442667,2.787494 l -1.834933,0.259373 v 2.761987" /></g></svg>