<?xml version="1.0" encoding="utf-8"?>
<!-- Generator: Adobe Illustrator 20.1.0, SVG Export Plug-In . SVG Version: 6.00 Build 0)  -->
<svg version="1.1" id="Layer_1" xmlns="http://www.w3.org/2000/svg" xmlns:xlink="http://www.w3.org/1999/xlink" x="0px" y="0px"
	 viewBox="0 0 50.8 47.9" style="enable-background:new 0 0 50.8 47.9;" xml:space="preserve">
<style type="text/css">
	.st0{fill:#000000;stroke:#FFFFFF;stroke-width:0.8;}
	.st1{fill:#000000;}
	.st2{fill:none;stroke:#FFFFFF;stroke-width:0.8;}
	.st3{fill:#FFFFFF;stroke:#000000;stroke-width:0.8;}
</style>
<g>
	<polygon class="st0" points="49.3,0.4 48.1,1.1 1.4,1.1 2.6,0.4 	"/>
	<polygon class="st1" points="49.3,46.7 49.3,0.4 48.1,1.3 48.1,47.9 	"/>
	<polygon class="st1" points="3.5,47.9 48.1,47.9 48.1,1.1 1.4,1.1 1.4,45.7 	"/>
	<g>
		<path class="st2" d="M44.6,1.1v26.9c0,2-1.6,1.6-1.6,1.6H6.4c0,0-1.4,0.2-1.4-1.4V1.1"/>
	</g>
	<g>
		<rect x="2.1" y="3.8" class="st2" width="2.1" height="2.1"/>
	</g>
	<g>
		<rect x="45.3" y="3.8" class="st2" width="2.1" height="2.1"/>
	</g>
	<g>
		<path class="st3" d="M37,34.2v13.1H9.2V34.1c0-1.4,1.6-1.2,1.6-1.2h24.8C37.2,32.8,37,34.2,37,34.2z"/>
		<path class="st2" d="M44.6,47.9V34.2c0,0,0.2-1.4-1.4-1.4H10.9c0,0-1.6-0.2-1.6,1.2V47"/>
	</g>
	<g>
		<rect x="14.6" y="33.7" class="st0" width="5.5" height="12.7"/>
	</g>
	<line class="st2" x1="48.1" y1="1.3" x2="49.4" y2="0.4"/>
</g>
</svg>
