<?xml version="1.0" encoding="utf-8"?>
<!-- Generator: Adobe Illustrator 20.1.0, SVG Export Plug-In . SVG Version: 6.00 Build 0)  -->
<svg version="1.1" id="Layer_1" xmlns="http://www.w3.org/2000/svg" xmlns:xlink="http://www.w3.org/1999/xlink" x="0px" y="0px"
	 viewBox="0 0 87.1 63.2" style="enable-background:new 0 0 87.1 63.2;" xml:space="preserve">
<style type="text/css">
	.st0{fill:#000000;stroke:#FFFFFF;stroke-width:0.8;}
	.st1{fill:#FFFFFF;}
	.st2{fill:none;stroke:#FFFFFF;stroke-width:0.8;}
</style>
<g>
	<g>
		<rect x="1.1" y="11.8" class="st0" width="76.3" height="50.1"/>
		<polygon class="st0" points="86.2,49 77.4,61.9 77.4,11.8 86.2,1.1 		"/>
		<polygon class="st0" points="14.3,1.1 86.2,1.1 77.4,11.8 1.1,11.8 		"/>
		<g>
			<polygon class="st1" points="24.6,38.9 11.8,38.9 11.8,36.9 24.6,36.9 24.6,33.7 32,37.9 24.6,42.1 			"/>
		</g>
		<g>
			<polygon class="st1" points="51.2,38.9 38.4,38.9 38.4,36.9 51.2,36.9 51.2,33.7 58.6,37.9 51.2,42.1 			"/>
		</g>
		<g>
			<polygon class="st1" points="49,28.7 38.3,35.7 37.2,34 47.9,27 46.2,24.3 54.6,23.8 50.7,31.4 			"/>
		</g>
		<g>
			<polygon class="st1" points="49,47 38.3,40 37.2,41.8 47.9,48.7 46.2,51.4 54.6,51.9 50.7,44.4 			"/>
		</g>
	</g>
	<g>
		<path class="st2" d="M28.4,21.4c-12.3-2.5-18.8,3.8-17.8,9.3l0.1,0.3c-9.6,1.6-7.1,13-2.5,13l0.5,0C7.5,49.3,18.7,54.7,25,52
			l0.4-0.4c2.2,4.8,10.1,5.6,18,5.8C50.1,57.5,54.1,57,57,54l0.4,0.1c10.9,0.9,15.8-6.6,13.4-12l0.6-0.2c3.7-1,4.1-9.5-2.2-10.8
			l0.1-0.3c2.8-5.6-3.7-10.8-12.8-9.8L56,20.7c-6.5-5.9-25.1-4.9-27.2,0.9L28.4,21.4z"/>
	</g>
</g>
</svg>
