<?xml version="1.0" encoding="utf-8"?>
<!-- Generator: Adobe Illustrator 20.1.0, SVG Export Plug-In . SVG Version: 6.00 Build 0)  -->
<svg version="1.1" id="Layer_1" xmlns="http://www.w3.org/2000/svg" xmlns:xlink="http://www.w3.org/1999/xlink" x="0px" y="0px"
	 viewBox="0 0 48.3 67.8" style="enable-background:new 0 0 48.3 67.8;" xml:space="preserve">
<style type="text/css">
	.st0{fill:#000000;stroke:#FFFFFF;stroke-width:0.8;}
</style>
<g>
	<g>
		<g>
			<g>
				<polygon class="st0" points="36.9,11.7 19,11.7 19.1,65.1 36.9,65.1 				"/>
				<rect x="21.6" y="19.1" class="st0" width="12.6" height="12.1"/>
			</g>
			<polygon class="st0" points="47.5,1 36.9,12 36.9,65.2 47.4,52.6 			"/>
		</g>
		<line class="st0" x1="3.5" y1="11.4" x2="18.1" y2="11.4"/>
		<line class="st0" x1="21.1" y1="9.7" x2="27.8" y2="2.3"/>
	</g>
	<path class="st0" d="M18.4,12.5c0,0-0.1,3.5-6.5,3.5L0.5,14.3v-0.7l16-12.8l30.8,0L37,11.7H19.1"/>
	<path class="st0" d="M19,11.9c0,0-5.2,3-11.1,2.4l-7.5-0.6v53.3l7.5,0.3c7.6,0.7,11.1-2.1,11.1-2.1L19,11.9z"/>
	<line class="st0" x1="3.7" y1="11.2" x2="18.3" y2="11.2"/>
	<line class="st0" x1="22.6" y1="9.4" x2="30.6" y2="2"/>
</g>
</svg>
