<?xml version="1.0" encoding="utf-8"?>
<!-- Generator: Adobe Illustrator 20.1.0, SVG Export Plug-In . SVG Version: 6.00 Build 0)  -->
<svg version="1.1" id="Layer_1" xmlns="http://www.w3.org/2000/svg" xmlns:xlink="http://www.w3.org/1999/xlink" x="0px" y="0px"
	 viewBox="0 0 75.4 50.1" style="enable-background:new 0 0 75.4 50.1;" xml:space="preserve">
<style type="text/css">
	.st0{fill:#000000;stroke:#FFFFFF;stroke-width:0.8;}
	.st1{fill:#FFFFFF;}
	.st2{fill:#FFFFFF;stroke:#000000;stroke-width:0.4356;}
	.st3{fill:none;stroke:#FFFFFF;stroke-width:1.936;stroke-linecap:round;}
	.st4{fill:none;stroke:#FFFFFF;stroke-width:3;stroke-linecap:round;}
</style>
<g>
	<rect x="1" y="14.5" class="st0" width="60.7" height="34.4"/>
	<polygon class="st0" points="61.8,49.1 61.8,14.7 74.4,1 74.4,35.2 	"/>
	<polygon class="st0" points="61.8,14.5 1,14.5 16.1,1 74.5,1 	"/>
	<g>
		<polygon class="st1" points="13.8,27.2 2.9,27.2 2.9,25.2 13.8,25.2 13.8,22 20.1,26.2 13.8,30.4 		"/>
	</g>
	<g>
		<polygon class="st1" points="53.3,21.9 44.1,21.9 44.1,20.2 53.3,20.1 53.3,17.5 58.7,21 53.3,24.6 		"/>
	</g>
	<g>
		<polygon class="st1" points="53.3,32.6 44.1,32.6 44.1,30.9 53.3,30.9 53.3,28.2 58.7,31.8 53.3,35.3 		"/>
	</g>
	<g>
		<polygon class="st1" points="53.3,43.4 44.1,43.4 44.1,41.7 53.3,41.7 53.3,39 58.7,42.5 53.3,46.1 		"/>
	</g>
	<rect x="21.6" y="20.6" class="st1" width="15.4" height="13.1"/>
	<rect x="38.4" y="22.3" class="st2" width="3.1" height="5.9"/>
	<polyline class="st3" points="23.6,42 29.3,27.1 35.2,42.1 	"/>
	<line class="st4" x1="33.6" y1="25.4" x2="38.3" y2="25.4"/>
</g>
</svg>
