<?xml version="1.0" encoding="UTF-8" standalone="no"?>
<svg
   xmlns:dc="http://purl.org/dc/elements/1.1/"
   xmlns:cc="http://creativecommons.org/ns#"
   xmlns:rdf="http://www.w3.org/1999/02/22-rdf-syntax-ns#"
   xmlns:svg="http://www.w3.org/2000/svg"
   xmlns="http://www.w3.org/2000/svg"
   version="1.1"
   id="svg2"
   xml:space="preserve"
   width="66.346664"
   height="97.199997"
   viewBox="0 0 66.346664 97.199997"><metadata
     id="metadata8"><rdf:RDF><cc:Work
         rdf:about=""><dc:format>image/svg+xml</dc:format><dc:type
           rdf:resource="http://purl.org/dc/dcmitype/StillImage" /><dc:title /></cc:Work></rdf:RDF></metadata><defs
     id="defs6" /><g
     id="g950"><path
       id="path14"
       style="fill:#000000;fill-opacity:1;fill-rule:nonzero;stroke:none;stroke-width:0.13333333"
       d="m 39.749999,86.07396 -1.415067,3.106774 c 0,0 0,1.333333 1.8672,0.666666 l 1.6,-0.666666 1.733334,-2 0.282266,-0.12136 c 0.038,-0.5974 0.08693,-1.20312 0.216134,-1.809894 0.224,-1.057293 -0.1292,-2.190146 0.203066,-3.14068 0.8412,-2.4036 1.664134,-4.768133 2.546933,-7.158799 0.689067,-1.864534 -0.314133,-4.052134 0.4088,-5.8932 l -5.171866,-1.664134 c -0.3568,5.539067 -0.4296,11.023467 -0.704667,16.539107 -0.4968,0.760413 -1.040133,1.463533 -1.585466,2.161453 l 0.01933,-0.01927" /><path
       id="path16"
       style="fill:#000000;fill-opacity:1;fill-rule:nonzero;stroke:none;stroke-width:0.13333333"
       d="m 53.848932,85.666147 v 0 l 0.06613,0.59896 1.467734,1.867187 2.399466,2 1.600534,-0.132814 c 0.399466,-1.067706 0.929733,-1.334893 0.929733,-1.334893 -0.971333,-0.912507 -2.183333,-1.566147 -2.7256,-2.866667 -0.340533,-0.81928 -0.581733,-1.72032 -0.553067,-2.527653 0.182267,-5.257733 0.713467,-10.44 1.264,-15.731733 l -5.5156,1.328133 c -0.469733,0.2292 -0.273466,0.7568 -0.304133,1.075467 -0.121333,1.2292 -0.313067,2.466133 -0.03027,3.7084 0.2552,1.1208 0.7084,2.1224 0.903734,3.231733 0.5224,2.9704 0.7396,5.8464 0.497333,8.78388" /><path
       style="fill:#FFFFFF;stroke:#ffffff;stroke-width:0.5;stroke-linecap:butt;stroke-linejoin:miter;stroke-opacity:1;stroke-miterlimit:4;stroke-dasharray:none"
       d="m 13.04948,12.933869 v -1.2 L 11.583333,7.8672022 12.887021,6.990852 14.343181,3.1320266 18.311219,0.76576573 21.551176,3.3140467 20.382799,6.2672023 20.67748,8.1193764 v 1.2013325 l -0.291233,1.3469481 -0.509656,0.728081 -0.473252,0.400444 -0.837292,0.36404 -0.910101,0.0364 0.400445,0.618868 0.659742,1.118375 -1.333333,2.466666 z"
       id="path916" /><path
       id="path18"
       style="fill:#000000;fill-opacity:1;fill-rule:nonzero;stroke:none;stroke-width:0.13333333"
       d="m 14.789066,3.4625357 c 0.202134,0.2484 0.287467,0.5858666 0.311467,0.8134666 0.113067,1.0713333 -0.2776,2.1609333 -0.663067,3.1609333 -0.09733,0.2557333 -0.08693,0.9390666 -0.3932,0.7376 -0.3516,-0.2318667 -0.649466,-0.7584 -1.023426,-0.8896 -0.46876,-0.1641333 -0.9698,0.314 -1.437507,0.5822666 C 12.44636,9.0297355 13.5052,10.216136 13.04948,11.733869 11.95208,10.108802 10.794266,8.5016022 9.9765598,6.7416023 9.5312531,5.7833356 9.7041731,4.383869 10.285413,3.590669 c 0.89428,-1.2234666 2.24428,-2.2583999 3.736453,-2.63653326 2.012,-0.51146665 4.0172,-0.92959998 6.093733,-0.95306664 -1.870799,0.93586664 -3.644266,1.8369333 -5.443733,3.0989333 -0.0964,0.067733 0.02507,0.2483999 0.1172,0.3625333" /><path
       id="path20"
       style="fill:#000000;fill-opacity:1;fill-rule:nonzero;stroke:none;stroke-width:0.13333333"
       d="m 21.864533,3.608269 c -0.471334,0.9177333 -0.9208,1.8094666 -1.481734,2.6589333 0.03653,-0.1297334 -0.0312,-0.2317334 -0.1364,-0.2505334 -0.265733,-0.047867 -0.615199,0.074533 -0.751599,-0.061467 -0.135467,-0.1358667 -0.135467,-0.5630667 0,-0.714 0.1536,-0.1709333 0.646933,0.089067 0.675466,0.043733 0.914667,-1.4703999 -0.772933,-2.6666666 -1.388,-3.9505332 1.355733,-0.028133 2.4428,0.8724 3.733333,1.0661333 -0.2656,0.3754667 -0.439066,0.7958667 -0.651066,1.2077333" /><path
       id="path22"
       style="fill:#000000;fill-opacity:1;fill-rule:nonzero;stroke:none;stroke-width:0.13333333"
       d="m 16.780266,6.1478689 c -0.221866,-0.042133 -0.576133,0.0276 -0.595333,-0.034267 -0.388,-1.2958667 1.3948,-0.6876 2.197867,-1.0464 -0.192667,0.8494666 -0.695334,1.2525333 -1.602534,1.0806666" /><path
       id="path24"
       style="fill:#000000;fill-opacity:1;fill-rule:nonzero;stroke:none;stroke-width:0.13333333"
       d="m 19.049466,8.2672022 c -0.311466,0 -0.6224,0 -0.933866,0 0.3672,-0.3166666 0.7568,-0.5994666 1.200533,-0.8 -0.04787,0.2822667 0.03547,0.5421334 0.1328,0.8 -0.1328,0 -0.265067,0 -0.399467,0" /><path
       id="path26"
       style="fill:#000000;fill-opacity:1;fill-rule:nonzero;stroke:none;stroke-width:0.13333333"
       d="m 18.782266,9.8672022 c -0.6224,0 -1.2432,0 -1.8656,0 0.226534,-0.2125333 0.579734,-0.2917333 0.8084,-0.3182667 0.594267,-0.067733 1.380134,-0.4916 1.858267,0.3182667 -0.2672,0 -0.533867,0 -0.801067,0" /><path
       id="path28"
       style="fill:#000000;fill-opacity:1;fill-rule:nonzero;stroke:none;stroke-width:0.13333333"
       d="m 18.6364,10.432269 c 0.4496,0.1896 -0.188534,0.196933 -0.1208,0.368266 -0.348934,0.0792 -0.459334,-0.2396 -0.666667,-0.399999 0.266667,0 0.558933,-0.06453 0.787467,0.03173" /><path
       id="path30"
       style="fill:#000000;fill-opacity:1;fill-rule:nonzero;stroke:none;stroke-width:0.13333333"
       d="m 23.716133,92.39896 c 1.7604,1.163013 3.474,2.389587 5.200533,3.600519 -0.2568,0.205729 -0.173467,0.725521 -0.401067,0.726562 -1.416666,0.01042 -2.835866,0.0625 -4.2516,-0.155208 -1.3004,-0.198958 -2.388,-1.0349 -3.64,-1.417713 -0.203733,-0.06249 -0.226666,0.59376 -0.3912,0.627613 -1.052133,0.20833 -2.178133,-0.14324 -2.946399,-0.72032 -0.592667,-0.443746 0.0063,-1.586973 -0.394667,-2.382813 l 6.8244,-0.27864" /><path
       id="path32"
       style="fill:#000000;fill-opacity:1;fill-rule:nonzero;stroke:none;stroke-width:0.13333333"
       d="m 16.891733,92.6776 c -0.01773,-0.03593 -0.212,-0.0089 -0.212,-0.01301 C 16.2864,80.650534 16.4964,68.668801 16.1156,56.666134 c -1.931734,11.7276 -3.44476,23.092666 -5.705187,35.179693 -0.04167,0.2198 -0.8177066,0.09115 -0.8791599,0.434906 L 3.7098932,92.188027 C 3.9244799,91.80156 3.5171866,91.04896 3.5885466,90.40052 c 0.69896,-6.388026 1.5130133,-12.601586 1.8343733,-18.942653 0.32552,-6.448 0.4885333,-12.867199 0.7958266,-19.319866 0.054693,-1.1464 0.5625067,-2.321333 0.4609467,-3.462 -0.031253,-0.364 -0.6302134,-0.5724 -1.09636,-0.676 0.4442666,-1.074533 0.57292,-2.235466 0.9338533,-3.333333 C 4.5635466,42.574001 2.5041733,40.718268 0.78489598,38.304135 0.23333333,37.529735 -0.05364587,36.395868 0,35.475468 c 0.32031199,-5.5916 1.60052,-11.056666 1.5833333,-16.675466 2.7265599,-1.719733 5.9723998,-2.129733 8.8749997,-3.4588 1.07812,-0.493867 2.19896,-1.140667 2.591147,-2.407333 1.48172,1.036933 2.682253,2.440666 4.304653,3.258266 0.149467,0.0756 0.266667,-0.346266 0.362,-0.5916 0.04587,0.0448 0.08853,0.08853 0.1328,0.133334 0.1484,-0.4308 0.144267,-0.744267 0.533867,-1.0672 -0.09373,-0.064 -0.202134,-0.166667 -0.1172,-0.25 0.25,-0.243734 0.287466,-0.5844 0.516666,-0.816134 0.243734,0.4688 0.687467,0.805734 1.100534,0.995334 2.301066,1.0552 4.639066,1.895733 7.005199,2.8104 0.8412,0.325466 1.775067,0.918266 2.135467,1.609866 0.262933,0.506267 -0.07653,1.4084 -0.254133,2.1812 -0.207867,0.915734 -0.412534,1.8068 -0.416667,2.669867 -0.022,3.9364 1.061333,7.7968 1.363467,11.733333 -1.702134,2.143733 -2.971334,4.560933 -4.533867,6.799466 0.3396,1.892667 1.2328,3.734934 1.174533,5.5948 -0.0052,0.158267 -1.035466,0.355734 -1.0428,0.675467 -0.05613,2.157333 0.373467,4.333866 0.247467,6.528133 -0.714133,12.441733 -0.736,24.820933 -1.845333,37.200559 l -6.8244,0.27864" /><path
       id="path34"
       style="fill:#000000;fill-opacity:1;fill-rule:nonzero;stroke:none;stroke-width:0.13333333"
       d="M 9.5312531,92.280733 C 9.3932264,93.059373 9.8734398,93.99688 9.4598931,94.5776 8.9010398,95.363027 7.8593731,95.7 6.9453065,96.186979 6.6234398,96.358855 6.8046932,97.085417 6.3765598,97.132292 4.5973999,97.33125 2.8281199,97.2 1.0494786,97.2 1.092708,96.353645 0.87499998,95.393747 1.3010413,94.742707 1.95052,93.754693 3.1625066,93.17396 3.7098932,92.188027 l 5.8213599,0.09271" /><path
       id="path36"
       style="fill:#000000;fill-opacity:1;fill-rule:nonzero;stroke:none;stroke-width:0.13333333"
       d="m 7.6796931,34.001068 c -0.030213,-1.5636 -0.2265733,-3.121866 -0.4958399,-4.667733 -0.6203067,1.4964 -0.9208267,3.15 -0.8906267,4.6636 0.011467,0.64 0.80208,1.335333 1.2901066,2.003067 0.32552,-0.6484 0.1093734,-1.337467 0.09636,-1.998934" /><path
       id="path38"
       style="fill:#000000;fill-opacity:1;fill-rule:nonzero;stroke:none;stroke-width:0.13333333"
       d="m 43.049466,17.733869 c -0.4192,-0.4532 -1.203067,-0.4584 -1.200534,-1.2 0.4636,0.0025 0.932267,0.03907 1.333334,-0.266667 -0.783867,-0.289067 -1.178667,-1 -1.2568,-1.741733 -0.0104,-0.0932 0.171866,-0.4812 0.317733,-0.4672 0.321867,0.02867 0.336533,0.574 0.676133,0.735466 0.121334,0.05733 0.223867,-0.024 0.25,-0.130133 0.1,-0.4136 -0.04693,-0.7996 -0.119866,-1.196933 0.436533,0.140133 1.2396,0.3088 1.2344,-0.131734 -0.0079,-0.656266 -0.924534,-1.3844 -0.3584,-1.919866 0.161466,-0.1536 0.806266,0.6672 0.866266,0.1704 0.0572,-0.473467 -0.635466,-1.034934 -0.588666,-1.5776 0.03133,-0.3792001 0.766666,-0.4740001 0.910533,-0.8344001 0.238,-0.6057334 -0.2532,-1.3750667 -0.08333,-1.938 0.502,-1.6687999 1.492133,-3.1417332 2.285866,-4.7015999 2.049467,-0.063067 2.820267,-2.06306658 6.126533,-0.3161333 0.086,0.045333 -0.330666,-0.025067 -0.245733,0.1765333 0.0452,0.1084 0.1588,0.238 0.2552,0.2458667 0.5452,0.0432 1.173867,-0.054667 1.406267,0.4530667 0.168666,0.3693333 -0.381867,0.8150666 -0.266267,1.1479999 0.173467,0.5036 1.171867,0.2733334 1.278667,0.7192 0.204666,0.8614667 -0.794267,1.7036 -0.661467,2.4791999 0.07613,0.4349334 1.058933,0.6254667 1.36,1.1410667 0.345733,0.5964 -0.1032,1.4594671 0.480133,2.0860001 0.2256,-0.2708 0.5068,-0.475067 0.799467,-0.666667 0.0808,0.524934 0.291733,1.0016 0.533867,1.4672 0.3412,-0.4552 0.7464,-0.8604 1.066133,-1.333333 0.319333,0.271867 0.176133,0.7604 0.06667,0.864533 -0.566667,0.5428 -1.112,1.264133 -1.912934,1.478133 -0.104266,0.02813 -0.167733,0.101067 -0.214666,0.193734 l -0.933867,-0.533334 c -0.1156,0.226134 0.659467,0.569867 0.328133,0.6636 l 0.1328,0.5328 c 0.4844,0.523467 1.054667,0.166134 1.600534,0 0.280266,0.9328 -0.972934,1.054134 -1.097334,1.752134 -0.0656,0.359333 0.6,0.254666 0.964534,0.115066 -0.119734,0.661467 -0.692667,0.991067 -1.067734,1.466134" /><path
       id="path40"
       style="fill:#FFFFFF;fill-opacity:1;fill-rule:nonzero;stroke:none;stroke-width:0.13333333"
       d="m 60.312532,88.530734 c 0.8812,0.82812 1.459866,2.059893 2.243733,2.950519 0.167733,0.190107 -0.408933,0.65364 -0.702133,0.635414 -1.523467,-0.08855 -2.848933,0.187493 -4.222933,-0.318747 -1.187467,-0.439067 -1.223334,-2.14376 -2.848934,-2.931253 -0.544266,0.533853 -0.195333,1.269787 -0.438533,1.84896 -0.0192,0.04948 -0.308267,0.04167 -0.320267,0.0052 -0.516666,-1.711973 -1.859466,-3.795307 -0.174533,-5.187493 l 0.06613,0.59896 1.467734,1.867186 2.399466,2 1.600534,-0.132813 c 0.399466,-1.067707 0.929733,-1.335933 0.929733,-1.335933" /><path
       id="path42"
       style="fill:#000000;fill-opacity:1;fill-rule:nonzero;stroke:none;stroke-width:0.13333333"
       d="m 47.192665,69.788534 c 0.2824,-0.7188 1.460934,-0.828133 2.2448,-0.747333 0.348,0.0348 0.6136,0.820266 0.954267,0.848933 0.647333,0.05467 1.169733,-0.808933 1.865067,-0.888 0.207733,-0.02347 0.3796,0.348933 0.525466,0.597333 l 2.199467,-0.666666 1.8672,1 1.1328,-1.666667 0.316133,0.0052 c 0.01467,-0.139067 0.409467,-0.235333 0.414667,-0.279733 0.752,-6.472267 1.027067,-12.709867 1.813466,-19.190533 0.115734,-0.9604 -0.214533,-1.862 -0.1432,-2.801067 0.287467,0.088 0.518267,-0.1776 0.799467,-0.133333 -0.07653,-1.445867 -0.6276,-2.815067 -0.666667,-4.2672 1.959467,-2.362 4,-4.577066 5.6172,-7.2692 0.290667,-0.484933 0.420267,-1.267733 0.2136,-1.9188 -0.651066,-2.047866 -1.3672,-3.997866 -2.1052,-6.0084 -1.0928,-2.983733 -1.957333,-5.984266 -3.058933,-8.936399 -1.2568,-0.425067 -2.610933,-0.369334 -3.8672,-0.8 l -6.066666,-0.7328 -8.198933,1.8 c -1.855734,0.595866 -3.668267,1.244266 -5.333334,2.266133 -0.326533,2.836933 0.02347,5.607866 -0.580666,8.523466 -0.3448,1.664534 -0.528667,3.174934 -0.807334,4.823867 -0.1188,0.7016 -0.418266,1.413067 -0.178666,2.107333 0.294266,0.848934 0.302666,1.867733 0.8636,2.4532 1.552,1.619733 3.675466,2.485867 5.369733,3.9588 -0.159867,1.157867 -0.561467,2.221333 -0.927067,3.335467 -0.140666,0.4296 0.472934,0.362933 0.446934,0.5176 -0.131867,0.7516 -0.654267,1.460933 -0.7272,2.16 -0.716134,6.747333 -0.4448,13.403599 -0.1156,20.111866 0.0063,0.145866 0.986,-0.25 0.960933,0.135466 l 1.295333,1.271867 2.199467,-0.666667 1.666666,1.200534" /><path
       id="path44"
       style="fill:#000000;fill-opacity:1;fill-rule:nonzero;stroke:none;stroke-width:0.13333333"
       d="m 55.448932,14.133335 c -0.336933,-0.426 -0.830133,-0.676533 -1.200533,-1.066133 -0.1328,0.133333 -0.356667,0.268267 -0.3536,0.3984 0.01147,0.489067 -0.166667,1.3568 0.3484,1.333333 0.326133,-0.01507 0.05627,-0.757733 0.1396,-1.1984 0.151066,0.326 0.2708,0.700534 0.559866,0.892134 0.236,0.156266 0.283867,-0.2848 0.506267,-0.359334" /><path
       id="path46"
       style="fill:#FFFFFF;fill-opacity:1;fill-rule:nonzero;stroke:none;stroke-width:0.13333333"
       d="m 53.989599,19.713069 c -0.08693,-0.0324 -0.144267,-0.149067 -0.273467,-0.112534 0,-0.1776 -0.06147,-0.413066 0.03027,-0.5032 0.09053,-0.09053 0.324933,-0.03013 0.502,-0.03013 -0.03587,0.1292 0.04067,0.202133 0.1344,0.266133 0.301066,-0.933333 0.02867,-1.875466 -0.100534,-2.785466 -0.05053,-0.355734 -0.804133,-0.338534 -1.016666,-0.611467 -0.418267,-0.537467 -0.6536,-2.471333 -0.09733,-2.4312 1.425467,0.104133 1.495734,-2.669733 1.906267,-4.2239998 0.1676,-0.6353333 -0.1552,-0.8618666 -0.426133,-1.5473333 -0.187467,0.085467 -0.0844,0.3286667 -0.152,0.362 -0.303734,0.1530667 -0.759467,0.3457333 -1.0016,0.1218667 -0.1364,-0.1245334 -0.1364,-0.5797334 0,-0.6994667 0.2396,-0.2125333 1.280266,-0.3786666 1.2692,-0.3469333 0.2516,-0.7286667 -0.165067,-1.3125333 -0.6484,-1.9708 -0.2432,0.3734667 -0.485334,0.4672 -0.933334,0.4 0.286534,-0.2453333 0.268267,-1.0333333 -0.07293,-0.8312 -0.565067,0.3333334 -0.4896,1.3634667 -1.3932,1.3645333 0.0208,-0.3879999 0.0208,-0.7682666 -0.2672,-1.0666666 -0.289067,0.4224 -0.6172,0.8948 -1.055733,0.8410666 -0.2864,-0.035867 -0.191067,-0.8905333 -0.614534,-0.5055999 -0.488,0.4452 0.360934,1.0593333 0.180667,1.6582666 -0.357733,1.1937333 -0.343733,2.3583999 -1.0104,3.4926664 -0.1,0.169867 -0.0896,0.448533 -0.0052,0.633867 0.1344,0.293733 0.4156,0.4964 0.7724,0.413066 -0.0172,0.516134 -0.572933,0.2244 -0.780133,0.5468 -0.062,0.09907 -0.06,0.272 0,0.375067 0.247866,0.428133 0.730666,0.4588 1.1796,0.411467 -0.123467,0.8036 -1.032267,0.925466 -1.6,0.5328 -0.1328,0.819733 0.296933,1.535466 1.066133,1.733866 -0.357733,0.4964 -0.929067,0.08853 -1.277067,0.342134 -0.454133,0.331333 0.109334,0.990666 -0.05627,1.524533 -0.0844,-0.188533 -0.318667,-0.173467 -0.362934,-0.108933 -0.399466,0.576666 0.101467,1.343866 0.230134,1.9756 0.08493,-0.189067 0.2656,-0.158934 0.3948,-0.116134 0.242266,0.08227 0.1104,0.3344 0.139066,0.5156 -0.133866,0 -0.280666,-0.03387 -0.392666,0.0172 -0.3776,0.172934 0.1364,0.4276 -0.0084,0.649467 1.264666,0.722933 2.703733,1.147333 4.121333,0.965067 0.375067,-0.0484 0.8516,-0.2724 1.212,-0.564534 -0.340533,-0.250533 -1.023333,-0.0292 -0.775467,-0.657866 0.1104,-0.278134 0.457734,-0.179067 0.623467,-0.100534 0.206667,0.09947 -0.02707,0.4048 0.0312,0.621867 0.03027,0.105333 0.1364,0.200533 0.2464,0.123467 0.347333,-0.247867 0.756267,-0.424934 0.906267,-0.801467 0.0176,-0.04693 -0.1396,-0.220933 -0.2324,-0.224 -0.184267,-0.0063 -0.09733,0.4604 -0.3916,0.351067" /><path
       id="path48"
       style="fill:#000000;fill-opacity:1;fill-rule:nonzero;stroke:none;stroke-width:0.13333333"
       d="m 52.370799,8.2229356 c -0.05573,0.1077333 -0.173867,0.25 -0.251067,0.2390666 -0.5728,-0.0792 -1.1624,-0.036533 -1.471333,-0.6328 0.7152,-0.2177333 1.450533,-0.5229333 2.0876,-0.0688 0.1728,0.1224 -0.255334,0.2541334 -0.3652,0.4625334" /><path
       id="path50"
       style="fill:#000000;fill-opacity:1;fill-rule:nonzero;stroke:none;stroke-width:0.13333333"
       d="m 54.175465,10.106802 c -0.1504,0.416667 -0.666666,0.05933 -1.059866,0.1604 0.2448,-0.4135998 0.437466,-0.5874665 0.933866,-0.6666665 0.0052,0.2301334 0.168267,0.3890667 0.126,0.5062665" /><path
       id="path52"
       style="fill:#000000;fill-opacity:1;fill-rule:nonzero;stroke:none;stroke-width:0.13333333"
       d="m 53.678665,11.413069 c -0.445866,0.05053 -0.8896,0.171866 -1.340133,0.03227 0.692667,-0.421866 1.4984,-0.217733 2.2344,-0.4104 -0.086,0.076 -0.152667,0.156667 -0.1,0.2812 -0.264533,0.03227 -0.5292,0.06667 -0.794267,0.09693" /><path
       id="path54"
       style="fill:#000000;fill-opacity:1;fill-rule:nonzero;stroke:none;stroke-width:0.13333333"
       d="m 52.363599,20.637469 c -0.275067,0.176533 -0.771467,-0.09733 -0.6224,-0.4948 0.06867,-0.187467 0.264,-0.369734 0.500933,-0.261467 0.295333,0.133867 0.433333,0.5568 0.121467,0.756267" /><path
       id="path56"
       style="fill:#000000;fill-opacity:1;fill-rule:nonzero;stroke:none;stroke-width:0.13333333"
       d="m 51.182265,20.533335 c -0.175466,0.07973 -0.224933,-0.210933 -0.4,-0.1328 0.0292,-0.182266 -0.107733,-0.445333 0.1396,-0.508933 0.168267,-0.04373 0.424534,-0.1276 0.512,0.114667 0.0792,0.222933 -0.0172,0.420266 -0.2516,0.527066" /><path
       id="path58"
       style="fill:#000000;fill-opacity:1;fill-rule:nonzero;stroke:none;stroke-width:0.13333333"
       d="m 50.114532,20.256802 c -0.1448,0.02133 -0.348933,0.07547 -0.380133,-0.1256 -0.02707,-0.178133 -0.125067,-0.438 0.121333,-0.509333 0.352667,-0.1036 0.665067,0.174533 0.507867,0.503066 -0.03387,0.072 -0.154267,0.1172 -0.249067,0.131867" /><path
       id="path60"
       style="fill:#000000;fill-opacity:1;fill-rule:nonzero;stroke:none;stroke-width:0.13333333"
       d="m 49.304665,19.712002 c -0.112933,0.05627 -0.315066,0.08333 -0.3828,-0.1136 -0.1292,-0.369733 0.321334,-0.520267 0.4964,-0.364 0.101067,0.0916 0.06613,0.388 -0.1136,0.4776" /><path
       id="path62"
       style="fill:#000000;fill-opacity:1;fill-rule:nonzero;stroke:none;stroke-width:0.13333333"
       d="m 53.611999,11.976002 c -0.266667,0.01467 -0.4808,-0.07293 -0.693734,-0.198933 0.440134,-0.05467 0.8812,-0.1088 1.322934,-0.163467 -0.135467,0.2468 -0.336534,0.346267 -0.6292,0.3624" /><path
       id="path64"
       style="fill:#FFFFFF;fill-opacity:1;fill-rule:nonzero;stroke:none;stroke-width:0.13333333"
       d="m 11.64948,15.000002 1.999986,6 4.2672,10.133866 2,-10.533333 -0.401066,-5.866666 -0.799467,-0.8 -1.333333,2.466666 -4.399987,-3.133333 c 0,0.866133 -1.333333,1.7328 -1.333333,1.7328" /><path
       id="path66"
       style="fill:#000000;fill-opacity:1;fill-rule:nonzero;stroke:none;stroke-width:0.13333333"
       d="m 16.916666,16.533869 0.532267,0.333333 0.333333,-0.400533 0.533867,0.733866 -0.666667,0.9328 1,9.333333 -0.7328,3.933334 -1.933866,-4.466134 0.933866,-8.866666 -0.533866,-0.666667 0.533866,-0.866666" /><path
       id="path68"
       style="fill:#FFFFFF;fill-opacity:1;fill-rule:nonzero;stroke:none;stroke-width:0.13333333"
       d="m 48.316132,20.000002 0.466133,2.133333 5.1328,9.4672 1.801067,-8.800533 -1.200533,-3.133333 c -2.200534,2.8 -6.199467,0.333333 -6.199467,0.333333" /><path
       id="path70"
       style="fill:#FFFFFF;fill-opacity:1;fill-rule:nonzero;stroke:none;stroke-width:0.13333333"
       d="m 43.515599,87.065627 -1.733333,2 -1.6,0.666667 c -1.866134,0.666666 -1.866134,-0.666667 -1.866134,-0.666667 l 1.414534,-3.106253 c -0.747867,0.958333 -1.5,1.908853 -2.143734,2.988026 -0.546266,0.917707 -1.261466,1.914053 -1.2416,2.984373 0.0036,0.186454 0.436934,0.5052 0.833334,0.388014 1.204133,-0.359374 2.480133,-0.359374 3.552,-0.890627 0.9568,-0.47656 1.368266,-1.674466 2.1844,-2.42968 0.314133,0.39948 -0.0088,0.92604 0.2672,1.333334 0.521866,-1.091147 0.558933,-2.235414 0.635466,-3.406254 l -0.302133,0.139067" /><path
       id="path72"
       style="fill:#FFFFFF;fill-opacity:1;fill-rule:nonzero;stroke:none;stroke-width:0.13333333"
       d="m 60.981732,26.866668 c -1.333333,-1.866666 -2.666667,-0.06667 -2.666667,-0.06667 -0.733333,1.066666 0.200534,2 0.200534,2 l 0.1328,-0.199467 c -0.799467,-1.133867 0.200533,-1.933867 0.200533,-1.933867 1,1.066667 2.1328,0.2 2.1328,0.2" /><path
       id="path74"
       style="fill:#FFFFFF;fill-opacity:1;fill-rule:nonzero;stroke:none;stroke-width:0.13333333"
       d="m 60.486932,24.400002 c 0.0043,-0.631733 -0.764,-0.320267 -1.038,0 -0.08853,-0.210934 0.181333,-0.35 0.1172,-0.5276 -0.08693,-0.2412 -0.3536,-0.1656 -0.507733,-0.111467 -0.279734,0.1 -0.09747,0.417733 -0.143334,0.639067 -0.4776,-0.3104 -1.030666,-0.607333 -1.154666,0.1412 -0.07813,0.4692 0.639066,0.2552 0.7552,0.6588 -0.222934,0.04587 -0.539067,-0.1364 -0.6396,0.1432 -0.05467,0.154133 -0.1348,0.436533 0.112,0.498933 0.329733,0.08387 0.6484,-0.04 0.927066,-0.2416 -0.03587,0.404133 -0.25,0.995867 0.3912,0.773467 0.3724,-0.129734 0.277067,-0.558934 0.275467,-0.907334 0.1292,0.290134 0.4876,0.195867 0.666666,0.4 0.131867,-0.156266 0.199467,-0.3412 0.283867,-0.525466 0.231733,-0.511467 -0.441067,-0.297467 -0.550533,-0.5412 0.3256,0.06307 0.502666,-0.147867 0.5052,-0.4" /></g></svg>