<?xml version="1.0" encoding="utf-8"?>
<!-- Generator: Adobe Illustrator 20.1.0, SVG Export Plug-In . SVG Version: 6.00 Build 0)  -->
<svg version="1.1" id="Layer_1" xmlns="http://www.w3.org/2000/svg" xmlns:xlink="http://www.w3.org/1999/xlink" x="0px" y="0px"
	 viewBox="0 0 56.6 57.2" style="enable-background:new 0 0 56.6 57.2;" xml:space="preserve">
<style type="text/css">
	.st0{fill:#000000;stroke:#FFFFFF;stroke-width:0.8;}
	.st1{fill:#FFFFFF;}
	.st2{fill:none;stroke:#FFFFFF;stroke-width:1.6;stroke-miterlimit:3.86;}
</style>
<g>
	<g>
		<rect x="1.1" y="10.1" class="st0" width="45.4" height="46.1"/>
		<polygon class="st0" points="55.6,0.9 46.4,10.1 1,10.1 10.8,0.9 		"/>
		<polygon class="st0" points="55.7,45.1 55.7,1 46.4,10.1 46.4,56.1 		"/>
		<polygon class="st1" points="28.4,44.9 32.2,41.1 26.5,39.5 		"/>
		<line class="st2" x1="28.9" y1="41.4" x2="35.7" y2="48.2"/>
		<polygon class="st1" points="7.7,25.1 11.5,21.3 5.8,19.7 		"/>
		<line class="st2" x1="8.2" y1="21.6" x2="15" y2="28.4"/>
		<polygon class="st1" points="9.5,36.5 9.5,31.1 4.3,33.9 		"/>
		<line class="st2" x1="7.4" y1="33.6" x2="17" y2="33.6"/>
		<polygon class="st1" points="28.4,22.9 32.2,26.7 26.5,28.4 		"/>
		<line class="st2" x1="28.9" y1="26.4" x2="35.7" y2="19.6"/>
		<polygon class="st1" points="7.7,42.8 11.5,46.5 5.8,48.2 		"/>
		<line class="st2" x1="8.2" y1="46.3" x2="15" y2="39.5"/>
	</g>
	<g>
		<rect x="14.9" y="28.2" class="st0" width="10.6" height="11.3"/>
		<rect x="34.2" y="41.4" class="st0" width="8.7" height="9"/>
		<rect x="34.2" y="17.2" class="st0" width="8.7" height="9"/>
	</g>
</g>
</svg>
