<?xml version="1.0" encoding="utf-8"?>
<!-- Generator: Adobe Illustrator 20.1.0, SVG Export Plug-In . SVG Version: 6.00 Build 0)  -->
<svg version="1.1" id="Layer_1" xmlns="http://www.w3.org/2000/svg" xmlns:xlink="http://www.w3.org/1999/xlink" x="0px" y="0px"
	 viewBox="0 0 58.3 53.1" style="enable-background:new 0 0 58.3 53.1;" xml:space="preserve">
<style type="text/css">
	.st0{fill:#000000;stroke:#FFFFFF;stroke-width:0.8;}
	.st1{fill:#FFFFFF;stroke:#000000;stroke-width:0.4;}
	.st2{fill:none;stroke:#FFFFFF;stroke-width:2.6226;}
</style>
<g>
	<rect x="1.4" y="10.3" class="st0" width="44.3" height="41.9"/>
	<g>
		<polygon class="st0" points="45.7,10.3 57.2,0.8 17,0.8 1.4,10.3 		"/>
	</g>
	<g>
		<polygon class="st0" points="57.2,42.8 57.2,0.8 45.7,10.3 45.7,52.2 		"/>
	</g>
	<ellipse class="st1" cx="6" cy="48.2" rx="1.9" ry="1.9"/>
	<rect x="4" y="40" transform="matrix(0.6988 -0.7153 0.7153 0.6988 -27.006 21.0728)" class="st1" width="15.1" height="5.2"/>
	<g>
		<path class="st1" d="M13.4,27.4c0,7.9,6.4,14.3,14.3,14.3c7.9,0,14.3-6.4,14.3-14.3c0-7.9-6.4-14.3-14.3-14.3
			C19.9,13.1,13.4,19.6,13.4,27.4 M15.4,27.4c0-6.8,5.5-12.3,12.3-12.3c6.8,0,12.3,5.5,12.3,12.3c0,6.8-5.5,12.3-12.3,12.3
			C21,39.7,15.4,34.2,15.4,27.4z"/>
		<path class="st1" d="M11.8,28.3c0,7.9,6.4,14.3,14.3,14.3c7.9,0,14.3-6.4,14.3-14.3C40.4,20.4,34,14,26.1,14
			C18.2,14,11.8,20.4,11.8,28.3 M13.8,28.3c0-6.8,5.5-12.3,12.3-12.3c6.8,0,12.3,5.5,12.3,12.3c0,6.8-5.5,12.3-12.3,12.3
			C19.3,40.6,13.8,35.1,13.8,28.3z"/>
	</g>
	<rect x="21.2" y="22.6" class="st2" width="10.7" height="10.7"/>
</g>
</svg>
