<?xml version="1.0" encoding="utf-8"?>
<!-- Generator: Adobe Illustrator 20.1.0, SVG Export Plug-In . SVG Version: 6.00 Build 0)  -->
<svg version="1.1" id="Layer_1" xmlns="http://www.w3.org/2000/svg" xmlns:xlink="http://www.w3.org/1999/xlink" x="0px" y="0px"
	 viewBox="0 0 53.5 54.1" style="enable-background:new 0 0 53.5 54.1;" xml:space="preserve">
<style type="text/css">
	.st0{fill:#000000;stroke:#FFFFFF;stroke-width:0.8;}
	.st1{fill:none;stroke:#FFFFFF;stroke-width:2.6;}
	.st2{fill:#FFFFFF;stroke:#FFFFFF;stroke-width:0.4;}
</style>
<g>
	<g>
		<rect x="1.1" y="9.2" class="st0" width="43.2" height="44"/>
		<line class="st1" x1="22.7" y1="23.4" x2="36" y2="23.4"/>
		<g>
			<polygon class="st2" points="36.5,19.4 36.5,27.1 41.1,23.4 			"/>
		</g>
		<line class="st1" x1="22.7" y1="38.7" x2="36" y2="38.7"/>
		<g>
			<polygon class="st2" points="36.5,34.6 36.5,42.3 41.1,38.6 			"/>
		</g>
		<line class="st1" x1="15.1" y1="31.1" x2="15.1" y2="17.8"/>
		<g>
			<polygon class="st2" points="11.2,17.3 18.9,17.3 15.2,12.7 			"/>
		</g>
		<line class="st1" x1="30.3" y1="31.1" x2="30.3" y2="17.8"/>
		<g>
			<polygon class="st2" points="26.4,17.4 34.1,17.4 30.4,12.8 			"/>
		</g>
		<line class="st1" x1="30.4" y1="31" x2="30.4" y2="44.2"/>
		<g>
			<polygon class="st2" points="34.2,44.7 26.5,44.7 30.3,49.3 			"/>
		</g>
		<line class="st1" x1="15.2" y1="31" x2="15.2" y2="44.2"/>
		<g>
			<polygon class="st2" points="19.2,44.7 11.5,44.7 15.2,49.3 			"/>
		</g>
		<line class="st1" x1="22.9" y1="38.6" x2="9.6" y2="38.6"/>
		<g>
			<polygon class="st2" points="9.1,42.7 9.1,35 4.4,38.7 			"/>
		</g>
		<line class="st1" x1="22.9" y1="23.4" x2="9.6" y2="23.4"/>
		<g>
			<polygon class="st2" points="9.1,27.4 9.1,19.7 4.4,23.4 			"/>
		</g>
		<polygon class="st0" points="44.1,9.1 1.1,9.1 12,0.4 53.1,0.4 53.1,0.5 53.1,44.1 44.2,53.1 44.2,9.4 		"/>
		<line class="st0" x1="44.2" y1="9" x2="53.2" y2="0.3"/>
	</g>
	<circle class="st0" cx="22.7" cy="31.1" r="9.2"/>
</g>
</svg>
