<?xml version="1.0" encoding="utf-8"?>
<!-- Generator: Adobe Illustrator 20.1.0, SVG Export Plug-In . SVG Version: 6.00 Build 0)  -->
<svg version="1.1" id="Layer_1" xmlns="http://www.w3.org/2000/svg" xmlns:xlink="http://www.w3.org/1999/xlink" x="0px" y="0px"
	 viewBox="0 0 87.2 131.1" style="enable-background:new 0 0 87.2 131.1;" xml:space="preserve">
<style type="text/css">
	.st0{fill:#000000;stroke:#FFFFFF;stroke-width:0.8;}
	.st1{fill:none;stroke:#FFFFFF;stroke-width:0.8;}
	.st2{fill:#FFFFFF;stroke:#000000;stroke-width:0.8;}
	.st3{fill:#000000;}
</style>
<g>
	<g>
		<polyline class="st0" points="18.2,78.6 1,78.6 1,130.1 18.2,130.1 		"/>
		<polygon class="st0" points="18.2,130.1 27.8,120.6 27.8,69 10.5,69 1,78.6 18.2,78.6 		"/>
		<line class="st0" x1="18.2" y1="78.6" x2="27.8" y2="69"/>
	</g>
	<polyline class="st0" points="53.5,14.7 18.2,14.7 18.2,130.1 53.5,130.1 	"/>
	<polygon class="st0" points="53.5,130.1 67.8,115.8 67.8,0.4 32.6,0.4 18.2,14.7 53.5,14.7 	"/>
	<line class="st0" x1="53.5" y1="14.7" x2="67.8" y2="0.4"/>
	<polyline class="st0" points="36.6,62.1 36.6,67.5 42,67.5 	"/>
	<polyline class="st0" points="44.1,62.1 44.1,67.5 49.5,67.5 	"/>
	<polyline class="st0" points="21.5,62.2 21.5,67.6 26.9,67.6 	"/>
	<polyline class="st0" points="29,62.2 29,67.6 34.4,67.6 	"/>
	<polyline class="st0" points="36.5,73.3 36.5,78.7 41.9,78.7 	"/>
	<polyline class="st0" points="44,73.3 44,78.7 49.4,78.7 	"/>
	<polyline class="st0" points="21.4,73.4 21.4,78.8 26.8,78.8 	"/>
	<polyline class="st0" points="28.9,73.4 28.9,78.8 34.3,78.8 	"/>
	<polyline class="st1" points="36.5,84 36.5,89.4 41.9,89.4 	"/>
	<polyline class="st1" points="44,84 44,89.4 49.4,89.4 	"/>
	<polyline class="st1" points="21.4,84.2 21.4,89.6 26.8,89.6 	"/>
	<polyline class="st1" points="28.9,84.2 28.9,89.6 34.3,89.6 	"/>
	<g>
		<polyline class="st1" points="3.5,82.9 3.5,88.3 8.9,88.3 		"/>
		<polyline class="st1" points="11,82.9 11,88.3 16.4,88.3 		"/>
		<polyline class="st1" points="3.9,93.1 3.9,98.4 9.3,98.4 		"/>
		<polyline class="st1" points="11.4,93.1 11.4,98.4 16.8,98.4 		"/>
		<polyline class="st1" points="3.9,102.2 3.9,107.6 9.3,107.6 		"/>
		<polyline class="st1" points="11.4,102.2 11.4,107.6 16.8,107.6 		"/>
	</g>
	<polyline class="st0" points="36.7,20.5 36.7,25.9 42.1,25.9 	"/>
	<polyline class="st0" points="44.3,20.5 44.3,25.9 49.6,25.9 	"/>
	<polyline class="st0" points="21.6,20.6 21.6,26 27,26 	"/>
	<polyline class="st0" points="29.2,20.6 29.2,26 34.5,26 	"/>
	<polyline class="st0" points="36.7,31.7 36.7,37.1 42.1,37.1 	"/>
	<polyline class="st0" points="44.2,31.7 44.2,37.1 49.6,37.1 	"/>
	<polyline class="st0" points="21.6,31.8 21.6,37.2 27,37.2 	"/>
	<polyline class="st0" points="29.1,31.8 29.1,37.2 34.5,37.2 	"/>
	<polyline class="st0" points="36.7,42.4 36.7,47.8 42.1,47.8 	"/>
	<polyline class="st0" points="44.2,42.4 44.2,47.8 49.6,47.8 	"/>
	<polyline class="st0" points="21.6,42.5 21.6,47.9 27,47.9 	"/>
	<polyline class="st0" points="29.1,42.5 29.1,47.9 34.5,47.9 	"/>
	<polyline class="st0" points="36.7,52.3 36.7,57.7 42.1,57.7 	"/>
	<polyline class="st0" points="44.2,52.3 44.2,57.7 49.6,57.7 	"/>
	<polyline class="st0" points="21.6,52.5 21.6,57.9 27,57.9 	"/>
	<polyline class="st0" points="29.1,52.5 29.1,57.9 34.5,57.9 	"/>
	<line class="st0" x1="57.2" y1="66.2" x2="57.2" y2="71.6"/>
	<line class="st0" x1="57.2" y1="75.5" x2="57.2" y2="80.9"/>
	<g>
		<polyline class="st0" points="72.7,32.9 53.6,32.9 53.6,130.1 72.7,130.1 		"/>
		<polygon class="st0" points="72.7,130.1 86.7,116.1 86.7,18.9 67.6,18.9 53.6,32.9 72.7,32.9 		"/>
		<polyline class="st0" points="57.1,37.4 57.1,42.8 62.5,42.8 		"/>
		<polyline class="st0" points="64.6,37.4 64.6,42.8 70,42.8 		"/>
		<polyline class="st0" points="57,47.6 57,52.9 62.4,52.9 		"/>
		<polyline class="st0" points="64.5,47.6 64.5,52.9 69.9,52.9 		"/>
		<polyline class="st0" points="57,56.7 57,62.1 62.4,62.1 		"/>
		<polyline class="st0" points="64.5,56.7 64.5,62.1 69.9,62.1 		"/>
		<line class="st0" x1="57" y1="71.6" x2="62.3" y2="71.6"/>
		<polyline class="st0" points="64.5,66.2 64.5,71.6 69.9,71.6 		"/>
		<line class="st1" x1="57" y1="80.9" x2="62.3" y2="80.9"/>
		<polyline class="st0" points="64.5,75.5 64.5,80.9 69.9,80.9 		"/>
	</g>
	<g>
		<path class="st2" d="M65.4,104.5c0,4.4-9.2,8-20.5,8c-11.3,0-20.5-3.6-20.5-8v11.7c0,4.4,9.2,8,20.5,8c11.3,0,20.5-3.6,20.5-8
			V104.5z"/>
	</g>
	<g>
		<ellipse class="st2" cx="45" cy="104.5" rx="20.5" ry="8"/>
	</g>
	<g>
		<g>
			<polygon class="st3" points="38.8,102.4 41.2,103.7 35.9,104.6 37.1,103.6 28.1,102.1 28.8,101.5 37.9,103 			"/>
		</g>
		<g>
			<polygon class="st3" points="51.2,106.4 48.9,105.1 54.1,104.2 52.9,105.2 62,106.7 61.2,107.3 52.2,105.8 			"/>
		</g>
		<g>
			<polygon class="st3" points="48.5,99.8 53.1,97.9 52.5,100.2 51.1,100.1 47.7,103 46.5,102.8 50,100 			"/>
		</g>
		<g>
			<polygon class="st3" points="42.1,109 37.6,110.9 38.2,108.6 39.5,108.6 42.9,105.8 44,106.1 40.7,108.8 			"/>
		</g>
	</g>
	<line class="st0" x1="72.9" y1="32.9" x2="86.9" y2="18.9"/>
</g>
</svg>
