<?xml version="1.0" encoding="utf-8"?>
<!-- Generator: Adobe Illustrator 20.1.0, SVG Export Plug-In . SVG Version: 6.00 Build 0)  -->
<svg version="1.1" id="Layer_1" xmlns="http://www.w3.org/2000/svg" xmlns:xlink="http://www.w3.org/1999/xlink" x="0px" y="0px"
	 viewBox="0 0 86.7 48.2" style="enable-background:new 0 0 86.7 48.2;" xml:space="preserve">
<style type="text/css">
	.st0{fill:#000000;stroke:#FFFFFF;stroke-width:0.8;}
	.st1{fill:#000000;stroke:#FFFFFF;stroke-width:0.8;}
	.st2{fill:#000000;}
</style>
<g>
	<g>
		<polygon class="st0" points="79.2,1 81.3,3.6 73.5,47.6 71,46 		"/>
		<polygon class="st1" points="1.3,46 3.6,47.6 73.5,47.6 71,46 		"/>
		<polygon class="st0" points="71,46 79.2,1 10.4,1 1.3,46 		"/>
		<polygon class="st0" points="65.7,37.9 71,9.8 32.3,9.8 27,37.9 		"/>
		<line class="st0" x1="26.4" y1="1" x2="17.3" y2="46"/>
	</g>
	<path class="st0" d="M7.7,36.6c4.4,1.1,9.7-5.1,11.8-13.9c2.2-8.8,0.4-16.7-4-17.8L7.7,36.6z"/>
	<rect x="33.1" y="4.2" class="st0" width="12.5" height="1.5"/>
	<rect x="58.1" y="4.2" class="st0" width="12.5" height="1.5"/>
	<path class="st2" d="M82.4,38.7c-0.1,0.5-0.6,0.9-1.1,0.9l0,0c-0.6-0.1-0.9-0.6-0.9-1.1l4.3-35.7c0.1-0.5,0.6-0.9,1.1-0.9l0,0
		c0.5,0.1,0.9,0.6,0.9,1.1L82.4,38.7z"/>
</g>
</svg>
