<?xml version="1.0" encoding="utf-8"?>
<!-- Generator: Adobe Illustrator 20.1.0, SVG Export Plug-In . SVG Version: 6.00 Build 0)  -->
<svg version="1.1" id="Layer_1" xmlns="http://www.w3.org/2000/svg" xmlns:xlink="http://www.w3.org/1999/xlink" x="0px" y="0px"
	 viewBox="0 0 154.6 62.9" style="enable-background:new 0 0 154.6 62.9;" xml:space="preserve">
<style type="text/css">
	.st0{fill:#000000;stroke:#FFFFFF;stroke-width:0.8;}
	.st1{fill:none;stroke:#000000;stroke-width:1.6;}
</style>
<g>
	<path class="st0" d="M137.6,49.6c0,0.7-0.6,1.3-1.3,1.3H13.7c-0.7,0-1.3-0.6-1.3-1.3l6.8-41.1c0-0.7,0.6-1.3,1.3-1.3h120.4
		c0.7,0,1.3,0.6,1.3,1.3L137.6,49.6z"/>
	<path class="st0" d="M154.2,43.7c0,0.7-0.6,1.3-1.3,1.3l-17,5.9c-0.7,0-1.3-0.6-1.3-1.3l4.6-41.1c0-0.7,0.6-1.3,1.3-1.3h12.4
		c0.7,0,1.3,0.6,1.3,1.3L154.2,43.7z"/>
	<polygon class="st0" points="125.7,56.6 83.5,56.6 95.4,41.2 135.3,41.2 	"/>
	<polygon class="st0" points="125.7,61.6 83.5,61.6 84,56.8 125.7,56.8 	"/>
	<polygon class="st0" points="135.6,41.2 135.6,51.1 125.5,61.9 125.5,56.2 	"/>
	<line class="st0" x1="55.6" y1="7.9" x2="49.3" y2="50.7"/>
	<line class="st0" x1="99.4" y1="7.6" x2="95" y2="41.6"/>
	<circle class="st0" cx="130.7" cy="22.7" r="5"/>
	<circle class="st0" cx="35.2" cy="16.7" r="5"/>
	<path class="st0" d="M106.7,49.3c-1.2,2.3-4.7,4-7.9,3.8c-3.2-0.2-4.9-2.2-3.8-4.5c1.1-2.3,4.7-4,7.9-3.8
		C106.2,44.9,107.8,47,106.7,49.3z"/>
	<path class="st0" d="M71.7,34.1c-0.7,4.5-4.4,5.5-8.7,5.6l0,0c-4.3,0-7.7-1-7-5.5l2.1-13.3c0.7-4.5,4.4-5.5,8.7-5.6l0,0
		c4.3,0,7.7,1,7,5.5L71.7,34.1z"/>
	<path class="st0" d="M89.2,34.1c-0.7,4.5-4.4,5.5-8.7,5.6l0,0c-4.3,0-7.7-1-7-5.5l2.1-13.3c0.7-4.5,4.4-5.5,8.7-5.6l0,0
		c4.3,0,7.7,1,7,5.5L89.2,34.1z"/>
	<path class="st0" d="M119.9,33.3c-0.9,3.8-5.4,4.7-10.7,4.7l0,0c-5.3,0-9.4-0.8-8.5-4.7l1.7-11.3c0.9-3.8,5.4-4.7,10.7-4.7l0,0
		c5.3,0,9.4,0.8,8.5,4.7L119.9,33.3z"/>
	<polygon class="st0" points="47.1,29.7 22.5,29.7 23.1,25.7 47.8,25.7 	"/>
	<polygon class="st0" points="45.8,35.7 21.1,35.7 21.8,31.7 46.5,31.7 	"/>
	<polygon class="st0" points="44.5,41.7 19.8,41.7 20.5,37.7 45.1,37.7 	"/>
	<polygon class="st0" points="43.1,47.7 18.5,47.7 19.1,43.7 43.8,43.7 	"/>
	<polygon class="st0" points="123.1,53.1 109.8,53.1 114.5,46.4 127.8,46.4 	"/>
	<path class="st0" d="M37.1,14.4c10-14,29.3-10.7,29.3-10.7"/>
	<ellipse class="st0" cx="66.4" cy="3.1" rx="4.7" ry="2.7"/>
	<line class="st1" x1="28.2" y1="23.7" x2="22.9" y2="49.7"/>
	<line class="st1" x1="43.8" y1="23.7" x2="38.5" y2="49.7"/>
	<line class="st1" x1="35.7" y1="23.7" x2="30.4" y2="49.7"/>
	<line class="st0" x1="1.7" y1="35.2" x2="3.2" y2="26.1"/>
	<path class="st0" d="M14.2,22.1c-1.1,3.2-2.4,7-2.8,10.6l1.1,2.3l-1.5,10.6l-3.6-6.9C6.4,33.6,11.8,13,14,10.6l3.6,6.9l-2.3,6.9
		L14.2,22.1z"/>
	<polygon class="st0" points="0.5,38.9 2.7,45.8 11.1,45.7 7.5,38.9 	"/>
	<path class="st0" d="M14,10.6C11.8,13,6.4,33.6,7.5,38.9l-6.9,0.1C-0.5,33.7,4.8,13.1,7,10.6L14,10.6z"/>
</g>
</svg>
