<?xml version="1.0" encoding="utf-8"?>
<!-- Generator: Adobe Illustrator 20.1.0, SVG Export Plug-In . SVG Version: 6.00 Build 0)  -->
<svg version="1.1" id="Layer_1" xmlns="http://www.w3.org/2000/svg" xmlns:xlink="http://www.w3.org/1999/xlink" x="0px" y="0px"
	 viewBox="0 0 87.7 83.5" style="enable-background:new 0 0 87.7 83.5;" xml:space="preserve">
<style type="text/css">
	.st0{fill:#000000;stroke:#FFFFFF;stroke-width:0.8;}
	.st1{fill:none;stroke:#FFFFFF;stroke-width:0.2;stroke-linejoin:round;}
	.st2{fill:#000000;stroke:#FFFFFF;stroke-width:0.64;}
	.st3{fill:#000000;}
	.st4{fill:#FFFFFF;}
</style>
<g>
	<g>
		<g>
			<g>
				<polygon class="st0" points="78.2,56.7 85.2,18.7 31.9,18.7 24.1,56.7 				"/>
			</g>
			<polygon class="st0" points="85.2,18.7 87.3,21.4 80.8,58.3 78.2,56.7 			"/>
			<polygon class="st0" points="24.1,56.7 26.4,58.3 80.8,58.3 78.2,56.7 			"/>
			<path class="st0" d="M78.7,59.2v5.4l-1.4,1.2c0,0-3.3,1-2.6,2.9L60,82.5v-6L78.7,59.2z"/>
			<polyline class="st0" points="1.2,76.5 1.2,82.5 60,82.5 60,76.5 1.2,76.5 			"/>
			<polygon class="st0" points="24.7,59.6 78.7,59.2 60,76.5 1.2,76.5 			"/>
			<polygon class="st0" points="73.7,53.1 79.3,23.1 36,23.1 30.4,53.1 			"/>
			<line class="st1" x1="26" y1="60" x2="12.3" y2="71"/>
			<line class="st1" x1="30.3" y1="60" x2="16.7" y2="71"/>
			<line class="st1" x1="34.7" y1="60" x2="21.1" y2="71"/>
			<line class="st1" x1="39.1" y1="60" x2="25.5" y2="71"/>
			<line class="st1" x1="43.5" y1="60" x2="29.8" y2="71"/>
			<line class="st1" x1="47.8" y1="60" x2="34.2" y2="71"/>
			<line class="st1" x1="52.2" y1="60" x2="38.6" y2="71"/>
			<line class="st1" x1="56.6" y1="60" x2="43" y2="71"/>
			<line class="st1" x1="61" y1="60" x2="47.3" y2="71"/>
			<line class="st1" x1="65.3" y1="60" x2="51.7" y2="71"/>
			<line class="st1" x1="69.7" y1="60" x2="56.1" y2="71"/>
			<line class="st1" x1="74.1" y1="60" x2="60.5" y2="71"/>
			<line class="st1" x1="13.9" y1="69.8" x2="62.4" y2="69.8"/>
			<line class="st1" x1="17.1" y1="67.3" x2="64.9" y2="67.3"/>
			<line class="st1" x1="20.5" y1="64.8" x2="68.1" y2="64.8"/>
			<line class="st1" x1="23.5" y1="62.2" x2="71.5" y2="62.2"/>
		</g>
	</g>
	<g>
		<circle class="st2" cx="60.1" cy="7" r="6.7"/>
		<path class="st3" d="M50.4,17.3l1.7-10.4c0,4.5,3.6,8.1,8.1,8.1c4.5,0,8.1-3.6,8.1-8.1l1.6,10.4L50.4,17.3z"/>
		<rect x="55.5" y="5.7" class="st4" width="9.2" height="3.1"/>
	</g>
</g>
<g>
	<path class="st4" d="M54.2,27.2h7.5c-3.7,1-5.2,5.1-5.2,5.1l3.1,1.7L53,38.4l-3.3-9.6l2.7,1.3C52.7,28.5,54.2,27.2,54.2,27.2z"/>
	<path class="st4" d="M60.4,50.7c1.1-3.7-1.8-6.8-1.8-6.8l-3.1,1.7l-0.3-7.9l9.9,2.2l-2.5,1.6c2.6,3.5,1.9,7.8,1.9,7.8
		C63.2,51.1,60.4,50.7,60.4,50.7z"/>
	<path class="st4" d="M42.3,39.6c2.4,1.3,5.1,0.7,5.1,0.7l0.1-3.5l6.9,3.8l-7,7.4l-0.1-3c-2,0.2-3.8-0.3-5.2-0.9L42.3,39.6z"/>
</g>
</svg>
