<?xml version="1.0" encoding="UTF-8" standalone="no"?>
<svg
   xmlns:dc="http://purl.org/dc/elements/1.1/"
   xmlns:cc="http://creativecommons.org/ns#"
   xmlns:rdf="http://www.w3.org/1999/02/22-rdf-syntax-ns#"
   xmlns:svg="http://www.w3.org/2000/svg"
   xmlns="http://www.w3.org/2000/svg"
   viewBox="0 0 61.080002 41.733334"
   height="41.733334"
   width="61.080002"
   xml:space="preserve"
   id="svg2"
   version="1.1"><metadata
     id="metadata8"><rdf:RDF><cc:Work
         rdf:about=""><dc:format>image/svg+xml</dc:format><dc:type
           rdf:resource="http://purl.org/dc/dcmitype/StillImage" /></cc:Work></rdf:RDF></metadata><defs
     id="defs6" /><g
     transform="matrix(1.3333333,0,0,-1.3333333,0,41.733333)"
     id="g10"><g
       transform="scale(0.1)"
       id="g12"><path
         id="path14"
         style="fill:#000000;fill-opacity:1;fill-rule:nonzero;stroke:none"
         d="M 11.3125,4.48047 H 392.797 V 255.117 H 11.3125 V 4.48047" /><path
         id="path16"
         style="fill:none;stroke:#FFFFFF;stroke-width:4;stroke-linecap:butt;stroke-linejoin:miter;stroke-miterlimit:4;stroke-dasharray:none;stroke-opacity:1"
         d="M 11.3125,4.48047 H 392.797 V 255.117 H 11.3125 Z" /><path
         id="path18"
         style="fill:#000000;fill-opacity:1;fill-rule:nonzero;stroke:none"
         d="M 448.168,54.2188 392.797,4.48047 V 255.117 l 55.371,53.215 V 54.2188" /><path
         id="path20"
         style="fill:none;stroke:#FFFFFF;stroke-width:4;stroke-linecap:butt;stroke-linejoin:miter;stroke-miterlimit:4;stroke-dasharray:none;stroke-opacity:1"
         d="M 448.168,54.2188 392.797,4.48047 V 255.117 l 55.371,53.215 z" /><path
         id="path22"
         style="fill:#000000;fill-opacity:1;fill-rule:nonzero;stroke:none"
         d="M 77.1445,308.332 H 448.168 L 392.797,255.117 H 11.3125 l 65.832,53.215" /><path
         id="path24"
         style="fill:none;stroke:#FFFFFF;stroke-width:8;stroke-linecap:butt;stroke-linejoin:miter;stroke-miterlimit:4;stroke-dasharray:none;stroke-opacity:1"
         d="M 77.1445,308.332 H 448.168 L 392.797,255.117 H 11.3125 Z" /><path
         id="path26"
         style="fill:#FFFFFF;fill-opacity:1;fill-rule:nonzero;stroke:none"
         d="m 342.055,193.609 -33.887,-0.05 v 10.156 l 33.887,0.039 0.031,15.859 36.992,-20.937 -36.992,-20.946 -0.031,15.879" /><path
         id="path28"
         style="fill:#FFFFFF;fill-opacity:1;fill-rule:nonzero;stroke:none"
         d="m 342.055,66.9336 -33.887,-0.0391 v 10.1563 l 33.887,0.039 0.031,15.8594 36.992,-20.957 -36.992,-20.9375 -0.031,15.8789" /><path
         id="path30"
         style="fill:#FFFFFF;fill-opacity:1;fill-rule:nonzero;stroke:none"
         d="M 64.1953,129.629 26.2852,129.57 v 10.157 l 37.9101,0.039 0.0195,15.859 37.0122,-20.937 -37.0122,-20.938 -0.0195,15.879" /><path
         id="path32"
         style="fill:#000000;fill-opacity:1;fill-rule:nonzero;stroke:none"
         d="m 285.602,170.117 c 0,-17.832 -38.938,-32.265 -86.973,-32.265 -48.039,0 -86.992,14.433 -86.992,32.265 V 95.8203 c 0,-17.793 38.953,-32.2265 86.992,-32.2265 48.035,0 86.973,14.4335 86.973,32.2265 v 74.2967" /><path
         id="path34"
         style="fill:none;stroke:#FFFFFF;stroke-width:4;stroke-linecap:butt;stroke-linejoin:miter;stroke-miterlimit:4;stroke-dasharray:none;stroke-opacity:1"
         d="m 285.602,170.117 c 0,-17.832 -38.938,-32.265 -86.973,-32.265 -48.039,0 -86.992,14.433 -86.992,32.265 V 95.8203 c 0,-17.793 38.953,-32.2265 86.992,-32.2265 48.035,0 86.973,14.4335 86.973,32.2265 z" /><path
         id="path36"
         style="fill:#000000;fill-opacity:1;fill-rule:nonzero;stroke:none"
         d="m 198.629,137.852 c 48.035,0 86.973,14.433 86.973,32.265 0,17.789 -38.938,32.223 -86.973,32.223 -48.039,0 -86.992,-14.434 -86.992,-32.223 0,-17.832 38.953,-32.265 86.992,-32.265" /><path
         id="path38"
         style="fill:none;stroke:#FFFFFF;stroke-width:4;stroke-linecap:butt;stroke-linejoin:miter;stroke-miterlimit:4;stroke-dasharray:none;stroke-opacity:1"
         d="m 198.629,137.852 c 48.035,0 86.973,14.433 86.973,32.265 0,17.789 -38.938,32.223 -86.973,32.223 -48.039,0 -86.992,-14.434 -86.992,-32.223 0,-17.832 38.953,-32.265 86.992,-32.265 z" /></g></g></svg>