<?xml version="1.0" encoding="utf-8"?>
<!-- Generator: Adobe Illustrator 20.1.0, SVG Export Plug-In . SVG Version: 6.00 Build 0)  -->
<svg version="1.1" id="Layer_1" xmlns="http://www.w3.org/2000/svg" xmlns:xlink="http://www.w3.org/1999/xlink" x="0px" y="0px"
	 viewBox="0 0 45.9 89.2" style="enable-background:new 0 0 45.9 89.2;" xml:space="preserve">
<style type="text/css">
	.st0{fill:#000000;stroke:#FFFFFF;stroke-width:0.8;}
	.st1{fill:#FFFFFF;stroke:#000000;stroke-width:0.282;}
</style>
<g>
	<rect x="0.4" y="8.8" class="st0" width="36.2" height="80"/>
	<polyline class="st0" points="0.4,8.8 8.7,0.9 44.9,0.9 36.6,8.8 0.4,8.8 	"/>
	<polyline class="st0" points="36.6,88.8 44.9,80.9 44.9,0.9 36.6,8.8 36.6,88.8 	"/>
	<path class="st1" d="M13.7,65.9c0-0.2,0.1-1.8,1.7-4.3c0.3-0.5,0.8-1,1.2-1.3l-4.3,3.9c-0.4,0.4-0.8,0.8-1.2,1.3
		c-1.7,2.5-1.6,3.7-1.7,4.1L13.7,65.9z"/>
	<path class="st1" d="M27.2,63.4c-1.9-2.2-4.4-4.9-10-3.7c-0.2,0.1-0.4,0.3-0.6,0.5l-4.3,3.9c2.1-1.9,7.3-3.4,11.4,2.6L20.9,69
		l6.5,0.6l2.3-8.3L27.2,63.4z"/>
	<path class="st1" d="M29.7,68.4l-4.3,4c-0.1,0.3,0.8,3-1.4,7.1c-3.2,0.9-7.3-0.6-9.8-7.1l2.5-2.2l-5.2-1.5l-3.1,8.9L11,75
		c1,1.8,2.1,3.3,3.3,4.5H10l1.7-1.6l-9.6,2.9L6,83.4l1-1h12.8l0,0c0.8,0,1.5-0.1,2.2-0.4c0,0,0.1-0.1,0.4-0.3c0,0-0.1,0.1-0.1,0.1
		c0,0,4-3,4.6-3.6C28.6,76.3,30,73.9,29.7,68.4z"/>
	<path class="st1" d="M17,54.2l3.4-3.1c-3.4,0-5.1,0.1-7.4,0.3c-1.1,4.1-2,6.5-3.1,9.2l3.6-3.3c2.6,2.4,5.7,3,8.4,1.7
		c0.1-0.1,0.2-0.1,0.2-0.2l4.3-3.9C23.8,57.4,19.9,57.1,17,54.2z"/>
	<path class="st1" d="M13.9,48.6c-0.9-3.5-0.4-7.3,1.5-10c0.4-0.5,0.8-1,1.2-1.3l-4.3,3.9c-0.4,0.4-0.8,0.8-1.2,1.3
		c-1.9,2.7-2.4,6.5-1.5,9.9L13.9,48.6z"/>
	<path class="st1" d="M22.5,37.1c-1.7-0.8-3.6-0.9-5.3-0.4c-0.2,0.1-0.4,0.3-0.6,0.5l-4.3,3.9c2-1.8,4.6-2.2,6.9-1.2l-2.4,2.1
		l7.4-0.2l1.3-7.4L22.5,37.1z"/>
	<path class="st1" d="M28,39.8c2.7,5.5,1.7,10.9-0.2,13.8c-0.4,0.5-0.8,1-1.2,1.3l-4.3,3.9c0.4-0.4,0.8-0.8,1.2-1.3
		c3.5-5.2,1.5-10.4,0.4-13.8L28,39.8z"/>
	<path class="st1" d="M22,35.8c0.1-0.1,0.2-0.1,0.2-0.2l4.3-3.9c-2.9,2.6-6.9,2.2-9.9-1l-3.4,3.1C15.9,36.4,19.2,37.1,22,35.8z"/>
	<path class="st1" d="M17,22.7l-3.1,2.8c-0.9-3.5-0.4-7.3,1.5-10c0.4-0.5,0.8-1,1.2-1.3L12.3,18c-0.4,0.4-0.8,0.8-1.2,1.3
		c-1.9,2.7-2.4,6.6-1.5,10l-3.1,2.8c2.1,0,4.1,0,7.3-0.3C14.7,28.8,15.5,26.5,17,22.7"/>
	<path class="st1" d="M32.3,17.5l-3.1,2.8c0.9,3.5,0.5,7.4-1.5,10.1c-0.4,0.5-0.8,1-1.2,1.3l-4.3,3.9c0.4-0.4,0.8-0.8,1.2-1.3
		c1.9-2.7,2.4-6.6,1.5-10.1l-3.1,2.8c1.1-2.7,2-5.1,3.1-9.2C27.2,17.6,28.9,17.4,32.3,17.5"/>
	<path class="st1" d="M34.9,13.3H20.3c-1-0.1-2.1-0.1-3.1,0.3c-0.2,0.1-0.4,0.3-0.6,0.5L12.3,18c2.9-2.6,7-2.2,9.9,1l2.9-2.7h6.5
		L34.9,13.3z"/>
</g>
</svg>
