<?xml version="1.0" encoding="utf-8"?>
<!-- Generator: Adobe Illustrator 20.1.0, SVG Export Plug-In . SVG Version: 6.00 Build 0)  -->
<svg version="1.1" id="Layer_1" xmlns="http://www.w3.org/2000/svg" xmlns:xlink="http://www.w3.org/1999/xlink" x="0px" y="0px"
	 viewBox="0 0 63.3 65.7" style="enable-background:new 0 0 63.3 65.7;" xml:space="preserve">
<style type="text/css">
	.st0{fill:#000000;stroke:#FFFFFF;stroke-width:0.8;}
</style>
<g>
	<polygon class="st0" points="62.5,37.3 56.7,45 9,45 16.8,37.2 	"/>
	<rect x="8.9" y="45.1" class="st0" width="45.8" height="8.5"/>
	<rect x="8.7" y="8.8" class="st0" width="45.6" height="34.4"/>
	<polygon class="st0" points="54.4,43.2 62.1,35.4 62.1,1 54.4,8.8 	"/>
	<polygon class="st0" points="54.6,53.6 54.6,45.1 62.4,37.4 62.4,45.9 	"/>
	<path class="st0" d="M16.3,12.7h30.5c2,0,3.6,1.6,3.6,3.6v19.3c0,2-1.6,3.6-3.6,3.6H16.3c-2,0-3.6-1.6-3.6-3.6V16.3
		C12.7,14.3,14.3,12.7,16.3,12.7z"/>
	<polygon class="st0" points="62.1,1 17.7,1 8.7,8.8 54.4,8.8 	"/>
	<polygon class="st0" points="53.3,64.7 53.3,61.9 59.3,53.7 59.3,58.7 	"/>
	<polygon class="st0" points="53.3,62 0.8,62 6.8,53.7 59.3,53.7 	"/>
	<rect x="0.7" y="62" class="st0" width="52.6" height="2.7"/>
	<g>
		<path class="st0" d="M26.8,18.7c-5.3-1.1-8.2,1.7-7.7,4l0,0.1c-4.2,0.7-3.1,5.6-1.1,5.6l0.2,0c-0.5,3.4,4.5,5.4,7.1,3.5l0.2-0.2
			c0.8,3.2,11.5,3.5,13.7,1.1l0.2,0.1c4.7,0.4,6.9-2.9,5.8-5.2l0.3-0.1c1.6-0.4,1.8-4.1-1-4.7l0.1-0.1c1.2-2.4-1.6-4.7-5.5-4.3
			l-0.3-0.1C36,15.8,27.9,16.2,27,18.7L26.8,18.7z"/>
	</g>
</g>
</svg>
