<?xml version="1.0" encoding="UTF-8" standalone="no"?>
<svg
   xmlns:dc="http://purl.org/dc/elements/1.1/"
   xmlns:cc="http://creativecommons.org/ns#"
   xmlns:rdf="http://www.w3.org/1999/02/22-rdf-syntax-ns#"
   xmlns:svg="http://www.w3.org/2000/svg"
   xmlns="http://www.w3.org/2000/svg"
   viewBox="0 0 42.173332 43.786667"
   height="43.786667"
   width="42.173332"
   xml:space="preserve"
   id="svg2"
   version="1.1"><metadata
     id="metadata8"><rdf:RDF><cc:Work
         rdf:about=""><dc:format>image/svg+xml</dc:format><dc:type
           rdf:resource="http://purl.org/dc/dcmitype/StillImage" /></cc:Work></rdf:RDF></metadata><defs
     id="defs6" /><g
     transform="matrix(1.3333333,0,0,-1.3333333,0,43.786667)"
     id="g10"><g
       transform="scale(0.1)"
       id="g12"><path
         id="path14"
         style="fill:#000000;fill-opacity:1;fill-rule:nonzero;stroke:none"
         d="M 312.305,141.855 283.516,103.457 H 44.8789 l 39.082,39.082 228.3441,-0.684" /><path
         id="path16"
         style="fill:none;stroke:#FFFFFF;stroke-width:3.99993992;stroke-linecap:butt;stroke-linejoin:miter;stroke-miterlimit:4;stroke-dasharray:none;stroke-opacity:1"
         d="M 312.305,141.855 283.516,103.457 H 44.8789 l 39.082,39.082 z" /><path
         id="path18"
         style="fill:#000000;fill-opacity:1;fill-rule:nonzero;stroke:none"
         d="m 44.293,60.2617 h 229.008 v 42.707 H 44.293 Z" /><path
         id="path20"
         style="fill:none;stroke:#FFFFFF;stroke-width:3.99993992;stroke-linecap:butt;stroke-linejoin:miter;stroke-miterlimit:4;stroke-dasharray:none;stroke-opacity:1"
         d="M 44.293,60.2617 V 102.969 H 273.301 V 60.2617 Z" /><path
         id="path22"
         style="fill:#000000;fill-opacity:1;fill-rule:nonzero;stroke:none"
         d="m 43.5508,112.578 h 228.207 V 284.637 H 43.5508 Z" /><path
         id="path24"
         style="fill:none;stroke:#FFFFFF;stroke-width:3.99993992;stroke-linecap:butt;stroke-linejoin:miter;stroke-miterlimit:4;stroke-dasharray:none;stroke-opacity:1"
         d="M 43.5508,284.637 H 271.758 V 112.578 H 43.5508 Z" /><path
         id="path26"
         style="fill:#000000;fill-opacity:1;fill-rule:nonzero;stroke:none"
         d="m 271.758,112.578 38.945,38.945 V 323.574 L 271.758,284.637 V 112.578" /><path
         id="path28"
         style="fill:none;stroke:#FFFFFF;stroke-width:3.99993992;stroke-linecap:butt;stroke-linejoin:miter;stroke-miterlimit:4;stroke-dasharray:none;stroke-opacity:1"
         d="m 271.758,112.578 38.945,38.945 v 172.051 l -38.945,-38.937 z" /><path
         id="path30"
         style="fill:#000000;fill-opacity:1;fill-rule:nonzero;stroke:none"
         d="m 273.105,60.1563 v 42.7417 l 38.692,38.684 V 98.8477 L 273.105,60.1563" /><path
         id="path32"
         style="fill:none;stroke:#FFFFFF;stroke-width:3.99993992;stroke-linecap:butt;stroke-linejoin:miter;stroke-miterlimit:4;stroke-dasharray:none;stroke-opacity:1"
         d="m 273.105,60.1563 v 42.7417 l 38.692,38.684 V 98.8477 Z" /><path
         id="path34"
         style="fill:#000000;fill-opacity:1;fill-rule:nonzero;stroke:none"
         d="M 81.4297,264.824 H 233.926 c 9.922,0 17.969,-8.047 17.969,-17.98 v -96.336 c 0,-9.922 -8.047,-17.969 -17.969,-17.969 H 81.4297 c -9.9219,0 -17.9688,8.047 -17.9688,17.969 v 96.336 c 0,9.933 8.0469,17.98 17.9688,17.98" /><path
         id="path36"
         style="fill:none;stroke:#FFFFFF;stroke-width:3.99993992;stroke-linecap:butt;stroke-linejoin:miter;stroke-miterlimit:4;stroke-dasharray:none;stroke-opacity:1"
         d="M 81.4297,264.824 H 233.926 c 9.922,0 17.969,-8.047 17.969,-17.98 v -96.336 c 0,-9.922 -8.047,-17.969 -17.969,-17.969 H 81.4297 c -9.9219,0 -17.9688,8.047 -17.9688,17.969 v 96.336 c 0,9.933 8.0469,17.98 17.9688,17.98 z" /><path
         id="path38"
         style="fill:#000000;fill-opacity:1;fill-rule:nonzero;stroke:none"
         d="M 310.703,323.574 H 88.7344 L 43.5508,284.637 H 271.758 l 38.945,38.937" /><path
         id="path40"
         style="fill:none;stroke:#FFFFFF;stroke-width:3.99993992;stroke-linecap:butt;stroke-linejoin:miter;stroke-miterlimit:4;stroke-dasharray:none;stroke-opacity:1"
         d="M 310.703,323.574 H 88.7344 L 43.5508,284.637 H 271.758 Z" /><path
         id="path42"
         style="fill:#000000;fill-opacity:1;fill-rule:nonzero;stroke:none"
         d="M 266.504,4.82422 V 18.6719 l 29.883,41.3476 V 34.707 L 266.504,4.82422" /><path
         id="path44"
         style="fill:none;stroke:#FFFFFF;stroke-width:3.99993992;stroke-linecap:butt;stroke-linejoin:miter;stroke-miterlimit:4;stroke-dasharray:none;stroke-opacity:1"
         d="M 266.504,4.82422 V 18.6719 l 29.883,41.3476 V 34.707 Z" /><path
         id="path46"
         style="fill:#000000;fill-opacity:1;fill-rule:nonzero;stroke:none"
         d="M 266.504,18.4648 H 3.90234 L 33.7734,60.0195 H 296.387 L 266.504,18.4648" /><path
         id="path48"
         style="fill:none;stroke:#FFFFFF;stroke-width:3.99993992;stroke-linecap:butt;stroke-linejoin:miter;stroke-miterlimit:4;stroke-dasharray:none;stroke-opacity:1"
         d="M 266.504,18.4648 H 3.90234 L 33.7734,60.0195 H 296.387 Z" /><path
         id="path50"
         style="fill:#000000;fill-opacity:1;fill-rule:nonzero;stroke:none"
         d="m 3.74609,4.82422 h 262.758 v 13.6406 H 3.74609 Z" /><path
         id="path52"
         style="fill:none;stroke:#FFFFFF;stroke-width:3.99993992;stroke-linecap:butt;stroke-linejoin:miter;stroke-miterlimit:4;stroke-dasharray:none;stroke-opacity:1"
         d="M 266.504,18.4648 V 4.82422 H 3.74609 V 18.4648 Z" /><path
         id="path54"
         style="fill:#000000;fill-opacity:1;fill-rule:nonzero;stroke:none"
         d="M 134.117,235.137 C 107.438,240.469 93.3555,226.805 95.582,215 l 0.1758,-0.645 C 74.9766,210.809 80.4258,186.27 90.3945,186.27 l 0.9883,0.039 c -2.3437,-16.914 22.6562,-26.914 35.3322,-17.403 l 0.859,0.957 c 3.965,-16.093 57.719,-17.343 68.578,-5.304 l 0.957,-0.282 c 23.555,-1.894 34.278,14.364 29.121,26.043 l 1.27,0.364 c 8.027,2.109 8.965,20.644 -4.805,23.379 l 0.254,0.722 c 5.977,12.051 -8.125,23.418 -27.676,21.289 l -1.367,0.703 c -14.004,12.676 -54.312,10.614 -58.98,-1.933 l -0.809,0.293" /><path
         id="path56"
         style="fill:none;stroke:#FFFFFF;stroke-width:3.99993992;stroke-linecap:butt;stroke-linejoin:miter;stroke-miterlimit:4;stroke-dasharray:none;stroke-opacity:1"
         d="M 134.117,235.137 C 107.438,240.469 93.3555,226.805 95.582,215 l 0.1758,-0.645 C 74.9766,210.809 80.4258,186.27 90.3945,186.27 l 0.9883,0.039 c -2.3437,-16.914 22.6562,-26.914 35.3322,-17.403 l 0.859,0.957 c 3.965,-16.093 57.719,-17.343 68.578,-5.304 l 0.957,-0.282 c 23.555,-1.894 34.278,14.364 29.121,26.043 l 1.27,0.364 c 8.027,2.109 8.965,20.644 -4.805,23.379 l 0.254,0.722 c 5.977,12.051 -8.125,23.418 -27.676,21.289 l -1.367,0.703 c -14.004,12.676 -54.312,10.614 -58.98,-1.933 z" /></g></g></svg>