<?xml version="1.0" encoding="utf-8"?>
<!-- Generator: Adobe Illustrator 20.1.0, SVG Export Plug-In . SVG Version: 6.00 Build 0)  -->
<svg version="1.1" id="Layer_1" xmlns="http://www.w3.org/2000/svg" xmlns:xlink="http://www.w3.org/1999/xlink" x="0px" y="0px"
	 viewBox="0 0 97.6 55" style="enable-background:new 0 0 97.6 55;" xml:space="preserve">
<style type="text/css">
	.st0{fill:#000000;stroke:#FFFFFF;stroke-width:0.8;}
	.st1{fill:#FFFFFF;}
	.st2{fill:none;stroke:#FFFFFF;stroke-width:0.9;stroke-linecap:round;stroke-miterlimit:1;}
	.st3{fill:none;stroke:#FFFFFF;stroke-width:1.8;stroke-linecap:round;stroke-miterlimit:1;}
	.st4{fill:none;stroke:#000000;stroke-width:0.9;stroke-linecap:round;stroke-miterlimit:1;}
	.st5{fill:none;stroke:#000000;stroke-width:1.8;stroke-linecap:round;stroke-miterlimit:1;}
</style>
<polygon class="st0" points="1.1,24.2 30,0.9 96.6,0.9 72.7,24.2 "/>
<polygon class="st0" points="72.7,54 96.6,29.7 96.6,0.9 72.7,24.2 "/>
<rect x="1.2" y="24.2" class="st0" width="71.5" height="29.8"/>
<polygon class="st1" points="22.8,15.8 31.7,14.9 30.5,18.6 27.8,17.3 18,21.5 15.6,20.8 25.1,16.7 "/>
<polygon class="st1" points="61,15.9 53.2,14.6 53.6,18.7 56.1,17.4 63.2,20.9 65.5,20.3 58.7,16.9 "/>
<path class="st2" d="M68.7,40c0,0-4.8,12.2-10.5,0c-5.7-12.3-10.5,0-10.5,0s-4.8,12.2-10.5,0C31.6,27.6,26.8,40,26.8,40
	s-4.7,12.2-10.5,0c-5.7-12.3-10.5,0-10.5,0"/>
<path class="st3" d="M5.9,40c0,0,4.8,12.2,10.5,0c5.7-12.3,10.5,0,10.5,0s4.8,12.2,10.5,0C43,27.6,47.8,40,47.8,40s4.7,12.2,10.5,0
	c5.7-12.3,10.5,0,10.5,0"/>
<path class="st4" d="M69.8,40c0,0-4.8,12.2-10.5,0c-5.7-12.3-10.5,0-10.5,0s-4.8,12.2-10.5,0C32.7,27.6,27.9,40,27.9,40
	s-4.7,12.2-10.5,0c-5.7-12.3-10.5,0-10.5,0"/>
<path class="st5" d="M7,40c0,0,4.8,12.2,10.5,0c5.7-12.3,10.5,0,10.5,0s4.8,12.2,10.5,0C44.1,27.6,48.9,40,48.9,40s4.7,12.2,10.5,0
	c5.7-12.3,10.5,0,10.5,0"/>
<path class="st2" d="M68.7,40c0,0-4.8,12.2-10.5,0c-5.7-12.3-10.5,0-10.5,0s-4.8,12.2-10.5,0C31.6,27.6,26.8,40,26.8,40
	s-4.7,12.2-10.5,0c-5.7-12.3-10.5,0-10.5,0"/>
<path class="st3" d="M5.9,40c0,0,4.8,12.2,10.5,0c5.7-12.3,10.5,0,10.5,0s4.8,12.2,10.5,0C43,27.6,47.8,40,47.8,40s4.7,12.2,10.5,0
	c5.7-12.3,10.5,0,10.5,0"/>
<path class="st4" d="M69.8,40c0,0-4.8,12.2-10.5,0c-5.7-12.3-10.5,0-10.5,0s-4.8,12.2-10.5,0C32.7,27.6,27.9,40,27.9,40
	s-4.7,12.2-10.5,0c-5.7-12.3-10.5,0-10.5,0"/>
<path class="st5" d="M7,40c0,0,4.8,12.2,10.5,0c5.7-12.3,10.5,0,10.5,0s4.8,12.2,10.5,0C44.1,27.6,48.9,40,48.9,40s4.7,12.2,10.5,0
	c5.7-12.3,10.5,0,10.5,0"/>
<path class="st2" d="M68.7,40c0,0-4.8,12.2-10.5,0c-5.7-12.3-10.5,0-10.5,0s-4.8,12.2-10.5,0C31.6,27.6,26.8,40,26.8,40
	s-4.7,12.2-10.5,0c-5.7-12.3-10.5,0-10.5,0"/>
<path class="st3" d="M5.9,40c0,0,4.8,12.2,10.5,0c5.7-12.3,10.5,0,10.5,0s4.8,12.2,10.5,0C43,27.6,47.8,40,47.8,40s4.7,12.2,10.5,0
	c5.7-12.3,10.5,0,10.5,0"/>
<polygon class="st1" points="47.4,6.7 43.6,6.5 56.2,3.3 61.7,7.6 57.6,7.3 56.8,7.3 50,12.2 40.8,12.2 48,6.8 "/>
<polygon class="st1" points="39.6,18.4 36.9,18.4 43.9,14 44.4,18.4 41.5,18.4 42,18.5 38.4,22.3 35.8,22.3 39.4,18.4 "/>
</svg>
