<?xml version="1.0" encoding="UTF-8" standalone="no"?>
<svg
   xmlns:dc="http://purl.org/dc/elements/1.1/"
   xmlns:cc="http://creativecommons.org/ns#"
   xmlns:rdf="http://www.w3.org/1999/02/22-rdf-syntax-ns#"
   xmlns:svg="http://www.w3.org/2000/svg"
   xmlns="http://www.w3.org/2000/svg"
   viewBox="0 0 48.906666 18.426666"
   height="18.426666"
   width="48.906666"
   xml:space="preserve"
   id="svg2"
   version="1.1"><metadata
     id="metadata8"><rdf:RDF><cc:Work
         rdf:about=""><dc:format>image/svg+xml</dc:format><dc:type
           rdf:resource="http://purl.org/dc/dcmitype/StillImage" /></cc:Work></rdf:RDF></metadata><defs
     id="defs6" /><g
     transform="matrix(1.3333333,0,0,-1.3333333,0,18.426667)"
     id="g10"><g
       transform="scale(0.1)"
       id="g12"><path
         id="path14"
         style="fill:#00B38A;fill-opacity:1;fill-rule:nonzero;stroke:none"
         d="m 6.07813,5.64063 h 297.773 v 74.4414 H 6.07813 Z" /><path
         id="path16"
         style="fill:none;stroke:#ffffff;stroke-width:3.99993992;stroke-linecap:butt;stroke-linejoin:miter;stroke-miterlimit:4;stroke-dasharray:none;stroke-opacity:1"
         d="M 6.07813,5.64063 V 80.082 H 303.852 V 5.64063 Z" /><path
         id="path18"
         style="fill:#00B38A;fill-opacity:1;fill-rule:nonzero;stroke:none"
         d="M 303.852,5.26953 V 80.082 H 5.92188 L 79.5742,136.246 H 345.551 364.75 V 73.9219 L 303.852,5.26953" /><path
         id="path20"
         style="fill:none;stroke:#ffffff;stroke-width:3.99993992;stroke-linecap:butt;stroke-linejoin:miter;stroke-miterlimit:4;stroke-dasharray:none;stroke-opacity:1"
         d="M 303.852,5.26953 V 80.082 H 5.92188 L 79.5742,136.246 H 345.551 364.75 V 73.9219 Z" /><path
         id="path22"
         style="fill:#00B38A;fill-opacity:1;fill-rule:nonzero;stroke:none"
         d="m 307.016,81.4219 53.39,53.6601" /><path
         id="path24"
         style="fill:none;stroke:#ffffff;stroke-width:3.99993992;stroke-linecap:butt;stroke-linejoin:miter;stroke-miterlimit:4;stroke-dasharray:none;stroke-opacity:1"
         d="m 307.016,81.4219 53.39,53.6601" /><path
         id="path26"
         style="fill:#ffffff;fill-opacity:1;fill-rule:nonzero;stroke:none"
         d="m 57.543,30.0938 c 5.8593,0 10.6054,4.746 10.6054,10.6054 0,5.8594 -4.7461,10.6055 -10.6054,10.6055 -5.8594,0 -10.6055,-4.7461 -10.6055,-10.6055 0,-5.8594 4.7461,-10.6054 10.6055,-10.6054" /><path
         id="path28"
         style="fill:#ffffff;fill-opacity:1;fill-rule:nonzero;stroke:none"
         d="m 105.043,30.0938 c 5.859,0 10.605,4.746 10.605,10.6054 0,5.8594 -4.746,10.6055 -10.605,10.6055 -5.8594,0 -10.6055,-4.7461 -10.6055,-10.6055 0,-5.8594 4.7461,-10.6054 10.6055,-10.6054" /><path
         id="path30"
         style="fill:#ffffff;fill-opacity:1;fill-rule:nonzero;stroke:none"
         d="m 152.543,30.0938 c 5.859,0 10.605,4.746 10.605,10.6054 0,5.8594 -4.746,10.6055 -10.605,10.6055 -5.859,0 -10.605,-4.7461 -10.605,-10.6055 0,-5.8594 4.746,-10.6054 10.605,-10.6054" /><path
         id="path32"
         style="fill:#ffffff;fill-opacity:1;fill-rule:nonzero;stroke:none"
         d="m 200.043,30.0938 c 5.859,0 10.605,4.746 10.605,10.6054 0,5.8594 -4.746,10.6055 -10.605,10.6055 -5.859,0 -10.605,-4.7461 -10.605,-10.6055 0,-5.8594 4.746,-10.6054 10.605,-10.6054" /><path
         id="path34"
         style="fill:#ffffff;fill-opacity:1;fill-rule:nonzero;stroke:none"
         d="m 247.543,30.0938 c 5.859,0 10.605,4.746 10.605,10.6054 0,5.8594 -4.746,10.6055 -10.605,10.6055 -5.859,0 -10.605,-4.7461 -10.605,-10.6055 0,-5.8594 4.746,-10.6054 10.605,-10.6054" /></g></g></svg>