<?xml version="1.0" encoding="UTF-8" standalone="no"?>
<svg
   xmlns:dc="http://purl.org/dc/elements/1.1/"
   xmlns:cc="http://creativecommons.org/ns#"
   xmlns:rdf="http://www.w3.org/1999/02/22-rdf-syntax-ns#"
   xmlns:svg="http://www.w3.org/2000/svg"
   xmlns="http://www.w3.org/2000/svg"
   xmlns:sodipodi="http://sodipodi.sourceforge.net/DTD/sodipodi-0.dtd"
   xmlns:inkscape="http://www.inkscape.org/namespaces/inkscape"
   version="1.1"
   width="509.0000"
   height="509.0000"
   id="svg1023"
   sodipodi:docname="Anti-Flood02.svg"
   inkscape:version="0.92.3 (2405546, 2018-03-11)">
  <metadata
     id="metadata1029">
    <rdf:RDF>
      <cc:Work
         rdf:about="">
        <dc:format>image/svg+xml</dc:format>
        <dc:type
           rdf:resource="http://purl.org/dc/dcmitype/StillImage" />
      </cc:Work>
    </rdf:RDF>
  </metadata>
  <defs
     id="defs1027" />
  <sodipodi:namedview
     pagecolor="#FFFFFF"
     bordercolor="#666666"
     borderopacity="1"
     objecttolerance="10"
     gridtolerance="10"
     guidetolerance="10"
     inkscape:pageopacity="0"
     inkscape:pageshadow="2"
     inkscape:window-width="1551"
     inkscape:window-height="836"
     id="namedview1025"
     showgrid="false"
     inkscape:zoom="1.2730845"
     inkscape:cx="254.5"
     inkscape:cy="254.5"
     inkscape:window-x="49"
     inkscape:window-y="27"
     inkscape:window-maximized="1"
     inkscape:current-layer="svg1023" />
  <g
     transform="translate(-33.0000, -33.0000)"
     id="g1021"
     style="fill:#FFFFFF">
    <path
       d="M 287.0000,33.0000 C 147.0000,33.0000 33.0000,147.0000 33.0000,288.0000 C 33.0000,428.0000 147.0000,542.0000 287.0000,542.0000 C 428.0000,542.0000 542.0000,428.0000 542.0000,288.0000 C 542.0000,147.0000 428.0000,33.0000 287.0000,33.0000 M 287.0000,72.0000 C 406.0000,72.0000 503.0000,169.0000 503.0000,288.0000 C 503.0000,332.0000 489.0000,374.0000 466.0000,408.0000 C 418.0000,407.0000 342.0000,402.0000 297.0000,389.0000 C 275.0000,382.0000 258.0000,369.0000 249.0000,350.0000 C 237.0000,326.0000 241.0000,297.0000 248.0000,280.0000 C 259.0000,249.0000 295.0000,233.0000 322.0000,233.0000 C 333.0000,233.0000 347.0000,236.0000 359.0000,241.0000 C 352.0000,226.0000 339.0000,211.0000 314.0000,203.0000 C 227.0000,176.0000 101.0000,242.0000 74.0000,257.0000 C 89.0000,153.0000 179.0000,72.0000 287.0000,72.0000 "
       fill="#425152"
       stroke="none"
       id="path1015"
       style="fill:#FFFFFF" />
    <path
       d="M 267.0000,253.0000 C 259.0000,260.0000 252.0000,269.0000 248.0000,280.0000 C 247.0000,282.0000 246.0000,284.0000 245.0000,286.0000 C 429.0000,406.0000 429.0000,406.0000 429.0000,406.0000 C 442.0000,407.0000 455.0000,408.0000 466.0000,408.0000 C 468.0000,405.0000 470.0000,402.0000 472.0000,399.0000 C 474.0000,396.0000 475.0000,393.0000 477.0000,390.0000 C 267.0000,253.0000 267.0000,253.0000 267.0000,253.0000 M 118.0000,155.0000 C 110.0000,165.0000 103.0000,176.0000 96.0000,188.0000 C 149.0000,223.0000 149.0000,223.0000 149.0000,223.0000 C 164.0000,217.0000 181.0000,211.0000 198.0000,207.0000 C 118.0000,155.0000 118.0000,155.0000 118.0000,155.0000 "
       fill="#8E9394"
       stroke="none"
       id="path1017"
       style="fill:#FFFFFF" />
    <path
       d="M 429.0000,406.0000 C 455.0000,424.0000 455.0000,424.0000 455.0000,424.0000 C 459.0000,419.0000 463.0000,413.0000 466.0000,408.0000 C 455.0000,408.0000 442.0000,407.0000 429.0000,406.0000 M 477.0000,390.0000 C 475.0000,393.0000 474.0000,396.0000 472.0000,399.0000 C 474.0000,396.0000 475.0000,393.0000 477.0000,391.0000 C 477.0000,391.0000 477.0000,391.0000 477.0000,391.0000 M 198.0000,207.0000 C 181.0000,211.0000 164.0000,217.0000 149.0000,223.0000 C 245.0000,286.0000 245.0000,286.0000 245.0000,286.0000 C 246.0000,284.0000 247.0000,282.0000 248.0000,280.0000 C 252.0000,269.0000 259.0000,260.0000 267.0000,253.0000 C 198.0000,207.0000 198.0000,207.0000 198.0000,207.0000 "
       fill="#425252"
       stroke="none"
       id="path1019"
       style="fill:#FFFFFF" />
  </g>
</svg>
