<?xml version="1.0"  encoding="UTF-8" standalone="no"?>
<svg version="1.1" xmlns="http://www.w3.org/2000/svg" xmlns:xlink="http://www.w3.org/1999/xlink" width="351.0000" height="346.0000">
<g transform="translate(-112.0000, -114.0000)">
<path d="M 462.0000,182.0000 C 452.0000,137.0000 369.0000,114.0000 288.0000,114.0000 C 288.0000,114.0000 288.0000,114.0000 288.0000,114.0000 C 288.0000,114.0000 288.0000,114.0000 288.0000,114.0000 C 206.0000,114.0000 123.0000,137.0000 113.0000,182.0000 C 112.0000,185.0000 112.0000,188.0000 112.0000,191.0000 C 112.0000,201.0000 112.0000,201.0000 112.0000,201.0000 C 112.0000,224.0000 112.0000,224.0000 112.0000,224.0000 C 112.0000,300.0000 112.0000,300.0000 112.0000,300.0000 C 112.0000,384.0000 112.0000,384.0000 112.0000,384.0000 C 112.0000,393.0000 112.0000,393.0000 112.0000,393.0000 C 113.0000,393.0000 113.0000,393.0000 113.0000,393.0000 C 113.0000,394.0000 114.0000,394.0000 114.0000,395.0000 C 114.0000,396.0000 115.0000,398.0000 115.0000,399.0000 C 116.0000,400.0000 116.0000,401.0000 116.0000,401.0000 C 117.0000,403.0000 118.0000,404.0000 119.0000,406.0000 C 119.0000,406.0000 119.0000,407.0000 120.0000,408.0000 C 121.0000,409.0000 122.0000,411.0000 123.0000,412.0000 C 123.0000,413.0000 124.0000,413.0000 124.0000,414.0000 C 126.0000,415.0000 127.0000,417.0000 129.0000,418.0000 C 129.0000,419.0000 129.0000,419.0000 130.0000,419.0000 C 132.0000,421.0000 134.0000,423.0000 136.0000,425.0000 C 137.0000,425.0000 138.0000,426.0000 139.0000,426.0000 C 140.0000,427.0000 142.0000,429.0000 144.0000,430.0000 C 145.0000,430.0000 147.0000,431.0000 148.0000,432.0000 C 149.0000,433.0000 150.0000,433.0000 152.0000,434.0000 C 153.0000,435.0000 155.0000,436.0000 157.0000,437.0000 C 158.0000,437.0000 159.0000,438.0000 160.0000,438.0000 C 162.0000,439.0000 164.0000,440.0000 166.0000,441.0000 C 167.0000,441.0000 168.0000,441.0000 169.0000,442.0000 C 171.0000,443.0000 174.0000,444.0000 176.0000,444.0000 C 177.0000,445.0000 178.0000,445.0000 178.0000,445.0000 C 181.0000,446.0000 184.0000,447.0000 187.0000,448.0000 C 187.0000,448.0000 188.0000,448.0000 188.0000,448.0000 C 209.0000,454.0000 232.0000,458.0000 257.0000,460.0000 C 257.0000,459.0000 257.0000,459.0000 257.0000,459.0000 C 267.0000,460.0000 277.0000,460.0000 288.0000,460.0000 C 288.0000,460.0000 288.0000,460.0000 288.0000,460.0000 C 288.0000,460.0000 288.0000,460.0000 288.0000,460.0000 C 298.0000,460.0000 308.0000,460.0000 319.0000,459.0000 C 319.0000,459.0000 319.0000,459.0000 319.0000,460.0000 C 343.0000,458.0000 367.0000,454.0000 387.0000,448.0000 C 388.0000,448.0000 388.0000,448.0000 389.0000,448.0000 C 391.0000,447.0000 394.0000,446.0000 397.0000,445.0000 C 398.0000,445.0000 398.0000,445.0000 399.0000,444.0000 C 401.0000,444.0000 404.0000,443.0000 406.0000,442.0000 C 407.0000,441.0000 408.0000,441.0000 409.0000,441.0000 C 411.0000,440.0000 413.0000,439.0000 415.0000,438.0000 C 416.0000,438.0000 417.0000,437.0000 418.0000,437.0000 C 420.0000,436.0000 422.0000,435.0000 424.0000,434.0000 C 425.0000,433.0000 426.0000,433.0000 427.0000,432.0000 C 429.0000,431.0000 430.0000,430.0000 432.0000,430.0000 C 433.0000,429.0000 435.0000,427.0000 436.0000,426.0000 C 437.0000,426.0000 438.0000,425.0000 439.0000,425.0000 C 441.0000,423.0000 443.0000,421.0000 445.0000,419.0000 C 446.0000,419.0000 446.0000,419.0000 447.0000,418.0000 C 448.0000,417.0000 450.0000,415.0000 451.0000,414.0000 C 451.0000,413.0000 452.0000,413.0000 452.0000,412.0000 C 454.0000,411.0000 455.0000,409.0000 456.0000,408.0000 C 456.0000,407.0000 456.0000,406.0000 457.0000,406.0000 C 458.0000,404.0000 458.0000,403.0000 459.0000,401.0000 C 460.0000,401.0000 460.0000,400.0000 460.0000,399.0000 C 461.0000,398.0000 461.0000,396.0000 462.0000,395.0000 C 462.0000,394.0000 462.0000,394.0000 462.0000,393.0000 C 463.0000,393.0000 463.0000,393.0000 463.0000,393.0000 C 463.0000,384.0000 463.0000,384.0000 463.0000,384.0000 C 463.0000,300.0000 463.0000,300.0000 463.0000,300.0000 C 463.0000,224.0000 463.0000,224.0000 463.0000,224.0000 C 463.0000,201.0000 463.0000,201.0000 463.0000,201.0000 C 463.0000,191.0000 463.0000,191.0000 463.0000,191.0000 C 463.0000,188.0000 463.0000,185.0000 462.0000,182.0000 Z M 427.0000,331.0000 C 416.0000,341.0000 395.0000,350.0000 367.0000,357.0000 C 367.0000,375.0000 367.0000,375.0000 367.0000,375.0000 C 391.0000,370.0000 412.0000,362.0000 427.0000,353.0000 C 427.0000,384.0000 427.0000,384.0000 427.0000,384.0000 C 427.0000,384.0000 427.0000,385.0000 427.0000,386.0000 C 426.0000,387.0000 426.0000,387.0000 426.0000,387.0000 C 426.0000,388.0000 425.0000,389.0000 425.0000,390.0000 C 424.0000,390.0000 424.0000,390.0000 424.0000,390.0000 C 423.0000,391.0000 422.0000,392.0000 421.0000,394.0000 C 421.0000,394.0000 421.0000,394.0000 421.0000,394.0000 C 419.0000,395.0000 418.0000,396.0000 416.0000,397.0000 C 416.0000,397.0000 415.0000,398.0000 415.0000,398.0000 C 414.0000,399.0000 412.0000,400.0000 410.0000,401.0000 C 410.0000,401.0000 409.0000,401.0000 409.0000,401.0000 C 407.0000,402.0000 405.0000,403.0000 402.0000,404.0000 C 402.0000,405.0000 402.0000,405.0000 402.0000,405.0000 C 399.0000,406.0000 396.0000,407.0000 394.0000,408.0000 C 393.0000,408.0000 392.0000,409.0000 391.0000,409.0000 C 389.0000,410.0000 387.0000,410.0000 385.0000,411.0000 C 381.0000,412.0000 378.0000,413.0000 374.0000,414.0000 C 374.0000,414.0000 374.0000,414.0000 374.0000,414.0000 C 352.0000,420.0000 322.0000,424.0000 288.0000,424.0000 C 253.0000,424.0000 223.0000,420.0000 200.0000,414.0000 C 200.0000,414.0000 200.0000,414.0000 200.0000,414.0000 C 197.0000,413.0000 194.0000,412.0000 191.0000,411.0000 C 188.0000,410.0000 186.0000,410.0000 184.0000,409.0000 C 183.0000,409.0000 183.0000,408.0000 182.0000,408.0000 C 179.0000,407.0000 176.0000,406.0000 174.0000,405.0000 C 173.0000,405.0000 173.0000,405.0000 173.0000,404.0000 C 171.0000,403.0000 169.0000,402.0000 167.0000,401.0000 C 166.0000,401.0000 166.0000,401.0000 165.0000,401.0000 C 163.0000,400.0000 162.0000,399.0000 160.0000,398.0000 C 160.0000,398.0000 160.0000,397.0000 159.0000,397.0000 C 158.0000,396.0000 156.0000,395.0000 155.0000,394.0000 C 155.0000,394.0000 155.0000,394.0000 155.0000,394.0000 C 153.0000,392.0000 152.0000,391.0000 151.0000,390.0000 C 151.0000,390.0000 151.0000,390.0000 151.0000,390.0000 C 150.0000,389.0000 150.0000,388.0000 149.0000,387.0000 C 149.0000,387.0000 149.0000,387.0000 149.0000,386.0000 C 148.0000,385.0000 148.0000,384.0000 148.0000,384.0000 C 148.0000,353.0000 148.0000,353.0000 148.0000,353.0000 C 165.0000,363.0000 189.0000,371.0000 216.0000,376.0000 C 216.0000,358.0000 216.0000,358.0000 216.0000,358.0000 C 184.0000,352.0000 160.0000,342.0000 148.0000,331.0000 C 148.0000,294.0000 148.0000,294.0000 148.0000,294.0000 C 159.0000,300.0000 172.0000,306.0000 187.0000,310.0000 C 187.0000,310.0000 187.0000,310.0000 187.0000,310.0000 C 187.0000,310.0000 187.0000,310.0000 187.0000,310.0000 C 197.0000,313.0000 208.0000,316.0000 220.0000,318.0000 C 221.0000,318.0000 222.0000,318.0000 223.0000,318.0000 C 227.0000,319.0000 230.0000,319.0000 233.0000,320.0000 C 236.0000,320.0000 239.0000,321.0000 243.0000,321.0000 C 246.0000,321.0000 249.0000,322.0000 252.0000,322.0000 C 256.0000,322.0000 261.0000,323.0000 265.0000,323.0000 C 267.0000,323.0000 269.0000,323.0000 270.0000,323.0000 C 276.0000,323.0000 282.0000,324.0000 288.0000,324.0000 C 288.0000,324.0000 288.0000,324.0000 288.0000,324.0000 C 288.0000,324.0000 288.0000,324.0000 288.0000,324.0000 C 293.0000,324.0000 299.0000,323.0000 305.0000,323.0000 C 307.0000,323.0000 309.0000,323.0000 310.0000,323.0000 C 315.0000,323.0000 319.0000,322.0000 323.0000,322.0000 C 327.0000,322.0000 330.0000,321.0000 333.0000,321.0000 C 336.0000,321.0000 339.0000,320.0000 342.0000,320.0000 C 345.0000,319.0000 349.0000,319.0000 352.0000,318.0000 C 353.0000,318.0000 354.0000,318.0000 356.0000,318.0000 C 367.0000,316.0000 378.0000,313.0000 389.0000,310.0000 C 389.0000,310.0000 389.0000,310.0000 389.0000,310.0000 C 389.0000,310.0000 389.0000,310.0000 389.0000,310.0000 C 403.0000,306.0000 417.0000,300.0000 427.0000,294.0000 Z M 427.0000,256.0000 C 427.0000,272.0000 427.0000,272.0000 427.0000,272.0000 C 422.0000,276.0000 415.0000,281.0000 406.0000,285.0000 C 403.0000,286.0000 400.0000,287.0000 397.0000,289.0000 C 396.0000,289.0000 395.0000,289.0000 395.0000,289.0000 C 391.0000,291.0000 387.0000,292.0000 384.0000,293.0000 C 384.0000,293.0000 384.0000,293.0000 384.0000,293.0000 C 380.0000,294.0000 376.0000,295.0000 372.0000,296.0000 C 371.0000,296.0000 370.0000,297.0000 369.0000,297.0000 C 365.0000,298.0000 361.0000,299.0000 356.0000,300.0000 C 356.0000,300.0000 356.0000,300.0000 356.0000,300.0000 C 351.0000,301.0000 347.0000,301.0000 342.0000,302.0000 C 341.0000,302.0000 340.0000,302.0000 339.0000,302.0000 C 334.0000,303.0000 329.0000,304.0000 324.0000,304.0000 C 324.0000,304.0000 324.0000,304.0000 323.0000,304.0000 C 319.0000,304.0000 313.0000,305.0000 308.0000,305.0000 C 307.0000,305.0000 306.0000,305.0000 304.0000,305.0000 C 299.0000,305.0000 293.0000,306.0000 288.0000,306.0000 C 288.0000,306.0000 288.0000,306.0000 288.0000,306.0000 C 288.0000,306.0000 288.0000,306.0000 288.0000,306.0000 C 282.0000,306.0000 277.0000,305.0000 271.0000,305.0000 C 270.0000,305.0000 268.0000,305.0000 267.0000,305.0000 C 262.0000,305.0000 257.0000,304.0000 252.0000,304.0000 C 252.0000,304.0000 252.0000,304.0000 251.0000,304.0000 C 246.0000,304.0000 241.0000,303.0000 237.0000,302.0000 C 235.0000,302.0000 234.0000,302.0000 233.0000,302.0000 C 228.0000,301.0000 224.0000,301.0000 220.0000,300.0000 C 219.0000,300.0000 219.0000,300.0000 219.0000,300.0000 C 215.0000,299.0000 210.0000,298.0000 206.0000,297.0000 C 205.0000,297.0000 204.0000,296.0000 204.0000,296.0000 C 199.0000,295.0000 196.0000,294.0000 192.0000,293.0000 C 192.0000,293.0000 192.0000,293.0000 192.0000,293.0000 C 188.0000,292.0000 184.0000,291.0000 181.0000,289.0000 C 180.0000,289.0000 179.0000,289.0000 179.0000,289.0000 C 175.0000,287.0000 172.0000,286.0000 169.0000,285.0000 C 160.0000,281.0000 153.0000,276.0000 148.0000,272.0000 C 148.0000,256.0000 148.0000,256.0000 148.0000,256.0000 C 148.0000,240.0000 148.0000,240.0000 148.0000,240.0000 C 152.0000,242.0000 157.0000,244.0000 162.0000,246.0000 C 195.0000,261.0000 242.0000,268.0000 288.0000,268.0000 C 288.0000,268.0000 288.0000,268.0000 288.0000,268.0000 C 288.0000,268.0000 288.0000,268.0000 288.0000,268.0000 C 340.0000,268.0000 393.0000,258.0000 427.0000,240.0000 Z M 427.0000,194.0000 C 420.0000,209.0000 369.0000,232.0000 288.0000,232.0000 C 206.0000,232.0000 155.0000,209.0000 149.0000,194.0000 C 148.0000,193.0000 148.0000,192.0000 148.0000,191.0000 C 148.0000,190.0000 148.0000,189.0000 149.0000,188.0000 C 155.0000,173.0000 206.0000,150.0000 288.0000,150.0000 C 369.0000,150.0000 420.0000,173.0000 427.0000,188.0000 C 427.0000,189.0000 427.0000,190.0000 427.0000,191.0000 C 427.0000,192.0000 427.0000,193.0000 427.0000,194.0000 Z "  fill="#FFFFFF" stroke="none" />
<path d="M 249.0000,341.0000 C 254.0000,342.0000 259.0000,343.0000 264.0000,343.0000 C 273.0000,366.0000 281.0000,388.0000 289.0000,410.0000 C 284.0000,410.0000 279.0000,410.0000 274.0000,410.0000 C 272.0000,405.0000 271.0000,400.0000 269.0000,395.0000 C 261.0000,394.0000 252.0000,393.0000 244.0000,392.0000 C 243.0000,397.0000 241.0000,401.0000 239.0000,406.0000 C 234.0000,405.0000 229.0000,404.0000 225.0000,403.0000 C 233.0000,383.0000 241.0000,362.0000 249.0000,341.0000 Z M 248.0000,382.0000 C 254.0000,383.0000 259.0000,383.0000 265.0000,384.0000 C 262.0000,375.0000 260.0000,367.0000 257.0000,359.0000 C 257.0000,359.0000 257.0000,359.0000 257.0000,359.0000 C 254.0000,366.0000 251.0000,374.0000 248.0000,382.0000 Z "  fill="#FFFFFF" stroke="none" />
<path d="M 295.0000,344.0000 C 305.0000,344.0000 314.0000,343.0000 324.0000,342.0000 C 341.0000,340.0000 353.0000,347.0000 353.0000,369.0000 C 353.0000,388.0000 344.0000,405.0000 324.0000,408.0000 C 314.0000,409.0000 305.0000,410.0000 295.0000,410.0000 C 295.0000,388.0000 295.0000,366.0000 295.0000,344.0000 Z M 310.0000,397.0000 C 314.0000,397.0000 318.0000,397.0000 323.0000,396.0000 C 331.0000,395.0000 339.0000,388.0000 339.0000,374.0000 C 339.0000,360.0000 334.0000,353.0000 320.0000,355.0000 C 317.0000,355.0000 313.0000,355.0000 310.0000,356.0000 C 310.0000,369.0000 310.0000,383.0000 310.0000,397.0000 Z "  fill="#FFFFFF" stroke="none" />
<path d="M 462.0000,182.0000 C 452.0000,137.0000 369.0000,114.0000 288.0000,114.0000 C 288.0000,114.0000 288.0000,114.0000 288.0000,114.0000 C 288.0000,114.0000 288.0000,114.0000 288.0000,114.0000 C 206.0000,114.0000 123.0000,137.0000 113.0000,182.0000 C 112.0000,185.0000 112.0000,188.0000 112.0000,191.0000 C 112.0000,201.0000 112.0000,201.0000 112.0000,201.0000 C 112.0000,224.0000 112.0000,224.0000 112.0000,224.0000 C 112.0000,300.0000 112.0000,300.0000 112.0000,300.0000 C 112.0000,384.0000 112.0000,384.0000 112.0000,384.0000 C 112.0000,393.0000 112.0000,393.0000 112.0000,393.0000 C 113.0000,393.0000 113.0000,393.0000 113.0000,393.0000 C 113.0000,394.0000 114.0000,394.0000 114.0000,395.0000 C 114.0000,396.0000 115.0000,398.0000 115.0000,399.0000 C 116.0000,400.0000 116.0000,401.0000 116.0000,401.0000 C 117.0000,403.0000 118.0000,404.0000 119.0000,406.0000 C 119.0000,406.0000 119.0000,407.0000 120.0000,408.0000 C 121.0000,409.0000 122.0000,411.0000 123.0000,412.0000 C 123.0000,413.0000 124.0000,413.0000 124.0000,414.0000 C 126.0000,415.0000 127.0000,417.0000 129.0000,418.0000 C 129.0000,419.0000 129.0000,419.0000 130.0000,419.0000 C 132.0000,421.0000 134.0000,423.0000 136.0000,425.0000 C 137.0000,425.0000 138.0000,426.0000 139.0000,426.0000 C 140.0000,427.0000 142.0000,429.0000 144.0000,430.0000 C 145.0000,430.0000 147.0000,431.0000 148.0000,432.0000 C 149.0000,433.0000 150.0000,433.0000 152.0000,434.0000 C 153.0000,435.0000 155.0000,436.0000 157.0000,437.0000 C 158.0000,437.0000 159.0000,438.0000 160.0000,438.0000 C 162.0000,439.0000 164.0000,440.0000 166.0000,441.0000 C 167.0000,441.0000 168.0000,441.0000 169.0000,442.0000 C 171.0000,443.0000 174.0000,444.0000 176.0000,444.0000 C 177.0000,445.0000 178.0000,445.0000 178.0000,445.0000 C 181.0000,446.0000 184.0000,447.0000 187.0000,448.0000 C 187.0000,448.0000 188.0000,448.0000 188.0000,448.0000 C 209.0000,454.0000 232.0000,458.0000 257.0000,460.0000 C 257.0000,459.0000 257.0000,459.0000 257.0000,459.0000 C 267.0000,460.0000 277.0000,460.0000 288.0000,460.0000 C 288.0000,460.0000 288.0000,460.0000 288.0000,460.0000 C 288.0000,460.0000 288.0000,460.0000 288.0000,460.0000 C 298.0000,460.0000 308.0000,460.0000 319.0000,459.0000 C 319.0000,459.0000 319.0000,459.0000 319.0000,460.0000 C 343.0000,458.0000 367.0000,454.0000 387.0000,448.0000 C 388.0000,448.0000 388.0000,448.0000 389.0000,448.0000 C 391.0000,447.0000 394.0000,446.0000 397.0000,445.0000 C 398.0000,445.0000 398.0000,445.0000 399.0000,444.0000 C 401.0000,444.0000 404.0000,443.0000 406.0000,442.0000 C 407.0000,441.0000 408.0000,441.0000 409.0000,441.0000 C 411.0000,440.0000 413.0000,439.0000 415.0000,438.0000 C 416.0000,438.0000 417.0000,437.0000 418.0000,437.0000 C 420.0000,436.0000 422.0000,435.0000 424.0000,434.0000 C 425.0000,433.0000 426.0000,433.0000 427.0000,432.0000 C 429.0000,431.0000 430.0000,430.0000 432.0000,430.0000 C 433.0000,429.0000 435.0000,427.0000 436.0000,426.0000 C 437.0000,426.0000 438.0000,425.0000 439.0000,425.0000 C 441.0000,423.0000 443.0000,421.0000 445.0000,419.0000 C 446.0000,419.0000 446.0000,419.0000 447.0000,418.0000 C 448.0000,417.0000 450.0000,415.0000 451.0000,414.0000 C 451.0000,413.0000 452.0000,413.0000 452.0000,412.0000 C 454.0000,411.0000 455.0000,409.0000 456.0000,408.0000 C 456.0000,407.0000 456.0000,406.0000 457.0000,406.0000 C 458.0000,404.0000 458.0000,403.0000 459.0000,401.0000 C 460.0000,401.0000 460.0000,400.0000 460.0000,399.0000 C 461.0000,398.0000 461.0000,396.0000 462.0000,395.0000 C 462.0000,394.0000 462.0000,394.0000 462.0000,393.0000 C 463.0000,393.0000 463.0000,393.0000 463.0000,393.0000 C 463.0000,384.0000 463.0000,384.0000 463.0000,384.0000 C 463.0000,300.0000 463.0000,300.0000 463.0000,300.0000 C 463.0000,224.0000 463.0000,224.0000 463.0000,224.0000 C 463.0000,201.0000 463.0000,201.0000 463.0000,201.0000 C 463.0000,191.0000 463.0000,191.0000 463.0000,191.0000 C 463.0000,188.0000 463.0000,185.0000 462.0000,182.0000 Z M 427.0000,331.0000 C 416.0000,341.0000 395.0000,350.0000 367.0000,357.0000 C 367.0000,375.0000 367.0000,375.0000 367.0000,375.0000 C 391.0000,370.0000 412.0000,362.0000 427.0000,353.0000 C 427.0000,384.0000 427.0000,384.0000 427.0000,384.0000 C 427.0000,384.0000 427.0000,385.0000 427.0000,386.0000 C 426.0000,387.0000 426.0000,387.0000 426.0000,387.0000 C 426.0000,388.0000 425.0000,389.0000 425.0000,390.0000 C 424.0000,390.0000 424.0000,390.0000 424.0000,390.0000 C 423.0000,391.0000 422.0000,392.0000 421.0000,394.0000 C 421.0000,394.0000 421.0000,394.0000 421.0000,394.0000 C 419.0000,395.0000 418.0000,396.0000 416.0000,397.0000 C 416.0000,397.0000 415.0000,398.0000 415.0000,398.0000 C 414.0000,399.0000 412.0000,400.0000 410.0000,401.0000 C 410.0000,401.0000 409.0000,401.0000 409.0000,401.0000 C 407.0000,402.0000 405.0000,403.0000 402.0000,404.0000 C 402.0000,405.0000 402.0000,405.0000 402.0000,405.0000 C 399.0000,406.0000 396.0000,407.0000 394.0000,408.0000 C 393.0000,408.0000 392.0000,409.0000 391.0000,409.0000 C 389.0000,410.0000 387.0000,410.0000 385.0000,411.0000 C 381.0000,412.0000 378.0000,413.0000 374.0000,414.0000 C 374.0000,414.0000 374.0000,414.0000 374.0000,414.0000 C 352.0000,420.0000 322.0000,424.0000 288.0000,424.0000 C 253.0000,424.0000 223.0000,420.0000 200.0000,414.0000 C 200.0000,414.0000 200.0000,414.0000 200.0000,414.0000 C 197.0000,413.0000 194.0000,412.0000 191.0000,411.0000 C 188.0000,410.0000 186.0000,410.0000 184.0000,409.0000 C 183.0000,409.0000 183.0000,408.0000 182.0000,408.0000 C 179.0000,407.0000 176.0000,406.0000 174.0000,405.0000 C 173.0000,405.0000 173.0000,405.0000 173.0000,404.0000 C 171.0000,403.0000 169.0000,402.0000 167.0000,401.0000 C 166.0000,401.0000 166.0000,401.0000 165.0000,401.0000 C 163.0000,400.0000 162.0000,399.0000 160.0000,398.0000 C 160.0000,398.0000 160.0000,397.0000 159.0000,397.0000 C 158.0000,396.0000 156.0000,395.0000 155.0000,394.0000 C 155.0000,394.0000 155.0000,394.0000 155.0000,394.0000 C 153.0000,392.0000 152.0000,391.0000 151.0000,390.0000 C 151.0000,390.0000 151.0000,390.0000 151.0000,390.0000 C 150.0000,389.0000 150.0000,388.0000 149.0000,387.0000 C 149.0000,387.0000 149.0000,387.0000 149.0000,386.0000 C 148.0000,385.0000 148.0000,384.0000 148.0000,384.0000 C 148.0000,353.0000 148.0000,353.0000 148.0000,353.0000 C 165.0000,363.0000 189.0000,371.0000 216.0000,376.0000 C 216.0000,358.0000 216.0000,358.0000 216.0000,358.0000 C 184.0000,352.0000 160.0000,342.0000 148.0000,331.0000 C 148.0000,294.0000 148.0000,294.0000 148.0000,294.0000 C 159.0000,300.0000 172.0000,306.0000 187.0000,310.0000 C 187.0000,310.0000 187.0000,310.0000 187.0000,310.0000 C 187.0000,310.0000 187.0000,310.0000 187.0000,310.0000 C 197.0000,313.0000 208.0000,316.0000 220.0000,318.0000 C 221.0000,318.0000 222.0000,318.0000 223.0000,318.0000 C 227.0000,319.0000 230.0000,319.0000 233.0000,320.0000 C 236.0000,320.0000 239.0000,321.0000 243.0000,321.0000 C 246.0000,321.0000 249.0000,322.0000 252.0000,322.0000 C 256.0000,322.0000 261.0000,323.0000 265.0000,323.0000 C 267.0000,323.0000 269.0000,323.0000 270.0000,323.0000 C 276.0000,323.0000 282.0000,324.0000 288.0000,324.0000 C 288.0000,324.0000 288.0000,324.0000 288.0000,324.0000 C 288.0000,324.0000 288.0000,324.0000 288.0000,324.0000 C 293.0000,324.0000 299.0000,323.0000 305.0000,323.0000 C 307.0000,323.0000 309.0000,323.0000 310.0000,323.0000 C 315.0000,323.0000 319.0000,322.0000 323.0000,322.0000 C 327.0000,322.0000 330.0000,321.0000 333.0000,321.0000 C 336.0000,321.0000 339.0000,320.0000 342.0000,320.0000 C 345.0000,319.0000 349.0000,319.0000 352.0000,318.0000 C 353.0000,318.0000 354.0000,318.0000 356.0000,318.0000 C 367.0000,316.0000 378.0000,313.0000 389.0000,310.0000 C 389.0000,310.0000 389.0000,310.0000 389.0000,310.0000 C 389.0000,310.0000 389.0000,310.0000 389.0000,310.0000 C 403.0000,306.0000 417.0000,300.0000 427.0000,294.0000 Z M 427.0000,256.0000 C 427.0000,272.0000 427.0000,272.0000 427.0000,272.0000 C 422.0000,276.0000 415.0000,281.0000 406.0000,285.0000 C 403.0000,286.0000 400.0000,287.0000 397.0000,289.0000 C 396.0000,289.0000 395.0000,289.0000 395.0000,289.0000 C 391.0000,291.0000 387.0000,292.0000 384.0000,293.0000 C 384.0000,293.0000 384.0000,293.0000 384.0000,293.0000 C 380.0000,294.0000 376.0000,295.0000 372.0000,296.0000 C 371.0000,296.0000 370.0000,297.0000 369.0000,297.0000 C 365.0000,298.0000 361.0000,299.0000 356.0000,300.0000 C 356.0000,300.0000 356.0000,300.0000 356.0000,300.0000 C 351.0000,301.0000 347.0000,301.0000 342.0000,302.0000 C 341.0000,302.0000 340.0000,302.0000 339.0000,302.0000 C 334.0000,303.0000 329.0000,304.0000 324.0000,304.0000 C 324.0000,304.0000 324.0000,304.0000 323.0000,304.0000 C 319.0000,304.0000 313.0000,305.0000 308.0000,305.0000 C 307.0000,305.0000 306.0000,305.0000 304.0000,305.0000 C 299.0000,305.0000 293.0000,306.0000 288.0000,306.0000 C 288.0000,306.0000 288.0000,306.0000 288.0000,306.0000 C 288.0000,306.0000 288.0000,306.0000 288.0000,306.0000 C 282.0000,306.0000 277.0000,305.0000 271.0000,305.0000 C 270.0000,305.0000 268.0000,305.0000 267.0000,305.0000 C 262.0000,305.0000 257.0000,304.0000 252.0000,304.0000 C 252.0000,304.0000 252.0000,304.0000 251.0000,304.0000 C 246.0000,304.0000 241.0000,303.0000 237.0000,302.0000 C 235.0000,302.0000 234.0000,302.0000 233.0000,302.0000 C 228.0000,301.0000 224.0000,301.0000 220.0000,300.0000 C 219.0000,300.0000 219.0000,300.0000 219.0000,300.0000 C 215.0000,299.0000 210.0000,298.0000 206.0000,297.0000 C 205.0000,297.0000 204.0000,296.0000 204.0000,296.0000 C 199.0000,295.0000 196.0000,294.0000 192.0000,293.0000 C 192.0000,293.0000 192.0000,293.0000 192.0000,293.0000 C 188.0000,292.0000 184.0000,291.0000 181.0000,289.0000 C 180.0000,289.0000 179.0000,289.0000 179.0000,289.0000 C 175.0000,287.0000 172.0000,286.0000 169.0000,285.0000 C 160.0000,281.0000 153.0000,276.0000 148.0000,272.0000 C 148.0000,256.0000 148.0000,256.0000 148.0000,256.0000 C 148.0000,240.0000 148.0000,240.0000 148.0000,240.0000 C 152.0000,242.0000 157.0000,244.0000 162.0000,246.0000 C 195.0000,261.0000 242.0000,268.0000 288.0000,268.0000 C 288.0000,268.0000 288.0000,268.0000 288.0000,268.0000 C 288.0000,268.0000 288.0000,268.0000 288.0000,268.0000 C 340.0000,268.0000 393.0000,258.0000 427.0000,240.0000 Z M 427.0000,194.0000 C 420.0000,209.0000 369.0000,232.0000 288.0000,232.0000 C 206.0000,232.0000 155.0000,209.0000 149.0000,194.0000 C 148.0000,193.0000 148.0000,192.0000 148.0000,191.0000 C 148.0000,190.0000 148.0000,189.0000 149.0000,188.0000 C 155.0000,173.0000 206.0000,150.0000 288.0000,150.0000 C 369.0000,150.0000 420.0000,173.0000 427.0000,188.0000 C 427.0000,189.0000 427.0000,190.0000 427.0000,191.0000 C 427.0000,192.0000 427.0000,193.0000 427.0000,194.0000 Z "  fill="#FFFFFF" stroke="none" />
<path d="M 249.0000,341.0000 C 254.0000,342.0000 259.0000,343.0000 264.0000,343.0000 C 273.0000,366.0000 281.0000,388.0000 289.0000,410.0000 C 284.0000,410.0000 279.0000,410.0000 274.0000,410.0000 C 272.0000,405.0000 271.0000,400.0000 269.0000,395.0000 C 261.0000,394.0000 252.0000,393.0000 244.0000,392.0000 C 243.0000,397.0000 241.0000,401.0000 239.0000,406.0000 C 234.0000,405.0000 229.0000,404.0000 225.0000,403.0000 C 233.0000,383.0000 241.0000,362.0000 249.0000,341.0000 Z M 248.0000,382.0000 C 254.0000,383.0000 259.0000,383.0000 265.0000,384.0000 C 262.0000,375.0000 260.0000,367.0000 257.0000,359.0000 C 257.0000,359.0000 257.0000,359.0000 257.0000,359.0000 C 254.0000,366.0000 251.0000,374.0000 248.0000,382.0000 Z "  fill="#FFFFFF" stroke="none" />
<path d="M 295.0000,344.0000 C 305.0000,344.0000 314.0000,343.0000 324.0000,342.0000 C 341.0000,340.0000 353.0000,347.0000 353.0000,369.0000 C 353.0000,388.0000 344.0000,405.0000 324.0000,408.0000 C 314.0000,409.0000 305.0000,410.0000 295.0000,410.0000 C 295.0000,388.0000 295.0000,366.0000 295.0000,344.0000 Z M 310.0000,397.0000 C 314.0000,397.0000 318.0000,397.0000 323.0000,396.0000 C 331.0000,395.0000 339.0000,388.0000 339.0000,374.0000 C 339.0000,360.0000 334.0000,353.0000 320.0000,355.0000 C 317.0000,355.0000 313.0000,355.0000 310.0000,356.0000 C 310.0000,369.0000 310.0000,383.0000 310.0000,397.0000 Z "  fill="#FFFFFF" stroke="none" />
</g>
</svg>
