<?xml version="1.0"  encoding="UTF-8" standalone="no"?>
<svg version="1.1" xmlns="http://www.w3.org/2000/svg" xmlns:xlink="http://www.w3.org/1999/xlink" width="1315.0000" height="1074.0000">
<g transform="translate(371.0000, 250.0000)">
<path d="M -274.0000,4.0000 C -202.0000,4.0000 -174.0000,-57.0000 -174.0000,-123.0000 C -174.0000,-189.0000 -202.0000,-250.0000 -274.0000,-250.0000 C -344.0000,-250.0000 -371.0000,-189.0000 -371.0000,-123.0000 C -371.0000,-57.0000 -344.0000,4.0000 -274.0000,4.0000 Z M -273.0000,-201.0000 C -233.0000,-201.0000 -232.0000,-155.0000 -232.0000,-123.0000 C -232.0000,-91.0000 -233.0000,-45.0000 -273.0000,-45.0000 C -311.0000,-45.0000 -313.0000,-91.0000 -313.0000,-123.0000 C -313.0000,-155.0000 -311.0000,-201.0000 -273.0000,-201.0000 Z "  fill="#FFFFFF" stroke="none" />
<path d="M -1.0000,-247.0000 C -51.0000,-247.0000 -51.0000,-247.0000 -51.0000,-247.0000 C -53.0000,-208.0000 -89.0000,-194.0000 -124.0000,-195.0000 C -124.0000,-151.0000 -124.0000,-151.0000 -124.0000,-151.0000 C -64.0000,-151.0000 -64.0000,-151.0000 -64.0000,-151.0000 C -64.0000,-79.0000 -64.0000,-79.0000 -64.0000,-79.0000 C -45.0000,-95.0000 -24.0000,-108.0000 -1.0000,-119.0000 Z "  fill="#FFFFFF" stroke="none" />
<path d="M 135.0000,-154.0000 C 138.0000,-178.0000 147.0000,-201.0000 174.0000,-201.0000 C 204.0000,-201.0000 212.0000,-175.0000 214.0000,-148.0000 C 234.0000,-144.0000 254.0000,-139.0000 273.0000,-132.0000 C 273.0000,-132.0000 273.0000,-132.0000 273.0000,-131.0000 C 271.0000,-194.0000 242.0000,-250.0000 173.0000,-250.0000 C 111.0000,-250.0000 83.0000,-203.0000 77.0000,-146.0000 C 78.0000,-146.0000 78.0000,-146.0000 79.0000,-147.0000 C 98.0000,-151.0000 117.0000,-153.0000 135.0000,-154.0000 Z "  fill="#FFFFFF" stroke="none" />
<path d="M 342.0000,-96.0000 C 348.0000,-92.0000 354.0000,-88.0000 360.0000,-83.0000 C 358.0000,-96.0000 357.0000,-111.0000 357.0000,-123.0000 C 357.0000,-155.0000 359.0000,-201.0000 398.0000,-201.0000 C 437.0000,-201.0000 439.0000,-155.0000 439.0000,-123.0000 C 439.0000,-92.0000 437.0000,-49.0000 402.0000,-45.0000 C 415.0000,-33.0000 426.0000,-19.0000 436.0000,-4.0000 C 479.0000,-22.0000 497.0000,-71.0000 497.0000,-123.0000 C 497.0000,-189.0000 468.0000,-250.0000 396.0000,-250.0000 C 326.0000,-250.0000 299.0000,-189.0000 299.0000,-123.0000 C 299.0000,-122.0000 299.0000,-121.0000 299.0000,-120.0000 C 308.0000,-116.0000 318.0000,-111.0000 326.0000,-106.0000 C 332.0000,-103.0000 337.0000,-99.0000 342.0000,-96.0000 Z "  fill="#FFFFFF" stroke="none" />
<path d="M 606.0000,1.0000 C 670.0000,1.0000 670.0000,1.0000 670.0000,1.0000 C 670.0000,-247.0000 670.0000,-247.0000 670.0000,-247.0000 C 620.0000,-247.0000 620.0000,-247.0000 620.0000,-247.0000 C 617.0000,-208.0000 582.0000,-194.0000 547.0000,-195.0000 C 547.0000,-151.0000 547.0000,-151.0000 547.0000,-151.0000 C 606.0000,-151.0000 606.0000,-151.0000 606.0000,-151.0000 Z "  fill="#FFFFFF" stroke="none" />
<path d="M 829.0000,1.0000 C 893.0000,1.0000 893.0000,1.0000 893.0000,1.0000 C 893.0000,-247.0000 893.0000,-247.0000 893.0000,-247.0000 C 843.0000,-247.0000 843.0000,-247.0000 843.0000,-247.0000 C 840.0000,-208.0000 805.0000,-194.0000 770.0000,-195.0000 C 770.0000,-151.0000 770.0000,-151.0000 770.0000,-151.0000 C 829.0000,-151.0000 829.0000,-151.0000 829.0000,-151.0000 Z "  fill="#FFFFFF" stroke="none" />
<path d="M -224.0000,311.0000 C -224.0000,64.0000 -224.0000,64.0000 -224.0000,64.0000 C -274.0000,64.0000 -274.0000,64.0000 -274.0000,64.0000 C -277.0000,102.0000 -312.0000,116.0000 -347.0000,115.0000 C -347.0000,159.0000 -347.0000,159.0000 -347.0000,159.0000 C -288.0000,159.0000 -288.0000,159.0000 -288.0000,159.0000 C -288.0000,311.0000 -288.0000,311.0000 -288.0000,311.0000 Z "  fill="#FFFFFF" stroke="none" />
<path d="M 606.0000,311.0000 C 670.0000,311.0000 670.0000,311.0000 670.0000,311.0000 C 670.0000,64.0000 670.0000,64.0000 670.0000,64.0000 C 620.0000,64.0000 620.0000,64.0000 620.0000,64.0000 C 617.0000,102.0000 582.0000,116.0000 547.0000,115.0000 C 547.0000,159.0000 547.0000,159.0000 547.0000,159.0000 C 606.0000,159.0000 606.0000,159.0000 606.0000,159.0000 Z "  fill="#FFFFFF" stroke="none" />
<path d="M 843.0000,61.0000 C 773.0000,61.0000 746.0000,121.0000 746.0000,187.0000 C 746.0000,253.0000 773.0000,314.0000 843.0000,314.0000 C 915.0000,314.0000 944.0000,253.0000 944.0000,187.0000 C 944.0000,121.0000 915.0000,61.0000 843.0000,61.0000 Z M 845.0000,265.0000 C 806.0000,265.0000 804.0000,219.0000 804.0000,187.0000 C 804.0000,155.0000 806.0000,110.0000 845.0000,110.0000 C 884.0000,110.0000 885.0000,155.0000 885.0000,187.0000 C 885.0000,219.0000 884.0000,265.0000 845.0000,265.0000 Z "  fill="#FFFFFF" stroke="none" />
<path d="M -274.0000,371.0000 C -344.0000,371.0000 -371.0000,431.0000 -371.0000,497.0000 C -371.0000,563.0000 -344.0000,624.0000 -274.0000,624.0000 C -202.0000,624.0000 -174.0000,563.0000 -174.0000,497.0000 C -174.0000,431.0000 -202.0000,371.0000 -274.0000,371.0000 Z M -273.0000,576.0000 C -311.0000,576.0000 -313.0000,530.0000 -313.0000,497.0000 C -313.0000,465.0000 -311.0000,420.0000 -273.0000,420.0000 C -233.0000,420.0000 -232.0000,465.0000 -232.0000,497.0000 C -232.0000,530.0000 -233.0000,576.0000 -273.0000,576.0000 Z "  fill="#FFFFFF" stroke="none" />
<path d="M -49.0000,576.0000 C -87.0000,576.0000 -90.0000,530.0000 -90.0000,497.0000 C -90.0000,482.0000 -89.0000,463.0000 -84.0000,448.0000 C -87.0000,445.0000 -91.0000,441.0000 -94.0000,438.0000 C -104.0000,428.0000 -114.0000,417.0000 -123.0000,406.0000 C -140.0000,429.0000 -148.0000,462.0000 -148.0000,497.0000 C -148.0000,563.0000 -121.0000,624.0000 -51.0000,624.0000 C 12.0000,624.0000 41.0000,579.0000 48.0000,524.0000 C 29.0000,518.0000 10.0000,510.0000 -8.0000,501.0000 C -8.0000,533.0000 -11.0000,576.0000 -49.0000,576.0000 Z "  fill="#FFFFFF" stroke="none" />
<path d="M 183.0000,538.0000 C 175.0000,538.0000 167.0000,539.0000 159.0000,539.0000 C 159.0000,621.0000 159.0000,621.0000 159.0000,621.0000 C 223.0000,621.0000 223.0000,621.0000 223.0000,621.0000 C 223.0000,532.0000 223.0000,532.0000 223.0000,532.0000 C 222.0000,532.0000 222.0000,532.0000 222.0000,532.0000 C 209.0000,534.0000 196.0000,536.0000 183.0000,538.0000 Z "  fill="#FFFFFF" stroke="none" />
<path d="M 383.0000,621.0000 L 446.0000,621.0000 L 446.0000,585.0000 L 383.0000,526.0000 L 383.0000,621.0000 Z "  fill="#FFFFFF" stroke-width="1px" stroke="#FFFFFF" />
<path d="M 621.0000,420.0000 C 661.0000,420.0000 662.0000,465.0000 662.0000,497.0000 C 662.0000,516.0000 662.0000,540.0000 653.0000,556.0000 C 692.0000,592.0000 692.0000,592.0000 692.0000,592.0000 C 712.0000,568.0000 720.0000,534.0000 720.0000,497.0000 C 720.0000,431.0000 692.0000,371.0000 619.0000,371.0000 C 570.0000,371.0000 542.0000,401.0000 530.0000,442.0000 C 581.0000,489.0000 581.0000,489.0000 581.0000,489.0000 C 581.0000,458.0000 586.0000,420.0000 621.0000,420.0000 Z "  fill="#FFFFFF" stroke="none" />
<path d="M 770.0000,425.0000 C 770.0000,469.0000 770.0000,469.0000 770.0000,469.0000 C 829.0000,469.0000 829.0000,469.0000 829.0000,469.0000 C 829.0000,621.0000 829.0000,621.0000 829.0000,621.0000 C 893.0000,621.0000 893.0000,621.0000 893.0000,621.0000 C 893.0000,374.0000 893.0000,374.0000 893.0000,374.0000 C 843.0000,374.0000 843.0000,374.0000 843.0000,374.0000 C 840.0000,413.0000 805.0000,426.0000 770.0000,425.0000 Z "  fill="#FFFFFF" stroke="none" />
<path d="M 130.0000,200.0000 C 130.0000,110.0000 92.0000,29.0000 -6.0000,29.0000 C -21.0000,29.0000 -34.0000,31.0000 -47.0000,35.0000 C -92.0000,92.0000 -113.0000,169.0000 -97.0000,246.0000 C -87.0000,294.0000 -64.0000,336.0000 -33.0000,369.0000 C -24.0000,370.0000 -15.0000,371.0000 -6.0000,371.0000 C 92.0000,371.0000 130.0000,289.0000 130.0000,200.0000 Z M -58.0000,200.0000 C -58.0000,156.0000 -55.0000,95.0000 -3.0000,95.0000 C 50.0000,95.0000 52.0000,156.0000 52.0000,200.0000 C 52.0000,243.0000 50.0000,305.0000 -3.0000,305.0000 C -55.0000,305.0000 -58.0000,243.0000 -58.0000,200.0000 Z "  fill="#FFFFFF" stroke="none" />
<path d="M 352.0000,33.0000 C 296.0000,33.0000 296.0000,33.0000 296.0000,33.0000 C 293.0000,85.0000 245.0000,104.0000 198.0000,102.0000 C 198.0000,162.0000 198.0000,162.0000 198.0000,162.0000 C 278.0000,162.0000 278.0000,162.0000 278.0000,162.0000 C 278.0000,367.0000 278.0000,367.0000 278.0000,367.0000 C 340.0000,367.0000 340.0000,367.0000 340.0000,367.0000 C 349.0000,358.0000 357.0000,348.0000 364.0000,337.0000 C 364.0000,50.0000 364.0000,50.0000 364.0000,50.0000 C 360.0000,44.0000 356.0000,39.0000 352.0000,33.0000 Z "  fill="#FFFFFF" stroke="none" />
<path d="M 793.0000,684.0000 C 772.0000,665.0000 772.0000,665.0000 772.0000,665.0000 C 666.0000,566.0000 666.0000,566.0000 666.0000,566.0000 C 584.0000,490.0000 584.0000,490.0000 584.0000,490.0000 C 453.0000,369.0000 453.0000,369.0000 453.0000,369.0000 C 462.0000,352.0000 462.0000,352.0000 462.0000,352.0000 C 471.0000,334.0000 478.0000,315.0000 484.0000,295.0000 C 486.0000,289.0000 488.0000,283.0000 490.0000,277.0000 C 502.0000,228.0000 503.0000,175.0000 492.0000,123.0000 C 491.0000,115.0000 489.0000,107.0000 486.0000,100.0000 C 467.0000,30.0000 427.0000,-29.0000 375.0000,-72.0000 C 365.0000,-80.0000 355.0000,-88.0000 345.0000,-95.0000 C 340.0000,-98.0000 334.0000,-102.0000 329.0000,-105.0000 C 323.0000,-108.0000 317.0000,-112.0000 310.0000,-115.0000 C 299.0000,-121.0000 287.0000,-126.0000 275.0000,-130.0000 C 269.0000,-133.0000 264.0000,-135.0000 258.0000,-136.0000 C 231.0000,-145.0000 202.0000,-151.0000 173.0000,-152.0000 C 143.0000,-154.0000 113.0000,-152.0000 82.0000,-145.0000 C 75.0000,-144.0000 69.0000,-142.0000 62.0000,-141.0000 C 31.0000,-132.0000 3.0000,-120.0000 -24.0000,-104.0000 C -92.0000,-64.0000 -143.0000,-2.0000 -171.0000,71.0000 C -178.0000,89.0000 -183.0000,108.0000 -187.0000,127.0000 C -196.0000,171.0000 -196.0000,218.0000 -186.0000,265.0000 C -172.0000,334.0000 -138.0000,393.0000 -92.0000,439.0000 C -84.0000,447.0000 -75.0000,455.0000 -66.0000,462.0000 C -60.0000,467.0000 -53.0000,472.0000 -46.0000,477.0000 C 2.0000,511.0000 58.0000,533.0000 118.0000,539.0000 C 140.0000,541.0000 163.0000,541.0000 186.0000,539.0000 C 190.0000,538.0000 194.0000,538.0000 198.0000,537.0000 C 207.0000,536.0000 215.0000,535.0000 224.0000,533.0000 C 231.0000,532.0000 237.0000,530.0000 244.0000,528.0000 C 278.0000,519.0000 309.0000,505.0000 338.0000,487.0000 C 341.0000,486.0000 341.0000,486.0000 341.0000,486.0000 C 364.0000,507.0000 364.0000,507.0000 364.0000,507.0000 C 579.0000,707.0000 579.0000,707.0000 579.0000,707.0000 C 664.0000,786.0000 664.0000,786.0000 664.0000,786.0000 C 683.0000,803.0000 683.0000,803.0000 683.0000,803.0000 C 693.0000,812.0000 705.0000,819.0000 718.0000,822.0000 C 720.0000,822.0000 722.0000,822.0000 724.0000,822.0000 C 730.0000,823.0000 735.0000,824.0000 738.0000,824.0000 C 758.0000,823.0000 777.0000,814.0000 791.0000,799.0000 C 797.0000,792.0000 797.0000,792.0000 797.0000,792.0000 C 806.0000,783.0000 812.0000,771.0000 815.0000,758.0000 C 817.0000,752.0000 818.0000,745.0000 817.0000,738.0000 C 817.0000,717.0000 808.0000,698.0000 793.0000,684.0000 Z M 364.0000,337.0000 C 357.0000,348.0000 349.0000,358.0000 340.0000,367.0000 C 306.0000,405.0000 259.0000,432.0000 206.0000,444.0000 C 115.0000,462.0000 26.0000,431.0000 -33.0000,369.0000 C -64.0000,336.0000 -87.0000,294.0000 -97.0000,246.0000 C -113.0000,169.0000 -92.0000,92.0000 -47.0000,35.0000 C -11.0000,-10.0000 40.0000,-43.0000 101.0000,-56.0000 C 198.0000,-76.0000 293.0000,-39.0000 352.0000,33.0000 C 356.0000,39.0000 360.0000,44.0000 364.0000,50.0000 C 382.0000,77.0000 396.0000,108.0000 403.0000,141.0000 C 418.0000,212.0000 402.0000,282.0000 364.0000,337.0000 Z "  fill="#FFFFFF" stroke="none" />
</g>
</svg>
