<?xml version="1.0"  encoding="UTF-8" standalone="no"?>
<svg version="1.1" xmlns="http://www.w3.org/2000/svg" xmlns:xlink="http://www.w3.org/1999/xlink" width="1354.0000" height="1131.0000">
<g transform="translate(391.0000, 279.0000)">
<path d="M 215.0000,-279.0000 L -391.0000,-279.0000 L -391.0000,54.0000 L 215.0000,54.0000 L 215.0000,-279.0000 Z "  fill="#FFFFFF" stroke-width="1px" stroke="#FFFFFF" />
<path d="M -165.0000,121.0000 L -391.0000,121.0000 L -391.0000,454.0000 L -165.0000,454.0000 L -165.0000,121.0000 Z "  fill="#FFFFFF" stroke-width="1px" stroke="#FFFFFF" />
<path d="M -391.0000,519.0000 C -391.0000,852.0000 -391.0000,852.0000 -391.0000,852.0000 C 218.0000,852.0000 218.0000,852.0000 218.0000,852.0000 C 218.0000,603.0000 218.0000,603.0000 218.0000,603.0000 C 206.0000,577.0000 196.0000,548.0000 190.0000,519.0000 Z "  fill="#FFFFFF" stroke="none" />
<path d="M 301.0000,728.0000 C 301.0000,852.0000 301.0000,852.0000 301.0000,852.0000 C 547.0000,852.0000 547.0000,852.0000 547.0000,852.0000 C 451.0000,840.0000 366.0000,795.0000 301.0000,728.0000 Z "  fill="#FFFFFF" stroke="none" />
<path d="M 649.0000,852.0000 C 910.0000,852.0000 910.0000,852.0000 910.0000,852.0000 C 910.0000,712.0000 910.0000,712.0000 910.0000,712.0000 C 844.0000,788.0000 752.0000,839.0000 649.0000,852.0000 Z "  fill="#FFFFFF" stroke="none" />
<path d="M -88.0000,121.0000 C -88.0000,454.0000 -88.0000,454.0000 -88.0000,454.0000 C 180.0000,454.0000 180.0000,454.0000 180.0000,454.0000 C 179.0000,443.0000 179.0000,432.0000 179.0000,421.0000 C 179.0000,305.0000 223.0000,199.0000 295.0000,121.0000 Z "  fill="#FFFFFF" stroke="none" />
<path d="M 598.0000,-14.0000 C 681.0000,-14.0000 757.0000,11.0000 822.0000,54.0000 C 906.0000,54.0000 906.0000,54.0000 906.0000,54.0000 C 906.0000,-279.0000 906.0000,-279.0000 906.0000,-279.0000 C 300.0000,-279.0000 300.0000,-279.0000 300.0000,-279.0000 C 300.0000,54.0000 300.0000,54.0000 300.0000,54.0000 C 374.0000,54.0000 374.0000,54.0000 374.0000,54.0000 C 439.0000,11.0000 516.0000,-14.0000 598.0000,-14.0000 Z "  fill="#FFFFFF" stroke="none" />
<path d="M 591.0000,516.0000 C 577.0000,516.0000 514.0000,516.0000 453.0000,509.0000 C 453.0000,509.0000 450.0000,573.0000 531.0000,596.0000 C 565.0000,602.0000 588.0000,575.0000 588.0000,575.0000 C 589.0000,573.0000 589.0000,573.0000 589.0000,573.0000 C 591.0000,575.0000 591.0000,575.0000 591.0000,575.0000 C 591.0000,575.0000 613.0000,602.0000 648.0000,596.0000 C 693.0000,583.0000 712.0000,558.0000 720.0000,538.0000 C 682.0000,513.0000 682.0000,513.0000 682.0000,513.0000 C 639.0000,516.0000 602.0000,516.0000 591.0000,516.0000 M 528.0000,576.0000 C 508.0000,562.0000 508.0000,538.0000 508.0000,538.0000 C 508.0000,538.0000 534.0000,560.0000 555.0000,561.0000 C 553.0000,564.0000 543.0000,578.0000 528.0000,576.0000 M 671.0000,538.0000 C 671.0000,538.0000 671.0000,562.0000 650.0000,576.0000 C 636.0000,578.0000 625.0000,564.0000 624.0000,561.0000 C 645.0000,560.0000 671.0000,538.0000 671.0000,538.0000 "  fill="#FFFFFF" stroke="none" />
<path d="M 828.0000,453.0000 C 828.0000,438.0000 791.0000,424.0000 733.0000,416.0000 C 697.0000,291.0000 697.0000,291.0000 697.0000,291.0000 C 697.0000,291.0000 680.0000,251.0000 653.0000,251.0000 C 628.0000,252.0000 606.0000,282.0000 606.0000,282.0000 C 601.0000,285.0000 595.0000,286.0000 592.0000,285.0000 C 592.0000,285.0000 592.0000,285.0000 591.0000,285.0000 C 590.0000,285.0000 590.0000,285.0000 590.0000,285.0000 C 587.0000,286.0000 581.0000,285.0000 576.0000,282.0000 C 576.0000,282.0000 554.0000,252.0000 529.0000,251.0000 C 502.0000,251.0000 485.0000,291.0000 485.0000,291.0000 C 479.0000,311.0000 479.0000,311.0000 479.0000,311.0000 C 749.0000,488.0000 749.0000,488.0000 749.0000,488.0000 C 798.0000,480.0000 828.0000,467.0000 828.0000,453.0000 "  fill="#FFFFFF" stroke="none" />
<path d="M 449.0000,416.0000 C 391.0000,424.0000 354.0000,438.0000 354.0000,453.0000 C 354.0000,479.0000 460.0000,500.0000 591.0000,500.0000 C 615.0000,500.0000 638.0000,499.0000 659.0000,498.0000 C 463.0000,369.0000 463.0000,369.0000 463.0000,369.0000 C 449.0000,416.0000 449.0000,416.0000 449.0000,416.0000 "  fill="#FFFFFF" stroke="none" />
<path d="M 963.0000,421.0000 C 963.0000,219.0000 800.0000,56.0000 598.0000,56.0000 C 397.0000,56.0000 233.0000,219.0000 233.0000,421.0000 C 233.0000,623.0000 397.0000,786.0000 598.0000,786.0000 C 800.0000,786.0000 963.0000,623.0000 963.0000,421.0000 M 598.0000,730.0000 C 427.0000,730.0000 289.0000,592.0000 289.0000,421.0000 C 289.0000,369.0000 302.0000,321.0000 324.0000,278.0000 C 317.0000,273.0000 317.0000,273.0000 317.0000,273.0000 C 349.0000,225.0000 349.0000,225.0000 349.0000,225.0000 C 355.0000,230.0000 355.0000,230.0000 355.0000,230.0000 C 412.0000,158.0000 500.0000,112.0000 598.0000,112.0000 C 769.0000,112.0000 907.0000,250.0000 907.0000,421.0000 C 907.0000,474.0000 894.0000,524.0000 870.0000,568.0000 C 891.0000,582.0000 891.0000,582.0000 891.0000,582.0000 C 860.0000,630.0000 860.0000,630.0000 860.0000,630.0000 C 838.0000,616.0000 838.0000,616.0000 838.0000,616.0000 C 782.0000,686.0000 695.0000,730.0000 598.0000,730.0000 "  fill="#FFFFFF" stroke="none" />
<path d="M 749.0000,488.0000 C 723.0000,493.0000 693.0000,496.0000 659.0000,498.0000 C 682.0000,513.0000 682.0000,513.0000 682.0000,513.0000 C 696.0000,512.0000 711.0000,511.0000 725.0000,509.0000 C 725.0000,509.0000 726.0000,522.0000 720.0000,538.0000 C 838.0000,616.0000 838.0000,616.0000 838.0000,616.0000 C 850.0000,601.0000 861.0000,585.0000 870.0000,568.0000 C 749.0000,488.0000 749.0000,488.0000 749.0000,488.0000 "  fill="#FFFFFF" stroke="none" />
<path d="M 749.0000,488.0000 C 749.0000,488.0000 749.0000,488.0000 749.0000,488.0000 C 723.0000,493.0000 693.0000,496.0000 659.0000,498.0000 C 682.0000,513.0000 682.0000,513.0000 682.0000,513.0000 C 682.0000,513.0000 682.0000,513.0000 682.0000,513.0000 C 682.0000,513.0000 682.0000,513.0000 682.0000,513.0000 C 696.0000,512.0000 711.0000,511.0000 725.0000,509.0000 C 725.0000,509.0000 725.0000,509.0000 725.0000,510.0000 C 725.0000,510.0000 725.0000,510.0000 725.0000,510.0000 C 725.0000,510.0000 725.0000,510.0000 725.0000,510.0000 C 725.0000,514.0000 725.0000,525.0000 720.0000,538.0000 C 838.0000,616.0000 838.0000,616.0000 838.0000,616.0000 C 838.0000,616.0000 838.0000,616.0000 838.0000,616.0000 C 838.0000,616.0000 838.0000,616.0000 838.0000,616.0000 C 850.0000,601.0000 861.0000,585.0000 870.0000,568.0000 C 749.0000,488.0000 749.0000,488.0000 749.0000,488.0000 "  fill="#FFFFFF" stroke="none" />
<path d="M 479.0000,311.0000 C 355.0000,230.0000 355.0000,230.0000 355.0000,230.0000 C 344.0000,245.0000 333.0000,261.0000 324.0000,278.0000 C 463.0000,369.0000 463.0000,369.0000 463.0000,369.0000 C 479.0000,311.0000 479.0000,311.0000 479.0000,311.0000 "  fill="#FFFFFF" stroke="none" />
<path d="M 355.0000,230.0000 C 355.0000,230.0000 355.0000,230.0000 355.0000,230.0000 C 344.0000,245.0000 333.0000,261.0000 324.0000,278.0000 C 463.0000,369.0000 463.0000,369.0000 463.0000,369.0000 C 479.0000,311.0000 479.0000,311.0000 479.0000,311.0000 C 355.0000,230.0000 355.0000,230.0000 355.0000,230.0000 "  fill="#FFFFFF" stroke="none" />
<path d="M 725.0000,509.0000 C 711.0000,511.0000 696.0000,512.0000 682.0000,513.0000 C 720.0000,538.0000 720.0000,538.0000 720.0000,538.0000 C 726.0000,522.0000 725.0000,509.0000 725.0000,509.0000 "  fill="#FFFFFF" stroke="none" />
<path d="M 725.0000,509.0000 C 711.0000,511.0000 696.0000,512.0000 682.0000,513.0000 C 720.0000,538.0000 720.0000,538.0000 720.0000,538.0000 C 725.0000,525.0000 725.0000,514.0000 725.0000,510.0000 C 725.0000,509.0000 725.0000,509.0000 725.0000,509.0000 "  fill="#FFFFFF" stroke="none" />
<path d="M 463.0000,369.0000 C 659.0000,498.0000 659.0000,498.0000 659.0000,498.0000 C 693.0000,496.0000 723.0000,493.0000 749.0000,488.0000 C 479.0000,311.0000 479.0000,311.0000 479.0000,311.0000 C 463.0000,369.0000 463.0000,369.0000 463.0000,369.0000 "  fill="#FFFFFF" stroke="none" />
<path d="M 479.0000,311.0000 C 479.0000,311.0000 479.0000,311.0000 479.0000,311.0000 C 463.0000,369.0000 463.0000,369.0000 463.0000,369.0000 C 659.0000,498.0000 659.0000,498.0000 659.0000,498.0000 C 693.0000,496.0000 723.0000,493.0000 749.0000,488.0000 C 479.0000,311.0000 479.0000,311.0000 479.0000,311.0000 "  fill="#FFFFFF" stroke="none" />
<path d="M 891.0000,582.0000 C 870.0000,568.0000 870.0000,568.0000 870.0000,568.0000 C 861.0000,585.0000 850.0000,601.0000 838.0000,616.0000 C 860.0000,630.0000 860.0000,630.0000 860.0000,630.0000 C 891.0000,582.0000 891.0000,582.0000 891.0000,582.0000 "  fill="#FFFFFF" stroke="none" />
<path d="M 870.0000,568.0000 C 870.0000,568.0000 870.0000,568.0000 870.0000,568.0000 C 861.0000,585.0000 850.0000,601.0000 838.0000,616.0000 C 860.0000,630.0000 860.0000,630.0000 860.0000,630.0000 C 891.0000,582.0000 891.0000,582.0000 891.0000,582.0000 C 870.0000,568.0000 870.0000,568.0000 870.0000,568.0000 "  fill="#FFFFFF" stroke="none" />
<path d="M 349.0000,225.0000 C 317.0000,273.0000 317.0000,273.0000 317.0000,273.0000 C 324.0000,278.0000 324.0000,278.0000 324.0000,278.0000 C 333.0000,261.0000 344.0000,245.0000 355.0000,230.0000 C 349.0000,225.0000 349.0000,225.0000 349.0000,225.0000 "  fill="#FFFFFF" stroke="none" />
<path d="M 349.0000,225.0000 C 317.0000,273.0000 317.0000,273.0000 317.0000,273.0000 C 324.0000,278.0000 324.0000,278.0000 324.0000,278.0000 C 333.0000,261.0000 344.0000,245.0000 355.0000,230.0000 C 349.0000,225.0000 349.0000,225.0000 349.0000,225.0000 "  fill="#FFFFFF" stroke="none" />
</g>
</svg>
