<?xml version="1.0" encoding="utf-8"?>
<!-- Generator: Adobe Illustrator 20.1.0, SVG Export Plug-In . SVG Version: 6.00 Build 0)  -->
<svg version="1.1" id="Layer_1" xmlns="http://www.w3.org/2000/svg" xmlns:xlink="http://www.w3.org/1999/xlink" x="0px" y="0px"
	 viewBox="0 0 97.6 49" style="enable-background:new 0 0 97.6 49;" xml:space="preserve">
<style type="text/css">
	.st0{fill:#B5BF00;stroke:#FFFFFF;stroke-width:0.8;}
	.st1{fill:#FFFFFF;}
	.st2{fill:#B5BF00;stroke:#FFFFFF;stroke-width:0.8;stroke-miterlimit:1;}
	.st3{font-family:'Helvetica-Bold';}
	.st4{font-size:16px;}
	.st5{fill:#FFFFFF;}
</style>
	<g>
	<g>
		<polygon class="st0" points="1.1,24.8 30,1.5 96.6,1.5 72.7,24.8 		"/>
		<polygon class="st0" points="72.7,48 96.6,24.5 96.6,1 72.7,24.8 		"/>
		<rect x="1.2" y="24.8" class="st0" width="71.5" height="23.2"/>
	</g>
	<path class="st1" d="M43.6,28.4c0,0,1-0.1,1.2,0.9L45,33l6.4,1.1l0.6-1.4l-1.6-4.4c-8.2-2-13.7-1.4-13.7-1.4h0.3
		c0,0-4.3-0.6-12.5,1.4L23,32.6l0.6,1.4L30,33l0.2-3.7c0.2-1,1.2-0.9,1.2-0.9H43.6z"/>
	<rect x="30.8" y="32.1" class="st2" width="13.4" height="13.7"/>
	<g>
		<text transform="matrix(1 0 0 1 31.7825 44.8614)" class="st1 st3 st4">V</text>
	</g>
	<ellipse class="st5" cx="21.4" cy="19.3" rx="6.5" ry="2.5"/>
	<ellipse class="st1" cx="21.4" cy="17.7" rx="6.5" ry="2.5"/>
</g>
</svg>
