<?xml version="1.0" encoding="utf-8"?>
<!-- Generator: Adobe Illustrator 20.1.0, SVG Export Plug-In . SVG Version: 6.00 Build 0)  -->
<svg version="1.1" id="Layer_1" xmlns="http://www.w3.org/2000/svg" xmlns:xlink="http://www.w3.org/1999/xlink" x="0px" y="0px"
	 viewBox="0 0 97.6 41.3" style="enable-background:new 0 0 97.6 41.3;" xml:space="preserve">
<style type="text/css">
	.st0{fill:#B5BF00;stroke:#FFFFFF;stroke-width:0.8;}
	.st1{fill:#FFFFFF;}
</style>
<g>
	<g>
		<rect x="1.3" y="24.2" class="st0" width="71.4" height="15.4"/>
		<polygon class="st0" points="1.1,24.3 30,0.9 96.6,0.9 72.7,24.3 		"/>
		<polygon class="st0" points="72.7,40.3 96.6,16.6 96.6,1 72.7,24.3 		"/>
	</g>
	<polygon class="st1" points="47.4,7 49,12.3 38.1,10.9 41.1,9.8 29.9,3.7 34.3,2.1 44.9,7.8 	"/>
	<polygon class="st1" points="52.8,18.1 51,13 61.8,14.4 59.9,15.4 72,21.1 67.5,22.9 55.5,16.9 	"/>
	<polygon class="st1" points="75.7,2.7 87.7,3.6 86.1,8.4 83.6,6.9 58.9,12.6 54.1,10.1 78.9,4.5 	"/>
	<polygon class="st1" points="23.5,22.8 12.4,21 13.7,16.1 16.5,17.8 41.5,12.7 46.2,15.4 20.7,20.7 	"/>
	<rect x="6.3" y="28.6" class="st1" width="15.3" height="6.3"/>
	<rect x="51.2" y="28.6" class="st1" width="15.3" height="6.3"/>
</g>
</svg>
