<?xml version="1.0" encoding="utf-8"?>
<!-- Generator: Adobe Illustrator 20.1.0, SVG Export Plug-In . SVG Version: 6.00 Build 0)  -->
<svg version="1.1" id="Layer_1" xmlns="http://www.w3.org/2000/svg" xmlns:xlink="http://www.w3.org/1999/xlink" x="0px" y="0px"
	 viewBox="0 0 43.1 72.5" style="enable-background:new 0 0 43.1 72.5;" xml:space="preserve">
<style type="text/css">
	.st0{fill:#B5BF00;stroke:#FFFFFF;stroke-width:0.8;}
	.st1{fill:#FFFFFF;}
	.st2{fill:none;stroke:#FFFFFF;stroke-width:0.8;}
</style>
<g>
	<polygon class="st0" points="42.1,64.1 34.4,71.6 34.4,8.4 42.1,0.9 	"/>
	<rect x="1" y="8.4" class="st0" width="33.4" height="63.1"/>
	<polygon class="st0" points="8.6,0.9 42.1,0.9 34.4,8.4 1,8.4 	"/>
	<g>
		<rect x="10.1" y="15.3" class="st1" width="14.5" height="8.5"/>
	</g>
	<g>
		<circle class="st1" cx="7.3" cy="31.3" r="2.1"/>
	</g>
	<g>
		<circle class="st1" cx="7.3" cy="38.9" r="2.1"/>
	</g>
	<g>
		<circle class="st1" cx="7.3" cy="46.6" r="2.1"/>
	</g>
	<g>
		<circle class="st1" cx="7.3" cy="54.2" r="2.1"/>
	</g>
	<g>
		<circle class="st1" cx="7.3" cy="61.9" r="2.1"/>
	</g>
	<line class="st2" x1="10.1" y1="30.6" x2="23.7" y2="30.6"/>
	<line class="st2" x1="10.1" y1="38.3" x2="23.7" y2="38.3"/>
	<line class="st2" x1="10.1" y1="45.9" x2="23.7" y2="45.9"/>
	<line class="st2" x1="10.1" y1="53.6" x2="23.7" y2="53.6"/>
	<line class="st2" x1="10.1" y1="61.2" x2="23.7" y2="61.2"/>
	<g>
		<circle class="st1" cx="26.8" cy="31.3" r="2.1"/>
	</g>
	<g>
		<circle class="st1" cx="26.8" cy="38.9" r="2.1"/>
	</g>
	<g>
		<circle class="st1" cx="26.8" cy="46.6" r="2.1"/>
	</g>
	<g>
		<circle class="st1" cx="26.8" cy="54.2" r="2.1"/>
	</g>
	<g>
		<circle class="st1" cx="26.8" cy="61.9" r="2.1"/>
	</g>
</g>
</svg>
