<?xml version="1.0" encoding="utf-8"?>
<!-- Generator: Adobe Illustrator 20.1.0, SVG Export Plug-In . SVG Version: 6.00 Build 0)  -->
<svg version="1.1" id="Layer_1" xmlns="http://www.w3.org/2000/svg" xmlns:xlink="http://www.w3.org/1999/xlink" x="0px" y="0px"
	 viewBox="0 0 50.4 45.5" style="enable-background:new 0 0 50.4 45.5;" xml:space="preserve">
<style type="text/css">
	.st0{fill:#595959;}
	.st1{fill:#B5BF00;stroke:#FFFFFF;stroke-width:0.8;}
	.st2{fill:#FFFFFF;}
</style>
<g>
	<line class="st0" x1="32.3" y1="13.3" x2="44.1" y2="35.8"/>
	<polygon class="st1" points="38.5,0.7 18.1,0.7 11.9,4.3 32.3,4.3 	"/>
	<polyline class="st1" points="44.1,35.8 44.1,44.8 50,41.1 50,32.1 38.5,9.7 38.5,0.7 32.3,4.3 32.3,13.3 	"/>
	<polygon class="st1" points="44.1,35.7 32.3,13.3 32.3,13.3 32.3,4.3 11.9,4.3 11.9,13.3 11.9,13.3 0.5,35.7 0.5,35.8 0.5,44.8 
		44.1,44.8 44.1,35.8 	"/>
	<polygon class="st2" points="22,24.3 23.2,24.3 23.2,33.1 29.2,33.1 22.5,41.1 16,33.1 22,33.1 	"/>
	<polygon class="st2" points="23.2,24.3 22,24.3 22,15.4 16,15.4 22.6,7.5 29.2,15.4 23.2,15.4 	"/>
</g>
</svg>
