<?xml version="1.0" encoding="UTF-8" standalone="no"?>
<svg
   xmlns:dc="http://purl.org/dc/elements/1.1/"
   xmlns:cc="http://creativecommons.org/ns#"
   xmlns:rdf="http://www.w3.org/1999/02/22-rdf-syntax-ns#"
   xmlns:svg="http://www.w3.org/2000/svg"
   xmlns="http://www.w3.org/2000/svg"
   version="1.1"
   id="svg2"
   xml:space="preserve"
   width="48.573334"
   height="32.373333"
   viewBox="0 0 48.573334 32.373333"><metadata
     id="metadata8"><rdf:RDF><cc:Work
         rdf:about=""><dc:format>image/svg+xml</dc:format><dc:type
           rdf:resource="http://purl.org/dc/dcmitype/StillImage" /></cc:Work></rdf:RDF></metadata><defs
     id="defs6" /><g
     id="g911"><path
       id="path14"
       style="fill:#B5BF00;fill-opacity:1;fill-rule:nonzero;stroke:none;stroke-width:0.13333333"
       d="M 0.75364531,31.510833 H 42.955199 V 6.8728003 H 0.75364531 V 31.510833" /><path
       id="path16"
       style="fill:none;stroke:#FFFFFF;stroke-width:0.5333333;stroke-linecap:butt;stroke-linejoin:miter;stroke-miterlimit:4;stroke-dasharray:none;stroke-opacity:1"
       d="M 0.75364531,31.510833 H 42.955199 V 6.8728003 H 0.75364531 Z" /><path
       id="path18"
       style="fill:#B5BF00;fill-opacity:1;fill-rule:nonzero;stroke:none;stroke-width:0.13333333"
       d="m 48.008399,24.11864 -5.0532,7.392193 V 6.8728003 l 5.0532,-6.12759984 V 24.11864" /><path
       id="path20"
       style="fill:none;stroke:#FFFFFF;stroke-width:0.5333333;stroke-linecap:butt;stroke-linejoin:miter;stroke-miterlimit:4;stroke-dasharray:none;stroke-opacity:1"
       d="m 48.008399,24.11864 -5.0532,7.392193 V 6.8728003 l 5.0532,-6.12759984 z" /><path
       id="path22"
       style="fill:#B5BF00;fill-opacity:1;fill-rule:nonzero;stroke:none;stroke-width:0.13333333"
       d="M 8.3359331,0.74520046 H 48.008399 l -5.0532,6.12759984 H 0.75364531 L 8.3359331,0.74520046" /><path
       id="path24"
       style="fill:none;stroke:#FFFFFF;stroke-width:0.5333333;stroke-linecap:butt;stroke-linejoin:miter;stroke-miterlimit:4;stroke-dasharray:none;stroke-opacity:1"
       d="M 8.3359331,0.74520046 H 48.008399 l -5.0532,6.12759984 H 0.75364531 Z" /><path
       id="path26"
       style="fill:#FFFFFF;fill-opacity:1;fill-rule:nonzero;stroke:none;stroke-width:0.13333333"
       d="m 32.253066,19.028 h 5.8464 l 0.04693,1.30888 2.9812,-1.901013 -2.9812,-2.000534 -0.04693,1.416667 h -5.897867 l 0.05147,1.176" /><path
       id="path28"
       style="fill:#FFFFFF;fill-opacity:1;fill-rule:nonzero;stroke:none;stroke-width:0.13333333"
       d="m 37.244266,28.91292 c -0.585467,0.12812 -1.163067,-0.241667 -1.292667,-0.82604 -0.1276,-0.582294 0.2416,-1.159907 0.826533,-1.289067 0.583867,-0.12812 1.161467,0.239587 1.290134,0.82292 0.129066,0.584373 -0.240134,1.162493 -0.824,1.292187" /><path
       id="path30"
       style="fill:none;stroke:#B5BF00;stroke-width:0.50666666;stroke-linecap:butt;stroke-linejoin:miter;stroke-miterlimit:4;stroke-dasharray:none;stroke-opacity:1"
       d="m 37.244266,28.91292 c -0.585467,0.12812 -1.163067,-0.241667 -1.292667,-0.82604 -0.1276,-0.582294 0.2416,-1.159907 0.826533,-1.289067 0.583867,-0.12812 1.161467,0.239587 1.290134,0.82292 0.129066,0.584373 -0.240134,1.162493 -0.824,1.292187 z" /><path
       id="path32"
       style="fill:#FFFFFF;fill-opacity:1;fill-rule:nonzero;stroke:none;stroke-width:0.13333333"
       d="m 39.101599,28.870213 c 0,0.873947 -0.708933,1.583333 -1.583333,1.583333 -0.875067,0 -1.583334,-0.709386 -1.583334,-1.583333 0,-0.87448 0.708267,-1.583333 1.583334,-1.583333 0.8744,0 1.583333,0.708853 1.583333,1.583333" /><path
       id="path34"
       style="fill:none;stroke:#B5BF00;stroke-width:0.50666666;stroke-linecap:butt;stroke-linejoin:miter;stroke-miterlimit:4;stroke-dasharray:none;stroke-opacity:1"
       d="m 39.101599,28.870213 c 0,0.873947 -0.708933,1.583333 -1.583333,1.583333 -0.875067,0 -1.583334,-0.709386 -1.583334,-1.583333 0,-0.87448 0.708267,-1.583333 1.583334,-1.583333 0.8744,0 1.583333,0.708853 1.583333,1.583333 z" /><path
       id="path36"
       style="fill:#FFFFFF;fill-opacity:1;fill-rule:nonzero;stroke:none;stroke-width:0.13333333"
       d="m 38.760399,27.559786 -2.0276,3.09376 -8.948933,-5.864066 2.0276,-3.094787 8.948933,5.865093" /><path
       id="path38"
       style="fill:none;stroke:#B5BF00;stroke-width:0.50666666;stroke-linecap:butt;stroke-linejoin:miter;stroke-miterlimit:4;stroke-dasharray:none;stroke-opacity:1"
       d="m 38.760399,27.559786 -2.0276,3.09376 -8.948933,-5.864066 2.0276,-3.094787 z" /><path
       id="path40"
       style="fill:#FFFFFF;fill-opacity:1;fill-rule:nonzero;stroke:none;stroke-width:0.13333333"
       d="m 18.826,8.5545336 c -5.463467,1.2037333 -8.9280802,6.6291994 -7.7234,12.0927594 1.204173,5.463013 6.6286,8.92916 12.092199,7.72448 C 28.657333,27.1676 32.122933,21.74312 30.917733,16.278 29.713599,10.815467 24.289066,7.3504003 18.826,8.5545336" /><path
       id="path42"
       style="fill:none;stroke:#B5BF00;stroke-width:0.50666666;stroke-linecap:butt;stroke-linejoin:miter;stroke-miterlimit:4;stroke-dasharray:none;stroke-opacity:1"
       d="m 18.826,8.5545336 c -5.463467,1.2037333 -8.9280802,6.6291994 -7.7234,12.0927594 1.204173,5.463013 6.6286,8.92916 12.092199,7.72448 C 28.657333,27.1676 32.122933,21.74312 30.917733,16.278 29.713599,10.815467 24.289066,7.3504003 18.826,8.5545336 Z" /><path
       id="path44"
       style="fill:#FFFFFF;fill-opacity:1;fill-rule:nonzero;stroke:none;stroke-width:0.13333333"
       d="M 10.75208,18.056667 H 7.7546931 l 0.05104,1.17656 h 3.2619729" /><path
       id="path46"
       style="fill:#FFFFFF;fill-opacity:1;fill-rule:nonzero;stroke:none;stroke-width:0.13333333"
       d="M 13.042706,24.351973 8.7656264,27.129586 9.4499998,28.08896 13.8448,25.233227" /><path
       id="path48"
       style="fill:#FFFFFF;fill-opacity:1;fill-rule:nonzero;stroke:none;stroke-width:0.13333333"
       d="M 12.894786,11.910267 9.1447864,9.4749336 8.5468798,10.488934 12.20156,12.8624" /><path
       id="path50"
       style="fill:#FFFFFF;fill-opacity:1;fill-rule:nonzero;stroke:none;stroke-width:0.13333333"
       d="M 22.888533,26.985826 C 18.1896,28.021773 13.523466,25.0426 12.486973,20.34208 c -1.036453,-4.699947 1.94476,-9.367146 6.643693,-10.4031464 4.6996,-1.0353333 9.366267,1.9453334 10.4016,6.6447994 1.036533,4.700534 -1.944267,9.36564 -6.643733,10.402093" /><path
       id="path52"
       style="fill:none;stroke:#B5BF00;stroke-width:0.50666666;stroke-linecap:butt;stroke-linejoin:miter;stroke-miterlimit:4;stroke-dasharray:none;stroke-opacity:1"
       d="M 22.888533,26.985826 C 18.1896,28.021773 13.523466,25.0426 12.486973,20.34208 c -1.036453,-4.699947 1.94476,-9.367146 6.643693,-10.4031464 4.6996,-1.0353333 9.366267,1.9453334 10.4016,6.6447994 1.036533,4.700534 -1.944267,9.36564 -6.643733,10.402093 z" /><path
       id="path54"
       style="fill:#B5BF00;fill-opacity:1;fill-rule:nonzero;stroke:none;stroke-width:0.13333333"
       d="m 17.612,11.793067 v 13.44172 l 8.209333,-5.7552 h 3.519333 v -1.92452 h -3.519333 l -8.209333,-5.762 v 0" /><path
       id="path56"
       style="fill:#B5BF00;fill-opacity:1;fill-rule:nonzero;stroke:none;stroke-width:0.13333333"
       d="M 10.885933,19.233227 H 14.4432 l 0.04693,1.308853 2.9812,-1.901013 -2.9812,-2 -0.04693,1.4156 h -3.69112" /><path
       id="path58"
       style="fill:#B5BF00;fill-opacity:1;fill-rule:nonzero;stroke:none;stroke-width:0.13333333"
       d="m 13.8448,25.233227 1.171333,-0.760934 0.752667,1.07292 1.465066,-3.21876 -3.590133,-0.05364 0.732267,1.213014 -1.333294,0.866146" /><path
       id="path60"
       style="fill:#B5BF00;fill-opacity:1;fill-rule:nonzero;stroke:none;stroke-width:0.13333333"
       d="m 12.458333,12.8624 1.9114,1.242133 -0.673333,1.122934 3.535866,0.0292 -1.410933,-3.300533 -0.810933,1.161999 -1.85988,-1.207866" /></g></svg>