<?xml version="1.0" encoding="utf-8"?>
<!-- Generator: Adobe Illustrator 20.1.0, SVG Export Plug-In . SVG Version: 6.00 Build 0)  -->
<svg version="1.1" id="Layer_1" xmlns="http://www.w3.org/2000/svg" xmlns:xlink="http://www.w3.org/1999/xlink" x="0px" y="0px"
	 viewBox="0 0 41.2 49.9" style="enable-background:new 0 0 41.2 49.9;" xml:space="preserve">
<style type="text/css">
	.st0{fill:#B5BF00;stroke:#FFFFFF;stroke-width:0.8;}
</style>
<g>
	<g>
		<polyline class="st0" points="11.7,8 1,8 1,48.9 11.7,48.9 		"/>
		<polygon class="st0" points="11.7,48.9 19.3,41.3 19.3,0.4 8.6,0.4 1,8 11.7,8 		"/>
	</g>
	<line class="st0" x1="11.7" y1="8" x2="19.3" y2="0.4"/>
	<g>
		<polyline class="st0" points="22.4,8 11.7,8 11.7,48.9 22.4,48.9 		"/>
		<polygon class="st0" points="22.4,48.9 30,41.3 30,0.4 19.3,0.4 11.7,8 22.4,8 		"/>
	</g>
	<line class="st0" x1="22.4" y1="8" x2="30" y2="0.4"/>
	<g>
		<polyline class="st0" points="33.2,8 22.5,8 22.5,48.9 33.2,48.9 		"/>
		<polygon class="st0" points="33.2,48.9 40.8,41.3 40.8,0.4 30.1,0.4 22.5,8 33.2,8 		"/>
	</g>
	<line class="st0" x1="33.2" y1="8" x2="40.8" y2="0.4"/>
	<g>
		<rect x="23.9" y="9.4" class="st0" width="7.8" height="5.8"/>
	</g>
	<g>
		<rect x="23.9" y="16" class="st0" width="7.8" height="5.8"/>
	</g>
	<g>
		<rect x="23.9" y="38.9" class="st0" width="7.8" height="5.8"/>
	</g>
</g>
</svg>
