<?xml version="1.0" encoding="utf-8"?>
<!-- Generator: Adobe Illustrator 20.1.0, SVG Export Plug-In . SVG Version: 6.00 Build 0)  -->
<svg version="1.1" id="Layer_1" xmlns="http://www.w3.org/2000/svg" xmlns:xlink="http://www.w3.org/1999/xlink" x="0px" y="0px"
	 viewBox="0 0 65.6 36.5" style="enable-background:new 0 0 65.6 36.5;" xml:space="preserve">
<style type="text/css">
	.st0{fill:#B5BF00;stroke:#FFFFFF;stroke-width:0.8;}
</style>
<g>
	<polygon class="st0" points="64.6,32.8 64.6,0.9 61.4,3.7 61.4,35.6 	"/>
	<g>
		<rect x="1.1" y="3.8" class="st0" width="60.2" height="31.8"/>
	</g>
	<path class="st0" d="M4.7,10.7C4.7,7.5,8,7.1,8,7.1s34.6,0,37.7,0c4,0,3.9,3.8,3.9,3.8s0,15.6,0,17.9c0,2.2-3.1,3.2-3.1,3.2
		s-35.2,0-38.1,0c-2.8,0-3.8-3-3.8-3V10.7z"/>
	<polygon class="st0" points="64.6,0.9 4.3,0.9 1.1,3.8 61.3,3.8 	"/>
	<ellipse class="st0" cx="55.4" cy="10.3" rx="1.7" ry="0.9"/>
	<ellipse class="st0" cx="55.4" cy="17" rx="1.7" ry="0.9"/>
	<ellipse class="st0" cx="55.4" cy="23.6" rx="1.7" ry="0.9"/>
	<ellipse class="st0" cx="55.4" cy="30.3" rx="1.7" ry="0.9"/>
</g>
</svg>
