<?xml version="1.0" encoding="utf-8"?>
<!-- Generator: Adobe Illustrator 20.1.0, SVG Export Plug-In . SVG Version: 6.00 Build 0)  -->
<svg version="1.1" id="Layer_1" xmlns="http://www.w3.org/2000/svg" xmlns:xlink="http://www.w3.org/1999/xlink" x="0px" y="0px"
	 viewBox="0 0 36.8 74.3" style="enable-background:new 0 0 36.8 74.3;" xml:space="preserve">
<style type="text/css">
	.st0{fill:#B5BF00;stroke:#FFFFFF;stroke-width:0.8;}
</style>
<g>
	<polygon class="st0" points="3.3,73.5 6.8,73.9 21.5,73.9 25.1,73.5 27.1,71.9 27.3,71.1 27.4,14 1.1,14 1.1,71.9 	"/>
	<polygon class="st0" points="35.8,0.9 27.4,8.9 27.3,70.9 35.9,61.1 35.8,0.9 	"/>
	<line class="st0" x1="27.4" y1="13.9" x2="35.8" y2="5.7"/>
	<line class="st0" x1="26" y1="19.1" x2="26" y2="17.9"/>
	<line class="st0" x1="26" y1="19.1" x2="26" y2="17.9"/>
	<line class="st0" x1="27.3" y1="66.4" x2="35.6" y2="57.3"/>
	<path class="st0" d="M8.7,0.9l27.1,0l-8.5,8l0,0c0,0-10.8,3.9-26.6-0.4L8.7,0.9z"/>
	<path class="st0" d="M0.8,8.5c15.7,4.3,26.6,0.4,26.6,0.4l0,4.9c0,0-10.9,4-26.6-0.3L0.8,8.5z"/>
	<polyline class="st0" points="27.1,32.3 1.2,32.3 1.2,33 	"/>
	<line class="st0" x1="1.3" y1="22.9" x2="27.2" y2="22.9"/>
	<line class="st0" x1="1.3" y1="27" x2="27.2" y2="27"/>
	<line class="st0" x1="1.3" y1="22.9" x2="27.2" y2="22.9"/>
	<polyline class="st0" points="1.3,35.1 3.3,36.6 6.9,37 	"/>
	<rect x="2.7" y="17.8" class="st0" width="23.3" height="3.2"/>
	<polyline class="st0" points="6.8,34.3 21.5,34.3 25.1,33.9 27.1,32.3 	"/>
	<polyline class="st0" points="6.8,37 21.5,37 25.1,36.6 27.1,35.1 	"/>
	<polyline class="st0" points="1.3,32.3 3.2,33.9 6.8,34.3 	"/>
	<polyline class="st0" points="1.3,40.8 3.3,42.3 6.9,42.7 	"/>
	<polyline class="st0" points="6.8,40 21.5,40 25.1,39.6 27.1,38 	"/>
	<polyline class="st0" points="6.8,42.7 21.5,42.7 25.1,42.3 27.1,40.8 	"/>
	<polyline class="st0" points="1.3,38 3.2,39.6 6.8,40 	"/>
	<polyline class="st0" points="1.3,46.5 3.3,48 6.9,48.4 	"/>
	<polyline class="st0" points="6.8,45.7 21.5,45.7 25.1,45.3 27.1,43.7 	"/>
	<polyline class="st0" points="6.8,48.4 21.5,48.4 25.1,48 27.1,46.5 	"/>
	<polyline class="st0" points="1.3,43.7 3.2,45.3 6.8,45.7 	"/>
	<polyline class="st0" points="1.3,52.2 3.3,53.7 6.9,54.1 	"/>
	<polyline class="st0" points="6.8,51.3 21.5,51.3 25.1,51 27.1,49.4 	"/>
	<polyline class="st0" points="6.8,54.1 21.5,54.1 25.1,53.7 27.1,52.2 	"/>
	<polyline class="st0" points="1.3,49.4 3.2,51 6.8,51.3 	"/>
	<polyline class="st0" points="1.3,57.8 3.3,59.4 6.9,59.8 	"/>
	<polyline class="st0" points="6.8,57 21.5,57 25.1,56.6 27.1,55.1 	"/>
	<polyline class="st0" points="6.8,59.8 21.5,59.8 25.1,59.4 27.1,57.8 	"/>
	<polyline class="st0" points="1.3,55.1 3.2,56.6 6.8,57 	"/>
	<polyline class="st0" points="1.3,63.5 3.3,65.1 6.9,65.5 	"/>
	<polyline class="st0" points="6.8,62.7 21.5,62.7 25.1,62.3 27.1,60.8 	"/>
	<polyline class="st0" points="6.8,65.5 21.5,65.5 25.1,65.1 27.1,63.5 	"/>
	<polyline class="st0" points="1.3,60.8 3.2,62.3 6.8,62.7 	"/>
	<polyline class="st0" points="1.3,69.2 3.3,70.8 6.9,71.2 	"/>
	<polyline class="st0" points="6.8,68.4 21.5,68.4 25.1,68 27.1,66.5 	"/>
	<polyline class="st0" points="6.8,71.1 21.5,71.1 25.1,70.8 27.1,69.2 	"/>
	<polyline class="st0" points="1.3,66.5 3.2,68 6.8,68.4 	"/>
</g>
</svg>
