<?xml version="1.0" encoding="utf-8"?>
<!-- Generator: Adobe Illustrator 20.1.0, SVG Export Plug-In . SVG Version: 6.00 Build 0)  -->
<svg version="1.1" id="Layer_1" xmlns="http://www.w3.org/2000/svg" xmlns:xlink="http://www.w3.org/1999/xlink" x="0px" y="0px"
	 viewBox="0 0 74.4 50.4" style="enable-background:new 0 0 74.4 50.4;" xml:space="preserve">
<style type="text/css">
	.st0{fill:#B5BF00;stroke:#FFFFFF;stroke-width:0.8;}
	.st1{fill:#B5BF00;stroke:#FFFFFF;stroke-width:0.8;}
	.st2{fill:#FFFFFF;}
	.st3{font-family:'Helvetica-Bold';}
	.st4{font-size:16px;}
</style>
	<g>
	<path class="st0" d="M23.3,28C9.9,25.8,0.4,20.7,0.4,14.7v21c0,5.9,9.7,11,22.9,13.2L23.3,28z"/>
	<path class="st1" d="M23.3,48.8c4.4,0.7,8.8,1.1,13.9,1.1C57.5,50,74,43.6,74,35.7v-21C74,22.6,57.5,29,37.2,29
		c-4.9,0-9.6-0.4-13.9-1.1L23.3,48.8z"/>
	<path class="st0" d="M51.5,1.5c-4.4-0.7-9.2-1.1-14.3-1.1C16.9,0.4,0.4,6.8,0.4,14.7c0,5.9,9.1,10.9,22.2,13.1L51.5,1.5z"/>
	<path class="st1" d="M22.6,27.8C27,28.6,32,29,37.2,29C57.5,29,74,22.6,74,14.7c0-5.9-9.3-11-22.5-13.2L22.6,27.8z"/>
	<polygon class="st2" points="28.3,9.3 31.3,13.9 19.8,16.5 22.4,14.5 4.6,11.4 9.1,8.1 26.2,11 	"/>
	<polygon class="st2" points="44.5,20.4 42.4,15.7 52.7,13.6 50.9,15.2 68.2,18.2 64.1,21.5 46.9,18.3 	"/>
	<polygon class="st2" points="38.8,6.8 50.4,3.7 50.5,8.6 47.6,8.1 42,12.8 36.6,12 42.4,7.4 	"/>
	<polygon class="st2" points="33.8,24.7 22.8,26.7 22.4,21.6 25.5,22.3 31.6,17.1 37,18 30.5,23.7 	"/>
	<g>
		<text transform="matrix(1 0 0 1 24.7745 44.8351)" class="st2 st3 st4">ITP</text>
	</g>
</g>
</svg>
