<?xml version="1.0" encoding="utf-8"?>
<!-- Generator: Adobe Illustrator 20.1.0, SVG Export Plug-In . SVG Version: 6.00 Build 0)  -->
<svg version="1.1" id="Layer_1" xmlns="http://www.w3.org/2000/svg" xmlns:xlink="http://www.w3.org/1999/xlink" x="0px" y="0px"
	 viewBox="0 0 99.7 145.9" style="enable-background:new 0 0 99.7 145.9;" xml:space="preserve">
<style type="text/css">
	.st0{fill:#B5BF00;}
	.st1{fill:#FFFFFF;}
</style>
<g>
	<path class="st0" d="M59.6,129.1l-2.1,4.7c0,0,0,2,2.8,1l2.4-1l2.6-3l0.4-0.2c0.1-0.9,0.1-1.8,0.3-2.7c0.3-1.6-0.2-3.3,0.3-4.7
		c1.3-3.6,2.5-7.2,3.8-10.7c1-2.8-0.5-6.1,0.6-8.8l-7.8-2.5c-0.5,8.3-0.6,16.5-1.1,24.8C61.2,127,60.4,128.1,59.6,129.1L59.6,129.1z
		"/>
	<path class="st0" d="M80.8,128.5L80.8,128.5l0.1,0.9l2.2,2.8l3.6,3l2.4-0.2c0.6-1.6,1.4-2,1.4-2c-1.5-1.4-3.3-2.3-4.1-4.3
		c-0.5-1.2-0.9-2.6-0.8-3.8c0.3-7.9,1.1-15.7,1.9-23.6l-8.3,2c-0.7,0.3-0.4,1.1-0.5,1.6c-0.2,1.8-0.5,3.7,0,5.6
		c0.4,1.7,1.1,3.2,1.4,4.8C80.8,119.8,81.1,124.1,80.8,128.5z"/>
	<path class="st0" d="M22.2,5.2c0.3,0.4,0.4,0.9,0.5,1.2c0.2,1.6-0.4,3.2-1,4.7c-0.1,0.4-0.1,1.4-0.6,1.1c-0.5-0.3-1-1.1-1.5-1.3
		c-0.7-0.2-1.5,0.5-2.2,0.9c1.3,1.7,2.9,3.5,2.2,5.8c-1.6-2.4-3.4-4.8-4.6-7.5c-0.7-1.4-0.4-3.5,0.5-4.7c1.3-1.8,3.4-3.4,5.6-4
		c3-0.8,6-1.4,9.1-1.4c-2.8,1.4-5.5,2.8-8.2,4.6C21.9,4.8,22.1,5,22.2,5.2z"/>
	<path class="st0" d="M32.8,5.4c-0.7,1.4-1.4,2.7-2.2,4c0.1-0.2,0-0.3-0.2-0.4C30,9,29.5,9.1,29.3,8.9c-0.2-0.2-0.2-0.8,0-1.1
		c0.2-0.3,1,0.1,1,0.1c1.4-2.2-1.2-4-2.1-5.9c2,0,3.7,1.3,5.6,1.6C33.4,4.2,33.1,4.8,32.8,5.4z"/>
	<path class="st0" d="M25.2,9.2c-0.3-0.1-0.9,0-0.9-0.1c-0.6-1.9,2.1-1,3.3-1.6C27.3,8.9,26.5,9.5,25.2,9.2z"/>
	<path class="st0" d="M28.6,12.4c-0.5,0-0.9,0-1.4,0c0.6-0.5,1.1-0.9,1.8-1.2c-0.1,0.4,0.1,0.8,0.2,1.2C29,12.4,28.8,12.4,28.6,12.4z"/>
	<path class="st0" d="M28.2,14.8c-0.9,0-1.9,0-2.8,0c0.3-0.3,0.9-0.4,1.2-0.5c0.9-0.1,2.1-0.7,2.8,0.5C29,14.8,28.6,14.8,28.2,14.8z"/>
	<path class="st0" d="M28,15.6c0.7,0.3-0.3,0.3-0.2,0.6c-0.5,0.1-0.7-0.4-1-0.6C27.2,15.6,27.6,15.5,28,15.6z"/>
	<path class="st0" d="M35.6,138.6c2.6,1.7,5.2,3.6,7.8,5.4c-0.4,0.3-0.3,1.1-0.6,1.1c-2.1,0-4.3,0.1-6.4-0.2c-2-0.3-3.6-1.6-5.5-2.1
		c-0.3-0.1-0.3,0.9-0.6,0.9c-1.6,0.3-3.3-0.2-4.4-1.1c-0.9-0.7,0-2.4-0.6-3.6L35.6,138.6z"/>
	<path class="st0" d="M25.3,139c0-0.1-0.3,0-0.3,0c-0.6-18-0.3-36-0.8-54c-2.9,17.6-5.2,34.6-8.6,52.8c-0.1,0.3-1.2,0.1-1.3,0.7
		l-8.7-0.1c0.3-0.6-0.3-1.7-0.2-2.7c1-9.6,2.3-18.9,2.8-28.4c0.5-9.7,0.7-19.3,1.2-29c0.1-1.7,0.8-3.5,0.7-5.2c0-0.5-0.9-0.9-1.6-1
		c0.7-1.6,0.9-3.4,1.4-5c-2.9-3.1-6-5.9-8.6-9.5c-0.8-1.2-1.3-2.9-1.2-4.2c0.5-8.4,2.4-16.6,2.4-25c4.1-2.6,9-3.2,13.3-5.2
		c1.6-0.7,3.3-1.7,3.9-3.6c2.2,1.6,4,3.7,6.5,4.9c0.2,0.1,0.4-0.5,0.5-0.9c0.1,0.1,0.1,0.1,0.2,0.2C27,23,27,22.5,27.6,22
		c-0.1-0.1-0.3-0.3-0.2-0.4c0.4-0.4,0.4-0.9,0.8-1.2c0.4,0.7,1,1.2,1.7,1.5c3.5,1.6,7,2.8,10.5,4.2c1.3,0.5,2.7,1.4,3.2,2.4
		c0.4,0.8-0.1,2.1-0.4,3.3c-0.3,1.4-0.6,2.7-0.6,4c0,5.9,1.6,11.7,2,17.6c-2.6,3.2-4.5,6.8-6.8,10.2c0.5,2.8,1.8,5.6,1.8,8.4
		c0,0.2-1.6,0.5-1.6,1c-0.1,3.2,0.6,6.5,0.4,9.8c-1.1,18.7-1.1,37.2-2.8,55.8L25.3,139z"/>
	<path class="st0" d="M14.3,138.4c-0.2,1.2,0.5,2.6-0.1,3.4c-0.8,1.2-2.4,1.7-3.8,2.4c-0.5,0.3-0.2,1.3-0.9,1.4
		c-2.7,0.3-5.3,0.1-8,0.1c0.1-1.3-0.3-2.7,0.4-3.7c1-1.5,2.8-2.4,3.6-3.8L14.3,138.4z"/>
	<path class="st0" d="M11.5,51c0-2.3-0.3-4.7-0.7-7c-0.9,2.2-1.4,4.7-1.3,7c0,1,1.2,2,1.9,3C11.9,53,11.5,52,11.5,51z"/>
	<path class="st0" d="M64.6,26.6c-0.6-0.7-1.8-0.7-1.8-1.8c0.7,0,1.4,0.1,2-0.4c-1.2-0.4-1.8-1.5-1.9-2.6c0-0.1,0.3-0.7,0.5-0.7
		c0.5,0,0.5,0.9,1,1.1c0.2,0.1,0.3,0,0.4-0.2c0.2-0.6-0.1-1.2-0.2-1.8c0.7,0.2,1.9,0.5,1.9-0.2c0-1-1.4-2.1-0.5-2.9
		c0.2-0.2,1.2,1,1.3,0.3c0.1-0.7-1-1.6-0.9-2.4c0-0.6,1.2-0.7,1.4-1.3c0.4-0.9-0.4-2.1-0.1-2.9c0.8-2.5,2.2-4.7,3.4-7.1
		c3.1-0.1,4.2-3.1,9.2-0.5c0.1,0.1-0.5,0-0.4,0.3C79.9,3.8,80,3.9,80.2,4C81,4,81.9,3.9,82.3,4.6c0.3,0.6-0.6,1.2-0.4,1.7
		c0.3,0.8,1.8,0.4,1.9,1.1c0.3,1.3-1.2,2.6-1,3.7c0.1,0.7,1.6,0.9,2,1.7c0.5,0.9-0.2,2.2,0.7,3.1c0.3-0.4,0.8-0.7,1.2-1
		c0.1,0.8,0.4,1.5,0.8,2.2c0.5-0.7,1.1-1.3,1.6-2c0.5,0.4,0.3,1.1,0.1,1.3c-0.8,0.8-1.7,1.9-2.9,2.2c-0.2,0-0.3,0.2-0.3,0.3
		l-1.4-0.8c-0.2,0.3,1,0.9,0.5,1l0.2,0.8c0.7,0.8,1.6,0.2,2.4,0c0.4,1.4-1.5,1.6-1.6,2.6C86,23.2,87,23,87.6,22.8
		c-0.2,1-1,1.5-1.6,2.2"/>
	<path class="st0" d="M90.5,132.8c1.3,1.2,2.2,3.1,3.4,4.4c0.3,0.3-0.6,1-1.1,1c-2.3-0.1-4.3,0.3-6.3-0.5c-1.8-0.7-1.8-3.2-4.3-4.4
		c-0.8,0.8-0.3,1.9-0.7,2.8c0,0.1-0.5,0.1-0.5,0c-0.8-2.6-2.8-5.7-0.3-7.8l0,0l0.1,0.9l2.2,2.8l3.6,3l2.4-0.2
		C89.7,133.2,90.5,132.8,90.5,132.8z"/>
	<path class="st0" d="M70.8,104.7c0.4-1.1,2.2-1.2,3.4-1.1c0.5,0.1,0.9,1.2,1.4,1.3c1,0.1,1.8-1.2,2.8-1.3c0.3,0,0.6,0.5,0.8,0.9
		l3.3-1l2.8,1.5l1.7-2.5l0.5,0c0-0.2,0.6-0.4,0.6-0.4c1.1-9.7,1.5-19.1,2.7-28.8c0.2-1.4-0.3-2.8-0.2-4.2c0.4,0.1,0.8-0.3,1.2-0.2
		c-0.1-2.2-0.9-4.2-1-6.4c2.9-3.5,6-6.9,8.4-10.9c0.4-0.7,0.6-1.9,0.3-2.9c-1-3.1-2.1-6-3.2-9c-1.6-4.5-2.9-9-4.6-13.4
		c-1.9-0.6-3.9-0.6-5.8-1.2l-9.1-1.1l-12.3,2.7c-2.8,0.9-5.5,1.9-8,3.4c-0.5,4.3,0,8.4-0.9,12.8c-0.5,2.5-0.8,4.8-1.2,7.2
		c-0.2,1.1-0.6,2.1-0.3,3.2c0.4,1.3,0.5,2.8,1.3,3.7c2.3,2.4,5.5,3.7,8.1,5.9c-0.2,1.7-0.8,3.3-1.4,5c-0.2,0.6,0.7,0.5,0.7,0.8
		c-0.2,1.1-1,2.2-1.1,3.2c-1.1,10.1-0.7,20.1-0.2,30.2c0,0.2,1.5-0.4,1.4,0.2l1.9,1.9l3.3-1l2.5,1.8"/>
	<path class="st0" d="M83.2,21.2c-0.5-0.6-1.2-1-1.8-1.6c-0.2,0.2-0.5,0.4-0.5,0.6c0,0.7-0.3,2,0.5,2c0.5,0,0.1-1.1,0.2-1.8
		c0.2,0.5,0.4,1.1,0.8,1.3C82.8,22,82.8,21.3,83.2,21.2z"/>
	<path class="st1" d="M81,29.6c-0.1,0-0.2-0.2-0.4-0.2c0-0.3-0.1-0.6,0-0.8c0.1-0.1,0.5,0,0.8,0c-0.1,0.2,0.1,0.3,0.2,0.4
		c0.5-1.4,0-2.8-0.2-4.2c-0.1-0.5-1.2-0.5-1.5-0.9c-0.6-0.8-1-3.7-0.1-3.6c2.1,0.2,2.2-4,2.9-6.3c0.3-1-0.2-1.3-0.6-2.3
		c-0.3,0.1-0.1,0.5-0.2,0.5c-0.5,0.2-1.1,0.5-1.5,0.2c-0.2-0.2-0.2-0.9,0-1c0.4-0.3,1.9-0.6,1.9-0.5c0.4-1.1-0.2-2-1-3
		c-0.4,0.6-0.7,0.7-1.4,0.6c0.4-0.4,0.4-1.5-0.1-1.2c-0.8,0.5-0.7,2-2.1,2c0-0.6,0-1.2-0.4-1.6c-0.4,0.6-0.9,1.3-1.6,1.3
		c-0.4-0.1-0.3-1.3-0.9-0.8c-0.7,0.7,0.5,1.6,0.3,2.5c-0.5,1.8-0.5,3.5-1.5,5.2c-0.2,0.3-0.1,0.7,0,1c0.2,0.4,0.6,0.7,1.2,0.6
		c0,0.8-0.9,0.3-1.2,0.8c-0.1,0.1-0.1,0.4,0,0.6c0.4,0.6,1.1,0.7,1.8,0.6c-0.2,1.2-1.5,1.4-2.4,0.8c-0.2,1.2,0.4,2.3,1.6,2.6
		c-0.5,0.7-1.4,0.1-1.9,0.5c-0.7,0.5,0.2,1.5-0.1,2.3c-0.1-0.3-0.5-0.3-0.5-0.2c-0.6,0.9,0.2,2,0.3,3c0.1-0.3,0.4-0.2,0.6-0.2
		c0.4,0.1,0.2,0.5,0.2,0.8c-0.2,0-0.4-0.1-0.6,0c-0.6,0.3,0.2,0.6,0,1c1.9,1.1,4.1,1.7,6.2,1.4c0.6-0.1,1.3-0.4,1.8-0.8
		c-0.5-0.4-1.5,0-1.2-1c0.2-0.4,0.7-0.3,0.9-0.2c0.3,0.1,0,0.6,0,0.9c0,0.2,0.2,0.3,0.4,0.2c0.5-0.4,1.1-0.6,1.4-1.2
		c0-0.1-0.2-0.3-0.3-0.3C81.3,29,81.4,29.7,81,29.6z"/>
	<path class="st0" d="M78.6,12.3c-0.1,0.2-0.3,0.4-0.4,0.4c-0.9-0.1-1.7-0.1-2.2-0.9c1.1-0.3,2.2-0.8,3.1-0.1C79.4,11.8,78.7,12,78.6,12.3z"/>
	<path class="st0" d="M81.3,15.2c-0.2,0.6-1,0.1-1.6,0.2c0.4-0.6,0.7-0.9,1.4-1C81.1,14.7,81.3,15,81.3,15.2z"/>
	<path class="st0" d="M80.5,17.1c-0.7,0.1-1.3,0.3-2,0c1-0.6,2.2-0.3,3.4-0.6c-0.1,0.1-0.2,0.2-0.2,0.4C81.3,17,80.9,17.1,80.5,17.1z"/>
	<path class="st0" d="M78.6,31c-0.4,0.3-1.2-0.1-0.9-0.7c0.1-0.3,0.4-0.6,0.8-0.4C78.8,30,79,30.7,78.6,31z"/>
	<path class="st0" d="M76.8,30.8c-0.3,0.1-0.3-0.3-0.6-0.2c0-0.3-0.2-0.7,0.2-0.8c0.3-0.1,0.6-0.2,0.8,0.2C77.3,30.3,77.1,30.6,76.8,30.8z"/>
	<path class="st0" d="M75.2,30.4c-0.2,0-0.5,0.1-0.6-0.2c0-0.3-0.2-0.7,0.2-0.8c0.5-0.2,1,0.3,0.8,0.8
		C75.5,30.3,75.3,30.4,75.2,30.4z"/>
	<path class="st0" d="M74,29.6c-0.2,0.1-0.5,0.1-0.6-0.2c-0.2-0.6,0.5-0.8,0.7-0.5C74.3,29,74.2,29.4,74,29.6z"/>
	<path class="st0" d="M80.4,18c-0.4,0-0.7-0.1-1-0.3c0.7-0.1,1.3-0.2,2-0.2C81.2,17.8,80.9,17.9,80.4,18z"/>
	<path class="st1" d="M17.5,22.5l3,9l6.4,15.2l3-15.8l-0.6-8.8l-1.2-1.2l-2,3.7l-6.6-4.7C19.5,21.2,17.5,22.5,17.5,22.5z"/>
	<polygon class="st0" points="25.4,24.8 26.2,25.3 26.7,24.7 27.5,25.8 26.5,27.2 28,41.2 26.9,47.1 24,40.4 25.4,27.1 24.6,26.1
		"/>
	<path class="st1" d="M72.5,30l0.7,3.2l7.7,14.2l2.7-13.2l-1.8-4.7C78.5,33.7,72.5,30,72.5,30z"/>
	<path class="st0" d="M65.3,130.6l-2.6,3l-2.4,1c-2.8,1-2.8-1-2.8-1l2.1-4.7c-1.1,1.4-2.3,2.9-3.2,4.5c-0.8,1.4-1.9,2.9-1.9,4.5
		c0,0.3,0.7,0.8,1.3,0.6c1.8-0.5,3.7-0.5,5.3-1.3c1.4-0.7,2.1-2.5,3.3-3.6c0.5,0.6,0,1.4,0.4,2c0.8-1.6,0.8-3.4,1-5.1L65.3,130.6z"
		/>
	<path class="st1" d="M91.5,40.3c-2-2.8-4-0.1-4-0.1c-1.1,1.6,0.3,3,0.3,3l0.2-0.3c-1.2-1.7,0.3-2.9,0.3-2.9
		C89.8,41.6,91.5,40.3,91.5,40.3z"/>
	<path class="st1" d="M90.7,36.6c0-0.9-1.1-0.5-1.6,0c-0.1-0.3,0.3-0.5,0.2-0.8c-0.1-0.4-0.5-0.2-0.8-0.2c-0.4,0.1-0.1,0.6-0.2,1
		c-0.7-0.5-1.5-0.9-1.7,0.2c-0.1,0.7,1,0.4,1.1,1c-0.3,0.1-0.8-0.2-1,0.2c-0.1,0.2-0.2,0.7,0.2,0.7c0.5,0.1,1-0.1,1.4-0.4
		C88.3,39,88,39.9,89,39.6c0.6-0.2,0.4-0.8,0.4-1.4c0.2,0.4,0.7,0.3,1,0.6c0.2-0.2,0.3-0.5,0.4-0.8c0.3-0.8-0.7-0.4-0.8-0.8
		C90.5,37.3,90.7,37,90.7,36.6z"/>
</g>
</svg>
