<?xml version="1.0" encoding="utf-8"?>
<!-- Generator: Adobe Illustrator 20.1.0, SVG Export Plug-In . SVG Version: 6.00 Build 0)  -->
<svg version="1.1" id="Layer_1" xmlns="http://www.w3.org/2000/svg" xmlns:xlink="http://www.w3.org/1999/xlink" x="0px" y="0px"
	 viewBox="0 0 94.6 53.4" style="enable-background:new 0 0 94.6 53.4;" xml:space="preserve">
<style type="text/css">
	.st0{fill:#B5BF00;stroke:#FFFFFF;stroke-width:0.8;}
	.st1{fill:none;stroke:#FFFFFF;stroke-width:1.6;stroke-miterlimit:1;}
	.st2{fill:none;stroke:#FFFFFF;stroke-width:0.5;stroke-miterlimit:1;}
	.st3{fill:#FFFFFF;}
	.st4{fill:none;stroke:#FFFFFF;stroke-width:0.8;stroke-linecap:round;stroke-miterlimit:1;}
	.st5{font-family:'Helvetica-Bold';}
	.st6{font-size:16px;}
</style>
	<g>
	<g>
		<g>
			<polygon class="st0" points="1.1,23.5 29.1,0.9 93.7,0.9 70.5,23.5 			"/>
			<polygon class="st0" points="70.5,52.4 93.7,28.8 93.7,0.9 70.5,23.5 			"/>
			<rect x="1.2" y="23.5" class="st0" width="69.3" height="28.9"/>
		</g>
		<path class="st1" d="M43.5,19.5c4.2-3.2,9.5-4.8,9.5-4.8c6.3-2.3,8.7-5,8.7-5c6-6.7-5.4-6.8-5.4-6.8s-11.9-0.1-17.9,6
			c0,0-3.1,2.9-1.4,5.4c0,0,2.1,1.7-0.1,5"/>
		<path class="st2" d="M43.7,19.6c-0.2,0.2-0.6,0.3-0.9,0.3l-6-0.1c-0.3,0-0.4-0.2-0.2-0.3l0,0c0.2-0.2,0.6-0.3,0.9-0.3l6,0.1
			C43.7,19.3,43.8,19.5,43.7,19.6L43.7,19.6z"/>
		<path class="st2" d="M42.9,20.4c-0.2,0.2-0.6,0.3-0.9,0.3l-6-0.1c-0.3,0-0.4-0.2-0.2-0.3l0,0c0.2-0.2,0.6-0.3,0.9-0.3l6,0.1
			C43,20.1,43.1,20.2,42.9,20.4L42.9,20.4z"/>
		<path class="st2" d="M42.1,21.2c-0.2,0.2-0.6,0.3-0.9,0.3l-6-0.1c-0.3,0-0.4-0.2-0.2-0.3l0,0c0.2-0.2,0.6-0.3,0.9-0.3l6,0.1
			C42.2,20.9,42.3,21,42.1,21.2L42.1,21.2z"/>
		<g>
			<polyline class="st3" points="60.6,16 63.2,21.9 54.5,18.7 			"/>
			<line class="st4" x1="59.9" y1="18.7" x2="55.6" y2="16.1"/>
		</g>
		<g>
			<polyline class="st3" points="38.6,4.2 29.7,2.4 32.6,7 			"/>
			<line class="st4" x1="38" y1="6.4" x2="33.9" y2="4.6"/>
		</g>
		<g>
			<polyline class="st3" points="32.5,18.7 19.9,19.8 28.4,15.3 			"/>
			<line class="st4" x1="28.3" y1="17.6" x2="33.5" y2="16.1"/>
		</g>
		<g>
			<polyline class="st3" points="67.8,4.2 78,5.2 68.5,8.3 			"/>
			<line class="st4" x1="71.2" y1="6" x2="65.7" y2="7.1"/>
		</g>
		<g>
			<polyline class="st3" points="24.1,12.9 34.6,10.6 27.2,9.1 			"/>
			<line class="st4" x1="20.7" y1="10.9" x2="26.6" y2="10.9"/>
			<line class="st4" x1="68.5" y1="13.1" x2="74.5" y2="13.1"/>
		</g>
		<g>
			<polyline class="st3" points="71.2,10.7 61.9,12.6 70.9,15.4 			"/>
		</g>
		<path class="st2" d="M36.3,21.9c1.5,1.1,3.6,0.1,3.6,0.1"/>
	</g>
	<text transform="matrix(1 0 0 1 20.0387 44.2413)" class="st3 st5 st6">MSE</text>
</g>
</svg>
