<?xml version="1.0" encoding="UTF-8" standalone="no"?>
<svg
   xmlns:dc="http://purl.org/dc/elements/1.1/"
   xmlns:cc="http://creativecommons.org/ns#"
   xmlns:rdf="http://www.w3.org/1999/02/22-rdf-syntax-ns#"
   xmlns:svg="http://www.w3.org/2000/svg"
   xmlns="http://www.w3.org/2000/svg"
   viewBox="0 0 41.799999 55.973331"
   height="55.973331"
   width="41.799999"
   xml:space="preserve"
   id="svg2"
   version="1.1"><metadata
     id="metadata8"><rdf:RDF><cc:Work
         rdf:about=""><dc:format>image/svg+xml</dc:format><dc:type
           rdf:resource="http://purl.org/dc/dcmitype/StillImage" /></cc:Work></rdf:RDF></metadata><defs
     id="defs6" /><g
     transform="matrix(1.3333333,0,0,-1.3333333,0,55.973333)"
     id="g10"><g
       transform="scale(0.1)"
       id="g12"><path
         id="path14"
         style="fill:#B5BF00;fill-opacity:1;fill-rule:nonzero;stroke:none"
         d="M 6.46484,4.79688 V 272.82 H 274.727 V 4.79688 H 6.46484" /><path
         id="path16"
         style="fill:none;stroke:#FFFFFF;stroke-width:4;stroke-linecap:butt;stroke-linejoin:miter;stroke-miterlimit:4;stroke-dasharray:none;stroke-opacity:1"
         d="M 6.46484,4.79688 V 272.82 H 274.727 V 4.79688 Z" /><path
         id="path18"
         style="fill:#B5BF00;fill-opacity:1;fill-rule:nonzero;stroke:none"
         d="M 308.613,38.3516 V 306.371 L 274.727,272.82 V 4.79688 l 33.886,33.55472" /><path
         id="path20"
         style="fill:none;stroke:#FFFFFF;stroke-width:4;stroke-linecap:butt;stroke-linejoin:miter;stroke-miterlimit:4;stroke-dasharray:none;stroke-opacity:1"
         d="M 308.613,38.3516 V 306.371 L 274.727,272.82 V 4.79688 Z" /><path
         id="path22"
         style="fill:#B5BF00;fill-opacity:1;fill-rule:nonzero;stroke:none"
         d="M 55.5078,415.02 6.46484,381.469 H 274.727 l 33.886,33.551 H 55.5078" /><path
         id="path24"
         style="fill:none;stroke:#FFFFFF;stroke-width:4;stroke-linecap:butt;stroke-linejoin:miter;stroke-miterlimit:4;stroke-dasharray:none;stroke-opacity:1"
         d="M 55.5078,415.02 6.46484,381.469 H 274.727 l 33.886,33.551 z" /><path
         id="path26"
         style="fill:#B5BF00;fill-opacity:1;fill-rule:nonzero;stroke:none"
         d="M 6.46484,272.82 V 381.469 H 274.727 V 272.82 H 6.46484" /><path
         id="path28"
         style="fill:none;stroke:#FFFFFF;stroke-width:4;stroke-linecap:butt;stroke-linejoin:miter;stroke-miterlimit:4;stroke-dasharray:none;stroke-opacity:1"
         d="M 6.46484,272.82 V 381.469 H 274.727 V 272.82 Z" /><path
         id="path30"
         style="fill:#B5BF00;fill-opacity:1;fill-rule:nonzero;stroke:none"
         d="M 308.613,306.371 V 415.02 L 274.727,381.469 V 272.82 l 33.886,33.551" /><path
         id="path32"
         style="fill:none;stroke:#FFFFFF;stroke-width:4;stroke-linecap:butt;stroke-linejoin:miter;stroke-miterlimit:4;stroke-dasharray:none;stroke-opacity:1"
         d="M 308.613,306.371 V 415.02 L 274.727,381.469 V 272.82 Z" /><path
         id="path34"
         style="fill:#B5BF00;fill-opacity:1;fill-rule:nonzero;stroke:none"
         d="M 274.727,272.82 H 6.46484" /><path
         id="path36"
         style="fill:none;stroke:#FFFFFF;stroke-width:4;stroke-linecap:butt;stroke-linejoin:miter;stroke-miterlimit:4;stroke-dasharray:none;stroke-opacity:1"
         d="M 274.727,272.82 H 6.46484" /><path
         id="path38"
         style="fill:#B5BF00;fill-opacity:1;fill-rule:nonzero;stroke:none"
         d="m 274.727,272.82 33.886,33.551" /><path
         id="path40"
         style="fill:none;stroke:#FFFFFF;stroke-width:4;stroke-linecap:butt;stroke-linejoin:miter;stroke-miterlimit:4;stroke-dasharray:none;stroke-opacity:1"
         d="m 274.727,272.82 33.886,33.551" /><path
         id="path42"
         style="fill:#FFFFFF;fill-opacity:1;fill-rule:nonzero;stroke:none"
         d="m 93.4961,344.352 v 22.519 H 50.2344 v -22.519 h 43.2617" /><path
         id="path44"
         style="fill:#FFFFFF;fill-opacity:1;fill-rule:nonzero;stroke:none"
         d="m 192.402,344.352 v 22.519 h 43.262 v -22.519 h -43.262" /><path
         id="path46"
         style="fill:#FFFFFF;fill-opacity:1;fill-rule:nonzero;stroke:none"
         d="M 93.4961,288.059 V 310.57 H 50.2344 v -22.511 h 43.2617" /><path
         id="path48"
         style="fill:#FFFFFF;fill-opacity:1;fill-rule:nonzero;stroke:none"
         d="m 192.402,288.059 v 22.511 h 43.262 v -22.511 h -43.262" /><path
         id="path50"
         style="fill:#B5BF00;fill-opacity:1;fill-rule:nonzero;stroke:none"
         d="M 79.5898,355.609 H 212.48" /><path
         id="path52"
         style="fill:none;stroke:#FFFFFF;stroke-width:4;stroke-linecap:butt;stroke-linejoin:miter;stroke-miterlimit:4;stroke-dasharray:none;stroke-opacity:1"
         d="M 79.5898,355.609 H 212.48" /><path
         id="path54"
         style="fill:#B5BF00;fill-opacity:1;fill-rule:nonzero;stroke:none"
         d="M 79.5898,299.309 H 212.48" /><path
         id="path56"
         style="fill:none;stroke:#FFFFFF;stroke-width:4;stroke-linecap:butt;stroke-linejoin:miter;stroke-miterlimit:4;stroke-dasharray:none;stroke-opacity:1"
         d="M 79.5898,299.309 H 212.48" /><path
         id="path58"
         style="fill:#B5BF00;fill-opacity:1;fill-rule:nonzero;stroke:none"
         d="m 71.875,299.309 140.605,56.3" /><path
         id="path60"
         style="fill:none;stroke:#FFFFFF;stroke-width:4;stroke-linecap:butt;stroke-linejoin:miter;stroke-miterlimit:4;stroke-dasharray:none;stroke-opacity:1"
         d="m 71.875,299.309 140.605,56.3" /><path
         id="path62"
         style="fill:#B5BF00;fill-opacity:1;fill-rule:nonzero;stroke:none"
         d="m 71.875,355.609 140.605,-56.3" /><path
         id="path64"
         style="fill:none;stroke:#FFFFFF;stroke-width:4;stroke-linecap:butt;stroke-linejoin:miter;stroke-miterlimit:4;stroke-dasharray:none;stroke-opacity:1"
         d="m 71.875,355.609 140.605,-56.3" /><path
         id="path66"
         style="fill:#FFFFFF;fill-opacity:1;fill-rule:nonzero;stroke:none"
         d="m 154.316,199.375 h 18.555 v -3.152 l 7,4.636 -7,4.649 v -3.145 h -18.555 v -2.988" /><path
         id="path68"
         style="fill:#FFFFFF;fill-opacity:1;fill-rule:nonzero;stroke:none"
         d="m 151.641,208.828 13.113,13.125 2.226,-2.226 1.672,8.242 -8.242,-1.668 2.227,-2.231 -13.125,-13.125 2.129,-2.117" /><path
         id="path70"
         style="fill:#FFFFFF;fill-opacity:1;fill-rule:nonzero;stroke:none"
         d="m 143.047,213.633 v 18.555 h 3.144 l -4.648,7 -4.641,-7 h 3.145 v -18.555 h 3" /><path
         id="path72"
         style="fill:#FFFFFF;fill-opacity:1;fill-rule:nonzero;stroke:none"
         d="m 133.574,210.945 -13.125,13.125 2.227,2.231 -8.242,1.668 1.679,-8.242 2.227,2.226 13.125,-13.125 2.109,2.117" /><path
         id="path74"
         style="fill:#FFFFFF;fill-opacity:1;fill-rule:nonzero;stroke:none"
         d="m 128.777,202.363 h -18.562 v 3.145 l -6.992,-4.649 6.992,-4.636 v 3.152 h 18.562 v 2.988" /><path
         id="path76"
         style="fill:#FFFFFF;fill-opacity:1;fill-rule:nonzero;stroke:none"
         d="m 149.512,190.781 13.125,-13.125 -2.227,-2.218 8.242,-1.676 -1.672,8.242 -2.226,-2.231 -13.113,13.118 -2.129,-2.11" /><path
         id="path78"
         style="fill:#FFFFFF;fill-opacity:1;fill-rule:nonzero;stroke:none"
         d="m 125.996,189.512 c 6.082,-8.699 18.067,-10.813 26.758,-4.715 8.699,6.082 10.809,18.055 4.715,26.758 -6.082,8.687 -18.067,10.8 -26.746,4.715 -8.711,-6.082 -10.821,-18.079 -4.727,-26.758" /><path
         id="path80"
         style="fill:#FFFFFF;fill-opacity:1;fill-rule:nonzero;stroke:none"
         d="m 131.465,191.184 -13.125,-13.118 -2.227,2.215 -1.679,-8.23 8.242,1.672 -2.227,2.215 13.125,13.125 -2.109,2.121" /><path
         id="path82"
         style="fill:none;stroke:#FFFFFF;stroke-width:8;stroke-linecap:butt;stroke-linejoin:miter;stroke-miterlimit:4;stroke-dasharray:none;stroke-opacity:1"
         d="M 141.309,189.875 V 67.7539" /><path
         id="path84"
         style="fill:#FFFFFF;fill-opacity:1;fill-rule:nonzero;stroke:none"
         d="m 133.133,59.6875 h -12.988 v 2.2148 l -4.903,-3.2578 4.903,-3.2539 v 2.2071 h 12.988 v 2.0898" /><path
         id="path86"
         style="fill:#FFFFFF;fill-opacity:1;fill-rule:nonzero;stroke:none"
         d="m 135.008,53.0664 -9.18,-9.1875 -1.562,1.5586 -1.161,-5.7578 5.762,1.1601 -1.562,1.5547 9.187,9.1875 -1.484,1.4844" /><path
         id="path88"
         style="fill:#FFFFFF;fill-opacity:1;fill-rule:nonzero;stroke:none"
         d="M 141.023,49.707 V 36.7188 h -2.207 l 3.254,-4.9024 3.262,4.9024 h -2.207 V 49.707 h -2.102" /><path
         id="path90"
         style="fill:#FFFFFF;fill-opacity:1;fill-rule:nonzero;stroke:none"
         d="m 147.645,51.582 9.191,-9.1875 -1.555,-1.5547 5.762,-1.1601 -1.16,5.7578 -1.563,-1.5586 -9.191,9.1875 -1.484,-1.4844" /><path
         id="path92"
         style="fill:#FFFFFF;fill-opacity:1;fill-rule:nonzero;stroke:none"
         d="m 151.004,57.5977 h 13 v -2.2071 l 4.902,3.2539 -4.902,3.2578 v -2.2148 h -13 v -2.0898" /><path
         id="path94"
         style="fill:#FFFFFF;fill-opacity:1;fill-rule:nonzero;stroke:none"
         d="m 136.492,65.7031 -9.187,9.1914 1.562,1.5508 -5.762,1.1719 1.161,-5.7617 1.562,1.5508 9.18,-9.1758 1.484,1.4726" /><path
         id="path96"
         style="fill:#FFFFFF;fill-opacity:1;fill-rule:nonzero;stroke:none"
         d="m 152.961,66.5938 c -4.27,6.082 -12.648,7.5664 -18.734,3.3007 -6.082,-4.2578 -7.567,-12.6367 -3.309,-18.7304 4.266,-6.086 12.656,-7.5586 18.738,-3.3047 6.086,4.2578 7.559,12.6484 3.305,18.7344" /><path
         id="path98"
         style="fill:#FFFFFF;fill-opacity:1;fill-rule:nonzero;stroke:none"
         d="m 149.129,65.4219 9.191,9.1797 1.563,-1.5547 1.16,5.7695 -5.762,-1.168 1.555,-1.5546 -9.191,-9.1915 1.484,-1.4804" /></g></g></svg>