<?xml version="1.0" encoding="utf-8"?>
<!-- Generator: Adobe Illustrator 20.1.0, SVG Export Plug-In . SVG Version: 6.00 Build 0)  -->
<svg version="1.1" id="Layer_1" xmlns="http://www.w3.org/2000/svg" xmlns:xlink="http://www.w3.org/1999/xlink" x="0px" y="0px"
	 viewBox="0 0 63.3 42.9" style="enable-background:new 0 0 63.3 42.9;" xml:space="preserve">
<style type="text/css">
	.st0{fill:#B5BF00;stroke:#FFFFFF;stroke-width:0.8;}
	.st1{fill:#FFFFFF;}
</style>
<g>
	<g>
		<path class="st0" d="M62.9,12.6c0,6.7-14,12.2-31.3,12.2c-17.3,0-31.3-5.4-31.3-12.2v17.8c0,6.7,14,12.2,31.3,12.2
			c17.3,0,31.3-5.4,31.3-12.2V12.6z"/>
		<ellipse class="st0" cx="31.7" cy="12.6" rx="31.3" ry="12.2"/>
	</g>
	<polygon class="st1" points="32.2,10.2 27.8,3.4 29.7,3.2 25.7,1.6 24,3.9 25.9,3.7 30.3,10.4 	"/>
	<polygon class="st1" points="29.7,11.1 14.4,7.2 15.4,6.5 10,6.6 12.5,8.8 13.5,8 28.7,12 	"/>
	<polygon class="st1" points="28.8,12.5 11.6,14.6 11.2,13.9 7.7,15.7 12.8,16.5 12.3,15.6 29.4,13.5 	"/>
	<polygon class="st1" points="29.4,13.9 20.7,20.6 18.9,20.1 19.3,22.6 24.1,21.5 22.4,21 31.1,14.4 	"/>
	<polygon class="st1" points="33.8,10.4 41.3,4.2 39.5,3.7 44.3,2.6 44.7,5.1 42.9,4.6 35.5,10.9 	"/>
	<polygon class="st1" points="32.6,14.6 37.1,21.9 35.1,22.1 39.2,23.8 40.9,21.4 38.9,21.6 34.5,14.3 	"/>
	<polygon class="st1" points="35.8,13.8 50.6,17.6 49.6,18.4 55,18.3 52.6,16.1 51.6,16.6 36.7,12.8 	"/>
	<polygon class="st1" points="36.2,12.8 53.2,10.7 53.8,11.6 57.3,9.7 52.2,8.9 52.7,9.6 35.7,11.7 	"/>
	
		<ellipse transform="matrix(3.546264e-02 -0.9994 0.9994 3.546264e-02 18.7627 44.3213)" class="st0" cx="32.3" cy="12.4" rx="2.4" ry="5.2"/>
</g>
</svg>
