<?xml version="1.0" encoding="utf-8"?>
<!-- Generator: Adobe Illustrator 20.1.0, SVG Export Plug-In . SVG Version: 6.00 Build 0)  -->
<svg version="1.1" id="Layer_1" xmlns="http://www.w3.org/2000/svg" xmlns:xlink="http://www.w3.org/1999/xlink" x="0px" y="0px"
	 viewBox="0 0 74.5 50.5" style="enable-background:new 0 0 74.5 50.5;" xml:space="preserve">
<style type="text/css">
	.st0{fill-rule:evenodd;clip-rule:evenodd;fill:#B5BF00;}
	.st1{fill:none;stroke:#FFFFFF;stroke-width:0.9542;stroke-linecap:square;stroke-linejoin:bevel;stroke-miterlimit:10;}
	.st2{fill:#FFFFFF;}
	.st3{fill-rule:evenodd;clip-rule:evenodd;fill:#B5BF00;}
	.st4{fill:none;stroke:#FFFFFF;stroke-width:1.4314;stroke-linecap:square;stroke-miterlimit:10;}
	.st5{fill-rule:evenodd;clip-rule:evenodd;fill:#FFFFFF;}
	.st6{fill:none;stroke:#FFFFFF;stroke-width:0.4772;stroke-linecap:square;stroke-miterlimit:10;}
</style>
<g>
	<path class="st0" d="M74,14.8c0,7.9-16.5,14.3-36.8,14.3c-20.3,0-36.8-6.4-36.8-14.3v21C0.5,43.6,16.9,50,37.3,50
		C57.6,50,74,43.6,74,35.7V14.8z"/>
	<ellipse class="st0" cx="37.3" cy="14.8" rx="36.8" ry="14.3"/>
	<g>
		<g>
			<path class="st1" d="M74,14.8c0,7.9-16.5,14.3-36.8,14.3c-20.3,0-36.8-6.4-36.8-14.3v21C0.5,43.6,16.9,50,37.3,50
				C57.6,50,74,43.6,74,35.7V14.8z"/>
			<ellipse class="st1" cx="37.3" cy="14.8" rx="36.8" ry="14.3"/>
			<polygon class="st2" points="28.9,9.2 31.9,13.7 20.4,16.4 22.9,14.3 5.2,11.3 9.6,7.9 26.8,10.8 			"/>
			<polygon class="st2" points="45,20.2 42.9,15.5 53.3,13.5 51.5,15.1 68.8,18 64.6,21.3 47.5,18.1 			"/>
			<polygon class="st2" points="39.4,6.7 51,3.5 51.1,8.5 48.2,7.9 42.5,12.6 37.1,11.9 43,7.3 			"/>
			<polygon class="st2" points="34.4,24.5 23.3,26.6 22.9,21.5 26.1,22.2 32.2,17 37.6,17.9 31.1,23.6 			"/>
		</g>
	</g>
	<g>
		<polygon class="st3" points="20.9,31.9 53.9,31.9 53.9,46.5 20.9,46.5 20.9,31.9 20.9,31.9 		"/>
		<polygon class="st4" points="20.9,31.9 53.9,31.9 53.9,46.5 20.9,46.5 20.9,31.9 20.9,31.9 		"/>
		<polygon class="st5" points="46.3,35.9 50.8,35.9 50.8,42.1 46.3,42.1 46.3,35.9 46.3,35.9 		"/>
		<polygon class="st6" points="46.3,35.9 50.8,35.9 50.8,42.1 46.3,42.1 46.3,35.9 46.3,35.9 		"/>
		<polygon class="st5" points="50.8,32.9 52.2,32.9 52.2,34.1 50.8,34.1 50.8,32.9 50.8,32.9 		"/>
		<polygon class="st6" points="50.8,32.9 52.2,32.9 52.2,34.1 50.8,34.1 50.8,32.9 50.8,32.9 		"/>
		<polygon class="st5" points="48.1,32.9 49.4,32.9 49.4,34.1 48.1,34.1 48.1,32.9 48.1,32.9 		"/>
		<polygon class="st6" points="48.1,32.9 49.4,32.9 49.4,34.1 48.1,34.1 48.1,32.9 48.1,32.9 		"/>
		<polygon class="st5" points="45.3,32.9 46.7,32.9 46.7,34.1 45.3,34.1 45.3,32.9 45.3,32.9 		"/>
		<polygon class="st6" points="45.3,32.9 46.7,32.9 46.7,34.1 45.3,34.1 45.3,32.9 45.3,32.9 		"/>
		<polygon class="st5" points="42.8,32.9 44,32.9 44,34.1 42.8,34.1 42.8,32.9 42.8,32.9 		"/>
		<polygon class="st6" points="42.8,32.9 44,32.9 44,34.1 42.8,34.1 42.8,32.9 42.8,32.9 		"/>
		<polygon class="st5" points="40.1,32.9 41.2,32.9 41.2,34.1 40.1,34.1 40.1,32.9 40.1,32.9 		"/>
		<polygon class="st6" points="40.1,32.9 41.2,32.9 41.2,34.1 40.1,34.1 40.1,32.9 40.1,32.9 		"/>
		<polygon class="st5" points="37.3,32.9 38.7,32.9 38.7,34.1 37.3,34.1 37.3,32.9 37.3,32.9 		"/>
		<polygon class="st6" points="37.3,32.9 38.7,32.9 38.7,34.1 37.3,34.1 37.3,32.9 37.3,32.9 		"/>
		<polygon class="st5" points="34.6,32.9 35.9,32.9 35.9,34.1 34.6,34.1 34.6,32.9 34.6,32.9 		"/>
		<polygon class="st6" points="34.6,32.9 35.9,32.9 35.9,34.1 34.6,34.1 34.6,32.9 34.6,32.9 		"/>
		<polygon class="st5" points="31.8,32.9 33.2,32.9 33.2,34.1 31.8,34.1 31.8,32.9 31.8,32.9 		"/>
		<polygon class="st6" points="31.8,32.9 33.2,32.9 33.2,34.1 31.8,34.1 31.8,32.9 31.8,32.9 		"/>
		<polygon class="st5" points="29.1,32.9 30.5,32.9 30.5,34.1 29.1,34.1 29.1,32.9 29.1,32.9 		"/>
		<polygon class="st6" points="29.1,32.9 30.5,32.9 30.5,34.1 29.1,34.1 29.1,32.9 29.1,32.9 		"/>
		<polygon class="st5" points="26.6,32.9 27.7,32.9 27.7,34.1 26.6,34.1 26.6,32.9 26.6,32.9 		"/>
		<polygon class="st6" points="26.6,32.9 27.7,32.9 27.7,34.1 26.6,34.1 26.6,32.9 26.6,32.9 		"/>
		<polygon class="st5" points="23.8,32.9 25,32.9 25.2,34.1 23.8,34.1 23.8,32.9 23.8,32.9 		"/>
		<polygon class="st6" points="23.8,32.9 25,32.9 25.2,34.1 23.8,34.1 23.8,32.9 23.8,32.9 		"/>
		<polygon class="st5" points="50.8,43.9 52.2,43.9 52.2,45.1 50.8,45.1 50.8,43.9 50.8,43.9 		"/>
		<polygon class="st6" points="50.8,43.9 52.2,43.9 52.2,45.1 50.8,45.1 50.8,43.9 50.8,43.9 		"/>
		<polygon class="st5" points="48.1,43.9 49.4,43.9 49.4,45.1 48.1,45.1 48.1,43.9 48.1,43.9 		"/>
		<polygon class="st6" points="48.1,43.9 49.4,43.9 49.4,45.1 48.1,45.1 48.1,43.9 48.1,43.9 		"/>
		<polygon class="st5" points="45.3,43.9 46.7,43.9 46.7,45.1 45.3,45.1 45.3,43.9 45.3,43.9 		"/>
		<polygon class="st6" points="45.3,43.9 46.7,43.9 46.7,45.1 45.3,45.1 45.3,43.9 45.3,43.9 		"/>
		<polygon class="st5" points="42.8,43.9 44,43.9 44,45.1 42.8,45.1 42.8,43.9 42.8,43.9 		"/>
		<polygon class="st6" points="42.8,43.9 44,43.9 44,45.1 42.8,45.1 42.8,43.9 42.8,43.9 		"/>
		<polygon class="st5" points="40.1,43.9 41.2,43.9 41.2,45.1 40.1,45.1 40.1,43.9 40.1,43.9 		"/>
		<polygon class="st6" points="40.1,43.9 41.2,43.9 41.2,45.1 40.1,45.1 40.1,43.9 40.1,43.9 		"/>
		<polygon class="st5" points="37.3,43.9 38.7,43.9 38.7,45.1 37.3,45.1 37.3,43.9 37.3,43.9 		"/>
		<polygon class="st6" points="37.3,43.9 38.7,43.9 38.7,45.1 37.3,45.1 37.3,43.9 37.3,43.9 		"/>
		<polygon class="st5" points="34.6,43.9 35.9,43.9 35.9,45.1 34.6,45.1 34.6,43.9 34.6,43.9 		"/>
		<polygon class="st6" points="34.6,43.9 35.9,43.9 35.9,45.1 34.6,45.1 34.6,43.9 34.6,43.9 		"/>
		<polygon class="st5" points="31.8,43.9 33.2,43.9 33.2,45.1 31.8,45.1 31.8,43.9 31.8,43.9 		"/>
		<polygon class="st6" points="31.8,43.9 33.2,43.9 33.2,45.1 31.8,45.1 31.8,43.9 31.8,43.9 		"/>
		<polygon class="st5" points="29.1,43.9 30.5,43.9 30.5,45.1 29.1,45.1 29.1,43.9 29.1,43.9 		"/>
		<polygon class="st6" points="29.1,43.9 30.5,43.9 30.5,45.1 29.1,45.1 29.1,43.9 29.1,43.9 		"/>
		<polygon class="st5" points="26.6,43.9 27.7,43.9 27.7,45.1 26.6,45.1 26.6,43.9 26.6,43.9 		"/>
		<polygon class="st6" points="26.6,43.9 27.7,43.9 27.7,45.1 26.6,45.1 26.6,43.9 26.6,43.9 		"/>
		<polygon class="st5" points="23.8,43.9 25.2,43.9 25.2,45.1 23.8,45.1 23.8,43.9 23.8,43.9 		"/>
		<polygon class="st6" points="23.8,43.9 25.2,43.9 25.2,45.1 23.8,45.1 23.8,43.9 23.8,43.9 		"/>
		<polygon class="st5" points="39.1,35.9 43.6,35.9 43.6,42.1 39.1,42.1 39.1,35.9 39.1,35.9 		"/>
		<polygon class="st6" points="39.1,35.9 43.6,35.9 43.6,42.1 39.1,42.1 39.1,35.9 39.1,35.9 		"/>
		<polygon class="st5" points="31.8,35.9 36.3,35.9 36.3,42.1 31.8,42.1 31.8,35.9 31.8,35.9 		"/>
		<polygon class="st6" points="31.8,35.9 36.3,35.9 36.3,42.1 31.8,42.1 31.8,35.9 31.8,35.9 		"/>
		<polygon class="st5" points="24.8,35.9 29.1,35.9 29.1,42.1 24.8,42.1 24.8,35.9 24.8,35.9 		"/>
		<polygon class="st6" points="24.8,35.9 29.1,35.9 29.1,42.1 24.8,42.1 24.8,35.9 24.8,35.9 		"/>
	</g>
</g>
</svg>
