<?xml version="1.0" encoding="utf-8"?>
<!-- Generator: Adobe Illustrator 20.1.0, SVG Export Plug-In . SVG Version: 6.00 Build 0)  -->
<svg version="1.1" id="Layer_1" xmlns="http://www.w3.org/2000/svg" xmlns:xlink="http://www.w3.org/1999/xlink" x="0px" y="0px"
	 viewBox="0 0 53.1 82.8" style="enable-background:new 0 0 53.1 82.8;" xml:space="preserve">
<style type="text/css">
	.st0{fill:#B5BF00;}
</style>
<g>
	<g>
		<polygon class="st0" points="14.2,9.6 0.7,9.3 0,9.9 3.9,21.6 18.1,20.9 18.8,20.1 		"/>
		<polygon class="st0" points="31.8,0 36.9,4.2 36.3,5.8 36.7,8 37.5,10.3 42.4,12.4 43.7,9.8 42.3,8.8 42.7,6.4 39.6,0.5 		"/>
		<polygon class="st0" points="32.2,2.1 30.6,4.6 30.1,7.1 28.7,3.5 		"/>
		<polygon class="st0" points="30.9,3.4 31.5,4.3 32.2,4.4 31.9,3.8 32.3,2.9 32.7,3.8 33.2,4.6 34.1,5 34.1,4.2 34.5,3.4 34.9,4.3 
			35.9,4.8 36,4.1 37.1,4 33,0.5 30.8,0.6 30,1.4 		"/>
		<line class="st0" x1="31.5" y1="11.6" x2="34.1" y2="11.6"/>
		<polygon class="st0" points="30.2,6.7 30.3,7.7 30.3,10.6 28.9,10.5 28.2,9.7 28.8,8.6 29,7.5 29.8,5.7 		"/>
		<polygon class="st0" points="19.1,21.3 4.5,22.3 3.9,23.2 4.1,24.8 10.7,27.7 25.3,26.1 25.6,24.2 		"/>
		<polygon class="st0" points="17,18.9 5.5,19.5 2.4,10.7 13.6,10.7 		"/>
		<polygon class="st0" points="16.8,27.3 15.4,25 13.7,23.6 13.6,24.3 11,23.2 11.3,24 9.6,23.4 10.2,24.4 9.3,24.3 10.2,25.9 
			11.4,26.9 14.7,28.6 		"/>
		<polygon class="st0" points="20.1,41.7 14.3,42.8 12.9,44.9 13,48.5 16.3,62.5 16.2,68 14.1,71.2 18.8,71.2 21.1,69.4 22.1,69.1 
			22.2,66.4 20.6,63.6 20.1,61.2 20.4,54.7 19.9,50.7 		"/>
		<polygon class="st0" points="21.8,65.3 20.8,65.4 19.3,66.9 17.1,69.5 15.2,69.9 15.9,68.8 14,70.7 11.1,72 11.3,72.6 14.4,73.3 
			17.1,73.3 18.8,72.6 19.9,70.3 20.8,73.7 21.2,73.7 22.7,69.5 22.6,66.9 		"/>
		<polygon class="st0" points="27.4,41.4 20.5,42.5 19.5,44.7 19,46.5 24.2,60.5 24.1,66 22,69.3 26.7,69.2 29,67.5 30,67.2 
			30.1,64.4 28.5,61.6 28,59.3 28.3,52.7 27.8,48.8 		"/>
		<polygon class="st0" points="29.7,63.4 28.6,63.4 27.2,64.9 24.9,67.6 23,67.9 23.7,66.9 21.9,68.7 19,70.1 19.2,70.6 22.3,71.3 
			24.9,71.4 26.6,70.6 27.8,68.3 28.7,71.7 29.1,71.7 30.5,67.5 30.5,64.9 		"/>
		<polygon class="st0" points="38.5,13.6 33.3,15.2 28.1,15.6 23.9,17.1 22.8,18.8 24.1,25.4 22.4,27.9 21.2,27.9 20.5,29 18,27.1 
			16,27.1 13.9,28.8 14.7,31.7 20.5,35.7 24.9,36.3 27,34.6 24.7,40.7 19.9,41.9 18,46.3 19.9,51.5 29.9,53.4 35.8,54 40.8,53.4 
			43.5,51.3 44.3,48.8 44.5,46.7 45.8,45.3 44.1,40.5 43.7,35.5 45.2,35.7 47.4,34.6 49.7,19.2 48.3,16.7 43.5,14.6 		"/>
		<polygon class="st0" points="30.6,3.2 32.9,2.3 37.6,3.8 38.6,10.8 38.1,14 32.6,15.3 30.1,12.5 29.6,8.3 		"/>
		<polygon class="st0" points="44.5,47.1 42.6,46.1 40.7,48.1 35,48.9 29.2,46.7 24.7,40.7 19.9,41.9 18,46.3 19.9,51.5 33.7,53.9 
			40.8,53.4 43.5,51.3 		"/>
		<polygon class="st0" points="30.3,10.4 31.7,13.1 32.5,13.9 33.4,14.3 33.7,16.4 31.7,17.4 30.9,17.7 27.9,18 26.5,17.5 
			25.8,16.2 26.7,16.4 27.3,15.9 26.3,15.4 25.7,14.7 25.7,13.8 26.5,14.3 27.7,14 27.2,13.6 27,12.8 28.3,12.7 28.6,11.9 
			28.4,11.2 29.3,9.6 		"/>
		<polygon class="st0" points="37.9,10.6 38,11.5 37.6,12.1 36.8,12.1 37.2,12.6 38,12.7 37.9,13.4 37.2,13.8 36.3,13.7 36.7,14.4 
			37.7,14.8 38.5,14.3 38.4,15.3 38,16.2 37,16.5 37.9,17.1 39.1,16.8 38.8,17.8 38.8,18.8 39.5,18.5 40.3,17.7 40.8,18.3 
			41.8,18.8 43.4,19.4 45.2,19.7 46.5,18.9 46.8,18.1 45.9,18.2 45,17.9 45.7,17.6 46.2,17 46.7,15.8 46.1,15.1 45.8,15.8 
			45.2,16.2 45.1,15.3 45.3,14.4 44.5,14.7 43.6,14.4 43.9,13.5 44.3,12.8 44.2,11.7 43.8,12.2 43.2,12.4 42.2,12.2 42.6,11.5 
			42.7,10.6 42.1,10.2 41.9,10.7 41.3,10.5 41.3,9.3 39.2,9.3 		"/>
		<path class="st0" d="M38.1,17.8l-1.4,1.6l-1.9-1.9c0,0-0.9,2.4-1.5,1.6l-0.3-1.5L32,18.6c0,0-2.6,0.5-2,0c0.6-0.5,0.6-1.5,0.6-1.5
			l3.8-4l5.1,0.3L38.1,17.8z"/>
	</g>
	<path class="st0" d="M34.4,55.3l-0.2,9L22,67c-1.9-0.4-2.5,1.9-2.5,1.9l-0.1,1.7l1,0l-0.1,1.6c0.9,1.7,2.5,0.1,2.5,0.1l0.1-1.9
		l9.8-3.4L24,73.4c-1.5,2.6-0.3,5-0.3,5c-1.3,2.2,0.8,3.9,0.8,3.9c2.8,1.6,2.8-1.9,2.8-1.9c0.4-2-1.6-2.1-1.6-2.1l-0.6-1.2l10.7-9
		l12.4,8.4l0.5,1.5c-1.4,2.8,0.9,3.9,0.9,3.9c3.3,0.7,2.1-2.3,2.1-2.3c0.2-1.7-1.1-1.7-1.1-1.7l-0.9-1.1c0,0-0.9,0.3,0.1-0.5
		c1-0.8,0.4-3.1,0.4-3.1l-11.5-6.5l8.4,2.2l1.6,1.1c-0.1,2.8,1.8,2,1.8,2c2,0.1,0.9-2.1,0.9-2.1c-0.7-0.6-1.6-1-1.6-1L49,67
		l-4.8-1.4L37,64.2l0.2-8"/>
	<path class="st0" d="M31.5,57.7l-16.1-5.5c-1.1-1.1,0.3-3,0.3-3l15.9,5"/>
	<path class="st0" d="M43.1,53.8L31.9,58l0.1-9.6c8.3-21.4,9.6-21.2,9.6-21.2c2.8-1.6,3.5-1.7,3.5-1.7c4,0.2,5.4-1.2,5.4-1.2
		c1.3-1.1,2.6,0.5,2.6,0.5L43.1,53.8z"/>
</g>
</svg>
