<?xml version="1.0" encoding="UTF-8" standalone="no"?>
<svg
   xmlns:dc="http://purl.org/dc/elements/1.1/"
   xmlns:cc="http://creativecommons.org/ns#"
   xmlns:rdf="http://www.w3.org/1999/02/22-rdf-syntax-ns#"
   xmlns:svg="http://www.w3.org/2000/svg"
   xmlns="http://www.w3.org/2000/svg"
   viewBox="0 0 28.52 40.68"
   height="40.68"
   width="28.52"
   xml:space="preserve"
   id="svg2"
   version="1.1"><metadata
     id="metadata8"><rdf:RDF><cc:Work
         rdf:about=""><dc:format>image/svg+xml</dc:format><dc:type
           rdf:resource="http://purl.org/dc/dcmitype/StillImage" /></cc:Work></rdf:RDF></metadata><defs
     id="defs6"><clipPath
       id="clipPath20"
       clipPathUnits="userSpaceOnUse"><path
         id="path18"
         d="M 0,305 H 210 V 0 H 0 Z" /></clipPath></defs><g
     transform="matrix(1.3333333,0,0,-1.3333333,0,40.68)"
     id="g10"><g
       transform="scale(0.1)"
       id="g12"><g
         id="g14"><g
           clip-path="url(#clipPath20)"
           id="g16"><path
             id="path22"
             style="fill:#B5BF00;fill-opacity:1;fill-rule:nonzero;stroke:none"
             d="m 6.83203,6.82813 h 153.875 v 245.125 H 6.83203 Z" /><path
             id="path24"
             style="fill:#B5BF00;fill-opacity:1;fill-rule:nonzero;stroke:none"
             d="M 160.707,6.82813 209.859,55.9688 V 301.094 H 55.9727 L 6.83203,251.953 H 160.707 V 6.82813" /><path
             id="path26"
             style="fill:#B5BF00;fill-opacity:1;fill-rule:nonzero;stroke:none"
             d="m 160.707,251.953 49.152,49.141" /><path
             id="path28"
             style="fill:#B5BF00;fill-opacity:1;fill-rule:nonzero;stroke:none"
             d="m 6.83203,6.82813 h 153.875 v 245.125 H 6.83203 Z" /><path
             id="path30"
             style="fill:none;stroke:#FFFFFF;stroke-width:4;stroke-linecap:butt;stroke-linejoin:miter;stroke-miterlimit:4;stroke-dasharray:none;stroke-opacity:1"
             d="M 160.707,251.953 H 6.83203 V 6.82813 H 160.707" /><path
             id="path32"
             style="fill:#B5BF00;fill-opacity:1;fill-rule:nonzero;stroke:none"
             d="M 160.707,6.82813 209.859,55.9688 V 301.094 H 55.9727 L 6.83203,251.953 H 160.707 V 6.82813" /><path
             id="path34"
             style="fill:none;stroke:#FFFFFF;stroke-width:4;stroke-linecap:butt;stroke-linejoin:miter;stroke-miterlimit:4;stroke-dasharray:none;stroke-opacity:1"
             d="M 160.707,6.82813 209.859,55.9688 V 301.094 H 55.9727 L 6.83203,251.953 H 160.707 Z" /><path
             id="path36"
             style="fill:#FFFFFF;fill-opacity:1;fill-rule:nonzero;stroke:none"
             d="m 160.707,251.953 49.152,49.141" /><path
             id="path38"
             style="fill:none;stroke:#FFFFFF;stroke-width:4;stroke-linecap:butt;stroke-linejoin:miter;stroke-miterlimit:4;stroke-dasharray:none;stroke-opacity:1"
             d="M 160.707,251.953 H 6.83203 V 6.82813 H 160.707" /><path
             id="path40"
             style="fill:none;stroke:#FFFFFF;stroke-width:4;stroke-linecap:butt;stroke-linejoin:miter;stroke-miterlimit:4;stroke-dasharray:none;stroke-opacity:1"
             d="M 160.707,6.82813 209.859,55.9688 V 301.094 H 55.9727 L 6.83203,251.953 H 160.707 Z" /><path
             id="path42"
             style="fill:none;stroke:#FFFFFF;stroke-width:4;stroke-linecap:butt;stroke-linejoin:miter;stroke-miterlimit:4;stroke-dasharray:none;stroke-opacity:1"
             d="m 160.707,251.953 49.152,49.141" /><path
             id="path44"
             style="fill:none;stroke:#FFFFFF;stroke-width:4;stroke-linecap:round;stroke-linejoin:round;stroke-miterlimit:4;stroke-dasharray:none;stroke-opacity:1"
             d="M 139.555,179.961 V 222.93 H 32.9883 v -42.969 z" /><path
             id="path46"
             style="fill:#FFFFFF;fill-opacity:1;fill-rule:nonzero;stroke:none"
             d="m 71.9063,202.227 c 0,-6.082 -4.9336,-10.997 -11.0118,-10.997 -6.0781,0 -10.9882,4.915 -10.9882,10.997 0,6.074 4.9101,11.007 10.9882,11.007 6.0782,0 11.0118,-4.933 11.0118,-11.007" /><path
             id="path48"
             style="fill:none;stroke:#FFFFFF;stroke-width:4;stroke-linecap:round;stroke-linejoin:round;stroke-miterlimit:4;stroke-dasharray:none;stroke-opacity:1"
             d="m 71.9063,202.227 c 0,-6.082 -4.9336,-10.997 -11.0118,-10.997 -6.0781,0 -10.9882,4.915 -10.9882,10.997 0,6.074 4.9101,11.007 10.9882,11.007 6.0782,0 11.0118,-4.933 11.0118,-11.007 z" /><path
             id="path50"
             style="fill:#FFFFFF;fill-opacity:1;fill-rule:nonzero;stroke:none"
             d="m 120.055,202.227 c 0,-6.082 -4.914,-10.997 -10.996,-10.997 -6.075,0 -11.0082,4.915 -11.0082,10.997 0,6.074 4.9332,11.007 11.0082,11.007 6.082,0 10.996,-4.933 10.996,-11.007" /><path
             id="path52"
             style="fill:none;stroke:#FFFFFF;stroke-width:4;stroke-linecap:round;stroke-linejoin:round;stroke-miterlimit:4;stroke-dasharray:none;stroke-opacity:1"
             d="m 120.055,202.227 c 0,-6.082 -4.914,-10.997 -10.996,-10.997 -6.075,0 -11.0082,4.915 -11.0082,10.997 0,6.074 4.9332,11.007 11.0082,11.007 6.082,0 10.996,-4.933 10.996,-11.007 z" /><path
             id="path54"
             style="fill:none;stroke:#FFFFFF;stroke-width:4;stroke-linecap:round;stroke-linejoin:round;stroke-miterlimit:4;stroke-dasharray:none;stroke-opacity:1"
             d="M 139.555,104.941 V 147.91 H 32.9883 v -42.969 z" /><path
             id="path56"
             style="fill:#FFFFFF;fill-opacity:1;fill-rule:nonzero;stroke:none"
             d="m 71.9063,127.238 c 0,-6.086 -4.9336,-11.015 -11.0118,-11.015 -6.0781,0 -10.9882,4.929 -10.9882,11.015 0,6.075 4.9101,10.985 10.9882,10.985 6.0782,0 11.0118,-4.91 11.0118,-10.985" /><path
             id="path58"
             style="fill:none;stroke:#FFFFFF;stroke-width:4;stroke-linecap:round;stroke-linejoin:round;stroke-miterlimit:4;stroke-dasharray:none;stroke-opacity:1"
             d="m 71.9063,127.238 c 0,-6.086 -4.9336,-11.015 -11.0118,-11.015 -6.0781,0 -10.9882,4.929 -10.9882,11.015 0,6.075 4.9101,10.985 10.9882,10.985 6.0782,0 11.0118,-4.91 11.0118,-10.985 z" /><path
             id="path60"
             style="fill:#FFFFFF;fill-opacity:1;fill-rule:nonzero;stroke:none"
             d="m 120.055,127.238 c 0,-6.086 -4.914,-11.015 -10.996,-11.015 -6.075,0 -11.0082,4.929 -11.0082,11.015 0,6.075 4.9332,10.985 11.0082,10.985 6.082,0 10.996,-4.91 10.996,-10.985" /><path
             id="path62"
             style="fill:none;stroke:#FFFFFF;stroke-width:4;stroke-linecap:round;stroke-linejoin:round;stroke-miterlimit:4;stroke-dasharray:none;stroke-opacity:1"
             d="m 120.055,127.238 c 0,-6.086 -4.914,-11.015 -10.996,-11.015 -6.075,0 -11.0082,4.929 -11.0082,11.015 0,6.075 4.9332,10.985 11.0082,10.985 6.082,0 10.996,-4.91 10.996,-10.985 z" /><path
             id="path64"
             style="fill:none;stroke:#FFFFFF;stroke-width:4;stroke-linecap:round;stroke-linejoin:round;stroke-miterlimit:4;stroke-dasharray:none;stroke-opacity:1"
             d="M 139.555,29.9414 V 72.9102 H 32.9883 V 29.9414 Z" /><path
             id="path66"
             style="fill:#FFFFFF;fill-opacity:1;fill-rule:nonzero;stroke:none"
             d="m 71.9063,52.2383 c 0,-6.086 -4.9336,-11.0156 -11.0118,-11.0156 -6.0781,0 -10.9882,4.9296 -10.9882,11.0156 0,6.0742 4.9101,10.9844 10.9882,10.9844 6.0782,0 11.0118,-4.9102 11.0118,-10.9844" /><path
             id="path68"
             style="fill:none;stroke:#FFFFFF;stroke-width:4;stroke-linecap:round;stroke-linejoin:round;stroke-miterlimit:4;stroke-dasharray:none;stroke-opacity:1"
             d="m 71.9063,52.2383 c 0,-6.086 -4.9336,-11.0156 -11.0118,-11.0156 -6.0781,0 -10.9882,4.9296 -10.9882,11.0156 0,6.0742 4.9101,10.9844 10.9882,10.9844 6.0782,0 11.0118,-4.9102 11.0118,-10.9844 z" /><path
             id="path70"
             style="fill:#FFFFFF;fill-opacity:1;fill-rule:nonzero;stroke:none"
             d="m 120.055,52.2383 c 0,-6.086 -4.914,-11.0156 -10.996,-11.0156 -6.075,0 -11.0082,4.9296 -11.0082,11.0156 0,6.0742 4.9332,10.9844 11.0082,10.9844 6.082,0 10.996,-4.9102 10.996,-10.9844" /><path
             id="path72"
             style="fill:none;stroke:#FFFFFF;stroke-width:4;stroke-linecap:round;stroke-linejoin:round;stroke-miterlimit:4;stroke-dasharray:none;stroke-opacity:1"
             d="m 120.055,52.2383 c 0,-6.086 -4.914,-11.0156 -10.996,-11.0156 -6.075,0 -11.0082,4.9296 -11.0082,11.0156 0,6.0742 4.9332,10.9844 11.0082,10.9844 6.082,0 10.996,-4.9102 10.996,-10.9844 z" /><path
             id="path74"
             style="fill:none;stroke:#FFFFFF;stroke-width:4;stroke-linecap:round;stroke-linejoin:round;stroke-miterlimit:4;stroke-dasharray:none;stroke-opacity:1"
             d="M 60.8945,213.234 H 109.059" /><path
             id="path76"
             style="fill:none;stroke:#FFFFFF;stroke-width:4;stroke-linecap:round;stroke-linejoin:round;stroke-miterlimit:4;stroke-dasharray:none;stroke-opacity:1"
             d="M 60.8945,138.223 H 109.059" /><path
             id="path78"
             style="fill:none;stroke:#FFFFFF;stroke-width:4;stroke-linecap:round;stroke-linejoin:round;stroke-miterlimit:4;stroke-dasharray:none;stroke-opacity:1"
             d="M 60.8945,63.2227 H 109.059" /></g></g></g></g></svg>