<?xml version="1.0" encoding="utf-8"?>
<!-- Generator: Adobe Illustrator 20.1.0, SVG Export Plug-In . SVG Version: 6.00 Build 0)  -->
<svg version="1.1" id="Layer_1" xmlns="http://www.w3.org/2000/svg" xmlns:xlink="http://www.w3.org/1999/xlink" x="0px" y="0px"
	 viewBox="0 0 58.4 49.9" style="enable-background:new 0 0 58.4 49.9;" xml:space="preserve">
<style type="text/css">
	.st0{fill:#B5BF00;}
</style>
<g>
	<polygon class="st0" points="31.8,8 18,7.5 11.2,14.7 15.4,18.1 19,14.2 27.4,14.5 18.3,26.4 21.5,29.4 16.3,36.4 7.7,36.1 
		1.4,38.9 5.8,48 11,48.1 10.9,46.2 8.3,46.1 8.4,42.1 21.2,42.6 28.4,33.8 45.7,49.9 54.6,40 52.5,37.9 48.7,42 34.6,28.6 
		40.6,20.9 45.9,24.5 58.3,25 58.4,20.1 49.6,19.8 	"/>
	<g>
		
			<rect x="37.2" y="0.5" transform="matrix(3.472461e-02 -0.9994 0.9994 3.472461e-02 35.5385 48.085)" class="st0" width="10.9" height="10.2"/>
	</g>
	<g>
		
			<rect x="3.9" y="14.4" transform="matrix(0.6427 -0.7661 0.7661 0.6427 -13.5517 14.9393)" class="st0" width="10.6" height="15.2"/>
	</g>
</g>
</svg>
