<?xml version="1.0" encoding="UTF-8" standalone="no"?>
<svg
   xmlns:dc="http://purl.org/dc/elements/1.1/"
   xmlns:cc="http://creativecommons.org/ns#"
   xmlns:rdf="http://www.w3.org/1999/02/22-rdf-syntax-ns#"
   xmlns:svg="http://www.w3.org/2000/svg"
   xmlns="http://www.w3.org/2000/svg"
   version="1.1"
   id="svg2"
   xml:space="preserve"
   width="65.060471"
   height="32.305023"
   viewBox="0 0 65.060471 32.305023"><metadata
     id="metadata8"><rdf:RDF><cc:Work
         rdf:about=""><dc:format>image/svg+xml</dc:format><dc:type
           rdf:resource="http://purl.org/dc/dcmitype/StillImage" /></cc:Work></rdf:RDF></metadata><defs
     id="defs6" /><g
     id="g10"
     transform="matrix(1.3333333,0,0,-1.3333333,-444.19936,470.32464)"><g
       id="g12"
       transform="scale(0.1)"><path
         d="m 3337.15,3406.22 144.29,116.66 h 333.1 l -119.4,-116.66 h -357.99"
         style="fill:#B5BF00;fill-opacity:1;fill-rule:nonzero;stroke:none"
         id="path14" /><path
         d="m 3337.15,3406.22 144.29,116.66 h 333.1 l -119.4,-116.66 z"
         style="fill:none;stroke:#FFFFFF;stroke-width:4;stroke-linecap:butt;stroke-linejoin:miter;stroke-miterlimit:4;stroke-dasharray:none;stroke-opacity:1"
         id="path16" /><path
         d="m 3695.14,3290.25 119.4,128.92 v 103.52 l -119.4,-116.47 v -115.97"
         style="fill:#B5BF00;fill-opacity:1;fill-rule:nonzero;stroke:none"
         id="path18" /><path
         d="m 3695.14,3290.25 119.4,128.92 v 103.52 l -119.4,-116.47 z"
         style="fill:none;stroke:#FFFFFF;stroke-width:4;stroke-linecap:butt;stroke-linejoin:miter;stroke-miterlimit:4;stroke-dasharray:none;stroke-opacity:1"
         id="path20" /><path
         d="m 3695.14,3290.14 v 116.08 h -357.5 v -116.08 h 357.5"
         style="fill:#B5BF00;fill-opacity:1;fill-rule:nonzero;stroke:none"
         id="path22" /><path
         d="m 3695.14,3290.14 v 116.08 h -357.5 v -116.08 z"
         style="fill:none;stroke:#FFFFFF;stroke-width:4;stroke-linecap:butt;stroke-linejoin:miter;stroke-miterlimit:4;stroke-dasharray:none;stroke-opacity:1"
         id="path24" /><path
         d="m 3516.39,3290.14 v 116.08"
         style="fill:#B5BF00;fill-opacity:1;fill-rule:nonzero;stroke:none"
         id="path26" /><path
         d="m 3516.39,3290.14 v 116.08"
         style="fill:none;stroke:#FFFFFF;stroke-width:10;stroke-linecap:butt;stroke-linejoin:miter;stroke-miterlimit:4;stroke-dasharray:none;stroke-opacity:1"
         id="path28" /><path
         d="m 3583.67,3312.87 62.11,35.16 -62.11,35.15 z"
         style="fill:#FFFFFF;fill-opacity:1;fill-rule:nonzero;stroke:none"
         id="path30" /><path
         d="m 3583.67,3312.87 62.11,35.16 -62.11,35.15 z"
         style="fill:none;stroke:#FFFFFF;stroke-width:3.98300004;stroke-linecap:butt;stroke-linejoin:miter;stroke-miterlimit:4;stroke-dasharray:none;stroke-opacity:1"
         id="path32" /><path
         d="m 3475.48,3461.69 0.03,0.02 157.65,0.04 -19.69,-18.65 86.85,24.61 -34.79,24.6 -19.75,-18.63 -157.65,-0.04 -12.65,-11.95"
         style="fill:#FFFFFF;fill-opacity:1;fill-rule:nonzero;stroke:none"
         id="path34" /><path
         d="m 3440.91,3371.16 h -76.46 v 9.68 h 76.46 v 15.14 l 44.29,-19.98 -44.29,-19.96 v 15.12"
         style="fill:#FFFFFF;fill-opacity:1;fill-rule:nonzero;stroke:none"
         id="path36" /><path
         d="m 3440.91,3316.88 h -76.46 v 9.67 h 76.46 v 15.14 l 44.29,-19.98 -44.29,-19.96 v 15.13"
         style="fill:#FFFFFF;fill-opacity:1;fill-rule:nonzero;stroke:none"
         id="path38" /></g></g></svg>