<?xml version="1.0" encoding="UTF-8" standalone="no"?>
<svg
   xmlns:dc="http://purl.org/dc/elements/1.1/"
   xmlns:cc="http://creativecommons.org/ns#"
   xmlns:rdf="http://www.w3.org/1999/02/22-rdf-syntax-ns#"
   xmlns:svg="http://www.w3.org/2000/svg"
   xmlns="http://www.w3.org/2000/svg"
   viewBox="0 0 43.173332 61.946667"
   height="61.946667"
   width="43.173332"
   xml:space="preserve"
   id="svg2"
   version="1.1"><metadata
     id="metadata8"><rdf:RDF><cc:Work
         rdf:about=""><dc:format>image/svg+xml</dc:format><dc:type
           rdf:resource="http://purl.org/dc/dcmitype/StillImage" /></cc:Work></rdf:RDF></metadata><defs
     id="defs6"><clipPath
       id="clipPath20"
       clipPathUnits="userSpaceOnUse"><path
         id="path18"
         d="m 0,4.58594 h 320 v 460 H 0 Z" /></clipPath></defs><g
     transform="matrix(1.3333333,0,0,-1.3333333,0,61.946667)"
     id="g10"><g
       transform="scale(0.1)"
       id="g12"><g
         id="g14"><g
           clip-path="url(#clipPath20)"
           id="g16"><path
             id="path22"
             style="fill:none;stroke:#B5BF00;stroke-width:10;stroke-linecap:butt;stroke-linejoin:miter;stroke-miterlimit:4;stroke-dasharray:none;stroke-opacity:1"
             d="M 149.719,339.555 V 0" /><path
             id="path24"
             style="fill:none;stroke:#B5BF00;stroke-width:10;stroke-linecap:butt;stroke-linejoin:miter;stroke-miterlimit:4;stroke-dasharray:none;stroke-opacity:1"
             d="M 149.719,339.555 294.98,55.0664" /><path
             id="path26"
             style="fill:none;stroke:#B5BF00;stroke-width:10;stroke-linecap:butt;stroke-linejoin:miter;stroke-miterlimit:4;stroke-dasharray:none;stroke-opacity:1"
             d="M 149.719,339.555 4.45313,55.0664" /><path
             id="path28"
             style="fill:#B5BF00;fill-opacity:1;fill-rule:nonzero;stroke:none"
             d="m 106.211,300.348 h 87.0117 v 78.418 H 106.211 Z" /><path
             id="path30"
             style="fill:none;stroke:#ffffff;stroke-width:3.99993992;stroke-linecap:butt;stroke-linejoin:miter;stroke-miterlimit:4;stroke-dasharray:none;stroke-opacity:1"
             d="m 193.223,300.348 v 78.418 h -87.012 v -78.418 z" /><path
             id="path32"
             style="fill:#B5BF00;fill-opacity:1;fill-rule:nonzero;stroke:none"
             d="m 25.0117,381.438 c -4.5703,0 -8.2734,10.847 -8.2734,24.23 0,13.387 3.7031,24.234 8.2734,24.234 h 43.4649 c 4.5703,0 8.2695,-10.847 8.2695,-24.234 0,-13.383 -3.6992,-24.23 -8.2695,-24.23 H 25.0117" /><path
             id="path34"
             style="fill:none;stroke:#ffffff;stroke-width:3.99993992;stroke-linecap:butt;stroke-linejoin:miter;stroke-miterlimit:4;stroke-dasharray:none;stroke-opacity:1"
             d="m 25.0117,381.438 c -4.5703,0 -8.2734,10.847 -8.2734,24.23 0,13.387 3.7031,24.234 8.2734,24.234 h 43.4649 c 4.5703,0 8.2695,-10.847 8.2695,-24.234 0,-13.383 -3.6992,-24.23 -8.2695,-24.23 z" /><path
             id="path36"
             style="fill:#B5BF00;fill-opacity:1;fill-rule:nonzero;stroke:none"
             d="m 56.9453,348.23 h 185.543 v 84.4219 H 56.9453 Z" /><path
             id="path38"
             style="fill:none;stroke:#ffffff;stroke-width:3.99993992;stroke-linecap:butt;stroke-linejoin:miter;stroke-miterlimit:4;stroke-dasharray:none;stroke-opacity:1"
             d="m 56.9453,348.23 v 84.422 H 242.488 V 348.23 Z" /><path
             id="path40"
             style="fill:#B5BF00;fill-opacity:1;fill-rule:nonzero;stroke:none"
             d="m 242.488,347.965 v 84.687 H 56.8359 l 23.9063,23.903 h 162.8518 22.617 v -84.688 l -23.723,-23.902" /><path
             id="path42"
             style="fill:none;stroke:#ffffff;stroke-width:3.99993992;stroke-linecap:butt;stroke-linejoin:miter;stroke-miterlimit:4;stroke-dasharray:none;stroke-opacity:1"
             d="m 242.488,347.965 v 84.687 H 56.8359 l 23.9063,23.903 h 162.8518 22.617 v -84.688 z" /><path
             id="path44"
             style="fill:#B5BF00;fill-opacity:1;fill-rule:nonzero;stroke:none"
             d="m 242.488,432.652 23.723,23.903" /><path
             id="path46"
             style="fill:none;stroke:#ffffff;stroke-width:3.99993992;stroke-linecap:butt;stroke-linejoin:miter;stroke-miterlimit:4;stroke-dasharray:none;stroke-opacity:1"
             d="m 242.488,432.652 23.723,23.903" /><path
             id="path48"
             style="fill:#B5BF00;fill-opacity:1;fill-rule:nonzero;stroke:none"
             d="M 242.488,370.605 H 56.9453" /><path
             id="path50"
             style="fill:none;stroke:#ffffff;stroke-width:3.99993992;stroke-linecap:butt;stroke-linejoin:miter;stroke-miterlimit:4;stroke-dasharray:none;stroke-opacity:1"
             d="M 242.488,370.605 H 56.9453" /><path
             id="path52"
             style="fill:#B5BF00;fill-opacity:1;fill-rule:nonzero;stroke:none"
             d="M 266.211,394.242 242.488,370.344" /><path
             id="path54"
             style="fill:none;stroke:#ffffff;stroke-width:3.99993992;stroke-linecap:butt;stroke-linejoin:miter;stroke-miterlimit:4;stroke-dasharray:none;stroke-opacity:1"
             d="M 266.211,394.242 242.488,370.344" /><path
             id="path56"
             style="fill:#B5BF00;fill-opacity:1;fill-rule:nonzero;stroke:none"
             d="m 321.094,461.461 -3.653,-18.047 -65.183,-42.387 -3.188,33.7 72.024,26.734" /><path
             id="path58"
             style="fill:none;stroke:#ffffff;stroke-width:3.99993992;stroke-linecap:butt;stroke-linejoin:miter;stroke-miterlimit:4;stroke-dasharray:none;stroke-opacity:1"
             d="m 321.094,461.461 -3.653,-18.047 -65.183,-42.387 -3.188,33.7 z" /></g></g></g></g></svg>