<?xml version="1.0" encoding="utf-8"?>
<!-- Generator: Adobe Illustrator 20.1.0, SVG Export Plug-In . SVG Version: 6.00 Build 0)  -->
<svg version="1.1" id="Layer_1" xmlns="http://www.w3.org/2000/svg" xmlns:xlink="http://www.w3.org/1999/xlink" x="0px" y="0px"
	 viewBox="0 0 62.3 83.1" style="enable-background:new 0 0 62.3 83.1;" xml:space="preserve">
<style type="text/css">
	.st0{fill:#B5BF00;stroke:#FFFFFF;stroke-width:0.8;}
	.st1{fill:#FFFFFF;}
	.st2{fill:#FFFFFF;stroke:#B5BF00;stroke-width:0.8;}
</style>
<g>
	<polygon class="st0" points="61.3,72.4 61.3,0.9 51,10.7 51,82.2 	"/>
	<polygon class="st0" points="61.3,0.9 51,10.7 1.2,10.7 14.1,0.9 	"/>
	<g>
		<rect x="1.2" y="10.7" class="st0" width="49.8" height="49.3"/>
	</g>
	<g>
		<rect x="1.2" y="60.4" class="st0" width="49.8" height="21.8"/>
	</g>
	<g>
		<polygon class="st1" points="21.7,29.5 14.1,21.9 15.4,20.6 10.6,19.6 11.6,24.4 12.9,23.1 20.4,30.7 		"/>
		<polygon class="st1" points="18.9,34.4 8.2,34.4 8.2,32.6 4.1,35.3 8.2,38 8.2,36.2 18.9,36.2 		"/>
		<polygon class="st1" points="20.4,39.9 12.9,47.5 11.6,46.2 10.6,50.9 15.4,50 14.1,48.7 21.7,41.1 		"/>
		<polygon class="st1" points="25.4,42.7 25.4,53.4 23.6,53.4 26.3,57.4 28.9,53.4 27.1,53.4 27.1,42.7 		"/>
		<polygon class="st1" points="25.4,28.2 25.4,17.5 23.6,17.5 26.3,13.5 28.9,17.5 27.1,17.5 27.1,28.2 		"/>
		<polygon class="st1" points="30.9,41.1 38.4,48.7 37.1,50 41.9,50.9 40.9,46.2 39.7,47.5 32.1,39.9 		"/>
		<polygon class="st1" points="33.6,36.2 44.3,36.2 44.3,38 48.4,35.3 44.3,32.6 44.3,34.4 33.6,34.4 		"/>
		<polygon class="st1" points="32.1,30.7 39.7,23.1 40.9,24.4 41.9,19.6 37.1,20.6 38.4,21.9 30.9,29.5 		"/>
		
			<ellipse transform="matrix(0.8192 -0.5735 0.5735 0.8192 -15.4163 21.5191)" class="st2" cx="26.4" cy="35.2" rx="11.2" ry="11.2"/>
		<polygon class="st1" points="27.1,67.3 28.9,67.3 26.3,63.2 23.6,67.3 25.4,67.3 25.4,75.7 23.6,75.7 26.2,79.7 28.9,75.7 
			27.1,75.7 		"/>
		<polygon class="st1" points="13.3,67.3 15.1,67.3 12.4,63.2 9.7,67.3 11.5,67.3 11.5,75.7 9.7,75.7 12.4,79.7 15.1,75.7 
			13.3,75.7 		"/>
		<polygon class="st1" points="40.3,67.3 42.2,67.3 39.5,63.2 36.8,67.3 38.6,67.3 38.6,75.7 36.8,75.7 39.5,79.7 42.2,75.7 
			40.3,75.7 		"/>
	</g>
</g>
</svg>
