<?xml version="1.0" encoding="utf-8"?>
<!-- Generator: Adobe Illustrator 20.1.0, SVG Export Plug-In . SVG Version: 6.00 Build 0)  -->
<svg version="1.1" id="Layer_1" xmlns="http://www.w3.org/2000/svg" xmlns:xlink="http://www.w3.org/1999/xlink" x="0px" y="0px"
	 viewBox="0 0 53.5 54.1" style="enable-background:new 0 0 53.5 54.1;" xml:space="preserve">
<style type="text/css">
	.st0{fill:#B5BF00;stroke:#FFFFFF;stroke-width:0.8;}
	.st1{fill:none;stroke:#FFFFFF;stroke-width:1.4;}
	.st2{fill:#FFFFFF;stroke:#FFFFFF;stroke-width:0.4;}
	.st3{fill:#FFFFFF;}
	.st4{font-family:'Helvetica-Bold';}
	.st5{font-size:18px;}
</style>
	<g>
	<g>
		<rect x="1.1" y="9.2" class="st0" width="43.2" height="43.9"/>
		<circle class="st1" cx="22.8" cy="31.1" r="9.3"/>
		<line class="st1" x1="22.8" y1="21.8" x2="38.9" y2="21.8"/>
		<g>
			<polygon class="st2" points="36.1,16.9 36.1,26.5 41.9,21.9 			"/>
		</g>
		<line class="st1" x1="13.5" y1="31.2" x2="13.5" y2="15"/>
		<g>
			<polygon class="st2" points="8.7,17.7 18.3,17.7 13.7,11.9 			"/>
		</g>
		<line class="st1" x1="32.1" y1="31" x2="32.1" y2="47.2"/>
		<g>
			<polygon class="st2" points="37,44.3 27.4,44.3 32,50.1 			"/>
		</g>
		<line class="st1" x1="23" y1="40.4" x2="6.8" y2="40.4"/>
		<g>
			<polygon class="st2" points="9.4,45.2 9.4,35.5 3.6,40.2 			"/>
		</g>
		<polygon class="st0" points="44.1,9.1 1.1,9.1 12,0.4 53.1,0.4 53.1,0.5 53.1,44.1 44.2,53.1 44.2,9.4 		"/>
		<line class="st0" x1="44.2" y1="9" x2="53.2" y2="0.3"/>
	</g>
	<g>
		<text transform="matrix(1 0 0 1 16.5702 38.2315)" class="st3 st4 st5">V</text>
	</g>
</g>
</svg>
