<?xml version="1.0" encoding="utf-8"?>
<!-- Generator: Adobe Illustrator 20.1.0, SVG Export Plug-In . SVG Version: 6.00 Build 0)  -->
<svg version="1.1" id="Layer_1" xmlns="http://www.w3.org/2000/svg" xmlns:xlink="http://www.w3.org/1999/xlink" x="0px" y="0px"
	 viewBox="0 0 72.3 59.1" style="enable-background:new 0 0 72.3 59.1;" xml:space="preserve">
<style type="text/css">
	.st0{fill:#B5BF00;stroke:#FFFFFF;stroke-width:0.8;}
	.st1{fill:none;stroke:#B5BF00;stroke-width:0.9;stroke-linecap:round;stroke-miterlimit:1;}
	.st2{fill:none;stroke:#B5BF00;stroke-width:1.8;stroke-linecap:round;stroke-miterlimit:1;}
	.st3{fill:none;stroke:#FFFFFF;stroke-width:0.9;stroke-linecap:round;stroke-miterlimit:1;}
	.st4{fill:none;stroke:#FFFFFF;stroke-width:1.8;stroke-linecap:round;stroke-miterlimit:1;}
</style>
<g>
	<g>
		<path class="st0" d="M16.6,2.7L0.8,10.9C39.3,35.3,62,9.3,62,9.3C39.1,23.1,16.6,2.7,16.6,2.7z"/>
		<path class="st0" d="M71.9,0.2c-2.6,5.2-10.2,9.4-10.2,9.4v48.7l10.2-8.3V0.2z"/>
		<path class="st0" d="M61.7,9.5c0,0-22.4,25.8-60.9,1.3v47.4h60.9V9.5z"/>
	</g>
	<g>
		<g>
			<path class="st1" d="M57.4,39.1c0,0-3.9,10.1-8.6,0c-4.7-10.1-8.6,0-8.6,0s-3.9,10.1-8.6,0c-4.7-10.1-8.6,0.1-8.6,0.1
				s-3.9,10.1-8.6,0c-4.7-10.1-8.6,0-8.6,0"/>
			<path class="st2" d="M5.7,39.1c0,0,3.9,10.1,8.6,0c4.7-10.1,8.6,0,8.6,0s3.9,10.1,8.6,0c4.7-10.1,8.6,0.1,8.6,0.1s3.9,10.1,8.6,0
				c4.7-10.1,8.6,0,8.6,0"/>
		</g>
		<g>
			<path class="st3" d="M56.5,39.1c0,0-3.9,10.1-8.6,0c-4.7-10.1-8.6,0-8.6,0s-3.9,10.1-8.6,0C25.9,29,22,39.1,22,39.1
				s-3.9,10.1-8.6,0c-4.7-10.1-8.6,0-8.6,0"/>
			<path class="st4" d="M4.8,39.1c0,0,3.9,10.1,8.6,0c4.7-10.1,8.6,0,8.6,0s3.9,10.1,8.6,0c4.7-10.1,8.6,0.1,8.6,0.1s3.9,10.1,8.6,0
				c4.7-10.1,8.6,0,8.6,0"/>
		</g>
	</g>
</g>
</svg>
