<?xml version="1.0" encoding="utf-8"?>
<!-- Generator: Adobe Illustrator 20.1.0, SVG Export Plug-In . SVG Version: 6.00 Build 0)  -->
<svg version="1.1" id="Layer_1" xmlns="http://www.w3.org/2000/svg" xmlns:xlink="http://www.w3.org/1999/xlink" x="0px" y="0px"
	 viewBox="0 0 71.8 60.6" style="enable-background:new 0 0 71.8 60.6;" xml:space="preserve">
<style type="text/css">
	.st0{fill:none;stroke:#B5BF00;stroke-width:0.8;stroke-linecap:round;stroke-linejoin:round;}
	.st1{fill:#B5BF00;stroke:#FFFFFF;stroke-width:0.8;}
</style>
<g>
	<g>
		<path class="st0" d="M65.3,51.1c0.8-1-3.6-2.3,1.4-3.1c3.2-0.5,12.9-6.2-9.8-6.5"/>
		<rect x="13.3" y="43.9" class="st1" width="36.7" height="5.5"/>
		<polygon class="st1" points="50,49.4 50,43.9 57.4,36.3 57.4,42 		"/>
		<rect x="13.3" y="43.9" class="st1" width="36.7" height="6.5"/>
		<polygon class="st1" points="50,50.4 50,43.9 57.4,36.3 57.4,43 		"/>
		<polygon class="st1" points="60,35.3 54.8,42.9 9.1,42.9 16.4,35.3 		"/>
		<rect x="9" y="42.9" class="st1" width="43.7" height="2.5"/>
		<polygon class="st1" points="52.6,45.4 52.6,42.9 60,35.3 60,38 		"/>
		<polygon class="st1" points="60,35.3 54.8,42.9 9.1,42.9 16.4,35.3 		"/>
		<rect x="9" y="42.9" class="st1" width="43.7" height="2.5"/>
		<polygon class="st1" points="52.6,45.4 52.6,42.9 60,35.3 60,38 		"/>
		<polygon class="st1" points="60.2,0.7 20.7,0.7 9.2,3.4 54.9,3.4 		"/>
		<polygon class="st1" points="52.9,39.7 50.9,38 13.8,38 15.8,39.7 		"/>
		<polygon class="st1" points="53.1,39.4 50.6,37.7 60,32.7 54,38.7 		"/>
		<polygon class="st1" points="54.9,3.4 54.9,37.5 60.2,32.5 60.2,0.7 		"/>
		<rect x="9.2" y="3.4" class="st1" width="45.7" height="34.5"/>
	</g>
	<g>
		<polygon class="st1" points="51,59.3 51,56.7 56.8,48.8 56.8,53.6 		"/>
		<rect x="0.6" y="56.7" class="st1" width="50.4" height="2.6"/>
		<polygon class="st1" points="65.4,57.3 68.7,50.6 61.1,50.6 57.7,57.3 		"/>
		<rect x="57.7" y="57.3" class="st1" width="7.6" height="2.2"/>
		<polygon class="st1" points="65.3,59.5 65.3,57.3 68.7,50.6 68.7,55.2 		"/>
		<polygon class="st1" points="51,56.7 0.8,56.7 6.5,48.8 56.8,48.8 		"/>
		<path class="st1" d="M15.8,7h32.1c2.1,0,3.8,1.7,3.8,3.8V31c0,2.1-1.7,3.8-3.8,3.8H15.8c-2.1,0-3.8-1.7-3.8-3.8V10.8
			C12,8.7,13.7,7,15.8,7z"/>
	</g>
</g>
</svg>
