<?xml version="1.0" encoding="utf-8"?>
<!-- Generator: Adobe Illustrator 20.1.0, SVG Export Plug-In . SVG Version: 6.00 Build 0)  -->
<svg version="1.1" id="Layer_1" xmlns="http://www.w3.org/2000/svg" xmlns:xlink="http://www.w3.org/1999/xlink" x="0px" y="0px"
	 viewBox="0 0 61.6 62" style="enable-background:new 0 0 61.6 62;" xml:space="preserve">
<style type="text/css">
	.st0{fill:#FF5A00;stroke:#FFFFFF;stroke-width:0.8;}
	.st1{fill:none;stroke:#FFFFFF;stroke-width:2;}
	.st2{fill:#FFFFFF;stroke:#FFFFFF;stroke-width:2;}
	.st3{fill:none;stroke:#FFFFFF;stroke-width:0.8;}
	.st4{stroke:#FFFFFF;stroke-width:0.8;}
</style>
<g>
	<g>
		<rect x="1.1" y="7.1" class="st0" width="53.3" height="54"/>
		<circle class="st1" cx="13" cy="25.2" r="4.1"/>
		<line class="st1" x1="13" y1="21.1" x2="20.1" y2="21.1"/>
		<g>
			<polygon class="st2" points="20.2,18.5 20.2,23.6 23.3,21.1 			"/>
		</g>
		<line class="st1" x1="8.9" y1="25.3" x2="8.9" y2="18.1"/>
		<g>
			<polygon class="st2" points="6.3,18.1 11.5,18.1 9,15 			"/>
		</g>
		<line class="st1" x1="17.1" y1="25.2" x2="17.1" y2="32.3"/>
		<g>
			<polygon class="st2" points="19.7,32.3 14.6,32.3 17.1,35.4 			"/>
		</g>
		<line class="st1" x1="13.1" y1="29.3" x2="6" y2="29.3"/>
		<g>
			<polygon class="st2" points="5.9,32 5.9,26.9 2.8,29.3 			"/>
		</g>
		<polygon class="st0" points="54.3,7.1 1.1,7.1 9.5,0.4 61.2,0.4 61.2,0.4 61.2,54.2 54.3,61.1 54.3,7.2 		"/>
		<line class="st3" x1="54.3" y1="7" x2="61.2" y2="0.3"/>
		<line class="st4" x1="54.3" y1="43" x2="1.1" y2="43"/>
		<line class="st4" x1="37.7" y1="42.3" x2="37.7" y2="7.2"/>
		<line class="st4" x1="31.6" y1="42.3" x2="31.6" y2="7.2"/>
		<line class="st4" x1="49.2" y1="42.3" x2="49.2" y2="7.2"/>
		<line class="st4" x1="43" y1="42.3" x2="43" y2="7.2"/>
		<line class="st4" x1="25.4" y1="42.3" x2="25.4" y2="41.6"/>
		<line class="st4" x1="25.4" y1="42.1" x2="25.4" y2="8"/>
	</g>
	<rect x="5.7" y="45.9" class="st0" width="15.3" height="2.3"/>
	<rect x="20.3" y="50.5" class="st0" width="15.3" height="2.3"/>
	<rect x="34.8" y="55.1" class="st0" width="15.3" height="2.3"/>
</g>
</svg>
