<?xml version="1.0" encoding="utf-8"?>
<!-- Generator: Adobe Illustrator 20.1.0, SVG Export Plug-In . SVG Version: 6.00 Build 0)  -->
<svg version="1.1" id="Layer_1" xmlns="http://www.w3.org/2000/svg" xmlns:xlink="http://www.w3.org/1999/xlink" x="0px" y="0px"
	 viewBox="0 0 73.5 51.8" style="enable-background:new 0 0 73.5 51.8;" xml:space="preserve">
<style type="text/css">
	.st0{fill:#FF5A00;stroke:#FFFFFF;stroke-width:0.8;}
	.st1{fill:none;stroke:#FFFFFF;stroke-width:0.8;stroke-linecap:round;stroke-linejoin:round;}
	.st2{fill:#FFFFFF;}
	.st3{fill:#FFFFFF;stroke:#FF5A00;stroke-width:0.4;}
	.st4{fill:#FF5A00;stroke:#FFFFFF;stroke-width:0.6;stroke-linecap:round;stroke-linejoin:round;}
</style>
<polygon class="st0" points="1.2,7.1 9.4,0.6 72.3,0.6 63.8,7.1 "/>
<line class="st1" x1="63.8" y1="51.2" x2="1.2" y2="51.2"/>
<polygon class="st0" points="64.1,6.8 64.1,51.2 0.9,51.2 0.9,6.7 "/>
<polygon class="st0" points="72,44.4 72,0.8 63.9,6.9 63.9,50.9 "/>
<polygon class="st2" points="58.7,34.3 50.3,34.3 50.3,33 46.2,35.5 50.3,38.1 50.3,36.8 58.7,36.8 "/>
<polygon class="st2" points="17.7,20.1 9.3,20.1 9.3,18.8 5.2,21.3 9.3,23.9 9.3,22.7 17.7,22.7 "/>
<polygon class="st2" points="47.8,22.8 55.8,22.8 55.8,24.1 59.9,21.6 55.8,19 55.8,20.3 47.8,20.3 "/>
<polygon class="st2" points="5.8,36.9 13.8,36.9 13.8,38.1 17.9,35.6 13.8,33.1 13.8,34.3 5.8,34.3 "/>
<g>
	<path class="st3" d="M13.4,47.2c-0.1-0.8,0.6-1.6,1.4-1.6c0.8-0.1,1.6,0.6,1.6,1.4c0.1,0.8-0.6,1.6-1.4,1.6
		C14.2,48.7,13.5,48,13.4,47.2z"/>

		<rect x="13.1" y="40.3" transform="matrix(0.6666 -0.7454 0.7454 0.6666 -25.2134 28.3915)" class="st3" width="12.1" height="4.2"/>
	<path class="st3" d="M19.4,25.1c-0.9,7.8,4.7,14.8,12.5,15.7c7.8,0.9,14.8-4.7,15.7-12.5c0.9-7.8-4.7-14.8-12.5-15.7
		C27.4,11.7,20.3,17.3,19.4,25.1z M21.4,25.3c0.8-6.7,6.8-11.5,13.5-10.7c6.7,0.8,11.5,6.8,10.7,13.5c-0.8,6.7-6.8,11.5-13.5,10.7
		C25.5,38,20.6,32,21.4,25.3z"/>
	<path class="st3" d="M17.7,25.7c-0.9,7.8,4.7,14.8,12.5,15.7c7.8,0.9,14.8-4.7,15.7-12.5c0.9-7.8-4.7-14.8-12.5-15.7
		C25.6,12.3,18.6,17.9,17.7,25.7z M19.7,25.9c0.8-6.7,6.8-11.5,13.5-10.7C39.8,16,44.6,22,43.9,28.7c-0.8,6.7-6.8,11.5-13.5,10.7
		C23.7,38.6,18.9,32.6,19.7,25.9z"/>
	<path d="M14.9,47.1"/>
</g>
<g>
	<g>
		<path class="st4" d="M37.4,35c0.3,0,0.6-0.3,0.6-0.6v-7.1c0-0.3-0.3-0.6-0.6-0.6H26.5c-0.3,0-0.6,0.3-0.6,0.6v7.1
			c0,0.3,0.3,0.6,0.6,0.6H37.4z"/>
	</g>
	<polygon class="st4" points="38,26.8 40.3,24.5 28.2,24.5 25.9,26.8 	"/>
	<polygon class="st4" points="40.3,32.7 40.3,24.5 38,26.8 38,35 	"/>
	<path class="st4" d="M33.2,19.4c-1.7,0-3.2,1.4-3.2,3.2l0,2.8c0,0.2-0.2,0.5-0.5,0.5c-0.3,0-0.7-0.1-0.7-0.4v-2.8
		c0-2.4,1.9-4.3,4.3-4.3c2.4,0,4.3,1.9,4.3,4.3v3c0,0.2-0.3,0.4-0.6,0.4c-0.3,0-0.6-0.4-0.6-0.6l0-2.9
		C36.3,20.8,34.9,19.4,33.2,19.4z"/>
	<g>
		<ellipse class="st2" cx="31.9" cy="30.4" rx="1" ry="1.3"/>
	</g>
	<polygon class="st2" points="32.2,33 32.2,30.4 31.6,30.9 31.6,33.4 	"/>
</g>
</svg>
