<?xml version="1.0" encoding="utf-8"?>
<!-- Generator: Adobe Illustrator 20.1.0, SVG Export Plug-In . SVG Version: 6.00 Build 0)  -->
<svg version="1.1" id="Layer_1" xmlns="http://www.w3.org/2000/svg" xmlns:xlink="http://www.w3.org/1999/xlink" x="0px" y="0px"
	 viewBox="0 0 74.4 71" style="enable-background:new 0 0 74.4 71;" xml:space="preserve">
<style type="text/css">
	.st0{fill:#FF5A00;stroke:#FFFFFF;stroke-width:0.8;}
	.st1{fill:#FF5A00;stroke:#FFFFFF;stroke-width:0.8;}
	.st2{fill:#FFFFFF;}
	.st3{fill:#FF5A00;}
	.st4{fill:#FF5A00;}
</style>
<g>
	<path class="st0" d="M74,14.7C74,22.6,57.5,29,37.2,29S0.4,22.6,0.4,14.7v16.7c0,7.9,16.5,14.3,36.8,14.3S74,39.3,74,31.4V14.7z"/>
	<path class="st1" d="M74,31.1c0,7.9-16.5,14.3-36.8,14.3S0.4,39,0.4,31.1v25.2c0,7.9,16.5,14.3,36.8,14.3S74,64.2,74,56.3V31.1z"/>
	<ellipse class="st0" cx="37.2" cy="14.7" rx="36.8" ry="14.3"/>
	<polygon class="st2" points="28.8,9.1 31.8,13.7 20.3,16.3 22.8,14.2 5.1,11.2 9.6,7.9 26.7,10.8 	"/>
	<polygon class="st2" points="44.9,20.2 42.9,15.5 53.2,13.4 51.4,15 68.7,18 64.6,21.3 47.4,18 	"/>
	<polygon class="st2" points="39.3,6.6 50.9,3.4 51,8.4 48.1,7.9 42.5,12.6 37.1,11.8 42.9,7.2 	"/>
	<polygon class="st2" points="34.3,24.4 23.3,26.5 22.8,21.4 26,22.1 32.1,16.9 37.5,17.8 31,23.5 	"/>
	<path class="st3" d="M1.2,35.7c3.8,6.4,17.3,10.7,35.2,10.7c17.4,0,32.5-4.8,36.8-11l0-4.2c0,7-17.4,13.2-36.7,13.2
		c-19.4,0-34.4-6-35.4-12.7L1.2,35.7z"/>
	<polygon class="st4" points="33.6,41.8 33.6,43.6 27.3,43.6 36.6,55.6 45.9,43.6 39.6,43.6 39.6,41.8 	"/>
	<polygon class="st2" points="27.8,65.9 49.8,43.9 47.8,42.8 25.8,64.8 	"/>
	<polygon class="st2" points="45.4,65.6 23.6,43.9 25.6,42.8 47.4,64.5 	"/>
	<path class="st2" d="M39.7,64.5l0,2c5.9-0.3,14.5-1.2,19.4-2.6l0-1.9C54.3,63.3,45.5,64.2,39.7,64.5z"/>
	<path class="st2" d="M15.4,63.9c4.7,1.3,12.5,2.2,18.2,2.5l0.1-1.9c-6-0.4-14.1-1.5-18.2-2.6L15.4,63.9z"/>
	<path class="st2" d="M14.9,42.8c4.7,1.4,12.5,2.3,18.3,2.7l0-2c-6.1-0.4-14.3-1.4-18.3-2.6L14.9,42.8z"/>
	<path class="st2" d="M39.8,43.5l-0.2,2c6.1-0.3,14.9-1.3,19.9-2.7l0-1.9C54.6,42.3,45.8,43.2,39.8,43.5z"/>
	<path class="st2" d="M19.3,59.4L16.7,59l4.1-10.8l2.8,0.5l4,12.2l-2.6-0.5L24.3,58l-4.2-0.7L19.3,59.4z M20.7,55.3l2.9,0.5
		l-1.4-4.8l0,0L20.7,55.3z"/>
	<path class="st2" d="M50.2,60.4l-2.4,0.3V49.3l5.2-0.7c2.2-0.3,3.6,0.9,3.6,3.2c0,1-0.6,3.7-3.7,4.2l-2.8,0.4V60.4z M52.5,54
		c1.8-0.3,1.8-1.5,1.8-2c0-1.1-0.6-1.5-2.1-1.3l-1.9,0.3v3.4L52.5,54z"/>
</g>
</svg>
