<?xml version="1.0" encoding="UTF-8" standalone="no"?>
<svg
   xmlns:dc="http://purl.org/dc/elements/1.1/"
   xmlns:cc="http://creativecommons.org/ns#"
   xmlns:rdf="http://www.w3.org/1999/02/22-rdf-syntax-ns#"
   xmlns:svg="http://www.w3.org/2000/svg"
   xmlns="http://www.w3.org/2000/svg"
   viewBox="0 0 47.346668 23.68"
   height="23.68"
   width="47.346668"
   xml:space="preserve"
   id="svg2"
   version="1.1"><metadata
     id="metadata8"><rdf:RDF><cc:Work
         rdf:about=""><dc:format>image/svg+xml</dc:format><dc:type
           rdf:resource="http://purl.org/dc/dcmitype/StillImage" /></cc:Work></rdf:RDF></metadata><defs
     id="defs6" /><g
     transform="matrix(1.3333333,0,0,-1.3333333,0,23.68)"
     id="g10"><g
       transform="scale(0.1)"
       id="g12"><path
         id="path14"
         style="fill:#FF5A00;fill-opacity:1;fill-rule:nonzero;stroke:none"
         d="M 5.65625,88.8047 109.797,173.004 H 350.211 L 264.039,88.8047 H 5.65625" /><path
         id="path16"
         style="fill:none;stroke:#FFFFFF;stroke-width:3.99993992;stroke-linecap:butt;stroke-linejoin:miter;stroke-miterlimit:4;stroke-dasharray:none;stroke-opacity:1"
         d="M 5.65625,88.8047 109.797,173.004 H 350.211 L 264.039,88.8047 Z" /><path
         id="path18"
         style="fill:#FF5A00;fill-opacity:1;fill-rule:nonzero;stroke:none"
         d="M 264.039,5.10156 350.211,98.1484 V 172.855 L 264.039,88.8047 V 5.10156" /><path
         id="path20"
         style="fill:none;stroke:#FFFFFF;stroke-width:3.99993992;stroke-linecap:butt;stroke-linejoin:miter;stroke-miterlimit:4;stroke-dasharray:none;stroke-opacity:1"
         d="M 264.039,5.10156 350.211,98.1484 V 172.855 L 264.039,88.8047 Z" /><path
         id="path22"
         style="fill:#FF5A00;fill-opacity:1;fill-rule:nonzero;stroke:none"
         d="m 6.01563,5.02344 h 258.023 v 83.7813 H 6.01563 Z" /><path
         id="path24"
         style="fill:none;stroke:#FFFFFF;stroke-width:3.99993992;stroke-linecap:butt;stroke-linejoin:miter;stroke-miterlimit:4;stroke-dasharray:none;stroke-opacity:1"
         d="M 264.039,5.02344 V 88.8047 H 6.01563 V 5.02344 Z" /><path
         id="path26"
         style="fill:#FFFFFF;fill-opacity:1;fill-rule:nonzero;stroke:none"
         d="M 146.559,42.3672 45.6953,42.3086 V 54.6328 L 146.559,54.6719 146.598,73.8711 191.422,48.5 146.598,23.1289 146.559,42.3672" /><path
         id="path28"
         style="fill:none;stroke:#FFFFFF;stroke-width:3.98300004;stroke-linecap:butt;stroke-linejoin:miter;stroke-miterlimit:4;stroke-dasharray:none;stroke-opacity:1"
         d="M 146.559,42.3672 45.6953,42.3086 V 54.6328 L 146.559,54.6719 146.598,73.8711 191.422,48.5 146.598,23.1289 Z" /><path
         id="path30"
         style="fill:#FFFFFF;fill-opacity:1;fill-rule:nonzero;stroke:none"
         d="M 56.7773,54.6133 56.7383,73.8125 11.9141,48.4414 56.7383,23.0703 56.7773,42.3086" /><path
         id="path32"
         style="fill:none;stroke:#FFFFFF;stroke-width:3.98300004;stroke-linecap:butt;stroke-linejoin:miter;stroke-miterlimit:4;stroke-dasharray:none;stroke-opacity:1"
         d="M 56.7773,54.6133 56.7383,73.8125 11.9141,48.4414 56.7383,23.0703 56.7773,42.3086" /><path
         id="path34"
         style="fill:#FFFFFF;fill-opacity:1;fill-rule:nonzero;stroke:none"
         d="m 252.848,54.6133 -0.039,19.1992 -44.825,-25.3711 44.825,-25.3711 0.039,19.2383 v 12.3047" /><path
         id="path36"
         style="fill:none;stroke:#FFFFFF;stroke-width:3.98300004;stroke-linecap:butt;stroke-linejoin:miter;stroke-miterlimit:4;stroke-dasharray:none;stroke-opacity:1"
         d="m 252.848,54.6133 -0.039,19.1992 -44.825,-25.3711 44.825,-25.3711 0.039,19.2383 z" /></g></g></svg>