<?xml version="1.0" encoding="UTF-8" standalone="no"?>
<svg
   xmlns:dc="http://purl.org/dc/elements/1.1/"
   xmlns:cc="http://creativecommons.org/ns#"
   xmlns:rdf="http://www.w3.org/1999/02/22-rdf-syntax-ns#"
   xmlns:svg="http://www.w3.org/2000/svg"
   xmlns="http://www.w3.org/2000/svg"
   viewBox="0 0 65.053329 32.32"
   height="32.32"
   width="65.053329"
   xml:space="preserve"
   id="svg2"
   version="1.1"><metadata
     id="metadata8"><rdf:RDF><cc:Work
         rdf:about=""><dc:format>image/svg+xml</dc:format><dc:type
           rdf:resource="http://purl.org/dc/dcmitype/StillImage" /></cc:Work></rdf:RDF></metadata><defs
     id="defs6"><clipPath
       id="clipPath20"
       clipPathUnits="userSpaceOnUse"><path
         id="path18"
         d="M 0,2 V 242 H 488 V 2 Z" /></clipPath></defs><g
     transform="matrix(1.3333333,0,0,-1.3333333,0,32.32)"
     id="g10"><g
       transform="scale(0.1)"
       id="g12"><g
         id="g14"><g
           clip-path="url(#clipPath20)"
           id="g16"><path
             id="path22"
             style="fill:#FF5A00;fill-opacity:1;fill-rule:nonzero;stroke:none"
             d="M 5.65625,121.066 149.941,237.676 H 483.035 L 363.645,121.066 H 5.65625" /><path
             id="path24"
             style="fill:none;stroke:#FFFFFF;stroke-width:3.99993992;stroke-linecap:butt;stroke-linejoin:miter;stroke-miterlimit:4;stroke-dasharray:none;stroke-opacity:1"
             d="M 5.65625,121.066 149.941,237.676 h 333.094 l -119.39,-116.61 z" /><path
             id="path26"
             style="fill:#FF5A00;fill-opacity:1;fill-rule:nonzero;stroke:none"
             d="M 363.645,5.10938 483.035,134.031 V 237.676 L 363.645,121.066 V 5.10938" /><path
             id="path28"
             style="fill:none;stroke:#FFFFFF;stroke-width:3.99993992;stroke-linecap:butt;stroke-linejoin:miter;stroke-miterlimit:4;stroke-dasharray:none;stroke-opacity:1"
             d="M 363.645,5.10938 483.035,134.031 v 103.645 l -119.39,-116.61 z" /><path
             id="path30"
             style="fill:#FF5A00;fill-opacity:1;fill-rule:nonzero;stroke:none"
             d="m 6.14453,5 h 357.5 v 116.066 h -357.5 z" /><path
             id="path32"
             style="fill:none;stroke:#FFFFFF;stroke-width:3.99993992;stroke-linecap:butt;stroke-linejoin:miter;stroke-miterlimit:4;stroke-dasharray:none;stroke-opacity:1"
             d="M 363.645,5 V 121.066 H 6.14453 L 6.14453,5 Z" /><path
             id="path34"
             style="fill:#FF5A00;fill-opacity:1;fill-rule:nonzero;stroke:none"
             d="m 310.898,219.992 c -83.503,3.418 -178.847,-13.418 -212.9566,-37.597 -34.1016,-24.18 5.9376,-46.543 89.4416,-49.946 83.496,-3.418 178.84,13.422 212.949,37.602 34.109,24.179 -5.937,46.543 -89.434,49.941" /><path
             id="path36"
             style="fill:none;stroke:#FFFFFF;stroke-width:3.99993992;stroke-linecap:butt;stroke-linejoin:miter;stroke-miterlimit:4;stroke-dasharray:none;stroke-opacity:1"
             d="m 310.898,219.992 c -83.503,3.418 -178.847,-13.418 -212.9566,-37.597 -34.1016,-24.18 5.9376,-46.543 89.4416,-49.946 83.496,-3.418 178.84,13.422 212.949,37.602 34.109,24.179 -5.937,46.543 -89.434,49.941 z" /><path
             id="path38"
             style="fill:#FF5A00;fill-opacity:1;fill-rule:nonzero;stroke:none"
             d="m 295.945,201.652 c -68.465,2.157 -145.175,-7.714 -171.304,-22.05 -26.1449,-14.336 8.172,-27.715 76.648,-29.883 68.477,-2.16 145.176,7.715 171.309,22.051 26.14,14.335 -8.172,27.714 -76.653,29.882" /><path
             id="path40"
             style="fill:none;stroke:#FFFFFF;stroke-width:3.99993992;stroke-linecap:butt;stroke-linejoin:miter;stroke-miterlimit:4;stroke-dasharray:none;stroke-opacity:1"
             d="m 295.945,201.652 c -68.465,2.157 -145.175,-7.714 -171.304,-22.05 -26.1449,-14.336 8.172,-27.715 76.648,-29.883 68.477,-2.16 145.176,7.715 171.309,22.051 26.14,14.335 -8.172,27.714 -76.653,29.882 z" /></g></g></g></g></svg>