<?xml version="1.0" encoding="UTF-8" standalone="no"?>
<svg
   xmlns:dc="http://purl.org/dc/elements/1.1/"
   xmlns:cc="http://creativecommons.org/ns#"
   xmlns:rdf="http://www.w3.org/1999/02/22-rdf-syntax-ns#"
   xmlns:svg="http://www.w3.org/2000/svg"
   xmlns="http://www.w3.org/2000/svg"
   version="1.1"
   id="svg2"
   xml:space="preserve"
   width="41.506668"
   height="55.413334"
   viewBox="0 0 41.506668 55.413334"><metadata
     id="metadata8"><rdf:RDF><cc:Work
         rdf:about=""><dc:format>image/svg+xml</dc:format><dc:type
           rdf:resource="http://purl.org/dc/dcmitype/StillImage" /><dc:title /></cc:Work></rdf:RDF></metadata><defs
     id="defs6" /><g
     id="g915"><path
       id="path14"
       style="fill:#FF5A00;fill-opacity:1;fill-rule:nonzero;stroke:none;stroke-width:0.13333333"
       d="M 40.840132,48.291973 V 0.6258677 l -6.8464,6.4999998 V 54.791978 l 6.8464,-6.500005" /><path
       id="path16"
       style="fill:none;stroke:#FFFFFF;stroke-width:0.5333333;stroke-linecap:butt;stroke-linejoin:miter;stroke-miterlimit:4;stroke-dasharray:none;stroke-opacity:1"
       d="M 40.840132,48.291973 V 0.6258677 l -6.8464,6.4999998 V 54.791978 Z" /><path
       id="path18"
       style="fill:#FF5A00;fill-opacity:1;fill-rule:nonzero;stroke:none;stroke-width:0.13333333"
       d="m 40.840132,0.6258677 -6.8464,6.4999998 H 0.79479198 L 9.3937464,0.6258677 H 40.840132" /><path
       id="path20"
       style="fill:none;stroke:#FFFFFF;stroke-width:0.5333333;stroke-linecap:butt;stroke-linejoin:miter;stroke-miterlimit:4;stroke-dasharray:none;stroke-opacity:1"
       d="m 40.840132,0.6258677 -6.8464,6.4999998 H 0.79479198 L 9.3937464,0.6258677 Z" /><path
       id="path22"
       style="fill:#FF5A00;fill-opacity:1;fill-rule:nonzero;stroke:none;stroke-width:0.13333333"
       d="M 33.993732,39.958667 V 7.1258675 H 0.79479198 V 39.958667 H 33.993732" /><path
       id="path24"
       style="fill:none;stroke:#FFFFFF;stroke-width:0.5333333;stroke-linecap:butt;stroke-linejoin:miter;stroke-miterlimit:4;stroke-dasharray:none;stroke-opacity:1"
       d="M 33.993732,39.958667 V 7.1258675 H 0.79479198 V 39.958667 Z" /><path
       id="path26"
       style="fill:#FF5A00;fill-opacity:1;fill-rule:nonzero;stroke:none;stroke-width:0.13333333"
       d="M 33.993732,54.791978 V 40.292 H 0.79479198 V 54.791978 H 33.993732" /><path
       id="path28"
       style="fill:none;stroke:#FFFFFF;stroke-width:0.5333333;stroke-linecap:butt;stroke-linejoin:miter;stroke-miterlimit:4;stroke-dasharray:none;stroke-opacity:1"
       d="M 33.993732,54.791978 V 40.292 H 0.79479198 v 14.499978 z" /><path
       id="path30"
       style="fill:#FFFFFF;fill-opacity:1;fill-rule:nonzero;stroke:none;stroke-width:0.13333333"
       d="m 14.4328,19.650267 -5.0494669,-5.052 0.8567729,-0.8568 -3.1718795,-0.642133 0.6421866,3.1708 0.8567734,-0.8568 5.0505465,5.052133 0.815067,-0.8152" /><path
       id="path32"
       style="fill:#FFFFFF;fill-opacity:1;fill-rule:nonzero;stroke:none;stroke-width:0.13333333"
       d="M 12.586453,22.956 H 5.4432265 v -1.211999 l -2.6963466,1.789066 2.6963466,1.7876 v -1.212 H 12.586453 V 22.956" /><path
       id="path34"
       style="fill:#FFFFFF;fill-opacity:1;fill-rule:nonzero;stroke:none;stroke-width:0.13333333"
       d="M 13.617733,26.6008 8.5671865,31.652934 7.7104131,30.796134 7.0682265,33.9664 10.240106,33.3248 9.3833331,32.468 14.4328,27.416 13.617733,26.6008" /><path
       id="path36"
       style="fill:#FFFFFF;fill-opacity:1;fill-rule:nonzero;stroke:none;stroke-width:0.13333333"
       d="m 16.925066,28.4472 v 7.144267 H 15.714 l 1.786533,2.6968 1.789067,-2.6968 H 18.078666 V 28.4472 h -1.1536" /><path
       id="path38"
       style="fill:#FFFFFF;fill-opacity:1;fill-rule:nonzero;stroke:none;stroke-width:0.13333333"
       d="M 16.925066,18.823201 V 11.678934 H 15.714 L 17.500533,8.9836008 19.2896,11.678934 h -1.210934 v 7.144267 h -1.1536" /><path
       id="path40"
       style="fill:#FFFFFF;fill-opacity:1;fill-rule:nonzero;stroke:none;stroke-width:0.13333333"
       d="m 20.569733,27.416 5.0516,5.052 -0.8568,0.8568 3.171866,0.6416 -0.643733,-3.170266 -0.856267,0.8568 -5.051466,-5.052134 -0.8152,0.8152" /><path
       id="path42"
       style="fill:#FFFFFF;fill-opacity:1;fill-rule:nonzero;stroke:none;stroke-width:0.13333333"
       d="m 22.418266,24.108667 h 7.1432 v 1.212 l 2.695333,-1.7876 -2.695333,-1.789066 V 22.956 h -7.1432 v 1.152667" /><path
       id="path44"
       style="fill:#FFFFFF;fill-opacity:1;fill-rule:nonzero;stroke:none;stroke-width:0.13333333"
       d="m 21.384933,20.465467 5.051466,-5.052133 0.856267,0.8568 0.643733,-3.1708 -3.171866,0.642133 0.8568,0.8568 -5.0516,5.052 0.8152,0.8152" /><path
       id="path46"
       style="fill:#FFFFFF;fill-opacity:1;fill-rule:nonzero;stroke:none;stroke-width:0.13333333"
       d="m 21.885999,29.58 c 3.3708,-2.359333 4.191067,-7.0052 1.829067,-10.376533 -2.3604,-3.3708 -7.006266,-4.190133 -10.376,-1.8292 -3.3697996,2.359334 -4.1901062,7.0052 -1.829173,10.376 2.360373,3.371333 7.00624,4.189067 10.376106,1.829733" /><path
       id="path48"
       style="fill:#FFFFFF;fill-opacity:1;fill-rule:nonzero;stroke:none;stroke-width:0.13333333"
       d="m 21.949999,48.085213 h 7.142667 v 1.210933 l 2.698,-1.786453 -2.698,-1.789066 v 1.210933 h -7.142667 v 1.153653" /><path
       id="path50"
       style="fill:#FFFFFF;fill-opacity:1;fill-rule:nonzero;stroke:none;stroke-width:0.13333333"
       d="m 21.784399,46.100827 6.712,-2.442707 0.416667,1.138027 1.921867,-2.60156 -3.145867,-0.757787 0.414,1.137987 -6.712933,2.442706 0.394266,1.083334" /><path
       id="path52"
       style="fill:#FFFFFF;fill-opacity:1;fill-rule:nonzero;stroke:none;stroke-width:0.13333333"
       d="m 21.784399,48.871666 6.712,2.442707 0.416667,-1.138013 1.921867,2.60156 -3.145867,0.757813 0.414,-1.138027 -6.712933,-2.442706 0.394266,-1.083334" /><path
       id="path54"
       style="fill:#FFFFFF;fill-opacity:1;fill-rule:nonzero;stroke:none;stroke-width:0.13333333"
       d="m 10.87292,48.085213 h 6.886946 v 1.210933 l 2.6964,-1.786453 -2.6964,-1.789066 V 46.93156 H 10.87292 v 1.153653" /><path
       id="path56"
       style="fill:#FFFFFF;fill-opacity:1;fill-rule:nonzero;stroke:none;stroke-width:0.13333333"
       d="m 7.8130265,42.187813 c -1.3546933,0 -2.4520933,1.09792 -2.4520933,2.45208 l 0.00365,2.178134 c 0.017707,0.173426 -0.1562533,0.35416 -0.4166666,0.3802 -0.2583334,0.0276 -0.5411467,-0.10156 -0.5583333,-0.27448 l -0.00156,-2.163014 c 0,-1.859373 1.5067599,-3.363 3.3640532,-3.363 1.8588533,0 3.3640665,1.503627 3.3640665,3.363 v 2.359374 c -0.01927,0.171866 -0.204173,0.289586 -0.467706,0.281253 -0.239067,-0.0089 -0.455214,-0.31876 -0.437507,-0.49324 l 0.0099,-2.268227 c 0,-1.35416 -1.0541739,-2.45208 -2.4078138,-2.45208" /><path
       id="path58"
       style="fill:none;stroke:#fffeff;stroke-width:0.53299999;stroke-linecap:butt;stroke-linejoin:miter;stroke-miterlimit:4;stroke-dasharray:none;stroke-opacity:1"
       d="m 7.8130269,42.187813 c -1.3546933,0 -2.4520933,1.09792 -2.4520933,2.45208 l 0.00365,2.178134 c 0.017707,0.173426 -0.1562533,0.35416 -0.4166666,0.3802 -0.2583334,0.0276 -0.5411467,-0.10156 -0.5583333,-0.27448 l -0.00156,-2.163014 c 0,-1.859373 1.5067599,-3.363 3.3640532,-3.363 1.8588531,0 3.3640661,1.503627 3.3640661,3.363 v 2.359374 c -0.01927,0.171866 -0.204173,0.289586 -0.467706,0.281253 -0.239067,-0.0089 -0.455214,-0.31876 -0.437507,-0.49324 l 0.0099,-2.268227 c 0,-1.35416 -1.054173,-2.45208 -2.4078134,-2.45208 z" /><path
       id="path60"
       style="fill:#FFFFFF;fill-opacity:1;fill-rule:nonzero;stroke:none;stroke-width:0.13333333"
       d="m 11.9474,52.975826 c 0.247386,0 0.447386,-0.199466 0.447386,-0.449466 v -5.486987 c 0,-0.2474 -0.2,-0.44792 -0.447386,-0.44792 H 3.4348932 c -0.2473866,0 -0.4479199,0.20052 -0.4479199,0.44792 v 5.486987 c 0,0.25 0.2005333,0.449466 0.4479199,0.449466 H 11.9474" /><path
       id="path62"
       style="fill:none;stroke:#FFFFFF;stroke-width:0.5333333;stroke-linecap:butt;stroke-linejoin:miter;stroke-miterlimit:4;stroke-dasharray:none;stroke-opacity:1"
       d="m 11.9474,52.975826 c 0.247386,0 0.447386,-0.199466 0.447386,-0.449466 v -5.486987 c 0,-0.2474 -0.2,-0.44792 -0.447386,-0.44792 H 3.4348932 c -0.2473866,0 -0.4479199,0.20052 -0.4479199,0.44792 v 5.486987 c 0,0.25 0.2005333,0.449466 0.4479199,0.449466 z" /></g></svg>