<?xml version="1.0" encoding="UTF-8" standalone="no"?>
<svg
   xmlns:dc="http://purl.org/dc/elements/1.1/"
   xmlns:cc="http://creativecommons.org/ns#"
   xmlns:rdf="http://www.w3.org/1999/02/22-rdf-syntax-ns#"
   xmlns:svg="http://www.w3.org/2000/svg"
   xmlns="http://www.w3.org/2000/svg"
   viewBox="0 0 28.52 40.68"
   height="40.68"
   width="28.52"
   xml:space="preserve"
   id="svg2"
   version="1.1"><metadata
     id="metadata8"><rdf:RDF><cc:Work
         rdf:about=""><dc:format>image/svg+xml</dc:format><dc:type
           rdf:resource="http://purl.org/dc/dcmitype/StillImage" /></cc:Work></rdf:RDF></metadata><defs
     id="defs6"><clipPath
       id="clipPath20"
       clipPathUnits="userSpaceOnUse"><path
         id="path18"
         d="M 0,305 H 210 V 0 H 0 Z" /></clipPath></defs><g
     transform="matrix(1.3333333,0,0,-1.3333333,0,40.68)"
     id="g10"><g
       transform="scale(0.1)"
       id="g12"><g
         id="g14"><g
           clip-path="url(#clipPath20)"
           id="g16"><path
             id="path22"
             style="fill:#FF5A00;fill-opacity:1;fill-rule:nonzero;stroke:none"
             d="m 6.83203,6.82422 h 153.875 v 245.121 H 6.83203 Z" /><path
             id="path24"
             style="fill:#FF5A00;fill-opacity:1;fill-rule:nonzero;stroke:none"
             d="M 160.707,6.82422 209.859,55.9688 V 301.086 H 55.9727 L 6.83203,251.945 H 160.707 V 6.82422" /><path
             id="path26"
             style="fill:#FF5A00;fill-opacity:1;fill-rule:nonzero;stroke:none"
             d="m 160.707,251.945 49.152,49.141" /><path
             id="path28"
             style="fill:#FF5A00;fill-opacity:1;fill-rule:nonzero;stroke:none"
             d="m 6.83203,6.82422 h 153.875 v 245.121 H 6.83203 Z" /><path
             id="path30"
             style="fill:none;stroke:#FFFFFF;stroke-width:4;stroke-linecap:butt;stroke-linejoin:miter;stroke-miterlimit:4;stroke-dasharray:none;stroke-opacity:1"
             d="M 160.707,251.945 H 6.83203 V 6.82422 H 160.707" /><path
             id="path32"
             style="fill:#FF5A00;fill-opacity:1;fill-rule:nonzero;stroke:none"
             d="M 160.707,6.82422 209.859,55.9688 V 301.086 H 55.9727 L 6.83203,251.945 H 160.707 V 6.82422" /><path
             id="path34"
             style="fill:none;stroke:#FFFFFF;stroke-width:4;stroke-linecap:butt;stroke-linejoin:miter;stroke-miterlimit:4;stroke-dasharray:none;stroke-opacity:1"
             d="M 160.707,6.82422 209.859,55.9688 V 301.086 H 55.9727 L 6.83203,251.945 H 160.707 Z" /><path
             id="path36"
             style="fill:#FF5A00;fill-opacity:1;fill-rule:nonzero;stroke:none"
             d="m 160.707,251.945 49.152,49.141" /><path
             id="path38"
             style="fill:none;stroke:#FFFFFF;stroke-width:4;stroke-linecap:round;stroke-linejoin:round;stroke-miterlimit:4;stroke-dasharray:none;stroke-opacity:1"
             d="m 160.707,251.945 49.152,49.141" /><path
             id="path40"
             style="fill:none;stroke:#FFFFFF;stroke-width:4;stroke-linecap:butt;stroke-linejoin:miter;stroke-miterlimit:4;stroke-dasharray:none;stroke-opacity:1"
             d="M 160.707,251.945 H 6.83203 V 6.82422 H 160.707" /><path
             id="path42"
             style="fill:none;stroke:#FFFFFF;stroke-width:4;stroke-linecap:butt;stroke-linejoin:miter;stroke-miterlimit:4;stroke-dasharray:none;stroke-opacity:1"
             d="M 160.707,6.82422 209.859,55.9688 V 301.086 H 55.9727 L 6.83203,251.945 H 160.707 Z" /><path
             id="path44"
             style="fill:none;stroke:#FFFFFF;stroke-width:4;stroke-linecap:butt;stroke-linejoin:miter;stroke-miterlimit:4;stroke-dasharray:none;stroke-opacity:1"
             d="m 160.707,251.945 49.152,49.141" /><path
             id="path46"
             style="fill:#FFFFFF;fill-opacity:1;fill-rule:nonzero;stroke:none"
             d="m 79.8281,66.0664 c 0,-6.0781 -13.0547,-11 -29.1601,-11 -16.1133,0 -29.1797,4.9219 -29.1797,11 0,6.0742 13.0664,10.9961 29.1797,10.9961 16.1054,0 29.1601,-4.9219 29.1601,-10.9961" /><path
             id="path48"
             style="fill:none;stroke:#FF5A00;stroke-width:3.5;stroke-linecap:round;stroke-linejoin:round;stroke-miterlimit:4;stroke-dasharray:none;stroke-opacity:1"
             d="m 79.8281,66.0664 c 0,-6.0781 -13.0547,-11 -29.1601,-11 -16.1133,0 -29.1797,4.9219 -29.1797,11 0,6.0742 13.0664,10.9961 29.1797,10.9961 16.1054,0 29.1601,-4.9219 29.1601,-10.9961 z" /><path
             id="path50"
             style="fill:#FF5A00;fill-opacity:1;fill-rule:nonzero;stroke:none"
             d="m 59.2813,66.6484 c 0,-1.8125 -3.9258,-3.2812 -8.75,-3.2812 -4.8438,0 -8.75,1.4687 -8.75,3.2812 0,1.836 3.9062,3.3243 8.75,3.3243 4.8242,0 8.75,-1.4883 8.75,-3.3243" /><path
             id="path52"
             style="fill:#FF5A00;fill-opacity:1;fill-rule:nonzero;stroke:none"
             d="m 59.2813,72.6641 c 0,-1.8125 -3.9258,-3.3008 -8.75,-3.3008 -4.8438,0 -8.75,1.4883 -8.75,3.3008 0,1.8203 3.9062,3.3047 8.75,3.3047 4.8242,0 8.75,-1.4844 8.75,-3.3047" /><path
             id="path54"
             style="fill:#FFFFFF;fill-opacity:1;fill-rule:nonzero;stroke:none"
             d="m 79.8281,78.0586 c 0,-6.0742 -13.0547,-10.9961 -29.1601,-10.9961 -16.1133,0 -29.1797,4.9219 -29.1797,10.9961 0,6.0898 13.0664,11.0117 29.1797,11.0117 16.1054,0 29.1601,-4.9219 29.1601,-11.0117" /><path
             id="path56"
             style="fill:none;stroke:#FF5A00;stroke-width:3.5;stroke-linecap:round;stroke-linejoin:round;stroke-miterlimit:4;stroke-dasharray:none;stroke-opacity:1"
             d="m 79.8281,78.0586 c 0,-6.0742 -13.0547,-10.9961 -29.1601,-10.9961 -16.1133,0 -29.1797,4.9219 -29.1797,10.9961 0,6.0898 13.0664,11.0117 29.1797,11.0117 16.1054,0 29.1601,-4.9219 29.1601,-11.0117 z" /><path
             id="path58"
             style="fill:#FF5A00;fill-opacity:1;fill-rule:nonzero;stroke:none"
             d="m 59.2813,78.6602 c 0,-1.8125 -3.9258,-3.3008 -8.75,-3.3008 -4.8438,0 -8.75,1.4883 -8.75,3.3008 0,1.8203 3.9062,3.3046 8.75,3.3046 4.8242,0 8.75,-1.4843 8.75,-3.3046" /><path
             id="path60"
             style="fill:#FF5A00;fill-opacity:1;fill-rule:nonzero;stroke:none"
             d="m 59.2813,84.6563 c 0,-1.8125 -3.9258,-3.2969 -8.75,-3.2969 -4.8438,0 -8.75,1.4844 -8.75,3.2969 0,1.8359 3.9062,3.3046 8.75,3.3046 4.8242,0 8.75,-1.4687 8.75,-3.3046" /><path
             id="path62"
             style="fill:#FFFFFF;fill-opacity:1;fill-rule:nonzero;stroke:none"
             d="m 79.8281,90.0664 c 0,-6.0742 -13.0547,-10.9961 -29.1601,-10.9961 -16.1133,0 -29.1797,4.9219 -29.1797,10.9961 0,6.0781 13.0664,10.9996 29.1797,10.9996 16.1054,0 29.1601,-4.9215 29.1601,-10.9996" /><path
             id="path64"
             style="fill:none;stroke:#FF5A00;stroke-width:3.5;stroke-linecap:round;stroke-linejoin:round;stroke-miterlimit:4;stroke-dasharray:none;stroke-opacity:1"
             d="m 79.8281,90.0664 c 0,-6.0742 -13.0547,-10.9961 -29.1601,-10.9961 -16.1133,0 -29.1797,4.9219 -29.1797,10.9961 0,6.0781 13.0664,10.9996 29.1797,10.9996 16.1054,0 29.1601,-4.9215 29.1601,-10.9996 z" /><path
             id="path66"
             style="fill:#FF5A00;fill-opacity:1;fill-rule:nonzero;stroke:none"
             d="m 59.2813,90.6523 c 0,-1.8125 -3.9258,-3.2812 -8.75,-3.2812 -4.8438,0 -8.75,1.4687 -8.75,3.2812 0,1.836 3.9062,3.3008 8.75,3.3008 4.8242,0 8.75,-1.4648 8.75,-3.3008" /><path
             id="path68"
             style="fill:#FFFFFF;fill-opacity:1;fill-rule:nonzero;stroke:none"
             d="m 79.8281,114.055 c 0,-6.059 -13.0547,-10.981 -29.1601,-10.981 -16.1133,0 -29.1797,4.922 -29.1797,10.981 0,6.093 13.0664,11.011 29.1797,11.011 16.1054,0 29.1601,-4.918 29.1601,-11.011" /><path
             id="path70"
             style="fill:none;stroke:#FF5A00;stroke-width:3.5;stroke-linecap:round;stroke-linejoin:round;stroke-miterlimit:4;stroke-dasharray:none;stroke-opacity:1"
             d="m 79.8281,114.055 c 0,-6.059 -13.0547,-10.981 -29.1601,-10.981 -16.1133,0 -29.1797,4.922 -29.1797,10.981 0,6.093 13.0664,11.011 29.1797,11.011 16.1054,0 29.1601,-4.918 29.1601,-11.011 z" /><path
             id="path72"
             style="fill:#FF5A00;fill-opacity:1;fill-rule:nonzero;stroke:none"
             d="m 59.2813,114.656 c 0,-1.812 -3.9258,-3.297 -8.75,-3.297 -4.8438,0 -8.75,1.485 -8.75,3.297 0,1.836 3.9062,3.305 8.75,3.305 4.8242,0 8.75,-1.469 8.75,-3.305" /><path
             id="path74"
             style="fill:#FF5A00;fill-opacity:1;fill-rule:nonzero;stroke:none"
             d="m 59.2813,120.652 c 0,-1.812 -3.9258,-3.281 -8.75,-3.281 -4.8438,0 -8.75,1.469 -8.75,3.281 0,1.836 3.9062,3.301 8.75,3.301 4.8242,0 8.75,-1.465 8.75,-3.301" /><path
             id="path76"
             style="fill:#FFFFFF;fill-opacity:1;fill-rule:nonzero;stroke:none"
             d="m 79.8281,126.066 c 0,-6.078 -13.0547,-11 -29.1601,-11 -16.1133,0 -29.1797,4.922 -29.1797,11 0,6.075 13.0664,10.997 29.1797,10.997 16.1054,0 29.1601,-4.922 29.1601,-10.997" /><path
             id="path78"
             style="fill:none;stroke:#FF5A00;stroke-width:3.5;stroke-linecap:round;stroke-linejoin:round;stroke-miterlimit:4;stroke-dasharray:none;stroke-opacity:1"
             d="m 79.8281,126.066 c 0,-6.078 -13.0547,-11 -29.1601,-11 -16.1133,0 -29.1797,4.922 -29.1797,11 0,6.075 13.0664,10.997 29.1797,10.997 16.1054,0 29.1601,-4.922 29.1601,-10.997 z" /><path
             id="path80"
             style="fill:#FF5A00;fill-opacity:1;fill-rule:nonzero;stroke:none"
             d="m 59.2813,126.648 c 0,-1.812 -3.9258,-3.281 -8.75,-3.281 -4.8438,0 -8.75,1.469 -8.75,3.281 0,1.836 3.9062,3.325 8.75,3.325 4.8242,0 8.75,-1.489 8.75,-3.325" /><path
             id="path82"
             style="fill:#FF5A00;fill-opacity:1;fill-rule:nonzero;stroke:none"
             d="m 59.2813,132.664 c 0,-1.812 -3.9258,-3.301 -8.75,-3.301 -4.8438,0 -8.75,1.489 -8.75,3.301 0,1.82 3.9062,3.305 8.75,3.305 4.8242,0 8.75,-1.485 8.75,-3.305" /><path
             id="path84"
             style="fill:#FFFFFF;fill-opacity:1;fill-rule:nonzero;stroke:none"
             d="m 79.8281,138.059 c 0,-6.075 -13.0547,-10.996 -29.1601,-10.996 -16.1133,0 -29.1797,4.921 -29.1797,10.996 0,6.089 13.0664,11.011 29.1797,11.011 16.1054,0 29.1601,-4.922 29.1601,-11.011" /><path
             id="path86"
             style="fill:none;stroke:#FF5A00;stroke-width:3.5;stroke-linecap:round;stroke-linejoin:round;stroke-miterlimit:4;stroke-dasharray:none;stroke-opacity:1"
             d="m 79.8281,138.059 c 0,-6.075 -13.0547,-10.996 -29.1601,-10.996 -16.1133,0 -29.1797,4.921 -29.1797,10.996 0,6.089 13.0664,11.011 29.1797,11.011 16.1054,0 29.1601,-4.922 29.1601,-11.011 z" /><path
             id="path88"
             style="fill:#FF5A00;fill-opacity:1;fill-rule:nonzero;stroke:none"
             d="m 59.2813,138.66 c 0,-1.812 -3.9258,-3.301 -8.75,-3.301 -4.8438,0 -8.75,1.489 -8.75,3.301 0,1.82 3.9062,3.305 8.75,3.305 4.8242,0 8.75,-1.485 8.75,-3.305" /><path
             id="path90"
             style="fill:#FFFFFF;fill-opacity:1;fill-rule:nonzero;stroke:none"
             d="m 79.8281,162.063 c 0,-6.079 -13.0547,-10.997 -29.1601,-10.997 -16.1133,0 -29.1797,4.918 -29.1797,10.997 0,6.074 13.0664,10.996 29.1797,10.996 16.1054,0 29.1601,-4.922 29.1601,-10.996" /><path
             id="path92"
             style="fill:none;stroke:#FF5A00;stroke-width:3.5;stroke-linecap:round;stroke-linejoin:round;stroke-miterlimit:4;stroke-dasharray:none;stroke-opacity:1"
             d="m 79.8281,162.063 c 0,-6.079 -13.0547,-10.997 -29.1601,-10.997 -16.1133,0 -29.1797,4.918 -29.1797,10.997 0,6.074 13.0664,10.996 29.1797,10.996 16.1054,0 29.1601,-4.922 29.1601,-10.996 z" /><path
             id="path94"
             style="fill:#FF5A00;fill-opacity:1;fill-rule:nonzero;stroke:none"
             d="m 59.2813,162.668 c 0,-1.816 -3.9258,-3.305 -8.75,-3.305 -4.8438,0 -8.75,1.489 -8.75,3.305 0,1.816 3.9062,3.301 8.75,3.301 4.8242,0 8.75,-1.485 8.75,-3.301" /><path
             id="path96"
             style="fill:#FF5A00;fill-opacity:1;fill-rule:nonzero;stroke:none"
             d="m 59.2813,168.66 c 0,-1.812 -3.9258,-3.301 -8.75,-3.301 -4.8438,0 -8.75,1.489 -8.75,3.301 0,1.82 3.9062,3.305 8.75,3.305 4.8242,0 8.75,-1.485 8.75,-3.305" /><path
             id="path98"
             style="fill:#FFFFFF;fill-opacity:1;fill-rule:nonzero;stroke:none"
             d="m 79.8281,174.055 c 0,-6.059 -13.0547,-10.981 -29.1601,-10.981 -16.1133,0 -29.1797,4.922 -29.1797,10.981 0,6.093 13.0664,11.011 29.1797,11.011 16.1054,0 29.1601,-4.918 29.1601,-11.011" /><path
             id="path100"
             style="fill:none;stroke:#FF5A00;stroke-width:3.5;stroke-linecap:round;stroke-linejoin:round;stroke-miterlimit:4;stroke-dasharray:none;stroke-opacity:1"
             d="m 79.8281,174.055 c 0,-6.059 -13.0547,-10.981 -29.1601,-10.981 -16.1133,0 -29.1797,4.922 -29.1797,10.981 0,6.093 13.0664,11.011 29.1797,11.011 16.1054,0 29.1601,-4.918 29.1601,-11.011 z" /><path
             id="path102"
             style="fill:#FF5A00;fill-opacity:1;fill-rule:nonzero;stroke:none"
             d="m 59.2813,174.656 c 0,-1.812 -3.9258,-3.297 -8.75,-3.297 -4.8438,0 -8.75,1.485 -8.75,3.297 0,1.836 3.9062,3.305 8.75,3.305 4.8242,0 8.75,-1.469 8.75,-3.305" /><path
             id="path104"
             style="fill:#FF5A00;fill-opacity:1;fill-rule:nonzero;stroke:none"
             d="m 59.2813,180.652 c 0,-1.812 -3.9258,-3.281 -8.75,-3.281 -4.8438,0 -8.75,1.469 -8.75,3.281 0,1.836 3.9062,3.301 8.75,3.301 4.8242,0 8.75,-1.465 8.75,-3.301" /><path
             id="path106"
             style="fill:#FFFFFF;fill-opacity:1;fill-rule:nonzero;stroke:none"
             d="m 79.8281,186.066 c 0,-6.078 -13.0547,-11 -29.1601,-11 -16.1133,0 -29.1797,4.922 -29.1797,11 0,6.075 13.0664,10.997 29.1797,10.997 16.1054,0 29.1601,-4.922 29.1601,-10.997" /><path
             id="path108"
             style="fill:none;stroke:#FF5A00;stroke-width:3.5;stroke-linecap:round;stroke-linejoin:round;stroke-miterlimit:4;stroke-dasharray:none;stroke-opacity:1"
             d="m 79.8281,186.066 c 0,-6.078 -13.0547,-11 -29.1601,-11 -16.1133,0 -29.1797,4.922 -29.1797,11 0,6.075 13.0664,10.997 29.1797,10.997 16.1054,0 29.1601,-4.922 29.1601,-10.997 z" /><path
             id="path110"
             style="fill:#FF5A00;fill-opacity:1;fill-rule:nonzero;stroke:none"
             d="m 59.2813,186.648 c 0,-1.812 -3.9258,-3.281 -8.75,-3.281 -4.8438,0 -8.75,1.469 -8.75,3.281 0,1.836 3.9062,3.325 8.75,3.325 4.8242,0 8.75,-1.489 8.75,-3.325" /><path
             id="path112"
             style="fill:#FFFFFF;fill-opacity:1;fill-rule:nonzero;stroke:none"
             d="m 144.828,66.0664 c 0,-6.0781 -13.055,-11 -29.16,-11 -16.1133,0 -29.1797,4.9219 -29.1797,11 0,6.0742 13.0664,10.9961 29.1797,10.9961 16.105,0 29.16,-4.9219 29.16,-10.9961" /><path
             id="path114"
             style="fill:none;stroke:#FF5A00;stroke-width:3.5;stroke-linecap:round;stroke-linejoin:round;stroke-miterlimit:4;stroke-dasharray:none;stroke-opacity:1"
             d="m 144.828,66.0664 c 0,-6.0781 -13.055,-11 -29.16,-11 -16.1133,0 -29.1797,4.9219 -29.1797,11 0,6.0742 13.0664,10.9961 29.1797,10.9961 16.105,0 29.16,-4.9219 29.16,-10.9961 z" /><path
             id="path116"
             style="fill:#FF5A00;fill-opacity:1;fill-rule:nonzero;stroke:none"
             d="m 124.281,66.6484 c 0,-1.8125 -3.926,-3.2812 -8.75,-3.2812 -4.843,0 -8.75,1.4687 -8.75,3.2812 0,1.836 3.907,3.3243 8.75,3.3243 4.824,0 8.75,-1.4883 8.75,-3.3243" /><path
             id="path118"
             style="fill:#FF5A00;fill-opacity:1;fill-rule:nonzero;stroke:none"
             d="m 124.281,72.6641 c 0,-1.8125 -3.926,-3.3008 -8.75,-3.3008 -4.843,0 -8.75,1.4883 -8.75,3.3008 0,1.8203 3.907,3.3047 8.75,3.3047 4.824,0 8.75,-1.4844 8.75,-3.3047" /><path
             id="path120"
             style="fill:#FFFFFF;fill-opacity:1;fill-rule:nonzero;stroke:none"
             d="m 144.828,78.0586 c 0,-6.0742 -13.055,-10.9961 -29.16,-10.9961 -16.1133,0 -29.1797,4.9219 -29.1797,10.9961 0,6.0898 13.0664,11.0117 29.1797,11.0117 16.105,0 29.16,-4.9219 29.16,-11.0117" /><path
             id="path122"
             style="fill:none;stroke:#FF5A00;stroke-width:3.5;stroke-linecap:round;stroke-linejoin:round;stroke-miterlimit:4;stroke-dasharray:none;stroke-opacity:1"
             d="m 144.828,78.0586 c 0,-6.0742 -13.055,-10.9961 -29.16,-10.9961 -16.1133,0 -29.1797,4.9219 -29.1797,10.9961 0,6.0898 13.0664,11.0117 29.1797,11.0117 16.105,0 29.16,-4.9219 29.16,-11.0117 z" /><path
             id="path124"
             style="fill:#FF5A00;fill-opacity:1;fill-rule:nonzero;stroke:none"
             d="m 124.281,78.6602 c 0,-1.8125 -3.926,-3.3008 -8.75,-3.3008 -4.843,0 -8.75,1.4883 -8.75,3.3008 0,1.8203 3.907,3.3046 8.75,3.3046 4.824,0 8.75,-1.4843 8.75,-3.3046" /><path
             id="path126"
             style="fill:#FF5A00;fill-opacity:1;fill-rule:nonzero;stroke:none"
             d="m 124.281,84.6563 c 0,-1.8125 -3.926,-3.2969 -8.75,-3.2969 -4.843,0 -8.75,1.4844 -8.75,3.2969 0,1.8359 3.907,3.3046 8.75,3.3046 4.824,0 8.75,-1.4687 8.75,-3.3046" /><path
             id="path128"
             style="fill:#FFFFFF;fill-opacity:1;fill-rule:nonzero;stroke:none"
             d="m 144.828,90.0664 c 0,-6.0742 -13.055,-10.9961 -29.16,-10.9961 -16.1133,0 -29.1797,4.9219 -29.1797,10.9961 0,6.0781 13.0664,10.9996 29.1797,10.9996 16.105,0 29.16,-4.9215 29.16,-10.9996" /><path
             id="path130"
             style="fill:none;stroke:#FF5A00;stroke-width:3.5;stroke-linecap:round;stroke-linejoin:round;stroke-miterlimit:4;stroke-dasharray:none;stroke-opacity:1"
             d="m 144.828,90.0664 c 0,-6.0742 -13.055,-10.9961 -29.16,-10.9961 -16.1133,0 -29.1797,4.9219 -29.1797,10.9961 0,6.0781 13.0664,10.9996 29.1797,10.9996 16.105,0 29.16,-4.9215 29.16,-10.9996 z" /><path
             id="path132"
             style="fill:#FF5A00;fill-opacity:1;fill-rule:nonzero;stroke:none"
             d="m 124.281,90.6523 c 0,-1.8125 -3.926,-3.2812 -8.75,-3.2812 -4.843,0 -8.75,1.4687 -8.75,3.2812 0,1.836 3.907,3.3008 8.75,3.3008 4.824,0 8.75,-1.4648 8.75,-3.3008" /><path
             id="path134"
             style="fill:#FFFFFF;fill-opacity:1;fill-rule:nonzero;stroke:none"
             d="m 144.828,114.055 c 0,-6.059 -13.055,-10.981 -29.16,-10.981 -16.1133,0 -29.1797,4.922 -29.1797,10.981 0,6.093 13.0664,11.011 29.1797,11.011 16.105,0 29.16,-4.918 29.16,-11.011" /><path
             id="path136"
             style="fill:none;stroke:#FF5A00;stroke-width:3.5;stroke-linecap:round;stroke-linejoin:round;stroke-miterlimit:4;stroke-dasharray:none;stroke-opacity:1"
             d="m 144.828,114.055 c 0,-6.059 -13.055,-10.981 -29.16,-10.981 -16.1133,0 -29.1797,4.922 -29.1797,10.981 0,6.093 13.0664,11.011 29.1797,11.011 16.105,0 29.16,-4.918 29.16,-11.011 z" /><path
             id="path138"
             style="fill:#FF5A00;fill-opacity:1;fill-rule:nonzero;stroke:none"
             d="m 124.281,114.656 c 0,-1.812 -3.926,-3.297 -8.75,-3.297 -4.843,0 -8.75,1.485 -8.75,3.297 0,1.836 3.907,3.305 8.75,3.305 4.824,0 8.75,-1.469 8.75,-3.305" /><path
             id="path140"
             style="fill:#FF5A00;fill-opacity:1;fill-rule:nonzero;stroke:none"
             d="m 124.281,120.652 c 0,-1.812 -3.926,-3.281 -8.75,-3.281 -4.843,0 -8.75,1.469 -8.75,3.281 0,1.836 3.907,3.301 8.75,3.301 4.824,0 8.75,-1.465 8.75,-3.301" /><path
             id="path142"
             style="fill:#FFFFFF;fill-opacity:1;fill-rule:nonzero;stroke:none"
             d="m 144.828,126.066 c 0,-6.078 -13.055,-11 -29.16,-11 -16.1133,0 -29.1797,4.922 -29.1797,11 0,6.075 13.0664,10.997 29.1797,10.997 16.105,0 29.16,-4.922 29.16,-10.997" /><path
             id="path144"
             style="fill:none;stroke:#FF5A00;stroke-width:3.5;stroke-linecap:round;stroke-linejoin:round;stroke-miterlimit:4;stroke-dasharray:none;stroke-opacity:1"
             d="m 144.828,126.066 c 0,-6.078 -13.055,-11 -29.16,-11 -16.1133,0 -29.1797,4.922 -29.1797,11 0,6.075 13.0664,10.997 29.1797,10.997 16.105,0 29.16,-4.922 29.16,-10.997 z" /><path
             id="path146"
             style="fill:#FF5A00;fill-opacity:1;fill-rule:nonzero;stroke:none"
             d="m 124.281,126.648 c 0,-1.812 -3.926,-3.281 -8.75,-3.281 -4.843,0 -8.75,1.469 -8.75,3.281 0,1.836 3.907,3.325 8.75,3.325 4.824,0 8.75,-1.489 8.75,-3.325" /><path
             id="path148"
             style="fill:#FF5A00;fill-opacity:1;fill-rule:nonzero;stroke:none"
             d="m 124.281,132.664 c 0,-1.812 -3.926,-3.301 -8.75,-3.301 -4.843,0 -8.75,1.489 -8.75,3.301 0,1.82 3.907,3.305 8.75,3.305 4.824,0 8.75,-1.485 8.75,-3.305" /><path
             id="path150"
             style="fill:#FFFFFF;fill-opacity:1;fill-rule:nonzero;stroke:none"
             d="m 144.828,138.059 c 0,-6.075 -13.055,-10.996 -29.16,-10.996 -16.1133,0 -29.1797,4.921 -29.1797,10.996 0,6.089 13.0664,11.011 29.1797,11.011 16.105,0 29.16,-4.922 29.16,-11.011" /><path
             id="path152"
             style="fill:none;stroke:#FF5A00;stroke-width:3.5;stroke-linecap:round;stroke-linejoin:round;stroke-miterlimit:4;stroke-dasharray:none;stroke-opacity:1"
             d="m 144.828,138.059 c 0,-6.075 -13.055,-10.996 -29.16,-10.996 -16.1133,0 -29.1797,4.921 -29.1797,10.996 0,6.089 13.0664,11.011 29.1797,11.011 16.105,0 29.16,-4.922 29.16,-11.011 z" /><path
             id="path154"
             style="fill:#FF5A00;fill-opacity:1;fill-rule:nonzero;stroke:none"
             d="m 124.281,138.66 c 0,-1.812 -3.926,-3.301 -8.75,-3.301 -4.843,0 -8.75,1.489 -8.75,3.301 0,1.82 3.907,3.305 8.75,3.305 4.824,0 8.75,-1.485 8.75,-3.305" /><path
             id="path156"
             style="fill:#FFFFFF;fill-opacity:1;fill-rule:nonzero;stroke:none"
             d="m 144.828,162.063 c 0,-6.079 -13.055,-10.997 -29.16,-10.997 -16.1133,0 -29.1797,4.918 -29.1797,10.997 0,6.074 13.0664,10.996 29.1797,10.996 16.105,0 29.16,-4.922 29.16,-10.996" /><path
             id="path158"
             style="fill:none;stroke:#FF5A00;stroke-width:3.5;stroke-linecap:round;stroke-linejoin:round;stroke-miterlimit:4;stroke-dasharray:none;stroke-opacity:1"
             d="m 144.828,162.063 c 0,-6.079 -13.055,-10.997 -29.16,-10.997 -16.1133,0 -29.1797,4.918 -29.1797,10.997 0,6.074 13.0664,10.996 29.1797,10.996 16.105,0 29.16,-4.922 29.16,-10.996 z" /><path
             id="path160"
             style="fill:#FF5A00;fill-opacity:1;fill-rule:nonzero;stroke:none"
             d="m 124.281,162.668 c 0,-1.816 -3.926,-3.305 -8.75,-3.305 -4.843,0 -8.75,1.489 -8.75,3.305 0,1.816 3.907,3.301 8.75,3.301 4.824,0 8.75,-1.485 8.75,-3.301" /><path
             id="path162"
             style="fill:#FF5A00;fill-opacity:1;fill-rule:nonzero;stroke:none"
             d="m 124.281,168.66 c 0,-1.812 -3.926,-3.301 -8.75,-3.301 -4.843,0 -8.75,1.489 -8.75,3.301 0,1.82 3.907,3.305 8.75,3.305 4.824,0 8.75,-1.485 8.75,-3.305" /><path
             id="path164"
             style="fill:#FFFFFF;fill-opacity:1;fill-rule:nonzero;stroke:none"
             d="m 144.828,174.055 c 0,-6.059 -13.055,-10.981 -29.16,-10.981 -16.1133,0 -29.1797,4.922 -29.1797,10.981 0,6.093 13.0664,11.011 29.1797,11.011 16.105,0 29.16,-4.918 29.16,-11.011" /><path
             id="path166"
             style="fill:none;stroke:#FF5A00;stroke-width:3.5;stroke-linecap:round;stroke-linejoin:round;stroke-miterlimit:4;stroke-dasharray:none;stroke-opacity:1"
             d="m 144.828,174.055 c 0,-6.059 -13.055,-10.981 -29.16,-10.981 -16.1133,0 -29.1797,4.922 -29.1797,10.981 0,6.093 13.0664,11.011 29.1797,11.011 16.105,0 29.16,-4.918 29.16,-11.011 z" /><path
             id="path168"
             style="fill:#FF5A00;fill-opacity:1;fill-rule:nonzero;stroke:none"
             d="m 124.281,174.656 c 0,-1.812 -3.926,-3.297 -8.75,-3.297 -4.843,0 -8.75,1.485 -8.75,3.297 0,1.836 3.907,3.305 8.75,3.305 4.824,0 8.75,-1.469 8.75,-3.305" /><path
             id="path170"
             style="fill:#FF5A00;fill-opacity:1;fill-rule:nonzero;stroke:none"
             d="m 124.281,180.652 c 0,-1.812 -3.926,-3.281 -8.75,-3.281 -4.843,0 -8.75,1.469 -8.75,3.281 0,1.836 3.907,3.301 8.75,3.301 4.824,0 8.75,-1.465 8.75,-3.301" /><path
             id="path172"
             style="fill:#FFFFFF;fill-opacity:1;fill-rule:nonzero;stroke:none"
             d="m 144.828,186.066 c 0,-6.078 -13.055,-11 -29.16,-11 -16.1133,0 -29.1797,4.922 -29.1797,11 0,6.075 13.0664,10.997 29.1797,10.997 16.105,0 29.16,-4.922 29.16,-10.997" /><path
             id="path174"
             style="fill:none;stroke:#FF5A00;stroke-width:3.5;stroke-linecap:round;stroke-linejoin:round;stroke-miterlimit:4;stroke-dasharray:none;stroke-opacity:1"
             d="m 144.828,186.066 c 0,-6.078 -13.055,-11 -29.16,-11 -16.1133,0 -29.1797,4.922 -29.1797,11 0,6.075 13.0664,10.997 29.1797,10.997 16.105,0 29.16,-4.922 29.16,-10.997 z" /><path
             id="path176"
             style="fill:#FF5A00;fill-opacity:1;fill-rule:nonzero;stroke:none"
             d="m 124.281,186.648 c 0,-1.812 -3.926,-3.281 -8.75,-3.281 -4.843,0 -8.75,1.469 -8.75,3.281 0,1.836 3.907,3.325 8.75,3.325 4.824,0 8.75,-1.489 8.75,-3.325" /></g></g></g></g></svg>