<?xml version="1.0" encoding="UTF-8" standalone="no"?>
<svg
   xmlns:dc="http://purl.org/dc/elements/1.1/"
   xmlns:cc="http://creativecommons.org/ns#"
   xmlns:rdf="http://www.w3.org/1999/02/22-rdf-syntax-ns#"
   xmlns:svg="http://www.w3.org/2000/svg"
   xmlns="http://www.w3.org/2000/svg"
   viewBox="0 0 41.066666 30.733334"
   height="30.733334"
   width="41.066666"
   xml:space="preserve"
   id="svg2"
   version="1.1"><metadata
     id="metadata8"><rdf:RDF><cc:Work
         rdf:about=""><dc:format>image/svg+xml</dc:format><dc:type
           rdf:resource="http://purl.org/dc/dcmitype/StillImage" /></cc:Work></rdf:RDF></metadata><defs
     id="defs6" /><g
     transform="matrix(1.3333333,0,0,-1.3333333,0,30.733333)"
     id="g10"><g
       transform="scale(0.1)"
       id="g12"><path
         id="path14"
         style="fill:#FF5A00;fill-opacity:1;fill-rule:nonzero;stroke:none"
         d="m 4.04297,5.8125 h 209.844 V 55.0703 H 4.04297 Z" /><path
         id="path16"
         style="fill:none;stroke:#ffffff;stroke-width:3.99993992;stroke-linecap:butt;stroke-linejoin:miter;stroke-miterlimit:4;stroke-dasharray:none;stroke-opacity:1"
         d="M 4.04297,5.8125 V 55.0703 H 213.887 V 5.8125 Z" /><path
         id="path18"
         style="fill:#FF5A00;fill-opacity:1;fill-rule:nonzero;stroke:none"
         d="M 213.887,55.0703 H 3.80859 L 103.652,199.973 H 304.434 L 213.887,55.0703" /><path
         id="path20"
         style="fill:none;stroke:#ffffff;stroke-width:3.99993992;stroke-linecap:butt;stroke-linejoin:miter;stroke-miterlimit:4;stroke-dasharray:none;stroke-opacity:1"
         d="M 213.887,55.0703 H 3.80859 L 103.652,199.973 h 200.782 z" /><path
         id="path22"
         style="fill:#FF5A00;fill-opacity:1;fill-rule:nonzero;stroke:none"
         d="M 304.434,197.813 V 107.336 L 213.887,5.26563 V 52.9023 l 90.547,144.9107" /><path
         id="path24"
         style="fill:none;stroke:#ffffff;stroke-width:3.99993992;stroke-linecap:butt;stroke-linejoin:miter;stroke-miterlimit:4;stroke-dasharray:none;stroke-opacity:1"
         d="M 304.434,197.813 V 107.336 L 213.887,5.26563 V 52.9023 Z" /><path
         id="path26"
         style="fill:#FF5A00;fill-opacity:1;fill-rule:nonzero;stroke:none"
         d="m 143.75,173.613 c -12.91,-14.812 -28.809,-32.097 -39.004,-48.867 l 0.859,-15.207 -31.7964,-49.1171 -3.6914,36.289 C 76.1719,120.898 151.25,215.969 168.516,227.199 l 5.859,-31.972 -29.824,-36.133 -0.801,14.519" /><path
         id="path28"
         style="fill:none;stroke:#ffffff;stroke-width:3.99993992;stroke-linecap:butt;stroke-linejoin:miter;stroke-miterlimit:4;stroke-dasharray:none;stroke-opacity:1"
         d="m 143.75,173.613 c -12.91,-14.812 -28.809,-32.097 -39.004,-48.867 l 0.859,-15.207 -31.7964,-49.1171 -3.6914,36.289 C 76.1719,120.898 151.25,215.969 168.516,227.199 l 5.859,-31.972 -29.824,-36.133 z" /><path
         id="path30"
         style="fill:#FF5A00;fill-opacity:1;fill-rule:nonzero;stroke:none"
         d="m 32.5586,96.7109 -3.6914,-36.289 h 44.9414 l -3.6914,36.289 H 32.5586" /><path
         id="path32"
         style="fill:none;stroke:#ffffff;stroke-width:3.99993992;stroke-linecap:butt;stroke-linejoin:miter;stroke-miterlimit:4;stroke-dasharray:none;stroke-opacity:1"
         d="m 32.5586,96.7109 -3.6914,-36.289 h 44.9414 l -3.6914,36.289 z" /><path
         id="path34"
         style="fill:#FF5A00;fill-opacity:1;fill-rule:nonzero;stroke:none"
         d="M 168.516,227.199 C 151.25,215.969 76.1719,120.898 70.1172,96.7109 H 32.5586 C 38.5938,120.898 113.672,215.969 130.957,227.199 h 37.559" /><path
         id="path36"
         style="fill:none;stroke:#ffffff;stroke-width:3.99993992;stroke-linecap:butt;stroke-linejoin:miter;stroke-miterlimit:4;stroke-dasharray:none;stroke-opacity:1"
         d="M 168.516,227.199 C 151.25,215.969 76.1719,120.898 70.1172,96.7109 H 32.5586 C 38.5938,120.898 113.672,215.969 130.957,227.199 Z" /><path
         id="path38"
         style="fill:#FF5A00;fill-opacity:1;fill-rule:nonzero;stroke:none"
         d="M 112.246,69.6172 H 98.7305 l 6.4645,7.5 h 13.535 l -6.484,-7.5" /><path
         id="path40"
         style="fill:none;stroke:#ffffff;stroke-width:3.99993992;stroke-linecap:butt;stroke-linejoin:miter;stroke-miterlimit:4;stroke-dasharray:none;stroke-opacity:1"
         d="M 112.246,69.6172 H 98.7305 l 6.4645,7.5 h 13.535 z" /><path
         id="path42"
         style="fill:#FF5A00;fill-opacity:1;fill-rule:nonzero;stroke:none"
         d="M 142.246,69.6172 H 128.73 l 6.465,7.5 h 13.535 l -6.484,-7.5" /><path
         id="path44"
         style="fill:none;stroke:#ffffff;stroke-width:3.99993992;stroke-linecap:butt;stroke-linejoin:miter;stroke-miterlimit:4;stroke-dasharray:none;stroke-opacity:1"
         d="M 142.246,69.6172 H 128.73 l 6.465,7.5 h 13.535 z" /><path
         id="path46"
         style="fill:#FF5A00;fill-opacity:1;fill-rule:nonzero;stroke:none"
         d="M 172.246,69.6172 H 158.73 l 6.465,7.5 h 13.535 l -6.484,-7.5" /><path
         id="path48"
         style="fill:none;stroke:#ffffff;stroke-width:3.99993992;stroke-linecap:butt;stroke-linejoin:miter;stroke-miterlimit:4;stroke-dasharray:none;stroke-opacity:1"
         d="M 172.246,69.6172 H 158.73 l 6.465,7.5 h 13.535 z" /><path
         id="path50"
         style="fill:#FF5A00;fill-opacity:1;fill-rule:nonzero;stroke:none"
         d="M 202.246,69.6172 H 188.73 l 6.465,7.5 h 13.535 l -6.484,-7.5" /><path
         id="path52"
         style="fill:none;stroke:#ffffff;stroke-width:3.99993992;stroke-linecap:butt;stroke-linejoin:miter;stroke-miterlimit:4;stroke-dasharray:none;stroke-opacity:1"
         d="M 202.246,69.6172 H 188.73 l 6.465,7.5 h 13.535 z" /></g></g></svg>