<?xml version="1.0" encoding="utf-8"?>
<!-- Generator: Adobe Illustrator 20.1.0, SVG Export Plug-In . SVG Version: 6.00 Build 0)  -->
<svg version="1.1" id="Layer_1" xmlns="http://www.w3.org/2000/svg" xmlns:xlink="http://www.w3.org/1999/xlink" x="0px" y="0px"
	 viewBox="0 0 41.3 74.3" style="enable-background:new 0 0 41.3 74.3;" xml:space="preserve">
<style type="text/css">
	.st0{fill:#FF5A00;stroke:#FFFFFF;stroke-width:0.8;}
	.st1{fill:#FFFFFF;stroke:#FFFFFF;stroke-width:0.8;}
</style>
<g>
	<rect x="3.8" y="6.8" class="st0" width="29.9" height="63.9"/>
	<polygon class="st0" points="3.8,6.8 9.6,1.1 38.4,1.1 33.8,6.8 	"/>
	<polygon class="st0" points="33.8,70.7 38.4,61.8 38.4,1.1 33.8,6.8 	"/>
	<polygon class="st0" points="36.2,73.5 33.8,70.7 3.8,70.7 1,73.5 	"/>
	<polygon class="st0" points="36.2,73.5 40.8,63.6 38.4,61.8 33.8,70.7 	"/>
	<line class="st1" x1="33.8" y1="70.7" x2="3.8" y2="70.7"/>
	<line class="st1" x1="38.4" y1="61.8" x2="33.8" y2="70.7"/>
	<line class="st0" x1="3.9" y1="9.8" x2="33.7" y2="9.8"/>
	<line class="st0" x1="3.8" y1="10.1" x2="33.6" y2="10.1"/>
	<g>
		<polyline class="st1" points="27.6,17.8 5.9,17.8 5.9,19.8 9.9,19.8 		"/>
		<polyline class="st1" points="27.6,21.5 5.9,21.5 5.9,23.5 9.9,23.5 		"/>
		<polyline class="st1" points="27.6,25.2 5.9,25.2 5.9,27.2 9.9,27.2 		"/>
		<polyline class="st1" points="27.6,28.9 5.9,28.9 5.9,30.9 9.9,30.9 		"/>
		<polyline class="st1" points="27.6,32.6 5.9,32.6 5.9,34.6 9.9,34.6 		"/>
		<polyline class="st1" points="27.6,36.3 5.9,36.3 5.9,38.3 9.9,38.3 		"/>
		<polyline class="st1" points="27.6,40 5.9,40 5.9,42 9.9,42 		"/>
		<polyline class="st1" points="27.6,43.7 5.9,43.7 5.9,45.7 9.9,45.7 		"/>
		<polyline class="st1" points="27.6,47.4 5.9,47.4 5.9,49.4 9.9,49.4 		"/>
		<polyline class="st1" points="27.6,51.1 5.9,51.1 5.9,53.1 9.9,53.1 		"/>
		<polyline class="st1" points="27.6,54.8 5.9,54.8 5.9,56.8 9.9,56.8 		"/>
		<polyline class="st1" points="27.6,58.6 5.9,58.6 5.9,60.6 9.9,60.6 		"/>
		<polyline class="st1" points="27.6,62.3 5.9,62.3 5.9,64.3 9.9,64.3 		"/>
		<polyline class="st1" points="27.6,66 5.9,66 5.9,68 9.9,68 		"/>
	</g>
</g>
</svg>
