<?xml version="1.0" encoding="utf-8"?>
<!-- Generator: Adobe Illustrator 20.1.0, SVG Export Plug-In . SVG Version: 6.00 Build 0)  -->
<svg version="1.1" id="Layer_1" xmlns="http://www.w3.org/2000/svg" xmlns:xlink="http://www.w3.org/1999/xlink" x="0px" y="0px"
	 viewBox="0 0 48.4 22.5" style="enable-background:new 0 0 48.4 22.5;" xml:space="preserve">
<style type="text/css">
	.st0{fill:none;stroke:#FFFFFF;stroke-width:3;}
	.st1{fill:none;stroke:#FF5A00;stroke-width:3;}
	.st2{fill:none;stroke:#FF5A00;stroke-width:3;}
	.st3{fill:#FFFFFF;}
	.st4{fill:#FF5A00;}
</style>
<g>
	<g>
		<circle class="st0" cx="13.2" cy="7.9" r="4.5"/>
		<circle class="st0" cx="13.2" cy="16.6" r="4.5"/>
		<circle class="st0" cx="6.6" cy="12.2" r="3.6"/>
		<g>
			<path class="st0" d="M17.3,5.1c0,1.7,0.7,3.2,1.4,4.7c0.5,1.2,1.7,2.2,3,2.7"/>
			<path class="st0" d="M17.3,19.6c0-1.7,0.7-3.2,1.4-4.7c0.5-1.2,1.7-2.2,3-2.7"/>
		</g>
	</g>
	<g>
		<circle class="st1" cx="11.7" cy="6" r="4.5"/>
		<circle class="st1" cx="11.7" cy="14.7" r="4.5"/>
		<circle class="st1" cx="5.1" cy="10.3" r="3.6"/>
		<g>
			<path class="st1" d="M15.9,3.2c0,1.7,0.7,3.2,1.4,4.7c0.5,1.2,1.7,2.2,3,2.7"/>
			<path class="st2" d="M15.9,17.7c0-1.7,0.7-3.2,1.4-4.7c0.5-1.2,1.7-2.2,3-2.7"/>
		</g>
	</g>
	<path class="st3" d="M48.4,15.1v-4.7H28c-0.3-1.1-0.8-1.9-1.3-1.9c-0.6,0-1.1,0.7-1.3,1.9H25c-0.3-1.2-0.8-1.9-1.3-1.9
		c-0.6,0-1.1,0.8-1.3,1.9h-3.4v3.8h3.5c0.3,1.1,0.8,1.8,1.3,1.8c0.5,0,1-0.7,1.3-1.8h0.4c0.3,1.1,0.8,1.9,1.3,1.9
		c0.6,0,1.1-0.7,1.3-1.9h15.3v7.5h4.9v-1.8h-2.2v-1.3h2.3v-1.8h-2.3v-1.7H48.4z"/>
	<path class="st4" d="M46.9,13.2V8.5H26.5c-0.3-1.1-0.8-1.9-1.3-1.9c-0.6,0-1.1,0.7-1.3,1.9h-0.3c-0.3-1.2-0.8-1.9-1.3-1.9
		c-0.6,0-1.1,0.8-1.3,1.9h-3.4v3.8h3.5c0.3,1.1,0.8,1.8,1.3,1.8c0.5,0,1-0.7,1.3-1.8h0.4c0.3,1.1,0.8,1.9,1.3,1.9
		c0.6,0,1.1-0.7,1.3-1.9h15.3v7.5h4.9V18h-2.2v-1.3h2.3v-1.8h-2.3v-1.7H46.9z"/>
</g>
</svg>
