<?xml version="1.0" encoding="utf-8"?>
<!-- Generator: Adobe Illustrator 20.1.0, SVG Export Plug-In . SVG Version: 6.00 Build 0)  -->
<svg version="1.1" id="Layer_1" xmlns="http://www.w3.org/2000/svg" xmlns:xlink="http://www.w3.org/1999/xlink" x="0px" y="0px"
	 viewBox="0 0 97.6 55" style="enable-background:new 0 0 97.6 55;" xml:space="preserve">
<style type="text/css">
	.st0{fill:#FF5A00;stroke:#FFFFFF;stroke-width:0.8;}
	.st1{fill:none;stroke:#FFFFFF;stroke-width:0.9;stroke-linecap:round;stroke-miterlimit:1;}
	.st2{fill:none;stroke:#FFFFFF;stroke-width:1.8;stroke-linecap:round;stroke-miterlimit:1;}
	.st3{fill:none;stroke:#FF5A00;stroke-width:0.9;stroke-linecap:round;stroke-miterlimit:1;}
	.st4{fill:none;stroke:#FF5A00;stroke-width:1.8;stroke-linecap:round;stroke-miterlimit:1;}
	.st5{fill:#FFFFFF;}
	.st6{font-family:'Helvetica-Bold';}
	.st7{font-size:17.3267px;}
</style>
	<g>
	<polygon class="st0" points="1.1,24.2 30,0.9 96.6,0.9 72.7,24.2 	"/>
	<polygon class="st0" points="72.7,54 96.6,29.7 96.6,0.9 72.7,24.2 	"/>
	<rect x="1.2" y="24.2" class="st0" width="71.5" height="29.8"/>
	<g>
		<path class="st1" d="M68.7,40c0,0-4.8,12.2-10.5,0c-5.7-12.3-10.5,0-10.5,0s-4.8,12.2-10.5,0C31.6,27.6,26.8,40,26.8,40
			s-4.7,12.2-10.5,0c-5.7-12.3-10.5,0-10.5,0"/>
		<path class="st2" d="M5.9,40c0,0,4.8,12.2,10.5,0c5.7-12.3,10.5,0,10.5,0s4.8,12.2,10.5,0C43,27.6,47.8,40,47.8,40
			s4.7,12.2,10.5,0c5.7-12.3,10.5,0,10.5,0"/>
	</g>
	<g>
		<g>
			<path class="st3" d="M69.8,40c0,0-4.8,12.2-10.5,0c-5.7-12.3-10.5,0-10.5,0s-4.8,12.2-10.5,0C32.7,27.6,27.9,40,27.9,40
				s-4.7,12.2-10.5,0c-5.7-12.3-10.5,0-10.5,0"/>
			<path class="st4" d="M7,40c0,0,4.8,12.2,10.5,0c5.7-12.3,10.5,0,10.5,0s4.8,12.2,10.5,0C44.1,27.6,48.9,40,48.9,40
				s4.7,12.2,10.5,0c5.7-12.3,10.5,0,10.5,0"/>
		</g>
		<g>
			<path class="st1" d="M68.7,40c0,0-4.8,12.2-10.5,0c-5.7-12.3-10.5,0-10.5,0s-4.8,12.2-10.5,0C31.6,27.6,26.8,40,26.8,40
				s-4.7,12.2-10.5,0c-5.7-12.3-10.5,0-10.5,0"/>
			<path class="st2" d="M5.9,40c0,0,4.8,12.2,10.5,0c5.7-12.3,10.5,0,10.5,0s4.8,12.2,10.5,0C43,27.6,47.8,40,47.8,40
				s4.7,12.2,10.5,0c5.7-12.3,10.5,0,10.5,0"/>
		</g>
	</g>
	<g>
		<g>
			<path class="st3" d="M69.8,40c0,0-4.8,12.2-10.5,0c-5.7-12.3-10.5,0-10.5,0s-4.8,12.2-10.5,0C32.7,27.6,27.9,40,27.9,40
				s-4.7,12.2-10.5,0c-5.7-12.3-10.5,0-10.5,0"/>
			<path class="st4" d="M7,40c0,0,4.8,12.2,10.5,0c5.7-12.3,10.5,0,10.5,0s4.8,12.2,10.5,0C44.1,27.6,48.9,40,48.9,40
				s4.7,12.2,10.5,0c5.7-12.3,10.5,0,10.5,0"/>
		</g>
		<g>
			<path class="st1" d="M68.7,40c0,0-4.8,12.2-10.5,0c-5.7-12.3-10.5,0-10.5,0s-4.8,12.2-10.5,0C31.6,27.6,26.8,40,26.8,40
				s-4.7,12.2-10.5,0c-5.7-12.3-10.5,0-10.5,0"/>
			<path class="st2" d="M5.9,40c0,0,4.8,12.2,10.5,0c5.7-12.3,10.5,0,10.5,0s4.8,12.2,10.5,0C43,27.6,47.8,40,47.8,40
				s4.7,12.2,10.5,0c5.7-12.3,10.5,0,10.5,0"/>
		</g>
	</g>
	<g>
		<text transform="matrix(0.9999 0 -0.8948 0.7696 12.8699 17.4471)" class="st5 st6 st7">L</text>
		<text transform="matrix(0.9999 0 -0.8948 0.7696 19.6629 17.4471)" class="st5 st6 st7">W</text>
		<text transform="matrix(0.9999 0 -0.8948 0.7696 33.2801 17.4471)" class="st5 st6 st7">APP</text>
	</g>
</g>
</svg>
