<?xml version="1.0" encoding="UTF-8" standalone="no"?>
<svg
   xmlns:dc="http://purl.org/dc/elements/1.1/"
   xmlns:cc="http://creativecommons.org/ns#"
   xmlns:rdf="http://www.w3.org/1999/02/22-rdf-syntax-ns#"
   xmlns:svg="http://www.w3.org/2000/svg"
   xmlns="http://www.w3.org/2000/svg"
   viewBox="0 0 33.493332 44.880001"
   height="44.880001"
   width="33.493332"
   xml:space="preserve"
   id="svg2"
   version="1.1"><metadata
     id="metadata8"><rdf:RDF><cc:Work
         rdf:about=""><dc:format>image/svg+xml</dc:format><dc:type
           rdf:resource="http://purl.org/dc/dcmitype/StillImage" /></cc:Work></rdf:RDF></metadata><defs
     id="defs6" /><g
     transform="matrix(1.3333333,0,0,-1.3333333,0,44.88)"
     id="g10"><g
       transform="scale(0.1)"
       id="g12"><path
         id="path14"
         style="fill:#FF5A00;fill-opacity:1;fill-rule:nonzero;stroke:none"
         d="M 246.234,240.715 205.16,201.711 H 5.96094 L 57.5625,240.715 H 246.234" /><path
         id="path16"
         style="fill:none;stroke:#FFFFFF;stroke-width:4;stroke-linecap:round;stroke-linejoin:round;stroke-miterlimit:4;stroke-dasharray:none;stroke-opacity:1"
         d="M 246.234,240.715 205.16,201.711 H 5.96094 l 51.60156,39.004 z" /><path
         id="path18"
         style="fill:#FF5A00;fill-opacity:1;fill-rule:nonzero;stroke:none"
         d="M 205.16,4.71875 V 201.711 H 5.96094 V 4.71875 H 205.16" /><path
         id="path20"
         style="fill:none;stroke:#FFFFFF;stroke-width:4;stroke-linecap:butt;stroke-linejoin:miter;stroke-miterlimit:4;stroke-dasharray:none;stroke-opacity:1"
         d="M 205.16,4.71875 V 201.711 H 5.96094 V 4.71875 Z" /><path
         id="path22"
         style="fill:#FF5A00;fill-opacity:1;fill-rule:nonzero;stroke:none"
         d="M 242.164,41.7109 V 238.703 L 203.969,201.711 V 4.71875 l 38.195,36.99215" /><path
         id="path24"
         style="fill:none;stroke:#FFFFFF;stroke-width:4;stroke-linecap:butt;stroke-linejoin:miter;stroke-miterlimit:4;stroke-dasharray:none;stroke-opacity:1"
         d="M 242.164,41.7109 V 238.703 L 203.969,201.711 V 4.71875 Z" /><path
         id="path26"
         style="fill:#FFFFFF;fill-opacity:1;fill-rule:nonzero;stroke:none"
         d="M 76.7227,108.527 H 33.8516 v 11.051 L 17.6797,103.273 33.8516,86.9453 v 11.0508 h 42.8711 v 10.5309" /><path
         id="path28"
         style="fill:#FFFFFF;fill-opacity:1;fill-rule:nonzero;stroke:none"
         d="M 100.961,73.7813 V 30.9102 H 89.8867 l 16.3203,-16.1719 16.328,16.1719 h -11.066 v 42.8711 h -10.508" /><path
         id="path30"
         style="fill:#FFFFFF;fill-opacity:1;fill-rule:nonzero;stroke:none"
         d="m 100.961,131.516 v 42.871 H 89.8867 l 16.3203,16.172 16.328,-16.172 h -11.066 v -42.871 h -10.508" /><path
         id="path32"
         style="fill:#FFFFFF;fill-opacity:1;fill-rule:nonzero;stroke:none"
         d="M 135.699,97.9961 H 178.57 V 86.9453 l 16.18,16.3277 -16.18,16.305 V 108.527 H 135.699 V 97.9961" /><path
         id="path34"
         style="fill:none;stroke:#FFFFFF;stroke-width:4;stroke-linecap:butt;stroke-linejoin:miter;stroke-miterlimit:4;stroke-dasharray:none;stroke-opacity:1"
         d="M 175.18,34.4453 C 167.133,25.9492 130.16,49.3086 92.6328,86.5938 55.082,123.898 31.1875,161.027 39.2344,169.523 47.2813,178.02 84.2539,154.66 121.793,117.355 159.332,80.0703 183.227,42.9414 175.18,34.4453 Z" /><path
         id="path36"
         style="fill:none;stroke:#FFFFFF;stroke-width:4;stroke-linecap:butt;stroke-linejoin:miter;stroke-miterlimit:4;stroke-dasharray:none;stroke-opacity:1"
         d="m 173.043,170.148 c 8.496,-8.046 -14.863,-45 -52.16,-82.5386 C 83.5781,50.0703 46.4609,26.1602 37.9648,34.2109 c -8.496,8.0469 14.8516,45.0196 52.1563,82.5591 37.2969,37.539 74.4139,61.445 82.9219,53.378 z" /><path
         id="path38"
         style="fill:#FFFFFF;fill-opacity:1;fill-rule:nonzero;stroke:none"
         d="m 123.793,78.3516 c 14.16,9.9218 17.598,29.4144 7.687,43.5744 -9.921,14.16 -29.425,17.597 -43.5855,7.691 C 73.7344,119.719 70.2969,100.188 80.2188,86.0469 90.1211,71.8867 109.633,68.4492 123.793,78.3516" /><path
         id="path40"
         style="fill:#FF5A00;fill-opacity:1;fill-rule:nonzero;stroke:none"
         d="M 246.234,333.879 205.16,294.883 H 5.96094 L 57.5625,333.879 H 246.234" /><path
         id="path42"
         style="fill:none;stroke:#FFFFFF;stroke-width:4;stroke-linecap:butt;stroke-linejoin:miter;stroke-miterlimit:4;stroke-dasharray:none;stroke-opacity:1"
         d="M 246.234,333.879 205.16,294.883 H 5.96094 l 51.60156,38.996 z" /><path
         id="path44"
         style="fill:#FF5A00;fill-opacity:1;fill-rule:nonzero;stroke:none"
         d="m 205.16,200.324 v 94.559 H 5.96094 V 200.324 H 205.16" /><path
         id="path46"
         style="fill:none;stroke:#FFFFFF;stroke-width:4;stroke-linecap:butt;stroke-linejoin:miter;stroke-miterlimit:4;stroke-dasharray:none;stroke-opacity:1"
         d="m 205.16,200.324 v 94.559 H 5.96094 v -94.559 z" /><path
         id="path48"
         style="fill:#FF5A00;fill-opacity:1;fill-rule:nonzero;stroke:none"
         d="m 242.164,237.316 v 94.559 l -38.195,-36.992 v -94.559 l 38.195,36.992" /><path
         id="path50"
         style="fill:none;stroke:#FFFFFF;stroke-width:4;stroke-linecap:butt;stroke-linejoin:miter;stroke-miterlimit:4;stroke-dasharray:none;stroke-opacity:1"
         d="m 242.164,237.316 v 94.559 l -38.195,-36.992 v -94.559 z" /><path
         id="path52"
         style="fill:#FFFFFF;fill-opacity:1;fill-rule:nonzero;stroke:none"
         d="m 62.7695,260.012 v 20.293 H 23.832 v -20.293 h 38.9375" /><path
         id="path54"
         style="fill:#FFFFFF;fill-opacity:1;fill-rule:nonzero;stroke:none"
         d="m 151.781,260.012 v 20.293 h 38.938 v -20.293 h -38.938" /><path
         id="path56"
         style="fill:#FFFFFF;fill-opacity:1;fill-rule:nonzero;stroke:none"
         d="m 62.7695,209.348 v 20.269 H 23.832 v -20.269 h 38.9375" /><path
         id="path58"
         style="fill:#FFFFFF;fill-opacity:1;fill-rule:nonzero;stroke:none"
         d="m 151.781,209.348 v 20.269 h 38.938 v -20.269 h -38.938" /><path
         id="path60"
         style="fill:#FF5A00;fill-opacity:1;fill-rule:nonzero;stroke:none"
         d="M 50.2578,270.148 H 169.848" /><path
         id="path62"
         style="fill:none;stroke:#FFFFFF;stroke-width:4;stroke-linecap:butt;stroke-linejoin:miter;stroke-miterlimit:4;stroke-dasharray:none;stroke-opacity:1"
         d="M 50.2578,270.148 H 169.848" /><path
         id="path64"
         style="fill:#FF5A00;fill-opacity:1;fill-rule:nonzero;stroke:none"
         d="M 50.2578,218.02 H 169.848" /><path
         id="path66"
         style="fill:none;stroke:#FFFFFF;stroke-width:4;stroke-linecap:butt;stroke-linejoin:miter;stroke-miterlimit:4;stroke-dasharray:none;stroke-opacity:1"
         d="M 50.2578,218.02 H 169.848" /><path
         id="path68"
         style="fill:#FF5A00;fill-opacity:1;fill-rule:nonzero;stroke:none"
         d="M 43.3047,219.465 169.848,270.148" /><path
         id="path70"
         style="fill:none;stroke:#FFFFFF;stroke-width:4;stroke-linecap:butt;stroke-linejoin:miter;stroke-miterlimit:4;stroke-dasharray:none;stroke-opacity:1"
         d="M 43.3047,219.465 169.848,270.148" /><path
         id="path72"
         style="fill:#FF5A00;fill-opacity:1;fill-rule:nonzero;stroke:none"
         d="M 43.3047,270.148 169.848,219.465" /><path
         id="path74"
         style="fill:none;stroke:#FFFFFF;stroke-width:4;stroke-linecap:butt;stroke-linejoin:miter;stroke-miterlimit:4;stroke-dasharray:none;stroke-opacity:1"
         d="M 43.3047,270.148 169.848,219.465" /></g></g></svg>