<?xml version="1.0" encoding="utf-8"?>
<!-- Generator: Adobe Illustrator 20.1.0, SVG Export Plug-In . SVG Version: 6.00 Build 0)  -->
<svg version="1.1" id="Layer_1" xmlns="http://www.w3.org/2000/svg" xmlns:xlink="http://www.w3.org/1999/xlink" x="0px" y="0px"
	 viewBox="0 0 50.2 67.3" style="enable-background:new 0 0 50.2 67.3;" xml:space="preserve">
<style type="text/css">
	.st0{stroke:#FFFFFF;stroke-width:0.8;stroke-linecap:round;stroke-linejoin:round;}
	.st1{fill:#FF5A00;stroke:#FFFFFF;stroke-width:0.8;}
	.st2{fill:#FFFFFF;}
	.st3{fill:none;stroke:#FFFFFF;stroke-width:0.8;}
	.st4{fill:#FFFFFF;}
	.st5{stroke:#FFFFFF;stroke-width:0.8;}
</style>
<g>
	<g>
		<polygon class="st0" points="49.2,19.2 41,27 1.2,27 11.5,19.2 		"/>
		<g>
			<rect x="1.2" y="27" class="st1" width="39.8" height="39.4"/>
		</g>
		<g>
			<polygon class="st1" points="48.4,59 48.4,19.6 40.8,27 40.8,66.4 			"/>
		</g>
		<g>
			<polygon class="st2" points="15.3,45.6 6.8,45.6 6.8,43.4 3.5,46.7 6.8,49.9 6.8,47.7 15.3,47.7 			"/>
			<polygon class="st2" points="20.2,52.6 20.2,61.1 18,61.1 21.2,64.4 24.5,61.1 22.3,61.1 22.3,52.6 			"/>
			<polygon class="st2" points="20.2,41 20.2,32.4 18,32.4 21.2,29.2 24.5,32.4 22.3,32.4 22.3,41 			"/>
			<polygon class="st2" points="27.1,47.7 35.7,47.7 35.7,49.9 39,46.7 35.7,43.4 35.7,45.6 27.1,45.6 			"/>
			<path class="st3" d="M35,60.4c-1.6,1.7-9-3-16.5-10.4C11,42.5,6.2,35.1,7.8,33.4c1.6-1.7,9,3,16.5,10.4
				C31.9,51.3,36.6,58.7,35,60.4z"/>
			<path class="st3" d="M34.6,33.3c1.7,1.6-3,9-10.4,16.5C16.7,57.3,9.3,62.1,7.6,60.5c-1.7-1.6,3-9,10.4-16.5
				C25.5,36.5,32.9,31.7,34.6,33.3z"/>
		</g>
		<ellipse transform="matrix(0.8192 -0.5736 0.5736 0.8192 -22.8551 20.5551)" class="st4" cx="21.2" cy="46.5" rx="6.3" ry="6.3"/>
	</g>
	<polygon class="st1" points="49.2,0.5 41,8.3 1.2,8.3 11.5,0.5 	"/>
	<g>
		<rect x="1.2" y="8.3" class="st1" width="39.8" height="18.9"/>
	</g>
	<g>
		<polygon class="st1" points="48.4,19.9 48.4,0.9 40.8,8.3 40.8,27.3 		"/>
	</g>
	<rect x="4.8" y="11.3" class="st2" width="7.8" height="4.1"/>
	<rect x="30.4" y="11.3" class="st2" width="7.8" height="4.1"/>
	<rect x="4.8" y="21.4" class="st2" width="7.8" height="4.1"/>
	<rect x="30.4" y="21.4" class="st2" width="7.8" height="4.1"/>
	<line class="st5" x1="10.1" y1="13.3" x2="34" y2="13.3"/>
	<line class="st5" x1="10.1" y1="23.7" x2="34" y2="23.7"/>
	<line class="st5" x1="8.7" y1="23.4" x2="34" y2="13.3"/>
	<line class="st5" x1="8.7" y1="13.3" x2="34" y2="23.4"/>
</g>
</svg>
