<?xml version="1.0" encoding="utf-8"?>
<!-- Generator: Adobe Illustrator 20.1.0, SVG Export Plug-In . SVG Version: 6.00 Build 0)  -->
<svg version="1.1" id="Layer_1" xmlns="http://www.w3.org/2000/svg" xmlns:xlink="http://www.w3.org/1999/xlink" x="0px" y="0px"
	 viewBox="0 0 75.8 70.7" style="enable-background:new 0 0 75.8 70.7;" xml:space="preserve">
<style type="text/css">
	.st0{fill:#FF5A00;stroke:#FFFFFF;stroke-width:0.8;}
	.st1{fill:none;stroke:#FFFFFF;stroke-width:0.96;stroke-dasharray:2.4;}
	.st2{fill:#FFFFFF;}
	.st3{fill:#FF5A00;}
</style>
<g>
	<g>
		<polygon class="st0" points="74.8,1 62.5,12.7 1.2,12.7 16,1 		"/>
		<g>
			<rect x="1.2" y="12.7" class="st0" width="61.3" height="57"/>
		</g>
		<g>
			<polygon class="st0" points="73.4,58 73.4,1 62,12.7 62,69.7 			"/>
		</g>
	</g>
	<rect x="4.2" y="17.1" class="st0" width="54.8" height="48.1"/>
	<g>
		<g>
			<g>
				<line class="st1" x1="26.3" y1="38.4" x2="6.9" y2="44.8"/>
				<polygon class="st0" points="35.3,33.6 59,24.8 59,30 				"/>
				<polyline class="st0" points="35.3,33.6 59,30.4 59,35.6 35.3,33.6 				"/>
				<polyline class="st0" points="35.3,33.6 59,35.7 59,40.9 35.3,33.6 				"/>
				<polygon class="st2" points="51.1,60.8 13.7,60.8 32.4,23.4 32.4,23.4 				"/>
			</g>
		</g>
		<g>
			<polygon class="st3" points="29.8,45.2 26.2,41.5 26.8,40.9 24.5,40.4 25,42.7 25.6,42.1 29.2,45.8 			"/>
			<polygon class="st3" points="28.5,47.6 23.3,47.6 23.3,46.7 21.3,48 23.3,49.3 23.3,48.4 28.5,48.4 			"/>
			<polygon class="st3" points="29.2,50.2 25.6,53.9 25,53.3 24.5,55.6 26.8,55.1 26.2,54.5 29.8,50.8 			"/>
			<polygon class="st3" points="31.7,51.6 31.7,56.8 30.8,56.8 32.1,58.7 33.4,56.8 32.5,56.8 32.5,51.6 			"/>
			<polygon class="st3" points="31.7,44.6 31.7,39.4 30.8,39.4 32.1,37.4 33.4,39.4 32.5,39.4 32.5,44.6 			"/>
			<polygon class="st3" points="34.3,50.8 38,54.5 37.4,55.1 39.7,55.6 39.2,53.3 38.6,53.9 34.9,50.2 			"/>
			<polygon class="st3" points="35.7,48.4 40.9,48.4 40.9,49.3 42.8,48 40.9,46.7 40.9,47.6 35.7,47.6 			"/>
			<polygon class="st3" points="34.9,45.8 38.6,42.1 39.2,42.7 39.7,40.4 37.4,40.9 38,41.5 34.3,45.2 			"/>
			
				<ellipse transform="matrix(0.8189 -0.5739 0.5739 0.8189 -21.6912 27.1367)" class="st0" cx="32.2" cy="47.9" rx="5.4" ry="5.4"/>
		</g>
	</g>
</g>
</svg>
