<?xml version="1.0" encoding="utf-8"?>
<!-- Generator: Adobe Illustrator 20.1.0, SVG Export Plug-In . SVG Version: 6.00 Build 0)  -->
<svg version="1.1" id="Layer_1" xmlns="http://www.w3.org/2000/svg" xmlns:xlink="http://www.w3.org/1999/xlink" x="0px" y="0px"
	 viewBox="0 0 75.5 67.9" style="enable-background:new 0 0 75.5 67.9;" xml:space="preserve">
<style type="text/css">
	.st0{fill:#FF5A00;stroke:#FFFFFF;stroke-width:0.8;}
</style>
<g>
	<rect x="1" y="45.5" class="st0" width="62.9" height="11.8"/>
	<g>
		<line class="st0" x1="44.7" y1="52.2" x2="60.6" y2="52.2"/>
	</g>
	<g>
		<line class="st0" x1="44.7" y1="51.6" x2="60.6" y2="51.6"/>
	</g>
	<polygon class="st0" points="74.5,46.1 74.5,35.5 63.9,45.5 63.9,57.3 	"/>
	<polygon class="st0" points="52.8,66.9 52.8,64.3 58.5,56.3 58.5,61.2 	"/>
	<rect x="2.4" y="64.3" class="st0" width="50.4" height="2.6"/>
	<polygon class="st0" points="52.8,64.3 2.4,64.3 8.2,56.3 58.5,56.3 	"/>
	<polygon class="st0" points="74.5,35.5 11.6,35.5 1,45.5 64,45.5 	"/>
	<g>
		<rect x="12.3" y="7.8" class="st0" width="43.4" height="31.8"/>
	</g>
	<path class="st0" d="M15.9,14.8c0-3.2,3.3-3.7,3.3-3.7s25.5,0,28.6,0c4,0,3.9,3.8,3.9,3.8s0,15.6,0,17.9c0,2.2-3.1,3.2-3.1,3.2
		s-26.1,0-29,0c-2.8,0-3.8-3-3.8-3V14.8z"/>
	<polygon class="st0" points="62.9,0.9 19.5,0.9 12.3,7.8 55.7,7.8 	"/>
	<polygon class="st0" points="62.9,32.9 62.9,0.9 55.7,7.8 55.7,39.6 	"/>
</g>
</svg>
