<?xml version="1.0" encoding="utf-8"?>
<!-- Generator: Adobe Illustrator 20.1.0, SVG Export Plug-In . SVG Version: 6.00 Build 0)  -->
<svg version="1.1" id="Layer_1" xmlns="http://www.w3.org/2000/svg" xmlns:xlink="http://www.w3.org/1999/xlink" x="0px" y="0px"
	 viewBox="0 0 62.3 83.1" style="enable-background:new 0 0 62.3 83.1;" xml:space="preserve">
<style type="text/css">
	.st0{fill:#FFFFFF;stroke:#FFFFFF;stroke-width:0.8;}
	.st1{fill:#FF5A00;stroke:#FFFFFF;stroke-width:0.8;}
	.st2{fill:#FFFFFF;}
</style>
<g>
	<polygon class="st0" points="30,77.5 30,55.8 25.1,60.4 25.1,82.2 	"/>
	<g>
		<rect x="1.2" y="60.4" class="st1" width="23.9" height="21.8"/>
	</g>
	<g>
		<rect x="27.1" y="60.4" class="st1" width="23.9" height="21.8"/>
	</g>
	<g>
		<polygon class="st1" points="61.3,50.2 61.3,0.9 51,10.7 51,59.9 		"/>
		<polygon class="st1" points="61.2,72.4 61.2,50.7 51,60.4 51,82.2 		"/>
		<polygon class="st1" points="61.3,0.9 51,10.7 1.2,10.7 14.1,0.9 		"/>
		<g>
			<rect x="1.2" y="10.7" class="st1" width="49.8" height="49.3"/>
		</g>
		<g>
			<polygon class="st2" points="21.7,29.5 14.1,21.9 15.4,20.6 10.6,19.6 11.6,24.4 12.9,23.1 20.4,30.7 			"/>
			<polygon class="st2" points="18.9,34.4 8.2,34.4 8.2,32.6 4.1,35.3 8.2,38 8.2,36.2 18.9,36.2 			"/>
			<polygon class="st2" points="20.4,39.9 12.9,47.5 11.6,46.2 10.6,50.9 15.4,50 14.1,48.7 21.7,41.1 			"/>
			<polygon class="st2" points="25.4,42.7 25.4,53.4 23.6,53.4 26.3,57.4 28.9,53.4 27.1,53.4 27.1,42.7 			"/>
			<polygon class="st2" points="25.4,28.2 25.4,17.5 23.6,17.5 26.3,13.5 28.9,17.5 27.1,17.5 27.1,28.2 			"/>
			<polygon class="st2" points="30.9,41.1 38.4,48.7 37.1,50 41.9,50.9 40.9,46.2 39.7,47.5 32.1,39.9 			"/>
			<polygon class="st2" points="33.6,36.2 44.3,36.2 44.3,38 48.4,35.3 44.3,32.6 44.3,34.4 33.6,34.4 			"/>
			<polygon class="st2" points="32.1,30.7 39.7,23.1 40.9,24.4 41.9,19.6 37.1,20.6 38.4,21.9 30.9,29.5 			"/>
			<polygon class="st2" points="5.7,66 7.2,66 5,62.6 2.7,66 4.2,66 4.2,77.2 2.7,77.2 5,80.6 7.2,77.2 5.7,77.2 			"/>
			<polygon class="st2" points="11.2,66 12.7,66 10.4,62.6 8.2,66 9.7,66 9.7,77.2 8.2,77.2 10.4,80.6 12.7,77.2 11.2,77.2 			"/>
			<polygon class="st2" points="16.6,66 18.2,66 15.9,62.6 13.7,66 15.2,66 15.2,77.2 13.6,77.2 15.9,80.6 18.1,77.2 16.6,77.2
				"/>
			<polygon class="st2" points="22.1,66 23.6,66 21.4,62.6 19.1,66 20.6,66 20.6,77.2 19.1,77.2 21.4,80.6 23.6,77.2 22.1,77.2
				"/>
			<polygon class="st2" points="31.6,66 33.1,66 30.8,62.6 28.6,66 30.1,66 30.1,77.2 28.6,77.2 30.8,80.6 33.1,77.2 31.6,77.2
				"/>
			<polygon class="st2" points="37,66 38.6,66 36.3,62.6 34.1,66 35.6,66 35.6,77.2 34,77.2 36.3,80.6 38.6,77.2 37,77.2 			"/>
			<polygon class="st2" points="42.5,66 44,66 41.8,62.6 39.5,66 41,66 41,77.2 39.5,77.2 41.8,80.6 44,77.2 42.5,77.2 			"/>
			<polygon class="st2" points="48,66 49.5,66 47.3,62.6 45,66 46.5,66 46.5,77.2 45,77.2 47.2,80.6 49.5,77.2 48,77.2 			"/>
		</g>
	</g>
</g>
</svg>
