<?xml version="1.0" encoding="utf-8"?>
<!-- Generator: Adobe Illustrator 20.1.0, SVG Export Plug-In . SVG Version: 6.00 Build 0)  -->
<svg version="1.1" id="Layer_1" xmlns="http://www.w3.org/2000/svg" xmlns:xlink="http://www.w3.org/1999/xlink" x="0px" y="0px"
	 viewBox="0 0 53.6 54.1" style="enable-background:new 0 0 53.6 54.1;" xml:space="preserve">
<style type="text/css">
	.st0{fill:#FF5A00;stroke:#FFFFFF;stroke-width:0.8;}
	.st1{fill:#FFFFFF;}
</style>
<g>
	<rect x="1.1" y="9.2" class="st0" width="43.1" height="44"/>
	<polygon class="st0" points="44.2,9.2 1.1,9.2 12,0.4 53.2,0.4 53.2,0.4 53.2,44.1 44.2,53.1 44.2,9.2 	"/>
	<line class="st0" x1="44.2" y1="9.2" x2="53.2" y2="0.4"/>
	<line class="st0" x1="7.1" y1="20.5" x2="41.9" y2="20.5"/>
	<line class="st0" x1="5.4" y1="31.2" x2="40.5" y2="31.2"/>
	<line class="st0" x1="3.9" y1="41.3" x2="38.7" y2="41.3"/>
	<line class="st0" x1="8.7" y1="47.2" x2="15.8" y2="14.1"/>
	<line class="st0" x1="31" y1="47.2" x2="38.2" y2="14.1"/>
	<line class="st0" x1="19.8" y1="47" x2="27" y2="13.9"/>
	<ellipse class="st1" cx="14.4" cy="20.4" rx="2.7" ry="1.8"/>
	<ellipse class="st1" cx="25.7" cy="20" rx="2.7" ry="1.8"/>
	<ellipse class="st1" cx="37" cy="20.8" rx="2.7" ry="1.8"/>
	<ellipse class="st1" cx="11.9" cy="31.2" rx="2.7" ry="1.8"/>
	<ellipse class="st1" cx="23.2" cy="31.6" rx="2.7" ry="1.8"/>
	<ellipse class="st1" cx="34.5" cy="31" rx="2.7" ry="1.8"/>
	<ellipse class="st1" cx="9.6" cy="41.5" rx="2.7" ry="1.8"/>
	<ellipse class="st1" cx="20.9" cy="41.6" rx="2.7" ry="1.8"/>
	<ellipse class="st1" cx="32.2" cy="41.6" rx="2.7" ry="1.8"/>
</g>
</svg>
