<?xml version="1.0" encoding="utf-8"?>
<!-- Generator: Adobe Illustrator 20.1.0, SVG Export Plug-In . SVG Version: 6.00 Build 0)  -->
<svg version="1.1" id="Layer_1" xmlns="http://www.w3.org/2000/svg" xmlns:xlink="http://www.w3.org/1999/xlink" x="0px" y="0px"
	 viewBox="0 0 53.2 52.8" style="enable-background:new 0 0 53.2 52.8;" xml:space="preserve">
<style type="text/css">
	.st0{fill:#FF5A00;}
	.st1{fill:#FF5A00;stroke:#FFFFFF;stroke-width:0.8;}
	.st2{fill:#FF5A00;stroke:#FFFFFF;stroke-width:0.8;}
	.st3{fill:#FFFFFF;}
	.st4{fill:#FFFFFF;stroke:#FF5A00;stroke-width:0.5;}
</style>
<g>
	<polygon class="st0" points="47.1,5.3 0.4,5.3 6,0.8 52.7,0.8 	"/>
	<polygon class="st1" points="52.8,47.5 47,52 47,5.3 52.8,0.8 	"/>
	<rect x="0.4" y="5.3" class="st2" width="46.7" height="46.7"/>


	<path class="st3" d="M23.2,27c0,0.2-0.1,0.3-0.3,0.3h-6.6c-0.2,0-0.3-0.1-0.3-0.3v-6.6c0-0.2,0.1-0.3,0.3-0.3h6.6
		c0.2,0,0.3,0.1,0.3,0.3V27z"/>
	<path class="st3" d="M31.8,26.9c0,0.1-0.1,0.2-0.2,0.2h-4.8c-0.1,0-0.2-0.1-0.2-0.2v-4.8c0-0.1,0.1-0.2,0.2-0.2h4.8
		c0.1,0,0.2,0.1,0.2,0.2V26.9z"/>
	<path class="st3" d="M21.6,34.5c0,0.1-0.1,0.2-0.2,0.2h-4.8c-0.1,0-0.2-0.1-0.2-0.2v-4.8c0-0.1,0.1-0.2,0.2-0.2h4.8
		c0.1,0,0.2,0.1,0.2,0.2V34.5z"/>
	<path class="st3" d="M31.1,35.8c0,0.2-0.1,0.3-0.3,0.3H25c-0.2,0-0.3-0.1-0.3-0.3v-5.9c0-0.2,0.1-0.3,0.3-0.3h5.8
		c0.2,0,0.3,0.1,0.3,0.3V35.8z"/>

	<path class="st4" d="M28,31.7c0,0.2-0.2,0.4-0.4,0.4h-7.2c-0.2,0-0.4-0.2-0.4-0.4v-7.2c0-0.2,0.2-0.4,0.4-0.4h7.2
		c0.2,0,0.4,0.2,0.4,0.4V31.7z"/>
	<polygon class="st3" points="17.6,13 8.4,13 8.4,33.5 12.7,33.5 12.7,17.3 17.6,17.3 	"/>
	<polygon class="st3" points="23.7,13 23.7,17.3 35,17.3 35,29.5 39.3,29.5 39.3,13 	"/>
	<polygon class="st3" points="35,35.6 35,39.6 8.4,39.6 8.4,43.9 39.3,43.9 39.3,35.6 	"/>
</g>
</svg>
