<?xml version="1.0" encoding="utf-8"?>
<!-- Generator: Adobe Illustrator 20.1.0, SVG Export Plug-In . SVG Version: 6.00 Build 0)  -->
<svg version="1.1" id="Layer_1" xmlns="http://www.w3.org/2000/svg" xmlns:xlink="http://www.w3.org/1999/xlink" x="0px" y="0px"
	 viewBox="0 0 54.5 63.5" style="enable-background:new 0 0 54.5 63.5;" xml:space="preserve">
<style type="text/css">
	.st0{fill:#FFFFFF;stroke:#FF5A00;stroke-width:0.8;}
	.st1{fill:#FF5A00;}
	.st2{fill:#FF5A00;stroke:#FFFFFF;stroke-width:0.8;}
	.st3{fill:none;stroke:#FFFFFF;stroke-width:0.8;}
</style>
<g>
	<path class="st0" d="M10.1,46.9H8.7c-7.2,0-8.3-6.5-8.3-6.5v6.8c0,0,1.1,6.5,8.3,6.5H10"/>
	<g>
		<g>
			<g>
				<g>
					<g>
						<g>
							<rect x="8.6" y="6" class="st1" width="32.3" height="56.4"/>
							<polygon class="st1" points="8.6,6 14.8,1 45.9,1 40.9,6 							"/>
							<polygon class="st1" points="40.9,62.4 45.9,56.2 45.9,1 40.9,6 							"/>
						</g>
					</g>
				</g>
				<g>
					<g>
						<g>
							<rect x="8.6" y="6" class="st2" width="32.3" height="56.4"/>
							<polygon class="st2" points="8.6,6 14.8,1 45.9,1 40.9,6 							"/>
							<polygon class="st2" points="40.9,62.4 45.9,56.2 45.9,1 40.9,6 							"/>
						</g>
					</g>
				</g>
				<g>
					<g>
						<g>
							<rect x="8.6" y="6" class="st3" width="32.3" height="56.4"/>
							<polygon class="st3" points="8.6,6 14.8,1 45.9,1 40.9,6 							"/>
							<polygon class="st3" points="40.9,62.4 45.9,56.2 45.9,1 40.9,6 							"/>
						</g>
					</g>
				</g>
			</g>
			<polyline class="st0" points="45.5,53.5 52.7,53.5 52.7,46.8 45.5,46.8 			"/>
			<polyline class="st0" points="9.9,15.5 8.9,15.5 1.7,15.5 1.7,22.3 8.9,22.3 9.8,22.3 			"/>
			<path class="st0" d="M44.8,22.3h1c7.2,0,8.4,6.5,8.4,6.5V22c0,0-1.1-6.5-8.4-6.5h-1.6"/>
			<path class="st0" d="M54.1,21.7v8c-0.8,9.5-17.6,9-17.6,9v0.5v6.5l-11-11l11-11v7C36.5,30.7,53.6,31.2,54.1,21.7"/>
			<path class="st0" d="M0.4,47.6v-8c0.5-9.5,12-9,12-9v-0.5v-6.5l11,11l-11,11v-7C12.4,38.6,0.9,38.1,0.4,47.6"/>
		</g>
	</g>
</g>
</svg>
