<?xml version="1.0" encoding="utf-8"?>
<!-- Generator: Adobe Illustrator 20.1.0, SVG Export Plug-In . SVG Version: 6.00 Build 0)  -->
<svg version="1.1" id="Layer_1" xmlns="http://www.w3.org/2000/svg" xmlns:xlink="http://www.w3.org/1999/xlink" x="0px" y="0px"
	 viewBox="0 0 64 74" style="enable-background:new 0 0 64 74;" xml:space="preserve">
<style type="text/css">
	.st0{fill:#FF5A00;stroke:#FFFFFF;stroke-width:0.8;}
	.st1{stroke:#FFFFFF;stroke-width:0.8;}
	.st2{fill:#FF5A00;}
	.st3{fill:none;stroke:#FFFFFF;stroke-width:0.8;}
	.st4{fill:#FFFFFF;stroke:#FF5A00;stroke-width:0.8;}
	.st5{fill:#FFFFFF;}
	.st6{fill:none;stroke:#FF5A00;}
</style>
<g>
	<g>
		<polyline class="st0" points="31.7,24 1,24 1,73 31.7,73 		"/>
		<polygon class="st0" points="31.7,73 41.6,63.2 41.6,14.2 10.8,14.2 1,24 31.7,24 		"/>
		<line class="st1" x1="31.7" y1="24" x2="41.6" y2="14.2"/>
		<line class="st0" x1="1.5" y1="43.1" x2="31.5" y2="43.1"/>
		<line class="st0" x1="1.5" y1="65.6" x2="31.5" y2="65.6"/>
		<line class="st0" x1="8.5" y1="31.6" x2="17.2" y2="31.6"/>
		<g>
			<rect x="5" y="28.3" class="st0" width="15.5" height="6.3"/>
		</g>
	</g>
	<g>
		<polygon class="st2" points="63.7,0.3 62.7,0.9 23.8,0.9 24.8,0.3 		"/>
		<polygon class="st2" points="63.7,38.9 63.7,0.3 62.7,1.1 62.7,39.8 		"/>
		<polygon class="st0" points="25.6,39.8 62.7,39.8 62.7,0.9 23.8,0.9 23.8,38.1 		"/>
		<g>
			<path class="st3" d="M59.8,0.9v22.5c0,1.6-1.3,1.3-1.3,1.3H27.9c0,0-1.2,0.1-1.2-1.2V0.9"/>
		</g>
		<g>
			<rect x="24.4" y="3.1" class="st3" width="1.8" height="1.8"/>
		</g>
		<g>
			<rect x="60.4" y="3.1" class="st3" width="1.8" height="1.8"/>
		</g>
		<g>
			<path class="st4" d="M53.5,28.5v10.9H30.3V28.3c0-1.2,1.3-1,1.3-1h20.6C53.6,27.3,53.5,28.5,53.5,28.5z"/>
			<path class="st3" d="M59.8,39.8V28.5c0,0,0.1-1.2-1.2-1.2H31.7c0,0-1.3-0.1-1.3,1v10.8"/>
		</g>
		<g>
			<rect x="34.8" y="28" class="st0" width="4.6" height="10.6"/>
		</g>
		<g>
			
				<ellipse transform="matrix(0.7071 -0.7071 0.7071 0.7071 3.5455 34.4394)" class="st5" cx="43.3" cy="12.9" rx="10.6" ry="10.6"/>
		</g>
		<line class="st3" x1="62.7" y1="1.1" x2="63.7" y2="0.3"/>
		<line class="st6" x1="42" y1="11.1" x2="36.9" y2="6.1"/>
		<g>
			<polygon class="st2" points="44.2,17 47.4,13.8 44,13.4 			"/>
		</g>
		<g>
			<polygon class="st2" points="39.2,11.9 42.4,8.7 42.8,12.1 			"/>
		</g>
		<line class="st6" x1="50.1" y1="19.6" x2="45.1" y2="14.6"/>
		<line class="st6" x1="44.2" y1="11.8" x2="48" y2="8.2"/>
		<g>
			<polygon class="st2" points="46.3,6.5 49.5,9.7 49.9,6.2 			"/>
		</g>
		<g>
			<polygon class="st2" points="36.9,15.9 40.1,19.1 36.7,19.5 			"/>
		</g>
		<line class="st6" x1="38.3" y1="17.8" x2="42.5" y2="13.6"/>
	</g>
</g>
</svg>
