<?xml version="1.0" encoding="UTF-8" standalone="no"?>
<svg
   xmlns:dc="http://purl.org/dc/elements/1.1/"
   xmlns:cc="http://creativecommons.org/ns#"
   xmlns:rdf="http://www.w3.org/1999/02/22-rdf-syntax-ns#"
   xmlns:svg="http://www.w3.org/2000/svg"
   xmlns="http://www.w3.org/2000/svg"
   version="1.1"
   id="svg2"
   xml:space="preserve"
   width="40.348263"
   height="37.325012"
   viewBox="0 0 40.348263 37.325012"><metadata
     id="metadata8"><rdf:RDF><cc:Work
         rdf:about=""><dc:format>image/svg+xml</dc:format><dc:type
           rdf:resource="http://purl.org/dc/dcmitype/StillImage" /></cc:Work></rdf:RDF></metadata><defs
     id="defs6"><clipPath
       clipPathUnits="userSpaceOnUse"
       id="clipPath20"><path
         d="M 0,3697 H 470 V 0 H 0 Z"
         id="path18" /></clipPath></defs><g
     id="g10"
     transform="matrix(1.3333333,0,0,-1.3333333,-22.318401,492.91849)"><g
       id="g12"
       transform="scale(0.1)"><g
         id="g14"><g
           id="g16"
           clip-path="url(#clipPath20)"><path
             d="m 173.887,3420.8 h 215.996 v 219.746 H 173.887 Z"
             style="fill:#FF5A00;fill-opacity:1;fill-rule:nonzero;stroke:none"
             id="path22" /><path
             d="m 389.883,3420.8 v 219.74 H 173.887 V 3420.8 Z"
             style="fill:none;stroke:#FFFFFF;stroke-width:4;stroke-linecap:butt;stroke-linejoin:miter;stroke-miterlimit:4;stroke-dasharray:none;stroke-opacity:1"
             id="path24" /><path
             d="m 389.883,3640.8 75,50.99 H 248.887 l -75,-50.99 h 215.996"
             style="fill:#FF5A00;fill-opacity:1;fill-rule:nonzero;stroke:none"
             id="path26" /><path
             d="m 389.883,3640.8 75,50.99 H 248.887 l -75,-50.99 z"
             style="fill:none;stroke:#FFFFFF;stroke-width:4;stroke-linecap:butt;stroke-linejoin:miter;stroke-miterlimit:4;stroke-dasharray:none;stroke-opacity:1"
             id="path28" /><path
             d="m 466.133,3473.3 v 219.74 l -74.746,-52.5 V 3420.8 l 74.746,52.5"
             style="fill:#FF5A00;fill-opacity:1;fill-rule:nonzero;stroke:none"
             id="path30" /><path
             d="m 466.133,3473.3 v 219.74 l -74.746,-52.5 V 3420.8 Z"
             style="fill:none;stroke:#FFFFFF;stroke-width:4;stroke-linecap:butt;stroke-linejoin:miter;stroke-miterlimit:4;stroke-dasharray:none;stroke-opacity:1"
             id="path32" /><path
             d="m 281.887,3534.74 c 21.109,0 38.23,17.13 38.23,38.24 0,21.12 -17.121,38.25 -38.23,38.25 -21.125,0 -38.235,-17.13 -38.235,-38.25 0,-21.11 17.11,-38.24 38.235,-38.24 z"
             style="fill:none;stroke:#FFFFFF;stroke-width:15;stroke-linecap:butt;stroke-linejoin:miter;stroke-miterlimit:4;stroke-dasharray:none;stroke-opacity:1"
             id="path34" /><path
             d="m 281.887,3521.92 v -57.59"
             style="fill:none;stroke:#FFFFFF;stroke-width:15;stroke-linecap:butt;stroke-linejoin:miter;stroke-miterlimit:4;stroke-dasharray:none;stroke-opacity:1"
             id="path36" /><path
             d="M 306.309,3464.04 H 258.23 l 23.098,-28.96 24.981,28.96"
             style="fill:#FFFFFF;fill-opacity:1;fill-rule:nonzero;stroke:none"
             id="path38" /><path
             d="m 254.363,3529.63 -30.847,-48.62"
             style="fill:none;stroke:#FFFFFF;stroke-width:15;stroke-linecap:butt;stroke-linejoin:miter;stroke-miterlimit:4;stroke-dasharray:none;stroke-opacity:1"
             id="path40" /><path
             d="m 243.984,3467.67 -40.593,25.76 3.98,-36.82 36.613,11.06"
             style="fill:#FFFFFF;fill-opacity:1;fill-rule:nonzero;stroke:none"
             id="path42" /><path
             d="m 308.645,3529.63 30.847,-48.62"
             style="fill:none;stroke:#FFFFFF;stroke-width:15;stroke-linecap:butt;stroke-linejoin:miter;stroke-miterlimit:4;stroke-dasharray:none;stroke-opacity:1"
             id="path44" /><path
             d="m 319.031,3467.67 40.586,25.76 -3.972,-36.82 -36.614,11.06"
             style="fill:#FFFFFF;fill-opacity:1;fill-rule:nonzero;stroke:none"
             id="path46" /></g></g></g></g></svg>