<?xml version="1.0" encoding="utf-8"?>
<!-- Generator: Adobe Illustrator 20.1.0, SVG Export Plug-In . SVG Version: 6.00 Build 0)  -->
<svg version="1.1" id="Layer_1" xmlns="http://www.w3.org/2000/svg" xmlns:xlink="http://www.w3.org/1999/xlink" x="0px" y="0px"
	 viewBox="0 0 48 66.7" style="enable-background:new 0 0 48 66.7;" xml:space="preserve">
<style type="text/css">
	.st0{fill:#FF5A00;stroke:#FFFFFF;stroke-width:0.8;}
	.st1{fill:none;stroke:#FFFFFF;stroke-width:0.8;}
	.st2{fill:#FFFFFF;}
	.st3{fill:none;stroke:#FFFFFF;stroke-width:1.4;}
	.st4{fill:#FFFFFF;stroke:#FFFFFF;stroke-width:0.256;}
</style>
<g>
	<g>
		<polyline class="st0" points="37.7,10.2 1,10.2 1,65.8 37.7,65.8 		"/>
		<polygon class="st0" points="37.7,65.8 47.6,55.9 47.6,0.4 10.8,0.4 1,10.2 37.7,10.2 		"/>
		<line class="st0" x1="37.7" y1="10.2" x2="47.6" y2="0.4"/>
		<line class="st1" x1="1.5" y1="25.8" x2="37.5" y2="25.8"/>
		<line class="st1" x1="1.5" y1="60.3" x2="37.5" y2="60.3"/>
		<line class="st1" x1="8.5" y1="17.8" x2="17.2" y2="17.8"/>
		<g>
			<rect x="5" y="14.6" class="st1" width="15.5" height="6.3"/>
		</g>
	</g>
	<path class="st2" d="M21.9,44.5c0,2.1-1.3,3-3.3,3c-0.7,0-1.8-0.2-2.6-1c-0.4-0.5-0.6-1.1-0.6-1.9v-5.3h1.7v5.2
		c0,1.1,0.6,1.6,1.4,1.6c1.2,0,1.6-0.6,1.6-1.5v-5.3h1.7V44.5z"/>
	<circle class="st3" cx="18.7" cy="42.9" r="6.1"/>
	<line class="st3" x1="18.7" y1="36.8" x2="29.3" y2="36.8"/>
	<g>
		<polygon class="st4" points="29.9,33.6 29.9,39.8 33.6,36.8 		"/>
	</g>
	<line class="st3" x1="12.6" y1="43" x2="12.6" y2="32.4"/>
	<g>
		<polygon class="st4" points="9.4,31.8 15.6,31.8 12.6,28.1 		"/>
	</g>
	<line class="st3" x1="24.8" y1="42.9" x2="24.8" y2="53.5"/>
	<g>
		<polygon class="st4" points="27.9,54 21.8,54 24.8,57.7 		"/>
	</g>
	<line class="st3" x1="18.8" y1="49.1" x2="8.2" y2="49.1"/>
	<g>
		<polygon class="st4" points="8.1,52.3 8.1,46.1 4.4,49.1 		"/>
	</g>
</g>
</svg>
