<?xml version="1.0" encoding="utf-8"?>
<!-- Generator: Adobe Illustrator 20.1.0, SVG Export Plug-In . SVG Version: 6.00 Build 0)  -->
<svg version="1.1" id="Layer_1" xmlns="http://www.w3.org/2000/svg" xmlns:xlink="http://www.w3.org/1999/xlink" x="0px" y="0px"
	 viewBox="0 0 125.8 50.4" style="enable-background:new 0 0 125.8 50.4;" xml:space="preserve">
<style type="text/css">
	.st0{fill:#FF5A00;stroke:#FFFFFF;stroke-width:0.8;}
</style>
<g>
	<rect x="3.7" y="8.7" class="st0" width="118.2" height="38.2"/>
	<rect x="3.8" y="0.4" class="st0" width="118.2" height="3.9"/>
	<g>
		<rect x="8" y="11.8" class="st0" width="3.4" height="7.3"/>
	</g>
	<g>
		<rect x="8" y="22.5" class="st0" width="3.4" height="7.3"/>
	</g>
	<g>
		<rect x="8" y="33.3" class="st0" width="3.4" height="7.3"/>
	</g>
	<g>
		<rect x="49.7" y="22.5" class="st0" width="13.3" height="19.3"/>
		<rect x="63" y="22.5" class="st0" width="13.3" height="19.3"/>
	</g>
	<polygon class="st0" points="123,4.3 125.1,8.8 0.6,8.8 2.7,4.3 	"/>
	<rect x="46.3" y="40.7" class="st0" width="33.4" height="3.1"/>
	<rect x="44.6" y="43.8" class="st0" width="36.9" height="3.1"/>
	<g>
		<rect x="19" y="11.8" class="st0" width="3.4" height="7.3"/>
	</g>
	<g>
		<rect x="19" y="22.5" class="st0" width="3.4" height="7.3"/>
	</g>
	<g>
		<rect x="19" y="33.3" class="st0" width="3.4" height="7.3"/>
	</g>
	<g>
		<rect x="30" y="11.8" class="st0" width="3.4" height="7.3"/>
	</g>
	<g>
		<rect x="30" y="22.5" class="st0" width="3.4" height="7.3"/>
	</g>
	<g>
		<rect x="30" y="33.3" class="st0" width="3.4" height="7.3"/>
	</g>
	<g>
		<rect x="41" y="11.8" class="st0" width="3.4" height="7.3"/>
	</g>
	<g>
		<rect x="41" y="22.5" class="st0" width="3.4" height="7.3"/>
	</g>
	<g>
		<rect x="41" y="33.3" class="st0" width="3.4" height="7.3"/>
	</g>
	<g>
		<rect x="114.6" y="11.8" class="st0" width="3.4" height="7.3"/>
	</g>
	<g>
		<rect x="114.6" y="22.5" class="st0" width="3.4" height="7.3"/>
	</g>
	<g>
		<rect x="114.6" y="33.3" class="st0" width="3.4" height="7.3"/>
	</g>
	<g>
		<rect x="103.6" y="11.8" class="st0" width="3.4" height="7.3"/>
	</g>
	<g>
		<rect x="103.6" y="22.5" class="st0" width="3.4" height="7.3"/>
	</g>
	<g>
		<rect x="103.6" y="33.3" class="st0" width="3.4" height="7.3"/>
	</g>
	<g>
		<rect x="92.6" y="11.8" class="st0" width="3.4" height="7.3"/>
	</g>
	<g>
		<rect x="92.6" y="22.5" class="st0" width="3.4" height="7.3"/>
	</g>
	<g>
		<rect x="92.6" y="33.3" class="st0" width="3.4" height="7.3"/>
	</g>
	<g>
		<rect x="81.6" y="11.8" class="st0" width="3.4" height="7.3"/>
	</g>
	<g>
		<rect x="81.6" y="22.5" class="st0" width="3.4" height="7.3"/>
	</g>
	<g>
		<rect x="81.6" y="33.3" class="st0" width="3.4" height="7.3"/>
	</g>
	<g>
		<rect x="71.4" y="11.8" class="st0" width="3.4" height="7.3"/>
	</g>
	<g>
		<rect x="61.4" y="11.8" class="st0" width="3.4" height="7.3"/>
	</g>
	<g>
		<rect x="51.5" y="11.8" class="st0" width="3.4" height="7.3"/>
	</g>
	<g>
		<rect x="52" y="24.7" class="st0" width="3" height="6"/>
	</g>
	<g>
		<rect x="57.2" y="24.7" class="st0" width="3" height="6"/>
	</g>
	<g>
		<rect x="71" y="24.7" class="st0" width="3" height="6"/>
	</g>
	<g>
		<rect x="65.8" y="24.7" class="st0" width="3" height="6"/>
	</g>
	<rect x="43" y="46.9" class="st0" width="40" height="3.1"/>
</g>
</svg>
