<?xml version="1.0" encoding="utf-8"?>
<!-- Generator: Adobe Illustrator 20.1.0, SVG Export Plug-In . SVG Version: 6.00 Build 0)  -->
<svg version="1.1" id="Layer_1" xmlns="http://www.w3.org/2000/svg" xmlns:xlink="http://www.w3.org/1999/xlink" x="0px" y="0px"
	 viewBox="0 0 164.7 95.9" style="enable-background:new 0 0 164.7 95.9;" xml:space="preserve">
<style type="text/css">
	.st0{fill:#FF5A00;stroke:#FFFFFF;stroke-width:0.8;}
	.st1{fill:#FFFFFF;}
	.st2{fill:none;stroke:#FF5A00;stroke-width:0.8;}
</style>
<g>
	<g>
		<polygon class="st0" points="102.3,69.3 98.6,74.6 66.4,74.6 71.8,69.3 		"/>
		<rect x="66.4" y="74.6" class="st0" width="30.7" height="5.7"/>
		<polygon class="st0" points="96.2,87.7 96.2,85.9 100.2,80.3 100.2,83.7 		"/>
		<rect x="60.9" y="85.9" class="st0" width="35.3" height="1.8"/>
		<rect x="66.4" y="50.2" class="st0" width="30.5" height="23.1"/>
		<polygon class="st0" points="96.9,73.3 102.1,68.1 102.1,45 96.9,50.2 		"/>
		<polygon class="st0" points="96.2,85.9 60.9,85.9 65,80.3 100.2,80.3 		"/>
		<polygon class="st0" points="97.1,80.3 97.1,74.6 102.3,69.4 102.3,75.1 		"/>
		<path class="st0" d="M71.4,52.9h20.4c1.3,0,2.4,1.1,2.4,2.4v12.9c0,1.3-1.1,2.4-2.4,2.4H71.4c-1.3,0-2.4-1.1-2.4-2.4V55.3
			C69,54,70.1,52.9,71.4,52.9z"/>
		<polygon class="st0" points="102.1,45 72.4,45 66.4,50.2 96.9,50.2 		"/>
	</g>
	<g>
		<path class="st1" d="M79.1,57c-3.7-0.7-5.7,1.2-5.4,2.8l0,0.1c-2.9,0.5-2.1,3.9-0.8,3.9l0.1,0c-0.3,2.4,3.2,3.8,4.9,2.4l0.1-0.1
			c0.6,2.3,8.1,2.4,9.6,0.7l0.1,0c3.3,0.3,4.8-2,4.1-3.6l0.2,0c1.1-0.3,1.3-2.9-0.7-3.3l0-0.1c0.8-1.7-1.1-3.3-3.9-3l-0.2-0.1
			c-2-1.8-7.6-1.5-8.3,0.3L79.1,57z"/>
	</g>
	<g>
		<polygon class="st0" points="148.3,43.3 144.6,48.6 112.4,48.6 117.8,43.3 		"/>
		<rect x="112.4" y="48.6" class="st0" width="30.7" height="5.7"/>
		<polygon class="st0" points="142.2,61.7 142.2,59.9 146.2,54.3 146.2,57.7 		"/>
		<rect x="106.9" y="59.9" class="st0" width="35.3" height="1.8"/>
		<rect x="112.4" y="24.2" class="st0" width="30.5" height="23.1"/>
		<polygon class="st0" points="142.9,47.3 148.1,42.1 148.1,19 142.9,24.2 		"/>
		<polygon class="st0" points="142.2,59.9 106.9,59.9 111,54.3 146.2,54.3 		"/>
		<polygon class="st0" points="143.1,54.3 143.1,48.6 148.3,43.4 148.3,49.1 		"/>
		<path class="st0" d="M117.4,26.9h20.4c1.3,0,2.4,1.1,2.4,2.4v12.9c0,1.3-1.1,2.4-2.4,2.4h-20.4c-1.3,0-2.4-1.1-2.4-2.4V29.3
			C115,28,116.1,26.9,117.4,26.9z"/>
		<polygon class="st0" points="148.1,19 118.4,19 112.4,24.2 142.9,24.2 		"/>
	</g>
	<g>
		<path class="st1" d="M125.1,31c-3.7-0.7-5.7,1.2-5.4,2.8l0,0.1c-2.9,0.5-2.1,3.9-0.8,3.9l0.1,0c-0.3,2.4,3.2,3.8,4.9,2.4l0.1-0.1
			c0.6,2.3,8.1,2.4,9.6,0.7l0.1,0c3.3,0.3,4.8-2,4.1-3.6l0.2,0c1.1-0.3,1.3-2.9-0.7-3.3l0-0.1c0.8-1.7-1.1-3.3-3.9-3l-0.2-0.1
			c-2-1.8-7.6-1.5-8.3,0.3L125.1,31z"/>
	</g>
	<g>
		<polygon class="st0" points="59.3,41.3 55.6,46.6 23.4,46.6 28.8,41.3 		"/>
		<rect x="23.4" y="46.6" class="st0" width="30.7" height="5.7"/>
		<polygon class="st0" points="53.2,59.7 53.2,57.9 57.2,52.3 57.2,55.7 		"/>
		<rect x="17.9" y="57.9" class="st0" width="35.3" height="1.8"/>
		<rect x="23.4" y="22.2" class="st0" width="30.5" height="23.1"/>
		<polygon class="st0" points="53.9,45.3 59.1,40.1 59.1,17 53.9,22.2 		"/>
		<polygon class="st0" points="53.2,57.9 17.9,57.9 22,52.3 57.2,52.3 		"/>
		<polygon class="st0" points="54.1,52.3 54.1,46.6 59.3,41.4 59.3,47.1 		"/>
		<path class="st0" d="M28.4,24.9h20.4c1.3,0,2.4,1.1,2.4,2.4v12.9c0,1.3-1.1,2.4-2.4,2.4H28.4c-1.3,0-2.4-1.1-2.4-2.4V27.3
			C26,26,27.1,24.9,28.4,24.9z"/>
		<polygon class="st0" points="59.1,17 29.4,17 23.4,22.2 53.9,22.2 		"/>
	</g>
	<g>
		<path class="st1" d="M35.1,29c-3.7-0.7-5.7,1.2-5.4,2.8l0,0.1c-2.9,0.5-2.1,3.9-0.8,3.9l0.1,0c-0.3,2.4,3.2,3.8,4.9,2.4l0.1-0.1
			c0.6,2.3,8.1,2.4,9.6,0.7l0.1,0c3.3,0.3,4.8-2,4.1-3.6l0.2,0c1.1-0.3,1.3-2.9-0.7-3.3l0-0.1c0.8-1.7-1.1-3.3-3.9-3l-0.2-0.1
			c-2-1.8-7.6-1.5-8.3,0.3L35.1,29z"/>
	</g>
	<g>
		<path class="st2" d="M57.2,11.4c-28.8-5.7-44,9-41.6,21.8l0.2,0.7C-6.7,37.7-0.8,64.1,10,64.1l1.1,0C8.3,76.6,34.5,89.2,49.2,82.9
			l0.9-1c5.2,11.2,23.7,13.1,42.1,13.5c15.9,0.4,25.1-0.9,32-7.8l1,0.3c25.4,2,37-15.5,31.4-28.1l1.4-0.4c8.7-2.3,9.7-22.3-5.2-25.3
			l0.3-0.8c6.5-13-8.8-25.3-29.9-23l-1.5-0.8C106.6-4.1,63.1-1.8,58,11.7L57.2,11.4z"/>
	</g>
	<line class="st2" x1="68.6" y1="71.9" x2="49.6" y2="59.2"/>
	<line class="st2" x1="99.3" y1="68.9" x2="111.3" y2="60.9"/>
	<line class="st2" x1="57" y1="29.9" x2="113.6" y2="29.9"/>
</g>
</svg>
