<?xml version="1.0" encoding="UTF-8" standalone="no"?>
<svg
   xmlns:dc="http://purl.org/dc/elements/1.1/"
   xmlns:cc="http://creativecommons.org/ns#"
   xmlns:rdf="http://www.w3.org/1999/02/22-rdf-syntax-ns#"
   xmlns:svg="http://www.w3.org/2000/svg"
   xmlns="http://www.w3.org/2000/svg"
   viewBox="0 0 45.426666 40.68"
   height="40.68"
   width="45.426666"
   xml:space="preserve"
   id="svg2"
   version="1.1"><metadata
     id="metadata8"><rdf:RDF><cc:Work
         rdf:about=""><dc:format>image/svg+xml</dc:format><dc:type
           rdf:resource="http://purl.org/dc/dcmitype/StillImage" /></cc:Work></rdf:RDF></metadata><defs
     id="defs6"><clipPath
       id="clipPath20"
       clipPathUnits="userSpaceOnUse"><path
         id="path18"
         d="M 0,305 H 340 V 0 H 0 Z" /></clipPath></defs><g
     transform="matrix(1.3333333,0,0,-1.3333333,0,40.68)"
     id="g10"><g
       transform="scale(0.1)"
       id="g12"><g
         id="g14"><g
           clip-path="url(#clipPath20)"
           id="g16"><path
             id="path22"
             style="fill:#008998;fill-opacity:1;fill-rule:nonzero;stroke:none"
             d="M 335.566,245.703 V 143.75 L 243.895,59.5898 V 161.543 l 91.671,84.16" /><path
             id="path24"
             style="fill:none;stroke:#ffffff;stroke-width:4;stroke-linecap:butt;stroke-linejoin:miter;stroke-miterlimit:4;stroke-dasharray:none;stroke-opacity:1"
             d="M 335.566,245.703 V 143.75 L 243.895,59.5898 V 161.543 Z" /><path
             id="path26"
             style="fill:#008998;fill-opacity:1;fill-rule:nonzero;stroke:none"
             d="M 86.6523,220.605 H 5.21484 L 96.875,303.086 h 81.445 l 112.325,-57.383 h 44.921 l -91.671,-84.16 h -44.918" /><path
             id="path28"
             style="fill:none;stroke:#ffffff;stroke-width:4;stroke-linecap:butt;stroke-linejoin:miter;stroke-miterlimit:4;stroke-dasharray:none;stroke-opacity:1"
             d="M 86.6523,220.605 H 5.21484 L 96.875,303.086 h 81.445 l 112.325,-57.383 h 44.921 l -91.671,-84.16 h -44.918" /><path
             id="path30"
             style="fill:#008998;fill-opacity:1;fill-rule:nonzero;stroke:none"
             d="M 86.7773,220.488 199.094,161.543 h -0.117 44.918 V 59.5898 h -44.918 0.117 L 86.7773,2.55859 86.6523,2.73438 H 5.21484 V 220.723 H 86.6523 l 0.125,-0.235" /><path
             id="path32"
             style="fill:none;stroke:#ffffff;stroke-width:4;stroke-linecap:butt;stroke-linejoin:miter;stroke-miterlimit:4;stroke-dasharray:none;stroke-opacity:1"
             d="M 86.7773,220.488 199.094,161.543 h -0.117 44.918 V 59.5898 h -44.918 0.117 L 86.7773,2.55859 86.6523,2.73438 H 5.21484 V 220.723 H 86.6523 Z" /><path
             id="path34"
             style="fill:#ffffff;fill-opacity:1;fill-rule:nonzero;stroke:none"
             d="m 181.609,244.922 -42.996,20.012" /><path
             id="path36"
             style="fill:none;stroke:#ffffff;stroke-width:4;stroke-linecap:round;stroke-linejoin:round;stroke-miterlimit:4;stroke-dasharray:none;stroke-opacity:1"
             d="m 181.609,244.922 -42.996,20.012" /><path
             id="path38"
             style="fill:#ffffff;fill-opacity:1;fill-rule:nonzero;stroke:none"
             d="m 198.594,210.969 30.82,23.652 -34.453,-0.742 3.633,-22.91" /><path
             id="path40"
             style="fill:#ffffff;fill-opacity:1;fill-rule:nonzero;stroke:none"
             d="m 148.711,240.969 30.84,23.64 5,-23.25 -35.84,-0.39" /><path
             id="path42"
             style="fill:#ffffff;fill-opacity:1;fill-rule:nonzero;stroke:none"
             d="m 240.52,212.363 -37.844,18.633" /><path
             id="path44"
             style="fill:none;stroke:#ffffff;stroke-width:4;stroke-linecap:round;stroke-linejoin:round;stroke-miterlimit:4;stroke-dasharray:none;stroke-opacity:1"
             d="m 240.52,212.363 -37.844,18.633" /><path
             id="path46"
             style="fill:#ffffff;fill-opacity:1;fill-rule:nonzero;stroke:none"
             d="m 194.707,240.859 21.367,15.911" /><path
             id="path48"
             style="fill:none;stroke:#ffffff;stroke-width:4;stroke-linecap:round;stroke-linejoin:round;stroke-miterlimit:4;stroke-dasharray:none;stroke-opacity:1"
             d="m 194.707,240.859 21.367,15.911" /><path
             id="path50"
             style="fill:#ffffff;fill-opacity:1;fill-rule:nonzero;stroke:none"
             d="m 153.457,230.918 32.617,-17.586 -34.238,-5.812 1.621,23.398" /><path
             id="path52"
             style="fill:#ffffff;fill-opacity:1;fill-rule:nonzero;stroke:none"
             d="m 196.816,264.922 32.598,-17.598 -2.273,20.02 -30.325,-2.422" /><path
             id="path54"
             style="fill:#ffffff;fill-opacity:1;fill-rule:nonzero;stroke:none"
             d="m 161.309,214.836 23.964,18.32" /><path
             id="path56"
             style="fill:none;stroke:#ffffff;stroke-width:4;stroke-linecap:round;stroke-linejoin:round;stroke-miterlimit:4;stroke-dasharray:none;stroke-opacity:1"
             d="m 161.309,214.836 23.964,18.32" /><path
             id="path58"
             style="fill:none;stroke:#ffffff;stroke-width:14.25;stroke-linecap:butt;stroke-linejoin:miter;stroke-miterlimit:4;stroke-dasharray:none;stroke-opacity:1"
             d="M 151.523,69.668 H 118.469 L 73.5859,160.203 H 43.9336" /><path
             id="path60"
             style="fill:none;stroke:#ffffff;stroke-width:14.25;stroke-linecap:butt;stroke-linejoin:miter;stroke-miterlimit:4;stroke-dasharray:none;stroke-opacity:1"
             d="m 41.6406,69.8047 h 31.9453 l 44.4611,90.0973 h 34.629" /><path
             id="path62"
             style="fill:#ffffff;fill-opacity:1;fill-rule:nonzero;stroke:none"
             d="m 141.25,176.477 v -31.973 l 19.258,15.359 -19.258,16.614" /><path
             id="path64"
             style="fill:none;stroke:#ffffff;stroke-width:1.89999998;stroke-linecap:butt;stroke-linejoin:miter;stroke-miterlimit:4;stroke-dasharray:none;stroke-opacity:1"
             d="m 141.25,176.477 v -31.973 l 19.258,15.359 z" /><path
             id="path66"
             style="fill:#ffffff;fill-opacity:1;fill-rule:nonzero;stroke:none"
             d="M 141.25,86.3672 V 54.4023 l 19.258,15.3555 -19.258,16.6094" /><path
             id="path68"
             style="fill:none;stroke:#ffffff;stroke-width:1.89999998;stroke-linecap:butt;stroke-linejoin:miter;stroke-miterlimit:4;stroke-dasharray:none;stroke-opacity:1"
             d="M 141.25,86.3672 V 54.4023 l 19.258,15.3555 z" /><path
             id="path70"
             style="fill:#ffffff;fill-opacity:1;fill-rule:nonzero;stroke:none"
             d="m 48.3984,143.906 v 31.973 L 29.1406,160.52 48.3984,143.906" /><path
             id="path72"
             style="fill:none;stroke:#ffffff;stroke-width:1.89999998;stroke-linecap:butt;stroke-linejoin:miter;stroke-miterlimit:4;stroke-dasharray:none;stroke-opacity:1"
             d="m 48.3984,143.906 v 31.973 L 29.1406,160.52 Z" /><path
             id="path74"
             style="fill:#ffffff;fill-opacity:1;fill-rule:nonzero;stroke:none"
             d="M 48.3984,53.3516 V 85.3125 L 29.1406,69.9609 48.3984,53.3516" /><path
             id="path76"
             style="fill:none;stroke:#ffffff;stroke-width:1.89999998;stroke-linecap:butt;stroke-linejoin:miter;stroke-miterlimit:4;stroke-dasharray:none;stroke-opacity:1"
             d="M 48.3984,53.3516 V 85.3125 L 29.1406,69.9609 Z" /></g></g></g></g></svg>