<?xml version="1.0" encoding="UTF-8" standalone="no"?>
<svg
   xmlns:dc="http://purl.org/dc/elements/1.1/"
   xmlns:cc="http://creativecommons.org/ns#"
   xmlns:rdf="http://www.w3.org/1999/02/22-rdf-syntax-ns#"
   xmlns:svg="http://www.w3.org/2000/svg"
   xmlns="http://www.w3.org/2000/svg"
   viewBox="0 0 50.360001 45.253334"
   height="45.253334"
   width="50.360001"
   xml:space="preserve"
   id="svg2"
   version="1.1"><metadata
     id="metadata8"><rdf:RDF><cc:Work
         rdf:about=""><dc:format>image/svg+xml</dc:format><dc:type
           rdf:resource="http://purl.org/dc/dcmitype/StillImage" /></cc:Work></rdf:RDF></metadata><defs
     id="defs6" /><g
     transform="matrix(1.3333333,0,0,-1.3333333,0,45.253333)"
     id="g10"><g
       transform="scale(0.1)"
       id="g12"><path
         id="path14"
         style="fill:#008998;fill-opacity:1;fill-rule:nonzero;stroke:none"
         d="m 5.03516,52.9492 h 314.734 v 59.0625 H 5.03516 Z" /><path
         id="path16"
         style="fill:none;stroke:#ffffff;stroke-width:3.99993992;stroke-linecap:butt;stroke-linejoin:miter;stroke-miterlimit:4;stroke-dasharray:none;stroke-opacity:1"
         d="M 319.77,52.9492 V 112.012 H 5.03516 V 52.9492 Z" /><path
         id="path18"
         style="fill:#008998;fill-opacity:1;fill-rule:nonzero;stroke:none"
         d="m 223.375,78.5742 h 79.383" /><path
         id="path20"
         style="fill:none;stroke:#ffffff;stroke-width:3.99993992;stroke-linecap:butt;stroke-linejoin:miter;stroke-miterlimit:4;stroke-dasharray:none;stroke-opacity:1"
         d="m 223.375,78.5742 h 79.383" /><path
         id="path22"
         style="fill:#008998;fill-opacity:1;fill-rule:nonzero;stroke:none"
         d="m 223.375,81.4063 h 79.383" /><path
         id="path24"
         style="fill:none;stroke:#ffffff;stroke-width:3.99993992;stroke-linecap:butt;stroke-linejoin:miter;stroke-miterlimit:4;stroke-dasharray:none;stroke-opacity:1"
         d="m 223.375,81.4063 h 79.383" /><path
         id="path26"
         style="fill:#008998;fill-opacity:1;fill-rule:nonzero;stroke:none"
         d="m 372.613,108.945 v 52.84 L 319.73,111.777 V 52.9492 l 52.883,55.9958" /><path
         id="path28"
         style="fill:none;stroke:#ffffff;stroke-width:3.99993992;stroke-linecap:butt;stroke-linejoin:miter;stroke-miterlimit:4;stroke-dasharray:none;stroke-opacity:1"
         d="m 372.613,108.945 v 52.84 L 319.73,111.777 V 52.9492 Z" /><path
         id="path30"
         style="fill:#008998;fill-opacity:1;fill-rule:nonzero;stroke:none"
         d="M 263.871,4.82422 V 17.9102 l 28.594,39.7265 V 33.418 L 263.871,4.82422" /><path
         id="path32"
         style="fill:none;stroke:#ffffff;stroke-width:3.99993992;stroke-linecap:butt;stroke-linejoin:miter;stroke-miterlimit:4;stroke-dasharray:none;stroke-opacity:1"
         d="M 263.871,4.82422 V 17.9102 l 28.594,39.7265 V 33.418 Z" /><path
         id="path34"
         style="fill:#008998;fill-opacity:1;fill-rule:nonzero;stroke:none"
         d="m 12.0078,4.82422 h 251.863 v 13.0859 H 12.0078 Z" /><path
         id="path36"
         style="fill:none;stroke:#ffffff;stroke-width:3.99993992;stroke-linecap:butt;stroke-linejoin:miter;stroke-miterlimit:4;stroke-dasharray:none;stroke-opacity:1"
         d="M 263.871,17.9102 V 4.82422 H 12.0078 V 17.9102 Z" /><path
         id="path38"
         style="fill:#008998;fill-opacity:1;fill-rule:nonzero;stroke:none"
         d="M 263.871,17.9102 H 12.0078 L 41.1484,57.6367 H 292.465 L 263.871,17.9102" /><path
         id="path40"
         style="fill:none;stroke:#ffffff;stroke-width:3.99993992;stroke-linecap:butt;stroke-linejoin:miter;stroke-miterlimit:4;stroke-dasharray:none;stroke-opacity:1"
         d="M 263.871,17.9102 H 12.0078 L 41.1484,57.6367 H 292.465 Z" /><path
         id="path42"
         style="fill:#008998;fill-opacity:1;fill-rule:nonzero;stroke:none"
         d="M 372.613,161.785 H 57.7773 L 5.03516,112.012 H 319.77 l 52.843,49.773" /><path
         id="path44"
         style="fill:none;stroke:#ffffff;stroke-width:3.99993992;stroke-linecap:butt;stroke-linejoin:miter;stroke-miterlimit:4;stroke-dasharray:none;stroke-opacity:1"
         d="M 372.613,161.785 H 57.7773 L 5.03516,112.012 H 319.77 Z" /><path
         id="path46"
         style="fill:#008998;fill-opacity:1;fill-rule:nonzero;stroke:none"
         d="M 61.332,141.191 H 278.336 V 300.39 H 61.332 Z" /><path
         id="path48"
         style="fill:none;stroke:#ffffff;stroke-width:3.99993992;stroke-linecap:butt;stroke-linejoin:miter;stroke-miterlimit:4;stroke-dasharray:none;stroke-opacity:1"
         d="m 278.336,141.191 v 159.2 H 61.332 v -159.2 z" /><path
         id="path50"
         style="fill:#008998;fill-opacity:1;fill-rule:nonzero;stroke:none"
         d="m 79.6641,265.449 c 0,15.969 16.5507,18.332 16.5507,18.332 0,0 127.7262,0 143.0982,0 20.105,0 19.511,-18.918 19.511,-18.918 0,0 0,-78.054 0,-89.297 0,-11.23 -15.371,-15.957 -15.371,-15.957 0,0 -130.676,0 -144.8749,0 -14.1875,0 -18.914,14.786 -18.914,14.786 v 91.054" /><path
         id="path52"
         style="fill:none;stroke:#ffffff;stroke-width:3.99993992;stroke-linecap:butt;stroke-linejoin:miter;stroke-miterlimit:4;stroke-dasharray:none;stroke-opacity:1"
         d="m 79.6641,265.449 c 0,15.969 16.5507,18.332 16.5507,18.332 0,0 127.7262,0 143.0982,0 20.105,0 19.511,-18.918 19.511,-18.918 0,0 0,-78.054 0,-89.297 0,-11.23 -15.371,-15.957 -15.371,-15.957 0,0 -130.676,0 -144.8749,0 -14.1875,0 -18.914,14.786 -18.914,14.786 z" /><path
         id="path54"
         style="fill:#008998;fill-opacity:1;fill-rule:nonzero;stroke:none"
         d="M 314.703,334.629 H 97.6914 L 61.332,300.391 h 217.004 l 36.367,34.238" /><path
         id="path56"
         style="fill:none;stroke:#ffffff;stroke-width:3.99993992;stroke-linecap:butt;stroke-linejoin:miter;stroke-miterlimit:4;stroke-dasharray:none;stroke-opacity:1"
         d="M 314.703,334.629 H 97.6914 L 61.332,300.391 h 217.004 z" /><path
         id="path58"
         style="fill:#008998;fill-opacity:1;fill-rule:nonzero;stroke:none"
         d="m 314.711,175.078 v 159.629 l -36.016,-34.316 v -159.2 l 36.016,33.887" /><path
         id="path60"
         style="fill:none;stroke:#ffffff;stroke-width:3.99993992;stroke-linecap:butt;stroke-linejoin:miter;stroke-miterlimit:4;stroke-dasharray:none;stroke-opacity:1"
         d="m 314.711,175.078 v 159.629 l -36.016,-34.316 v -159.2 z" /></g></g></svg>