<?xml version="1.0"  encoding="UTF-8" standalone="no"?>
<svg version="1.1" xmlns="http://www.w3.org/2000/svg" xmlns:xlink="http://www.w3.org/1999/xlink" width="895.0000" height="1113.0000">
<g transform="translate(161.0000, 270.0000)">
<path d="M 575.0000,-150.0000 C 498.0000,-227.0000 395.0000,-270.0000 287.0000,-270.0000 C 178.0000,-270.0000 75.0000,-227.0000 -2.0000,-150.0000 C -78.0000,-74.0000 -121.0000,29.0000 -121.0000,138.0000 C -121.0000,246.0000 -78.0000,349.0000 -2.0000,426.0000 C 75.0000,503.0000 178.0000,545.0000 287.0000,545.0000 C 395.0000,545.0000 498.0000,503.0000 575.0000,426.0000 C 651.0000,349.0000 694.0000,246.0000 694.0000,138.0000 C 694.0000,29.0000 651.0000,-74.0000 575.0000,-150.0000 Z M 22.0000,402.0000 C -48.0000,331.0000 -87.0000,237.0000 -87.0000,138.0000 C -87.0000,38.0000 -48.0000,-56.0000 22.0000,-127.0000 C 93.0000,-197.0000 187.0000,-236.0000 287.0000,-236.0000 C 386.0000,-236.0000 480.0000,-197.0000 551.0000,-127.0000 C 621.0000,-56.0000 660.0000,38.0000 660.0000,138.0000 C 660.0000,237.0000 621.0000,331.0000 551.0000,402.0000 C 480.0000,472.0000 386.0000,511.0000 287.0000,511.0000 C 187.0000,511.0000 93.0000,472.0000 22.0000,402.0000 Z "  fill="#B5BF00" stroke="none" />
<path d="M -132.0000,595.0000 L -104.0000,595.0000 L -74.0000,707.0000 L -98.0000,707.0000 L -103.0000,683.0000 L -133.0000,683.0000 L -138.0000,707.0000 L -161.0000,707.0000 L -132.0000,595.0000 Z M -129.0000,665.0000 L -107.0000,665.0000 L -118.0000,615.0000 L -118.0000,615.0000 L -129.0000,665.0000 Z "  fill="#B5BF00" stroke-width="1px" stroke="#FFFFFF" />
<path d="M -66.0000,595.0000 C -27.0000,595.0000 -27.0000,595.0000 -27.0000,595.0000 C -4.0000,595.0000 4.0000,612.0000 4.0000,629.0000 C 4.0000,652.0000 -10.0000,662.0000 -32.0000,662.0000 C -44.0000,662.0000 -44.0000,662.0000 -44.0000,662.0000 C -44.0000,707.0000 -44.0000,707.0000 -44.0000,707.0000 C -66.0000,707.0000 -66.0000,707.0000 -66.0000,707.0000 Z M -44.0000,646.0000 C -34.0000,646.0000 -34.0000,646.0000 -34.0000,646.0000 C -25.0000,646.0000 -19.0000,640.0000 -19.0000,629.0000 C -19.0000,618.0000 -23.0000,612.0000 -34.0000,612.0000 C -44.0000,612.0000 -44.0000,612.0000 -44.0000,612.0000 Z "  fill="#B5BF00" stroke="none" />
<path d="M 52.0000,649.0000 C 52.0000,647.0000 52.0000,647.0000 52.0000,647.0000 C 52.0000,627.0000 65.0000,621.0000 82.0000,621.0000 C 107.0000,621.0000 112.0000,631.0000 112.0000,646.0000 C 112.0000,691.0000 112.0000,691.0000 112.0000,691.0000 C 112.0000,699.0000 113.0000,702.0000 115.0000,707.0000 C 94.0000,707.0000 94.0000,707.0000 94.0000,707.0000 C 93.0000,704.0000 92.0000,701.0000 91.0000,698.0000 C 91.0000,698.0000 91.0000,698.0000 91.0000,698.0000 C 86.0000,707.0000 80.0000,709.0000 70.0000,709.0000 C 55.0000,709.0000 49.0000,696.0000 49.0000,685.0000 C 49.0000,669.0000 56.0000,663.0000 71.0000,659.0000 C 83.0000,655.0000 83.0000,655.0000 83.0000,655.0000 C 89.0000,654.0000 91.0000,651.0000 91.0000,646.0000 C 91.0000,639.0000 89.0000,635.0000 81.0000,635.0000 C 75.0000,635.0000 71.0000,640.0000 71.0000,646.0000 C 71.0000,649.0000 71.0000,649.0000 71.0000,649.0000 Z M 91.0000,665.0000 C 89.0000,667.0000 85.0000,669.0000 82.0000,669.0000 C 73.0000,671.0000 70.0000,675.0000 70.0000,683.0000 C 70.0000,689.0000 72.0000,695.0000 78.0000,695.0000 C 84.0000,695.0000 91.0000,691.0000 91.0000,682.0000 Z "  fill="#B5BF00" stroke="none" />
<path d="M 128.0000,623.0000 C 148.0000,623.0000 148.0000,623.0000 148.0000,623.0000 C 148.0000,633.0000 148.0000,633.0000 148.0000,633.0000 C 149.0000,633.0000 149.0000,633.0000 149.0000,633.0000 C 153.0000,624.0000 161.0000,621.0000 170.0000,621.0000 C 184.0000,621.0000 192.0000,628.0000 192.0000,645.0000 C 192.0000,707.0000 192.0000,707.0000 192.0000,707.0000 C 170.0000,707.0000 170.0000,707.0000 170.0000,707.0000 C 170.0000,649.0000 170.0000,649.0000 170.0000,649.0000 C 170.0000,640.0000 167.0000,637.0000 161.0000,637.0000 C 153.0000,637.0000 149.0000,642.0000 149.0000,651.0000 C 149.0000,707.0000 149.0000,707.0000 149.0000,707.0000 C 128.0000,707.0000 128.0000,707.0000 128.0000,707.0000 Z "  fill="#B5BF00" stroke="none" />
<path d="M 249.0000,698.0000 C 249.0000,698.0000 249.0000,698.0000 249.0000,698.0000 C 244.0000,706.0000 238.0000,709.0000 230.0000,709.0000 C 212.0000,709.0000 204.0000,696.0000 204.0000,665.0000 C 204.0000,634.0000 212.0000,621.0000 230.0000,621.0000 C 238.0000,621.0000 243.0000,624.0000 248.0000,631.0000 C 248.0000,631.0000 248.0000,631.0000 248.0000,631.0000 C 248.0000,595.0000 248.0000,595.0000 248.0000,595.0000 C 270.0000,595.0000 270.0000,595.0000 270.0000,595.0000 C 270.0000,707.0000 270.0000,707.0000 270.0000,707.0000 C 249.0000,707.0000 249.0000,707.0000 249.0000,707.0000 Z M 237.0000,693.0000 C 246.0000,693.0000 248.0000,683.0000 248.0000,665.0000 C 248.0000,647.0000 246.0000,637.0000 237.0000,637.0000 C 227.0000,637.0000 226.0000,647.0000 226.0000,665.0000 C 226.0000,683.0000 227.0000,693.0000 237.0000,693.0000 Z "  fill="#B5BF00" stroke="none" />
<path d="M 341.0000,672.0000 C 341.0000,675.0000 341.0000,675.0000 341.0000,675.0000 C 341.0000,686.0000 344.0000,693.0000 356.0000,693.0000 C 363.0000,693.0000 369.0000,688.0000 369.0000,679.0000 C 369.0000,669.0000 364.0000,665.0000 349.0000,660.0000 C 329.0000,653.0000 320.0000,644.0000 320.0000,626.0000 C 320.0000,604.0000 333.0000,593.0000 354.0000,593.0000 C 374.0000,593.0000 389.0000,602.0000 389.0000,623.0000 C 389.0000,626.0000 389.0000,626.0000 389.0000,626.0000 C 367.0000,626.0000 367.0000,626.0000 367.0000,626.0000 C 367.0000,616.0000 364.0000,610.0000 355.0000,610.0000 C 345.0000,610.0000 342.0000,616.0000 342.0000,623.0000 C 342.0000,629.0000 344.0000,634.0000 354.0000,638.0000 C 371.0000,645.0000 371.0000,645.0000 371.0000,645.0000 C 388.0000,653.0000 393.0000,661.0000 393.0000,675.0000 C 393.0000,699.0000 378.0000,709.0000 354.0000,709.0000 C 328.0000,709.0000 318.0000,697.0000 318.0000,677.0000 C 318.0000,672.0000 318.0000,672.0000 318.0000,672.0000 Z "  fill="#B5BF00" stroke="none" />
<path d="M 397.0000,623.0000 L 419.0000,623.0000 L 429.0000,683.0000 L 429.0000,683.0000 L 440.0000,623.0000 L 463.0000,623.0000 L 474.0000,683.0000 L 475.0000,683.0000 L 485.0000,623.0000 L 505.0000,623.0000 L 487.0000,707.0000 L 463.0000,707.0000 L 451.0000,647.0000 L 451.0000,647.0000 L 441.0000,707.0000 L 416.0000,707.0000 L 397.0000,623.0000 Z "  fill="#B5BF00" stroke-width="1px" stroke="#FFFFFF" />
<path d="M 514.0000,594.0000 L 536.0000,594.0000 L 536.0000,612.0000 L 514.0000,612.0000 L 514.0000,594.0000 Z M 514.0000,623.0000 L 536.0000,623.0000 L 536.0000,707.0000 L 514.0000,707.0000 L 514.0000,623.0000 Z "  fill="#B5BF00" stroke-width="1px" stroke="#FFFFFF" />
<path d="M 556.0000,599.0000 C 578.0000,599.0000 578.0000,599.0000 578.0000,599.0000 C 578.0000,623.0000 578.0000,623.0000 578.0000,623.0000 C 590.0000,623.0000 590.0000,623.0000 590.0000,623.0000 C 590.0000,637.0000 590.0000,637.0000 590.0000,637.0000 C 578.0000,637.0000 578.0000,637.0000 578.0000,637.0000 C 578.0000,683.0000 578.0000,683.0000 578.0000,683.0000 C 578.0000,690.0000 579.0000,692.0000 585.0000,692.0000 C 587.0000,692.0000 589.0000,692.0000 590.0000,692.0000 C 590.0000,707.0000 590.0000,707.0000 590.0000,707.0000 C 585.0000,708.0000 581.0000,708.0000 576.0000,708.0000 C 559.0000,708.0000 556.0000,703.0000 556.0000,686.0000 C 556.0000,637.0000 556.0000,637.0000 556.0000,637.0000 C 545.0000,637.0000 545.0000,637.0000 545.0000,637.0000 C 545.0000,623.0000 545.0000,623.0000 545.0000,623.0000 C 556.0000,623.0000 556.0000,623.0000 556.0000,623.0000 Z "  fill="#B5BF00" stroke="none" />
<path d="M 638.0000,653.0000 C 638.0000,645.0000 637.0000,636.0000 629.0000,636.0000 C 618.0000,636.0000 616.0000,646.0000 616.0000,665.0000 C 616.0000,686.0000 618.0000,695.0000 628.0000,695.0000 C 635.0000,695.0000 638.0000,689.0000 638.0000,675.0000 C 659.0000,675.0000 659.0000,675.0000 659.0000,675.0000 C 659.0000,697.0000 650.0000,709.0000 627.0000,709.0000 C 605.0000,709.0000 595.0000,699.0000 595.0000,665.0000 C 595.0000,630.0000 609.0000,621.0000 629.0000,621.0000 C 649.0000,621.0000 659.0000,633.0000 659.0000,653.0000 Z "  fill="#B5BF00" stroke="none" />
<path d="M 670.0000,595.0000 C 692.0000,595.0000 692.0000,595.0000 692.0000,595.0000 C 692.0000,631.0000 692.0000,631.0000 692.0000,631.0000 C 692.0000,631.0000 692.0000,631.0000 692.0000,631.0000 C 696.0000,624.0000 704.0000,621.0000 713.0000,621.0000 C 726.0000,621.0000 734.0000,628.0000 734.0000,645.0000 C 734.0000,707.0000 734.0000,707.0000 734.0000,707.0000 C 713.0000,707.0000 713.0000,707.0000 713.0000,707.0000 C 713.0000,649.0000 713.0000,649.0000 713.0000,649.0000 C 713.0000,640.0000 710.0000,637.0000 703.0000,637.0000 C 696.0000,637.0000 692.0000,642.0000 692.0000,651.0000 C 692.0000,707.0000 692.0000,707.0000 692.0000,707.0000 C 670.0000,707.0000 670.0000,707.0000 670.0000,707.0000 Z "  fill="#B5BF00" stroke="none" />
<path d="M 40.0000,767.0000 C 40.0000,751.0000 37.0000,744.0000 26.0000,744.0000 C 15.0000,744.0000 12.0000,755.0000 12.0000,787.0000 C 12.0000,821.0000 17.0000,827.0000 27.0000,827.0000 C 35.0000,827.0000 41.0000,823.0000 41.0000,798.0000 C 63.0000,798.0000 63.0000,798.0000 63.0000,798.0000 C 63.0000,823.0000 57.0000,843.0000 28.0000,843.0000 C -6.0000,843.0000 -10.0000,819.0000 -10.0000,785.0000 C -10.0000,751.0000 -6.0000,727.0000 28.0000,727.0000 C 60.0000,727.0000 62.0000,751.0000 62.0000,767.0000 Z "  fill="#B5BF00" stroke="none" />
<path d="M 106.0000,755.0000 C 132.0000,754.0000 139.0000,769.0000 139.0000,799.0000 C 139.0000,828.0000 131.0000,843.0000 106.0000,843.0000 C 80.0000,844.0000 73.0000,828.0000 73.0000,799.0000 C 73.0000,770.0000 81.0000,755.0000 106.0000,755.0000 Z M 106.0000,829.0000 C 115.0000,829.0000 118.0000,820.0000 118.0000,799.0000 C 118.0000,778.0000 115.0000,769.0000 106.0000,769.0000 C 95.0000,769.0000 94.0000,782.0000 94.0000,799.0000 C 94.0000,816.0000 95.0000,829.0000 106.0000,829.0000 Z "  fill="#B5BF00" stroke="none" />
<path d="M 151.0000,757.0000 C 172.0000,757.0000 172.0000,757.0000 172.0000,757.0000 C 172.0000,767.0000 172.0000,767.0000 172.0000,767.0000 C 172.0000,767.0000 172.0000,767.0000 172.0000,767.0000 C 176.0000,758.0000 184.0000,755.0000 193.0000,755.0000 C 207.0000,755.0000 215.0000,762.0000 215.0000,779.0000 C 215.0000,841.0000 215.0000,841.0000 215.0000,841.0000 C 193.0000,841.0000 193.0000,841.0000 193.0000,841.0000 C 193.0000,783.0000 193.0000,783.0000 193.0000,783.0000 C 193.0000,774.0000 190.0000,771.0000 184.0000,771.0000 C 176.0000,771.0000 173.0000,776.0000 173.0000,785.0000 C 173.0000,841.0000 173.0000,841.0000 173.0000,841.0000 C 151.0000,841.0000 151.0000,841.0000 151.0000,841.0000 Z "  fill="#B5BF00" stroke="none" />
<path d="M 234.0000,733.0000 C 256.0000,733.0000 256.0000,733.0000 256.0000,733.0000 C 256.0000,757.0000 256.0000,757.0000 256.0000,757.0000 C 268.0000,757.0000 268.0000,757.0000 268.0000,757.0000 C 268.0000,771.0000 268.0000,771.0000 268.0000,771.0000 C 256.0000,771.0000 256.0000,771.0000 256.0000,771.0000 C 256.0000,817.0000 256.0000,817.0000 256.0000,817.0000 C 256.0000,824.0000 257.0000,826.0000 263.0000,826.0000 C 265.0000,826.0000 267.0000,826.0000 268.0000,826.0000 C 268.0000,841.0000 268.0000,841.0000 268.0000,841.0000 C 263.0000,842.0000 259.0000,842.0000 254.0000,842.0000 C 237.0000,842.0000 234.0000,837.0000 234.0000,820.0000 C 234.0000,771.0000 234.0000,771.0000 234.0000,771.0000 C 223.0000,771.0000 223.0000,771.0000 223.0000,771.0000 C 223.0000,757.0000 223.0000,757.0000 223.0000,757.0000 C 234.0000,757.0000 234.0000,757.0000 234.0000,757.0000 Z "  fill="#B5BF00" stroke="none" />
<path d="M 276.0000,757.0000 C 296.0000,757.0000 296.0000,757.0000 296.0000,757.0000 C 296.0000,768.0000 296.0000,768.0000 296.0000,768.0000 C 297.0000,768.0000 297.0000,768.0000 297.0000,768.0000 C 301.0000,760.0000 307.0000,755.0000 316.0000,755.0000 C 317.0000,755.0000 319.0000,755.0000 320.0000,755.0000 C 320.0000,776.0000 320.0000,776.0000 320.0000,776.0000 C 318.0000,775.0000 316.0000,775.0000 313.0000,775.0000 C 306.0000,775.0000 297.0000,779.0000 297.0000,790.0000 C 297.0000,841.0000 297.0000,841.0000 297.0000,841.0000 C 276.0000,841.0000 276.0000,841.0000 276.0000,841.0000 Z "  fill="#B5BF00" stroke="none" />
<path d="M 358.0000,755.0000 C 384.0000,754.0000 392.0000,769.0000 392.0000,799.0000 C 392.0000,828.0000 383.0000,843.0000 358.0000,843.0000 C 332.0000,844.0000 325.0000,828.0000 325.0000,799.0000 C 325.0000,770.0000 334.0000,755.0000 358.0000,755.0000 Z M 358.0000,829.0000 C 367.0000,829.0000 370.0000,820.0000 370.0000,799.0000 C 370.0000,778.0000 367.0000,769.0000 358.0000,769.0000 C 348.0000,769.0000 347.0000,782.0000 347.0000,799.0000 C 347.0000,816.0000 348.0000,829.0000 358.0000,829.0000 Z "  fill="#B5BF00" stroke="none" />
<path d="M 404.0000,729.0000 L 426.0000,729.0000 L 426.0000,841.0000 L 404.0000,841.0000 L 404.0000,729.0000 Z "  fill="#B5BF00" stroke-width="1px" stroke="#FFFFFF" />
<path d="M 442.0000,729.0000 L 463.0000,729.0000 L 463.0000,841.0000 L 442.0000,841.0000 L 442.0000,729.0000 Z "  fill="#B5BF00" stroke-width="1px" stroke="#FFFFFF" />
<path d="M 497.0000,802.0000 C 497.0000,809.0000 497.0000,809.0000 497.0000,809.0000 C 497.0000,819.0000 500.0000,829.0000 508.0000,829.0000 C 515.0000,829.0000 518.0000,823.0000 519.0000,813.0000 C 538.0000,813.0000 538.0000,813.0000 538.0000,813.0000 C 538.0000,832.0000 529.0000,843.0000 508.0000,843.0000 C 477.0000,843.0000 475.0000,819.0000 475.0000,798.0000 C 475.0000,776.0000 480.0000,755.0000 509.0000,755.0000 C 534.0000,755.0000 540.0000,771.0000 540.0000,797.0000 C 540.0000,802.0000 540.0000,802.0000 540.0000,802.0000 Z M 519.0000,789.0000 C 519.0000,776.0000 517.0000,769.0000 508.0000,769.0000 C 499.0000,769.0000 497.0000,778.0000 497.0000,786.0000 C 497.0000,789.0000 497.0000,789.0000 497.0000,789.0000 Z "  fill="#B5BF00" stroke="none" />
<path d="M 551.0000,757.0000 C 572.0000,757.0000 572.0000,757.0000 572.0000,757.0000 C 572.0000,768.0000 572.0000,768.0000 572.0000,768.0000 C 572.0000,768.0000 572.0000,768.0000 572.0000,768.0000 C 576.0000,760.0000 583.0000,755.0000 591.0000,755.0000 C 593.0000,755.0000 594.0000,755.0000 595.0000,755.0000 C 595.0000,776.0000 595.0000,776.0000 595.0000,776.0000 C 593.0000,775.0000 591.0000,775.0000 589.0000,775.0000 C 581.0000,775.0000 573.0000,779.0000 573.0000,790.0000 C 573.0000,841.0000 573.0000,841.0000 573.0000,841.0000 C 551.0000,841.0000 551.0000,841.0000 551.0000,841.0000 Z "  fill="#B5BF00" stroke="none" />
<path d="M 272.0000,-65.0000 L 46.0000,-65.0000 L 46.0000,59.0000 L 272.0000,59.0000 L 272.0000,-65.0000 Z "  fill="#B5BF00" stroke-width="1px" stroke="#FFFFFF" />
<path d="M 130.0000,85.0000 L 46.0000,85.0000 L 46.0000,209.0000 L 130.0000,209.0000 L 130.0000,85.0000 Z "  fill="#B5BF00" stroke-width="1px" stroke="#FFFFFF" />
<path d="M 46.0000,358.0000 L 273.0000,358.0000 L 273.0000,233.0000 L 46.0000,233.0000 L 46.0000,358.0000 Z "  fill="#B5BF00" stroke-width="1px" stroke="#FFFFFF" />
<path d="M 285.0000,85.0000 C 159.0000,85.0000 159.0000,85.0000 159.0000,85.0000 C 159.0000,209.0000 159.0000,209.0000 159.0000,209.0000 C 282.0000,209.0000 282.0000,209.0000 282.0000,209.0000 C 275.0000,191.0000 270.0000,171.0000 270.0000,150.0000 C 270.0000,127.0000 276.0000,105.0000 285.0000,85.0000 Z "  fill="#B5BF00" stroke="none" />
<path d="M 418.0000,85.0000 C 418.0000,85.0000 418.0000,85.0000 418.0000,85.0000 C 418.0000,85.0000 418.0000,85.0000 418.0000,85.0000 C 418.0000,85.0000 418.0000,85.0000 418.0000,85.0000 Z "  fill="#B5BF00" stroke="none" />
<path d="M 324.0000,35.0000 C 331.0000,29.0000 340.0000,25.0000 349.0000,25.0000 C 366.0000,25.0000 381.0000,36.0000 387.0000,52.0000 C 387.0000,53.0000 387.0000,55.0000 388.0000,56.0000 C 391.0000,57.0000 395.0000,58.0000 398.0000,59.0000 C 437.0000,59.0000 437.0000,59.0000 437.0000,59.0000 C 440.0000,58.0000 444.0000,57.0000 447.0000,56.0000 C 448.0000,55.0000 448.0000,53.0000 449.0000,52.0000 C 454.0000,36.0000 469.0000,25.0000 486.0000,25.0000 C 495.0000,25.0000 504.0000,29.0000 512.0000,35.0000 C 518.0000,41.0000 525.0000,47.0000 530.0000,54.0000 C 530.0000,-65.0000 530.0000,-65.0000 530.0000,-65.0000 C 304.0000,-65.0000 304.0000,-65.0000 304.0000,-65.0000 C 304.0000,56.0000 304.0000,56.0000 304.0000,56.0000 C 310.0000,48.0000 316.0000,41.0000 324.0000,35.0000 Z "  fill="#B5BF00" stroke="none" />
<path d="M 418.0000,181.0000 C 434.0000,181.0000 448.0000,167.0000 448.0000,150.0000 C 448.0000,134.0000 434.0000,120.0000 418.0000,120.0000 C 401.0000,120.0000 387.0000,134.0000 387.0000,150.0000 C 387.0000,167.0000 401.0000,181.0000 418.0000,181.0000 Z "  fill="#B5BF00" stroke="none" />
<path d="M 515.0000,150.0000 C 515.0000,181.0000 501.0000,209.0000 480.0000,228.0000 C 469.0000,237.0000 482.0000,252.0000 493.0000,243.0000 C 519.0000,221.0000 535.0000,188.0000 535.0000,150.0000 C 535.0000,113.0000 519.0000,80.0000 492.0000,57.0000 C 482.0000,49.0000 469.0000,64.0000 479.0000,73.0000 C 501.0000,92.0000 515.0000,119.0000 515.0000,150.0000 Z "  fill="#B5BF00" stroke="none" />
<path d="M 343.0000,243.0000 C 353.0000,252.0000 366.0000,237.0000 356.0000,228.0000 C 334.0000,209.0000 320.0000,181.0000 320.0000,150.0000 C 320.0000,119.0000 334.0000,92.0000 356.0000,73.0000 C 366.0000,64.0000 353.0000,49.0000 343.0000,57.0000 C 317.0000,80.0000 300.0000,113.0000 300.0000,150.0000 C 300.0000,188.0000 316.0000,221.0000 343.0000,243.0000 Z "  fill="#B5BF00" stroke="none" />
<path d="M 473.0000,150.0000 C 473.0000,172.0000 464.0000,191.0000 449.0000,204.0000 C 442.0000,209.0000 451.0000,220.0000 458.0000,214.0000 C 476.0000,199.0000 487.0000,176.0000 487.0000,150.0000 C 487.0000,125.0000 476.0000,102.0000 458.0000,87.0000 C 451.0000,81.0000 442.0000,91.0000 449.0000,97.0000 C 464.0000,110.0000 473.0000,129.0000 473.0000,150.0000 Z "  fill="#B5BF00" stroke="none" />
<path d="M 377.0000,214.0000 C 384.0000,220.0000 393.0000,209.0000 386.0000,204.0000 C 371.0000,191.0000 362.0000,172.0000 362.0000,150.0000 C 362.0000,129.0000 371.0000,110.0000 386.0000,97.0000 C 393.0000,91.0000 384.0000,81.0000 377.0000,87.0000 C 359.0000,102.0000 348.0000,125.0000 348.0000,150.0000 C 348.0000,176.0000 359.0000,199.0000 377.0000,214.0000 Z "  fill="#B5BF00" stroke="none" />
<path d="M 506.0000,280.0000 C 367.0000,280.0000 367.0000,280.0000 367.0000,280.0000 C 375.0000,249.0000 375.0000,249.0000 375.0000,249.0000 C 375.0000,249.0000 375.0000,249.0000 375.0000,248.0000 C 375.0000,248.0000 374.0000,247.0000 373.0000,247.0000 C 372.0000,247.0000 372.0000,247.0000 371.0000,247.0000 C 322.0000,295.0000 322.0000,295.0000 322.0000,295.0000 C 320.0000,296.0000 321.0000,297.0000 323.0000,297.0000 C 466.0000,297.0000 466.0000,297.0000 466.0000,297.0000 C 466.0000,297.0000 466.0000,297.0000 467.0000,297.0000 C 506.0000,297.0000 506.0000,297.0000 506.0000,297.0000 C 511.0000,297.0000 514.0000,293.0000 514.0000,289.0000 C 514.0000,284.0000 511.0000,280.0000 506.0000,280.0000 Z "  fill="#B5BF00" stroke="none" />
<path d="M 369.0000,331.0000 C 369.0000,331.0000 369.0000,331.0000 369.0000,331.0000 C 329.0000,331.0000 329.0000,331.0000 329.0000,331.0000 C 325.0000,331.0000 321.0000,334.0000 321.0000,339.0000 C 321.0000,344.0000 325.0000,347.0000 329.0000,347.0000 C 469.0000,347.0000 469.0000,347.0000 469.0000,347.0000 C 461.0000,379.0000 461.0000,379.0000 461.0000,379.0000 C 460.0000,379.0000 460.0000,379.0000 460.0000,379.0000 C 460.0000,380.0000 461.0000,381.0000 462.0000,381.0000 C 463.0000,381.0000 464.0000,381.0000 464.0000,380.0000 C 513.0000,333.0000 513.0000,333.0000 513.0000,333.0000 C 515.0000,332.0000 514.0000,331.0000 512.0000,331.0000 Z "  fill="#B5BF00" stroke="none" />
</g>
</svg>
