<?xml version="1.0"  encoding="UTF-8" standalone="no"?>
<svg version="1.1" xmlns="http://www.w3.org/2000/svg" xmlns:xlink="http://www.w3.org/1999/xlink" width="784.0000" height="646.0000">
<g transform="translate(105.0000, 36.0000)">
<path d="M 241.0000,-36.0000 L -105.0000,-36.0000 L -105.0000,154.0000 L 241.0000,154.0000 L 241.0000,-36.0000 Z "  fill="#B5BF00" stroke-width="1px" stroke="#FFFFFF" />
<path d="M 24.0000,193.0000 L -105.0000,193.0000 L -105.0000,383.0000 L 24.0000,383.0000 L 24.0000,193.0000 Z "  fill="#B5BF00" stroke-width="1px" stroke="#FFFFFF" />
<path d="M 157.0000,420.0000 C -105.0000,420.0000 -105.0000,420.0000 -105.0000,420.0000 C -105.0000,610.0000 -105.0000,610.0000 -105.0000,610.0000 C 185.0000,610.0000 185.0000,610.0000 185.0000,610.0000 C 158.0000,565.0000 156.0000,477.0000 156.0000,455.0000 C 156.0000,448.0000 156.0000,436.0000 157.0000,420.0000 Z "  fill="#B5BF00" stroke="none" />
<path d="M 226.0000,272.0000 C 302.0000,272.0000 302.0000,272.0000 302.0000,272.0000 C 303.0000,272.0000 303.0000,272.0000 304.0000,272.0000 C 306.0000,272.0000 309.0000,272.0000 312.0000,273.0000 C 317.0000,273.0000 317.0000,273.0000 317.0000,273.0000 C 343.0000,272.0000 343.0000,272.0000 343.0000,272.0000 C 636.0000,272.0000 636.0000,272.0000 636.0000,272.0000 C 636.0000,193.0000 636.0000,193.0000 636.0000,193.0000 C 68.0000,193.0000 68.0000,193.0000 68.0000,193.0000 C 68.0000,383.0000 68.0000,383.0000 68.0000,383.0000 C 161.0000,383.0000 161.0000,383.0000 161.0000,383.0000 C 168.0000,331.0000 185.0000,272.0000 226.0000,272.0000 Z "  fill="#B5BF00" stroke="none" />
<path d="M 635.0000,-36.0000 L 289.0000,-36.0000 L 289.0000,154.0000 L 635.0000,154.0000 L 635.0000,-36.0000 Z "  fill="#B5BF00" stroke-width="1px" stroke="#FFFFFF" />
<path d="M 465.0000,385.0000 C 448.0000,385.0000 448.0000,385.0000 448.0000,385.0000 C 435.0000,385.0000 425.0000,395.0000 425.0000,408.0000 C 425.0000,427.0000 425.0000,427.0000 425.0000,427.0000 C 487.0000,427.0000 487.0000,427.0000 487.0000,427.0000 C 487.0000,408.0000 487.0000,408.0000 487.0000,408.0000 C 487.0000,395.0000 477.0000,385.0000 465.0000,385.0000 Z "  fill="#B5BF00" stroke="none" />
<path d="M 465.0000,385.0000 C 448.0000,385.0000 448.0000,385.0000 448.0000,385.0000 C 435.0000,385.0000 425.0000,395.0000 425.0000,408.0000 C 425.0000,427.0000 425.0000,427.0000 425.0000,427.0000 C 487.0000,427.0000 487.0000,427.0000 487.0000,427.0000 C 487.0000,408.0000 487.0000,408.0000 487.0000,408.0000 C 487.0000,395.0000 477.0000,385.0000 465.0000,385.0000 Z "  fill="#B5BF00" stroke="none" />
<path d="M 636.0000,300.0000 C 343.0000,300.0000 343.0000,300.0000 343.0000,300.0000 C 343.0000,300.0000 343.0000,300.0000 343.0000,300.0000 C 310.0000,300.0000 310.0000,300.0000 310.0000,300.0000 C 308.0000,300.0000 305.0000,300.0000 302.0000,300.0000 C 226.0000,300.0000 226.0000,300.0000 226.0000,300.0000 C 203.0000,300.0000 184.0000,369.0000 184.0000,455.0000 C 184.0000,540.0000 203.0000,610.0000 226.0000,610.0000 C 302.0000,610.0000 302.0000,610.0000 302.0000,610.0000 C 304.0000,610.0000 305.0000,610.0000 307.0000,610.0000 C 636.0000,610.0000 636.0000,610.0000 636.0000,610.0000 C 660.0000,610.0000 679.0000,540.0000 679.0000,455.0000 C 679.0000,369.0000 660.0000,300.0000 636.0000,300.0000 Z M 232.0000,589.0000 C 214.0000,589.0000 200.0000,529.0000 200.0000,455.0000 C 200.0000,381.0000 214.0000,320.0000 232.0000,320.0000 C 249.0000,320.0000 264.0000,381.0000 264.0000,455.0000 C 264.0000,529.0000 249.0000,589.0000 232.0000,589.0000 Z M 528.0000,528.0000 C 528.0000,538.0000 519.0000,543.0000 507.0000,543.0000 C 405.0000,543.0000 405.0000,543.0000 405.0000,543.0000 C 393.0000,543.0000 384.0000,538.0000 384.0000,528.0000 C 384.0000,442.0000 384.0000,442.0000 384.0000,442.0000 C 384.0000,434.0000 390.0000,429.0000 398.0000,427.0000 C 398.0000,408.0000 398.0000,408.0000 398.0000,408.0000 C 398.0000,380.0000 420.0000,358.0000 448.0000,358.0000 C 465.0000,358.0000 465.0000,358.0000 465.0000,358.0000 C 492.0000,358.0000 515.0000,380.0000 515.0000,408.0000 C 515.0000,427.0000 515.0000,427.0000 515.0000,427.0000 C 523.0000,429.0000 528.0000,434.0000 528.0000,442.0000 Z "  fill="#B5BF00" stroke="none" />
</g>
</svg>
