<?xml version="1.0"  encoding="UTF-8" standalone="no"?>
<svg version="1.1" xmlns="http://www.w3.org/2000/svg" xmlns:xlink="http://www.w3.org/1999/xlink" width="1243.0000" height="1489.0000">
<g transform="translate(335.0000, 475.0000)">
<path d="M 127.0000,965.0000 L 126.0000,965.0000 L 99.0000,826.0000 L 59.0000,826.0000 L 102.0000,1014.0000 L 150.0000,1014.0000 L 194.0000,826.0000 L 154.0000,826.0000 L 127.0000,965.0000 Z "  fill="#B5BF00" stroke-width="1px" stroke="#FFFFFF" />
<path d="M 207.0000,1014.0000 L 245.0000,1014.0000 L 245.0000,932.0000 L 308.0000,932.0000 L 308.0000,901.0000 L 245.0000,901.0000 L 245.0000,857.0000 L 312.0000,857.0000 L 312.0000,826.0000 L 207.0000,826.0000 L 207.0000,1014.0000 Z "  fill="#B5BF00" stroke-width="1px" stroke="#FFFFFF" />
<path d="M 456.0000,965.0000 L 456.0000,965.0000 L 434.0000,826.0000 L 397.0000,826.0000 L 375.0000,965.0000 L 375.0000,965.0000 L 354.0000,826.0000 L 318.0000,826.0000 L 352.0000,1014.0000 L 394.0000,1014.0000 L 415.0000,878.0000 L 416.0000,878.0000 L 437.0000,1014.0000 L 479.0000,1014.0000 L 513.0000,826.0000 L 477.0000,826.0000 L 456.0000,965.0000 Z "  fill="#B5BF00" stroke-width="1px" stroke="#FFFFFF" />
<path d="M 859.0000,-95.0000 C 828.0000,-169.0000 783.0000,-236.0000 726.0000,-293.0000 C 669.0000,-350.0000 603.0000,-395.0000 529.0000,-426.0000 C 452.0000,-459.0000 371.0000,-475.0000 287.0000,-475.0000 C 203.0000,-475.0000 121.0000,-459.0000 45.0000,-426.0000 C -29.0000,-395.0000 -96.0000,-350.0000 -153.0000,-293.0000 C -210.0000,-236.0000 -255.0000,-169.0000 -286.0000,-95.0000 C -319.0000,-19.0000 -335.0000,63.0000 -335.0000,147.0000 C -335.0000,230.0000 -319.0000,312.0000 -286.0000,389.0000 C -255.0000,463.0000 -210.0000,529.0000 -153.0000,586.0000 C -96.0000,643.0000 -29.0000,688.0000 45.0000,719.0000 C 121.0000,752.0000 203.0000,768.0000 287.0000,768.0000 C 371.0000,768.0000 452.0000,752.0000 529.0000,719.0000 C 603.0000,688.0000 669.0000,643.0000 726.0000,586.0000 C 783.0000,529.0000 828.0000,463.0000 859.0000,389.0000 C 892.0000,312.0000 908.0000,230.0000 908.0000,147.0000 C 908.0000,63.0000 892.0000,-19.0000 859.0000,-95.0000 Z M 812.0000,368.0000 C 783.0000,436.0000 742.0000,497.0000 690.0000,550.0000 C 637.0000,602.0000 576.0000,643.0000 509.0000,672.0000 C 438.0000,702.0000 364.0000,717.0000 287.0000,717.0000 C 210.0000,717.0000 135.0000,702.0000 65.0000,672.0000 C -3.0000,643.0000 -64.0000,602.0000 -116.0000,550.0000 C -169.0000,497.0000 -210.0000,436.0000 -239.0000,368.0000 C -268.0000,298.0000 -283.0000,224.0000 -283.0000,147.0000 C -283.0000,70.0000 -268.0000,-5.0000 -239.0000,-75.0000 C -210.0000,-143.0000 -169.0000,-204.0000 -116.0000,-257.0000 C -64.0000,-309.0000 -3.0000,-350.0000 65.0000,-379.0000 C 135.0000,-408.0000 210.0000,-424.0000 287.0000,-424.0000 C 364.0000,-424.0000 438.0000,-408.0000 509.0000,-379.0000 C 576.0000,-350.0000 637.0000,-309.0000 690.0000,-257.0000 C 742.0000,-204.0000 783.0000,-143.0000 812.0000,-75.0000 C 842.0000,-5.0000 857.0000,70.0000 857.0000,147.0000 C 857.0000,224.0000 842.0000,298.0000 812.0000,368.0000 Z "  fill="#B5BF00" stroke="none" />
<path d="M 261.0000,-197.0000 L -94.0000,-197.0000 L -94.0000,-2.0000 L 261.0000,-2.0000 L 261.0000,-197.0000 Z "  fill="#B5BF00" stroke-width="1px" stroke="#FFFFFF" />
<path d="M 38.0000,38.0000 L -94.0000,38.0000 L -94.0000,233.0000 L 38.0000,233.0000 L 38.0000,38.0000 Z "  fill="#B5BF00" stroke-width="1px" stroke="#FFFFFF" />
<path d="M 225.0000,271.0000 L -94.0000,271.0000 L -94.0000,466.0000 L 262.0000,466.0000 L 262.0000,367.0000 L 225.0000,345.0000 L 225.0000,271.0000 Z "  fill="#B5BF00" stroke-width="1px" stroke="#FFFFFF" />
<path d="M 668.0000,466.0000 L 668.0000,395.0000 L 541.0000,466.0000 L 668.0000,466.0000 Z "  fill="#B5BF00" stroke-width="1px" stroke="#FFFFFF" />
<path d="M 311.0000,466.0000 L 437.0000,466.0000 L 311.0000,394.0000 L 311.0000,466.0000 Z "  fill="#B5BF00" stroke-width="1px" stroke="#FFFFFF" />
<path d="M 225.0000,233.0000 L 225.0000,38.0000 L 83.0000,38.0000 L 83.0000,233.0000 L 225.0000,233.0000 Z "  fill="#B5BF00" stroke-width="1px" stroke="#FFFFFF" />
<path d="M 666.0000,-22.0000 L 666.0000,-197.0000 L 310.0000,-197.0000 L 310.0000,-11.0000 L 498.0000,-115.0000 L 666.0000,-22.0000 Z "  fill="#B5BF00" stroke-width="1px" stroke="#FFFFFF" />
<path d="M 698.0000,48.0000 L 708.0000,54.0000 L 701.0000,58.0000 L 710.0000,72.0000 L 741.0000,54.0000 L 706.0000,34.0000 L 698.0000,48.0000 Z "  fill="#B5BF00" stroke-width="1px" stroke="#FFFFFF" />
<path d="M 638.0000,94.0000 L 647.0000,108.0000 L 688.0000,84.0000 L 680.0000,70.0000 L 638.0000,94.0000 Z "  fill="#B5BF00" stroke-width="1px" stroke="#FFFFFF" />
<path d="M 309.0000,73.0000 L 280.0000,56.0000 L 305.0000,42.0000 L 297.0000,27.0000 L 249.0000,55.0000 L 248.0000,55.0000 L 248.0000,55.0000 L 246.0000,56.0000 L 248.0000,58.0000 L 248.0000,103.0000 L 265.0000,103.0000 L 265.0000,67.0000 L 301.0000,87.0000 L 309.0000,73.0000 Z "  fill="#B5BF00" stroke-width="1px" stroke="#FFFFFF" />
<path d="M 625.0000,121.0000 L 617.0000,106.0000 L 575.0000,130.0000 L 583.0000,145.0000 L 625.0000,121.0000 Z "  fill="#B5BF00" stroke-width="1px" stroke="#FFFFFF" />
<path d="M 372.0000,109.0000 L 330.0000,85.0000 L 322.0000,99.0000 L 364.0000,123.0000 L 372.0000,109.0000 Z "  fill="#B5BF00" stroke-width="1px" stroke="#FFFFFF" />
<path d="M 394.0000,121.0000 L 386.0000,135.0000 L 427.0000,159.0000 L 436.0000,144.0000 L 394.0000,121.0000 Z "  fill="#B5BF00" stroke-width="1px" stroke="#FFFFFF" />
<path d="M 554.0000,143.0000 L 512.0000,167.0000 L 520.0000,181.0000 L 562.0000,157.0000 L 554.0000,143.0000 Z "  fill="#B5BF00" stroke-width="1px" stroke="#FFFFFF" />
<path d="M 360.0000,-9.0000 L 318.0000,15.0000 L 327.0000,29.0000 L 368.0000,5.0000 L 360.0000,-9.0000 Z "  fill="#B5BF00" stroke-width="1px" stroke="#FFFFFF" />
<path d="M 579.0000,-38.0000 L 571.0000,-23.0000 L 613.0000,0.0000 L 621.0000,-14.0000 L 579.0000,-38.0000 Z "  fill="#B5BF00" stroke-width="1px" stroke="#FFFFFF" />
<path d="M 549.0000,-36.0000 L 558.0000,-50.0000 L 516.0000,-74.0000 L 507.0000,-59.0000 L 549.0000,-36.0000 Z "  fill="#B5BF00" stroke-width="1px" stroke="#FFFFFF" />
<path d="M 453.0000,-44.0000 L 494.0000,-68.0000 L 486.0000,-82.0000 L 444.0000,-58.0000 L 453.0000,-44.0000 Z "  fill="#B5BF00" stroke-width="1px" stroke="#FFFFFF" />
<path d="M 431.0000,-31.0000 L 423.0000,-46.0000 L 381.0000,-22.0000 L 390.0000,-7.0000 L 431.0000,-31.0000 Z "  fill="#B5BF00" stroke-width="1px" stroke="#FFFFFF" />
<path d="M 634.0000,12.0000 L 676.0000,36.0000 L 684.0000,22.0000 L 642.0000,-2.0000 L 634.0000,12.0000 Z "  fill="#B5BF00" stroke-width="1px" stroke="#FFFFFF" />
<path d="M 722.0000,194.0000 L 738.0000,194.0000 L 739.0000,146.0000 L 722.0000,146.0000 L 722.0000,194.0000 Z "  fill="#B5BF00" stroke-width="1px" stroke="#FFFFFF" />
<path d="M 722.0000,122.0000 L 739.0000,122.0000 L 739.0000,74.0000 L 723.0000,74.0000 L 722.0000,122.0000 Z "  fill="#B5BF00" stroke-width="1px" stroke="#FFFFFF" />
<path d="M 721.0000,266.0000 L 738.0000,266.0000 L 738.0000,218.0000 L 721.0000,218.0000 L 721.0000,266.0000 Z "  fill="#B5BF00" stroke-width="1px" stroke="#FFFFFF" />
<path d="M 720.0000,317.0000 L 711.0000,322.0000 L 719.0000,337.0000 L 737.0000,327.0000 L 737.0000,290.0000 L 721.0000,290.0000 L 720.0000,317.0000 Z "  fill="#B5BF00" stroke-width="1px" stroke="#FFFFFF" />
<path d="M 248.0000,319.0000 L 265.0000,319.0000 L 265.0000,271.0000 L 248.0000,271.0000 L 248.0000,319.0000 Z "  fill="#B5BF00" stroke-width="1px" stroke="#FFFFFF" />
<path d="M 635.0000,384.0000 L 627.0000,369.0000 L 585.0000,393.0000 L 593.0000,408.0000 L 635.0000,384.0000 Z "  fill="#B5BF00" stroke-width="1px" stroke="#FFFFFF" />
<path d="M 335.0000,374.0000 L 376.0000,398.0000 L 385.0000,383.0000 L 343.0000,360.0000 L 335.0000,374.0000 Z "  fill="#B5BF00" stroke-width="1px" stroke="#FFFFFF" />
<path d="M 564.0000,405.0000 L 522.0000,428.0000 L 531.0000,443.0000 L 572.0000,419.0000 L 564.0000,405.0000 Z "  fill="#B5BF00" stroke-width="1px" stroke="#FFFFFF" />
<path d="M 397.0000,410.0000 L 439.0000,434.0000 L 447.0000,419.0000 L 405.0000,395.0000 L 397.0000,410.0000 Z "  fill="#B5BF00" stroke-width="1px" stroke="#FFFFFF" />
<path d="M 322.0000,348.0000 L 280.0000,324.0000 L 272.0000,339.0000 L 314.0000,362.0000 L 322.0000,348.0000 Z "  fill="#B5BF00" stroke-width="1px" stroke="#FFFFFF" />
<path d="M 648.0000,358.0000 L 656.0000,372.0000 L 698.0000,349.0000 L 690.0000,334.0000 L 648.0000,358.0000 Z "  fill="#B5BF00" stroke-width="1px" stroke="#FFFFFF" />
<path d="M 248.0000,175.0000 L 265.0000,175.0000 L 265.0000,127.0000 L 248.0000,127.0000 L 248.0000,175.0000 Z "  fill="#B5BF00" stroke-width="1px" stroke="#FFFFFF" />
<path d="M 248.0000,247.0000 L 265.0000,247.0000 L 265.0000,199.0000 L 248.0000,199.0000 L 248.0000,247.0000 Z "  fill="#B5BF00" stroke-width="1px" stroke="#FFFFFF" />
<path d="M 501.0000,261.0000 L 484.0000,261.0000 L 484.0000,309.0000 L 501.0000,309.0000 L 501.0000,261.0000 Z "  fill="#B5BF00" stroke-width="1px" stroke="#FFFFFF" />
<path d="M 501.0000,440.0000 L 501.0000,405.0000 L 484.0000,405.0000 L 484.0000,440.0000 L 468.0000,431.0000 L 460.0000,445.0000 L 493.0000,464.0000 L 510.0000,455.0000 L 502.0000,440.0000 L 501.0000,440.0000 Z "  fill="#B5BF00" stroke-width="1px" stroke="#FFFFFF" />
<path d="M 484.0000,381.0000 L 501.0000,381.0000 L 501.0000,333.0000 L 484.0000,333.0000 L 484.0000,381.0000 Z "  fill="#B5BF00" stroke-width="1px" stroke="#FFFFFF" />
<path d="M 484.0000,237.0000 L 501.0000,237.0000 L 501.0000,189.0000 L 496.0000,189.0000 L 494.0000,186.0000 L 498.0000,180.0000 L 457.0000,157.0000 L 449.0000,171.0000 L 484.0000,191.0000 L 484.0000,237.0000 Z "  fill="#B5BF00" stroke-width="1px" stroke="#FFFFFF" />
<path d="M 343.0000,272.0000 L 362.0000,210.0000 L 349.0000,202.0000 L 336.0000,246.0000 L 335.0000,246.0000 L 322.0000,186.0000 L 309.0000,178.0000 L 328.0000,264.0000 L 343.0000,272.0000 Z "  fill="#B5BF00" stroke-width="1px" stroke="#FFFFFF" />
<path d="M 431.0000,324.0000 L 431.0000,250.0000 L 413.0000,240.0000 L 399.0000,283.0000 L 399.0000,283.0000 L 386.0000,224.0000 L 367.0000,213.0000 L 367.0000,287.0000 L 379.0000,294.0000 L 379.0000,242.0000 L 380.0000,242.0000 L 394.0000,303.0000 L 404.0000,308.0000 L 419.0000,265.0000 L 419.0000,265.0000 L 419.0000,317.0000 L 431.0000,324.0000 Z "  fill="#B5BF00" stroke-width="1px" stroke="#FFFFFF" />
</g>
</svg>
