<?xml version="1.0" encoding="UTF-8" standalone="no"?>
<svg
   xmlns:dc="http://purl.org/dc/elements/1.1/"
   xmlns:cc="http://creativecommons.org/ns#"
   xmlns:rdf="http://www.w3.org/1999/02/22-rdf-syntax-ns#"
   xmlns:svg="http://www.w3.org/2000/svg"
   xmlns="http://www.w3.org/2000/svg"
   xmlns:sodipodi="http://sodipodi.sourceforge.net/DTD/sodipodi-0.dtd"
   xmlns:inkscape="http://www.inkscape.org/namespaces/inkscape"
   version="1.1"
   width="568.0000"
   height="440.0000"
   id="svg16"
   sodipodi:docname="hosted01.svg"
   inkscape:version="0.92.3 (2405546, 2018-03-11)">
  <metadata
     id="metadata22">
    <rdf:RDF>
      <cc:Work
         rdf:about="">
        <dc:format>image/svg+xml</dc:format>
        <dc:type
           rdf:resource="http://purl.org/dc/dcmitype/StillImage" />
        <dc:title></dc:title>
      </cc:Work>
    </rdf:RDF>
  </metadata>
  <defs
     id="defs20" />
  <sodipodi:namedview
     pagecolor="#B5BF00"
     bordercolor="#666666"
     borderopacity="1"
     objecttolerance="10"
     gridtolerance="10"
     guidetolerance="10"
     inkscape:pageopacity="0"
     inkscape:pageshadow="2"
     inkscape:window-width="1551"
     inkscape:window-height="836"
     id="namedview18"
     showgrid="false"
     inkscape:pagecheckerboard="true"
     inkscape:zoom="0.53636364"
     inkscape:cx="287.72881"
     inkscape:cy="220"
     inkscape:window-x="49"
     inkscape:window-y="27"
     inkscape:window-maximized="1"
     inkscape:current-layer="svg16" />
  <g
     id="g841">
    <path
       d="m 154,275 c 0,2 2,5 5,5 250,0 250,0 250,0 3,0 5,-3 5,-5 0,-49 0,-49 0,-49 0,-3 -2,-5 -6,-5 -249,0 -249,0 -249,0 -3,0 -5,3 -5,5 z m 32,-36 c 25,0 25,0 25,0 4,0 8,3 8,8 0,5 -4,8 -8,8 -25,0 -25,0 -25,0 -4,0 -8,-3 -8,-8 0,-5 3,-8 8,-8 z"
       id="path2"
       inkscape:connector-curvature="0"
       style="fill:#B5BF00;stroke:none;fill-opacity:1" />
    <path
       d="m 159,194 c 250,0 250,0 250,0 3,0 5,-2 5,-5 0,-49 0,-49 0,-49 0,-2 -2,-4 -6,-4 -249,0 -249,0 -249,0 -3,0 -5,2 -5,4 0,49 0,49 0,49 0,3 2,5 5,5 z m 28,-39 c 25,0 25,0 25,0 4,0 8,3 8,8 -1,5 -4,8 -8,8 -25,0 -25,0 -25,0 -4,0 -8,-3 -8,-8 0,-4 3,-8 8,-8 z"
       id="path4"
       inkscape:connector-curvature="0"
       style="fill:#B5BF00;stroke:none;fill-opacity:1" />
    <path
       d="m 292,365 c 117,0 117,0 117,0 3,0 5,-2 5,-5 0,-48 0,-48 0,-48 0,-3 -2,-5 -6,-5 -249,0 -249,0 -249,0 -3,0 -5,2 -5,5 0,48 0,48 0,48 0,3 2,5 5,5 117,0 117,0 117,0 0,30 0,30 0,30 -36,0 -36,0 -36,0 0,45 0,45 0,45 88,0 88,0 88,0 0,-45 0,-45 0,-45 -36,0 -36,0 -36,0 z m -80,-24 c -25,0 -25,0 -25,0 -4,0 -8,-3 -8,-8 0,-5 3,-8 8,-8 25,0 25,0 25,0 4,0 8,3 8,8 0,5 -4,8 -8,8 z"
       id="path6"
       inkscape:connector-curvature="0"
       style="fill:#B5BF00;stroke:none;fill-opacity:1" />
    <path
       d="M 114,426 H 225 V 410 H 114 Z"
       id="path8"
       inkscape:connector-curvature="0"
       style="fill:#B5BF00;stroke:#425353;stroke-width:1px;fill-opacity:1" />
    <path
       d="M 343,425 H 453 V 409 H 343 Z"
       id="path10"
       inkscape:connector-curvature="0"
       style="fill:#B5BF00;stroke:#425353;stroke-width:1px;fill-opacity:1" />
    <path
       d="m 488,131 c 0,-3 0,-5 0,-7 C 488,56 423,0 344,0 288,0 239,27 215,69 203,64 190,60 176,60 132,60 95,93 93,134 40,139 0,179 0,227 c 0,25 12,49 32,68 16,16 48,29 88,38 0,-15 0,-15 0,-15 C 81,308 55,296 43,284 25,268 16,248 16,227 c 0,-43 38,-78 87,-80 7,0 7,0 7,0 -1,-7 -1,-7 -1,-7 0,-2 0,-3 0,-4 0,-34 31,-61 69,-61 14,0 26,3 38,10 7,4 7,4 7,4 3,-7 3,-7 3,-7 20,-41 67,-67 119,-67 71,0 129,49 129,109 0,4 0,8 -1,12 -1,7 -1,7 -1,7 8,1 8,1 8,1 42,8 73,43 73,83 0,35 -24,66 -59,78 -1,0 -1,0 -1,0 -13,6 -28,11 -45,15 0,15 0,15 0,15 20,-5 36,-10 51,-16 41,-15 69,-51 69,-92 -1,-47 -34,-85 -80,-96 z"
       id="path12"
       inkscape:connector-curvature="0"
       style="fill:#B5BF00;stroke:none;fill-opacity:1" />
  </g>
</svg>
