<?xml version="1.0"  encoding="UTF-8" standalone="no"?>
<svg version="1.1" xmlns="http://www.w3.org/2000/svg" xmlns:xlink="http://www.w3.org/1999/xlink" width="610.0000" height="633.0000">
<g transform="translate(19.0000, 29.0000)">
<path d="M 534.0000,79.0000 L 419.0000,79.0000 L 362.0000,178.0000 L 419.0000,277.0000 L 534.0000,277.0000 L 591.0000,178.0000 L 534.0000,79.0000 Z "  fill="#B5BF00" stroke-width="1px" stroke="#FFFFFF" />
<path d="M 534.0000,500.0000 L 419.0000,500.0000 L 362.0000,401.0000 L 419.0000,301.0000 L 534.0000,301.0000 L 591.0000,401.0000 L 534.0000,500.0000 Z M 436.0000,471.0000 L 517.0000,471.0000 L 558.0000,401.0000 L 517.0000,330.0000 L 436.0000,330.0000 L 395.0000,401.0000 L 436.0000,471.0000 Z "  fill="#B5BF00" stroke-width="1px" stroke="#FFFFFF" />
<path d="M 154.0000,500.0000 L 39.0000,500.0000 L -19.0000,401.0000 L 39.0000,301.0000 L 154.0000,301.0000 L 211.0000,401.0000 L 154.0000,500.0000 Z M 56.0000,471.0000 L 137.0000,471.0000 L 178.0000,401.0000 L 137.0000,330.0000 L 56.0000,330.0000 L 15.0000,401.0000 L 56.0000,471.0000 Z "  fill="#B5BF00" stroke-width="1px" stroke="#FFFFFF" />
<path d="M 344.0000,170.0000 L 229.0000,170.0000 L 171.0000,70.0000 L 229.0000,-29.0000 L 344.0000,-29.0000 L 401.0000,70.0000 L 344.0000,170.0000 Z M 246.0000,141.0000 L 327.0000,141.0000 L 368.0000,70.0000 L 327.0000,0.0000 L 246.0000,0.0000 L 205.0000,70.0000 L 246.0000,141.0000 Z "  fill="#B5BF00" stroke-width="1px" stroke="#FFFFFF" />
<path d="M 344.0000,386.0000 L 229.0000,386.0000 L 171.0000,286.0000 L 229.0000,187.0000 L 344.0000,187.0000 L 401.0000,286.0000 L 344.0000,386.0000 Z M 246.0000,357.0000 L 327.0000,357.0000 L 368.0000,286.0000 L 327.0000,216.0000 L 246.0000,216.0000 L 205.0000,286.0000 L 246.0000,357.0000 Z "  fill="#B5BF00" stroke-width="1px" stroke="#FFFFFF" />
<path d="M 343.0000,406.0000 L 229.0000,406.0000 L 172.0000,505.0000 L 229.0000,604.0000 L 343.0000,604.0000 L 401.0000,505.0000 L 343.0000,406.0000 Z "  fill="#B5BF00" stroke-width="1px" stroke="#FFFFFF" />
<path d="M 153.0000,79.0000 L 39.0000,79.0000 L -18.0000,178.0000 L 39.0000,277.0000 L 153.0000,277.0000 L 211.0000,178.0000 L 153.0000,79.0000 Z "  fill="#B5BF00" stroke-width="1px" stroke="#FFFFFF" />
</g>
</svg>
