<?xml version="1.0" encoding="UTF-8" standalone="no"?>
<svg
   xmlns:dc="http://purl.org/dc/elements/1.1/"
   xmlns:cc="http://creativecommons.org/ns#"
   xmlns:rdf="http://www.w3.org/1999/02/22-rdf-syntax-ns#"
   xmlns:svg="http://www.w3.org/2000/svg"
   xmlns="http://www.w3.org/2000/svg"
   viewBox="0 0 49.173332 21.906668"
   height="21.906668"
   width="49.173332"
   xml:space="preserve"
   id="svg2"
   version="1.1"><metadata
     id="metadata8"><rdf:RDF><cc:Work
         rdf:about=""><dc:format>image/svg+xml</dc:format><dc:type
           rdf:resource="http://purl.org/dc/dcmitype/StillImage" /></cc:Work></rdf:RDF></metadata><defs
     id="defs6"><clipPath
       id="clipPath20"
       clipPathUnits="userSpaceOnUse"><path
         id="path18"
         d="M 0,4 V 164 H 369 V 4 Z" /></clipPath></defs><g
     transform="matrix(1.3333333,0,0,-1.3333333,0,21.906667)"
     id="g10"><g
       transform="scale(0.1)"
       id="g12"><g
         id="g14"><g
           clip-path="url(#clipPath20)"
           id="g16"><path
             id="path22"
             style="fill:#FFAA00;fill-opacity:1;fill-rule:nonzero;stroke:none"
             d="M 6.07031,102.715 83.0039,159.578 H 364.059 L 308.121,102.715 H 6.07031" /><path
             id="path24"
             style="fill:none;stroke:#FFFFFF;stroke-width:3.99993992;stroke-linecap:butt;stroke-linejoin:miter;stroke-miterlimit:4;stroke-dasharray:none;stroke-opacity:1"
             d="M 6.07031,102.715 83.0039,159.578 H 364.059 l -55.938,-56.863 z" /><path
             id="path26"
             style="fill:#FFAA00;fill-opacity:1;fill-rule:nonzero;stroke:none"
             d="M 308.121,4.87109 364.059,61.543 v 97.859 L 308.121,102.715 V 4.87109" /><path
             id="path28"
             style="fill:none;stroke:#FFFFFF;stroke-width:3.99993992;stroke-linecap:butt;stroke-linejoin:miter;stroke-miterlimit:4;stroke-dasharray:none;stroke-opacity:1"
             d="M 308.121,4.87109 364.059,61.543 v 97.859 l -55.938,-56.687 z" /><path
             id="path30"
             style="fill:#FFAA00;fill-opacity:1;fill-rule:nonzero;stroke:none"
             d="m 6.5,4.77344 h 301.621 v 97.9414 H 6.5 Z" /><path
             id="path32"
             style="fill:none;stroke:#FFFFFF;stroke-width:3.99993992;stroke-linecap:butt;stroke-linejoin:miter;stroke-miterlimit:4;stroke-dasharray:none;stroke-opacity:1"
             d="M 308.121,4.77344 V 102.715 H 6.5 V 4.77344 Z" /><path
             id="path34"
             style="fill:none;stroke:#FFFFFF;stroke-width:4.49996996;stroke-linecap:round;stroke-linejoin:miter;stroke-miterlimit:1;stroke-dasharray:none;stroke-opacity:1"
             d="m 284.137,52.9961 c 0,0 -19.571,-50.31251 -43.106,0.1484 -23.496,50.4295 -43.105,0.1094 -43.105,0.1094 0,0 -19.551,-50.34374 -43.067,0.0938 -23.496,50.4413 -42.988,-0.3125 -42.988,-0.3125 0,0 -19.5233,-50.35161 -43.0468,0.1093 -23.5078,50.4295 -43.0078,0.1446 -43.0078,0.1446" /><path
             id="path36"
             style="fill:none;stroke:#FFFFFF;stroke-width:8.99993992;stroke-linecap:round;stroke-linejoin:miter;stroke-miterlimit:1;stroke-dasharray:none;stroke-opacity:1"
             d="m 25.8164,52.9961 c 0,0 19.5703,-50.31251 43.0938,0.1484 23.5078,50.4295 43.1168,0.1094 43.1168,0.1094 0,0 19.551,-50.34374 43.047,0.0938 23.516,50.4413 43.008,-0.3125 43.008,-0.3125 0,0 19.512,-50.35161 43.047,0.1093 23.496,50.4295 43.008,0.1446 43.008,0.1446" /><path
             id="path38"
             style="fill:none;stroke:#FFAA00;stroke-width:4.49996996;stroke-linecap:round;stroke-linejoin:miter;stroke-miterlimit:1;stroke-dasharray:none;stroke-opacity:1"
             d="m 288.668,52.9961 c 0,0 -19.57,-50.31251 -43.105,0.1484 -23.497,50.4295 -43.106,0.1094 -43.106,0.1094 0,0 -19.551,-50.35546 -43.066,0.0938 -23.496,50.4413 -42.989,-0.3125 -42.989,-0.3125 0,0 -19.5231,-50.35161 -43.0465,0.1093 -23.5078,50.4295 -43.0078,0.1368 -43.0078,0.1368" /><path
             id="path40"
             style="fill:none;stroke:#FFAA00;stroke-width:8.99993992;stroke-linecap:round;stroke-linejoin:miter;stroke-miterlimit:1;stroke-dasharray:none;stroke-opacity:1"
             d="m 30.3477,52.9961 c 0,0 19.5703,-50.31251 43.0937,0.1484 23.5078,50.4295 43.1176,0.1094 43.1176,0.1094 0,0 19.55,-50.35546 43.046,0.0938 23.516,50.4413 43.008,-0.3125 43.008,-0.3125 0,0 19.512,-50.35161 43.047,0.1093 23.496,50.4295 43.008,0.1368 43.008,0.1368" /><path
             id="path42"
             style="fill:none;stroke:#FFFFFF;stroke-width:4.49996996;stroke-linecap:round;stroke-linejoin:miter;stroke-miterlimit:1;stroke-dasharray:none;stroke-opacity:1"
             d="m 284.137,52.9961 c 0,0 -19.571,-50.31251 -43.106,0.1484 -23.496,50.4295 -43.105,0.1094 -43.105,0.1094 0,0 -19.551,-50.34374 -43.067,0.0938 -23.496,50.4413 -42.988,-0.3125 -42.988,-0.3125 0,0 -19.5233,-50.35161 -43.0468,0.1093 -23.5078,50.4295 -43.0078,0.1446 -43.0078,0.1446" /><path
             id="path44"
             style="fill:none;stroke:#FFFFFF;stroke-width:8.99993992;stroke-linecap:round;stroke-linejoin:miter;stroke-miterlimit:1;stroke-dasharray:none;stroke-opacity:1"
             d="m 25.8164,52.9961 c 0,0 19.5703,-50.31251 43.0938,0.1484 23.5078,50.4295 43.1168,0.1094 43.1168,0.1094 0,0 19.551,-50.34374 43.047,0.0938 23.516,50.4413 43.008,-0.3125 43.008,-0.3125 0,0 19.512,-50.35161 43.047,0.1093 23.496,50.4295 43.008,0.1446 43.008,0.1446" /><path
             id="path46"
             style="fill:none;stroke:#FFAA00;stroke-width:4.49996996;stroke-linecap:round;stroke-linejoin:miter;stroke-miterlimit:1;stroke-dasharray:none;stroke-opacity:1"
             d="m 288.668,52.9961 c 0,0 -19.57,-50.31251 -43.105,0.1484 -23.497,50.4295 -43.106,0.1094 -43.106,0.1094 0,0 -19.551,-50.35546 -43.066,0.0938 -23.496,50.4413 -42.989,-0.3125 -42.989,-0.3125 0,0 -19.5231,-50.35161 -43.0465,0.1093 -23.5078,50.4295 -43.0078,0.1368 -43.0078,0.1368" /><path
             id="path48"
             style="fill:none;stroke:#FFAA00;stroke-width:8.99993992;stroke-linecap:round;stroke-linejoin:miter;stroke-miterlimit:1;stroke-dasharray:none;stroke-opacity:1"
             d="m 30.3477,52.9961 c 0,0 19.5703,-50.31251 43.0937,0.1484 23.5078,50.4295 43.1176,0.1094 43.1176,0.1094 0,0 19.55,-50.35546 43.046,0.0938 23.516,50.4413 43.008,-0.3125 43.008,-0.3125 0,0 19.512,-50.35161 43.047,0.1093 23.496,50.4295 43.008,0.1368 43.008,0.1368" /><path
             id="path50"
             style="fill:none;stroke:#FFFFFF;stroke-width:4.49996996;stroke-linecap:round;stroke-linejoin:miter;stroke-miterlimit:1;stroke-dasharray:none;stroke-opacity:1"
             d="m 284.137,52.9961 c 0,0 -19.571,-50.31251 -43.106,0.1484 -23.496,50.4295 -43.105,0.1094 -43.105,0.1094 0,0 -19.551,-50.34374 -43.067,0.0938 -23.496,50.4413 -42.988,-0.3125 -42.988,-0.3125 0,0 -19.5233,-50.35161 -43.0468,0.1093 -23.5078,50.4295 -43.0078,0.1446 -43.0078,0.1446" /><path
             id="path52"
             style="fill:none;stroke:#FFFFFF;stroke-width:8.99993992;stroke-linecap:round;stroke-linejoin:miter;stroke-miterlimit:1;stroke-dasharray:none;stroke-opacity:1"
             d="m 25.8164,52.9961 c 0,0 19.5703,-50.31251 43.0938,0.1484 23.5078,50.4295 43.1168,0.1094 43.1168,0.1094 0,0 19.551,-50.34374 43.047,0.0938 23.516,50.4413 43.008,-0.3125 43.008,-0.3125 0,0 19.512,-50.35161 43.047,0.1093 23.496,50.4295 43.008,0.1446 43.008,0.1446" /></g></g></g></g></svg>