<?xml version="1.0" encoding="UTF-8" standalone="no"?>
<svg
   xmlns:dc="http://purl.org/dc/elements/1.1/"
   xmlns:cc="http://creativecommons.org/ns#"
   xmlns:rdf="http://www.w3.org/1999/02/22-rdf-syntax-ns#"
   xmlns:svg="http://www.w3.org/2000/svg"
   xmlns="http://www.w3.org/2000/svg"
   version="1.1"
   id="svg2"
   xml:space="preserve"
   width="46.537392"
   height="38.908405"
   viewBox="0 0 46.537392 38.908405"><metadata
     id="metadata8"><rdf:RDF><cc:Work
         rdf:about=""><dc:format>image/svg+xml</dc:format><dc:type
           rdf:resource="http://purl.org/dc/dcmitype/StillImage" /><dc:title /></cc:Work></rdf:RDF></metadata><defs
     id="defs6"><clipPath
       clipPathUnits="userSpaceOnUse"
       id="clipPath20"><path
         d="M 0,3 V 283 H 347 V 3 Z"
         id="path18" /></clipPath></defs><g
     transform="translate(-0.1488346,0.65977426)"
     id="g876"><path
       id="path22"
       style="fill:none;stroke:#FFFFFF;stroke-width:0.53332531;stroke-linecap:butt;stroke-linejoin:miter;stroke-miterlimit:4;stroke-dasharray:none;stroke-opacity:1"
       d="m 0.35416666,7.1308008 v 0 h 0.34999999" /><path
       style="fill:#FFAA00;fill-opacity:1;stroke:#FFFFFF;stroke-width:0.69999999;stroke-linecap:butt;stroke-linejoin:miter;stroke-miterlimit:4;stroke-dasharray:none;stroke-opacity:1"
       d="M 0.70416665,7.1308008 V 37.405345 H 40.079232 V 6.1684008 l -5.813745,3.21986 -28.3974072,-0.565685 z"
       id="path868" /><path
       style="fill:#FFAA00;fill-opacity:1;stroke:#FFFFFF;stroke-width:0.69999999;stroke-linecap:butt;stroke-linejoin:miter;stroke-miterlimit:4;stroke-dasharray:none;stroke-opacity:1"
       d="m 7.5296926,0.1829341 -6.82552595,6.9478667 0.94690895,0.5913028 1.3010767,0.7919595 1.4142135,0.8485281 1.1879394,0.622254 1.1879393,0.5091168 1.6404877,0.735391 1.8667618,0.735391 1.301077,0.452548 2.262742,0.622254 1.810193,0.339412 1.640487,0.282842 2.319311,0.113137 h 2.149604 l 2.262742,-0.169705 1.92333,-0.282843 1.470782,-0.282843 1.187939,-0.282842 2.545585,-0.79196 1.866762,-0.848528 2.149604,-1.1313708 1.753625,-1.1313708 1.357645,-0.8485281 1.74081,-1.7490788 -1.910516,0.730845 -1.018234,0.4525484 -2.206173,0.735391 -1.92333,0.3394112 -1.810193,0.1131371 H 29.822209 L 28.23829,8.5706312 26.541234,8.344357 24.617904,7.9483772 22.524868,7.3261233 20.940949,6.6473008 18.508501,5.5724985 16.24576,4.4411277 13.473901,2.9137772 11.720277,1.8955436 l -1.640489,-1.18794 -1.1313704,-0.565685 -0.735391,-0.39598 z"
       id="path866" /><path
       style="fill:#FFAA00;fill-opacity:1;stroke:#FFFFFF;stroke-width:0.69999999;stroke-linecap:butt;stroke-linejoin:miter;stroke-miterlimit:4;stroke-dasharray:none;stroke-opacity:1"
       d="m 39.991732,6.2558675 6.3,-6.07293325 0.04427,31.92862575 -6.344267,5.381252 z"
       id="path870" /></g></svg>