<?xml version="1.0" encoding="UTF-8" standalone="no"?>
<svg
   xmlns:dc="http://purl.org/dc/elements/1.1/"
   xmlns:cc="http://creativecommons.org/ns#"
   xmlns:rdf="http://www.w3.org/1999/02/22-rdf-syntax-ns#"
   xmlns:svg="http://www.w3.org/2000/svg"
   xmlns="http://www.w3.org/2000/svg"
   viewBox="0 0 35.693333 36.040001"
   height="36.040001"
   width="35.693333"
   xml:space="preserve"
   id="svg2"
   version="1.1"><metadata
     id="metadata8"><rdf:RDF><cc:Work
         rdf:about=""><dc:format>image/svg+xml</dc:format><dc:type
           rdf:resource="http://purl.org/dc/dcmitype/StillImage" /></cc:Work></rdf:RDF></metadata><defs
     id="defs6" /><g
     transform="matrix(1.3333333,0,0,-1.3333333,0,36.04)"
     id="g10"><g
       transform="scale(0.1)"
       id="g12"><path
         id="path14"
         style="fill:#FFAA00;fill-opacity:1;fill-rule:nonzero;stroke:none"
         d="m 5.46875,4.75 h 215.996 V 224.496 H 5.46875 Z" /><path
         id="path16"
         style="fill:none;stroke:#ffffff;stroke-width:3.99993992;stroke-linecap:butt;stroke-linejoin:miter;stroke-miterlimit:4;stroke-dasharray:none;stroke-opacity:1"
         d="M 221.465,4.75 V 224.496 H 5.46875 V 4.75 Z" /><path
         id="path18"
         style="fill:none;stroke:#ffffff;stroke-width:15;stroke-linecap:butt;stroke-linejoin:miter;stroke-miterlimit:4;stroke-dasharray:none;stroke-opacity:1"
         d="m 113.457,77.0078 c 21.121,0 38.242,17.1172 38.242,38.2302 0,21.114 -17.121,38.242 -38.242,38.242 -21.1132,0 -38.2226,-17.128 -38.2226,-38.242 0,-21.113 17.1094,-38.2302 38.2226,-38.2302 z" /><path
         id="path20"
         style="fill:none;stroke:#ffffff;stroke-width:15;stroke-linecap:butt;stroke-linejoin:miter;stroke-miterlimit:4;stroke-dasharray:none;stroke-opacity:1"
         d="m 113.457,153.48 h 66.414" /><path
         id="path22"
         style="fill:#ffffff;fill-opacity:1;fill-rule:nonzero;stroke:none"
         d="m 180.547,178.383 v -48.067 l 28.965,23.086 -28.965,24.981" /><path
         id="path24"
         style="fill:none;stroke:#ffffff;stroke-width:1.99996996;stroke-linecap:butt;stroke-linejoin:miter;stroke-miterlimit:4;stroke-dasharray:none;stroke-opacity:1"
         d="m 180.547,178.383 v -48.067 l 28.965,23.086 z" /><path
         id="path26"
         style="fill:none;stroke:#ffffff;stroke-width:15;stroke-linecap:butt;stroke-linejoin:miter;stroke-miterlimit:4;stroke-dasharray:none;stroke-opacity:1"
         d="m 75.2734,114.977 v 66.406" /><path
         id="path28"
         style="fill:#ffffff;fill-opacity:1;fill-rule:nonzero;stroke:none"
         d="M 50.8594,181.676 H 98.9258 L 75.8398,210.629 50.8594,181.676" /><path
         id="path30"
         style="fill:none;stroke:#ffffff;stroke-width:1.99996996;stroke-linecap:butt;stroke-linejoin:miter;stroke-miterlimit:4;stroke-dasharray:none;stroke-opacity:1"
         d="m 50.8594,181.676 h 48.0664 l -23.086,28.953 z" /><path
         id="path32"
         style="fill:none;stroke:#ffffff;stroke-width:15;stroke-linecap:butt;stroke-linejoin:miter;stroke-miterlimit:4;stroke-dasharray:none;stroke-opacity:1"
         d="M 151.777,115.453 V 49.0469" /><path
         id="path34"
         style="fill:#ffffff;fill-opacity:1;fill-rule:nonzero;stroke:none"
         d="m 176.172,48.9492 h -48.067 l 23.309,-28.9531 24.758,28.9531" /><path
         id="path36"
         style="fill:none;stroke:#ffffff;stroke-width:1.99996996;stroke-linecap:butt;stroke-linejoin:miter;stroke-miterlimit:4;stroke-dasharray:none;stroke-opacity:1"
         d="M 176.172,48.9492 H 128.105 L 151.414,19.9961 Z" /><path
         id="path38"
         style="fill:none;stroke:#ffffff;stroke-width:15;stroke-linecap:butt;stroke-linejoin:miter;stroke-miterlimit:4;stroke-dasharray:none;stroke-opacity:1"
         d="M 114.414,77.0547 H 47.9883" /><path
         id="path40"
         style="fill:#ffffff;fill-opacity:1;fill-rule:nonzero;stroke:none"
         d="M 47.0508,52.0156 V 100.094 L 18.0859,76.9961 47.0508,52.0156" /><path
         id="path42"
         style="fill:none;stroke:#ffffff;stroke-width:1.99996996;stroke-linecap:butt;stroke-linejoin:miter;stroke-miterlimit:4;stroke-dasharray:none;stroke-opacity:1"
         d="M 47.0508,52.0156 V 100.094 L 18.0859,76.9961 Z" /><path
         id="path44"
         style="fill:#FFAA00;fill-opacity:1;fill-rule:nonzero;stroke:none"
         d="M 220.715,224.742 H 5.71094 L 60.2148,268.238 H 265.715 V 267.992 49.8672 L 221.211,4.86719 V 223.492 l -0.496,1.25" /><path
         id="path46"
         style="fill:none;stroke:#ffffff;stroke-width:3.99993992;stroke-linecap:butt;stroke-linejoin:miter;stroke-miterlimit:4;stroke-dasharray:none;stroke-opacity:1"
         d="M 220.715,224.742 H 5.71094 L 60.2148,268.238 H 265.715 V 267.992 49.8672 L 221.211,4.86719 V 223.492 Z" /><path
         id="path48"
         style="fill:none;stroke:#ffffff;stroke-width:3.99993992;stroke-linecap:butt;stroke-linejoin:miter;stroke-miterlimit:4;stroke-dasharray:none;stroke-opacity:1"
         d="m 221.094,225.102 45,43.75" /></g></g></svg>