<?xml version="1.0" encoding="utf-8"?>
<!-- Generator: Adobe Illustrator 20.1.0, SVG Export Plug-In . SVG Version: 6.00 Build 0)  -->
<svg version="1.1" id="Layer_1" xmlns="http://www.w3.org/2000/svg" xmlns:xlink="http://www.w3.org/1999/xlink" x="0px" y="0px"
	 viewBox="0 0 50.2 65.9" style="enable-background:new 0 0 50.2 65.9;" xml:space="preserve">
<style type="text/css">
	.st0{fill:#FFAA00;stroke:#FFFFFF;stroke-width:0.8;}
	.st1{fill:#FFAA00;}
	.st2{fill:none;stroke:#FFFFFF;stroke-width:0.8;}
	.st3{fill:#FFFFFF;}
	.st4{fill:none;stroke:#FFFFFF;stroke-width:0.8;stroke-linecap:round;stroke-linejoin:round;}
	.st5{fill:#FFFFFF;}
</style>
<g>
	<g>
		<g>
			<polygon class="st0" points="49.2,0.5 41,8.3 1.2,8.3 11.5,0.5 			"/>
			<g>
				<g>
					<rect x="1.2" y="8.3" class="st1" width="39.8" height="39.4"/>
				</g>
				<g>
					<rect x="1.2" y="8.3" class="st0" width="39.8" height="39.4"/>
				</g>
				<g>
					<rect x="1.2" y="8.3" class="st2" width="39.8" height="39.4"/>
				</g>
			</g>
			<g>
				<rect x="1.2" y="47.3" class="st0" width="39.8" height="17.2"/>
			</g>
			<g>
				<g>
					<polygon class="st1" points="48.4,40.3 48.4,0.9 40.8,8.3 40.8,47.7 					"/>
				</g>
				<g>
					<polygon class="st0" points="48.4,40.3 48.4,0.9 40.8,8.3 40.8,47.7 					"/>
				</g>
				<g>
					<polygon class="st2" points="48.4,40.3 48.4,0.9 40.8,8.3 40.8,47.7 					"/>
				</g>
			</g>
			<g>
				<polygon class="st0" points="48.4,57.1 48.4,39.9 40.8,47.3 40.8,64.5 				"/>
			</g>
			<g>
				<polygon class="st3" points="15.3,27 6.8,27 6.8,24.8 3.5,28 6.8,31.3 6.8,29.1 15.3,29.1 				"/>
				<polygon class="st3" points="20.2,33.9 20.2,42.5 18,42.5 21.2,45.7 24.5,42.5 22.3,42.5 22.3,33.9 				"/>
				<polygon class="st3" points="20.2,22.4 20.2,13.8 18,13.8 21.2,10.6 24.5,13.8 22.3,13.8 22.3,22.4 				"/>
				<polygon class="st3" points="27.1,29.1 35.7,29.1 35.7,31.3 39,28 35.7,24.8 35.7,27 27.1,27 				"/>
				<path class="st2" d="M35,41.8c-1.6,1.7-9-3-16.5-10.4C11,23.9,6.2,16.5,7.8,14.8c1.6-1.7,9,3,16.5,10.4
					C31.9,32.7,36.6,40.1,35,41.8z"/>
				<path class="st2" d="M34.6,14.7c1.7,1.6-3,9-10.4,16.5C16.7,38.7,9.3,43.5,7.6,41.8c-1.7-1.6,3-9,10.4-16.5
					C25.5,17.8,32.9,13,34.6,14.7z"/>
			</g>
		</g>
		<line class="st4" x1="1.2" y1="9.8" x2="1.2" y2="65.5"/>
	</g>
	<ellipse transform="matrix(0.8191 -0.5737 0.5737 0.8191 -12.169 17.1917)" class="st5" cx="21.2" cy="27.9" rx="6.3" ry="6.3"/>
</g>
</svg>
