<?xml version="1.0" encoding="utf-8"?>
<!-- Generator: Adobe Illustrator 20.1.0, SVG Export Plug-In . SVG Version: 6.00 Build 0)  -->
<svg version="1.1" id="Layer_1" xmlns="http://www.w3.org/2000/svg" xmlns:xlink="http://www.w3.org/1999/xlink" x="0px" y="0px"
	 viewBox="0 0 128.2 70.7" style="enable-background:new 0 0 128.2 70.7;" xml:space="preserve">
<style type="text/css">
	.st0{fill:#FFAA00;stroke:#FFFFFF;stroke-width:0.8;}
	.st1{fill:none;stroke:#FFFFFF;stroke-width:0.2;stroke-linejoin:round;}
	.st2{fill:#FFFFFF;}
	.st3{fill:none;stroke:#FFAA00;stroke-width:0.8;stroke-linejoin:round;}
	.st4{fill:none;stroke:#FFAA00;stroke-width:2;stroke-linejoin:round;}
	.st5{fill:#FFAA00;stroke:#FFFFFF;stroke-width:0.8;}
</style>
<g>
	<g>
		<polygon class="st0" points="78.2,37.7 85.2,0.9 31.9,0.9 24.1,37.7 		"/>
	</g>
	<polygon class="st0" points="85.2,0.9 87.3,3.6 80.8,39.3 78.2,37.7 	"/>
	<polygon class="st0" points="24.1,37.7 26.4,39.3 80.8,39.3 78.2,37.7 	"/>
	<path class="st0" d="M78.7,40.2v5.4l-1.4,1.2c0,0-3.3,1-2.6,2.9L60,63.5v-6L78.7,40.2z"/>
	<polyline class="st0" points="1.2,57.5 1.2,63.5 60,63.5 60,57.5 1.2,57.5 	"/>
	<polygon class="st0" points="24.7,40.5 78.7,40.2 60,57.5 1.2,57.5 	"/>
	<polygon class="st0" points="73.7,34.1 79.3,5.3 36,5.3 30.4,34.1 	"/>
	<line class="st1" x1="26" y1="40.9" x2="12.3" y2="51.9"/>
	<line class="st1" x1="30.3" y1="40.9" x2="16.7" y2="51.9"/>
	<line class="st1" x1="34.7" y1="40.9" x2="21.1" y2="51.9"/>
	<line class="st1" x1="39.1" y1="40.9" x2="25.5" y2="51.9"/>
	<line class="st1" x1="43.5" y1="40.9" x2="29.8" y2="51.9"/>
	<line class="st1" x1="47.8" y1="40.9" x2="34.2" y2="51.9"/>
	<line class="st1" x1="52.2" y1="40.9" x2="38.6" y2="51.9"/>
	<line class="st1" x1="56.6" y1="40.9" x2="43" y2="51.9"/>
	<line class="st1" x1="61" y1="40.9" x2="47.3" y2="51.9"/>
	<line class="st1" x1="65.3" y1="40.9" x2="51.7" y2="51.9"/>
	<line class="st1" x1="69.7" y1="40.9" x2="56.1" y2="51.9"/>
	<line class="st1" x1="74.1" y1="40.9" x2="60.5" y2="51.9"/>
	<line class="st1" x1="13.9" y1="50.8" x2="62.4" y2="50.8"/>
	<line class="st1" x1="17.1" y1="48.3" x2="64.9" y2="48.3"/>
	<line class="st1" x1="20.5" y1="45.7" x2="68.1" y2="45.7"/>
	<line class="st1" x1="23.5" y1="43.2" x2="71.5" y2="43.2"/>
	<g>
		<path class="st2" d="M53.1,14.7h7.8c1.9,0.6,1.7,2.1,1.7,2.1c0,1.5-1.3,1.9-1.3,1.9H47c-2.7-0.2-1.7-2.5-1.7-2.5l6-7
			c1-1,3.2,0,3.2,0c1.4,1.4,0.8,2.6,0.8,2.6L53.1,14.7z"/>
	</g>
	<g>
		<path class="st2" d="M58.7,25.6h-7.8c-1.9-0.6-1.7-2.1-1.7-2.1c0-1.5,1.3-1.9,1.3-1.9h14.3c2.7,0.2,1.7,2.5,1.7,2.5l-6,7
			c-1,1-3.2,0-3.2,0c-1.4-1.4-0.8-2.6-0.8-2.6L58.7,25.6z"/>
	</g>
	<g>
		<g>
			<circle class="st5" cx="72.8" cy="62.3" r="2.2"/>
			<path class="st3" d="M114.1,66c-6.8,2.3-19.3,2.9-29.4,1.2c-6.7-1.1-10.9-3-11.9-4.9"/>
			<path class="st4" d="M87.9,54.7c1.5-3.6,4.2-7.2,8.1-10.4c9.5-7.8,22-9.6,28.1-4.1c6,5.5,3.2,16.4-6.2,24.2
				c-0.9,0.7-1.8,1.4-2.8,2.1"/>
			<circle class="st5" cx="115" cy="66.5" r="3.8"/>
			<circle class="st5" cx="87.8" cy="54.7" r="2.2"/>
		</g>
	</g>
</g>
</svg>
