<?xml version="1.0" encoding="UTF-8" standalone="no"?>
<svg
   xmlns:dc="http://purl.org/dc/elements/1.1/"
   xmlns:cc="http://creativecommons.org/ns#"
   xmlns:rdf="http://www.w3.org/1999/02/22-rdf-syntax-ns#"
   xmlns:svg="http://www.w3.org/2000/svg"
   xmlns="http://www.w3.org/2000/svg"
   viewBox="0 0 65.053329 31.986668"
   height="31.986668"
   width="65.053329"
   xml:space="preserve"
   id="svg2"
   version="1.1"><metadata
     id="metadata8"><rdf:RDF><cc:Work
         rdf:about=""><dc:format>image/svg+xml</dc:format><dc:type
           rdf:resource="http://purl.org/dc/dcmitype/StillImage" /></cc:Work></rdf:RDF></metadata><defs
     id="defs6" /><g
     transform="matrix(1.3333333,0,0,-1.3333333,0,31.986667)"
     id="g10"><g
       transform="scale(0.1)"
       id="g12"><path
         id="path14"
         style="fill:#FFAA00;fill-opacity:1;fill-rule:nonzero;stroke:none"
         d="M 5.65625,118.672 149.941,235.332 H 483.035 L 363.645,118.672 H 5.65625" /><path
         id="path16"
         style="fill:none;stroke:#FFFFFF;stroke-width:4;stroke-linecap:butt;stroke-linejoin:miter;stroke-miterlimit:4;stroke-dasharray:none;stroke-opacity:1"
         d="M 5.65625,118.672 149.941,235.332 h 333.094 l -119.39,-116.66 z" /><path
         id="path18"
         style="fill:#FFAA00;fill-opacity:1;fill-rule:nonzero;stroke:none"
         d="m 332.898,173.691 8.879,8.887 27.754,-12.617 -48.652,-13.984 11.023,14.531 h -88.648 l 3.184,3.183 h 86.46" /><path
         id="path20"
         style="fill:#FFAA00;fill-opacity:1;fill-rule:nonzero;stroke:none"
         d="m 279.656,203.438 -3.179,-3.165 h -90.403 l -13.691,-10.644 -23.281,11.406 53.371,15.625 -13.215,-13.222 h 90.398" /><path
         id="path22"
         style="fill:#FFAA00;fill-opacity:1;fill-rule:nonzero;stroke:none"
         d="m 229.785,153.145 -3.183,-3.184 h -90.84 l -13.692,-10.195 -24.152,11.386 54.68,15.196 -12.344,-13.203 h 89.531" /><path
         id="path24"
         style="fill:#FFAA00;fill-opacity:1;fill-rule:nonzero;stroke:none"
         d="m 384.094,215.703 8.875,8.867 27.746,-12.168 -48.652,-13.984 10.593,14.102 h -89.093 l 3.183,3.183 h 87.348" /><path
         id="path26"
         style="fill:#FFFFFF;fill-opacity:1;fill-rule:nonzero;stroke:none"
         d="m 333.34,170.645 8.879,8.867 24.246,-10.41 -48.652,-13.985 12.343,12.344 h -89.093 l 3.183,3.184 h 89.094" /><path
         id="path28"
         style="fill:#FFFFFF;fill-opacity:1;fill-rule:nonzero;stroke:none"
         d="m 276.594,200.391 -3.176,-3.184 h -89.094 l -8.886,-8.887 -24.149,10.528 48.555,13.886 -12.344,-12.343 h 89.094" /><path
         id="path30"
         style="fill:#FFAA00;fill-opacity:1;fill-rule:nonzero;stroke:none"
         d="M 363.645,4.85547 483.035,125.164 V 235.137 L 363.645,118.672 V 4.85547" /><path
         id="path32"
         style="fill:none;stroke:#FFFFFF;stroke-width:4;stroke-linecap:butt;stroke-linejoin:miter;stroke-miterlimit:4;stroke-dasharray:none;stroke-opacity:1"
         d="M 363.645,4.85547 483.035,125.164 V 235.137 L 363.645,118.672 Z" /><path
         id="path34"
         style="fill:#FFFFFF;fill-opacity:1;fill-rule:nonzero;stroke:none"
         d="m 226.277,150.078 -3.172,-3.183 h -89.089 l -8.887,-8.887 -24.152,10.527 48.554,13.887 -12.343,-12.344 h 89.089" /><path
         id="path36"
         style="fill:#FFFFFF;fill-opacity:1;fill-rule:nonzero;stroke:none"
         d="m 384.094,212.637 8.875,8.886 24.25,-10.429 -48.656,-13.985 12.343,12.344 h -89.09 l 3.184,3.184 h 89.094" /><path
         id="path38"
         style="fill:none;stroke:#FFAA00;stroke-width:2.79999995;stroke-linecap:round;stroke-linejoin:round;stroke-miterlimit:4;stroke-dasharray:none;stroke-opacity:1"
         d="M 378.328,208.926 367.395,197.988" /><path
         id="path40"
         style="fill:none;stroke:#FFAA00;stroke-width:2.79999995;stroke-linecap:round;stroke-linejoin:round;stroke-miterlimit:4;stroke-dasharray:none;stroke-opacity:1"
         d="M 327.141,166.484 316.199,155.547" /><path
         id="path42"
         style="fill:none;stroke:#FFAA00;stroke-width:2.79999995;stroke-linecap:round;stroke-linejoin:round;stroke-miterlimit:4;stroke-dasharray:none;stroke-opacity:1"
         d="m 245.762,172.168 -5.242,-4.375" /><path
         id="path44"
         style="fill:none;stroke:#FFAA00;stroke-width:2.79999995;stroke-linecap:round;stroke-linejoin:round;stroke-miterlimit:4;stroke-dasharray:none;stroke-opacity:1"
         d="m 296.953,214.609 -4.812,-4.375" /><path
         id="path46"
         style="fill:#FFAA00;fill-opacity:1;fill-rule:nonzero;stroke:none"
         d="M 363.645,3.32031 V 118.672 H 6.14453 V 2.59766 L 363.645,3.32031" /><path
         id="path48"
         style="fill:none;stroke:#FFFFFF;stroke-width:4;stroke-linecap:butt;stroke-linejoin:miter;stroke-miterlimit:4;stroke-dasharray:none;stroke-opacity:1"
         d="M 363.645,3.32031 V 118.672 H 6.14453 V 2.59766 Z" /><path
         id="path50"
         style="fill:#FFFFFF;fill-opacity:1;fill-rule:nonzero;stroke:none"
         d="M 138.32,59.8047 H 71.4922 V 65.918 L 46.2813,56.9141 71.4922,47.8906 v 6.1133 H 138.32 v 5.8008" /><path
         id="path52"
         style="fill:#FFFFFF;fill-opacity:1;fill-rule:nonzero;stroke:none"
         d="M 176.105,40.6133 V 16.9336 H 158.84 l 25.437,-8.94532 25.45,8.94532 H 192.48 v 23.6797 h -16.375" /><path
         id="path54"
         style="fill:#FFFFFF;fill-opacity:1;fill-rule:nonzero;stroke:none"
         d="M 176.105,72.5195 V 96.1992 H 158.84 l 25.437,8.9488 25.45,-8.9488 H 192.48 V 72.5195 h -16.375" /><path
         id="path56"
         style="fill:#FFFFFF;fill-opacity:1;fill-rule:nonzero;stroke:none"
         d="m 230.254,54.0039 h 66.824 v -6.1133 l 25.227,9.0235 -25.227,9.0039 v -6.1133 h -66.824 v -5.8008" /><path
         id="path58"
         style="fill:none;stroke:#FFFFFF;stroke-width:4;stroke-linecap:butt;stroke-linejoin:miter;stroke-miterlimit:4;stroke-dasharray:none;stroke-opacity:1"
         d="M 291.797,18.8672 C 279.258,14.1797 221.621,27.0898 163.113,47.6953 104.59,68.3008 67.3359,88.8281 79.8828,93.5156 92.4219,98.2031 150.059,85.3125 208.574,64.6875 267.09,44.082 304.336,23.5742 291.797,18.8672 Z" /><path
         id="path60"
         style="fill:none;stroke:#FFFFFF;stroke-width:4;stroke-linecap:butt;stroke-linejoin:miter;stroke-miterlimit:4;stroke-dasharray:none;stroke-opacity:1"
         d="M 288.469,93.8672 C 301.711,89.4141 265.293,68.9844 207.156,48.2539 149.004,27.5 91.1445,14.2969 77.9023,18.75 c -13.246,4.4531 23.1527,24.8633 81.3087,45.6055 58.133,20.7617 115.992,33.9648 129.258,29.5117 z" /><path
         id="path62"
         style="fill:#FFFFFF;fill-opacity:1;fill-rule:nonzero;stroke:none"
         d="m 211.688,43.1445 c 22.082,5.4766 27.433,16.25 11.984,24.0821 -15.457,7.8125 -45.859,9.7265 -67.942,4.2382 -22.07,-5.4687 -27.429,-16.25 -11.96,-24.0703 15.441,-7.832 45.847,-9.7304 67.918,-4.25" /></g></g></svg>