<?xml version="1.0" encoding="UTF-8" standalone="no"?>
<svg
   xmlns:dc="http://purl.org/dc/elements/1.1/"
   xmlns:cc="http://creativecommons.org/ns#"
   xmlns:rdf="http://www.w3.org/1999/02/22-rdf-syntax-ns#"
   xmlns:svg="http://www.w3.org/2000/svg"
   xmlns="http://www.w3.org/2000/svg"
   viewBox="0 0 52.84 62.959999"
   height="62.959999"
   width="52.84"
   xml:space="preserve"
   id="svg2"
   version="1.1"><metadata
     id="metadata8"><rdf:RDF><cc:Work
         rdf:about=""><dc:format>image/svg+xml</dc:format><dc:type
           rdf:resource="http://purl.org/dc/dcmitype/StillImage" /></cc:Work></rdf:RDF></metadata><defs
     id="defs6"><clipPath
       id="clipPath20"
       clipPathUnits="userSpaceOnUse"><path
         id="path18"
         d="M 0,2 V 472 H 396 V 2 Z" /></clipPath></defs><g
     transform="matrix(1.3333333,0,0,-1.3333333,0,62.96)"
     id="g10"><g
       transform="scale(0.1)"
       id="g12"><g
         id="g14"><g
           clip-path="url(#clipPath20)"
           id="g16"><path
             id="path22"
             style="fill:#FFAA00;fill-opacity:1;fill-rule:nonzero;stroke:none"
             d="m 198.605,133.625 c 108.067,0 195.68,25.086 195.68,56.035 0,30.945 -87.613,56.035 -195.68,56.035 -108.0777,0 -195.68703,-25.09 -195.68703,-56.035 0,-30.949 87.60933,-56.035 195.68703,-56.035" /><path
             id="path24"
             style="fill:none;stroke:#ffffff;stroke-width:3.99993992;stroke-linecap:butt;stroke-linejoin:miter;stroke-miterlimit:4;stroke-dasharray:none;stroke-opacity:1"
             d="m 198.605,133.625 c 108.067,0 195.68,25.086 195.68,56.035 0,30.945 -87.613,56.035 -195.68,56.035 -108.0777,0 -195.68703,-25.09 -195.68703,-56.035 0,-30.949 87.60933,-56.035 195.68703,-56.035 z" /><path
             id="path26"
             style="fill:#FFAA00;fill-opacity:1;fill-rule:nonzero;stroke:none"
             d="m 195.73,392.375 c 75.059,0 135.903,17.422 135.903,38.914 0,21.488 -60.844,38.91 -135.903,38.91 -75.054,0 -135.8941,-17.422 -135.8941,-38.91 0,-21.492 60.8401,-38.914 135.8941,-38.914" /><path
             id="path28"
             style="fill:none;stroke:#ffffff;stroke-width:3.99993992;stroke-linecap:butt;stroke-linejoin:miter;stroke-miterlimit:4;stroke-dasharray:none;stroke-opacity:1"
             d="m 195.73,392.375 c 75.059,0 135.903,17.422 135.903,38.914 0,21.488 -60.844,38.91 -135.903,38.91 -75.054,0 -135.8941,-17.422 -135.8941,-38.91 0,-21.492 60.8401,-38.914 135.8941,-38.914 z" /><path
             id="path30"
             style="fill:#FFAA00;fill-opacity:1;fill-rule:nonzero;stroke:none"
             d="m 196.105,220.609 -0.375,-43.601 c -75.054,0 -135.8941,17.422 -135.8941,38.914 v 215.367 c 0,-21.492 60.8401,-38.914 135.8941,-38.914 75.059,0 135.903,17.422 135.903,38.914 V 215.922 c 0,-13.781 -27.863,-26.488 -65.61,-33.402" /><path
             id="path32"
             style="fill:none;stroke:#ffffff;stroke-width:3.99993992;stroke-linecap:butt;stroke-linejoin:miter;stroke-miterlimit:4;stroke-dasharray:none;stroke-opacity:1"
             d="m 196.105,220.609 -0.375,-43.601 c -75.054,0 -135.8941,17.422 -135.8941,38.914 v 215.367 c 0,-21.492 60.8401,-38.914 135.8941,-38.914 75.059,0 135.903,17.422 135.903,38.914 V 215.922 c 0,-13.781 -27.863,-26.488 -65.61,-33.402" /><path
             id="path34"
             style="fill:none;stroke:#ffffff;stroke-width:3.99993992;stroke-linecap:butt;stroke-linejoin:miter;stroke-miterlimit:4;stroke-dasharray:none;stroke-opacity:1"
             d="M 363.605,60.7617 V 159.063 L 311.426,195.25 V 410.621" /><path
             id="path36"
             style="fill:none;stroke:#ffffff;stroke-width:3.99993992;stroke-linecap:butt;stroke-linejoin:miter;stroke-miterlimit:4;stroke-dasharray:none;stroke-opacity:1"
             d="m 91.8555,42.4609 v 98.3121 l 30.8475,42.364 v 215.371" /><path
             id="path38"
             style="fill:none;stroke:#ffffff;stroke-width:3.99993992;stroke-linecap:butt;stroke-linejoin:miter;stroke-miterlimit:4;stroke-dasharray:none;stroke-opacity:1"
             d="M 30.4102,61.3594 V 159.66 l 49.6289,36.781 v 215.368" /><path
             id="path40"
             style="fill:none;stroke:#ffffff;stroke-width:3.99993992;stroke-linecap:butt;stroke-linejoin:miter;stroke-miterlimit:4;stroke-dasharray:none;stroke-opacity:1"
             d="M 195.73,392.375 V 177.008" /><path
             id="path42"
             style="fill:#000000;fill-opacity:1;fill-rule:nonzero;stroke:none"
             d="M 265.09,182.512 V 398.023" /><path
             id="path44"
             style="fill:none;stroke:#ffffff;stroke-width:3.99993992;stroke-linecap:butt;stroke-linejoin:miter;stroke-miterlimit:4;stroke-dasharray:none;stroke-opacity:1"
             d="M 265.09,182.512 V 398.023" /><path
             id="path46"
             style="fill:#FFAA00;fill-opacity:1;fill-rule:nonzero;stroke:none"
             d="m 394.285,90.4023 c -2.5,-19.746 -38.648,-37.9687 -92.515,-47.9492 l 0.125,99.5389 c 53.718,9.992 89.89,27.317 92.39,47.028 V 90.4023" /><path
             id="path48"
             style="fill:none;stroke:#ffffff;stroke-width:3.99993992;stroke-linecap:butt;stroke-linejoin:miter;stroke-miterlimit:4;stroke-dasharray:none;stroke-opacity:1"
             d="m 394.285,90.4023 c -2.5,-19.746 -38.648,-37.9687 -92.515,-47.9492 l 0.125,99.5389 c 53.718,9.992 89.89,27.317 92.39,47.028 z" /><path
             id="path50"
             style="fill:#FFAA00;fill-opacity:1;fill-rule:nonzero;stroke:none"
             d="M 1.66797,91.8867 C 0.421875,58.4375 93.1719,34.0547 201.238,34.0547 V 133.879 C 91.2813,133.273 0.421875,157.656 1.66797,191.109 V 91.8867" /><path
             id="path52"
             style="fill:none;stroke:#ffffff;stroke-width:3.99993992;stroke-linecap:butt;stroke-linejoin:miter;stroke-miterlimit:4;stroke-dasharray:none;stroke-opacity:1"
             d="M 1.66797,91.8867 C 0.421875,58.4375 93.1719,34.0547 201.238,34.0547 V 133.879 C 91.2813,133.273 0.421875,157.656 1.66797,191.109 Z" /><path
             id="path54"
             style="fill:#FFAA00;fill-opacity:1;fill-rule:nonzero;stroke:none"
             d="m 196.105,393.258 -0.644,25.625 c 8.477,0 16.973,0.703 23.484,1.375 L 265.09,398.023 V 182.512 l 36.851,-39.883 V 41.9063 L 217.844,80 c -2.832,0 -16.074,-1.7852 -17.016,-1.7852 v 55.4882 l -4.723,43.445 v 216.11" /><path
             id="path56"
             style="fill:none;stroke:#ffffff;stroke-width:3.99993992;stroke-linecap:butt;stroke-linejoin:miter;stroke-miterlimit:4;stroke-dasharray:none;stroke-opacity:1"
             d="m 196.105,393.258 -0.644,25.625 c 8.477,0 16.973,0.703 23.484,1.375 L 265.09,398.023 V 182.512 l 36.851,-39.883 V 41.9063 L 217.844,80 c -2.832,0 -16.074,-1.7852 -17.016,-1.7852 v 55.4882 l -4.723,43.445 z" /><path
             id="path58"
             style="fill:none;stroke:#ffffff;stroke-width:3.99993992;stroke-linecap:butt;stroke-linejoin:miter;stroke-miterlimit:4;stroke-dasharray:none;stroke-opacity:1"
             d="M 217.844,420.051 V 80" /><path
             id="path60"
             style="fill:#000000;fill-opacity:1;fill-rule:nonzero;stroke:none"
             d="m 3.60547,192.883 54.99613,20" /><path
             id="path62"
             style="fill:none;stroke:#ffffff;stroke-width:3.99993992;stroke-linecap:butt;stroke-linejoin:miter;stroke-miterlimit:4;stroke-dasharray:none;stroke-opacity:1"
             d="m 3.60547,192.883 54.99613,20" /><path
             id="path64"
             style="fill:#000000;fill-opacity:1;fill-rule:nonzero;stroke:none"
             d="m 392.355,195.383 -60,17.5" /><path
             id="path66"
             style="fill:none;stroke:#ffffff;stroke-width:3.99993992;stroke-linecap:butt;stroke-linejoin:bevel;stroke-miterlimit:4;stroke-dasharray:none;stroke-opacity:1"
             d="m 392.355,195.383 -60,17.5" /><path
             id="path68"
             style="fill:#FFAA00;fill-opacity:1;fill-rule:nonzero;stroke:none"
             d="m 229.23,385.332 22.5,3.051 46.875,-20.664 c -17.5,-4.668 -58.75,-9.953 -66.875,-8.504 l -2.5,26.117" /><path
             id="path70"
             style="fill:none;stroke:#ffffff;stroke-width:3.99993992;stroke-linecap:butt;stroke-linejoin:miter;stroke-miterlimit:4;stroke-dasharray:none;stroke-opacity:1"
             d="m 229.23,385.332 22.5,3.051 46.875,-20.664 c -17.5,-4.668 -58.75,-9.953 -66.875,-8.504 z" /><path
             id="path72"
             style="fill:#FFAA00;fill-opacity:1;fill-rule:nonzero;stroke:none"
             d="m 228.605,385.297 3.125,-26.082 V 144.211 l 5,-43.477 V 1.35938 L 228.605,43.4297 V 385.297" /><path
             id="path74"
             style="fill:none;stroke:#ffffff;stroke-width:3.99993992;stroke-linecap:butt;stroke-linejoin:miter;stroke-miterlimit:4;stroke-dasharray:none;stroke-opacity:1"
             d="m 228.605,385.297 3.125,-26.082 V 144.211 l 5,-43.477 V 1.35938 l -8.125,42.07032 z" /><path
             id="path76"
             style="fill:#FFAA00;fill-opacity:1;fill-rule:nonzero;stroke:none"
             d="m 231.73,359.215 c 12.5,-0.598 56.875,4.851 66.875,9.129 V 152.102 C 280.48,148.645 246.73,143.75 231.73,144.836 v 214.379" /><path
             id="path78"
             style="fill:none;stroke:#ffffff;stroke-width:3.99993992;stroke-linecap:butt;stroke-linejoin:miter;stroke-miterlimit:4;stroke-dasharray:none;stroke-opacity:1"
             d="m 231.73,359.215 c 12.5,-0.598 56.875,4.851 66.875,9.129 V 152.102 C 280.48,148.645 246.73,143.75 231.73,144.836 Z" /><path
             id="path80"
             style="fill:#FFAA00;fill-opacity:1;fill-rule:nonzero;stroke:none"
             d="m 298.605,152.102 37.5,-38.047 c -20,-5.422 -86.875,-12.676 -99.375,-12.696 l -5,43.477 c 7.5,-0.859 63.75,5.84 66.875,7.266" /><path
             id="path82"
             style="fill:none;stroke:#ffffff;stroke-width:3.99993992;stroke-linecap:butt;stroke-linejoin:miter;stroke-miterlimit:4;stroke-dasharray:none;stroke-opacity:1"
             d="m 298.605,152.102 37.5,-38.047 c -20,-5.422 -86.875,-12.676 -99.375,-12.696 l -5,43.477 c 7.5,-0.859 63.75,5.84 66.875,7.266 z" /><path
             id="path84"
             style="fill:#FFAA00;fill-opacity:1;fill-rule:nonzero;stroke:none"
             d="M 335.48,114.648 V 14.6484 C 322.355,10.832 252.98,1.57422 236.73,1.98438 V 100.734 c 12.5,0.02 73.75,7.606 98.75,13.914" /><path
             id="path86"
             style="fill:none;stroke:#ffffff;stroke-width:3.99993992;stroke-linecap:butt;stroke-linejoin:miter;stroke-miterlimit:4;stroke-dasharray:none;stroke-opacity:1"
             d="M 335.48,114.648 V 14.6484 C 322.355,10.832 252.98,1.57422 236.73,1.98438 V 100.734 c 12.5,0.02 73.75,7.606 98.75,13.914 z" /></g></g></g></g></svg>