<?xml version="1.0" encoding="UTF-8" standalone="no"?>
<svg
   xmlns:dc="http://purl.org/dc/elements/1.1/"
   xmlns:cc="http://creativecommons.org/ns#"
   xmlns:rdf="http://www.w3.org/1999/02/22-rdf-syntax-ns#"
   xmlns:svg="http://www.w3.org/2000/svg"
   xmlns="http://www.w3.org/2000/svg"
   version="1.1"
   id="svg2"
   xml:space="preserve"
   width="38.226665"
   height="38.226665"
   viewBox="0 0 38.226665 38.226665"><metadata
     id="metadata8"><rdf:RDF><cc:Work
         rdf:about=""><dc:format>image/svg+xml</dc:format><dc:type
           rdf:resource="http://purl.org/dc/dcmitype/StillImage" /></cc:Work></rdf:RDF></metadata><defs
     id="defs6" /><g
     id="g10"
     transform="matrix(1.3333333,0,0,-1.3333333,0,38.226667)"><g
       id="g12"
       transform="scale(0.1)"><path
         d="m 143.363,1.96484 c 78.086,0 141.387,63.30856 141.387,141.39416 0,78.086 -63.301,141.399 -141.387,141.399 C 65.2773,284.758 1.95703,221.445 1.95703,143.359 1.95703,65.2734 65.2773,1.96484 143.363,1.96484"
         style="fill:#FFFFFF;fill-opacity:1;fill-rule:nonzero;stroke:none"
         id="path14" /><path
         d="m 143.363,1.96484 c 78.086,0 141.387,63.30856 141.387,141.39416 0,78.086 -63.301,141.399 -141.387,141.399 C 65.2773,284.758 1.95703,221.445 1.95703,143.359 1.95703,65.2734 65.2773,1.96484 143.363,1.96484 Z"
         style="fill:none;stroke:#FFAA00;stroke-width:3.99993992;stroke-linecap:butt;stroke-linejoin:miter;stroke-miterlimit:4;stroke-dasharray:none;stroke-opacity:1"
         id="path16" /><g
         id="g18"
         transform="scale(10)"><text
   transform="matrix(1,0,0,-1,4.60195,16.3359)"
   style="font-variant:normal;font-weight:normal;font-size:7px;font-family:Helvetica;-inkscape-font-specification:Helvetica;writing-mode:lr-tb;fill:#FFAA00;fill-opacity:1;fill-rule:nonzero;stroke:none"
   id="text24"><tspan
     x="0 4.277 8.1689997 11.669 15.561"
     y="0"
     id="tspan20">Token</tspan><tspan
     x="2.5308599 7.5848598 9.1388597 13.03086"
     y="8"
     id="tspan22">Ring</tspan></text>

</g></g></g></svg>