<?xml version="1.0"  encoding="UTF-8" standalone="no"?>
<svg version="1.1" xmlns="http://www.w3.org/2000/svg" xmlns:xlink="http://www.w3.org/1999/xlink" width="690.0000" height="665.0000">
<g transform="translate(59.0000, 46.0000)">
<path d="M 300.0000,-20.0000 C 425.0000,28.0000 522.0000,125.0000 570.0000,250.0000 C 571.0000,255.0000 596.0000,234.0000 596.0000,234.0000 C 596.0000,234.0000 596.0000,230.0000 595.0000,225.0000 C 599.0000,223.0000 561.0000,85.0000 509.0000,41.0000 C 465.0000,-12.0000 327.0000,-48.0000 325.0000,-45.0000 C 320.0000,-46.0000 317.0000,-46.0000 317.0000,-46.0000 C 316.0000,-46.0000 295.0000,-20.0000 300.0000,-20.0000 Z "  fill="#00B38A" stroke="none" />
<path d="M 11.0000,233.0000 C 214.0000,30.0000 214.0000,30.0000 214.0000,30.0000 C 216.0000,28.0000 216.0000,23.0000 214.0000,20.0000 C 148.0000,-36.0000 148.0000,-36.0000 148.0000,-36.0000 C 145.0000,-38.0000 140.0000,-38.0000 138.0000,-36.0000 C -29.0000,130.0000 -29.0000,130.0000 -29.0000,130.0000 C -31.0000,133.0000 -33.0000,139.0000 -33.0000,143.0000 C 5.0000,231.0000 5.0000,231.0000 5.0000,231.0000 C 6.0000,235.0000 8.0000,236.0000 11.0000,233.0000 Z "  fill="#00B38A" stroke="none" />
<path d="M -57.0000,554.0000 C -59.0000,557.0000 -59.0000,561.0000 -57.0000,564.0000 C -3.0000,617.0000 -3.0000,617.0000 -3.0000,617.0000 C 0.0000,620.0000 4.0000,620.0000 7.0000,617.0000 C 119.0000,494.0000 119.0000,494.0000 119.0000,494.0000 C 101.0000,469.0000 88.0000,441.0000 83.0000,410.0000 Z "  fill="#00B38A" stroke="none" />
<path d="M 476.0000,123.0000 C 468.0000,115.0000 460.0000,106.0000 452.0000,98.0000 C 444.0000,90.0000 435.0000,82.0000 427.0000,75.0000 C 329.0000,170.0000 329.0000,170.0000 329.0000,170.0000 C 356.0000,175.0000 380.0000,186.0000 402.0000,200.0000 Z "  fill="#00B38A" stroke="none" />
<path d="M 163.0000,101.0000 C 113.0000,151.0000 113.0000,151.0000 113.0000,151.0000 C 165.0000,205.0000 165.0000,205.0000 165.0000,205.0000 C 186.0000,189.0000 210.0000,178.0000 236.0000,171.0000 Z "  fill="#00B38A" stroke="none" />
<path d="M 629.0000,554.0000 C 489.0000,417.0000 489.0000,417.0000 489.0000,417.0000 C 482.0000,447.0000 469.0000,475.0000 450.0000,499.0000 C 566.0000,617.0000 566.0000,617.0000 566.0000,617.0000 C 568.0000,620.0000 573.0000,620.0000 576.0000,617.0000 C 629.0000,564.0000 629.0000,564.0000 629.0000,564.0000 C 632.0000,561.0000 632.0000,557.0000 629.0000,554.0000 Z "  fill="#00B38A" stroke="none" />
<path d="M 519.0000,31.0000 C 528.0000,38.0000 536.0000,48.0000 543.0000,59.0000 C 566.0000,37.0000 566.0000,37.0000 566.0000,37.0000 C 513.0000,-16.0000 513.0000,-16.0000 513.0000,-16.0000 C 491.0000,6.0000 491.0000,6.0000 491.0000,6.0000 C 502.0000,14.0000 512.0000,22.0000 519.0000,31.0000 Z "  fill="#00B38A" stroke="none" />
<path d="M 16.0000,58.0000 C 19.0000,61.0000 23.0000,61.0000 26.0000,58.0000 C 70.0000,14.0000 70.0000,14.0000 70.0000,14.0000 C 73.0000,12.0000 73.0000,7.0000 70.0000,4.0000 C 53.0000,-13.0000 53.0000,-13.0000 53.0000,-13.0000 C 50.0000,-16.0000 46.0000,-16.0000 43.0000,-13.0000 C -1.0000,31.0000 -1.0000,31.0000 -1.0000,31.0000 C -4.0000,34.0000 -4.0000,38.0000 -1.0000,41.0000 Z "  fill="#00B38A" stroke="none" />
<path d="M 472.0000,372.0000 C 472.0000,270.0000 389.0000,186.0000 286.0000,186.0000 C 184.0000,186.0000 100.0000,270.0000 100.0000,372.0000 C 100.0000,475.0000 184.0000,558.0000 286.0000,558.0000 C 389.0000,558.0000 472.0000,475.0000 472.0000,372.0000 Z M 286.0000,536.0000 C 196.0000,536.0000 123.0000,462.0000 123.0000,372.0000 C 123.0000,282.0000 196.0000,209.0000 286.0000,209.0000 C 376.0000,209.0000 449.0000,282.0000 449.0000,372.0000 C 449.0000,462.0000 376.0000,536.0000 286.0000,536.0000 Z "  fill="#00B38A" stroke="none" />
<path d="M 295.0000,384.0000 C 273.0000,383.0000 273.0000,383.0000 273.0000,383.0000 C 273.0000,433.0000 273.0000,433.0000 273.0000,433.0000 C 296.0000,433.0000 296.0000,433.0000 296.0000,433.0000 C 307.0000,433.0000 319.0000,424.0000 319.0000,409.0000 C 319.0000,393.0000 310.0000,384.0000 295.0000,384.0000 Z "  fill="#00B38A" stroke="none" />
<path d="M 286.0000,221.0000 C 203.0000,221.0000 135.0000,289.0000 135.0000,372.0000 C 135.0000,456.0000 203.0000,524.0000 286.0000,524.0000 C 370.0000,524.0000 438.0000,456.0000 438.0000,372.0000 C 438.0000,289.0000 370.0000,221.0000 286.0000,221.0000 Z M 309.0000,457.0000 C 305.0000,457.0000 305.0000,457.0000 305.0000,457.0000 C 305.0000,484.0000 305.0000,484.0000 305.0000,484.0000 C 294.0000,484.0000 294.0000,484.0000 294.0000,484.0000 C 294.0000,457.0000 294.0000,457.0000 294.0000,457.0000 C 273.0000,457.0000 273.0000,457.0000 273.0000,457.0000 C 273.0000,484.0000 273.0000,484.0000 273.0000,484.0000 C 262.0000,484.0000 262.0000,484.0000 262.0000,484.0000 C 262.0000,457.0000 262.0000,457.0000 262.0000,457.0000 C 216.0000,456.0000 216.0000,456.0000 216.0000,456.0000 C 216.0000,432.0000 216.0000,432.0000 216.0000,432.0000 C 230.0000,432.0000 230.0000,432.0000 230.0000,432.0000 C 231.0000,319.0000 231.0000,319.0000 231.0000,319.0000 C 217.0000,319.0000 217.0000,319.0000 217.0000,319.0000 C 217.0000,295.0000 217.0000,295.0000 217.0000,295.0000 C 263.0000,295.0000 263.0000,295.0000 263.0000,295.0000 C 263.0000,265.0000 263.0000,265.0000 263.0000,265.0000 C 274.0000,265.0000 274.0000,265.0000 274.0000,265.0000 C 274.0000,296.0000 274.0000,296.0000 274.0000,296.0000 C 295.0000,296.0000 295.0000,296.0000 295.0000,296.0000 C 295.0000,265.0000 295.0000,265.0000 295.0000,265.0000 C 306.0000,265.0000 306.0000,265.0000 306.0000,265.0000 C 306.0000,296.0000 306.0000,296.0000 306.0000,296.0000 C 310.0000,296.0000 310.0000,296.0000 310.0000,296.0000 C 342.0000,298.0000 359.0000,310.0000 358.0000,334.0000 C 358.0000,353.0000 353.0000,361.0000 337.0000,367.0000 C 327.0000,371.0000 327.0000,371.0000 327.0000,371.0000 C 337.0000,374.0000 337.0000,374.0000 337.0000,374.0000 C 348.0000,378.0000 366.0000,387.0000 366.0000,412.0000 C 366.0000,443.0000 349.0000,456.0000 309.0000,457.0000 Z "  fill="#00B38A" stroke="none" />
<path d="M 291.0000,364.0000 C 312.0000,364.0000 312.0000,347.0000 312.0000,341.0000 C 312.0000,329.0000 304.0000,320.0000 292.0000,320.0000 C 273.0000,320.0000 273.0000,320.0000 273.0000,320.0000 C 273.0000,364.0000 273.0000,364.0000 273.0000,364.0000 Z "  fill="#00B38A" stroke="none" />
</g>
</svg>
