<?xml version="1.0"  encoding="UTF-8" standalone="no"?>
<svg version="1.1" xmlns="http://www.w3.org/2000/svg" xmlns:xlink="http://www.w3.org/1999/xlink" width="1486.0000" height="889.0000">
<g transform="translate(614.0000, 157.0000)">
<path d="M 872.0000,31.0000 L 626.0000,-157.0000 L 626.0000,-61.0000 L -368.0000,-61.0000 L -368.0000,-157.0000 L -614.0000,31.0000 L -368.0000,220.0000 L -368.0000,124.0000 L 626.0000,124.0000 L 626.0000,220.0000 L 872.0000,31.0000 Z "  fill="#00B38A" stroke-width="1px" stroke="#FFFFFF" />
<path d="M 809.0000,377.0000 C -407.0000,377.0000 -407.0000,377.0000 -407.0000,377.0000 C -407.0000,378.0000 -407.0000,378.0000 -407.0000,378.0000 C -445.0000,378.0000 -445.0000,378.0000 -445.0000,378.0000 C -447.0000,377.0000 -450.0000,377.0000 -453.0000,377.0000 C -540.0000,377.0000 -540.0000,377.0000 -540.0000,377.0000 C -567.0000,377.0000 -589.0000,457.0000 -589.0000,554.0000 C -589.0000,652.0000 -567.0000,732.0000 -540.0000,732.0000 C -453.0000,732.0000 -453.0000,732.0000 -453.0000,732.0000 C -452.0000,732.0000 -450.0000,732.0000 -449.0000,732.0000 C 809.0000,732.0000 809.0000,732.0000 809.0000,732.0000 C 836.0000,732.0000 858.0000,652.0000 858.0000,555.0000 C 858.0000,457.0000 836.0000,377.0000 809.0000,377.0000 Z M -534.0000,708.0000 C -555.0000,708.0000 -571.0000,639.0000 -571.0000,554.0000 C -571.0000,470.0000 -555.0000,401.0000 -534.0000,401.0000 C -514.0000,401.0000 -498.0000,470.0000 -498.0000,554.0000 C -498.0000,639.0000 -514.0000,708.0000 -534.0000,708.0000 Z M -128.0000,654.0000 C -168.0000,654.0000 -168.0000,654.0000 -168.0000,654.0000 C -168.0000,472.0000 -168.0000,472.0000 -168.0000,472.0000 C -128.0000,472.0000 -128.0000,472.0000 -128.0000,472.0000 Z M -11.0000,589.0000 C -53.0000,589.0000 -53.0000,589.0000 -53.0000,589.0000 C -53.0000,654.0000 -53.0000,654.0000 -53.0000,654.0000 C -93.0000,654.0000 -93.0000,654.0000 -93.0000,654.0000 C -93.0000,472.0000 -93.0000,472.0000 -93.0000,472.0000 C -11.0000,472.0000 -11.0000,472.0000 -11.0000,472.0000 C 35.0000,472.0000 52.0000,501.0000 52.0000,531.0000 C 52.0000,560.0000 35.0000,589.0000 -11.0000,589.0000 Z M 129.0000,658.0000 C 98.0000,658.0000 68.0000,646.0000 67.0000,611.0000 C 101.0000,611.0000 101.0000,611.0000 101.0000,611.0000 C 101.0000,627.0000 115.0000,633.0000 129.0000,633.0000 C 139.0000,633.0000 152.0000,629.0000 152.0000,617.0000 C 152.0000,606.0000 137.0000,602.0000 112.0000,596.0000 C 90.0000,591.0000 70.0000,585.0000 70.0000,561.0000 C 70.0000,528.0000 99.0000,519.0000 127.0000,519.0000 C 155.0000,519.0000 182.0000,529.0000 185.0000,561.0000 C 151.0000,561.0000 151.0000,561.0000 151.0000,561.0000 C 150.0000,547.0000 139.0000,543.0000 126.0000,543.0000 C 118.0000,543.0000 106.0000,544.0000 106.0000,555.0000 C 106.0000,568.0000 127.0000,570.0000 147.0000,575.0000 C 168.0000,580.0000 189.0000,587.0000 189.0000,612.0000 C 189.0000,646.0000 158.0000,658.0000 129.0000,658.0000 Z M 334.0000,597.0000 C 239.0000,597.0000 239.0000,597.0000 239.0000,597.0000 C 240.0000,620.0000 251.0000,630.0000 272.0000,630.0000 C 286.0000,630.0000 298.0000,621.0000 300.0000,613.0000 C 332.0000,613.0000 332.0000,613.0000 332.0000,613.0000 C 322.0000,645.0000 300.0000,658.0000 270.0000,658.0000 C 229.0000,658.0000 203.0000,629.0000 203.0000,588.0000 C 203.0000,549.0000 230.0000,519.0000 270.0000,519.0000 C 315.0000,519.0000 337.0000,557.0000 334.0000,597.0000 Z M 418.0000,658.0000 C 378.0000,658.0000 351.0000,630.0000 351.0000,590.0000 C 351.0000,549.0000 376.0000,519.0000 419.0000,519.0000 C 450.0000,519.0000 478.0000,535.0000 480.0000,569.0000 C 445.0000,569.0000 445.0000,569.0000 445.0000,569.0000 C 443.0000,554.0000 434.0000,546.0000 418.0000,546.0000 C 395.0000,546.0000 388.0000,570.0000 388.0000,589.0000 C 388.0000,608.0000 395.0000,630.0000 418.0000,630.0000 C 435.0000,630.0000 444.0000,620.0000 446.0000,604.0000 C 481.0000,604.0000 481.0000,604.0000 481.0000,604.0000 C 476.0000,638.0000 453.0000,658.0000 418.0000,658.0000 Z "  fill="#00B38A" stroke="none" />
<path d="M -22.0000,503.0000 C -53.0000,503.0000 -53.0000,503.0000 -53.0000,503.0000 C -53.0000,558.0000 -53.0000,558.0000 -53.0000,558.0000 C -22.0000,558.0000 -22.0000,558.0000 -22.0000,558.0000 C -3.0000,558.0000 13.0000,554.0000 13.0000,531.0000 C 13.0000,508.0000 -3.0000,503.0000 -22.0000,503.0000 Z "  fill="#00B38A" stroke="none" />
<path d="M 269.0000,546.0000 C 246.0000,546.0000 240.0000,564.0000 239.0000,574.0000 C 298.0000,574.0000 298.0000,574.0000 298.0000,574.0000 C 295.0000,556.0000 287.0000,546.0000 269.0000,546.0000 Z "  fill="#00B38A" stroke="none" />
</g>
</svg>
