<?xml version="1.0"  encoding="UTF-8" standalone="no"?>
<svg version="1.1" xmlns="http://www.w3.org/2000/svg" xmlns:xlink="http://www.w3.org/1999/xlink" width="803.0000" height="652.0000">
<g transform="translate(115.0000, 40.0000)">
<path d="M 638.0000,-40.0000 C -65.0000,-40.0000 -65.0000,-40.0000 -65.0000,-40.0000 C -93.0000,-40.0000 -115.0000,-17.0000 -115.0000,10.0000 C -115.0000,462.0000 -115.0000,462.0000 -115.0000,462.0000 C -115.0000,490.0000 -92.0000,512.0000 -65.0000,512.0000 C -15.0000,512.0000 -15.0000,512.0000 -15.0000,512.0000 C -15.0000,462.0000 -15.0000,462.0000 -15.0000,462.0000 C -65.0000,462.0000 -65.0000,462.0000 -65.0000,462.0000 C -65.0000,10.0000 -65.0000,10.0000 -65.0000,10.0000 C 638.0000,10.0000 638.0000,10.0000 638.0000,10.0000 C 638.0000,462.0000 638.0000,462.0000 638.0000,462.0000 C 287.0000,462.0000 287.0000,462.0000 287.0000,462.0000 C 287.0000,512.0000 287.0000,512.0000 287.0000,512.0000 C 638.0000,512.0000 638.0000,512.0000 638.0000,512.0000 C 665.0000,512.0000 688.0000,490.0000 688.0000,462.0000 C 688.0000,10.0000 688.0000,10.0000 688.0000,10.0000 C 688.0000,-17.0000 666.0000,-40.0000 638.0000,-40.0000 Z "  fill="#FED100" stroke="none" />
<path d="M 588.0000,111.0000 L 337.0000,111.0000 L 337.0000,161.0000 L 588.0000,161.0000 L 588.0000,111.0000 Z "  fill="#FED100" stroke-width="1px" stroke="#FFFFFF" />
<path d="M 337.0000,261.0000 L 588.0000,261.0000 L 588.0000,211.0000 L 337.0000,211.0000 L 337.0000,261.0000 Z "  fill="#FED100" stroke-width="1px" stroke="#FFFFFF" />
<path d="M 337.0000,362.0000 L 588.0000,362.0000 L 588.0000,311.0000 L 337.0000,311.0000 L 337.0000,362.0000 Z "  fill="#FED100" stroke-width="1px" stroke="#FFFFFF" />
<path d="M 136.0000,60.0000 C 53.0000,60.0000 -15.0000,128.0000 -15.0000,211.0000 C -15.0000,294.0000 53.0000,362.0000 136.0000,362.0000 C 219.0000,362.0000 287.0000,294.0000 287.0000,211.0000 C 287.0000,128.0000 219.0000,60.0000 136.0000,60.0000 Z M 55.0000,265.0000 C 45.0000,265.0000 16.0000,261.0000 16.0000,233.0000 C 43.0000,233.0000 43.0000,233.0000 43.0000,233.0000 C 43.0000,235.0000 44.0000,237.0000 44.0000,239.0000 C 46.0000,244.0000 52.0000,245.0000 58.0000,245.0000 C 62.0000,245.0000 69.0000,244.0000 69.0000,237.0000 C 69.0000,233.0000 65.0000,231.0000 50.0000,227.0000 C 36.0000,223.0000 19.0000,219.0000 19.0000,201.0000 C 19.0000,181.0000 37.0000,172.0000 55.0000,172.0000 C 75.0000,172.0000 92.0000,179.0000 93.0000,201.0000 C 67.0000,201.0000 67.0000,201.0000 67.0000,201.0000 C 67.0000,197.0000 66.0000,195.0000 63.0000,194.0000 C 61.0000,192.0000 58.0000,191.0000 55.0000,191.0000 C 52.0000,191.0000 45.0000,192.0000 45.0000,197.0000 C 46.0000,204.0000 59.0000,205.0000 71.0000,209.0000 C 84.0000,212.0000 96.0000,218.0000 96.0000,234.0000 C 96.0000,258.0000 75.0000,265.0000 55.0000,265.0000 Z M 138.0000,265.0000 C 128.0000,265.0000 99.0000,261.0000 99.0000,233.0000 C 127.0000,233.0000 127.0000,233.0000 127.0000,233.0000 C 127.0000,235.0000 127.0000,237.0000 128.0000,239.0000 C 130.0000,244.0000 136.0000,245.0000 141.0000,245.0000 C 145.0000,245.0000 152.0000,244.0000 152.0000,237.0000 C 152.0000,233.0000 148.0000,231.0000 133.0000,227.0000 C 119.0000,223.0000 103.0000,219.0000 103.0000,201.0000 C 103.0000,181.0000 120.0000,172.0000 139.0000,172.0000 C 158.0000,172.0000 175.0000,179.0000 176.0000,201.0000 C 150.0000,201.0000 150.0000,201.0000 150.0000,201.0000 C 150.0000,197.0000 149.0000,195.0000 147.0000,194.0000 C 144.0000,192.0000 141.0000,191.0000 138.0000,191.0000 C 135.0000,191.0000 129.0000,192.0000 129.0000,197.0000 C 129.0000,204.0000 142.0000,205.0000 154.0000,209.0000 C 167.0000,212.0000 180.0000,218.0000 180.0000,234.0000 C 180.0000,258.0000 158.0000,265.0000 138.0000,265.0000 Z M 188.0000,263.0000 C 188.0000,174.0000 188.0000,174.0000 188.0000,174.0000 C 215.0000,174.0000 215.0000,174.0000 215.0000,174.0000 C 215.0000,240.0000 215.0000,240.0000 215.0000,240.0000 C 255.0000,240.0000 255.0000,240.0000 255.0000,240.0000 C 255.0000,263.0000 255.0000,263.0000 255.0000,263.0000 Z "  fill="#FED100" stroke="none" />
<path d="M 36.0000,385.0000 C 36.0000,612.0000 36.0000,612.0000 36.0000,612.0000 C 136.0000,562.0000 136.0000,562.0000 136.0000,562.0000 C 236.0000,612.0000 236.0000,612.0000 236.0000,612.0000 C 236.0000,385.0000 236.0000,385.0000 236.0000,385.0000 C 207.0000,402.0000 173.0000,412.0000 136.0000,412.0000 C 99.0000,412.0000 65.0000,402.0000 36.0000,385.0000 Z "  fill="#FED100" stroke="none" />
</g>
</svg>
