<?xml version="1.0"  encoding="UTF-8" standalone="no"?>
<svg version="1.1" xmlns="http://www.w3.org/2000/svg" xmlns:xlink="http://www.w3.org/1999/xlink" width="1481.0000" height="1777.0000">
<g transform="translate(453.0000, 602.0000)">
<path d="M 287.0000,-602.0000 C -121.0000,-602.0000 -453.0000,-270.0000 -453.0000,138.0000 C -453.0000,546.0000 -121.0000,879.0000 287.0000,879.0000 C 696.0000,879.0000 1028.0000,546.0000 1028.0000,138.0000 C 1028.0000,-270.0000 696.0000,-602.0000 287.0000,-602.0000 Z M 287.0000,817.0000 C -87.0000,817.0000 -392.0000,513.0000 -392.0000,138.0000 C -392.0000,-236.0000 -87.0000,-541.0000 287.0000,-541.0000 C 662.0000,-541.0000 966.0000,-236.0000 966.0000,138.0000 C 966.0000,513.0000 662.0000,817.0000 287.0000,817.0000 Z "  fill="#FED100" stroke="none" />
<path d="M 258.0000,-274.0000 L -156.0000,-274.0000 L -156.0000,-43.0000 L 258.0000,-43.0000 L 258.0000,-274.0000 Z "  fill="#FED100" stroke-width="1px" stroke="#FFFFFF" />
<path d="M 337.0000,-150.0000 C 435.0000,-150.0000 435.0000,-150.0000 435.0000,-150.0000 C 432.0000,-159.0000 430.0000,-169.0000 430.0000,-179.0000 C 430.0000,-231.0000 472.0000,-273.0000 524.0000,-273.0000 C 576.0000,-273.0000 618.0000,-231.0000 618.0000,-179.0000 C 618.0000,-127.0000 576.0000,-85.0000 524.0000,-85.0000 C 511.0000,-85.0000 498.0000,-88.0000 487.0000,-93.0000 C 487.0000,-43.0000 487.0000,-43.0000 487.0000,-43.0000 C 545.0000,-43.0000 545.0000,-43.0000 545.0000,-43.0000 C 642.0000,-43.0000 642.0000,-43.0000 642.0000,-43.0000 C 738.0000,-43.0000 738.0000,-43.0000 738.0000,-43.0000 C 740.0000,-43.0000 740.0000,-43.0000 740.0000,-43.0000 C 740.0000,-274.0000 740.0000,-274.0000 740.0000,-274.0000 C 738.0000,-274.0000 738.0000,-274.0000 738.0000,-274.0000 C 326.0000,-274.0000 326.0000,-274.0000 326.0000,-274.0000 C 324.0000,-274.0000 324.0000,-274.0000 324.0000,-274.0000 C 324.0000,-148.0000 324.0000,-148.0000 324.0000,-148.0000 C 328.0000,-149.0000 332.0000,-150.0000 337.0000,-150.0000 Z "  fill="#FED100" stroke="none" />
<path d="M 4.0000,13.0000 L -156.0000,13.0000 L -156.0000,245.0000 L 4.0000,245.0000 L 4.0000,13.0000 Z "  fill="#FED100" stroke-width="1px" stroke="#FFFFFF" />
<path d="M -156.0000,532.0000 L 258.0000,532.0000 L 258.0000,301.0000 L -156.0000,301.0000 L -156.0000,532.0000 Z "  fill="#FED100" stroke-width="1px" stroke="#FFFFFF" />
<path d="M 487.0000,349.0000 C 496.0000,345.0000 506.0000,344.0000 517.0000,344.0000 C 569.0000,344.0000 611.0000,386.0000 611.0000,438.0000 C 611.0000,490.0000 569.0000,532.0000 517.0000,532.0000 C 465.0000,532.0000 423.0000,490.0000 423.0000,438.0000 C 423.0000,427.0000 425.0000,417.0000 428.0000,407.0000 C 337.0000,407.0000 337.0000,407.0000 337.0000,407.0000 C 332.0000,407.0000 328.0000,406.0000 324.0000,405.0000 C 324.0000,532.0000 324.0000,532.0000 324.0000,532.0000 C 326.0000,532.0000 326.0000,532.0000 326.0000,532.0000 C 505.0000,532.0000 505.0000,532.0000 505.0000,532.0000 C 738.0000,532.0000 738.0000,532.0000 738.0000,532.0000 C 738.0000,301.0000 738.0000,301.0000 738.0000,301.0000 C 487.0000,301.0000 487.0000,301.0000 487.0000,301.0000 Z "  fill="#FED100" stroke="none" />
<path d="M 660.0000,215.0000 C 623.0000,215.0000 591.0000,194.0000 576.0000,163.0000 C 501.0000,232.0000 501.0000,232.0000 501.0000,232.0000 C 496.0000,237.0000 488.0000,240.0000 481.0000,241.0000 C 482.0000,243.0000 483.0000,245.0000 484.0000,248.0000 C 742.0000,248.0000 742.0000,248.0000 742.0000,248.0000 C 742.0000,166.0000 742.0000,166.0000 742.0000,166.0000 C 726.0000,195.0000 695.0000,215.0000 660.0000,215.0000 Z "  fill="#FED100" stroke="none" />
<path d="M 68.0000,13.0000 C 68.0000,91.0000 68.0000,91.0000 68.0000,91.0000 C 81.0000,55.0000 116.0000,30.0000 156.0000,30.0000 C 173.0000,30.0000 189.0000,35.0000 203.0000,43.0000 C 232.0000,13.0000 232.0000,13.0000 232.0000,13.0000 Z "  fill="#FED100" stroke="none" />
<path d="M 236.0000,248.0000 C 197.0000,209.0000 197.0000,209.0000 197.0000,209.0000 C 184.0000,215.0000 171.0000,218.0000 156.0000,218.0000 C 116.0000,218.0000 81.0000,193.0000 68.0000,157.0000 C 68.0000,245.0000 68.0000,245.0000 68.0000,245.0000 C 70.0000,245.0000 70.0000,245.0000 70.0000,245.0000 C 70.0000,248.0000 70.0000,248.0000 70.0000,248.0000 Z "  fill="#FED100" stroke="none" />
<path d="M 740.0000,13.0000 C 482.0000,13.0000 482.0000,13.0000 482.0000,13.0000 C 482.0000,14.0000 481.0000,15.0000 481.0000,16.0000 C 488.0000,17.0000 496.0000,20.0000 501.0000,26.0000 C 571.0000,90.0000 571.0000,90.0000 571.0000,90.0000 C 584.0000,53.0000 619.0000,27.0000 660.0000,27.0000 C 695.0000,27.0000 726.0000,47.0000 742.0000,76.0000 C 742.0000,16.0000 742.0000,16.0000 742.0000,16.0000 C 740.0000,16.0000 740.0000,16.0000 740.0000,16.0000 Z "  fill="#FED100" stroke="none" />
<path d="M 582.0000,-179.0000 C 582.0000,-211.0000 556.0000,-237.0000 524.0000,-237.0000 C 492.0000,-237.0000 466.0000,-211.0000 466.0000,-179.0000 C 466.0000,-147.0000 492.0000,-121.0000 524.0000,-121.0000 C 556.0000,-121.0000 582.0000,-147.0000 582.0000,-179.0000 Z "  fill="#FED100" stroke="none" />
<path d="M 602.0000,121.0000 C 602.0000,153.0000 628.0000,179.0000 660.0000,179.0000 C 692.0000,179.0000 718.0000,153.0000 718.0000,121.0000 C 718.0000,89.0000 692.0000,63.0000 660.0000,63.0000 C 628.0000,63.0000 602.0000,89.0000 602.0000,121.0000 Z "  fill="#FED100" stroke="none" />
<path d="M 517.0000,496.0000 C 549.0000,496.0000 575.0000,470.0000 575.0000,438.0000 C 575.0000,406.0000 549.0000,380.0000 517.0000,380.0000 C 502.0000,380.0000 489.0000,385.0000 479.0000,394.0000 C 477.0000,396.0000 475.0000,398.0000 473.0000,399.0000 C 464.0000,410.0000 459.0000,423.0000 459.0000,438.0000 C 459.0000,470.0000 485.0000,496.0000 517.0000,496.0000 Z "  fill="#FED100" stroke="none" />
<path d="M 560.0000,129.0000 C 477.0000,52.0000 477.0000,52.0000 477.0000,52.0000 C 476.0000,52.0000 476.0000,52.0000 476.0000,52.0000 C 476.0000,103.0000 476.0000,103.0000 476.0000,103.0000 C 270.0000,103.0000 270.0000,103.0000 270.0000,103.0000 C 415.0000,-42.0000 415.0000,-42.0000 415.0000,-42.0000 C 433.0000,-23.0000 433.0000,-23.0000 433.0000,-23.0000 C 451.0000,-4.0000 451.0000,-4.0000 451.0000,-4.0000 C 451.0000,-114.0000 451.0000,-114.0000 451.0000,-114.0000 C 337.0000,-114.0000 337.0000,-114.0000 337.0000,-114.0000 C 376.0000,-78.0000 376.0000,-78.0000 376.0000,-78.0000 C 230.0000,66.0000 230.0000,66.0000 230.0000,66.0000 C 243.0000,82.0000 250.0000,102.0000 250.0000,124.0000 C 250.0000,148.0000 241.0000,170.0000 226.0000,187.0000 C 376.0000,336.0000 376.0000,336.0000 376.0000,336.0000 C 337.0000,371.0000 337.0000,371.0000 337.0000,371.0000 C 451.0000,371.0000 451.0000,371.0000 451.0000,371.0000 C 451.0000,261.0000 451.0000,261.0000 451.0000,261.0000 C 433.0000,280.0000 433.0000,280.0000 433.0000,280.0000 C 415.0000,299.0000 415.0000,299.0000 415.0000,299.0000 C 270.0000,154.0000 270.0000,154.0000 270.0000,154.0000 C 476.0000,154.0000 476.0000,154.0000 476.0000,154.0000 C 476.0000,205.0000 476.0000,205.0000 476.0000,205.0000 C 477.0000,205.0000 477.0000,205.0000 477.0000,205.0000 C 560.0000,129.0000 560.0000,129.0000 560.0000,129.0000 C 560.0000,129.0000 560.0000,129.0000 560.0000,129.0000 C 560.0000,129.0000 560.0000,129.0000 560.0000,129.0000 C 560.0000,129.0000 560.0000,129.0000 560.0000,129.0000 Z "  fill="#FED100" stroke="none" />
<path d="M 156.0000,66.0000 C 124.0000,66.0000 98.0000,92.0000 98.0000,124.0000 C 98.0000,156.0000 124.0000,182.0000 156.0000,182.0000 C 188.0000,182.0000 214.0000,156.0000 214.0000,124.0000 C 214.0000,92.0000 188.0000,66.0000 156.0000,66.0000 Z "  fill="#FED100" stroke="none" />
<path d="M -89.0000,1048.0000 C -124.0000,1033.0000 -124.0000,1033.0000 -124.0000,1033.0000 C -143.0000,1025.0000 -147.0000,1016.0000 -147.0000,1003.0000 C -147.0000,989.0000 -142.0000,977.0000 -122.0000,977.0000 C -104.0000,977.0000 -97.0000,989.0000 -97.0000,1010.0000 C -54.0000,1010.0000 -54.0000,1010.0000 -54.0000,1010.0000 C -54.0000,1004.0000 -54.0000,1004.0000 -54.0000,1004.0000 C -54.0000,961.0000 -83.0000,944.0000 -123.0000,944.0000 C -166.0000,944.0000 -192.0000,965.0000 -192.0000,1009.0000 C -192.0000,1046.0000 -174.0000,1063.0000 -134.0000,1076.0000 C -104.0000,1086.0000 -94.0000,1095.0000 -94.0000,1115.0000 C -94.0000,1133.0000 -107.0000,1142.0000 -121.0000,1142.0000 C -144.0000,1142.0000 -150.0000,1129.0000 -150.0000,1108.0000 C -150.0000,1101.0000 -150.0000,1101.0000 -150.0000,1101.0000 C -195.0000,1101.0000 -195.0000,1101.0000 -195.0000,1101.0000 C -195.0000,1110.0000 -195.0000,1110.0000 -195.0000,1110.0000 C -195.0000,1151.0000 -175.0000,1175.0000 -124.0000,1175.0000 C -76.0000,1175.0000 -47.0000,1154.0000 -47.0000,1107.0000 C -47.0000,1079.0000 -56.0000,1063.0000 -89.0000,1048.0000 Z "  fill="#FED100" stroke="none" />
<path d="M 51.0000,948.0000 C -22.0000,948.0000 -22.0000,948.0000 -22.0000,948.0000 C -22.0000,1171.0000 -22.0000,1171.0000 -22.0000,1171.0000 C 48.0000,1171.0000 48.0000,1171.0000 48.0000,1171.0000 C 108.0000,1171.0000 125.0000,1135.0000 125.0000,1056.0000 C 125.0000,990.0000 113.0000,948.0000 51.0000,948.0000 Z M 42.0000,1138.0000 C 22.0000,1138.0000 22.0000,1138.0000 22.0000,1138.0000 C 22.0000,981.0000 22.0000,981.0000 22.0000,981.0000 C 41.0000,981.0000 41.0000,981.0000 41.0000,981.0000 C 75.0000,981.0000 80.0000,1007.0000 80.0000,1057.0000 C 80.0000,1118.0000 74.0000,1138.0000 42.0000,1138.0000 Z "  fill="#FED100" stroke="none" />
<path d="M 405.0000,948.0000 L 380.0000,1113.0000 L 380.0000,1113.0000 L 354.0000,948.0000 L 311.0000,948.0000 L 284.0000,1113.0000 L 284.0000,1113.0000 L 259.0000,948.0000 L 216.0000,948.0000 L 257.0000,1171.0000 L 307.0000,1171.0000 L 332.0000,1009.0000 L 332.0000,1009.0000 L 357.0000,1171.0000 L 408.0000,1171.0000 L 448.0000,948.0000 L 405.0000,948.0000 Z "  fill="#FED100" stroke-width="1px" stroke="#FFFFFF" />
<path d="M 504.0000,948.0000 L 445.0000,1171.0000 L 492.0000,1171.0000 L 502.0000,1124.0000 L 561.0000,1124.0000 L 572.0000,1171.0000 L 618.0000,1171.0000 L 559.0000,948.0000 L 504.0000,948.0000 Z M 510.0000,1087.0000 L 531.0000,987.0000 L 532.0000,987.0000 L 553.0000,1087.0000 L 510.0000,1087.0000 Z "  fill="#FED100" stroke-width="1px" stroke="#FFFFFF" />
<path d="M 741.0000,1100.0000 L 740.0000,1100.0000 L 686.0000,948.0000 L 634.0000,948.0000 L 634.0000,1171.0000 L 675.0000,1171.0000 L 675.0000,1015.0000 L 676.0000,1015.0000 L 731.0000,1171.0000 L 782.0000,1171.0000 L 782.0000,948.0000 L 741.0000,948.0000 L 741.0000,1100.0000 Z "  fill="#FED100" stroke-width="1px" stroke="#FFFFFF" />
</g>
</svg>
