<?xml version="1.0"  encoding="UTF-8" standalone="no"?>
<svg version="1.1" xmlns="http://www.w3.org/2000/svg" xmlns:xlink="http://www.w3.org/1999/xlink" width="949.0000" height="496.0000">
<g transform="translate(187.0000, -39.0000)">
<path d="M 762.0000,351.0000 L 632.0000,252.0000 L 632.0000,303.0000 L 512.0000,303.0000 L 512.0000,400.0000 L 632.0000,400.0000 L 632.0000,451.0000 L 762.0000,351.0000 Z "  fill="#FED100" stroke-width="1px" stroke="#FFFFFF" />
<path d="M -58.0000,252.0000 L -187.0000,351.0000 L -58.0000,451.0000 L -58.0000,400.0000 L 62.0000,400.0000 L 62.0000,303.0000 L -58.0000,303.0000 L -58.0000,252.0000 Z "  fill="#FED100" stroke-width="1px" stroke="#FFFFFF" />
<path d="M 344.0000,358.0000 C 333.0000,358.0000 330.0000,366.0000 329.0000,371.0000 C 357.0000,371.0000 357.0000,371.0000 357.0000,371.0000 C 356.0000,362.0000 352.0000,358.0000 344.0000,358.0000 Z "  fill="#FED100" stroke="none" />
<path d="M 441.0000,210.0000 C 441.0000,171.0000 441.0000,171.0000 441.0000,171.0000 C 441.0000,98.0000 382.0000,39.0000 309.0000,39.0000 C 265.0000,39.0000 265.0000,39.0000 265.0000,39.0000 C 192.0000,39.0000 133.0000,98.0000 133.0000,171.0000 C 133.0000,210.0000 133.0000,210.0000 133.0000,210.0000 C 110.0000,217.0000 93.0000,235.0000 93.0000,257.0000 C 93.0000,487.0000 93.0000,487.0000 93.0000,487.0000 C 93.0000,514.0000 119.0000,535.0000 150.0000,535.0000 C 424.0000,535.0000 424.0000,535.0000 424.0000,535.0000 C 456.0000,535.0000 481.0000,514.0000 481.0000,487.0000 C 481.0000,257.0000 481.0000,257.0000 481.0000,257.0000 C 481.0000,235.0000 464.0000,217.0000 441.0000,210.0000 Z M 157.0000,409.0000 C 138.0000,409.0000 138.0000,409.0000 138.0000,409.0000 C 138.0000,320.0000 138.0000,320.0000 138.0000,320.0000 C 157.0000,320.0000 157.0000,320.0000 157.0000,320.0000 Z M 205.0000,171.0000 C 205.0000,138.0000 232.0000,111.0000 265.0000,111.0000 C 309.0000,111.0000 309.0000,111.0000 309.0000,111.0000 C 342.0000,111.0000 369.0000,138.0000 369.0000,171.0000 C 369.0000,208.0000 369.0000,208.0000 369.0000,208.0000 C 205.0000,208.0000 205.0000,208.0000 205.0000,208.0000 Z M 215.0000,377.0000 C 194.0000,377.0000 194.0000,377.0000 194.0000,377.0000 C 194.0000,409.0000 194.0000,409.0000 194.0000,409.0000 C 175.0000,409.0000 175.0000,409.0000 175.0000,409.0000 C 175.0000,320.0000 175.0000,320.0000 175.0000,320.0000 C 215.0000,320.0000 215.0000,320.0000 215.0000,320.0000 C 237.0000,320.0000 246.0000,334.0000 246.0000,348.0000 C 246.0000,363.0000 237.0000,377.0000 215.0000,377.0000 Z M 283.0000,411.0000 C 268.0000,411.0000 254.0000,405.0000 253.0000,389.0000 C 269.0000,389.0000 269.0000,389.0000 269.0000,389.0000 C 269.0000,396.0000 276.0000,399.0000 283.0000,399.0000 C 288.0000,399.0000 294.0000,397.0000 294.0000,391.0000 C 294.0000,386.0000 287.0000,384.0000 274.0000,382.0000 C 264.0000,379.0000 254.0000,376.0000 254.0000,365.0000 C 254.0000,349.0000 268.0000,345.0000 282.0000,345.0000 C 295.0000,345.0000 308.0000,349.0000 310.0000,365.0000 C 293.0000,365.0000 293.0000,365.0000 293.0000,365.0000 C 293.0000,358.0000 288.0000,356.0000 281.0000,356.0000 C 277.0000,356.0000 272.0000,357.0000 272.0000,362.0000 C 272.0000,368.0000 282.0000,369.0000 291.0000,371.0000 C 301.0000,374.0000 311.0000,377.0000 311.0000,389.0000 C 311.0000,405.0000 297.0000,411.0000 283.0000,411.0000 Z M 375.0000,382.0000 C 329.0000,382.0000 329.0000,382.0000 329.0000,382.0000 C 330.0000,393.0000 335.0000,398.0000 345.0000,398.0000 C 352.0000,398.0000 357.0000,394.0000 358.0000,390.0000 C 374.0000,390.0000 374.0000,390.0000 374.0000,390.0000 C 369.0000,405.0000 358.0000,411.0000 344.0000,411.0000 C 324.0000,411.0000 312.0000,397.0000 312.0000,378.0000 C 312.0000,359.0000 325.0000,345.0000 344.0000,345.0000 C 366.0000,345.0000 376.0000,363.0000 375.0000,382.0000 Z M 409.0000,411.0000 C 390.0000,411.0000 377.0000,397.0000 377.0000,379.0000 C 377.0000,359.0000 389.0000,345.0000 409.0000,345.0000 C 424.0000,345.0000 438.0000,352.0000 438.0000,368.0000 C 422.0000,368.0000 422.0000,368.0000 422.0000,368.0000 C 421.0000,361.0000 416.0000,358.0000 409.0000,358.0000 C 398.0000,358.0000 394.0000,369.0000 394.0000,378.0000 C 394.0000,387.0000 398.0000,398.0000 408.0000,398.0000 C 417.0000,398.0000 421.0000,393.0000 422.0000,385.0000 C 439.0000,385.0000 439.0000,385.0000 439.0000,385.0000 C 437.0000,402.0000 425.0000,411.0000 409.0000,411.0000 Z "  fill="#FED100" stroke="none" />
<path d="M 209.0000,335.0000 C 194.0000,335.0000 194.0000,335.0000 194.0000,335.0000 C 194.0000,362.0000 194.0000,362.0000 194.0000,362.0000 C 209.0000,362.0000 209.0000,362.0000 209.0000,362.0000 C 219.0000,362.0000 227.0000,360.0000 227.0000,348.0000 C 227.0000,337.0000 219.0000,335.0000 209.0000,335.0000 Z "  fill="#FED100" stroke="none" />
</g>
</svg>
