<?xml version="1.0"  encoding="UTF-8" standalone="no"?>
<svg version="1.1" xmlns="http://www.w3.org/2000/svg" xmlns:xlink="http://www.w3.org/1999/xlink" width="1428.0000" height="1722.0000">
<g transform="translate(427.0000, 574.0000)">
<path d="M 792.0000,-365.0000 C 657.0000,-500.0000 478.0000,-574.0000 287.0000,-574.0000 C 96.0000,-574.0000 -83.0000,-500.0000 -218.0000,-365.0000 C -352.0000,-230.0000 -427.0000,-51.0000 -427.0000,140.0000 C -427.0000,331.0000 -352.0000,510.0000 -218.0000,645.0000 C -83.0000,779.0000 96.0000,854.0000 287.0000,854.0000 C 478.0000,854.0000 657.0000,779.0000 792.0000,645.0000 C 927.0000,510.0000 1001.0000,331.0000 1001.0000,140.0000 C 1001.0000,-51.0000 927.0000,-230.0000 792.0000,-365.0000 Z M -367.0000,140.0000 C -367.0000,-35.0000 -299.0000,-199.0000 -176.0000,-323.0000 C -52.0000,-447.0000 112.0000,-515.0000 287.0000,-515.0000 C 462.0000,-515.0000 626.0000,-447.0000 750.0000,-323.0000 C 874.0000,-199.0000 942.0000,-35.0000 942.0000,140.0000 C 942.0000,315.0000 874.0000,479.0000 750.0000,603.0000 C 626.0000,726.0000 462.0000,795.0000 287.0000,795.0000 C 112.0000,795.0000 -52.0000,726.0000 -176.0000,603.0000 C -299.0000,479.0000 -367.0000,315.0000 -367.0000,140.0000 Z "  fill="#0065A2" stroke="none" />
<path d="M 66.0000,1077.0000 C 66.0000,1084.0000 66.0000,1084.0000 66.0000,1084.0000 C 66.0000,1104.0000 72.0000,1116.0000 94.0000,1116.0000 C 108.0000,1116.0000 120.0000,1108.0000 120.0000,1090.0000 C 120.0000,1071.0000 111.0000,1063.0000 82.0000,1054.0000 C 44.0000,1041.0000 26.0000,1024.0000 26.0000,989.0000 C 26.0000,948.0000 51.0000,927.0000 92.0000,927.0000 C 130.0000,927.0000 158.0000,943.0000 158.0000,984.0000 C 158.0000,990.0000 158.0000,990.0000 158.0000,990.0000 C 117.0000,990.0000 117.0000,990.0000 117.0000,990.0000 C 117.0000,970.0000 110.0000,958.0000 94.0000,958.0000 C 74.0000,958.0000 69.0000,970.0000 69.0000,983.0000 C 69.0000,996.0000 73.0000,1004.0000 91.0000,1012.0000 C 124.0000,1026.0000 124.0000,1026.0000 124.0000,1026.0000 C 157.0000,1041.0000 165.0000,1056.0000 165.0000,1083.0000 C 165.0000,1128.0000 137.0000,1148.0000 91.0000,1148.0000 C 42.0000,1148.0000 23.0000,1125.0000 23.0000,1086.0000 C 23.0000,1077.0000 23.0000,1077.0000 23.0000,1077.0000 Z "  fill="#0065A2" stroke="none" />
<path d="M 174.0000,931.0000 L 215.0000,931.0000 L 239.0000,1088.0000 L 239.0000,1088.0000 L 264.0000,931.0000 L 305.0000,931.0000 L 330.0000,1088.0000 L 331.0000,1088.0000 L 355.0000,931.0000 L 396.0000,931.0000 L 357.0000,1144.0000 L 309.0000,1144.0000 L 285.0000,989.0000 L 284.0000,989.0000 L 261.0000,1144.0000 L 213.0000,1144.0000 L 174.0000,931.0000 Z "  fill="#0065A2" stroke-width="1px" stroke="#FFFFFF" />
<path d="M 508.0000,994.0000 C 508.0000,979.0000 501.0000,958.0000 483.0000,958.0000 C 463.0000,958.0000 454.0000,979.0000 454.0000,1033.0000 C 454.0000,1084.0000 459.0000,1116.0000 483.0000,1116.0000 C 494.0000,1116.0000 510.0000,1105.0000 510.0000,1082.0000 C 510.0000,1061.0000 510.0000,1061.0000 510.0000,1061.0000 C 482.0000,1061.0000 482.0000,1061.0000 482.0000,1061.0000 C 482.0000,1029.0000 482.0000,1029.0000 482.0000,1029.0000 C 551.0000,1029.0000 551.0000,1029.0000 551.0000,1029.0000 C 551.0000,1144.0000 551.0000,1144.0000 551.0000,1144.0000 C 519.0000,1144.0000 519.0000,1144.0000 519.0000,1144.0000 C 519.0000,1124.0000 519.0000,1124.0000 519.0000,1124.0000 C 519.0000,1124.0000 519.0000,1124.0000 519.0000,1124.0000 C 508.0000,1141.0000 494.0000,1148.0000 474.0000,1148.0000 C 421.0000,1148.0000 411.0000,1109.0000 411.0000,1035.0000 C 411.0000,963.0000 428.0000,927.0000 483.0000,927.0000 C 529.0000,927.0000 549.0000,951.0000 549.0000,994.0000 Z "  fill="#0065A2" stroke="none" />
<path d="M 255.0000,-224.0000 L -145.0000,-224.0000 L -145.0000,-4.0000 L 255.0000,-4.0000 L 255.0000,-224.0000 Z "  fill="#0065A2" stroke-width="1px" stroke="#FFFFFF" />
<path d="M 4.0000,41.0000 L -145.0000,41.0000 L -145.0000,260.0000 L 4.0000,260.0000 L 4.0000,41.0000 Z "  fill="#0065A2" stroke-width="1px" stroke="#FFFFFF" />
<path d="M 230.0000,303.0000 C -145.0000,303.0000 -145.0000,303.0000 -145.0000,303.0000 C -145.0000,523.0000 -145.0000,523.0000 -145.0000,523.0000 C 252.0000,523.0000 252.0000,523.0000 252.0000,523.0000 C 230.0000,482.0000 218.0000,436.0000 218.0000,386.0000 C 218.0000,357.0000 222.0000,329.0000 230.0000,303.0000 Z "  fill="#0065A2" stroke="none" />
<path d="M 495.0000,100.0000 C 583.0000,100.0000 661.0000,142.0000 711.0000,208.0000 C 711.0000,41.0000 711.0000,41.0000 711.0000,41.0000 C 55.0000,41.0000 55.0000,41.0000 55.0000,41.0000 C 55.0000,260.0000 55.0000,260.0000 55.0000,260.0000 C 246.0000,260.0000 246.0000,260.0000 246.0000,260.0000 C 291.0000,165.0000 385.0000,100.0000 495.0000,100.0000 Z "  fill="#0065A2" stroke="none" />
<path d="M 711.0000,-224.0000 L 311.0000,-224.0000 L 311.0000,-4.0000 L 711.0000,-4.0000 L 711.0000,-224.0000 Z "  fill="#0065A2" stroke-width="1px" stroke="#FFFFFF" />
<path d="M 606.0000,169.0000 C 606.0000,169.0000 606.0000,169.0000 606.0000,169.0000 C 573.0000,151.0000 535.0000,141.0000 495.0000,141.0000 C 442.0000,141.0000 393.0000,159.0000 353.0000,188.0000 C 353.0000,188.0000 353.0000,188.0000 353.0000,188.0000 C 324.0000,209.0000 299.0000,237.0000 282.0000,270.0000 C 282.0000,270.0000 282.0000,270.0000 282.0000,270.0000 C 280.0000,273.0000 279.0000,276.0000 277.0000,279.0000 C 277.0000,280.0000 277.0000,280.0000 277.0000,280.0000 C 262.0000,311.0000 254.0000,345.0000 254.0000,382.0000 C 254.0000,423.0000 265.0000,462.0000 283.0000,496.0000 C 283.0000,496.0000 283.0000,496.0000 283.0000,496.0000 C 287.0000,504.0000 293.0000,512.0000 298.0000,520.0000 C 298.0000,520.0000 298.0000,520.0000 298.0000,520.0000 C 298.0000,520.0000 298.0000,521.0000 298.0000,521.0000 C 298.0000,521.0000 298.0000,521.0000 298.0000,521.0000 C 338.0000,521.0000 338.0000,521.0000 338.0000,521.0000 C 327.0000,507.0000 316.0000,493.0000 308.0000,477.0000 C 315.0000,454.0000 324.0000,429.0000 336.0000,402.0000 C 341.0000,417.0000 347.0000,432.0000 355.0000,447.0000 C 369.0000,475.0000 388.0000,499.0000 408.0000,521.0000 C 416.0000,521.0000 416.0000,521.0000 416.0000,521.0000 C 436.0000,521.0000 436.0000,521.0000 436.0000,521.0000 C 412.0000,498.0000 389.0000,470.0000 372.0000,438.0000 C 362.0000,418.0000 354.0000,396.0000 349.0000,375.0000 C 358.0000,359.0000 368.0000,343.0000 380.0000,327.0000 C 384.0000,328.0000 389.0000,329.0000 394.0000,329.0000 C 406.0000,329.0000 417.0000,323.0000 423.0000,314.0000 C 454.0000,325.0000 485.0000,341.0000 511.0000,363.0000 C 538.0000,387.0000 561.0000,415.0000 579.0000,443.0000 C 572.0000,450.0000 568.0000,459.0000 568.0000,470.0000 C 568.0000,475.0000 569.0000,480.0000 571.0000,485.0000 C 567.0000,488.0000 562.0000,491.0000 558.0000,493.0000 C 540.0000,504.0000 522.0000,513.0000 504.0000,521.0000 C 534.0000,521.0000 534.0000,521.0000 534.0000,521.0000 C 549.0000,521.0000 549.0000,521.0000 549.0000,521.0000 C 555.0000,517.0000 561.0000,514.0000 568.0000,510.0000 C 573.0000,507.0000 578.0000,504.0000 583.0000,500.0000 C 590.0000,505.0000 598.0000,508.0000 606.0000,508.0000 C 609.0000,508.0000 612.0000,508.0000 615.0000,507.0000 C 617.0000,512.0000 619.0000,516.0000 621.0000,521.0000 C 643.0000,521.0000 643.0000,521.0000 643.0000,521.0000 C 640.0000,513.0000 636.0000,506.0000 633.0000,498.0000 C 640.0000,491.0000 645.0000,481.0000 645.0000,470.0000 C 645.0000,463.0000 643.0000,456.0000 639.0000,450.0000 C 662.0000,424.0000 680.0000,397.0000 693.0000,370.0000 C 697.0000,371.0000 700.0000,372.0000 704.0000,373.0000 C 704.0000,376.0000 704.0000,379.0000 704.0000,382.0000 C 704.0000,435.0000 684.0000,484.0000 651.0000,521.0000 C 691.0000,521.0000 691.0000,521.0000 691.0000,521.0000 C 719.0000,481.0000 735.0000,434.0000 735.0000,382.0000 C 735.0000,289.0000 683.0000,209.0000 606.0000,169.0000 Z M 549.0000,180.0000 C 545.0000,181.0000 541.0000,182.0000 537.0000,183.0000 C 534.0000,181.0000 529.0000,179.0000 525.0000,179.0000 C 524.0000,178.0000 524.0000,176.0000 524.0000,175.0000 C 532.0000,176.0000 540.0000,178.0000 549.0000,180.0000 Z M 344.0000,237.0000 C 382.0000,198.0000 436.0000,173.0000 495.0000,173.0000 C 497.0000,173.0000 500.0000,173.0000 503.0000,173.0000 C 504.0000,177.0000 504.0000,181.0000 505.0000,185.0000 C 501.0000,189.0000 497.0000,194.0000 496.0000,201.0000 C 468.0000,215.0000 439.0000,235.0000 410.0000,263.0000 C 405.0000,260.0000 400.0000,259.0000 394.0000,259.0000 C 381.0000,259.0000 369.0000,266.0000 363.0000,277.0000 C 355.0000,276.0000 348.0000,275.0000 341.0000,274.0000 C 341.0000,261.0000 342.0000,249.0000 344.0000,237.0000 Z M 321.0000,272.0000 C 320.0000,272.0000 318.0000,272.0000 317.0000,271.0000 C 319.0000,269.0000 320.0000,268.0000 321.0000,266.0000 C 321.0000,268.0000 321.0000,270.0000 321.0000,272.0000 Z M 296.0000,448.0000 C 289.0000,427.0000 286.0000,405.0000 286.0000,382.0000 C 286.0000,349.0000 293.0000,318.0000 307.0000,291.0000 C 311.0000,291.0000 315.0000,291.0000 320.0000,292.0000 C 320.0000,317.0000 322.0000,345.0000 328.0000,372.0000 C 314.0000,399.0000 304.0000,424.0000 296.0000,448.0000 Z M 344.0000,346.0000 C 341.0000,328.0000 340.0000,311.0000 340.0000,294.0000 C 346.0000,295.0000 352.0000,296.0000 359.0000,297.0000 C 359.0000,303.0000 361.0000,309.0000 365.0000,314.0000 C 357.0000,325.0000 350.0000,335.0000 344.0000,346.0000 Z M 625.0000,436.0000 C 619.0000,433.0000 613.0000,431.0000 606.0000,431.0000 C 603.0000,431.0000 599.0000,432.0000 596.0000,433.0000 C 577.0000,404.0000 553.0000,374.0000 524.0000,349.0000 C 495.0000,324.0000 462.0000,306.0000 429.0000,295.0000 C 429.0000,294.0000 429.0000,294.0000 429.0000,294.0000 C 429.0000,288.0000 427.0000,282.0000 424.0000,276.0000 C 450.0000,252.0000 475.0000,234.0000 500.0000,221.0000 C 505.0000,228.0000 513.0000,233.0000 522.0000,233.0000 C 522.0000,233.0000 523.0000,232.0000 523.0000,232.0000 C 533.0000,255.0000 548.0000,277.0000 569.0000,297.0000 C 602.0000,330.0000 640.0000,350.0000 674.0000,363.0000 C 661.0000,388.0000 645.0000,413.0000 625.0000,436.0000 Z M 683.0000,345.0000 C 651.0000,333.0000 613.0000,314.0000 582.0000,283.0000 C 564.0000,265.0000 551.0000,245.0000 541.0000,225.0000 C 546.0000,220.0000 549.0000,213.0000 549.0000,206.0000 C 549.0000,204.0000 549.0000,202.0000 549.0000,201.0000 C 561.0000,197.0000 572.0000,194.0000 583.0000,192.0000 C 636.0000,217.0000 677.0000,263.0000 694.0000,320.0000 C 691.0000,328.0000 687.0000,337.0000 683.0000,345.0000 Z "  fill="#0065A2" stroke="none" />
</g>
</svg>
