<?xml version="1.0"  encoding="UTF-8" standalone="no"?>
<svg version="1.1" xmlns="http://www.w3.org/2000/svg" xmlns:xlink="http://www.w3.org/1999/xlink" width="1073.0000" height="964.0000">
<g transform="translate(250.0000, 195.0000)">
<path d="M 245.0000,-195.0000 L -250.0000,-195.0000 L -250.0000,82.0000 L 245.0000,82.0000 L 245.0000,-195.0000 Z "  fill="#0065A2" stroke-width="1px" stroke="#FFFFFF" />
<path d="M 455.0000,-46.0000 C 452.0000,-57.0000 450.0000,-69.0000 450.0000,-81.0000 C 450.0000,-143.0000 500.0000,-193.0000 562.0000,-193.0000 C 624.0000,-193.0000 674.0000,-143.0000 674.0000,-81.0000 C 674.0000,-19.0000 624.0000,32.0000 562.0000,32.0000 C 546.0000,32.0000 531.0000,28.0000 518.0000,22.0000 C 518.0000,82.0000 518.0000,82.0000 518.0000,82.0000 C 587.0000,82.0000 587.0000,82.0000 587.0000,82.0000 C 703.0000,82.0000 703.0000,82.0000 703.0000,82.0000 C 817.0000,82.0000 817.0000,82.0000 817.0000,82.0000 C 820.0000,82.0000 820.0000,82.0000 820.0000,82.0000 C 820.0000,-195.0000 820.0000,-195.0000 820.0000,-195.0000 C 817.0000,-195.0000 817.0000,-195.0000 817.0000,-195.0000 C 326.0000,-195.0000 326.0000,-195.0000 326.0000,-195.0000 C 323.0000,-195.0000 323.0000,-195.0000 323.0000,-195.0000 C 323.0000,-43.0000 323.0000,-43.0000 323.0000,-43.0000 C 328.0000,-45.0000 333.0000,-46.0000 339.0000,-46.0000 Z "  fill="#0065A2" stroke="none" />
<path d="M -59.0000,149.0000 L -250.0000,149.0000 L -250.0000,425.0000 L -59.0000,425.0000 L -59.0000,149.0000 Z "  fill="#0065A2" stroke-width="1px" stroke="#FFFFFF" />
<path d="M -250.0000,769.0000 L 245.0000,769.0000 L 245.0000,492.0000 L -250.0000,492.0000 L -250.0000,769.0000 Z "  fill="#0065A2" stroke-width="1px" stroke="#FFFFFF" />
<path d="M 553.0000,543.0000 C 615.0000,543.0000 666.0000,594.0000 666.0000,656.0000 C 666.0000,718.0000 615.0000,768.0000 553.0000,768.0000 C 491.0000,768.0000 441.0000,718.0000 441.0000,656.0000 C 441.0000,643.0000 443.0000,631.0000 447.0000,619.0000 C 339.0000,619.0000 339.0000,619.0000 339.0000,619.0000 C 333.0000,619.0000 328.0000,618.0000 323.0000,616.0000 C 323.0000,769.0000 323.0000,769.0000 323.0000,769.0000 C 326.0000,769.0000 326.0000,769.0000 326.0000,769.0000 C 539.0000,769.0000 539.0000,769.0000 539.0000,769.0000 C 817.0000,769.0000 817.0000,769.0000 817.0000,769.0000 C 817.0000,492.0000 817.0000,492.0000 817.0000,492.0000 C 518.0000,492.0000 518.0000,492.0000 518.0000,492.0000 C 518.0000,549.0000 518.0000,549.0000 518.0000,549.0000 C 529.0000,545.0000 541.0000,543.0000 553.0000,543.0000 Z "  fill="#0065A2" stroke="none" />
<path d="M 123.0000,169.0000 C 143.0000,169.0000 162.0000,174.0000 178.0000,184.0000 C 214.0000,149.0000 214.0000,149.0000 214.0000,149.0000 C 18.0000,149.0000 18.0000,149.0000 18.0000,149.0000 C 18.0000,241.0000 18.0000,241.0000 18.0000,241.0000 C 34.0000,199.0000 75.0000,169.0000 123.0000,169.0000 Z "  fill="#0065A2" stroke="none" />
<path d="M 823.0000,331.0000 C 804.0000,366.0000 767.0000,390.0000 724.0000,390.0000 C 680.0000,390.0000 642.0000,364.0000 624.0000,327.0000 C 535.0000,410.0000 535.0000,410.0000 535.0000,410.0000 C 528.0000,416.0000 519.0000,420.0000 510.0000,421.0000 C 512.0000,423.0000 513.0000,426.0000 514.0000,429.0000 C 823.0000,429.0000 823.0000,429.0000 823.0000,429.0000 Z "  fill="#0065A2" stroke="none" />
<path d="M 123.0000,393.0000 C 75.0000,393.0000 34.0000,363.0000 18.0000,321.0000 C 18.0000,425.0000 18.0000,425.0000 18.0000,425.0000 C 20.0000,425.0000 20.0000,425.0000 20.0000,425.0000 C 20.0000,429.0000 20.0000,429.0000 20.0000,429.0000 C 218.0000,429.0000 218.0000,429.0000 218.0000,429.0000 C 171.0000,382.0000 171.0000,382.0000 171.0000,382.0000 C 156.0000,389.0000 140.0000,393.0000 123.0000,393.0000 Z "  fill="#0065A2" stroke="none" />
<path d="M 535.0000,163.0000 C 618.0000,241.0000 618.0000,241.0000 618.0000,241.0000 C 634.0000,197.0000 675.0000,165.0000 724.0000,165.0000 C 767.0000,165.0000 804.0000,189.0000 823.0000,224.0000 C 823.0000,152.0000 823.0000,152.0000 823.0000,152.0000 C 820.0000,152.0000 820.0000,152.0000 820.0000,152.0000 C 820.0000,149.0000 820.0000,149.0000 820.0000,149.0000 C 512.0000,149.0000 512.0000,149.0000 512.0000,149.0000 C 512.0000,150.0000 511.0000,151.0000 510.0000,152.0000 C 519.0000,153.0000 528.0000,157.0000 535.0000,163.0000 Z "  fill="#0065A2" stroke="none" />
<path d="M 562.0000,-12.0000 C 600.0000,-12.0000 631.0000,-43.0000 631.0000,-81.0000 C 631.0000,-119.0000 600.0000,-150.0000 562.0000,-150.0000 C 524.0000,-150.0000 493.0000,-119.0000 493.0000,-81.0000 C 493.0000,-43.0000 524.0000,-12.0000 562.0000,-12.0000 Z "  fill="#0065A2" stroke="none" />
<path d="M 724.0000,347.0000 C 762.0000,347.0000 793.0000,316.0000 793.0000,278.0000 C 793.0000,239.0000 762.0000,208.0000 724.0000,208.0000 C 686.0000,208.0000 655.0000,239.0000 655.0000,278.0000 C 655.0000,316.0000 686.0000,347.0000 724.0000,347.0000 Z "  fill="#0065A2" stroke="none" />
<path d="M 502.0000,610.0000 C 491.0000,622.0000 484.0000,638.0000 484.0000,656.0000 C 484.0000,694.0000 515.0000,725.0000 553.0000,725.0000 C 592.0000,725.0000 623.0000,694.0000 623.0000,656.0000 C 623.0000,617.0000 592.0000,586.0000 553.0000,586.0000 C 536.0000,586.0000 520.0000,593.0000 508.0000,603.0000 C 506.0000,606.0000 504.0000,608.0000 502.0000,610.0000 Z "  fill="#0065A2" stroke="none" />
<path d="M 505.0000,317.0000 C 505.0000,378.0000 505.0000,378.0000 505.0000,378.0000 C 506.0000,378.0000 506.0000,378.0000 506.0000,378.0000 C 604.0000,286.0000 604.0000,286.0000 604.0000,286.0000 C 604.0000,286.0000 604.0000,286.0000 604.0000,286.0000 C 604.0000,286.0000 604.0000,286.0000 604.0000,286.0000 C 604.0000,286.0000 604.0000,286.0000 604.0000,286.0000 C 604.0000,286.0000 604.0000,286.0000 604.0000,286.0000 C 506.0000,195.0000 506.0000,195.0000 506.0000,195.0000 C 505.0000,195.0000 505.0000,195.0000 505.0000,195.0000 C 505.0000,256.0000 505.0000,256.0000 505.0000,256.0000 C 258.0000,256.0000 258.0000,256.0000 258.0000,256.0000 C 431.0000,83.0000 431.0000,83.0000 431.0000,83.0000 C 453.0000,105.0000 453.0000,105.0000 453.0000,105.0000 C 475.0000,128.0000 475.0000,128.0000 475.0000,128.0000 C 475.0000,-3.0000 475.0000,-3.0000 475.0000,-3.0000 C 339.0000,-3.0000 339.0000,-3.0000 339.0000,-3.0000 C 385.0000,39.0000 385.0000,39.0000 385.0000,39.0000 C 211.0000,212.0000 211.0000,212.0000 211.0000,212.0000 C 226.0000,231.0000 235.0000,255.0000 235.0000,281.0000 C 235.0000,310.0000 224.0000,336.0000 206.0000,356.0000 C 385.0000,534.0000 385.0000,534.0000 385.0000,534.0000 C 339.0000,576.0000 339.0000,576.0000 339.0000,576.0000 C 475.0000,576.0000 475.0000,576.0000 475.0000,576.0000 C 475.0000,445.0000 475.0000,445.0000 475.0000,445.0000 C 453.0000,468.0000 453.0000,468.0000 453.0000,468.0000 C 431.0000,490.0000 431.0000,490.0000 431.0000,490.0000 C 258.0000,317.0000 258.0000,317.0000 258.0000,317.0000 Z "  fill="#0065A2" stroke="none" />
<path d="M 123.0000,212.0000 C 84.0000,212.0000 53.0000,243.0000 53.0000,281.0000 C 53.0000,319.0000 84.0000,350.0000 123.0000,350.0000 C 161.0000,350.0000 192.0000,319.0000 192.0000,281.0000 C 192.0000,243.0000 161.0000,212.0000 123.0000,212.0000 Z "  fill="#0065A2" stroke="none" />
</g>
</svg>
