<?xml version="1.0" encoding="UTF-8" standalone="no"?>
<svg
   xmlns:dc="http://purl.org/dc/elements/1.1/"
   xmlns:cc="http://creativecommons.org/ns#"
   xmlns:rdf="http://www.w3.org/1999/02/22-rdf-syntax-ns#"
   xmlns:svg="http://www.w3.org/2000/svg"
   xmlns="http://www.w3.org/2000/svg"
   xmlns:sodipodi="http://sodipodi.sourceforge.net/DTD/sodipodi-0.dtd"
   xmlns:inkscape="http://www.inkscape.org/namespaces/inkscape"
   version="1.1"
   width="395.0000"
   height="440.0000"
   id="svg94"
   sodipodi:docname="vm01.svg"
   inkscape:version="0.92.3 (2405546, 2018-03-11)">
  <metadata
     id="metadata100">
    <rdf:RDF>
      <cc:Work
         rdf:about="">
        <dc:format>image/svg+xml</dc:format>
        <dc:type
           rdf:resource="http://purl.org/dc/dcmitype/StillImage" />
        <dc:title></dc:title>
      </cc:Work>
    </rdf:RDF>
  </metadata>
  <defs
     id="defs98" />
  <sodipodi:namedview
     pagecolor="#0065A2"
     bordercolor="#666666"
     borderopacity="1"
     objecttolerance="10"
     gridtolerance="10"
     guidetolerance="10"
     inkscape:pageopacity="0"
     inkscape:pageshadow="2"
     inkscape:window-width="1551"
     inkscape:window-height="836"
     id="namedview96"
     showgrid="false"
     inkscape:pagecheckerboard="true"
     inkscape:zoom="0.53636364"
     inkscape:cx="201.22881"
     inkscape:cy="220"
     inkscape:window-x="49"
     inkscape:window-y="27"
     inkscape:window-maximized="1"
     inkscape:current-layer="svg94" />
  <g
     transform="translate(-89.0000, -67.0000)"
     id="g92"
     style="fill:#0065A2">
    <path
       d="M 247.0000,269.0000 L 252.0000,258.0000 L 280.0000,274.0000 L 274.0000,284.0000 L 247.0000,269.0000 Z "
       fill="#425353"
       stroke-width="1px"
       stroke="#425353"
       id="path2"
       style="fill:#0065A2" />
    <path
       d="M 210.0000,247.0000 L 216.0000,237.0000 L 243.0000,252.0000 L 237.0000,263.0000 L 210.0000,247.0000 Z "
       fill="#425353"
       stroke-width="1px"
       stroke="#425353"
       id="path4"
       style="fill:#0065A2" />
    <path
       d="M 90.0000,179.0000 L 90.0000,209.0000 L 102.0000,209.0000 L 102.0000,186.0000 L 125.0000,199.0000 L 130.0000,189.0000 L 103.0000,174.0000 L 102.0000,178.0000 L 100.0000,178.0000 L 98.0000,174.0000 L 91.0000,178.0000 L 90.0000,178.0000 L 90.0000,179.0000 L 89.0000,179.0000 L 90.0000,179.0000 Z "
       fill="#425353"
       stroke-width="1px"
       stroke="#425353"
       id="path6"
       style="fill:#0065A2" />
    <path
       d="M 108.0000,168.0000 L 135.0000,153.0000 L 141.0000,163.0000 L 114.0000,179.0000 L 108.0000,168.0000 Z "
       fill="#425353"
       stroke-width="1px"
       stroke="#425353"
       id="path8"
       style="fill:#0065A2" />
    <path
       d="M 219.0000,103.0000 L 246.0000,88.0000 L 252.0000,98.0000 L 225.0000,114.0000 L 219.0000,103.0000 Z "
       fill="#425353"
       stroke-width="1px"
       stroke="#425353"
       id="path10"
       style="fill:#0065A2" />
    <path
       d="M 135.0000,205.0000 L 141.0000,195.0000 L 168.0000,210.0000 L 162.0000,220.0000 L 135.0000,205.0000 Z "
       fill="#425353"
       stroke-width="1px"
       stroke="#425353"
       id="path12"
       style="fill:#0065A2" />
    <path
       d="M 182.0000,125.0000 L 209.0000,109.0000 L 215.0000,120.0000 L 188.0000,135.0000 L 182.0000,125.0000 Z "
       fill="#425353"
       stroke-width="1px"
       stroke="#425353"
       id="path14"
       style="fill:#0065A2" />
    <path
       d="M 146.0000,146.0000 L 173.0000,131.0000 L 179.0000,141.0000 L 152.0000,157.0000 L 146.0000,146.0000 Z "
       fill="#425353"
       stroke-width="1px"
       stroke="#425353"
       id="path16"
       style="fill:#0065A2" />
    <path
       d="M 172.0000,226.0000 L 178.0000,216.0000 L 205.0000,231.0000 L 199.0000,242.0000 L 172.0000,226.0000 Z "
       fill="#425353"
       stroke-width="1px"
       stroke="#425353"
       id="path18"
       style="fill:#0065A2" />
    <path
       d="M 395.0000,214.0000 L 422.0000,199.0000 L 428.0000,209.0000 L 401.0000,225.0000 L 395.0000,214.0000 Z "
       fill="#425353"
       stroke-width="1px"
       stroke="#425353"
       id="path20"
       style="fill:#0065A2" />
    <path
       d="M 257.0000,82.0000 L 284.0000,67.0000 L 290.0000,77.0000 L 263.0000,93.0000 L 257.0000,82.0000 Z "
       fill="#425353"
       stroke-width="1px"
       stroke="#425353"
       id="path22"
       style="fill:#0065A2" />
    <path
       d="M 368.0000,125.0000 L 374.0000,114.0000 L 401.0000,130.0000 L 395.0000,140.0000 L 368.0000,125.0000 Z "
       fill="#425353"
       stroke-width="1px"
       stroke="#425353"
       id="path24"
       style="fill:#0065A2" />
    <path
       d="M 406.0000,146.0000 L 412.0000,135.0000 L 439.0000,151.0000 L 433.0000,161.0000 L 406.0000,146.0000 Z "
       fill="#425353"
       stroke-width="1px"
       stroke="#425353"
       id="path26"
       style="fill:#0065A2" />
    <path
       d="M 358.0000,236.0000 L 385.0000,220.0000 L 391.0000,231.0000 L 364.0000,246.0000 L 358.0000,236.0000 Z "
       fill="#425353"
       stroke-width="1px"
       stroke="#425353"
       id="path28"
       style="fill:#0065A2" />
    <path
       d="M 294.0000,83.0000 L 300.0000,72.0000 L 327.0000,88.0000 L 321.0000,98.0000 L 294.0000,83.0000 Z "
       fill="#425353"
       stroke-width="1px"
       stroke="#425353"
       id="path30"
       style="fill:#0065A2" />
    <path
       d="M 331.0000,104.0000 L 337.0000,93.0000 L 364.0000,108.0000 L 358.0000,119.0000 L 331.0000,104.0000 Z "
       fill="#425353"
       stroke-width="1px"
       stroke="#425353"
       id="path32"
       style="fill:#0065A2" />
    <path
       d="M 321.0000,258.0000 L 348.0000,242.0000 L 354.0000,253.0000 L 327.0000,268.0000 L 321.0000,258.0000 Z "
       fill="#425353"
       stroke-width="1px"
       stroke="#425353"
       id="path34"
       style="fill:#0065A2" />
    <path
       d="M 432.0000,194.0000 L 459.0000,178.0000 L 465.0000,188.0000 L 438.0000,204.0000 L 432.0000,194.0000 Z "
       fill="#425353"
       stroke-width="1px"
       stroke="#425353"
       id="path36"
       style="fill:#0065A2" />
    <path
       d="M 484.0000,177.0000 L 449.0000,156.0000 L 442.0000,167.0000 L 470.0000,182.0000 L 472.0000,178.0000 L 472.0000,187.0000 L 484.0000,187.0000 L 484.0000,177.0000 Z "
       fill="#425353"
       stroke-width="1px"
       stroke="#425353"
       id="path38"
       style="fill:#0065A2" />
    <path
       d="M 390.0000,434.0000 L 418.0000,419.0000 L 423.0000,429.0000 L 396.0000,445.0000 L 390.0000,434.0000 Z "
       fill="#425353"
       stroke-width="1px"
       stroke="#425353"
       id="path40"
       style="fill:#0065A2" />
    <path
       d="M 428.0000,413.0000 L 455.0000,397.0000 L 461.0000,408.0000 L 434.0000,423.0000 L 428.0000,413.0000 Z "
       fill="#425353"
       stroke-width="1px"
       stroke="#425353"
       id="path42"
       style="fill:#0065A2" />
    <path
       d="M 92.0000,397.0000 L 98.0000,386.0000 L 125.0000,402.0000 L 119.0000,412.0000 L 92.0000,397.0000 Z "
       fill="#425353"
       stroke-width="1px"
       stroke="#425353"
       id="path44"
       style="fill:#0065A2" />
    <path
       d="M 316.0000,476.0000 L 343.0000,461.0000 L 349.0000,471.0000 L 322.0000,486.0000 L 316.0000,476.0000 Z "
       fill="#425353"
       stroke-width="1px"
       stroke="#425353"
       id="path46"
       style="fill:#0065A2" />
    <path
       d="M 470.0000,389.0000 L 465.0000,392.0000 L 471.0000,403.0000 L 482.0000,396.0000 L 482.0000,371.0000 L 470.0000,371.0000 L 470.0000,389.0000 Z "
       fill="#425353"
       stroke-width="1px"
       stroke="#425353"
       id="path48"
       style="fill:#0065A2" />
    <path
       d="M 471.0000,316.0000 L 471.0000,285.0000 L 483.0000,285.0000 L 483.0000,316.0000 L 471.0000,316.0000 Z "
       fill="#425353"
       stroke-width="1px"
       stroke="#425353"
       id="path50"
       style="fill:#0065A2" />
    <path
       d="M 471.0000,273.0000 L 472.0000,242.0000 L 484.0000,242.0000 L 483.0000,273.0000 L 471.0000,273.0000 Z "
       fill="#425353"
       stroke-width="1px"
       stroke="#425353"
       id="path52"
       style="fill:#0065A2" />
    <path
       d="M 471.0000,231.0000 L 472.0000,200.0000 L 484.0000,200.0000 L 483.0000,231.0000 L 471.0000,231.0000 Z "
       fill="#425353"
       stroke-width="1px"
       stroke="#425353"
       id="path54"
       style="fill:#0065A2" />
    <path
       d="M 471.0000,359.0000 L 471.0000,328.0000 L 483.0000,328.0000 L 483.0000,359.0000 L 471.0000,359.0000 Z "
       fill="#425353"
       stroke-width="1px"
       stroke="#425353"
       id="path56"
       style="fill:#0065A2" />
    <path
       d="M 353.0000,455.0000 L 381.0000,440.0000 L 387.0000,450.0000 L 359.0000,465.0000 L 353.0000,455.0000 Z "
       fill="#425353"
       stroke-width="1px"
       stroke="#425353"
       id="path58"
       style="fill:#0065A2" />
    <path
       d="M 90.0000,263.0000 L 102.0000,263.0000 L 102.0000,295.0000 L 90.0000,295.0000 L 90.0000,263.0000 Z "
       fill="#425353"
       stroke-width="1px"
       stroke="#425353"
       id="path60"
       style="fill:#0065A2" />
    <path
       d="M 90.0000,349.0000 L 102.0000,349.0000 L 102.0000,380.0000 L 90.0000,380.0000 L 90.0000,349.0000 Z "
       fill="#425353"
       stroke-width="1px"
       stroke="#425353"
       id="path62"
       style="fill:#0065A2" />
    <path
       d="M 90.0000,306.0000 L 102.0000,306.0000 L 102.0000,337.0000 L 90.0000,337.0000 L 90.0000,306.0000 Z "
       fill="#425353"
       stroke-width="1px"
       stroke="#425353"
       id="path64"
       style="fill:#0065A2" />
    <path
       d="M 130.0000,418.0000 L 136.0000,408.0000 L 163.0000,423.0000 L 157.0000,434.0000 L 130.0000,418.0000 Z "
       fill="#425353"
       stroke-width="1px"
       stroke="#425353"
       id="path66"
       style="fill:#0065A2" />
    <path
       d="M 204.0000,461.0000 L 210.0000,450.0000 L 237.0000,466.0000 L 231.0000,476.0000 L 204.0000,461.0000 Z "
       fill="#425353"
       stroke-width="1px"
       stroke="#425353"
       id="path68"
       style="fill:#0065A2" />
    <path
       d="M 241.0000,481.0000 L 247.0000,471.0000 L 274.0000,486.0000 L 268.0000,497.0000 L 241.0000,481.0000 Z "
       fill="#425353"
       stroke-width="1px"
       stroke="#425353"
       id="path70"
       style="fill:#0065A2" />
    <path
       d="M 286.0000,493.0000 L 285.0000,492.0000 L 283.0000,495.0000 L 283.0000,495.0000 L 283.0000,495.0000 L 278.0000,503.0000 L 286.0000,507.0000 L 311.0000,492.0000 L 306.0000,482.0000 L 286.0000,493.0000 Z "
       fill="#425353"
       stroke-width="1px"
       stroke="#425353"
       id="path72"
       style="fill:#0065A2" />
    <path
       d="M 90.0000,220.0000 L 102.0000,220.0000 L 102.0000,251.0000 L 90.0000,251.0000 L 90.0000,220.0000 Z "
       fill="#425353"
       stroke-width="1px"
       stroke="#425353"
       id="path74"
       style="fill:#0065A2" />
    <path
       d="M 167.0000,439.0000 L 173.0000,428.0000 L 200.0000,444.0000 L 194.0000,454.0000 L 167.0000,439.0000 Z "
       fill="#425353"
       stroke-width="1px"
       stroke="#425353"
       id="path76"
       style="fill:#0065A2" />
    <path
       d="M 280.0000,371.0000 L 292.0000,371.0000 L 292.0000,403.0000 L 280.0000,403.0000 L 280.0000,371.0000 Z "
       fill="#425353"
       stroke-width="1px"
       stroke="#425353"
       id="path78"
       style="fill:#0065A2" />
    <path
       d="M 280.0000,457.0000 L 292.0000,457.0000 L 292.0000,488.0000 L 280.0000,488.0000 L 280.0000,457.0000 Z "
       fill="#425353"
       stroke-width="1px"
       stroke="#425353"
       id="path80"
       style="fill:#0065A2" />
    <path
       d="M 280.0000,329.0000 L 292.0000,329.0000 L 292.0000,360.0000 L 280.0000,360.0000 L 280.0000,329.0000 Z "
       fill="#425353"
       stroke-width="1px"
       stroke="#425353"
       id="path82"
       style="fill:#0065A2" />
    <path
       d="M 291.0000,288.0000 L 317.0000,274.0000 L 310.0000,263.0000 L 284.0000,279.0000 L 288.0000,286.0000 L 280.0000,286.0000 L 280.0000,317.0000 L 291.0000,317.0000 L 291.0000,288.0000 Z "
       fill="#425353"
       stroke-width="1px"
       stroke="#425353"
       id="path84"
       style="fill:#0065A2" />
    <path
       d="M 280.0000,415.0000 L 292.0000,415.0000 L 292.0000,446.0000 L 280.0000,446.0000 L 280.0000,415.0000 Z "
       fill="#425353"
       stroke-width="1px"
       stroke="#425353"
       id="path86"
       style="fill:#0065A2" />
    <path
       d="M 170.0000,296.0000 L 159.0000,331.0000 L 159.0000,331.0000 L 148.0000,283.0000 L 138.0000,277.0000 L 153.0000,346.0000 L 165.0000,353.0000 L 181.0000,303.0000 L 170.0000,296.0000 Z "
       fill="#425353"
       stroke-width="1px"
       stroke="#425353"
       id="path88"
       style="fill:#0065A2" />
    <path
       d="M 236.0000,395.0000 L 236.0000,335.0000 L 221.0000,327.0000 L 210.0000,361.0000 L 210.0000,361.0000 L 199.0000,314.0000 L 185.0000,305.0000 L 185.0000,364.0000 L 194.0000,371.0000 L 194.0000,328.0000 L 194.0000,328.0000 L 206.0000,377.0000 L 214.0000,382.0000 L 226.0000,347.0000 L 226.0000,347.0000 L 226.0000,389.0000 L 236.0000,395.0000 Z "
       fill="#425353"
       stroke-width="1px"
       stroke="#425353"
       id="path90"
       style="fill:#0065A2" />
  </g>
</svg>
