<?xml version="1.0"  encoding="UTF-8" standalone="no"?>
<svg version="1.1" xmlns="http://www.w3.org/2000/svg" xmlns:xlink="http://www.w3.org/1999/xlink" width="646.0000" height="337.0000">
<g transform="translate(36.0000, 456.0000)">
<path d="M 440.0000,-277.0000 L 522.0000,-277.0000 L 522.0000,-312.0000 L 610.0000,-244.0000 L 522.0000,-176.0000 L 522.0000,-211.0000 L 440.0000,-211.0000 L 440.0000,-277.0000 L 440.0000,-277.0000 Z "  fill="#0065A2" stroke-width="1px" stroke="#FFFFFF" />
<path d="M 134.0000,-277.0000 L 52.0000,-277.0000 L 52.0000,-312.0000 L -36.0000,-244.0000 L 52.0000,-176.0000 L 52.0000,-211.0000 L 134.0000,-211.0000 L 134.0000,-277.0000 L 134.0000,-277.0000 Z "  fill="#0065A2" stroke-width="1px" stroke="#FFFFFF" />
<path d="M 380.0000,-342.0000 C 194.0000,-342.0000 194.0000,-342.0000 194.0000,-342.0000 C 172.0000,-342.0000 155.0000,-327.0000 155.0000,-309.0000 C 155.0000,-152.0000 155.0000,-152.0000 155.0000,-152.0000 C 155.0000,-134.0000 172.0000,-119.0000 194.0000,-119.0000 C 380.0000,-119.0000 380.0000,-119.0000 380.0000,-119.0000 C 402.0000,-119.0000 419.0000,-134.0000 419.0000,-152.0000 C 419.0000,-309.0000 419.0000,-309.0000 419.0000,-309.0000 C 419.0000,-327.0000 402.0000,-342.0000 380.0000,-342.0000 Z "  fill="#0065A2" stroke="none" />
<path d="M 207.0000,-367.0000 C 207.0000,-403.0000 236.0000,-432.0000 272.0000,-432.0000 C 302.0000,-432.0000 302.0000,-432.0000 302.0000,-432.0000 C 338.0000,-432.0000 367.0000,-403.0000 367.0000,-367.0000 C 367.0000,-316.0000 367.0000,-316.0000 367.0000,-316.0000 C 367.0000,-281.0000 338.0000,-251.0000 302.0000,-251.0000 C 272.0000,-251.0000 272.0000,-251.0000 272.0000,-251.0000 C 236.0000,-251.0000 207.0000,-281.0000 207.0000,-316.0000 Z " stroke="#0065A2" stroke-width="49.0000"  stroke-linecap="butt"  stroke-linejoin="miter"  stroke-miterlimit="4.0000" fill="none" />
</g>
</svg>
