<?xml version="1.0"  encoding="UTF-8" standalone="no"?>
<svg version="1.1" xmlns="http://www.w3.org/2000/svg" xmlns:xlink="http://www.w3.org/1999/xlink" width="748.0000" height="681.0000">
<g transform="translate(87.0000, 53.0000)">
<path d="M 259.0000,-53.0000 L -87.0000,-53.0000 L -87.0000,137.0000 L 259.0000,137.0000 L 259.0000,-53.0000 Z "  fill="#FFAA00" stroke-width="1px" stroke="#FFFFFF" />
<path d="M 42.0000,175.0000 L -87.0000,175.0000 L -87.0000,366.0000 L 42.0000,366.0000 L 42.0000,175.0000 Z "  fill="#FFAA00" stroke-width="1px" stroke="#FFFFFF" />
<path d="M -87.0000,593.0000 L 260.0000,593.0000 L 260.0000,403.0000 L -87.0000,403.0000 L -87.0000,593.0000 Z "  fill="#FFAA00" stroke-width="1px" stroke="#FFFFFF" />
<path d="M 481.0000,176.0000 C 481.0000,176.0000 481.0000,176.0000 481.0000,175.0000 C 481.0000,175.0000 481.0000,175.0000 481.0000,175.0000 C 481.0000,176.0000 481.0000,176.0000 481.0000,176.0000 Z "  fill="#FFAA00" stroke="none" />
<path d="M 279.0000,175.0000 C 86.0000,175.0000 86.0000,175.0000 86.0000,175.0000 C 86.0000,366.0000 86.0000,366.0000 86.0000,366.0000 C 274.0000,366.0000 274.0000,366.0000 274.0000,366.0000 C 262.0000,337.0000 256.0000,307.0000 256.0000,276.0000 C 256.0000,241.0000 264.0000,206.0000 279.0000,175.0000 Z "  fill="#FFAA00" stroke="none" />
<path d="M 337.0000,100.0000 C 349.0000,90.0000 362.0000,85.0000 377.0000,85.0000 C 402.0000,85.0000 425.0000,101.0000 434.0000,125.0000 C 434.0000,127.0000 435.0000,129.0000 435.0000,132.0000 C 441.0000,133.0000 446.0000,134.0000 451.0000,137.0000 C 511.0000,137.0000 511.0000,137.0000 511.0000,137.0000 C 516.0000,134.0000 521.0000,133.0000 526.0000,132.0000 C 527.0000,129.0000 528.0000,127.0000 528.0000,125.0000 C 537.0000,101.0000 560.0000,85.0000 585.0000,85.0000 C 599.0000,85.0000 613.0000,90.0000 624.0000,100.0000 C 635.0000,109.0000 644.0000,118.0000 653.0000,129.0000 C 653.0000,-53.0000 653.0000,-53.0000 653.0000,-53.0000 C 307.0000,-53.0000 307.0000,-53.0000 307.0000,-53.0000 C 307.0000,131.0000 307.0000,131.0000 307.0000,131.0000 C 316.0000,120.0000 326.0000,109.0000 337.0000,100.0000 Z "  fill="#FFAA00" stroke="none" />
<path d="M 481.0000,322.0000 C 507.0000,322.0000 527.0000,301.0000 527.0000,276.0000 C 527.0000,250.0000 507.0000,229.0000 481.0000,229.0000 C 455.0000,229.0000 434.0000,250.0000 434.0000,276.0000 C 434.0000,301.0000 455.0000,322.0000 481.0000,322.0000 Z "  fill="#FFAA00" stroke="none" />
<path d="M 630.0000,276.0000 C 630.0000,323.0000 609.0000,366.0000 576.0000,394.0000 C 560.0000,408.0000 580.0000,431.0000 596.0000,418.0000 C 636.0000,383.0000 661.0000,333.0000 661.0000,276.0000 C 661.0000,219.0000 635.0000,168.0000 595.0000,134.0000 C 580.0000,121.0000 560.0000,144.0000 575.0000,157.0000 C 609.0000,186.0000 630.0000,228.0000 630.0000,276.0000 Z "  fill="#FFAA00" stroke="none" />
<path d="M 366.0000,418.0000 C 382.0000,431.0000 402.0000,408.0000 386.0000,394.0000 C 353.0000,366.0000 332.0000,323.0000 332.0000,276.0000 C 332.0000,228.0000 353.0000,186.0000 387.0000,157.0000 C 402.0000,144.0000 382.0000,121.0000 367.0000,134.0000 C 326.0000,168.0000 301.0000,219.0000 301.0000,276.0000 C 301.0000,333.0000 326.0000,383.0000 366.0000,418.0000 Z "  fill="#FFAA00" stroke="none" />
<path d="M 566.0000,276.0000 C 566.0000,308.0000 552.0000,337.0000 529.0000,357.0000 C 518.0000,366.0000 532.0000,382.0000 542.0000,373.0000 C 570.0000,350.0000 587.0000,315.0000 587.0000,276.0000 C 587.0000,237.0000 570.0000,202.0000 542.0000,179.0000 C 532.0000,169.0000 518.0000,186.0000 529.0000,195.0000 C 552.0000,214.0000 566.0000,243.0000 566.0000,276.0000 Z "  fill="#FFAA00" stroke="none" />
<path d="M 419.0000,373.0000 C 430.0000,382.0000 444.0000,366.0000 433.0000,357.0000 C 410.0000,337.0000 396.0000,308.0000 396.0000,276.0000 C 396.0000,243.0000 410.0000,214.0000 433.0000,195.0000 C 444.0000,186.0000 430.0000,169.0000 420.0000,179.0000 C 392.0000,202.0000 375.0000,237.0000 375.0000,276.0000 C 375.0000,315.0000 392.0000,350.0000 419.0000,373.0000 Z "  fill="#FFAA00" stroke="none" />
<path d="M 616.0000,475.0000 C 403.0000,475.0000 403.0000,475.0000 403.0000,475.0000 C 415.0000,426.0000 415.0000,426.0000 415.0000,426.0000 C 415.0000,426.0000 415.0000,426.0000 415.0000,426.0000 C 415.0000,424.0000 414.0000,424.0000 412.0000,424.0000 C 411.0000,424.0000 411.0000,424.0000 410.0000,424.0000 C 335.0000,496.0000 335.0000,496.0000 335.0000,496.0000 C 332.0000,498.0000 334.0000,500.0000 336.0000,500.0000 C 555.0000,500.0000 555.0000,500.0000 555.0000,500.0000 C 555.0000,500.0000 555.0000,500.0000 556.0000,500.0000 C 616.0000,500.0000 616.0000,500.0000 616.0000,500.0000 C 623.0000,500.0000 629.0000,494.0000 629.0000,487.0000 C 629.0000,480.0000 623.0000,475.0000 616.0000,475.0000 Z "  fill="#FFAA00" stroke="none" />
<path d="M 626.0000,551.0000 C 407.0000,551.0000 407.0000,551.0000 407.0000,551.0000 C 407.0000,551.0000 406.0000,551.0000 406.0000,551.0000 C 345.0000,551.0000 345.0000,551.0000 345.0000,551.0000 C 339.0000,551.0000 333.0000,557.0000 333.0000,564.0000 C 333.0000,571.0000 339.0000,577.0000 345.0000,577.0000 C 559.0000,577.0000 559.0000,577.0000 559.0000,577.0000 C 546.0000,625.0000 546.0000,625.0000 546.0000,625.0000 C 546.0000,625.0000 546.0000,626.0000 546.0000,626.0000 C 546.0000,627.0000 548.0000,628.0000 549.0000,628.0000 C 550.0000,628.0000 551.0000,628.0000 552.0000,627.0000 C 627.0000,555.0000 627.0000,555.0000 627.0000,555.0000 C 630.0000,553.0000 628.0000,551.0000 626.0000,551.0000 Z "  fill="#FFAA00" stroke="none" />
</g>
</svg>
