<?xml version="1.0" encoding="utf-8"?>
<!-- Generator: Adobe Illustrator 20.1.0, SVG Export Plug-In . SVG Version: 6.00 Build 0)  -->
<svg version="1.1" id="Layer_1" xmlns="http://www.w3.org/2000/svg" xmlns:xlink="http://www.w3.org/1999/xlink" x="0px" y="0px"
	 viewBox="0 0 62.3 83.7" style="enable-background:new 0 0 62.3 83.7;" xml:space="preserve">
<style type="text/css">
	.st0{fill:#007EBA;stroke:#FFFFFF;stroke-width:0.8;}
	.st1{fill:#6DAED7;stroke:#FFFFFF;stroke-width:0.8;}
	.st2{fill:#008FC5;stroke:#FFFFFF;stroke-width:0.8;}
	.st3{fill:#FFFFFF;}
	.st4{fill:none;stroke:#FFFFFF;stroke-width:0.6955;}
	.st5{fill:#B5B5B5;}
	.st6{fill:none;stroke:#FFFFFF;stroke-width:2.85;}
	.st7{fill:#FFFFFF;stroke:#FFFFFF;stroke-width:0.38;}
</style>
<g>
	<g>
		<polygon class="st0" points="61.3,35.3 51,45.1 1.2,45.1 14.1,35.3 		"/>
		<g>
			<rect x="1.2" y="45.1" class="st1" width="49.8" height="37.7"/>
		</g>
		<g>
			<polygon class="st2" points="60.2,73.5 60.2,35.8 50.7,45.1 50.7,82.7 			"/>
		</g>
	</g>
	<polygon class="st0" points="61.3,0.4 51,10.2 1.2,10.2 14.1,0.4 	"/>
	<g>
		<rect x="1.2" y="10.2" class="st0" width="49.8" height="35.2"/>
	</g>
	<g>
		<polygon class="st0" points="60.2,36.2 60.2,0.9 50.7,10.2 50.7,45.4 		"/>
	</g>
	<g>
		<polygon class="st3" points="21.5,27 14,27 14,25.1 11.2,27.9 14,30.8 14,28.8 21.5,28.8 		"/>
		<polygon class="st3" points="25.7,33 25.7,40.5 23.8,40.5 26.6,43.3 29.4,40.5 27.5,40.5 27.5,33 		"/>
		<polygon class="st3" points="25.7,23 25.7,15.6 23.8,15.6 26.6,12.7 29.4,15.6 27.5,15.6 27.5,23 		"/>
		<polygon class="st3" points="31.7,28.8 39.2,28.8 39.2,30.8 42,27.9 39.2,25.1 39.2,27 31.7,27 		"/>
		<path class="st4" d="M38.6,39.9c-1.4,1.5-7.8-2.6-14.4-9.1c-6.5-6.5-10.7-12.9-9.3-14.4c1.4-1.5,7.8,2.6,14.4,9.1
			C35.8,32,40,38.4,38.6,39.9z"/>
		<path class="st4" d="M38.2,16.3c1.5,1.4-2.6,7.8-9.1,14.4c-6.5,6.5-12.9,10.7-14.4,9.3c-1.5-1.4,2.6-7.8,9.1-14.4
			C30.3,19,36.7,14.9,38.2,16.3z"/>
	</g>
	<ellipse transform="matrix(0.819 -0.5737 0.5737 0.819 -11.1476 20.2517)" class="st5" cx="26.5" cy="27.8" rx="5.4" ry="5.4"/>
	<g>
		<g>
			<line class="st6" x1="24.4" y1="57.9" x2="11.9" y2="57.9"/>
			<line class="st6" x1="29.1" y1="53.8" x2="43" y2="53.8"/>
			<g>
				<polygon class="st7" points="39.7,49.1 39.7,58.2 45.2,53.8 				"/>
			</g>
		</g>
		<g>
			<polygon class="st7" points="13.2,62.5 13.2,53.4 7.7,57.8 			"/>
		</g>
		<line class="st6" x1="24.4" y1="74.4" x2="11.9" y2="74.4"/>
		<line class="st6" x1="29.1" y1="70.3" x2="43" y2="70.3"/>
		<g>
			<polygon class="st7" points="39.7,65.6 39.7,74.7 45.2,70.3 			"/>
		</g>
		<g>
			<polygon class="st7" points="13.2,79 13.2,69.9 7.7,74.3 			"/>
		</g>
	</g>
</g>
</svg>
