<?xml version="1.0" encoding="utf-8"?>
<!-- Generator: Adobe Illustrator 20.1.0, SVG Export Plug-In . SVG Version: 6.00 Build 0)  -->
<svg version="1.1" id="Layer_1" xmlns="http://www.w3.org/2000/svg" xmlns:xlink="http://www.w3.org/1999/xlink" x="0px" y="0px"
	 viewBox="0 0 74.4 74.4" style="enable-background:new 0 0 74.4 74.4;" xml:space="preserve">
<style type="text/css">
	.st0{fill:#FFAA00;stroke:#FFFFFF;stroke-width:0.8;}
	.st1{fill:#FFFFFF;}
	.st2{fill:none;stroke:#FFFFFF;}
</style>
<g>
	<path class="st0" d="M74,14.7C74,22.6,57.5,29,37.2,29S0.4,22.6,0.4,14.7v45C0.4,67.6,16.9,74,37.2,74S74,67.6,74,59.7V14.7z"/>
	<ellipse class="st0" cx="37.2" cy="14.7" rx="36.8" ry="14.3"/>
	<polygon class="st1" points="28.8,9.1 31.8,13.7 20.3,16.3 22.8,14.2 5.1,11.2 9.6,7.9 26.7,10.8 	"/>
	<polygon class="st1" points="44.9,20.2 42.9,15.5 53.2,13.4 51.4,15 68.7,18 64.6,21.3 47.4,18 	"/>
	<polygon class="st1" points="34.3,24.4 23.3,26.5 22.8,21.4 26,22.1 32.1,16.9 37.5,17.8 31,23.5 	"/>
	<line class="st2" x1="68.2" y1="27.4" x2="68.2" y2="61.4"/>
	<line class="st2" x1="64.2" y1="29.6" x2="64.2" y2="63.6"/>
	<line class="st2" x1="60.1" y1="31.2" x2="60.1" y2="65.2"/>
	<line class="st2" x1="55.4" y1="32.5" x2="55.4" y2="66.5"/>
	<line class="st2" x1="50.8" y1="33.5" x2="50.8" y2="67.5"/>
	<line class="st2" x1="46.3" y1="34.2" x2="46.3" y2="68.2"/>
	<line class="st2" x1="41.4" y1="34.9" x2="41.4" y2="68.9"/>
	<line class="st2" x1="4.9" y1="27.4" x2="4.9" y2="61.4"/>
	<line class="st2" x1="8.9" y1="29.6" x2="8.9" y2="63.6"/>
	<line class="st2" x1="13" y1="31.2" x2="13" y2="65.2"/>
	<line class="st2" x1="17.7" y1="32.5" x2="17.7" y2="66.5"/>
	<line class="st2" x1="22.3" y1="33.5" x2="22.3" y2="67.5"/>
	<line class="st2" x1="26.8" y1="34.2" x2="26.8" y2="68.2"/>
	<line class="st2" x1="31.7" y1="34.9" x2="31.7" y2="68.9"/>
	<line class="st2" x1="36.5" y1="35" x2="36.5" y2="69"/>
	<polygon class="st1" points="38.5,6.4 50.1,3.2 50.3,8.2 47.4,7.6 41.7,12.3 36.3,11.5 42.1,6.9 	"/>
</g>
</svg>
