<?xml version="1.0" encoding="utf-8"?>
<!-- Generator: Adobe Illustrator 20.1.0, SVG Export Plug-In . SVG Version: 6.00 Build 0)  -->
<svg version="1.1" id="Layer_1" xmlns="http://www.w3.org/2000/svg" xmlns:xlink="http://www.w3.org/1999/xlink" x="0px" y="0px"
	 viewBox="0 0 88.9 57.9" style="enable-background:new 0 0 88.9 57.9;" xml:space="preserve">
<style type="text/css">
	.st0{fill:#007EBA;stroke:#FFFFFF;stroke-width:0.8;}
	.st1{fill:#FFFFFF;}
	.st2{fill:#007EBA;stroke:#FFFFFF;stroke-width:1.6;}
	.st3{fill:#FFFFFF;stroke:#FFFFFF;stroke-width:1.6;}
</style>
<g>
	<polyline class="st0" points="1.2,20.3 1.2,56.4 67.7,56.4 67.7,20.3 	"/>
	<g>
		<path class="st1" d="M42.8,36.1c0,1.2-3.3,2.2-7.4,2.2c-4.1,0-7.4-1-7.4-2.2v9.3c0,1.2,3.3,2.3,7.4,2.3c4.1,0,7.4-1,7.4-2.3V36.1z
			"/>
		<ellipse class="st2" cx="35.3" cy="36.1" rx="7.4" ry="2.2"/>
		<ellipse class="st3" cx="35.3" cy="46.5" rx="7.4" ry="2.2"/>
	</g>
	<polygon class="st0" points="1.1,20.3 25.7,0.4 88,0.4 67.7,20.3 	"/>
	<polygon class="st0" points="67.7,20.7 67.7,56.9 88,35.6 88,0.9 	"/>
	<g>
		<polygon class="st1" points="58.9,39.9 46.7,39.9 46.7,38 58.9,38 58.9,35 65.9,38.9 58.9,42.9 		"/>
	</g>
	<g>
		<polygon class="st1" points="56.8,30.2 46.6,36.8 45.6,35.2 55.7,28.5 54.1,26 62.2,25.5 58.5,32.7 		"/>
	</g>
	<g>
		<polygon class="st1" points="56.8,47.6 46.6,41 45.6,42.6 55.7,49.2 54.1,51.7 62.2,52.2 58.5,45.1 		"/>
	</g>
	<g>
		<polygon class="st1" points="10.4,39.9 22.5,39.9 22.5,38 10.4,38 10.4,35 3.3,38.9 10.4,42.9 		"/>
	</g>
	<g>
		<polygon class="st1" points="36.1,24.6 36.1,20.3 34.2,20.3 34.2,24.6 31.1,24.7 35.1,31.7 39.1,24.7 		"/>
	</g>
	<g>
		<polygon class="st1" points="12.5,30.2 22.7,36.8 23.7,35.2 13.5,28.5 15.2,26 7.1,25.5 10.8,32.7 		"/>
	</g>
	<g>
		<polygon class="st1" points="12.5,47.6 22.7,41 23.7,42.6 13.5,49.2 15.2,51.7 7.1,52.2 10.8,45.1 		"/>
	</g>
</g>
</svg>
