<?xml version="1.0" encoding="utf-8"?>
<!-- Generator: Adobe Illustrator 20.1.0, SVG Export Plug-In . SVG Version: 6.00 Build 0)  -->
<svg version="1.1" id="Layer_1" xmlns="http://www.w3.org/2000/svg" xmlns:xlink="http://www.w3.org/1999/xlink" x="0px" y="0px"
	 viewBox="0 0 74.3 53.1" style="enable-background:new 0 0 74.3 53.1;" xml:space="preserve">
<style type="text/css">
	.st0{fill:#007EBA;stroke:#FFFFFF;stroke-width:0.8;}
	.st1{fill:none;stroke:#FFFFFF;stroke-width:2;stroke-linecap:round;stroke-linejoin:round;}
	.st2{fill:#FFFFFF;stroke:#000000;stroke-width:0.74;}
</style>
<g>
	<rect x="1.4" y="10.3" class="st0" width="60.3" height="41.9"/>
	<polygon class="st0" points="61.7,10.3 73.2,0.8 17,0.8 1.4,10.3 	"/>
	<polygon class="st0" points="73.2,42.8 73.2,0.8 61.7,10.3 61.7,52.2 	"/>
	<polyline class="st1" points="5.3,35.3 23.3,35.3 32.3,17.3 44.8,42.8 49.3,35.3 58.3,35.3 	"/>
	<ellipse class="st2" cx="11" cy="48.2" rx="1.9" ry="1.9"/>
	<rect x="9" y="40" transform="matrix(0.6988 -0.7153 0.7153 0.6988 -25.4999 24.6499)" class="st2" width="15.1" height="5.2"/>
	<path class="st2" d="M18.4,27.4c0,7.9,6.4,14.3,14.3,14.3c7.9,0,14.3-6.4,14.3-14.3c0-7.9-6.4-14.3-14.3-14.3
		C24.9,13.1,18.4,19.6,18.4,27.4z M20.4,27.4c0-6.8,5.5-12.3,12.3-12.3c6.8,0,12.3,5.5,12.3,12.3s-5.5,12.3-12.3,12.3
		C26,39.7,20.4,34.2,20.4,27.4z"/>
	<path class="st2" d="M16.8,28.3c0,7.9,6.4,14.3,14.3,14.3c7.9,0,14.3-6.4,14.3-14.3c0-7.9-6.4-14.3-14.3-14.3
		C23.2,14,16.8,20.4,16.8,28.3z M18.8,28.3c0-6.8,5.5-12.3,12.3-12.3c6.8,0,12.3,5.5,12.3,12.3c0,6.8-5.5,12.3-12.3,12.3
		C24.3,40.6,18.8,35.1,18.8,28.3z"/>
</g>
</svg>
