<?xml version="1.0" encoding="utf-8"?>
<!-- Generator: Adobe Illustrator 20.1.0, SVG Export Plug-In . SVG Version: 6.00 Build 0)  -->
<svg version="1.1" id="Layer_1" xmlns="http://www.w3.org/2000/svg" xmlns:xlink="http://www.w3.org/1999/xlink" x="0px" y="0px"
	 viewBox="0 0 45.5 50.4" style="enable-background:new 0 0 45.5 50.4;" xml:space="preserve">
<style type="text/css">
	.st0{fill:#FFAA00;stroke:#FFFFFF;stroke-width:0.8;}
	.st1{fill:#FFFFFF;}
</style>
<g>
	<polygon class="st0" points="44.8,11.9 44.8,32.3 41.2,38.5 41.2,18.1 	"/>
	<polyline class="st0" points="9.7,6.3 0.7,6.3 4.3,0.4 13.3,0.4 35.8,11.9 44.8,11.9 41.2,18.1 32.2,18.1 	"/>
	<polygon class="st0" points="9.7,6.3 32.2,18.1 32.2,18.1 41.2,18.1 41.2,38.5 32.2,38.5 32.2,38.5 9.7,49.9 9.7,49.9 0.7,49.9 
		0.7,6.3 9.7,6.3 	"/>
	<polygon class="st1" points="30.1,27.6 30.1,25 38,28.2 30.1,31.5 30.1,28.8 12.5,28.8 12.5,27.6 	"/>
	<polygon class="st1" points="11.9,17.9 11.9,16.9 24.2,16.9 32,21.2 33.3,18.9 38.7,25.5 30.2,24.5 31.4,22.2 24.3,18.1 	"/>
	<polygon class="st1" points="24.3,38.6 31.4,34.4 30.2,32.1 38.7,31.2 33.3,37.8 32,35.5 24.2,39.7 11.9,39.7 11.9,38.7 	"/>
</g>
</svg>
