<?xml version="1.0" encoding="utf-8"?>
<!-- Generator: Adobe Illustrator 20.1.0, SVG Export Plug-In . SVG Version: 6.00 Build 0)  -->
<svg version="1.1" id="Layer_1" xmlns="http://www.w3.org/2000/svg" xmlns:xlink="http://www.w3.org/1999/xlink" x="0px" y="0px"
	 viewBox="0 0 97.6 71.8" style="enable-background:new 0 0 97.6 71.8;" xml:space="preserve">
<style type="text/css">
	.st0{fill:#FFAA00;stroke:#FFFFFF;stroke-width:0.8;}
	.st1{fill:#FFFFFF;}
	.st2{fill:none;stroke:#FFFFFF;stroke-width:0.8;}
	.st3{fill:#FFFFFF;}
</style>
<g>
	<g>
		<g>
			<rect x="1.3" y="24.2" class="st0" width="71.4" height="23.2"/>
			<polygon class="st0" points="1.1,24.3 30,0.9 96.6,0.9 72.7,24.3 			"/>
			<polygon class="st0" points="72.7,48.1 96.6,22.3 96.6,1 72.7,24.3 			"/>
			<polygon class="st1" points="43,18.2 41.6,19.3 23.8,19.3 22,21.1 17.2,19 26.9,16.2 25.2,18.2 			"/>
			<polygon class="st1" points="57,9.5 55.6,10.6 37.8,10.6 36,12.4 31.2,10.3 40.9,7.5 39.2,9.5 			"/>
			<polygon class="st1" points="46.1,15.1 47.5,14 65.4,14 67.1,12.2 72,14.3 62.2,17.1 64,15.1 			"/>
			<polygon class="st1" points="55.4,6.4 56.8,5.2 74.6,5.2 76.4,3.5 81.2,5.6 71.5,8.3 73.2,6.4 			"/>
		</g>
	</g>
	<rect x="1.3" y="46.8" class="st0" width="71.4" height="23.2"/>
	<polygon class="st0" points="72.7,70.8 96.6,45 96.6,23.6 72.7,46.9 	"/>
	<g>
		<polygon class="st1" points="28.6,35.2 15.2,35.2 15.2,33.9 10.2,35.7 15.2,37.5 15.2,36.3 28.6,36.3 		"/>
		<polygon class="st1" points="36.2,39 36.2,43.7 32.7,43.7 37.8,45.5 42.9,43.7 39.4,43.7 39.4,39 		"/>
		<polygon class="st1" points="36.2,32.6 36.2,27.9 32.7,27.9 37.8,26.1 42.9,27.9 39.4,27.9 39.4,32.6 		"/>
		<polygon class="st1" points="47,36.3 60.3,36.3 60.3,37.5 65.4,35.7 60.3,33.9 60.3,35.2 47,35.2 		"/>
		<path class="st2" d="M59.3,43.3c-2.5,0.9-14-1.6-25.7-5.8c-11.7-4.1-19.2-8.2-16.6-9.2c2.5-0.9,14,1.6,25.7,5.8
			C54.3,38.3,61.8,42.4,59.3,43.3z"/>
		<path class="st2" d="M58.6,28.3c2.6,0.9-4.6,5-16.3,9.1c-11.6,4.1-23.2,6.8-25.9,5.9c-2.6-0.9,4.6-5,16.3-9.1
			C44.4,30.1,56,27.5,58.6,28.3z"/>
	</g>
	<path class="st3" d="M43.3,38.5c4.4-1.1,5.5-3.3,2.4-4.8c-3.1-1.6-9.2-1.9-13.6-0.8c-4.4,1.1-5.5,3.3-2.4,4.8
		C32.8,39.2,38.9,39.6,43.3,38.5z"/>
</g>
</svg>
