<?xml version="1.0" encoding="utf-8"?>
<!-- Generator: Adobe Illustrator 20.1.0, SVG Export Plug-In . SVG Version: 6.00 Build 0)  -->
<svg version="1.1" id="Layer_1" xmlns="http://www.w3.org/2000/svg" xmlns:xlink="http://www.w3.org/1999/xlink" x="0px" y="0px"
	 viewBox="0 0 94.1 114.5" style="enable-background:new 0 0 94.1 114.5;" xml:space="preserve">
<style type="text/css">
	.st0{fill:#036998;}
	.st1{fill:#FFFFFF;stroke:#000000;stroke-width:0.3;}
	.st2{fill:#FFFFFF;stroke:#036998;stroke-width:0.8;}
	.st3{fill:none;stroke:#036998;stroke-width:0.75;}
	.st4{fill:none;stroke:#036998;stroke-width:0.8;}
	.st5{fill:#FFFFFF;}
	.st6{fill:#036998;stroke:#FFFFFF;stroke-width:0.8;}
</style>
<g>
	<g>
		<path class="st0" d="M41.1,48.9H55V67c0,0-14.1,4.4-13.9,4.4C41.4,71.3,41.1,48.9,41.1,48.9z"/>
	</g>
	<g>
		<g>
			<ellipse class="st1" cx="47.1" cy="26" rx="46.7" ry="8.8"/>
			<path class="st0" d="M47.3,50.3c25.8,0,46.4-19.5,46.4-24.3c0-4.9-20.9-8.8-46.7-8.8S0.4,21.1,0.4,26
				C0.4,30.9,21.5,50.3,47.3,50.3z"/>
			<ellipse class="st2" cx="47.1" cy="26" rx="46.7" ry="8.8"/>
			<g>
				<path class="st3" d="M34.9,19.4c-7.4,0.4-13.9,1.3-19,2.4"/>
			</g>
			<g>
				<path class="st3" d="M35.4,21.2C28.3,21.8,22,22.7,17.3,24"/>
			</g>
			<g>
				<path class="st3" d="M35.9,23.2c-7,0.6-13,1.7-17.4,3"/>
			</g>
			<g>
				<path class="st3" d="M36.9,25.5c-6.8,0.7-12.6,1.8-16.7,3.3"/>
			</g>
			<g>
				<path class="st3" d="M37.4,27.7c-6.5,0.7-11.9,2-15.5,3.6"/>
			</g>
			<g>
				<path class="st3" d="M38.3,30.2c-5.1,0.7-9.5,1.8-12.6,3.1"/>
			</g>
			<g>
				<path class="st3" d="M38.6,32.6c-2.1,0.4-4,0.8-5.7,1.3"/>
			</g>
			<polyline class="st4" points="0.3,26.8 47.3,3.3 93.7,26 			"/>
			<g>
				<ellipse class="st0" cx="47.6" cy="7.6" rx="3.2" ry="1.6"/>
			</g>
			<polygon class="st0" points="47.6,0 46.6,32.8 48.8,32.8 			"/>
			<g>
				<rect x="35.6" y="52.4" class="st0" width="22.5" height="8.9"/>
			</g>
		</g>
	</g>
	<rect x="39" y="56.3" class="st5" width="6.9" height="2"/>
	<rect x="48.2" y="56.3" class="st5" width="6.9" height="2"/>
	<g>
		<path class="st6" d="M83.8,78.8c0,7.9-16.5,14.3-36.8,14.3s-36.8-6.4-36.8-14.3v21c0,7.9,16.5,14.3,36.8,14.3s36.8-6.4,36.8-14.3
			V78.8z"/>
		<ellipse class="st6" cx="47.1" cy="78.8" rx="36.8" ry="14.3"/>
		<polygon class="st5" points="38.7,73.2 41.7,77.8 30.2,80.4 32.7,78.3 15,75.3 19.4,72 36.6,74.9 		"/>
		<polygon class="st5" points="54.8,84.3 52.7,79.6 63.1,77.5 61.3,79.1 78.6,82.1 74.4,85.4 57.3,82.2 		"/>
		<polygon class="st5" points="49.2,70.7 60.8,67.6 60.9,72.5 58,72 52.3,76.7 46.9,75.9 52.8,71.3 		"/>
		<polygon class="st5" points="44.2,88.6 33.1,90.6 32.7,85.5 35.9,86.2 42,81 47.4,81.9 40.9,87.6 		"/>
	</g>
</g>
</svg>
