<?xml version="1.0" encoding="utf-8"?>
<!-- Generator: Adobe Illustrator 20.1.0, SVG Export Plug-In . SVG Version: 6.00 Build 0)  -->
<svg version="1.1" id="Layer_1" xmlns="http://www.w3.org/2000/svg" xmlns:xlink="http://www.w3.org/1999/xlink" x="0px" y="0px"
	 viewBox="0 0 64.2 67.9" style="enable-background:new 0 0 64.2 67.9;" xml:space="preserve">
<style type="text/css">
	.st0{fill:none;stroke:#FFFFFF;stroke-width:0.828;}
	.st1{fill:#007EBA;stroke:#FFFFFF;stroke-width:0.8;}
	.st2{stroke:#FFFFFF;stroke-width:0.72;}
	.st3{fill:#FFFFFF;}
	.st4{fill:#FFFFFF;stroke:#000000;stroke-width:0.504;}
	.st5{fill:none;stroke:#FFFFFF;stroke-width:1.8;}
</style>
<line class="st0" x1="1.2" y1="32.6" x2="48.1" y2="32.6"/>
<rect x="1.2" y="51.8" class="st1" width="46.9" height="15.4"/>
<polygon class="st2" points="63.2,37.8 48.1,51.7 1.1,51.7 17.9,37.8 "/>
<polygon class="st1" points="63.3,52.2 63.3,37.9 48.1,51.8 48.1,66.9 "/>
<rect x="1.2" y="33.3" class="st1" width="46.9" height="15.4"/>
<polygon class="st2" points="63.2,18.8 48.1,32.7 1.1,32.7 17.9,18.8 "/>
<polygon class="st1" points="63.3,35.3 63.3,20 48.1,33.9 48.1,49.1 "/>
<rect x="1.2" y="14.8" class="st1" width="46.9" height="15.4"/>
<polygon class="st1" points="63.2,0.9 48.1,14.8 1.1,14.8 17.9,0.9 "/>
<polygon class="st1" points="63.3,15.9 63.3,0.9 48.1,14.8 48.1,30 "/>
<path d="M39.6,8.9l2-1.5L47,9.1l-10.9,2.3L38,9.7H27.2l1.6-0.8H39.6z"/>
<path d="M34.3,4.8l-0.9,1h-8.9l-1.8,1.1l-5.4-1.8l10.8-2.3l-2.8,2.1H34.3z"/>
<path d="M26.6,11l-1.3,1h-8.9L15,13l-5.4-1.8l10.8-2.3L17.7,11H26.6z"/>
<path d="M48.1,3.3l2-1.5l5.4,1.7L44.7,5.9l2-1.7H35.9l1.5-1H48.1z"/>
<path class="st3" d="M39.6,9.4l2-1.5L47,9.6L36.1,12l1.8-1.8H27.2l1.6-0.8H39.6z"/>
<path class="st3" d="M34.3,5.3l-0.9,1h-8.9l-1.8,1.1l-5.4-1.8l10.8-2.3l-2.8,2.1H34.3z"/>
<path class="st3" d="M26.6,11.5l-1.3,1h-8.9L15,13.5l-5.4-1.8l10.8-2.3l-2.8,2.1H26.6z"/>
<path class="st3" d="M48.1,3.8l2-1.5l5.4,1.7L44.7,6.4l2-1.7H35.9l1.5-1H48.1z"/>
<polygon class="st3" points="26.2,31.9 26.2,21.5 28,21.5 25.4,17.6 22.8,21.5 24.6,21.5 24.6,31.9 "/>
<polygon class="st3" points="20.9,35.5 13.6,28.1 14.8,26.9 10.2,25.9 11.2,30.6 12.4,29.3 19.8,36.7 "/>
<polygon class="st3" points="18.3,40.3 7.9,40.3 7.9,38.5 3.9,41.1 7.9,43.7 7.9,42 18.3,42 "/>
<polygon class="st3" points="19.8,45.6 12.4,52.9 11.2,51.7 10.2,56.3 14.8,55.4 13.6,54.1 20.9,46.8 "/>
<polygon class="st3" points="24.6,48.3 24.6,58.7 22.8,58.7 25.4,62.6 28,58.7 26.2,58.7 26.2,48.3 "/>
<polygon class="st3" points="29.9,46.8 37.2,54.1 36,55.4 40.6,56.3 39.6,51.7 38.4,52.9 31.1,45.6 "/>
<polygon class="st3" points="32.6,42 42.9,42 42.9,43.7 46.9,41.1 42.9,38.5 42.9,40.3 32.6,40.3 "/>
<polygon class="st3" points="31.1,36.7 38.4,29.3 39.6,30.6 40.6,25.9 36,26.9 37.2,28.1 29.9,35.5 "/>
<ellipse transform="matrix(0.8191 -0.5737 0.5737 0.8191 -19.0236 22.1291)" class="st4" cx="25.6" cy="41.2" rx="7.6" ry="7.6"/>
<ellipse transform="matrix(7.697394e-02 -0.997 0.997 7.697394e-02 17.3747 87.4198)" class="st5" cx="55.9" cy="34.3" rx="17.7" ry="5.1"/>
</svg>
