<?xml version="1.0" encoding="utf-8"?>
<!-- Generator: Adobe Illustrator 20.1.0, SVG Export Plug-In . SVG Version: 6.00 Build 0)  -->
<svg version="1.1" id="Layer_1" xmlns="http://www.w3.org/2000/svg" xmlns:xlink="http://www.w3.org/1999/xlink" x="0px" y="0px"
	 viewBox="0 0 97.6 73.6" style="enable-background:new 0 0 97.6 73.6;" xml:space="preserve">
<style type="text/css">
	.st0{fill:#FFAA00;stroke:#FFFFFF;stroke-width:0.8;}
	.st1{fill:#FFAA00;stroke:#FFFFFF;stroke-width:0.8;}
	.st2{fill:#FFFFFF;}
	.st3{fill:#FFFFFF;stroke:#FFAA00;stroke-width:0.6;stroke-linecap:round;stroke-linejoin:round;}
	.st4{fill:none;stroke:#FFFFFF;stroke-width:0.8;stroke-linecap:round;stroke-linejoin:round;}
	.st5{fill:none;stroke:#FFFFFF;stroke-width:0.8;}
	.st6{fill:#FFFFFF;stroke:#FFFFFF;stroke-width:0.8;}
</style>
<g>
	<g>
		<g>
			<g>
				<rect x="1.3" y="24.2" class="st0" width="71.4" height="23.2"/>
				<polygon class="st0" points="1.1,24.3 30,0.9 96.6,0.9 72.7,24.3 				"/>
				<polygon class="st0" points="72.7,48.1 96.6,23.8 96.6,1 72.7,24.3 				"/>
				<rect x="1.3" y="46.8" class="st1" width="71.4" height="25.1"/>
				<polygon class="st1" points="72.7,72.6 96.6,48.3 96.6,23.6 72.7,46.9 				"/>
			</g>
		</g>
		<polygon class="st2" points="52.5,10.8 57,11.9 69.1,8.6 73.5,9.7 71.3,6.4 57,6.4 63.6,7.5 52.5,10.8 		"/>
		<polygon class="st2" points="27.2,7.5 31.6,6.4 43.7,9.7 48.1,8.6 45.9,11.9 31.6,11.9 38.2,10.8 27.2,7.5 		"/>
		<polygon class="st2" points="72.4,18.6 68,19.7 57,16.4 51.4,17.5 53.6,14.2 68,14.2 62.5,15.3 72.4,18.6 		"/>
		<polygon class="st2" points="47,15.3 42.6,14.2 31.6,17.5 26.1,16.4 28.3,19.7 42.6,19.9 36,18.6 47,15.3 		"/>
		<g>
			<ellipse class="st3" cx="37.2" cy="41.5" rx="8.7" ry="2.6"/>
		</g>
		<path class="st3" d="M46,29.3c0,1.5-3.9,2.6-8.7,2.6c-4.8,0-8.7-1.2-8.7-2.6v10.9c0,1.5,3.9,2.6,8.7,2.6c4.8,0,8.7-1.2,8.7-2.6
			V29.3z"/>
		<ellipse class="st3" cx="37.2" cy="29.3" rx="8.7" ry="2.6"/>
	</g>
	<line class="st4" x1="1.3" y1="47.2" x2="72.8" y2="47.2"/>
	<g>
		<polygon class="st2" points="28.7,59 15.3,59 15.3,57.7 10.3,59.5 15.3,61.3 15.3,60.1 28.7,60.1 		"/>
		<polygon class="st2" points="36.2,62.8 36.2,67.5 32.8,67.5 37.9,69.3 43,67.5 39.5,67.5 39.5,62.8 		"/>
		<polygon class="st2" points="36.2,56.4 36.2,51.7 32.8,51.7 37.9,49.9 43,51.7 39.5,51.7 39.5,56.4 		"/>
		<polygon class="st2" points="47.1,60.1 60.4,60.1 60.4,61.3 65.5,59.5 60.4,57.7 60.4,59 47.1,59 		"/>
		<path class="st5" d="M59.4,67.1c-2.5,0.9-14-1.6-25.7-5.8c-11.7-4.1-19.2-8.2-16.6-9.2c2.5-0.9,14,1.6,25.7,5.8
			C54.4,62.1,61.9,66.2,59.4,67.1z"/>
		<path class="st5" d="M58.7,52.1c2.6,0.9-4.6,5-16.3,9.1c-11.6,4.1-23.2,6.8-25.9,5.9c-2.6-0.9,4.6-5,16.3-9.1
			C44.5,53.9,56.1,51.3,58.7,52.1z"/>
	</g>
	<path class="st6" d="M43.4,62.3c4.4-1.1,5.5-3.3,2.4-4.8c-3.1-1.6-9.2-1.9-13.6-0.8c-4.4,1.1-5.5,3.3-2.4,4.8
		C32.9,63,39,63.4,43.4,62.3z"/>
</g>
</svg>
