<?xml version="1.0" encoding="utf-8"?>
<!-- Generator: Adobe Illustrator 20.1.0, SVG Export Plug-In . SVG Version: 6.00 Build 0)  -->
<svg version="1.1" id="Layer_1" xmlns="http://www.w3.org/2000/svg" xmlns:xlink="http://www.w3.org/1999/xlink" x="0px" y="0px"
	 viewBox="0 0 51.9 59" style="enable-background:new 0 0 51.9 59;" xml:space="preserve">
<style type="text/css">
	.st0{fill:#02709F;stroke:#FFFFFF;stroke-width:0.8;}
	.st1{fill:#FFFFFF;}
</style>
<g>
	<g>
		<path class="st0" d="M41,58.1c1.1,0,2-0.9,2-2V31.6c0-1.1-0.9-2-2-2H3c-1.1,0-2,0.9-2,2v24.5c0,1.1,0.9,2,2,2H41z"/>
	</g>
	<polygon class="st0" points="43,29.5 51,21.5 9,21.5 1,29.5 	"/>
	<polygon class="st0" points="51,50 51,21.5 43,29.5 43,58 	"/>
	<path class="st0" d="M26.2,3.9c-6,0-10.9,4.9-10.9,10.9l0,9.7c0.1,0.8-0.7,1.6-1.9,1.7c-1.2,0.1-2.4-0.5-2.5-1.2l0-9.7
		c0-8.3,6.7-15,15-15c8.3,0,15,6.7,15,15v10.5c-0.1,0.8-0.9,1.3-2.1,1.3c-1.1,0-2-1.4-2-2.2l0-10.1C37,8.8,32.3,3.9,26.2,3.9z"/>
	<g>
		<ellipse class="st1" cx="21.9" cy="41.9" rx="3.4" ry="4.4"/>
	</g>
	<polygon class="st1" points="22.9,50.9 22.9,42.2 20.8,43.7 20.8,52.5 	"/>
</g>
</svg>
