<?xml version="1.0" encoding="utf-8"?>
<!-- Generator: Adobe Illustrator 20.1.0, SVG Export Plug-In . SVG Version: 6.00 Build 0)  -->
<svg version="1.1" id="Layer_1" xmlns="http://www.w3.org/2000/svg" xmlns:xlink="http://www.w3.org/1999/xlink" x="0px" y="0px"
	 viewBox="0 0 72.1 79.5" style="enable-background:new 0 0 72.1 79.5;" xml:space="preserve">
<style type="text/css">
	.st0{fill:#FFAA00;stroke:#FFFFFF;stroke-width:1.0075;}
	.st1{fill:#FFAA00;stroke:#FFFFFF;stroke-width:0.7443;stroke-linecap:round;stroke-linejoin:round;}
	.st2{fill-rule:evenodd;clip-rule:evenodd;fill:#FFFFFF;}
	.st3{fill:#FFAA00;}
	.st4{fill-rule:evenodd;clip-rule:evenodd;fill:#FFFFFF;stroke:#FFAA00;stroke-width:1.2;}
	.st5{fill:#FFFFFF;stroke:#FFAA00;stroke-width:1.2;}
</style>
<g>
	<g>
		<g>
			<polygon class="st0" points="57.8,78.4 57.8,13.5 1.5,13.4 1.5,78.4 			"/>
			<polygon class="st0" points="57.8,13.5 1.5,13.4 18.4,0.5 71.6,0.5 71.6,0.6 71.6,65.1 57.8,78.4 57.8,13.5 			"/>
			<line class="st0" x1="57.8" y1="13.5" x2="71.7" y2="0.4"/>
		</g>
	</g>
	<g>
		<polyline class="st1" points="15.1,49.8 5.4,49.8 5.4,65.7 15.1,65.7 		"/>
		<polygon class="st1" points="15.1,65.7 20.4,62.7 20.4,46.8 10.7,46.8 5.4,49.8 15.1,49.8 		"/>
		<line class="st1" x1="15.1" y1="49.8" x2="20.4" y2="46.8"/>
		<polyline class="st1" points="34.7,30 15.1,30 15.1,65.7 34.7,65.7 		"/>
		<polygon class="st1" points="34.7,65.7 42.7,61.3 42.7,25.6 23.1,25.6 15.1,30 34.7,30 		"/>
		<line class="st1" x1="34.7" y1="30" x2="42.7" y2="25.6"/>
		<polyline class="st1" points="45.5,35.6 34.9,35.6 34.9,65.7 45.5,65.7 		"/>
		<polygon class="st1" points="45.5,65.7 53.4,61.4 53.4,31.3 42.7,31.3 34.9,35.6 45.5,35.6 		"/>
		<line class="st1" x1="45.5" y1="35.6" x2="53.4" y2="31.3"/>
		<polyline class="st1" points="25.3,44.7 25.3,46.3 28.3,46.3 		"/>
		<polyline class="st1" points="29.5,44.7 29.5,46.3 32.5,46.3 		"/>
		<polyline class="st1" points="16.9,44.7 16.9,46.4 19.9,46.4 		"/>
		<polyline class="st1" points="21.1,44.7 21.1,46.4 24.1,46.4 		"/>
		<polyline class="st1" points="25.3,48.1 25.3,49.8 28.3,49.8 		"/>
		<polyline class="st1" points="29.5,48.1 29.5,49.8 32.5,49.8 		"/>
		<polyline class="st1" points="16.8,48.2 16.8,49.8 19.8,49.8 		"/>
		<polyline class="st1" points="21,48.2 21,49.8 24,49.8 		"/>
		<polyline class="st1" points="25.3,51.4 25.3,53.1 28.3,53.1 		"/>
		<polyline class="st1" points="29.5,51.4 29.5,53.1 32.5,53.1 		"/>
		<polyline class="st1" points="16.8,51.5 16.8,53.2 19.8,53.2 		"/>
		<polyline class="st1" points="21,51.5 21,53.2 24,53.2 		"/>
		<polyline class="st1" points="25.3,54.5 25.3,56.2 28.3,56.2 		"/>
		<polyline class="st1" points="29.5,54.5 29.5,56.2 32.5,56.2 		"/>
		<polyline class="st1" points="16.8,54.6 16.8,56.2 19.8,56.2 		"/>
		<polyline class="st1" points="21,54.6 21,56.2 24,56.2 		"/>
		<polyline class="st1" points="36.9,37 36.9,38.7 39.9,38.7 		"/>
		<polyline class="st1" points="41.1,37 41.1,38.7 44.1,38.7 		"/>
		<polyline class="st1" points="36.8,40.2 36.8,41.8 39.8,41.8 		"/>
		<polyline class="st1" points="41,40.2 41,41.8 44,41.8 		"/>
		<polyline class="st1" points="36.8,43 36.8,44.7 39.8,44.7 		"/>
		<polyline class="st1" points="41,43 41,44.7 44,44.7 		"/>
		<polyline class="st1" points="6.8,51.1 6.8,52.8 9.8,52.8 		"/>
		<polyline class="st1" points="11,51.1 11,52.8 14,52.8 		"/>
		<polyline class="st1" points="7,54.2 7,55.9 10.1,55.9 		"/>
		<polyline class="st1" points="11.2,54.2 11.2,55.9 14.2,55.9 		"/>
		<polyline class="st1" points="7,57.1 7,58.7 10.1,58.7 		"/>
		<polyline class="st1" points="11.2,57.1 11.2,58.7 14.2,58.7 		"/>
		<polyline class="st1" points="25.4,31.8 25.4,33.5 28.4,33.5 		"/>
		<polyline class="st1" points="29.6,31.8 29.6,33.5 32.6,33.5 		"/>
		<polyline class="st1" points="17,31.9 17,33.5 20,33.5 		"/>
		<polyline class="st1" points="21.1,31.9 21.1,33.5 24.1,33.5 		"/>
		<polyline class="st1" points="25.3,35.3 25.3,36.9 28.4,36.9 		"/>
		<polyline class="st1" points="29.5,35.3 29.5,36.9 32.5,36.9 		"/>
		<polyline class="st1" points="16.9,35.3 16.9,37 19.9,37 		"/>
		<polyline class="st1" points="21.1,35.3 21.1,37 24.1,37 		"/>
		<polyline class="st1" points="25.3,38.6 25.3,40.3 28.4,40.3 		"/>
		<polyline class="st1" points="29.5,38.6 29.5,40.3 32.5,40.3 		"/>
		<polyline class="st1" points="16.9,38.6 16.9,40.3 19.9,40.3 		"/>
		<polyline class="st1" points="21.1,38.6 21.1,40.3 24.1,40.3 		"/>
		<polyline class="st1" points="25.3,41.7 25.3,43.3 28.4,43.3 		"/>
		<polyline class="st1" points="29.5,41.7 29.5,43.3 32.5,43.3 		"/>
		<polyline class="st1" points="16.9,41.7 16.9,43.4 19.9,43.4 		"/>
		<polyline class="st1" points="21.1,41.7 21.1,43.4 24.1,43.4 		"/>
		<line class="st1" x1="36.8" y1="45.9" x2="36.8" y2="47.6"/>
		<line class="st1" x1="36.8" y1="47.6" x2="39.8" y2="47.6"/>
		<polyline class="st1" points="41,45.9 41,47.6 44,47.6 		"/>
		<line class="st1" x1="36.8" y1="48.8" x2="36.8" y2="50.5"/>
		<line class="st1" x1="36.8" y1="50.5" x2="39.8" y2="50.5"/>
		<polyline class="st1" points="41,48.8 41,50.5 44,50.5 		"/>
	</g>
	<g>
		<polygon class="st2" points="32,28.9 32,28.1 32,27.5 32.1,27 32.2,26.5 32.3,26 32.4,25.5 32.5,25.1 32.7,24.7 32.9,24.4
			33.1,24 33.3,23.7 33.5,23.4 33.8,23.1 34,22.8 34.3,22.6 34.6,22.4 34.8,22.2 35.1,22 35.3,21.8 35.6,21.7 35.8,21.6 36.1,21.4
			36.3,21.3 36.5,21.3 36.7,21.2 36.9,21.1 37.1,21.1 37.2,21 37.4,21 37.5,20.9 37.6,20.9 31.8,20.9 31.7,20.9 31.6,21 31.4,21
			31.3,21.1 31.1,21.1 30.9,21.2 30.7,21.3 30.5,21.3 30.3,21.4 30,21.6 29.8,21.7 29.5,21.8 29.3,22 29,22.2 28.8,22.4 28.5,22.6
			28.2,22.8 28,23.1 27.8,23.4 27.5,23.7 27.3,24 27.1,24.4 26.9,24.7 26.7,25.1 26.6,25.5 26.5,26 26.4,26.5 26.3,27 26.2,27.2
			26.2,27.8 26.2,29.1 32,28.9 		"/>
		<polygon class="st3" points="32.4,28.1 31.6,28.1 31.6,28.9 32.4,28.9 32.4,28.1 32.4,28.1 32.4,28.1 32.4,28 32.4,28 32.4,27.9
			32.4,27.9 32.4,27.9 32.3,27.8 32.3,27.8 32.3,27.8 32.3,27.8 32.2,27.7 32.2,27.7 32.2,27.7 32.1,27.7 32.1,27.7 32.1,27.7
			32,27.7 32,27.7 32,27.7 31.9,27.7 31.9,27.7 31.8,27.7 31.8,27.7 31.8,27.8 31.8,27.8 31.7,27.8 31.7,27.8 31.7,27.9 31.7,27.9
			31.7,27.9 31.6,28 31.6,28 31.6,28.1 		"/>
		<polygon class="st3" points="37.6,21.3 37.5,20.5 37.5,20.6 37.3,20.6 37.1,20.6 37,20.7 36.8,20.7 36.6,20.8 36.4,20.9 36.2,21
			36,21 35.9,21.1 35.8,21.2 35.7,21.2 35.5,21.3 35.4,21.4 35.3,21.4 35.1,21.5 35,21.6 34.9,21.7 34.7,21.8 34.6,21.9 34.4,22
			34.3,22.1 34.2,22.2 34,22.3 33.9,22.4 33.8,22.6 33.6,22.7 33.5,22.8 33.4,23 33.2,23.1 33.1,23.3 33,23.5 32.9,23.6 32.8,23.8
			32.7,24 32.6,24.2 32.5,24.4 32.4,24.6 32.3,24.8 32.2,25 32.1,25.2 32,25.4 32,25.7 31.9,25.9 31.8,26.1 31.8,26.4 31.8,26.5
			31.7,26.7 31.7,26.8 31.7,26.9 31.7,27.1 31.7,27.2 31.7,27.3 31.7,27.5 31.6,27.6 31.6,27.8 31.6,27.9 31.6,28.1 32.4,28.1
			32.4,27.9 32.4,27.8 32.4,27.7 32.4,27.5 32.4,27.4 32.4,27.3 32.5,27.1 32.5,27 32.5,26.9 32.5,26.8 32.5,26.7 32.5,26.5
			32.6,26.3 32.6,26.1 32.7,25.9 32.8,25.7 32.8,25.5 32.9,25.3 33,25.1 33.1,24.9 33.1,24.7 33.2,24.5 33.3,24.4 33.4,24.2
			33.5,24.1 33.6,23.9 33.7,23.8 33.8,23.6 34,23.5 34.1,23.4 34.2,23.2 34.3,23.1 34.4,23 34.5,22.9 34.7,22.8 34.8,22.7
			34.9,22.6 35,22.5 35.2,22.4 35.3,22.3 35.4,22.2 35.5,22.2 35.7,22.1 35.8,22 35.9,22 36,21.9 36.1,21.8 36.2,21.8 36.4,21.7
			36.5,21.7 36.7,21.6 36.9,21.5 37,21.5 37.2,21.4 37.3,21.4 37.5,21.4 37.6,21.3 37.7,21.3 37.6,20.5 37.7,21.3 37.7,21.3
			37.8,21.3 37.8,21.3 37.8,21.2 37.9,21.2 37.9,21.2 37.9,21.2 37.9,21.1 38,21.1 38,21.1 38,21 38,21 38,21 38,20.9 38,20.9
			38,20.9 38,20.8 38,20.8 38,20.8 37.9,20.7 37.9,20.7 37.9,20.7 37.9,20.6 37.8,20.6 37.8,20.6 37.8,20.6 37.7,20.6 37.7,20.6
			37.7,20.5 37.6,20.5 37.6,20.5 37.5,20.5 		"/>
		<polygon class="st3" points="31.7,20.5 31.8,21.3 37.6,21.3 37.6,20.5 31.8,20.5 31.7,20.5 31.8,20.5 31.8,20.5 31.7,20.6
			31.7,20.6 31.6,20.6 31.6,20.6 31.6,20.6 31.5,20.6 31.5,20.7 31.5,20.7 31.5,20.7 31.5,20.7 31.4,20.8 31.4,20.8 31.4,20.9
			31.4,20.9 31.4,20.9 31.4,21 31.4,21 31.4,21 31.4,21.1 31.5,21.1 31.5,21.1 31.5,21.2 31.5,21.2 31.5,21.2 31.6,21.2 31.6,21.3
			31.6,21.3 31.7,21.3 31.7,21.3 31.8,21.3 31.8,21.3 		"/>
		<polygon class="st3" points="26.6,27.8 26.6,27.8 26.6,27.6 26.6,27.5 26.6,27.4 26.6,27.2 26.6,27.4 26.7,27.3 26.7,27.1
			26.7,27 26.7,26.9 26.7,26.8 26.7,26.7 26.7,26.5 26.8,26.4 26.8,26.3 26.8,26.2 26.8,26.1 26.9,25.9 27,25.7 27,25.5 27.1,25.3
			27.2,25.1 27.3,24.9 27.4,24.7 27.4,24.5 27.5,24.4 27.6,24.2 27.7,24.1 27.8,23.9 27.9,23.8 28.1,23.6 28.2,23.5 28.3,23.4
			28.4,23.2 28.5,23.1 28.6,23 28.8,22.9 28.9,22.8 29,22.7 29.1,22.6 29.2,22.5 29.4,22.4 29.5,22.3 29.6,22.2 29.7,22.2
			29.9,22.1 30,22 30.1,22 30.2,21.9 30.3,21.8 30.4,21.8 30.6,21.7 30.7,21.7 30.9,21.6 31.1,21.5 31.2,21.5 31.4,21.4 31.5,21.4
			31.7,21.4 31.8,21.3 31.9,21.3 31.7,20.5 31.7,20.6 31.5,20.6 31.3,20.6 31.2,20.7 31,20.7 30.8,20.8 30.6,20.9 30.4,21 30.2,21
			30.1,21.1 30,21.2 29.9,21.2 29.7,21.3 29.6,21.4 29.5,21.4 29.3,21.5 29.2,21.6 29.1,21.7 28.9,21.8 28.8,21.9 28.7,22
			28.5,22.1 28.4,22.2 28.2,22.3 28.1,22.4 28,22.6 27.8,22.7 27.7,22.8 27.6,23 27.5,23.1 27.3,23.3 27.2,23.5 27.1,23.6 27,23.8
			26.9,24 26.8,24.2 26.7,24.4 26.6,24.6 26.5,24.8 26.4,25 26.3,25.2 26.2,25.4 26.2,25.7 26.1,25.9 26.1,26 26,26.1 26,26.3
			26,26.4 26,26.5 25.9,26.7 25.9,26.8 25.9,26.9 25.9,27.1 25.9,27.2 25.9,27.3 25.9,27.5 25.9,27.3 25.8,27.5 25.8,27.6
			25.8,27.8 25.8,27.8 25.8,27.8 25.8,27.8 25.9,27.9 25.9,27.9 25.9,28 25.9,28 25.9,28 25.9,28 26,28.1 26,28.1 26,28.1
			26.1,28.1 26.1,28.1 26.1,28.2 26.2,28.2 26.2,28.2 26.2,28.2 26.3,28.2 26.3,28.2 26.3,28.2 26.4,28.1 26.4,28.1 26.4,28.1
			26.5,28.1 26.5,28.1 26.5,28 26.5,28 26.6,28 26.6,28 26.6,27.9 26.6,27.9 26.6,27.8 26.6,27.8 		"/>
		<polygon class="st3" points="26.3,29.5 26.6,29.1 26.6,27.8 25.8,27.8 25.8,29.1 26.3,29.5 25.8,29.1 25.8,29.2 25.9,29.2
			25.9,29.3 25.9,29.3 25.9,29.3 25.9,29.4 25.9,29.4 26,29.4 26,29.4 26,29.5 26.1,29.5 26.1,29.5 26.1,29.5 26.2,29.5 26.2,29.5
			26.2,29.5 26.3,29.5 26.3,29.5 26.3,29.5 26.4,29.5 26.4,29.5 26.4,29.5 26.5,29.4 26.5,29.4 26.5,29.4 26.5,29.4 26.6,29.3
			26.6,29.3 26.6,29.3 26.6,29.2 26.6,29.2 26.6,29.1 		"/>
		<polygon class="st3" points="32.4,28.9 32,28.5 26.2,28.8 26.3,29.5 32.1,29.3 32.4,28.9 32.1,29.3 32.1,29.3 32.1,29.3
			32.2,29.2 32.2,29.2 32.3,29.2 32.3,29.2 32.3,29.2 32.3,29.1 32.4,29.1 32.4,29.1 32.4,29 32.4,29 32.4,29 32.4,28.9 32.4,28.9
			32.4,28.9 32.4,28.8 32.4,28.8 32.4,28.8 32.4,28.7 32.4,28.7 32.3,28.7 32.3,28.6 32.3,28.6 32.3,28.6 32.2,28.6 32.2,28.5
			32.2,28.5 32.1,28.5 32.1,28.5 32,28.5 32,28.5 		"/>
		<rect class="st3" x="31.6" y="28.1" width="0.8" height="0.8"/>
		<rect class="st3" x="31.8" y="20.5" width="5.8" height="0.8"/>
		<rect class="st3" x="25.8" y="27.8" width="0.8" height="1.4"/>
		<polygon class="st2" points="31.5,20.9 38.4,20.9 39.1,21 39.8,21.2 40.4,21.5 41,21.8 41.6,22.1 42.1,22.6 42.6,23 43,23.6
			43.4,24.1 43.8,24.7 44.1,25.3 44.4,26 44.6,26.6 44.9,27.3 45.1,28 45.3,28.7 45.4,29.4 45.6,30.1 45.7,29.5 45.8,30.1
			45.9,30.8 45.9,31.4 46,31.9 46,32.4 46,30.2 46.1,30.7 46.1,31.1 46.1,31.4 46.1,31.8 46.1,32 46.5,32 52.1,32 42.6,41.4
			33.2,32 39.2,32 39.2,31.8 39.2,31.4 39.2,31 39.2,30.7 39.2,30.2 39.2,32.4 39.1,31.9 39.1,31.3 39,30.7 38.9,30.1 38.8,30.7
			38.7,30 38.6,29.3 38.4,28.6 38.2,27.9 38,27.2 37.8,26.5 37.5,25.9 37.2,25.2 36.9,24.6 36.5,24 36.1,23.5 35.7,22.9 35.2,22.5
			34.7,22.1 34.2,21.7 33.6,21.4 32.9,21.2 32.2,21 31.5,20.9 		"/>
		<polygon class="st3" points="38.4,20.5 38.4,20.5 31.5,20.5 31.5,21.3 38.4,21.3 38.4,20.5 38.4,21.3 38.4,21.3 38.4,21.3
			38.5,21.3 38.5,21.3 38.6,21.3 38.6,21.2 38.6,21.2 38.6,21.2 38.7,21.2 38.7,21.1 38.7,21.1 38.7,21.1 38.7,21 38.7,21 38.7,21
			38.7,20.9 38.7,20.9 38.7,20.9 38.7,20.8 38.7,20.8 38.7,20.7 38.7,20.7 38.7,20.7 38.6,20.7 38.6,20.6 38.6,20.6 38.6,20.6
			38.5,20.6 38.5,20.6 38.4,20.6 38.4,20.5 38.4,20.5 		"/>
		<polygon class="st3" points="46.1,31.6 46.5,32 46.5,31.8 46.5,31.4 46.5,31.1 46.4,30.7 46.4,30.2 46.4,32.4 46.4,32.2
			46.4,31.9 46.3,31.6 46.3,31.3 46.3,31 46.2,30.7 46.2,30.4 46.2,30.1 46.1,29.7 46.1,29.4 46,30.3 45.9,30 45.9,29.6 45.8,29.3
			45.7,28.9 45.6,28.6 45.6,28.2 45.5,27.9 45.4,27.5 45.2,27.2 45.2,27 45.1,26.9 45.1,26.7 45,26.5 44.9,26.3 44.9,26.2 44.8,26
			44.7,25.8 44.7,25.7 44.6,25.5 44.5,25.3 44.4,25.2 44.4,25 44.3,24.8 44.2,24.7 44.1,24.5 44,24.4 43.9,24.2 43.8,24.1
			43.7,23.9 43.6,23.8 43.5,23.6 43.4,23.5 43.3,23.3 43.2,23.2 43.1,23 43,22.9 42.9,22.8 42.7,22.6 42.6,22.5 42.5,22.4
			42.4,22.3 42.2,22.2 42.1,22 42,21.9 41.8,21.8 41.7,21.7 41.5,21.6 41.4,21.5 41.2,21.4 41.1,21.3 40.9,21.3 40.7,21.2
			40.6,21.1 40.4,21 40.3,21 40.1,20.9 39.9,20.8 39.7,20.8 39.5,20.7 39.4,20.7 39.2,20.6 39,20.6 38.8,20.6 38.6,20.6 38.4,20.5
			38.3,21.3 38.5,21.3 38.7,21.3 38.8,21.4 39,21.4 39.2,21.4 39.3,21.5 39.5,21.5 39.7,21.6 39.8,21.6 40,21.7 40.1,21.7
			40.3,21.8 40.4,21.9 40.6,21.9 40.7,22 40.8,22.1 41,22.2 41.1,22.3 41.2,22.3 41.3,22.4 41.5,22.5 41.6,22.6 41.7,22.7
			41.8,22.8 41.9,22.9 42.1,23.1 42.2,23.2 42.3,23.3 42.4,23.4 42.5,23.5 42.6,23.7 42.7,23.8 42.8,23.9 42.9,24.1 43,24.2
			43.1,24.3 43.2,24.5 43.2,24.6 43.3,24.7 43.4,24.9 43.5,25 43.6,25.2 43.7,25.3 43.7,25.5 43.8,25.7 43.9,25.8 44,26 44,26.1
			44.1,26.3 44.2,26.4 44.2,26.6 44.3,26.8 44.3,26.9 44.4,27.1 44.5,27.3 44.5,27.4 44.6,27.8 44.7,28.1 44.8,28.4 44.9,28.8
			45,29.1 45.1,29.5 45.1,29.8 45.2,30.1 45.2,30.5 45.3,29.5 45.4,29.9 45.4,30.2 45.4,30.5 45.5,30.8 45.5,31.1 45.5,31.4
			45.6,31.7 45.6,32 45.6,32.2 45.6,32.5 45.7,30.3 45.7,30.7 45.7,31.1 45.7,31.4 45.7,31.8 45.7,32 46.1,32.4 45.7,32 45.7,32
			45.7,32.1 45.7,32.1 45.7,32.2 45.7,32.2 45.8,32.2 45.8,32.3 45.8,32.3 45.8,32.3 45.9,32.3 45.9,32.3 45.9,32.4 46,32.4
			46,32.4 46,32.4 46.1,32.4 46.1,32.4 46.1,32.4 46.2,32.4 46.2,32.4 46.2,32.4 46.3,32.3 46.3,32.3 46.3,32.3 46.4,32.3
			46.4,32.3 46.4,32.2 46.4,32.2 46.4,32.1 46.5,32.1 46.5,32.1 46.5,32 		"/>
		<polygon class="st3" points="46.5,32.4 46.5,31.6 46.1,31.6 46.1,32.4 46.5,32.4 46.5,32.4 46.5,32.4 46.6,32.4 46.6,32.4
			46.6,32.4 46.7,32.4 46.7,32.3 46.7,32.3 46.8,32.3 46.8,32.3 46.8,32.2 46.8,32.2 46.9,32.2 46.9,32.1 46.9,32.1 46.9,32.1
			46.9,32 46.9,32 46.9,32 46.9,31.9 46.9,31.9 46.9,31.9 46.9,31.8 46.8,31.8 46.8,31.8 46.8,31.7 46.8,31.7 46.7,31.7 46.7,31.7
			46.7,31.7 46.6,31.6 46.6,31.6 46.6,31.6 46.5,31.6 		"/>
		<polygon class="st3" points="52.4,32.3 52.1,31.6 46.5,31.6 46.5,32.4 52.1,32.4 52.4,32.3 52.1,32.4 52.1,32.4 52.2,32.4
			52.2,32.4 52.3,32.4 52.3,32.3 52.3,32.3 52.3,32.3 52.4,32.3 52.4,32.2 52.4,32.2 52.4,32.2 52.4,32.1 52.5,32.1 52.5,32.1
			52.5,32 52.5,32 52.5,32 52.5,31.9 52.5,31.9 52.4,31.9 52.4,31.8 52.4,31.8 52.4,31.8 52.4,31.7 52.3,31.7 52.3,31.7 52.3,31.7
			52.3,31.7 52.2,31.6 52.2,31.6 52.1,31.6 52.1,31.6 		"/>
		<polygon class="st3" points="42.4,41.7 42.9,41.7 52.4,32.3 51.8,31.7 42.4,41.1 42.4,41.7 42.4,41.1 42.3,41.1 42.3,41.2
			42.3,41.2 42.3,41.3 42.3,41.3 42.3,41.3 42.2,41.4 42.2,41.4 42.3,41.4 42.3,41.5 42.3,41.5 42.3,41.5 42.3,41.6 42.3,41.6
			42.3,41.6 42.4,41.7 42.4,41.7 42.4,41.7 42.5,41.7 42.5,41.7 42.5,41.8 42.6,41.8 42.6,41.8 42.6,41.8 42.7,41.8 42.7,41.8
			42.7,41.8 42.8,41.8 42.8,41.7 42.8,41.7 42.9,41.7 42.9,41.7 		"/>
		<polygon class="st3" points="33.2,31.6 32.9,32.3 42.4,41.7 42.9,41.1 33.5,31.7 33.2,31.6 33.5,31.7 33.4,31.7 33.4,31.7
			33.4,31.7 33.3,31.6 33.3,31.6 33.3,31.6 33.2,31.6 33.2,31.6 33.2,31.6 33.1,31.6 33.1,31.6 33,31.7 33,31.7 33,31.7 33,31.7
			32.9,31.7 32.9,31.8 32.9,31.8 32.9,31.8 32.8,31.9 32.8,31.9 32.8,31.9 32.8,32 32.8,32 32.8,32 32.8,32.1 32.8,32.1 32.8,32.1
			32.9,32.2 32.9,32.2 32.9,32.2 32.9,32.3 		"/>
		<polygon class="st3" points="39.6,32 39.2,31.6 33.2,31.6 33.2,32.4 39.2,32.4 39.6,32 39.2,32.4 39.3,32.4 39.3,32.4 39.3,32.4
			39.4,32.4 39.4,32.3 39.4,32.3 39.5,32.3 39.5,32.3 39.5,32.2 39.5,32.2 39.6,32.2 39.6,32.1 39.6,32.1 39.6,32.1 39.6,32
			39.6,32 39.6,32 39.6,31.9 39.6,31.9 39.6,31.9 39.6,31.8 39.5,31.8 39.5,31.8 39.5,31.7 39.5,31.7 39.4,31.7 39.4,31.7
			39.4,31.7 39.3,31.6 39.3,31.6 39.3,31.6 39.2,31.6 		"/>
		<polygon class="st3" points="31.5,20.5 31.5,21.3 31.6,21.3 31.8,21.3 32,21.4 32.2,21.4 32.3,21.4 32.5,21.4 32.7,21.5
			32.8,21.5 33,21.6 33.1,21.6 33.3,21.7 33.4,21.7 33.6,21.8 33.7,21.9 33.8,22 34,22 34.1,22.1 34.2,22.2 34.4,22.3 34.5,22.4
			34.6,22.5 34.7,22.6 34.9,22.7 35,22.8 35.1,22.9 35.2,23 35.3,23.1 35.4,23.2 35.5,23.3 35.6,23.4 35.7,23.6 35.8,23.7
			35.9,23.8 36,23.9 36.1,24.1 36.2,24.2 36.3,24.4 36.4,24.5 36.5,24.6 36.6,24.8 36.6,24.9 36.7,25.1 36.8,25.2 36.9,25.4
			36.9,25.5 37,25.7 37.1,25.9 37.2,26 37.2,26.2 37.3,26.3 37.4,26.5 37.4,26.7 37.5,26.8 37.5,27 37.6,27.2 37.6,27.3 37.8,27.7
			37.9,28 37.9,28.3 38,28.7 38.1,29 38.2,29.4 38.3,29.7 38.3,30 38.4,30.4 38.4,29.5 38.5,29.8 38.5,30.1 38.6,30.4 38.6,30.7
			38.6,31 38.7,31.3 38.7,31.6 38.7,31.9 38.7,32.2 38.8,32.4 38.8,30.2 38.8,30.7 38.8,31.1 38.8,31.4 38.8,31.8 38.8,32 39.6,32
			39.6,31.8 39.6,31.4 39.6,31 39.6,30.6 39.6,32.9 39.5,32.4 39.5,32.1 39.5,31.9 39.5,31.6 39.4,31.3 39.4,31 39.4,30.7
			39.3,30.3 39.3,30 39.3,29.7 39.2,30.6 39.1,30.3 39.1,29.9 39,29.6 38.9,29.2 38.9,28.9 38.8,28.5 38.7,28.2 38.6,27.8
			38.5,27.4 38.4,27.1 38.3,26.9 38.3,26.8 38.2,26.6 38.1,26.4 38.1,26.2 38,26.1 37.9,25.9 37.9,25.7 37.8,25.6 37.7,25.4
			37.6,25.2 37.6,25.1 37.5,24.9 37.4,24.7 37.3,24.6 37.2,24.4 37.1,24.3 37,24.1 37,23.9 36.9,23.8 36.8,23.7 36.7,23.5
			36.5,23.4 36.4,23.2 36.3,23.1 36.2,22.9 36.1,22.8 36,22.7 35.9,22.6 35.7,22.4 35.6,22.3 35.5,22.2 35.4,22.1 35.2,22
			35.1,21.9 34.9,21.7 34.8,21.6 34.7,21.5 34.5,21.5 34.4,21.4 34.2,21.3 34,21.2 33.9,21.1 33.7,21 33.5,21 33.4,20.9 33.2,20.8
			33,20.8 32.8,20.7 32.7,20.7 32.5,20.7 32.3,20.6 32.1,20.6 31.9,20.6 31.7,20.6 31.5,20.5 31.5,21.3 31.5,20.5 31.5,20.5
			31.4,20.5 31.4,20.6 31.3,20.6 31.3,20.6 31.3,20.6 31.2,20.6 31.2,20.6 31.2,20.7 31.2,20.7 31.1,20.7 31.1,20.8 31.1,20.8
			31.1,20.8 31.1,20.9 31.1,20.9 31.1,20.9 31.1,21 31.1,21 31.1,21 31.1,21.1 31.1,21.1 31.2,21.1 31.2,21.2 31.2,21.2 31.2,21.2
			31.3,21.2 31.3,21.3 31.3,21.3 31.4,21.3 31.4,21.3 31.5,21.3 		"/>
	</g>
	<g>
		<polygon class="st4" points="25.5,69.4 18.6,69.4 17.9,69.3 17.2,69.1 16.6,68.9 16,68.6 15.4,68.2 14.9,67.8 14.4,67.3 14,66.8
			13.6,66.2 13.2,65.6 12.9,65 12.6,64.4 12.4,63.7 12.1,63 11.9,62.3 11.7,61.6 11.6,61 11.4,60.3 11.3,59.6 11.2,59 11.1,58.3
			11.1,57.7 11,61.2 11,60.7 11,60.2 10.9,59.8 10.9,59.4 10.9,59.1 10.9,58.6 10.9,58.4 10.5,58.4 4.9,58.4 14.4,49.1 23.8,58.4
			17.8,58.4 17.8,58.6 17.8,59.1 17.8,59.4 17.8,59.8 17.8,60.2 17.9,60.7 17.9,61.3 17.9,57.8 18,58.4 18.1,59 18.2,59.7
			18.3,60.4 18.4,61 18.6,61.7 18.8,62.4 19,63.1 19.2,63.8 19.5,64.5 19.8,65.1 20.1,65.7 20.5,66.3 20.9,66.9 21.3,67.4
			21.8,67.9 22.3,68.3 22.8,68.6 23.4,68.9 24.1,69.2 24.8,69.3 25.5,69.4 		"/>
		<path class="st5" d="M29.2,66.8c-0.9,1.8-3.9,2.8-3.9,2.8c-1.3-0.1-2.9-1.3-2.9-1.3l1.3-1.5"/>
	</g>
</g>
</svg>
