<?xml version="1.0" encoding="utf-8"?>
<!-- Generator: Adobe Illustrator 20.1.0, SVG Export Plug-In . SVG Version: 6.00 Build 0)  -->
<svg version="1.1" id="Layer_1" xmlns="http://www.w3.org/2000/svg" xmlns:xlink="http://www.w3.org/1999/xlink" x="0px" y="0px"
	 viewBox="0 0 99.6 68.1" style="enable-background:new 0 0 99.6 68.1;" xml:space="preserve">
<style type="text/css">
	.st0{fill:#00A2E1;}
	.st1{fill:none;stroke:#A9D8F1;stroke-width:0.9542;stroke-linecap:square;stroke-linejoin:bevel;stroke-miterlimit:10;}
	.st2{fill:#00B1E6;}
	.st3{fill:#00789D;}
	.st4{fill:#070708;}
	.st5{fill:#FFFFFF;}
	.st6{fill:#007CA3;}
	.st7{fill:none;stroke:#83C9EF;stroke-width:1.4314;stroke-linecap:square;stroke-miterlimit:10;}
	.st8{fill:none;stroke:#FFFFFF;stroke-width:0.4772;stroke-linecap:square;stroke-miterlimit:10;}
	.st9{fill:#0089BC;}
	.st10{fill:none;}
	.st11{fill:#0089BC;stroke:#FFFFFF;stroke-width:0.8;}
	.st12{fill:none;stroke:#FFFFFF;stroke-width:0.8;}
</style>
<g>
	<polygon class="st0" points="0.5,8.1 0.5,67.6 91.8,67.6 91.8,8.1 0.5,8.1 0.5,8.1 	"/>
	<polygon class="st1" points="0.5,8.1 0.5,67.6 91.8,67.6 91.8,8.1 0.5,8.1 0.5,8.1 	"/>
	<polygon class="st2" points="0.5,8.1 7.8,0.5 99.1,0.5 91.8,8.1 0.5,8.1 0.5,8.1 	"/>
	<polygon class="st1" points="0.5,8.1 7.8,0.5 99.1,0.5 91.8,8.1 0.5,8.1 0.5,8.1 	"/>
	<polygon class="st3" points="91.8,8.1 99.1,0.5 99.1,60 91.8,67.6 91.8,8.1 91.8,8.1 	"/>
	<polygon class="st1" points="91.8,8.1 99.1,0.5 99.1,60 91.8,67.6 91.8,8.1 91.8,8.1 	"/>
	<polygon class="st4" points="73.8,21 73.8,17.5 82,23.4 73.8,29.2 73.8,25.7 62.6,25.7 62.6,21 73.8,21 73.8,21 	"/>
	<polygon class="st4" points="28,50.7 28,47.2 36.2,53 28,58.9 28,55.4 6.7,55.4 6.7,50.7 28,50.7 28,50.7 	"/>
	<polygon class="st4" points="73.8,50.9 73.8,47.4 82,53.3 73.8,59.1 73.8,55.6 62.6,55.6 62.6,50.9 73.8,50.9 73.8,50.9 	"/>
	<polygon class="st5" points="72.6,19.8 72.6,16.6 80.9,22.2 72.6,28 72.6,24.5 61.4,24.5 61.4,19.8 72.6,19.8 72.6,19.8 	"/>
	<polygon class="st5" points="26.8,49.5 26.8,46 35,51.9 26.8,57.7 26.8,54.2 5.8,54.2 5.8,49.5 26.8,49.5 26.8,49.5 	"/>
	<polygon class="st4" points="81.2,36 81.2,32.4 89.7,38.3 81.2,44.2 81.2,40.6 62.3,40.6 62.3,36 81.2,36 81.2,36 	"/>
	<polygon class="st5" points="80.3,34.8 80.3,31.3 88.5,37.1 80.3,43 80.3,39.5 61.1,39.5 61.1,34.8 80.3,34.8 80.3,34.8 	"/>
	<polygon class="st5" points="72.6,49.7 72.6,46.2 80.9,52.1 72.6,57.9 72.6,54.4 61.4,54.4 61.4,49.7 72.6,49.7 72.6,49.7 	"/>
	<polygon class="st6" points="58.5,13.1 58.5,62.6 36.7,62.6 36.7,13.1 58.5,13.1 	"/>
	<polygon class="st7" points="58.5,13.1 58.5,62.6 36.7,62.6 36.7,13.1 58.5,13.1 	"/>
	<polygon class="st5" points="52.6,51.2 52.6,57.9 43.2,57.9 43.2,51.2 52.6,51.2 	"/>
	<polygon class="st8" points="52.6,51.2 52.6,57.9 43.2,57.9 43.2,51.2 52.6,51.2 	"/>
	<polygon class="st5" points="57,57.9 57,60 55.2,60 55.2,57.9 57,57.9 	"/>
	<polygon class="st8" points="57,57.9 57,60 55.2,60 55.2,57.9 57,57.9 	"/>
	<polygon class="st5" points="57,53.8 57,55.9 55.2,55.9 55.2,53.8 57,53.8 	"/>
	<polygon class="st8" points="57,53.8 57,55.9 55.2,55.9 55.2,53.8 57,53.8 	"/>
	<polygon class="st5" points="57,49.7 57,51.8 55.2,51.8 55.2,49.7 57,49.7 	"/>
	<polygon class="st8" points="57,49.7 57,51.8 55.2,51.8 55.2,49.7 57,49.7 	"/>
	<polygon class="st5" points="57,45.9 57,47.7 55.2,47.7 55.2,45.9 57,45.9 	"/>
	<polygon class="st8" points="57,45.9 57,47.7 55.2,47.7 55.2,45.9 57,45.9 	"/>
	<polygon class="st5" points="57,41.8 57,43.6 55.2,43.6 55.2,41.8 57,41.8 	"/>
	<polygon class="st8" points="57,41.8 57,43.6 55.2,43.6 55.2,41.8 57,41.8 	"/>
	<polygon class="st5" points="57,37.7 57,39.8 55.2,39.8 55.2,37.7 57,37.7 	"/>
	<polygon class="st8" points="57,37.7 57,39.8 55.2,39.8 55.2,37.7 57,37.7 	"/>
	<polygon class="st5" points="57,33.6 57,35.7 55.2,35.7 55.2,33.6 57,33.6 	"/>
	<polygon class="st8" points="57,33.6 57,35.7 55.2,35.7 55.2,33.6 57,33.6 	"/>
	<polygon class="st5" points="57,29.5 57,31.6 55.2,31.6 55.2,29.5 57,29.5 	"/>
	<polygon class="st8" points="57,29.5 57,31.6 55.2,31.6 55.2,29.5 57,29.5 	"/>
	<polygon class="st5" points="57,25.4 57,27.5 55.2,27.5 55.2,25.4 57,25.4 	"/>
	<polygon class="st8" points="57,25.4 57,27.5 55.2,27.5 55.2,25.4 57,25.4 	"/>
	<polygon class="st5" points="57,21.6 57,23.4 55.2,23.4 55.2,21.6 57,21.6 	"/>
	<polygon class="st8" points="57,21.6 57,23.4 55.2,23.4 55.2,21.6 57,21.6 	"/>
	<polygon class="st5" points="57,17.5 57,19.2 55.2,19.5 55.2,17.5 57,17.5 	"/>
	<polygon class="st8" points="57,17.5 57,19.2 55.2,19.5 55.2,17.5 57,17.5 	"/>
	<polygon class="st5" points="40.5,57.9 40.5,60 38.7,60 38.7,57.9 40.5,57.9 	"/>
	<polygon class="st8" points="40.5,57.9 40.5,60 38.7,60 38.7,57.9 40.5,57.9 	"/>
	<polygon class="st5" points="40.5,53.8 40.5,55.9 38.7,55.9 38.7,53.8 40.5,53.8 	"/>
	<polygon class="st8" points="40.5,53.8 40.5,55.9 38.7,55.9 38.7,53.8 40.5,53.8 	"/>
	<polygon class="st5" points="40.5,49.7 40.5,51.8 38.7,51.8 38.7,49.7 40.5,49.7 	"/>
	<polygon class="st8" points="40.5,49.7 40.5,51.8 38.7,51.8 38.7,49.7 40.5,49.7 	"/>
	<polygon class="st5" points="40.5,45.9 40.5,47.7 38.7,47.7 38.7,45.9 40.5,45.9 	"/>
	<polygon class="st8" points="40.5,45.9 40.5,47.7 38.7,47.7 38.7,45.9 40.5,45.9 	"/>
	<polygon class="st5" points="40.5,41.8 40.5,43.6 38.7,43.6 38.7,41.8 40.5,41.8 	"/>
	<polygon class="st8" points="40.5,41.8 40.5,43.6 38.7,43.6 38.7,41.8 40.5,41.8 	"/>
	<polygon class="st5" points="40.5,37.7 40.5,39.8 38.7,39.8 38.7,37.7 40.5,37.7 	"/>
	<polygon class="st8" points="40.5,37.7 40.5,39.8 38.7,39.8 38.7,37.7 40.5,37.7 	"/>
	<polygon class="st5" points="40.5,33.6 40.5,35.7 38.7,35.7 38.7,33.6 40.5,33.6 	"/>
	<polygon class="st8" points="40.5,33.6 40.5,35.7 38.7,35.7 38.7,33.6 40.5,33.6 	"/>
	<polygon class="st5" points="40.5,29.5 40.5,31.6 38.7,31.6 38.7,29.5 40.5,29.5 	"/>
	<polygon class="st8" points="40.5,29.5 40.5,31.6 38.7,31.6 38.7,29.5 40.5,29.5 	"/>
	<polygon class="st5" points="40.5,25.4 40.5,27.5 38.7,27.5 38.7,25.4 40.5,25.4 	"/>
	<polygon class="st8" points="40.5,25.4 40.5,27.5 38.7,27.5 38.7,25.4 40.5,25.4 	"/>
	<polygon class="st5" points="40.5,21.6 40.5,23.4 38.7,23.4 38.7,21.6 40.5,21.6 	"/>
	<polygon class="st8" points="40.5,21.6 40.5,23.4 38.7,23.4 38.7,21.6 40.5,21.6 	"/>
	<polygon class="st5" points="40.5,17.5 40.5,19.5 38.7,19.5 38.7,17.5 40.5,17.5 	"/>
	<polygon class="st8" points="40.5,17.5 40.5,19.5 38.7,19.5 38.7,17.5 40.5,17.5 	"/>
	<polygon class="st5" points="52.6,40.4 52.6,47.1 43.2,47.1 43.2,40.4 52.6,40.4 	"/>
	<polygon class="st8" points="52.6,40.4 52.6,47.1 43.2,47.1 43.2,40.4 52.6,40.4 	"/>
	<polygon class="st5" points="52.6,29.5 52.6,36.2 43.2,36.2 43.2,29.5 52.6,29.5 	"/>
	<polygon class="st8" points="52.6,29.5 52.6,36.2 43.2,36.2 43.2,29.5 52.6,29.5 	"/>
	<polygon class="st5" points="52.6,19 52.6,25.4 43.2,25.4 43.2,19 52.6,19 	"/>
	<polygon class="st8" points="52.6,19 52.6,25.4 43.2,25.4 43.2,19 52.6,19 	"/>
</g>
<g>
	<g>
		<g>
			<path class="st9" d="M27.7,26.3c0.3-1,1.5-6.2,1.5-7c0.1-0.7-0.2-1.6-0.6-1.8c0-0.3,0-0.4,0-0.4c-0.1,0-0.2-0.1-0.3-0.1l0,0
				c0,0,0.3-1.2,0.4-2c0.3-1.5,0.3-2.3,0.3-2.3c0-0.2-0.1-0.4-0.3-0.5L27.8,12c-0.2-0.1-0.3,0.1-0.5,0.3c0,0-0.3,0.7-0.8,2.2
				c-0.3,0.8-0.5,1.8-0.5,1.8l0,0c-0.5-0.2-1.1-0.3-1.6-0.5c-1.4-0.4-2.8-0.7-4.2-0.9c0,0-0.1,0.1-0.2,0.4l0,0
				c-0.4,0-1.1,0.6-1.4,1.3c-0.3,0.6-2,5.7-2.3,6.8c-0.3,1-0.8,3.7-1.1,5c-0.2,1.3-0.5,3.6-1.3,6.7c-0.5,1.8-1.3,4.5-1.7,5.6
				c-0.1,0.3-1,1.8,0.3,2.3s3.1,1,4.1,1.3s2.8,0.8,4.2,1s1.4-1.5,1.4-1.8c0.2-1.2,0.9-3.9,1.4-5.7c0.8-3.1,1.8-5.2,2.3-6.4
				C26.5,29.9,27.4,27.3,27.7,26.3z"/>
		</g>
		<path class="st9" d="M27.8,12.7c0,0-0.4-0.1-0.8-0.2c-0.3-0.1-0.8-0.2-0.8-0.2"/>
		<g>
			<path class="st9" d="M26.3,26.4c0.3-1,1.5-6.2,1.5-7c0.1-0.7-0.2-1.6-0.6-1.8c0-0.3,0-0.4,0-0.4c-0.1,0-0.2-0.1-0.3-0.1l0,0
				c0,0,0.3-1.2,0.4-2c0.3-1.5,0.3-2.3,0.3-2.3c0-0.2-0.1-0.4-0.3-0.5l-0.9-0.2c-0.2-0.1-0.3,0.1-0.5,0.3c0,0-0.3,0.7-0.8,2.2
				c-0.3,0.8-0.5,1.8-0.5,1.8l0,0c-0.5-0.2-1.1-0.3-1.6-0.5c-1.4-0.4-2.8-0.7-4.2-0.9c0,0-0.1,0.1-0.2,0.4l0,0
				c-0.4,0-1.1,0.6-1.4,1.3c-0.3,0.6-2,5.7-2.3,6.8c-0.3,1-0.8,3.7-1.1,5c-0.2,1.3-0.5,3.6-1.3,6.7c-0.5,1.8-1.3,4.5-1.7,5.6
				c-0.1,0.3-1,1.8,0.3,2.3s3.1,1,4.1,1.3s2.8,0.8,4.2,1s1.4-1.5,1.4-1.8c0.2-1.2,0.9-3.9,1.4-5.7c0.8-3.1,1.8-5.2,2.3-6.4
				C25.2,30,26,27.4,26.3,26.4z"/>
		</g>
		<path class="st9" d="M16.5,33.7c-0.1,0.5-0.7,0.8-1.2,0.7s-0.8-0.7-0.7-1.2s0.7-0.8,1.2-0.7C16.3,32.6,16.6,33.2,16.5,33.7z"/>
		<path class="st9" d="M19,34.8c-0.1,0.5-0.7,0.8-1.2,0.7s-0.8-0.7-0.7-1.2c0.1-0.5,0.7-0.8,1.2-0.7C18.9,33.7,19.2,34.2,19,34.8z"
			/>
		<path class="st9" d="M21.7,35.1c-0.1,0.5-0.7,0.8-1.2,0.7s-0.8-0.7-0.7-1.2c0.1-0.5,0.7-0.8,1.2-0.7
			C21.6,34.1,21.9,34.6,21.7,35.1z"/>
		<path class="st9" d="M15.9,35.9c-0.2,0.5-0.7,0.8-1.2,0.7s-0.8-0.7-0.7-1.2s0.7-0.8,1.2-0.7C15.7,34.8,16,35.4,15.9,35.9z"/>
		<path class="st9" d="M18.4,37c-0.1,0.5-0.7,0.8-1.2,0.7s-0.8-0.7-0.7-1.2c0.1-0.5,0.7-0.8,1.2-0.7C18.3,35.9,18.6,36.4,18.4,37z"
			/>
		<path class="st9" d="M21.1,37.3c-0.1,0.5-0.7,0.8-1.2,0.7s-0.8-0.7-0.7-1.2c0.1-0.5,0.7-0.8,1.2-0.7C21,36.3,21.3,36.8,21.1,37.3z
			"/>
		<path class="st9" d="M15.3,38.1c-0.1,0.5-0.7,0.8-1.2,0.7s-0.8-0.7-0.7-1.2s0.7-0.8,1.2-0.7C15.1,37,15.4,37.6,15.3,38.1z"/>
		<path class="st9" d="M17.8,39.2c-0.1,0.5-0.7,0.8-1.2,0.7s-0.8-0.7-0.7-1.2s0.7-0.8,1.2-0.7C17.6,38.1,18,38.6,17.8,39.2z"/>
		<path class="st9" d="M20.5,39.5c-0.1,0.5-0.7,0.8-1.2,0.7s-0.8-0.7-0.7-1.2c0.1-0.5,0.7-0.8,1.2-0.7C20.4,38.5,20.7,39,20.5,39.5z
			"/>
		<path class="st9" d="M14.7,40.3c-0.1,0.5-0.7,0.8-1.2,0.7s-0.8-0.7-0.7-1.2s0.7-0.8,1.2-0.7S14.8,39.8,14.7,40.3z M17.2,41.4
			c-0.1,0.5-0.7,0.8-1.2,0.7s-0.8-0.7-0.7-1.2s0.7-0.8,1.2-0.7C17,40.3,17.3,40.8,17.2,41.4z"/>
		<path class="st9" d="M19.9,41.8c-0.1,0.5-0.7,0.8-1.2,0.7s-0.8-0.7-0.7-1.2c0.1-0.5,0.7-0.8,1.2-0.7
			C19.8,40.7,20.1,41.2,19.9,41.8z"/>
		<path class="st9" d="M15.9,42.9c0,0-0.1,0.1-0.2,0c-0.1,0-0.2-0.1-0.1-0.1c0,0,0.1-0.1,0.2,0C15.9,42.7,15.9,42.8,15.9,42.9z
			 M15.6,42.8l-0.3,1.1 M15.6,42.9L15.3,44 M15.9,42.9L15.6,44 M15.8,42.9L15.5,44 M17.9,26.3l-0.2,0.8 M18,26.3l-0.2,0.8
			 M22.5,27.5l-0.2,0.8 M22.4,27.5l-0.2,0.8"/>
		<path class="st9" d="M27,17.1c0,0,0.3-1.2,0.4-2c0.3-1.5,0.3-2.3,0.3-2.3c0-0.2-0.1-0.4-0.3-0.5l-0.9-0.2
			c-0.2-0.1-0.3,0.1-0.5,0.3c0,0-0.3,0.7-0.8,2.2c-0.3,0.8-0.5,1.8-0.5,1.8 M24.5,27.7C24.4,27.9,24.2,28,24,28l-7.7-2.1
			c-0.2-0.1-0.3-0.3-0.3-0.5l1.3-4.9c0.1-0.2,0.3-0.3,0.5-0.3l7.7,2.1c0.2,0.1,0.3,0.3,0.3,0.5L24.5,27.7z M27.1,16.7
			c-0.7-0.3-1.5-0.5-2.2-0.8 M19.2,14.9c0,0-1.8,3.8-2.9,7.6c-1.3,4.5-1.4,6.1-1.2,8.2c0,0.4,0.5,1,1,1.1c0.2,0.1,0.4,0.1,0.5,0.1
			s0.4,0.1,0.7,0.3c0.3,0.2,0.4,0.3,0.5,0.4c0.2,0.1,0.2,0.2,0.7,0.3s0.6,0.1,0.7,0.1c0.2,0,0.3,0,0.7-0.1c0.4,0,0.7,0.1,0.8,0.1
			c0.1,0,0.3,0.1,0.5,0.1c0.5,0.1,1.1-0.1,1.4-0.5c1.2-1.7,1.9-3.1,3.1-7.7c1.1-3.8,1.4-8,1.4-8 M18.1,16.8c1.5,0.2,3.1,0.6,4.6,1
			s3,0.9,4.4,1.5"/>
		<path class="st9" d="M21.4,30.7c-0.3,1.2-1.6,1.9-2.8,1.6c-1.2-0.3-1.9-1.6-1.6-2.8s1.6-1.9,2.8-1.6C21,28.3,21.7,29.5,21.4,30.7z
			 M17.3,27.1c0.3,0.1,0.5,0.2,0.6,0.3s0.1,0.2,0.1,0.2c-0.1,0.1-0.3,0.2-0.4,0.3s-0.2,0.1-0.4,0c-0.3-0.2-0.9-0.6-1.1-0.8
			c-0.1-0.1,0-0.1,0.2-0.2C16.5,26.9,17,27,17.3,27.1z M15.7,29.4c0.2,0.1,0.6,0.3,0.7,0.3c0.1,0.1,0.3,0.3,0.3,0.5
			c0,0.3,0,0.8,0.1,1s0.1,0.3-0.1,0.3s-0.6-0.2-0.7-0.2c-0.1-0.1-0.3-0.2-0.4-0.3c-0.1-0.4-0.1-1.1-0.1-1.4
			C15.6,29.4,15.6,29.4,15.7,29.4z"/>
		<path class="st9" d="M22.5,28.5c-0.3-0.1-0.6-0.1-0.7-0.1s-0.2,0.1-0.2,0.2c0.1,0.1,0.1,0.3,0.2,0.4c0,0.1,0.1,0.2,0.3,0.2
			c0.3,0,1.1-0.1,1.4-0.2c0.1-0.1,0.1-0.1-0.1-0.2C23.3,28.7,22.9,28.6,22.5,28.5z M22.7,31.3c-0.2,0-0.6-0.1-0.8-0.1
			c-0.1,0-0.4,0.1-0.5,0.3s-0.4,0.7-0.6,0.8s-0.3,0.2-0.1,0.3c0.2,0.1,0.6,0.1,0.8,0.2c0.1,0,0.3,0,0.5-0.1c0.3-0.2,0.7-0.8,0.8-1.2
			C22.8,31.4,22.8,31.4,22.7,31.3z"/>
		<line class="st10" x1="22.3" y1="18.4" x2="23" y2="15.8"/>
		<line class="st10" x1="22.6" y1="18.5" x2="23.3" y2="15.8"/>
	</g>
	<g>
		<g>
			<path class="st9" d="M27.7,26.3c0.3-1,1.5-6.2,1.5-7c0.1-0.7-0.2-1.6-0.6-1.8c0-0.3,0-0.4,0-0.4c-0.1,0-0.2-0.1-0.3-0.1l0,0
				c0,0,0.3-1.2,0.4-2c0.3-1.5,0.3-2.3,0.3-2.3c0-0.2-0.1-0.4-0.3-0.5L27.8,12c-0.2-0.1-0.3,0.1-0.5,0.3c0,0-0.3,0.7-0.8,2.2
				c-0.3,0.8-0.5,1.8-0.5,1.8l0,0c-0.5-0.2-1.1-0.3-1.6-0.5c-1.4-0.4-2.8-0.7-4.2-0.9c0,0-0.1,0.1-0.2,0.4l0,0
				c-0.4,0-1.1,0.6-1.4,1.3c-0.3,0.6-2,5.7-2.3,6.8c-0.3,1-0.8,3.7-1.1,5c-0.2,1.3-0.5,3.6-1.3,6.7c-0.5,1.8-1.3,4.5-1.7,5.6
				c-0.1,0.3-1,1.8,0.3,2.3s3.1,1,4.1,1.3s2.8,0.8,4.2,1s1.4-1.5,1.4-1.8c0.2-1.2,0.9-3.9,1.4-5.7c0.8-3.1,1.8-5.2,2.3-6.4
				C26.5,29.9,27.4,27.3,27.7,26.3z"/>
		</g>
		<path class="st11" d="M27.8,12.7c0,0-0.4-0.1-0.8-0.2c-0.3-0.1-0.8-0.2-0.8-0.2"/>
		<g>
			<path class="st11" d="M26.3,26.4c0.3-1,1.5-6.2,1.5-7c0.1-0.7-0.2-1.6-0.6-1.8c0-0.3,0-0.4,0-0.4c-0.1,0-0.2-0.1-0.3-0.1l0,0
				c0,0,0.3-1.2,0.4-2c0.3-1.5,0.3-2.3,0.3-2.3c0-0.2-0.1-0.4-0.3-0.5l-0.9-0.2c-0.2-0.1-0.3,0.1-0.5,0.3c0,0-0.3,0.7-0.8,2.2
				c-0.3,0.8-0.5,1.8-0.5,1.8l0,0c-0.5-0.2-1.1-0.3-1.6-0.5c-1.4-0.4-2.8-0.7-4.2-0.9c0,0-0.1,0.1-0.2,0.4l0,0
				c-0.4,0-1.1,0.6-1.4,1.3c-0.3,0.6-2,5.7-2.3,6.8c-0.3,1-0.8,3.7-1.1,5c-0.2,1.3-0.5,3.6-1.3,6.7c-0.5,1.8-1.3,4.5-1.7,5.6
				c-0.1,0.3-1,1.8,0.3,2.3s3.1,1,4.1,1.3s2.8,0.8,4.2,1s1.4-1.5,1.4-1.8c0.2-1.2,0.9-3.9,1.4-5.7c0.8-3.1,1.8-5.2,2.3-6.4
				C25.2,30,26,27.4,26.3,26.4z"/>
		</g>
		<path class="st11" d="M16.5,33.7c-0.1,0.5-0.7,0.8-1.2,0.7s-0.8-0.7-0.7-1.2s0.7-0.8,1.2-0.7C16.3,32.6,16.6,33.2,16.5,33.7z"/>
		<path class="st11" d="M19,34.8c-0.1,0.5-0.7,0.8-1.2,0.7s-0.8-0.7-0.7-1.2c0.1-0.5,0.7-0.8,1.2-0.7C18.9,33.7,19.2,34.2,19,34.8z"
			/>
		<path class="st11" d="M21.7,35.1c-0.1,0.5-0.7,0.8-1.2,0.7s-0.8-0.7-0.7-1.2c0.1-0.5,0.7-0.8,1.2-0.7
			C21.6,34.1,21.9,34.6,21.7,35.1z"/>
		<path class="st11" d="M15.9,35.9c-0.2,0.5-0.7,0.8-1.2,0.7s-0.8-0.7-0.7-1.2s0.7-0.8,1.2-0.7C15.7,34.8,16,35.4,15.9,35.9z"/>
		<path class="st11" d="M18.4,37c-0.1,0.5-0.7,0.8-1.2,0.7s-0.8-0.7-0.7-1.2c0.1-0.5,0.7-0.8,1.2-0.7C18.3,35.9,18.6,36.4,18.4,37z"
			/>
		<path class="st11" d="M21.1,37.3c-0.1,0.5-0.7,0.8-1.2,0.7s-0.8-0.7-0.7-1.2c0.1-0.5,0.7-0.8,1.2-0.7C21,36.3,21.3,36.8,21.1,37.3
			z"/>
		<path class="st11" d="M15.3,38.1c-0.1,0.5-0.7,0.8-1.2,0.7s-0.8-0.7-0.7-1.2s0.7-0.8,1.2-0.7C15.1,37,15.4,37.6,15.3,38.1z"/>
		<path class="st11" d="M17.8,39.2c-0.1,0.5-0.7,0.8-1.2,0.7s-0.8-0.7-0.7-1.2s0.7-0.8,1.2-0.7C17.6,38.1,18,38.6,17.8,39.2z"/>
		<path class="st11" d="M20.5,39.5c-0.1,0.5-0.7,0.8-1.2,0.7s-0.8-0.7-0.7-1.2c0.1-0.5,0.7-0.8,1.2-0.7C20.4,38.5,20.7,39,20.5,39.5
			z"/>
		<path class="st11" d="M14.7,40.3c-0.1,0.5-0.7,0.8-1.2,0.7s-0.8-0.7-0.7-1.2s0.7-0.8,1.2-0.7S14.8,39.8,14.7,40.3z M17.2,41.4
			c-0.1,0.5-0.7,0.8-1.2,0.7s-0.8-0.7-0.7-1.2s0.7-0.8,1.2-0.7C17,40.3,17.3,40.8,17.2,41.4z"/>
		<path class="st11" d="M19.9,41.8c-0.1,0.5-0.7,0.8-1.2,0.7s-0.8-0.7-0.7-1.2c0.1-0.5,0.7-0.8,1.2-0.7
			C19.8,40.7,20.1,41.2,19.9,41.8z"/>
		<path class="st11" d="M15.9,42.9c0,0-0.1,0.1-0.2,0c-0.1,0-0.2-0.1-0.1-0.1c0,0,0.1-0.1,0.2,0C15.9,42.7,15.9,42.8,15.9,42.9z
			 M15.6,42.8l-0.3,1.1 M15.6,42.9L15.3,44 M15.9,42.9L15.6,44 M15.8,42.9L15.5,44 M17.9,26.3l-0.2,0.8 M18,26.3l-0.2,0.8
			 M22.5,27.5l-0.2,0.8 M22.4,27.5l-0.2,0.8"/>
		<path class="st9" d="M27,17.1c0,0,0.3-1.2,0.4-2c0.3-1.5,0.3-2.3,0.3-2.3c0-0.2-0.1-0.4-0.3-0.5l-0.9-0.2
			c-0.2-0.1-0.3,0.1-0.5,0.3c0,0-0.3,0.7-0.8,2.2c-0.3,0.8-0.5,1.8-0.5,1.8 M24.5,27.7C24.4,27.9,24.2,28,24,28l-7.7-2.1
			c-0.2-0.1-0.3-0.3-0.3-0.5l1.3-4.9c0.1-0.2,0.3-0.3,0.5-0.3l7.7,2.1c0.2,0.1,0.3,0.3,0.3,0.5L24.5,27.7z M27.1,16.7
			c-0.7-0.3-1.5-0.5-2.2-0.8 M19.2,14.9c0,0-1.8,3.8-2.9,7.6c-1.3,4.5-1.4,6.1-1.2,8.2c0,0.4,0.5,1,1,1.1c0.2,0.1,0.4,0.1,0.5,0.1
			s0.4,0.1,0.7,0.3c0.3,0.2,0.4,0.3,0.5,0.4c0.2,0.1,0.2,0.2,0.7,0.3s0.6,0.1,0.7,0.1c0.2,0,0.3,0,0.7-0.1c0.4,0,0.7,0.1,0.8,0.1
			c0.1,0,0.3,0.1,0.5,0.1c0.5,0.1,1.1-0.1,1.4-0.5c1.2-1.7,1.9-3.1,3.1-7.7c1.1-3.8,1.4-8,1.4-8 M18.1,16.8c1.5,0.2,3.1,0.6,4.6,1
			s3,0.9,4.4,1.5"/>
		<path class="st11" d="M21.4,30.7c-0.3,1.2-1.6,1.9-2.8,1.6c-1.2-0.3-1.9-1.6-1.6-2.8s1.6-1.9,2.8-1.6C21,28.3,21.7,29.5,21.4,30.7
			z M17.3,27.1c0.3,0.1,0.5,0.2,0.6,0.3s0.1,0.2,0.1,0.2c-0.1,0.1-0.3,0.2-0.4,0.3s-0.2,0.1-0.4,0c-0.3-0.2-0.9-0.6-1.1-0.8
			c-0.1-0.1,0-0.1,0.2-0.2C16.5,26.9,17,27,17.3,27.1z M15.7,29.4c0.2,0.1,0.6,0.3,0.7,0.3c0.1,0.1,0.3,0.3,0.3,0.5
			c0,0.3,0,0.8,0.1,1s0.1,0.3-0.1,0.3s-0.6-0.2-0.7-0.2c-0.1-0.1-0.3-0.2-0.4-0.3c-0.1-0.4-0.1-1.1-0.1-1.4
			C15.6,29.4,15.6,29.4,15.7,29.4z"/>
		<path class="st11" d="M22.5,28.5c-0.3-0.1-0.6-0.1-0.7-0.1s-0.2,0.1-0.2,0.2c0.1,0.1,0.1,0.3,0.2,0.4c0,0.1,0.1,0.2,0.3,0.2
			c0.3,0,1.1-0.1,1.4-0.2c0.1-0.1,0.1-0.1-0.1-0.2C23.3,28.7,22.9,28.6,22.5,28.5z M22.7,31.3c-0.2,0-0.6-0.1-0.8-0.1
			c-0.1,0-0.4,0.1-0.5,0.3s-0.4,0.7-0.6,0.8s-0.3,0.2-0.1,0.3c0.2,0.1,0.6,0.1,0.8,0.2c0.1,0,0.3,0,0.5-0.1c0.3-0.2,0.7-0.8,0.8-1.2
			C22.8,31.4,22.8,31.4,22.7,31.3z"/>
		<line class="st12" x1="22.3" y1="18.4" x2="23" y2="15.8"/>
		<line class="st12" x1="22.6" y1="18.5" x2="23.3" y2="15.8"/>
	</g>
	<g>
		<g>
			<path class="st12" d="M27.7,26.3c0.3-1,1.5-6.2,1.5-7c0.1-0.7-0.2-1.6-0.6-1.8c0-0.3,0-0.4,0-0.4c-0.1,0-0.2-0.1-0.3-0.1l0,0
				c0,0,0.3-1.2,0.4-2c0.3-1.5,0.3-2.3,0.3-2.3c0-0.2-0.1-0.4-0.3-0.5L27.8,12c-0.2-0.1-0.3,0.1-0.5,0.3c0,0-0.3,0.7-0.8,2.2
				c-0.3,0.8-0.5,1.8-0.5,1.8l0,0c-0.5-0.2-1.1-0.3-1.6-0.5c-1.4-0.4-2.8-0.7-4.2-0.9c0,0-0.1,0.1-0.2,0.4l0,0
				c-0.4,0-1.1,0.6-1.4,1.3c-0.3,0.6-2,5.7-2.3,6.8c-0.3,1-0.8,3.7-1.1,5c-0.2,1.3-0.5,3.6-1.3,6.7c-0.5,1.8-1.3,4.5-1.7,5.6
				c-0.1,0.3-1,1.8,0.3,2.3s3.1,1,4.1,1.3s2.8,0.8,4.2,1s1.4-1.5,1.4-1.8c0.2-1.2,0.9-3.9,1.4-5.7c0.8-3.1,1.8-5.2,2.3-6.4
				C26.5,29.9,27.4,27.3,27.7,26.3z"/>
		</g>
		<path class="st12" d="M27.8,12.7c0,0-0.4-0.1-0.8-0.2c-0.3-0.1-0.8-0.2-0.8-0.2"/>
		<g>
			<path class="st12" d="M26.3,26.4c0.3-1,1.5-6.2,1.5-7c0.1-0.7-0.2-1.6-0.6-1.8c0-0.3,0-0.4,0-0.4c-0.1,0-0.2-0.1-0.3-0.1l0,0
				c0,0,0.3-1.2,0.4-2c0.3-1.5,0.3-2.3,0.3-2.3c0-0.2-0.1-0.4-0.3-0.5l-0.9-0.2c-0.2-0.1-0.3,0.1-0.5,0.3c0,0-0.3,0.7-0.8,2.2
				c-0.3,0.8-0.5,1.8-0.5,1.8l0,0c-0.5-0.2-1.1-0.3-1.6-0.5c-1.4-0.4-2.8-0.7-4.2-0.9c0,0-0.1,0.1-0.2,0.4l0,0
				c-0.4,0-1.1,0.6-1.4,1.3c-0.3,0.6-2,5.7-2.3,6.8c-0.3,1-0.8,3.7-1.1,5c-0.2,1.3-0.5,3.6-1.3,6.7c-0.5,1.8-1.3,4.5-1.7,5.6
				c-0.1,0.3-1,1.8,0.3,2.3s3.1,1,4.1,1.3s2.8,0.8,4.2,1s1.4-1.5,1.4-1.8c0.2-1.2,0.9-3.9,1.4-5.7c0.8-3.1,1.8-5.2,2.3-6.4
				C25.2,30,26,27.4,26.3,26.4z"/>
		</g>
		<path class="st12" d="M16.5,33.7c-0.1,0.5-0.7,0.8-1.2,0.7s-0.8-0.7-0.7-1.2s0.7-0.8,1.2-0.7C16.3,32.6,16.6,33.2,16.5,33.7z"/>
		<path class="st12" d="M19,34.8c-0.1,0.5-0.7,0.8-1.2,0.7s-0.8-0.7-0.7-1.2c0.1-0.5,0.7-0.8,1.2-0.7C18.9,33.7,19.2,34.2,19,34.8z"
			/>
		<path class="st12" d="M21.7,35.1c-0.1,0.5-0.7,0.8-1.2,0.7s-0.8-0.7-0.7-1.2c0.1-0.5,0.7-0.8,1.2-0.7
			C21.6,34.1,21.9,34.6,21.7,35.1z"/>
		<path class="st12" d="M15.9,35.9c-0.2,0.5-0.7,0.8-1.2,0.7s-0.8-0.7-0.7-1.2s0.7-0.8,1.2-0.7C15.7,34.8,16,35.4,15.9,35.9z"/>
		<path class="st12" d="M18.4,37c-0.1,0.5-0.7,0.8-1.2,0.7s-0.8-0.7-0.7-1.2c0.1-0.5,0.7-0.8,1.2-0.7C18.3,35.9,18.6,36.4,18.4,37z"
			/>
		<path class="st12" d="M21.1,37.3c-0.1,0.5-0.7,0.8-1.2,0.7s-0.8-0.7-0.7-1.2c0.1-0.5,0.7-0.8,1.2-0.7C21,36.3,21.3,36.8,21.1,37.3
			z"/>
		<path class="st12" d="M15.3,38.1c-0.1,0.5-0.7,0.8-1.2,0.7s-0.8-0.7-0.7-1.2s0.7-0.8,1.2-0.7C15.1,37,15.4,37.6,15.3,38.1z"/>
		<path class="st12" d="M17.8,39.2c-0.1,0.5-0.7,0.8-1.2,0.7s-0.8-0.7-0.7-1.2s0.7-0.8,1.2-0.7C17.6,38.1,18,38.6,17.8,39.2z"/>
		<path class="st12" d="M20.5,39.5c-0.1,0.5-0.7,0.8-1.2,0.7s-0.8-0.7-0.7-1.2c0.1-0.5,0.7-0.8,1.2-0.7C20.4,38.5,20.7,39,20.5,39.5
			z"/>
		<path class="st12" d="M14.7,40.3c-0.1,0.5-0.7,0.8-1.2,0.7s-0.8-0.7-0.7-1.2s0.7-0.8,1.2-0.7S14.8,39.8,14.7,40.3z M17.2,41.4
			c-0.1,0.5-0.7,0.8-1.2,0.7s-0.8-0.7-0.7-1.2s0.7-0.8,1.2-0.7C17,40.3,17.3,40.8,17.2,41.4z"/>
		<path class="st12" d="M19.9,41.8c-0.1,0.5-0.7,0.8-1.2,0.7s-0.8-0.7-0.7-1.2c0.1-0.5,0.7-0.8,1.2-0.7
			C19.8,40.7,20.1,41.2,19.9,41.8z"/>
		<path class="st12" d="M15.9,42.9c0,0-0.1,0.1-0.2,0c-0.1,0-0.2-0.1-0.1-0.1c0,0,0.1-0.1,0.2,0C15.9,42.7,15.9,42.8,15.9,42.9z
			 M15.6,42.8l-0.3,1.1 M15.6,42.9L15.3,44 M15.9,42.9L15.6,44 M15.8,42.9L15.5,44 M17.9,26.3l-0.2,0.8 M18,26.3l-0.2,0.8
			 M22.5,27.5l-0.2,0.8 M22.4,27.5l-0.2,0.8"/>
		<path class="st12" d="M27,17.1c0,0,0.3-1.2,0.4-2c0.3-1.5,0.3-2.3,0.3-2.3c0-0.2-0.1-0.4-0.3-0.5l-0.9-0.2
			c-0.2-0.1-0.3,0.1-0.5,0.3c0,0-0.3,0.7-0.8,2.2c-0.3,0.8-0.5,1.8-0.5,1.8 M24.5,27.7C24.4,27.9,24.2,28,24,28l-7.7-2.1
			c-0.2-0.1-0.3-0.3-0.3-0.5l1.3-4.9c0.1-0.2,0.3-0.3,0.5-0.3l7.7,2.1c0.2,0.1,0.3,0.3,0.3,0.5L24.5,27.7z M27.1,16.7
			c-0.7-0.3-1.5-0.5-2.2-0.8 M19.2,14.9c0,0-1.8,3.8-2.9,7.6c-1.3,4.5-1.4,6.1-1.2,8.2c0,0.4,0.5,1,1,1.1c0.2,0.1,0.4,0.1,0.5,0.1
			s0.4,0.1,0.7,0.3c0.3,0.2,0.4,0.3,0.5,0.4c0.2,0.1,0.2,0.2,0.7,0.3s0.6,0.1,0.7,0.1c0.2,0,0.3,0,0.7-0.1c0.4,0,0.7,0.1,0.8,0.1
			c0.1,0,0.3,0.1,0.5,0.1c0.5,0.1,1.1-0.1,1.4-0.5c1.2-1.7,1.9-3.1,3.1-7.7c1.1-3.8,1.4-8,1.4-8 M18.1,16.8c1.5,0.2,3.1,0.6,4.6,1
			s3,0.9,4.4,1.5"/>
		<path class="st12" d="M21.4,30.7c-0.3,1.2-1.6,1.9-2.8,1.6c-1.2-0.3-1.9-1.6-1.6-2.8s1.6-1.9,2.8-1.6C21,28.3,21.7,29.5,21.4,30.7
			z M17.3,27.1c0.3,0.1,0.5,0.2,0.6,0.3s0.1,0.2,0.1,0.2c-0.1,0.1-0.3,0.2-0.4,0.3s-0.2,0.1-0.4,0c-0.3-0.2-0.9-0.6-1.1-0.8
			c-0.1-0.1,0-0.1,0.2-0.2C16.5,26.9,17,27,17.3,27.1z M15.7,29.4c0.2,0.1,0.6,0.3,0.7,0.3c0.1,0.1,0.3,0.3,0.3,0.5
			c0,0.3,0,0.8,0.1,1s0.1,0.3-0.1,0.3s-0.6-0.2-0.7-0.2c-0.1-0.1-0.3-0.2-0.4-0.3c-0.1-0.4-0.1-1.1-0.1-1.4
			C15.6,29.4,15.6,29.4,15.7,29.4z"/>
		<path class="st12" d="M22.5,28.5c-0.3-0.1-0.6-0.1-0.7-0.1s-0.2,0.1-0.2,0.2c0.1,0.1,0.1,0.3,0.2,0.4c0,0.1,0.1,0.2,0.3,0.2
			c0.3,0,1.1-0.1,1.4-0.2c0.1-0.1,0.1-0.1-0.1-0.2C23.3,28.7,22.9,28.6,22.5,28.5z M22.7,31.3c-0.2,0-0.6-0.1-0.8-0.1
			c-0.1,0-0.4,0.1-0.5,0.3s-0.4,0.7-0.6,0.8s-0.3,0.2-0.1,0.3c0.2,0.1,0.6,0.1,0.8,0.2c0.1,0,0.3,0,0.5-0.1c0.3-0.2,0.7-0.8,0.8-1.2
			C22.8,31.4,22.8,31.4,22.7,31.3z"/>
		<line class="st12" x1="22.3" y1="18.4" x2="23" y2="15.8"/>
		<line class="st12" x1="22.6" y1="18.5" x2="23.3" y2="15.8"/>
	</g>
</g>
</svg>
