<?xml version="1.0" encoding="utf-8"?>
<!-- Generator: Adobe Illustrator 20.1.0, SVG Export Plug-In . SVG Version: 6.00 Build 0)  -->
<svg version="1.1" id="Layer_1" xmlns="http://www.w3.org/2000/svg" xmlns:xlink="http://www.w3.org/1999/xlink" x="0px" y="0px"
	 viewBox="0 0 97.6 63.1" style="enable-background:new 0 0 97.6 63.1;" xml:space="preserve">
<style type="text/css">
	.st0{fill:#026C9B;stroke:#FFFFFF;stroke-width:0.8;}
	.st1{fill:#FFFFFF;}
	.st2{fill:none;stroke:#FFFFFF;stroke-width:0.8;}
</style>
<g>
	<polygon class="st0" points="1.1,24.2 30,0.9 96.6,0.9 72.7,24.2 	"/>
	<polygon class="st1" points="54.3,9 53.6,9.7 34,9.7 32.1,11.6 26.7,9.3 37.4,6.3 34.7,9 	"/>
	<polygon class="st0" points="72.7,62.1 96.6,37.8 96.6,0.9 72.7,24.2 	"/>
	<polygon class="st1" points="77,5.3 78.9,3.3 84.3,5.8 73.5,8.8 76.3,6 56.2,6 57.4,5.3 	"/>
	<polygon class="st1" points="43.8,20 43.1,20.7 23.5,20.7 21.6,22.6 16.2,20.3 26.9,17.3 24.2,20 	"/>
	<polygon class="st1" points="66.5,16.3 68.4,14.3 73.8,16.8 63,19.8 65.8,17 45.7,17 46.9,16.3 	"/>
	<rect x="1.2" y="24.2" class="st0" width="71.5" height="37.9"/>
	<g>
		<g>
			<g>
				<g>
					<rect x="12.7" y="34.8" class="st1" width="10.8" height="5.6"/>
					<rect x="48.2" y="34.8" class="st1" width="10.8" height="5.6"/>
					<rect x="12.7" y="48.9" class="st1" width="10.8" height="5.6"/>
					<rect x="48.2" y="48.9" class="st1" width="10.8" height="5.6"/>
					<line class="st2" x1="20" y1="37.6" x2="53.2" y2="37.6"/>
					<line class="st2" x1="20" y1="51.7" x2="53.2" y2="51.7"/>
					<line class="st2" x1="18.1" y1="51.7" x2="53.2" y2="37.6"/>
					<line class="st2" x1="18.1" y1="37.6" x2="53.2" y2="51.7"/>
				</g>
			</g>
		</g>
	</g>
	<polygon class="st1" points="84.1,29.2 86.8,15.8 89.3,13 89.4,10.2 93.8,10.1 89.8,18.5 89.8,14.5 88,17 85.6,29.7 85.1,32.4 
		81.9,47 79.1,50.2 79.1,52.8 74.9,54.2 78.8,44.3 78.8,48.2 80.5,46.1 83.6,31.9 	"/>
	<polygon class="st1" points="78.5,26.6 78.4,26.6 80.1,25.1 83.4,31.2 84.6,33.3 88,39.1 91,37 90.9,40.5 95,32.7 90.8,33 
		90.7,35.4 88.3,37.3 84.6,30.9 83.7,29.1 80.3,23.2 78.5,24.8 78.5,21 74.2,29.9 78.4,29 	"/>
</g>
</svg>
