<?xml version="1.0" encoding="utf-8"?>
<!-- Generator: Adobe Illustrator 20.1.0, SVG Export Plug-In . SVG Version: 6.00 Build 0)  -->
<svg version="1.1" id="Layer_1" xmlns="http://www.w3.org/2000/svg" xmlns:xlink="http://www.w3.org/1999/xlink" x="0px" y="0px"
	 viewBox="0 0 57.3 59.7" style="enable-background:new 0 0 57.3 59.7;" xml:space="preserve">
<style type="text/css">
	.st0{fill:#007EBA;stroke:#FFFFFF;stroke-width:0.8;}
	.st1{fill:url(#SVGID_1_);}
	.st2{fill:url(#SVGID_2_);}
	.st3{fill:url(#SVGID_3_);}
	.st4{fill:url(#SVGID_4_);}
	.st5{fill:url(#SVGID_5_);}
	.st6{fill:url(#SVGID_6_);}
	.st7{fill:#FFFFFF;}
</style>
<g>
	<rect x="1" y="6.4" class="st0" width="50" height="52.4"/>
	<polygon class="st0" points="56.4,53.3 51,58.7 51,6.4 56.4,1 	"/>
	<polygon class="st0" points="56.4,1 6.4,1 1,6.4 51,6.4 	"/>
	<linearGradient id="SVGID_1_" gradientUnits="userSpaceOnUse" x1="21.9158" y1="16.7483" x2="37.828" y2="16.7483">
		<stop  offset="0" style="stop-color:#007EBA"/>
		<stop  offset="4.345703e-02" style="stop-color:#188AC1"/>
		<stop  offset="0.1494" style="stop-color:#4EA5CF"/>
		<stop  offset="0.2594" style="stop-color:#7DBDDC"/>
		<stop  offset="0.3713" style="stop-color:#A5D2E7"/>
		<stop  offset="0.4855" style="stop-color:#C6E2EF"/>
		<stop  offset="0.6027" style="stop-color:#DFEFF6"/>
		<stop  offset="0.7242" style="stop-color:#F1F8FB"/>
		<stop  offset="0.8527" style="stop-color:#FCFDFE"/>
		<stop  offset="1" style="stop-color:#FFFFFF"/>
	</linearGradient>
	<path class="st1" d="M32.4,17.4l-1,1.7l6.5-0.3L35.1,13l-0.9,1.5c-7.3-4-12.2,3.4-12.2,3.4l2.5,2.5C27.4,15.1,32.4,17.4,32.4,17.4z
		"/>
	<linearGradient id="SVGID_2_" gradientUnits="userSpaceOnUse" x1="28.5164" y1="24.0482" x2="44.4276" y2="24.0482">
		<stop  offset="0" style="stop-color:#007EBA"/>
		<stop  offset="4.345703e-02" style="stop-color:#188AC1"/>
		<stop  offset="0.1494" style="stop-color:#4EA5CF"/>
		<stop  offset="0.2594" style="stop-color:#7DBDDC"/>
		<stop  offset="0.3713" style="stop-color:#A5D2E7"/>
		<stop  offset="0.4855" style="stop-color:#C6E2EF"/>
		<stop  offset="0.6027" style="stop-color:#DFEFF6"/>
		<stop  offset="0.7242" style="stop-color:#F1F8FB"/>
		<stop  offset="0.8527" style="stop-color:#FCFDFE"/>
		<stop  offset="1" style="stop-color:#FFFFFF"/>
	</linearGradient>
	<path class="st2" d="M39,24.7l-1,1.7l6.5-0.3l-2.7-5.7l-0.9,1.5c-7.3-4-12.2,3.4-12.2,3.4l2.5,2.5C34,22.4,39,24.7,39,24.7z"/>
	<linearGradient id="SVGID_3_" gradientUnits="userSpaceOnUse" x1="34.0662" y1="32.199" x2="49.9784" y2="32.199">
		<stop  offset="0" style="stop-color:#007EBA"/>
		<stop  offset="4.345703e-02" style="stop-color:#188AC1"/>
		<stop  offset="0.1494" style="stop-color:#4EA5CF"/>
		<stop  offset="0.2594" style="stop-color:#7DBDDC"/>
		<stop  offset="0.3713" style="stop-color:#A5D2E7"/>
		<stop  offset="0.4855" style="stop-color:#C6E2EF"/>
		<stop  offset="0.6027" style="stop-color:#DFEFF6"/>
		<stop  offset="0.7242" style="stop-color:#F1F8FB"/>
		<stop  offset="0.8527" style="stop-color:#FCFDFE"/>
		<stop  offset="1" style="stop-color:#FFFFFF"/>
	</linearGradient>
	<path class="st3" d="M44.6,32.8l-1,1.7l6.5-0.3l-2.7-5.7L46.3,30c-7.3-4-12.2,3.4-12.2,3.4l2.5,2.5C39.6,30.6,44.6,32.8,44.6,32.8z
		"/>
	<g>
		<linearGradient id="SVGID_4_" gradientUnits="userSpaceOnUse" x1="30.5806" y1="47.8089" x2="13.5728" y2="41.6186">
			<stop  offset="0" style="stop-color:#FFFFFF"/>
			<stop  offset="8.871679e-02" style="stop-color:#EFF7FB"/>
			<stop  offset="0.2632" style="stop-color:#C4E1EF"/>
			<stop  offset="0.5066" style="stop-color:#7EBEDC"/>
			<stop  offset="0.8067" style="stop-color:#208EC3"/>
			<stop  offset="0.9045" style="stop-color:#007EBA"/>
		</linearGradient>
		<path class="st4" d="M26.2,46.4c-1,0.9-2.4,1.4-3.8,1.4c-1.5,0-2.9-0.6-4-1.6s-1.6-2.5-1.6-4c0-1.5,0.6-3,1.7-4l-2.1-2.2
			c-1.7,1.6-2.6,3.8-2.6,6.2c0,2.3,0.9,4.5,2.5,6.1c1.6,1.6,3.8,2.5,6.1,2.5c2.1,0,4.2-0.8,5.8-2.2l1.5,1.5l1.7-6.5l-6.9,1
			L26.2,46.4z"/>
	</g>
	<g>
		<linearGradient id="SVGID_5_" gradientUnits="userSpaceOnUse" x1="23.0887" y1="40.4086" x2="6.0804" y2="34.2181">
			<stop  offset="0" style="stop-color:#FFFFFF"/>
			<stop  offset="8.871679e-02" style="stop-color:#EFF7FB"/>
			<stop  offset="0.2632" style="stop-color:#C4E1EF"/>
			<stop  offset="0.5066" style="stop-color:#7EBEDC"/>
			<stop  offset="0.8067" style="stop-color:#208EC3"/>
			<stop  offset="0.9045" style="stop-color:#007EBA"/>
		</linearGradient>
		<path class="st5" d="M18.8,39c-1,0.9-2.4,1.4-3.8,1.4c-1.5,0-2.9-0.6-4-1.6c-1.1-1.1-1.6-2.5-1.6-4c0-1.5,0.6-3,1.7-4L9,28.7
			c-1.7,1.6-2.6,3.8-2.6,6.2c0,2.3,0.9,4.5,2.5,6.1c1.6,1.6,3.8,2.5,6.1,2.5c2.1,0,4.2-0.8,5.8-2.2l1.5,1.5l1.7-6.5l-6.9,1L18.8,39z
			"/>
	</g>
	<g>
		<linearGradient id="SVGID_6_" gradientUnits="userSpaceOnUse" x1="16.0962" y1="33.5088" x2="-0.5045" y2="27.4666">
			<stop  offset="0" style="stop-color:#FFFFFF"/>
			<stop  offset="8.871679e-02" style="stop-color:#EFF7FB"/>
			<stop  offset="0.2632" style="stop-color:#C4E1EF"/>
			<stop  offset="0.5066" style="stop-color:#7EBEDC"/>
			<stop  offset="0.8067" style="stop-color:#208EC3"/>
			<stop  offset="0.9045" style="stop-color:#007EBA"/>
		</linearGradient>
		<path class="st6" d="M1.4,33.5c0.2,0.2,0.4,0.4,0.6,0.6c1.6,1.6,3.8,2.5,6.1,2.5c2.1,0,4.2-0.8,5.8-2.2l1.5,1.5l1.7-6.5l-6.9,1
			l1.7,1.8c-1,0.9-2.4,1.4-3.8,1.4c-1.5,0-2.9-0.6-4-1.6c-1.1-1.1-1.6-2.5-1.6-4c0-1.5,0.6-3,1.7-4L2,21.8c-0.3,0.3-0.6,0.6-0.8,0.9
			"/>
	</g>
	<g>
		
			<rect x="20.2" y="7.3" transform="matrix(0.6886 -0.7251 0.7251 0.6886 -14.38 28.9742)" class="st0" width="12.8" height="47.8"/>
		<path class="st7" d="M48.3,43.1l-34-32.2l-0.7-0.7l-1.5,1.6l-5.8,6.2l-1.5,1.6l34.7,32.9L48.3,43.1z M13.2,11.9l0.7-0.7l0.7,0.7
			L14,12.6L13.2,11.9z M14.7,13.3l0.7-0.7l0.7,0.7L15.4,14L14.7,13.3z M16.1,14.6l0.7-0.7l0.7,0.7l-0.7,0.7L16.1,14.6z M17.5,16
			l0.7-0.7l0.7,0.7l-0.7,0.7L17.5,16z M18.9,17.3l0.7-0.7l0.7,0.7L19.6,18L18.9,17.3z M20.3,18.7L21,18l0.7,0.7L21,19.3L20.3,18.7z
			 M21.7,20l0.7-0.7l0.7,0.7l-0.7,0.7L21.7,20z M23.2,21.3l0.7-0.7l0.7,0.7L23.9,22L23.2,21.3z M24.6,22.7l0.7-0.7l0.7,0.7l-0.7,0.7
			L24.6,22.7z M26,24l0.7-0.7l0.7,0.7l-0.7,0.7L26,24z M27.4,25.4l0.7-0.7l0.7,0.7l-0.7,0.7L27.4,25.4z M28.8,26.7l0.7-0.7l0.7,0.7
			l-0.7,0.7L28.8,26.7z M30.2,28.1l0.7-0.7l0.7,0.7l-0.7,0.7L30.2,28.1z M31.6,29.4l0.7-0.7l0.7,0.7l-0.7,0.7L31.6,29.4z M33.1,30.8
			l0.7-0.7l0.7,0.7l-0.7,0.7L33.1,30.8z M34.5,32.1l0.7-0.7l0.7,0.7l-0.7,0.7L34.5,32.1z M35.9,33.4l0.7-0.7l0.7,0.7l-0.7,0.7
			L35.9,33.4z M37.3,34.8l0.7-0.7l0.7,0.7L38,35.5L37.3,34.8z M38.7,36.1l0.7-0.7l0.7,0.7l-0.7,0.7L38.7,36.1z M40.1,37.5l0.7-0.7
			l0.7,0.7l-0.7,0.7L40.1,37.5z M41.5,38.8l0.7-0.7l0.7,0.7l-0.7,0.7L41.5,38.8z M43,40.2l0.7-0.7l0.7,0.7l-0.7,0.7L43,40.2z
			 M44.4,41.5l0.7-0.7l0.7,0.7l-0.7,0.7L44.4,41.5z M45.8,42.8l0.7-0.7l0.7,0.7l-0.7,0.7L45.8,42.8z M7,18.5l5.8-6.2l7.8,7.4
			l-5.8,6.2L7,18.5z M15.5,26.6l5.8-6.2l7.8,7.4L23.3,34L15.5,26.6z M24,34.6l5.8-6.2l7.8,7.4L31.8,42L24,34.6z M32.5,42.7l5.8-6.2
			l7.8,7.4l-5.8,6.2L32.5,42.7z M5.9,19.7l0.7-0.7l0.7,0.7l-0.7,0.7L5.9,19.7z M7.3,21L8,20.3L8.7,21L8,21.7L7.3,21z M8.8,22.3
			l0.7-0.7l0.7,0.7L9.5,23L8.8,22.3z M10.2,23.7l0.7-0.7l0.7,0.7l-0.7,0.7L10.2,23.7z M11.6,25l0.7-0.7L13,25l-0.7,0.7L11.6,25z
			 M13,26.4l0.7-0.7l0.7,0.7L13.7,27L13,26.4z M14.4,27.7l0.7-0.7l0.7,0.7l-0.7,0.7L14.4,27.7z M15.8,29.1l0.7-0.7l0.7,0.7l-0.7,0.7
			L15.8,29.1z M17.2,30.4l0.7-0.7l0.7,0.7L18,31.1L17.2,30.4z M18.7,31.7l0.7-0.7l0.7,0.7l-0.7,0.7L18.7,31.7z M20.1,33.1l0.7-0.7
			l0.7,0.7l-0.7,0.7L20.1,33.1z M21.5,34.4l0.7-0.7l0.7,0.7l-0.7,0.7L21.5,34.4z M22.9,35.8l0.7-0.7l0.7,0.7l-0.7,0.7L22.9,35.8z
			 M24.3,37.1l0.7-0.7l0.7,0.7L25,37.8L24.3,37.1z M25.7,38.5l0.7-0.7l0.7,0.7l-0.7,0.7L25.7,38.5z M27.1,39.8l0.7-0.7l0.7,0.7
			l-0.7,0.7L27.1,39.8z M28.6,41.1l0.7-0.7l0.7,0.7l-0.7,0.7L28.6,41.1z M30,42.5l0.7-0.7l0.7,0.7l-0.7,0.7L30,42.5z M31.4,43.8
			l0.7-0.7l0.7,0.7l-0.7,0.7L31.4,43.8z M32.8,45.2l0.7-0.7l0.7,0.7l-0.7,0.7L32.8,45.2z M34.2,46.5l0.7-0.7l0.7,0.7l-0.7,0.7
			L34.2,46.5z M35.6,47.9l0.7-0.7l0.7,0.7l-0.7,0.7L35.6,47.9z M37.1,49.2l0.7-0.7l0.7,0.7l-0.7,0.7L37.1,49.2z M38.5,50.6l0.7-0.7
			l0.7,0.7l-0.7,0.7L38.5,50.6z"/>
	</g>
</g>
</svg>
