<?xml version="1.0" encoding="utf-8"?>
<!-- Generator: Adobe Illustrator 20.1.0, SVG Export Plug-In . SVG Version: 6.00 Build 0)  -->
<svg version="1.1" id="Layer_1" xmlns="http://www.w3.org/2000/svg" xmlns:xlink="http://www.w3.org/1999/xlink" x="0px" y="0px"
	 viewBox="0 0 87.6 83" style="enable-background:new 0 0 87.6 83;" xml:space="preserve">
<style type="text/css">
	.st0{fill:#FFAA00;stroke:#FFFFFF;stroke-width:0.8;}
	.st1{fill:none;stroke:#FFFFFF;stroke-width:0.8;}
	.st2{fill:#FFFFFF;stroke:#FFAA00;stroke-width:0.8;}
</style>
<g>
	<g>
		<rect x="13" y="60.6" class="st0" width="62.9" height="11.8"/>
		<g>
			<line class="st0" x1="56.7" y1="67.3" x2="72.6" y2="67.3"/>
		</g>
		<g>
			<line class="st0" x1="56.7" y1="66.7" x2="72.6" y2="66.7"/>
		</g>
		<polygon class="st0" points="86.6,61.2 86.6,50.7 76,60.7 76,72.4 		"/>
		<polygon class="st0" points="64.8,82.1 64.8,79.4 70.5,71.5 70.5,76.3 		"/>
		<rect x="14.4" y="79.5" class="st0" width="50.4" height="2.6"/>
		<polygon class="st0" points="64.8,79.5 14.5,79.5 20.3,71.5 70.5,71.5 		"/>
		<polygon class="st0" points="86.6,50.7 23.6,50.7 13,60.6 76,60.6 		"/>
		<g>
			<polygon class="st0" points="74.7,50.7 32.6,50.7 25.5,57.4 67.6,57.4 			"/>
		</g>
		<g>
			<rect x="24.3" y="23" class="st0" width="43.4" height="31.8"/>
		</g>
		<path class="st0" d="M28,29.9c0-3.2,3.3-3.7,3.3-3.7s25.5,0,28.6,0c4,0,3.9,3.8,3.9,3.8s0,15.6,0,17.9c0,2.2-3.1,3.2-3.1,3.2
			s-4.9,0-10.7,0c-7.6,0-16.7,0-18.3,0c-2.8,0-3.8-3-3.8-3V29.9z"/>
		<polygon class="st0" points="75,16.1 31.6,16.1 24.3,23 67.7,23 		"/>
		<polygon class="st0" points="75,48 75,16.1 67.8,22.9 67.8,54.8 		"/>
	</g>
	<g>
		<polygon points="40.3,0.8 39.3,1.4 0.4,1.4 1.4,0.8 		"/>
		<polygon class="st0" points="40.3,39.4 40.3,0.8 39.3,1.6 39.3,40.3 		"/>
		<polygon class="st0" points="2.2,40.3 39.3,40.3 39.3,1.4 0.4,1.4 0.4,38.6 		"/>
		<g>
			<path class="st0" d="M36.4,1.4v22.5c0,1.6-1.3,1.3-1.3,1.3H4.5c0,0-1.2,0.1-1.2-1.2V1.4"/>
		</g>
		<g>
			<rect x="1" y="3.6" class="st1" width="1.8" height="1.8"/>
		</g>
		<g>
			<rect x="37" y="3.6" class="st1" width="1.8" height="1.8"/>
		</g>
		<g>
			<path class="st2" d="M30.1,29v10.9H6.9V28.8c0-1.2,1.3-1,1.3-1h20.6C30.2,27.8,30.1,29,30.1,29z"/>
			<path class="st1" d="M36.4,40.3V29c0,0,0.1-1.2-1.2-1.2H8.3c0,0-1.3-0.1-1.3,1v10.8"/>
		</g>
		<g>
			<rect class="st0" x="11.4" y="28.5" width="4.6" height="10.6"/>
		</g>
		<line class="st1" x1="39.3" y1="1.5" x2="40.4" y2="0.8"/>
	</g>
</g>
</svg>
