<?xml version="1.0" encoding="utf-8"?>
<!-- Generator: Adobe Illustrator 20.1.0, SVG Export Plug-In . SVG Version: 6.00 Build 0)  -->
<svg version="1.1" id="Layer_1" xmlns="http://www.w3.org/2000/svg" xmlns:xlink="http://www.w3.org/1999/xlink" x="0px" y="0px"
	 viewBox="0 0 66.4 92.5" style="enable-background:new 0 0 66.4 92.5;" xml:space="preserve">
<style type="text/css">
	.st0{fill:none;stroke:#000000;stroke-width:0.8;stroke-miterlimit:10;}
	
		.st1{fill-rule:evenodd;clip-rule:evenodd;fill:#0081BD;stroke:#FFFFFF;stroke-width:0.8;stroke-linecap:round;stroke-linejoin:round;stroke-miterlimit:10;}
	
		.st2{fill-rule:evenodd;clip-rule:evenodd;fill:#FFFFFF;stroke:#FFFFFF;stroke-width:0.3852;stroke-linecap:round;stroke-linejoin:round;stroke-miterlimit:10;}
	.st3{fill:#FFFFFF;stroke:#000000;stroke-width:0.8;stroke-miterlimit:10;}
</style>
<g>
	<path class="st0" d="M53.2,7.2c1.3-2.1,1.3-1.8,1.8-2.6c5-7.6,10.1-3.9,6.7,3.1c-2.9,5.8-3.2,6.2-4.3,8.2c-1.9,3.4-3.9,7.1-5.3,9.8
		"/>
	<path class="st0" d="M58.2,14.6c5.1-7.5,9.9-4,6.8,2.9c-2.7,5.9-3.4,6.1-4.4,8.2c-1.8,3.8-1.2,3.2-2.6,5.9"/>
	<path class="st0" d="M48,16.3c1.4-1.8,1.4-2.1,4.5-7.8c3.9-7.1-1.6-10.6-6.7-3.2C40.3,13.1,39,15.3,36,18.8
		c-3,3.5-8.6,17-12.2,20.7c-2.4,2.5,1-7.1,0.7-9.9c-0.7-6.1-0.8-5.4-1.5-7.5c-0.7-2.1-5-5.9-6-2.6c-0.5,1.7-0.3,1.8,0.1,3.7
		c0.2,1-0.5,0.7-0.3,5.5c0.1,2.7-4.2,10.7-5.5,14.3c-2.8,7.6,0.3,8-0.8,14.3c-1.2,6.9,0.2,5.5-1,8.4c-1.2,3-8.3,14.3-9,16.1"/>
	<path class="st0" d="M25.9,42.9c4.1,2.4,0.3,15.1,0.3,15.1"/>
	<path class="st0" d="M24,42c-1-1.2-1-2.1-1-2.1"/>
	<g>
		<g>
			<polygon class="st1" points="11.5,52 43.1,52 63.5,14.8 33.4,14.8 11.5,52 			"/>
			<polygon class="st1" points="11.5,52 11.5,58.2 43.1,58.2 43.1,52 11.5,52 			"/>
			<polygon class="st1" points="63.5,14.8 63.5,20.6 43.1,58.2 43.1,52 63.5,14.8 			"/>
			<polygon class="st2" points="58.2,18.5 44.8,43.4 20.1,43.4 34.5,18.5 			"/>
			<polygon class="st2" points="21.3,46.9 19.8,49.6 17,49.6 18.6,46.9 			"/>
			<polygon class="st2" points="43.2,46.9 41.7,49.6 38.9,49.6 40.5,46.9 			"/>
			<polygon class="st2" points="37.7,46.9 36.3,49.6 33.4,49.6 35,46.9 			"/>
			<polygon class="st2" points="32,46.9 30.5,49.6 27.7,49.6 29.3,46.9 			"/>
			<polygon class="st2" points="26.6,46.9 25.1,49.6 22.3,49.6 23.9,46.9 			"/>
		</g>
		<path class="st3" d="M22.3,92.3c1.8-2.8,10.4-15.5,11.2-15.7c8.9-2.4,19.1-22.2,23.8-28c1-1.3,1.9-3.7,2.4-4.9
			c0.2-0.6,2.2-4.8,3.4-6.8l1.8-8.2l0.3-7.2c0,0-2.8-6.8-4.5,1.9l-1.2,5.6c-0.5,0.9-2.5,3.7-3,5c-0.5,1.2-3.6,5.1-3.6,7.2"/>
	</g>
</g>
</svg>
