<?xml version="1.0" encoding="utf-8"?>
<!-- Generator: Adobe Illustrator 20.1.0, SVG Export Plug-In . SVG Version: 6.00 Build 0)  -->
<svg version="1.1" id="Layer_1" xmlns="http://www.w3.org/2000/svg" xmlns:xlink="http://www.w3.org/1999/xlink" x="0px" y="0px"
	 viewBox="0 0 61.6 46.1" style="enable-background:new 0 0 61.6 46.1;" xml:space="preserve">
<style type="text/css">
	.st0{fill:#02709F;stroke:#FFFFFF;stroke-width:0.8;}
</style>
<g>
	<rect x="0.8" y="35.1" class="st0" width="42" height="9.9"/>
	<polygon class="st0" points="42.8,35.1 0.8,35.1 20.7,6.1 60.9,6.1 	"/>
	<polygon class="st0" points="60.9,6.1 60.9,24.7 42.8,45.1 42.8,35.1 	"/>
	<line class="st0" x1="42.8" y1="35.1" x2="60.9" y2="6.1"/>
	<path class="st0" d="M34,11.4c-2.6,3-5.8,6.4-7.8,9.8l0.2,2.2L20,33.2l-0.7-6.4C20.5,21.9,35.5,2.9,39,0.7l0.7,6.4l-5.5,6.4
		L34,11.4z"/>
	<polygon class="st0" points="11.8,26.8 11,33.2 20,33.2 19.3,26.8 	"/>
	<path class="st0" d="M39,0.7c-3.5,2.2-18.5,21.3-19.7,26.1h-7.5C13,21.9,28,2.9,31.4,0.7H39z"/>
	<polygon class="st0" points="26,31.8 34.9,19.1 48.2,19.1 40.3,31.8 	"/>
	<line class="st0" x1="35.5" y1="31.8" x2="43.8" y2="19.1"/>
	<line class="st0" x1="30.7" y1="31.8" x2="39.3" y2="19.1"/>
	<line class="st0" x1="42.3" y1="28.6" x2="28.2" y2="28.6"/>
	<line class="st0" x1="44.2" y1="25.5" x2="30.4" y2="25.5"/>
	<line class="st0" x1="46.2" y1="22.3" x2="32.6" y2="22.3"/>
</g>
</svg>
