<?xml version="1.0" encoding="utf-8"?>
<!-- Generator: Adobe Illustrator 20.1.0, SVG Export Plug-In . SVG Version: 6.00 Build 0)  -->
<svg version="1.1" id="Layer_1" xmlns="http://www.w3.org/2000/svg" xmlns:xlink="http://www.w3.org/1999/xlink" x="0px" y="0px"
	 viewBox="0 0 69 46.7" style="enable-background:new 0 0 69 46.7;" xml:space="preserve">
<style type="text/css">
	.st0{fill:#FFAA00;stroke:#FFFFFF;stroke-width:0.8;}
	.st1{fill:#FFFFFF;}
	.st2{fill:#FFAA00;stroke:#FFFFFF;stroke-width:0.8;}
	.st3{font-family:'Helvetica-Bold';}
	.st4{font-size:11.5268px;}
</style>
	<g>
	<g>
		<g>
			<path class="st0" d="M68.6,13.7c0,7.3-15.3,13.3-34.1,13.3C15.7,26.9,0.4,21,0.4,13.7v19.4c0,7.3,15.3,13.3,34.1,13.3
				c18.8,0,34.1-5.9,34.1-13.3V13.7z"/>
		</g>
		<g>
			<ellipse class="st0" cx="34.5" cy="13.7" rx="34.1" ry="13.3"/>
		</g>
		<g>
			<polygon class="st1" points="24.2,10.2 28.1,12.3 19.4,13.9 21.4,12.2 6.3,9.7 7.6,8.7 22.6,11.2 			"/>
		</g>
		<g>
			<polygon class="st1" points="44.9,16.8 41,14.7 49.7,13.1 47.7,14.8 62.8,17.4 61.5,18.4 46.5,15.8 			"/>
		</g>
		<g>
			<polygon class="st1" points="40.4,5.8 48,2.6 47,6.5 44.7,6.3 39,11.2 37,10.7 42.8,6.1 			"/>
		</g>
		<g>
			<polygon class="st1" points="29.8,21.1 22.2,24.3 23.2,20.4 25.4,20.6 31,15.9 32.9,16.3 27.4,20.8 			"/>
		</g>
	</g>
	<circle class="st2" cx="34.2" cy="36.5" r="7.9"/>
	<g>
		<text transform="matrix(1 0 0 1 28.9962 40.6968)" class="st1 st3 st4">S</text>
		<text transform="matrix(1 0 0 1 33.9298 40.6968)" class="st1 st3 st4">i</text>
	</g>
</g>
</svg>
