<?xml version="1.0" encoding="utf-8"?>
<!-- Generator: Adobe Illustrator 20.1.0, SVG Export Plug-In . SVG Version: 6.00 Build 0)  -->
<svg version="1.1" id="Layer_1" xmlns="http://www.w3.org/2000/svg" xmlns:xlink="http://www.w3.org/1999/xlink" x="0px" y="0px"
	 viewBox="0 0 77.1 73.1" style="enable-background:new 0 0 77.1 73.1;" xml:space="preserve">
<style type="text/css">
	.st0{fill:#036998;stroke:#FFFFFF;stroke-width:0.8;}
	.st1{fill:#FFFFFF;}
</style>
<g>
	<g>
		<g>
			<g>
				<polygon class="st0" points="25.7,29.2 66.9,29.2 72.7,1.2 33.6,1.2 25.7,29.2 				"/>
				<polygon class="st0" points="25.7,29.2 29.9,37.2 71.1,37.2 66.9,29.2 25.7,29.2 				"/>
				<polygon class="st0" points="72.7,1.2 76.7,8.7 71.1,37.2 66.9,29.2 72.7,1.2 				"/>
				<polygon class="st0" points="0.9,64.4 32.5,64.4 62.3,30 32.8,30 0.9,64.4 				"/>
				<polygon class="st0" points="0.9,64.4 5.1,72.4 36.7,72.4 32.5,64.4 0.9,64.4 				"/>
				<polygon class="st0" points="62.3,30 66.3,37.5 36.7,72.4 32.5,64.4 62.3,30 				"/>
			</g>
		</g>
	</g>
	<polygon class="st1" points="31.6,33 34.8,33 32.6,35.4 29.4,35.4 31.6,33 	"/>
	<polyline class="st1" points="26.7,40.5 30.5,39.6 28.4,42 26.2,40.7 	"/>
	<polygon class="st1" points="37.2,33 40.4,33 38.2,35.4 35,35.4 37.2,33 	"/>
	<polygon class="st1" points="42.8,33 46.1,33 44.3,35.4 40.7,35.4 42.8,33 	"/>
	<polygon class="st1" points="48.5,33 51.7,33 49.9,35.4 46.7,35.4 48.5,33 	"/>
	<polygon class="st1" points="25.3,46.9 28.6,46.9 26.3,49.3 23.1,49.3 25.3,46.9 	"/>
	<polygon class="st1" points="31,46.9 34.2,46.9 32.3,49.3 28.7,49.3 31,46.9 	"/>
	<polygon class="st1" points="36.6,46.9 39.8,46.9 37.9,49.3 34.7,49.3 36.6,46.9 	"/>
	<polygon class="st1" points="18.9,53.3 22.2,53.3 20.1,55.7 16.9,55.7 18.9,53.3 	"/>
	<polygon class="st1" points="24.6,53.3 27.8,53.3 26.1,55.7 22.5,55.7 24.6,53.3 	"/>
	<polygon class="st1" points="30.2,53.3 33.4,53.3 31.8,55.7 28.6,55.7 30.2,53.3 	"/>
	<polygon class="st1" points="54.5,33 57.7,33 55.5,35.4 52.3,35.4 54.5,33 	"/>
	<polygon class="st1" points="46.6,40.1 48.9,41.2 48.4,41.4 44.4,42.5 46.6,40.1 	"/>
	<path class="st1" d="M41.2,40.8c-0.6,1-3,1.9-5.4,1.9c-2.4,0-3.8-0.8-3.2-1.9c0.6-1,3-1.9,5.4-1.9C40.4,38.9,41.8,39.8,41.2,40.8z"
		/>
	<path class="st0" d="M60.5,23c-0.3,1.3-1.6,2.3-2.9,2.3H36c-1.3,0-2-1-1.7-2.3l4.2-15.7C38.9,6,40.2,5,41.4,5H63c1.3,0,2,1,1.7,2.3
		L60.5,23z"/>
</g>
</svg>
