<?xml version="1.0" encoding="utf-8"?>
<!-- Generator: Adobe Illustrator 20.1.0, SVG Export Plug-In . SVG Version: 6.00 Build 0)  -->
<svg version="1.1" id="Layer_1" xmlns="http://www.w3.org/2000/svg" xmlns:xlink="http://www.w3.org/1999/xlink" x="0px" y="0px"
	 viewBox="0 0 39.4 63.5" style="enable-background:new 0 0 39.4 63.5;" xml:space="preserve">
<style type="text/css">
	.st0{fill:#FFAA00;stroke:#FFFFFF;stroke-width:0.8;}
	.st1{fill:none;stroke:#FFFFFF;stroke-width:0.6;}
	.st2{fill:#FFFFFF;}
	.st3{fill:none;stroke:#FFFFFF;stroke-width:0.8;}
</style>
<g>
	<rect x="1.1" y="6" class="st0" width="32.3" height="56.4"/>
	<polygon class="st0" points="1.1,6 7.3,1 38.5,1 33.5,6 	"/>
	<polygon class="st0" points="33.5,62.4 38.5,56.2 38.5,1 33.5,6 	"/>
	<g>
		<line class="st0" x1="1.1" y1="28.1" x2="33.3" y2="28.1"/>
	</g>
	<g>
		<line class="st1" x1="1.1" y1="58.5" x2="33.3" y2="58.5"/>
	</g>
	<polygon class="st2" points="14.8,46.1 14.8,50.7 13,50.7 16.6,55.3 20.4,50.7 18.6,50.7 18.6,46.1 	"/>
	<polygon class="st2" points="14.8,42.4 14.8,37.8 13,37.8 16.6,33.1 20.4,37.8 18.6,37.8 18.6,42.4 	"/>
	<polygon class="st2" points="5.4,42.6 10,42.6 10,40.8 14.7,44.4 10,48.1 10,46.3 5.4,46.3 	"/>
	<polygon class="st2" points="27.9,42.6 23.2,42.6 23.2,40.8 18.6,44.4 23.2,48.1 23.2,46.3 27.9,46.3 	"/>
	<rect x="3.7" y="10" class="st0" width="15" height="6.2"/>
	<line class="st3" x1="5.2" y1="13.3" x2="17.4" y2="13.3"/>
</g>
</svg>
