<?xml version="1.0" encoding="utf-8"?>
<!-- Generator: Adobe Illustrator 20.1.0, SVG Export Plug-In . SVG Version: 6.00 Build 0)  -->
<svg version="1.1" id="Layer_1" xmlns="http://www.w3.org/2000/svg" xmlns:xlink="http://www.w3.org/1999/xlink" x="0px" y="0px"
	 viewBox="0 0 89.5 62.6" style="enable-background:new 0 0 89.5 62.6;" xml:space="preserve">
<style type="text/css">
	.st0{fill:#FFAA00;stroke:#FFFFFF;stroke-width:0.8;}
	.st1{fill:#FFFFFF;}
	.st2{stroke:#FFFFFF;stroke-width:1.6;}
	.st3{fill:#FFAA00;stroke:#FFFFFF;stroke-width:0.589;}
	.st4{fill:#FFFFFF;stroke:#FFFFFF;stroke-width:0.2222;}
	.st5{fill:#FFFFFF;stroke:#FFFFFF;stroke-width:6.660000e-02;}
</style>
<g>
	<g>
		<g>
			<g>
				<rect x="1.1" y="11.6" class="st0" width="76.3" height="50.1"/>
				<polygon class="st0" points="88.5,51.7 77.4,61.7 77.4,11.6 88.5,0.9 				"/>
				<polygon class="st0" points="14.3,0.9 88.5,0.9 77.4,11.6 1.1,11.6 				"/>
				<g>
					<polygon class="st1" points="16.6,39 5.5,39 5.5,36.9 16.6,36.9 16.6,33.8 24,38 16.6,42.1 					"/>
				</g>
				<g>
					<polygon class="st1" points="61.6,24.8 53.8,24.8 53.8,22.7 61.6,22.7 61.6,19.6 69,23.7 61.6,27.9 					"/>
				</g>
				<g>
					<polygon class="st1" points="67.6,37.4 53.8,37.4 53.8,35.4 67.6,35.4 67.6,32.2 75,36.4 67.6,40.6 					"/>
				</g>
				<g>
					<polygon class="st1" points="61.6,50.1 53.8,50.1 53.8,48.1 61.6,48.1 61.6,44.9 69,49.1 61.6,53.3 					"/>
				</g>
			</g>
		</g>
	</g>
	<rect x="28.5" y="18.1" class="st2" width="19.3" height="37.7"/>
</g>
<g>
	<g>
		<g>
			<rect x="28.3" y="15.4" class="st3" width="19.7" height="42.6"/>
			<rect x="33.5" y="47.9" class="st4" width="8.5" height="5.7"/>
			<g>
				<rect x="45" y="53.8" class="st5" width="1.4" height="1.7"/>
				<rect x="45" y="50.3" class="st5" width="1.4" height="1.7"/>
				<rect x="45" y="46.8" class="st5" width="1.4" height="1.7"/>
				<rect x="45" y="43.4" class="st5" width="1.4" height="1.7"/>
				<rect x="45" y="39.9" class="st5" width="1.4" height="1.7"/>
				<polygon class="st5" points="46.4,36.4 46.4,38.1 45,38.1 45,36.4 				"/>
				<rect x="45" y="33" class="st5" width="1.4" height="1.7"/>
				<rect x="45" y="29.5" class="st5" width="1.4" height="1.7"/>
				<rect x="45" y="26" class="st5" width="1.4" height="1.7"/>
				<polygon class="st5" points="46.4,22.6 46.4,24.3 45,24.3 45,22.6 				"/>
				<rect x="45" y="19.1" class="st5" width="1.4" height="1.7"/>
			</g>
			<g>
				<rect x="29.7" y="53.7" class="st5" width="1.4" height="1.7"/>
				<polygon class="st5" points="31.1,50.2 31.1,51.9 29.7,51.9 29.7,50.2 				"/>
				<rect x="29.7" y="46.7" class="st5" width="1.4" height="1.7"/>
				<polygon class="st5" points="31.1,43.3 31.1,45 29.7,45 29.7,43.3 				"/>
				<rect x="29.7" y="39.8" class="st5" width="1.4" height="1.7"/>
				<rect x="29.7" y="36.3" class="st5" width="1.4" height="1.7"/>
				<rect x="29.7" y="32.9" class="st5" width="1.4" height="1.7"/>
				<polygon class="st5" points="31.1,29.4 31.1,31.1 29.7,31.1 29.7,29.4 				"/>
				<rect x="29.7" y="25.9" class="st5" width="1.4" height="1.7"/>
				<rect x="29.7" y="22.5" class="st5" width="1.4" height="1.7"/>
				<rect x="29.7" y="19" class="st5" width="1.4" height="1.7"/>
			</g>
			<rect x="33.5" y="38.7" class="st4" width="8.5" height="5.7"/>
			<rect x="33.5" y="29.5" class="st4" width="8.5" height="5.7"/>
			<rect x="33.5" y="20.2" class="st4" width="8.5" height="5.7"/>
		</g>
	</g>
</g>
</svg>
