<?xml version="1.0" encoding="utf-8"?>
<!-- Generator: Adobe Illustrator 20.1.0, SVG Export Plug-In . SVG Version: 6.00 Build 0)  -->
<svg version="1.1" id="Layer_1" xmlns="http://www.w3.org/2000/svg" xmlns:xlink="http://www.w3.org/1999/xlink" x="0px" y="0px"
	 viewBox="0 0 81.2 65" style="enable-background:new 0 0 81.2 65;" xml:space="preserve">
<style type="text/css">
	.st0{fill:#FFAA00;stroke:#FFFFFF;stroke-width:0.8;}
	.st1{fill:none;stroke:#FFAA00;stroke-width:0.8;}
</style>
<g>
	<g>
		<rect x="10.1" y="42.8" class="st0" width="45.7" height="8.6"/>
		<polyline class="st0" points="63.6,35 63.6,43.7 55.8,51.5 55.8,42.8 10.1,42.8 		"/>
		<line class="st0" x1="10.4" y1="35" x2="63.6" y2="35"/>
		<line class="st0" x1="55.8" y1="42.8" x2="63.6" y2="35"/>
		<g>
			<g>
				<polygon class="st0" points="53.6,57.7 53.6,52.6 1,52.6 7,46.6 59.6,46.6 59.6,51.7 				"/>
				<g>
					<rect x="1" y="52.6" class="st0" width="52.6" height="5.1"/>
				</g>
			</g>
			<line class="st0" x1="53.6" y1="52.6" x2="59.6" y2="46.6"/>
		</g>
		<g>
			<g>
				<g>
					<rect x="10.1" y="8.2" class="st0" width="45.7" height="34.5"/>
				</g>
				<polygon class="st0" points="55.8,42.7 63.6,34.9 63.6,0.4 17.9,0.4 10.1,8.2 55.8,8.2 				"/>
				<g>
					<rect x="14" y="12.2" class="st0" width="37.7" height="26.5"/>
				</g>
				<line class="st0" x1="55.8" y1="8.2" x2="63.6" y2="0.4"/>
			</g>
			<g>
				<g>
					
						<rect x="68.3" y="49.6" transform="matrix(0.8111 -0.5848 0.5848 0.8111 -19.162 53.2738)" class="st0" width="9.2" height="13.5"/>
				</g>
				<path class="st1" d="M69.1,50.7c-1.3-2.3-3.8-0.9-3.3-4.6c0.5-3.9-2.1-6.4-6.8-4.3"/>
			</g>
		</g>
	</g>
</g>
</svg>
