<?xml version="1.0" encoding="utf-8"?>
<!-- Generator: Adobe Illustrator 20.1.0, SVG Export Plug-In . SVG Version: 6.00 Build 0)  -->
<svg version="1.1" id="Layer_1" xmlns="http://www.w3.org/2000/svg" xmlns:xlink="http://www.w3.org/1999/xlink" x="0px" y="0px"
	 viewBox="0 0 97.6 48.5" style="enable-background:new 0 0 97.6 48.5;" xml:space="preserve">
<style type="text/css">
	.st0{fill:#FFAA00;stroke:#FFFFFF;stroke-width:0.8;}
	.st1{stroke:#FFFFFF;stroke-width:2;}
	.st2{fill:#FFFFFF;stroke:#FFFFFF;stroke-width:0.7966;}
	.st3{fill:#FFFFFF;}
</style>
<g>
	<polygon class="st0" points="1.1,24.2 30,0.9 96.6,0.9 72.7,24.2 	"/>
	<polygon class="st0" points="72.7,47.4 96.6,21.7 96.6,0.9 72.7,24.2 	"/>
	<rect x="1.2" y="24.2" class="st0" width="71.5" height="23.2"/>
	<line class="st1" x1="37" y1="47.5" x2="37" y2="24.2"/>
	<polygon class="st2" points="50.4,42.9 62.9,35.9 50.4,28.8 	"/>
	<polygon class="st3" points="28.8,13.1 28.8,13.1 60.3,13.1 56.4,16.9 73.8,11.9 66.8,7 62.9,10.7 31.3,10.8 	"/>
	<polygon class="st3" points="21.9,31.3 6.6,31.3 6.6,29.3 21.9,29.3 21.9,26.3 30.7,30.3 21.9,34.3 	"/>
	<polygon class="st3" points="21.9,42.1 6.6,42.1 6.6,40.2 21.9,40.2 21.9,37.1 30.7,41.1 21.9,45.1 	"/>
</g>
</svg>
