<?xml version="1.0" encoding="utf-8"?>
<!-- Generator: Adobe Illustrator 20.1.0, SVG Export Plug-In . SVG Version: 6.00 Build 0)  -->
<svg version="1.1" id="Layer_1" xmlns="http://www.w3.org/2000/svg" xmlns:xlink="http://www.w3.org/1999/xlink" x="0px" y="0px"
	 viewBox="0 0 78.8 64" style="enable-background:new 0 0 78.8 64;" xml:space="preserve">
<style type="text/css">
	.st0{fill:#0080BC;stroke:#FFFFFF;stroke-width:0.8;}
	.st1{fill-rule:evenodd;clip-rule:evenodd;fill:#FFFFFF;}
	.st2{fill:#FFFFFF;stroke:#FFFFFF;stroke-width:0.64;}
	.st3{fill:#6DB0D8;}
	.st4{fill:none;stroke:#FFFFFF;stroke-width:0.88;stroke-linecap:round;stroke-linejoin:round;}
	.st5{fill:#6DB0D8;stroke:#FFFFFF;stroke-width:0.66;stroke-linecap:round;stroke-linejoin:round;}
	.st6{fill:#FFFFFF;}
	.st7{fill:#010101;}
	.st8{fill:none;stroke:#000000;stroke-width:0.4;stroke-linejoin:round;}
	.st9{stroke:#000000;stroke-width:0.12;}
	.st10{fill:#FFFFFF;stroke:#000000;stroke-width:0.5;}
	.st11{fill-rule:evenodd;clip-rule:evenodd;fill:#6DB0D8;}
</style>
<g>
	<g>
		<rect x="1.1" y="11.8" class="st0" width="68" height="51"/>
		<polygon class="st0" points="77.9,49.9 69.2,62.8 69.2,11.8 77.9,1.1 		"/>
		<polygon class="st0" points="14.3,1.1 77.9,1.1 69.2,11.8 1.1,11.8 		"/>
	</g>
	<g>
		<polygon class="st1" points="65.3,39 7.7,39 7.7,39 7.7,40.2 3.7,38.1 7.7,35.8 7.7,37.1 65.3,37.1 		"/>
		<g>
			<g>
				<g>
					<g>
						<path class="st2" d="M14.4,19.9H56c1.6,0,3,1.3,3,3v31.3c0,1.6-1.3,3-3,3H14.4c-1.6,0-3-1.3-3-3V22.9
							C11.5,21.3,12.8,19.9,14.4,19.9z"/>
					</g>
				</g>
			</g>
		</g>
		<g>
			<g>
				<rect x="13.8" y="23.3" class="st3" width="20.9" height="20.9"/>
				<line class="st4" x1="17.4" y1="27.3" x2="31.1" y2="27.3"/>
				<line class="st4" x1="17.4" y1="30" x2="31.1" y2="30"/>
				<line class="st4" x1="17.4" y1="32.7" x2="31.1" y2="32.7"/>
				<line class="st4" x1="17.4" y1="35.4" x2="31.1" y2="35.4"/>
				<line class="st4" x1="17.4" y1="38.1" x2="31.1" y2="38.1"/>
				<line class="st4" x1="17.4" y1="40.8" x2="31.1" y2="40.8"/>
			</g>
			<rect x="33.7" y="32.8" class="st5" width="23" height="23"/>
			<path class="st6" d="M46.4,45.7c1.5-0.5,2.5-1.8,2.5-3.5c0-2-1.6-3.7-3.7-3.7c-2,0-3.7,1.6-3.7,3.7c0,1.6,1,2.9,2.4,3.4
				c-1.6,0.1-3.2,0.6-4.9,1.6v9.5h12.2v-9.5C51.3,47.2,49.3,46,46.4,45.7z"/>
		</g>
		<polygon class="st1" points="64.8,46.2 63.4,46.2 63.4,44.9 59.4,47.2 63.4,49.4 63.4,48.1 64.8,48.1 64.8,58.9 66.7,58.9 
			66.7,48.1 66.7,46.2 		"/>
	</g>
	<g>
		<g>
			<g>
				<g>
					<ellipse transform="matrix(0.6283 -0.778 0.778 0.6283 -21.0382 51.1398)" class="st7" cx="43" cy="47.6" rx="0.5" ry="0.5"/>
					<path class="st8" d="M38.6,44.7c0.5,0.8,1.7,1.9,2.9,2.6c0.8,0.4,1.4,0.6,1.6,0.5"/>
					<circle class="st7" cx="38.6" cy="43.4" r="1.2"/>
				</g>
			</g>
		</g>
		<circle class="st7" cx="51.6" cy="43.4" r="1.2"/>
		<path class="st9" d="M45.1,34.6c0,0,7.2,0.2,7.2,7.2V43l-0.8-0.1l0.3-1c-0.1-6.8-6.7-6.7-6.7-6.7h0.1c0,0-6.3-0.4-6.7,6.4l0.3,1.3
			L37.9,43v-1.2C37.9,34.8,45.1,34.6,45.1,34.6"/>
	</g>
	<g>
		<ellipse transform="matrix(0.9934 -0.1145 0.1145 0.9934 -4.3352 3.9655)" class="st10" cx="32.3" cy="39.7" rx="0.7" ry="0.7"/>
		
			<rect x="29.4" y="35.4" transform="matrix(0.6305 -0.7762 0.7762 0.6305 -18.3298 37.5266)" class="st10" width="1.8" height="5.2"/>
		<path class="st10" d="M16.8,32.6c-0.4,3.3,2,6.3,5.3,6.7c3.3,0.4,6.3-2,6.7-5.3c0.4-3.3-2-6.3-5.3-6.7
			C20.2,26.9,17.2,29.3,16.8,32.6z M17.7,32.7c0.3-2.9,2.9-4.9,5.8-4.6c2.9,0.3,4.9,2.9,4.6,5.8c-0.3,2.9-2.9,4.9-5.8,4.6
			C19.4,38.1,17.3,35.6,17.7,32.7z"/>
		<path class="st10" d="M17.5,32.1c-0.4,3.3,2,6.3,5.3,6.7c3.3,0.4,6.3-2,6.7-5.3c0.4-3.3-2-6.3-5.3-6.7
			C20.9,26.3,17.9,28.7,17.5,32.1z M18.4,32.2c0.3-2.9,2.9-4.9,5.8-4.6c2.9,0.3,4.9,2.9,4.6,5.8c-0.3,2.9-2.9,4.9-5.8,4.6
			C20.1,37.6,18,35,18.4,32.2z"/>
		<path d="M32.3,39.7"/>
	</g>
	<polygon class="st11" points="22.8,23.2 22.8,17.6 22.8,17.6 21.6,17.6 23.8,13.6 26,17.6 24.7,17.6 24.7,23.2 	"/>
</g>
</svg>
