<?xml version="1.0" encoding="utf-8"?>
<!-- Generator: Adobe Illustrator 20.1.0, SVG Export Plug-In . SVG Version: 6.00 Build 0)  -->
<svg version="1.1" id="Layer_1" xmlns="http://www.w3.org/2000/svg" xmlns:xlink="http://www.w3.org/1999/xlink" x="0px" y="0px"
	 viewBox="0 0 74.3 53.5" style="enable-background:new 0 0 74.3 53.5;" xml:space="preserve">
<style type="text/css">
	.st0{fill:#FFAA00;stroke:#FFFFFF;stroke-width:0.8;}
	.st1{fill:#FFFFFF;}
	.st2{fill:none;stroke:#FFFFFF;stroke-miterlimit:1;}
</style>
<g>
	<g>
		<g>
			<g>
				<rect x="1" y="6" class="st0" width="67.3" height="46.4"/>
			</g>
			<g>
				<polygon class="st0" points="1,6 6,1 73.3,1 68.3,6 				"/>
			</g>
			<g>
				<polygon class="st0" points="68.3,52.5 73.3,47.4 73.3,1 68.3,6 				"/>
			</g>
		</g>
	</g>
	<path class="st1" d="M40.3,34.3c1.5-1.5,2-4,2-6.6c0-2.5-0.5-5.1-2-6.6l2-3.5c2,2.5,3.4,6.1,3,10.1c0,4-1,7.6-3,10.1L40.3,34.3z"/>
	<path class="st1" d="M51.6,36.9c1.5-2,2-5.1,2-8.6c0-3-0.5-6.6-2-8.6l2-4c2,3.5,3,8.1,3,12.6c0,4.5-1,9.1-3,12.6L51.6,36.9z"/>
	<path class="st1" d="M28.5,34.3c-1-1.5-2-4-2-6.6c0-2.5,1-5.1,2-6.6l-2-3.5c-2,2.5-3,6.1-3,10.1c0,4,1,7.6,3,10.1L28.5,34.3z"/>
	<path class="st1" d="M18.6,36.9c-1-2-2-5.1-2-8.6c0-3,1-6.6,2-8.6l-2-4c-2,3.5-3,8.1-3,12.6c0,4.5,1,9.1,3,12.6L18.6,36.9z"/>
	<line class="st2" x1="34.2" y1="29.3" x2="34.2" y2="44.4"/>
	<circle class="st1" cx="34.1" cy="27.7" r="1.2"/>
</g>
</svg>
