<?xml version="1.0" encoding="UTF-8" standalone="no"?>
<svg
   xmlns:dc="http://purl.org/dc/elements/1.1/"
   xmlns:cc="http://creativecommons.org/ns#"
   xmlns:rdf="http://www.w3.org/1999/02/22-rdf-syntax-ns#"
   xmlns:svg="http://www.w3.org/2000/svg"
   xmlns="http://www.w3.org/2000/svg"
   xmlns:sodipodi="http://sodipodi.sourceforge.net/DTD/sodipodi-0.dtd"
   xmlns:inkscape="http://www.inkscape.org/namespaces/inkscape"
   version="1.1"
   width="511.0000"
   height="511.0000"
   id="svg22"
   sodipodi:docname="Anti-Spam02.svg"
   inkscape:version="0.92.3 (2405546, 2018-03-11)">
  <metadata
     id="metadata28">
    <rdf:RDF>
      <cc:Work
         rdf:about="">
        <dc:format>image/svg+xml</dc:format>
        <dc:type
           rdf:resource="http://purl.org/dc/dcmitype/StillImage" />
      </cc:Work>
    </rdf:RDF>
  </metadata>
  <defs
     id="defs26" />
  <sodipodi:namedview
     pagecolor="#0065A2"
     bordercolor="#666666"
     borderopacity="1"
     objecttolerance="10"
     gridtolerance="10"
     guidetolerance="10"
     inkscape:pageopacity="0"
     inkscape:pageshadow="2"
     inkscape:window-width="838"
     inkscape:window-height="480"
     id="namedview24"
     showgrid="false"
     inkscape:zoom="0.46183953"
     inkscape:cx="255.5"
     inkscape:cy="255.5"
     inkscape:window-x="49"
     inkscape:window-y="27"
     inkscape:window-maximized="0"
     inkscape:current-layer="svg22" />
  <g
     transform="translate(-32.0000, 543.0000)"
     id="g20"
     style="fill:#0065A2">
    <path
       d="M 288.0000,-503.0000 C 169.0000,-503.0000 72.0000,-407.0000 72.0000,-288.0000 C 72.0000,-169.0000 169.0000,-72.0000 288.0000,-72.0000 C 407.0000,-72.0000 503.0000,-169.0000 503.0000,-288.0000 C 503.0000,-407.0000 407.0000,-503.0000 288.0000,-503.0000 M 288.0000,-542.0000 C 428.0000,-542.0000 542.0000,-428.0000 542.0000,-288.0000 C 542.0000,-147.0000 428.0000,-33.0000 288.0000,-33.0000 C 147.0000,-33.0000 33.0000,-147.0000 33.0000,-288.0000 C 33.0000,-428.0000 147.0000,-542.0000 288.0000,-542.0000 "
       fill="#425152"
       stroke="none"
       id="path2"
       style="fill:#0065A2" />
    <path
       d="M 288.0000,-503.0000 C 288.0000,-504.0000 288.0000,-504.0000 288.0000,-504.0000 C 168.0000,-504.0000 71.0000,-407.0000 71.0000,-288.0000 C 71.0000,-168.0000 168.0000,-71.0000 288.0000,-71.0000 C 407.0000,-71.0000 504.0000,-168.0000 504.0000,-288.0000 C 504.0000,-407.0000 407.0000,-504.0000 288.0000,-504.0000 C 288.0000,-503.0000 288.0000,-503.0000 288.0000,-503.0000 C 288.0000,-502.0000 288.0000,-502.0000 288.0000,-502.0000 C 347.0000,-502.0000 400.0000,-478.0000 439.0000,-439.0000 C 478.0000,-400.0000 502.0000,-347.0000 502.0000,-288.0000 C 502.0000,-228.0000 478.0000,-175.0000 439.0000,-136.0000 C 400.0000,-97.0000 347.0000,-73.0000 288.0000,-73.0000 C 228.0000,-73.0000 175.0000,-97.0000 136.0000,-136.0000 C 97.0000,-175.0000 73.0000,-228.0000 73.0000,-288.0000 C 73.0000,-347.0000 97.0000,-400.0000 136.0000,-439.0000 C 175.0000,-478.0000 228.0000,-502.0000 288.0000,-502.0000 C 288.0000,-503.0000 288.0000,-503.0000 288.0000,-503.0000 M 288.0000,-542.0000 C 288.0000,-541.0000 288.0000,-541.0000 288.0000,-541.0000 C 358.0000,-541.0000 421.0000,-513.0000 467.0000,-467.0000 C 513.0000,-421.0000 541.0000,-358.0000 541.0000,-288.0000 C 541.0000,-218.0000 513.0000,-154.0000 467.0000,-108.0000 C 421.0000,-63.0000 358.0000,-34.0000 288.0000,-34.0000 C 218.0000,-34.0000 154.0000,-63.0000 108.0000,-108.0000 C 63.0000,-154.0000 34.0000,-218.0000 34.0000,-288.0000 C 34.0000,-358.0000 63.0000,-421.0000 108.0000,-467.0000 C 154.0000,-513.0000 218.0000,-541.0000 288.0000,-541.0000 C 288.0000,-542.0000 288.0000,-542.0000 288.0000,-542.0000 C 288.0000,-543.0000 288.0000,-543.0000 288.0000,-543.0000 C 146.0000,-543.0000 32.0000,-429.0000 32.0000,-288.0000 C 32.0000,-146.0000 146.0000,-32.0000 288.0000,-32.0000 C 429.0000,-32.0000 543.0000,-146.0000 543.0000,-288.0000 C 543.0000,-429.0000 429.0000,-543.0000 288.0000,-543.0000 C 288.0000,-542.0000 288.0000,-542.0000 288.0000,-542.0000 "
       fill="#333E48"
       stroke="none"
       id="path4"
       style="fill:#0065A2" />
    <path
       d="M 119.0000,-420.0000 C 111.0000,-410.0000 104.0000,-399.0000 98.0000,-387.0000 C 454.0000,-152.0000 454.0000,-152.0000 454.0000,-152.0000 C 462.0000,-163.0000 470.0000,-174.0000 476.0000,-186.0000 C 119.0000,-420.0000 119.0000,-420.0000 119.0000,-420.0000 "
       fill="#8E9394"
       stroke="none"
       id="path6"
       style="fill:#0065A2" />
    <path
       d="M 478.0000,-184.0000 C 472.0000,-173.0000 464.0000,-161.0000 456.0000,-151.0000 C 470.0000,-142.0000 470.0000,-142.0000 470.0000,-142.0000 C 492.0000,-175.0000 492.0000,-175.0000 492.0000,-175.0000 C 478.0000,-184.0000 478.0000,-184.0000 478.0000,-184.0000 M 114.0000,-424.0000 C 92.0000,-391.0000 92.0000,-391.0000 92.0000,-391.0000 C 96.0000,-388.0000 96.0000,-388.0000 96.0000,-388.0000 C 102.0000,-400.0000 109.0000,-411.0000 117.0000,-422.0000 C 114.0000,-424.0000 114.0000,-424.0000 114.0000,-424.0000 "
       fill="#425252"
       stroke="none"
       id="path8"
       style="fill:#0065A2" />
    <path
       d="M 476.0000,-186.0000 C 470.0000,-174.0000 462.0000,-163.0000 454.0000,-152.0000 C 456.0000,-151.0000 456.0000,-151.0000 456.0000,-151.0000 C 464.0000,-161.0000 472.0000,-173.0000 478.0000,-184.0000 C 476.0000,-186.0000 476.0000,-186.0000 476.0000,-186.0000 M 117.0000,-422.0000 C 109.0000,-411.0000 102.0000,-400.0000 96.0000,-388.0000 C 98.0000,-387.0000 98.0000,-387.0000 98.0000,-387.0000 C 104.0000,-399.0000 111.0000,-410.0000 119.0000,-420.0000 C 117.0000,-422.0000 117.0000,-422.0000 117.0000,-422.0000 "
       fill="#3B484D"
       stroke="none"
       id="path10"
       style="fill:#0065A2" />
    <path
       d="M 418.0000,-186.0000 C 166.0000,-186.0000 166.0000,-186.0000 166.0000,-186.0000 C 166.0000,-336.0000 166.0000,-336.0000 166.0000,-336.0000 C 166.0000,-336.0000 166.0000,-336.0000 166.0000,-336.0000 C 289.0000,-260.0000 289.0000,-260.0000 289.0000,-260.0000 C 289.0000,-260.0000 289.0000,-260.0000 289.0000,-260.0000 C 289.0000,-260.0000 289.0000,-260.0000 290.0000,-260.0000 C 290.0000,-260.0000 290.0000,-260.0000 290.0000,-260.0000 C 291.0000,-259.0000 291.0000,-259.0000 292.0000,-259.0000 C 292.0000,-259.0000 292.0000,-259.0000 292.0000,-259.0000 C 292.0000,-259.0000 292.0000,-259.0000 292.0000,-259.0000 C 292.0000,-259.0000 292.0000,-259.0000 292.0000,-259.0000 C 292.0000,-259.0000 292.0000,-259.0000 292.0000,-259.0000 C 292.0000,-259.0000 293.0000,-259.0000 293.0000,-260.0000 C 294.0000,-260.0000 294.0000,-260.0000 294.0000,-260.0000 C 295.0000,-260.0000 295.0000,-260.0000 295.0000,-260.0000 C 295.0000,-260.0000 295.0000,-260.0000 295.0000,-260.0000 C 413.0000,-336.0000 413.0000,-336.0000 413.0000,-336.0000 C 418.0000,-336.0000 418.0000,-336.0000 418.0000,-336.0000 Z M 292.0000,-273.0000 C 189.0000,-336.0000 189.0000,-336.0000 189.0000,-336.0000 C 390.0000,-336.0000 390.0000,-336.0000 390.0000,-336.0000 Z M 426.0000,-361.0000 C 158.0000,-361.0000 158.0000,-361.0000 158.0000,-361.0000 C 149.0000,-361.0000 141.0000,-353.0000 141.0000,-344.0000 C 141.0000,-178.0000 141.0000,-178.0000 141.0000,-178.0000 C 141.0000,-169.0000 149.0000,-161.0000 158.0000,-161.0000 C 426.0000,-161.0000 426.0000,-161.0000 426.0000,-161.0000 C 435.0000,-161.0000 442.0000,-169.0000 442.0000,-178.0000 C 442.0000,-344.0000 442.0000,-344.0000 442.0000,-344.0000 C 442.0000,-353.0000 435.0000,-361.0000 426.0000,-361.0000 Z "
       fill="#425152"
       stroke="none"
       id="path12"
       style="fill:#0065A2" />
    <path
       d="M 224.0000,-244.0000 L 253.0000,-244.0000 L 224.0000,-289.0000 L 224.0000,-244.0000 L 224.0000,-244.0000 Z "
       fill="#425152"
       stroke-width="1px"
       stroke="#425152"
       id="path14"
       style="fill:#0065A2" />
    <path
       d="M 296.0000,-431.0000 C 287.0000,-431.0000 279.0000,-424.0000 279.0000,-414.0000 C 279.0000,-405.0000 287.0000,-397.0000 296.0000,-397.0000 C 305.0000,-397.0000 313.0000,-405.0000 313.0000,-414.0000 C 313.0000,-424.0000 305.0000,-431.0000 296.0000,-431.0000 Z M 296.0000,-451.0000 C 316.0000,-451.0000 333.0000,-435.0000 333.0000,-414.0000 C 333.0000,-394.0000 316.0000,-377.0000 296.0000,-377.0000 C 276.0000,-377.0000 259.0000,-394.0000 259.0000,-414.0000 C 259.0000,-435.0000 276.0000,-451.0000 296.0000,-451.0000 Z "
       fill="#425152"
       stroke="none"
       id="path16"
       style="fill:#0065A2" />
    <path
       d="M 306.0000,-378.0000 C 306.0000,-240.0000 306.0000,-240.0000 306.0000,-240.0000 C 306.0000,-240.0000 306.0000,-237.0000 305.0000,-232.0000 C 302.0000,-210.0000 288.0000,-192.0000 262.0000,-192.0000 C 232.0000,-192.0000 222.0000,-219.0000 224.0000,-248.0000 C 243.0000,-245.0000 243.0000,-245.0000 243.0000,-245.0000 C 243.0000,-245.0000 243.0000,-243.0000 243.0000,-240.0000 C 244.0000,-228.0000 247.0000,-212.0000 262.0000,-212.0000 C 279.0000,-212.0000 286.0000,-226.0000 286.0000,-240.0000 C 286.0000,-378.0000 286.0000,-378.0000 286.0000,-378.0000 Z "
       fill="#425152"
       stroke="none"
       id="path18"
       style="fill:#0065A2" />
  </g>
</svg>
