<?xml version="1.0"  encoding="UTF-8" standalone="no"?>
<svg version="1.1" xmlns="http://www.w3.org/2000/svg" xmlns:xlink="http://www.w3.org/1999/xlink" width="1334.0000" height="1132.0000">
<g transform="translate(380.0000, 279.0000)">
<path d="M 226.0000,-279.0000 L -380.0000,-279.0000 L -380.0000,54.0000 L 226.0000,54.0000 L 226.0000,-279.0000 Z "  fill="#0065A2" stroke-width="1px" stroke="#FFFFFF" />
<path d="M -154.0000,122.0000 L -380.0000,122.0000 L -380.0000,455.0000 L -154.0000,455.0000 L -154.0000,122.0000 Z "  fill="#0065A2" stroke-width="1px" stroke="#FFFFFF" />
<path d="M 188.0000,520.0000 C -380.0000,520.0000 -380.0000,520.0000 -380.0000,520.0000 C -380.0000,853.0000 -380.0000,853.0000 -380.0000,853.0000 C 221.0000,853.0000 221.0000,853.0000 221.0000,853.0000 C 189.0000,791.0000 170.0000,720.0000 170.0000,645.0000 C 170.0000,602.0000 177.0000,559.0000 188.0000,520.0000 Z "  fill="#0065A2" stroke="none" />
<path d="M 590.0000,211.0000 C 723.0000,211.0000 841.0000,275.0000 918.0000,375.0000 C 918.0000,122.0000 918.0000,122.0000 918.0000,122.0000 C -77.0000,122.0000 -77.0000,122.0000 -77.0000,122.0000 C -77.0000,455.0000 -77.0000,455.0000 -77.0000,455.0000 C 213.0000,455.0000 213.0000,455.0000 213.0000,455.0000 C 281.0000,310.0000 424.0000,211.0000 590.0000,211.0000 Z "  fill="#0065A2" stroke="none" />
<path d="M 917.0000,-279.0000 L 311.0000,-279.0000 L 311.0000,54.0000 L 917.0000,54.0000 L 917.0000,-279.0000 Z "  fill="#0065A2" stroke-width="1px" stroke="#FFFFFF" />
<path d="M 758.0000,316.0000 C 758.0000,316.0000 758.0000,316.0000 758.0000,316.0000 C 708.0000,289.0000 651.0000,274.0000 590.0000,274.0000 C 509.0000,274.0000 435.0000,300.0000 375.0000,344.0000 C 375.0000,344.0000 375.0000,344.0000 375.0000,344.0000 C 330.0000,377.0000 293.0000,420.0000 267.0000,469.0000 C 267.0000,469.0000 267.0000,469.0000 267.0000,469.0000 C 265.0000,474.0000 262.0000,479.0000 260.0000,484.0000 C 260.0000,484.0000 260.0000,484.0000 260.0000,484.0000 C 237.0000,531.0000 225.0000,584.0000 225.0000,639.0000 C 225.0000,701.0000 241.0000,760.0000 268.0000,811.0000 C 268.0000,811.0000 268.0000,811.0000 268.0000,811.0000 C 275.0000,824.0000 283.0000,837.0000 292.0000,849.0000 C 292.0000,849.0000 292.0000,849.0000 292.0000,849.0000 C 292.0000,849.0000 292.0000,849.0000 292.0000,849.0000 C 292.0000,849.0000 292.0000,849.0000 292.0000,849.0000 C 353.0000,849.0000 353.0000,849.0000 353.0000,849.0000 C 335.0000,829.0000 319.0000,807.0000 307.0000,783.0000 C 317.0000,748.0000 330.0000,710.0000 349.0000,669.0000 C 356.0000,692.0000 366.0000,715.0000 377.0000,738.0000 C 399.0000,780.0000 427.0000,817.0000 458.0000,849.0000 C 471.0000,849.0000 471.0000,849.0000 471.0000,849.0000 C 501.0000,849.0000 501.0000,849.0000 501.0000,849.0000 C 464.0000,814.0000 429.0000,773.0000 404.0000,724.0000 C 388.0000,693.0000 377.0000,661.0000 369.0000,629.0000 C 383.0000,604.0000 398.0000,580.0000 416.0000,555.0000 C 422.0000,558.0000 429.0000,559.0000 437.0000,559.0000 C 455.0000,559.0000 472.0000,550.0000 481.0000,536.0000 C 528.0000,552.0000 574.0000,576.0000 614.0000,611.0000 C 655.0000,647.0000 689.0000,689.0000 717.0000,732.0000 C 707.0000,742.0000 701.0000,756.0000 701.0000,772.0000 C 701.0000,780.0000 702.0000,788.0000 705.0000,795.0000 C 699.0000,799.0000 692.0000,804.0000 685.0000,808.0000 C 658.0000,824.0000 631.0000,837.0000 604.0000,849.0000 C 650.0000,849.0000 650.0000,849.0000 650.0000,849.0000 C 672.0000,849.0000 672.0000,849.0000 672.0000,849.0000 C 681.0000,844.0000 691.0000,839.0000 700.0000,833.0000 C 708.0000,829.0000 716.0000,824.0000 724.0000,818.0000 C 734.0000,826.0000 746.0000,831.0000 759.0000,831.0000 C 764.0000,831.0000 768.0000,830.0000 772.0000,829.0000 C 775.0000,836.0000 778.0000,843.0000 781.0000,849.0000 C 814.0000,849.0000 814.0000,849.0000 814.0000,849.0000 C 810.0000,838.0000 804.0000,827.0000 799.0000,815.0000 C 810.0000,804.0000 817.0000,789.0000 817.0000,772.0000 C 817.0000,761.0000 814.0000,751.0000 809.0000,742.0000 C 843.0000,703.0000 870.0000,661.0000 891.0000,621.0000 C 896.0000,623.0000 901.0000,624.0000 906.0000,626.0000 C 907.0000,630.0000 907.0000,635.0000 907.0000,639.0000 C 907.0000,720.0000 876.0000,793.0000 827.0000,849.0000 C 887.0000,849.0000 887.0000,849.0000 887.0000,849.0000 C 930.0000,790.0000 954.0000,717.0000 954.0000,639.0000 C 954.0000,499.0000 875.0000,377.0000 758.0000,316.0000 Z M 671.0000,333.0000 C 666.0000,334.0000 660.0000,336.0000 654.0000,338.0000 C 649.0000,334.0000 642.0000,332.0000 635.0000,331.0000 C 634.0000,329.0000 634.0000,327.0000 633.0000,325.0000 C 646.0000,327.0000 659.0000,329.0000 671.0000,333.0000 Z M 361.0000,420.0000 C 419.0000,359.0000 500.0000,322.0000 590.0000,322.0000 C 594.0000,322.0000 598.0000,322.0000 602.0000,322.0000 C 603.0000,328.0000 604.0000,334.0000 606.0000,340.0000 C 598.0000,346.0000 593.0000,355.0000 591.0000,365.0000 C 549.0000,386.0000 505.0000,416.0000 461.0000,458.0000 C 454.0000,455.0000 446.0000,452.0000 437.0000,452.0000 C 417.0000,452.0000 399.0000,464.0000 390.0000,480.0000 C 378.0000,478.0000 367.0000,477.0000 356.0000,475.0000 C 357.0000,456.0000 359.0000,437.0000 361.0000,420.0000 Z M 326.0000,472.0000 C 324.0000,472.0000 322.0000,472.0000 321.0000,471.0000 C 323.0000,468.0000 324.0000,465.0000 326.0000,463.0000 C 326.0000,466.0000 326.0000,469.0000 326.0000,472.0000 Z M 289.0000,739.0000 C 278.0000,707.0000 273.0000,674.0000 273.0000,639.0000 C 273.0000,589.0000 284.0000,542.0000 305.0000,501.0000 C 311.0000,501.0000 318.0000,502.0000 325.0000,502.0000 C 325.0000,541.0000 328.0000,583.0000 337.0000,624.0000 C 316.0000,664.0000 300.0000,703.0000 289.0000,739.0000 Z M 361.0000,584.0000 C 357.0000,557.0000 355.0000,531.0000 355.0000,506.0000 C 365.0000,507.0000 374.0000,508.0000 384.0000,510.0000 C 384.0000,520.0000 388.0000,529.0000 393.0000,536.0000 C 381.0000,552.0000 370.0000,568.0000 361.0000,584.0000 Z M 787.0000,721.0000 C 779.0000,717.0000 769.0000,714.0000 759.0000,714.0000 C 754.0000,714.0000 748.0000,715.0000 743.0000,716.0000 C 714.0000,672.0000 678.0000,627.0000 634.0000,588.0000 C 590.0000,551.0000 540.0000,524.0000 490.0000,507.0000 C 490.0000,506.0000 490.0000,506.0000 490.0000,506.0000 C 490.0000,496.0000 488.0000,487.0000 483.0000,479.0000 C 521.0000,442.0000 560.0000,415.0000 598.0000,395.0000 C 606.0000,406.0000 618.0000,412.0000 631.0000,412.0000 C 632.0000,412.0000 632.0000,412.0000 632.0000,412.0000 C 648.0000,446.0000 670.0000,480.0000 702.0000,511.0000 C 752.0000,560.0000 811.0000,591.0000 862.0000,611.0000 C 842.0000,648.0000 818.0000,686.0000 787.0000,721.0000 Z M 875.0000,584.0000 C 826.0000,565.0000 770.0000,536.0000 723.0000,490.0000 C 695.0000,462.0000 675.0000,431.0000 660.0000,401.0000 C 668.0000,393.0000 672.0000,383.0000 672.0000,372.0000 C 672.0000,369.0000 672.0000,367.0000 671.0000,365.0000 C 690.0000,359.0000 707.0000,355.0000 723.0000,352.0000 C 804.0000,389.0000 866.0000,459.0000 892.0000,545.0000 C 887.0000,557.0000 882.0000,570.0000 875.0000,584.0000 Z "  fill="#0065A2" stroke="none" />
</g>
</svg>
