<?xml version="1.0" encoding="UTF-8" standalone="no"?>
<svg
   xmlns:dc="http://purl.org/dc/elements/1.1/"
   xmlns:cc="http://creativecommons.org/ns#"
   xmlns:rdf="http://www.w3.org/1999/02/22-rdf-syntax-ns#"
   xmlns:svg="http://www.w3.org/2000/svg"
   xmlns="http://www.w3.org/2000/svg"
   viewBox="0 0 57.16 28.76"
   height="28.76"
   width="57.16"
   xml:space="preserve"
   id="svg2"
   version="1.1"><metadata
     id="metadata8"><rdf:RDF><cc:Work
         rdf:about=""><dc:format>image/svg+xml</dc:format><dc:type
           rdf:resource="http://purl.org/dc/dcmitype/StillImage" /></cc:Work></rdf:RDF></metadata><defs
     id="defs6" /><g
     transform="matrix(1.3333333,0,0,-1.3333333,0,28.76)"
     id="g10"><g
       transform="scale(0.1)"
       id="g12"><path
         id="path14"
         style="fill:#FED100;fill-opacity:1;fill-rule:nonzero;stroke:none"
         d="m 375.805,111.859 49.699,101.864 H 81.3906 L 4.02734,111.859 H 375.805" /><path
         id="path16"
         style="fill:none;stroke:#FFFFFF;stroke-width:3.99993992;stroke-linecap:butt;stroke-linejoin:miter;stroke-miterlimit:4;stroke-dasharray:none;stroke-opacity:1"
         d="m 375.805,111.859 49.699,101.864 H 81.3906 L 4.02734,111.859 Z" /><path
         id="path18"
         style="fill:#FED100;fill-opacity:1;fill-rule:nonzero;stroke:none"
         d="m 425.523,121.273 -0.019,92.45 -49.699,-101.864 V 2.00391 L 425.523,121.273" /><path
         id="path20"
         style="fill:none;stroke:#FFFFFF;stroke-width:3.99993992;stroke-linecap:butt;stroke-linejoin:miter;stroke-miterlimit:4;stroke-dasharray:none;stroke-opacity:1"
         d="m 425.523,121.273 -0.019,92.45 -49.699,-101.864 V 2.00391 Z" /><path
         id="path22"
         style="fill:#FED100;fill-opacity:1;fill-rule:nonzero;stroke:none"
         d="M 375.805,2.00391 V 111.859 H 3.98047 L 4.11719,2.00391 H 375.805" /><path
         id="path24"
         style="fill:none;stroke:#FFFFFF;stroke-width:3.99993992;stroke-linecap:butt;stroke-linejoin:miter;stroke-miterlimit:4;stroke-dasharray:none;stroke-opacity:1"
         d="M 375.805,2.00391 V 111.859 H 3.98047 L 4.11719,2.00391 Z" /><path
         id="path26"
         style="fill:#FFFFFF;fill-opacity:1;fill-rule:nonzero;stroke:none"
         d="m 363.004,165.773 -139.816,18.29 -6.454,-9.958 -121.5934,0.129 -14.8906,-16.789 125.723,0.059 -6.289,-9.688 163.32,17.957" /></g></g></svg>