<?xml version="1.0" encoding="utf-8"?>
<!-- Generator: Adobe Illustrator 20.1.0, SVG Export Plug-In . SVG Version: 6.00 Build 0)  -->
<svg version="1.1" id="Layer_1" xmlns="http://www.w3.org/2000/svg" xmlns:xlink="http://www.w3.org/1999/xlink" x="0px" y="0px"
	 viewBox="0 0 73.3 63.7" style="enable-background:new 0 0 73.3 63.7;" xml:space="preserve">
<style type="text/css">
	.st0{fill:#FED100;stroke:#FFFFFF;stroke-width:0.8;}
	.st1{fill:#FFFFFF;stroke:#FED100;stroke-width:0.6;}
	.st2{fill:none;stroke:#FFFFFF;stroke-width:1.52;}
	.st3{fill:#FFFFFF;stroke:#FED100;stroke-width:0.6;}
	.st4{fill:none;stroke:#FED100;stroke-width:0.5042;}
	.st5{fill:#FFFFFF;stroke:#FED100;stroke-width:0.5042;}
</style>
<path class="st0" d="M72.9,14.5c0,7.8-16.2,14.1-36.3,14.1c-20,0-36.3-6.3-36.3-14.1v34.7c0,7.8,16.2,14.1,36.3,14.1
	c20,0,36.3-6.3,36.3-14.1V14.5z"/>
<ellipse class="st0" cx="36.7" cy="14.5" rx="36.3" ry="14.1"/>
<g>
	<defs>
		<polygon id="SVGID_1_" points="28.7,8.9 31.8,13.4 20.3,16.1 22.8,14 5,10.9 9.5,7.6 26.6,10.5 		"/>
	</defs>
	<use xlink:href="#SVGID_1_"  style="overflow:visible;fill:#FFFFFF;"/>
	<clipPath id="SVGID_2_">
		<use xlink:href="#SVGID_1_"  style="overflow:visible;"/>
	</clipPath>
</g>
<g>
	<defs>
		<polygon id="SVGID_3_" points="44.9,19.9 42.8,15.2 53.2,13.1 51.4,14.7 68.7,17.7 64.5,21 47.3,17.8 		"/>
	</defs>
	<use xlink:href="#SVGID_3_"  style="overflow:visible;fill:#FFFFFF;"/>
	<clipPath id="SVGID_4_">
		<use xlink:href="#SVGID_3_"  style="overflow:visible;"/>
	</clipPath>
</g>
<g>
	<defs>
		<polygon id="SVGID_5_" points="39.2,6.4 50.8,3.2 51,8.2 48.1,7.6 42.4,12.3 37,11.5 42.8,6.9 		"/>
	</defs>
	<use xlink:href="#SVGID_5_"  style="overflow:visible;fill:#FFFFFF;"/>
	<clipPath id="SVGID_6_">
		<use xlink:href="#SVGID_5_"  style="overflow:visible;"/>
	</clipPath>
</g>
<g>
	<defs>
		<polygon id="SVGID_7_" points="34.3,24.2 23.2,26.3 22.8,21.1 26,21.8 32.1,16.6 37.4,17.6 30.9,23.2 		"/>
	</defs>
	<use xlink:href="#SVGID_7_"  style="overflow:visible;fill:#FFFFFF;"/>
	<clipPath id="SVGID_8_">
		<use xlink:href="#SVGID_7_"  style="overflow:visible;"/>
	</clipPath>
</g>
<polygon class="st1" points="67.1,53.9 67.1,41.5 59.6,47.5 "/>
<polygon class="st1" points="6.5,54 6.5,41.6 14,47.5 "/>
<polygon class="st1" points="11.6,29.3 11.6,41.8 4.1,35.8 "/>
<polygon class="st1" points="61.5,29.3 61.5,41.7 68.9,35.7 "/>
<line class="st2" x1="63.1" y1="35.3" x2="58.6" y2="35.3"/>
<line class="st2" x1="64.7" y1="47.4" x2="70.3" y2="47.4"/>
<line class="st2" x1="8.5" y1="47.4" x2="2.5" y2="47.4"/>
<line class="st2" x1="8.8" y1="35.8" x2="14.4" y2="35.8"/>
<polygon class="st1" points="52.7,39.2 52.7,61.5 20.2,61.5 20.1,39.2 "/>
<path class="st1" d="M45.1,33c0,0,1.3-0.1,1.6,1.1l0.3,4.1l8.5,1.4l0.9-1.8l-2.1-5.1c-10.9-2.7-21.5-1.8-21.5-1.8h0.4
	c0,0-3.8-0.9-14.8,1.8l-2.1,5.1l0.9,1.8l8.5-1.4l0.3-4.1c0.3-1.3,1.6-1.1,1.6-1.1H45.1z"/>
<polygon class="st1" points="51.1,40.4 51.1,44.4 21.8,44.4 21.8,40.4 "/>
<polygon class="st3" points="50.9,46.2 50.8,60 22,60 21.9,46.2 "/>
<rect x="24.1" y="46.9" class="st4" width="24.7" height="12.1"/>
<polygon class="st5" points="21.9,46.2 36.9,53.8 50.9,46.2 "/>
</svg>
