<?xml version="1.0" encoding="UTF-8" standalone="no"?>
<svg
   xmlns:dc="http://purl.org/dc/elements/1.1/"
   xmlns:cc="http://creativecommons.org/ns#"
   xmlns:rdf="http://www.w3.org/1999/02/22-rdf-syntax-ns#"
   xmlns:svg="http://www.w3.org/2000/svg"
   xmlns="http://www.w3.org/2000/svg"
   viewBox="0 0 33.599998 30.32"
   height="30.32"
   width="33.599998"
   xml:space="preserve"
   id="svg2"
   version="1.1"><metadata
     id="metadata8"><rdf:RDF><cc:Work
         rdf:about=""><dc:format>image/svg+xml</dc:format><dc:type
           rdf:resource="http://purl.org/dc/dcmitype/StillImage" /></cc:Work></rdf:RDF></metadata><defs
     id="defs6"><clipPath
       id="clipPath20"
       clipPathUnits="userSpaceOnUse"><path
         id="path18"
         d="M 0,227 H 250 V 0 H 0 Z" /></clipPath></defs><g
     transform="matrix(1.3333333,0,0,-1.3333333,0,30.32)"
     id="g10"><g
       transform="scale(0.1)"
       id="g12"><g
         id="g14"><g
           clip-path="url(#clipPath20)"
           id="g16"><path
             id="path22"
             style="fill:#706d6e;fill-opacity:1;fill-rule:nonzero;stroke:none"
             d="M 161.547,160.832 220.492,48.5078" /><path
             id="path24"
             style="fill:#FED100;fill-opacity:1;fill-rule:nonzero;stroke:none"
             d="M 192.641,223.898 H 90.6953 L 59.5898,205.754 H 161.547 l 31.094,18.144" /><path
             id="path26"
             style="fill:none;stroke:#FFFFFF;stroke-width:3.99993992;stroke-linecap:butt;stroke-linejoin:miter;stroke-miterlimit:4;stroke-dasharray:none;stroke-opacity:1"
             d="M 192.641,223.898 H 90.6953 L 59.5898,205.754 H 161.547 Z" /><path
             id="path28"
             style="fill:#FED100;fill-opacity:1;fill-rule:nonzero;stroke:none"
             d="M 220.609,48.5078 V 3.58594 L 250.043,21.7305 V 66.6484 L 192.641,178.977 v 44.921 l -31.094,-18.144 v -44.922" /><path
             id="path30"
             style="fill:none;stroke:#FFFFFF;stroke-width:3.99993992;stroke-linecap:butt;stroke-linejoin:miter;stroke-miterlimit:4;stroke-dasharray:none;stroke-opacity:1"
             d="M 220.609,48.5078 V 3.58594 L 250.043,21.7305 V 66.6484 L 192.641,178.977 v 44.921 l -31.094,-18.144 v -44.922" /><path
             id="path32"
             style="fill:#FED100;fill-opacity:1;fill-rule:nonzero;stroke:none"
             d="M 220.492,48.6328 161.547,160.949 v -0.117 44.922 H 59.5898 v -44.922 0.117 L 2.55859,48.6328 2.73438,48.5078 V 3.58594 H 220.727 V 48.5078 l -0.235,0.125" /><path
             id="path34"
             style="fill:none;stroke:#FFFFFF;stroke-width:3.99993992;stroke-linecap:butt;stroke-linejoin:miter;stroke-miterlimit:4;stroke-dasharray:none;stroke-opacity:1"
             d="M 220.492,48.6328 161.547,160.949 v -0.117 44.922 H 59.5898 v -44.922 0.117 L 2.55859,48.6328 2.73438,48.5078 V 3.58594 H 220.727 V 48.5078 Z" /><path
             id="path36"
             style="fill:#FFFFFF;fill-opacity:1;fill-rule:nonzero;stroke:none"
             d="m 109.813,105.945 h 6.046 V 61.6719 h 30.043 L 112.742,22.0781 79.7773,61.6719 h 30.0467 l -0.011,44.2731" /><path
             id="path38"
             style="fill:#FFFFFF;fill-opacity:1;fill-rule:nonzero;stroke:none"
             d="m 115.859,106.055 h -6.046 l 0.011,44.289 H 79.7773 l 33.1527,39.57 32.972,-39.57 h -30.043 v -44.289" /></g></g></g></g></svg>