<?xml version="1.0" encoding="utf-8"?>
<!-- Generator: Adobe Illustrator 20.1.0, SVG Export Plug-In . SVG Version: 6.00 Build 0)  -->
<svg version="1.1" id="Layer_1" xmlns="http://www.w3.org/2000/svg" xmlns:xlink="http://www.w3.org/1999/xlink" x="0px" y="0px"
	 viewBox="0 0 53.5 54.1" style="enable-background:new 0 0 53.5 54.1;" xml:space="preserve">
<style type="text/css">
	.st0{fill:#FED100;stroke:#FFFFFF;stroke-width:0.8;}
	.st1{fill:none;stroke:#FFFFFF;stroke-width:3;}
	.st2{fill:#FFFFFF;stroke:#FFFFFF;stroke-width:0.4;}
	.st3{fill:none;stroke:#FFFFFF;stroke-width:0.8;}
</style>
<g>
	<rect x="1.1" y="9.2" class="st0" width="43.2" height="43.9"/>
	<circle class="st1" cx="22.7" cy="31" r="7.6"/>
	<line class="st1" x1="22.7" y1="23.4" x2="36" y2="23.4"/>
	<g>
		<polygon class="st2" points="36.1,18.4 36.1,28 41.9,23.4 		"/>
	</g>
	<line class="st1" x1="15.1" y1="31.1" x2="15.1" y2="17.8"/>
	<g>
		<polygon class="st2" points="10.2,17.7 19.8,17.7 15.2,11.9 		"/>
	</g>
	<line class="st1" x1="30.4" y1="31" x2="30.4" y2="44.2"/>
	<g>
		<polygon class="st2" points="35.2,44.3 25.6,44.3 30.3,50.1 		"/>
	</g>
	<line class="st1" x1="22.9" y1="38.6" x2="9.6" y2="38.6"/>
	<g>
		<polygon class="st2" points="9.4,43.7 9.4,34 3.6,38.7 		"/>
	</g>
	<polygon class="st0" points="44.1,9.1 1.1,9.1 12,0.4 53.1,0.4 53.1,0.5 53.1,44.1 44.2,53.1 44.2,9.4 	"/>
	<line class="st3" x1="44.2" y1="9" x2="53.2" y2="0.3"/>
</g>
</svg>
