<?xml version="1.0" encoding="utf-8"?>
<!-- Generator: Adobe Illustrator 20.1.0, SVG Export Plug-In . SVG Version: 6.00 Build 0)  -->
<svg version="1.1" id="Layer_1" xmlns="http://www.w3.org/2000/svg" xmlns:xlink="http://www.w3.org/1999/xlink" x="0px" y="0px"
	 viewBox="0 0 72.9 48.6" style="enable-background:new 0 0 72.9 48.6;" xml:space="preserve">
<style type="text/css">
	.st0{fill:#FED100;stroke:#FFFFFF;stroke-width:0.8;}
	.st1{stroke:#FFFFFF;stroke-width:0.76;}
	.st2{fill:#FFFFFF;}
	.st3{fill:#FFFFFF;stroke:#FED100;stroke-width:0.76;}
	.st4{fill:#FED100;}
</style>
<g>
	<g>
		<g>
			<rect x="1.1" y="10.3" class="st0" width="63.3" height="37"/>
			<polygon class="st0" points="72,36.2 64.4,47.3 64.4,10.3 72,1.1 			"/>
			<polygon class="st0" points="12.5,1.1 72,1.1 64.4,10.3 1.1,10.3 			"/>
		</g>
		<g>
			<path class="st1" d="M30.9,21.6"/>
		</g>
		<g>
			<polygon class="st2" points="48.4,28.5 57.1,28.5 57.2,30.5 61.7,27.6 57.2,24.6 57.1,26.8 48.3,26.8 			"/>
		</g>
		<ellipse transform="matrix(0.9766 -0.2153 0.2153 0.9766 -7.6919 12.9304)" class="st3" cx="55.5" cy="41.8" rx="1.6" ry="1.6"/>
		<circle class="st3" cx="56.3" cy="43.3" r="2.4"/>

			<rect x="47.1" y="31.2" transform="matrix(0.5481 -0.8364 0.8364 0.5481 -10.2818 59.4848)" class="st3" width="5.5" height="16"/>
		<path class="st3" d="M28.2,12.8C20,14.6,14.8,22.8,16.7,31c1.8,8.2,9.9,13.4,18.1,11.6c8.2-1.8,13.4-9.9,11.6-18.1
			C44.6,16.2,36.4,11,28.2,12.8z"/>
		<g>
			<path d="M55.5,41.8"/>
		</g>
		<g>
			<polyline class="st2" points="16.1,27.1 11.6,27.1 11.7,28.8 16.6,28.8 			"/>
		</g>
		<g>
			<polyline class="st2" points="19.6,36.5 13.1,40.7 14.2,42.1 20.8,37.8 			"/>
		</g>
		<g>
			<polyline class="st2" points="19.3,17.9 13.7,14.2 12.8,15.7 18.3,19.3 			"/>
		</g>
	</g>
	<path class="st3" d="M34.3,40.5c-7,1.6-14-2.9-15.6-10c-1.6-7,2.9-14.1,10-15.6c7-1.6,14,2.9,15.6,10
		C45.9,31.9,41.4,38.9,34.3,40.5z"/>
	<polygon class="st4" points="26.4,17.7 26.4,37.8 38.7,29.2 44,29.2 44,26.3 38.7,26.3 26.4,17.7 	"/>
	<polyline class="st4" points="16.3,28.8 21.7,28.8 21.7,30.8 26.2,28 21.7,25 21.7,27.1 16.1,27.1 	"/>
	<polyline class="st4" points="20.8,37.8 22.5,36.7 23.7,38.3 25.9,33.5 20.5,33.4 21.6,35.2 19.6,36.5 	"/>
	<polyline class="st4" points="18.7,19.3 21.6,21.2 20.5,22.8 25.8,22.9 23.7,17.9 22.5,19.7 19.7,17.9 	"/>
</g>
</svg>
