<?xml version="1.0" encoding="utf-8"?>
<!-- Generator: Adobe Illustrator 20.1.0, SVG Export Plug-In . SVG Version: 6.00 Build 0)  -->
<svg version="1.1" id="Layer_1" xmlns="http://www.w3.org/2000/svg" xmlns:xlink="http://www.w3.org/1999/xlink" x="0px" y="0px"
	 viewBox="0 0 99 51.5" style="enable-background:new 0 0 99 51.5;" xml:space="preserve">
<style type="text/css">
	.st0{fill:#FED100;stroke:#FFFFFF;stroke-width:0.8;}
	.st1{fill:none;stroke:#FFFFFF;stroke-width:3;}
	.st2{fill:#FFFFFF;stroke:#FFFFFF;stroke-width:0.4;}
	.st3{fill:none;stroke:#FFFFFF;stroke-width:0.8;}
	.st4{fill:none;stroke:#FFFFFF;stroke-width:2;}
</style>
<g>
	<g>
		<rect x="1.1" y="9.2" class="st0" width="88.6" height="41.4"/>
		<circle class="st1" cx="68.7" cy="32.3" r="7.6"/>
		<line class="st1" x1="68.7" y1="24.7" x2="82" y2="24.7"/>
		<g>
			<polygon class="st2" points="82.1,19.7 82.1,29.3 87.9,24.7 			"/>
		</g>
		<line class="st1" x1="61" y1="32.4" x2="61" y2="19.1"/>
		<g>
			<polygon class="st2" points="56.1,19 65.8,19 61.1,13.2 			"/>
		</g>
		<line class="st1" x1="68.9" y1="39.9" x2="55.6" y2="39.9"/>
		<g>
			<polygon class="st2" points="55.4,44.9 55.4,35.3 49.6,40 			"/>
		</g>
		<circle class="st1" cx="21.7" cy="32.3" r="7.6"/>
		<line class="st1" x1="21.7" y1="24.7" x2="8.4" y2="24.7"/>
		<g>
			<polygon class="st2" points="8.3,19.7 8.3,29.3 2.5,24.7 			"/>
		</g>
		<line class="st1" x1="29.3" y1="32.4" x2="29.3" y2="19.1"/>
		<g>
			<polygon class="st2" points="34.2,19 24.6,19 29.2,13.2 			"/>
		</g>
		<line class="st1" x1="21.5" y1="39.9" x2="34.8" y2="39.9"/>
		<g>
			<polygon class="st2" points="35,44.9 35,35.3 40.8,40 			"/>
		</g>
		<polygon class="st0" points="89.6,9.1 1.1,9.1 12,0.4 98.6,0.4 98.6,0.5 98.6,41.6 89.7,50.6 89.7,9.4 		"/>
		<line class="st3" x1="89.6" y1="9" x2="98.6" y2="0.3"/>
	</g>
	<line class="st4" x1="45.2" y1="18.8" x2="45.2" y2="42.8"/>
</g>
</svg>
