<?xml version="1.0" encoding="utf-8"?>
<!-- Generator: Adobe Illustrator 20.1.0, SVG Export Plug-In . SVG Version: 6.00 Build 0)  -->
<svg version="1.1" id="Layer_1" xmlns="http://www.w3.org/2000/svg" xmlns:xlink="http://www.w3.org/1999/xlink" x="0px" y="0px"
	 viewBox="0 0 120.7 57.8" style="enable-background:new 0 0 120.7 57.8;" xml:space="preserve">
<style type="text/css">
	.st0{fill:#FED100;stroke:#FFFFFF;stroke-width:0.8;}
</style>
<g>
	<g>
		<g>
			<rect x="1.1" y="30.5" class="st0" width="79.6" height="26.2"/>
		</g>
		<polygon class="st0" points="1.1,30.5 80.7,30.5 93.3,17.9 16.5,17.9 		"/>
		<polygon class="st0" points="80.7,56.7 93.3,42.4 93.3,17.9 80.7,30.5 		"/>
		<g>
			<g>
				<polygon class="st0" points="22.9,14.9 21.9,20.3 31.7,20.3 30.7,14.9 				"/>
				<polygon class="st0" points="10.8,23.7 9.8,29.1 19.6,29.1 18.6,23.7 				"/>
			</g>
			<polygon class="st0" points="24.1,21.5 30.1,21.5 28.7,18.3 			"/>
			<path class="st0" d="M22.9,14.9c-6.5-0.7-12.4,7-12.1,8.8h7.8c-0.2-1.8,5.6-9.4,12.1-8.8H22.9z"/>
			<path class="st0" d="M31.7,20.3l-1.6,1.2l-1.4-3.2l-4.9,3.5l-0.5,4.6l-3.7,2.7l-1-5.4c-0.2-1.8,5.6-9.4,12.1-8.8L31.7,20.3z"/>
		</g>
		<polygon class="st0" points="41.6,0.6 28.9,13.3 30.7,13.3 43.3,0.6 		"/>
		<polygon class="st0" points="54.1,17.9 41.5,30.5 30.7,13.3 43.3,0.6 		"/>
		<polygon class="st0" points="39.8,30.5 28.9,13.3 30.7,13.3 41.5,30.5 		"/>
		<g>
			<polygon class="st0" points="120.2,21.9 107.4,34.8 80.6,44.3 93.4,31.4 			"/>
			<polygon class="st0" points="120.3,24.1 107.5,37 107.4,34.8 120.2,21.9 			"/>
		</g>
		<polygon class="st0" points="80.6,44.3 80.6,45.8 107.5,37 107.5,34.8 		"/>
		<line class="st0" x1="41" y1="3.6" x2="51.3" y2="20"/>
		<line class="st0" x1="38.5" y1="6.1" x2="48.8" y2="22.5"/>
		<line class="st0" x1="36" y1="8.6" x2="46.3" y2="25"/>
		<line class="st0" x1="33.4" y1="11.2" x2="43.8" y2="27.6"/>
	</g>
</g>
</svg>
