<?xml version="1.0" encoding="utf-8"?>
<!-- Generator: Adobe Illustrator 20.1.0, SVG Export Plug-In . SVG Version: 6.00 Build 0)  -->
<svg version="1.1" id="Layer_1" xmlns="http://www.w3.org/2000/svg" xmlns:xlink="http://www.w3.org/1999/xlink" x="0px" y="0px"
	 viewBox="0 0 102 74.1" style="enable-background:new 0 0 102 74.1;" xml:space="preserve">
<style type="text/css">
	.st0{fill:#FED100;stroke:#FFFFFF;stroke-width:0.8;}
</style>
<g>
	<g>
		<rect x="28.7" y="28.1" class="st0" width="44.6" height="6.8"/>
	</g>
	<path class="st0" d="M73.4,28.1c0-10-10-18.5-22.4-18.5c-12.4,0-22.4,8.5-22.4,18.5H73.4z"/>
	<line class="st0" x1="51.3" y1="0.1" x2="51.3" y2="10.6"/>
	<g>
		<path class="st0" d="M60.1,6.5c-0.3,0.5-4.1,0.5-4.7,0c-0.9-0.7-3.4-0.7-4.1,0.2V1.5c0.7-0.8,3.2-0.8,4.1-0.2
			c0.7,0.5,4.4,0.5,4.7,0V6.5z"/>
	</g>
	<rect x="0.4" y="34.9" class="st0" width="101.2" height="38.8"/>
	<path class="st0" d="M63.4,73.4l0-12.8c0-5.8-5.5-10.5-12.4-10.5s-12.4,4.7-12.4,10.5v12.8"/>
	<g>
		<rect x="4.9" y="40.3" class="st0" width="6.6" height="6.2"/>
	</g>
	<g>
		<rect x="4.9" y="51.4" class="st0" width="6.6" height="6.2"/>
	</g>
	<g>
		<rect x="4.9" y="62.4" class="st0" width="6.6" height="6.2"/>
	</g>
	<g>
		<rect x="14.7" y="40.3" class="st0" width="6.6" height="6.2"/>
	</g>
	<g>
		<rect x="14.7" y="51.4" class="st0" width="6.6" height="6.2"/>
	</g>
	<g>
		<rect x="14.7" y="62.4" class="st0" width="6.6" height="6.2"/>
	</g>
	<g>
		<rect x="90.5" y="40.3" class="st0" width="6.6" height="6.2"/>
	</g>
	<g>
		<rect x="90.5" y="51.4" class="st0" width="6.6" height="6.2"/>
	</g>
	<g>
		<rect x="90.5" y="62.4" class="st0" width="6.6" height="6.2"/>
	</g>
	<rect x="80.7" y="40.3" class="st0" width="6.6" height="6.2"/>
	<rect x="80.7" y="51.4" class="st0" width="6.6" height="6.2"/>
	<rect x="80.7" y="62.4" class="st0" width="6.6" height="6.2"/>
	<polygon class="st0" points="75.1,47.4 51.3,39.6 27.5,47.4 	"/>
	<g>
		<rect x="25.1" y="28.1" class="st0" width="52.3" height="3.2"/>
	</g>
	<g>
		<rect x="30.5" y="47.4" class="st0" width="4" height="26.3"/>
	</g>
	<g>
		<rect x="68" y="47.4" class="st0" width="4" height="26.3"/>
	</g>
</g>
</svg>
