<?xml version="1.0" encoding="utf-8"?>
<!-- Generator: Adobe Illustrator 20.1.0, SVG Export Plug-In . SVG Version: 6.00 Build 0)  -->
<svg version="1.1" id="Layer_1" xmlns="http://www.w3.org/2000/svg" xmlns:xlink="http://www.w3.org/1999/xlink" x="0px" y="0px"
	 viewBox="0 0 68.1 61" style="enable-background:new 0 0 68.1 61;" xml:space="preserve">
<style type="text/css">
	.st0{fill:#FED100;stroke:#FFFFFF;stroke-width:0.8;}
	.st1{fill:#FFFFFF;stroke:#FFFFFF;stroke-width:0.8;stroke-linecap:round;stroke-linejoin:round;}
	.st2{fill:#FFFFFF;}
	.st3{fill:none;stroke:#FFFFFF;stroke-width:2.85;}
	.st4{fill:#FFFFFF;stroke:#FFFFFF;stroke-width:0.38;}
</style>
<g>
	<g>
		<polygon class="st0" points="67.1,11.9 67.1,32.3 48.8,49.1 48.8,28.7 		"/>
		<polyline class="st0" points="17.3,16.9 1,16.9 19.4,0.4 35.7,0.4 58.1,11.9 67.1,11.9 48.8,28.7 39.8,28.7 		"/>
		<polygon class="st0" points="17.4,16.9 39.8,28.7 39.8,28.7 48.8,28.7 48.8,49.1 39.8,49.1 39.8,49.1 17.4,60.5 17.3,60.5 1,60.5 
			1,16.9 17.3,16.9 		"/>
	</g>
	<line class="st1" x1="36.3" y1="12" x2="27.7" y2="8"/>
	<g>
		<polygon class="st2" points="39.7,18.8 45.9,14.1 39,14.2 		"/>
	</g>
	<g>
		<polygon class="st2" points="29.7,12.8 35.9,8.1 36.9,12.7 		"/>
	</g>
	<line class="st1" x1="48.1" y1="18.5" x2="40.5" y2="14.8"/>
	<line class="st1" x1="38.9" y1="12.8" x2="43.2" y2="9.7"/>
	<g>
		<polygon class="st2" points="30.7,14.8 37.2,18.4 30.4,19.5 		"/>
	</g>
	<g>
		<polygon class="st2" points="39.4,8 45.9,11.6 45.4,7.5 		"/>
	</g>
	<line class="st1" x1="32.3" y1="18.1" x2="37.1" y2="14.4"/>
	<g>
		<polyline class="st3" points="30.3,47.1 23.7,47.1 14.7,29 8.8,29 		"/>
		<polyline class="st3" points="8.3,47.1 14.7,47.1 23.6,29 30.5,29 		"/>
		<g>
			<polygon class="st4" points="28.2,25.7 28.2,32.1 32.1,29 			"/>
		</g>
		<g>
			<polygon class="st4" points="28.2,43.7 28.2,50.1 32.1,47.1 			"/>
		</g>
		<g>
			<polygon class="st4" points="9.7,32.2 9.7,25.8 5.8,28.9 			"/>
		</g>
		<g>
			<polygon class="st4" points="9.7,50.3 9.7,44 5.8,47 			"/>
		</g>
	</g>
</g>
</svg>
