<?xml version="1.0" encoding="UTF-8" standalone="no"?>
<svg
   xmlns:dc="http://purl.org/dc/elements/1.1/"
   xmlns:cc="http://creativecommons.org/ns#"
   xmlns:rdf="http://www.w3.org/1999/02/22-rdf-syntax-ns#"
   xmlns:svg="http://www.w3.org/2000/svg"
   xmlns="http://www.w3.org/2000/svg"
   xmlns:sodipodi="http://sodipodi.sourceforge.net/DTD/sodipodi-0.dtd"
   xmlns:inkscape="http://www.inkscape.org/namespaces/inkscape"
   viewBox="0 0 65.080002 49.080002"
   height="49.080002"
   width="65.080002"
   xml:space="preserve"
   id="svg2"
   version="1.1"
   sodipodi:docname="iscsi_router.svg"
   inkscape:version="0.92.3 (2405546, 2018-03-11)"><sodipodi:namedview
     pagecolor="#ffffff"
     bordercolor="#666666"
     borderopacity="1"
     objecttolerance="10"
     gridtolerance="10"
     guidetolerance="10"
     inkscape:pageopacity="0"
     inkscape:pageshadow="2"
     inkscape:window-width="1551"
     inkscape:window-height="836"
     id="namedview36"
     showgrid="false"
     inkscape:zoom="13.600423"
     inkscape:cx="32.955933"
     inkscape:cy="24.540001"
     inkscape:window-x="49"
     inkscape:window-y="27"
     inkscape:window-maximized="1"
     inkscape:current-layer="svg2" /><metadata
     id="metadata8"><rdf:RDF><cc:Work
         rdf:about=""><dc:format>image/svg+xml</dc:format><dc:type
           rdf:resource="http://purl.org/dc/dcmitype/StillImage" /></cc:Work></rdf:RDF></metadata><defs
     id="defs6" /><g
     id="g931"><path
       inkscape:connector-curvature="0"
       d="M 0.87656264,31.5784 H 48.502561 V 16.117467 H 0.87656264 Z"
       style="fill:#FED100;fill-opacity:1;fill-rule:nonzero;stroke:none;stroke-width:0.13333333"
       id="path14" /><path
       inkscape:connector-curvature="0"
       d="M 48.502665,31.5784 V 16.117467 H 0.87656264 V 31.5784 Z"
       style="fill:none;stroke:#ffffff;stroke-width:0.5333333;stroke-linecap:butt;stroke-linejoin:miter;stroke-miterlimit:4;stroke-dasharray:none;stroke-opacity:1"
       id="path16" /><path
       inkscape:connector-curvature="0"
       d="M 0.75260398,16.195601 19.9896,0.60493455 H 64.429732 L 48.458399,16.195601 H 0.75260398"
       style="fill:#FED100;fill-opacity:1;fill-rule:nonzero;stroke:none;stroke-width:0.13333333"
       id="path18" /><path
       inkscape:connector-curvature="0"
       d="M 0.75260398,16.195601 19.9896,0.60493455 H 64.429732 L 48.458399,16.195601 Z"
       style="fill:none;stroke:#ffffff;stroke-width:0.5333333;stroke-linecap:butt;stroke-linejoin:miter;stroke-miterlimit:4;stroke-dasharray:none;stroke-opacity:1"
       id="path20" /><path
       inkscape:connector-curvature="0"
       d="M 48.476532,32.066 64.385465,15.833601 64.395865,0.63106788 48.476532,16.172134 V 32.066"
       style="fill:#FED100;fill-opacity:1;fill-rule:nonzero;stroke:none;stroke-width:0.13333333"
       id="path22" /><path
       inkscape:connector-curvature="0"
       d="M 48.476532,32.066 64.385465,15.833601 64.395865,0.63106788 48.476532,16.172134 Z"
       style="fill:none;stroke:#ffffff;stroke-width:0.5333333;stroke-linecap:butt;stroke-linejoin:miter;stroke-miterlimit:4;stroke-dasharray:none;stroke-opacity:1"
       id="path24" /><path
       inkscape:connector-curvature="0"
       d="M 0.87656264,47.939375 H 48.502561 v -16.712 H 0.87656264 Z"
       style="fill:#FED100;fill-opacity:1;fill-rule:nonzero;stroke:none;stroke-width:0.13333333"
       id="path26" /><path
       inkscape:connector-curvature="0"
       d="M 48.502665,47.939375 V 31.227334 H 0.87656264 v 16.712041 z"
       style="fill:none;stroke:#ffffff;stroke-width:0.5333333;stroke-linecap:butt;stroke-linejoin:miter;stroke-miterlimit:4;stroke-dasharray:none;stroke-opacity:1"
       id="path28" /><path
       inkscape:connector-curvature="0"
       d="M 48.476532,48.426355 64.385465,32.1956 64.395865,15.739868 48.476532,31.282134 v 17.144221"
       style="fill:#FED100;fill-opacity:1;fill-rule:nonzero;stroke:none;stroke-width:0.13333333"
       id="path30" /><path
       inkscape:connector-curvature="0"
       d="M 48.476532,48.426355 64.385465,32.1956 64.395865,15.739868 48.476532,31.282134 Z"
       style="fill:none;stroke:#ffffff;stroke-width:0.5333333;stroke-linecap:butt;stroke-linejoin:miter;stroke-miterlimit:4;stroke-dasharray:none;stroke-opacity:1"
       id="path32" /><path
       inkscape:connector-curvature="0"
       d="m 35.031199,7.2169344 2.936533,0.7396 8.071334,-2.2186666 2.935999,0.7394666 -1.468266,-2.2186666 h -9.539067 l 4.402,0.7396 -7.338533,2.2186666"
       style="fill:#ffffff;fill-opacity:1;fill-rule:nonzero;stroke:none;stroke-width:0.13333333"
       id="path34" /><path
       inkscape:connector-curvature="0"
       d="m 18.152666,4.9982678 2.933333,-0.7396 8.073867,2.2186666 2.935467,-0.7394666 -1.467734,2.2186666 h -9.5416 l 4.4052,-0.7396 -7.338533,-2.2186666"
       style="fill:#ffffff;fill-opacity:1;fill-rule:nonzero;stroke:none;stroke-width:0.13333333"
       id="path36" /><path
       inkscape:connector-curvature="0"
       d="m 48.241199,12.396668 -2.934933,0.7396 -7.338534,-2.221334 -3.6708,0.742134 1.468667,-2.2213337 h 9.540667 l -3.6708,0.7421337 6.605733,2.2188"
       style="fill:#ffffff;fill-opacity:1;fill-rule:nonzero;stroke:none;stroke-width:0.13333333"
       id="path38" /><path
       inkscape:connector-curvature="0"
       d="m 31.361999,10.177868 -2.934933,-0.7421337 -7.341067,2.2213337 -3.667733,-0.742134 1.4672,2.247334 9.5416,0.09373 -4.4036,-0.859333 7.338533,-2.2188"
       style="fill:#ffffff;fill-opacity:1;fill-rule:nonzero;stroke:none;stroke-width:0.13333333"
       id="path40" /><path
       inkscape:connector-curvature="0"
       d="m 24.819333,29.425334 c 3.212933,0 5.818666,-0.791733 5.818666,-1.7656 0,-0.974533 -2.605733,-1.7636 -5.818666,-1.7636 -3.2152,0 -5.820933,0.789067 -5.820933,1.7636 0,0.973867 2.605733,1.7656 5.820933,1.7656"
       style="fill:#ffffff;fill-opacity:1;fill-rule:nonzero;stroke:none;stroke-width:0.13333333"
       id="path42" /><path
       inkscape:connector-curvature="0"
       d="m 24.819333,29.425334 c 3.212933,0 5.818666,-0.791733 5.818666,-1.7656 0,-0.974533 -2.605733,-1.7636 -5.818666,-1.7636 -3.2152,0 -5.820933,0.789067 -5.820933,1.7636 0,0.973867 2.605733,1.7656 5.820933,1.7656 z"
       style="fill:none;stroke:#231f20;stroke-width:0.39999998;stroke-linecap:round;stroke-linejoin:round;stroke-miterlimit:4;stroke-dasharray:none;stroke-opacity:1"
       id="path44" /><path
       inkscape:connector-curvature="0"
       d="m 30.637999,19.500267 c 0,0.974534 -2.605733,1.7636 -5.818666,1.7636 -3.2152,0 -5.820933,-0.789066 -5.820933,-1.7636 v 7.294267 c 0,0.974 2.605733,1.7636 5.820933,1.7636 3.212933,0 5.818666,-0.7896 5.818666,-1.7636 v -7.294267"
       style="fill:#ffffff;fill-opacity:1;fill-rule:nonzero;stroke:none;stroke-width:0.13333333"
       id="path46" /><path
       inkscape:connector-curvature="0"
       d="m 30.637999,19.500267 c 0,0.974534 -2.605733,1.7636 -5.818666,1.7636 -3.2152,0 -5.820933,-0.789066 -5.820933,-1.7636 v 7.294267 c 0,0.974 2.605733,1.7636 5.820933,1.7636 3.212933,0 5.818666,-0.7896 5.818666,-1.7636 z"
       style="fill:none;stroke:#231f20;stroke-width:0.39999998;stroke-linecap:round;stroke-linejoin:round;stroke-miterlimit:4;stroke-dasharray:none;stroke-opacity:1"
       id="path48" /><path
       inkscape:connector-curvature="0"
       d="m 24.811466,21.263867 c 3.2136,0 5.8188,-0.789066 5.8188,-1.7636 0,-0.973333 -2.6052,-1.7624 -5.8188,-1.7624 -3.215067,0 -5.820266,0.789067 -5.820266,1.7624 0,0.974534 2.605199,1.7636 5.820266,1.7636"
       style="fill:#ffffff;fill-opacity:1;fill-rule:nonzero;stroke:none;stroke-width:0.13333333"
       id="path50" /><path
       inkscape:connector-curvature="0"
       d="m 24.811466,21.263867 c 3.2136,0 5.8188,-0.789066 5.8188,-1.7636 0,-0.973333 -2.6052,-1.7624 -5.8188,-1.7624 -3.215067,0 -5.820266,0.789067 -5.820266,1.7624 0,0.974534 2.605199,1.7636 5.820266,1.7636 z"
       style="fill:none;stroke:#231f20;stroke-width:0.39999998;stroke-linecap:round;stroke-linejoin:round;stroke-miterlimit:4;stroke-dasharray:none;stroke-opacity:1"
       id="path52" /><path
       inkscape:connector-curvature="0"
       d="M 0.87656264,31.495067 H 48.502665"
       style="fill:none;stroke:#ffffff;stroke-width:0.5333333;stroke-linecap:round;stroke-linejoin:round;stroke-miterlimit:4;stroke-dasharray:none;stroke-opacity:1"
       id="path54" /><path
       inkscape:connector-curvature="0"
       d="m 19.1276,39.30136 h -8.909894 v -0.815106 l -3.3624928,1.20312 3.3624928,1.20312 V 40.0774 H 19.1276 v -0.77604"
       style="fill:#ffffff;fill-opacity:1;fill-rule:nonzero;stroke:none;stroke-width:0.13333333"
       id="path56" /><path
       inkscape:connector-curvature="0"
       d="m 24.165066,41.861254 v 3.158853 h -2.301467 l 3.3916,1.192706 3.3932,-1.192706 h -2.299466 v -3.158853 h -2.183867"
       style="fill:#ffffff;fill-opacity:1;fill-rule:nonzero;stroke:none;stroke-width:0.13333333"
       id="path58" /><path
       inkscape:connector-curvature="0"
       d="m 24.165066,37.60864 v -3.158906 h -2.301467 l 3.3916,-1.191067 3.3932,1.191067 h -2.299466 v 3.158906 h -2.183867"
       style="fill:#ffffff;fill-opacity:1;fill-rule:nonzero;stroke:none;stroke-width:0.13333333"
       id="path60" /><path
       inkscape:connector-curvature="0"
       d="m 31.385466,40.0774 h 8.9104 v 0.815094 l 3.362933,-1.20312 -3.362933,-1.20312 v 0.815106 h -8.9104 v 0.77604"
       style="fill:#ffffff;fill-opacity:1;fill-rule:nonzero;stroke:none;stroke-width:0.13333333"
       id="path62" /><path
       inkscape:connector-curvature="0"
       d="m 39.591199,44.759693 c -1.671867,0.6276 -9.3568,-1.09376 -17.157333,-3.841146 -7.8036,-2.75 -12.7713596,-5.484413 -11.097933,-6.109347 1.67188,-0.6276 9.356733,1.09372 17.158866,3.841107 7.802133,2.75 12.768267,5.484386 11.0964,6.109386 z"
       style="fill:none;stroke:#ffffff;stroke-width:0.5333333;stroke-linecap:butt;stroke-linejoin:miter;stroke-miterlimit:4;stroke-dasharray:none;stroke-opacity:1"
       id="path64" /><path
       inkscape:connector-curvature="0"
       d="m 39.147332,34.759734 c 1.765734,0.593733 -3.09,3.317666 -10.841066,6.083293 -7.754133,2.765613 -15.46876,4.52864 -17.234906,3.934893 -1.7656269,-0.59376 3.08744,-3.317706 10.841706,-6.083333 7.750933,-2.765627 15.466133,-4.526053 17.234266,-3.934853 z"
       style="fill:none;stroke:#ffffff;stroke-width:0.5333333;stroke-linecap:butt;stroke-linejoin:miter;stroke-miterlimit:4;stroke-dasharray:none;stroke-opacity:1"
       id="path66" /><path
       inkscape:connector-curvature="0"
       d="m 28.909866,41.525307 c 2.944267,-0.73176 3.657867,-2.169267 1.598,-3.210933 -2.060933,-1.044267 -6.114667,-1.29688 -9.058933,-0.565107 -2.942133,0.729173 -3.6572,2.166667 -1.5948,3.208333 2.058933,1.04428 6.1136,1.29688 9.055733,0.567707"
       style="fill:#FED100;fill-opacity:1;fill-rule:nonzero;stroke:none;stroke-width:0.13333333"
       id="path68" /><path
       inkscape:connector-curvature="0"
       d="m 28.909866,41.525307 c 2.944267,-0.73176 3.657867,-2.169267 1.598,-3.210933 -2.060933,-1.044267 -6.114667,-1.29688 -9.058933,-0.565107 -2.942133,0.729173 -3.6572,2.166667 -1.5948,3.208333 2.058933,1.04428 6.1136,1.29688 9.055733,0.567707 z"
       style="fill:none;stroke:#ffffff;stroke-width:0.5333333;stroke-linecap:butt;stroke-linejoin:miter;stroke-miterlimit:4;stroke-dasharray:none;stroke-opacity:1"
       id="path70" /></g></svg>