<?xml version="1.0" encoding="UTF-8" standalone="no"?>
<svg
   xmlns:dc="http://purl.org/dc/elements/1.1/"
   xmlns:cc="http://creativecommons.org/ns#"
   xmlns:rdf="http://www.w3.org/1999/02/22-rdf-syntax-ns#"
   xmlns:svg="http://www.w3.org/2000/svg"
   xmlns="http://www.w3.org/2000/svg"
   viewBox="0 0 51.066666 33.986668"
   height="33.986668"
   width="51.066666"
   xml:space="preserve"
   id="svg2"
   version="1.1"><metadata
     id="metadata8"><rdf:RDF><cc:Work
         rdf:about=""><dc:format>image/svg+xml</dc:format><dc:type
           rdf:resource="http://purl.org/dc/dcmitype/StillImage" /></cc:Work></rdf:RDF></metadata><defs
     id="defs6"><clipPath
       id="clipPath20"
       clipPathUnits="userSpaceOnUse"><path
         id="path18"
         d="m 0,4.9375 h 380 v 250 H 0 Z" /></clipPath></defs><g
     transform="matrix(1.3333333,0,0,-1.3333333,0,33.986667)"
     id="g10"><g
       transform="scale(0.1)"
       id="g12"><g
         id="g14"><g
           clip-path="url(#clipPath20)"
           id="g16"><path
             id="path22"
             style="fill:#FED100;fill-opacity:1;fill-rule:nonzero;stroke:none"
             d="m 5.65625,6.47656 h 333.172 v 194.512 H 5.65625 Z" /><path
             id="path24"
             style="fill:none;stroke:#FFFFFF;stroke-width:4;stroke-linecap:butt;stroke-linejoin:miter;stroke-miterlimit:4;stroke-dasharray:none;stroke-opacity:1"
             d="M 5.65625,6.47656 H 338.828 V 200.988 H 5.65625 Z" /><path
             id="path26"
             style="fill:#FED100;fill-opacity:1;fill-rule:nonzero;stroke:none"
             d="M 378.723,64.8359 338.828,6.47656 V 200.988 l 39.895,48.379 V 64.8359" /><path
             id="path28"
             style="fill:none;stroke:#FFFFFF;stroke-width:4;stroke-linecap:butt;stroke-linejoin:miter;stroke-miterlimit:4;stroke-dasharray:none;stroke-opacity:1"
             d="M 378.723,64.8359 338.828,6.47656 V 200.988 l 39.895,48.379 z" /><path
             id="path30"
             style="fill:#FED100;fill-opacity:1;fill-rule:nonzero;stroke:none"
             d="M 65.5078,249.367 H 378.723 L 338.828,200.988 H 5.65625 l 59.85155,48.379" /><path
             id="path32"
             style="fill:none;stroke:#FFFFFF;stroke-width:4;stroke-linecap:butt;stroke-linejoin:miter;stroke-miterlimit:4;stroke-dasharray:none;stroke-opacity:1"
             d="M 65.5078,249.367 H 378.723 L 338.828,200.988 H 5.65625 Z" /><path
             id="path34"
             style="fill:#FFFFFF;fill-opacity:1;fill-rule:nonzero;stroke:none"
             d="M 120.586,99.4453 49.0938,99.3867 v 11.3673 l 71.4922,0.035 0.027,17.758 41.418,-23.438 -41.418,-23.4371 -0.027,17.7734" /><path
             id="path36"
             style="fill:#FFFFFF;fill-opacity:1;fill-rule:nonzero;stroke:none"
             d="m 269.336,99.4453 -71.492,-0.0586 v 11.3673 l 71.492,0.035 0.027,17.758 41.418,-23.438 -41.418,-23.4371 -0.027,17.7734" /><path
             id="path38"
             style="fill:#FFFFFF;fill-opacity:1;fill-rule:nonzero;stroke:none"
             d="m 257.004,156.719 -59.934,-38.985 -6.191,9.543 59.941,38.965 -9.648,14.903 47.5,2.89 -21.973,-42.207 -9.695,14.891" /><path
             id="path40"
             style="fill:#FFFFFF;fill-opacity:1;fill-rule:nonzero;stroke:none"
             d="m 257.004,54.1992 -59.934,38.9844 -6.191,-9.5313 59.941,-38.9726 -9.648,-14.9024 47.5,-2.8906 -21.973,42.2071 -9.695,-14.8946" /></g></g></g></g></svg>