<?xml version="1.0" encoding="utf-8"?>
<!-- Generator: Adobe Illustrator 20.1.0, SVG Export Plug-In . SVG Version: 6.00 Build 0)  -->
<svg version="1.1" id="Layer_1" xmlns="http://www.w3.org/2000/svg" xmlns:xlink="http://www.w3.org/1999/xlink" x="0px" y="0px"
	 viewBox="0 0 87.6 47.1" style="enable-background:new 0 0 87.6 47.1;" xml:space="preserve">
<style type="text/css">
	.st0{fill:#FED100;stroke:#FFFFFF;stroke-width:0.8;}
	.st1{fill:none;stroke:#FFFFFF;stroke-width:1.6;}
	.st2{fill:#FFFFFF;}
</style>
<g>
	<polygon class="st0" points="1.1,17.3 21.3,0.9 86.6,0.9 69.9,17.3 	"/>
	<polygon class="st0" points="69.9,46.1 86.6,29.1 86.6,0.9 69.9,17.3 	"/>
	<rect x="1.2" y="17.3" class="st0" width="68.7" height="28.9"/>
	<path class="st0" d="M49.8,27.8c0,2.8-5.8,5-12.9,5c-7.1,0-12.9-2.2-12.9-5v7.3c0,2.8,5.8,5,12.9,5c7.1,0,12.9-2.2,12.9-5V27.8z"/>
	<ellipse class="st0" cx="37" cy="27.8" rx="12.9" ry="5"/>
	<line class="st1" x1="17.1" y1="23" x2="1.5" y2="23"/>
	<polygon class="st2" points="22.7,23 13.2,26.9 15.5,23 13.2,19.1 	"/>
	<line class="st1" x1="17.1" y1="31.4" x2="1.5" y2="31.4"/>
	<polygon class="st2" points="22.7,31.4 13.2,35.3 15.5,31.4 13.2,27.5 	"/>
	<line class="st1" x1="64.2" y1="31.4" x2="56.9" y2="31.4"/>
	<polygon class="st2" points="68.7,31.4 61.1,34.5 62.9,31.4 61.1,28.3 	"/>
	<line class="st1" x1="17.1" y1="39.8" x2="1.5" y2="39.8"/>
	<polygon class="st2" points="22.7,39.8 13.2,43.7 15.5,39.8 13.2,35.9 	"/>
	<polygon class="st2" points="58.5,28.4 56.7,31.5 58.5,34.6 50.9,31.5 	"/>
</g>
</svg>
