<?xml version="1.0" encoding="utf-8"?>
<!-- Generator: Adobe Illustrator 20.1.0, SVG Export Plug-In . SVG Version: 6.00 Build 0)  -->
<svg version="1.1" id="Layer_1" xmlns="http://www.w3.org/2000/svg" xmlns:xlink="http://www.w3.org/1999/xlink" x="0px" y="0px"
	 viewBox="0 0 42.5 60.8" style="enable-background:new 0 0 42.5 60.8;" xml:space="preserve">
<style type="text/css">
	.st0{fill:#FED100;stroke:#FFFFFF;stroke-width:0.8;}
	.st1{fill:none;stroke:#FFFFFF;stroke-width:0.8;}
	.st2{fill:#FFFFFF;}
	.st3{fill:#FED100;}
</style>
<g>
	<g>
		<polyline class="st0" points="31.7,10.8 1,10.8 1,59.8 31.7,59.8 		"/>
		<polygon class="st0" points="41.6,1 10.8,1 1,10.8 31.7,10.8 		"/>
		<polygon class="st0" points="31.7,10.8 31.7,59.8 41.6,50 41.6,1 		"/>
		<line class="st0" x1="31.7" y1="10.8" x2="41.6" y2="1"/>
		<line class="st1" x1="1.5" y1="29.9" x2="31.5" y2="29.9"/>
		<line class="st1" x1="1.5" y1="52.4" x2="31.5" y2="52.4"/>
		<line class="st1" x1="8.5" y1="18.4" x2="17.2" y2="18.4"/>
		<g>
			<rect x="5" y="15.1" class="st1" width="15.5" height="6.3"/>
		</g>
	</g>
	<g>
		<polygon class="st2" points="11.2,51.2 10.6,28.5 27.2,22.1 27.5,48 26.5,48 25.4,33.4 12,38.1 12,51.1 		"/>

			<ellipse transform="matrix(0.9982 -5.943298e-02 5.943298e-02 0.9982 -2.8593 1.4494)" class="st2" cx="22.9" cy="48.8" rx="4.5" ry="2.8"/>

			<ellipse transform="matrix(0.9982 -5.945660e-02 5.945660e-02 0.9982 -3.0905 0.5425)" class="st2" cx="7.6" cy="52.2" rx="4.5" ry="2.8"/>
		<polygon class="st3" points="25.2,31 12.5,35.4 12.5,33 25.2,28.6 		"/>
	</g>
</g>
</svg>
