<?xml version="1.0" encoding="UTF-8" standalone="no"?>
<svg
   xmlns:dc="http://purl.org/dc/elements/1.1/"
   xmlns:cc="http://creativecommons.org/ns#"
   xmlns:rdf="http://www.w3.org/1999/02/22-rdf-syntax-ns#"
   xmlns:svg="http://www.w3.org/2000/svg"
   xmlns="http://www.w3.org/2000/svg"
   xmlns:sodipodi="http://sodipodi.sourceforge.net/DTD/sodipodi-0.dtd"
   xmlns:inkscape="http://www.inkscape.org/namespaces/inkscape"
   viewBox="0 0 36.093334 48.493332"
   height="48.493332"
   width="36.093334"
   xml:space="preserve"
   id="svg2"
   version="1.1"
   sodipodi:docname="multi-fabric_server_switch.svg"
   inkscape:version="0.92.3 (2405546, 2018-03-11)"><sodipodi:namedview
     pagecolor="#ffffff"
     bordercolor="#666666"
     borderopacity="1"
     objecttolerance="10"
     gridtolerance="10"
     guidetolerance="10"
     inkscape:pageopacity="0"
     inkscape:pageshadow="2"
     inkscape:window-width="1551"
     inkscape:window-height="836"
     id="namedview48"
     showgrid="false"
     inkscape:zoom="19.466594"
     inkscape:cx="18.457628"
     inkscape:cy="24.246666"
     inkscape:window-x="49"
     inkscape:window-y="27"
     inkscape:window-maximized="1"
     inkscape:current-layer="svg2" /><metadata
     id="metadata8"><rdf:RDF><cc:Work
         rdf:about=""><dc:format>image/svg+xml</dc:format><dc:type
           rdf:resource="http://purl.org/dc/dcmitype/StillImage" /></cc:Work></rdf:RDF></metadata><defs
     id="defs6" /><g
     id="g982"><path
       inkscape:connector-curvature="0"
       d="M 29.487466,48.226145 V 18.924 H 0.72343732 V 48.226145 H 29.487466"
       style="fill:#FED100;fill-opacity:1;fill-rule:nonzero;stroke:none;stroke-width:0.13333333"
       id="path14" /><path
       inkscape:connector-curvature="0"
       d="M 29.487466,48.226145 V 18.924 H 0.72343732 v 29.302145 z"
       style="fill:none;stroke:#ffffff;stroke-width:0.5333333;stroke-linecap:butt;stroke-linejoin:miter;stroke-miterlimit:4;stroke-dasharray:none;stroke-opacity:1"
       id="path16" /><path
       inkscape:connector-curvature="0"
       d="m 29.487466,18.924 5.949466,-5.842133"
       style="fill:#FED100;fill-opacity:1;fill-rule:nonzero;stroke:none;stroke-width:0.13333333"
       id="path18" /><path
       inkscape:connector-curvature="0"
       d="m 29.487466,18.924 5.949466,-5.842133"
       style="fill:none;stroke:#ffffff;stroke-width:0.5333333;stroke-linecap:butt;stroke-linejoin:miter;stroke-miterlimit:4;stroke-dasharray:none;stroke-opacity:1"
       id="path20" /><path
       inkscape:connector-curvature="0"
       d="M 18.112533,18.924 V 48.226145"
       style="fill:#FED100;fill-opacity:1;fill-rule:nonzero;stroke:none;stroke-width:0.13333333"
       id="path22" /><path
       inkscape:connector-curvature="0"
       d="M 18.112533,18.924 V 48.226145"
       style="fill:none;stroke:#ffffff;stroke-width:0.5333333;stroke-linecap:butt;stroke-linejoin:miter;stroke-miterlimit:4;stroke-dasharray:none;stroke-opacity:1"
       id="path24" /><path
       inkscape:connector-curvature="0"
       d="M 29.487466,35.7824 V 6.4802674 H 0.72343732 V 35.7824 H 29.487466"
       style="fill:#FED100;fill-opacity:1;fill-rule:nonzero;stroke:none;stroke-width:0.13333333"
       id="path26" /><path
       inkscape:connector-curvature="0"
       d="M 29.487466,35.7824 V 6.4802674 H 0.72343732 V 35.7824 Z"
       style="fill:none;stroke:#ffffff;stroke-width:0.5333333;stroke-linecap:butt;stroke-linejoin:miter;stroke-miterlimit:4;stroke-dasharray:none;stroke-opacity:1"
       id="path28" /><path
       inkscape:connector-curvature="0"
       d="m 35.436932,0.6381342 v 0 41.1286388 l -5.949466,5.999997 v -41.2865026 0 l 5.949466,-5.8421332"
       style="fill:#FED100;fill-opacity:1;fill-rule:nonzero;stroke:none;stroke-width:0.13333333"
       id="path30" /><path
       inkscape:connector-curvature="0"
       d="m 35.436932,0.6381342 v 0 41.1286388 l -5.949466,5.999997 v -41.2865026 0 z"
       style="fill:none;stroke:#ffffff;stroke-width:0.5333333;stroke-linecap:butt;stroke-linejoin:miter;stroke-miterlimit:4;stroke-dasharray:none;stroke-opacity:1"
       id="path32" /><path
       inkscape:connector-curvature="0"
       d="M 29.487466,6.4802674 H 0.75729198 L 8.0229198,0.6381342 H 35.436932 l -5.949466,5.8421332"
       style="fill:#FED100;fill-opacity:1;fill-rule:nonzero;stroke:none;stroke-width:0.13333333"
       id="path34" /><path
       inkscape:connector-curvature="0"
       d="M 29.487466,6.4802674 H 0.75729198 L 8.0229198,0.6381342 H 35.436932 Z"
       style="fill:none;stroke:#ffffff;stroke-width:0.5333333;stroke-linecap:butt;stroke-linejoin:miter;stroke-miterlimit:4;stroke-dasharray:none;stroke-opacity:1"
       id="path36" /><path
       inkscape:connector-curvature="0"
       d="M 29.487466,6.4802674 35.436932,0.6381342"
       style="fill:#FED100;fill-opacity:1;fill-rule:nonzero;stroke:none;stroke-width:0.13333333"
       id="path38" /><path
       inkscape:connector-curvature="0"
       d="M 29.487466,6.4802674 35.436932,0.6381342"
       style="fill:none;stroke:#ffffff;stroke-width:0.5333333;stroke-linecap:butt;stroke-linejoin:miter;stroke-miterlimit:4;stroke-dasharray:none;stroke-opacity:1"
       id="path40" /><path
       inkscape:connector-curvature="0"
       d="M 4.7208399,14.050667 H 27.949999"
       style="fill:#FED100;fill-opacity:1;fill-rule:nonzero;stroke:none;stroke-width:0.13333333"
       id="path42" /><path
       inkscape:connector-curvature="0"
       d="M 4.7208399,14.050667 H 27.949999"
       style="fill:none;stroke:#ffffff;stroke-width:0.5333333;stroke-linecap:butt;stroke-linejoin:miter;stroke-miterlimit:4;stroke-dasharray:none;stroke-opacity:1"
       id="path44" /><path
       inkscape:connector-curvature="0"
       d="M 3.6270799,21.148 H 27.009866"
       style="fill:#FED100;fill-opacity:1;fill-rule:nonzero;stroke:none;stroke-width:0.13333333"
       id="path46" /><path
       inkscape:connector-curvature="0"
       d="M 3.6270799,21.148 H 27.009866"
       style="fill:none;stroke:#ffffff;stroke-width:0.5333333;stroke-linecap:butt;stroke-linejoin:miter;stroke-miterlimit:4;stroke-dasharray:none;stroke-opacity:1"
       id="path48" /><path
       inkscape:connector-curvature="0"
       d="M 2.5932266,27.891734 H 25.827599"
       style="fill:#FED100;fill-opacity:1;fill-rule:nonzero;stroke:none;stroke-width:0.13333333"
       id="path50" /><path
       inkscape:connector-curvature="0"
       d="M 2.5932266,27.891734 H 25.827599"
       style="fill:none;stroke:#ffffff;stroke-width:0.5333333;stroke-linecap:butt;stroke-linejoin:miter;stroke-miterlimit:4;stroke-dasharray:none;stroke-opacity:1"
       id="path52" /><path
       inkscape:connector-curvature="0"
       d="M 5.7739599,31.860533 10.565626,9.784934"
       style="fill:#FED100;fill-opacity:1;fill-rule:nonzero;stroke:none;stroke-width:0.13333333"
       id="path54" /><path
       inkscape:connector-curvature="0"
       d="M 5.7739599,31.860533 10.565626,9.784934"
       style="fill:none;stroke:#ffffff;stroke-width:0.5333333;stroke-linecap:butt;stroke-linejoin:miter;stroke-miterlimit:4;stroke-dasharray:none;stroke-opacity:1"
       id="path56" /><path
       inkscape:connector-curvature="0"
       d="M 20.681733,31.860533 25.473466,9.784934"
       style="fill:#FED100;fill-opacity:1;fill-rule:nonzero;stroke:none;stroke-width:0.13333333"
       id="path58" /><path
       inkscape:connector-curvature="0"
       d="M 20.681733,31.860533 25.473466,9.784934"
       style="fill:none;stroke:#ffffff;stroke-width:0.5333333;stroke-linecap:butt;stroke-linejoin:miter;stroke-miterlimit:4;stroke-dasharray:none;stroke-opacity:1"
       id="path60" /><path
       inkscape:connector-curvature="0"
       d="M 13.22864,31.688667 18.0188,9.6130673"
       style="fill:#FED100;fill-opacity:1;fill-rule:nonzero;stroke:none;stroke-width:0.13333333"
       id="path62" /><path
       inkscape:connector-curvature="0"
       d="M 13.22864,31.688667 18.0188,9.6130673"
       style="fill:none;stroke:#ffffff;stroke-width:0.5333333;stroke-linecap:butt;stroke-linejoin:miter;stroke-miterlimit:4;stroke-dasharray:none;stroke-opacity:1"
       id="path64" /><path
       inkscape:connector-curvature="0"
       d="m 11.434373,13.985467 c 0,0.669334 -0.815107,1.210933 -1.8192666,1.210933 -1.0036533,0 -1.8187466,-0.541599 -1.8187466,-1.210933 0,-0.6692 0.8150933,-1.210933 1.8187466,-1.210933 1.0041596,0 1.8192666,0.541733 1.8192666,1.210933"
       style="fill:#ffffff;fill-opacity:1;fill-rule:nonzero;stroke:none;stroke-width:0.13333333"
       id="path66" /><path
       inkscape:connector-curvature="0"
       d="m 18.9656,13.683467 c 0,0.670267 -0.812534,1.212 -1.817734,1.212 -1.0052,0 -1.8176,-0.541733 -1.8176,-1.212 0,-0.669333 0.8124,-1.212533 1.8176,-1.212533 1.0052,0 1.817734,0.5432 1.817734,1.212533"
       style="fill:#ffffff;fill-opacity:1;fill-rule:nonzero;stroke:none;stroke-width:0.13333333"
       id="path68" /><path
       inkscape:connector-curvature="0"
       d="m 26.515066,14.215734 c 0,0.6708 -0.814,1.212533 -1.817733,1.212533 -1.0052,0 -1.8176,-0.541733 -1.8176,-1.212533 0,-0.667733 0.8124,-1.212 1.8176,-1.212 1.003733,0 1.817733,0.544267 1.817733,1.212"
       style="fill:#ffffff;fill-opacity:1;fill-rule:nonzero;stroke:none;stroke-width:0.13333333"
       id="path70" /><path
       inkscape:connector-curvature="0"
       d="m 9.7192664,21.183467 c 0,0.6692 -0.8150933,1.213467 -1.8187466,1.213467 -1.00416,0 -1.8177066,-0.544267 -1.8177066,-1.213467 0,-0.669333 0.8135466,-1.212533 1.8177066,-1.212533 1.0036533,0 1.8187466,0.5432 1.8187466,1.212533"
       style="fill:#ffffff;fill-opacity:1;fill-rule:nonzero;stroke:none;stroke-width:0.13333333"
       id="path72" /><path
       inkscape:connector-curvature="0"
       d="m 17.252133,21.4152 c 0,0.669334 -0.8152,1.210934 -1.817733,1.210934 -1.004134,0 -1.819334,-0.5416 -1.819334,-1.210934 0,-0.670266 0.8152,-1.2136 1.819334,-1.2136 1.002533,0 1.817733,0.543334 1.817733,1.2136"
       style="fill:#ffffff;fill-opacity:1;fill-rule:nonzero;stroke:none;stroke-width:0.13333333"
       id="path74" /><path
       inkscape:connector-curvature="0"
       d="m 24.801599,21.0584 c 0,0.671867 -0.8152,1.212 -1.817733,1.212 -1.0052,0 -1.820267,-0.540133 -1.820267,-1.212 0,-0.668133 0.815067,-1.210933 1.820267,-1.210933 1.002533,0 1.817733,0.5428 1.817733,1.210933"
       style="fill:#ffffff;fill-opacity:1;fill-rule:nonzero;stroke:none;stroke-width:0.13333333"
       id="path76" /><path
       inkscape:connector-curvature="0"
       d="m 8.2166665,28.0204 c 0,0.6708 -0.8135467,1.212533 -1.8177067,1.212533 -1.0036533,0 -1.8187466,-0.541733 -1.8187466,-1.212533 0,-0.6692 0.8150933,-1.212 1.8187466,-1.212 1.00416,0 1.8177067,0.5428 1.8177067,1.212"
       style="fill:#ffffff;fill-opacity:1;fill-rule:nonzero;stroke:none;stroke-width:0.13333333"
       id="path78" /><path
       inkscape:connector-curvature="0"
       d="m 15.749466,28.074 c 0,0.669333 -0.812533,1.212 -1.817733,1.212 -1.005173,0 -1.819227,-0.542667 -1.819227,-1.212 0,-0.6692 0.814054,-1.213466 1.819227,-1.213466 1.0052,0 1.817733,0.544266 1.817733,1.213466"
       style="fill:#ffffff;fill-opacity:1;fill-rule:nonzero;stroke:none;stroke-width:0.13333333"
       id="path80" /><path
       inkscape:connector-curvature="0"
       d="m 23.298933,28.074 c 0,0.669333 -0.815067,1.212 -1.817734,1.212 -1.0052,0 -1.819199,-0.542667 -1.819199,-1.212 0,-0.6692 0.813999,-1.213466 1.819199,-1.213466 1.002667,0 1.817734,0.544266 1.817734,1.213466"
       style="fill:#ffffff;fill-opacity:1;fill-rule:nonzero;stroke:none;stroke-width:0.13333333"
       id="path82" /><path
       inkscape:connector-curvature="0"
       d="m 27.575999,39.0376 c 0,0.716147 -1.570266,1.29792 -3.506266,1.29792 -1.9364,0 -3.506667,-0.581773 -3.506667,-1.29792 v 6.409893 c 0,0.71876 1.570267,1.301053 3.506667,1.301053 1.936,0 3.506266,-0.582293 3.506266,-1.301053 V 39.0376"
       style="fill:#FED100;fill-opacity:1;fill-rule:nonzero;stroke:none;stroke-width:0.13333333"
       id="path84" /><path
       inkscape:connector-curvature="0"
       d="m 27.575999,39.0376 c 0,0.716147 -1.570266,1.29792 -3.506266,1.29792 -1.9364,0 -3.506667,-0.581773 -3.506667,-1.29792 v 6.409893 c 0,0.71876 1.570267,1.301053 3.506667,1.301053 1.936,0 3.506266,-0.582293 3.506266,-1.301053 z"
       style="fill:none;stroke:#ffffff;stroke-width:0.5333333;stroke-linecap:butt;stroke-linejoin:miter;stroke-miterlimit:4;stroke-dasharray:none;stroke-opacity:1"
       id="path86" /><path
       inkscape:connector-curvature="0"
       d="m 24.069733,40.33552 c 1.936,0 3.506266,-0.581773 3.506266,-1.29792 0,-0.717707 -1.570266,-1.29948 -3.506266,-1.29948 -1.9364,0 -3.506667,0.581773 -3.506667,1.29948 0,0.716147 1.570267,1.29792 3.506667,1.29792"
       style="fill:#FED100;fill-opacity:1;fill-rule:nonzero;stroke:none;stroke-width:0.13333333"
       id="path88" /><path
       inkscape:connector-curvature="0"
       d="m 24.069733,40.33552 c 1.936,0 3.506266,-0.581773 3.506266,-1.29792 0,-0.717707 -1.570266,-1.29948 -3.506266,-1.29948 -1.9364,0 -3.506667,0.581773 -3.506667,1.29948 0,0.716147 1.570267,1.29792 3.506667,1.29792 z"
       style="fill:none;stroke:#ffffff;stroke-width:0.5333333;stroke-linecap:butt;stroke-linejoin:miter;stroke-miterlimit:4;stroke-dasharray:none;stroke-opacity:1"
       id="path90" /><path
       inkscape:connector-curvature="0"
       d="M 4.5593732,45.424066 H 11.50208 l -0.03124,1.45052 3.179693,-2.04636 -3.179693,-2.17344 0.03124,1.515627 H 4.5593732"
       style="fill:#ffffff;fill-opacity:1;fill-rule:nonzero;stroke:none;stroke-width:0.13333333"
       id="path92" /><path
       inkscape:connector-curvature="0"
       d="M 14.2036,39.370933 H 7.2609332 l 0.031253,-1.45208 -3.1796799,2.04844 3.1796799,2.17292 -0.031253,-1.515626 H 14.2036"
       style="fill:#ffffff;fill-opacity:1;fill-rule:nonzero;stroke:none;stroke-width:0.13333333"
       id="path94" /></g></svg>