<?xml version="1.0" encoding="UTF-8" standalone="no"?>
<svg
   xmlns:dc="http://purl.org/dc/elements/1.1/"
   xmlns:cc="http://creativecommons.org/ns#"
   xmlns:rdf="http://www.w3.org/1999/02/22-rdf-syntax-ns#"
   xmlns:svg="http://www.w3.org/2000/svg"
   xmlns="http://www.w3.org/2000/svg"
   viewBox="0 0 48.853333 33.48"
   height="33.48"
   width="48.853333"
   xml:space="preserve"
   id="svg2"
   version="1.1"><metadata
     id="metadata8"><rdf:RDF><cc:Work
         rdf:about=""><dc:format>image/svg+xml</dc:format><dc:type
           rdf:resource="http://purl.org/dc/dcmitype/StillImage" /></cc:Work></rdf:RDF></metadata><defs
     id="defs6"><clipPath
       id="clipPath20"
       clipPathUnits="userSpaceOnUse"><path
         id="path18"
         d="M 0,1 V 251 H 366 V 1 Z" /></clipPath></defs><g
     transform="matrix(1.3333333,0,0,-1.3333333,0,33.48)"
     id="g10"><g
       transform="scale(0.1)"
       id="g12"><g
         id="g14"><g
           clip-path="url(#clipPath20)"
           id="g16"><path
             id="path22"
             style="fill:#FED100;fill-opacity:1;fill-rule:nonzero;stroke:none"
             d="M 5.51953,195.004 66.7695,246.145 H 361.77 L 313.02,195.004 H 5.51953" /><path
             id="path24"
             style="fill:none;stroke:#FFFFFF;stroke-width:4;stroke-linecap:butt;stroke-linejoin:miter;stroke-miterlimit:4;stroke-dasharray:none;stroke-opacity:1"
             d="M 5.51953,195.004 66.7695,246.145 H 361.77 l -48.75,-51.141 z" /><path
             id="path26"
             style="fill:#FED100;fill-opacity:1;fill-rule:nonzero;stroke:none"
             d="M 361.77,246.145 313.02,195.004 V 5.96875 L 361.77,70.5469 V 246.145" /><path
             id="path28"
             style="fill:none;stroke:#FFFFFF;stroke-width:4;stroke-linecap:butt;stroke-linejoin:miter;stroke-miterlimit:4;stroke-dasharray:none;stroke-opacity:1"
             d="M 361.77,246.145 313.02,195.004 V 5.96875 l 48.75,64.57815 z" /><path
             id="path30"
             style="fill:#FED100;fill-opacity:1;fill-rule:nonzero;stroke:none"
             d="m 5.51953,5.96875 h 307.5 v 189.035 h -307.5 z" /><path
             id="path32"
             style="fill:none;stroke:#FFFFFF;stroke-width:4;stroke-linecap:butt;stroke-linejoin:miter;stroke-miterlimit:4;stroke-dasharray:none;stroke-opacity:1"
             d="M 5.51953,195.004 H 313.02 V 5.96875 H 5.51953 Z" /><path
             id="path34"
             style="fill:none;stroke:#FFFFFF;stroke-width:10;stroke-linecap:butt;stroke-linejoin:miter;stroke-miterlimit:4;stroke-dasharray:none;stroke-opacity:1"
             d="m 156.98,21.3281 c 44.258,0 80.137,35.8828 80.137,80.1409 0,44.265 -35.879,80.144 -80.137,80.144 -44.277,0 -80.1519,-35.879 -80.1519,-80.144 0,-44.2581 35.8749,-80.1409 80.1519,-80.1409 z" /><path
             id="path36"
             style="fill:#FFFFFF;fill-opacity:1;fill-rule:nonzero;stroke:none"
             d="M 31.7109,143.93 H 258.895 v 10.054 l 20.238,-14.754 -20.238,-14.753 v 9.941 H 31.7109" /><path
             id="path38"
             style="fill:#FFFFFF;fill-opacity:1;fill-rule:nonzero;stroke:none"
             d="M 275.145,55.5859 H 47.9609 V 45.5352 l -20.2187,14.7539 20.2187,14.75 V 65.0977 H 275.145" /></g></g></g></g></svg>