<?xml version="1.0" encoding="utf-8"?>
<!-- Generator: Adobe Illustrator 20.1.0, SVG Export Plug-In . SVG Version: 6.00 Build 0)  -->
<svg version="1.1" id="Layer_1" xmlns="http://www.w3.org/2000/svg" xmlns:xlink="http://www.w3.org/1999/xlink" x="0px" y="0px"
	 viewBox="0 0 87.1 63.2" style="enable-background:new 0 0 87.1 63.2;" xml:space="preserve">
<style type="text/css">
	.st0{fill:#FED100;stroke:#FFFFFF;stroke-width:0.8;}
	.st1{fill:#FFFFFF;}
	.st2{fill:#FED100;stroke:#FFFFFF;stroke-width:1.6;}
</style>
<g>
	<rect x="1.1" y="11.8" class="st0" width="76.3" height="50.1"/>
	<polygon class="st0" points="86.2,49 77.4,61.9 77.4,11.8 86.2,1.1 	"/>
	<polygon class="st0" points="14.3,1.1 86.2,1.1 77.4,11.8 1.1,11.8 	"/>
	<g>
		<polygon class="st1" points="37.9,52.2 37.9,45.4 39.9,45.4 39.9,52.2 43.1,52.2 38.9,59.6 34.7,52.2 		"/>
	</g>
	<g>
		<polygon class="st1" points="14.1,50.4 19.5,41.2 17.3,40 12,49.2 8.7,47.3 8.6,57.5 17.5,52.3 		"/>
	</g>
	<g>
		<polygon class="st1" points="64.3,50.4 59,41.2 61.1,40 66.4,49.2 69.8,47.3 69.8,57.5 61,52.3 		"/>
	</g>
	<g>
		<polygon class="st1" points="51.1,51.4 49.3,44.8 51.3,44.3 53,50.8 56.1,50 54,58.2 48,52.2 		"/>
	</g>
	<g>
		<polygon class="st1" points="27,51.4 28.7,44.8 26.8,44.3 25,50.8 21.9,50 24.1,58.2 30,52.2 		"/>
	</g>
	<g>
		<polygon class="st1" points="22.4,24 22.4,34.6 19.9,34.6 19.9,24 16.1,24 21.1,15 26.2,24 		"/>
	</g>
	<g>
		<polygon class="st1" points="57.1,24 57.1,34.6 54.6,34.6 54.6,24 50.8,24 55.8,15 60.9,24 		"/>
	</g>
	<circle class="st2" cx="38.8" cy="34.4" r="9.2"/>
</g>
</svg>
