<?xml version="1.0" encoding="utf-8"?>
<!-- Generator: Adobe Illustrator 20.1.0, SVG Export Plug-In . SVG Version: 6.00 Build 0)  -->
<svg version="1.1" id="Layer_1" xmlns="http://www.w3.org/2000/svg" xmlns:xlink="http://www.w3.org/1999/xlink" x="0px" y="0px"
	 viewBox="0 0 69 58.4" style="enable-background:new 0 0 69 58.4;" xml:space="preserve">
<style type="text/css">
	.st0{fill:#FED100;stroke:#FFFFFF;stroke-width:0.8;}
	.st1{fill-rule:evenodd;clip-rule:evenodd;fill:#FED100;}
	.st2{fill:#FFFFFF;}
	.st3{fill-rule:evenodd;clip-rule:evenodd;fill:#FED100;stroke:#FFFFFF;stroke-width:0.64;}
</style>
<g>
	<path class="st0" d="M51,45.5c0-7.7-7.7-13.4-17.3-13.4c-8.6,0-16.3,5.8-16.3,13.4c0,6.7,7.7,12.5,16.3,12.5
		C43.4,58,51,52.3,51,45.5z"/>
	<polygon class="st1" points="45.3,45.1 52,45.1 56.8,46.1 63.5,46.1 65.4,45.1 66.4,43.2 67.4,41.3 66.4,38.4 60.6,32.6 56.8,27.8
		52,23 49.1,19.2 46.2,14.4 43.4,10.6 40.5,5.8 39.5,1.9 35.7,0 32.8,0 28.9,1.9 28,4.8 26.1,8.6 23.2,12.5 21.3,16.3 15.5,24
		11.7,28.8 2.1,38.4 1.1,40.3 1.1,41.3 3,45.1 4.9,45.1 6.9,46.1 10.7,46.1 14.5,45.1 28.9,45.1 	"/>
	<path class="st0" d="M52,28.8c0-7.7-8.6-13.4-18.2-13.4c-9.6,0-17.3,5.8-17.3,13.4c0,7.7,7.7,13.4,17.3,13.4
		C43.4,42.2,52,36.5,52,28.8z"/>
	<rect x="35.7" class="st2" width="1" height="6.7"/>
	<rect x="33.7" class="st2" width="1" height="6.7"/>
	<rect x="31.8" class="st2" width="1" height="6.7"/>
	<rect x="1.9" y="43.4" transform="matrix(0.8168 -0.5769 0.5769 0.8168 -24.3603 11.0618)" class="st2" width="6.7" height="1"/>
	<polygon class="st2" points="1.1,43.9 1.7,44.7 7.1,40.8 6.6,40 	"/>
	<rect x="-0.3" y="40.3" transform="matrix(0.8153 -0.579 0.579 0.8153 -23.0406 9.2749)" class="st2" width="6.7" height="1"/>
	<polygon class="st2" points="66.8,45.4 66.2,46.2 60.7,42.3 61.3,41.6 	"/>
	<polygon class="st2" points="67.9,43.9 67.3,44.7 61.8,40.8 62.4,40 	"/>
	<rect x="65.5" y="37.4" transform="matrix(0.579 -0.8153 0.8153 0.579 -5.4537 70.9474)" class="st2" width="1" height="6.7"/>
	<rect x="28.7" y="46.3" class="st3" width="2.9" height="1.6"/>
	<rect x="32.4" y="46.3" class="st3" width="2.9" height="1.6"/>
	<rect x="36.2" y="46.3" class="st3" width="2.9" height="1.6"/>
	<rect x="28.7" y="49" class="st3" width="2.9" height="1.6"/>
	<rect x="32.4" y="49" class="st3" width="2.9" height="1.6"/>
	<rect x="36.2" y="49" class="st3" width="2.9" height="1.6"/>
	<rect x="28.7" y="51.6" class="st3" width="2.9" height="1.6"/>
	<rect x="32.4" y="51.6" class="st3" width="2.9" height="1.6"/>
	<rect x="36.2" y="51.6" class="st3" width="2.9" height="1.6"/>
</g>
</svg>
