<?xml version="1.0" encoding="utf-8"?>
<!-- Generator: Adobe Illustrator 20.1.0, SVG Export Plug-In . SVG Version: 6.00 Build 0)  -->
<svg version="1.1" id="Layer_1" xmlns="http://www.w3.org/2000/svg" xmlns:xlink="http://www.w3.org/1999/xlink" x="0px" y="0px"
	 viewBox="0 0 73.3 73.9" style="enable-background:new 0 0 73.3 73.9;" xml:space="preserve">
<style type="text/css">
	.st0{fill:#FED100;stroke:#FFFFFF;stroke-width:0.8;}
	.st1{fill:#FFFFFF;}
	.st2{fill:none;stroke:#FFFFFF;stroke-width:2.85;}
</style>
<g>
	<path class="st0" d="M72.9,14.4c0,7.8-16.2,14.1-36.3,14.1c-20,0-36.3-6.3-36.3-14.1v45c0,7.8,16.2,14.1,36.3,14.1
		c20,0,36.3-6.3,36.3-14.1V14.4z"/>
	<g>
		<g>
			<ellipse class="st0" cx="36.7" cy="14.5" rx="36.2" ry="14.1"/>
			<polygon class="st1" points="28.1,6.1 43,4.6 40.1,9.4 36.3,8.6 14.1,17 10.1,16 31.9,7.7 			"/>
			<polygon class="st1" points="45.3,11.3 60.2,9.9 57.3,14.6 53.5,13.9 31.3,22.3 27.3,21.2 49.1,12.9 			"/>
		</g>
	</g>
	<g>
		<polygon class="st1" points="21.8,68.3 21.8,58.7 16,63.4 		"/>
	</g>
	<g>
		<polygon class="st1" points="49.6,31.4 49.6,41 55.4,36.4 		"/>
	</g>
	<g>
		<polygon class="st1" points="21.8,41.3 21.8,31.7 16,36.4 		"/>
	</g>
	<polyline class="st2" points="53.3,63.4 43.4,63.4 29.9,36.3 19.7,36.3 	"/>
	<polyline class="st2" points="19.7,63.4 29.3,63.4 42.7,36.4 53,36.4 	"/>
	<g>
		<polygon class="st1" points="49.6,58.5 49.6,68.1 55.4,63.5 		"/>
	</g>
</g>
</svg>
