<?xml version="1.0" encoding="utf-8"?>
<!-- Generator: Adobe Illustrator 20.1.0, SVG Export Plug-In . SVG Version: 6.00 Build 0)  -->
<svg version="1.1" id="Layer_1" xmlns="http://www.w3.org/2000/svg" xmlns:xlink="http://www.w3.org/1999/xlink" x="0px" y="0px"
	 viewBox="0 0 74.4 59.7" style="enable-background:new 0 0 74.4 59.7;" xml:space="preserve">
<style type="text/css">
	.st0{fill:#FED100;stroke:#FFFFFF;stroke-width:0.8;}
	.st1{fill:#FFFFFF;}
	.st2{fill:none;stroke:#FFFFFF;stroke-width:0.6;}
</style>
<g>
	<g>
		<path class="st0" d="M74,24c0,7.9-16.5,14.3-36.8,14.3C16.9,38.3,0.4,31.9,0.4,24v21c0,7.9,16.5,14.3,36.8,14.3
			C57.5,59.3,74,52.9,74,45V24z"/>
		<ellipse class="st0" cx="37.2" cy="24" rx="36.8" ry="14.3"/>
		<ellipse class="st0" cx="37.2" cy="14.6" rx="36.6" ry="14.2"/>
		<path class="st0" d="M73.8,14.6c0,7.9-16.4,14.3-36.6,14.3S0.5,22.5,0.5,14.6v10.1C0.5,32.6,16.9,39,37.2,39s36.6-6.4,36.6-14.2
			V14.6z"/>
	</g>
	<polygon class="st1" points="28.8,8.4 31.8,13 20.3,15.7 22.8,13.6 5.1,10.5 9.6,7.2 26.7,10.1 	"/>
	<polygon class="st1" points="44.9,19.5 42.9,14.8 53.2,12.7 51.4,14.3 68.7,17.3 64.6,20.6 47.4,17.4 	"/>
	<polygon class="st1" points="39.3,6 50.9,2.8 51,7.8 48.1,7.2 42.5,11.9 37.1,11.1 42.9,6.5 	"/>
	<polygon class="st1" points="34.3,23.8 23.3,25.8 22.8,20.7 26,21.4 32.1,16.2 37.5,17.1 31,22.8 	"/>
	<g>
		<g>
			<line class="st2" x1="28.8" y1="15.4" x2="38.7" y2="16"/>
			<line class="st2" x1="8" y1="14.1" x2="18.1" y2="14.7"/>
			<line class="st2" x1="3.7" y1="9.5" x2="11.9" y2="10.2"/>
			<g>
				<line class="st2" x1="12.8" y1="9.9" x2="2.7" y2="18.3"/>
				<line class="st2" x1="22.9" y1="11.1" x2="8.7" y2="23"/>
				<line class="st2" x1="33.9" y1="11.6" x2="16.5" y2="25.7"/>
			</g>
			<line class="st2" x1="12.9" y1="19.3" x2="23.2" y2="20"/>
		</g>
		<g>
			<line class="st2" x1="57.2" y1="20.4" x2="67.4" y2="21.1"/>
			<line class="st2" x1="36.6" y1="19.1" x2="46.8" y2="19.8"/>
			<g>
				<line class="st2" x1="41" y1="14.6" x2="25.7" y2="27.8"/>
				<line class="st2" x1="52" y1="15.6" x2="36.7" y2="28.5"/>
				<line class="st2" x1="62.1" y1="16.2" x2="48.4" y2="28.3"/>
				<line class="st2" x1="73.5" y1="15" x2="64" y2="24.2"/>
			</g>
			<line class="st2" x1="20.6" y1="23" x2="30.8" y2="23.7"/>
			<line class="st2" x1="41.5" y1="24.4" x2="51.7" y2="25"/>
		</g>
	</g>
	<g>
		<line class="st2" x1="21.7" y1="2" x2="12.2" y2="10.3"/>
		<line class="st2" x1="35.2" y1="0.5" x2="22.7" y2="11.5"/>
	</g>
	<line class="st2" x1="61.9" y1="7.1" x2="68.9" y2="8"/>
	<g>
		<line class="st2" x1="46.7" y1="1" x2="29.7" y2="15.2"/>
		<line class="st2" x1="56.1" y1="2.3" x2="39.7" y2="15.8"/>
		<line class="st2" x1="63.9" y1="5.3" x2="50.9" y2="16.5"/>
		<line class="st2" x1="70.7" y1="9.3" x2="61.4" y2="17.2"/>
	</g>
	<line class="st2" x1="25.3" y1="9.7" x2="35.5" y2="10.4"/>
	<line class="st2" x1="46.2" y1="11" x2="56.4" y2="11.7"/>
	<line class="st2" x1="66.9" y1="12.4" x2="72.9" y2="12.8"/>
</g>
</svg>
