<?xml version="1.0" encoding="UTF-8" standalone="no"?>
<svg
   xmlns:dc="http://purl.org/dc/elements/1.1/"
   xmlns:cc="http://creativecommons.org/ns#"
   xmlns:rdf="http://www.w3.org/1999/02/22-rdf-syntax-ns#"
   xmlns:svg="http://www.w3.org/2000/svg"
   xmlns="http://www.w3.org/2000/svg"
   viewBox="0 0 36.333332 42.853333"
   height="42.853333"
   width="36.333332"
   xml:space="preserve"
   id="svg2"
   version="1.1"><metadata
     id="metadata8"><rdf:RDF><cc:Work
         rdf:about=""><dc:format>image/svg+xml</dc:format><dc:type
           rdf:resource="http://purl.org/dc/dcmitype/StillImage" /></cc:Work></rdf:RDF></metadata><defs
     id="defs6"><clipPath
       id="clipPath20"
       clipPathUnits="userSpaceOnUse"><path
         id="path18"
         d="M 0,1 V 321 H 270 V 1 Z" /></clipPath></defs><g
     transform="matrix(1.3333333,0,0,-1.3333333,0,42.853333)"
     id="g10"><g
       transform="scale(0.1)"
       id="g12"><g
         id="g14"><g
           clip-path="url(#clipPath20)"
           id="g16"><path
             id="path22"
             style="fill:#ffffff;fill-opacity:1;fill-rule:nonzero;stroke:none"
             d="M 50.6641,84.7734 H 43.4375 C 7.28516,84.7734 2,117.273 2,117.273 V 83.5234 c 0,0 5.28516,-32.5 41.4375,-32.5 h 6.6016" /><path
             id="path24"
             style="fill:none;stroke:#FED100;stroke-width:4;stroke-linecap:butt;stroke-linejoin:miter;stroke-miterlimit:4;stroke-dasharray:none;stroke-opacity:1"
             d="M 50.6641,84.7734 H 43.4375 C 7.28516,84.7734 2,117.273 2,117.273 V 83.5234 c 0,0 5.28516,-32.5 41.4375,-32.5 h 6.6016" /><path
             id="path26"
             style="fill:#FED100;fill-opacity:1;fill-rule:nonzero;stroke:none"
             d="m 42.9609,7.63672 h 161.629 v 281.855 H 42.9609 Z" /><path
             id="path28"
             style="fill:#FED100;fill-opacity:1;fill-rule:nonzero;stroke:none"
             d="M 42.9609,289.492 73.8398,314.59 H 229.68 L 204.59,289.492 H 42.9609" /><path
             id="path30"
             style="fill:#FED100;fill-opacity:1;fill-rule:nonzero;stroke:none"
             d="M 204.59,7.63672 229.68,38.5234 V 314.59 L 204.59,289.492 V 7.63672" /><path
             id="path32"
             style="fill:#FED100;fill-opacity:1;fill-rule:nonzero;stroke:none"
             d="m 42.9609,7.63672 h 161.629 v 281.855 H 42.9609 Z" /><path
             id="path34"
             style="fill:none;stroke:#ffffff;stroke-width:4;stroke-linecap:butt;stroke-linejoin:miter;stroke-miterlimit:4;stroke-dasharray:none;stroke-opacity:1"
             d="M 204.59,7.63672 V 289.492 H 42.9609 V 7.63672 Z" /><path
             id="path36"
             style="fill:#FED100;fill-opacity:1;fill-rule:nonzero;stroke:none"
             d="M 42.9609,289.492 73.8398,314.59 H 229.68 L 204.59,289.492 H 42.9609" /><path
             id="path38"
             style="fill:none;stroke:#ffffff;stroke-width:4;stroke-linecap:butt;stroke-linejoin:miter;stroke-miterlimit:4;stroke-dasharray:none;stroke-opacity:1"
             d="M 42.9609,289.492 73.8398,314.59 H 229.68 l -25.09,-25.098 z" /><path
             id="path40"
             style="fill:#FED100;fill-opacity:1;fill-rule:nonzero;stroke:none"
             d="M 204.59,7.63672 229.68,38.5234 V 314.59 L 204.59,289.492 V 7.63672" /><path
             id="path42"
             style="fill:none;stroke:#ffffff;stroke-width:4;stroke-linecap:butt;stroke-linejoin:miter;stroke-miterlimit:4;stroke-dasharray:none;stroke-opacity:1"
             d="M 204.59,7.63672 229.68,38.5234 V 314.59 l -25.09,-25.098 z" /><path
             id="path44"
             style="fill:none;stroke:#ffffff;stroke-width:4;stroke-linecap:butt;stroke-linejoin:miter;stroke-miterlimit:4;stroke-dasharray:none;stroke-opacity:1"
             d="M 204.59,7.63672 V 289.492 H 42.9609 V 7.63672 Z" /><path
             id="path46"
             style="fill:none;stroke:#ffffff;stroke-width:4;stroke-linecap:butt;stroke-linejoin:miter;stroke-miterlimit:4;stroke-dasharray:none;stroke-opacity:1"
             d="M 42.9609,289.492 73.8398,314.59 H 229.68 l -25.09,-25.098 z" /><path
             id="path48"
             style="fill:none;stroke:#ffffff;stroke-width:4;stroke-linecap:butt;stroke-linejoin:miter;stroke-miterlimit:4;stroke-dasharray:none;stroke-opacity:1"
             d="M 204.59,7.63672 229.68,38.5234 V 314.59 l -25.09,-25.098 z" /><path
             id="path50"
             style="fill:#ffffff;fill-opacity:1;fill-rule:nonzero;stroke:none"
             d="m 227.539,51.7383 h 36.074 v 33.8359 l -36.074,-0.0859" /><path
             id="path52"
             style="fill:none;stroke:#FED100;stroke-width:4;stroke-linecap:butt;stroke-linejoin:miter;stroke-miterlimit:4;stroke-dasharray:none;stroke-opacity:1"
             d="m 227.539,51.7383 h 36.074 v 33.8359 l -36.074,-0.0859" /><path
             id="path54"
             style="fill:#ffffff;fill-opacity:1;fill-rule:nonzero;stroke:none"
             d="M 49.4141,241.738 H 8.4375 v -33.84 l 36.0664,0.09 h 4.2852" /><path
             id="path56"
             style="fill:none;stroke:#FED100;stroke-width:4;stroke-linecap:butt;stroke-linejoin:miter;stroke-miterlimit:4;stroke-dasharray:none;stroke-opacity:1"
             d="M 49.4141,241.738 H 8.4375 v -33.84 l 36.0664,0.09 h 4.2852" /><path
             id="path58"
             style="fill:#ffffff;fill-opacity:1;fill-rule:nonzero;stroke:none"
             d="m 223.789,207.988 h 4.824 c 36.133,0 41.895,-32.5 41.895,-32.5 v 33.75 c 0,0 -5.742,32.5 -41.895,32.5 h -7.949" /><path
             id="path60"
             style="fill:none;stroke:#FED100;stroke-width:4;stroke-linecap:butt;stroke-linejoin:miter;stroke-miterlimit:4;stroke-dasharray:none;stroke-opacity:1"
             d="m 223.789,207.988 h 4.824 c 36.133,0 41.895,-32.5 41.895,-32.5 v 33.75 c 0,0 -5.742,32.5 -41.895,32.5 h -7.949" /><path
             id="path62"
             style="fill:#ffffff;fill-opacity:1;fill-rule:nonzero;stroke:none"
             d="m 270.508,211.113 v -40 c -3.926,-47.5 -88.145,-45 -88.145,-45 v -2.5 -32.4997 l -55,54.9997 55,55 v -35 c 0,0 85.645,-2.5 88.145,45" /><path
             id="path64"
             style="fill:none;stroke:#FED100;stroke-width:4;stroke-linecap:butt;stroke-linejoin:miter;stroke-miterlimit:4;stroke-dasharray:none;stroke-opacity:1"
             d="m 270.508,211.113 v -40 c -3.926,-47.5 -88.145,-45 -88.145,-45 v -2.5 -32.4997 l -55,54.9997 55,55 v -35 c 0,0 85.645,-2.5 88.145,45" /><path
             id="path66"
             style="fill:#ffffff;fill-opacity:1;fill-rule:nonzero;stroke:none"
             d="m 2.1875,81.6484 v 39.9996 c 2.5,47.5 60,45 60,45 v 2.5 32.5 l 55.0005,-55 -55.0005,-54.9996 v 34.9996 c 0,0 -57.5,2.5 -60,-44.9996" /><path
             id="path68"
             style="fill:none;stroke:#FED100;stroke-width:4;stroke-linecap:butt;stroke-linejoin:miter;stroke-miterlimit:4;stroke-dasharray:none;stroke-opacity:1"
             d="m 2.1875,81.6484 v 39.9996 c 2.5,47.5 60,45 60,45 v 2.5 32.5 l 55.0005,-55 -55.0005,-54.9996 v 34.9996 c 0,0 -57.5,2.5 -60,-44.9996" /></g></g></g></g></svg>