<?xml version="1.0" encoding="utf-8"?>
<!-- Generator: Adobe Illustrator 20.1.0, SVG Export Plug-In . SVG Version: 6.00 Build 0)  -->
<svg version="1.1" id="Layer_1" xmlns="http://www.w3.org/2000/svg" xmlns:xlink="http://www.w3.org/1999/xlink" x="0px" y="0px"
	 viewBox="0 0 127.6 66.8" style="enable-background:new 0 0 127.6 66.8;" xml:space="preserve">
<style type="text/css">
	.st0{fill:none;stroke:#FED100;stroke-width:0.8;stroke-linecap:round;stroke-linejoin:round;stroke-miterlimit:1;}
	.st1{fill:#FED100;stroke:#FFFFFF;stroke-width:0.8;}
	.st2{fill:#FFFFFF;}
</style>
<g>
	<g>
		<g>
			<path class="st0" d="M88.3,54c0.2,3.1-1.2,6.6-4.1,9.2c-3,2.7-6.8,3.8-10,3.1"/>
			<path class="st0" d="M87,53.5c0.2,2.9-1.1,6.1-3.8,8.5c-2.8,2.5-6.3,3.5-9.3,2.9"/>
			<path class="st0" d="M85.7,53.1c0.2,2.7-1.1,5.7-3.5,7.9c-2.6,2.3-5.9,3.3-8.6,2.7"/>
			<path class="st0" d="M84.3,52.6c0.2,2.5-1,5.2-3.2,7.3c-2.4,2.2-5.4,3-7.9,2.4"/>
			<path class="st0" d="M83,52.2c0.1,2.2-0.9,4.7-2.9,6.6c-2.2,2-4.9,2.7-7.2,2.2"/>
			<path class="st0" d="M81.6,51.7c0.1,2-0.8,4.3-2.7,6c-1.9,1.8-4.4,2.5-6.5,2"/>
			<path class="st0" d="M80.3,51.2c0.1,1.8-0.7,3.8-2.4,5.3c-1.7,1.6-4,2.2-5.8,1.8"/>
			<path class="st0" d="M79,50.8c0.1,1.6-0.6,3.4-2.1,4.7c-1.5,1.4-3.5,1.9-5.1,1.6"/>
		</g>
	</g>
	<g>
		<polyline class="st1" points="0.4,39.3 0.4,36.7 27.2,26.8 39.5,29 46.8,30.4 51.9,31.4 52,34.8 		"/>
		<g>
			<ellipse class="st1" cx="63.1" cy="3.1" rx="6.2" ry="2.7"/>
		</g>
		<polyline class="st1" points="38.7,32.2 27.2,30.3 0.4,39.3 23.8,43 52,34.8 43.9,33.4 		"/>
		<g>
			<path class="st1" d="M40.7,31.7c-8.3,2.1-10.1,4.2-10.1,4.2c2.8,1.4,12.9-2.3,12.9-2.3l1.8-0.6L40.7,31.7z"/>
			<path class="st1" d="M43.9,33.4l8.1,1.4L23.8,43L0.4,39.3l26.8-9l11.7,1.8c-6.7,1.6-8.2,3.7-8.2,3.7c2.8,1.4,11.6-1.9,11.6-1.9
				l0-0.1l8.1-2.5l0-4.5l-10.6,3.6l-0.1,0c0,0-0.5,1.1-0.5,1.5"/>
			<g>
				<ellipse transform="matrix(0.1736 -0.9848 0.9848 0.1736 0.9129 65.8722)" class="st1" cx="39.7" cy="32.4" rx="0.2" ry="0.2"/>
			</g>
		</g>
		<path class="st1" d="M75.9,42.4V9.1c0-3.1-5.7-5.6-12.8-5.6c-7,0-12.8,2.5-12.8,5.6v33.5"/>
		<polyline class="st1" points="74.4,16.1 74.4,13.1 102.5,3.1 127.1,8.8 127.2,12.4 		"/>
		<g>
			<polyline class="st1" points="83.5,17.4 74.4,16.1 102.5,6.8 127.1,12.5 97.8,20.7 91,19.6 			"/>
			<g>
				<path class="st1" d="M91.1,19.6c6.2-1.6,8.5-4.7,8.5-4.7c-9.4-0.3-16.1,2.4-16.1,2.4"/>
			</g>
			<path class="st1" d="M91.6,19.5l-20.6,6c-3-0.1-2.6-2.5-2.6-2.5c-0.1-1.5,2.2-2.2,2.2-2.2l13.5-3.5"/>
			<g>
				<ellipse class="st1" cx="84.4" cy="17.4" rx="0.3" ry="0.2"/>
			</g>
		</g>
	</g>
	<g>
		<path class="st1" d="M48.7,51.6c0-3.1,6.5-5.6,14.5-5.6c8,0,14.5,2.5,14.5,5.6v-8.3c0-3.1-6.5-5.6-14.5-5.6
			c-8,0-14.5,2.5-14.5,5.6V51.6z"/>
		<ellipse class="st1" cx="63.2" cy="51.6" rx="14.5" ry="5.6"/>
		<polygon class="st2" points="66.6,53.8 65.4,52 69.9,50.9 68.9,51.7 75.9,52.9 74.2,54.3 67.4,53.1 		"/>
		<polygon class="st2" points="60.2,49.4 61,51.3 56.9,52.1 57.6,51.4 50.8,50.3 52.4,49 59.2,50.2 		"/>
		<polygon class="st2" points="62.4,54.7 57.8,56 57.8,54 58.9,54.3 61.2,52.4 63.3,52.7 61,54.5 		"/>
		<polygon class="st2" points="64.4,47.7 68.7,46.9 68.9,48.9 67.7,48.6 65.3,50.7 63.1,50.3 65.7,48.1 		"/>
	</g>
</g>
</svg>
