<?xml version="1.0" encoding="UTF-8" standalone="no"?>
<svg
   xmlns:dc="http://purl.org/dc/elements/1.1/"
   xmlns:cc="http://creativecommons.org/ns#"
   xmlns:rdf="http://www.w3.org/1999/02/22-rdf-syntax-ns#"
   xmlns:svg="http://www.w3.org/2000/svg"
   xmlns="http://www.w3.org/2000/svg"
   viewBox="0 0 57.799999 32.16"
   height="32.16"
   width="57.799999"
   xml:space="preserve"
   id="svg2"
   version="1.1"><metadata
     id="metadata8"><rdf:RDF><cc:Work
         rdf:about=""><dc:format>image/svg+xml</dc:format><dc:type
           rdf:resource="http://purl.org/dc/dcmitype/StillImage" /></cc:Work></rdf:RDF></metadata><defs
     id="defs6"><clipPath
       id="clipPath20"
       clipPathUnits="userSpaceOnUse"><path
         id="path18"
         d="M 0,1 V 241 H 430 V 1 Z" /></clipPath></defs><g
     transform="matrix(1.3333333,0,0,-1.3333333,0,32.16)"
     id="g10"><g
       transform="scale(0.1)"
       id="g12"><g
         id="g14"><g
           clip-path="url(#clipPath20)"
           id="g16"><path
             id="path22"
             style="fill:#FED100;fill-opacity:1;fill-rule:nonzero;stroke:none"
             d="M 396.176,236.387 406.488,223.027 367.719,3.25391 354.965,11.1602 396.176,236.387" /><path
             id="path24"
             style="fill:none;stroke:#FFFFFF;stroke-width:3.99993992;stroke-linecap:butt;stroke-linejoin:miter;stroke-miterlimit:4;stroke-dasharray:none;stroke-opacity:1"
             d="M 396.176,236.387 406.488,223.027 367.719,3.25391 354.965,11.1602 Z" /><path
             id="path26"
             style="fill:#FED100;fill-opacity:1;fill-rule:nonzero;stroke:none"
             d="M 6.45703,11.1602 17.9961,3.25391 H 367.719 L 354.965,11.1602 H 6.45703" /><path
             id="path28"
             style="fill:none;stroke:#FFFFFF;stroke-width:3.99993992;stroke-linecap:butt;stroke-linejoin:miter;stroke-miterlimit:4;stroke-dasharray:none;stroke-opacity:1"
             d="M 6.45703,11.1602 17.9961,3.25391 H 367.719 l -12.754,7.90629 z" /><path
             id="path30"
             style="fill:#FED100;fill-opacity:1;fill-rule:nonzero;stroke:none"
             d="M 354.965,11.1602 396.176,236.387 H 51.9141 L 6.45703,11.1602 H 354.965" /><path
             id="path32"
             style="fill:none;stroke:#FFFFFF;stroke-width:3.99993992;stroke-linecap:butt;stroke-linejoin:miter;stroke-miterlimit:4;stroke-dasharray:none;stroke-opacity:1"
             d="M 354.965,11.1602 396.176,236.387 H 51.9141 L 6.45703,11.1602 Z" /><path
             id="path34"
             style="fill:#FED100;fill-opacity:1;fill-rule:nonzero;stroke:none"
             d="M 328.617,51.7461 354.906,191.934 H 161.531 L 135.234,51.7461 h 193.383" /><path
             id="path36"
             style="fill:none;stroke:#FFFFFF;stroke-width:3.99993992;stroke-linecap:butt;stroke-linejoin:miter;stroke-miterlimit:4;stroke-dasharray:none;stroke-opacity:1"
             d="M 328.617,51.7461 354.906,191.934 H 161.531 L 135.234,51.7461 Z" /><path
             id="path38"
             style="fill:#FED100;fill-opacity:1;fill-rule:nonzero;stroke:none"
             d="M 131.914,236.387 86.457,11.1602" /><path
             id="path40"
             style="fill:none;stroke:#FFFFFF;stroke-width:3.99993992;stroke-linecap:butt;stroke-linejoin:miter;stroke-miterlimit:4;stroke-dasharray:none;stroke-opacity:1"
             d="M 131.914,236.387 86.457,11.1602" /><path
             id="path42"
             style="fill:#FED100;fill-opacity:1;fill-rule:nonzero;stroke:none"
             d="m 38.543,58.4063 c 21.8984,-5.4102 48.4218,25.7031 59.2422,69.5037 10.8198,43.778 1.8554,83.66 -20.043,89.07 L 38.543,58.4063" /><path
             id="path44"
             style="fill:none;stroke:#FFFFFF;stroke-width:3.99993992;stroke-linecap:butt;stroke-linejoin:miter;stroke-miterlimit:4;stroke-dasharray:none;stroke-opacity:1"
             d="m 38.543,58.4063 c 21.8984,-5.4102 48.4218,25.7031 59.2422,69.5037 10.8198,43.778 1.8554,83.66 -20.043,89.07 z" /><path
             id="path46"
             style="fill:#FED100;fill-opacity:1;fill-rule:nonzero;stroke:none"
             d="m 165.73,212.469 h 62.4961 v 7.5 H 165.73 Z" /><path
             id="path48"
             style="fill:none;stroke:#FFFFFF;stroke-width:3.99993992;stroke-linecap:butt;stroke-linejoin:miter;stroke-miterlimit:4;stroke-dasharray:none;stroke-opacity:1"
             d="M 228.227,212.469 H 165.73 v 7.5 h 62.497 z" /><path
             id="path50"
             style="fill:#FED100;fill-opacity:1;fill-rule:nonzero;stroke:none"
             d="m 290.727,212.469 h 62.5 v 7.5 h -62.5 z" /><path
             id="path52"
             style="fill:none;stroke:#FFFFFF;stroke-width:3.99993992;stroke-linecap:butt;stroke-linejoin:miter;stroke-miterlimit:4;stroke-dasharray:none;stroke-opacity:1"
             d="m 353.227,212.469 h -62.5 v 7.5 h 62.5 z" /><path
             id="path54"
             style="fill:#FED100;fill-opacity:1;fill-rule:nonzero;stroke:none"
             d="m 412.191,47.8203 c -0.332,-2.7305 -2.812,-4.707 -5.546,-4.375 -2.754,0.332 -4.707,2.8164 -4.375,5.5703 l 21.328,178.7264 c 0.332,2.746 2.812,4.699 5.566,4.375 2.734,-0.32 4.707,-2.812 4.375,-5.554 L 412.191,47.8203" /></g></g></g></g></svg>