<?xml version="1.0" encoding="UTF-8" standalone="no"?>
<svg
   xmlns:dc="http://purl.org/dc/elements/1.1/"
   xmlns:cc="http://creativecommons.org/ns#"
   xmlns:rdf="http://www.w3.org/1999/02/22-rdf-syntax-ns#"
   xmlns:svg="http://www.w3.org/2000/svg"
   xmlns="http://www.w3.org/2000/svg"
   viewBox="0 0 41.506668 55.413334"
   height="55.413334"
   width="41.506668"
   xml:space="preserve"
   id="svg2"
   version="1.1"><metadata
     id="metadata8"><rdf:RDF><cc:Work
         rdf:about=""><dc:format>image/svg+xml</dc:format><dc:type
           rdf:resource="http://purl.org/dc/dcmitype/StillImage" /></cc:Work></rdf:RDF></metadata><defs
     id="defs6"><clipPath
       id="clipPath20"
       clipPathUnits="userSpaceOnUse"><path
         id="path18"
         d="M 0,416 H 310 V 0 H 0 Z" /></clipPath></defs><g
     transform="matrix(1.3333333,0,0,-1.3333333,0,55.413333)"
     id="g10"><g
       transform="scale(0.1)"
       id="g12"><g
         id="g14"><g
           clip-path="url(#clipPath20)"
           id="g16"><path
             id="path22"
             style="fill:#FED100;fill-opacity:1;fill-rule:nonzero;stroke:none"
             d="M 306.293,53.4063 V 410.906 l -51.336,-48.75 V 4.65625 l 51.336,48.75005" /><path
             id="path24"
             style="fill:none;stroke:#FFFFFF;stroke-width:4;stroke-linecap:butt;stroke-linejoin:miter;stroke-miterlimit:4;stroke-dasharray:none;stroke-opacity:1"
             d="M 306.293,53.4063 V 410.906 l -51.336,-48.75 V 4.65625 Z" /><path
             id="path26"
             style="fill:#FED100;fill-opacity:1;fill-rule:nonzero;stroke:none"
             d="m 306.293,410.906 -51.336,-48.75 H 5.96094 l 64.50386,48.75 H 306.293" /><path
             id="path28"
             style="fill:none;stroke:#FFFFFF;stroke-width:4;stroke-linecap:butt;stroke-linejoin:miter;stroke-miterlimit:4;stroke-dasharray:none;stroke-opacity:1"
             d="m 306.293,410.906 -51.336,-48.75 H 5.96094 l 64.50386,48.75 z" /><path
             id="path30"
             style="fill:#FED100;fill-opacity:1;fill-rule:nonzero;stroke:none"
             d="m 5.96094,115.906 h 248.996 v 246.25 H 5.96094 Z" /><path
             id="path32"
             style="fill:none;stroke:#FFFFFF;stroke-width:4;stroke-linecap:butt;stroke-linejoin:miter;stroke-miterlimit:4;stroke-dasharray:none;stroke-opacity:1"
             d="m 254.957,115.906 v 246.25 H 5.96094 v -246.25 z" /><path
             id="path34"
             style="fill:#FED100;fill-opacity:1;fill-rule:nonzero;stroke:none"
             d="m 5.96094,4.65625 h 248.996 v 108.75 H 5.96094 Z" /><path
             id="path36"
             style="fill:none;stroke:#FFFFFF;stroke-width:4;stroke-linecap:butt;stroke-linejoin:miter;stroke-miterlimit:4;stroke-dasharray:none;stroke-opacity:1"
             d="M 254.957,4.65625 V 113.406 H 5.96094 V 4.65625 Z" /><path
             id="path38"
             style="fill:#FFFFFF;fill-opacity:1;fill-rule:nonzero;stroke:none"
             d="m 108.258,268.23 -37.883,37.883 6.4258,6.426 -23.7891,4.813 4.8164,-23.789 6.4258,6.425 37.8911,-37.871 6.113,6.113" /><path
             id="path40"
             style="fill:#FFFFFF;fill-opacity:1;fill-rule:nonzero;stroke:none"
             d="M 94.3984,243.426 H 40.8242 v 9.082 L 20.6016,239.102 40.8242,225.691 v 9.082 h 53.5742 v 8.653" /><path
             id="path42"
             style="fill:#FFFFFF;fill-opacity:1;fill-rule:nonzero;stroke:none"
             d="m 102.145,216.094 -37.8911,-37.883 -6.4258,6.426 -4.8164,-23.789 23.7891,4.824 -6.4258,6.426 37.883,37.871 -6.113,6.125" /><path
             id="path44"
             style="fill:#FFFFFF;fill-opacity:1;fill-rule:nonzero;stroke:none"
             d="M 126.938,202.234 V 148.66 h -9.083 l 13.411,-20.222 13.406,20.222 h -9.082 v 53.574 h -8.652" /><path
             id="path46"
             style="fill:#FFFFFF;fill-opacity:1;fill-rule:nonzero;stroke:none"
             d="m 126.938,274.422 v 53.574 h -9.083 l 13.411,20.227 13.406,-20.227 h -9.082 v -53.574 h -8.652" /><path
             id="path48"
             style="fill:#FFFFFF;fill-opacity:1;fill-rule:nonzero;stroke:none"
             d="m 154.273,209.969 37.879,-37.871 -6.414,-6.426 23.778,-4.824 -4.813,23.789 -6.426,-6.426 -37.89,37.883 -6.114,-6.125" /><path
             id="path50"
             style="fill:#FFFFFF;fill-opacity:1;fill-rule:nonzero;stroke:none"
             d="m 168.129,234.773 h 53.574 v -9.082 l 20.227,13.411 -20.227,13.406 v -9.082 h -53.574 v -8.653" /><path
             id="path52"
             style="fill:#FFFFFF;fill-opacity:1;fill-rule:nonzero;stroke:none"
             d="m 160.387,262.117 37.89,37.871 6.426,-6.425 4.813,23.789 -23.778,-4.813 6.426,-6.426 -37.891,-37.883 6.114,-6.113" /><path
             id="path54"
             style="fill:#FFFFFF;fill-opacity:1;fill-rule:nonzero;stroke:none"
             d="m 164.145,193.75 c 25.285,17.703 31.425,52.547 13.722,77.82 -17.695,25.285 -52.539,31.426 -77.824,13.731 C 74.7695,267.598 68.6172,232.742 86.3242,207.469 104.027,182.195 138.871,176.047 164.145,193.75" /><path
             id="path56"
             style="fill:none;stroke:#FED100;stroke-width:4;stroke-linecap:butt;stroke-linejoin:miter;stroke-miterlimit:4;stroke-dasharray:none;stroke-opacity:1"
             d="m 164.145,193.75 c 25.285,17.703 31.425,52.547 13.722,77.82 -17.695,25.285 -52.539,31.426 -77.824,13.731 C 74.7695,267.598 68.6172,232.742 86.3242,207.469 104.027,182.195 138.871,176.047 164.145,193.75 Z" /><path
             id="path58"
             style="fill:#FFFFFF;fill-opacity:1;fill-rule:nonzero;stroke:none"
             d="m 135.543,79.2969 h 9.129 L 131.266,99.5195 117.855,79.2969 h 9.036 V 37.1094 h -9.133 l 13.41,-20.2266 13.406,20.2266 h -9.031 v 42.1875" /><path
             id="path60"
             style="fill:#FFFFFF;fill-opacity:1;fill-rule:nonzero;stroke:none"
             d="m 66.2734,79.2969 h 9.1407 L 61.9961,99.5195 48.5898,79.2969 h 9.043 V 37.1094 h -9.1406 l 13.4062,-20.2266 13.418,20.2266 h -9.043 v 42.1875" /><path
             id="path62"
             style="fill:#FFFFFF;fill-opacity:1;fill-rule:nonzero;stroke:none"
             d="m 201.742,79.2969 h 9.141 L 197.477,99.5195 184.059,79.2969 h 9.043 V 37.1094 h -9.141 l 13.406,-20.2266 13.418,20.2266 h -9.043 v 42.1875" /></g></g></g></g></svg>