<?xml version="1.0" encoding="UTF-8" standalone="no"?>
<svg
   xmlns:dc="http://purl.org/dc/elements/1.1/"
   xmlns:cc="http://creativecommons.org/ns#"
   xmlns:rdf="http://www.w3.org/1999/02/22-rdf-syntax-ns#"
   xmlns:svg="http://www.w3.org/2000/svg"
   xmlns="http://www.w3.org/2000/svg"
   version="1.1"
   id="svg2"
   xml:space="preserve"
   width="35.693333"
   height="36.040001"
   viewBox="0 0 35.693333 36.040001"><metadata
     id="metadata8"><rdf:RDF><cc:Work
         rdf:about=""><dc:format>image/svg+xml</dc:format><dc:type
           rdf:resource="http://purl.org/dc/dcmitype/StillImage" /></cc:Work></rdf:RDF></metadata><defs
     id="defs6" /><g
     id="g10"
     transform="matrix(1.3333333,0,0,-1.3333333,0,36.04)"><g
       id="g12"
       transform="scale(0.1)"><path
         d="m 5.46875,4.75 h 215.996 V 224.496 H 5.46875 Z"
         style="fill:#FED100;fill-opacity:1;fill-rule:nonzero;stroke:none"
         id="path14" /><path
         d="M 221.465,4.75 V 224.496 H 5.46875 V 4.75 Z"
         style="fill:none;stroke:#FFFFFF;stroke-width:3.99993992;stroke-linecap:butt;stroke-linejoin:miter;stroke-miterlimit:4;stroke-dasharray:none;stroke-opacity:1"
         id="path16" /><path
         d="m 113.77,68.3047 c 25.664,0 46.484,20.8125 46.484,46.4843 0,25.664 -20.82,46.465 -46.484,46.465 -25.6645,0 -46.477,-20.801 -46.477,-46.465 0,-25.6718 20.8125,-46.4843 46.477,-46.4843 z"
         style="fill:none;stroke:#FFFFFF;stroke-width:6.99996996;stroke-linecap:butt;stroke-linejoin:miter;stroke-miterlimit:4;stroke-dasharray:none;stroke-opacity:1"
         id="path18" /><path
         d="m 113.77,161.254 h 80.722"
         style="fill:none;stroke:#FFFFFF;stroke-width:6.99996996;stroke-linecap:butt;stroke-linejoin:miter;stroke-miterlimit:4;stroke-dasharray:none;stroke-opacity:1"
         id="path20" /><path
         d="m 180.547,185.883 v -48.067 l 28.965,23.086 -28.965,24.981"
         style="fill:#FFFFFF;fill-opacity:1;fill-rule:nonzero;stroke:none"
         id="path22" /><path
         d="m 180.547,185.883 v -48.067 l 28.965,23.086 z"
         style="fill:none;stroke:#FFFFFF;stroke-width:1.99996996;stroke-linecap:butt;stroke-linejoin:miter;stroke-miterlimit:4;stroke-dasharray:none;stroke-opacity:1"
         id="path24" /><path
         d="M 67.3516,114.457 V 195.18"
         style="fill:none;stroke:#FFFFFF;stroke-width:6.99996996;stroke-linecap:butt;stroke-linejoin:miter;stroke-miterlimit:4;stroke-dasharray:none;stroke-opacity:1"
         id="path26" /><path
         d="M 43.3594,181.676 H 91.4258 L 68.3398,210.629 43.3594,181.676"
         style="fill:#FFFFFF;fill-opacity:1;fill-rule:nonzero;stroke:none"
         id="path28" /><path
         d="m 43.3594,181.676 h 48.0664 l -23.086,28.953 z"
         style="fill:none;stroke:#FFFFFF;stroke-width:1.99996996;stroke-linecap:butt;stroke-linejoin:miter;stroke-miterlimit:4;stroke-dasharray:none;stroke-opacity:1"
         id="path30" /><path
         d="M 160.344,115.043 V 34.3203"
         style="fill:none;stroke:#FFFFFF;stroke-width:6.99996996;stroke-linecap:butt;stroke-linejoin:miter;stroke-miterlimit:4;stroke-dasharray:none;stroke-opacity:1"
         id="path32" /><path
         d="m 184.922,48.9492 h -48.067 l 23.309,-28.9531 24.758,28.9531"
         style="fill:#FFFFFF;fill-opacity:1;fill-rule:nonzero;stroke:none"
         id="path34" /><path
         d="M 184.922,48.9492 H 136.855 L 160.164,19.9961 Z"
         style="fill:none;stroke:#FFFFFF;stroke-width:1.99996996;stroke-linecap:butt;stroke-linejoin:miter;stroke-miterlimit:4;stroke-dasharray:none;stroke-opacity:1"
         id="path36" /><path
         d="M 114.922,68.3633 H 34.1992"
         style="fill:none;stroke:#FFFFFF;stroke-width:6.99996996;stroke-linecap:butt;stroke-linejoin:miter;stroke-miterlimit:4;stroke-dasharray:none;stroke-opacity:1"
         id="path38" /><path
         d="M 47.0508,44.5156 V 92.5938 L 18.0859,69.4961 47.0508,44.5156"
         style="fill:#FFFFFF;fill-opacity:1;fill-rule:nonzero;stroke:none"
         id="path40" /><path
         d="M 47.0508,44.5156 V 92.5938 L 18.0859,69.4961 Z"
         style="fill:none;stroke:#FFFFFF;stroke-width:1.99996996;stroke-linecap:butt;stroke-linejoin:miter;stroke-miterlimit:4;stroke-dasharray:none;stroke-opacity:1"
         id="path42" /><path
         d="M 220.715,224.742 H 5.71094 L 60.2148,268.238 H 265.715 V 267.992 49.8672 L 221.211,4.86719 V 223.492 l -0.496,1.25"
         style="fill:#FED100;fill-opacity:1;fill-rule:nonzero;stroke:none"
         id="path44" /><path
         d="M 220.715,224.742 H 5.71094 L 60.2148,268.238 H 265.715 V 267.992 49.8672 L 221.211,4.86719 V 223.492 Z"
         style="fill:none;stroke:#FFFFFF;stroke-width:3.99993992;stroke-linecap:butt;stroke-linejoin:miter;stroke-miterlimit:4;stroke-dasharray:none;stroke-opacity:1"
         id="path46" /><path
         d="m 221.094,225.102 45,43.75"
         style="fill:#FED100;fill-opacity:1;fill-rule:nonzero;stroke:none"
         id="path48" /><path
         d="m 221.094,225.102 45,43.75"
         style="fill:none;stroke:#FFFFFF;stroke-width:3.99993992;stroke-linecap:butt;stroke-linejoin:miter;stroke-miterlimit:4;stroke-dasharray:none;stroke-opacity:1"
         id="path50" /><g
         id="g52"
         transform="scale(10)"><text
   transform="matrix(1,0,0,-1,8.28516,7.9125)"
   style="font-variant:normal;font-weight:bold;font-size:9px;font-family:Helvetica;-inkscape-font-specification:Helvetica-Bold;writing-mode:lr-tb;fill:#FFFFFF;fill-opacity:1;fill-rule:nonzero;stroke:none"
   id="text56"><tspan
     x="0"
     y="0"
     id="tspan54">V</tspan></text>

</g></g></g></svg>