<?xml version="1.0" encoding="utf-8"?>
<!-- Generator: Adobe Illustrator 20.1.0, SVG Export Plug-In . SVG Version: 6.00 Build 0)  -->
<svg version="1.1" id="Layer_1" xmlns="http://www.w3.org/2000/svg" xmlns:xlink="http://www.w3.org/1999/xlink" x="0px" y="0px"
	 viewBox="0 0 62.7 83.9" style="enable-background:new 0 0 62.7 83.9;" xml:space="preserve">
<style type="text/css">
	.st0{fill:#FED100;stroke:#FFFFFF;stroke-width:0.8;}
	.st1{fill:#FFFFFF;}
	.st2{stroke:#FFFFFF;stroke-width:0.8;}
	.st3{fill:none;stroke:#FFFFFF;stroke-width:1.9468;}
	.st4{fill:none;stroke:#FFFFFF;stroke-width:0.8;}
	.st5{fill:none;stroke:#FFFFFF;stroke-width:0.8;stroke-dasharray:3.6;}
</style>
<g>
	<rect x="1.3" y="29.4" class="st0" width="53.7" height="53.6"/>
	<polygon class="st0" points="61.7,76.2 61.7,22.6 54.9,29.4 54.9,83 	"/>
	<g>
		<polygon class="st0" points="11.1,1 1.3,7.7 54.9,7.7 61.7,1 		"/>
		<rect x="1.3" y="7.7" class="st0" width="53.7" height="21.7"/>
		<polygon class="st0" points="61.7,22.6 61.7,1 54.9,7.7 54.9,29.4 		"/>
		<line class="st0" x1="54.9" y1="29.4" x2="61.7" y2="22.6"/>
		<rect x="10" y="10.6" class="st1" width="8.7" height="4.5"/>
		<path class="st2" d="M14.4,12.8"/>
		<rect x="38.5" y="10.6" class="st1" width="8.7" height="4.5"/>
		<path class="st2" d="M42.8,12.8"/>
		<rect x="10" y="21.8" class="st1" width="8.7" height="4.5"/>
		<path class="st2" d="M14.4,24.1"/>
		<rect x="38.5" y="21.8" class="st1" width="8.7" height="4.5"/>
		<path class="st2" d="M42.8,24.1"/>
		<line class="st2" x1="15.9" y1="12.8" x2="42.5" y2="12.8"/>
		<line class="st2" x1="15.9" y1="24.1" x2="42.5" y2="24.1"/>
		<line class="st2" x1="14.4" y1="24.1" x2="42.5" y2="12.8"/>
		<line class="st2" x1="14.4" y1="12.8" x2="42.5" y2="24.1"/>
	</g>
	<g>
		<polygon class="st1" points="18.1,53.5 18.1,49 18.9,49 17.7,47.3 16.6,49 17.4,49 17.4,53.5 		"/>
		<polygon class="st1" points="15.8,54.1 12.6,50.9 13.1,50.4 11.1,50 11.5,52 12.1,51.5 15.3,54.6 		"/>
		<polygon class="st1" points="14.6,56.2 10.1,56.2 10.1,55.5 8.4,56.6 10.1,57.7 10.1,57 14.6,57 		"/>
		<polygon class="st1" points="15.3,58.5 12.1,61.7 11.5,61.2 11.1,63.2 13.1,62.8 12.6,62.2 15.8,59 		"/>
		<polygon class="st1" points="17.4,59.7 17.4,64.2 16.6,64.2 17.7,65.9 18.9,64.2 18.1,64.2 18.1,59.7 		"/>
		<polygon class="st1" points="20.2,54.6 23.4,51.5 23.9,52 24.3,50 22.3,50.4 22.9,50.9 19.7,54.1 		"/>
	</g>
	<ellipse transform="matrix(0.8192 -0.5736 0.5736 0.8192 -29.2067 20.4457)" class="st1" cx="17.8" cy="56.5" rx="4.7" ry="4.7"/>
	<polygon class="st1" points="20.1,59 23.3,62.2 22.7,62.8 24.8,63.2 24.3,61.2 23.8,61.7 20.6,58.5 	"/>
	<g>
		<polygon class="st1" points="38,53.5 38,49 37.3,49 38.4,47.3 39.5,49 38.8,49 38.8,53.5 		"/>
		<polygon class="st1" points="40.3,54.1 43.5,50.9 43,50.4 45,50 44.6,52 44,51.5 40.8,54.6 		"/>
		<polygon class="st1" points="41.5,56.2 46,56.2 46,55.5 47.7,56.6 46,57.7 46,57 41.5,57 		"/>
		<polygon class="st1" points="40.8,58.5 44,61.7 44.6,61.2 45,63.2 43,62.8 43.5,62.2 40.3,59 		"/>
		<polygon class="st1" points="38.8,59.7 38.8,64.2 39.5,64.2 38.4,65.9 37.3,64.2 38,64.2 38,59.7 		"/>
		<polygon class="st1" points="35.9,54.6 32.7,51.5 32.2,52 31.8,50 33.8,50.4 33.3,50.9 36.4,54.1 		"/>
	</g>
	<path class="st1" d="M35.6,60.4c-2.1-1.5-2.6-4.4-1.1-6.5c1.5-2.1,4.4-2.6,6.5-1.1c2.1,1.5,2.6,4.4,1.1,6.5
		C40.7,61.3,37.7,61.9,35.6,60.4z"/>
	<polygon class="st1" points="36,59 32.8,62.2 33.4,62.8 31.4,63.2 31.8,61.2 32.3,61.7 35.5,58.5 	"/>
	<line class="st3" x1="20.4" y1="56.6" x2="35.7" y2="56.6"/>
	<ellipse class="st4" cx="27.9" cy="56.6" rx="1.3" ry="5.9"/>
	<rect x="6.5" y="39.3" class="st5" width="43" height="33.8"/>
</g>
</svg>
