<?xml version="1.0" encoding="utf-8"?>
<!-- Generator: Adobe Illustrator 20.1.0, SVG Export Plug-In . SVG Version: 6.00 Build 0)  -->
<svg version="1.1" id="Layer_1" xmlns="http://www.w3.org/2000/svg" xmlns:xlink="http://www.w3.org/1999/xlink" x="0px" y="0px"
	 viewBox="0 0 87.1 63.2" style="enable-background:new 0 0 87.1 63.2;" xml:space="preserve">
<style type="text/css">
	.st0{fill:#FED100;stroke:#FFFFFF;stroke-width:0.8;}
	.st1{fill:#FFFFFF;}
	.st2{fill:#FFFFFF;stroke:#FFFFFF;stroke-width:0.72;}
</style>
<g>
	<g>
		<g>
			<g>
				<rect x="1.1" y="11.8" class="st0" width="76.3" height="50.1"/>
				<polygon class="st0" points="86.2,49 77.4,61.9 77.4,11.8 86.2,1.1 				"/>
				<polygon class="st0" points="14.3,1.1 86.2,1.1 77.4,11.8 1.1,11.8 				"/>
				<g>
					<polygon class="st1" points="63.5,36.2 72.4,36.2 72.4,38.2 63.5,38.3 63.5,41.4 56.1,37.2 63.5,33 					"/>
				</g>
				<g>
					<polygon class="st1" points="68.8,38 59.9,38 59.9,36 68.8,36 68.8,32.8 76.2,37 68.8,41.2 					"/>
				</g>
			</g>
		</g>
	</g>
	<polygon class="st2" points="53.3,37.1 31.2,27 31.2,47.2 	"/>
	<g>
		<g>
			<polyline class="st1" points="20.4,37.5 20.4,40.3 27,36.6 20.4,32.8 20.4,35.7 			"/>
		</g>
		<g>
			<polygon class="st1" points="9.9,37.5 21.3,37.5 21.3,35.7 9.9,35.7 9.9,32.8 3.3,36.6 9.9,40.3 			"/>
		</g>
	</g>
	<g>
		<g>
			<polyline class="st1" points="21.7,28 20.1,30.3 27.6,31 24.4,24.1 22.7,26.5 			"/>
		</g>
		<g>
			<polygon class="st1" points="13.1,21.9 22.5,28.5 23.5,27 14.2,20.4 15.8,18.1 8.2,17.4 11.5,24.3 			"/>
		</g>
	</g>
	<g>
		<g>
			<polyline class="st1" points="21.7,45.5 20.1,43.2 27.6,42.4 24.4,49.3 22.7,47 			"/>
		</g>
		<g>
			<polygon class="st1" points="13.1,51.5 22.5,44.9 23.5,46.4 14.2,53 15.8,55.3 8.2,56.1 11.5,49.2 			"/>
		</g>
	</g>
</g>
</svg>
