<?xml version="1.0" encoding="utf-8"?>
<!-- Generator: Adobe Illustrator 20.1.0, SVG Export Plug-In . SVG Version: 6.00 Build 0)  -->
<svg version="1.1" id="Layer_1" xmlns="http://www.w3.org/2000/svg" xmlns:xlink="http://www.w3.org/1999/xlink" x="0px" y="0px"
	 viewBox="0 0 70.5 61.8" style="enable-background:new 0 0 70.5 61.8;" xml:space="preserve">
<style type="text/css">
	.st0{fill:#FED100;stroke:#FFFFFF;stroke-width:0.8;}
	.st1{fill:none;stroke:#FED100;stroke-width:0.8;}
	.st2{fill:none;stroke:#FFFFFF;stroke-width:0.8;}
</style>
<g>
	<path class="st0" d="M20.3,20.4C13.1,21.9,7.9,39.2,7.9,39.2c-2.6,7.5-7.1,13.6-7.1,13.6h47.7c0,0,5.5-6.9,9.5-13.6
		c0,0,5.2-17.3,12.4-18.7H20.3z"/>
	<path class="st0" d="M48.4,52.6v8.1l21.2-21.9l0-18.1c-3.3,0.7-8.2,6.4-12,11.9c-2.2,3.1-3.7,5.8-5.2,7.9"/>
	<path class="st1" d="M33.8,10.5c3.6-3.2,8.4-5.3,13-5.2c4.8,0.1,8.1,2.6,9,6.2"/>
	<path class="st1" d="M31.9,15.4c3.6-3.2,8.4-5.3,12.9-5.2c4.8,0.1,8.1,2.6,9,6.2"/>
	<path class="st1" d="M30.1,20.3c3.6-3.2,8.4-5.3,12.9-5.2c4.8,0.1,8.1,2.6,9,6.2"/>
	<path class="st0" d="M28.2,25.2c3.6-3.2,8.4-5.3,12.9-5.2c4.8,0.1,8.1,2.6,9,6.2"/>
	<path class="st1" d="M33.8,10.5c3.6-3.2,8.4-5.3,13-5.2c4.8,0.1,8.1,2.6,9,6.2"/>
	<path class="st1" d="M35.6,5.6c3.6-3.2,8.4-5.3,12.9-5.2c4.8,0.1,8.1,2.6,9,6.2"/>
	<path class="st1" d="M31.9,15.4c3.6-3.2,8.4-5.3,12.9-5.2c4.8,0.1,8.1,2.6,9,6.2"/>
	<path class="st1" d="M30.1,20.3c3.6-3.2,8.4-5.3,12.9-5.2c4.8,0.1,8.1,2.6,9,6.2"/>
	<path class="st2" d="M28.2,25.2c3.6-3.2,8.4-5.3,12.9-5.2c4.8,0.1,8.1,2.6,9,6.2"/>
	
		<ellipse transform="matrix(0.9965 -8.306029e-02 8.306029e-02 0.9965 -3.0259 2.768)" class="st0" cx="31.8" cy="37.8" rx="22.4" ry="10.3"/>
	
		<ellipse transform="matrix(0.9965 -8.306785e-02 8.306785e-02 0.9965 -2.8992 2.7598)" class="st0" cx="31.7" cy="36.2" rx="20.3" ry="9.3"/>
	<polygon class="st0" points="0.8,61 48.6,61 48.6,52.3 0.8,52.3 	"/>
</g>
</svg>
