<?xml version="1.0" encoding="utf-8"?>
<!-- Generator: Adobe Illustrator 20.1.0, SVG Export Plug-In . SVG Version: 6.00 Build 0)  -->
<svg version="1.1" id="Layer_1" xmlns="http://www.w3.org/2000/svg" xmlns:xlink="http://www.w3.org/1999/xlink" x="0px" y="0px"
	 viewBox="0 0 94.6 53.4" style="enable-background:new 0 0 94.6 53.4;" xml:space="preserve">
<style type="text/css">
	.st0{fill:#FED100;stroke:#FFFFFF;stroke-width:0.8;}
	.st1{fill:#FFFFFF;}
	.st2{font-family:'Helvetica-Bold';}
	.st3{font-size:10.168px;}
	.st4{font-size:10.1679px;}
	.st5{fill:none;stroke:#FFFFFF;stroke-width:0.8;stroke-miterlimit:1;}
</style>
	<g>
	<polygon class="st0" points="1.1,23.5 29.1,0.9 93.6,0.9 70.5,23.5 	"/>
	<polygon class="st0" points="70.5,52.4 93.6,28.8 93.6,1 70.5,23.5 	"/>
	<rect x="1.2" y="23.5" class="st0" width="69.3" height="28.9"/>
	<g>
		<text transform="matrix(0.9999 0 -0.8949 0.7696 16.9478 15.1183)" class="st1 st2 st3">W</text>
	</g>
	<g>
		<text transform="matrix(0.9999 0 -0.8949 0.7697 65.8923 15.927)" class="st1 st2 st4">E</text>
	</g>
	<g>
		<text transform="matrix(0.9999 0 -0.8949 0.7696 33.4516 22.7566)" class="st1 st2 st3">S</text>
	</g>
	<g>
		<text transform="matrix(0.9999 0 -0.8949 0.7696 50.6761 7.4502)" class="st1 st2 st3">N</text>
	</g>
	<g>
		<path class="st1" d="M52,12.2c-0.7,0.6-2.7,1.1-4.4,1.1c-1.7,0-2.5-0.5-1.8-1.1c0.7-0.6,2.7-1.1,4.4-1.1
			C51.9,11.1,52.7,11.6,52,12.2z"/>
		<polyline class="st1" points="48.3,11.8 54.9,7 50.8,11.7 		"/>
		<polyline class="st1" points="47.4,12.5 43.3,17.2 49.9,12.5 		"/>
		<polyline class="st1" points="47,12.7 34.5,12.2 48.1,11.8 		"/>
		<polyline class="st1" points="49.1,12.7 62.6,12.2 50.1,11.8 		"/>
		<polyline class="st1" points="48,12.9 41.3,14.2 47,12.3 		"/>
		<polyline class="st1" points="50.1,12.4 56.7,10.2 49,11.7 		"/>
		<polyline class="st1" points="50.7,12.3 52.1,14.4 48.1,12.9 		"/>
		<polyline class="st1" points="49.8,11.8 45.7,10.3 47.3,12.4 		"/>
	</g>
	<path class="st5" d="M59.7,10.7c0.7,2.1-3.8,4.6-9.9,5.7c-6.1,1.1-11.6,0.2-12.3-1.8c-0.7-2.1,3.8-4.6,9.9-5.6
		C53.6,7.8,59.1,8.6,59.7,10.7z"/>
</g>
</svg>
