<?xml version="1.0" encoding="utf-8"?>
<!-- Generator: Adobe Illustrator 20.1.0, SVG Export Plug-In . SVG Version: 6.00 Build 0)  -->
<svg version="1.1" id="Layer_1" xmlns="http://www.w3.org/2000/svg" xmlns:xlink="http://www.w3.org/1999/xlink" x="0px" y="0px"
	 viewBox="0 0 76.3 65.7" style="enable-background:new 0 0 76.3 65.7;" xml:space="preserve">
<style type="text/css">
	.st0{fill:#FED100;stroke:#FFFFFF;stroke-width:0.8;}
	.st1{fill:#FED100;stroke:#FFFFFF;stroke-width:0.8;}
	.st2{fill:none;stroke:#FED100;}
	.st3{fill:none;stroke:#FFFFFF;}
</style>
<g>
	<polygon class="st0" points="62.5,37.3 56.7,45 9,45 16.8,37.2 	"/>
	<rect x="8.9" y="45.1" class="st1" width="45.8" height="8.5"/>
	<rect x="8.7" y="8.8" class="st1" width="45.6" height="34.4"/>
	<polygon class="st1" points="54.4,43.2 62.1,35.4 62.1,1 54.4,8.8 	"/>
	<polygon class="st1" points="71.6,61.1 75.1,54.1 67.1,54.1 63.6,61.1 	"/>
	<rect x="63.6" y="61.1" class="st1" width="8" height="2.2"/>
	<polygon class="st1" points="71.5,63.4 71.6,61.1 75,54.1 75,59 	"/>
	<polygon class="st1" points="54.6,53.6 54.6,45.1 62.4,37.4 62.4,45.9 	"/>
	<path class="st1" d="M16.3,12.7h30.5c2,0,3.6,1.6,3.6,3.6v19.3c0,2-1.6,3.6-3.6,3.6H16.3c-2,0-3.6-1.6-3.6-3.6V16.3
		C12.7,14.3,14.3,12.7,16.3,12.7z"/>
	<polygon class="st1" points="62.1,1 17.7,1 8.7,8.8 54.4,8.8 	"/>
	<polygon class="st1" points="53.3,64.7 53.3,61.9 59.3,53.7 59.3,58.7 	"/>
	<polygon class="st1" points="53.3,62 0.8,62 6.8,53.7 59.3,53.7 	"/>
	<rect x="0.7" y="62" class="st1" width="52.6" height="2.7"/>
	<path class="st2" d="M73.1,54.4c6.2-3,1.2-15.7-11.2-9.3"/>
	<ellipse class="st3" cx="31.4" cy="25.9" rx="11.7" ry="5.3"/>
	<ellipse class="st3" cx="31.5" cy="25.8" rx="15" ry="7.3"/>
</g>
</svg>
