<?xml version="1.0"  encoding="UTF-8" standalone="no"?>
<svg version="1.1" xmlns="http://www.w3.org/2000/svg" xmlns:xlink="http://www.w3.org/1999/xlink" width="439.0000" height="632.0000">
<g transform="translate(-66.0000, 29.0000)">
<path d="M 382.0000,334.0000 C 398.0000,338.0000 414.0000,338.0000 431.0000,341.0000 C 430.0000,343.0000 429.0000,345.0000 428.0000,346.0000 C 410.0000,376.0000 384.0000,395.0000 349.0000,403.0000 C 345.0000,403.0000 342.0000,402.0000 339.0000,399.0000 C 333.0000,394.0000 327.0000,388.0000 321.0000,381.0000 C 316.0000,376.0000 315.0000,376.0000 310.0000,380.0000 C 304.0000,385.0000 299.0000,389.0000 292.0000,390.0000 C 284.0000,391.0000 276.0000,391.0000 268.0000,389.0000 C 262.0000,388.0000 259.0000,383.0000 257.0000,377.0000 C 255.0000,368.0000 255.0000,359.0000 257.0000,350.0000 C 264.0000,320.0000 265.0000,289.0000 265.0000,259.0000 C 264.0000,239.0000 264.0000,220.0000 263.0000,201.0000 C 263.0000,194.0000 260.0000,187.0000 256.0000,181.0000 C 245.0000,162.0000 229.0000,147.0000 210.0000,135.0000 C 196.0000,126.0000 181.0000,118.0000 164.0000,113.0000 C 160.0000,112.0000 155.0000,112.0000 151.0000,112.0000 C 149.0000,112.0000 148.0000,113.0000 147.0000,115.0000 C 144.0000,117.0000 145.0000,119.0000 148.0000,121.0000 C 158.0000,125.0000 168.0000,129.0000 178.0000,133.0000 C 203.0000,142.0000 221.0000,159.0000 233.0000,182.0000 C 238.0000,191.0000 240.0000,201.0000 240.0000,211.0000 C 241.0000,229.0000 242.0000,247.0000 242.0000,264.0000 C 242.0000,272.0000 240.0000,279.0000 239.0000,287.0000 C 237.0000,294.0000 233.0000,300.0000 228.0000,304.0000 C 223.0000,308.0000 218.0000,312.0000 214.0000,316.0000 C 206.0000,325.0000 202.0000,335.0000 205.0000,346.0000 C 206.0000,351.0000 210.0000,356.0000 214.0000,359.0000 C 216.0000,361.0000 218.0000,360.0000 218.0000,357.0000 C 219.0000,354.0000 219.0000,350.0000 219.0000,346.0000 C 220.0000,337.0000 226.0000,332.0000 233.0000,327.0000 C 235.0000,325.0000 236.0000,327.0000 237.0000,329.0000 C 240.0000,338.0000 241.0000,347.0000 238.0000,355.0000 C 237.0000,356.0000 237.0000,357.0000 237.0000,358.0000 C 234.0000,365.0000 235.0000,368.0000 242.0000,371.0000 C 245.0000,372.0000 246.0000,373.0000 245.0000,376.0000 C 242.0000,391.0000 233.0000,398.0000 218.0000,396.0000 C 189.0000,391.0000 164.0000,378.0000 145.0000,354.0000 C 142.0000,350.0000 140.0000,344.0000 138.0000,338.0000 C 137.0000,337.0000 137.0000,336.0000 137.0000,335.0000 C 156.0000,334.0000 174.0000,335.0000 191.0000,326.0000 C 191.0000,326.0000 191.0000,325.0000 191.0000,325.0000 C 188.0000,325.0000 186.0000,325.0000 183.0000,326.0000 C 168.0000,328.0000 154.0000,329.0000 139.0000,327.0000 C 130.0000,326.0000 121.0000,324.0000 113.0000,321.0000 C 105.0000,319.0000 100.0000,314.0000 95.0000,307.0000 C 84.0000,293.0000 76.0000,276.0000 69.0000,259.0000 C 67.0000,254.0000 67.0000,248.0000 67.0000,242.0000 C 67.0000,220.0000 66.0000,198.0000 67.0000,176.0000 C 67.0000,162.0000 67.0000,147.0000 68.0000,134.0000 C 71.0000,100.0000 74.0000,67.0000 85.0000,35.0000 C 87.0000,30.0000 89.0000,24.0000 92.0000,19.0000 C 99.0000,5.0000 112.0000,-3.0000 127.0000,-8.0000 C 146.0000,-14.0000 165.0000,-18.0000 185.0000,-21.0000 C 203.0000,-23.0000 221.0000,-25.0000 239.0000,-26.0000 C 271.0000,-29.0000 303.0000,-30.0000 335.0000,-28.0000 C 359.0000,-27.0000 382.0000,-24.0000 404.0000,-19.0000 C 420.0000,-15.0000 434.0000,-9.0000 448.0000,-1.0000 C 470.0000,12.0000 484.0000,32.0000 492.0000,56.0000 C 498.0000,72.0000 501.0000,89.0000 502.0000,107.0000 C 506.0000,149.0000 505.0000,191.0000 504.0000,233.0000 C 504.0000,253.0000 500.0000,273.0000 496.0000,294.0000 C 496.0000,294.0000 495.0000,296.0000 495.0000,296.0000 C 484.0000,309.0000 472.0000,320.0000 456.0000,327.0000 C 443.0000,332.0000 429.0000,334.0000 415.0000,334.0000 C 406.0000,334.0000 398.0000,333.0000 390.0000,333.0000 C 387.0000,333.0000 385.0000,333.0000 382.0000,333.0000 C 382.0000,333.0000 382.0000,333.0000 382.0000,334.0000 Z M 87.0000,239.0000 C 91.0000,237.0000 95.0000,235.0000 99.0000,234.0000 C 107.0000,231.0000 114.0000,229.0000 122.0000,231.0000 C 125.0000,232.0000 128.0000,232.0000 131.0000,233.0000 C 154.0000,234.0000 177.0000,233.0000 199.0000,230.0000 C 208.0000,228.0000 218.0000,227.0000 226.0000,222.0000 C 235.0000,217.0000 236.0000,208.0000 229.0000,201.0000 C 226.0000,198.0000 221.0000,195.0000 217.0000,193.0000 C 198.0000,186.0000 178.0000,184.0000 159.0000,183.0000 C 138.0000,182.0000 122.0000,193.0000 109.0000,209.0000 C 107.0000,211.0000 104.0000,213.0000 101.0000,213.0000 C 99.0000,213.0000 96.0000,213.0000 93.0000,213.0000 C 92.0000,213.0000 90.0000,214.0000 89.0000,214.0000 C 91.0000,218.0000 95.0000,222.0000 95.0000,227.0000 C 96.0000,232.0000 90.0000,235.0000 87.0000,239.0000 Z M 501.0000,223.0000 C 501.0000,223.0000 501.0000,223.0000 501.0000,223.0000 C 494.0000,220.0000 488.0000,218.0000 482.0000,216.0000 C 472.0000,213.0000 462.0000,208.0000 455.0000,199.0000 C 454.0000,197.0000 453.0000,196.0000 451.0000,195.0000 C 439.0000,184.0000 424.0000,180.0000 408.0000,182.0000 C 393.0000,184.0000 379.0000,188.0000 365.0000,195.0000 C 357.0000,199.0000 350.0000,203.0000 343.0000,208.0000 C 340.0000,210.0000 339.0000,213.0000 340.0000,217.0000 C 341.0000,221.0000 343.0000,222.0000 346.0000,223.0000 C 350.0000,224.0000 354.0000,224.0000 358.0000,224.0000 C 383.0000,225.0000 409.0000,225.0000 434.0000,224.0000 C 442.0000,224.0000 451.0000,224.0000 459.0000,223.0000 C 468.0000,221.0000 478.0000,221.0000 487.0000,222.0000 C 491.0000,222.0000 496.0000,223.0000 501.0000,223.0000 Z M 484.0000,135.0000 C 483.0000,133.0000 482.0000,131.0000 481.0000,129.0000 C 472.0000,116.0000 460.0000,106.0000 446.0000,99.0000 C 431.0000,92.0000 415.0000,91.0000 399.0000,91.0000 C 386.0000,91.0000 375.0000,93.0000 363.0000,98.0000 C 345.0000,105.0000 332.0000,118.0000 320.0000,133.0000 C 319.0000,135.0000 319.0000,136.0000 318.0000,138.0000 C 316.0000,143.0000 318.0000,148.0000 324.0000,148.0000 C 326.0000,148.0000 328.0000,147.0000 330.0000,146.0000 C 334.0000,144.0000 337.0000,142.0000 340.0000,140.0000 C 349.0000,133.0000 358.0000,126.0000 367.0000,120.0000 C 379.0000,111.0000 393.0000,106.0000 408.0000,106.0000 C 423.0000,107.0000 437.0000,110.0000 450.0000,117.0000 C 462.0000,122.0000 472.0000,129.0000 484.0000,135.0000 Z M 94.0000,134.0000 C 95.0000,133.0000 97.0000,132.0000 98.0000,131.0000 C 110.0000,123.0000 123.0000,116.0000 137.0000,111.0000 C 151.0000,106.0000 166.0000,103.0000 181.0000,106.0000 C 195.0000,109.0000 207.0000,115.0000 218.0000,123.0000 C 225.0000,129.0000 232.0000,135.0000 240.0000,140.0000 C 243.0000,143.0000 247.0000,145.0000 251.0000,146.0000 C 253.0000,146.0000 257.0000,145.0000 259.0000,143.0000 C 260.0000,142.0000 260.0000,139.0000 259.0000,137.0000 C 259.0000,135.0000 258.0000,132.0000 256.0000,131.0000 C 248.0000,123.0000 240.0000,114.0000 232.0000,107.0000 C 224.0000,100.0000 213.0000,95.0000 203.0000,92.0000 C 191.0000,89.0000 179.0000,89.0000 167.0000,89.0000 C 147.0000,90.0000 129.0000,96.0000 113.0000,109.0000 C 105.0000,116.0000 98.0000,124.0000 94.0000,134.0000 Z M 320.0000,191.0000 C 320.0000,191.0000 320.0000,191.0000 321.0000,192.0000 C 325.0000,188.0000 329.0000,184.0000 333.0000,180.0000 C 349.0000,164.0000 366.0000,148.0000 386.0000,137.0000 C 399.0000,131.0000 411.0000,126.0000 424.0000,120.0000 C 426.0000,119.0000 427.0000,118.0000 429.0000,117.0000 C 428.0000,117.0000 428.0000,117.0000 428.0000,116.0000 C 427.0000,116.0000 426.0000,115.0000 424.0000,115.0000 C 407.0000,114.0000 391.0000,117.0000 376.0000,125.0000 C 360.0000,134.0000 347.0000,147.0000 336.0000,161.0000 C 330.0000,168.0000 324.0000,176.0000 321.0000,185.0000 C 320.0000,187.0000 320.0000,189.0000 320.0000,191.0000 Z M 353.0000,349.0000 C 353.0000,349.0000 354.0000,349.0000 354.0000,349.0000 C 354.0000,344.0000 354.0000,339.0000 352.0000,334.0000 C 349.0000,327.0000 344.0000,320.0000 337.0000,316.0000 C 335.0000,315.0000 331.0000,315.0000 329.0000,318.0000 C 328.0000,321.0000 329.0000,323.0000 332.0000,323.0000 C 339.0000,326.0000 343.0000,331.0000 346.0000,337.0000 C 349.0000,341.0000 351.0000,345.0000 353.0000,349.0000 Z "  fill="#00B38A" stroke="none" />
<path d="M 402.0000,429.0000 C 408.0000,426.0000 413.0000,423.0000 419.0000,421.0000 C 404.0000,448.0000 389.0000,474.0000 374.0000,501.0000 C 374.0000,501.0000 374.0000,501.0000 375.0000,502.0000 C 377.0000,498.0000 379.0000,495.0000 382.0000,492.0000 C 409.0000,453.0000 436.0000,414.0000 460.0000,373.0000 C 469.0000,358.0000 478.0000,343.0000 484.0000,327.0000 C 485.0000,323.0000 486.0000,319.0000 488.0000,314.0000 C 488.0000,317.0000 489.0000,321.0000 488.0000,323.0000 C 477.0000,365.0000 461.0000,404.0000 441.0000,442.0000 C 424.0000,476.0000 403.0000,508.0000 379.0000,537.0000 C 364.0000,556.0000 347.0000,574.0000 327.0000,588.0000 C 319.0000,592.0000 311.0000,596.0000 304.0000,600.0000 C 303.0000,601.0000 301.0000,601.0000 299.0000,602.0000 C 300.0000,594.0000 300.0000,587.0000 301.0000,580.0000 C 303.0000,568.0000 305.0000,557.0000 310.0000,547.0000 C 313.0000,540.0000 312.0000,533.0000 309.0000,526.0000 C 307.0000,523.0000 306.0000,520.0000 305.0000,517.0000 C 296.0000,502.0000 306.0000,483.0000 316.0000,477.0000 C 316.0000,476.0000 317.0000,475.0000 318.0000,474.0000 C 315.0000,473.0000 313.0000,472.0000 310.0000,472.0000 C 294.0000,471.0000 278.0000,470.0000 262.0000,470.0000 C 253.0000,470.0000 244.0000,469.0000 236.0000,466.0000 C 173.0000,443.0000 131.0000,400.0000 111.0000,336.0000 C 111.0000,335.0000 110.0000,334.0000 110.0000,333.0000 C 116.0000,342.0000 121.0000,351.0000 126.0000,359.0000 C 137.0000,376.0000 149.0000,392.0000 166.0000,404.0000 C 188.0000,422.0000 214.0000,432.0000 242.0000,433.0000 C 248.0000,434.0000 253.0000,432.0000 257.0000,427.0000 C 262.0000,419.0000 269.0000,412.0000 275.0000,405.0000 C 280.0000,400.0000 281.0000,400.0000 286.0000,405.0000 C 295.0000,414.0000 303.0000,424.0000 312.0000,433.0000 C 312.0000,433.0000 312.0000,434.0000 312.0000,434.0000 C 310.0000,434.0000 309.0000,434.0000 308.0000,434.0000 C 294.0000,434.0000 279.0000,433.0000 265.0000,433.0000 C 263.0000,433.0000 260.0000,433.0000 258.0000,433.0000 C 257.0000,433.0000 255.0000,433.0000 255.0000,435.0000 C 255.0000,437.0000 256.0000,437.0000 258.0000,437.0000 C 260.0000,438.0000 263.0000,438.0000 265.0000,438.0000 C 284.0000,438.0000 304.0000,439.0000 323.0000,438.0000 C 375.0000,435.0000 414.0000,411.0000 438.0000,365.0000 C 443.0000,357.0000 446.0000,348.0000 449.0000,339.0000 C 451.0000,336.0000 453.0000,334.0000 456.0000,335.0000 C 459.0000,335.0000 460.0000,338.0000 460.0000,341.0000 C 459.0000,352.0000 455.0000,362.0000 450.0000,372.0000 C 438.0000,393.0000 422.0000,411.0000 403.0000,427.0000 C 403.0000,427.0000 402.0000,428.0000 402.0000,428.0000 C 402.0000,428.0000 402.0000,428.0000 402.0000,429.0000 Z "  fill="#00B38A" stroke="none" />
<path d="M 201.0000,516.0000 C 200.0000,511.0000 199.0000,506.0000 197.0000,501.0000 C 196.0000,497.0000 195.0000,493.0000 194.0000,489.0000 C 193.0000,485.0000 193.0000,481.0000 195.0000,477.0000 C 196.0000,474.0000 196.0000,472.0000 194.0000,470.0000 C 192.0000,467.0000 191.0000,464.0000 192.0000,460.0000 C 193.0000,457.0000 195.0000,456.0000 198.0000,457.0000 C 203.0000,458.0000 207.0000,460.0000 211.0000,461.0000 C 224.0000,465.0000 236.0000,469.0000 248.0000,473.0000 C 253.0000,474.0000 256.0000,477.0000 259.0000,481.0000 C 266.0000,492.0000 266.0000,504.0000 260.0000,515.0000 C 260.0000,516.0000 259.0000,517.0000 259.0000,518.0000 C 252.0000,525.0000 253.0000,534.0000 255.0000,542.0000 C 258.0000,558.0000 262.0000,573.0000 265.0000,588.0000 C 266.0000,593.0000 266.0000,597.0000 267.0000,602.0000 C 267.0000,602.0000 267.0000,602.0000 266.0000,603.0000 C 260.0000,600.0000 254.0000,598.0000 249.0000,594.0000 C 232.0000,585.0000 218.0000,572.0000 205.0000,558.0000 C 178.0000,530.0000 157.0000,497.0000 138.0000,463.0000 C 114.0000,420.0000 95.0000,375.0000 82.0000,327.0000 C 80.0000,319.0000 78.0000,310.0000 76.0000,301.0000 C 77.0000,302.0000 77.0000,302.0000 78.0000,303.0000 C 88.0000,321.0000 98.0000,340.0000 109.0000,358.0000 C 119.0000,375.0000 130.0000,392.0000 141.0000,409.0000 C 147.0000,419.0000 153.0000,430.0000 159.0000,441.0000 C 171.0000,465.0000 184.0000,488.0000 197.0000,511.0000 C 198.0000,513.0000 199.0000,515.0000 200.0000,516.0000 C 200.0000,516.0000 200.0000,516.0000 201.0000,516.0000 Z "  fill="#00B38A" stroke="none" />
</g>
</svg>
