<?xml version="1.0"  encoding="UTF-8" standalone="no"?>
<svg version="1.1" xmlns="http://www.w3.org/2000/svg" xmlns:xlink="http://www.w3.org/1999/xlink" width="385.0000" height="367.0000">
<g transform="translate(-94.0000, -104.0000)">
<path d="M 401.0000,327.0000 C 398.0000,331.0000 396.0000,335.0000 393.0000,339.0000 C 395.0000,338.0000 400.0000,337.0000 400.0000,335.0000 C 400.0000,365.0000 400.0000,365.0000 400.0000,365.0000 C 400.0000,373.0000 385.0000,384.0000 357.0000,392.0000 C 348.0000,406.0000 338.0000,420.0000 330.0000,434.0000 C 388.0000,424.0000 432.0000,401.0000 432.0000,365.0000 C 432.0000,284.0000 432.0000,284.0000 432.0000,284.0000 C 424.0000,298.0000 411.0000,312.0000 401.0000,327.0000 Z "  fill="#00B38A" stroke="none" />
<path d="M 230.0000,423.0000 C 230.0000,422.0000 230.0000,421.0000 229.0000,420.0000 C 227.0000,412.0000 225.0000,407.0000 224.0000,403.0000 C 164.0000,396.0000 128.0000,377.0000 128.0000,365.0000 C 128.0000,335.0000 128.0000,335.0000 128.0000,335.0000 C 160.0000,352.0000 200.0000,362.0000 246.0000,364.0000 C 252.0000,361.0000 259.0000,359.0000 266.0000,359.0000 C 270.0000,359.0000 274.0000,360.0000 276.0000,363.0000 C 277.0000,363.0000 277.0000,364.0000 277.0000,364.0000 C 292.0000,364.0000 306.0000,362.0000 319.0000,360.0000 C 324.0000,354.0000 328.0000,347.0000 332.0000,341.0000 C 312.0000,345.0000 289.0000,347.0000 264.0000,347.0000 C 198.0000,347.0000 152.0000,332.0000 128.0000,314.0000 C 128.0000,278.0000 128.0000,278.0000 128.0000,278.0000 C 160.0000,297.0000 213.0000,307.0000 264.0000,307.0000 C 298.0000,307.0000 333.0000,303.0000 362.0000,294.0000 C 368.0000,285.0000 374.0000,277.0000 379.0000,270.0000 C 354.0000,281.0000 313.0000,290.0000 264.0000,290.0000 C 198.0000,290.0000 152.0000,274.0000 128.0000,257.0000 C 128.0000,226.0000 128.0000,226.0000 128.0000,226.0000 C 160.0000,244.0000 213.0000,254.0000 264.0000,254.0000 C 315.0000,254.0000 368.0000,244.0000 400.0000,226.0000 C 400.0000,242.0000 400.0000,242.0000 400.0000,242.0000 C 408.0000,232.0000 414.0000,224.0000 421.0000,219.0000 C 424.0000,216.0000 432.0000,213.0000 432.0000,211.0000 C 432.0000,179.0000 432.0000,179.0000 432.0000,179.0000 C 432.0000,130.0000 348.0000,104.0000 264.0000,104.0000 C 179.0000,104.0000 94.0000,132.0000 94.0000,181.0000 C 94.0000,184.0000 95.0000,184.0000 96.0000,192.0000 C 96.0000,192.0000 96.0000,192.0000 96.0000,192.0000 C 96.0000,376.0000 96.0000,376.0000 96.0000,376.0000 C 96.0000,376.0000 96.0000,376.0000 96.0000,376.0000 C 105.0000,408.0000 167.0000,435.0000 235.0000,439.0000 C 233.0000,435.0000 232.0000,429.0000 230.0000,423.0000 Z M 265.0000,139.0000 C 348.0000,139.0000 400.0000,165.0000 400.0000,179.0000 C 400.0000,193.0000 348.0000,219.0000 265.0000,219.0000 C 181.0000,219.0000 130.0000,193.0000 130.0000,179.0000 C 130.0000,165.0000 181.0000,139.0000 265.0000,139.0000 Z "  fill="#00B38A" stroke="none" />
<path d="M 406.0000,252.0000 C 398.0000,263.0000 385.0000,281.0000 369.0000,305.0000 C 358.0000,322.0000 344.0000,344.0000 327.0000,370.0000 C 300.0000,413.0000 297.0000,413.0000 293.0000,413.0000 C 287.0000,413.0000 283.0000,407.0000 277.0000,391.0000 C 275.0000,386.0000 274.0000,382.0000 272.0000,379.0000 C 270.0000,373.0000 269.0000,371.0000 268.0000,371.0000 C 268.0000,371.0000 268.0000,370.0000 266.0000,370.0000 C 259.0000,370.0000 252.0000,373.0000 245.0000,378.0000 C 238.0000,383.0000 235.0000,388.0000 235.0000,393.0000 C 235.0000,394.0000 236.0000,399.0000 241.0000,417.0000 C 241.0000,418.0000 241.0000,419.0000 241.0000,419.0000 C 245.0000,432.0000 248.0000,441.0000 250.0000,447.0000 C 252.0000,453.0000 255.0000,458.0000 257.0000,461.0000 C 260.0000,465.0000 263.0000,468.0000 266.0000,469.0000 C 270.0000,471.0000 274.0000,471.0000 279.0000,471.0000 C 292.0000,471.0000 301.0000,464.0000 308.0000,450.0000 C 311.0000,445.0000 313.0000,441.0000 315.0000,438.0000 C 338.0000,398.0000 364.0000,358.0000 392.0000,320.0000 C 419.0000,283.0000 449.0000,247.0000 479.0000,212.0000 C 468.0000,213.0000 458.0000,215.0000 450.0000,217.0000 C 441.0000,220.0000 434.0000,224.0000 429.0000,228.0000 C 422.0000,233.0000 415.0000,242.0000 406.0000,252.0000 Z "  fill="#00B38A" stroke="none" />
</g>
</svg>
