<?xml version="1.0"  encoding="UTF-8" standalone="no"?>
<svg version="1.1" xmlns="http://www.w3.org/2000/svg" xmlns:xlink="http://www.w3.org/1999/xlink" width="555.0000" height="456.0000">
<g transform="translate(-14.0000, 521.0000)">
<path d="M 14.0000,-386.0000 L 257.0000,-386.0000 L 257.0000,-521.0000 L 14.0000,-521.0000 L 14.0000,-386.0000 Z "  fill="#00B38A" stroke-width="1px" stroke="#FCFCFC" />
<path d="M 14.0000,-226.0000 L 106.0000,-226.0000 L 106.0000,-360.0000 L 14.0000,-360.0000 L 14.0000,-226.0000 Z "  fill="#00B38A" stroke-width="1px" stroke="#FCFCFC" />
<path d="M 233.0000,-200.0000 L 14.0000,-200.0000 L 14.0000,-65.0000 L 259.0000,-65.0000 L 259.0000,-108.0000 L 220.0000,-177.0000 L 233.0000,-200.0000 Z "  fill="#00B38A" stroke-width="1px" stroke="#FCFCFC" />
<path d="M 459.0000,-65.0000 L 537.0000,-65.0000 L 537.0000,-105.0000 L 483.0000,-105.0000 L 459.0000,-65.0000 Z "  fill="#00B38A" stroke-width="1px" stroke="#FCFCFC" />
<path d="M 292.0000,-105.0000 L 292.0000,-65.0000 L 354.0000,-65.0000 L 331.0000,-105.0000 L 292.0000,-105.0000 Z "  fill="#00B38A" stroke-width="1px" stroke="#FCFCFC" />
<path d="M 254.0000,-237.0000 L 255.0000,-237.0000 L 220.0000,-297.0000 L 221.0000,-299.0000 L 221.0000,-299.0000 L 224.0000,-305.0000 L 256.0000,-360.0000 L 136.0000,-360.0000 L 136.0000,-226.0000 L 248.0000,-226.0000 L 254.0000,-237.0000 Z "  fill="#00B38A" stroke-width="1px" stroke="#FCFCFC" />
<path d="M 365.0000,-430.0000 L 446.0000,-430.0000 L 449.0000,-425.0000 L 472.0000,-386.0000 L 536.0000,-386.0000 L 536.0000,-521.0000 L 290.0000,-521.0000 L 290.0000,-386.0000 L 340.0000,-386.0000 L 365.0000,-430.0000 Z "  fill="#00B38A" stroke-width="1px" stroke="#FCFCFC" />
<path d="M 481.0000,-229.0000 L 466.0000,-203.0000 L 452.0000,-177.0000 L 481.0000,-126.0000 L 540.0000,-126.0000 L 569.0000,-177.0000 L 540.0000,-229.0000 L 481.0000,-229.0000 Z "  fill="#00B38A" stroke-width="1px" stroke="#FCFCFC" />
<path d="M 481.0000,-248.0000 L 540.0000,-248.0000 L 569.0000,-299.0000 L 540.0000,-350.0000 L 481.0000,-350.0000 L 452.0000,-299.0000 L 481.0000,-248.0000 Z "  fill="#00B38A" stroke-width="1px" stroke="#FCFCFC" />
<path d="M 360.0000,-177.0000 L 330.0000,-229.0000 L 272.0000,-229.0000 L 242.0000,-177.0000 L 271.0000,-126.0000 L 330.0000,-126.0000 L 360.0000,-177.0000 Z "  fill="#00B38A" stroke-width="1px" stroke="#FCFCFC" />
<path d="M 271.0000,-248.0000 L 330.0000,-248.0000 L 360.0000,-299.0000 L 330.0000,-350.0000 L 271.0000,-350.0000 L 242.0000,-299.0000 L 271.0000,-248.0000 Z "  fill="#00B38A" stroke-width="1px" stroke="#FCFCFC" />
<path d="M 436.0000,-168.0000 L 376.0000,-168.0000 L 346.0000,-117.0000 L 376.0000,-66.0000 L 436.0000,-66.0000 L 465.0000,-117.0000 L 436.0000,-168.0000 Z "  fill="#00B38A" stroke-width="1px" stroke="#FCFCFC" />
<path d="M 376.0000,-186.0000 L 435.0000,-186.0000 L 465.0000,-238.0000 L 436.0000,-289.0000 L 376.0000,-289.0000 L 346.0000,-238.0000 L 376.0000,-186.0000 Z "  fill="#00B38A" stroke-width="1px" stroke="#FCFCFC" />
<path d="M 465.0000,-359.0000 L 435.0000,-411.0000 L 376.0000,-411.0000 L 346.0000,-359.0000 L 376.0000,-308.0000 L 436.0000,-308.0000 L 465.0000,-359.0000 Z "  fill="#00B38A" stroke-width="1px" stroke="#FCFCFC" />
</g>
</svg>
