<?xml version="1.0" encoding="UTF-8" standalone="no"?>
<svg
   xmlns:dc="http://purl.org/dc/elements/1.1/"
   xmlns:cc="http://creativecommons.org/ns#"
   xmlns:rdf="http://www.w3.org/1999/02/22-rdf-syntax-ns#"
   xmlns:svg="http://www.w3.org/2000/svg"
   xmlns="http://www.w3.org/2000/svg"
   xmlns:sodipodi="http://sodipodi.sourceforge.net/DTD/sodipodi-0.dtd"
   xmlns:inkscape="http://www.inkscape.org/namespaces/inkscape"
   viewBox="0 0 14.613333 39.84"
   height="39.84"
   width="14.613333"
   xml:space="preserve"
   id="svg2"
   version="1.1"
   sodipodi:docname="standing_woman.svg"
   inkscape:version="0.92.3 (2405546, 2018-03-11)"><sodipodi:namedview
     pagecolor="#ffffff"
     bordercolor="#666666"
     borderopacity="1"
     objecttolerance="10"
     gridtolerance="10"
     guidetolerance="10"
     inkscape:pageopacity="0"
     inkscape:pageshadow="2"
     inkscape:window-width="1551"
     inkscape:window-height="836"
     id="namedview19"
     showgrid="false"
     inkscape:pagecheckerboard="true"
     inkscape:zoom="67.018956"
     inkscape:cx="7.6442935"
     inkscape:cy="35.812469"
     inkscape:window-x="49"
     inkscape:window-y="27"
     inkscape:window-maximized="1"
     inkscape:current-layer="svg2"><inkscape:grid
       type="xygrid"
       id="grid851" /></sodipodi:namedview><metadata
     id="metadata8"><rdf:RDF><cc:Work
         rdf:about=""><dc:format>image/svg+xml</dc:format><dc:type
           rdf:resource="http://purl.org/dc/dcmitype/StillImage" /><dc:title></dc:title></cc:Work></rdf:RDF></metadata><defs
     id="defs6" /><g
     id="g4568"><path
       inkscape:connector-curvature="0"
       d="M 0,21.5796 H 3.2223999 L 0.77083331,30.657707 H 3.4088532 L 3.1692666,39.84 h 1.3552133 l 2.1046933,-9.195306 h 1.1999999 l 2.4192669,9.145827 1.1724,-0.01563 -0.2448,-9.157816 2.422893,0.0016 -2.227573,-9.13384 c 0.3802,0 2.579173,0.07653 3.24224,-0.01987 l -0.567734,-4.5776 c 0,-0.947867 -0.967746,-5.097867 -1.25264,-6.045733 C 12.54688,10.019734 10.89844,8.7566674 10.04584,8.4728008 9.1911464,8.1878675 7.4859331,8.2826675 6.5390665,8.2826675 c -0.94792,0 -1.9999999,0.2395999 -2.9385466,0.4739999 -0.7578133,0.1901334 -1.6109333,1.4207996 -1.8947866,2.1797336 -0.2848933,0.757733 -0.662504,3.1276 -0.94635865,4.264 L 0,21.5796"
       style="fill:#7B2927;fill-opacity:1;fill-rule:nonzero;stroke:none;stroke-width:0.13333333"
       id="path14" /><path
       inkscape:connector-curvature="0"
       d="m 9.0661464,8.3140008 c -0.34844,-0.031333 -0.9166666,0 -1.4531199,-0.031333 -0.5359467,-0.0312 -1.3276133,0 -1.7057333,0.031333 -0.3796933,0.0312 -1.29532,0.2525333 -1.3901066,0.2525333 -0.094267,0 -0.1578134,-0.062533 -0.1578134,-0.062533 l 2.72136,4.8823999 2.8374932,-4.8823999 c -0.018747,-0.2317333 -0.2713466,-0.085867 -0.42604,-0.1728"
       style="fill:#ffffff;fill-opacity:1;fill-rule:nonzero;stroke:none;stroke-width:0.13333333"
       id="path16" /><path
       inkscape:connector-curvature="0"
       d="m 9.0661464,8.3140008 c -0.34844,-0.031333 -0.9166666,0 -1.4531199,-0.031333 -0.5359467,-0.0312 -1.3276133,0 -1.7057333,0.031333 -0.3796933,0.0312 -1.29532,0.2525333 -1.3901066,0.2525333 -0.094267,0 -0.1578134,-0.062533 -0.1578134,-0.062533 l 2.72136,4.8823999 2.8374932,-4.8823999 c -0.018747,-0.2317333 -0.2713466,-0.085867 -0.42604,-0.1728"
       style="fill:none;stroke:#ffffff;stroke-width:0.13333333;stroke-linecap:butt;stroke-linejoin:miter;stroke-miterlimit:4;stroke-dasharray:none;stroke-opacity:1"
       id="path18" /><path
       inkscape:connector-curvature="0"
       d="m 7.1234398,8.0889341 c 2.1640666,0 3.9197862,-1.7551999 3.9197862,-3.9207999 0,-2.1650666 -1.7557196,-3.92026654 -3.9197862,-3.92026654 -2.1651066,0 -3.9203199,1.75519994 -3.9203199,3.92026654 0,2.1656 1.7552133,3.9207999 3.9203199,3.9207999 z"
       style="fill:#ffffff;stroke:#7B2927;stroke-width:0.5333333;stroke-linecap:butt;stroke-linejoin:miter;stroke-miterlimit:4;stroke-dasharray:none;stroke-opacity:1"
       id="path20" /><path
       inkscape:connector-curvature="0"
       d="m 3.1031199,3.6306676 c 0,0 -0.8109333,2.7942666 -2.34374525,2.7041332 0,0 1.86146525,1.2749333 3.42447855,0.4625334"
       style="fill:#7B2927;fill-opacity:1;fill-rule:nonzero;stroke:none;stroke-width:0.13333333"
       id="path22" /><path
       inkscape:connector-curvature="0"
       d="m 3.1031199,3.6306676 c 0,0 -0.8109333,2.7942666 -2.34374525,2.7041332 0,0 1.86146525,1.2749333 3.42447855,0.4625334"
       style="fill:none;stroke:#7B2927;stroke-width:0.5333333;stroke-linecap:round;stroke-linejoin:round;stroke-miterlimit:4;stroke-dasharray:none;stroke-opacity:1"
       id="path24" /><path
       inkscape:connector-curvature="0"
       d="m 11.131253,3.6306676 c 0,0 0.809893,2.7942666 2.343813,2.7041332 0,0 -1.86204,1.2749333 -3.424026,0.4625334"
       style="fill:#7B2927;fill-opacity:1;fill-rule:nonzero;stroke:none;stroke-width:0.13333333"
       id="path26" /><path
       inkscape:connector-curvature="0"
       d="m 11.131253,3.6306676 c 0,0 0.809893,2.7942666 2.343813,2.7041332 0,0 -1.86204,1.2749333 -3.424026,0.4625334"
       style="fill:none;stroke:#7B2927;stroke-width:0.5333333;stroke-linecap:round;stroke-linejoin:round;stroke-miterlimit:4;stroke-dasharray:none;stroke-opacity:1"
       id="path28" /><path
       inkscape:connector-curvature="0"
       d="m 9.9229198,1.4645343 c -0.625,0.6666666 -1.7026133,1.1093333 -2.9333333,1.1093333 -1.14532,0 -2.15208,-0.3869333 -2.7916666,-0.9770666"
       style="fill:#7B2927;fill-opacity:1;fill-rule:nonzero;stroke:none;stroke-width:0.13333333"
       id="path30" /><path
       inkscape:connector-curvature="0"
       d="m 9.9229198,1.4645343 c -0.625,0.6666666 -1.7026133,1.1093333 -2.9333333,1.1093333 -1.14532,0 -2.15208,-0.3869333 -2.7916666,-0.9770666"
       style="fill:none;stroke:#7B2927;stroke-width:0.5333333;stroke-linecap:round;stroke-linejoin:round;stroke-miterlimit:4;stroke-dasharray:none;stroke-opacity:1"
       id="path32" /><path
       inkscape:connector-curvature="0"
       d="M 9.9229198,1.4645343 C 9.2109331,0.73066764 8.2187465,0.27173432 7.1156265,0.27173432 c -1.1651066,0 -2.19948,0.51826666 -2.9177066,1.32506668 0.6395866,0.5901333 1.6463466,0.9770666 2.7916666,0.9770666 1.23072,0 2.3083333,-0.4426667 2.9333333,-1.1093333"
       style="fill:#7B2927;fill-opacity:1;fill-rule:nonzero;stroke:none;stroke-width:0.13333333"
       id="path34" /><path
       inkscape:connector-curvature="0"
       d="M 9.9229198,1.4645343 C 9.2109331,0.73066764 8.2187465,0.27173432 7.1156265,0.27173432 c -1.1651066,0 -2.19948,0.51826666 -2.9177066,1.32506668 0.6395866,0.5901333 1.6463466,0.9770666 2.7916666,0.9770666 1.23072,0 2.3083333,-0.4426667 2.9333333,-1.1093333 z"
       style="fill:none;stroke:#7B2927;stroke-width:0.5333333;stroke-linecap:round;stroke-linejoin:round;stroke-miterlimit:4;stroke-dasharray:none;stroke-opacity:1"
       id="path36" /></g></svg>