<?xml version="1.0" encoding="UTF-8" standalone="no"?>
<svg
   xmlns:dc="http://purl.org/dc/elements/1.1/"
   xmlns:cc="http://creativecommons.org/ns#"
   xmlns:rdf="http://www.w3.org/1999/02/22-rdf-syntax-ns#"
   xmlns:svg="http://www.w3.org/2000/svg"
   xmlns="http://www.w3.org/2000/svg"
   viewBox="0 0 45.639999 48.973331"
   height="48.973331"
   width="45.639999"
   xml:space="preserve"
   id="svg2"
   version="1.1"><metadata
     id="metadata8"><rdf:RDF><cc:Work
         rdf:about=""><dc:format>image/svg+xml</dc:format><dc:type
           rdf:resource="http://purl.org/dc/dcmitype/StillImage" /></cc:Work></rdf:RDF></metadata><defs
     id="defs6"><clipPath
       id="clipPath20"
       clipPathUnits="userSpaceOnUse"><path
         id="path18"
         d="M 0,367 H 340 V 0 H 0 Z" /></clipPath></defs><g
     transform="matrix(1.3333333,0,0,-1.3333333,0,48.973333)"
     id="g10"><g
       transform="scale(0.1)"
       id="g12"><g
         id="g14"><g
           clip-path="url(#clipPath20)"
           id="g16"><path
             id="path22"
             style="fill:#7B2927;fill-opacity:1;fill-rule:nonzero;stroke:none"
             d="M 171.156,3.32031 4.30078,90.9063 V 277.422 L 171.156,189.844 V 3.32031" /><path
             id="path24"
             style="fill:none;stroke:#ffffff;stroke-width:4;stroke-linecap:butt;stroke-linejoin:miter;stroke-miterlimit:4;stroke-dasharray:none;stroke-opacity:1"
             d="M 171.156,3.32031 4.30078,90.9063 V 277.422 L 171.156,189.844 Z" /><path
             id="path26"
             style="fill:#7B2927;fill-opacity:1;fill-rule:nonzero;stroke:none"
             d="M 171.156,3.32031 338.031,90.9063 V 277.422 L 171.156,189.844 V 3.32031" /><path
             id="path28"
             style="fill:none;stroke:#ffffff;stroke-width:4;stroke-linecap:butt;stroke-linejoin:miter;stroke-miterlimit:4;stroke-dasharray:none;stroke-opacity:1"
             d="M 171.156,3.32031 338.031,90.9063 V 277.422 L 171.156,189.844 Z" /><path
             id="path30"
             style="fill:#7B2927;fill-opacity:1;fill-rule:nonzero;stroke:none"
             d="M 171.156,189.844 338.031,277.422 171.156,365 4.30078,277.422 171.156,189.844" /><path
             id="path32"
             style="fill:none;stroke:#ffffff;stroke-width:4;stroke-linecap:butt;stroke-linejoin:miter;stroke-miterlimit:4;stroke-dasharray:none;stroke-opacity:1"
             d="M 171.156,189.844 338.031,277.422 171.156,365 4.30078,277.422 Z" /><path
             id="path34"
             style="fill:#7B2927;fill-opacity:1;fill-rule:nonzero;stroke:none"
             d="M 338.031,91.5938 171.156,3.32031 V 189.152 l 166.875,88.27 V 91.5938" /><path
             id="path36"
             style="fill:none;stroke:#ffffff;stroke-width:4;stroke-linecap:butt;stroke-linejoin:miter;stroke-miterlimit:4;stroke-dasharray:none;stroke-opacity:1"
             d="M 338.031,91.5938 171.156,3.32031 V 189.152 l 166.875,88.27 z" /><path
             id="path38"
             style="fill:#ffffff;fill-opacity:1;fill-rule:nonzero;stroke:none"
             d="m 171.156,267.199 35.078,-18.793 H 185.18 v -35.054 h -28.047 v 35.054 h -21.035 l 35.058,18.793" /><path
             id="path40"
             style="fill:#ffffff;fill-opacity:1;fill-rule:nonzero;stroke:none"
             d="M 298.559,277.375 263.5,258.586 v 11.277 h -65.449 v 15.02 H 263.5 v 11.269 l 35.059,-18.777" /><path
             id="path42"
             style="fill:#ffffff;fill-opacity:1;fill-rule:nonzero;stroke:none"
             d="m 171.156,286.289 -35.058,18.781 h 21.035 v 35.067 H 185.18 V 305.07 h 21.054 l -35.078,-18.781" /><path
             id="path44"
             style="fill:#ffffff;fill-opacity:1;fill-rule:nonzero;stroke:none"
             d="m 43.7656,277.375 35.0664,18.777 v -11.269 h 65.449 v -15.02 H 78.832 v -11.277 l -35.0664,18.789" /><path
             id="path46"
             style="fill:#ffffff;fill-opacity:1;fill-rule:nonzero;stroke:none"
             d="M 322.465,145.078 V 251.066 L 194.145,183.137 V 77.1484 l 128.32,67.9296" /><path
             id="path48"
             style="fill:none;stroke:#7B2927;stroke-width:4;stroke-linecap:round;stroke-linejoin:round;stroke-miterlimit:4;stroke-dasharray:none;stroke-opacity:1"
             d="M 322.465,145.078 V 251.066 L 194.145,183.137 V 77.1484 Z" /><path
             id="path50"
             style="fill:#ffffff;fill-opacity:1;fill-rule:nonzero;stroke:none"
             d="m 212.777,181.945 90.137,47.703 c 5.879,3.094 10.625,0.411 10.625,-6.015 V 161.27 c 0,-6.426 -4.746,-14.153 -10.625,-17.254 L 212.777,96.3086 c -5.859,-3.1055 -10.605,-0.418 -10.605,6.0074 v 62.364 c 0,6.433 4.746,14.16 10.605,17.265" /><path
             id="path52"
             style="fill:none;stroke:#7B2927;stroke-width:4;stroke-linecap:round;stroke-linejoin:round;stroke-miterlimit:4;stroke-dasharray:none;stroke-opacity:1"
             d="m 212.777,181.945 90.137,47.703 c 5.879,3.094 10.625,0.411 10.625,-6.015 V 161.27 c 0,-6.426 -4.746,-14.153 -10.625,-17.254 L 212.777,96.3086 c -5.859,-3.1055 -10.605,-0.418 -10.605,6.0074 v 62.364 c 0,6.433 4.746,14.16 10.605,17.265 z" /><path
             id="path54"
             style="fill:#ffffff;fill-opacity:1;fill-rule:nonzero;stroke:none"
             d="M 294.164,117.004 222.445,79.0313 v 13.1093 l 71.719,37.9684 v -13.105" /><path
             id="path56"
             style="fill:none;stroke:#7B2927;stroke-width:4;stroke-linecap:round;stroke-linejoin:round;stroke-miterlimit:4;stroke-dasharray:none;stroke-opacity:1"
             d="M 294.164,117.004 222.445,79.0313 v 13.1093 l 71.719,37.9684 z" /><path
             id="path58"
             style="fill:#ffffff;fill-opacity:1;fill-rule:nonzero;stroke:none"
             d="M 322.465,101.008 194.145,33.0742 v 30.8125 l 128.32,67.9293 v -30.808" /><path
             id="path60"
             style="fill:none;stroke:#7B2927;stroke-width:4;stroke-linecap:round;stroke-linejoin:round;stroke-miterlimit:4;stroke-dasharray:none;stroke-opacity:1"
             d="M 322.465,101.008 194.145,33.0742 v 30.8125 l 128.32,67.9293 z" /><path
             id="path62"
             style="fill:#ffffff;fill-opacity:1;fill-rule:nonzero;stroke:none"
             d="M 326.527,96.8242 190.102,24.6172 V 37.7266 L 326.527,109.934 V 96.8242" /><path
             id="path64"
             style="fill:none;stroke:#7B2927;stroke-width:4;stroke-linecap:round;stroke-linejoin:round;stroke-miterlimit:4;stroke-dasharray:none;stroke-opacity:1"
             d="M 326.527,96.8242 190.102,24.6172 v 13.1094 l 136.425,72.2074 z" /><path
             id="path66"
             style="fill:#7B2927;fill-opacity:1;fill-rule:nonzero;stroke:none"
             d="m 261.645,156.145 -15.079,-24.231 v 54.207 l 36.153,-19.91 -21.074,-10.066" /><path
             id="path68"
             style="fill:#747272;fill-opacity:1;fill-rule:nonzero;stroke:none"
             d="m 260.258,154.766 10.312,-20.496 2.774,2.742 -10.313,20.5 -2.773,-2.746" /><path
             id="path70"
             style="fill:#ffffff;fill-opacity:1;fill-rule:nonzero;stroke:none"
             d="M 159.438,60.7344 V 102.102 L 134.516,95.1875 159.438,60.7344" /><path
             id="path72"
             style="fill:none;stroke:#ffffff;stroke-width:0.75999999;stroke-linecap:butt;stroke-linejoin:miter;stroke-miterlimit:4;stroke-dasharray:none;stroke-opacity:1"
             d="M 159.438,60.7344 V 102.102 L 134.516,95.1875 Z" /><path
             id="path74"
             style="fill:#ffffff;fill-opacity:1;fill-rule:nonzero;stroke:none"
             d="m 17.3203,134.922 v 41.359 l 24.9024,-32.793 -24.9024,-8.566" /><path
             id="path76"
             style="fill:none;stroke:#ffffff;stroke-width:0.75999999;stroke-linecap:butt;stroke-linejoin:miter;stroke-miterlimit:4;stroke-dasharray:none;stroke-opacity:1"
             d="m 17.3203,134.922 v 41.359 l 24.9024,-32.793 z" /><path
             id="path78"
             style="fill:#ffffff;fill-opacity:1;fill-rule:nonzero;stroke:none"
             d="M 34.0273,208.34 V 166.973 L 9.10547,199.797 34.0273,208.34" /><path
             id="path80"
             style="fill:none;stroke:#ffffff;stroke-width:0.75999999;stroke-linecap:butt;stroke-linejoin:miter;stroke-miterlimit:4;stroke-dasharray:none;stroke-opacity:1"
             d="M 34.0273,208.34 V 166.973 L 9.10547,199.797 Z" /><path
             id="path82"
             style="fill:#ffffff;fill-opacity:1;fill-rule:nonzero;stroke:none"
             d="m 140.824,152.52 v -41.36 l 24.922,6.899 -24.922,34.461" /><path
             id="path84"
             style="fill:none;stroke:#ffffff;stroke-width:0.75999999;stroke-linecap:butt;stroke-linejoin:miter;stroke-miterlimit:4;stroke-dasharray:none;stroke-opacity:1"
             d="m 140.824,152.52 v -41.36 l 24.922,6.899 z" /><path
             id="path86"
             style="fill:#ffffff;fill-opacity:1;fill-rule:nonzero;stroke:none"
             d="m 146.234,129.563 -15.039,7.808" /><path
             id="path88"
             style="fill:#ffffff;fill-opacity:1;fill-rule:nonzero;stroke:none"
             d="m 129.555,131.504 15.058,-7.813 3.262,6.731 -17.793,9.219 -0.527,-8.137" /><path
             id="path90"
             style="fill:#ffffff;fill-opacity:1;fill-rule:nonzero;stroke:none"
             d="m 151.488,86.6992 18.828,-9.7851" /><path
             id="path92"
             style="fill:none;stroke:#ffffff;stroke-width:7.5999999;stroke-linecap:butt;stroke-linejoin:miter;stroke-miterlimit:4;stroke-dasharray:none;stroke-opacity:1"
             d="m 151.488,86.6992 18.828,-9.7851" /><path
             id="path94"
             style="fill:#ffffff;fill-opacity:1;fill-rule:nonzero;stroke:none"
             d="M 23.9805,153.281 3.92188,163.711" /><path
             id="path96"
             style="fill:none;stroke:#ffffff;stroke-width:7.5999999;stroke-linecap:butt;stroke-linejoin:miter;stroke-miterlimit:4;stroke-dasharray:none;stroke-opacity:1"
             d="M 23.9805,153.281 3.92188,163.711" /><path
             id="path98"
             style="fill:#ffffff;fill-opacity:1;fill-rule:nonzero;stroke:none"
             d="M 24.8398,191.73 43.668,181.926" /><path
             id="path100"
             style="fill:#ffffff;fill-opacity:1;fill-rule:nonzero;stroke:none"
             d="m 23.207,188.367 21.8672,-11.168 0.2227,8.094 -18.8281,9.785 -3.2618,-6.711" /><path
             id="path102"
             style="fill:#ffffff;fill-opacity:1;fill-rule:nonzero;stroke:none"
             d="M 117.777,144.656 117.641,61.2383 58.6758,92.2461 58.5586,175.801 117.777,144.656" /><path
             id="path104"
             style="fill:#ffffff;fill-opacity:1;fill-rule:nonzero;stroke:none"
             d="m 107.426,126.121 -38.2424,20.238 v 15.204 l 38.2424,-20.235 v -15.207" /><path
             id="path106"
             style="fill:none;stroke:#7B2927;stroke-width:4;stroke-linecap:butt;stroke-linejoin:miter;stroke-miterlimit:4;stroke-dasharray:none;stroke-opacity:1"
             d="m 107.426,126.121 -38.2424,20.238 v 15.204 l 38.2424,-20.235 z" /><path
             id="path108"
             style="fill:#ffffff;fill-opacity:1;fill-rule:nonzero;stroke:none"
             d="M 107.426,74.5703 69.1836,94.8047 V 132.805 L 107.426,112.57 V 74.5703" /><path
             id="path110"
             style="fill:none;stroke:#7B2927;stroke-width:4;stroke-linecap:butt;stroke-linejoin:miter;stroke-miterlimit:4;stroke-dasharray:none;stroke-opacity:1"
             d="M 107.426,74.5703 69.1836,94.8047 V 132.805 L 107.426,112.57 Z" /><path
             id="path112"
             style="fill:#ffffff;fill-opacity:1;fill-rule:nonzero;stroke:none"
             d="m 101.578,177.52 c 0,0 1.981,-0.547 3.32,-6.055 l 0.321,-9.324 25.508,-15.93 2.793,5.48 -7.442,16.778 C 103.336,185 97.9336,187.781 97.9336,187.781 l -7.0508,3.891 c 0,0 -19.5898,8.125 -30.0586,11.016 l -12.1679,-5.11 -1.5313,-7.961 26.668,-10.039 0.2929,7.395 c 0.793,4.375 5.6172,1.347 5.6172,1.347 l 21.8749,-10.8" /><path
             id="path114"
             style="fill:#ffffff;fill-opacity:1;fill-rule:nonzero;stroke:none"
             d="M 107.426,119.473 69.1836,139.707" /><path
             id="path116"
             style="fill:none;stroke:#7B2927;stroke-width:4;stroke-linecap:butt;stroke-linejoin:miter;stroke-miterlimit:4;stroke-dasharray:none;stroke-opacity:1"
             d="M 107.426,119.473 69.1836,139.707" /></g></g></g></g></svg>