<?xml version="1.0" encoding="UTF-8" standalone="no"?>
<svg
   xmlns:dc="http://purl.org/dc/elements/1.1/"
   xmlns:cc="http://creativecommons.org/ns#"
   xmlns:rdf="http://www.w3.org/1999/02/22-rdf-syntax-ns#"
   xmlns:svg="http://www.w3.org/2000/svg"
   xmlns="http://www.w3.org/2000/svg"
   viewBox="0 0 51.066666 33.986668"
   height="33.986668"
   width="51.066666"
   xml:space="preserve"
   id="svg2"
   version="1.1"><metadata
     id="metadata8"><rdf:RDF><cc:Work
         rdf:about=""><dc:format>image/svg+xml</dc:format><dc:type
           rdf:resource="http://purl.org/dc/dcmitype/StillImage" /></cc:Work></rdf:RDF></metadata><defs
     id="defs6"><clipPath
       id="clipPath20"
       clipPathUnits="userSpaceOnUse"><path
         id="path18"
         d="m 0,4.92578 h 380 v 250 H 0 Z" /></clipPath></defs><g
     transform="matrix(1.3333333,0,0,-1.3333333,0,33.986667)"
     id="g10"><g
       transform="scale(0.1)"
       id="g12"><g
         id="g14"><g
           clip-path="url(#clipPath20)"
           id="g16"><path
             id="path22"
             style="fill:#7B2927;fill-opacity:1;fill-rule:nonzero;stroke:none"
             d="m 5.65625,6.46484 h 333.16 v 194.516 h -333.16 z" /><path
             id="path24"
             style="fill:none;stroke:#ffffff;stroke-width:3.99993992;stroke-linecap:butt;stroke-linejoin:miter;stroke-miterlimit:4;stroke-dasharray:none;stroke-opacity:1"
             d="M 5.65625,6.46484 H 338.816 V 200.98 H 5.65625 Z" /><path
             id="path26"
             style="fill:#7B2927;fill-opacity:1;fill-rule:nonzero;stroke:none"
             d="M 378.723,64.8281 338.816,6.46484 V 200.98 l 39.907,48.379 V 64.8281" /><path
             id="path28"
             style="fill:none;stroke:#ffffff;stroke-width:3.99993992;stroke-linecap:butt;stroke-linejoin:miter;stroke-miterlimit:4;stroke-dasharray:none;stroke-opacity:1"
             d="M 378.723,64.8281 338.816,6.46484 V 200.98 l 39.907,48.379 z" /><path
             id="path30"
             style="fill:#7B2927;fill-opacity:1;fill-rule:nonzero;stroke:none"
             d="M 65.5078,249.359 H 378.723 L 338.816,200.98 H 5.65625 l 59.85155,48.379" /><path
             id="path32"
             style="fill:none;stroke:#ffffff;stroke-width:3.99993992;stroke-linecap:butt;stroke-linejoin:miter;stroke-miterlimit:4;stroke-dasharray:none;stroke-opacity:1"
             d="M 65.5078,249.359 H 378.723 L 338.816,200.98 H 5.65625 Z" /><g
             transform="scale(10)"
             id="g34"><text
               id="text38"
               style="font-variant:normal;font-weight:bold;font-size:7px;font-family:Helvetica;-inkscape-font-specification:Helvetica-Bold;writing-mode:lr-tb;fill:#ffffff;fill-opacity:1;fill-rule:nonzero;stroke:none"
               transform="matrix(1,0,0,-1,10.0867,12.473)"><tspan
                 id="tspan36"
                 y="0"
                 x="0 5.0539999 9.7229996">RPS</tspan></text>
</g><path
             id="path40"
             style="fill:#ffffff;fill-opacity:1;fill-rule:nonzero;stroke:none"
             d="m 170.23,64.7109 c 0.04,0.0196 43.239,2.3633 43.239,2.3633 0,0 -53.121,20.2344 -63.141,23.7696 0.664,0.2929 48.41,0.8789 48.41,0.8789 L 54.0078,131.684 149.164,96.7227 c -0.476,-0.2149 -35,-2.5 -35,-2.5 0,0 35.149,-17.2071 44.934,-20.6641 -1.465,-0.6055 -32.02,-9.3359 -32.02,-9.3359 L 298.879,16.4258 170.23,64.7109" /></g></g></g></g></svg>