<?xml version="1.0" encoding="UTF-8" standalone="no"?>
<svg
   xmlns:dc="http://purl.org/dc/elements/1.1/"
   xmlns:cc="http://creativecommons.org/ns#"
   xmlns:rdf="http://www.w3.org/1999/02/22-rdf-syntax-ns#"
   xmlns:svg="http://www.w3.org/2000/svg"
   xmlns="http://www.w3.org/2000/svg"
   xmlns:sodipodi="http://sodipodi.sourceforge.net/DTD/sodipodi-0.dtd"
   xmlns:inkscape="http://www.inkscape.org/namespaces/inkscape"
   viewBox="0 0 47.880001 40.426666"
   height="40.426666"
   width="47.880001"
   xml:space="preserve"
   id="svg2"
   version="1.1"
   sodipodi:docname="workstation.svg"
   inkscape:version="0.92.3 (2405546, 2018-03-11)"><sodipodi:namedview
     pagecolor="#ffffff"
     bordercolor="#666666"
     borderopacity="1"
     objecttolerance="10"
     gridtolerance="10"
     guidetolerance="10"
     inkscape:pageopacity="0"
     inkscape:pageshadow="2"
     inkscape:window-width="1322"
     inkscape:window-height="752"
     id="namedview56"
     showgrid="false"
     inkscape:zoom="23.350924"
     inkscape:cx="37.603522"
     inkscape:cy="13.361356"
     inkscape:window-x="49"
     inkscape:window-y="27"
     inkscape:window-maximized="0"
     inkscape:current-layer="g12" /><metadata
     id="metadata8"><rdf:RDF><cc:Work
         rdf:about=""><dc:format>image/svg+xml</dc:format><dc:type
           rdf:resource="http://purl.org/dc/dcmitype/StillImage" /></cc:Work></rdf:RDF></metadata><defs
     id="defs6"><clipPath
       id="clipPath20"
       clipPathUnits="userSpaceOnUse"><path
         id="path18"
         d="M 0,3 V 303 H 359 V 3 Z" /></clipPath></defs><g
     transform="matrix(1.3333333,0,0,-1.3333333,0,40.426667)"
     id="g10"><g
       transform="scale(0.1)"
       id="g12"><g
         id="g4706"><path
           inkscape:connector-curvature="0"
           d="m 326.262,47.8906 c 4.058,4.8828 -18.164,11.5235 6.851,15.625 15.996,2.6367 64.399,31.0821 -49.121,32.5703"
           style="fill:none;stroke:#7B2927;stroke-width:3.99993992;stroke-linecap:round;stroke-linejoin:round;stroke-miterlimit:4;stroke-dasharray:none;stroke-opacity:1"
           id="path22" /><path
           inkscape:connector-curvature="0"
           d="m 66.5586,56.2109 h 183.508 V 83.9257 H 66.5586 Z"
           style="fill:#7B2927;fill-opacity:1;fill-rule:nonzero;stroke:none"
           id="path24" /><path
           inkscape:connector-curvature="0"
           d="M 66.5586,56.2109 V 83.9258 H 250.066 V 56.2109 Z"
           style="fill:none;stroke:#ffffff;stroke-width:3.99993992;stroke-linecap:butt;stroke-linejoin:miter;stroke-miterlimit:4;stroke-dasharray:none;stroke-opacity:1"
           id="path26" /><path
           inkscape:connector-curvature="0"
           d="m 249.895,56.1133 v 27.8125 l 37.007,37.6952 V 93.125 L 249.895,56.1133"
           style="fill:#7B2927;fill-opacity:1;fill-rule:nonzero;stroke:none"
           id="path28" /><path
           inkscape:connector-curvature="0"
           d="m 249.895,56.1133 v 27.8125 l 37.007,37.6952 V 93.125 Z"
           style="fill:none;stroke:#ffffff;stroke-width:3.99993992;stroke-linecap:butt;stroke-linejoin:miter;stroke-miterlimit:4;stroke-dasharray:none;stroke-opacity:1"
           id="path30" /><path
           inkscape:connector-curvature="0"
           d="m 66.5586,51.2109 h 183.508 V 83.9257 H 66.5586 Z"
           style="fill:#7B2927;fill-opacity:1;fill-rule:nonzero;stroke:none"
           id="path32" /><path
           inkscape:connector-curvature="0"
           d="M 66.5586,51.2109 V 83.9258 H 250.066 V 51.2109 Z"
           style="fill:none;stroke:#ffffff;stroke-width:3.99993992;stroke-linecap:butt;stroke-linejoin:miter;stroke-miterlimit:4;stroke-dasharray:none;stroke-opacity:1"
           id="path34" /><path
           inkscape:connector-curvature="0"
           d="m 249.895,51.1133 v 32.8125 l 37.007,37.6952 V 88.125 L 249.895,51.1133"
           style="fill:#7B2927;fill-opacity:1;fill-rule:nonzero;stroke:none"
           id="path36" /><path
           inkscape:connector-curvature="0"
           d="m 249.895,51.1133 v 32.8125 l 37.007,37.6952 V 88.125 Z"
           style="fill:none;stroke:#ffffff;stroke-width:3.99993992;stroke-linecap:butt;stroke-linejoin:miter;stroke-miterlimit:4;stroke-dasharray:none;stroke-opacity:1"
           id="path38" /><path
           inkscape:connector-curvature="0"
           d="M 299.758,126.621 273.816,88.9258 H 45.4453 L 82.2031,126.621 H 299.758"
           style="fill:#7B2927;fill-opacity:1;fill-rule:nonzero;stroke:none"
           id="path40" /><path
           inkscape:connector-curvature="0"
           d="M 299.758,126.621 273.816,88.9258 H 45.4453 l 36.7578,37.6952 z"
           style="fill:none;stroke:#ffffff;stroke-width:3.99993992;stroke-linecap:butt;stroke-linejoin:miter;stroke-miterlimit:4;stroke-dasharray:none;stroke-opacity:1"
           id="path42" /><path
           inkscape:connector-curvature="0"
           d="m 44.8984,76.2109 h 218.508 V 88.9257 H 44.8984 Z"
           style="fill:#7B2927;fill-opacity:1;fill-rule:nonzero;stroke:none"
           id="path44" /><path
           inkscape:connector-curvature="0"
           d="M 44.8984,76.2109 V 88.9258 H 263.406 V 76.2109 Z"
           style="fill:none;stroke:#ffffff;stroke-width:3.99993992;stroke-linecap:butt;stroke-linejoin:miter;stroke-miterlimit:4;stroke-dasharray:none;stroke-opacity:1"
           id="path46" /><path
           inkscape:connector-curvature="0"
           d="m 263.215,76.1133 v 12.8125 l 37.027,37.6952 V 113.125 L 263.215,76.1133"
           style="fill:#7B2927;fill-opacity:1;fill-rule:nonzero;stroke:none"
           id="path48" /><path
           inkscape:connector-curvature="0"
           d="m 263.215,76.1133 v 12.8125 l 37.027,37.6952 v -13.496 z"
           style="fill:none;stroke:#ffffff;stroke-width:3.99993992;stroke-linecap:butt;stroke-linejoin:miter;stroke-miterlimit:4;stroke-dasharray:none;stroke-opacity:1"
           id="path50" /><path
           inkscape:connector-curvature="0"
           d="M 299.758,126.621 273.816,88.9258 H 45.4453 L 82.2031,126.621 H 299.758"
           style="fill:#7B2927;fill-opacity:1;fill-rule:nonzero;stroke:none"
           id="path52" /><path
           inkscape:connector-curvature="0"
           d="M 299.758,126.621 273.816,88.9258 H 45.4453 l 36.7578,37.6952 z"
           style="fill:none;stroke:#ffffff;stroke-width:3.99993992;stroke-linecap:butt;stroke-linejoin:miter;stroke-miterlimit:4;stroke-dasharray:none;stroke-opacity:1"
           id="path54" /><path
           inkscape:connector-curvature="0"
           d="m 44.8984,76.2109 h 218.508 V 88.9257 H 44.8984 Z"
           style="fill:#7B2927;fill-opacity:1;fill-rule:nonzero;stroke:none"
           id="path56" /><path
           inkscape:connector-curvature="0"
           d="M 44.8984,76.2109 V 88.9258 H 263.406 V 76.2109 Z"
           style="fill:none;stroke:#ffffff;stroke-width:3.99993992;stroke-linecap:butt;stroke-linejoin:miter;stroke-miterlimit:4;stroke-dasharray:none;stroke-opacity:1"
           id="path58" /><path
           inkscape:connector-curvature="0"
           d="m 263.215,76.1133 v 12.8125 l 37.027,37.6952 V 113.125 L 263.215,76.1133"
           style="fill:#7B2927;fill-opacity:1;fill-rule:nonzero;stroke:none"
           id="path60" /><path
           inkscape:connector-curvature="0"
           d="m 263.215,76.1133 v 12.8125 l 37.027,37.6952 v -13.496 z"
           style="fill:none;stroke:#ffffff;stroke-width:3.99993992;stroke-linecap:butt;stroke-linejoin:miter;stroke-miterlimit:4;stroke-dasharray:none;stroke-opacity:1"
           id="path62" /><path
           inkscape:connector-curvature="0"
           d="M 300.945,299.922 H 103.609 L 45.8555,286.336 H 274.441 l 26.504,13.586"
           style="fill:#7B2927;fill-opacity:1;fill-rule:nonzero;stroke:none"
           id="path64" /><path
           inkscape:connector-curvature="0"
           d="M 300.945,299.922 H 103.609 L 45.8555,286.336 H 274.441 Z"
           style="fill:none;stroke:#ffffff;stroke-width:3.99993992;stroke-linecap:butt;stroke-linejoin:miter;stroke-miterlimit:4;stroke-dasharray:none;stroke-opacity:1"
           id="path66" /><path
           inkscape:connector-curvature="0"
           d="m 264.563,104.922 -10.098,8.34 H 69.0586 l 9.7852,-8.34 H 264.563"
           style="fill:#7B2927;fill-opacity:1;fill-rule:nonzero;stroke:none"
           id="path68" /><path
           inkscape:connector-curvature="0"
           d="m 264.563,104.922 -10.098,8.34 H 69.0586 l 9.7852,-8.34 z"
           style="fill:none;stroke:#ffffff;stroke-width:3.99993992;stroke-linecap:butt;stroke-linejoin:miter;stroke-miterlimit:4;stroke-dasharray:none;stroke-opacity:1"
           id="path70" /><path
           inkscape:connector-curvature="0"
           d="m 265.691,106.379 -12.769,8.543 47.266,25 -30.43,-30.098 -4.067,-3.445"
           style="fill:#7B2927;fill-opacity:1;fill-rule:nonzero;stroke:none"
           id="path72" /><path
           inkscape:connector-curvature="0"
           d="m 265.691,106.379 -12.769,8.543 47.266,25 -30.43,-30.098 z"
           style="fill:none;stroke:#ffffff;stroke-width:3.99993992;stroke-linecap:butt;stroke-linejoin:miter;stroke-miterlimit:4;stroke-dasharray:none;stroke-opacity:1"
           id="path74" /><path
           inkscape:connector-curvature="0"
           d="M 274.441,286.336 V 115.867 l 26.504,24.629 v 159.426 l -26.504,-13.586"
           style="fill:#7B2927;fill-opacity:1;fill-rule:nonzero;stroke:none"
           id="path76" /><path
           inkscape:connector-curvature="0"
           d="M 274.441,286.336 V 115.867 l 26.504,24.629 v 159.426 z"
           style="fill:none;stroke:#ffffff;stroke-width:3.99993992;stroke-linecap:butt;stroke-linejoin:miter;stroke-miterlimit:4;stroke-dasharray:none;stroke-opacity:1"
           id="path78" /><path
           inkscape:connector-curvature="0"
           d="m 45.8555,113.992 h 228.586 V 286.336 H 45.8555 Z"
           style="fill:#7B2927;fill-opacity:1;fill-rule:nonzero;stroke:none"
           id="path80" /><path
           inkscape:connector-curvature="0"
           d="M 274.441,113.992 V 286.336 H 45.8555 V 113.992 Z"
           style="fill:none;stroke:#ffffff;stroke-width:3.99993992;stroke-linecap:butt;stroke-linejoin:miter;stroke-miterlimit:4;stroke-dasharray:none;stroke-opacity:1"
           id="path82" /><path
           inkscape:connector-curvature="0"
           d="M 255.227,6.48438 V 19.7461 L 283.84,59.3047 V 35.0898 L 255.227,6.48438"
           style="fill:#7B2927;fill-opacity:1;fill-rule:nonzero;stroke:none"
           id="path84" /><path
           inkscape:connector-curvature="0"
           d="M 255.227,6.48438 V 19.7461 L 283.84,59.3047 V 35.0898 Z"
           style="fill:none;stroke:#ffffff;stroke-width:3.99993992;stroke-linecap:butt;stroke-linejoin:miter;stroke-miterlimit:4;stroke-dasharray:none;stroke-opacity:1"
           id="path86" /><path
           inkscape:connector-curvature="0"
           d="m 3.10156,6.48438 h 252.125 v 13.0664 H 3.10156 Z"
           style="fill:#7B2927;fill-opacity:1;fill-rule:nonzero;stroke:none"
           id="path88" /><path
           inkscape:connector-curvature="0"
           d="M 255.227,19.5508 V 6.48438 H 3.10156 V 19.5508 Z"
           style="fill:none;stroke:#ffffff;stroke-width:3.99993992;stroke-linecap:butt;stroke-linejoin:miter;stroke-miterlimit:4;stroke-dasharray:none;stroke-opacity:1"
           id="path90" /><path
           inkscape:connector-curvature="0"
           d="M 326.926,16.9414 343.66,50.3906 H 305.438 L 288.723,16.9414 h 38.203"
           style="fill:#7B2927;fill-opacity:1;fill-rule:nonzero;stroke:none"
           id="path92" /><path
           inkscape:connector-curvature="0"
           d="M 326.926,16.9414 343.66,50.3906 H 305.438 L 288.723,16.9414 Z"
           style="fill:none;stroke:#ffffff;stroke-width:3.99993992;stroke-linecap:butt;stroke-linejoin:miter;stroke-miterlimit:4;stroke-dasharray:none;stroke-opacity:1"
           id="path94" /><path
           inkscape:connector-curvature="0"
           d="m 288.723,6.19141 h 38.2031 v 10.75 H 288.723 Z"
           style="fill:#7B2927;fill-opacity:1;fill-rule:nonzero;stroke:none"
           id="path96" /><path
           inkscape:connector-curvature="0"
           d="m 288.723,16.9414 h 38.203 V 6.19141 h -38.203 z"
           style="fill:none;stroke:#ffffff;stroke-width:3.99993992;stroke-linecap:butt;stroke-linejoin:miter;stroke-miterlimit:4;stroke-dasharray:none;stroke-opacity:1"
           id="path98" /><path
           inkscape:connector-curvature="0"
           d="M 326.633,5.89844 326.73,16.9414 343.445,50.3906 343.352,27.4023 326.633,5.89844"
           style="fill:#7B2927;fill-opacity:1;fill-rule:nonzero;stroke:none"
           id="path100" /><path
           inkscape:connector-curvature="0"
           d="m 326.633,5.89844 0.097,11.04296 16.715,33.4492 -0.093,-22.9883 z"
           style="fill:none;stroke:#ffffff;stroke-width:3.99993992;stroke-linecap:butt;stroke-linejoin:miter;stroke-miterlimit:4;stroke-dasharray:none;stroke-opacity:1"
           id="path102" /><path
           inkscape:connector-curvature="0"
           d="M 255.227,19.5508 H 3.90234 L 32.5039,59.3047 H 283.84 L 255.227,19.5508"
           style="fill:#7B2927;fill-opacity:1;fill-rule:nonzero;stroke:none"
           id="path104" /><path
           inkscape:connector-curvature="0"
           d="M 255.227,19.5508 H 3.90234 L 32.5039,59.3047 H 283.84 Z"
           style="fill:none;stroke:#ffffff;stroke-width:3.99993992;stroke-linecap:butt;stroke-linejoin:miter;stroke-miterlimit:4;stroke-dasharray:none;stroke-opacity:1"
           id="path106" /><path
           inkscape:connector-curvature="0"
           d="M 79.0586,268.34 H 239.602 c 10.449,0 18.906,-8.469 18.906,-18.918 V 148.008 c 0,-10.449 -8.457,-18.926 -18.906,-18.926 H 79.0586 c -10.4492,0 -18.918,8.477 -18.918,18.926 v 101.414 c 0,10.449 8.4688,18.918 18.918,18.918"
           style="fill:#7B2927;fill-opacity:1;fill-rule:nonzero;stroke:none"
           id="path108" /><path
           inkscape:connector-curvature="0"
           d="M 79.0586,268.34 H 239.602 c 10.449,0 18.906,-8.469 18.906,-18.918 V 148.008 c 0,-10.449 -8.457,-18.926 -18.906,-18.926 H 79.0586 c -10.4492,0 -18.918,8.477 -18.918,18.926 v 101.414 c 0,10.449 8.4688,18.918 18.918,18.918 z"
           style="fill:none;stroke:#ffffff;stroke-width:3.99993992;stroke-linecap:butt;stroke-linejoin:miter;stroke-miterlimit:4;stroke-dasharray:none;stroke-opacity:1"
           id="path110" /></g></g></g></svg>