<?xml version="1.0" encoding="UTF-8" standalone="no"?>
<svg
   xmlns:dc="http://purl.org/dc/elements/1.1/"
   xmlns:cc="http://creativecommons.org/ns#"
   xmlns:rdf="http://www.w3.org/1999/02/22-rdf-syntax-ns#"
   xmlns:svg="http://www.w3.org/2000/svg"
   xmlns="http://www.w3.org/2000/svg"
   viewBox="0 0 35.693333 36.040001"
   height="36.040001"
   width="35.693333"
   xml:space="preserve"
   id="svg2"
   version="1.1"><metadata
     id="metadata8"><rdf:RDF><cc:Work
         rdf:about=""><dc:format>image/svg+xml</dc:format><dc:type
           rdf:resource="http://purl.org/dc/dcmitype/StillImage" /></cc:Work></rdf:RDF></metadata><defs
     id="defs6" /><g
     transform="matrix(1.3333333,0,0,-1.3333333,0,36.04)"
     id="g10"><g
       transform="scale(0.1)"
       id="g12"><path
         id="path14"
         style="fill:#B5BF00;fill-opacity:1;fill-rule:nonzero;stroke:none"
         d="m 5.46875,4.74219 h 215.996 v 219.75 H 5.46875 Z" /><path
         id="path16"
         style="fill:none;stroke:#ffffff;stroke-width:4;stroke-linecap:butt;stroke-linejoin:miter;stroke-miterlimit:4;stroke-dasharray:none;stroke-opacity:1"
         d="M 221.465,4.74219 V 224.492 H 5.46875 V 4.74219 Z" /><path
         id="path18"
         style="fill:none;stroke:#ffffff;stroke-width:13;stroke-linecap:butt;stroke-linejoin:miter;stroke-miterlimit:4;stroke-dasharray:none;stroke-opacity:1"
         d="m 113.457,153.477 h 66.414" /><path
         id="path20"
         style="fill:#ffffff;fill-opacity:1;fill-rule:nonzero;stroke:none"
         d="m 182.344,173.426 v -38.453 l 23.176,18.472 -23.176,19.981" /><path
         id="path22"
         style="fill:none;stroke:#ffffff;stroke-width:2;stroke-linecap:butt;stroke-linejoin:miter;stroke-miterlimit:4;stroke-dasharray:none;stroke-opacity:1"
         d="m 182.344,173.426 v -38.453 l 23.176,18.472 z" /><path
         id="path24"
         style="fill:none;stroke:#ffffff;stroke-width:13;stroke-linecap:butt;stroke-linejoin:miter;stroke-miterlimit:4;stroke-dasharray:none;stroke-opacity:1"
         d="m 113.457,77.0273 h 66.414" /><path
         id="path26"
         style="fill:#ffffff;fill-opacity:1;fill-rule:nonzero;stroke:none"
         d="M 182.344,97.2695 V 58.8125 L 205.52,77.2852 182.344,97.2695" /><path
         id="path28"
         style="fill:none;stroke:#ffffff;stroke-width:2;stroke-linecap:butt;stroke-linejoin:miter;stroke-miterlimit:4;stroke-dasharray:none;stroke-opacity:1"
         d="M 182.344,97.2695 V 58.8125 L 205.52,77.2852 Z" /><path
         id="path30"
         style="fill:none;stroke:#ffffff;stroke-width:13;stroke-linecap:butt;stroke-linejoin:miter;stroke-miterlimit:4;stroke-dasharray:none;stroke-opacity:1"
         d="m 75.2734,114.973 v 66.41" /><path
         id="path32"
         style="fill:#ffffff;fill-opacity:1;fill-rule:nonzero;stroke:none"
         d="M 55.8398,183.563 H 94.2969 L 75.8203,206.727 55.8398,183.563" /><path
         id="path34"
         style="fill:none;stroke:#ffffff;stroke-width:2;stroke-linecap:butt;stroke-linejoin:miter;stroke-miterlimit:4;stroke-dasharray:none;stroke-opacity:1"
         d="M 55.8398,183.563 H 94.2969 L 75.8203,206.727 Z" /><path
         id="path36"
         style="fill:none;stroke:#ffffff;stroke-width:13;stroke-linecap:butt;stroke-linejoin:miter;stroke-miterlimit:4;stroke-dasharray:none;stroke-opacity:1"
         d="m 151.523,114.973 v 66.41" /><path
         id="path38"
         style="fill:#ffffff;fill-opacity:1;fill-rule:nonzero;stroke:none"
         d="m 131.836,183.309 h 38.457 l -18.469,23.171 -19.988,-23.171" /><path
         id="path40"
         style="fill:none;stroke:#ffffff;stroke-width:2;stroke-linecap:butt;stroke-linejoin:miter;stroke-miterlimit:4;stroke-dasharray:none;stroke-opacity:1"
         d="m 131.836,183.309 h 38.457 l -18.469,23.171 z" /><path
         id="path42"
         style="fill:none;stroke:#ffffff;stroke-width:13;stroke-linecap:butt;stroke-linejoin:miter;stroke-miterlimit:4;stroke-dasharray:none;stroke-opacity:1"
         d="M 151.777,115.461 V 49.0469" /><path
         id="path44"
         style="fill:#ffffff;fill-opacity:1;fill-rule:nonzero;stroke:none"
         d="m 171.094,46.8867 h -38.457 l 18.652,-23.1719 19.805,23.1719" /><path
         id="path46"
         style="fill:none;stroke:#ffffff;stroke-width:2;stroke-linecap:butt;stroke-linejoin:miter;stroke-miterlimit:4;stroke-dasharray:none;stroke-opacity:1"
         d="M 171.094,46.8867 H 132.637 L 151.289,23.7148 Z" /><path
         id="path48"
         style="fill:none;stroke:#ffffff;stroke-width:13;stroke-linecap:butt;stroke-linejoin:miter;stroke-miterlimit:4;stroke-dasharray:none;stroke-opacity:1"
         d="M 76.0547,115.461 V 49.0469" /><path
         id="path50"
         style="fill:#ffffff;fill-opacity:1;fill-rule:nonzero;stroke:none"
         d="M 95.7617,46.8867 H 57.3047 L 75.957,23.7148 95.7617,46.8867" /><path
         id="path52"
         style="fill:none;stroke:#ffffff;stroke-width:2;stroke-linecap:butt;stroke-linejoin:miter;stroke-miterlimit:4;stroke-dasharray:none;stroke-opacity:1"
         d="M 95.7617,46.8867 H 57.3047 L 75.957,23.7148 Z" /><path
         id="path54"
         style="fill:none;stroke:#ffffff;stroke-width:13;stroke-linecap:butt;stroke-linejoin:miter;stroke-miterlimit:4;stroke-dasharray:none;stroke-opacity:1"
         d="M 114.414,77.0508 H 47.9883" /><path
         id="path56"
         style="fill:#ffffff;fill-opacity:1;fill-rule:nonzero;stroke:none"
         d="M 45.293,56.8359 V 95.293 L 22.1289,76.8242 45.293,56.8359" /><path
         id="path58"
         style="fill:none;stroke:#ffffff;stroke-width:2;stroke-linecap:butt;stroke-linejoin:miter;stroke-miterlimit:4;stroke-dasharray:none;stroke-opacity:1"
         d="M 45.293,56.8359 V 95.293 L 22.1289,76.8242 Z" /><path
         id="path60"
         style="fill:none;stroke:#ffffff;stroke-width:13;stroke-linecap:butt;stroke-linejoin:miter;stroke-miterlimit:4;stroke-dasharray:none;stroke-opacity:1"
         d="M 114.414,153.301 H 47.9883" /><path
         id="path62"
         style="fill:#ffffff;fill-opacity:1;fill-rule:nonzero;stroke:none"
         d="m 45.293,133.086 v 38.457 L 22.1289,153.074 45.293,133.086" /><path
         id="path64"
         style="fill:none;stroke:#ffffff;stroke-width:2;stroke-linecap:butt;stroke-linejoin:miter;stroke-miterlimit:4;stroke-dasharray:none;stroke-opacity:1"
         d="m 45.293,133.086 v 38.457 L 22.1289,153.074 Z" /><path
         id="path66"
         style="fill:#B5BF00;fill-opacity:1;fill-rule:nonzero;stroke:none"
         d="M 220.715,224.734 H 5.71094 L 60.2148,268.238 H 265.715 V 267.988 49.8672 L 221.211,4.86719 V 223.484 l -0.496,1.25" /><path
         id="path68"
         style="fill:none;stroke:#ffffff;stroke-width:4;stroke-linecap:butt;stroke-linejoin:miter;stroke-miterlimit:4;stroke-dasharray:none;stroke-opacity:1"
         d="M 220.715,224.734 H 5.71094 L 60.2148,268.238 H 265.715 V 267.988 49.8672 L 221.211,4.86719 V 223.484 Z" /><path
         id="path70"
         style="fill:#B5BF00;fill-opacity:1;fill-rule:nonzero;stroke:none"
         d="m 221.094,225.102 45,43.75" /><path
         id="path72"
         style="fill:none;stroke:#ffffff;stroke-width:4;stroke-linecap:butt;stroke-linejoin:miter;stroke-miterlimit:4;stroke-dasharray:none;stroke-opacity:1"
         d="m 221.094,225.102 45,43.75" /><path
         id="path74"
         style="fill:#B5BF00;fill-opacity:1;fill-rule:nonzero;stroke:none"
         d="m 113.496,68.9297 c 25.344,0 45.891,20.5469 45.891,45.8833 0,25.343 -20.547,45.886 -45.891,45.886 -25.3319,0 -45.8788,-20.543 -45.8788,-45.886 0,-25.3364 20.5469,-45.8833 45.8788,-45.8833" /><path
         id="path76"
         style="fill:none;stroke:#ffffff;stroke-width:4;stroke-linecap:butt;stroke-linejoin:miter;stroke-miterlimit:4;stroke-dasharray:none;stroke-opacity:1"
         d="m 113.496,68.9297 c 25.344,0 45.891,20.5469 45.891,45.8833 0,25.343 -20.547,45.886 -45.891,45.886 -25.3319,0 -45.8788,-20.543 -45.8788,-45.886 0,-25.3364 20.5469,-45.8833 45.8788,-45.8833 z" /></g></g></svg>