<?xml version="1.0" encoding="UTF-8" standalone="no"?>
<svg
   xmlns:dc="http://purl.org/dc/elements/1.1/"
   xmlns:cc="http://creativecommons.org/ns#"
   xmlns:rdf="http://www.w3.org/1999/02/22-rdf-syntax-ns#"
   xmlns:svg="http://www.w3.org/2000/svg"
   xmlns="http://www.w3.org/2000/svg"
   viewBox="0 0 39.16 35.893333"
   height="35.893333"
   width="39.16"
   xml:space="preserve"
   id="svg2"
   version="1.1"><metadata
     id="metadata8"><rdf:RDF><cc:Work
         rdf:about=""><dc:format>image/svg+xml</dc:format><dc:type
           rdf:resource="http://purl.org/dc/dcmitype/StillImage" /></cc:Work></rdf:RDF></metadata><defs
     id="defs6"><clipPath
       id="clipPath20"
       clipPathUnits="userSpaceOnUse"><path
         id="path18"
         d="M 0,269 H 290 V 0 H 0 Z" /></clipPath></defs><g
     transform="matrix(1.3333333,0,0,-1.3333333,0,35.893333)"
     id="g10"><g
       transform="scale(0.1)"
       id="g12"><g
         id="g14"><g
           clip-path="url(#clipPath20)"
           id="g16"><path
             id="path22"
             style="fill:#B5BF00;fill-opacity:1;fill-rule:nonzero;stroke:none"
             d="m 46.6641,33.4883 h 209.59 v 39.207 h -209.59 z" /><path
             id="path24"
             style="fill:none;stroke:#ffffff;stroke-width:3.99993992;stroke-linecap:butt;stroke-linejoin:miter;stroke-miterlimit:4;stroke-dasharray:none;stroke-opacity:1"
             d="m 46.6641,33.4883 v 39.207 H 256.254 v -39.207 z" /><path
             id="path26"
             style="fill:#B5BF00;fill-opacity:1;fill-rule:nonzero;stroke:none"
             d="M 291.723,108.438 V 68.8398 L 256.254,33.0977 V 72.6953 H 46.5078" /><path
             id="path28"
             style="fill:none;stroke:#ffffff;stroke-width:3.99993992;stroke-linecap:butt;stroke-linejoin:miter;stroke-miterlimit:4;stroke-dasharray:none;stroke-opacity:1"
             d="M 291.723,108.438 V 68.8398 L 256.254,33.0977 V 72.6953 H 46.5078" /><path
             id="path30"
             style="fill:#B5BF00;fill-opacity:1;fill-rule:nonzero;stroke:none"
             d="M 48.168,108.438 H 291.723" /><path
             id="path32"
             style="fill:none;stroke:#ffffff;stroke-width:3.99993992;stroke-linecap:butt;stroke-linejoin:miter;stroke-miterlimit:4;stroke-dasharray:none;stroke-opacity:1"
             d="M 48.168,108.438 H 291.723" /><path
             id="path34"
             style="fill:#B5BF00;fill-opacity:1;fill-rule:nonzero;stroke:none"
             d="m 256.254,72.6953 35.469,35.7427" /><path
             id="path36"
             style="fill:none;stroke:#ffffff;stroke-width:3.99993992;stroke-linecap:butt;stroke-linejoin:miter;stroke-miterlimit:4;stroke-dasharray:none;stroke-opacity:1"
             d="m 256.254,72.6953 35.469,35.7427" /><path
             id="path38"
             style="fill:#B5BF00;fill-opacity:1;fill-rule:nonzero;stroke:none"
             d="m 46.5078,73.4961 h 209.473 v 157.941 H 46.5078 Z" /><path
             id="path40"
             style="fill:none;stroke:#ffffff;stroke-width:3.99993992;stroke-linecap:butt;stroke-linejoin:miter;stroke-miterlimit:4;stroke-dasharray:none;stroke-opacity:1"
             d="M 255.98,73.4961 V 231.438 H 46.5078 V 73.4961 Z" /><path
             id="path42"
             style="fill:#B5BF00;fill-opacity:1;fill-rule:nonzero;stroke:none"
             d="m 255.98,73.4961 35.743,35.7419 V 267.18 H 82.25 L 46.5078,231.438 H 255.98 V 73.4961" /><path
             id="path44"
             style="fill:none;stroke:#ffffff;stroke-width:3.99993992;stroke-linecap:butt;stroke-linejoin:miter;stroke-miterlimit:4;stroke-dasharray:none;stroke-opacity:1"
             d="m 255.98,73.4961 35.743,35.7419 V 267.18 H 82.25 L 46.5078,231.438 H 255.98 Z" /><path
             id="path46"
             style="fill:#B5BF00;fill-opacity:1;fill-rule:nonzero;stroke:none"
             d="m 64.7891,91.7852 h 172.891 v 121.359 H 64.7891 Z" /><path
             id="path48"
             style="fill:none;stroke:#ffffff;stroke-width:3.99993992;stroke-linecap:butt;stroke-linejoin:miter;stroke-miterlimit:4;stroke-dasharray:none;stroke-opacity:1"
             d="M 237.68,91.7852 V 213.145 H 64.7891 V 91.7852 Z" /><path
             id="path50"
             style="fill:#B5BF00;fill-opacity:1;fill-rule:nonzero;stroke:none"
             d="m 255.98,231.438 35.743,35.742" /><path
             id="path52"
             style="fill:none;stroke:#ffffff;stroke-width:3.99993992;stroke-linecap:butt;stroke-linejoin:miter;stroke-miterlimit:4;stroke-dasharray:none;stroke-opacity:1"
             d="m 255.98,231.438 35.743,35.742" /><path
             id="path54"
             style="fill:#B5BF00;fill-opacity:1;fill-rule:nonzero;stroke:none"
             d="M 245.902,4.83594 V 28.0664 H 4.82813 L 32.2695,55.4961 H 273.324 V 32.2656 L 245.902,4.83594" /><path
             id="path56"
             style="fill:none;stroke:#ffffff;stroke-width:3.99993992;stroke-linecap:butt;stroke-linejoin:miter;stroke-miterlimit:4;stroke-dasharray:none;stroke-opacity:1"
             d="M 245.902,4.83594 V 28.0664 H 4.82813 L 32.2695,55.4961 H 273.324 V 32.2656 Z" /><path
             id="path58"
             style="fill:#B5BF00;fill-opacity:1;fill-rule:nonzero;stroke:none"
             d="m 4.82813,4.83594 h 241.074 v 23.2305 H 4.82813 Z" /><path
             id="path60"
             style="fill:none;stroke:#ffffff;stroke-width:3.99993992;stroke-linecap:butt;stroke-linejoin:miter;stroke-miterlimit:4;stroke-dasharray:none;stroke-opacity:1"
             d="M 245.902,28.0664 V 4.83594 H 4.82813 V 28.0664 Z" /><path
             id="path62"
             style="fill:#B5BF00;fill-opacity:1;fill-rule:nonzero;stroke:none"
             d="m 245.902,28.0664 27.422,27.4297" /><path
             id="path64"
             style="fill:none;stroke:#ffffff;stroke-width:3.99993992;stroke-linecap:butt;stroke-linejoin:miter;stroke-miterlimit:4;stroke-dasharray:none;stroke-opacity:1"
             d="m 245.902,28.0664 27.422,27.4297" /><path
             id="path66"
             style="fill:#B5BF00;fill-opacity:1;fill-rule:nonzero;stroke:none"
             d="m 145.094,176.672 c 0,0 18.875,11.055 32.976,7.598 l 2.942,-9.231 8.828,-16.23 37.305,20.293 -9.543,17.519 -12.676,4.973 c 0,0 -32.84,2.129 -68.301,-15.508 L 130.98,183.02 C 96.9375,162.832 80.9023,134.082 80.9023,134.082 l -2.7343,-13.348 9.5312,-17.519 37.3048,20.293 -8.836,16.23 -6.164,7.481 c 4.785,13.75 24.277,23.574 24.277,23.574 l 10.813,5.879" /><path
             id="path68"
             style="fill:none;stroke:#ffffff;stroke-width:3.99993992;stroke-linecap:butt;stroke-linejoin:miter;stroke-miterlimit:4;stroke-dasharray:none;stroke-opacity:1"
             d="m 145.094,176.672 c 0,0 18.875,11.055 32.976,7.598 l 2.942,-9.231 8.828,-16.23 37.305,20.293 -9.543,17.519 -12.676,4.973 c 0,0 -32.84,2.129 -68.301,-15.508 L 130.98,183.02 C 96.9375,162.832 80.9023,134.082 80.9023,134.082 l -2.7343,-13.348 9.5312,-17.519 37.3048,20.293 -8.836,16.23 -6.164,7.481 c 4.785,13.75 24.277,23.574 24.277,23.574 z" /><path
             id="path70"
             style="fill:#B5BF00;fill-opacity:1;fill-rule:nonzero;stroke:none"
             d="M 116.781,140.363 77.2109,118.84" /><path
             id="path72"
             style="fill:none;stroke:#ffffff;stroke-width:3.99993992;stroke-linecap:butt;stroke-linejoin:miter;stroke-miterlimit:4;stroke-dasharray:none;stroke-opacity:1"
             d="M 116.781,140.363 77.2109,118.84" /><path
             id="path74"
             style="fill:#B5BF00;fill-opacity:1;fill-rule:nonzero;stroke:none"
             d="M 218.246,195.598 178.695,174.074" /><path
             id="path76"
             style="fill:none;stroke:#ffffff;stroke-width:3.99993992;stroke-linecap:butt;stroke-linejoin:miter;stroke-miterlimit:4;stroke-dasharray:none;stroke-opacity:1"
             d="M 218.246,195.598 178.695,174.074" /></g></g></g></g></svg>