<?xml version="1.0"  encoding="UTF-8" standalone="no"?>
<svg version="1.1" xmlns="http://www.w3.org/2000/svg" xmlns:xlink="http://www.w3.org/1999/xlink" width="712.0000" height="703.0000">
<g transform="translate(70.0000, 65.0000)">
<path d="M 640.0000,73.0000 C 620.0000,-17.0000 452.0000,-65.0000 286.0000,-65.0000 C 286.0000,-65.0000 286.0000,-65.0000 286.0000,-65.0000 C 286.0000,-65.0000 286.0000,-65.0000 286.0000,-65.0000 C 120.0000,-65.0000 -47.0000,-17.0000 -68.0000,73.0000 C -69.0000,79.0000 -70.0000,85.0000 -70.0000,92.0000 C -70.0000,112.0000 -70.0000,112.0000 -70.0000,112.0000 C -70.0000,159.0000 -70.0000,159.0000 -70.0000,159.0000 C -70.0000,312.0000 -70.0000,312.0000 -70.0000,312.0000 C -70.0000,482.0000 -70.0000,482.0000 -70.0000,482.0000 C -70.0000,502.0000 -70.0000,502.0000 -70.0000,502.0000 C -67.0000,502.0000 -67.0000,502.0000 -67.0000,502.0000 C -67.0000,503.0000 -67.0000,503.0000 -67.0000,504.0000 C -66.0000,507.0000 -65.0000,511.0000 -63.0000,514.0000 C -63.0000,515.0000 -62.0000,517.0000 -62.0000,518.0000 C -60.0000,521.0000 -58.0000,524.0000 -57.0000,527.0000 C -56.0000,528.0000 -55.0000,530.0000 -54.0000,531.0000 C -52.0000,534.0000 -50.0000,537.0000 -48.0000,540.0000 C -47.0000,541.0000 -46.0000,542.0000 -45.0000,543.0000 C -42.0000,546.0000 -39.0000,549.0000 -36.0000,552.0000 C -35.0000,553.0000 -34.0000,554.0000 -33.0000,555.0000 C -29.0000,558.0000 -25.0000,562.0000 -20.0000,565.0000 C -19.0000,567.0000 -17.0000,568.0000 -15.0000,569.0000 C -12.0000,571.0000 -9.0000,573.0000 -6.0000,575.0000 C -3.0000,577.0000 0.0000,579.0000 3.0000,580.0000 C 6.0000,582.0000 8.0000,583.0000 10.0000,584.0000 C 14.0000,586.0000 18.0000,588.0000 21.0000,590.0000 C 23.0000,590.0000 25.0000,591.0000 27.0000,592.0000 C 32.0000,594.0000 36.0000,596.0000 40.0000,598.0000 C 42.0000,598.0000 44.0000,599.0000 46.0000,600.0000 C 51.0000,602.0000 55.0000,603.0000 61.0000,605.0000 C 62.0000,606.0000 63.0000,606.0000 65.0000,607.0000 C 70.0000,608.0000 76.0000,610.0000 82.0000,612.0000 C 82.0000,612.0000 83.0000,612.0000 84.0000,612.0000 C 126.0000,624.0000 174.0000,632.0000 224.0000,636.0000 C 223.0000,636.0000 223.0000,636.0000 223.0000,635.0000 C 244.0000,637.0000 265.0000,638.0000 286.0000,638.0000 C 286.0000,638.0000 286.0000,638.0000 286.0000,638.0000 C 286.0000,638.0000 286.0000,638.0000 286.0000,638.0000 C 307.0000,638.0000 328.0000,637.0000 349.0000,635.0000 C 349.0000,635.0000 349.0000,636.0000 349.0000,636.0000 C 398.0000,632.0000 446.0000,624.0000 488.0000,612.0000 C 489.0000,612.0000 490.0000,612.0000 491.0000,612.0000 C 496.0000,610.0000 502.0000,608.0000 508.0000,607.0000 C 509.0000,606.0000 510.0000,606.0000 512.0000,605.0000 C 517.0000,603.0000 522.0000,602.0000 527.0000,600.0000 C 528.0000,599.0000 530.0000,598.0000 532.0000,598.0000 C 536.0000,596.0000 541.0000,594.0000 545.0000,592.0000 C 547.0000,591.0000 549.0000,590.0000 551.0000,590.0000 C 555.0000,588.0000 558.0000,586.0000 562.0000,584.0000 C 564.0000,583.0000 567.0000,582.0000 569.0000,580.0000 C 572.0000,579.0000 575.0000,577.0000 578.0000,575.0000 C 581.0000,573.0000 585.0000,571.0000 588.0000,569.0000 C 589.0000,568.0000 591.0000,567.0000 593.0000,565.0000 C 597.0000,562.0000 602.0000,558.0000 606.0000,555.0000 C 607.0000,554.0000 608.0000,553.0000 608.0000,552.0000 C 612.0000,549.0000 614.0000,546.0000 617.0000,543.0000 C 618.0000,542.0000 619.0000,541.0000 620.0000,540.0000 C 622.0000,537.0000 625.0000,534.0000 627.0000,531.0000 C 627.0000,530.0000 628.0000,528.0000 629.0000,527.0000 C 631.0000,524.0000 632.0000,521.0000 634.0000,518.0000 C 634.0000,517.0000 635.0000,515.0000 636.0000,514.0000 C 637.0000,511.0000 638.0000,507.0000 639.0000,504.0000 C 639.0000,503.0000 639.0000,503.0000 640.0000,502.0000 C 642.0000,502.0000 642.0000,502.0000 642.0000,502.0000 C 642.0000,482.0000 642.0000,482.0000 642.0000,482.0000 C 642.0000,312.0000 642.0000,312.0000 642.0000,312.0000 C 642.0000,159.0000 642.0000,159.0000 642.0000,159.0000 C 642.0000,112.0000 642.0000,112.0000 642.0000,112.0000 C 642.0000,92.0000 642.0000,92.0000 642.0000,92.0000 C 642.0000,85.0000 641.0000,79.0000 640.0000,73.0000 Z M 569.0000,375.0000 C 547.0000,395.0000 504.0000,414.0000 447.0000,427.0000 C 447.0000,464.0000 447.0000,464.0000 447.0000,464.0000 C 495.0000,454.0000 538.0000,439.0000 569.0000,420.0000 C 569.0000,482.0000 569.0000,482.0000 569.0000,482.0000 C 569.0000,484.0000 568.0000,486.0000 568.0000,488.0000 C 567.0000,488.0000 567.0000,489.0000 567.0000,489.0000 C 566.0000,491.0000 565.0000,492.0000 564.0000,494.0000 C 563.0000,495.0000 563.0000,495.0000 562.0000,496.0000 C 561.0000,498.0000 558.0000,500.0000 556.0000,502.0000 C 556.0000,502.0000 556.0000,502.0000 556.0000,502.0000 C 553.0000,505.0000 550.0000,507.0000 546.0000,509.0000 C 546.0000,510.0000 545.0000,510.0000 544.0000,511.0000 C 541.0000,513.0000 538.0000,515.0000 535.0000,516.0000 C 533.0000,517.0000 532.0000,518.0000 531.0000,518.0000 C 527.0000,520.0000 523.0000,522.0000 519.0000,524.0000 C 518.0000,525.0000 518.0000,525.0000 517.0000,525.0000 C 512.0000,527.0000 507.0000,530.0000 501.0000,532.0000 C 499.0000,532.0000 498.0000,533.0000 496.0000,533.0000 C 492.0000,535.0000 487.0000,536.0000 483.0000,538.0000 C 476.0000,540.0000 469.0000,542.0000 462.0000,544.0000 C 462.0000,544.0000 462.0000,544.0000 462.0000,544.0000 C 416.0000,556.0000 357.0000,565.0000 286.0000,565.0000 C 215.0000,565.0000 155.0000,556.0000 109.0000,544.0000 C 109.0000,544.0000 109.0000,544.0000 109.0000,544.0000 C 102.0000,542.0000 96.0000,540.0000 90.0000,538.0000 C 85.0000,536.0000 80.0000,535.0000 76.0000,533.0000 C 75.0000,533.0000 73.0000,532.0000 72.0000,532.0000 C 66.0000,530.0000 60.0000,527.0000 55.0000,525.0000 C 55.0000,525.0000 54.0000,525.0000 54.0000,524.0000 C 49.0000,522.0000 45.0000,520.0000 41.0000,518.0000 C 40.0000,518.0000 39.0000,517.0000 38.0000,516.0000 C 34.0000,515.0000 31.0000,513.0000 28.0000,511.0000 C 27.0000,510.0000 27.0000,510.0000 26.0000,509.0000 C 22.0000,507.0000 19.0000,505.0000 17.0000,502.0000 C 16.0000,502.0000 16.0000,502.0000 16.0000,502.0000 C 14.0000,500.0000 12.0000,498.0000 10.0000,496.0000 C 9.0000,495.0000 9.0000,495.0000 8.0000,494.0000 C 7.0000,492.0000 6.0000,491.0000 5.0000,489.0000 C 5.0000,489.0000 5.0000,488.0000 5.0000,488.0000 C 4.0000,486.0000 3.0000,484.0000 3.0000,482.0000 C 3.0000,420.0000 3.0000,420.0000 3.0000,420.0000 C 38.0000,441.0000 87.0000,457.0000 142.0000,467.0000 C 142.0000,431.0000 142.0000,431.0000 142.0000,431.0000 C 76.0000,418.0000 28.0000,397.0000 3.0000,375.0000 C 3.0000,300.0000 3.0000,300.0000 3.0000,300.0000 C 25.0000,313.0000 51.0000,324.0000 81.0000,333.0000 C 81.0000,333.0000 81.0000,333.0000 81.0000,333.0000 C 81.0000,333.0000 81.0000,333.0000 81.0000,333.0000 C 102.0000,339.0000 125.0000,344.0000 148.0000,349.0000 C 151.0000,349.0000 153.0000,349.0000 156.0000,350.0000 C 163.0000,351.0000 169.0000,352.0000 176.0000,353.0000 C 182.0000,354.0000 188.0000,355.0000 195.0000,355.0000 C 201.0000,356.0000 207.0000,357.0000 214.0000,357.0000 C 222.0000,358.0000 231.0000,359.0000 240.0000,359.0000 C 244.0000,359.0000 247.0000,359.0000 251.0000,360.0000 C 263.0000,360.0000 274.0000,360.0000 286.0000,360.0000 C 286.0000,360.0000 286.0000,360.0000 286.0000,360.0000 C 286.0000,360.0000 286.0000,360.0000 286.0000,360.0000 C 298.0000,360.0000 310.0000,360.0000 321.0000,360.0000 C 325.0000,359.0000 328.0000,359.0000 332.0000,359.0000 C 341.0000,359.0000 350.0000,358.0000 359.0000,357.0000 C 365.0000,357.0000 371.0000,356.0000 378.0000,355.0000 C 384.0000,355.0000 390.0000,354.0000 397.0000,353.0000 C 403.0000,352.0000 410.0000,351.0000 416.0000,350.0000 C 419.0000,349.0000 422.0000,349.0000 424.0000,349.0000 C 448.0000,344.0000 470.0000,339.0000 491.0000,333.0000 C 491.0000,333.0000 491.0000,333.0000 491.0000,333.0000 C 491.0000,333.0000 491.0000,333.0000 491.0000,333.0000 C 521.0000,324.0000 548.0000,313.0000 569.0000,300.0000 Z M 569.0000,224.0000 C 569.0000,255.0000 569.0000,255.0000 569.0000,255.0000 C 559.0000,264.0000 544.0000,273.0000 526.0000,282.0000 C 520.0000,285.0000 513.0000,287.0000 507.0000,290.0000 C 505.0000,290.0000 504.0000,291.0000 503.0000,291.0000 C 496.0000,294.0000 488.0000,296.0000 481.0000,299.0000 C 481.0000,299.0000 481.0000,299.0000 480.0000,299.0000 C 473.0000,301.0000 465.0000,303.0000 457.0000,305.0000 C 455.0000,305.0000 453.0000,306.0000 451.0000,306.0000 C 443.0000,308.0000 434.0000,310.0000 425.0000,312.0000 C 425.0000,312.0000 424.0000,312.0000 424.0000,312.0000 C 415.0000,314.0000 406.0000,315.0000 397.0000,316.0000 C 394.0000,317.0000 392.0000,317.0000 390.0000,317.0000 C 380.0000,319.0000 370.0000,320.0000 360.0000,321.0000 C 359.0000,321.0000 359.0000,321.0000 359.0000,321.0000 C 349.0000,322.0000 338.0000,322.0000 328.0000,323.0000 C 325.0000,323.0000 322.0000,323.0000 320.0000,323.0000 C 309.0000,324.0000 298.0000,324.0000 286.0000,324.0000 C 286.0000,324.0000 286.0000,324.0000 286.0000,324.0000 C 286.0000,324.0000 286.0000,324.0000 286.0000,324.0000 C 275.0000,324.0000 264.0000,324.0000 253.0000,323.0000 C 250.0000,323.0000 247.0000,323.0000 244.0000,323.0000 C 234.0000,322.0000 224.0000,322.0000 214.0000,321.0000 C 213.0000,321.0000 213.0000,321.0000 213.0000,321.0000 C 202.0000,320.0000 192.0000,319.0000 183.0000,317.0000 C 180.0000,317.0000 178.0000,317.0000 176.0000,316.0000 C 166.0000,315.0000 157.0000,314.0000 148.0000,312.0000 C 148.0000,312.0000 148.0000,312.0000 147.0000,312.0000 C 138.0000,310.0000 130.0000,308.0000 121.0000,306.0000 C 119.0000,306.0000 117.0000,305.0000 116.0000,305.0000 C 107.0000,303.0000 99.0000,301.0000 92.0000,299.0000 C 92.0000,299.0000 92.0000,299.0000 92.0000,299.0000 C 84.0000,296.0000 76.0000,294.0000 69.0000,291.0000 C 68.0000,291.0000 67.0000,290.0000 65.0000,290.0000 C 59.0000,287.0000 52.0000,285.0000 46.0000,282.0000 C 28.0000,273.0000 14.0000,264.0000 3.0000,255.0000 C 3.0000,224.0000 3.0000,224.0000 3.0000,224.0000 C 3.0000,190.0000 3.0000,190.0000 3.0000,190.0000 C 12.0000,195.0000 21.0000,200.0000 31.0000,204.0000 C 99.0000,233.0000 193.0000,248.0000 286.0000,248.0000 C 286.0000,248.0000 286.0000,248.0000 286.0000,248.0000 C 286.0000,248.0000 286.0000,248.0000 286.0000,248.0000 C 393.0000,248.0000 501.0000,228.0000 569.0000,190.0000 Z M 568.0000,98.0000 C 555.0000,128.0000 451.0000,175.0000 286.0000,175.0000 C 122.0000,175.0000 17.0000,128.0000 5.0000,98.0000 C 4.0000,96.0000 3.0000,94.0000 3.0000,92.0000 C 3.0000,90.0000 4.0000,88.0000 5.0000,86.0000 C 17.0000,56.0000 122.0000,9.0000 286.0000,9.0000 C 451.0000,9.0000 555.0000,56.0000 568.0000,86.0000 C 569.0000,88.0000 569.0000,90.0000 569.0000,92.0000 C 569.0000,94.0000 569.0000,96.0000 568.0000,98.0000 Z "  fill="#FFFFFF" stroke="none" />
<path d="M 264.0000,442.0000 C 262.0000,429.0000 249.0000,418.0000 234.0000,417.0000 C 207.0000,415.0000 197.0000,437.0000 197.0000,461.0000 C 197.0000,484.0000 207.0000,508.0000 234.0000,510.0000 C 252.0000,511.0000 263.0000,499.0000 265.0000,481.0000 C 275.0000,481.0000 285.0000,481.0000 294.0000,481.0000 C 291.0000,516.0000 268.0000,537.0000 234.0000,535.0000 C 192.0000,533.0000 167.0000,497.0000 167.0000,458.0000 C 167.0000,417.0000 192.0000,389.0000 234.0000,392.0000 C 264.0000,394.0000 290.0000,411.0000 293.0000,443.0000 C 284.0000,443.0000 274.0000,443.0000 264.0000,442.0000 Z "  fill="#FFFFFF" stroke="none" />
<path d="M 353.0000,396.0000 C 363.0000,395.0000 373.0000,395.0000 383.0000,394.0000 C 401.0000,438.0000 418.0000,482.0000 435.0000,526.0000 C 424.0000,527.0000 414.0000,528.0000 403.0000,529.0000 C 400.0000,519.0000 396.0000,509.0000 393.0000,500.0000 C 376.0000,501.0000 359.0000,502.0000 342.0000,503.0000 C 338.0000,513.0000 335.0000,523.0000 331.0000,534.0000 C 321.0000,534.0000 311.0000,534.0000 300.0000,534.0000 C 318.0000,488.0000 335.0000,442.0000 353.0000,396.0000 Z M 350.0000,480.0000 C 361.0000,479.0000 373.0000,479.0000 385.0000,478.0000 C 379.0000,461.0000 374.0000,445.0000 368.0000,429.0000 C 368.0000,429.0000 368.0000,429.0000 367.0000,429.0000 C 362.0000,446.0000 356.0000,463.0000 350.0000,480.0000 Z "  fill="#FFFFFF" stroke="none" />
</g>
</svg>
