<?xml version="1.0"  encoding="UTF-8" standalone="no"?>
<svg version="1.1" xmlns="http://www.w3.org/2000/svg" xmlns:xlink="http://www.w3.org/1999/xlink" width="365.0000" height="320.0000">
<g transform="translate(-97.0000, -120.0000)">
<path d="M 97.0000,213.0000 L 266.0000,213.0000 L 266.0000,120.0000 L 97.0000,120.0000 L 97.0000,213.0000 Z "  fill="#FFFFFF" stroke-width="1px" stroke="#FFFFFF" />
<path d="M 97.0000,326.0000 L 160.0000,326.0000 L 160.0000,232.0000 L 97.0000,232.0000 L 97.0000,326.0000 Z "  fill="#FFFFFF" stroke-width="1px" stroke="#FFFFFF" />
<path d="M 267.0000,344.0000 L 97.0000,344.0000 L 97.0000,437.0000 L 267.0000,437.0000 L 267.0000,344.0000 Z "  fill="#FFFFFF" stroke-width="1px" stroke="#FFFFFF" />
<path d="M 461.0000,344.0000 L 442.0000,344.0000 L 461.0000,389.0000 L 461.0000,344.0000 Z "  fill="#FFFFFF" stroke-width="1px" stroke="#FFFFFF" />
<path d="M 375.0000,370.0000 L 337.0000,399.0000 L 320.0000,437.0000 L 430.0000,437.0000 L 413.0000,397.0000 L 375.0000,370.0000 Z "  fill="#FFFFFF" stroke-width="1px" stroke="#FFFFFF" />
<path d="M 294.0000,379.0000 C 309.0000,344.0000 309.0000,344.0000 309.0000,344.0000 C 290.0000,344.0000 290.0000,344.0000 290.0000,344.0000 C 290.0000,387.0000 290.0000,387.0000 290.0000,387.0000 C 292.0000,383.0000 292.0000,383.0000 292.0000,383.0000 C 293.0000,382.0000 293.0000,381.0000 294.0000,379.0000 Z "  fill="#FFFFFF" stroke="none" />
<path d="M 313.0000,296.0000 C 294.0000,280.0000 282.0000,257.0000 280.0000,232.0000 C 181.0000,232.0000 181.0000,232.0000 181.0000,232.0000 C 181.0000,326.0000 181.0000,326.0000 181.0000,326.0000 C 317.0000,326.0000 317.0000,326.0000 317.0000,326.0000 C 327.0000,302.0000 327.0000,302.0000 327.0000,302.0000 C 322.0000,301.0000 317.0000,299.0000 313.0000,296.0000 Z "  fill="#FFFFFF" stroke="none" />
<path d="M 436.0000,296.0000 C 432.0000,299.0000 428.0000,301.0000 424.0000,301.0000 C 434.0000,326.0000 434.0000,326.0000 434.0000,326.0000 C 460.0000,326.0000 460.0000,326.0000 460.0000,326.0000 C 460.0000,264.0000 460.0000,264.0000 460.0000,264.0000 C 454.0000,276.0000 446.0000,287.0000 436.0000,296.0000 Z "  fill="#FFFFFF" stroke="none" />
<path d="M 314.0000,146.0000 C 318.0000,143.0000 323.0000,141.0000 328.0000,141.0000 C 337.0000,141.0000 346.0000,147.0000 349.0000,156.0000 C 350.0000,158.0000 350.0000,159.0000 350.0000,161.0000 C 359.0000,161.0000 366.0000,167.0000 369.0000,175.0000 C 371.0000,178.0000 371.0000,182.0000 370.0000,185.0000 C 373.0000,185.0000 376.0000,185.0000 379.0000,185.0000 C 378.0000,182.0000 378.0000,178.0000 380.0000,175.0000 C 383.0000,167.0000 390.0000,161.0000 399.0000,161.0000 C 399.0000,159.0000 399.0000,158.0000 400.0000,156.0000 C 403.0000,147.0000 412.0000,141.0000 421.0000,141.0000 C 426.0000,141.0000 431.0000,143.0000 435.0000,146.0000 C 446.0000,155.0000 454.0000,166.0000 460.0000,178.0000 C 460.0000,120.0000 460.0000,120.0000 460.0000,120.0000 C 290.0000,120.0000 290.0000,120.0000 290.0000,120.0000 C 290.0000,176.0000 290.0000,176.0000 290.0000,176.0000 C 296.0000,165.0000 304.0000,155.0000 314.0000,146.0000 Z "  fill="#FFFFFF" stroke="none" />
<path d="M 389.0000,260.0000 C 387.0000,256.0000 382.0000,249.0000 376.0000,249.0000 C 368.0000,249.0000 364.0000,253.0000 362.0000,257.0000 C 308.0000,387.0000 308.0000,387.0000 308.0000,387.0000 C 307.0000,387.0000 307.0000,388.0000 307.0000,388.0000 C 290.0000,427.0000 290.0000,427.0000 290.0000,427.0000 C 289.0000,431.0000 291.0000,435.0000 295.0000,437.0000 C 296.0000,438.0000 297.0000,438.0000 298.0000,438.0000 C 301.0000,438.0000 304.0000,436.0000 305.0000,433.0000 C 324.0000,389.0000 324.0000,389.0000 324.0000,389.0000 C 374.0000,351.0000 374.0000,351.0000 374.0000,351.0000 C 426.0000,387.0000 426.0000,387.0000 426.0000,387.0000 C 446.0000,436.0000 446.0000,436.0000 446.0000,436.0000 C 448.0000,439.0000 451.0000,440.0000 454.0000,440.0000 C 455.0000,440.0000 456.0000,440.0000 457.0000,440.0000 C 461.0000,438.0000 463.0000,433.0000 461.0000,429.0000 Z M 333.0000,367.0000 C 348.0000,332.0000 348.0000,332.0000 348.0000,332.0000 C 364.0000,344.0000 364.0000,344.0000 364.0000,344.0000 Z M 374.0000,336.0000 C 353.0000,321.0000 353.0000,321.0000 353.0000,321.0000 C 375.0000,268.0000 375.0000,268.0000 375.0000,268.0000 C 397.0000,319.0000 397.0000,319.0000 397.0000,319.0000 Z M 385.0000,344.0000 C 402.0000,331.0000 402.0000,331.0000 402.0000,331.0000 C 417.0000,366.0000 417.0000,366.0000 417.0000,366.0000 Z "  fill="#FFFFFF" stroke="none" />
<path d="M 376.0000,242.0000 C 387.0000,242.0000 396.0000,233.0000 396.0000,221.0000 C 396.0000,210.0000 387.0000,201.0000 376.0000,201.0000 C 364.0000,201.0000 355.0000,210.0000 355.0000,221.0000 C 355.0000,233.0000 364.0000,242.0000 376.0000,242.0000 Z "  fill="#FFFFFF" stroke="none" />
<path d="M 427.0000,284.0000 C 445.0000,269.0000 456.0000,246.0000 456.0000,221.0000 C 456.0000,196.0000 444.0000,173.0000 427.0000,158.0000 C 420.0000,152.0000 411.0000,163.0000 418.0000,169.0000 C 433.0000,181.0000 442.0000,200.0000 442.0000,221.0000 C 442.0000,242.0000 433.0000,261.0000 418.0000,274.0000 C 411.0000,280.0000 420.0000,290.0000 427.0000,284.0000 Z "  fill="#FFFFFF" stroke="none" />
<path d="M 334.0000,169.0000 C 341.0000,163.0000 332.0000,152.0000 325.0000,158.0000 C 307.0000,173.0000 296.0000,196.0000 296.0000,221.0000 C 296.0000,246.0000 307.0000,269.0000 325.0000,284.0000 C 332.0000,290.0000 341.0000,280.0000 334.0000,274.0000 C 319.0000,261.0000 310.0000,242.0000 310.0000,221.0000 C 310.0000,200.0000 319.0000,181.0000 334.0000,169.0000 Z "  fill="#FFFFFF" stroke="none" />
<path d="M 403.0000,264.0000 C 415.0000,254.0000 423.0000,239.0000 423.0000,221.0000 C 423.0000,204.0000 415.0000,188.0000 403.0000,178.0000 C 398.0000,174.0000 392.0000,181.0000 397.0000,185.0000 C 407.0000,194.0000 414.0000,207.0000 414.0000,221.0000 C 414.0000,236.0000 407.0000,249.0000 397.0000,257.0000 C 392.0000,261.0000 398.0000,268.0000 403.0000,264.0000 Z "  fill="#FFFFFF" stroke="none" />
<path d="M 348.0000,264.0000 C 353.0000,268.0000 359.0000,261.0000 355.0000,257.0000 C 344.0000,249.0000 338.0000,236.0000 338.0000,221.0000 C 338.0000,207.0000 344.0000,194.0000 355.0000,185.0000 C 359.0000,181.0000 353.0000,174.0000 349.0000,178.0000 C 336.0000,188.0000 329.0000,204.0000 329.0000,221.0000 C 329.0000,239.0000 336.0000,254.0000 348.0000,264.0000 Z "  fill="#FFFFFF" stroke="none" />
</g>
</svg>
