<?xml version="1.0"  encoding="UTF-8" standalone="no"?>
<svg version="1.1" xmlns="http://www.w3.org/2000/svg" xmlns:xlink="http://www.w3.org/1999/xlink" width="394.0000" height="319.0000">
<g transform="translate(-87.0000, -125.0000)">
<path d="M 87.0000,219.0000 L 256.0000,219.0000 L 256.0000,125.0000 L 87.0000,125.0000 L 87.0000,219.0000 Z "  fill="#FFFFFF" stroke-width="1px" stroke="#FFFFFF" />
<path d="M 87.0000,331.0000 L 150.0000,331.0000 L 150.0000,238.0000 L 87.0000,238.0000 L 87.0000,331.0000 Z "  fill="#FFFFFF" stroke-width="1px" stroke="#FFFFFF" />
<path d="M 228.0000,428.0000 C 215.0000,417.0000 209.0000,403.0000 209.0000,387.0000 C 209.0000,373.0000 215.0000,359.0000 225.0000,349.0000 C 87.0000,349.0000 87.0000,349.0000 87.0000,349.0000 C 87.0000,442.0000 87.0000,442.0000 87.0000,442.0000 C 252.0000,442.0000 252.0000,442.0000 252.0000,442.0000 C 241.0000,438.0000 233.0000,433.0000 228.0000,428.0000 Z "  fill="#FFFFFF" stroke="none" />
<path d="M 303.0000,298.0000 C 307.0000,298.0000 311.0000,298.0000 316.0000,299.0000 C 330.0000,281.0000 354.0000,270.0000 380.0000,270.0000 C 410.0000,270.0000 437.0000,286.0000 450.0000,309.0000 C 450.0000,238.0000 450.0000,238.0000 450.0000,238.0000 C 171.0000,238.0000 171.0000,238.0000 171.0000,238.0000 C 171.0000,331.0000 171.0000,331.0000 171.0000,331.0000 C 254.0000,331.0000 254.0000,331.0000 254.0000,331.0000 C 261.0000,312.0000 280.0000,298.0000 303.0000,298.0000 Z "  fill="#FFFFFF" stroke="none" />
<path d="M 280.0000,219.0000 L 450.0000,219.0000 L 450.0000,125.0000 L 280.0000,125.0000 L 280.0000,219.0000 Z "  fill="#FFFFFF" stroke-width="1px" stroke="#FFFFFF" />
<path d="M 481.0000,387.0000 C 481.0000,368.0000 469.0000,351.0000 450.0000,345.0000 C 445.0000,344.0000 445.0000,344.0000 445.0000,344.0000 C 445.0000,339.0000 445.0000,339.0000 445.0000,339.0000 C 444.0000,309.0000 415.0000,284.0000 380.0000,284.0000 C 357.0000,284.0000 335.0000,294.0000 324.0000,311.0000 C 321.0000,315.0000 321.0000,315.0000 321.0000,315.0000 C 316.0000,314.0000 316.0000,314.0000 316.0000,314.0000 C 312.0000,312.0000 307.0000,311.0000 303.0000,311.0000 C 284.0000,311.0000 268.0000,324.0000 266.0000,340.0000 C 265.0000,345.0000 265.0000,345.0000 265.0000,345.0000 C 260.0000,346.0000 260.0000,346.0000 260.0000,346.0000 C 238.0000,350.0000 222.0000,368.0000 222.0000,387.0000 C 222.0000,399.0000 227.0000,410.0000 237.0000,418.0000 C 237.0000,418.0000 237.0000,418.0000 237.0000,418.0000 C 253.0000,433.0000 299.0000,444.0000 352.0000,444.0000 C 391.0000,444.0000 427.0000,438.0000 450.0000,429.0000 C 450.0000,428.0000 450.0000,428.0000 450.0000,428.0000 C 469.0000,422.0000 481.0000,405.0000 481.0000,387.0000 Z "  fill="#FFFFFF" stroke="none" />
</g>
</svg>
