<?xml version="1.0"  encoding="UTF-8" standalone="no"?>
<svg version="1.1" xmlns="http://www.w3.org/2000/svg" xmlns:xlink="http://www.w3.org/1999/xlink" width="808.0000" height="976.0000">
<g transform="translate(117.0000, 201.0000)">
<path d="M 288.0000,607.0000 C 65.0000,607.0000 -117.0000,426.0000 -117.0000,203.0000 C -117.0000,-20.0000 65.0000,-201.0000 288.0000,-201.0000 C 510.0000,-201.0000 691.0000,-20.0000 691.0000,203.0000 C 691.0000,426.0000 510.0000,607.0000 288.0000,607.0000 Z M 288.0000,-167.0000 C 83.0000,-167.0000 -83.0000,-1.0000 -83.0000,203.0000 C -83.0000,407.0000 83.0000,573.0000 288.0000,573.0000 C 491.0000,573.0000 657.0000,407.0000 657.0000,203.0000 C 657.0000,-1.0000 491.0000,-167.0000 288.0000,-167.0000 Z "  fill="#FFFFFF" stroke="none" />
<path d="M 168.0000,649.0000 C 168.0000,736.0000 168.0000,736.0000 168.0000,736.0000 C 168.0000,748.0000 171.0000,757.0000 182.0000,757.0000 C 194.0000,757.0000 197.0000,748.0000 197.0000,736.0000 C 197.0000,649.0000 197.0000,649.0000 197.0000,649.0000 C 222.0000,649.0000 222.0000,649.0000 222.0000,649.0000 C 222.0000,736.0000 222.0000,736.0000 222.0000,736.0000 C 222.0000,767.0000 203.0000,775.0000 182.0000,775.0000 C 162.0000,775.0000 143.0000,769.0000 143.0000,736.0000 C 143.0000,649.0000 143.0000,649.0000 143.0000,649.0000 Z "  fill="#FFFFFF" stroke="none" />
<path d="M 310.0000,649.0000 L 310.0000,670.0000 L 283.0000,670.0000 L 283.0000,773.0000 L 258.0000,773.0000 L 258.0000,670.0000 L 231.0000,670.0000 L 231.0000,649.0000 L 310.0000,649.0000 Z "  fill="#FFFFFF" stroke-width="1px" stroke="#FFFFFF" />
<path d="M 321.0000,649.0000 L 358.0000,649.0000 L 376.0000,737.0000 L 376.0000,737.0000 L 394.0000,649.0000 L 431.0000,649.0000 L 431.0000,773.0000 L 408.0000,773.0000 L 408.0000,674.0000 L 408.0000,674.0000 L 386.0000,773.0000 L 366.0000,773.0000 L 344.0000,674.0000 L 344.0000,674.0000 L 344.0000,773.0000 L 321.0000,773.0000 L 321.0000,649.0000 Z "  fill="#FFFFFF" stroke-width="1px" stroke="#FFFFFF" />
<path d="M 36.0000,115.0000 L 269.0000,115.0000 L 269.0000,-13.0000 L 36.0000,-13.0000 L 36.0000,115.0000 Z "  fill="#FFFFFF" stroke-width="1px" stroke="#FFFFFF" />
<path d="M 36.0000,269.0000 L 123.0000,269.0000 L 123.0000,141.0000 L 36.0000,141.0000 L 36.0000,269.0000 Z "  fill="#FFFFFF" stroke-width="1px" stroke="#FFFFFF" />
<path d="M 260.0000,294.0000 C 36.0000,294.0000 36.0000,294.0000 36.0000,294.0000 C 36.0000,421.0000 36.0000,421.0000 36.0000,421.0000 C 269.0000,421.0000 269.0000,421.0000 269.0000,421.0000 C 269.0000,323.0000 269.0000,323.0000 269.0000,323.0000 C 265.0000,313.0000 262.0000,304.0000 260.0000,294.0000 Z "  fill="#FFFFFF" stroke="none" />
<path d="M 535.0000,372.0000 C 505.0000,402.0000 464.0000,420.0000 419.0000,420.0000 C 373.0000,420.0000 331.0000,401.0000 301.0000,370.0000 C 301.0000,421.0000 301.0000,421.0000 301.0000,421.0000 C 535.0000,421.0000 535.0000,421.0000 535.0000,421.0000 Z "  fill="#FFFFFF" stroke="none" />
<path d="M 255.0000,256.0000 C 255.0000,211.0000 273.0000,171.0000 303.0000,141.0000 C 152.0000,141.0000 152.0000,141.0000 152.0000,141.0000 C 152.0000,269.0000 152.0000,269.0000 152.0000,269.0000 C 256.0000,269.0000 256.0000,269.0000 256.0000,269.0000 C 255.0000,265.0000 255.0000,261.0000 255.0000,256.0000 Z "  fill="#FFFFFF" stroke="none" />
<path d="M 533.0000,-13.0000 C 301.0000,-13.0000 301.0000,-13.0000 301.0000,-13.0000 C 301.0000,115.0000 301.0000,115.0000 301.0000,115.0000 C 336.0000,115.0000 336.0000,115.0000 336.0000,115.0000 C 360.0000,101.0000 389.0000,93.0000 419.0000,93.0000 C 449.0000,93.0000 478.0000,101.0000 502.0000,115.0000 C 533.0000,115.0000 533.0000,115.0000 533.0000,115.0000 Z "  fill="#FFFFFF" stroke="none" />
<path d="M 336.0000,284.0000 C 334.0000,277.0000 334.0000,277.0000 334.0000,277.0000 C 333.0000,270.0000 332.0000,263.0000 332.0000,256.0000 C 332.0000,215.0000 361.0000,179.0000 401.0000,170.0000 C 407.0000,169.0000 407.0000,169.0000 407.0000,169.0000 C 407.0000,162.0000 407.0000,162.0000 407.0000,162.0000 C 407.0000,126.0000 407.0000,126.0000 407.0000,126.0000 C 407.0000,116.0000 407.0000,116.0000 407.0000,116.0000 C 397.0000,117.0000 397.0000,117.0000 397.0000,117.0000 C 330.0000,128.0000 279.0000,187.0000 279.0000,256.0000 C 279.0000,270.0000 281.0000,285.0000 286.0000,299.0000 C 289.0000,308.0000 289.0000,308.0000 289.0000,308.0000 C 298.0000,304.0000 298.0000,304.0000 298.0000,304.0000 C 330.0000,287.0000 330.0000,287.0000 330.0000,287.0000 Z "  fill="#FFFFFF" stroke="none" />
<path d="M 446.0000,118.0000 C 436.0000,116.0000 436.0000,116.0000 436.0000,116.0000 C 436.0000,126.0000 436.0000,126.0000 436.0000,126.0000 C 436.0000,163.0000 436.0000,163.0000 436.0000,163.0000 C 436.0000,169.0000 436.0000,169.0000 436.0000,169.0000 C 442.0000,171.0000 442.0000,171.0000 442.0000,171.0000 C 480.0000,181.0000 507.0000,216.0000 507.0000,256.0000 C 507.0000,263.0000 506.0000,269.0000 505.0000,276.0000 C 504.0000,282.0000 504.0000,282.0000 504.0000,282.0000 C 509.0000,285.0000 509.0000,285.0000 509.0000,285.0000 C 540.0000,305.0000 540.0000,305.0000 540.0000,305.0000 C 549.0000,311.0000 549.0000,311.0000 549.0000,311.0000 C 552.0000,301.0000 552.0000,301.0000 552.0000,301.0000 C 557.0000,286.0000 560.0000,271.0000 560.0000,256.0000 C 560.0000,189.0000 512.0000,131.0000 446.0000,118.0000 Z "  fill="#FFFFFF" stroke="none" />
<path d="M 497.0000,311.0000 C 491.0000,308.0000 491.0000,308.0000 491.0000,308.0000 C 486.0000,313.0000 486.0000,313.0000 486.0000,313.0000 C 469.0000,332.0000 445.0000,344.0000 420.0000,344.0000 C 395.0000,344.0000 371.0000,333.0000 354.0000,314.0000 C 350.0000,309.0000 350.0000,309.0000 350.0000,309.0000 C 344.0000,312.0000 344.0000,312.0000 344.0000,312.0000 C 311.0000,329.0000 311.0000,329.0000 311.0000,329.0000 C 302.0000,333.0000 302.0000,333.0000 302.0000,333.0000 C 309.0000,341.0000 309.0000,341.0000 309.0000,341.0000 C 335.0000,376.0000 376.0000,396.0000 420.0000,396.0000 C 462.0000,396.0000 502.0000,377.0000 529.0000,343.0000 C 535.0000,336.0000 535.0000,336.0000 535.0000,336.0000 C 527.0000,331.0000 527.0000,331.0000 527.0000,331.0000 Z "  fill="#FFFFFF" stroke="none" />
<path d="M 360.0000,256.0000 C 360.0000,289.0000 387.0000,316.0000 420.0000,316.0000 C 453.0000,316.0000 479.0000,289.0000 479.0000,256.0000 C 479.0000,223.0000 453.0000,196.0000 420.0000,196.0000 C 387.0000,196.0000 360.0000,223.0000 360.0000,256.0000 Z "  fill="#FFFFFF" stroke="none" />
</g>
</svg>
